<?xml version="1.0" encoding="UTF-8" standalone="no"?>
<!DOCTYPE svg PUBLIC "-//W3C//DTD SVG 1.1//EN"
 "http://www.w3.org/Graphics/SVG/1.1/DTD/svg11.dtd">
<!-- Generated by graphviz version 2.43.0 (0)
 -->
<!-- Title: src Pages: 1 -->
<svg width="618pt" height="132pt"
 viewBox="0.00 0.00 618.00 132.00" xmlns="http://www.w3.org/2000/svg" xmlns:xlink="http://www.w3.org/1999/xlink">
<g id="graph0" class="graph" transform="scale(1 1) rotate(0) translate(4 128)">
<title>src</title>
<g id="clust1" class="cluster">
<title>clusterdir_68267d1309a1af8e8297ef4c3efbcdba</title>
<g id="a_clust1"><a xlink:href="dir_68267d1309a1af8e8297ef4c3efbcdba.html" target="_top">
<polygon fill="#eeeeff" stroke="black" points="8,-64 8,-116 602,-116 602,-64 8,-64"/>
</a>
</g>
</g>
<!-- dir_68267d1309a1af8e8297ef4c3efbcdba -->
<g id="node1" class="node">
<title>dir_68267d1309a1af8e8297ef4c3efbcdba</title>
<text text-anchor="middle" x="567" y="-87.5" font-family="Helvetica,sans-Serif" font-size="10.00">src</text>
</g>
<!-- dir_38cd9eca440b760dc966f21b1f8d8f41 -->
<g id="node2" class="node">
<title>dir_38cd9eca440b760dc966f21b1f8d8f41</title>
<g id="a_node2"><a xlink:href="dir_38cd9eca440b760dc966f21b1f8d8f41.html" target="_top" xlink:title="basic">
<polygon fill="white" stroke="black" points="522,-108 468,-108 468,-72 522,-72 522,-108"/>
<text text-anchor="middle" x="495" y="-87.5" font-family="Helvetica,sans-Serif" font-size="10.00">basic</text>
</a>
</g>
</g>
<!-- dir_d44c64559bbebec7f509842c48db8b23 -->
<g id="node9" class="node">
<title>dir_d44c64559bbebec7f509842c48db8b23</title>
<g id="a_node9"><a xlink:href="dir_d44c64559bbebec7f509842c48db8b23.html" target="_top" xlink:title="include">
<polygon fill="none" stroke="red" points="290,-36 236,-36 236,0 290,0 290,-36"/>
<text text-anchor="middle" x="263" y="-15.5" font-family="Helvetica,sans-Serif" font-size="10.00">include</text>
</a>
</g>
</g>
<!-- dir_38cd9eca440b760dc966f21b1f8d8f41&#45;&gt;dir_d44c64559bbebec7f509842c48db8b23 -->
<g id="edge2" class="edge">
<title>dir_38cd9eca440b760dc966f21b1f8d8f41&#45;&gt;dir_d44c64559bbebec7f509842c48db8b23</title>
<path fill="none" stroke="black" d="M473.32,-72C468.77,-69 463.87,-66.15 459,-64 406.42,-40.75 340.39,-28.79 299.97,-23.22"/>
<polygon fill="black" stroke="black" points="300.39,-19.74 290.02,-21.9 299.47,-26.68 300.39,-19.74"/>
<g id="a_edge2&#45;headlabel"><a xlink:href="dir_000015_000013.html" target="_top" xlink:title="31">
<text text-anchor="middle" x="304.32" y="-14.9" font-family="Helvetica,sans-Serif" font-size="10.00">31</text>
</a>
</g>
</g>
<!-- dir_46a300e4974f45ffe4be063a03f2fd9d -->
<g id="node3" class="node">
<title>dir_46a300e4974f45ffe4be063a03f2fd9d</title>
<g id="a_node3"><a xlink:href="dir_46a300e4974f45ffe4be063a03f2fd9d.html" target="_top" xlink:title="block">
<polygon fill="white" stroke="red" points="450,-108 396,-108 396,-72 450,-72 450,-108"/>
<text text-anchor="middle" x="423" y="-87.5" font-family="Helvetica,sans-Serif" font-size="10.00">block</text>
</a>
</g>
</g>
<!-- dir_46a300e4974f45ffe4be063a03f2fd9d&#45;&gt;dir_d44c64559bbebec7f509842c48db8b23 -->
<g id="edge4" class="edge">
<title>dir_46a300e4974f45ffe4be063a03f2fd9d&#45;&gt;dir_d44c64559bbebec7f509842c48db8b23</title>
<path fill="none" stroke="black" d="M400.32,-71.94C396.01,-69.09 391.46,-66.31 387,-64 359.11,-49.57 325.53,-37.69 300.35,-29.76"/>
<polygon fill="black" stroke="black" points="301.04,-26.32 290.46,-26.72 298.98,-33.01 301.04,-26.32"/>
<g id="a_edge4&#45;headlabel"><a xlink:href="dir_000022_000013.html" target="_top" xlink:title="18">
<text text-anchor="middle" x="305.31" y="-22.16" font-family="Helvetica,sans-Serif" font-size="10.00">18</text>
</a>
</g>
</g>
<!-- dir_0b61c55142250c0cc363383afd8075a4 -->
<g id="node4" class="node">
<title>dir_0b61c55142250c0cc363383afd8075a4</title>
<g id="a_node4"><a xlink:href="dir_0b61c55142250c0cc363383afd8075a4.html" target="_top" xlink:title="containers">
<polygon fill="white" stroke="black" points="378,-108 310,-108 310,-72 378,-72 378,-108"/>
<text text-anchor="middle" x="344" y="-87.5" font-family="Helvetica,sans-Serif" font-size="10.00">containers</text>
</a>
</g>
</g>
<!-- dir_0b61c55142250c0cc363383afd8075a4&#45;&gt;dir_d44c64559bbebec7f509842c48db8b23 -->
<g id="edge6" class="edge">
<title>dir_0b61c55142250c0cc363383afd8075a4&#45;&gt;dir_d44c64559bbebec7f509842c48db8b23</title>
<path fill="none" stroke="black" d="M323.98,-71.7C313.87,-62.97 301.46,-52.24 290.48,-42.75"/>
<polygon fill="black" stroke="black" points="292.65,-39.99 282.79,-36.1 288.07,-45.29 292.65,-39.99"/>
<g id="a_edge6&#45;headlabel"><a xlink:href="dir_000028_000013.html" target="_top" xlink:title="3">
<text text-anchor="middle" x="297.22" y="-37.7" font-family="Helvetica,sans-Serif" font-size="10.00">3</text>
</a>
</g>
</g>
<!-- dir_80c877115d5e4512b3ef8c966088b937 -->
<g id="node5" class="node">
<title>dir_80c877115d5e4512b3ef8c966088b937</title>
<g id="a_node5"><a xlink:href="dir_80c877115d5e4512b3ef8c966088b937.html" target="_top" xlink:title="flanterm">
<polygon fill="white" stroke="black" points="292,-108 234,-108 234,-72 292,-72 292,-108"/>
<text text-anchor="middle" x="263" y="-87.5" font-family="Helvetica,sans-Serif" font-size="10.00">flanterm</text>
</a>
</g>
</g>
<!-- dir_80c877115d5e4512b3ef8c966088b937&#45;&gt;dir_d44c64559bbebec7f509842c48db8b23 -->
<g id="edge7" class="edge">
<title>dir_80c877115d5e4512b3ef8c966088b937&#45;&gt;dir_d44c64559bbebec7f509842c48db8b23</title>
<path fill="none" stroke="black" d="M263,-71.7C263,-63.98 263,-54.71 263,-46.11"/>
<polygon fill="black" stroke="black" points="266.5,-46.1 263,-36.1 259.5,-46.1 266.5,-46.1"/>
<g id="a_edge7&#45;headlabel"><a xlink:href="dir_000026_000013.html" target="_top" xlink:title="5">
<text text-anchor="middle" x="269.34" y="-47.2" font-family="Helvetica,sans-Serif" font-size="10.00">5</text>
</a>
</g>
</g>
<!-- dir_7d71b6c457a61cbf03a04bfdc57b6110 -->
<g id="node6" class="node">
<title>dir_7d71b6c457a61cbf03a04bfdc57b6110</title>
<g id="a_node6"><a xlink:href="dir_7d71b6c457a61cbf03a04bfdc57b6110.html" target="_top" xlink:title="fs">
<polygon fill="white" stroke="red" points="216,-108 162,-108 162,-72 216,-72 216,-108"/>
<text text-anchor="middle" x="189" y="-87.5" font-family="Helvetica,sans-Serif" font-size="10.00">fs</text>
</a>
</g>
</g>
<!-- dir_7d71b6c457a61cbf03a04bfdc57b6110&#45;&gt;dir_d44c64559bbebec7f509842c48db8b23 -->
<g id="edge1" class="edge">
<title>dir_7d71b6c457a61cbf03a04bfdc57b6110&#45;&gt;dir_d44c64559bbebec7f509842c48db8b23</title>
<path fill="none" stroke="black" d="M207.29,-71.7C216.43,-63.05 227.64,-52.45 237.6,-43.03"/>
<polygon fill="black" stroke="black" points="240.06,-45.52 244.92,-36.1 235.25,-40.43 240.06,-45.52"/>
<g id="a_edge1&#45;headlabel"><a xlink:href="dir_000017_000013.html" target="_top" xlink:title="45">
<text text-anchor="middle" x="239.4" y="-47.55" font-family="Helvetica,sans-Serif" font-size="10.00">45</text>
</a>
</g>
</g>
<!-- dir_42359dbf24597e7e6109a4845a9cd95e -->
<g id="node7" class="node">
<title>dir_42359dbf24597e7e6109a4845a9cd95e</title>
<g id="a_node7"><a xlink:href="dir_42359dbf24597e7e6109a4845a9cd95e.html" target="_top" xlink:title="installer">
<polygon fill="white" stroke="black" points="144,-108 88,-108 88,-72 144,-72 144,-108"/>
<text text-anchor="middle" x="116" y="-87.5" font-family="Helvetica,sans-Serif" font-size="10.00">installer</text>
</a>
</g>
</g>
<!-- dir_42359dbf24597e7e6109a4845a9cd95e&#45;&gt;dir_d44c64559bbebec7f509842c48db8b23 -->
<g id="edge3" class="edge">
<title>dir_42359dbf24597e7e6109a4845a9cd95e&#45;&gt;dir_d44c64559bbebec7f509842c48db8b23</title>
<path fill="none" stroke="black" d="M139.84,-71.86C144.13,-69.07 148.63,-66.34 153,-64 176.51,-51.42 204.31,-40.08 226.08,-31.93"/>
<polygon fill="black" stroke="black" points="227.45,-35.15 235.62,-28.41 225.03,-28.58 227.45,-35.15"/>
<g id="a_edge3&#45;headlabel"><a xlink:href="dir_000019_000013.html" target="_top" xlink:title="8">
<text text-anchor="middle" x="225.05" y="-36.56" font-family="Helvetica,sans-Serif" font-size="10.00">8</text>
</a>
</g>
</g>
<!-- dir_c72b25b75abe208498b36a3e44a3726c -->
<g id="node8" class="node">
<title>dir_c72b25b75abe208498b36a3e44a3726c</title>
<g id="a_node8"><a xlink:href="dir_c72b25b75abe208498b36a3e44a3726c.html" target="_top" xlink:title="net">
<polygon fill="white" stroke="black" points="70,-108 16,-108 16,-72 70,-72 70,-108"/>
<text text-anchor="middle" x="43" y="-87.5" font-family="Helvetica,sans-Serif" font-size="10.00">net</text>
</a>
</g>
</g>
<!-- dir_c72b25b75abe208498b36a3e44a3726c&#45;&gt;dir_d44c64559bbebec7f509842c48db8b23 -->
<g id="edge5" class="edge">
<title>dir_c72b25b75abe208498b36a3e44a3726c&#45;&gt;dir_d44c64559bbebec7f509842c48db8b23</title>
<path fill="none" stroke="black" d="M65.1,-71.79C69.53,-68.89 74.28,-66.13 79,-64 127.23,-42.26 187.51,-30.07 225.64,-24.02"/>
<polygon fill="black" stroke="black" points="226.43,-27.44 235.78,-22.47 225.37,-20.52 226.43,-27.44"/>
<g id="a_edge5&#45;headlabel"><a xlink:href="dir_000014_000013.html" target="_top" xlink:title="11">
<text text-anchor="middle" x="223.3" y="-28.29" font-family="Helvetica,sans-Serif" font-size="10.00">11</text>
</a>
</g>
</g>
</g>
</svg>
