<?xml version="1.0" encoding="UTF-8" standalone="no"?>
<!DOCTYPE svg PUBLIC "-//W3C//DTD SVG 1.1//EN"
 "http://www.w3.org/Graphics/SVG/1.1/DTD/svg11.dtd">
<!-- Generated by graphviz version 2.43.0 (0)
 -->
<!-- Title: src/flanterm Pages: 1 -->
<svg width="98pt" height="151pt"
 viewBox="0.00 0.00 98.00 151.00" xmlns="http://www.w3.org/2000/svg" xmlns:xlink="http://www.w3.org/1999/xlink">
<g id="graph0" class="graph" transform="scale(1 1) rotate(0) translate(4 147)">
<title>src/flanterm</title>
<g id="clust1" class="cluster">
<title>clusterdir_68267d1309a1af8e8297ef4c3efbcdba</title>
<g id="a_clust1"><a xlink:href="dir_68267d1309a1af8e8297ef4c3efbcdba.html" target="_top" xlink:title="src">
<polygon fill="#ddddee" stroke="black" points="8,-64 8,-135 82,-135 82,-64 8,-64"/>
<text text-anchor="middle" x="45" y="-123" font-family="Helvetica,sans-Serif" font-size="10.00">src</text>
</a>
</g>
</g>
<!-- dir_80c877115d5e4512b3ef8c966088b937 -->
<g id="node1" class="node">
<title>dir_80c877115d5e4512b3ef8c966088b937</title>
<g id="a_node1"><a xlink:href="dir_80c877115d5e4512b3ef8c966088b937.html" target="_top" xlink:title="flanterm">
<polygon fill="#eeeeff" stroke="black" points="74,-108 16,-108 16,-72 74,-72 74,-108"/>
<text text-anchor="middle" x="45" y="-87.5" font-family="Helvetica,sans-Serif" font-size="10.00">flanterm</text>
</a>
</g>
</g>
<!-- dir_d44c64559bbebec7f509842c48db8b23 -->
<g id="node2" class="node">
<title>dir_d44c64559bbebec7f509842c48db8b23</title>
<g id="a_node2"><a xlink:href="dir_d44c64559bbebec7f509842c48db8b23.html" target="_top" xlink:title="include">
<polygon fill="none" stroke="red" points="72,-36 18,-36 18,0 72,0 72,-36"/>
<text text-anchor="middle" x="45" y="-15.5" font-family="Helvetica,sans-Serif" font-size="10.00">include</text>
</a>
</g>
</g>
<!-- dir_80c877115d5e4512b3ef8c966088b937&#45;&gt;dir_d44c64559bbebec7f509842c48db8b23 -->
<g id="edge1" class="edge">
<title>dir_80c877115d5e4512b3ef8c966088b937&#45;&gt;dir_d44c64559bbebec7f509842c48db8b23</title>
<path fill="none" stroke="black" d="M45,-71.7C45,-63.98 45,-54.71 45,-46.11"/>
<polygon fill="black" stroke="black" points="48.5,-46.1 45,-36.1 41.5,-46.1 48.5,-46.1"/>
<g id="a_edge1&#45;headlabel"><a xlink:href="dir_000024_000012.html" target="_top" xlink:title="5">
<text text-anchor="middle" x="51.34" y="-47.2" font-family="Helvetica,sans-Serif" font-size="10.00">5</text>
</a>
</g>
</g>
</g>
</svg>
