<?xml version="1.0" encoding="UTF-8" standalone="no"?>
<!DOCTYPE svg PUBLIC "-//W3C//DTD SVG 1.1//EN"
 "http://www.w3.org/Graphics/SVG/1.1/DTD/svg11.dtd">
<!-- Generated by graphviz version 2.43.0 (0)
 -->
<!-- Title: basic&#45;language&#45;reference Pages: 1 -->
<!--zoomable 94 -->

<svg id="main" version="1.1" xmlns="http://www.w3.org/2000/svg" xmlns:xlink="http://www.w3.org/1999/xlink" xml:space="preserve" onload="init(evt)">

<style type="text/css"><![CDATA[
.node, .edge {opacity: 0.7;}
.node.selected, .edge.selected {opacity: 1;}
.edge:hover path { stroke: red; }
.edge:hover polygon { stroke: red; fill: red; }
]]></style>

<defs>
  <circle id="rim" cx="0" cy="0" r="7"/>
  <circle id="rim2" cx="0" cy="0" r="3.5"/>
  <g id="zoomPlus">
    <use xlink:href="#rim" fill="#404040"><set attributeName="fill" to="#808080" begin="zoomplus.mouseover" end="zoomplus.mouseout"/></use>
    <path d="M-4,0h8M0,-4v8" fill="none" stroke="white" stroke-width="1.5" pointer-events="none"/>
  </g>
  <g id="zoomMin">
    <use xlink:href="#rim" fill="#404040"><set attributeName="fill" to="#808080" begin="zoomminus.mouseover" end="zoomminus.mouseout"/></use>
    <path d="M-4,0h8" fill="none" stroke="white" stroke-width="1.5" pointer-events="none"/>
  </g>
  <g id="arrowUp" transform="translate(30 24)">
    <use xlink:href="#rim"/>
    <path pointer-events="none" fill="none" stroke="white" stroke-width="1.5" d="M0,-3.0v7 M-2.5,-0.5L0,-3.0L2.5,-0.5"/>
  </g>
  <g id="arrowRight" transform="rotate(90) translate(36 -43)">
    <use xlink:href="#rim"/>
    <path pointer-events="none" fill="none" stroke="white" stroke-width="1.5" d="M0,-3.0v7 M-2.5,-0.5L0,-3.0L2.5,-0.5"/>
  </g>
  <g id="arrowDown" transform="rotate(180) translate(-30 -48)">
    <use xlink:href="#rim"/>
    <path pointer-events="none" fill="none" stroke="white" stroke-width="1.5" d="M0,-3.0v7 M-2.5,-0.5L0,-3.0L2.5,-0.5"/>
  </g>
  <g id="arrowLeft" transform="rotate(270) translate(-36 17)">
    <use xlink:href="#rim"/>
    <path pointer-events="none" fill="none" stroke="white" stroke-width="1.5" d="M0,-3.0v7 M-2.5,-0.5L0,-3.0L2.5,-0.5"/>
  </g>
  <g id="resetDef">
    <use xlink:href="#rim2" fill="#404040"><set attributeName="fill" to="#808080" begin="reset.mouseover" end="reset.mouseout"/></use>
  </g>
</defs>
<script type="application/ecmascript">
var viewWidth = 514;
var viewHeight = 94;
var sectionId = 'dynsection-0';
</script>
<script type="application/ecmascript" xlink:href="svg.min.js"/>
<svg id="graph" class="graph">
<g id="viewport">
<title>basic&#45;language&#45;reference</title>
<g id="clust1" class="cluster">
<title>clusterdir_a86259847659d41e31fc517b099e4d91</title>
<g id="a_clust1"><a xlink:href="dir_a86259847659d41e31fc517b099e4d91.html" target="_top" xlink:title="docpages">
<polygon fill="#edf0f7" stroke="#404040" stroke-dasharray="5,2" points="8,-8 8,-78 498,-78 498,-8 8,-8"/>
<text text-anchor="middle" x="253" y="-66" font-family="Helvetica,sans-Serif" font-size="10.00">docpages</text>
</a>
</g>
</g>
<g id="clust2" class="cluster">
<title>clusterdir_958585fabc6d71102fea3bc65784cb62</title>
<g id="a_clust2"><a xlink:href="dir_958585fabc6d71102fea3bc65784cb62.html" target="_top">
<polygon fill="#edf0f7" stroke="#404040" stroke-width="2" points="16,-16 16,-51 490,-51 490,-16 16,-16"/>
</a>
</g>
</g>
<!-- dir_958585fabc6d71102fea3bc65784cb62 -->
<g id="node1" class="node">
<title>dir_958585fabc6d71102fea3bc65784cb62</title>
<text text-anchor="middle" x="411" y="-31" font-family="Helvetica,sans-Serif" font-size="10.00">basic&#45;language&#45;reference</text>
</g>
<!-- dir_b8a3d9a3ab2894b8f14da317d5ea6a58 -->
<g id="node2" class="node">
<title>dir_b8a3d9a3ab2894b8f14da317d5ea6a58</title>
<g id="a_node2"><a xlink:href="dir_b8a3d9a3ab2894b8f14da317d5ea6a58.html" target="_top" xlink:title="functions">
<polygon fill="#a2b4d6" stroke="#404040" points="322,-43 260,-43 260,-24 322,-24 322,-43"/>
<text text-anchor="middle" x="291" y="-31" font-family="Helvetica,sans-Serif" font-size="10.00">functions</text>
</a>
</g>
</g>
<!-- dir_c7b30bfc101ba883a1c52ef7bb82a60a -->
<g id="node3" class="node">
<title>dir_c7b30bfc101ba883a1c52ef7bb82a60a</title>
<g id="a_node3"><a xlink:href="dir_c7b30bfc101ba883a1c52ef7bb82a60a.html" target="_top" xlink:title="keywords">
<polygon fill="#a2b4d6" stroke="#404040" points="241.5,-43 178.5,-43 178.5,-24 241.5,-24 241.5,-43"/>
<text text-anchor="middle" x="210" y="-31" font-family="Helvetica,sans-Serif" font-size="10.00">keywords</text>
</a>
</g>
</g>
<!-- dir_230b964dc3fc0dbb74196344b9ef42ce -->
<g id="node4" class="node">
<title>dir_230b964dc3fc0dbb74196344b9ef42ce</title>
<g id="a_node4"><a xlink:href="dir_230b964dc3fc0dbb74196344b9ef42ce.html" target="_top" xlink:title="libraries">
<polygon fill="#a2b4d6" stroke="#404040" points="160,-43 104,-43 104,-24 160,-24 160,-43"/>
<text text-anchor="middle" x="132" y="-31" font-family="Helvetica,sans-Serif" font-size="10.00">libraries</text>
</a>
</g>
</g>
<!-- dir_b5564bb3f0b0aa554cb2d67664d5ce85 -->
<g id="node5" class="node">
<title>dir_b5564bb3f0b0aa554cb2d67664d5ce85</title>
<g id="a_node5"><a xlink:href="dir_b5564bb3f0b0aa554cb2d67664d5ce85.html" target="_top" xlink:title="variables">
<polygon fill="#a2b4d6" stroke="#404040" points="86,-43 24,-43 24,-24 86,-24 86,-43"/>
<text text-anchor="middle" x="55" y="-31" font-family="Helvetica,sans-Serif" font-size="10.00">variables</text>
</a>
</g>
</g>
</g>
</svg>

<g id="navigator" transform="translate(0 0)" fill="#404254">
  <rect fill="#f2f5e9" fill-opacity="0.5" stroke="#606060" stroke-width=".5" x="0" y="0" width="60" height="60"/>
  <use id="zoomplus" xlink:href="#zoomPlus" x="17" y="9" onmousedown="handleZoom(evt,'in')"/>
  <use id="zoomminus" xlink:href="#zoomMin" x="42" y="9" onmousedown="handleZoom(evt,'out')"/>
  <use id="reset" xlink:href="#resetDef" x="30" y="36" onmousedown="handleReset()"/>
   <use id="arrowup" xlink:href="#arrowUp" x="0" y="0" onmousedown="handlePan(0,-1)"/>
  <use id="arrowright" xlink:href="#arrowRight" x="0" y="0" onmousedown="handlePan(1,0)"/>
  <use id="arrowdown" xlink:href="#arrowDown" x="0" y="0" onmousedown="handlePan(0,1)"/>
  <use id="arrowleft" xlink:href="#arrowLeft" x="0" y="0" onmousedown="handlePan(-1,0)"/>
</g>
<svg viewBox="0 0 15 15" width="100%" height="30px" preserveAspectRatio="xMaxYMin meet">
 <g id="arrow_out" transform="scale(0.3 0.3)">
  <a xlink:href="dir_958585fabc6d71102fea3bc65784cb62_dep_org.svg" target="_base">
   <rect id="button" ry="5" rx="5" y="6" x="6" height="38" width="38"
        fill="#f2f5e9" fill-opacity="0.5" stroke="#606060" stroke-width="1.0"/>
   <path id="arrow"
     d="M 11.500037,31.436501 C 11.940474,20.09759 22.043105,11.32322 32.158766,21.979434 L 37.068811,17.246167 C 37.068811,17.246167 37.088388,32 37.088388,32 L 22.160133,31.978069 C 22.160133,31.978069 26.997745,27.140456 26.997745,27.140456 C 18.528582,18.264221 13.291696,25.230495 11.500037,31.436501 z"
     style="fill:#404040;"/>
  </a>
 </g>
</svg>

<style type='text/css'>
<![CDATA[
[data-mouse-over-selected='false'] { opacity: 0.7; }
[data-mouse-over-selected='true']  { opacity: 1.0; }
]]>
</style>
<script type="application/ecmascript"><![CDATA[
document.addEventListener('DOMContentLoaded', (event) => {
  highlightEdges();
  highlightAdjacentNodes();
});
]]></script>
</svg>
