<?xml version="1.0" encoding="UTF-8" standalone="no"?>
<!DOCTYPE svg PUBLIC "-//W3C//DTD SVG 1.1//EN"
 "http://www.w3.org/Graphics/SVG/1.1/DTD/svg11.dtd">
<!-- Generated by graphviz version 2.43.0 (0)
 -->
<!-- Title: %3 Pages: 1 -->
<!--zoomable 197 -->

<svg id="main" version="1.1" xmlns="http://www.w3.org/2000/svg" xmlns:xlink="http://www.w3.org/1999/xlink" xml:space="preserve" onload="init(evt)">

<style type="text/css"><![CDATA[
.node, .edge {opacity: 0.7;}
.node.selected, .edge.selected {opacity: 1;}
.edge:hover path { stroke: red; }
.edge:hover polygon { stroke: red; fill: red; }
]]></style>

<defs>
  <circle id="rim" cx="0" cy="0" r="7"/>
  <circle id="rim2" cx="0" cy="0" r="3.5"/>
  <g id="zoomPlus">
    <use xlink:href="#rim" fill="#404040"><set attributeName="fill" to="#808080" begin="zoomplus.mouseover" end="zoomplus.mouseout"/></use>
    <path d="M-4,0h8M0,-4v8" fill="none" stroke="white" stroke-width="1.5" pointer-events="none"/>
  </g>
  <g id="zoomMin">
    <use xlink:href="#rim" fill="#404040"><set attributeName="fill" to="#808080" begin="zoomminus.mouseover" end="zoomminus.mouseout"/></use>
    <path d="M-4,0h8" fill="none" stroke="white" stroke-width="1.5" pointer-events="none"/>
  </g>
  <g id="arrowUp" transform="translate(30 24)">
    <use xlink:href="#rim"/>
    <path pointer-events="none" fill="none" stroke="white" stroke-width="1.5" d="M0,-3.0v7 M-2.5,-0.5L0,-3.0L2.5,-0.5"/>
  </g>
  <g id="arrowRight" transform="rotate(90) translate(36 -43)">
    <use xlink:href="#rim"/>
    <path pointer-events="none" fill="none" stroke="white" stroke-width="1.5" d="M0,-3.0v7 M-2.5,-0.5L0,-3.0L2.5,-0.5"/>
  </g>
  <g id="arrowDown" transform="rotate(180) translate(-30 -48)">
    <use xlink:href="#rim"/>
    <path pointer-events="none" fill="none" stroke="white" stroke-width="1.5" d="M0,-3.0v7 M-2.5,-0.5L0,-3.0L2.5,-0.5"/>
  </g>
  <g id="arrowLeft" transform="rotate(270) translate(-36 17)">
    <use xlink:href="#rim"/>
    <path pointer-events="none" fill="none" stroke="white" stroke-width="1.5" d="M0,-3.0v7 M-2.5,-0.5L0,-3.0L2.5,-0.5"/>
  </g>
  <g id="resetDef">
    <use xlink:href="#rim2" fill="#404040"><set attributeName="fill" to="#808080" begin="reset.mouseover" end="reset.mouseout"/></use>
  </g>
</defs>
<script type="application/ecmascript">
var viewWidth = 716;
var viewHeight = 197;
</script>
<script type="application/ecmascript" xlink:href="svg.min.js"/>
<svg id="graph" class="graph">
<g id="viewport">
<title>%3</title>
<polygon fill="white" stroke="transparent" points="-4,4 -4,-193.12 711.96,-193.12 711.96,4 -4,4"/>
<!-- g0&#45;&#45;g1 -->
<g id="edge1" class="edge">
<title>g0&#45;&#45;g1</title>
<path fill="none" stroke="#dddddd" stroke-dasharray="5,2" d="M292.71,-89.41C321.49,-92.82 614.35,-127.55 644.01,-131.07"/>
</g>
<!-- p0&#45;&#45;p1 -->
<g id="edge2" class="edge">
<title>p0&#45;&#45;p1</title>
<path fill="none" stroke="#2ca02c" stroke-width="2" d="M280.54,-89.67C298.47,-93.3 405.68,-115.05 422.33,-118.42"/>
</g>
<!-- p0&#45;&#45;v1 -->
<g id="edge4" class="edge">
<title>p0&#45;&#45;v1</title>
<path fill="none" stroke="#2ca02c" stroke-width="1.4" d="M280.27,-89.57C285.7,-90.58 299.4,-93.12 304.74,-94.1"/>
</g>
<!-- p1&#45;&#45;p2 -->
<g id="edge3" class="edge">
<title>p1&#45;&#45;p2</title>
<path fill="none" stroke="#2ca02c" stroke-width="2" d="M426.85,-119.02C448.35,-120.5 610.35,-131.66 631.77,-133.13"/>
</g>
<!-- p1&#45;&#45;v6 -->
<g id="edge9" class="edge">
<title>p1&#45;&#45;v6</title>
<path fill="none" stroke="#2ca02c" stroke-width="1.4" d="M426.42,-120.32C428.7,-122.04 432.46,-124.9 434.78,-126.66"/>
</g>
<!-- v1&#45;&#45;v2 -->
<g id="edge5" class="edge">
<title>v1&#45;&#45;v2</title>
<path fill="none" stroke="#2ca02c" stroke-width="1.4" d="M309.09,-93.9C315.07,-92.22 331.73,-87.54 337.77,-85.84"/>
</g>
<!-- v2&#45;&#45;v3 -->
<g id="edge6" class="edge">
<title>v2&#45;&#45;v3</title>
<path fill="none" stroke="#2ca02c" stroke-width="1.4" d="M342.26,-86.17C347.71,-88.45 361.43,-94.18 366.78,-96.42"/>
</g>
<!-- v3&#45;&#45;v4 -->
<g id="edge7" class="edge">
<title>v3&#45;&#45;v4</title>
<path fill="none" stroke="#2ca02c" stroke-width="1.4" d="M371.47,-96.71C377.45,-95.2 392.54,-91.4 398.42,-89.91"/>
</g>
<!-- v4&#45;&#45;p1 -->
<g id="edge8" class="edge">
<title>v4&#45;&#45;p1</title>
<path fill="none" stroke="#2ca02c" stroke-width="1.4" d="M402.37,-91.25C406.65,-96.59 418.58,-111.48 422.91,-116.88"/>
</g>
<!-- v6&#45;&#45;v7 -->
<g id="edge10" class="edge">
<title>v6&#45;&#45;v7</title>
<path fill="none" stroke="#2ca02c" stroke-width="1.4" d="M439.01,-127.38C444.25,-125.4 457.47,-120.41 462.63,-118.46"/>
</g>
<!-- v7&#45;&#45;v8 -->
<g id="edge11" class="edge">
<title>v7&#45;&#45;v8</title>
<path fill="none" stroke="#2ca02c" stroke-width="1.4" d="M466.64,-118.97C470.48,-121.58 479.11,-127.45 483.19,-130.22"/>
</g>
<!-- v8&#45;&#45;v9 -->
<g id="edge12" class="edge">
<title>v8&#45;&#45;v9</title>
<path fill="none" stroke="#2ca02c" stroke-width="1.4" d="M487.83,-131.27C492.22,-130.45 501.42,-128.74 505.75,-127.93"/>
</g>
<!-- v9&#45;&#45;v10 -->
<g id="edge13" class="edge">
<title>v9&#45;&#45;v10</title>
<path fill="none" stroke="#2ca02c" stroke-width="1.4" d="M510.26,-127.88C516.25,-128.93 532.95,-131.86 539,-132.92"/>
</g>
<!-- v10&#45;&#45;v11 -->
<g id="edge14" class="edge">
<title>v10&#45;&#45;v11</title>
<path fill="none" stroke="#2ca02c" stroke-width="1.4" d="M543.38,-133.28C551.51,-133.17 580.22,-132.8 588.99,-132.69"/>
</g>
<!-- v11&#45;&#45;v12 -->
<g id="edge15" class="edge">
<title>v11&#45;&#45;v12</title>
<path fill="none" stroke="#2ca02c" stroke-width="1.4" d="M594.13,-132.4C597.32,-132.08 602.69,-131.55 605.73,-131.24"/>
</g>
<!-- v12&#45;&#45;v13 -->
<g id="edge16" class="edge">
<title>v12&#45;&#45;v13</title>
<path fill="none" stroke="#2ca02c" stroke-width="1.4" d="M610.17,-132.09C612.71,-133.35 616.92,-135.45 619.51,-136.74"/>
</g>
<!-- v13&#45;&#45;p2 -->
<g id="edge17" class="edge">
<title>v13&#45;&#45;p2</title>
<path fill="none" stroke="#2ca02c" stroke-width="1.4" d="M624.16,-136.99C626.4,-136.16 629.73,-134.92 631.91,-134.11"/>
</g>
<!-- ax -->
<g id="node1" class="node">
<title>ax</title>
<text text-anchor="middle" x="100" y="-173.92" font-family="Times,serif" font-size="14.00">Pitch (Hz / semitone grid)</text>
</g>
<!-- tx -->
<g id="node2" class="node">
<title>tx</title>
<text text-anchor="middle" x="673.96" y="-7.8" font-family="Times,serif" font-size="14.00">Time →</text>
</g>
<!-- f0 -->
<g id="node3" class="node">
<title>f0</title>
<text text-anchor="middle" x="246.22" y="-85.36" font-family="Times,serif" font-size="14.00">f₀</text>
</g>
<!-- f1 -->
<g id="node4" class="node">
<title>f1</title>
<text text-anchor="middle" x="146.03" y="-128.18" font-family="Times,serif" font-size="14.00">f₁</text>
</g>
<!-- g0 -->
<g id="node5" class="node">
<title>g0</title>
<ellipse fill="#aaaaaa" stroke="#aaaaaa" cx="290.44" cy="-89.14" rx="2.16" ry="2.16"/>
</g>
<!-- g1 -->
<g id="node6" class="node">
<title>g1</title>
<ellipse fill="#aaaaaa" stroke="#aaaaaa" cx="646.44" cy="-131.36" rx="2.16" ry="2.16"/>
</g>
<!-- p0 -->
<g id="node7" class="node">
<title>p0</title>
<ellipse fill="#222222" stroke="#222222" cx="278" cy="-89.15" rx="2.16" ry="2.16"/>
</g>
<!-- p1 -->
<g id="node8" class="node">
<title>p1</title>
<ellipse fill="#222222" stroke="#222222" cx="424.5" cy="-118.86" rx="2.16" ry="2.16"/>
</g>
<!-- p2 -->
<g id="node9" class="node">
<title>p2</title>
<ellipse fill="#222222" stroke="#222222" cx="634.11" cy="-133.29" rx="2.16" ry="2.16"/>
</g>
<!-- v1 -->
<g id="node10" class="node">
<title>v1</title>
<ellipse fill="#222222" stroke="#222222" cx="306.92" cy="-94.51" rx="2.16" ry="2.16"/>
</g>
<!-- v2 -->
<g id="node11" class="node">
<title>v2</title>
<ellipse fill="#222222" stroke="#222222" cx="339.99" cy="-85.22" rx="2.16" ry="2.16"/>
</g>
<!-- v3 -->
<g id="node12" class="node">
<title>v3</title>
<ellipse fill="#222222" stroke="#222222" cx="368.97" cy="-97.34" rx="2.16" ry="2.16"/>
</g>
<!-- v4 -->
<g id="node13" class="node">
<title>v4</title>
<ellipse fill="#222222" stroke="#222222" cx="400.82" cy="-89.31" rx="2.16" ry="2.16"/>
</g>
<!-- v5 -->
<g id="node14" class="node">
<title>v5</title>
<ellipse fill="#222222" stroke="#222222" cx="412.12" cy="-119.15" rx="2.16" ry="2.16"/>
</g>
<!-- v6 -->
<g id="node15" class="node">
<title>v6</title>
<ellipse fill="#222222" stroke="#222222" cx="436.82" cy="-128.2" rx="2.16" ry="2.16"/>
</g>
<!-- v7 -->
<g id="node16" class="node">
<title>v7</title>
<ellipse fill="#222222" stroke="#222222" cx="464.73" cy="-117.67" rx="2.16" ry="2.16"/>
</g>
<!-- v8 -->
<g id="node17" class="node">
<title>v8</title>
<ellipse fill="#222222" stroke="#222222" cx="485.4" cy="-131.72" rx="2.16" ry="2.16"/>
</g>
<!-- v9 -->
<g id="node18" class="node">
<title>v9</title>
<ellipse fill="#222222" stroke="#222222" cx="508.09" cy="-127.5" rx="2.16" ry="2.16"/>
</g>
<!-- v10 -->
<g id="node19" class="node">
<title>v10</title>
<ellipse fill="#222222" stroke="#222222" cx="541.22" cy="-133.31" rx="2.16" ry="2.16"/>
</g>
<!-- v11 -->
<g id="node20" class="node">
<title>v11</title>
<ellipse fill="#222222" stroke="#222222" cx="591.56" cy="-132.65" rx="2.16" ry="2.16"/>
</g>
<!-- v12 -->
<g id="node21" class="node">
<title>v12</title>
<ellipse fill="#222222" stroke="#222222" cx="608.02" cy="-131.01" rx="2.16" ry="2.16"/>
</g>
<!-- v13 -->
<g id="node22" class="node">
<title>v13</title>
<ellipse fill="#222222" stroke="#222222" cx="621.79" cy="-137.87" rx="2.16" ry="2.16"/>
</g>
<!-- gl -->
<g id="node23" class="node">
<title>gl</title>
<text text-anchor="middle" x="273.57" y="-142.92" font-family="Times,serif" font-size="14.00">glide_ms (linear slide f₀→f₁)</text>
</g>
<!-- vb -->
<g id="node24" class="node">
<title>vb</title>
<text text-anchor="middle" x="499.6" y="-155.4" font-family="Times,serif" font-size="14.00">vibrato: ±cents at vibrato_hz</text>
</g>
</g>
</svg>

<g id="navigator" transform="translate(0 0)" fill="#404254">
  <rect fill="#f2f5e9" fill-opacity="0.5" stroke="#606060" stroke-width=".5" x="0" y="0" width="60" height="60"/>
  <use id="zoomplus" xlink:href="#zoomPlus" x="17" y="9" onmousedown="handleZoom(evt,'in')"/>
  <use id="zoomminus" xlink:href="#zoomMin" x="42" y="9" onmousedown="handleZoom(evt,'out')"/>
  <use id="reset" xlink:href="#resetDef" x="30" y="36" onmousedown="handleReset()"/>
   <use id="arrowup" xlink:href="#arrowUp" x="0" y="0" onmousedown="handlePan(0,-1)"/>
  <use id="arrowright" xlink:href="#arrowRight" x="0" y="0" onmousedown="handlePan(1,0)"/>
  <use id="arrowdown" xlink:href="#arrowDown" x="0" y="0" onmousedown="handlePan(0,1)"/>
  <use id="arrowleft" xlink:href="#arrowLeft" x="0" y="0" onmousedown="handlePan(-1,0)"/>
</g>
<svg viewBox="0 0 15 15" width="100%" height="30px" preserveAspectRatio="xMaxYMin meet">
 <g id="arrow_out" transform="scale(0.3 0.3)">
  <a xlink:href="dot_inline_dotgraph_2_org.svg" target="_base">
   <rect id="button" ry="5" rx="5" y="6" x="6" height="38" width="38"
        fill="#f2f5e9" fill-opacity="0.5" stroke="#606060" stroke-width="1.0"/>
   <path id="arrow"
     d="M 11.500037,31.436501 C 11.940474,20.09759 22.043105,11.32322 32.158766,21.979434 L 37.068811,17.246167 C 37.068811,17.246167 37.088388,32 37.088388,32 L 22.160133,31.978069 C 22.160133,31.978069 26.997745,27.140456 26.997745,27.140456 C 18.528582,18.264221 13.291696,25.230495 11.500037,31.436501 z"
     style="fill:#404040;"/>
  </a>
 </g>
</svg>

<style type='text/css'>
<![CDATA[
[data-mouse-over-selected='false'] { opacity: 0.7; }
[data-mouse-over-selected='true']  { opacity: 1.0; }
]]>
</style>
<script type="application/ecmascript"><![CDATA[
document.addEventListener('DOMContentLoaded', (event) => {
  highlightEdges();
  highlightAdjacentNodes();
});
]]></script>
</svg>
