<?xml version="1.0" encoding="UTF-8" standalone="no"?>
<!DOCTYPE svg PUBLIC "-//W3C//DTD SVG 1.1//EN"
 "http://www.w3.org/Graphics/SVG/1.1/DTD/svg11.dtd">
<!-- Generated by graphviz version 2.43.0 (0)
 -->
<!-- Title: %3 Pages: 1 -->
<!--zoomable 87 -->

<svg id="main" version="1.1" xmlns="http://www.w3.org/2000/svg" xmlns:xlink="http://www.w3.org/1999/xlink" xml:space="preserve" onload="init(evt)">

<style type="text/css"><![CDATA[
.node, .edge {opacity: 0.7;}
.node.selected, .edge.selected {opacity: 1;}
.edge:hover path { stroke: red; }
.edge:hover polygon { stroke: red; fill: red; }
]]></style>

<defs>
  <circle id="rim" cx="0" cy="0" r="7"/>
  <circle id="rim2" cx="0" cy="0" r="3.5"/>
  <g id="zoomPlus">
    <use xlink:href="#rim" fill="#404040"><set attributeName="fill" to="#808080" begin="zoomplus.mouseover" end="zoomplus.mouseout"/></use>
    <path d="M-4,0h8M0,-4v8" fill="none" stroke="white" stroke-width="1.5" pointer-events="none"/>
  </g>
  <g id="zoomMin">
    <use xlink:href="#rim" fill="#404040"><set attributeName="fill" to="#808080" begin="zoomminus.mouseover" end="zoomminus.mouseout"/></use>
    <path d="M-4,0h8" fill="none" stroke="white" stroke-width="1.5" pointer-events="none"/>
  </g>
  <g id="arrowUp" transform="translate(30 24)">
    <use xlink:href="#rim"/>
    <path pointer-events="none" fill="none" stroke="white" stroke-width="1.5" d="M0,-3.0v7 M-2.5,-0.5L0,-3.0L2.5,-0.5"/>
  </g>
  <g id="arrowRight" transform="rotate(90) translate(36 -43)">
    <use xlink:href="#rim"/>
    <path pointer-events="none" fill="none" stroke="white" stroke-width="1.5" d="M0,-3.0v7 M-2.5,-0.5L0,-3.0L2.5,-0.5"/>
  </g>
  <g id="arrowDown" transform="rotate(180) translate(-30 -48)">
    <use xlink:href="#rim"/>
    <path pointer-events="none" fill="none" stroke="white" stroke-width="1.5" d="M0,-3.0v7 M-2.5,-0.5L0,-3.0L2.5,-0.5"/>
  </g>
  <g id="arrowLeft" transform="rotate(270) translate(-36 17)">
    <use xlink:href="#rim"/>
    <path pointer-events="none" fill="none" stroke="white" stroke-width="1.5" d="M0,-3.0v7 M-2.5,-0.5L0,-3.0L2.5,-0.5"/>
  </g>
  <g id="resetDef">
    <use xlink:href="#rim2" fill="#404040"><set attributeName="fill" to="#808080" begin="reset.mouseover" end="reset.mouseout"/></use>
  </g>
</defs>
<script type="application/ecmascript">
var viewWidth = 1342;
var viewHeight = 87;
</script>
<script type="application/ecmascript" xlink:href="svg.min.js"/>
<svg id="graph" class="graph">
<g id="viewport">
<title>%3</title>
<polygon fill="white" stroke="transparent" points="-4,4 -4,-83 1338,-83 1338,4 -4,4"/>
<g id="clust1" class="cluster">
<title>cluster_centre</title>
<polygon fill="white" stroke="#dddddd" points="646,-8 646,-71 888,-71 888,-8 646,-8"/>
<text text-anchor="middle" x="767" y="-55.8" font-family="Times,serif" font-size="14.00">Centre duty (pulse_width=128)</text>
</g>
<g id="clust2" class="cluster">
<title>cluster_pwm</title>
<polygon fill="white" stroke="#dddddd" points="908,-8 908,-71 1326,-71 1326,-8 908,-8"/>
<text text-anchor="middle" x="1117" y="-55.8" font-family="Times,serif" font-size="14.00">Modulated duty (pwm_depth&gt;0 @ pwm_hz)</text>
</g>
<!-- title -->
<g id="node1" class="node">
<title>title</title>
<text text-anchor="middle" x="142" y="-24.9" font-family="Times,serif" font-size="12.00">Square PWM (duty cycle changes over time)</text>
</g>
<!-- legend -->
<g id="node2" class="node">
<title>legend</title>
<text text-anchor="middle" x="469" y="-31" font-family="Times,serif" font-size="10.00">pulse_width = 128 (50%) → classic square</text>
<text text-anchor="middle" x="469" y="-20" font-family="Times,serif" font-size="10.00">pwm_depth sweeps duty around this centre at pwm_hz</text>
</g>
<!-- title&#45;&gt;legend -->
<!-- n0 -->
<g id="node3" class="node">
<title>n0</title>
<polygon fill="none" stroke="black" points="749,-39.5 677,-39.5 677,-16.5 749,-16.5 749,-39.5"/>
<text text-anchor="middle" x="713" y="-24.3" font-family="Times,serif" font-size="14.00">■ □</text>
</g>
<!-- legend&#45;&gt;n0 -->
<!-- n1 -->
<g id="node4" class="node">
<title>n1</title>
<polygon fill="none" stroke="black" points="857,-39.5 785,-39.5 785,-16.5 857,-16.5 857,-39.5"/>
<text text-anchor="middle" x="821" y="-24.3" font-family="Times,serif" font-size="14.00">■ □</text>
</g>
<!-- n0&#45;&gt;n1 -->
<!-- m0 -->
<g id="node5" class="node">
<title>m0</title>
<polygon fill="none" stroke="black" points="988,-39.5 916,-39.5 916,-16.5 988,-16.5 988,-39.5"/>
<text text-anchor="middle" x="952" y="-24.3" font-family="Times,serif" font-size="14.00">■■ □</text>
</g>
<!-- n1&#45;&gt;m0 -->
<!-- m1 -->
<g id="node6" class="node">
<title>m1</title>
<polygon fill="none" stroke="black" points="1096,-39.5 1024,-39.5 1024,-16.5 1096,-16.5 1096,-39.5"/>
<text text-anchor="middle" x="1060" y="-24.3" font-family="Times,serif" font-size="14.00">■ □□</text>
</g>
<!-- m0&#45;&gt;m1 -->
<!-- m2 -->
<g id="node7" class="node">
<title>m2</title>
<polygon fill="none" stroke="black" points="1207,-39.5 1132,-39.5 1132,-16.5 1207,-16.5 1207,-39.5"/>
<text text-anchor="middle" x="1169.5" y="-24.3" font-family="Times,serif" font-size="14.00">■■■ □</text>
</g>
<!-- m1&#45;&gt;m2 -->
<!-- m3 -->
<g id="node8" class="node">
<title>m3</title>
<polygon fill="none" stroke="black" points="1318,-39.5 1243,-39.5 1243,-16.5 1318,-16.5 1318,-39.5"/>
<text text-anchor="middle" x="1280.5" y="-24.3" font-family="Times,serif" font-size="14.00">■ □□□</text>
</g>
<!-- m2&#45;&gt;m3 -->
</g>
</svg>

<g id="navigator" transform="translate(0 0)" fill="#404254">
  <rect fill="#f2f5e9" fill-opacity="0.5" stroke="#606060" stroke-width=".5" x="0" y="0" width="60" height="60"/>
  <use id="zoomplus" xlink:href="#zoomPlus" x="17" y="9" onmousedown="handleZoom(evt,'in')"/>
  <use id="zoomminus" xlink:href="#zoomMin" x="42" y="9" onmousedown="handleZoom(evt,'out')"/>
  <use id="reset" xlink:href="#resetDef" x="30" y="36" onmousedown="handleReset()"/>
   <use id="arrowup" xlink:href="#arrowUp" x="0" y="0" onmousedown="handlePan(0,-1)"/>
  <use id="arrowright" xlink:href="#arrowRight" x="0" y="0" onmousedown="handlePan(1,0)"/>
  <use id="arrowdown" xlink:href="#arrowDown" x="0" y="0" onmousedown="handlePan(0,1)"/>
  <use id="arrowleft" xlink:href="#arrowLeft" x="0" y="0" onmousedown="handlePan(-1,0)"/>
</g>
<svg viewBox="0 0 15 15" width="100%" height="30px" preserveAspectRatio="xMaxYMin meet">
 <g id="arrow_out" transform="scale(0.3 0.3)">
  <a xlink:href="dot_inline_dotgraph_3_org.svg" target="_base">
   <rect id="button" ry="5" rx="5" y="6" x="6" height="38" width="38"
        fill="#f2f5e9" fill-opacity="0.5" stroke="#606060" stroke-width="1.0"/>
   <path id="arrow"
     d="M 11.500037,31.436501 C 11.940474,20.09759 22.043105,11.32322 32.158766,21.979434 L 37.068811,17.246167 C 37.068811,17.246167 37.088388,32 37.088388,32 L 22.160133,31.978069 C 22.160133,31.978069 26.997745,27.140456 26.997745,27.140456 C 18.528582,18.264221 13.291696,25.230495 11.500037,31.436501 z"
     style="fill:#404040;"/>
  </a>
 </g>
</svg>

<style type='text/css'>
<![CDATA[
[data-mouse-over-selected='false'] { opacity: 0.7; }
[data-mouse-over-selected='true']  { opacity: 1.0; }
]]>
</style>
<script type="application/ecmascript"><![CDATA[
document.addEventListener('DOMContentLoaded', (event) => {
  highlightEdges();
  highlightAdjacentNodes();
});
]]></script>
</svg>
