<?xml version="1.0" encoding="UTF-8" standalone="no"?>
<!DOCTYPE svg PUBLIC "-//W3C//DTD SVG 1.1//EN"
 "http://www.w3.org/Graphics/SVG/1.1/DTD/svg11.dtd">
<!-- Generated by graphviz version 2.43.0 (0)
 -->
<!-- Title: %3 Pages: 1 -->
<svg width="1342pt" height="87pt"
 viewBox="0.00 0.00 1342.00 87.00" xmlns="http://www.w3.org/2000/svg" xmlns:xlink="http://www.w3.org/1999/xlink">
<g id="graph0" class="graph" transform="scale(1 1) rotate(0) translate(4 83)">
<title>%3</title>
<polygon fill="white" stroke="transparent" points="-4,4 -4,-83 1338,-83 1338,4 -4,4"/>
<g id="clust1" class="cluster">
<title>cluster_centre</title>
<polygon fill="white" stroke="#dddddd" points="646,-8 646,-71 888,-71 888,-8 646,-8"/>
<text text-anchor="middle" x="767" y="-55.8" font-family="Times,serif" font-size="14.00">Centre duty (pulse_width=128)</text>
</g>
<g id="clust2" class="cluster">
<title>cluster_pwm</title>
<polygon fill="white" stroke="#dddddd" points="908,-8 908,-71 1326,-71 1326,-8 908,-8"/>
<text text-anchor="middle" x="1117" y="-55.8" font-family="Times,serif" font-size="14.00">Modulated duty (pwm_depth&gt;0 @ pwm_hz)</text>
</g>
<!-- title -->
<g id="node1" class="node">
<title>title</title>
<text text-anchor="middle" x="142" y="-24.9" font-family="Times,serif" font-size="12.00">Square PWM (duty cycle changes over time)</text>
</g>
<!-- legend -->
<g id="node2" class="node">
<title>legend</title>
<text text-anchor="middle" x="469" y="-31" font-family="Times,serif" font-size="10.00">pulse_width = 128 (50%) → classic square</text>
<text text-anchor="middle" x="469" y="-20" font-family="Times,serif" font-size="10.00">pwm_depth sweeps duty around this centre at pwm_hz</text>
</g>
<!-- title&#45;&gt;legend -->
<!-- n0 -->
<g id="node3" class="node">
<title>n0</title>
<polygon fill="none" stroke="black" points="749,-39.5 677,-39.5 677,-16.5 749,-16.5 749,-39.5"/>
<text text-anchor="middle" x="713" y="-24.3" font-family="Times,serif" font-size="14.00">■ □</text>
</g>
<!-- legend&#45;&gt;n0 -->
<!-- n1 -->
<g id="node4" class="node">
<title>n1</title>
<polygon fill="none" stroke="black" points="857,-39.5 785,-39.5 785,-16.5 857,-16.5 857,-39.5"/>
<text text-anchor="middle" x="821" y="-24.3" font-family="Times,serif" font-size="14.00">■ □</text>
</g>
<!-- n0&#45;&gt;n1 -->
<!-- m0 -->
<g id="node5" class="node">
<title>m0</title>
<polygon fill="none" stroke="black" points="988,-39.5 916,-39.5 916,-16.5 988,-16.5 988,-39.5"/>
<text text-anchor="middle" x="952" y="-24.3" font-family="Times,serif" font-size="14.00">■■ □</text>
</g>
<!-- n1&#45;&gt;m0 -->
<!-- m1 -->
<g id="node6" class="node">
<title>m1</title>
<polygon fill="none" stroke="black" points="1096,-39.5 1024,-39.5 1024,-16.5 1096,-16.5 1096,-39.5"/>
<text text-anchor="middle" x="1060" y="-24.3" font-family="Times,serif" font-size="14.00">■ □□</text>
</g>
<!-- m0&#45;&gt;m1 -->
<!-- m2 -->
<g id="node7" class="node">
<title>m2</title>
<polygon fill="none" stroke="black" points="1207,-39.5 1132,-39.5 1132,-16.5 1207,-16.5 1207,-39.5"/>
<text text-anchor="middle" x="1169.5" y="-24.3" font-family="Times,serif" font-size="14.00">■■■ □</text>
</g>
<!-- m1&#45;&gt;m2 -->
<!-- m3 -->
<g id="node8" class="node">
<title>m3</title>
<polygon fill="none" stroke="black" points="1318,-39.5 1243,-39.5 1243,-16.5 1318,-16.5 1318,-39.5"/>
<text text-anchor="middle" x="1280.5" y="-24.3" font-family="Times,serif" font-size="14.00">■ □□□</text>
</g>
<!-- m2&#45;&gt;m3 -->
</g>
</svg>
