<?xml version="1.0" encoding="UTF-8" standalone="no"?>
<!DOCTYPE svg PUBLIC "-//W3C//DTD SVG 1.1//EN"
 "http://www.w3.org/Graphics/SVG/1.1/DTD/svg11.dtd">
<!-- Generated by graphviz version 2.43.0 (0)
 -->
<!-- Title: %3 Pages: 1 -->
<!--zoomable 242 -->

<svg id="main" version="1.1" xmlns="http://www.w3.org/2000/svg" xmlns:xlink="http://www.w3.org/1999/xlink" xml:space="preserve" onload="init(evt)">

<style type="text/css"><![CDATA[
.node, .edge {opacity: 0.7;}
.node.selected, .edge.selected {opacity: 1;}
.edge:hover path { stroke: red; }
.edge:hover polygon { stroke: red; fill: red; }
]]></style>

<defs>
  <circle id="rim" cx="0" cy="0" r="7"/>
  <circle id="rim2" cx="0" cy="0" r="3.5"/>
  <g id="zoomPlus">
    <use xlink:href="#rim" fill="#404040"><set attributeName="fill" to="#808080" begin="zoomplus.mouseover" end="zoomplus.mouseout"/></use>
    <path d="M-4,0h8M0,-4v8" fill="none" stroke="white" stroke-width="1.5" pointer-events="none"/>
  </g>
  <g id="zoomMin">
    <use xlink:href="#rim" fill="#404040"><set attributeName="fill" to="#808080" begin="zoomminus.mouseover" end="zoomminus.mouseout"/></use>
    <path d="M-4,0h8" fill="none" stroke="white" stroke-width="1.5" pointer-events="none"/>
  </g>
  <g id="arrowUp" transform="translate(30 24)">
    <use xlink:href="#rim"/>
    <path pointer-events="none" fill="none" stroke="white" stroke-width="1.5" d="M0,-3.0v7 M-2.5,-0.5L0,-3.0L2.5,-0.5"/>
  </g>
  <g id="arrowRight" transform="rotate(90) translate(36 -43)">
    <use xlink:href="#rim"/>
    <path pointer-events="none" fill="none" stroke="white" stroke-width="1.5" d="M0,-3.0v7 M-2.5,-0.5L0,-3.0L2.5,-0.5"/>
  </g>
  <g id="arrowDown" transform="rotate(180) translate(-30 -48)">
    <use xlink:href="#rim"/>
    <path pointer-events="none" fill="none" stroke="white" stroke-width="1.5" d="M0,-3.0v7 M-2.5,-0.5L0,-3.0L2.5,-0.5"/>
  </g>
  <g id="arrowLeft" transform="rotate(270) translate(-36 17)">
    <use xlink:href="#rim"/>
    <path pointer-events="none" fill="none" stroke="white" stroke-width="1.5" d="M0,-3.0v7 M-2.5,-0.5L0,-3.0L2.5,-0.5"/>
  </g>
  <g id="resetDef">
    <use xlink:href="#rim2" fill="#404040"><set attributeName="fill" to="#808080" begin="reset.mouseover" end="reset.mouseout"/></use>
  </g>
</defs>
<script type="application/ecmascript">
var viewWidth = 724;
var viewHeight = 242;
</script>
<script type="application/ecmascript" xlink:href="svg.min.js"/>
<svg id="graph" class="graph">
<g id="viewport">
<title>%3</title>
<polygon fill="white" stroke="transparent" points="-4,4 -4,-237.8 719.92,-237.8 719.92,4 -4,4"/>
<!-- y2&#45;&#45;D_end -->
<g id="edge8" class="edge">
<title>y2&#45;&#45;D_end</title>
<path fill="none" stroke="#cccccc" d="M116.6,-128.14C139.34,-128.42 282.32,-130.2 304.52,-130.48"/>
</g>
<!-- y2&#45;&#45;S_end -->
<g id="edge9" class="edge">
<title>y2&#45;&#45;S_end</title>
<path fill="none" stroke="#cccccc" d="M116.89,-128.13C152.44,-128.39 461.69,-130.73 495.4,-130.99"/>
</g>
<!-- t0&#45;&#45;A_end -->
<g id="edge1" class="edge">
<title>t0&#45;&#45;A_end</title>
<path fill="none" stroke="#1f77b4" stroke-width="2" d="M138.09,-33.25C155.45,-51.3 270.63,-171.09 288.53,-189.69"/>
</g>
<!-- A_end&#45;&#45;D_end -->
<g id="edge2" class="edge">
<title>A_end&#45;&#45;D_end</title>
<path fill="none" stroke="#1f77b4" stroke-width="2" d="M291.66,-189.15C294.47,-178.67 303.92,-143.52 306.66,-133.32"/>
</g>
<!-- D_end&#45;&#45;S_end -->
<g id="edge3" class="edge">
<title>D_end&#45;&#45;S_end</title>
<path fill="none" stroke="#1f77b4" stroke-width="2" d="M310.42,-130.52C332.72,-130.58 472.47,-130.94 495.24,-131"/>
</g>
<!-- S_end&#45;&#45;R_end -->
<g id="edge4" class="edge">
<title>S_end&#45;&#45;R_end</title>
<path fill="none" stroke="#1f77b4" stroke-width="2" d="M500.7,-128.62C513.68,-115.28 577.19,-49.99 589.95,-36.87"/>
</g>
<!-- vgA&#45;&#45;A_end -->
<g id="edge5" class="edge">
<title>vgA&#45;&#45;A_end</title>
<path fill="none" stroke="#cccccc" d="M206.24,-36.86C216.69,-56.04 278.74,-169.88 289.32,-189.3"/>
</g>
<!-- vgD&#45;&#45;D_end -->
<g id="edge6" class="edge">
<title>vgD&#45;&#45;D_end</title>
<path fill="none" stroke="#cccccc" d="M310.63,-38.2C310.12,-52.83 308.01,-113.58 307.52,-127.61"/>
</g>
<!-- vgS&#45;&#45;S_end -->
<g id="edge7" class="edge">
<title>vgS&#45;&#45;S_end</title>
<path fill="none" stroke="#cccccc" d="M457.25,-37.22C463.38,-51.2 490.74,-113.59 497.07,-128.02"/>
</g>
<!-- axis0 -->
<g id="node1" class="node">
<title>axis0</title>
<text text-anchor="middle" x="82.05" y="-218.6" font-family="Times,serif" font-size="14.00">Amplitude (0..255)</text>
</g>
<!-- time0 -->
<g id="node2" class="node">
<title>time0</title>
<text text-anchor="middle" x="681.92" y="-10.7" font-family="Times,serif" font-size="14.00">Time →</text>
</g>
<!-- y0 -->
<g id="node3" class="node">
<title>y0</title>
<ellipse fill="#888888" stroke="#888888" cx="149.66" cy="-30.96" rx="2.88" ry="2.88"/>
</g>
<!-- y1 -->
<g id="node4" class="node">
<title>y1</title>
<ellipse fill="#888888" stroke="#888888" cx="104.98" cy="-195.97" rx="2.88" ry="2.88"/>
</g>
<!-- y2 -->
<g id="node5" class="node">
<title>y2</title>
<ellipse fill="#888888" stroke="#888888" cx="113.56" cy="-128.1" rx="2.88" ry="2.88"/>
</g>
<!-- l0 -->
<g id="node6" class="node">
<title>l0</title>
<text text-anchor="middle" x="110.98" y="-27.29" font-family="Times,serif" font-size="14.00">0</text>
</g>
<!-- l255 -->
<g id="node7" class="node">
<title>l255</title>
<text text-anchor="middle" x="26.82" y="-187.36" font-family="Times,serif" font-size="14.00">255</text>
</g>
<!-- lsus -->
<g id="node8" class="node">
<title>lsus</title>
<text text-anchor="middle" x="35.5" y="-122.32" font-family="Times,serif" font-size="14.00">Sustain</text>
</g>
<!-- t0 -->
<g id="node9" class="node">
<title>t0</title>
<ellipse fill="#222222" stroke="#222222" cx="135.89" cy="-30.97" rx="2.88" ry="2.88"/>
</g>
<!-- A_end -->
<g id="node10" class="node">
<title>A_end</title>
<ellipse fill="#222222" stroke="#222222" cx="290.86" cy="-192.12" rx="2.88" ry="2.88"/>
</g>
<!-- D_end -->
<g id="node11" class="node">
<title>D_end</title>
<ellipse fill="#222222" stroke="#222222" cx="307.42" cy="-130.52" rx="2.88" ry="2.88"/>
</g>
<!-- S_end -->
<g id="node12" class="node">
<title>S_end</title>
<ellipse fill="#222222" stroke="#222222" cx="498.38" cy="-131.01" rx="2.88" ry="2.88"/>
</g>
<!-- R_end -->
<g id="node13" class="node">
<title>R_end</title>
<ellipse fill="#222222" stroke="#222222" cx="592.19" cy="-34.57" rx="2.88" ry="2.88"/>
</g>
<!-- la -->
<g id="node14" class="node">
<title>la</title>
<text text-anchor="middle" x="263.08" y="-210.82" font-family="Times,serif" font-size="14.00">Attack (ms): rise 0 → 255</text>
</g>
<!-- ld -->
<g id="node15" class="node">
<title>ld</title>
<text text-anchor="middle" x="452.6" y="-179.8" font-family="Times,serif" font-size="14.00">Decay (ms): 255 → Sustain</text>
</g>
<!-- ls -->
<g id="node16" class="node">
<title>ls</title>
<text text-anchor="middle" x="402.95" y="-143.29" font-family="Times,serif" font-size="14.00">Sustain (level 0..255)</text>
</g>
<!-- lr -->
<g id="node17" class="node">
<title>lr</title>
<text text-anchor="middle" x="523.25" y="-53.27" font-family="Times,serif" font-size="14.00">Release (ms): Sustain → 0</text>
</g>
<!-- vgA -->
<g id="node18" class="node">
<title>vgA</title>
<ellipse fill="#cccccc" stroke="#cccccc" cx="204.75" cy="-34.12" rx="2.88" ry="2.88"/>
</g>
<!-- vgD -->
<g id="node19" class="node">
<title>vgD</title>
<ellipse fill="#cccccc" stroke="#cccccc" cx="310.74" cy="-35.02" rx="2.88" ry="2.88"/>
</g>
<!-- vgS -->
<g id="node20" class="node">
<title>vgS</title>
<ellipse fill="#cccccc" stroke="#cccccc" cx="456.03" cy="-34.44" rx="2.88" ry="2.88"/>
</g>
<!-- ca -->
<g id="node21" class="node">
<title>ca</title>
<text text-anchor="middle" x="205.15" y="-7.8" font-family="Times,serif" font-size="14.00">attack_ms</text>
</g>
<!-- cd -->
<g id="node22" class="node">
<title>cd</title>
<text text-anchor="middle" x="310.75" y="-8.92" font-family="Times,serif" font-size="14.00">decay_ms</text>
</g>
<!-- cs -->
<g id="node23" class="node">
<title>cs</title>
<text text-anchor="middle" x="398.77" y="-112.27" font-family="Times,serif" font-size="14.00">(note holds here)</text>
</g>
<!-- cr -->
<g id="node24" class="node">
<title>cr</title>
<text text-anchor="middle" x="591.79" y="-8.49" font-family="Times,serif" font-size="14.00">release_ms</text>
</g>
</g>
</svg>

<g id="navigator" transform="translate(0 0)" fill="#404254">
  <rect fill="#f2f5e9" fill-opacity="0.5" stroke="#606060" stroke-width=".5" x="0" y="0" width="60" height="60"/>
  <use id="zoomplus" xlink:href="#zoomPlus" x="17" y="9" onmousedown="handleZoom(evt,'in')"/>
  <use id="zoomminus" xlink:href="#zoomMin" x="42" y="9" onmousedown="handleZoom(evt,'out')"/>
  <use id="reset" xlink:href="#resetDef" x="30" y="36" onmousedown="handleReset()"/>
   <use id="arrowup" xlink:href="#arrowUp" x="0" y="0" onmousedown="handlePan(0,-1)"/>
  <use id="arrowright" xlink:href="#arrowRight" x="0" y="0" onmousedown="handlePan(1,0)"/>
  <use id="arrowdown" xlink:href="#arrowDown" x="0" y="0" onmousedown="handlePan(0,1)"/>
  <use id="arrowleft" xlink:href="#arrowLeft" x="0" y="0" onmousedown="handlePan(-1,0)"/>
</g>
<svg viewBox="0 0 15 15" width="100%" height="30px" preserveAspectRatio="xMaxYMin meet">
 <g id="arrow_out" transform="scale(0.3 0.3)">
  <a xlink:href="dot_inline_dotgraph_1_org.svg" target="_base">
   <rect id="button" ry="5" rx="5" y="6" x="6" height="38" width="38"
        fill="#f2f5e9" fill-opacity="0.5" stroke="#606060" stroke-width="1.0"/>
   <path id="arrow"
     d="M 11.500037,31.436501 C 11.940474,20.09759 22.043105,11.32322 32.158766,21.979434 L 37.068811,17.246167 C 37.068811,17.246167 37.088388,32 37.088388,32 L 22.160133,31.978069 C 22.160133,31.978069 26.997745,27.140456 26.997745,27.140456 C 18.528582,18.264221 13.291696,25.230495 11.500037,31.436501 z"
     style="fill:#404040;"/>
  </a>
 </g>
</svg>

<style type='text/css'>
<![CDATA[
[data-mouse-over-selected='false'] { opacity: 0.7; }
[data-mouse-over-selected='true']  { opacity: 1.0; }
]]>
</style>
<script type="application/ecmascript"><![CDATA[
document.addEventListener('DOMContentLoaded', (event) => {
  highlightEdges();
  highlightAdjacentNodes();
});
]]></script>
</svg>
