<?xml version="1.0" encoding="UTF-8" standalone="no"?>
<!DOCTYPE svg PUBLIC "-//W3C//DTD SVG 1.1//EN"
 "http://www.w3.org/Graphics/SVG/1.1/DTD/svg11.dtd">
<!-- Generated by graphviz version 2.43.0 (0)
 -->
<!-- Title: parameter_block_t Pages: 1 -->
<svg width="467pt" height="205pt"
 viewBox="0.00 0.00 467.00 205.00" xmlns="http://www.w3.org/2000/svg" xmlns:xlink="http://www.w3.org/1999/xlink">
<g id="graph0" class="graph" transform="scale(1 1) rotate(0) translate(4 201)">
<title>parameter_block_t</title>
<!-- Node1 -->
<g id="node1" class="node">
<title>Node1</title>
<g id="a_node1"><a xlink:title="FAT32 BIOS parameter block (BPB), stored in the boot sector of the drive.">
<polygon fill="#bfbfbf" stroke="black" points="166,-0.5 166,-19.5 274,-19.5 274,-0.5 166,-0.5"/>
<text text-anchor="middle" x="220" y="-7.5" font-family="Helvetica,sans-Serif" font-size="10.00">parameter_block_t</text>
</a>
</g>
</g>
<!-- Node2 -->
<g id="node2" class="node">
<title>Node2</title>
<g id="a_node2"><a xlink:title=" ">
<polygon fill="none" stroke="#bfbfbf" points="0,-177.5 0,-196.5 56,-196.5 56,-177.5 0,-177.5"/>
<text text-anchor="middle" x="28" y="-184.5" font-family="Helvetica,sans-Serif" font-size="10.00">uint16_t</text>
</a>
</g>
</g>
<!-- Node2&#45;&gt;Node1 -->
<g id="edge1" class="edge">
<title>Node2&#45;&gt;Node1</title>
<path fill="none" stroke="#9a32cd" stroke-dasharray="5,2" d="M22.06,-167.34C13.45,-136.25 1.8,-73.72 34,-38 51.15,-18.97 117.22,-13.13 165.76,-11.45"/>
<polygon fill="#9a32cd" stroke="#9a32cd" points="18.81,-168.68 25.01,-177.27 25.52,-166.68 18.81,-168.68"/>
<text text-anchor="middle" x="95.5" y="-151" font-family="Helvetica,sans-Serif" font-size="10.00"> backupbootsectorcluster</text>
<text text-anchor="middle" x="95.5" y="-140" font-family="Helvetica,sans-Serif" font-size="10.00">bytespersector</text>
<text text-anchor="middle" x="95.5" y="-129" font-family="Helvetica,sans-Serif" font-size="10.00">fatversion</text>
<text text-anchor="middle" x="95.5" y="-118" font-family="Helvetica,sans-Serif" font-size="10.00">flags</text>
<text text-anchor="middle" x="95.5" y="-107" font-family="Helvetica,sans-Serif" font-size="10.00">fsinfocluster</text>
<text text-anchor="middle" x="95.5" y="-96" font-family="Helvetica,sans-Serif" font-size="10.00">numberofdirentries</text>
<text text-anchor="middle" x="95.5" y="-85" font-family="Helvetica,sans-Serif" font-size="10.00">numberofheads</text>
<text text-anchor="middle" x="95.5" y="-74" font-family="Helvetica,sans-Serif" font-size="10.00">reservedsectors</text>
<text text-anchor="middle" x="95.5" y="-63" font-family="Helvetica,sans-Serif" font-size="10.00">sectorspertrack</text>
<text text-anchor="middle" x="95.5" y="-52" font-family="Helvetica,sans-Serif" font-size="10.00">totalsectors</text>
<text text-anchor="middle" x="95.5" y="-41" font-family="Helvetica,sans-Serif" font-size="10.00">...</text>
</g>
<!-- Node3 -->
<g id="node3" class="node">
<title>Node3</title>
<g id="a_node3"><a xlink:title=" ">
<polygon fill="none" stroke="#bfbfbf" points="155,-177.5 155,-196.5 193,-196.5 193,-177.5 155,-177.5"/>
<text text-anchor="middle" x="174" y="-184.5" font-family="Helvetica,sans-Serif" font-size="10.00">char</text>
</a>
</g>
</g>
<!-- Node3&#45;&gt;Node1 -->
<g id="edge2" class="edge">
<title>Node3&#45;&gt;Node1</title>
<path fill="none" stroke="#9a32cd" stroke-dasharray="5,2" d="M168.68,-167.42C161.35,-137.83 151.51,-79.16 175,-38 179.7,-29.77 188,-23.77 196.21,-19.55"/>
<polygon fill="#9a32cd" stroke="#9a32cd" points="165.34,-168.47 171.3,-177.24 172.11,-166.67 165.34,-168.47"/>
<text text-anchor="middle" x="209.5" y="-112.5" font-family="Helvetica,sans-Serif" font-size="10.00"> oemidentifier</text>
<text text-anchor="middle" x="209.5" y="-101.5" font-family="Helvetica,sans-Serif" font-size="10.00">reserved</text>
<text text-anchor="middle" x="209.5" y="-90.5" font-family="Helvetica,sans-Serif" font-size="10.00">systemid</text>
<text text-anchor="middle" x="209.5" y="-79.5" font-family="Helvetica,sans-Serif" font-size="10.00">volumelabel</text>
</g>
<!-- Node4 -->
<g id="node4" class="node">
<title>Node4</title>
<g id="a_node4"><a xlink:title=" ">
<polygon fill="none" stroke="#bfbfbf" points="238,-177.5 238,-196.5 294,-196.5 294,-177.5 238,-177.5"/>
<text text-anchor="middle" x="266" y="-184.5" font-family="Helvetica,sans-Serif" font-size="10.00">uint32_t</text>
</a>
</g>
</g>
<!-- Node4&#45;&gt;Node1 -->
<g id="edge3" class="edge">
<title>Node4&#45;&gt;Node1</title>
<path fill="none" stroke="#9a32cd" stroke-dasharray="5,2" d="M266.56,-167.14C266.71,-138.03 264.1,-81.01 244,-38 240.71,-30.95 234.97,-24.4 229.94,-19.51"/>
<polygon fill="#9a32cd" stroke="#9a32cd" points="263.06,-167.11 266.39,-177.16 270.06,-167.22 263.06,-167.11"/>
<text text-anchor="middle" x="305.5" y="-118" font-family="Helvetica,sans-Serif" font-size="10.00"> hiddensectors</text>
<text text-anchor="middle" x="305.5" y="-107" font-family="Helvetica,sans-Serif" font-size="10.00">rootdircluster</text>
<text text-anchor="middle" x="305.5" y="-96" font-family="Helvetica,sans-Serif" font-size="10.00">sectorsonmedia</text>
<text text-anchor="middle" x="305.5" y="-85" font-family="Helvetica,sans-Serif" font-size="10.00">sectorsperfat</text>
<text text-anchor="middle" x="305.5" y="-74" font-family="Helvetica,sans-Serif" font-size="10.00">serialnumber</text>
</g>
<!-- Node5 -->
<g id="node5" class="node">
<title>Node5</title>
<g id="a_node5"><a xlink:title=" ">
<polygon fill="none" stroke="#bfbfbf" points="343,-177.5 343,-196.5 393,-196.5 393,-177.5 343,-177.5"/>
<text text-anchor="middle" x="368" y="-184.5" font-family="Helvetica,sans-Serif" font-size="10.00">uint8_t</text>
</a>
</g>
</g>
<!-- Node5&#45;&gt;Node1 -->
<g id="edge4" class="edge">
<title>Node5&#45;&gt;Node1</title>
<path fill="none" stroke="#9a32cd" stroke-dasharray="5,2" d="M371.31,-167.28C375.66,-136.09 379.25,-73.43 346,-38 336.05,-27.4 303.71,-20.6 274.29,-16.48"/>
<polygon fill="#9a32cd" stroke="#9a32cd" points="367.84,-166.81 369.74,-177.23 374.75,-167.9 367.84,-166.81"/>
<text text-anchor="middle" x="416.5" y="-140" font-family="Helvetica,sans-Serif" font-size="10.00"> code1</text>
<text text-anchor="middle" x="416.5" y="-129" font-family="Helvetica,sans-Serif" font-size="10.00">code2</text>
<text text-anchor="middle" x="416.5" y="-118" font-family="Helvetica,sans-Serif" font-size="10.00">code3</text>
<text text-anchor="middle" x="416.5" y="-107" font-family="Helvetica,sans-Serif" font-size="10.00">drivenumber</text>
<text text-anchor="middle" x="416.5" y="-96" font-family="Helvetica,sans-Serif" font-size="10.00">mediatype</text>
<text text-anchor="middle" x="416.5" y="-85" font-family="Helvetica,sans-Serif" font-size="10.00">ntflags</text>
<text text-anchor="middle" x="416.5" y="-74" font-family="Helvetica,sans-Serif" font-size="10.00">numberoffats</text>
<text text-anchor="middle" x="416.5" y="-63" font-family="Helvetica,sans-Serif" font-size="10.00">sectorspercluster</text>
<text text-anchor="middle" x="416.5" y="-52" font-family="Helvetica,sans-Serif" font-size="10.00">signature</text>
</g>
</g>
</svg>
