<?xml version="1.0" encoding="UTF-8" standalone="no"?>
<!DOCTYPE svg PUBLIC "-//W3C//DTD SVG 1.1//EN"
 "http://www.w3.org/Graphics/SVG/1.1/DTD/svg11.dtd">
<!-- Generated by graphviz version 2.43.0 (0)
 -->
<!-- Title: ub_var_double_array Pages: 1 -->
<svg width="213pt" height="95pt"
 viewBox="0.00 0.00 213.00 95.00" xmlns="http://www.w3.org/2000/svg" xmlns:xlink="http://www.w3.org/1999/xlink">
<g id="graph0" class="graph" transform="scale(1 1) rotate(0) translate(4 91)">
<title>ub_var_double_array</title>
<!-- Node1 -->
<g id="node1" class="node">
<title>Node1</title>
<g id="a_node1"><a xlink:title="An array of real (double)">
<polygon fill="#bfbfbf" stroke="black" points="36.5,-0.5 36.5,-19.5 155.5,-19.5 155.5,-0.5 36.5,-0.5"/>
<text text-anchor="middle" x="96" y="-7.5" font-family="Helvetica,sans-Serif" font-size="10.00">ub_var_double_array</text>
</a>
</g>
</g>
<!-- Node1&#45;&gt;Node1 -->
<g id="edge1" class="edge">
<title>Node1&#45;&gt;Node1</title>
<path fill="none" stroke="#9a32cd" stroke-dasharray="5,2" d="M165.98,-14.31C170.66,-13.31 173.5,-11.88 173.5,-10 173.5,-7 166.23,-5.12 155.79,-4.38"/>
<polygon fill="#9a32cd" stroke="#9a32cd" points="165.26,-10.87 155.79,-15.62 166.16,-17.81 165.26,-10.87"/>
<text text-anchor="middle" x="186" y="-7.5" font-family="Helvetica,sans-Serif" font-size="10.00"> next</text>
</g>
<!-- Node2 -->
<g id="node2" class="node">
<title>Node2</title>
<g id="a_node2"><a xlink:title=" ">
<polygon fill="none" stroke="#bfbfbf" points="0,-67.5 0,-86.5 50,-86.5 50,-67.5 0,-67.5"/>
<text text-anchor="middle" x="25" y="-74.5" font-family="Helvetica,sans-Serif" font-size="10.00">double</text>
</a>
</g>
</g>
<!-- Node2&#45;&gt;Node1 -->
<g id="edge2" class="edge">
<title>Node2&#45;&gt;Node1</title>
<path fill="none" stroke="#9a32cd" stroke-dasharray="5,2" d="M37.05,-59.12C42.43,-52.18 49.1,-44.3 56,-38 63.67,-30.99 73.3,-24.44 81.18,-19.54"/>
<polygon fill="#9a32cd" stroke="#9a32cd" points="34.17,-57.12 31.01,-67.24 39.79,-61.3 34.17,-57.12"/>
<text text-anchor="middle" x="74" y="-41" font-family="Helvetica,sans-Serif" font-size="10.00"> values</text>
</g>
<!-- Node3 -->
<g id="node3" class="node">
<title>Node3</title>
<g id="a_node3"><a xlink:title=" ">
<polygon fill="none" stroke="#bfbfbf" points="68,-67.5 68,-86.5 124,-86.5 124,-67.5 68,-67.5"/>
<text text-anchor="middle" x="96" y="-74.5" font-family="Helvetica,sans-Serif" font-size="10.00">uint64_t</text>
</a>
</g>
</g>
<!-- Node3&#45;&gt;Node1 -->
<g id="edge3" class="edge">
<title>Node3&#45;&gt;Node1</title>
<path fill="none" stroke="#9a32cd" stroke-dasharray="5,2" d="M96,-57.04C96,-44.67 96,-29.12 96,-19.63"/>
<polygon fill="#9a32cd" stroke="#9a32cd" points="92.5,-57.23 96,-67.23 99.5,-57.23 92.5,-57.23"/>
<text text-anchor="middle" x="122.5" y="-41" font-family="Helvetica,sans-Serif" font-size="10.00"> itemcount</text>
</g>
<!-- Node4 -->
<g id="node4" class="node">
<title>Node4</title>
<g id="a_node4"><a xlink:title=" ">
<polygon fill="none" stroke="#bfbfbf" points="153,-67.5 153,-86.5 191,-86.5 191,-67.5 153,-67.5"/>
<text text-anchor="middle" x="172" y="-74.5" font-family="Helvetica,sans-Serif" font-size="10.00">char</text>
</a>
</g>
</g>
<!-- Node4&#45;&gt;Node1 -->
<g id="edge4" class="edge">
<title>Node4&#45;&gt;Node1</title>
<path fill="none" stroke="#9a32cd" stroke-dasharray="5,2" d="M164.27,-57.88C160.68,-51.03 155.89,-43.54 150,-38 141.53,-30.03 130.25,-23.89 120.19,-19.5"/>
<polygon fill="#9a32cd" stroke="#9a32cd" points="161.22,-59.63 168.65,-67.19 167.56,-56.65 161.22,-59.63"/>
<text text-anchor="middle" x="181.5" y="-41" font-family="Helvetica,sans-Serif" font-size="10.00"> varname</text>
</g>
</g>
</svg>
