<?xml version="1.0" encoding="UTF-8" standalone="no"?>
<!DOCTYPE svg PUBLIC "-//W3C//DTD SVG 1.1//EN"
 "http://www.w3.org/Graphics/SVG/1.1/DTD/svg11.dtd">
<!-- Generated by graphviz version 2.43.0 (0)
 -->
<!-- Title: ubasic_double_fn Pages: 1 -->
<svg width="896pt" height="884pt"
 viewBox="0.00 0.00 896.00 883.85" xmlns="http://www.w3.org/2000/svg" xmlns:xlink="http://www.w3.org/1999/xlink">
<g id="graph0" class="graph" transform="scale(1 1) rotate(0) translate(4 879.85)">
<title>ubasic_double_fn</title>
<!-- Node1 -->
<g id="node1" class="node">
<title>Node1</title>
<g id="a_node1"><a xlink:title=" ">
<polygon fill="#bfbfbf" stroke="black" points="787,-612.35 787,-631.35 888,-631.35 888,-612.35 787,-612.35"/>
<text text-anchor="middle" x="837.5" y="-619.35" font-family="Helvetica,sans-Serif" font-size="10.00">ubasic_double_fn</text>
</a>
</g>
</g>
<!-- Node2 -->
<g id="node2" class="node">
<title>Node2</title>
<g id="a_node2"><a xlink:href="structubasic__ctx.html" target="_top" xlink:title=" ">
<polygon fill="none" stroke="black" points="643,-421.35 643,-440.35 711,-440.35 711,-421.35 643,-421.35"/>
<text text-anchor="middle" x="677" y="-428.35" font-family="Helvetica,sans-Serif" font-size="10.00">ubasic_ctx</text>
</a>
</g>
</g>
<!-- Node2&#45;&gt;Node1 -->
<g id="edge1" class="edge">
<title>Node2&#45;&gt;Node1</title>
<path fill="none" stroke="#9a32cd" stroke-dasharray="5,2" d="M692.66,-448.51C725.23,-487.77 802.79,-581.23 828.25,-611.91"/>
<polygon fill="#9a32cd" stroke="#9a32cd" points="695.16,-446.05 686.08,-440.59 689.77,-450.52 695.16,-446.05"/>
<text text-anchor="middle" x="749" y="-539.85" font-family="Helvetica,sans-Serif" font-size="10.00"> handler</text>
</g>
<!-- Node3 -->
<g id="node3" class="node">
<title>Node3</title>
<g id="a_node3"><a xlink:href="structub__var__string__array.html" target="_top" xlink:title=" ">
<polygon fill="none" stroke="black" points="378,-593.35 378,-612.35 491,-612.35 491,-593.35 378,-593.35"/>
<text text-anchor="middle" x="434.5" y="-600.35" font-family="Helvetica,sans-Serif" font-size="10.00">ub_var_string_array</text>
</a>
</g>
</g>
<!-- Node3&#45;&gt;Node2 -->
<g id="edge2" class="edge">
<title>Node3&#45;&gt;Node2</title>
<path fill="none" stroke="#9a32cd" stroke-dasharray="5,2" d="M501.59,-605.76C541.51,-604.07 591.07,-595.43 625,-566.85 664.73,-533.39 673.55,-465.72 675.47,-440.56"/>
<polygon fill="#9a32cd" stroke="#9a32cd" points="501.29,-602.26 491.4,-606.05 501.49,-609.26 501.29,-602.26"/>
<text text-anchor="middle" x="569" y="-607.85" font-family="Helvetica,sans-Serif" font-size="10.00"> string_array_variables</text>
</g>
<!-- Node4 -->
<g id="node4" class="node">
<title>Node4</title>
<g id="a_node4"><a xlink:title=" ">
<polygon fill="none" stroke="#bfbfbf" points="176.5,-606.35 176.5,-625.35 232.5,-625.35 232.5,-606.35 176.5,-606.35"/>
<text text-anchor="middle" x="204.5" y="-613.35" font-family="Helvetica,sans-Serif" font-size="10.00">uint64_t</text>
</a>
</g>
</g>
<!-- Node4&#45;&gt;Node2 -->
<g id="edge14" class="edge">
<title>Node4&#45;&gt;Node2</title>
<path fill="none" stroke="#9a32cd" stroke-dasharray="5,2" d="M231.47,-630.69C239.1,-635.15 247.44,-640.12 255,-644.85 263.15,-649.95 263.8,-654.07 273,-656.85 321.15,-671.43 601.7,-640.37 625,-619.85 652.8,-595.37 670.24,-475.53 674.8,-440.49"/>
<polygon fill="#9a32cd" stroke="#9a32cd" points="233.01,-627.53 222.6,-625.54 229.49,-633.59 233.01,-627.53"/>
<text text-anchor="middle" x="434.5" y="-671.85" font-family="Helvetica,sans-Serif" font-size="10.00"> for_stack_ptr</text>
<text text-anchor="middle" x="434.5" y="-660.85" font-family="Helvetica,sans-Serif" font-size="10.00">gosub_stack_ptr</text>
</g>
<!-- Node4&#45;&gt;Node3 -->
<g id="edge3" class="edge">
<title>Node4&#45;&gt;Node3</title>
<path fill="none" stroke="#9a32cd" stroke-dasharray="5,2" d="M242.99,-613.61C252.76,-613.03 263.27,-612.41 273,-611.85 307.83,-609.84 346.91,-607.65 377.79,-605.93"/>
<polygon fill="#9a32cd" stroke="#9a32cd" points="242.53,-610.13 232.76,-614.22 242.95,-617.12 242.53,-610.13"/>
<text text-anchor="middle" x="314.5" y="-614.85" font-family="Helvetica,sans-Serif" font-size="10.00"> itemcount</text>
</g>
<!-- Node18 -->
<g id="node18" class="node">
<title>Node18</title>
<g id="a_node18"><a xlink:href="structub__var__int__array.html" target="_top" xlink:title=" ">
<polygon fill="none" stroke="black" points="385.5,-497.35 385.5,-516.35 483.5,-516.35 483.5,-497.35 385.5,-497.35"/>
<text text-anchor="middle" x="434.5" y="-504.35" font-family="Helvetica,sans-Serif" font-size="10.00">ub_var_int_array</text>
</a>
</g>
</g>
<!-- Node4&#45;&gt;Node18 -->
<g id="edge31" class="edge">
<title>Node4&#45;&gt;Node18</title>
<path fill="none" stroke="#9a32cd" stroke-dasharray="5,2" d="M235.06,-601.65C241.64,-598.46 248.57,-595.06 255,-591.85 308.19,-565.33 319.94,-555.55 374,-530.85 385.14,-525.76 397.7,-520.61 408.39,-516.4"/>
<polygon fill="#9a32cd" stroke="#9a32cd" points="233.26,-598.64 225.78,-606.15 236.31,-604.94 233.26,-598.64"/>
<text text-anchor="middle" x="314.5" y="-583.85" font-family="Helvetica,sans-Serif" font-size="10.00"> itemcount</text>
</g>
<!-- Node5 -->
<g id="node5" class="node">
<title>Node5</title>
<g id="a_node5"><a xlink:title=" ">
<polygon fill="none" stroke="#bfbfbf" points="6,-451.35 6,-470.35 44,-470.35 44,-451.35 6,-451.35"/>
<text text-anchor="middle" x="25" y="-458.35" font-family="Helvetica,sans-Serif" font-size="10.00">char</text>
</a>
</g>
</g>
<!-- Node5&#45;&gt;Node1 -->
<g id="edge47" class="edge">
<title>Node5&#45;&gt;Node1</title>
<path fill="none" stroke="#9a32cd" stroke-dasharray="5,2" d="M29.51,-480.48C38.51,-530.37 62.08,-658.61 68,-665.85 88.78,-691.3 108.52,-676.85 136,-694.85 145.2,-700.88 144.51,-706.29 154,-711.85 242.4,-763.69 272.71,-765.34 374,-780.85 427.16,-788.99 442.49,-792.48 495,-780.85 630.69,-750.81 776.42,-661.09 822.02,-631.46"/>
<polygon fill="#9a32cd" stroke="#9a32cd" points="32.95,-479.82 27.74,-470.59 26.06,-481.06 32.95,-479.82"/>
<text text-anchor="middle" x="434.5" y="-790.85" font-family="Helvetica,sans-Serif" font-size="10.00"> name</text>
</g>
<!-- Node5&#45;&gt;Node2 -->
<g id="edge15" class="edge">
<title>Node5&#45;&gt;Node2</title>
<path fill="none" stroke="#9a32cd" stroke-dasharray="5,2" d="M28.58,-440.97C32.78,-415.69 43.28,-371.96 68,-343.85 84.81,-324.74 269.42,-247.61 273,-246.85 367.35,-226.79 578.06,-228.6 625,-265.85 674.56,-305.18 677.07,-391.77 676.42,-421"/>
<polygon fill="#9a32cd" stroke="#9a32cd" points="25.07,-440.75 27.06,-451.16 31.99,-441.78 25.07,-440.75"/>
<text text-anchor="middle" x="314.5" y="-293.85" font-family="Helvetica,sans-Serif" font-size="10.00"> item_begin</text>
<text text-anchor="middle" x="314.5" y="-282.85" font-family="Helvetica,sans-Serif" font-size="10.00">nextptr</text>
<text text-anchor="middle" x="314.5" y="-271.85" font-family="Helvetica,sans-Serif" font-size="10.00">program_ptr</text>
<text text-anchor="middle" x="314.5" y="-260.85" font-family="Helvetica,sans-Serif" font-size="10.00">ptr</text>
<text text-anchor="middle" x="314.5" y="-249.85" font-family="Helvetica,sans-Serif" font-size="10.00">string</text>
</g>
<!-- Node5&#45;&gt;Node3 -->
<g id="edge4" class="edge">
<title>Node5&#45;&gt;Node3</title>
<path fill="none" stroke="#9a32cd" stroke-dasharray="5,2" d="M28.76,-480.39C33.02,-502.71 43.44,-538.5 68,-556.85 80.26,-566.02 278.7,-587.21 377.92,-597.31"/>
<polygon fill="#9a32cd" stroke="#9a32cd" points="32.19,-479.67 27.09,-470.38 25.28,-480.82 32.19,-479.67"/>
<text text-anchor="middle" x="204.5" y="-585.85" font-family="Helvetica,sans-Serif" font-size="10.00"> varname</text>
</g>
<!-- Node6 -->
<g id="node6" class="node">
<title>Node6</title>
<g id="a_node6"><a xlink:href="structub__var__string.html" target="_top" xlink:title=" ">
<polygon fill="none" stroke="black" points="163,-654.35 163,-673.35 246,-673.35 246,-654.35 163,-654.35"/>
<text text-anchor="middle" x="204.5" y="-661.35" font-family="Helvetica,sans-Serif" font-size="10.00">ub_var_string</text>
</a>
</g>
</g>
<!-- Node5&#45;&gt;Node6 -->
<g id="edge6" class="edge">
<title>Node5&#45;&gt;Node6</title>
<path fill="none" stroke="#9a32cd" stroke-dasharray="5,2" d="M26.46,-480.62C28.21,-511.31 35.85,-570.66 68,-606.85 82.36,-623.02 137.11,-642.77 172.46,-654.27"/>
<polygon fill="#9a32cd" stroke="#9a32cd" points="29.95,-480.21 26.04,-470.37 22.95,-480.5 29.95,-480.21"/>
<text text-anchor="middle" x="102" y="-653.85" font-family="Helvetica,sans-Serif" font-size="10.00"> value</text>
<text text-anchor="middle" x="102" y="-642.85" font-family="Helvetica,sans-Serif" font-size="10.00">varname</text>
</g>
<!-- Node8 -->
<g id="node8" class="node">
<title>Node8</title>
<g id="a_node8"><a xlink:href="structub__var__int.html" target="_top" xlink:title=" ">
<polygon fill="none" stroke="black" points="170.5,-490.35 170.5,-509.35 238.5,-509.35 238.5,-490.35 170.5,-490.35"/>
<text text-anchor="middle" x="204.5" y="-497.35" font-family="Helvetica,sans-Serif" font-size="10.00">ub_var_int</text>
</a>
</g>
</g>
<!-- Node5&#45;&gt;Node8 -->
<g id="edge11" class="edge">
<title>Node5&#45;&gt;Node8</title>
<path fill="none" stroke="#9a32cd" stroke-dasharray="5,2" d="M54.02,-470.79C58.65,-472.26 63.44,-473.68 68,-474.85 102.52,-483.74 142.76,-490.75 170.36,-495.06"/>
<polygon fill="#9a32cd" stroke="#9a32cd" points="54.83,-467.37 44.23,-467.55 52.62,-474.02 54.83,-467.37"/>
<text text-anchor="middle" x="102" y="-491.85" font-family="Helvetica,sans-Serif" font-size="10.00"> varname</text>
</g>
<!-- Node10 -->
<g id="node10" class="node">
<title>Node10</title>
<g id="a_node10"><a xlink:href="structconsole.html" target="_top" xlink:title=" ">
<polygon fill="none" stroke="black" points="177.5,-775.35 177.5,-794.35 231.5,-794.35 231.5,-775.35 177.5,-775.35"/>
<text text-anchor="middle" x="204.5" y="-782.35" font-family="Helvetica,sans-Serif" font-size="10.00">console</text>
</a>
</g>
</g>
<!-- Node5&#45;&gt;Node10 -->
<g id="edge17" class="edge">
<title>Node5&#45;&gt;Node10</title>
<path fill="none" stroke="#9a32cd" stroke-dasharray="5,2" d="M29.7,-480.51C34.47,-505.96 43,-551.69 50,-590.85 58.26,-637.03 42.37,-655.56 68,-694.85 94.54,-735.54 146.58,-762.18 177.88,-775.28"/>
<polygon fill="#9a32cd" stroke="#9a32cd" points="33.13,-479.81 27.84,-470.63 26.25,-481.11 33.13,-479.81"/>
<text text-anchor="middle" x="102" y="-776.85" font-family="Helvetica,sans-Serif" font-size="10.00"> buffer</text>
<text text-anchor="middle" x="102" y="-765.85" font-family="Helvetica,sans-Serif" font-size="10.00">dirty</text>
<text text-anchor="middle" x="102" y="-754.85" font-family="Helvetica,sans-Serif" font-size="10.00">internalbuffer</text>
</g>
<!-- Node14 -->
<g id="node14" class="node">
<title>Node14</title>
<g id="a_node14"><a xlink:href="structub__var__double.html" target="_top" xlink:title=" ">
<polygon fill="none" stroke="black" points="160.5,-376.35 160.5,-395.35 248.5,-395.35 248.5,-376.35 160.5,-376.35"/>
<text text-anchor="middle" x="204.5" y="-383.35" font-family="Helvetica,sans-Serif" font-size="10.00">ub_var_double</text>
</a>
</g>
</g>
<!-- Node5&#45;&gt;Node14 -->
<g id="edge24" class="edge">
<title>Node5&#45;&gt;Node14</title>
<path fill="none" stroke="#9a32cd" stroke-dasharray="5,2" d="M49.56,-445.81C55.46,-442.32 61.87,-438.78 68,-435.85 102.85,-419.22 144.81,-404.51 172.71,-395.42"/>
<polygon fill="#9a32cd" stroke="#9a32cd" points="47.52,-442.95 40.8,-451.14 51.16,-448.93 47.52,-442.95"/>
<text text-anchor="middle" x="102" y="-438.85" font-family="Helvetica,sans-Serif" font-size="10.00"> varname</text>
</g>
<!-- Node5&#45;&gt;Node18 -->
<g id="edge32" class="edge">
<title>Node5&#45;&gt;Node18</title>
<path fill="none" stroke="#9a32cd" stroke-dasharray="5,2" d="M54.24,-460.72C97.57,-460.8 182.98,-462.06 255,-469.85 300.33,-474.76 311.39,-478.42 356,-487.85 369.28,-490.66 383.75,-494.1 396.56,-497.28"/>
<polygon fill="#9a32cd" stroke="#9a32cd" points="54.17,-457.22 44.17,-460.72 54.17,-464.22 54.17,-457.22"/>
<text text-anchor="middle" x="204.5" y="-472.85" font-family="Helvetica,sans-Serif" font-size="10.00"> varname</text>
</g>
<!-- Node19 -->
<g id="node19" class="node">
<title>Node19</title>
<g id="a_node19"><a xlink:href="structub__proc__fn__def.html" target="_top" xlink:title=" ">
<polygon fill="none" stroke="black" points="389,-126.35 389,-145.35 480,-145.35 480,-126.35 389,-126.35"/>
<text text-anchor="middle" x="434.5" y="-133.35" font-family="Helvetica,sans-Serif" font-size="10.00">ub_proc_fn_def</text>
</a>
</g>
</g>
<!-- Node5&#45;&gt;Node19 -->
<g id="edge35" class="edge">
<title>Node5&#45;&gt;Node19</title>
<path fill="none" stroke="#9a32cd" stroke-dasharray="5,2" d="M26.75,-441.04C29.11,-389.06 38.13,-250.54 68,-217.85 78.91,-205.91 293.72,-162.99 388.83,-144.46"/>
<polygon fill="#9a32cd" stroke="#9a32cd" points="23.24,-441.13 26.32,-451.27 30.23,-441.42 23.24,-441.13"/>
<text text-anchor="middle" x="204.5" y="-194.85" font-family="Helvetica,sans-Serif" font-size="10.00"> name</text>
</g>
<!-- Node21 -->
<g id="node21" class="node">
<title>Node21</title>
<g id="a_node21"><a xlink:href="structub__param.html" target="_top" xlink:title=" ">
<polygon fill="none" stroke="black" points="172,-309.35 172,-328.35 237,-328.35 237,-309.35 172,-309.35"/>
<text text-anchor="middle" x="204.5" y="-316.35" font-family="Helvetica,sans-Serif" font-size="10.00">ub_param</text>
</a>
</g>
</g>
<!-- Node5&#45;&gt;Node21 -->
<g id="edge39" class="edge">
<title>Node5&#45;&gt;Node21</title>
<path fill="none" stroke="#9a32cd" stroke-dasharray="5,2" d="M34.42,-441.77C41.66,-427.02 53.27,-406.81 68,-392.85 100.39,-362.15 147.96,-340.08 177.27,-328.41"/>
<polygon fill="#9a32cd" stroke="#9a32cd" points="31.18,-440.43 30.11,-450.98 37.52,-443.4 31.18,-440.43"/>
<text text-anchor="middle" x="102" y="-395.85" font-family="Helvetica,sans-Serif" font-size="10.00"> name</text>
</g>
<!-- Node23 -->
<g id="node23" class="node">
<title>Node23</title>
<g id="a_node23"><a xlink:href="structfor__state.html" target="_top" xlink:title=" ">
<polygon fill="none" stroke="black" points="174.5,-215.35 174.5,-234.35 234.5,-234.35 234.5,-215.35 174.5,-215.35"/>
<text text-anchor="middle" x="204.5" y="-222.35" font-family="Helvetica,sans-Serif" font-size="10.00">for_state</text>
</a>
</g>
</g>
<!-- Node5&#45;&gt;Node23 -->
<g id="edge44" class="edge">
<title>Node5&#45;&gt;Node23</title>
<path fill="none" stroke="#9a32cd" stroke-dasharray="5,2" d="M26.79,-441.09C29.19,-391.74 38.18,-265.09 68,-237.85 96.53,-211.8 143.89,-213.72 174.39,-218.51"/>
<polygon fill="#9a32cd" stroke="#9a32cd" points="23.29,-440.99 26.34,-451.13 30.28,-441.3 23.29,-440.99"/>
<text text-anchor="middle" x="102" y="-240.85" font-family="Helvetica,sans-Serif" font-size="10.00"> for_variable</text>
</g>
<!-- Node6&#45;&gt;Node2 -->
<g id="edge41" class="edge">
<title>Node6&#45;&gt;Node2</title>
<path fill="none" stroke="#9a32cd" stroke-dasharray="5,2" d="M241.75,-676.57C323.77,-702.78 524.28,-751.9 625,-645.85 654.06,-615.26 670.84,-478.47 674.98,-440.6"/>
<polygon fill="#9a32cd" stroke="#9a32cd" points="242.71,-673.21 232.12,-673.43 240.54,-679.86 242.71,-673.21"/>
<text text-anchor="middle" x="434.5" y="-724.85" font-family="Helvetica,sans-Serif" font-size="10.00"> local_string_variables</text>
<text text-anchor="middle" x="434.5" y="-713.85" font-family="Helvetica,sans-Serif" font-size="10.00">str_variables</text>
</g>
<!-- Node6&#45;&gt;Node3 -->
<g id="edge5" class="edge">
<title>Node6&#45;&gt;Node3</title>
<path fill="none" stroke="#9a32cd" stroke-dasharray="5,2" d="M250.81,-651.73C293.97,-640.18 358.08,-623.03 397.75,-612.42"/>
<polygon fill="#9a32cd" stroke="#9a32cd" points="249.88,-648.36 241.12,-654.32 251.69,-655.12 249.88,-648.36"/>
<text text-anchor="middle" x="314.5" y="-646.85" font-family="Helvetica,sans-Serif" font-size="10.00"> values</text>
</g>
<!-- Node6&#45;&gt;Node6 -->
<g id="edge8" class="edge">
<title>Node6&#45;&gt;Node6</title>
<path fill="none" stroke="#9a32cd" stroke-dasharray="5,2" d="M185.61,-683.25C186.87,-688.17 193.17,-691.85 204.5,-691.85 222.63,-691.85 227.87,-682.42 220.22,-673.61"/>
<polygon fill="#9a32cd" stroke="#9a32cd" points="188.98,-684.2 188.78,-673.61 182.33,-682.02 188.98,-684.2"/>
<text text-anchor="middle" x="204.5" y="-694.85" font-family="Helvetica,sans-Serif" font-size="10.00"> next</text>
</g>
<!-- Node7 -->
<g id="node7" class="node">
<title>Node7</title>
<g id="a_node7"><a xlink:title=" ">
<polygon fill="none" stroke="#bfbfbf" points="6,-600.35 6,-619.35 44,-619.35 44,-600.35 6,-600.35"/>
<text text-anchor="middle" x="25" y="-607.35" font-family="Helvetica,sans-Serif" font-size="10.00">bool</text>
</a>
</g>
</g>
<!-- Node7&#45;&gt;Node6 -->
<g id="edge7" class="edge">
<title>Node7&#45;&gt;Node6</title>
<path fill="none" stroke="#9a32cd" stroke-dasharray="5,2" d="M33.64,-629.16C40.37,-643.26 51.66,-661.35 68,-669.85 101,-687.03 144.88,-680.72 173.64,-673.37"/>
<polygon fill="#9a32cd" stroke="#9a32cd" points="36.75,-627.54 29.54,-619.78 30.34,-630.35 36.75,-627.54"/>
<text text-anchor="middle" x="102" y="-682.85" font-family="Helvetica,sans-Serif" font-size="10.00"> global</text>
</g>
<!-- Node7&#45;&gt;Node8 -->
<g id="edge13" class="edge">
<title>Node7&#45;&gt;Node8</title>
<path fill="none" stroke="#9a32cd" stroke-dasharray="5,2" d="M53.72,-598.81C76.6,-589.16 109.5,-574.03 136,-556.85 158.14,-542.5 181,-521.71 193.62,-509.6"/>
<polygon fill="#9a32cd" stroke="#9a32cd" points="52.17,-595.67 44.27,-602.73 54.85,-602.13 52.17,-595.67"/>
<text text-anchor="middle" x="102" y="-594.85" font-family="Helvetica,sans-Serif" font-size="10.00"> global</text>
</g>
<!-- Node7&#45;&gt;Node14 -->
<g id="edge26" class="edge">
<title>Node7&#45;&gt;Node14</title>
<path fill="none" stroke="#9a32cd" stroke-dasharray="5,2" d="M34.46,-590.81C41.72,-576.08 53.34,-555.89 68,-541.85 93.01,-517.91 114.62,-531.08 136,-503.85 154.51,-480.28 139.35,-465 154,-438.85 163.72,-421.5 180.3,-405.38 191.57,-395.58"/>
<polygon fill="#9a32cd" stroke="#9a32cd" points="31.22,-589.46 30.14,-600 37.56,-592.44 31.22,-589.46"/>
<text text-anchor="middle" x="102" y="-544.85" font-family="Helvetica,sans-Serif" font-size="10.00"> global</text>
</g>
<!-- Node8&#45;&gt;Node2 -->
<g id="edge9" class="edge">
<title>Node8&#45;&gt;Node2</title>
<path fill="none" stroke="#9a32cd" stroke-dasharray="5,2" d="M226,-515.51C238.77,-524.26 255.96,-534.28 273,-538.85 361.49,-562.58 557.69,-556.78 625,-514.85 652.95,-497.44 667.74,-458.54 673.33,-440.45"/>
<polygon fill="#9a32cd" stroke="#9a32cd" points="227.72,-512.44 217.55,-509.47 223.65,-518.13 227.72,-512.44"/>
<text text-anchor="middle" x="434.5" y="-565.85" font-family="Helvetica,sans-Serif" font-size="10.00"> int_variables</text>
<text text-anchor="middle" x="434.5" y="-554.85" font-family="Helvetica,sans-Serif" font-size="10.00">local_int_variables</text>
</g>
<!-- Node8&#45;&gt;Node8 -->
<g id="edge10" class="edge">
<title>Node8&#45;&gt;Node8</title>
<path fill="none" stroke="#9a32cd" stroke-dasharray="5,2" d="M185.61,-519.25C186.87,-524.17 193.17,-527.85 204.5,-527.85 222.63,-527.85 227.87,-518.42 220.22,-509.61"/>
<polygon fill="#9a32cd" stroke="#9a32cd" points="188.98,-520.2 188.78,-509.61 182.33,-518.02 188.98,-520.2"/>
<text text-anchor="middle" x="204.5" y="-530.85" font-family="Helvetica,sans-Serif" font-size="10.00"> next</text>
</g>
<!-- Node8&#45;&gt;Node18 -->
<g id="edge30" class="edge">
<title>Node8&#45;&gt;Node18</title>
<path fill="none" stroke="#9a32cd" stroke-dasharray="5,2" d="M248.75,-495.44C256.8,-494.78 265.15,-494.2 273,-493.85 309.85,-492.22 319.24,-490.79 356,-493.85 365.52,-494.65 375.62,-495.98 385.29,-497.49"/>
<polygon fill="#9a32cd" stroke="#9a32cd" points="248.42,-491.95 238.76,-496.31 249.03,-498.92 248.42,-491.95"/>
<text text-anchor="middle" x="314.5" y="-496.85" font-family="Helvetica,sans-Serif" font-size="10.00"> values</text>
</g>
<!-- Node9 -->
<g id="node9" class="node">
<title>Node9</title>
<g id="a_node9"><a xlink:title=" ">
<polygon fill="none" stroke="#bfbfbf" points="0,-62.35 0,-81.35 50,-81.35 50,-62.35 0,-62.35"/>
<text text-anchor="middle" x="25" y="-69.35" font-family="Helvetica,sans-Serif" font-size="10.00">int64_t</text>
</a>
</g>
</g>
<!-- Node9&#45;&gt;Node2 -->
<g id="edge20" class="edge">
<title>Node9&#45;&gt;Node2</title>
<path fill="none" stroke="#9a32cd" stroke-dasharray="5,2" d="M59.67,-59.21C160.51,-23.76 463.06,64.65 625,-83.85 676.27,-130.87 676.65,-370.41 676.14,-421.33"/>
<polygon fill="#9a32cd" stroke="#9a32cd" points="58.25,-56 50.01,-62.66 60.61,-62.59 58.25,-56"/>
<text text-anchor="middle" x="314.5" y="-21.85" font-family="Helvetica,sans-Serif" font-size="10.00"> current_linenum</text>
<text text-anchor="middle" x="314.5" y="-10.85" font-family="Helvetica,sans-Serif" font-size="10.00">eval_linenum</text>
</g>
<!-- Node9&#45;&gt;Node8 -->
<g id="edge12" class="edge">
<title>Node9&#45;&gt;Node8</title>
<path fill="none" stroke="#9a32cd" stroke-dasharray="5,2" d="M34.83,-90.82C45.7,-113.94 63.29,-150.59 68,-155.85 92.01,-182.68 117.78,-168.81 136,-199.85 167.11,-252.86 119.69,-424.86 154,-475.85 158.21,-482.11 164.54,-486.8 171.27,-490.28"/>
<polygon fill="#9a32cd" stroke="#9a32cd" points="37.92,-89.17 30.51,-81.59 31.58,-92.13 37.92,-89.17"/>
<text text-anchor="middle" x="102" y="-202.85" font-family="Helvetica,sans-Serif" font-size="10.00"> value</text>
</g>
<!-- Node9&#45;&gt;Node19 -->
<g id="edge36" class="edge">
<title>Node9&#45;&gt;Node19</title>
<path fill="none" stroke="#9a32cd" stroke-dasharray="5,2" d="M60.19,-68.5C81.96,-66.97 110.71,-66.04 136,-68.85 234.4,-79.8 347.78,-110.5 401.76,-126.26"/>
<polygon fill="#9a32cd" stroke="#9a32cd" points="59.81,-65.02 50.11,-69.29 60.36,-72 59.81,-65.02"/>
<text text-anchor="middle" x="204.5" y="-90.85" font-family="Helvetica,sans-Serif" font-size="10.00"> line</text>
</g>
<!-- Node9&#45;&gt;Node23 -->
<g id="edge45" class="edge">
<title>Node9&#45;&gt;Node23</title>
<path fill="none" stroke="#9a32cd" stroke-dasharray="5,2" d="M60.44,-67.46C84.83,-66.39 116.54,-69.51 136,-88.85 171.76,-124.4 123.92,-160.39 154,-200.85 159.07,-207.67 166.6,-212.65 174.26,-216.25"/>
<polygon fill="#9a32cd" stroke="#9a32cd" points="59.9,-63.99 50.16,-68.16 60.38,-70.97 59.9,-63.99"/>
<text text-anchor="middle" x="102" y="-113.85" font-family="Helvetica,sans-Serif" font-size="10.00"> line_after_for</text>
<text text-anchor="middle" x="102" y="-102.85" font-family="Helvetica,sans-Serif" font-size="10.00">step</text>
<text text-anchor="middle" x="102" y="-91.85" font-family="Helvetica,sans-Serif" font-size="10.00">to</text>
</g>
<!-- Node10&#45;&gt;Node2 -->
<g id="edge16" class="edge">
<title>Node10&#45;&gt;Node2</title>
<path fill="none" stroke="#9a32cd" stroke-dasharray="5,2" d="M241.79,-781.98C334.29,-773.84 575.11,-747.35 625,-688.85 658.11,-650.03 672.28,-482.35 675.34,-440.4"/>
<polygon fill="#9a32cd" stroke="#9a32cd" points="241.44,-778.49 231.77,-782.84 242.04,-785.47 241.44,-778.49"/>
<text text-anchor="middle" x="434.5" y="-768.85" font-family="Helvetica,sans-Serif" font-size="10.00"> cons</text>
</g>
<!-- Node11 -->
<g id="node11" class="node">
<title>Node11</title>
<g id="a_node11"><a xlink:title=" ">
<polygon fill="none" stroke="#bfbfbf" points="2.5,-794.35 2.5,-813.35 47.5,-813.35 47.5,-794.35 2.5,-794.35"/>
<text text-anchor="middle" x="25" y="-801.35" font-family="Helvetica,sans-Serif" font-size="10.00">size_t</text>
</a>
</g>
</g>
<!-- Node11&#45;&gt;Node10 -->
<g id="edge18" class="edge">
<title>Node11&#45;&gt;Node10</title>
<path fill="none" stroke="#9a32cd" stroke-dasharray="5,2" d="M58.12,-800.42C92.23,-796.76 145.52,-791.06 177.23,-787.67"/>
<polygon fill="#9a32cd" stroke="#9a32cd" points="57.34,-796.98 47.76,-801.52 58.08,-803.94 57.34,-796.98"/>
<text text-anchor="middle" x="102" y="-801.85" font-family="Helvetica,sans-Serif" font-size="10.00"> bufcnt</text>
</g>
<!-- Node12 -->
<g id="node12" class="node">
<title>Node12</title>
<g id="a_node12"><a xlink:title=" ">
<polygon fill="none" stroke="#bfbfbf" points="0,-832.35 0,-851.35 50,-851.35 50,-832.35 0,-832.35"/>
<text text-anchor="middle" x="25" y="-839.35" font-family="Helvetica,sans-Serif" font-size="10.00">uint8_t</text>
</a>
</g>
</g>
<!-- Node12&#45;&gt;Node10 -->
<g id="edge19" class="edge">
<title>Node12&#45;&gt;Node10</title>
<path fill="none" stroke="#9a32cd" stroke-dasharray="5,2" d="M60.19,-834.6C82.11,-829.6 111.03,-822.34 136,-813.85 152.3,-808.31 170.18,-800.55 183.44,-794.45"/>
<polygon fill="#9a32cd" stroke="#9a32cd" points="59.35,-831.21 50.35,-836.81 60.87,-838.04 59.35,-831.21"/>
<text text-anchor="middle" x="102" y="-867.85" font-family="Helvetica,sans-Serif" font-size="10.00"> attributes</text>
<text text-anchor="middle" x="102" y="-856.85" font-family="Helvetica,sans-Serif" font-size="10.00">last</text>
<text text-anchor="middle" x="102" y="-845.85" font-family="Helvetica,sans-Serif" font-size="10.00">x</text>
<text text-anchor="middle" x="102" y="-834.85" font-family="Helvetica,sans-Serif" font-size="10.00">y</text>
</g>
<!-- Node13 -->
<g id="node13" class="node">
<title>Node13</title>
<g id="a_node13"><a xlink:title=" ">
<polygon fill="none" stroke="#bfbfbf" points="409.5,-401.35 409.5,-420.35 459.5,-420.35 459.5,-401.35 409.5,-401.35"/>
<text text-anchor="middle" x="434.5" y="-408.35" font-family="Helvetica,sans-Serif" font-size="10.00">int32_t</text>
</a>
</g>
</g>
<!-- Node13&#45;&gt;Node2 -->
<g id="edge21" class="edge">
<title>Node13&#45;&gt;Node2</title>
<path fill="none" stroke="#9a32cd" stroke-dasharray="5,2" d="M469.99,-413.72C516.1,-417.56 597.29,-424.31 642.76,-428.09"/>
<polygon fill="#9a32cd" stroke="#9a32cd" points="470.14,-410.22 459.88,-412.88 469.56,-417.2 470.14,-410.22"/>
<text text-anchor="middle" x="569" y="-428.85" font-family="Helvetica,sans-Serif" font-size="10.00"> graphics_colour</text>
</g>
<!-- Node14&#45;&gt;Node2 -->
<g id="edge22" class="edge">
<title>Node14&#45;&gt;Node2</title>
<path fill="none" stroke="#9a32cd" stroke-dasharray="5,2" d="M245.56,-398.45C279.43,-408.58 329.42,-422.33 374,-429.85 435.11,-440.17 451.08,-438.41 513,-440.85 562.74,-442.82 575.46,-445.66 625,-440.85 630.84,-440.29 637,-439.36 642.94,-438.3"/>
<polygon fill="#9a32cd" stroke="#9a32cd" points="246.18,-394.98 235.59,-395.43 244.15,-401.68 246.18,-394.98"/>
<text text-anchor="middle" x="434.5" y="-453.85" font-family="Helvetica,sans-Serif" font-size="10.00"> double_variables</text>
<text text-anchor="middle" x="434.5" y="-442.85" font-family="Helvetica,sans-Serif" font-size="10.00">local_double_variables</text>
</g>
<!-- Node14&#45;&gt;Node14 -->
<g id="edge25" class="edge">
<title>Node14&#45;&gt;Node14</title>
<path fill="none" stroke="#9a32cd" stroke-dasharray="5,2" d="M185.61,-405.25C186.87,-410.17 193.17,-413.85 204.5,-413.85 222.63,-413.85 227.87,-404.42 220.22,-395.61"/>
<polygon fill="#9a32cd" stroke="#9a32cd" points="188.98,-406.2 188.78,-395.61 182.33,-404.02 188.98,-406.2"/>
<text text-anchor="middle" x="204.5" y="-416.85" font-family="Helvetica,sans-Serif" font-size="10.00"> next</text>
</g>
<!-- Node15 -->
<g id="node15" class="node">
<title>Node15</title>
<g id="a_node15"><a xlink:title=" ">
<polygon fill="none" stroke="#bfbfbf" points="0,-134.35 0,-153.35 50,-153.35 50,-134.35 0,-134.35"/>
<text text-anchor="middle" x="25" y="-141.35" font-family="Helvetica,sans-Serif" font-size="10.00">double</text>
</a>
</g>
</g>
<!-- Node15&#45;&gt;Node14 -->
<g id="edge23" class="edge">
<title>Node15&#45;&gt;Node14</title>
<path fill="none" stroke="#9a32cd" stroke-dasharray="5,2" d="M60.33,-133.25C84.59,-128.09 116.18,-126.41 136,-144.85 172.23,-178.57 124.34,-327.23 154,-366.85 156.87,-370.69 160.61,-373.74 164.76,-376.19"/>
<polygon fill="#9a32cd" stroke="#9a32cd" points="59.34,-129.89 50.44,-135.63 60.98,-136.7 59.34,-129.89"/>
<text text-anchor="middle" x="102" y="-147.85" font-family="Helvetica,sans-Serif" font-size="10.00"> value</text>
</g>
<!-- Node16 -->
<g id="node16" class="node">
<title>Node16</title>
<g id="a_node16"><a xlink:title=" ">
<polygon fill="none" stroke="#bfbfbf" points="420,-316.35 420,-335.35 449,-335.35 449,-316.35 420,-316.35"/>
<text text-anchor="middle" x="434.5" y="-323.35" font-family="Helvetica,sans-Serif" font-size="10.00">int</text>
</a>
</g>
</g>
<!-- Node16&#45;&gt;Node2 -->
<g id="edge27" class="edge">
<title>Node16&#45;&gt;Node2</title>
<path fill="none" stroke="#9a32cd" stroke-dasharray="5,2" d="M459.06,-321.57C503.63,-313.99 598.23,-300.57 625,-317.85 661.52,-341.44 672.16,-398.16 675.02,-421.04"/>
<polygon fill="#9a32cd" stroke="#9a32cd" points="458.37,-318.14 449.12,-323.31 459.57,-325.03 458.37,-318.14"/>
<text text-anchor="middle" x="569" y="-375.85" font-family="Helvetica,sans-Serif" font-size="10.00"> bracket_depth</text>
<text text-anchor="middle" x="569" y="-364.85" font-family="Helvetica,sans-Serif" font-size="10.00">current_token</text>
<text text-anchor="middle" x="569" y="-353.85" font-family="Helvetica,sans-Serif" font-size="10.00">ended</text>
<text text-anchor="middle" x="569" y="-342.85" font-family="Helvetica,sans-Serif" font-size="10.00">errored</text>
<text text-anchor="middle" x="569" y="-331.85" font-family="Helvetica,sans-Serif" font-size="10.00">gosub_stack</text>
<text text-anchor="middle" x="569" y="-320.85" font-family="Helvetica,sans-Serif" font-size="10.00">oldlen</text>
</g>
<!-- Node17 -->
<g id="node17" class="node">
<title>Node17</title>
<g id="a_node17"><a xlink:title=" ">
<polygon fill="none" stroke="#bfbfbf" points="374,-278.35 374,-297.35 495,-297.35 495,-278.35 374,-278.35"/>
<text text-anchor="middle" x="434.5" y="-285.35" font-family="Helvetica,sans-Serif" font-size="10.00">enum ub_return_type</text>
</a>
</g>
</g>
<!-- Node17&#45;&gt;Node2 -->
<g id="edge28" class="edge">
<title>Node17&#45;&gt;Node2</title>
<path fill="none" stroke="#9a32cd" stroke-dasharray="5,2" d="M480.1,-276.26C521.59,-268.25 583.14,-263.78 625,-293.85 667.66,-324.51 674.68,-395.16 675.8,-421.09"/>
<polygon fill="#9a32cd" stroke="#9a32cd" points="479.35,-272.84 470.27,-278.3 480.77,-279.69 479.35,-272.84"/>
<text text-anchor="middle" x="569" y="-296.85" font-family="Helvetica,sans-Serif" font-size="10.00"> fn_type</text>
</g>
<!-- Node18&#45;&gt;Node2 -->
<g id="edge29" class="edge">
<title>Node18&#45;&gt;Node2</title>
<path fill="none" stroke="#9a32cd" stroke-dasharray="5,2" d="M493.78,-502.99C532.41,-498.72 583.44,-489.73 625,-470.85 641.39,-463.41 657.22,-449.64 666.78,-440.37"/>
<polygon fill="#9a32cd" stroke="#9a32cd" points="493.32,-499.51 483.73,-504.02 494.04,-506.48 493.32,-499.51"/>
<text text-anchor="middle" x="569" y="-502.85" font-family="Helvetica,sans-Serif" font-size="10.00"> int_array_variables</text>
</g>
<!-- Node19&#45;&gt;Node2 -->
<g id="edge33" class="edge">
<title>Node19&#45;&gt;Node2</title>
<path fill="none" stroke="#9a32cd" stroke-dasharray="5,2" d="M490.28,-135.57C532.93,-138.41 590.5,-149.48 625,-185.85 658.26,-220.92 672.23,-380.11 675.32,-421.17"/>
<polygon fill="#9a32cd" stroke="#9a32cd" points="490.23,-132.06 480.06,-135.03 489.86,-139.05 490.23,-132.06"/>
<text text-anchor="middle" x="569" y="-188.85" font-family="Helvetica,sans-Serif" font-size="10.00"> defs</text>
</g>
<!-- Node19&#45;&gt;Node19 -->
<g id="edge37" class="edge">
<title>Node19&#45;&gt;Node19</title>
<path fill="none" stroke="#9a32cd" stroke-dasharray="5,2" d="M412.18,-154.88C413.4,-159.98 420.84,-163.85 434.5,-163.85 455.83,-163.85 461.99,-154.42 453,-145.61"/>
<polygon fill="#9a32cd" stroke="#9a32cd" points="415.43,-156.19 416,-145.61 408.95,-153.52 415.43,-156.19"/>
<text text-anchor="middle" x="434.5" y="-166.85" font-family="Helvetica,sans-Serif" font-size="10.00"> next</text>
</g>
<!-- Node20 -->
<g id="node20" class="node">
<title>Node20</title>
<g id="a_node20"><a xlink:title=" ">
<polygon fill="none" stroke="#bfbfbf" points="154,-126.35 154,-145.35 255,-145.35 255,-126.35 154,-126.35"/>
<text text-anchor="middle" x="204.5" y="-133.35" font-family="Helvetica,sans-Serif" font-size="10.00">enum ub_fn_type</text>
</a>
</g>
</g>
<!-- Node20&#45;&gt;Node19 -->
<g id="edge34" class="edge">
<title>Node20&#45;&gt;Node19</title>
<path fill="none" stroke="#9a32cd" stroke-dasharray="5,2" d="M265.35,-135.85C304.06,-135.85 353.61,-135.85 388.87,-135.85"/>
<polygon fill="#9a32cd" stroke="#9a32cd" points="265.25,-132.35 255.25,-135.85 265.25,-139.35 265.25,-132.35"/>
<text text-anchor="middle" x="314.5" y="-138.85" font-family="Helvetica,sans-Serif" font-size="10.00"> type</text>
</g>
<!-- Node21&#45;&gt;Node2 -->
<g id="edge46" class="edge">
<title>Node21&#45;&gt;Node2</title>
<path fill="none" stroke="#9a32cd" stroke-dasharray="5,2" d="M236.46,-332.32C247.78,-336.84 260.81,-341.56 273,-344.85 369.49,-370.96 397.06,-360.89 495,-380.85 553.3,-392.74 567.99,-395.82 625,-412.85 633.37,-415.35 642.39,-418.41 650.48,-421.29"/>
<polygon fill="#9a32cd" stroke="#9a32cd" points="237.59,-329 227.01,-328.45 234.93,-335.48 237.59,-329"/>
<text text-anchor="middle" x="434.5" y="-383.85" font-family="Helvetica,sans-Serif" font-size="10.00"> param</text>
</g>
<!-- Node21&#45;&gt;Node19 -->
<g id="edge38" class="edge">
<title>Node21&#45;&gt;Node19</title>
<path fill="none" stroke="#9a32cd" stroke-dasharray="5,2" d="M247.08,-327.88C280.83,-332.57 327.36,-332.65 356,-305.85 394.42,-269.91 348.87,-235.08 374,-188.85 384.17,-170.14 403.64,-154.76 417.54,-145.48"/>
<polygon fill="#9a32cd" stroke="#9a32cd" points="247.48,-324.4 237.05,-326.3 246.39,-331.31 247.48,-324.4"/>
<text text-anchor="middle" x="314.5" y="-332.85" font-family="Helvetica,sans-Serif" font-size="10.00"> params</text>
</g>
<!-- Node21&#45;&gt;Node21 -->
<g id="edge40" class="edge">
<title>Node21&#45;&gt;Node21</title>
<path fill="none" stroke="#9a32cd" stroke-dasharray="5,2" d="M185.61,-338.25C186.87,-343.17 193.17,-346.85 204.5,-346.85 222.63,-346.85 227.87,-337.42 220.22,-328.61"/>
<polygon fill="#9a32cd" stroke="#9a32cd" points="188.98,-339.2 188.78,-328.61 182.33,-337.02 188.98,-339.2"/>
<text text-anchor="middle" x="204.5" y="-349.85" font-family="Helvetica,sans-Serif" font-size="10.00"> next</text>
</g>
<!-- Node22 -->
<g id="node22" class="node">
<title>Node22</title>
<g id="a_node22"><a xlink:title=" ">
<polygon fill="none" stroke="#bfbfbf" points="411.5,-88.35 411.5,-107.35 457.5,-107.35 457.5,-88.35 411.5,-88.35"/>
<text text-anchor="middle" x="434.5" y="-95.35" font-family="Helvetica,sans-Serif" font-size="10.00">void *</text>
</a>
</g>
</g>
<!-- Node22&#45;&gt;Node2 -->
<g id="edge42" class="edge">
<title>Node22&#45;&gt;Node2</title>
<path fill="none" stroke="#9a32cd" stroke-dasharray="5,2" d="M467.76,-91.67C509.91,-85.62 583.23,-82.44 625,-122.85 669.11,-165.54 675.09,-373.8 675.88,-421.23"/>
<polygon fill="#9a32cd" stroke="#9a32cd" points="467.09,-88.23 457.76,-93.24 468.18,-95.14 467.09,-88.23"/>
<text text-anchor="middle" x="569" y="-125.85" font-family="Helvetica,sans-Serif" font-size="10.00"> fn_return</text>
</g>
<!-- Node23&#45;&gt;Node2 -->
<g id="edge43" class="edge">
<title>Node23&#45;&gt;Node2</title>
<path fill="none" stroke="#9a32cd" stroke-dasharray="5,2" d="M244.82,-219.94C337.95,-209.2 568.45,-188.25 625,-235.85 654.18,-260.42 670.65,-384.55 674.89,-420.86"/>
<polygon fill="#9a32cd" stroke="#9a32cd" points="244.2,-216.49 234.68,-221.13 245.02,-223.44 244.2,-216.49"/>
<text text-anchor="middle" x="434.5" y="-210.85" font-family="Helvetica,sans-Serif" font-size="10.00"> for_stack</text>
</g>
</g>
</svg>
