<?xml version="1.0" encoding="UTF-8" standalone="no"?>
<!DOCTYPE svg PUBLIC "-//W3C//DTD SVG 1.1//EN"
 "http://www.w3.org/Graphics/SVG/1.1/DTD/svg11.dtd">
<!-- Generated by graphviz version 2.43.0 (0)
 -->
<!-- Title: fs_handle_t Pages: 1 -->
<!--zoomable 254 -->
<svg id="main" version="1.1" xmlns="http://www.w3.org/2000/svg" xmlns:xlink="http://www.w3.org/1999/xlink" xml:space="preserve" onload="init(evt)">
<style type="text/css"><![CDATA[
.edge:hover path { stroke: red; }
.edge:hover polygon { stroke: red; fill: red; }
]]></style>
<script type="text/javascript"><![CDATA[
var edges = document.getElementsByTagName('g');
if (edges && edges.length) {
  for (var i=0;i<edges.length;i++) {
    if (edges[i].id.substr(0,4)=='edge') {
      edges[i].setAttribute('class','edge');
    }
  }
}
]]></script>
        <defs>
                <circle id="rim" cx="0" cy="0" r="7"/>
                <circle id="rim2" cx="0" cy="0" r="3.5"/>
                <g id="zoomPlus">
                        <use xlink:href="#rim" fill="#404040">
                                <set attributeName="fill" to="#808080" begin="zoomplus.mouseover" end="zoomplus.mouseout"/>
                        </use>
                        <path d="M-4,0h8M0,-4v8" fill="none" stroke="white" stroke-width="1.5" pointer-events="none"/>
                </g>
                <g id="zoomMin">
                        <use xlink:href="#rim" fill="#404040">
                                <set attributeName="fill" to="#808080" begin="zoomminus.mouseover" end="zoomminus.mouseout"/>
                        </use>
                        <path d="M-4,0h8" fill="none" stroke="white" stroke-width="1.5" pointer-events="none"/>
                </g>
                <g id="dirArrow">
                        <path fill="none" stroke="white" stroke-width="1.5" d="M0,-3.0v7 M-2.5,-0.5L0,-3.0L2.5,-0.5"/>
                </g>
               <g id="resetDef">
                       <use xlink:href="#rim2" fill="#404040">
                               <set attributeName="fill" to="#808080" begin="reset.mouseover" end="reset.mouseout"/>
                       </use>
               </g>
        </defs>

<script type="text/javascript">
var viewWidth = 988;
var viewHeight = 254;
var sectionId = 'dynsection-0';
</script>
<script xlink:href="svgpan.js"/>
<svg id="graph" class="graph">
<g id="viewport">
<title>fs_handle_t</title>
<!-- Node1 -->
<g id="node1" class="node">
<title>Node1</title>
<g id="a_node1"><a xlink:title="The data for an open file descriptor.">
<polygon fill="#bfbfbf" stroke="black" points="349.5,-7 349.5,-26 422.5,-26 422.5,-7 349.5,-7"/>
<text text-anchor="middle" x="386" y="-14" font-family="Helvetica,sans-Serif" font-size="10.00">fs_handle_t</text>
</a>
</g>
</g>
<!-- Node2 -->
<g id="node2" class="node">
<title>Node2</title>
<g id="a_node2"><a xlink:title=" ">
<polygon fill="none" stroke="black" points="0,-98 0,-117 100,-117 100,-98 0,-98"/>
<text text-anchor="middle" x="50" y="-105" font-family="Helvetica,sans-Serif" font-size="10.00">fs_handle_type_t</text>
</a>
</g>
</g>
<!-- Node2&#45;&gt;Node1 -->
<g id="edge1" class="edge">
<title>Node2&#45;&gt;Node1</title>
<path fill="none" stroke="#9a32cd" stroke-dasharray="5,2" d="M59.74,-89.13C67.92,-76.31 80.86,-59.65 97,-51 139.85,-28.04 281.67,-20.67 349.39,-18.42"/>
<polygon fill="#9a32cd" stroke="#9a32cd" points="56.57,-87.61 54.43,-97.99 62.57,-91.21 56.57,-87.61"/>
<text text-anchor="middle" x="109.5" y="-54" font-family="Helvetica,sans-Serif" font-size="10.00"> type</text>
</g>
<!-- Node3 -->
<g id="node3" class="node">
<title>Node3</title>
<g id="a_node3"><a xlink:title=" ">
<polygon fill="none" stroke="black" points="401,-226.5 401,-245.5 439,-245.5 439,-226.5 401,-226.5"/>
<text text-anchor="middle" x="420" y="-233.5" font-family="Helvetica,sans-Serif" font-size="10.00">char</text>
</a>
</g>
</g>
<!-- Node3&#45;&gt;Node1 -->
<g id="edge2" class="edge">
<title>Node3&#45;&gt;Node1</title>
<path fill="none" stroke="#9a32cd" stroke-dasharray="5,2" d="M415.86,-216.56C411.47,-196.56 404.56,-163.63 400,-135 393.54,-94.42 388.63,-45.53 386.79,-26.08"/>
<polygon fill="#9a32cd" stroke="#9a32cd" points="412.48,-217.48 418.06,-226.48 419.31,-215.96 412.48,-217.48"/>
<text text-anchor="middle" x="416" y="-110.5" font-family="Helvetica,sans-Serif" font-size="10.00"> inbuf</text>
<text text-anchor="middle" x="416" y="-99.5" font-family="Helvetica,sans-Serif" font-size="10.00">outbuf</text>
</g>
<!-- Node5 -->
<g id="node5" class="node">
<title>Node5</title>
<g id="a_node5"><a xlink:href="structfs__directory__entry__t.html" target="_top" xlink:title="A VFS directory entry. Files AND directories have these, but internally there is also a tree of fs_tr...">
<polygon fill="none" stroke="black" points="765,-98 765,-117 879,-117 879,-98 765,-98"/>
<text text-anchor="middle" x="822" y="-105" font-family="Helvetica,sans-Serif" font-size="10.00">fs_directory_entry_t</text>
</a>
</g>
</g>
<!-- Node3&#45;&gt;Node5 -->
<g id="edge5" class="edge">
<title>Node3&#45;&gt;Node5</title>
<path fill="none" stroke="#9a32cd" stroke-dasharray="5,2" d="M448.07,-221.42C453.87,-217.67 459.56,-213.18 464,-208 481.24,-187.88 465.46,-168.43 487,-153 534.81,-118.77 693.52,-147.41 751,-135 769.39,-131.03 789.39,-123.23 803.46,-117.11"/>
<polygon fill="#9a32cd" stroke="#9a32cd" points="445.89,-218.63 439.02,-226.69 449.42,-224.68 445.89,-218.63"/>
<text text-anchor="middle" x="520" y="-189" font-family="Helvetica,sans-Serif" font-size="10.00"> alt_filename</text>
<text text-anchor="middle" x="520" y="-178" font-family="Helvetica,sans-Serif" font-size="10.00">device_name</text>
<text text-anchor="middle" x="520" y="-167" font-family="Helvetica,sans-Serif" font-size="10.00">filename</text>
</g>
<!-- Node9 -->
<g id="node9" class="node">
<title>Node9</title>
<g id="a_node9"><a xlink:href="structfs__tree__t.html" target="_top" xlink:title="Used internally by filesystem.c to cache directories to RAM.">
<polygon fill="none" stroke="black" points="681.5,-7 681.5,-26 740.5,-26 740.5,-7 681.5,-7"/>
<text text-anchor="middle" x="711" y="-14" font-family="Helvetica,sans-Serif" font-size="10.00">fs_tree_t</text>
</a>
</g>
</g>
<!-- Node3&#45;&gt;Node9 -->
<g id="edge12" class="edge">
<title>Node3&#45;&gt;Node9</title>
<path fill="none" stroke="#9a32cd" stroke-dasharray="5,2" d="M422.94,-216.48C429.28,-177.51 444.45,-89.77 454,-80 485.62,-47.66 620.76,-28.08 681.38,-20.78"/>
<polygon fill="#9a32cd" stroke="#9a32cd" points="419.46,-216.05 421.33,-226.48 426.37,-217.16 419.46,-216.05"/>
<text text-anchor="middle" x="488.5" y="-110.5" font-family="Helvetica,sans-Serif" font-size="10.00"> device_name</text>
<text text-anchor="middle" x="488.5" y="-99.5" font-family="Helvetica,sans-Serif" font-size="10.00">name</text>
</g>
<!-- Node10 -->
<g id="node10" class="node">
<title>Node10</title>
<g id="a_node10"><a xlink:href="structfilesystem__t.html" target="_top" xlink:title="Defines a filesystem driver.">
<polygon fill="none" stroke="black" points="229.5,-98 229.5,-117 306.5,-117 306.5,-98 229.5,-98"/>
<text text-anchor="middle" x="268" y="-105" font-family="Helvetica,sans-Serif" font-size="10.00">filesystem_t</text>
</a>
</g>
</g>
<!-- Node3&#45;&gt;Node10 -->
<g id="edge16" class="edge">
<title>Node3&#45;&gt;Node10</title>
<path fill="none" stroke="#9a32cd" stroke-dasharray="5,2" d="M391.35,-226.53C381.04,-222.32 369.99,-216.31 362,-208 343.64,-188.9 356.14,-173.21 339,-153 325.26,-136.8 304.1,-124.61 288.45,-117.12"/>
<polygon fill="#9a32cd" stroke="#9a32cd" points="390.3,-229.87 400.89,-230.03 392.71,-223.3 390.3,-229.87"/>
<text text-anchor="middle" x="377.5" y="-178" font-family="Helvetica,sans-Serif" font-size="10.00"> name</text>
</g>
<!-- Node4 -->
<g id="node4" class="node">
<title>Node4</title>
<g id="a_node4"><a xlink:title=" ">
<polygon fill="none" stroke="black" points="646,-226.5 646,-245.5 702,-245.5 702,-226.5 646,-226.5"/>
<text text-anchor="middle" x="674" y="-233.5" font-family="Helvetica,sans-Serif" font-size="10.00">uint64_t</text>
</a>
</g>
</g>
<!-- Node4&#45;&gt;Node1 -->
<g id="edge3" class="edge">
<title>Node4&#45;&gt;Node1</title>
<path fill="none" stroke="#9a32cd" stroke-dasharray="5,2" d="M667.2,-217.05C659.28,-198.48 644.49,-169.86 623,-153 602.77,-137.12 588.88,-150.01 568,-135 543.24,-117.2 550.83,-99.02 527,-80 493.62,-53.35 447.1,-35.65 416.77,-26.09"/>
<polygon fill="#9a32cd" stroke="#9a32cd" points="664,-218.46 670.98,-226.43 670.49,-215.85 664,-218.46"/>
<text text-anchor="middle" x="594" y="-127" font-family="Helvetica,sans-Serif" font-size="10.00"> inbufpos</text>
<text text-anchor="middle" x="594" y="-116" font-family="Helvetica,sans-Serif" font-size="10.00">inbufsize</text>
<text text-anchor="middle" x="594" y="-105" font-family="Helvetica,sans-Serif" font-size="10.00">outbufpos</text>
<text text-anchor="middle" x="594" y="-94" font-family="Helvetica,sans-Serif" font-size="10.00">outbufsize</text>
<text text-anchor="middle" x="594" y="-83" font-family="Helvetica,sans-Serif" font-size="10.00">seekpos</text>
</g>
<!-- Node4&#45;&gt;Node5 -->
<g id="edge8" class="edge">
<title>Node4&#45;&gt;Node5</title>
<path fill="none" stroke="#9a32cd" stroke-dasharray="5,2" d="M704.1,-221.48C710.49,-217.72 716.86,-213.21 722,-208 741.56,-188.18 732.98,-173.34 752,-153 766.66,-137.33 787.96,-124.82 803.22,-117.11"/>
<polygon fill="#9a32cd" stroke="#9a32cd" points="702.01,-218.64 694.85,-226.45 705.32,-224.8 702.01,-218.64"/>
<text text-anchor="middle" x="770" y="-183.5" font-family="Helvetica,sans-Serif" font-size="10.00"> lbapos</text>
<text text-anchor="middle" x="770" y="-172.5" font-family="Helvetica,sans-Serif" font-size="10.00">size</text>
</g>
<!-- Node4&#45;&gt;Node9 -->
<g id="edge22" class="edge">
<title>Node4&#45;&gt;Node9</title>
<path fill="none" stroke="#9a32cd" stroke-dasharray="5,2" d="M677.17,-216.39C684.81,-171.47 704.04,-58.44 709.52,-26.2"/>
<polygon fill="#9a32cd" stroke="#9a32cd" points="673.68,-216.03 675.45,-226.47 680.58,-217.2 673.68,-216.03"/>
<text text-anchor="middle" x="719" y="-116" font-family="Helvetica,sans-Serif" font-size="10.00"> device</text>
<text text-anchor="middle" x="719" y="-105" font-family="Helvetica,sans-Serif" font-size="10.00">lbapos</text>
<text text-anchor="middle" x="719" y="-94" font-family="Helvetica,sans-Serif" font-size="10.00">size</text>
</g>
<!-- Node4&#45;&gt;Node10 -->
<g id="edge20" class="edge">
<title>Node4&#45;&gt;Node10</title>
<path fill="none" stroke="#9a32cd" stroke-dasharray="5,2" d="M635.96,-232.42C616.06,-229.28 592.47,-222.5 576,-208 556.11,-190.49 574.33,-168.71 553,-153 519.03,-127.98 405.49,-142.64 364,-135 340.02,-130.58 313.34,-122.99 294.2,-117.07"/>
<polygon fill="#9a32cd" stroke="#9a32cd" points="635.61,-235.91 645.98,-233.76 636.53,-228.97 635.61,-235.91"/>
<text text-anchor="middle" x="599.5" y="-183.5" font-family="Helvetica,sans-Serif" font-size="10.00"> createdir</text>
<text text-anchor="middle" x="599.5" y="-172.5" font-family="Helvetica,sans-Serif" font-size="10.00">createfile</text>
</g>
<!-- Node5&#45;&gt;Node1 -->
<g id="edge4" class="edge">
<title>Node5&#45;&gt;Node1</title>
<path fill="none" stroke="#9a32cd" stroke-dasharray="5,2" d="M798.35,-92.85C774.57,-79.8 736.45,-60.74 701,-51 602.89,-24.06 482.08,-18.56 422.61,-17.58"/>
<polygon fill="#9a32cd" stroke="#9a32cd" points="796.88,-96.03 807.32,-97.85 800.29,-89.92 796.88,-96.03"/>
<text text-anchor="middle" x="742.5" y="-54" font-family="Helvetica,sans-Serif" font-size="10.00"> file</text>
</g>
<!-- Node5&#45;&gt;Node5 -->
<g id="edge24" class="edge">
<title>Node5&#45;&gt;Node5</title>
<path fill="none" stroke="#9a32cd" stroke-dasharray="5,2" d="M889.08,-114.44C893.99,-112.88 897,-110.57 897,-107.5 897,-102.71 889.67,-99.76 879.23,-98.64"/>
<polygon fill="#9a32cd" stroke="#9a32cd" points="888.37,-111.01 879.23,-116.36 889.71,-117.89 888.37,-111.01"/>
<text text-anchor="middle" x="909.5" y="-105" font-family="Helvetica,sans-Serif" font-size="10.00"> next</text>
</g>
<!-- Node5&#45;&gt;Node9 -->
<g id="edge14" class="edge">
<title>Node5&#45;&gt;Node9</title>
<path fill="none" stroke="#9a32cd" stroke-dasharray="5,2" d="M829.58,-87.95C833.04,-76.25 834.84,-61.42 827,-51 807.22,-24.7 768.07,-18.06 740.75,-16.85"/>
<polygon fill="#9a32cd" stroke="#9a32cd" points="826.19,-87.02 826.16,-97.61 832.79,-89.35 826.19,-87.02"/>
<text text-anchor="middle" x="844" y="-54" font-family="Helvetica,sans-Serif" font-size="10.00"> files</text>
</g>
<!-- Node6 -->
<g id="node6" class="node">
<title>Node6</title>
<g id="a_node6"><a xlink:title=" ">
<polygon fill="none" stroke="black" points="759,-226.5 759,-245.5 815,-245.5 815,-226.5 759,-226.5"/>
<text text-anchor="middle" x="787" y="-233.5" font-family="Helvetica,sans-Serif" font-size="10.00">uint16_t</text>
</a>
</g>
</g>
<!-- Node6&#45;&gt;Node5 -->
<g id="edge6" class="edge">
<title>Node6&#45;&gt;Node5</title>
<path fill="none" stroke="#9a32cd" stroke-dasharray="5,2" d="M790.31,-216.15C793.45,-199.4 798.62,-174.33 805,-153 808.79,-140.32 814.48,-126.11 818.22,-117.23"/>
<polygon fill="#9a32cd" stroke="#9a32cd" points="786.82,-215.81 788.47,-226.27 793.7,-217.06 786.82,-215.81"/>
<text text-anchor="middle" x="817.5" y="-178" font-family="Helvetica,sans-Serif" font-size="10.00"> year</text>
</g>
<!-- Node7 -->
<g id="node7" class="node">
<title>Node7</title>
<g id="a_node7"><a xlink:title=" ">
<polygon fill="none" stroke="black" points="924,-226.5 924,-245.5 974,-245.5 974,-226.5 924,-226.5"/>
<text text-anchor="middle" x="949" y="-233.5" font-family="Helvetica,sans-Serif" font-size="10.00">uint8_t</text>
</a>
</g>
</g>
<!-- Node7&#45;&gt;Node5 -->
<g id="edge7" class="edge">
<title>Node7&#45;&gt;Node5</title>
<path fill="none" stroke="#9a32cd" stroke-dasharray="5,2" d="M924.97,-220.43C920.24,-216.8 915.63,-212.6 912,-208 895.58,-187.2 905.87,-173.43 889,-153 875.84,-137.07 855.5,-124.68 840.69,-117.07"/>
<polygon fill="#9a32cd" stroke="#9a32cd" points="923.21,-223.47 933.4,-226.34 927.22,-217.74 923.21,-223.47"/>
<text text-anchor="middle" x="928" y="-200" font-family="Helvetica,sans-Serif" font-size="10.00"> day</text>
<text text-anchor="middle" x="928" y="-189" font-family="Helvetica,sans-Serif" font-size="10.00">hour</text>
<text text-anchor="middle" x="928" y="-178" font-family="Helvetica,sans-Serif" font-size="10.00">min</text>
<text text-anchor="middle" x="928" y="-167" font-family="Helvetica,sans-Serif" font-size="10.00">month</text>
<text text-anchor="middle" x="928" y="-156" font-family="Helvetica,sans-Serif" font-size="10.00">sec</text>
</g>
<!-- Node7&#45;&gt;Node9 -->
<g id="edge11" class="edge">
<title>Node7&#45;&gt;Node9</title>
<path fill="none" stroke="#9a32cd" stroke-dasharray="5,2" d="M952.65,-216.35C957.72,-184.58 963,-119.6 931,-80 907.04,-50.35 795.27,-30.02 740.88,-21.71"/>
<polygon fill="#9a32cd" stroke="#9a32cd" points="949.16,-215.98 950.86,-226.44 956.05,-217.2 949.16,-215.98"/>
<text text-anchor="middle" x="967" y="-105" font-family="Helvetica,sans-Serif" font-size="10.00"> dirty</text>
</g>
<!-- Node8 -->
<g id="node8" class="node">
<title>Node8</title>
<g id="a_node8"><a xlink:title=" ">
<polygon fill="none" stroke="black" points="833,-226.5 833,-245.5 889,-245.5 889,-226.5 833,-226.5"/>
<text text-anchor="middle" x="861" y="-233.5" font-family="Helvetica,sans-Serif" font-size="10.00">uint32_t</text>
</a>
</g>
</g>
<!-- Node8&#45;&gt;Node5 -->
<g id="edge9" class="edge">
<title>Node8&#45;&gt;Node5</title>
<path fill="none" stroke="#9a32cd" stroke-dasharray="5,2" d="M855.35,-216.67C846.83,-189.03 831.01,-137.72 824.7,-117.26"/>
<polygon fill="#9a32cd" stroke="#9a32cd" points="852.03,-217.78 858.32,-226.31 858.72,-215.72 852.03,-217.78"/>
<text text-anchor="middle" x="871" y="-183.5" font-family="Helvetica,sans-Serif" font-size="10.00"> device</text>
<text text-anchor="middle" x="871" y="-172.5" font-family="Helvetica,sans-Serif" font-size="10.00">flags</text>
</g>
<!-- Node9&#45;&gt;Node5 -->
<g id="edge10" class="edge">
<title>Node9&#45;&gt;Node5</title>
<path fill="none" stroke="#9a32cd" stroke-dasharray="5,2" d="M735.17,-31.37C744.46,-37.06 755,-43.96 764,-51 783.1,-65.94 803.03,-86.21 813.84,-97.66"/>
<polygon fill="#9a32cd" stroke="#9a32cd" points="736.77,-28.25 726.39,-26.12 733.18,-34.26 736.77,-28.25"/>
<text text-anchor="middle" x="799.5" y="-54" font-family="Helvetica,sans-Serif" font-size="10.00"> directory</text>
</g>
<!-- Node9&#45;&gt;Node9 -->
<g id="edge13" class="edge">
<title>Node9&#45;&gt;Node9</title>
<path fill="none" stroke="#9a32cd" stroke-dasharray="5,2" d="M750.67,-22.95C755.41,-21.77 758.5,-19.62 758.5,-16.5 758.5,-11.5 750.58,-9 740.69,-9"/>
<polygon fill="#9a32cd" stroke="#9a32cd" points="750.26,-19.47 740.69,-24 751,-26.43 750.26,-19.47"/>
<text text-anchor="middle" x="783.5" y="-25" font-family="Helvetica,sans-Serif" font-size="10.00"> child_dirs</text>
<text text-anchor="middle" x="783.5" y="-14" font-family="Helvetica,sans-Serif" font-size="10.00">next</text>
<text text-anchor="middle" x="783.5" y="-3" font-family="Helvetica,sans-Serif" font-size="10.00">parent</text>
</g>
<!-- Node10&#45;&gt;Node9 -->
<g id="edge15" class="edge">
<title>Node10&#45;&gt;Node9</title>
<path fill="none" stroke="#9a32cd" stroke-dasharray="5,2" d="M284.39,-90.85C299.21,-77.73 322.29,-59.79 346,-51 407.38,-28.25 605.87,-20.43 681.43,-18.24"/>
<polygon fill="#9a32cd" stroke="#9a32cd" points="281.69,-88.57 276.67,-97.9 286.42,-93.74 281.69,-88.57"/>
<text text-anchor="middle" x="393" y="-54" font-family="Helvetica,sans-Serif" font-size="10.00"> responsible_driver</text>
</g>
<!-- Node10&#45;&gt;Node10 -->
<g id="edge21" class="edge">
<title>Node10&#45;&gt;Node10</title>
<path fill="none" stroke="#9a32cd" stroke-dasharray="5,2" d="M316.72,-115.11C321.48,-113.58 324.5,-111.04 324.5,-107.5 324.5,-101.84 316.77,-98.74 306.56,-98.21"/>
<polygon fill="#9a32cd" stroke="#9a32cd" points="315.85,-111.71 306.56,-116.79 316.99,-118.61 315.85,-111.71"/>
<text text-anchor="middle" x="337" y="-105" font-family="Helvetica,sans-Serif" font-size="10.00"> next</text>
</g>
<!-- Node11 -->
<g id="node11" class="node">
<title>Node11</title>
<g id="a_node11"><a xlink:title=" ">
<polygon fill="none" stroke="black" points="222.5,-226.5 222.5,-245.5 251.5,-245.5 251.5,-226.5 222.5,-226.5"/>
<text text-anchor="middle" x="237" y="-233.5" font-family="Helvetica,sans-Serif" font-size="10.00">int</text>
</a>
</g>
</g>
<!-- Node11&#45;&gt;Node10 -->
<g id="edge17" class="edge">
<title>Node11&#45;&gt;Node10</title>
<path fill="none" stroke="#9a32cd" stroke-dasharray="5,2" d="M238.38,-216.07C239.92,-199.26 243.04,-174.15 249,-153 252.64,-140.06 259.15,-125.91 263.52,-117.12"/>
<polygon fill="#9a32cd" stroke="#9a32cd" points="234.87,-215.97 237.54,-226.23 241.85,-216.55 234.87,-215.97"/>
<text text-anchor="middle" x="266.5" y="-178" font-family="Helvetica,sans-Serif" font-size="10.00"> mount</text>
</g>
<!-- Node12 -->
<g id="node12" class="node">
<title>Node12</title>
<g id="a_node12"><a xlink:title=" ">
<polygon fill="none" stroke="black" points="269.5,-226.5 269.5,-245.5 364.5,-245.5 364.5,-226.5 269.5,-226.5"/>
<text text-anchor="middle" x="317" y="-233.5" font-family="Helvetica,sans-Serif" font-size="10.00">void *(*)(void *)</text>
</a>
</g>
</g>
<!-- Node12&#45;&gt;Node10 -->
<g id="edge18" class="edge">
<title>Node12&#45;&gt;Node10</title>
<path fill="none" stroke="#9a32cd" stroke-dasharray="5,2" d="M309.9,-216.67C299.19,-189.03 279.32,-137.72 271.39,-117.26"/>
<polygon fill="#9a32cd" stroke="#9a32cd" points="306.76,-218.24 313.63,-226.31 313.28,-215.72 306.76,-218.24"/>
<text text-anchor="middle" x="323" y="-178" font-family="Helvetica,sans-Serif" font-size="10.00"> getdir</text>
</g>
<!-- Node13 -->
<g id="node13" class="node">
<title>Node13</title>
<g id="a_node13"><a xlink:title=" ">
<polygon fill="none" stroke="black" points="134,-226.5 134,-245.5 172,-245.5 172,-226.5 134,-226.5"/>
<text text-anchor="middle" x="153" y="-233.5" font-family="Helvetica,sans-Serif" font-size="10.00">bool</text>
</a>
</g>
</g>
<!-- Node13&#45;&gt;Node1 -->
<g id="edge25" class="edge">
<title>Node13&#45;&gt;Node1</title>
<path fill="none" stroke="#9a32cd" stroke-dasharray="5,2" d="M150.14,-216.25C146.3,-183.31 143.84,-115.2 182,-80 228.7,-36.93 304.38,-23.52 349.26,-19.36"/>
<polygon fill="#9a32cd" stroke="#9a32cd" points="146.7,-216.88 151.49,-226.32 153.63,-215.95 146.7,-216.88"/>
<text text-anchor="middle" x="201" y="-105" font-family="Helvetica,sans-Serif" font-size="10.00"> cached</text>
</g>
<!-- Node13&#45;&gt;Node10 -->
<g id="edge19" class="edge">
<title>Node13&#45;&gt;Node10</title>
<path fill="none" stroke="#9a32cd" stroke-dasharray="5,2" d="M155.04,-216.13C157.87,-198.07 164.53,-170.98 180,-153 195.18,-135.35 219.07,-123.89 238.13,-117.03"/>
<polygon fill="#9a32cd" stroke="#9a32cd" points="151.54,-215.91 153.7,-226.28 158.48,-216.82 151.54,-215.91"/>
<text text-anchor="middle" x="208" y="-200" font-family="Helvetica,sans-Serif" font-size="10.00"> readfile</text>
<text text-anchor="middle" x="208" y="-189" font-family="Helvetica,sans-Serif" font-size="10.00">rm</text>
<text text-anchor="middle" x="208" y="-178" font-family="Helvetica,sans-Serif" font-size="10.00">rmdir</text>
<text text-anchor="middle" x="208" y="-167" font-family="Helvetica,sans-Serif" font-size="10.00">truncatefile</text>
<text text-anchor="middle" x="208" y="-156" font-family="Helvetica,sans-Serif" font-size="10.00">writefile</text>
</g>
<!-- Node14 -->
<g id="node14" class="node">
<title>Node14</title>
<g id="a_node14"><a xlink:title=" ">
<polygon fill="none" stroke="black" points="629,-98 629,-117 675,-117 675,-98 629,-98"/>
<text text-anchor="middle" x="652" y="-105" font-family="Helvetica,sans-Serif" font-size="10.00">void *</text>
</a>
</g>
</g>
<!-- Node14&#45;&gt;Node9 -->
<g id="edge23" class="edge">
<title>Node14&#45;&gt;Node9</title>
<path fill="none" stroke="#9a32cd" stroke-dasharray="5,2" d="M649.66,-87.7C649.18,-76.29 650.3,-61.87 657,-51 664.07,-39.54 676.66,-31.4 687.91,-26.01"/>
<polygon fill="#9a32cd" stroke="#9a32cd" points="646.2,-88.21 650.54,-97.87 653.17,-87.61 646.2,-88.21"/>
<text text-anchor="middle" x="677" y="-54" font-family="Helvetica,sans-Serif" font-size="10.00"> opaque</text>
</g>
</g>
</svg>
        <g id="navigator" transform="translate(0 0)" fill="#404254">
                <rect fill="#f2f5e9" fill-opacity="0.5" stroke="#606060" stroke-width=".5" x="0" y="0" width="60" height="60"/>
                <use id="zoomplus" xlink:href="#zoomPlus" x="17" y="9" onmousedown="handleZoom(evt,'in')"/>
                <use id="zoomminus" xlink:href="#zoomMin" x="42" y="9" onmousedown="handleZoom(evt,'out')"/>
                <use id="reset" xlink:href="#resetDef" x="30" y="36" onmousedown="handleReset()"/>
                <g id="arrowUp" xlink:href="#dirArrow" transform="translate(30 24)" onmousedown="handlePan(0,-1)">
                  <use xlink:href="#rim" fill="#404040">
                        <set attributeName="fill" to="#808080" begin="arrowUp.mouseover" end="arrowUp.mouseout"/>
                  </use>
                  <path fill="none" stroke="white" stroke-width="1.5" d="M0,-3.0v7 M-2.5,-0.5L0,-3.0L2.5,-0.5"/>
                </g>
                <g id="arrowRight" xlink:href="#dirArrow" transform="rotate(90) translate(36 -43)" onmousedown="handlePan(1,0)">
                  <use xlink:href="#rim" fill="#404040">
                        <set attributeName="fill" to="#808080" begin="arrowRight.mouseover" end="arrowRight.mouseout"/>
                  </use>
                  <path fill="none" stroke="white" stroke-width="1.5" d="M0,-3.0v7 M-2.5,-0.5L0,-3.0L2.5,-0.5"/>
                </g>
                <g id="arrowDown" xlink:href="#dirArrow" transform="rotate(180) translate(-30 -48)" onmousedown="handlePan(0,1)">
                  <use xlink:href="#rim" fill="#404040">
                        <set attributeName="fill" to="#808080" begin="arrowDown.mouseover" end="arrowDown.mouseout"/>
                  </use>
                  <path fill="none" stroke="white" stroke-width="1.5" d="M0,-3.0v7 M-2.5,-0.5L0,-3.0L2.5,-0.5"/>
                </g>
                <g id="arrowLeft" xlink:href="#dirArrow" transform="rotate(270) translate(-36 17)" onmousedown="handlePan(-1,0)">
                  <use xlink:href="#rim" fill="#404040">
                        <set attributeName="fill" to="#808080" begin="arrowLeft.mouseover" end="arrowLeft.mouseout"/>
                  </use>
                  <path fill="none" stroke="white" stroke-width="1.5" d="M0,-3.0v7 M-2.5,-0.5L0,-3.0L2.5,-0.5"/>
                </g>
        </g>
        <svg viewBox="0 0 15 15" width="100%" height="30px" preserveAspectRatio="xMaxYMin meet">
         <g id="arrow_out" transform="scale(0.3 0.3)">
          <a xlink:href="structfs__handle__t__coll__graph_org.svg" target="_base">
           <rect id="button" ry="5" rx="5" y="6" x="6" height="38" width="38"
                fill="#f2f5e9" fill-opacity="0.5" stroke="#606060" stroke-width="1.0"/>
           <path id="arrow"
             d="M 11.500037,31.436501 C 11.940474,20.09759 22.043105,11.32322 32.158766,21.979434 L 37.068811,17.246167 C 37.068811,17.246167 37.088388,32 37.088388,32 L 22.160133,31.978069 C 22.160133,31.978069 26.997745,27.140456 26.997745,27.140456 C 18.528582,18.264221 13.291696,25.230495 11.500037,31.436501 z"
             style="fill:#404040;"/>
          </a>
         </g>
        </svg>
</svg>
