<?xml version="1.0" encoding="UTF-8" standalone="no"?>
<!DOCTYPE svg PUBLIC "-//W3C//DTD SVG 1.1//EN"
 "http://www.w3.org/Graphics/SVG/1.1/DTD/svg11.dtd">
<!-- Generated by graphviz version 2.43.0 (0)
 -->
<!-- Title: process Pages: 1 -->
<svg width="815pt" height="1129pt"
 viewBox="0.00 0.00 815.00 1129.00" xmlns="http://www.w3.org/2000/svg" xmlns:xlink="http://www.w3.org/1999/xlink">
<g id="graph0" class="graph" transform="scale(1 1) rotate(0) translate(4 1125)">
<title>process</title>
<!-- Node1 -->
<g id="node1" class="node">
<title>Node1</title>
<g id="a_node1"><a xlink:title=" ">
<polygon fill="#bfbfbf" stroke="black" points="753,-948.5 753,-967.5 807,-967.5 807,-948.5 753,-948.5"/>
<text text-anchor="middle" x="780" y="-955.5" font-family="Helvetica,sans-Serif" font-size="10.00">process</text>
</a>
</g>
</g>
<!-- Node1&#45;&gt;Node1 -->
<g id="edge55" class="edge">
<title>Node1&#45;&gt;Node1</title>
<path fill="none" stroke="#9a32cd" stroke-dasharray="5,2" d="M769.32,-977.77C770.16,-982.5 773.72,-986 780,-986 790.31,-986 793.29,-976.57 788.94,-967.76"/>
<polygon fill="#9a32cd" stroke="#9a32cd" points="772.79,-978.21 771.06,-967.76 765.9,-977.01 772.79,-978.21"/>
<text text-anchor="middle" x="780" y="-1000" font-family="Helvetica,sans-Serif" font-size="10.00"> next</text>
<text text-anchor="middle" x="780" y="-989" font-family="Helvetica,sans-Serif" font-size="10.00">prev</text>
</g>
<!-- Node2 -->
<g id="node2" class="node">
<title>Node2</title>
<g id="a_node2"><a xlink:href="structubasic__ctx.html" target="_top" xlink:title=" ">
<polygon fill="none" stroke="black" points="622,-433.5 622,-452.5 690,-452.5 690,-433.5 622,-433.5"/>
<text text-anchor="middle" x="656" y="-440.5" font-family="Helvetica,sans-Serif" font-size="10.00">ubasic_ctx</text>
</a>
</g>
</g>
<!-- Node2&#45;&gt;Node1 -->
<g id="edge1" class="edge">
<title>Node2&#45;&gt;Node1</title>
<path fill="none" stroke="#9a32cd" stroke-dasharray="5,2" d="M661.63,-462.56C681.88,-548.04 762.23,-887.2 776.75,-948.48"/>
<polygon fill="#9a32cd" stroke="#9a32cd" points="665.04,-461.75 659.33,-452.83 658.23,-463.37 665.04,-461.75"/>
<text text-anchor="middle" x="721.5" y="-764" font-family="Helvetica,sans-Serif" font-size="10.00"> code</text>
</g>
<!-- Node3 -->
<g id="node3" class="node">
<title>Node3</title>
<g id="a_node3"><a xlink:title=" ">
<polygon fill="none" stroke="#bfbfbf" points="372.5,-194.5 372.5,-213.5 462.5,-213.5 462.5,-194.5 372.5,-194.5"/>
<text text-anchor="middle" x="417.5" y="-201.5" font-family="Helvetica,sans-Serif" font-size="10.00">ub_return_type</text>
</a>
</g>
</g>
<!-- Node3&#45;&gt;Node2 -->
<g id="edge2" class="edge">
<title>Node3&#45;&gt;Node2</title>
<path fill="none" stroke="#9a32cd" stroke-dasharray="5,2" d="M454.78,-191.51C495.74,-179.93 562.12,-169.09 604,-203 640.83,-232.82 652.16,-392.1 654.5,-433.28"/>
<polygon fill="#9a32cd" stroke="#9a32cd" points="453.53,-188.24 444.95,-194.45 455.53,-194.94 453.53,-188.24"/>
<text text-anchor="middle" x="548" y="-206" font-family="Helvetica,sans-Serif" font-size="10.00"> fn_type</text>
</g>
<!-- Node4 -->
<g id="node4" class="node">
<title>Node4</title>
<g id="a_node4"><a xlink:href="structub__var__string__array.html" target="_top" xlink:title=" ">
<polygon fill="none" stroke="black" points="361,-366.5 361,-385.5 474,-385.5 474,-366.5 361,-366.5"/>
<text text-anchor="middle" x="417.5" y="-373.5" font-family="Helvetica,sans-Serif" font-size="10.00">ub_var_string_array</text>
</a>
</g>
</g>
<!-- Node4&#45;&gt;Node2 -->
<g id="edge3" class="edge">
<title>Node4&#45;&gt;Node2</title>
<path fill="none" stroke="#9a32cd" stroke-dasharray="5,2" d="M484.5,-373.76C521.15,-374.86 566.73,-380.21 604,-397 622.26,-405.23 638.52,-422.47 647.54,-433.35"/>
<polygon fill="#9a32cd" stroke="#9a32cd" points="484.48,-370.26 474.41,-373.56 484.34,-377.26 484.48,-370.26"/>
<text text-anchor="middle" x="548" y="-400" font-family="Helvetica,sans-Serif" font-size="10.00"> string_array_variables</text>
</g>
<!-- Node5 -->
<g id="node5" class="node">
<title>Node5</title>
<g id="a_node5"><a xlink:title=" ">
<polygon fill="none" stroke="#bfbfbf" points="170,-315.5 170,-334.5 226,-334.5 226,-315.5 170,-315.5"/>
<text text-anchor="middle" x="198" y="-322.5" font-family="Helvetica,sans-Serif" font-size="10.00">uint64_t</text>
</a>
</g>
</g>
<!-- Node5&#45;&gt;Node2 -->
<g id="edge15" class="edge">
<title>Node5&#45;&gt;Node2</title>
<path fill="none" stroke="#9a32cd" stroke-dasharray="5,2" d="M235.1,-310.72C237.52,-309.26 239.85,-307.69 242,-306 276.05,-279.33 322.18,-171.06 361,-152 458.45,-104.15 527.25,-100.21 604,-177 641.23,-214.25 652.35,-389.97 654.55,-433.32"/>
<polygon fill="#9a32cd" stroke="#9a32cd" points="233.29,-307.72 226.09,-315.49 236.56,-313.9 233.29,-307.72"/>
<text text-anchor="middle" x="417.5" y="-177" font-family="Helvetica,sans-Serif" font-size="10.00"> for_stack_ptr</text>
<text text-anchor="middle" x="417.5" y="-166" font-family="Helvetica,sans-Serif" font-size="10.00">gosub_stack</text>
<text text-anchor="middle" x="417.5" y="-155" font-family="Helvetica,sans-Serif" font-size="10.00">gosub_stack_ptr</text>
</g>
<!-- Node5&#45;&gt;Node4 -->
<g id="edge4" class="edge">
<title>Node5&#45;&gt;Node4</title>
<path fill="none" stroke="#9a32cd" stroke-dasharray="5,2" d="M236.38,-327.82C265.89,-330.79 307.8,-336.68 343,-348 351.52,-350.74 352.75,-353.54 361,-357 369.08,-360.38 377.99,-363.64 386.27,-366.47"/>
<polygon fill="#9a32cd" stroke="#9a32cd" points="236.4,-324.31 226.11,-326.85 235.74,-331.28 236.4,-324.31"/>
<text text-anchor="middle" x="301.5" y="-351" font-family="Helvetica,sans-Serif" font-size="10.00"> itemcount</text>
</g>
<!-- Node18 -->
<g id="node18" class="node">
<title>Node18</title>
<g id="a_node18"><a xlink:href="structub__var__int__array.html" target="_top" xlink:title=" ">
<polygon fill="none" stroke="black" points="368.5,-462.5 368.5,-481.5 466.5,-481.5 466.5,-462.5 368.5,-462.5"/>
<text text-anchor="middle" x="417.5" y="-469.5" font-family="Helvetica,sans-Serif" font-size="10.00">ub_var_int_array</text>
</a>
</g>
</g>
<!-- Node5&#45;&gt;Node18 -->
<g id="edge31" class="edge">
<title>Node5&#45;&gt;Node18</title>
<path fill="none" stroke="#9a32cd" stroke-dasharray="5,2" d="M226.85,-339.59C231.99,-342.54 237.23,-345.75 242,-349 254,-357.18 331.96,-422.56 343,-432 351.14,-438.95 351.97,-442.25 361,-448 369.85,-453.64 380.26,-458.54 389.65,-462.41"/>
<polygon fill="#9a32cd" stroke="#9a32cd" points="228.29,-336.38 217.85,-334.57 224.88,-342.5 228.29,-336.38"/>
<text text-anchor="middle" x="301.5" y="-435" font-family="Helvetica,sans-Serif" font-size="10.00"> itemcount</text>
</g>
<!-- Node6 -->
<g id="node6" class="node">
<title>Node6</title>
<g id="a_node6"><a xlink:title=" ">
<polygon fill="none" stroke="#bfbfbf" points="6,-602.5 6,-621.5 44,-621.5 44,-602.5 6,-602.5"/>
<text text-anchor="middle" x="25" y="-609.5" font-family="Helvetica,sans-Serif" font-size="10.00">char</text>
</a>
</g>
</g>
<!-- Node6&#45;&gt;Node1 -->
<g id="edge51" class="edge">
<title>Node6&#45;&gt;Node1</title>
<path fill="none" stroke="#9a32cd" stroke-dasharray="5,2" d="M26.77,-631.81C29.03,-677.67 37.57,-794.2 68,-886 101.52,-987.11 90.48,-1088 197,-1088 197,-1088 197,-1088 657,-1088 722.93,-1088 763.6,-998 775.41,-967.77"/>
<polygon fill="#9a32cd" stroke="#9a32cd" points="30.26,-631.57 26.32,-621.74 23.27,-631.88 30.26,-631.57"/>
<text text-anchor="middle" x="417.5" y="-1113" font-family="Helvetica,sans-Serif" font-size="10.00"> directory</text>
<text text-anchor="middle" x="417.5" y="-1102" font-family="Helvetica,sans-Serif" font-size="10.00">name</text>
<text text-anchor="middle" x="417.5" y="-1091" font-family="Helvetica,sans-Serif" font-size="10.00">text</text>
</g>
<!-- Node6&#45;&gt;Node2 -->
<g id="edge16" class="edge">
<title>Node6&#45;&gt;Node2</title>
<path fill="none" stroke="#9a32cd" stroke-dasharray="5,2" d="M30.09,-631.34C40.89,-676.64 74.91,-788.66 154,-827 189.19,-844.06 203,-830 242,-827 282.58,-823.88 575.21,-799.77 604,-771 650.37,-724.67 654.6,-501.65 654.97,-452.57"/>
<polygon fill="#9a32cd" stroke="#9a32cd" points="33.5,-630.56 27.88,-621.57 26.68,-632.1 33.5,-630.56"/>
<text text-anchor="middle" x="301.5" y="-872" font-family="Helvetica,sans-Serif" font-size="10.00"> item_begin</text>
<text text-anchor="middle" x="301.5" y="-861" font-family="Helvetica,sans-Serif" font-size="10.00">nextptr</text>
<text text-anchor="middle" x="301.5" y="-850" font-family="Helvetica,sans-Serif" font-size="10.00">program_ptr</text>
<text text-anchor="middle" x="301.5" y="-839" font-family="Helvetica,sans-Serif" font-size="10.00">ptr</text>
<text text-anchor="middle" x="301.5" y="-828" font-family="Helvetica,sans-Serif" font-size="10.00">string</text>
</g>
<!-- Node6&#45;&gt;Node4 -->
<g id="edge5" class="edge">
<title>Node6&#45;&gt;Node4</title>
<path fill="none" stroke="#9a32cd" stroke-dasharray="5,2" d="M29.87,-592.48C40.18,-540.47 67.58,-402.44 68,-402 106.77,-361.11 272.76,-365.87 360.93,-371.56"/>
<polygon fill="#9a32cd" stroke="#9a32cd" points="26.4,-591.96 27.89,-602.45 33.27,-593.33 26.4,-591.96"/>
<text text-anchor="middle" x="198" y="-375" font-family="Helvetica,sans-Serif" font-size="10.00"> varname</text>
</g>
<!-- Node7 -->
<g id="node7" class="node">
<title>Node7</title>
<g id="a_node7"><a xlink:href="structub__var__string.html" target="_top" xlink:title=" ">
<polygon fill="none" stroke="black" points="156.5,-248.5 156.5,-267.5 239.5,-267.5 239.5,-248.5 156.5,-248.5"/>
<text text-anchor="middle" x="198" y="-255.5" font-family="Helvetica,sans-Serif" font-size="10.00">ub_var_string</text>
</a>
</g>
</g>
<!-- Node6&#45;&gt;Node7 -->
<g id="edge7" class="edge">
<title>Node6&#45;&gt;Node7</title>
<path fill="none" stroke="#9a32cd" stroke-dasharray="5,2" d="M30.39,-592.41C35.63,-568.56 44.36,-526.98 50,-491 55.4,-456.52 46.42,-362.42 68,-335 87.91,-309.69 108.2,-326.25 136,-310 156.42,-298.06 176.62,-279.05 187.89,-267.62"/>
<polygon fill="#9a32cd" stroke="#9a32cd" points="26.94,-591.8 28.2,-602.32 33.78,-593.32 26.94,-591.8"/>
<text text-anchor="middle" x="102" y="-349" font-family="Helvetica,sans-Serif" font-size="10.00"> value</text>
<text text-anchor="middle" x="102" y="-338" font-family="Helvetica,sans-Serif" font-size="10.00">varname</text>
</g>
<!-- Node9 -->
<g id="node9" class="node">
<title>Node9</title>
<g id="a_node9"><a xlink:href="structub__var__int.html" target="_top" xlink:title=" ">
<polygon fill="none" stroke="black" points="164,-400.5 164,-419.5 232,-419.5 232,-400.5 164,-400.5"/>
<text text-anchor="middle" x="198" y="-407.5" font-family="Helvetica,sans-Serif" font-size="10.00">ub_var_int</text>
</a>
</g>
</g>
<!-- Node6&#45;&gt;Node9 -->
<g id="edge12" class="edge">
<title>Node6&#45;&gt;Node9</title>
<path fill="none" stroke="#9a32cd" stroke-dasharray="5,2" d="M29.16,-592.49C35.4,-556.06 50.27,-479.6 68,-460 68.92,-458.98 134.8,-433.73 172.04,-419.51"/>
<polygon fill="#9a32cd" stroke="#9a32cd" points="25.7,-591.97 27.5,-602.41 32.6,-593.12 25.7,-591.97"/>
<text text-anchor="middle" x="102" y="-463" font-family="Helvetica,sans-Serif" font-size="10.00"> varname</text>
</g>
<!-- Node11 -->
<g id="node11" class="node">
<title>Node11</title>
<g id="a_node11"><a xlink:href="structconsole.html" target="_top" xlink:title=" ">
<polygon fill="none" stroke="black" points="390.5,-939.5 390.5,-958.5 444.5,-958.5 444.5,-939.5 390.5,-939.5"/>
<text text-anchor="middle" x="417.5" y="-946.5" font-family="Helvetica,sans-Serif" font-size="10.00">console</text>
</a>
</g>
</g>
<!-- Node6&#45;&gt;Node11 -->
<g id="edge18" class="edge">
<title>Node6&#45;&gt;Node11</title>
<path fill="none" stroke="#9a32cd" stroke-dasharray="5,2" d="M26.64,-631.55C28.76,-684.09 37.27,-826.63 68,-860 90.34,-884.26 313.12,-929.09 390.32,-944.02"/>
<polygon fill="#9a32cd" stroke="#9a32cd" points="30.13,-631.38 26.27,-621.52 23.14,-631.64 30.13,-631.38"/>
<text text-anchor="middle" x="198" y="-938" font-family="Helvetica,sans-Serif" font-size="10.00"> buffer</text>
<text text-anchor="middle" x="198" y="-927" font-family="Helvetica,sans-Serif" font-size="10.00">dirty</text>
<text text-anchor="middle" x="198" y="-916" font-family="Helvetica,sans-Serif" font-size="10.00">internalbuffer</text>
</g>
<!-- Node15 -->
<g id="node15" class="node">
<title>Node15</title>
<g id="a_node15"><a xlink:href="structub__var__double.html" target="_top" xlink:title=" ">
<polygon fill="none" stroke="black" points="154,-27.5 154,-46.5 242,-46.5 242,-27.5 154,-27.5"/>
<text text-anchor="middle" x="198" y="-34.5" font-family="Helvetica,sans-Serif" font-size="10.00">ub_var_double</text>
</a>
</g>
</g>
<!-- Node6&#45;&gt;Node15 -->
<g id="edge25" class="edge">
<title>Node6&#45;&gt;Node15</title>
<path fill="none" stroke="#9a32cd" stroke-dasharray="5,2" d="M30.65,-592.45C36.14,-568.63 45.13,-527.09 50,-491 64.78,-381.48 33.66,-348.04 68,-243 95.4,-159.17 164.04,-74.92 188.32,-46.8"/>
<polygon fill="#9a32cd" stroke="#9a32cd" points="27.21,-591.81 28.34,-602.34 34.02,-593.4 27.21,-591.81"/>
<text text-anchor="middle" x="102" y="-246" font-family="Helvetica,sans-Serif" font-size="10.00"> varname</text>
</g>
<!-- Node6&#45;&gt;Node18 -->
<g id="edge32" class="edge">
<title>Node6&#45;&gt;Node18</title>
<path fill="none" stroke="#9a32cd" stroke-dasharray="5,2" d="M27.11,-592.25C29.74,-566.21 38.54,-521.1 68,-499 92.5,-480.61 312.47,-481.56 343,-479 351.17,-478.31 359.86,-477.53 368.28,-476.75"/>
<polygon fill="#9a32cd" stroke="#9a32cd" points="23.61,-592.18 26.3,-602.42 30.58,-592.73 23.61,-592.18"/>
<text text-anchor="middle" x="198" y="-488" font-family="Helvetica,sans-Serif" font-size="10.00"> varname</text>
</g>
<!-- Node19 -->
<g id="node19" class="node">
<title>Node19</title>
<g id="a_node19"><a xlink:href="structub__proc__fn__def.html" target="_top" xlink:title=" ">
<polygon fill="none" stroke="black" points="372,-615.5 372,-634.5 463,-634.5 463,-615.5 372,-615.5"/>
<text text-anchor="middle" x="417.5" y="-622.5" font-family="Helvetica,sans-Serif" font-size="10.00">ub_proc_fn_def</text>
</a>
</g>
</g>
<!-- Node6&#45;&gt;Node19 -->
<g id="edge35" class="edge">
<title>Node6&#45;&gt;Node19</title>
<path fill="none" stroke="#9a32cd" stroke-dasharray="5,2" d="M36.62,-630.3C55.56,-660.79 98.47,-720.77 154,-742 233.26,-772.3 278.85,-770.54 343,-715 358.35,-701.71 349.01,-689.39 361,-673 372.43,-657.37 389.85,-643.38 402.12,-634.59"/>
<polygon fill="#9a32cd" stroke="#9a32cd" points="39.48,-628.27 31.32,-621.52 33.49,-631.89 39.48,-628.27"/>
<text text-anchor="middle" x="198" y="-764" font-family="Helvetica,sans-Serif" font-size="10.00"> name</text>
</g>
<!-- Node21 -->
<g id="node21" class="node">
<title>Node21</title>
<g id="a_node21"><a xlink:href="structub__param.html" target="_top" xlink:title=" ">
<polygon fill="none" stroke="black" points="165.5,-646.5 165.5,-665.5 230.5,-665.5 230.5,-646.5 165.5,-646.5"/>
<text text-anchor="middle" x="198" y="-653.5" font-family="Helvetica,sans-Serif" font-size="10.00">ub_param</text>
</a>
</g>
</g>
<!-- Node6&#45;&gt;Node21 -->
<g id="edge39" class="edge">
<title>Node6&#45;&gt;Node21</title>
<path fill="none" stroke="#9a32cd" stroke-dasharray="5,2" d="M48.67,-626.95C54.74,-630.39 61.45,-633.71 68,-636 100.09,-647.22 138.86,-652.16 165.47,-654.33"/>
<polygon fill="#9a32cd" stroke="#9a32cd" points="50.14,-623.75 39.76,-621.58 46.52,-629.74 50.14,-623.75"/>
<text text-anchor="middle" x="102" y="-653" font-family="Helvetica,sans-Serif" font-size="10.00"> name</text>
</g>
<!-- Node22 -->
<g id="node22" class="node">
<title>Node22</title>
<g id="a_node22"><a xlink:href="structub__line__ref.html" target="_top" xlink:title=" ">
<polygon fill="none" stroke="black" points="382,-682.5 382,-701.5 453,-701.5 453,-682.5 382,-682.5"/>
<text text-anchor="middle" x="417.5" y="-689.5" font-family="Helvetica,sans-Serif" font-size="10.00">ub_line_ref</text>
</a>
</g>
</g>
<!-- Node6&#45;&gt;Node22 -->
<g id="edge43" class="edge">
<title>Node6&#45;&gt;Node22</title>
<path fill="none" stroke="#9a32cd" stroke-dasharray="5,2" d="M54.11,-610.92C122.75,-608.82 296.67,-606.9 343,-639 357.05,-648.74 348,-661.9 361,-673 366.96,-678.09 374.36,-681.84 381.79,-684.59"/>
<polygon fill="#9a32cd" stroke="#9a32cd" points="53.91,-607.42 44.03,-611.25 54.14,-614.42 53.91,-607.42"/>
<text text-anchor="middle" x="198" y="-617" font-family="Helvetica,sans-Serif" font-size="10.00"> ptr</text>
</g>
<!-- Node25 -->
<g id="node25" class="node">
<title>Node25</title>
<g id="a_node25"><a xlink:href="structfor__state.html" target="_top" xlink:title=" ">
<polygon fill="none" stroke="black" points="168,-514.5 168,-533.5 228,-533.5 228,-514.5 168,-514.5"/>
<text text-anchor="middle" x="198" y="-521.5" font-family="Helvetica,sans-Serif" font-size="10.00">for_state</text>
</a>
</g>
</g>
<!-- Node6&#45;&gt;Node25 -->
<g id="edge48" class="edge">
<title>Node6&#45;&gt;Node25</title>
<path fill="none" stroke="#9a32cd" stroke-dasharray="5,2" d="M53.48,-597.86C88.51,-579.83 148.13,-549.15 178.31,-533.62"/>
<polygon fill="#9a32cd" stroke="#9a32cd" points="51.59,-594.89 44.3,-602.58 54.79,-601.12 51.59,-594.89"/>
<text text-anchor="middle" x="102" y="-591" font-family="Helvetica,sans-Serif" font-size="10.00"> for_variable</text>
</g>
<!-- Node7&#45;&gt;Node2 -->
<g id="edge41" class="edge">
<title>Node7&#45;&gt;Node2</title>
<path fill="none" stroke="#9a32cd" stroke-dasharray="5,2" d="M249.71,-263.78C352.28,-275.89 576.98,-304.62 604,-327 638.23,-355.34 650.19,-411.18 653.72,-433.48"/>
<polygon fill="#9a32cd" stroke="#9a32cd" points="249.93,-260.28 239.59,-262.6 249.11,-267.24 249.93,-260.28"/>
<text text-anchor="middle" x="417.5" y="-308" font-family="Helvetica,sans-Serif" font-size="10.00"> local_string_variables</text>
<text text-anchor="middle" x="417.5" y="-297" font-family="Helvetica,sans-Serif" font-size="10.00">str_variables</text>
</g>
<!-- Node7&#45;&gt;Node4 -->
<g id="edge6" class="edge">
<title>Node7&#45;&gt;Node4</title>
<path fill="none" stroke="#9a32cd" stroke-dasharray="5,2" d="M223.53,-272.83C234.43,-279.01 247.59,-285.92 260,-291 295.54,-305.55 314.22,-289.57 343,-315 358.22,-328.45 346.11,-343.19 361,-357 365.18,-360.88 370.19,-363.97 375.46,-366.43"/>
<polygon fill="#9a32cd" stroke="#9a32cd" points="225,-269.64 214.6,-267.65 221.49,-275.7 225,-269.64"/>
<text text-anchor="middle" x="301.5" y="-318" font-family="Helvetica,sans-Serif" font-size="10.00"> values</text>
</g>
<!-- Node7&#45;&gt;Node7 -->
<g id="edge9" class="edge">
<title>Node7&#45;&gt;Node7</title>
<path fill="none" stroke="#9a32cd" stroke-dasharray="5,2" d="M180.22,-277.4C181.41,-282.31 187.34,-286 198,-286 215.06,-286 219.99,-276.57 212.8,-267.76"/>
<polygon fill="#9a32cd" stroke="#9a32cd" points="183.59,-278.34 183.2,-267.76 176.91,-276.28 183.59,-278.34"/>
<text text-anchor="middle" x="198" y="-289" font-family="Helvetica,sans-Serif" font-size="10.00"> next</text>
</g>
<!-- Node8 -->
<g id="node8" class="node">
<title>Node8</title>
<g id="a_node8"><a xlink:title=" ">
<polygon fill="none" stroke="#bfbfbf" points="6,-248.5 6,-267.5 44,-267.5 44,-248.5 6,-248.5"/>
<text text-anchor="middle" x="25" y="-255.5" font-family="Helvetica,sans-Serif" font-size="10.00">bool</text>
</a>
</g>
</g>
<!-- Node8&#45;&gt;Node7 -->
<g id="edge8" class="edge">
<title>Node8&#45;&gt;Node7</title>
<path fill="none" stroke="#9a32cd" stroke-dasharray="5,2" d="M54.53,-258C82.33,-258 124.87,-258 156.23,-258"/>
<polygon fill="#9a32cd" stroke="#9a32cd" points="54.3,-254.5 44.3,-258 54.3,-261.5 54.3,-254.5"/>
<text text-anchor="middle" x="102" y="-261" font-family="Helvetica,sans-Serif" font-size="10.00"> global</text>
</g>
<!-- Node8&#45;&gt;Node9 -->
<g id="edge14" class="edge">
<title>Node8&#45;&gt;Node9</title>
<path fill="none" stroke="#9a32cd" stroke-dasharray="5,2" d="M53.64,-267.55C85.29,-278.6 133.17,-295.7 136,-299 161.71,-328.97 130.65,-354.16 154,-386 158.45,-392.07 164.92,-396.8 171.5,-400.4"/>
<polygon fill="#9a32cd" stroke="#9a32cd" points="54.61,-264.18 44.02,-264.2 52.31,-270.8 54.61,-264.18"/>
<text text-anchor="middle" x="102" y="-302" font-family="Helvetica,sans-Serif" font-size="10.00"> global</text>
</g>
<!-- Node8&#45;&gt;Node15 -->
<g id="edge27" class="edge">
<title>Node8&#45;&gt;Node15</title>
<path fill="none" stroke="#9a32cd" stroke-dasharray="5,2" d="M26.91,-238.43C29.57,-190.7 39.05,-70.34 68,-45 91.22,-24.68 126.71,-23.88 154.59,-27.49"/>
<polygon fill="#9a32cd" stroke="#9a32cd" points="23.41,-238.26 26.4,-248.43 30.4,-238.62 23.41,-238.26"/>
<text text-anchor="middle" x="102" y="-48" font-family="Helvetica,sans-Serif" font-size="10.00"> global</text>
</g>
<!-- Node9&#45;&gt;Node2 -->
<g id="edge10" class="edge">
<title>Node9&#45;&gt;Node2</title>
<path fill="none" stroke="#9a32cd" stroke-dasharray="5,2" d="M242.27,-410.47C270.88,-410.96 309.2,-411.96 343,-414 444.82,-420.14 564.86,-432.84 621.81,-439.2"/>
<polygon fill="#9a32cd" stroke="#9a32cd" points="242.25,-406.97 232.2,-410.31 242.14,-413.97 242.25,-406.97"/>
<text text-anchor="middle" x="417.5" y="-437" font-family="Helvetica,sans-Serif" font-size="10.00"> int_variables</text>
<text text-anchor="middle" x="417.5" y="-426" font-family="Helvetica,sans-Serif" font-size="10.00">local_int_variables</text>
</g>
<!-- Node9&#45;&gt;Node9 -->
<g id="edge11" class="edge">
<title>Node9&#45;&gt;Node9</title>
<path fill="none" stroke="#9a32cd" stroke-dasharray="5,2" d="M180.22,-429.4C181.41,-434.31 187.34,-438 198,-438 215.06,-438 219.99,-428.57 212.8,-419.76"/>
<polygon fill="#9a32cd" stroke="#9a32cd" points="183.59,-430.34 183.2,-419.76 176.91,-428.28 183.59,-430.34"/>
<text text-anchor="middle" x="198" y="-441" font-family="Helvetica,sans-Serif" font-size="10.00"> next</text>
</g>
<!-- Node9&#45;&gt;Node18 -->
<g id="edge30" class="edge">
<title>Node9&#45;&gt;Node18</title>
<path fill="none" stroke="#9a32cd" stroke-dasharray="5,2" d="M221.04,-425.15C232.25,-432.2 246.36,-440.08 260,-445 295.15,-457.67 336.93,-464.49 368.48,-468.1"/>
<polygon fill="#9a32cd" stroke="#9a32cd" points="222.67,-422.04 212.38,-419.52 218.85,-427.91 222.67,-422.04"/>
<text text-anchor="middle" x="301.5" y="-467" font-family="Helvetica,sans-Serif" font-size="10.00"> values</text>
</g>
<!-- Node10 -->
<g id="node10" class="node">
<title>Node10</title>
<g id="a_node10"><a xlink:title=" ">
<polygon fill="none" stroke="#bfbfbf" points="0,-462.5 0,-481.5 50,-481.5 50,-462.5 0,-462.5"/>
<text text-anchor="middle" x="25" y="-469.5" font-family="Helvetica,sans-Serif" font-size="10.00">int64_t</text>
</a>
</g>
</g>
<!-- Node10&#45;&gt;Node2 -->
<g id="edge21" class="edge">
<title>Node10&#45;&gt;Node2</title>
<path fill="none" stroke="#9a32cd" stroke-dasharray="5,2" d="M27.74,-452.12C32.22,-404.6 45.41,-286 68,-254 151.22,-136.09 217.91,-132.8 361,-114 468.08,-99.93 521.99,-43.72 604,-114 653.92,-156.78 655.39,-383.35 655.1,-433.27"/>
<polygon fill="#9a32cd" stroke="#9a32cd" points="24.23,-452.06 26.81,-462.33 31.2,-452.69 24.23,-452.06"/>
<text text-anchor="middle" x="301.5" y="-143" font-family="Helvetica,sans-Serif" font-size="10.00"> current_linenum</text>
<text text-anchor="middle" x="301.5" y="-132" font-family="Helvetica,sans-Serif" font-size="10.00">eval_linenum</text>
</g>
<!-- Node10&#45;&gt;Node9 -->
<g id="edge13" class="edge">
<title>Node10&#45;&gt;Node9</title>
<path fill="none" stroke="#9a32cd" stroke-dasharray="5,2" d="M36.29,-453.65C43.61,-442.49 54.51,-429.07 68,-422 97.69,-406.45 136.52,-404.94 163.79,-406.39"/>
<polygon fill="#9a32cd" stroke="#9a32cd" points="33.24,-451.94 31.02,-462.3 39.21,-455.59 33.24,-451.94"/>
<text text-anchor="middle" x="102" y="-425" font-family="Helvetica,sans-Serif" font-size="10.00"> value</text>
</g>
<!-- Node10&#45;&gt;Node19 -->
<g id="edge36" class="edge">
<title>Node10&#45;&gt;Node19</title>
<path fill="none" stroke="#9a32cd" stroke-dasharray="5,2" d="M32.78,-491.02C39.36,-506.77 50.9,-528.52 68,-541 92.61,-558.95 283.35,-598.56 371.76,-616.21"/>
<polygon fill="#9a32cd" stroke="#9a32cd" points="36.04,-489.75 29.15,-481.7 29.51,-492.28 36.04,-489.75"/>
<text text-anchor="middle" x="198" y="-591" font-family="Helvetica,sans-Serif" font-size="10.00"> line</text>
</g>
<!-- Node10&#45;&gt;Node25 -->
<g id="edge49" class="edge">
<title>Node10&#45;&gt;Node25</title>
<path fill="none" stroke="#9a32cd" stroke-dasharray="5,2" d="M59.81,-482.28C91.34,-491.87 137.89,-506.03 167.83,-515.13"/>
<polygon fill="#9a32cd" stroke="#9a32cd" points="60.72,-478.9 50.14,-479.34 58.69,-485.6 60.72,-478.9"/>
<text text-anchor="middle" x="102" y="-529" font-family="Helvetica,sans-Serif" font-size="10.00"> line_after_for</text>
<text text-anchor="middle" x="102" y="-518" font-family="Helvetica,sans-Serif" font-size="10.00">step</text>
<text text-anchor="middle" x="102" y="-507" font-family="Helvetica,sans-Serif" font-size="10.00">to</text>
</g>
<!-- Node11&#45;&gt;Node1 -->
<g id="edge52" class="edge">
<title>Node11&#45;&gt;Node1</title>
<path fill="none" stroke="#9a32cd" stroke-dasharray="5,2" d="M454.77,-949.91C527.49,-951.72 689.51,-955.77 752.88,-957.35"/>
<polygon fill="#9a32cd" stroke="#9a32cd" points="454.8,-946.41 444.72,-949.65 454.63,-953.4 454.8,-946.41"/>
<text text-anchor="middle" x="656" y="-958" font-family="Helvetica,sans-Serif" font-size="10.00"> cons</text>
</g>
<!-- Node11&#45;&gt;Node2 -->
<g id="edge17" class="edge">
<title>Node11&#45;&gt;Node2</title>
<path fill="none" stroke="#9a32cd" stroke-dasharray="5,2" d="M454.69,-941.03C466.57,-938.44 479.85,-935.57 492,-933 541.72,-922.48 569.79,-947.58 604,-910 635.98,-874.87 651.99,-516.83 654.61,-452.78"/>
<polygon fill="#9a32cd" stroke="#9a32cd" points="453.7,-937.67 444.68,-943.22 455.19,-944.51 453.7,-937.67"/>
<text text-anchor="middle" x="548" y="-936" font-family="Helvetica,sans-Serif" font-size="10.00"> cons</text>
</g>
<!-- Node12 -->
<g id="node12" class="node">
<title>Node12</title>
<g id="a_node12"><a xlink:title=" ">
<polygon fill="none" stroke="#bfbfbf" points="175.5,-967.5 175.5,-986.5 220.5,-986.5 220.5,-967.5 175.5,-967.5"/>
<text text-anchor="middle" x="198" y="-974.5" font-family="Helvetica,sans-Serif" font-size="10.00">size_t</text>
</a>
</g>
</g>
<!-- Node12&#45;&gt;Node11 -->
<g id="edge19" class="edge">
<title>Node12&#45;&gt;Node11</title>
<path fill="none" stroke="#9a32cd" stroke-dasharray="5,2" d="M224.57,-962.88C235.2,-957.76 247.86,-952.61 260,-950 305.03,-940.33 359.04,-943.03 390.39,-945.95"/>
<polygon fill="#9a32cd" stroke="#9a32cd" points="222.8,-959.85 215.46,-967.49 225.96,-966.1 222.8,-959.85"/>
<text text-anchor="middle" x="301.5" y="-953" font-family="Helvetica,sans-Serif" font-size="10.00"> bufcnt</text>
</g>
<!-- Node13 -->
<g id="node13" class="node">
<title>Node13</title>
<g id="a_node13"><a xlink:title=" ">
<polygon fill="none" stroke="#bfbfbf" points="173,-1019.5 173,-1038.5 223,-1038.5 223,-1019.5 173,-1019.5"/>
<text text-anchor="middle" x="198" y="-1026.5" font-family="Helvetica,sans-Serif" font-size="10.00">uint8_t</text>
</a>
</g>
</g>
<!-- Node13&#45;&gt;Node1 -->
<g id="edge54" class="edge">
<title>Node13&#45;&gt;Node1</title>
<path fill="none" stroke="#9a32cd" stroke-dasharray="5,2" d="M233.35,-1030.11C262.56,-1030.73 305.59,-1030.88 343,-1028 518.6,-1014.47 562.63,-1006.12 735,-970 740.73,-968.8 746.83,-967.29 752.6,-965.75"/>
<polygon fill="#9a32cd" stroke="#9a32cd" points="233.33,-1026.61 223.25,-1029.86 233.16,-1033.61 233.33,-1026.61"/>
<text text-anchor="middle" x="548" y="-1016" font-family="Helvetica,sans-Serif" font-size="10.00"> cpu</text>
</g>
<!-- Node13&#45;&gt;Node11 -->
<g id="edge20" class="edge">
<title>Node13&#45;&gt;Node11</title>
<path fill="none" stroke="#9a32cd" stroke-dasharray="5,2" d="M219.61,-1013.14C235.51,-1001.01 255.53,-986.04 260,-984 282.99,-973.52 352.05,-960.31 390.29,-953.5"/>
<polygon fill="#9a32cd" stroke="#9a32cd" points="217.14,-1010.62 211.33,-1019.48 221.4,-1016.18 217.14,-1010.62"/>
<text text-anchor="middle" x="301.5" y="-1020" font-family="Helvetica,sans-Serif" font-size="10.00"> attributes</text>
<text text-anchor="middle" x="301.5" y="-1009" font-family="Helvetica,sans-Serif" font-size="10.00">last</text>
<text text-anchor="middle" x="301.5" y="-998" font-family="Helvetica,sans-Serif" font-size="10.00">x</text>
<text text-anchor="middle" x="301.5" y="-987" font-family="Helvetica,sans-Serif" font-size="10.00">y</text>
</g>
<!-- Node14 -->
<g id="node14" class="node">
<title>Node14</title>
<g id="a_node14"><a xlink:title=" ">
<polygon fill="none" stroke="#bfbfbf" points="392.5,-328.5 392.5,-347.5 442.5,-347.5 442.5,-328.5 392.5,-328.5"/>
<text text-anchor="middle" x="417.5" y="-335.5" font-family="Helvetica,sans-Serif" font-size="10.00">int32_t</text>
</a>
</g>
</g>
<!-- Node14&#45;&gt;Node2 -->
<g id="edge22" class="edge">
<title>Node14&#45;&gt;Node2</title>
<path fill="none" stroke="#9a32cd" stroke-dasharray="5,2" d="M452.61,-333.37C492.23,-329.79 558.01,-329.59 604,-359 631.74,-376.74 646.64,-415.47 652.29,-433.47"/>
<polygon fill="#9a32cd" stroke="#9a32cd" points="452.24,-329.89 442.65,-334.39 452.96,-336.85 452.24,-329.89"/>
<text text-anchor="middle" x="548" y="-362" font-family="Helvetica,sans-Serif" font-size="10.00"> graphics_colour</text>
</g>
<!-- Node15&#45;&gt;Node2 -->
<g id="edge23" class="edge">
<title>Node15&#45;&gt;Node2</title>
<path fill="none" stroke="#9a32cd" stroke-dasharray="5,2" d="M247.14,-25.39C332.5,-7.99 510.2,13.36 604,-83 654.31,-134.68 655.44,-380.91 655.1,-433.22"/>
<polygon fill="#9a32cd" stroke="#9a32cd" points="246.27,-22 237.2,-27.49 247.71,-28.85 246.27,-22"/>
<text text-anchor="middle" x="417.5" y="-32" font-family="Helvetica,sans-Serif" font-size="10.00"> double_variables</text>
<text text-anchor="middle" x="417.5" y="-21" font-family="Helvetica,sans-Serif" font-size="10.00">local_double_variables</text>
</g>
<!-- Node15&#45;&gt;Node15 -->
<g id="edge26" class="edge">
<title>Node15&#45;&gt;Node15</title>
<path fill="none" stroke="#9a32cd" stroke-dasharray="5,2" d="M180.22,-56.4C181.41,-61.31 187.34,-65 198,-65 215.06,-65 219.99,-55.57 212.8,-46.76"/>
<polygon fill="#9a32cd" stroke="#9a32cd" points="183.59,-57.34 183.2,-46.76 176.91,-55.28 183.59,-57.34"/>
<text text-anchor="middle" x="198" y="-68" font-family="Helvetica,sans-Serif" font-size="10.00"> next</text>
</g>
<!-- Node16 -->
<g id="node16" class="node">
<title>Node16</title>
<g id="a_node16"><a xlink:title=" ">
<polygon fill="none" stroke="#bfbfbf" points="0,-0.5 0,-19.5 50,-19.5 50,-0.5 0,-0.5"/>
<text text-anchor="middle" x="25" y="-7.5" font-family="Helvetica,sans-Serif" font-size="10.00">double</text>
</a>
</g>
</g>
<!-- Node16&#45;&gt;Node15 -->
<g id="edge24" class="edge">
<title>Node16&#45;&gt;Node15</title>
<path fill="none" stroke="#9a32cd" stroke-dasharray="5,2" d="M60.46,-6.88C82.33,-5.74 111.1,-5.8 136,-11 151.44,-14.23 167.82,-21.45 179.72,-27.46"/>
<polygon fill="#9a32cd" stroke="#9a32cd" points="60.08,-3.39 50.32,-7.52 60.53,-10.38 60.08,-3.39"/>
<text text-anchor="middle" x="102" y="-14" font-family="Helvetica,sans-Serif" font-size="10.00"> value</text>
</g>
<!-- Node17 -->
<g id="node17" class="node">
<title>Node17</title>
<g id="a_node17"><a xlink:title=" ">
<polygon fill="none" stroke="#bfbfbf" points="403,-232.5 403,-251.5 432,-251.5 432,-232.5 403,-232.5"/>
<text text-anchor="middle" x="417.5" y="-239.5" font-family="Helvetica,sans-Serif" font-size="10.00">int</text>
</a>
</g>
</g>
<!-- Node17&#45;&gt;Node2 -->
<g id="edge28" class="edge">
<title>Node17&#45;&gt;Node2</title>
<path fill="none" stroke="#9a32cd" stroke-dasharray="5,2" d="M441.92,-233.18C480.24,-220.42 556.78,-202.13 604,-239 635.65,-263.71 650.57,-396.61 654.14,-433.5"/>
<polygon fill="#9a32cd" stroke="#9a32cd" points="440.47,-229.98 432.19,-236.58 442.78,-236.59 440.47,-229.98"/>
<text text-anchor="middle" x="548" y="-286" font-family="Helvetica,sans-Serif" font-size="10.00"> bracket_depth</text>
<text text-anchor="middle" x="548" y="-275" font-family="Helvetica,sans-Serif" font-size="10.00">current_token</text>
<text text-anchor="middle" x="548" y="-264" font-family="Helvetica,sans-Serif" font-size="10.00">ended</text>
<text text-anchor="middle" x="548" y="-253" font-family="Helvetica,sans-Serif" font-size="10.00">errored</text>
<text text-anchor="middle" x="548" y="-242" font-family="Helvetica,sans-Serif" font-size="10.00">oldlen</text>
</g>
<!-- Node18&#45;&gt;Node2 -->
<g id="edge29" class="edge">
<title>Node18&#45;&gt;Node2</title>
<path fill="none" stroke="#9a32cd" stroke-dasharray="5,2" d="M476.7,-464.86C522.33,-459.27 584.2,-451.68 621.77,-447.07"/>
<polygon fill="#9a32cd" stroke="#9a32cd" points="476.14,-461.41 466.64,-466.1 477,-468.35 476.14,-461.41"/>
<text text-anchor="middle" x="548" y="-465" font-family="Helvetica,sans-Serif" font-size="10.00"> int_array_variables</text>
</g>
<!-- Node19&#45;&gt;Node2 -->
<g id="edge33" class="edge">
<title>Node19&#45;&gt;Node2</title>
<path fill="none" stroke="#9a32cd" stroke-dasharray="5,2" d="M473.09,-632.03C513.66,-634.16 568,-630.04 604,-600 650.21,-561.44 654.93,-480.5 655.13,-452.65"/>
<polygon fill="#9a32cd" stroke="#9a32cd" points="473.3,-628.54 463.09,-631.37 472.83,-635.52 473.3,-628.54"/>
<text text-anchor="middle" x="548" y="-635" font-family="Helvetica,sans-Serif" font-size="10.00"> defs</text>
</g>
<!-- Node19&#45;&gt;Node19 -->
<g id="edge37" class="edge">
<title>Node19&#45;&gt;Node19</title>
<path fill="none" stroke="#9a32cd" stroke-dasharray="5,2" d="M396.02,-644.4C397.45,-649.31 404.61,-653 417.5,-653 438.12,-653 444.08,-643.57 435.38,-634.76"/>
<polygon fill="#9a32cd" stroke="#9a32cd" points="399.4,-645.35 399.62,-634.76 392.84,-642.9 399.4,-645.35"/>
<text text-anchor="middle" x="417.5" y="-656" font-family="Helvetica,sans-Serif" font-size="10.00"> next</text>
</g>
<!-- Node20 -->
<g id="node20" class="node">
<title>Node20</title>
<g id="a_node20"><a xlink:title=" ">
<polygon fill="none" stroke="#bfbfbf" points="162.5,-713.5 162.5,-732.5 233.5,-732.5 233.5,-713.5 162.5,-713.5"/>
<text text-anchor="middle" x="198" y="-720.5" font-family="Helvetica,sans-Serif" font-size="10.00">ub_fn_type</text>
</a>
</g>
</g>
<!-- Node20&#45;&gt;Node19 -->
<g id="edge34" class="edge">
<title>Node20&#45;&gt;Node19</title>
<path fill="none" stroke="#9a32cd" stroke-dasharray="5,2" d="M236.61,-710.11C266.05,-699.6 307.76,-683.81 343,-667 363.83,-657.07 386.75,-643.52 401.37,-634.53"/>
<polygon fill="#9a32cd" stroke="#9a32cd" points="235.38,-706.83 227.12,-713.46 237.72,-713.43 235.38,-706.83"/>
<text text-anchor="middle" x="301.5" y="-703" font-family="Helvetica,sans-Serif" font-size="10.00"> type</text>
</g>
<!-- Node21&#45;&gt;Node2 -->
<g id="edge50" class="edge">
<title>Node21&#45;&gt;Node2</title>
<path fill="none" stroke="#9a32cd" stroke-dasharray="5,2" d="M233.82,-642.83C266.61,-630.44 317.12,-611.39 361,-595 468.89,-554.71 510.17,-571.78 604,-505 624.21,-490.61 640.97,-466.26 649.31,-452.75"/>
<polygon fill="#9a32cd" stroke="#9a32cd" points="232.36,-639.64 224.24,-646.45 234.83,-646.19 232.36,-639.64"/>
<text text-anchor="middle" x="417.5" y="-598" font-family="Helvetica,sans-Serif" font-size="10.00"> param</text>
</g>
<!-- Node21&#45;&gt;Node19 -->
<g id="edge38" class="edge">
<title>Node21&#45;&gt;Node19</title>
<path fill="none" stroke="#9a32cd" stroke-dasharray="5,2" d="M240.77,-653.89C269.63,-652.03 308.82,-648.7 343,-643 355.96,-640.84 370.01,-637.62 382.32,-634.5"/>
<polygon fill="#9a32cd" stroke="#9a32cd" points="240.4,-650.41 230.64,-654.51 240.83,-657.39 240.4,-650.41"/>
<text text-anchor="middle" x="301.5" y="-655" font-family="Helvetica,sans-Serif" font-size="10.00"> params</text>
</g>
<!-- Node21&#45;&gt;Node21 -->
<g id="edge40" class="edge">
<title>Node21&#45;&gt;Node21</title>
<path fill="none" stroke="#9a32cd" stroke-dasharray="5,2" d="M180.22,-675.4C181.41,-680.31 187.34,-684 198,-684 215.06,-684 219.99,-674.57 212.8,-665.76"/>
<polygon fill="#9a32cd" stroke="#9a32cd" points="183.59,-676.34 183.2,-665.76 176.91,-674.28 183.59,-676.34"/>
<text text-anchor="middle" x="198" y="-687" font-family="Helvetica,sans-Serif" font-size="10.00"> next</text>
</g>
<!-- Node22&#45;&gt;Node2 -->
<g id="edge42" class="edge">
<title>Node22&#45;&gt;Node2</title>
<path fill="none" stroke="#9a32cd" stroke-dasharray="5,2" d="M463.56,-693.47C505.54,-692.3 567.04,-683.7 604,-647 632.43,-618.77 649.6,-488.97 653.92,-452.54"/>
<polygon fill="#9a32cd" stroke="#9a32cd" points="463.29,-689.97 453.34,-693.62 463.39,-696.97 463.29,-689.97"/>
<text text-anchor="middle" x="548" y="-705" font-family="Helvetica,sans-Serif" font-size="10.00"> line_tail</text>
<text text-anchor="middle" x="548" y="-694" font-family="Helvetica,sans-Serif" font-size="10.00">lines</text>
</g>
<!-- Node22&#45;&gt;Node22 -->
<g id="edge45" class="edge">
<title>Node22&#45;&gt;Node22</title>
<path fill="none" stroke="#9a32cd" stroke-dasharray="5,2" d="M396.02,-711.4C397.45,-716.31 404.61,-720 417.5,-720 438.12,-720 444.08,-710.57 435.38,-701.76"/>
<polygon fill="#9a32cd" stroke="#9a32cd" points="399.4,-712.35 399.62,-701.76 392.84,-709.9 399.4,-712.35"/>
<text text-anchor="middle" x="417.5" y="-734" font-family="Helvetica,sans-Serif" font-size="10.00"> next</text>
<text text-anchor="middle" x="417.5" y="-723" font-family="Helvetica,sans-Serif" font-size="10.00">prev</text>
</g>
<!-- Node23 -->
<g id="node23" class="node">
<title>Node23</title>
<g id="a_node23"><a xlink:title=" ">
<polygon fill="none" stroke="#bfbfbf" points="170,-798.5 170,-817.5 226,-817.5 226,-798.5 170,-798.5"/>
<text text-anchor="middle" x="198" y="-805.5" font-family="Helvetica,sans-Serif" font-size="10.00">uint32_t</text>
</a>
</g>
</g>
<!-- Node23&#45;&gt;Node1 -->
<g id="edge53" class="edge">
<title>Node23&#45;&gt;Node1</title>
<path fill="none" stroke="#9a32cd" stroke-dasharray="5,2" d="M236.46,-805.9C323.53,-801.51 537.24,-793.65 604,-818 680.4,-845.86 748.69,-921.54 771.2,-948.39"/>
<polygon fill="#9a32cd" stroke="#9a32cd" points="236.05,-802.42 226.24,-806.43 236.41,-809.41 236.05,-802.42"/>
<text text-anchor="middle" x="548" y="-898" font-family="Helvetica,sans-Serif" font-size="10.00"> gid</text>
<text text-anchor="middle" x="548" y="-887" font-family="Helvetica,sans-Serif" font-size="10.00">pid</text>
<text text-anchor="middle" x="548" y="-876" font-family="Helvetica,sans-Serif" font-size="10.00">ppid</text>
<text text-anchor="middle" x="548" y="-865" font-family="Helvetica,sans-Serif" font-size="10.00">size</text>
<text text-anchor="middle" x="548" y="-854" font-family="Helvetica,sans-Serif" font-size="10.00">start_time</text>
<text text-anchor="middle" x="548" y="-843" font-family="Helvetica,sans-Serif" font-size="10.00">state</text>
<text text-anchor="middle" x="548" y="-832" font-family="Helvetica,sans-Serif" font-size="10.00">uid</text>
<text text-anchor="middle" x="548" y="-821" font-family="Helvetica,sans-Serif" font-size="10.00">waitpid</text>
</g>
<!-- Node23&#45;&gt;Node22 -->
<g id="edge44" class="edge">
<title>Node23&#45;&gt;Node22</title>
<path fill="none" stroke="#9a32cd" stroke-dasharray="5,2" d="M229.98,-794.47C239.52,-790.53 250.11,-786.38 260,-783 296.22,-770.61 309.56,-778.63 343,-760 370.64,-744.6 396.13,-716.73 408.55,-701.9"/>
<polygon fill="#9a32cd" stroke="#9a32cd" points="228.36,-791.36 220.5,-798.46 231.08,-797.81 228.36,-791.36"/>
<text text-anchor="middle" x="301.5" y="-786" font-family="Helvetica,sans-Serif" font-size="10.00"> line_number</text>
</g>
<!-- Node24 -->
<g id="node24" class="node">
<title>Node24</title>
<g id="a_node24"><a xlink:title=" ">
<polygon fill="none" stroke="#bfbfbf" points="394.5,-760.5 394.5,-779.5 440.5,-779.5 440.5,-760.5 394.5,-760.5"/>
<text text-anchor="middle" x="417.5" y="-767.5" font-family="Helvetica,sans-Serif" font-size="10.00">void *</text>
</a>
</g>
</g>
<!-- Node24&#45;&gt;Node2 -->
<g id="edge46" class="edge">
<title>Node24&#45;&gt;Node2</title>
<path fill="none" stroke="#9a32cd" stroke-dasharray="5,2" d="M450.73,-764.95C498.18,-756.86 583.46,-739.57 604,-717 640.55,-676.83 652.22,-496.39 654.53,-452.6"/>
<polygon fill="#9a32cd" stroke="#9a32cd" points="449.94,-761.54 440.65,-766.63 451.09,-768.44 449.94,-761.54"/>
<text text-anchor="middle" x="548" y="-759" font-family="Helvetica,sans-Serif" font-size="10.00"> fn_return</text>
</g>
<!-- Node25&#45;&gt;Node2 -->
<g id="edge47" class="edge">
<title>Node25&#45;&gt;Node2</title>
<path fill="none" stroke="#9a32cd" stroke-dasharray="5,2" d="M238.3,-525.44C312.3,-526.85 476.38,-523.84 604,-477 619.18,-471.43 634.32,-460.49 644.11,-452.52"/>
<polygon fill="#9a32cd" stroke="#9a32cd" points="238.12,-521.93 228.05,-525.2 237.96,-528.93 238.12,-521.93"/>
<text text-anchor="middle" x="417.5" y="-525" font-family="Helvetica,sans-Serif" font-size="10.00"> for_stack</text>
</g>
</g>
</svg>
