<?xml version="1.0" encoding="UTF-8" standalone="no"?>
<!DOCTYPE svg PUBLIC "-//W3C//DTD SVG 1.1//EN"
 "http://www.w3.org/Graphics/SVG/1.1/DTD/svg11.dtd">
<!-- Generated by graphviz version 2.43.0 (0)
 -->
<!-- Title: netdev Pages: 1 -->
<svg width="460pt" height="253pt"
 viewBox="0.00 0.00 460.00 253.00" xmlns="http://www.w3.org/2000/svg" xmlns:xlink="http://www.w3.org/1999/xlink">
<g id="graph0" class="graph" transform="scale(1 1) rotate(0) translate(4 249)">
<title>netdev</title>
<!-- Node1 -->
<g id="node1" class="node">
<title>Node1</title>
<g id="a_node1"><a xlink:title="An ethernet network device, this relates directly to a physical network card in the machine....">
<polygon fill="#bfbfbf" stroke="black" points="266,-0.5 266,-19.5 316,-19.5 316,-0.5 266,-0.5"/>
<text text-anchor="middle" x="291" y="-7.5" font-family="Helvetica,sans-Serif" font-size="10.00">netdev</text>
</a>
</g>
</g>
<!-- Node2 -->
<g id="node2" class="node">
<title>Node2</title>
<g id="a_node2"><a xlink:href="structnetproto.html" target="_top" xlink:title="Represents a protocol, or group of related protocols, that can be attached to an interface and can ha...">
<polygon fill="none" stroke="black" points="161,-68.5 161,-87.5 219,-87.5 219,-68.5 161,-68.5"/>
<text text-anchor="middle" x="190" y="-75.5" font-family="Helvetica,sans-Serif" font-size="10.00">netproto</text>
</a>
</g>
</g>
<!-- Node2&#45;&gt;Node1 -->
<g id="edge1" class="edge">
<title>Node2&#45;&gt;Node1</title>
<path fill="none" stroke="#9a32cd" stroke-dasharray="5,2" d="M211.71,-62.81C231.8,-49.69 261.01,-30.6 277.79,-19.63"/>
<polygon fill="#9a32cd" stroke="#9a32cd" points="209.66,-59.97 203.2,-68.37 213.49,-65.83 209.66,-59.97"/>
<text text-anchor="middle" x="272.5" y="-41" font-family="Helvetica,sans-Serif" font-size="10.00"> netproto</text>
</g>
<!-- Node3 -->
<g id="node3" class="node">
<title>Node3</title>
<g id="a_node3"><a xlink:title=" ">
<polygon fill="none" stroke="#bfbfbf" points="0,-147.5 0,-166.5 56,-166.5 56,-147.5 0,-147.5"/>
<text text-anchor="middle" x="28" y="-154.5" font-family="Helvetica,sans-Serif" font-size="10.00">uint16_t</text>
</a>
</g>
</g>
<!-- Node3&#45;&gt;Node1 -->
<g id="edge7" class="edge">
<title>Node3&#45;&gt;Node1</title>
<path fill="none" stroke="#9a32cd" stroke-dasharray="5,2" d="M23.81,-137.22C22.69,-127.43 23.13,-115.72 29,-107 82.84,-27.03 211.29,-13.38 265.82,-11.26"/>
<polygon fill="#9a32cd" stroke="#9a32cd" points="20.38,-137.93 25.53,-147.19 27.28,-136.74 20.38,-137.93"/>
<text text-anchor="middle" x="81" y="-81" font-family="Helvetica,sans-Serif" font-size="10.00"> mtu</text>
<text text-anchor="middle" x="81" y="-70" font-family="Helvetica,sans-Serif" font-size="10.00">speed</text>
</g>
<!-- Node3&#45;&gt;Node2 -->
<g id="edge2" class="edge">
<title>Node3&#45;&gt;Node2</title>
<path fill="none" stroke="#9a32cd" stroke-dasharray="5,2" d="M29.98,-137.11C32.05,-126.75 36.3,-114.53 45,-107 61.96,-92.31 123.49,-84.62 160.73,-81.22"/>
<polygon fill="#9a32cd" stroke="#9a32cd" points="26.47,-136.89 28.47,-147.3 33.4,-137.92 26.47,-136.89"/>
<text text-anchor="middle" x="97" y="-121" font-family="Helvetica,sans-Serif" font-size="10.00"> ethernet_protocol_id</text>
<text text-anchor="middle" x="97" y="-110" font-family="Helvetica,sans-Serif" font-size="10.00">num_addresses</text>
</g>
<!-- Node4 -->
<g id="node4" class="node">
<title>Node4</title>
<g id="a_node4"><a xlink:title=" ">
<polygon fill="none" stroke="#bfbfbf" points="197,-225.5 197,-244.5 235,-244.5 235,-225.5 197,-225.5"/>
<text text-anchor="middle" x="216" y="-232.5" font-family="Helvetica,sans-Serif" font-size="10.00">char</text>
</a>
</g>
</g>
<!-- Node4&#45;&gt;Node1 -->
<g id="edge8" class="edge">
<title>Node4&#45;&gt;Node1</title>
<path fill="none" stroke="#9a32cd" stroke-dasharray="5,2" d="M245.31,-233.23C264.8,-231.01 289.11,-224.56 302,-207 306.36,-201.06 326.02,-211.83 299,-38 298.04,-31.82 296.04,-25.07 294.28,-19.86"/>
<polygon fill="#9a32cd" stroke="#9a32cd" points="244.76,-229.77 235.08,-234.08 245.34,-236.74 244.76,-229.77"/>
<text text-anchor="middle" x="340" y="-121" font-family="Helvetica,sans-Serif" font-size="10.00"> description</text>
<text text-anchor="middle" x="340" y="-110" font-family="Helvetica,sans-Serif" font-size="10.00">name</text>
</g>
<!-- Node4&#45;&gt;Node2 -->
<g id="edge3" class="edge">
<title>Node4&#45;&gt;Node2</title>
<path fill="none" stroke="#9a32cd" stroke-dasharray="5,2" d="M201.18,-217.51C190.76,-204.74 177.7,-186.07 172,-167 163.47,-138.46 177.69,-103.52 185.46,-87.62"/>
<polygon fill="#9a32cd" stroke="#9a32cd" points="198.7,-219.99 207.85,-225.34 204.03,-215.45 198.7,-219.99"/>
<text text-anchor="middle" x="187.5" y="-154.5" font-family="Helvetica,sans-Serif" font-size="10.00"> name</text>
</g>
<!-- Node5 -->
<g id="node5" class="node">
<title>Node5</title>
<g id="a_node5"><a xlink:href="structnet__address.html" target="_top" xlink:title="Represents an address that is bound to a protocol on an interface. This is kept as flexible as possib...">
<polygon fill="none" stroke="black" points="212,-147.5 212,-166.5 288,-166.5 288,-147.5 212,-147.5"/>
<text text-anchor="middle" x="250" y="-154.5" font-family="Helvetica,sans-Serif" font-size="10.00">net_address</text>
</a>
</g>
</g>
<!-- Node4&#45;&gt;Node5 -->
<g id="edge5" class="edge">
<title>Node4&#45;&gt;Node5</title>
<path fill="none" stroke="#9a32cd" stroke-dasharray="5,2" d="M212.78,-215.16C212.03,-205.66 212.51,-194.24 217,-185 220.69,-177.41 227.64,-171.23 234.21,-166.7"/>
<polygon fill="#9a32cd" stroke="#9a32cd" points="209.32,-215.69 214.06,-225.17 216.26,-214.8 209.32,-215.69"/>
<text text-anchor="middle" x="232.5" y="-193.5" font-family="Helvetica,sans-Serif" font-size="10.00"> name</text>
</g>
<!-- Node5&#45;&gt;Node2 -->
<g id="edge4" class="edge">
<title>Node5&#45;&gt;Node2</title>
<path fill="none" stroke="#9a32cd" stroke-dasharray="5,2" d="M237.19,-139.56C224.85,-123.73 206.67,-100.39 196.86,-87.81"/>
<polygon fill="#9a32cd" stroke="#9a32cd" points="234.44,-141.73 243.35,-147.47 239.96,-137.43 234.44,-141.73"/>
<text text-anchor="middle" x="255.5" y="-115.5" font-family="Helvetica,sans-Serif" font-size="10.00"> addresses</text>
</g>
<!-- Node6 -->
<g id="node6" class="node">
<title>Node6</title>
<g id="a_node6"><a xlink:title=" ">
<polygon fill="none" stroke="#bfbfbf" points="312,-225.5 312,-244.5 362,-244.5 362,-225.5 312,-225.5"/>
<text text-anchor="middle" x="337" y="-232.5" font-family="Helvetica,sans-Serif" font-size="10.00">uint8_t</text>
</a>
</g>
</g>
<!-- Node6&#45;&gt;Node1 -->
<g id="edge9" class="edge">
<title>Node6&#45;&gt;Node1</title>
<path fill="none" stroke="#9a32cd" stroke-dasharray="5,2" d="M348.6,-216.89C363.66,-192.5 386.69,-146.34 375,-107 364.57,-71.91 355.53,-64.24 330,-38 322.99,-30.8 313.81,-24.33 306.11,-19.53"/>
<polygon fill="#9a32cd" stroke="#9a32cd" points="345.6,-215.08 343.13,-225.38 351.49,-218.87 345.6,-215.08"/>
<text text-anchor="middle" x="415" y="-121" font-family="Helvetica,sans-Serif" font-size="10.00"> flags</text>
<text text-anchor="middle" x="415" y="-110" font-family="Helvetica,sans-Serif" font-size="10.00">num_netprotos</text>
</g>
<!-- Node6&#45;&gt;Node5 -->
<g id="edge6" class="edge">
<title>Node6&#45;&gt;Node5</title>
<path fill="none" stroke="#9a32cd" stroke-dasharray="5,2" d="M319.03,-218.3C301.1,-202.64 274.22,-179.16 259.86,-166.62"/>
<polygon fill="#9a32cd" stroke="#9a32cd" points="317.19,-221.34 327.02,-225.28 321.79,-216.07 317.19,-221.34"/>
<text text-anchor="middle" x="319.5" y="-199" font-family="Helvetica,sans-Serif" font-size="10.00"> bytes</text>
<text text-anchor="middle" x="319.5" y="-188" font-family="Helvetica,sans-Serif" font-size="10.00">length</text>
</g>
</g>
</svg>
