<?xml version="1.0" encoding="UTF-8" standalone="no"?>
<!DOCTYPE svg PUBLIC "-//W3C//DTD SVG 1.1//EN"
 "http://www.w3.org/Graphics/SVG/1.1/DTD/svg11.dtd">
<!-- Generated by graphviz version 2.43.0 (0)
 -->
<!-- Title: partition_t Pages: 1 -->
<svg width="219pt" height="128pt"
 viewBox="0.00 0.00 219.00 128.00" xmlns="http://www.w3.org/2000/svg" xmlns:xlink="http://www.w3.org/1999/xlink">
<g id="graph0" class="graph" transform="scale(1 1) rotate(0) translate(4 124)">
<title>partition_t</title>
<!-- Node1 -->
<g id="node1" class="node">
<title>Node1</title>
<g id="a_node1"><a xlink:title="A disk partition on a storage device.">
<polygon fill="#bfbfbf" stroke="black" points="62.5,-0.5 62.5,-19.5 129.5,-19.5 129.5,-0.5 62.5,-0.5"/>
<text text-anchor="middle" x="96" y="-7.5" font-family="Helvetica,sans-Serif" font-size="10.00">partition_t</text>
</a>
</g>
</g>
<!-- Node2 -->
<g id="node2" class="node">
<title>Node2</title>
<g id="a_node2"><a xlink:title=" ">
<polygon fill="none" stroke="black" points="0,-100.5 0,-119.5 50,-119.5 50,-100.5 0,-100.5"/>
<text text-anchor="middle" x="25" y="-107.5" font-family="Helvetica,sans-Serif" font-size="10.00">uint8_t</text>
</a>
</g>
</g>
<!-- Node2&#45;&gt;Node1 -->
<g id="edge1" class="edge">
<title>Node2&#45;&gt;Node1</title>
<path fill="none" stroke="#9a32cd" stroke-dasharray="5,2" d="M26.25,-90.15C28.16,-74.66 32.96,-52.91 45,-38 51.61,-29.82 61.38,-23.8 70.6,-19.56"/>
<polygon fill="#9a32cd" stroke="#9a32cd" points="22.77,-89.85 25.31,-100.13 29.73,-90.51 22.77,-89.85"/>
<text text-anchor="middle" x="68.5" y="-74" font-family="Helvetica,sans-Serif" font-size="10.00"> bootable</text>
<text text-anchor="middle" x="68.5" y="-63" font-family="Helvetica,sans-Serif" font-size="10.00">endhead</text>
<text text-anchor="middle" x="68.5" y="-52" font-family="Helvetica,sans-Serif" font-size="10.00">starthead</text>
<text text-anchor="middle" x="68.5" y="-41" font-family="Helvetica,sans-Serif" font-size="10.00">systemid</text>
</g>
<!-- Node3 -->
<g id="node3" class="node">
<title>Node3</title>
<g id="a_node3"><a xlink:title=" ">
<polygon fill="none" stroke="black" points="68,-100.5 68,-119.5 124,-119.5 124,-100.5 68,-100.5"/>
<text text-anchor="middle" x="96" y="-107.5" font-family="Helvetica,sans-Serif" font-size="10.00">uint16_t</text>
</a>
</g>
</g>
<!-- Node3&#45;&gt;Node1 -->
<g id="edge2" class="edge">
<title>Node3&#45;&gt;Node1</title>
<path fill="none" stroke="#9a32cd" stroke-dasharray="5,2" d="M96,-90.22C96,-68.95 96,-35.22 96,-19.54"/>
<polygon fill="#9a32cd" stroke="#9a32cd" points="92.5,-90.3 96,-100.3 99.5,-90.3 92.5,-90.3"/>
<text text-anchor="middle" x="125" y="-63" font-family="Helvetica,sans-Serif" font-size="10.00"> endcylsect</text>
<text text-anchor="middle" x="125" y="-52" font-family="Helvetica,sans-Serif" font-size="10.00">startcylsect</text>
</g>
<!-- Node4 -->
<g id="node4" class="node">
<title>Node4</title>
<g id="a_node4"><a xlink:title=" ">
<polygon fill="none" stroke="black" points="149,-100.5 149,-119.5 205,-119.5 205,-100.5 149,-100.5"/>
<text text-anchor="middle" x="177" y="-107.5" font-family="Helvetica,sans-Serif" font-size="10.00">uint32_t</text>
</a>
</g>
</g>
<!-- Node4&#45;&gt;Node1 -->
<g id="edge3" class="edge">
<title>Node4&#45;&gt;Node1</title>
<path fill="none" stroke="#9a32cd" stroke-dasharray="5,2" d="M175.44,-90.44C173.23,-74.79 167.89,-52.66 155,-38 147.64,-29.62 137.15,-23.69 127.05,-19.56"/>
<polygon fill="#9a32cd" stroke="#9a32cd" points="171.97,-90.94 176.56,-100.49 178.93,-90.16 171.97,-90.94"/>
<text text-anchor="middle" x="192" y="-63" font-family="Helvetica,sans-Serif" font-size="10.00"> length</text>
<text text-anchor="middle" x="192" y="-52" font-family="Helvetica,sans-Serif" font-size="10.00">startlba</text>
</g>
</g>
</svg>
