<?xml version="1.0" encoding="UTF-8" standalone="no"?>
<!DOCTYPE svg PUBLIC "-//W3C//DTD SVG 1.1//EN"
 "http://www.w3.org/Graphics/SVG/1.1/DTD/svg11.dtd">
<!-- Generated by graphviz version 2.43.0 (0)
 -->
<!-- Title: iso9660 Pages: 1 -->
<!--zoomable 232 -->
<svg id="main" version="1.1" xmlns="http://www.w3.org/2000/svg" xmlns:xlink="http://www.w3.org/1999/xlink" xml:space="preserve" onload="init(evt)">
<style type="text/css"><![CDATA[
.edge:hover path { stroke: red; }
.edge:hover polygon { stroke: red; fill: red; }
]]></style>
<script type="text/javascript"><![CDATA[
var edges = document.getElementsByTagName('g');
if (edges && edges.length) {
  for (var i=0;i<edges.length;i++) {
    if (edges[i].id.substr(0,4)=='edge') {
      edges[i].setAttribute('class','edge');
    }
  }
}
]]></script>
        <defs>
                <circle id="rim" cx="0" cy="0" r="7"/>
                <circle id="rim2" cx="0" cy="0" r="3.5"/>
                <g id="zoomPlus">
                        <use xlink:href="#rim" fill="#404040">
                                <set attributeName="fill" to="#808080" begin="zoomplus.mouseover" end="zoomplus.mouseout"/>
                        </use>
                        <path d="M-4,0h8M0,-4v8" fill="none" stroke="white" stroke-width="1.5" pointer-events="none"/>
                </g>
                <g id="zoomMin">
                        <use xlink:href="#rim" fill="#404040">
                                <set attributeName="fill" to="#808080" begin="zoomminus.mouseover" end="zoomminus.mouseout"/>
                        </use>
                        <path d="M-4,0h8" fill="none" stroke="white" stroke-width="1.5" pointer-events="none"/>
                </g>
                <g id="dirArrow">
                        <path fill="none" stroke="white" stroke-width="1.5" d="M0,-3.0v7 M-2.5,-0.5L0,-3.0L2.5,-0.5"/>
                </g>
               <g id="resetDef">
                       <use xlink:href="#rim2" fill="#404040">
                               <set attributeName="fill" to="#808080" begin="reset.mouseover" end="reset.mouseout"/>
                       </use>
               </g>
        </defs>

<script type="text/javascript">
var viewWidth = 1229;
var viewHeight = 232;
var sectionId = 'dynsection-0';
</script>
<script xlink:href="svgpan.js"/>
<svg id="graph" class="graph">
<g id="viewport">
<title>iso9660</title>
<!-- Node1 -->
<g id="node1" class="node">
<title>Node1</title>
<g id="a_node1"><a xlink:title=" ">
<polygon fill="#bfbfbf" stroke="black" points="918,-7 918,-26 973,-26 973,-7 918,-7"/>
<text text-anchor="middle" x="945.5" y="-14" font-family="Helvetica,sans-Serif" font-size="10.00">iso9660</text>
</a>
</g>
</g>
<!-- Node2 -->
<g id="node2" class="node">
<title>Node2</title>
<g id="a_node2"><a xlink:href="structfs__directory__entry__t.html" target="_top" xlink:title="A VFS directory entry. Files AND directories have these, but internally there is also a tree of fs_tr...">
<polygon fill="none" stroke="black" points="430.5,-87 430.5,-106 544.5,-106 544.5,-87 430.5,-87"/>
<text text-anchor="middle" x="487.5" y="-94" font-family="Helvetica,sans-Serif" font-size="10.00">fs_directory_entry_t</text>
</a>
</g>
</g>
<!-- Node2&#45;&gt;Node1 -->
<g id="edge1" class="edge">
<title>Node2&#45;&gt;Node1</title>
<path fill="none" stroke="#9a32cd" stroke-dasharray="5,2" d="M547.8,-85.23C648.06,-68.16 845.2,-34.58 917.8,-22.22"/>
<polygon fill="#9a32cd" stroke="#9a32cd" points="547.09,-81.8 537.82,-86.93 548.27,-88.7 547.09,-81.8"/>
<text text-anchor="middle" x="755" y="-54" font-family="Helvetica,sans-Serif" font-size="10.00"> root</text>
</g>
<!-- Node2&#45;&gt;Node2 -->
<g id="edge2" class="edge">
<title>Node2&#45;&gt;Node2</title>
<path fill="none" stroke="#9a32cd" stroke-dasharray="5,2" d="M554.94,-101.96C559.64,-100.71 562.5,-98.89 562.5,-96.5 562.5,-92.67 555.17,-90.31 544.73,-89.41"/>
<polygon fill="#9a32cd" stroke="#9a32cd" points="554.05,-98.56 544.73,-103.59 555.15,-105.47 554.05,-98.56"/>
<text text-anchor="middle" x="575" y="-94" font-family="Helvetica,sans-Serif" font-size="10.00"> next</text>
</g>
<!-- Node4 -->
<g id="node4" class="node">
<title>Node4</title>
<g id="a_node4"><a xlink:href="structfs__tree__t.html" target="_top" xlink:title="Used internally by filesystem.c to cache directories to RAM.">
<polygon fill="none" stroke="black" points="388,-7 388,-26 447,-26 447,-7 388,-7"/>
<text text-anchor="middle" x="417.5" y="-14" font-family="Helvetica,sans-Serif" font-size="10.00">fs_tree_t</text>
</a>
</g>
</g>
<!-- Node2&#45;&gt;Node4 -->
<g id="edge6" class="edge">
<title>Node2&#45;&gt;Node4</title>
<path fill="none" stroke="#9a32cd" stroke-dasharray="5,2" d="M481,-77.37C477.32,-68.77 472.13,-58.71 465.5,-51 456.62,-40.68 443.89,-31.98 433.76,-26.04"/>
<polygon fill="#9a32cd" stroke="#9a32cd" points="477.81,-78.85 484.71,-86.89 484.33,-76.3 477.81,-78.85"/>
<text text-anchor="middle" x="484.5" y="-54" font-family="Helvetica,sans-Serif" font-size="10.00"> files</text>
</g>
<!-- Node3 -->
<g id="node3" class="node">
<title>Node3</title>
<g id="a_node3"><a xlink:title=" ">
<polygon fill="none" stroke="#bfbfbf" points="365.5,-204.5 365.5,-223.5 421.5,-223.5 421.5,-204.5 365.5,-204.5"/>
<text text-anchor="middle" x="393.5" y="-211.5" font-family="Helvetica,sans-Serif" font-size="10.00">uint64_t</text>
</a>
</g>
</g>
<!-- Node3&#45;&gt;Node2 -->
<g id="edge3" class="edge">
<title>Node3&#45;&gt;Node2</title>
<path fill="none" stroke="#9a32cd" stroke-dasharray="5,2" d="M413.05,-198.01C417.12,-194.35 421.18,-190.25 424.5,-186 441.37,-164.37 436.14,-153.02 452.5,-131 459.52,-121.55 469.33,-112.42 476.78,-106.08"/>
<polygon fill="#9a32cd" stroke="#9a32cd" points="410.8,-195.32 405.38,-204.43 415.3,-200.69 410.8,-195.32"/>
<text text-anchor="middle" x="470.5" y="-161.5" font-family="Helvetica,sans-Serif" font-size="10.00"> lbapos</text>
<text text-anchor="middle" x="470.5" y="-150.5" font-family="Helvetica,sans-Serif" font-size="10.00">size</text>
</g>
<!-- Node3&#45;&gt;Node4 -->
<g id="edge5" class="edge">
<title>Node3&#45;&gt;Node4</title>
<path fill="none" stroke="#9a32cd" stroke-dasharray="5,2" d="M375.98,-196.96C373.33,-193.62 370.99,-189.91 369.5,-186 360.81,-163.15 365.8,-155.16 369.5,-131 375.88,-89.34 400.87,-44.58 412.04,-26.17"/>
<polygon fill="#9a32cd" stroke="#9a32cd" points="373.53,-199.47 382.89,-204.43 378.67,-194.71 373.53,-199.47"/>
<text text-anchor="middle" x="402.5" y="-105" font-family="Helvetica,sans-Serif" font-size="10.00"> device</text>
<text text-anchor="middle" x="402.5" y="-94" font-family="Helvetica,sans-Serif" font-size="10.00">lbapos</text>
<text text-anchor="middle" x="402.5" y="-83" font-family="Helvetica,sans-Serif" font-size="10.00">size</text>
</g>
<!-- Node5 -->
<g id="node5" class="node">
<title>Node5</title>
<g id="a_node5"><a xlink:href="structfilesystem__t.html" target="_top" xlink:title="Defines a filesystem driver.">
<polygon fill="none" stroke="black" points="57,-87 57,-106 134,-106 134,-87 57,-87"/>
<text text-anchor="middle" x="95.5" y="-94" font-family="Helvetica,sans-Serif" font-size="10.00">filesystem_t</text>
</a>
</g>
</g>
<!-- Node3&#45;&gt;Node5 -->
<g id="edge9" class="edge">
<title>Node3&#45;&gt;Node5</title>
<path fill="none" stroke="#9a32cd" stroke-dasharray="5,2" d="M355.08,-210.52C334.97,-207.4 311.14,-200.61 294.5,-186 274.59,-168.52 292.08,-147.69 271.5,-131 266.17,-126.68 184.53,-112.39 134.34,-103.94"/>
<polygon fill="#9a32cd" stroke="#9a32cd" points="354.83,-214.01 365.2,-211.83 355.73,-207.07 354.83,-214.01"/>
<text text-anchor="middle" x="318" y="-172.5" font-family="Helvetica,sans-Serif" font-size="10.00"> createdir</text>
<text text-anchor="middle" x="318" y="-161.5" font-family="Helvetica,sans-Serif" font-size="10.00">createfile</text>
<text text-anchor="middle" x="318" y="-150.5" font-family="Helvetica,sans-Serif" font-size="10.00">readfile</text>
<text text-anchor="middle" x="318" y="-139.5" font-family="Helvetica,sans-Serif" font-size="10.00">writefile</text>
</g>
<!-- Node13 -->
<g id="node13" class="node">
<title>Node13</title>
<g id="a_node13"><a xlink:href="structstorage__device__t.html" target="_top" xlink:title="Represents a block storage device e.g. a hard disk, DVD&#45;ROM drive, etc.">
<polygon fill="none" stroke="black" points="895.5,-87 895.5,-106 995.5,-106 995.5,-87 895.5,-87"/>
<text text-anchor="middle" x="945.5" y="-94" font-family="Helvetica,sans-Serif" font-size="10.00">storage_device_t</text>
</a>
</g>
</g>
<!-- Node3&#45;&gt;Node13 -->
<g id="edge23" class="edge">
<title>Node3&#45;&gt;Node13</title>
<path fill="none" stroke="#9a32cd" stroke-dasharray="5,2" d="M431.86,-207.32C469.41,-201.46 522.04,-192.3 529.5,-186 549.5,-169.12 529.36,-146.42 550.5,-131 580.26,-109.29 845.06,-118.36 881.5,-113 892.58,-111.37 904.56,-108.72 915.12,-106.06"/>
<polygon fill="#9a32cd" stroke="#9a32cd" points="431.07,-203.9 421.72,-208.88 432.13,-210.82 431.07,-203.9"/>
<text text-anchor="middle" x="573.5" y="-161.5" font-family="Helvetica,sans-Serif" font-size="10.00"> opaque1</text>
<text text-anchor="middle" x="573.5" y="-150.5" font-family="Helvetica,sans-Serif" font-size="10.00">size</text>
</g>
<!-- Node4&#45;&gt;Node2 -->
<g id="edge4" class="edge">
<title>Node4&#45;&gt;Node2</title>
<path fill="none" stroke="#9a32cd" stroke-dasharray="5,2" d="M413.71,-36.23C413.01,-44.71 413.68,-54.49 418.5,-62 426.27,-74.1 439.76,-81.96 452.77,-86.99"/>
<polygon fill="#9a32cd" stroke="#9a32cd" points="417.21,-36.54 415.21,-26.13 410.28,-35.51 417.21,-36.54"/>
<text text-anchor="middle" x="442" y="-54" font-family="Helvetica,sans-Serif" font-size="10.00"> directory</text>
</g>
<!-- Node4&#45;&gt;Node4 -->
<g id="edge7" class="edge">
<title>Node4&#45;&gt;Node4</title>
<path fill="none" stroke="#9a32cd" stroke-dasharray="5,2" d="M457.17,-22.95C461.91,-21.77 465,-19.62 465,-16.5 465,-11.5 457.08,-9 447.19,-9"/>
<polygon fill="#9a32cd" stroke="#9a32cd" points="456.76,-19.47 447.19,-24 457.5,-26.43 456.76,-19.47"/>
<text text-anchor="middle" x="490" y="-25" font-family="Helvetica,sans-Serif" font-size="10.00"> child_dirs</text>
<text text-anchor="middle" x="490" y="-14" font-family="Helvetica,sans-Serif" font-size="10.00">next</text>
<text text-anchor="middle" x="490" y="-3" font-family="Helvetica,sans-Serif" font-size="10.00">parent</text>
</g>
<!-- Node5&#45;&gt;Node4 -->
<g id="edge8" class="edge">
<title>Node5&#45;&gt;Node4</title>
<path fill="none" stroke="#9a32cd" stroke-dasharray="5,2" d="M94.95,-76.72C95.73,-67.64 98.36,-57.37 105.5,-51 126.34,-32.42 313.87,-22.11 387.77,-18.75"/>
<polygon fill="#9a32cd" stroke="#9a32cd" points="91.45,-76.77 94.73,-86.84 98.44,-76.92 91.45,-76.77"/>
<text text-anchor="middle" x="152.5" y="-54" font-family="Helvetica,sans-Serif" font-size="10.00"> responsible_driver</text>
</g>
<!-- Node5&#45;&gt;Node5 -->
<g id="edge11" class="edge">
<title>Node5&#45;&gt;Node5</title>
<path fill="none" stroke="#9a32cd" stroke-dasharray="5,2" d="M144.22,-102.59C148.98,-101.36 152,-99.33 152,-96.5 152,-91.97 144.27,-89.49 134.06,-89.07"/>
<polygon fill="#9a32cd" stroke="#9a32cd" points="143.51,-99.15 134.06,-103.93 144.43,-106.09 143.51,-99.15"/>
<text text-anchor="middle" x="164.5" y="-94" font-family="Helvetica,sans-Serif" font-size="10.00"> next</text>
</g>
<!-- Node6 -->
<g id="node6" class="node">
<title>Node6</title>
<g id="a_node6"><a xlink:title=" ">
<polygon fill="none" stroke="#bfbfbf" points="63,-204.5 63,-223.5 158,-223.5 158,-204.5 63,-204.5"/>
<text text-anchor="middle" x="110.5" y="-211.5" font-family="Helvetica,sans-Serif" font-size="10.00">void *(*)(void *)</text>
</a>
</g>
</g>
<!-- Node6&#45;&gt;Node5 -->
<g id="edge10" class="edge">
<title>Node6&#45;&gt;Node5</title>
<path fill="none" stroke="#9a32cd" stroke-dasharray="5,2" d="M108.05,-194.16C104.77,-168.87 99.06,-124.94 96.64,-106.28"/>
<polygon fill="#9a32cd" stroke="#9a32cd" points="104.61,-194.85 109.37,-204.32 111.56,-193.95 104.61,-194.85"/>
<text text-anchor="middle" x="123.5" y="-156" font-family="Helvetica,sans-Serif" font-size="10.00"> getdir</text>
</g>
<!-- Node7 -->
<g id="node7" class="node">
<title>Node7</title>
<g id="a_node7"><a xlink:title=" ">
<polygon fill="none" stroke="#bfbfbf" points="684.5,-204.5 684.5,-223.5 722.5,-223.5 722.5,-204.5 684.5,-204.5"/>
<text text-anchor="middle" x="703.5" y="-211.5" font-family="Helvetica,sans-Serif" font-size="10.00">char</text>
</a>
</g>
</g>
<!-- Node7&#45;&gt;Node1 -->
<g id="edge21" class="edge">
<title>Node7&#45;&gt;Node1</title>
<path fill="none" stroke="#9a32cd" stroke-dasharray="5,2" d="M711.28,-194.82C712.42,-191.89 713.54,-188.88 714.5,-186 729.95,-139.79 708.75,-115.14 742.5,-80 766.96,-54.53 868.42,-32.19 917.99,-22.55"/>
<polygon fill="#9a32cd" stroke="#9a32cd" points="708.02,-193.53 707.46,-204.11 714.5,-196.19 708.02,-193.53"/>
<text text-anchor="middle" x="779" y="-94" font-family="Helvetica,sans-Serif" font-size="10.00"> volume_name</text>
</g>
<!-- Node7&#45;&gt;Node2 -->
<g id="edge18" class="edge">
<title>Node7&#45;&gt;Node2</title>
<path fill="none" stroke="#9a32cd" stroke-dasharray="5,2" d="M674.58,-209.26C657.86,-205.75 637.44,-198.99 623.5,-186 604.12,-167.94 620.22,-148.7 600.5,-131 585.12,-117.2 564.29,-109.07 544.7,-104.29"/>
<polygon fill="#9a32cd" stroke="#9a32cd" points="673.95,-212.7 684.42,-211.05 675.2,-205.82 673.95,-212.7"/>
<text text-anchor="middle" x="656.5" y="-167" font-family="Helvetica,sans-Serif" font-size="10.00"> alt_filename</text>
<text text-anchor="middle" x="656.5" y="-156" font-family="Helvetica,sans-Serif" font-size="10.00">device_name</text>
<text text-anchor="middle" x="656.5" y="-145" font-family="Helvetica,sans-Serif" font-size="10.00">filename</text>
</g>
<!-- Node7&#45;&gt;Node4 -->
<g id="edge14" class="edge">
<title>Node7&#45;&gt;Node4</title>
<path fill="none" stroke="#9a32cd" stroke-dasharray="5,2" d="M705.01,-194.2C705.46,-176.19 703.4,-149.14 689.5,-131 677.89,-115.85 667.34,-121.99 650.5,-113 625.69,-99.75 621.92,-92.04 596.5,-80 545.78,-55.98 483.22,-36.23 447.09,-25.72"/>
<polygon fill="#9a32cd" stroke="#9a32cd" points="701.51,-194.14 704.47,-204.31 708.5,-194.52 701.51,-194.14"/>
<text text-anchor="middle" x="685" y="-99.5" font-family="Helvetica,sans-Serif" font-size="10.00"> device_name</text>
<text text-anchor="middle" x="685" y="-88.5" font-family="Helvetica,sans-Serif" font-size="10.00">name</text>
</g>
<!-- Node7&#45;&gt;Node5 -->
<g id="edge12" class="edge">
<title>Node7&#45;&gt;Node5</title>
<path fill="none" stroke="#9a32cd" stroke-dasharray="5,2" d="M673.66,-211.14C596.94,-206.27 397.95,-193.02 385.5,-186 359.17,-171.16 371.59,-146.26 345.5,-131 315.76,-113.61 225.63,-117.75 191.5,-113 172.6,-110.37 151.69,-107.04 134.21,-104.15"/>
<polygon fill="#9a32cd" stroke="#9a32cd" points="673.86,-214.66 684.06,-211.8 674.3,-207.67 673.86,-214.66"/>
<text text-anchor="middle" x="403" y="-172.5" font-family="Helvetica,sans-Serif" font-size="10.00"> mount</text>
<text text-anchor="middle" x="403" y="-161.5" font-family="Helvetica,sans-Serif" font-size="10.00">name</text>
<text text-anchor="middle" x="403" y="-150.5" font-family="Helvetica,sans-Serif" font-size="10.00">rm</text>
<text text-anchor="middle" x="403" y="-139.5" font-family="Helvetica,sans-Serif" font-size="10.00">rmdir</text>
</g>
<!-- Node7&#45;&gt;Node13 -->
<g id="edge24" class="edge">
<title>Node7&#45;&gt;Node13</title>
<path fill="none" stroke="#9a32cd" stroke-dasharray="5,2" d="M732.76,-210.76C756.09,-207.85 788.82,-201.21 813.5,-186 840.88,-169.13 834.32,-149.67 860.5,-131 876.38,-119.67 896.63,-111.5 913.37,-106.06"/>
<polygon fill="#9a32cd" stroke="#9a32cd" points="732.33,-207.28 722.77,-211.84 733.09,-214.24 732.33,-207.28"/>
<text text-anchor="middle" x="876" y="-156" font-family="Helvetica,sans-Serif" font-size="10.00"> name</text>
</g>
<!-- Node8 -->
<g id="node8" class="node">
<title>Node8</title>
<g id="a_node8"><a xlink:title=" ">
<polygon fill="none" stroke="#bfbfbf" points="0,-204.5 0,-223.5 45,-223.5 45,-204.5 0,-204.5"/>
<text text-anchor="middle" x="22.5" y="-211.5" font-family="Helvetica,sans-Serif" font-size="10.00">size_t</text>
</a>
</g>
</g>
<!-- Node8&#45;&gt;Node5 -->
<g id="edge13" class="edge">
<title>Node8&#45;&gt;Node5</title>
<path fill="none" stroke="#9a32cd" stroke-dasharray="5,2" d="M21.62,-194.2C21.72,-176.38 24.37,-149.63 37.5,-131 45.61,-119.5 59.01,-111.39 70.89,-106.03"/>
<polygon fill="#9a32cd" stroke="#9a32cd" points="18.13,-194.52 21.84,-204.45 25.13,-194.37 18.13,-194.52"/>
<text text-anchor="middle" x="67" y="-156" font-family="Helvetica,sans-Serif" font-size="10.00"> truncatefile</text>
</g>
<!-- Node9 -->
<g id="node9" class="node">
<title>Node9</title>
<g id="a_node9"><a xlink:title=" ">
<polygon fill="none" stroke="#bfbfbf" points="206.5,-204.5 206.5,-223.5 256.5,-223.5 256.5,-204.5 206.5,-204.5"/>
<text text-anchor="middle" x="231.5" y="-211.5" font-family="Helvetica,sans-Serif" font-size="10.00">uint8_t</text>
</a>
</g>
</g>
<!-- Node9&#45;&gt;Node2 -->
<g id="edge20" class="edge">
<title>Node9&#45;&gt;Node2</title>
<path fill="none" stroke="#9a32cd" stroke-dasharray="5,2" d="M227.34,-194.43C224.36,-175.77 223.32,-147.47 239.5,-131 263.96,-106.11 360.95,-117.9 395.5,-113 409.93,-110.95 425.59,-108.43 439.82,-106.02"/>
<polygon fill="#9a32cd" stroke="#9a32cd" points="223.93,-195.23 229.26,-204.38 230.8,-193.9 223.93,-195.23"/>
<text text-anchor="middle" x="255.5" y="-178" font-family="Helvetica,sans-Serif" font-size="10.00"> day</text>
<text text-anchor="middle" x="255.5" y="-167" font-family="Helvetica,sans-Serif" font-size="10.00">hour</text>
<text text-anchor="middle" x="255.5" y="-156" font-family="Helvetica,sans-Serif" font-size="10.00">min</text>
<text text-anchor="middle" x="255.5" y="-145" font-family="Helvetica,sans-Serif" font-size="10.00">month</text>
<text text-anchor="middle" x="255.5" y="-134" font-family="Helvetica,sans-Serif" font-size="10.00">sec</text>
</g>
<!-- Node9&#45;&gt;Node4 -->
<g id="edge15" class="edge">
<title>Node9&#45;&gt;Node4</title>
<path fill="none" stroke="#9a32cd" stroke-dasharray="5,2" d="M223.61,-194.83C217.31,-177.31 211.21,-150.64 222.5,-131 258.23,-68.86 342.52,-37.56 387.69,-24.76"/>
<polygon fill="#9a32cd" stroke="#9a32cd" points="220.47,-196.41 227.42,-204.41 226.98,-193.83 220.47,-196.41"/>
<text text-anchor="middle" x="280.5" y="-94" font-family="Helvetica,sans-Serif" font-size="10.00"> dirty</text>
</g>
<!-- Node10 -->
<g id="node10" class="node">
<title>Node10</title>
<g id="a_node10"><a xlink:title=" ">
<polygon fill="none" stroke="#bfbfbf" points="851.5,-204.5 851.5,-223.5 897.5,-223.5 897.5,-204.5 851.5,-204.5"/>
<text text-anchor="middle" x="874.5" y="-211.5" font-family="Helvetica,sans-Serif" font-size="10.00">void *</text>
</a>
</g>
</g>
<!-- Node10&#45;&gt;Node4 -->
<g id="edge16" class="edge">
<title>Node10&#45;&gt;Node4</title>
<path fill="none" stroke="#9a32cd" stroke-dasharray="5,2" d="M854.27,-197.75C850.61,-194.23 847.12,-190.25 844.5,-186 818.87,-144.43 851.9,-112.56 815.5,-80 787.97,-55.37 534.86,-28.83 447.21,-20.3"/>
<polygon fill="#9a32cd" stroke="#9a32cd" points="851.98,-200.4 861.83,-204.3 856.56,-195.1 851.98,-200.4"/>
<text text-anchor="middle" x="853.5" y="-94" font-family="Helvetica,sans-Serif" font-size="10.00"> opaque</text>
</g>
<!-- Node10&#45;&gt;Node13 -->
<g id="edge28" class="edge">
<title>Node10&#45;&gt;Node13</title>
<path fill="none" stroke="#9a32cd" stroke-dasharray="5,2" d="M888.96,-196.13C891.34,-192.9 893.64,-189.44 895.5,-186 907.83,-163.26 901.21,-153.19 914.5,-131 920.2,-121.48 928.94,-112.36 935.68,-106.04"/>
<polygon fill="#9a32cd" stroke="#9a32cd" points="886.17,-194.02 882.69,-204.03 891.65,-198.37 886.17,-194.02"/>
<text text-anchor="middle" x="937.5" y="-156" font-family="Helvetica,sans-Serif" font-size="10.00"> opaque2</text>
</g>
<!-- Node11 -->
<g id="node11" class="node">
<title>Node11</title>
<g id="a_node11"><a xlink:title=" ">
<polygon fill="none" stroke="#bfbfbf" points="477.5,-204.5 477.5,-223.5 533.5,-223.5 533.5,-204.5 477.5,-204.5"/>
<text text-anchor="middle" x="505.5" y="-211.5" font-family="Helvetica,sans-Serif" font-size="10.00">uint16_t</text>
</a>
</g>
</g>
<!-- Node11&#45;&gt;Node2 -->
<g id="edge17" class="edge">
<title>Node11&#45;&gt;Node2</title>
<path fill="none" stroke="#9a32cd" stroke-dasharray="5,2" d="M502.56,-194.16C498.62,-168.87 491.78,-124.94 488.87,-106.28"/>
<polygon fill="#9a32cd" stroke="#9a32cd" points="499.15,-194.98 504.15,-204.32 506.07,-193.9 499.15,-194.98"/>
<text text-anchor="middle" x="513" y="-156" font-family="Helvetica,sans-Serif" font-size="10.00"> year</text>
</g>
<!-- Node12 -->
<g id="node12" class="node">
<title>Node12</title>
<g id="a_node12"><a xlink:title=" ">
<polygon fill="none" stroke="#bfbfbf" points="958.5,-204.5 958.5,-223.5 1014.5,-223.5 1014.5,-204.5 958.5,-204.5"/>
<text text-anchor="middle" x="986.5" y="-211.5" font-family="Helvetica,sans-Serif" font-size="10.00">uint32_t</text>
</a>
</g>
</g>
<!-- Node12&#45;&gt;Node1 -->
<g id="edge29" class="edge">
<title>Node12&#45;&gt;Node1</title>
<path fill="none" stroke="#9a32cd" stroke-dasharray="5,2" d="M1024.8,-210.36C1059.18,-207.11 1105.97,-200.15 1117.5,-186 1132.94,-167.05 1128.58,-152.79 1117.5,-131 1088.06,-73.12 1013.91,-40.26 973.24,-26.04"/>
<polygon fill="#9a32cd" stroke="#9a32cd" points="1024.24,-206.9 1014.58,-211.26 1024.85,-213.87 1024.24,-206.9"/>
<text text-anchor="middle" x="1141.5" y="-105" font-family="Helvetica,sans-Serif" font-size="10.00"> pathtable_lba</text>
<text text-anchor="middle" x="1141.5" y="-94" font-family="Helvetica,sans-Serif" font-size="10.00">rootextent_lba</text>
<text text-anchor="middle" x="1141.5" y="-83" font-family="Helvetica,sans-Serif" font-size="10.00">rootextent_len</text>
</g>
<!-- Node12&#45;&gt;Node2 -->
<g id="edge19" class="edge">
<title>Node12&#45;&gt;Node2</title>
<path fill="none" stroke="#9a32cd" stroke-dasharray="5,2" d="M948.2,-208.62C889.09,-201.79 781.55,-189.07 773.5,-186 733.18,-170.63 733.54,-147.07 693.5,-131 679.86,-125.52 600.76,-113.53 544.66,-105.48"/>
<polygon fill="#9a32cd" stroke="#9a32cd" points="947.95,-212.11 958.29,-209.78 948.76,-205.16 947.95,-212.11"/>
<text text-anchor="middle" x="791.5" y="-161.5" font-family="Helvetica,sans-Serif" font-size="10.00"> device</text>
<text text-anchor="middle" x="791.5" y="-150.5" font-family="Helvetica,sans-Serif" font-size="10.00">flags</text>
</g>
<!-- Node12&#45;&gt;Node13 -->
<g id="edge26" class="edge">
<title>Node12&#45;&gt;Node13</title>
<path fill="none" stroke="#9a32cd" stroke-dasharray="5,2" d="M982.82,-193.91C979.22,-177 973.04,-151.83 964.5,-131 960.85,-122.09 955.29,-112.61 951.13,-106.01"/>
<polygon fill="#9a32cd" stroke="#9a32cd" points="979.48,-195.04 984.89,-204.14 986.34,-193.65 979.48,-195.04"/>
<text text-anchor="middle" x="1008" y="-156" font-family="Helvetica,sans-Serif" font-size="10.00"> block_size</text>
</g>
<!-- Node13&#45;&gt;Node1 -->
<g id="edge22" class="edge">
<title>Node13&#45;&gt;Node1</title>
<path fill="none" stroke="#9a32cd" stroke-dasharray="5,2" d="M945.5,-76.57C945.5,-60.64 945.5,-38.58 945.5,-26.42"/>
<polygon fill="#9a32cd" stroke="#9a32cd" points="942,-76.85 945.5,-86.85 949,-76.85 942,-76.85"/>
<text text-anchor="middle" x="963.5" y="-54" font-family="Helvetica,sans-Serif" font-size="10.00"> device</text>
</g>
<!-- Node13&#45;&gt;Node13 -->
<g id="edge25" class="edge">
<title>Node13&#45;&gt;Node13</title>
<path fill="none" stroke="#9a32cd" stroke-dasharray="5,2" d="M1005.85,-102.18C1010.58,-100.93 1013.5,-99.04 1013.5,-96.5 1013.5,-92.44 1006.02,-90.03 995.61,-89.26"/>
<polygon fill="#9a32cd" stroke="#9a32cd" points="1004.98,-98.78 995.61,-103.74 1006.03,-105.7 1004.98,-98.78"/>
<text text-anchor="middle" x="1026" y="-94" font-family="Helvetica,sans-Serif" font-size="10.00"> next</text>
</g>
<!-- Node14 -->
<g id="node14" class="node">
<title>Node14</title>
<g id="a_node14"><a xlink:title=" ">
<polygon fill="none" stroke="#bfbfbf" points="1137,-204.5 1137,-223.5 1166,-223.5 1166,-204.5 1137,-204.5"/>
<text text-anchor="middle" x="1151.5" y="-211.5" font-family="Helvetica,sans-Serif" font-size="10.00">int</text>
</a>
</g>
</g>
<!-- Node14&#45;&gt;Node1 -->
<g id="edge30" class="edge">
<title>Node14&#45;&gt;Node1</title>
<path fill="none" stroke="#9a32cd" stroke-dasharray="5,2" d="M1163.51,-195.67C1180.86,-168.28 1208.1,-114.57 1181.5,-80 1156.04,-46.92 1030.01,-27.74 973.27,-20.66"/>
<polygon fill="#9a32cd" stroke="#9a32cd" points="1160.48,-193.91 1157.89,-204.18 1166.32,-197.77 1160.48,-193.91"/>
<text text-anchor="middle" x="1206.5" y="-94" font-family="Helvetica,sans-Serif" font-size="10.00"> joliet</text>
</g>
<!-- Node14&#45;&gt;Node13 -->
<g id="edge27" class="edge">
<title>Node14&#45;&gt;Node13</title>
<path fill="none" stroke="#9a32cd" stroke-dasharray="5,2" d="M1133.86,-197.55C1112.66,-179.61 1075.44,-150.04 1039.5,-131 1019.44,-120.38 995.3,-111.85 976.5,-106.06"/>
<polygon fill="#9a32cd" stroke="#9a32cd" points="1131.8,-200.39 1141.67,-204.25 1136.36,-195.08 1131.8,-200.39"/>
<text text-anchor="middle" x="1143.5" y="-161.5" font-family="Helvetica,sans-Serif" font-size="10.00"> blockread</text>
<text text-anchor="middle" x="1143.5" y="-150.5" font-family="Helvetica,sans-Serif" font-size="10.00">blockwrite</text>
</g>
</g>
</svg>
        <g id="navigator" transform="translate(0 0)" fill="#404254">
                <rect fill="#f2f5e9" fill-opacity="0.5" stroke="#606060" stroke-width=".5" x="0" y="0" width="60" height="60"/>
                <use id="zoomplus" xlink:href="#zoomPlus" x="17" y="9" onmousedown="handleZoom(evt,'in')"/>
                <use id="zoomminus" xlink:href="#zoomMin" x="42" y="9" onmousedown="handleZoom(evt,'out')"/>
                <use id="reset" xlink:href="#resetDef" x="30" y="36" onmousedown="handleReset()"/>
                <g id="arrowUp" xlink:href="#dirArrow" transform="translate(30 24)" onmousedown="handlePan(0,-1)">
                  <use xlink:href="#rim" fill="#404040">
                        <set attributeName="fill" to="#808080" begin="arrowUp.mouseover" end="arrowUp.mouseout"/>
                  </use>
                  <path fill="none" stroke="white" stroke-width="1.5" d="M0,-3.0v7 M-2.5,-0.5L0,-3.0L2.5,-0.5"/>
                </g>
                <g id="arrowRight" xlink:href="#dirArrow" transform="rotate(90) translate(36 -43)" onmousedown="handlePan(1,0)">
                  <use xlink:href="#rim" fill="#404040">
                        <set attributeName="fill" to="#808080" begin="arrowRight.mouseover" end="arrowRight.mouseout"/>
                  </use>
                  <path fill="none" stroke="white" stroke-width="1.5" d="M0,-3.0v7 M-2.5,-0.5L0,-3.0L2.5,-0.5"/>
                </g>
                <g id="arrowDown" xlink:href="#dirArrow" transform="rotate(180) translate(-30 -48)" onmousedown="handlePan(0,1)">
                  <use xlink:href="#rim" fill="#404040">
                        <set attributeName="fill" to="#808080" begin="arrowDown.mouseover" end="arrowDown.mouseout"/>
                  </use>
                  <path fill="none" stroke="white" stroke-width="1.5" d="M0,-3.0v7 M-2.5,-0.5L0,-3.0L2.5,-0.5"/>
                </g>
                <g id="arrowLeft" xlink:href="#dirArrow" transform="rotate(270) translate(-36 17)" onmousedown="handlePan(-1,0)">
                  <use xlink:href="#rim" fill="#404040">
                        <set attributeName="fill" to="#808080" begin="arrowLeft.mouseover" end="arrowLeft.mouseout"/>
                  </use>
                  <path fill="none" stroke="white" stroke-width="1.5" d="M0,-3.0v7 M-2.5,-0.5L0,-3.0L2.5,-0.5"/>
                </g>
        </g>
        <svg viewBox="0 0 15 15" width="100%" height="30px" preserveAspectRatio="xMaxYMin meet">
         <g id="arrow_out" transform="scale(0.3 0.3)">
          <a xlink:href="structiso9660__coll__graph_org.svg" target="_base">
           <rect id="button" ry="5" rx="5" y="6" x="6" height="38" width="38"
                fill="#f2f5e9" fill-opacity="0.5" stroke="#606060" stroke-width="1.0"/>
           <path id="arrow"
             d="M 11.500037,31.436501 C 11.940474,20.09759 22.043105,11.32322 32.158766,21.979434 L 37.068811,17.246167 C 37.068811,17.246167 37.088388,32 37.088388,32 L 22.160133,31.978069 C 22.160133,31.978069 26.997745,27.140456 26.997745,27.140456 C 18.528582,18.264221 13.291696,25.230495 11.500037,31.436501 z"
             style="fill:#404040;"/>
          </a>
         </g>
        </svg>
</svg>
