<?xml version="1.0" encoding="UTF-8" standalone="no"?>
<!DOCTYPE svg PUBLIC "-//W3C//DTD SVG 1.1//EN"
 "http://www.w3.org/Graphics/SVG/1.1/DTD/svg11.dtd">
<!-- Generated by graphviz version 2.43.0 (0)
 -->
<!-- Title: process Pages: 1 -->
<svg width="836pt" height="1068pt"
 viewBox="0.00 0.00 836.00 1068.00" xmlns="http://www.w3.org/2000/svg" xmlns:xlink="http://www.w3.org/1999/xlink">
<g id="graph0" class="graph" transform="scale(1 1) rotate(0) translate(4 1064)">
<title>process</title>
<!-- Node1 -->
<g id="node1" class="node">
<title>Node1</title>
<g id="a_node1"><a xlink:title=" ">
<polygon fill="#bfbfbf" stroke="black" points="774,-200.5 774,-219.5 828,-219.5 828,-200.5 774,-200.5"/>
<text text-anchor="middle" x="801" y="-207.5" font-family="Helvetica,sans-Serif" font-size="10.00">process</text>
</a>
</g>
</g>
<!-- Node1&#45;&gt;Node1 -->
<g id="edge55" class="edge">
<title>Node1&#45;&gt;Node1</title>
<path fill="none" stroke="#9a32cd" stroke-dasharray="5,2" d="M790.32,-229.77C791.16,-234.5 794.72,-238 801,-238 811.31,-238 814.29,-228.57 809.94,-219.76"/>
<polygon fill="#9a32cd" stroke="#9a32cd" points="793.79,-230.21 792.06,-219.76 786.9,-229.01 793.79,-230.21"/>
<text text-anchor="middle" x="801" y="-252" font-family="Helvetica,sans-Serif" font-size="10.00"> next</text>
<text text-anchor="middle" x="801" y="-241" font-family="Helvetica,sans-Serif" font-size="10.00">prev</text>
</g>
<!-- Node2 -->
<g id="node2" class="node">
<title>Node2</title>
<g id="a_node2"><a xlink:href="structubasic__ctx.html" target="_top" xlink:title=" ">
<polygon fill="none" stroke="black" points="643,-547.5 643,-566.5 711,-566.5 711,-547.5 643,-547.5"/>
<text text-anchor="middle" x="677" y="-554.5" font-family="Helvetica,sans-Serif" font-size="10.00">ubasic_ctx</text>
</a>
</g>
</g>
<!-- Node2&#45;&gt;Node1 -->
<g id="edge1" class="edge">
<title>Node2&#45;&gt;Node1</title>
<path fill="none" stroke="#9a32cd" stroke-dasharray="5,2" d="M684.8,-537.65C707.47,-473.18 779.92,-267.11 796.57,-219.76"/>
<polygon fill="#9a32cd" stroke="#9a32cd" points="681.41,-536.76 681.39,-547.36 688.01,-539.08 681.41,-536.76"/>
<text text-anchor="middle" x="742.5" y="-407" font-family="Helvetica,sans-Serif" font-size="10.00"> code</text>
</g>
<!-- Node3 -->
<g id="node3" class="node">
<title>Node3</title>
<g id="a_node3"><a xlink:href="structub__var__string__array.html" target="_top" xlink:title=" ">
<polygon fill="none" stroke="black" points="378,-467.5 378,-486.5 491,-486.5 491,-467.5 378,-467.5"/>
<text text-anchor="middle" x="434.5" y="-474.5" font-family="Helvetica,sans-Serif" font-size="10.00">ub_var_string_array</text>
</a>
</g>
</g>
<!-- Node3&#45;&gt;Node2 -->
<g id="edge2" class="edge">
<title>Node3&#45;&gt;Node2</title>
<path fill="none" stroke="#9a32cd" stroke-dasharray="5,2" d="M501.75,-472.71C539.81,-472.99 587.38,-478.21 625,-498 646.57,-509.34 663.02,-533.9 670.89,-547.49"/>
<polygon fill="#9a32cd" stroke="#9a32cd" points="501.27,-469.21 491.28,-472.75 501.29,-476.21 501.27,-469.21"/>
<text text-anchor="middle" x="569" y="-501" font-family="Helvetica,sans-Serif" font-size="10.00"> string_array_variables</text>
</g>
<!-- Node4 -->
<g id="node4" class="node">
<title>Node4</title>
<g id="a_node4"><a xlink:title=" ">
<polygon fill="none" stroke="#bfbfbf" points="176.5,-501.5 176.5,-520.5 232.5,-520.5 232.5,-501.5 176.5,-501.5"/>
<text text-anchor="middle" x="204.5" y="-508.5" font-family="Helvetica,sans-Serif" font-size="10.00">uint64_t</text>
</a>
</g>
</g>
<!-- Node4&#45;&gt;Node2 -->
<g id="edge14" class="edge">
<title>Node4&#45;&gt;Node2</title>
<path fill="none" stroke="#9a32cd" stroke-dasharray="5,2" d="M238.64,-525.17C244.37,-528.32 250.07,-531.95 255,-536 265.03,-544.23 261.33,-553.31 273,-559 306.16,-575.16 319.59,-564.91 356,-559 364.32,-557.65 365.68,-554.35 374,-553 427.08,-544.39 441.23,-552.41 495,-553 546.7,-553.57 606.69,-555.06 642.98,-556.05"/>
<polygon fill="#9a32cd" stroke="#9a32cd" points="240.2,-522.04 229.7,-520.61 237.02,-528.27 240.2,-522.04"/>
<text text-anchor="middle" x="434.5" y="-578" font-family="Helvetica,sans-Serif" font-size="10.00"> for_stack_ptr</text>
<text text-anchor="middle" x="434.5" y="-567" font-family="Helvetica,sans-Serif" font-size="10.00">gosub_stack</text>
<text text-anchor="middle" x="434.5" y="-556" font-family="Helvetica,sans-Serif" font-size="10.00">gosub_stack_ptr</text>
</g>
<!-- Node4&#45;&gt;Node3 -->
<g id="edge3" class="edge">
<title>Node4&#45;&gt;Node3</title>
<path fill="none" stroke="#9a32cd" stroke-dasharray="5,2" d="M234.72,-496.91C251.01,-489.17 268.85,-480.95 273,-480 307.23,-472.18 346.65,-471.33 377.85,-472.48"/>
<polygon fill="#9a32cd" stroke="#9a32cd" points="232.93,-493.88 225.42,-501.35 235.95,-500.2 232.93,-493.88"/>
<text text-anchor="middle" x="314.5" y="-483" font-family="Helvetica,sans-Serif" font-size="10.00"> itemcount</text>
</g>
<!-- Node18 -->
<g id="node18" class="node">
<title>Node18</title>
<g id="a_node18"><a xlink:href="structub__var__int__array.html" target="_top" xlink:title=" ">
<polygon fill="none" stroke="black" points="385.5,-391.5 385.5,-410.5 483.5,-410.5 483.5,-391.5 385.5,-391.5"/>
<text text-anchor="middle" x="434.5" y="-398.5" font-family="Helvetica,sans-Serif" font-size="10.00">ub_var_int_array</text>
</a>
</g>
</g>
<!-- Node4&#45;&gt;Node18 -->
<g id="edge31" class="edge">
<title>Node4&#45;&gt;Node18</title>
<path fill="none" stroke="#9a32cd" stroke-dasharray="5,2" d="M241.16,-496.87C246.12,-494.03 250.9,-490.75 255,-487 266.47,-476.5 261.02,-466.91 273,-457 309.85,-426.54 328.78,-435.5 374,-420 383.33,-416.8 393.55,-413.48 402.84,-410.52"/>
<polygon fill="#9a32cd" stroke="#9a32cd" points="239.47,-493.8 232.18,-501.49 242.67,-500.03 239.47,-493.8"/>
<text text-anchor="middle" x="314.5" y="-460" font-family="Helvetica,sans-Serif" font-size="10.00"> itemcount</text>
</g>
<!-- Node5 -->
<g id="node5" class="node">
<title>Node5</title>
<g id="a_node5"><a xlink:title=" ">
<polygon fill="none" stroke="#bfbfbf" points="6,-449.5 6,-468.5 44,-468.5 44,-449.5 6,-449.5"/>
<text text-anchor="middle" x="25" y="-456.5" font-family="Helvetica,sans-Serif" font-size="10.00">char</text>
</a>
</g>
</g>
<!-- Node5&#45;&gt;Node1 -->
<g id="edge51" class="edge">
<title>Node5&#45;&gt;Node1</title>
<path fill="none" stroke="#9a32cd" stroke-dasharray="5,2" d="M26.46,-439.08C28.25,-373.82 36.36,-167.33 68,-110 105.48,-42.09 125.93,0 203.5,0 203.5,0 203.5,0 678,0 772.03,0 794.82,-159.35 799.13,-200.43"/>
<polygon fill="#9a32cd" stroke="#9a32cd" points="22.95,-439.16 26.2,-449.25 29.95,-439.34 22.95,-439.16"/>
<text text-anchor="middle" x="434.5" y="-25" font-family="Helvetica,sans-Serif" font-size="10.00"> directory</text>
<text text-anchor="middle" x="434.5" y="-14" font-family="Helvetica,sans-Serif" font-size="10.00">name</text>
<text text-anchor="middle" x="434.5" y="-3" font-family="Helvetica,sans-Serif" font-size="10.00">text</text>
</g>
<!-- Node5&#45;&gt;Node2 -->
<g id="edge15" class="edge">
<title>Node5&#45;&gt;Node2</title>
<path fill="none" stroke="#9a32cd" stroke-dasharray="5,2" d="M25.64,-439.05C25.59,-394.92 29.74,-286.64 68,-207 129.13,-79.74 216.55,-50.99 356,-73 420.14,-83.12 452.45,-68.95 495,-118 525.74,-153.44 481.07,-187.63 513,-222 547.92,-259.59 590.21,-212.29 625,-250 666.4,-294.87 674.45,-499.78 675.77,-547.19"/>
<polygon fill="#9a32cd" stroke="#9a32cd" points="22.14,-439.31 25.73,-449.28 29.14,-439.25 22.14,-439.31"/>
<text text-anchor="middle" x="314.5" y="-120" font-family="Helvetica,sans-Serif" font-size="10.00"> item_begin</text>
<text text-anchor="middle" x="314.5" y="-109" font-family="Helvetica,sans-Serif" font-size="10.00">nextptr</text>
<text text-anchor="middle" x="314.5" y="-98" font-family="Helvetica,sans-Serif" font-size="10.00">program_ptr</text>
<text text-anchor="middle" x="314.5" y="-87" font-family="Helvetica,sans-Serif" font-size="10.00">ptr</text>
<text text-anchor="middle" x="314.5" y="-76" font-family="Helvetica,sans-Serif" font-size="10.00">string</text>
</g>
<!-- Node5&#45;&gt;Node3 -->
<g id="edge4" class="edge">
<title>Node5&#45;&gt;Node3</title>
<path fill="none" stroke="#9a32cd" stroke-dasharray="5,2" d="M54.35,-458.93C111.49,-458.98 244.56,-460.03 356,-468 363.03,-468.5 370.39,-469.17 377.68,-469.92"/>
<polygon fill="#9a32cd" stroke="#9a32cd" points="54.27,-455.43 44.27,-458.93 54.27,-462.43 54.27,-455.43"/>
<text text-anchor="middle" x="204.5" y="-465" font-family="Helvetica,sans-Serif" font-size="10.00"> varname</text>
</g>
<!-- Node6 -->
<g id="node6" class="node">
<title>Node6</title>
<g id="a_node6"><a xlink:href="structub__var__string.html" target="_top" xlink:title=" ">
<polygon fill="none" stroke="black" points="163,-545.5 163,-564.5 246,-564.5 246,-545.5 163,-545.5"/>
<text text-anchor="middle" x="204.5" y="-552.5" font-family="Helvetica,sans-Serif" font-size="10.00">ub_var_string</text>
</a>
</g>
</g>
<!-- Node5&#45;&gt;Node6 -->
<g id="edge6" class="edge">
<title>Node5&#45;&gt;Node6</title>
<path fill="none" stroke="#9a32cd" stroke-dasharray="5,2" d="M48.71,-474.18C54.89,-478.15 61.64,-482.34 68,-486 107.81,-508.91 156.1,-532.55 182.95,-545.35"/>
<polygon fill="#9a32cd" stroke="#9a32cd" points="50.46,-471.14 40.17,-468.6 46.63,-477 50.46,-471.14"/>
<text text-anchor="middle" x="102" y="-535" font-family="Helvetica,sans-Serif" font-size="10.00"> value</text>
<text text-anchor="middle" x="102" y="-524" font-family="Helvetica,sans-Serif" font-size="10.00">varname</text>
</g>
<!-- Node8 -->
<g id="node8" class="node">
<title>Node8</title>
<g id="a_node8"><a xlink:href="structub__var__int.html" target="_top" xlink:title=" ">
<polygon fill="none" stroke="black" points="170.5,-771.5 170.5,-790.5 238.5,-790.5 238.5,-771.5 170.5,-771.5"/>
<text text-anchor="middle" x="204.5" y="-778.5" font-family="Helvetica,sans-Serif" font-size="10.00">ub_var_int</text>
</a>
</g>
</g>
<!-- Node5&#45;&gt;Node8 -->
<g id="edge11" class="edge">
<title>Node5&#45;&gt;Node8</title>
<path fill="none" stroke="#9a32cd" stroke-dasharray="5,2" d="M26.95,-479.05C29.84,-533 40.15,-679.75 68,-718 92.28,-751.35 138.67,-767.57 170.34,-775.08"/>
<polygon fill="#9a32cd" stroke="#9a32cd" points="30.43,-478.56 26.42,-468.75 23.43,-478.92 30.43,-478.56"/>
<text text-anchor="middle" x="102" y="-766" font-family="Helvetica,sans-Serif" font-size="10.00"> varname</text>
</g>
<!-- Node10 -->
<g id="node10" class="node">
<title>Node10</title>
<g id="a_node10"><a xlink:href="structconsole.html" target="_top" xlink:title=" ">
<polygon fill="none" stroke="black" points="407.5,-293.5 407.5,-312.5 461.5,-312.5 461.5,-293.5 407.5,-293.5"/>
<text text-anchor="middle" x="434.5" y="-300.5" font-family="Helvetica,sans-Serif" font-size="10.00">console</text>
</a>
</g>
</g>
<!-- Node5&#45;&gt;Node10 -->
<g id="edge17" class="edge">
<title>Node5&#45;&gt;Node10</title>
<path fill="none" stroke="#9a32cd" stroke-dasharray="5,2" d="M33.35,-439.77C48.9,-402.22 89.13,-320.09 154,-289 194.48,-269.6 210.15,-287.24 255,-289 309.2,-291.12 372.45,-296.86 407.23,-300.29"/>
<polygon fill="#9a32cd" stroke="#9a32cd" points="30.08,-438.52 29.61,-449.1 36.58,-441.12 30.08,-438.52"/>
<text text-anchor="middle" x="204.5" y="-314" font-family="Helvetica,sans-Serif" font-size="10.00"> buffer</text>
<text text-anchor="middle" x="204.5" y="-303" font-family="Helvetica,sans-Serif" font-size="10.00">dirty</text>
<text text-anchor="middle" x="204.5" y="-292" font-family="Helvetica,sans-Serif" font-size="10.00">internalbuffer</text>
</g>
<!-- Node14 -->
<g id="node14" class="node">
<title>Node14</title>
<g id="a_node14"><a xlink:href="structub__var__double.html" target="_top" xlink:title=" ">
<polygon fill="none" stroke="black" points="160.5,-996.5 160.5,-1015.5 248.5,-1015.5 248.5,-996.5 160.5,-996.5"/>
<text text-anchor="middle" x="204.5" y="-1003.5" font-family="Helvetica,sans-Serif" font-size="10.00">ub_var_double</text>
</a>
</g>
</g>
<!-- Node5&#45;&gt;Node14 -->
<g id="edge24" class="edge">
<title>Node5&#45;&gt;Node14</title>
<path fill="none" stroke="#9a32cd" stroke-dasharray="5,2" d="M27.17,-478.85C32.36,-565.66 53.69,-908.33 68,-926 87.9,-950.59 108.38,-931.59 136,-947 159.92,-960.35 182.86,-983.23 194.85,-996.23"/>
<polygon fill="#9a32cd" stroke="#9a32cd" points="30.66,-478.54 26.57,-468.76 23.67,-478.95 30.66,-478.54"/>
<text text-anchor="middle" x="102" y="-950" font-family="Helvetica,sans-Serif" font-size="10.00"> varname</text>
</g>
<!-- Node5&#45;&gt;Node18 -->
<g id="edge32" class="edge">
<title>Node5&#45;&gt;Node18</title>
<path fill="none" stroke="#9a32cd" stroke-dasharray="5,2" d="M47.12,-443.72C53.65,-439.33 60.97,-434.72 68,-431 104.46,-411.68 113.5,-403.93 154,-396 234.02,-380.34 329.38,-387.39 385.49,-394.08"/>
<polygon fill="#9a32cd" stroke="#9a32cd" points="45.05,-440.9 38.82,-449.47 49.03,-446.65 45.05,-440.9"/>
<text text-anchor="middle" x="204.5" y="-399" font-family="Helvetica,sans-Serif" font-size="10.00"> varname</text>
</g>
<!-- Node19 -->
<g id="node19" class="node">
<title>Node19</title>
<g id="a_node19"><a xlink:href="structub__proc__fn__def.html" target="_top" xlink:title=" ">
<polygon fill="none" stroke="black" points="389,-793.5 389,-812.5 480,-812.5 480,-793.5 389,-793.5"/>
<text text-anchor="middle" x="434.5" y="-800.5" font-family="Helvetica,sans-Serif" font-size="10.00">ub_proc_fn_def</text>
</a>
</g>
</g>
<!-- Node5&#45;&gt;Node19 -->
<g id="edge35" class="edge">
<title>Node5&#45;&gt;Node19</title>
<path fill="none" stroke="#9a32cd" stroke-dasharray="5,2" d="M26.7,-479.07C28.92,-529.81 37.55,-661.25 68,-690 98.44,-718.74 214.66,-701.8 255,-713 302.35,-726.14 318.17,-726.64 356,-758 366.82,-766.97 362.7,-775.64 374,-784 379.23,-787.87 385.28,-790.97 391.47,-793.45"/>
<polygon fill="#9a32cd" stroke="#9a32cd" points="30.19,-478.62 26.29,-468.77 23.19,-478.9 30.19,-478.62"/>
<text text-anchor="middle" x="204.5" y="-716" font-family="Helvetica,sans-Serif" font-size="10.00"> name</text>
</g>
<!-- Node21 -->
<g id="node21" class="node">
<title>Node21</title>
<g id="a_node21"><a xlink:href="structub__param.html" target="_top" xlink:title=" ">
<polygon fill="none" stroke="black" points="172,-619.5 172,-638.5 237,-638.5 237,-619.5 172,-619.5"/>
<text text-anchor="middle" x="204.5" y="-626.5" font-family="Helvetica,sans-Serif" font-size="10.00">ub_param</text>
</a>
</g>
</g>
<!-- Node5&#45;&gt;Node21 -->
<g id="edge39" class="edge">
<title>Node5&#45;&gt;Node21</title>
<path fill="none" stroke="#9a32cd" stroke-dasharray="5,2" d="M31.81,-478.4C38.27,-497.5 50.2,-526.68 68,-547 98.89,-582.26 148.74,-606.93 178.59,-619.47"/>
<polygon fill="#9a32cd" stroke="#9a32cd" points="35.09,-477.17 28.71,-468.71 28.42,-479.3 35.09,-477.17"/>
<text text-anchor="middle" x="102" y="-601" font-family="Helvetica,sans-Serif" font-size="10.00"> name</text>
</g>
<!-- Node22 -->
<g id="node22" class="node">
<title>Node22</title>
<g id="a_node22"><a xlink:href="structub__line__ref.html" target="_top" xlink:title=" ">
<polygon fill="none" stroke="black" points="399,-127.5 399,-146.5 470,-146.5 470,-127.5 399,-127.5"/>
<text text-anchor="middle" x="434.5" y="-134.5" font-family="Helvetica,sans-Serif" font-size="10.00">ub_line_ref</text>
</a>
</g>
</g>
<!-- Node5&#45;&gt;Node22 -->
<g id="edge43" class="edge">
<title>Node5&#45;&gt;Node22</title>
<path fill="none" stroke="#9a32cd" stroke-dasharray="5,2" d="M28.05,-439.01C31.99,-407.12 42.58,-343.5 68,-296 95.03,-245.49 104.6,-229.01 154,-200 195.44,-175.66 333.59,-152.17 398.82,-142.11"/>
<polygon fill="#9a32cd" stroke="#9a32cd" points="24.54,-438.9 26.89,-449.23 31.5,-439.69 24.54,-438.9"/>
<text text-anchor="middle" x="204.5" y="-203" font-family="Helvetica,sans-Serif" font-size="10.00"> ptr</text>
</g>
<!-- Node25 -->
<g id="node25" class="node">
<title>Node25</title>
<g id="a_node25"><a xlink:href="structfor__state.html" target="_top" xlink:title=" ">
<polygon fill="none" stroke="black" points="174.5,-416.5 174.5,-435.5 234.5,-435.5 234.5,-416.5 174.5,-416.5"/>
<text text-anchor="middle" x="204.5" y="-423.5" font-family="Helvetica,sans-Serif" font-size="10.00">for_state</text>
</a>
</g>
</g>
<!-- Node5&#45;&gt;Node25 -->
<g id="edge48" class="edge">
<title>Node5&#45;&gt;Node25</title>
<path fill="none" stroke="#9a32cd" stroke-dasharray="5,2" d="M54.05,-450.46C58.69,-449.2 63.46,-448 68,-447 104.39,-439.01 146.93,-432.94 174.49,-429.43"/>
<polygon fill="#9a32cd" stroke="#9a32cd" points="52.94,-447.14 44.27,-453.24 54.85,-453.87 52.94,-447.14"/>
<text text-anchor="middle" x="102" y="-450" font-family="Helvetica,sans-Serif" font-size="10.00"> for_variable</text>
</g>
<!-- Node6&#45;&gt;Node2 -->
<g id="edge41" class="edge">
<title>Node6&#45;&gt;Node2</title>
<path fill="none" stroke="#9a32cd" stroke-dasharray="5,2" d="M231.49,-569.1C243.71,-574.95 258.71,-581.06 273,-584 408.14,-611.8 573.6,-580.92 642.95,-565.14"/>
<polygon fill="#9a32cd" stroke="#9a32cd" points="232.86,-565.87 222.35,-564.53 229.72,-572.13 232.86,-565.87"/>
<text text-anchor="middle" x="434.5" y="-609" font-family="Helvetica,sans-Serif" font-size="10.00"> local_string_variables</text>
<text text-anchor="middle" x="434.5" y="-598" font-family="Helvetica,sans-Serif" font-size="10.00">str_variables</text>
</g>
<!-- Node6&#45;&gt;Node3 -->
<g id="edge5" class="edge">
<title>Node6&#45;&gt;Node3</title>
<path fill="none" stroke="#9a32cd" stroke-dasharray="5,2" d="M256.23,-553.9C287.12,-551.14 326.23,-543.75 356,-525 367.28,-517.89 363.43,-509.13 374,-501 381.86,-494.96 391.45,-490.22 400.61,-486.6"/>
<polygon fill="#9a32cd" stroke="#9a32cd" points="255.8,-550.42 246.09,-554.67 256.33,-557.4 255.8,-550.42"/>
<text text-anchor="middle" x="314.5" y="-554" font-family="Helvetica,sans-Serif" font-size="10.00"> values</text>
</g>
<!-- Node6&#45;&gt;Node6 -->
<g id="edge8" class="edge">
<title>Node6&#45;&gt;Node6</title>
<path fill="none" stroke="#9a32cd" stroke-dasharray="5,2" d="M185.61,-574.4C186.87,-579.31 193.17,-583 204.5,-583 222.63,-583 227.87,-573.57 220.22,-564.76"/>
<polygon fill="#9a32cd" stroke="#9a32cd" points="188.98,-575.35 188.78,-564.76 182.33,-573.17 188.98,-575.35"/>
<text text-anchor="middle" x="204.5" y="-586" font-family="Helvetica,sans-Serif" font-size="10.00"> next</text>
</g>
<!-- Node7 -->
<g id="node7" class="node">
<title>Node7</title>
<g id="a_node7"><a xlink:title=" ">
<polygon fill="none" stroke="#bfbfbf" points="6,-972.5 6,-991.5 44,-991.5 44,-972.5 6,-972.5"/>
<text text-anchor="middle" x="25" y="-979.5" font-family="Helvetica,sans-Serif" font-size="10.00">bool</text>
</a>
</g>
</g>
<!-- Node7&#45;&gt;Node6 -->
<g id="edge7" class="edge">
<title>Node7&#45;&gt;Node6</title>
<path fill="none" stroke="#9a32cd" stroke-dasharray="5,2" d="M36.54,-963.04C44.52,-949.25 56.1,-930.38 68,-915 94.93,-880.18 118.17,-883.24 136,-843 178.06,-748.03 113.08,-705.46 154,-610 162,-591.34 178.98,-574.77 190.81,-564.81"/>
<polygon fill="#9a32cd" stroke="#9a32cd" points="33.31,-961.64 31.41,-972.06 39.39,-965.09 33.31,-961.64"/>
<text text-anchor="middle" x="102" y="-918" font-family="Helvetica,sans-Serif" font-size="10.00"> global</text>
</g>
<!-- Node7&#45;&gt;Node8 -->
<g id="edge13" class="edge">
<title>Node7&#45;&gt;Node8</title>
<path fill="none" stroke="#9a32cd" stroke-dasharray="5,2" d="M54.6,-979.97C83.4,-977.31 125.08,-971.54 136,-960 174.87,-918.91 129.57,-885.02 154,-834 162.48,-816.29 179.01,-800.48 190.62,-790.83"/>
<polygon fill="#9a32cd" stroke="#9a32cd" points="53.96,-976.51 44.29,-980.85 54.55,-983.49 53.96,-976.51"/>
<text text-anchor="middle" x="102" y="-981" font-family="Helvetica,sans-Serif" font-size="10.00"> global</text>
</g>
<!-- Node7&#45;&gt;Node14 -->
<g id="edge26" class="edge">
<title>Node7&#45;&gt;Node14</title>
<path fill="none" stroke="#9a32cd" stroke-dasharray="5,2" d="M54,-990.8C58.64,-992.02 63.43,-993.15 68,-994 98.65,-999.68 133.72,-1002.7 160.5,-1004.28"/>
<polygon fill="#9a32cd" stroke="#9a32cd" points="54.8,-987.38 44.22,-988.02 52.89,-994.12 54.8,-987.38"/>
<text text-anchor="middle" x="102" y="-1005" font-family="Helvetica,sans-Serif" font-size="10.00"> global</text>
</g>
<!-- Node8&#45;&gt;Node2 -->
<g id="edge9" class="edge">
<title>Node8&#45;&gt;Node2</title>
<path fill="none" stroke="#9a32cd" stroke-dasharray="5,2" d="M230.44,-795.66C302.68,-836.01 513.96,-938.87 625,-832 664.27,-794.2 673.89,-611.21 675.66,-566.75"/>
<polygon fill="#9a32cd" stroke="#9a32cd" points="232,-792.52 221.58,-790.63 228.55,-798.6 232,-792.52"/>
<text text-anchor="middle" x="434.5" y="-893" font-family="Helvetica,sans-Serif" font-size="10.00"> int_variables</text>
<text text-anchor="middle" x="434.5" y="-882" font-family="Helvetica,sans-Serif" font-size="10.00">local_int_variables</text>
</g>
<!-- Node8&#45;&gt;Node8 -->
<g id="edge10" class="edge">
<title>Node8&#45;&gt;Node8</title>
<path fill="none" stroke="#9a32cd" stroke-dasharray="5,2" d="M185.61,-800.4C186.87,-805.31 193.17,-809 204.5,-809 222.63,-809 227.87,-799.57 220.22,-790.76"/>
<polygon fill="#9a32cd" stroke="#9a32cd" points="188.98,-801.35 188.78,-790.76 182.33,-799.17 188.98,-801.35"/>
<text text-anchor="middle" x="204.5" y="-812" font-family="Helvetica,sans-Serif" font-size="10.00"> next</text>
</g>
<!-- Node8&#45;&gt;Node18 -->
<g id="edge30" class="edge">
<title>Node8&#45;&gt;Node18</title>
<path fill="none" stroke="#9a32cd" stroke-dasharray="5,2" d="M247.37,-769.35C250.27,-767.29 252.88,-764.86 255,-762 288.18,-717.26 237.23,-554.69 273,-512 297.44,-482.83 329.09,-517.9 356,-491 379.02,-467.99 351.69,-443.71 374,-420 377.64,-416.13 382.07,-413.05 386.85,-410.59"/>
<polygon fill="#9a32cd" stroke="#9a32cd" points="245.61,-766.33 238.58,-774.25 249.02,-772.44 245.61,-766.33"/>
<text text-anchor="middle" x="314.5" y="-515" font-family="Helvetica,sans-Serif" font-size="10.00"> values</text>
</g>
<!-- Node9 -->
<g id="node9" class="node">
<title>Node9</title>
<g id="a_node9"><a xlink:title=" ">
<polygon fill="none" stroke="#bfbfbf" points="0,-833.5 0,-852.5 50,-852.5 50,-833.5 0,-833.5"/>
<text text-anchor="middle" x="25" y="-840.5" font-family="Helvetica,sans-Serif" font-size="10.00">int64_t</text>
</a>
</g>
</g>
<!-- Node9&#45;&gt;Node2 -->
<g id="edge20" class="edge">
<title>Node9&#45;&gt;Node2</title>
<path fill="none" stroke="#9a32cd" stroke-dasharray="5,2" d="M34.04,-862.02C40.89,-875.57 52.17,-892.79 68,-901 178.05,-958.09 542.2,-961.28 625,-869 666.51,-822.74 674.49,-614.1 675.78,-566.63"/>
<polygon fill="#9a32cd" stroke="#9a32cd" points="37.04,-860.17 29.65,-852.58 30.69,-863.12 37.04,-860.17"/>
<text text-anchor="middle" x="314.5" y="-955" font-family="Helvetica,sans-Serif" font-size="10.00"> current_linenum</text>
<text text-anchor="middle" x="314.5" y="-944" font-family="Helvetica,sans-Serif" font-size="10.00">eval_linenum</text>
</g>
<!-- Node9&#45;&gt;Node8 -->
<g id="edge12" class="edge">
<title>Node9&#45;&gt;Node8</title>
<path fill="none" stroke="#9a32cd" stroke-dasharray="5,2" d="M59.77,-831.2C93.6,-819.39 145,-801.43 176.29,-790.5"/>
<polygon fill="#9a32cd" stroke="#9a32cd" points="58.59,-827.91 50.31,-834.51 60.9,-834.52 58.59,-827.91"/>
<text text-anchor="middle" x="102" y="-831" font-family="Helvetica,sans-Serif" font-size="10.00"> value</text>
</g>
<!-- Node9&#45;&gt;Node19 -->
<g id="edge36" class="edge">
<title>Node9&#45;&gt;Node19</title>
<path fill="none" stroke="#9a32cd" stroke-dasharray="5,2" d="M60.12,-843.57C81.86,-843.71 110.61,-843.5 136,-842 226.22,-836.68 330.8,-820.65 388.83,-810.88"/>
<polygon fill="#9a32cd" stroke="#9a32cd" points="60.09,-840.06 50.06,-843.47 60.02,-847.06 60.09,-840.06"/>
<text text-anchor="middle" x="204.5" y="-843" font-family="Helvetica,sans-Serif" font-size="10.00"> line</text>
</g>
<!-- Node9&#45;&gt;Node25 -->
<g id="edge49" class="edge">
<title>Node9&#45;&gt;Node25</title>
<path fill="none" stroke="#9a32cd" stroke-dasharray="5,2" d="M27.78,-822.96C31.33,-791.04 41.41,-727.5 68,-681 89.22,-643.9 117.5,-651.53 136,-613 167.55,-547.3 111.97,-509.54 154,-450 158.96,-442.98 166.55,-437.93 174.31,-434.33"/>
<polygon fill="#9a32cd" stroke="#9a32cd" points="24.27,-822.9 26.75,-833.2 31.23,-823.61 24.27,-822.9"/>
<text text-anchor="middle" x="102" y="-706" font-family="Helvetica,sans-Serif" font-size="10.00"> line_after_for</text>
<text text-anchor="middle" x="102" y="-695" font-family="Helvetica,sans-Serif" font-size="10.00">step</text>
<text text-anchor="middle" x="102" y="-684" font-family="Helvetica,sans-Serif" font-size="10.00">to</text>
</g>
<!-- Node10&#45;&gt;Node1 -->
<g id="edge52" class="edge">
<title>Node10&#45;&gt;Node1</title>
<path fill="none" stroke="#9a32cd" stroke-dasharray="5,2" d="M468.73,-289.84C482.31,-284.76 498.27,-279.18 513,-275 619.15,-244.84 649.28,-252.1 756,-224 761.74,-222.49 767.83,-220.68 773.6,-218.88"/>
<polygon fill="#9a32cd" stroke="#9a32cd" points="467.41,-286.6 459.3,-293.42 469.9,-293.14 467.41,-286.6"/>
<text text-anchor="middle" x="677" y="-250" font-family="Helvetica,sans-Serif" font-size="10.00"> cons</text>
</g>
<!-- Node10&#45;&gt;Node2 -->
<g id="edge16" class="edge">
<title>Node10&#45;&gt;Node2</title>
<path fill="none" stroke="#9a32cd" stroke-dasharray="5,2" d="M471.68,-309.55C525.9,-319.45 622.23,-337.33 625,-340 655.74,-369.59 671.36,-509.2 675.1,-547.35"/>
<polygon fill="#9a32cd" stroke="#9a32cd" points="472.22,-306.1 461.75,-307.75 470.97,-312.98 472.22,-306.1"/>
<text text-anchor="middle" x="569" y="-343" font-family="Helvetica,sans-Serif" font-size="10.00"> cons</text>
</g>
<!-- Node11 -->
<g id="node11" class="node">
<title>Node11</title>
<g id="a_node11"><a xlink:title=" ">
<polygon fill="none" stroke="#bfbfbf" points="182,-331.5 182,-350.5 227,-350.5 227,-331.5 182,-331.5"/>
<text text-anchor="middle" x="204.5" y="-338.5" font-family="Helvetica,sans-Serif" font-size="10.00">size_t</text>
</a>
</g>
</g>
<!-- Node11&#45;&gt;Node10 -->
<g id="edge18" class="edge">
<title>Node11&#45;&gt;Node10</title>
<path fill="none" stroke="#9a32cd" stroke-dasharray="5,2" d="M237.24,-335.71C282.59,-328.15 365.05,-314.41 407.19,-307.39"/>
<polygon fill="#9a32cd" stroke="#9a32cd" points="236.65,-332.26 227.36,-337.36 237.8,-339.16 236.65,-332.26"/>
<text text-anchor="middle" x="314.5" y="-331" font-family="Helvetica,sans-Serif" font-size="10.00"> bufcnt</text>
</g>
<!-- Node12 -->
<g id="node12" class="node">
<title>Node12</title>
<g id="a_node12"><a xlink:title=" ">
<polygon fill="none" stroke="#bfbfbf" points="179.5,-220.5 179.5,-239.5 229.5,-239.5 229.5,-220.5 179.5,-220.5"/>
<text text-anchor="middle" x="204.5" y="-227.5" font-family="Helvetica,sans-Serif" font-size="10.00">uint8_t</text>
</a>
</g>
</g>
<!-- Node12&#45;&gt;Node1 -->
<g id="edge54" class="edge">
<title>Node12&#45;&gt;Node1</title>
<path fill="none" stroke="#9a32cd" stroke-dasharray="5,2" d="M239.73,-227.16C250.39,-226.36 262.17,-225.55 273,-225 465.19,-215.15 697.16,-211.36 773.94,-210.32"/>
<polygon fill="#9a32cd" stroke="#9a32cd" points="239.24,-223.69 229.54,-227.95 239.78,-230.67 239.24,-223.69"/>
<text text-anchor="middle" x="569" y="-218" font-family="Helvetica,sans-Serif" font-size="10.00"> cpu</text>
</g>
<!-- Node12&#45;&gt;Node10 -->
<g id="edge19" class="edge">
<title>Node12&#45;&gt;Node10</title>
<path fill="none" stroke="#9a32cd" stroke-dasharray="5,2" d="M240,-228.27C271.32,-227.88 318.24,-230.31 356,-245 383.88,-255.84 410.46,-279.65 424.06,-293.15"/>
<polygon fill="#9a32cd" stroke="#9a32cd" points="239.53,-224.78 229.62,-228.51 239.69,-231.78 239.53,-224.78"/>
<text text-anchor="middle" x="314.5" y="-281" font-family="Helvetica,sans-Serif" font-size="10.00"> attributes</text>
<text text-anchor="middle" x="314.5" y="-270" font-family="Helvetica,sans-Serif" font-size="10.00">last</text>
<text text-anchor="middle" x="314.5" y="-259" font-family="Helvetica,sans-Serif" font-size="10.00">x</text>
<text text-anchor="middle" x="314.5" y="-248" font-family="Helvetica,sans-Serif" font-size="10.00">y</text>
</g>
<!-- Node13 -->
<g id="node13" class="node">
<title>Node13</title>
<g id="a_node13"><a xlink:title=" ">
<polygon fill="none" stroke="#bfbfbf" points="409.5,-755.5 409.5,-774.5 459.5,-774.5 459.5,-755.5 409.5,-755.5"/>
<text text-anchor="middle" x="434.5" y="-762.5" font-family="Helvetica,sans-Serif" font-size="10.00">int32_t</text>
</a>
</g>
</g>
<!-- Node13&#45;&gt;Node2 -->
<g id="edge21" class="edge">
<title>Node13&#45;&gt;Node2</title>
<path fill="none" stroke="#9a32cd" stroke-dasharray="5,2" d="M469.73,-768.85C517.77,-773.48 601.91,-778.5 625,-760 656.12,-735.06 671.37,-603.65 675.08,-566.68"/>
<polygon fill="#9a32cd" stroke="#9a32cd" points="470.08,-765.37 459.78,-767.85 469.38,-772.33 470.08,-765.37"/>
<text text-anchor="middle" x="569" y="-776" font-family="Helvetica,sans-Serif" font-size="10.00"> graphics_colour</text>
</g>
<!-- Node14&#45;&gt;Node2 -->
<g id="edge22" class="edge">
<title>Node14&#45;&gt;Node2</title>
<path fill="none" stroke="#9a32cd" stroke-dasharray="5,2" d="M258.73,-1015.89C348.16,-1029.11 528.28,-1040.65 625,-942 679.17,-886.76 677.2,-621.14 676.21,-566.75"/>
<polygon fill="#9a32cd" stroke="#9a32cd" points="259.22,-1012.42 248.8,-1014.36 258.15,-1019.34 259.22,-1012.42"/>
<text text-anchor="middle" x="434.5" y="-1038" font-family="Helvetica,sans-Serif" font-size="10.00"> double_variables</text>
<text text-anchor="middle" x="434.5" y="-1027" font-family="Helvetica,sans-Serif" font-size="10.00">local_double_variables</text>
</g>
<!-- Node14&#45;&gt;Node14 -->
<g id="edge25" class="edge">
<title>Node14&#45;&gt;Node14</title>
<path fill="none" stroke="#9a32cd" stroke-dasharray="5,2" d="M185.61,-1025.4C186.87,-1030.31 193.17,-1034 204.5,-1034 222.63,-1034 227.87,-1024.57 220.22,-1015.76"/>
<polygon fill="#9a32cd" stroke="#9a32cd" points="188.98,-1026.35 188.78,-1015.76 182.33,-1024.17 188.98,-1026.35"/>
<text text-anchor="middle" x="204.5" y="-1037" font-family="Helvetica,sans-Serif" font-size="10.00"> next</text>
</g>
<!-- Node15 -->
<g id="node15" class="node">
<title>Node15</title>
<g id="a_node15"><a xlink:title=" ">
<polygon fill="none" stroke="#bfbfbf" points="0,-1040.5 0,-1059.5 50,-1059.5 50,-1040.5 0,-1040.5"/>
<text text-anchor="middle" x="25" y="-1047.5" font-family="Helvetica,sans-Serif" font-size="10.00">double</text>
</a>
</g>
</g>
<!-- Node15&#45;&gt;Node14 -->
<g id="edge23" class="edge">
<title>Node15&#45;&gt;Node14</title>
<path fill="none" stroke="#9a32cd" stroke-dasharray="5,2" d="M60.3,-1041.5C90.25,-1034.07 133.69,-1023.31 164.86,-1015.58"/>
<polygon fill="#9a32cd" stroke="#9a32cd" points="59.17,-1038.17 50.31,-1043.97 60.86,-1044.97 59.17,-1038.17"/>
<text text-anchor="middle" x="102" y="-1042" font-family="Helvetica,sans-Serif" font-size="10.00"> value</text>
</g>
<!-- Node16 -->
<g id="node16" class="node">
<title>Node16</title>
<g id="a_node16"><a xlink:title=" ">
<polygon fill="none" stroke="#bfbfbf" points="420,-717.5 420,-736.5 449,-736.5 449,-717.5 420,-717.5"/>
<text text-anchor="middle" x="434.5" y="-724.5" font-family="Helvetica,sans-Serif" font-size="10.00">int</text>
</a>
</g>
</g>
<!-- Node16&#45;&gt;Node2 -->
<g id="edge27" class="edge">
<title>Node16&#45;&gt;Node2</title>
<path fill="none" stroke="#9a32cd" stroke-dasharray="5,2" d="M458.82,-719.89C474.15,-715.34 494.67,-709.48 513,-705 562.37,-692.94 585.9,-714.46 625,-682 661.79,-651.46 672.33,-590.21 675.1,-566.6"/>
<polygon fill="#9a32cd" stroke="#9a32cd" points="457.71,-716.57 449.14,-722.8 459.72,-723.28 457.71,-716.57"/>
<text text-anchor="middle" x="569" y="-752" font-family="Helvetica,sans-Serif" font-size="10.00"> bracket_depth</text>
<text text-anchor="middle" x="569" y="-741" font-family="Helvetica,sans-Serif" font-size="10.00">current_token</text>
<text text-anchor="middle" x="569" y="-730" font-family="Helvetica,sans-Serif" font-size="10.00">ended</text>
<text text-anchor="middle" x="569" y="-719" font-family="Helvetica,sans-Serif" font-size="10.00">errored</text>
<text text-anchor="middle" x="569" y="-708" font-family="Helvetica,sans-Serif" font-size="10.00">oldlen</text>
</g>
<!-- Node17 -->
<g id="node17" class="node">
<title>Node17</title>
<g id="a_node17"><a xlink:title=" ">
<polygon fill="none" stroke="#bfbfbf" points="374,-679.5 374,-698.5 495,-698.5 495,-679.5 374,-679.5"/>
<text text-anchor="middle" x="434.5" y="-686.5" font-family="Helvetica,sans-Serif" font-size="10.00">enum ub_return_type</text>
</a>
</g>
</g>
<!-- Node17&#45;&gt;Node2 -->
<g id="edge28" class="edge">
<title>Node17&#45;&gt;Node2</title>
<path fill="none" stroke="#9a32cd" stroke-dasharray="5,2" d="M485.45,-677.2C494.6,-675.09 504.08,-672.95 513,-671 562.64,-660.14 583.98,-677.99 625,-648 653.36,-627.27 668.03,-585.7 673.47,-566.78"/>
<polygon fill="#9a32cd" stroke="#9a32cd" points="484.63,-673.8 475.68,-679.46 486.21,-680.62 484.63,-673.8"/>
<text text-anchor="middle" x="569" y="-674" font-family="Helvetica,sans-Serif" font-size="10.00"> fn_type</text>
</g>
<!-- Node18&#45;&gt;Node2 -->
<g id="edge29" class="edge">
<title>Node18&#45;&gt;Node2</title>
<path fill="none" stroke="#9a32cd" stroke-dasharray="5,2" d="M491.02,-390.17C532.09,-385.42 587.23,-386.29 625,-415 668.38,-447.97 674.94,-521.11 675.87,-547.37"/>
<polygon fill="#9a32cd" stroke="#9a32cd" points="490.37,-386.73 480.9,-391.49 491.27,-393.67 490.37,-386.73"/>
<text text-anchor="middle" x="569" y="-418" font-family="Helvetica,sans-Serif" font-size="10.00"> int_array_variables</text>
</g>
<!-- Node19&#45;&gt;Node2 -->
<g id="edge33" class="edge">
<title>Node19&#45;&gt;Node2</title>
<path fill="none" stroke="#9a32cd" stroke-dasharray="5,2" d="M486.75,-814.12C528.92,-820.06 587.63,-820.53 625,-788 659.39,-758.07 672.49,-606.33 675.36,-566.56"/>
<polygon fill="#9a32cd" stroke="#9a32cd" points="487.1,-810.63 476.68,-812.55 486.03,-817.55 487.1,-810.63"/>
<text text-anchor="middle" x="569" y="-820" font-family="Helvetica,sans-Serif" font-size="10.00"> defs</text>
</g>
<!-- Node19&#45;&gt;Node19 -->
<g id="edge37" class="edge">
<title>Node19&#45;&gt;Node19</title>
<path fill="none" stroke="#9a32cd" stroke-dasharray="5,2" d="M412.18,-822.03C413.4,-827.13 420.84,-831 434.5,-831 455.83,-831 461.99,-821.57 453,-812.76"/>
<polygon fill="#9a32cd" stroke="#9a32cd" points="415.43,-823.34 416,-812.76 408.95,-820.67 415.43,-823.34"/>
<text text-anchor="middle" x="434.5" y="-834" font-family="Helvetica,sans-Serif" font-size="10.00"> next</text>
</g>
<!-- Node20 -->
<g id="node20" class="node">
<title>Node20</title>
<g id="a_node20"><a xlink:title=" ">
<polygon fill="none" stroke="#bfbfbf" points="154,-733.5 154,-752.5 255,-752.5 255,-733.5 154,-733.5"/>
<text text-anchor="middle" x="204.5" y="-740.5" font-family="Helvetica,sans-Serif" font-size="10.00">enum ub_fn_type</text>
</a>
</g>
</g>
<!-- Node20&#45;&gt;Node19 -->
<g id="edge34" class="edge">
<title>Node20&#45;&gt;Node19</title>
<path fill="none" stroke="#9a32cd" stroke-dasharray="5,2" d="M251.54,-755.12C294.48,-766.42 357.67,-783.05 397.16,-793.44"/>
<polygon fill="#9a32cd" stroke="#9a32cd" points="252.19,-751.67 241.63,-752.51 250.41,-758.44 252.19,-751.67"/>
<text text-anchor="middle" x="314.5" y="-784" font-family="Helvetica,sans-Serif" font-size="10.00"> type</text>
</g>
<!-- Node21&#45;&gt;Node2 -->
<g id="edge50" class="edge">
<title>Node21&#45;&gt;Node2</title>
<path fill="none" stroke="#9a32cd" stroke-dasharray="5,2" d="M247.53,-633.78C325.58,-640.86 496.62,-647.87 625,-592 639.77,-585.57 654.74,-574.66 664.61,-566.73"/>
<polygon fill="#9a32cd" stroke="#9a32cd" points="247.44,-630.25 237.15,-632.78 246.77,-637.22 247.44,-630.25"/>
<text text-anchor="middle" x="434.5" y="-641" font-family="Helvetica,sans-Serif" font-size="10.00"> param</text>
</g>
<!-- Node21&#45;&gt;Node19 -->
<g id="edge38" class="edge">
<title>Node21&#45;&gt;Node19</title>
<path fill="none" stroke="#9a32cd" stroke-dasharray="5,2" d="M234.34,-642.95C246.16,-648.36 260.08,-654.37 273,-659 309.03,-671.92 330.26,-653.67 356,-682 386.96,-716.07 343.71,-749.34 374,-784 378.07,-788.65 383.27,-792.18 388.91,-794.84"/>
<polygon fill="#9a32cd" stroke="#9a32cd" points="235.52,-639.63 224.98,-638.58 232.56,-645.98 235.52,-639.63"/>
<text text-anchor="middle" x="314.5" y="-685" font-family="Helvetica,sans-Serif" font-size="10.00"> params</text>
</g>
<!-- Node21&#45;&gt;Node21 -->
<g id="edge40" class="edge">
<title>Node21&#45;&gt;Node21</title>
<path fill="none" stroke="#9a32cd" stroke-dasharray="5,2" d="M185.61,-648.4C186.87,-653.31 193.17,-657 204.5,-657 222.63,-657 227.87,-647.57 220.22,-638.76"/>
<polygon fill="#9a32cd" stroke="#9a32cd" points="188.98,-649.35 188.78,-638.76 182.33,-647.17 188.98,-649.35"/>
<text text-anchor="middle" x="204.5" y="-660" font-family="Helvetica,sans-Serif" font-size="10.00"> next</text>
</g>
<!-- Node22&#45;&gt;Node2 -->
<g id="edge42" class="edge">
<title>Node22&#45;&gt;Node2</title>
<path fill="none" stroke="#9a32cd" stroke-dasharray="5,2" d="M443.86,-155.74C455.82,-180.57 480.07,-224.22 513,-250 554.86,-282.77 590.71,-251.38 625,-292 658.85,-332.1 672.51,-504.91 675.4,-547.49"/>
<polygon fill="#9a32cd" stroke="#9a32cd" points="447.02,-154.23 439.63,-146.65 440.67,-157.19 447.02,-154.23"/>
<text text-anchor="middle" x="569" y="-306" font-family="Helvetica,sans-Serif" font-size="10.00"> line_tail</text>
<text text-anchor="middle" x="569" y="-295" font-family="Helvetica,sans-Serif" font-size="10.00">lines</text>
</g>
<!-- Node22&#45;&gt;Node22 -->
<g id="edge45" class="edge">
<title>Node22&#45;&gt;Node22</title>
<path fill="none" stroke="#9a32cd" stroke-dasharray="5,2" d="M412.18,-156.03C413.4,-161.13 420.84,-165 434.5,-165 455.83,-165 461.99,-155.57 453,-146.76"/>
<polygon fill="#9a32cd" stroke="#9a32cd" points="415.43,-157.34 416,-146.76 408.95,-154.67 415.43,-157.34"/>
<text text-anchor="middle" x="434.5" y="-179" font-family="Helvetica,sans-Serif" font-size="10.00"> next</text>
<text text-anchor="middle" x="434.5" y="-168" font-family="Helvetica,sans-Serif" font-size="10.00">prev</text>
</g>
<!-- Node23 -->
<g id="node23" class="node">
<title>Node23</title>
<g id="a_node23"><a xlink:title=" ">
<polygon fill="none" stroke="#bfbfbf" points="176.5,-120.5 176.5,-139.5 232.5,-139.5 232.5,-120.5 176.5,-120.5"/>
<text text-anchor="middle" x="204.5" y="-127.5" font-family="Helvetica,sans-Serif" font-size="10.00">uint32_t</text>
</a>
</g>
</g>
<!-- Node23&#45;&gt;Node1 -->
<g id="edge53" class="edge">
<title>Node23&#45;&gt;Node1</title>
<path fill="none" stroke="#9a32cd" stroke-dasharray="5,2" d="M242.78,-122.69C316.94,-109.55 487.65,-86.4 625,-121 689.78,-137.32 757.95,-180.82 786.34,-200.31"/>
<polygon fill="#9a32cd" stroke="#9a32cd" points="241.77,-119.31 232.56,-124.54 243.02,-126.2 241.77,-119.31"/>
<text text-anchor="middle" x="569" y="-201" font-family="Helvetica,sans-Serif" font-size="10.00"> gid</text>
<text text-anchor="middle" x="569" y="-190" font-family="Helvetica,sans-Serif" font-size="10.00">pid</text>
<text text-anchor="middle" x="569" y="-179" font-family="Helvetica,sans-Serif" font-size="10.00">ppid</text>
<text text-anchor="middle" x="569" y="-168" font-family="Helvetica,sans-Serif" font-size="10.00">size</text>
<text text-anchor="middle" x="569" y="-157" font-family="Helvetica,sans-Serif" font-size="10.00">start_time</text>
<text text-anchor="middle" x="569" y="-146" font-family="Helvetica,sans-Serif" font-size="10.00">state</text>
<text text-anchor="middle" x="569" y="-135" font-family="Helvetica,sans-Serif" font-size="10.00">uid</text>
<text text-anchor="middle" x="569" y="-124" font-family="Helvetica,sans-Serif" font-size="10.00">waitpid</text>
</g>
<!-- Node23&#45;&gt;Node22 -->
<g id="edge44" class="edge">
<title>Node23&#45;&gt;Node22</title>
<path fill="none" stroke="#9a32cd" stroke-dasharray="5,2" d="M242.64,-131.14C285.81,-132.47 356.51,-134.64 398.67,-135.93"/>
<polygon fill="#9a32cd" stroke="#9a32cd" points="242.65,-127.64 232.55,-130.83 242.44,-134.64 242.65,-127.64"/>
<text text-anchor="middle" x="314.5" y="-137" font-family="Helvetica,sans-Serif" font-size="10.00"> line_number</text>
</g>
<!-- Node24 -->
<g id="node24" class="node">
<title>Node24</title>
<g id="a_node24"><a xlink:title=" ">
<polygon fill="none" stroke="#bfbfbf" points="411.5,-429.5 411.5,-448.5 457.5,-448.5 457.5,-429.5 411.5,-429.5"/>
<text text-anchor="middle" x="434.5" y="-436.5" font-family="Helvetica,sans-Serif" font-size="10.00">void *</text>
</a>
</g>
</g>
<!-- Node24&#45;&gt;Node2 -->
<g id="edge46" class="edge">
<title>Node24&#45;&gt;Node2</title>
<path fill="none" stroke="#9a32cd" stroke-dasharray="5,2" d="M467.73,-433.51C508.14,-428.44 577.83,-425.9 625,-458 656.65,-479.54 669.85,-526.98 674.21,-547.37"/>
<polygon fill="#9a32cd" stroke="#9a32cd" points="467.06,-430.07 457.63,-434.91 468.02,-437 467.06,-430.07"/>
<text text-anchor="middle" x="569" y="-461" font-family="Helvetica,sans-Serif" font-size="10.00"> fn_return</text>
</g>
<!-- Node25&#45;&gt;Node2 -->
<g id="edge47" class="edge">
<title>Node25&#45;&gt;Node2</title>
<path fill="none" stroke="#9a32cd" stroke-dasharray="5,2" d="M244.2,-414.39C247.86,-413.26 251.5,-412.12 255,-411 308.15,-394.02 318.93,-380.01 374,-371 429.11,-361.99 581.89,-347.5 625,-383 676.52,-425.42 677.68,-516.91 676.56,-547.11"/>
<polygon fill="#9a32cd" stroke="#9a32cd" points="243.13,-411.06 234.6,-417.34 245.19,-417.75 243.13,-411.06"/>
<text text-anchor="middle" x="434.5" y="-374" font-family="Helvetica,sans-Serif" font-size="10.00"> for_stack</text>
</g>
</g>
</svg>
