<?xml version="1.0" encoding="UTF-8" standalone="no"?>
<!DOCTYPE svg PUBLIC "-//W3C//DTD SVG 1.1//EN"
 "http://www.w3.org/Graphics/SVG/1.1/DTD/svg11.dtd">
<!-- Generated by graphviz version 2.43.0 (0)
 -->
<!-- Title: scsi_sense_map_entry_t Pages: 1 -->
<svg width="358pt" height="166pt"
 viewBox="0.00 0.00 358.00 165.50" xmlns="http://www.w3.org/2000/svg" xmlns:xlink="http://www.w3.org/1999/xlink">
<g id="graph0" class="graph" transform="scale(1 1) rotate(0) translate(4 161.5)">
<title>scsi_sense_map_entry_t</title>
<!-- Node1 -->
<g id="node1" class="node">
<title>Node1</title>
<g id="a_node1"><a xlink:title=" ">
<polygon fill="#bfbfbf" stroke="black" points="214,-72 214,-91 350,-91 350,-72 214,-72"/>
<text text-anchor="middle" x="282" y="-79" font-family="Helvetica,sans-Serif" font-size="10.00">scsi_sense_map_entry_t</text>
</a>
</g>
</g>
<!-- Node2 -->
<g id="node2" class="node">
<title>Node2</title>
<g id="a_node2"><a xlink:title=" ">
<polygon fill="none" stroke="#bfbfbf" points="11,-138 11,-157 112,-157 112,-138 11,-138"/>
<text text-anchor="middle" x="61.5" y="-145" font-family="Helvetica,sans-Serif" font-size="10.00">scsi_sense_key_t</text>
</a>
</g>
</g>
<!-- Node2&#45;&gt;Node1 -->
<g id="edge1" class="edge">
<title>Node2&#45;&gt;Node1</title>
<path fill="none" stroke="#9a32cd" stroke-dasharray="5,2" d="M107.4,-135.21C133.36,-127.99 166.61,-118.52 196,-109.5 215.01,-103.67 236.26,-96.67 252.76,-91.12"/>
<polygon fill="#9a32cd" stroke="#9a32cd" points="106.17,-131.92 97.47,-137.97 108.04,-138.67 106.17,-131.92"/>
<text text-anchor="middle" x="168.5" y="-128.5" font-family="Helvetica,sans-Serif" font-size="10.00"> sense_key</text>
</g>
<!-- Node3 -->
<g id="node3" class="node">
<title>Node3</title>
<g id="a_node3"><a xlink:title=" ">
<polygon fill="none" stroke="#bfbfbf" points="0,-88.5 0,-118.5 123,-118.5 123,-88.5 0,-88.5"/>
<text text-anchor="start" x="8" y="-106.5" font-family="Helvetica,sans-Serif" font-size="10.00">scsi_additional_sense</text>
<text text-anchor="middle" x="61.5" y="-95.5" font-family="Helvetica,sans-Serif" font-size="10.00">_code_t</text>
</a>
</g>
</g>
<!-- Node3&#45;&gt;Node1 -->
<g id="edge2" class="edge">
<title>Node3&#45;&gt;Node1</title>
<path fill="none" stroke="#9a32cd" stroke-dasharray="5,2" d="M133.18,-96.38C159.05,-93.78 188.22,-90.84 213.77,-88.27"/>
<polygon fill="#9a32cd" stroke="#9a32cd" points="132.67,-92.92 123.07,-97.4 133.37,-99.88 132.67,-92.92"/>
<text text-anchor="middle" x="168.5" y="-97.5" font-family="Helvetica,sans-Serif" font-size="10.00"> asc</text>
</g>
<!-- Node4 -->
<g id="node4" class="node">
<title>Node4</title>
<g id="a_node4"><a xlink:title=" ">
<polygon fill="none" stroke="#bfbfbf" points="30,-50 30,-69 93,-69 93,-50 30,-50"/>
<text text-anchor="middle" x="61.5" y="-57" font-family="Helvetica,sans-Serif" font-size="10.00">fs_error_t</text>
</a>
</g>
</g>
<!-- Node4&#45;&gt;Node1 -->
<g id="edge3" class="edge">
<title>Node4&#45;&gt;Node1</title>
<path fill="none" stroke="#9a32cd" stroke-dasharray="5,2" d="M103.37,-63.61C134.41,-66.74 177.77,-71.11 213.88,-74.74"/>
<polygon fill="#9a32cd" stroke="#9a32cd" points="103.64,-60.12 93.34,-62.61 102.94,-67.09 103.64,-60.12"/>
<text text-anchor="middle" x="168.5" y="-74.5" font-family="Helvetica,sans-Serif" font-size="10.00"> error</text>
</g>
<!-- Node5 -->
<g id="node5" class="node">
<title>Node5</title>
<g id="a_node5"><a xlink:title=" ">
<polygon fill="none" stroke="#bfbfbf" points="0,-0.5 0,-30.5 123,-30.5 123,-0.5 0,-0.5"/>
<text text-anchor="start" x="8" y="-18.5" font-family="Helvetica,sans-Serif" font-size="10.00">scsi_additional_sense</text>
<text text-anchor="middle" x="61.5" y="-7.5" font-family="Helvetica,sans-Serif" font-size="10.00">_code_qualifier_t</text>
</a>
</g>
</g>
<!-- Node5&#45;&gt;Node1 -->
<g id="edge4" class="edge">
<title>Node5&#45;&gt;Node1</title>
<path fill="none" stroke="#9a32cd" stroke-dasharray="5,2" d="M129.21,-33.17C150.62,-39.05 174.38,-45.82 196,-52.5 215.66,-58.57 237.65,-66.09 254.33,-71.95"/>
<polygon fill="#9a32cd" stroke="#9a32cd" points="130.12,-29.79 119.55,-30.53 128.28,-36.54 130.12,-29.79"/>
<text text-anchor="middle" x="168.5" y="-55.5" font-family="Helvetica,sans-Serif" font-size="10.00"> ascq</text>
</g>
</g>
</svg>
