<?xml version="1.0" encoding="UTF-8" standalone="no"?>
<!DOCTYPE svg PUBLIC "-//W3C//DTD SVG 1.1//EN"
 "http://www.w3.org/Graphics/SVG/1.1/DTD/svg11.dtd">
<!-- Generated by graphviz version 2.43.0 (0)
 -->
<!-- Title: filesystem_t Pages: 1 -->
<svg width="380pt" height="140pt"
 viewBox="0.00 0.00 380.00 139.55" xmlns="http://www.w3.org/2000/svg" xmlns:xlink="http://www.w3.org/1999/xlink">
<g id="graph0" class="graph" transform="scale(1 1) rotate(0) translate(4 135.55)">
<title>filesystem_t</title>
<!-- Node1 -->
<g id="node1" class="node">
<title>Node1</title>
<g id="a_node1"><a xlink:title="Defines a filesystem driver.">
<polygon fill="#bfbfbf" stroke="black" points="167.5,-1.05 167.5,-20.05 244.5,-20.05 244.5,-1.05 167.5,-1.05"/>
<text text-anchor="middle" x="206" y="-8.05" font-family="Helvetica,sans-Serif" font-size="10.00">filesystem_t</text>
</a>
</g>
</g>
<!-- Node1&#45;&gt;Node1 -->
<g id="edge3" class="edge">
<title>Node1&#45;&gt;Node1</title>
<path fill="none" stroke="#9a32cd" stroke-dasharray="5,2" d="M242.69,-20.66C253.81,-20.4 262.5,-17.03 262.5,-10.55 262.5,-2.16 247.97,1.02 232.45,-1.02"/>
<polygon fill="#9a32cd" stroke="#9a32cd" points="242.63,-17.15 232.45,-20.08 242.23,-24.14 242.63,-17.15"/>
<text text-anchor="middle" x="275" y="-8.05" font-family="Helvetica,sans-Serif" font-size="10.00"> next</text>
</g>
<!-- Node2 -->
<g id="node2" class="node">
<title>Node2</title>
<g id="a_node2"><a xlink:title=" ">
<polygon fill="none" stroke="#bfbfbf" points="0,-112.05 0,-131.05 56,-131.05 56,-112.05 0,-112.05"/>
<text text-anchor="middle" x="28" y="-119.05" font-family="Helvetica,sans-Serif" font-size="10.00">uint64_t</text>
</a>
</g>
</g>
<!-- Node2&#45;&gt;Node1 -->
<g id="edge1" class="edge">
<title>Node2&#45;&gt;Node1</title>
<path fill="none" stroke="#9a32cd" stroke-dasharray="5,2" d="M34.68,-102.7C42.71,-83.75 58.06,-54.41 81,-38.55 106.39,-21 141.06,-14.55 167.44,-12.31"/>
<polygon fill="#9a32cd" stroke="#9a32cd" points="31.42,-101.41 30.96,-112 37.92,-104.01 31.42,-101.41"/>
<text text-anchor="middle" x="105.5" y="-74.55" font-family="Helvetica,sans-Serif" font-size="10.00"> createdir</text>
<text text-anchor="middle" x="105.5" y="-63.55" font-family="Helvetica,sans-Serif" font-size="10.00">createfile</text>
<text text-anchor="middle" x="105.5" y="-52.55" font-family="Helvetica,sans-Serif" font-size="10.00">freespace</text>
</g>
<!-- Node3 -->
<g id="node3" class="node">
<title>Node3</title>
<g id="a_node3"><a xlink:title=" ">
<polygon fill="none" stroke="#bfbfbf" points="74.5,-112.05 74.5,-131.05 169.5,-131.05 169.5,-112.05 74.5,-112.05"/>
<text text-anchor="middle" x="122" y="-119.05" font-family="Helvetica,sans-Serif" font-size="10.00">void *(*)(void *)</text>
</a>
</g>
</g>
<!-- Node3&#45;&gt;Node1 -->
<g id="edge2" class="edge">
<title>Node3&#45;&gt;Node1</title>
<path fill="none" stroke="#9a32cd" stroke-dasharray="5,2" d="M129.83,-102.8C138.13,-85.24 152.47,-58.2 170,-38.55 176.35,-31.43 184.82,-24.97 191.95,-20.15"/>
<polygon fill="#9a32cd" stroke="#9a32cd" points="126.63,-101.37 125.66,-111.92 133,-104.28 126.63,-101.37"/>
<text text-anchor="middle" x="186" y="-63.55" font-family="Helvetica,sans-Serif" font-size="10.00"> getdir</text>
</g>
<!-- Node4 -->
<g id="node4" class="node">
<title>Node4</title>
<g id="a_node4"><a xlink:title=" ">
<polygon fill="none" stroke="#bfbfbf" points="188,-112.05 188,-131.05 226,-131.05 226,-112.05 188,-112.05"/>
<text text-anchor="middle" x="207" y="-119.05" font-family="Helvetica,sans-Serif" font-size="10.00">char</text>
</a>
</g>
</g>
<!-- Node4&#45;&gt;Node1 -->
<g id="edge4" class="edge">
<title>Node4&#45;&gt;Node1</title>
<path fill="none" stroke="#9a32cd" stroke-dasharray="5,2" d="M206.83,-101.74C206.61,-77.82 206.24,-37.54 206.08,-20.06"/>
<polygon fill="#9a32cd" stroke="#9a32cd" points="203.33,-102.03 206.92,-111.99 210.33,-101.96 203.33,-102.03"/>
<text text-anchor="middle" x="221.5" y="-63.55" font-family="Helvetica,sans-Serif" font-size="10.00"> name</text>
</g>
<!-- Node5 -->
<g id="node5" class="node">
<title>Node5</title>
<g id="a_node5"><a xlink:title=" ">
<polygon fill="none" stroke="#bfbfbf" points="245.5,-112.05 245.5,-131.05 274.5,-131.05 274.5,-112.05 245.5,-112.05"/>
<text text-anchor="middle" x="260" y="-119.05" font-family="Helvetica,sans-Serif" font-size="10.00">int</text>
</a>
</g>
</g>
<!-- Node5&#45;&gt;Node1 -->
<g id="edge5" class="edge">
<title>Node5&#45;&gt;Node1</title>
<path fill="none" stroke="#9a32cd" stroke-dasharray="5,2" d="M258.23,-101.9C255.85,-84.39 250.38,-58.04 238,-38.55 233.32,-31.18 226,-24.79 219.54,-20.08"/>
<polygon fill="#9a32cd" stroke="#9a32cd" points="254.77,-102.43 259.39,-111.97 261.72,-101.63 254.77,-102.43"/>
<text text-anchor="middle" x="273.5" y="-63.55" font-family="Helvetica,sans-Serif" font-size="10.00"> mount</text>
</g>
<!-- Node6 -->
<g id="node6" class="node">
<title>Node6</title>
<g id="a_node6"><a xlink:title=" ">
<polygon fill="none" stroke="#bfbfbf" points="299,-112.05 299,-131.05 337,-131.05 337,-112.05 299,-112.05"/>
<text text-anchor="middle" x="318" y="-119.05" font-family="Helvetica,sans-Serif" font-size="10.00">bool</text>
</a>
</g>
</g>
<!-- Node6&#45;&gt;Node1 -->
<g id="edge6" class="edge">
<title>Node6&#45;&gt;Node1</title>
<path fill="none" stroke="#9a32cd" stroke-dasharray="5,2" d="M317.7,-101.67C316.39,-83.2 311.53,-55.43 295,-38.55 281.78,-25.05 262.06,-18.25 244.53,-14.84"/>
<polygon fill="#9a32cd" stroke="#9a32cd" points="314.21,-101.96 318.13,-111.8 321.2,-101.66 314.21,-101.96"/>
<text text-anchor="middle" x="344" y="-85.55" font-family="Helvetica,sans-Serif" font-size="10.00"> readfile</text>
<text text-anchor="middle" x="344" y="-74.55" font-family="Helvetica,sans-Serif" font-size="10.00">rm</text>
<text text-anchor="middle" x="344" y="-63.55" font-family="Helvetica,sans-Serif" font-size="10.00">rmdir</text>
<text text-anchor="middle" x="344" y="-52.55" font-family="Helvetica,sans-Serif" font-size="10.00">truncatefile</text>
<text text-anchor="middle" x="344" y="-41.55" font-family="Helvetica,sans-Serif" font-size="10.00">writefile</text>
</g>
</g>
</svg>
