<?xml version="1.0" encoding="UTF-8" standalone="no"?>
<!DOCTYPE svg PUBLIC "-//W3C//DTD SVG 1.1//EN"
 "http://www.w3.org/Graphics/SVG/1.1/DTD/svg11.dtd">
<!-- Generated by graphviz version 2.43.0 (0)
 -->
<!-- Title: up_value Pages: 1 -->
<svg width="357pt" height="95pt"
 viewBox="0.00 0.00 357.00 95.00" xmlns="http://www.w3.org/2000/svg" xmlns:xlink="http://www.w3.org/1999/xlink">
<g id="graph0" class="graph" transform="scale(1 1) rotate(0) translate(4 91)">
<title>up_value</title>
<!-- Node1 -->
<g id="node1" class="node">
<title>Node1</title>
<g id="a_node1"><a xlink:title="Discriminated union carrying a typed expression result.">
<polygon fill="#bfbfbf" stroke="black" points="158,-0.5 158,-19.5 219,-19.5 219,-0.5 158,-0.5"/>
<text text-anchor="middle" x="188.5" y="-7.5" font-family="Helvetica,sans-Serif" font-size="10.00">up_value</text>
</a>
</g>
</g>
<!-- Node2 -->
<g id="node2" class="node">
<title>Node2</title>
<g id="a_node2"><a xlink:title=" ">
<polygon fill="none" stroke="#bfbfbf" points="0,-67.5 0,-86.5 83,-86.5 83,-67.5 0,-67.5"/>
<text text-anchor="middle" x="41.5" y="-74.5" font-family="Helvetica,sans-Serif" font-size="10.00">anonymous:v</text>
</a>
</g>
</g>
<!-- Node2&#45;&gt;Node1 -->
<g id="edge1" class="edge">
<title>Node2&#45;&gt;Node1</title>
<path fill="none" stroke="#9a32cd" stroke-dasharray="5,2" d="M70.26,-63.28C99.38,-50.41 143.6,-30.85 168.9,-19.67"/>
<polygon fill="#9a32cd" stroke="#9a32cd" points="68.75,-60.12 61.02,-67.37 71.58,-66.53 68.75,-60.12"/>
<text text-anchor="middle" x="129.5" y="-41" font-family="Helvetica,sans-Serif" font-size="10.00"> v</text>
</g>
<!-- Node3 -->
<g id="node3" class="node">
<title>Node3</title>
<g id="a_node3"><a xlink:title=" ">
<polygon fill="none" stroke="#bfbfbf" points="101.5,-67.5 101.5,-86.5 151.5,-86.5 151.5,-67.5 101.5,-67.5"/>
<text text-anchor="middle" x="126.5" y="-74.5" font-family="Helvetica,sans-Serif" font-size="10.00">double</text>
</a>
</g>
</g>
<!-- Node3&#45;&gt;Node1 -->
<g id="edge2" class="edge">
<title>Node3&#45;&gt;Node1</title>
<path fill="none" stroke="#9a32cd" stroke-dasharray="5,2" d="M141.76,-60C153.92,-47.25 170.48,-29.89 180.27,-19.63"/>
<polygon fill="#9a32cd" stroke="#9a32cd" points="139.23,-57.58 134.86,-67.23 144.3,-62.41 139.23,-57.58"/>
<text text-anchor="middle" x="165" y="-41" font-family="Helvetica,sans-Serif" font-size="10.00"> r</text>
</g>
<!-- Node4 -->
<g id="node4" class="node">
<title>Node4</title>
<g id="a_node4"><a xlink:title=" ">
<polygon fill="none" stroke="#bfbfbf" points="169.5,-67.5 169.5,-86.5 207.5,-86.5 207.5,-67.5 169.5,-67.5"/>
<text text-anchor="middle" x="188.5" y="-74.5" font-family="Helvetica,sans-Serif" font-size="10.00">char</text>
</a>
</g>
</g>
<!-- Node4&#45;&gt;Node1 -->
<g id="edge3" class="edge">
<title>Node4&#45;&gt;Node1</title>
<path fill="none" stroke="#9a32cd" stroke-dasharray="5,2" d="M188.5,-57.04C188.5,-44.67 188.5,-29.12 188.5,-19.63"/>
<polygon fill="#9a32cd" stroke="#9a32cd" points="185,-57.23 188.5,-67.23 192,-57.23 185,-57.23"/>
<text text-anchor="middle" x="193" y="-41" font-family="Helvetica,sans-Serif" font-size="10.00"> s</text>
</g>
<!-- Node5 -->
<g id="node5" class="node">
<title>Node5</title>
<g id="a_node5"><a xlink:title=" ">
<polygon fill="none" stroke="#bfbfbf" points="225.5,-67.5 225.5,-86.5 275.5,-86.5 275.5,-67.5 225.5,-67.5"/>
<text text-anchor="middle" x="250.5" y="-74.5" font-family="Helvetica,sans-Serif" font-size="10.00">int64_t</text>
</a>
</g>
</g>
<!-- Node5&#45;&gt;Node1 -->
<g id="edge4" class="edge">
<title>Node5&#45;&gt;Node1</title>
<path fill="none" stroke="#9a32cd" stroke-dasharray="5,2" d="M235.24,-60C223.08,-47.25 206.52,-29.89 196.73,-19.63"/>
<polygon fill="#9a32cd" stroke="#9a32cd" points="232.7,-62.41 242.14,-67.23 237.77,-57.58 232.7,-62.41"/>
<text text-anchor="middle" x="226" y="-41" font-family="Helvetica,sans-Serif" font-size="10.00"> i</text>
</g>
<!-- Node6 -->
<g id="node6" class="node">
<title>Node6</title>
<g id="a_node6"><a xlink:title=" ">
<polygon fill="none" stroke="#bfbfbf" points="294,-67.5 294,-86.5 349,-86.5 349,-67.5 294,-67.5"/>
<text text-anchor="middle" x="321.5" y="-74.5" font-family="Helvetica,sans-Serif" font-size="10.00">up_kind</text>
</a>
</g>
</g>
<!-- Node6&#45;&gt;Node1 -->
<g id="edge5" class="edge">
<title>Node6&#45;&gt;Node1</title>
<path fill="none" stroke="#9a32cd" stroke-dasharray="5,2" d="M294.78,-62.94C268.44,-50.07 228.93,-30.76 206.23,-19.67"/>
<polygon fill="#9a32cd" stroke="#9a32cd" points="293.32,-66.12 303.84,-67.37 296.39,-59.83 293.32,-66.12"/>
<text text-anchor="middle" x="275" y="-41" font-family="Helvetica,sans-Serif" font-size="10.00"> kind</text>
</g>
</g>
</svg>
