<?xml version="1.0" encoding="UTF-8" standalone="no"?>
<!DOCTYPE svg PUBLIC "-//W3C//DTD SVG 1.1//EN"
 "http://www.w3.org/Graphics/SVG/1.1/DTD/svg11.dtd">
<!-- Generated by graphviz version 2.43.0 (0)
 -->
<!-- Title: idt_entry_t Pages: 1 -->
<svg width="243pt" height="117pt"
 viewBox="0.00 0.00 243.00 117.00" xmlns="http://www.w3.org/2000/svg" xmlns:xlink="http://www.w3.org/1999/xlink">
<g id="graph0" class="graph" transform="scale(1 1) rotate(0) translate(4 113)">
<title>idt_entry_t</title>
<!-- Node1 -->
<g id="node1" class="node">
<title>Node1</title>
<g id="a_node1"><a xlink:title=" ">
<polygon fill="#bfbfbf" stroke="black" points="64.5,-0.5 64.5,-19.5 133.5,-19.5 133.5,-0.5 64.5,-0.5"/>
<text text-anchor="middle" x="99" y="-7.5" font-family="Helvetica,sans-Serif" font-size="10.00">idt_entry_t</text>
</a>
</g>
</g>
<!-- Node2 -->
<g id="node2" class="node">
<title>Node2</title>
<g id="a_node2"><a xlink:title=" ">
<polygon fill="none" stroke="black" points="0,-89.5 0,-108.5 56,-108.5 56,-89.5 0,-89.5"/>
<text text-anchor="middle" x="28" y="-96.5" font-family="Helvetica,sans-Serif" font-size="10.00">uint16_t</text>
</a>
</g>
</g>
<!-- Node2&#45;&gt;Node1 -->
<g id="edge1" class="edge">
<title>Node2&#45;&gt;Node1</title>
<path fill="none" stroke="#9a32cd" stroke-dasharray="5,2" d="M32.03,-79.3C35.56,-66.51 41.76,-49.79 52,-38 58.79,-30.18 68.42,-24.1 77.2,-19.7"/>
<polygon fill="#9a32cd" stroke="#9a32cd" points="28.56,-78.76 29.59,-89.31 35.36,-80.42 28.56,-78.76"/>
<text text-anchor="middle" x="73.5" y="-63" font-family="Helvetica,sans-Serif" font-size="10.00"> offset_1</text>
<text text-anchor="middle" x="73.5" y="-52" font-family="Helvetica,sans-Serif" font-size="10.00">offset_2</text>
<text text-anchor="middle" x="73.5" y="-41" font-family="Helvetica,sans-Serif" font-size="10.00">selector</text>
</g>
<!-- Node3 -->
<g id="node3" class="node">
<title>Node3</title>
<g id="a_node3"><a xlink:title=" ">
<polygon fill="none" stroke="black" points="74,-89.5 74,-108.5 124,-108.5 124,-89.5 74,-89.5"/>
<text text-anchor="middle" x="99" y="-96.5" font-family="Helvetica,sans-Serif" font-size="10.00">uint8_t</text>
</a>
</g>
</g>
<!-- Node3&#45;&gt;Node1 -->
<g id="edge2" class="edge">
<title>Node3&#45;&gt;Node1</title>
<path fill="none" stroke="#9a32cd" stroke-dasharray="5,2" d="M99,-79.19C99,-60.74 99,-33.41 99,-19.62"/>
<polygon fill="#9a32cd" stroke="#9a32cd" points="95.5,-79.34 99,-89.34 102.5,-79.34 95.5,-79.34"/>
<text text-anchor="middle" x="136.5" y="-57.5" font-family="Helvetica,sans-Serif" font-size="10.00"> ist</text>
<text text-anchor="middle" x="136.5" y="-46.5" font-family="Helvetica,sans-Serif" font-size="10.00">type_attributes</text>
</g>
<!-- Node4 -->
<g id="node4" class="node">
<title>Node4</title>
<g id="a_node4"><a xlink:title=" ">
<polygon fill="none" stroke="black" points="169,-89.5 169,-108.5 225,-108.5 225,-89.5 169,-89.5"/>
<text text-anchor="middle" x="197" y="-96.5" font-family="Helvetica,sans-Serif" font-size="10.00">uint32_t</text>
</a>
</g>
</g>
<!-- Node4&#45;&gt;Node1 -->
<g id="edge3" class="edge">
<title>Node4&#45;&gt;Node1</title>
<path fill="none" stroke="#9a32cd" stroke-dasharray="5,2" d="M194.47,-79.55C191.76,-66.38 186.21,-49.1 175,-38 163.85,-26.97 147.91,-20.42 133.51,-16.55"/>
<polygon fill="#9a32cd" stroke="#9a32cd" points="191.02,-80.15 196.15,-89.42 197.92,-78.97 191.02,-80.15"/>
<text text-anchor="middle" x="213.5" y="-57.5" font-family="Helvetica,sans-Serif" font-size="10.00"> offset_3</text>
<text text-anchor="middle" x="213.5" y="-46.5" font-family="Helvetica,sans-Serif" font-size="10.00">zero</text>
</g>
</g>
</svg>
