<?xml version="1.0" encoding="UTF-8" standalone="no"?>
<!DOCTYPE svg PUBLIC "-//W3C//DTD SVG 1.1//EN"
 "http://www.w3.org/Graphics/SVG/1.1/DTD/svg11.dtd">
<!-- Generated by graphviz version 2.43.0 (0)
 -->
<!-- Title: rsdt_t Pages: 1 -->
<svg width="314pt" height="195pt"
 viewBox="0.00 0.00 314.00 195.00" xmlns="http://www.w3.org/2000/svg" xmlns:xlink="http://www.w3.org/1999/xlink">
<g id="graph0" class="graph" transform="scale(1 1) rotate(0) translate(4 191)">
<title>rsdt_t</title>
<!-- Node1 -->
<g id="node1" class="node">
<title>Node1</title>
<g id="a_node1"><a xlink:title="Root System Description Table (RSDT)">
<polygon fill="#bfbfbf" stroke="black" points="6,-0.5 6,-19.5 50,-19.5 50,-0.5 6,-0.5"/>
<text text-anchor="middle" x="28" y="-7.5" font-family="Helvetica,sans-Serif" font-size="10.00">rsdt_t</text>
</a>
</g>
</g>
<!-- Node2 -->
<g id="node2" class="node">
<title>Node2</title>
<g id="a_node2"><a xlink:title=" ">
<polygon fill="none" stroke="#bfbfbf" points="0,-167.5 0,-186.5 56,-186.5 56,-167.5 0,-167.5"/>
<text text-anchor="middle" x="28" y="-174.5" font-family="Helvetica,sans-Serif" font-size="10.00">uint32_t</text>
</a>
</g>
</g>
<!-- Node2&#45;&gt;Node1 -->
<g id="edge1" class="edge">
<title>Node2&#45;&gt;Node1</title>
<path fill="none" stroke="#9a32cd" stroke-dasharray="5,2" d="M25.34,-157.09C22.61,-135.36 19.03,-98.6 21,-67 22.05,-50.18 24.85,-30.68 26.57,-19.7"/>
<polygon fill="#9a32cd" stroke="#9a32cd" points="21.9,-157.79 26.69,-167.24 28.84,-156.87 21.9,-157.79"/>
<text text-anchor="middle" x="73" y="-74.5" font-family="Helvetica,sans-Serif" font-size="10.00"> pointer_to_other_sdt</text>
</g>
<!-- Node3 -->
<g id="node3" class="node">
<title>Node3</title>
<g id="a_node3"><a xlink:href="structsdt__header__t.html" target="_top" xlink:title="Generic ACPI System Description Table Header.">
<polygon fill="none" stroke="black" points="134,-67.5 134,-86.5 214,-86.5 214,-67.5 134,-67.5"/>
<text text-anchor="middle" x="174" y="-74.5" font-family="Helvetica,sans-Serif" font-size="10.00">sdt_header_t</text>
</a>
</g>
</g>
<!-- Node2&#45;&gt;Node3 -->
<g id="edge4" class="edge">
<title>Node2&#45;&gt;Node3</title>
<path fill="none" stroke="#9a32cd" stroke-dasharray="5,2" d="M37.49,-158.15C46.96,-142 62.97,-118.71 83,-105 97.96,-94.76 116.87,-88.34 133.56,-84.34"/>
<polygon fill="#9a32cd" stroke="#9a32cd" points="34.29,-156.7 32.46,-167.14 40.4,-160.12 34.29,-156.7"/>
<text text-anchor="middle" x="122.5" y="-141" font-family="Helvetica,sans-Serif" font-size="10.00"> creator_id</text>
<text text-anchor="middle" x="122.5" y="-130" font-family="Helvetica,sans-Serif" font-size="10.00">creator_revision</text>
<text text-anchor="middle" x="122.5" y="-119" font-family="Helvetica,sans-Serif" font-size="10.00">length</text>
<text text-anchor="middle" x="122.5" y="-108" font-family="Helvetica,sans-Serif" font-size="10.00">oem_revision</text>
</g>
<!-- Node3&#45;&gt;Node1 -->
<g id="edge2" class="edge">
<title>Node3&#45;&gt;Node1</title>
<path fill="none" stroke="#9a32cd" stroke-dasharray="5,2" d="M145.43,-63.28C116.52,-50.41 72.6,-30.85 47.47,-19.67"/>
<polygon fill="#9a32cd" stroke="#9a32cd" points="144.05,-66.5 154.61,-67.37 146.9,-60.1 144.05,-66.5"/>
<text text-anchor="middle" x="128.5" y="-41" font-family="Helvetica,sans-Serif" font-size="10.00"> header</text>
</g>
<!-- Node4 -->
<g id="node4" class="node">
<title>Node4</title>
<g id="a_node4"><a xlink:title=" ">
<polygon fill="none" stroke="#bfbfbf" points="148,-167.5 148,-186.5 186,-186.5 186,-167.5 148,-167.5"/>
<text text-anchor="middle" x="167" y="-174.5" font-family="Helvetica,sans-Serif" font-size="10.00">char</text>
</a>
</g>
</g>
<!-- Node4&#45;&gt;Node3 -->
<g id="edge3" class="edge">
<title>Node4&#45;&gt;Node3</title>
<path fill="none" stroke="#9a32cd" stroke-dasharray="5,2" d="M166.22,-157.13C165.88,-142.78 165.94,-122.58 168,-105 168.71,-98.9 170.21,-92.15 171.54,-86.92"/>
<polygon fill="#9a32cd" stroke="#9a32cd" points="162.73,-157.34 166.55,-167.22 169.72,-157.11 162.73,-157.34"/>
<text text-anchor="middle" x="201.5" y="-135.5" font-family="Helvetica,sans-Serif" font-size="10.00"> oem_id</text>
<text text-anchor="middle" x="201.5" y="-124.5" font-family="Helvetica,sans-Serif" font-size="10.00">oem_table_id</text>
<text text-anchor="middle" x="201.5" y="-113.5" font-family="Helvetica,sans-Serif" font-size="10.00">signature</text>
</g>
<!-- Node5 -->
<g id="node5" class="node">
<title>Node5</title>
<g id="a_node5"><a xlink:title=" ">
<polygon fill="none" stroke="#bfbfbf" points="232,-167.5 232,-186.5 282,-186.5 282,-167.5 232,-167.5"/>
<text text-anchor="middle" x="257" y="-174.5" font-family="Helvetica,sans-Serif" font-size="10.00">uint8_t</text>
</a>
</g>
</g>
<!-- Node5&#45;&gt;Node3 -->
<g id="edge5" class="edge">
<title>Node5&#45;&gt;Node3</title>
<path fill="none" stroke="#9a32cd" stroke-dasharray="5,2" d="M255.48,-157.4C253.3,-141.72 247.98,-119.58 235,-105 227.53,-96.61 216.96,-90.7 206.72,-86.6"/>
<polygon fill="#9a32cd" stroke="#9a32cd" points="252.02,-157.91 256.58,-167.47 258.98,-157.15 252.02,-157.91"/>
<text text-anchor="middle" x="279.5" y="-130" font-family="Helvetica,sans-Serif" font-size="10.00"> checksum</text>
<text text-anchor="middle" x="279.5" y="-119" font-family="Helvetica,sans-Serif" font-size="10.00">revision</text>
</g>
</g>
</svg>
