<?xml version="1.0" encoding="UTF-8" standalone="no"?>
<!DOCTYPE svg PUBLIC "-//W3C//DTD SVG 1.1//EN"
 "http://www.w3.org/Graphics/SVG/1.1/DTD/svg11.dtd">
<!-- Generated by graphviz version 2.43.0 (0)
 -->
<!-- Title: netdev_t Pages: 1 -->
<svg width="471pt" height="253pt"
 viewBox="0.00 0.00 471.00 253.00" xmlns="http://www.w3.org/2000/svg" xmlns:xlink="http://www.w3.org/1999/xlink">
<g id="graph0" class="graph" transform="scale(1 1) rotate(0) translate(4 249)">
<title>netdev_t</title>
<!-- Node1 -->
<g id="node1" class="node">
<title>Node1</title>
<g id="a_node1"><a xlink:title="An ethernet network device, this relates directly to a physical network card in the machine....">
<polygon fill="#bfbfbf" stroke="black" points="275.5,-0.5 275.5,-19.5 334.5,-19.5 334.5,-0.5 275.5,-0.5"/>
<text text-anchor="middle" x="305" y="-7.5" font-family="Helvetica,sans-Serif" font-size="10.00">netdev_t</text>
</a>
</g>
</g>
<!-- Node2 -->
<g id="node2" class="node">
<title>Node2</title>
<g id="a_node2"><a xlink:href="structnetproto__t.html" target="_top" xlink:title="Represents a protocol, or group of related protocols, that can be attached to an interface and can ha...">
<polygon fill="none" stroke="black" points="149.5,-68.5 149.5,-87.5 216.5,-87.5 216.5,-68.5 149.5,-68.5"/>
<text text-anchor="middle" x="183" y="-75.5" font-family="Helvetica,sans-Serif" font-size="10.00">netproto_t</text>
</a>
</g>
</g>
<!-- Node2&#45;&gt;Node1 -->
<g id="edge1" class="edge">
<title>Node2&#45;&gt;Node1</title>
<path fill="none" stroke="#9a32cd" stroke-dasharray="5,2" d="M207.93,-63.51C232.21,-50.38 268.4,-30.8 289.05,-19.63"/>
<polygon fill="#9a32cd" stroke="#9a32cd" points="206.08,-60.54 198.95,-68.37 209.41,-66.69 206.08,-60.54"/>
<text text-anchor="middle" x="277.5" y="-41" font-family="Helvetica,sans-Serif" font-size="10.00"> netproto</text>
</g>
<!-- Node3 -->
<g id="node3" class="node">
<title>Node3</title>
<g id="a_node3"><a xlink:title=" ">
<polygon fill="none" stroke="#bfbfbf" points="0,-147.5 0,-166.5 56,-166.5 56,-147.5 0,-147.5"/>
<text text-anchor="middle" x="28" y="-154.5" font-family="Helvetica,sans-Serif" font-size="10.00">uint16_t</text>
</a>
</g>
</g>
<!-- Node3&#45;&gt;Node1 -->
<g id="edge7" class="edge">
<title>Node3&#45;&gt;Node1</title>
<path fill="none" stroke="#9a32cd" stroke-dasharray="5,2" d="M24,-137.34C22.93,-127.59 23.36,-115.87 29,-107 82.34,-23.08 215.79,-11.39 275.41,-10.52"/>
<polygon fill="#9a32cd" stroke="#9a32cd" points="20.55,-137.96 25.64,-147.26 27.46,-136.82 20.55,-137.96"/>
<text text-anchor="middle" x="79" y="-81" font-family="Helvetica,sans-Serif" font-size="10.00"> mtu</text>
<text text-anchor="middle" x="79" y="-70" font-family="Helvetica,sans-Serif" font-size="10.00">speed</text>
</g>
<!-- Node3&#45;&gt;Node2 -->
<g id="edge2" class="edge">
<title>Node3&#45;&gt;Node2</title>
<path fill="none" stroke="#9a32cd" stroke-dasharray="5,2" d="M30,-137.14C32.09,-126.8 36.34,-114.57 45,-107 60.27,-93.64 113.76,-85.84 149.49,-82"/>
<polygon fill="#9a32cd" stroke="#9a32cd" points="26.5,-136.91 28.48,-147.31 33.42,-137.94 26.5,-136.91"/>
<text text-anchor="middle" x="97" y="-121" font-family="Helvetica,sans-Serif" font-size="10.00"> ethernet_protocol_id</text>
<text text-anchor="middle" x="97" y="-110" font-family="Helvetica,sans-Serif" font-size="10.00">num_addresses</text>
</g>
<!-- Node4 -->
<g id="node4" class="node">
<title>Node4</title>
<g id="a_node4"><a xlink:title=" ">
<polygon fill="none" stroke="#bfbfbf" points="207,-225.5 207,-244.5 245,-244.5 245,-225.5 207,-225.5"/>
<text text-anchor="middle" x="226" y="-232.5" font-family="Helvetica,sans-Serif" font-size="10.00">char</text>
</a>
</g>
</g>
<!-- Node4&#45;&gt;Node1 -->
<g id="edge8" class="edge">
<title>Node4&#45;&gt;Node1</title>
<path fill="none" stroke="#9a32cd" stroke-dasharray="5,2" d="M255.31,-233.23C274.8,-231.01 299.11,-224.56 312,-207 334.17,-176.81 313.06,-53.76 306.69,-19.75"/>
<polygon fill="#9a32cd" stroke="#9a32cd" points="254.76,-229.77 245.08,-234.08 255.34,-236.74 254.76,-229.77"/>
<text text-anchor="middle" x="350" y="-121" font-family="Helvetica,sans-Serif" font-size="10.00"> description</text>
<text text-anchor="middle" x="350" y="-110" font-family="Helvetica,sans-Serif" font-size="10.00">name</text>
</g>
<!-- Node4&#45;&gt;Node2 -->
<g id="edge3" class="edge">
<title>Node4&#45;&gt;Node2</title>
<path fill="none" stroke="#9a32cd" stroke-dasharray="5,2" d="M208.17,-218.42C195.37,-205.97 179.16,-187.3 172,-167 162.16,-139.12 173.27,-103.56 179.44,-87.52"/>
<polygon fill="#9a32cd" stroke="#9a32cd" points="205.89,-221.08 215.59,-225.33 210.65,-215.95 205.89,-221.08"/>
<text text-anchor="middle" x="187.5" y="-154.5" font-family="Helvetica,sans-Serif" font-size="10.00"> name</text>
</g>
<!-- Node5 -->
<g id="node5" class="node">
<title>Node5</title>
<g id="a_node5"><a xlink:href="structnet__address__t.html" target="_top" xlink:title="Represents an address that is bound to a protocol on an interface. This is kept as flexible as possib...">
<polygon fill="none" stroke="black" points="212.5,-147.5 212.5,-166.5 297.5,-166.5 297.5,-147.5 212.5,-147.5"/>
<text text-anchor="middle" x="255" y="-154.5" font-family="Helvetica,sans-Serif" font-size="10.00">net_address_t</text>
</a>
</g>
</g>
<!-- Node4&#45;&gt;Node5 -->
<g id="edge5" class="edge">
<title>Node4&#45;&gt;Node5</title>
<path fill="none" stroke="#9a32cd" stroke-dasharray="5,2" d="M223.1,-215.3C222.43,-205.85 222.89,-194.41 227,-185 230.19,-177.7 236.39,-171.39 242.14,-166.71"/>
<polygon fill="#9a32cd" stroke="#9a32cd" points="219.62,-215.72 224.24,-225.25 226.58,-214.92 219.62,-215.72"/>
<text text-anchor="middle" x="242.5" y="-193.5" font-family="Helvetica,sans-Serif" font-size="10.00"> name</text>
</g>
<!-- Node5&#45;&gt;Node2 -->
<g id="edge4" class="edge">
<title>Node5&#45;&gt;Node2</title>
<path fill="none" stroke="#9a32cd" stroke-dasharray="5,2" d="M240.04,-140C225.23,-124.16 203.11,-100.51 191.24,-87.81"/>
<polygon fill="#9a32cd" stroke="#9a32cd" points="237.63,-142.55 247.02,-147.47 242.75,-137.77 237.63,-142.55"/>
<text text-anchor="middle" x="256.5" y="-115.5" font-family="Helvetica,sans-Serif" font-size="10.00"> addresses</text>
</g>
<!-- Node6 -->
<g id="node6" class="node">
<title>Node6</title>
<g id="a_node6"><a xlink:title=" ">
<polygon fill="none" stroke="#bfbfbf" points="322,-225.5 322,-244.5 372,-244.5 372,-225.5 322,-225.5"/>
<text text-anchor="middle" x="347" y="-232.5" font-family="Helvetica,sans-Serif" font-size="10.00">uint8_t</text>
</a>
</g>
</g>
<!-- Node6&#45;&gt;Node1 -->
<g id="edge9" class="edge">
<title>Node6&#45;&gt;Node1</title>
<path fill="none" stroke="#9a32cd" stroke-dasharray="5,2" d="M358.6,-216.89C373.66,-192.5 396.69,-146.34 385,-107 374.57,-71.91 364.84,-64.89 340,-38 333.54,-31.01 325.13,-24.46 318.17,-19.56"/>
<polygon fill="#9a32cd" stroke="#9a32cd" points="355.6,-215.08 353.13,-225.38 361.49,-218.87 355.6,-215.08"/>
<text text-anchor="middle" x="426" y="-121" font-family="Helvetica,sans-Serif" font-size="10.00"> flags</text>
<text text-anchor="middle" x="426" y="-110" font-family="Helvetica,sans-Serif" font-size="10.00">num_netprotos</text>
</g>
<!-- Node6&#45;&gt;Node5 -->
<g id="edge6" class="edge">
<title>Node6&#45;&gt;Node5</title>
<path fill="none" stroke="#9a32cd" stroke-dasharray="5,2" d="M328.51,-218.73C309.56,-203.07 280.75,-179.27 265.43,-166.62"/>
<polygon fill="#9a32cd" stroke="#9a32cd" points="326.51,-221.61 336.45,-225.28 330.97,-216.21 326.51,-221.61"/>
<text text-anchor="middle" x="327.5" y="-199" font-family="Helvetica,sans-Serif" font-size="10.00"> bytes</text>
<text text-anchor="middle" x="327.5" y="-188" font-family="Helvetica,sans-Serif" font-size="10.00">length</text>
</g>
</g>
</svg>
