<?xml version="1.0" encoding="UTF-8" standalone="no"?>
<!DOCTYPE svg PUBLIC "-//W3C//DTD SVG 1.1//EN"
 "http://www.w3.org/Graphics/SVG/1.1/DTD/svg11.dtd">
<!-- Generated by graphviz version 2.43.0 (0)
 -->
<!-- Title: icmp_packet Pages: 1 -->
<svg width="332pt" height="106pt"
 viewBox="0.00 0.00 332.00 106.00" xmlns="http://www.w3.org/2000/svg" xmlns:xlink="http://www.w3.org/1999/xlink">
<g id="graph0" class="graph" transform="scale(1 1) rotate(0) translate(4 102)">
<title>icmp_packet</title>
<!-- Node1 -->
<g id="node1" class="node">
<title>Node1</title>
<g id="a_node1"><a xlink:title=" ">
<polygon fill="#bfbfbf" stroke="black" points="151,-0.5 151,-19.5 229,-19.5 229,-0.5 151,-0.5"/>
<text text-anchor="middle" x="190" y="-7.5" font-family="Helvetica,sans-Serif" font-size="10.00">icmp_packet</text>
</a>
</g>
</g>
<!-- Node2 -->
<g id="node2" class="node">
<title>Node2</title>
<g id="a_node2"><a xlink:title=" ">
<polygon fill="none" stroke="#bfbfbf" points="0,-78.5 0,-97.5 72,-97.5 72,-78.5 0,-78.5"/>
<text text-anchor="middle" x="36" y="-85.5" font-family="Helvetica,sans-Serif" font-size="10.00">ip_packet_t</text>
</a>
</g>
</g>
<!-- Node2&#45;&gt;Node1 -->
<g id="edge1" class="edge">
<title>Node2&#45;&gt;Node1</title>
<path fill="none" stroke="#9a32cd" stroke-dasharray="5,2" d="M37.16,-68.16C38.8,-57.83 42.55,-45.6 51,-38 65.44,-25.01 115,-17.77 150.83,-14.13"/>
<polygon fill="#9a32cd" stroke="#9a32cd" points="33.66,-68.01 36.09,-78.33 40.62,-68.75 33.66,-68.01"/>
<text text-anchor="middle" x="97.5" y="-46.5" font-family="Helvetica,sans-Serif" font-size="10.00"> original_datagram</text>
</g>
<!-- Node3 -->
<g id="node3" class="node">
<title>Node3</title>
<g id="a_node3"><a xlink:title=" ">
<polygon fill="none" stroke="#bfbfbf" points="124,-78.5 124,-97.5 180,-97.5 180,-78.5 124,-78.5"/>
<text text-anchor="middle" x="152" y="-85.5" font-family="Helvetica,sans-Serif" font-size="10.00">uint16_t</text>
</a>
</g>
</g>
<!-- Node3&#45;&gt;Node1 -->
<g id="edge2" class="edge">
<title>Node3&#45;&gt;Node1</title>
<path fill="none" stroke="#9a32cd" stroke-dasharray="5,2" d="M148.6,-68.39C147.75,-58.8 148.2,-47.22 153,-38 157.12,-30.1 164.71,-23.95 171.96,-19.52"/>
<polygon fill="#9a32cd" stroke="#9a32cd" points="145.15,-69.05 150,-78.47 152.09,-68.08 145.15,-69.05"/>
<text text-anchor="middle" x="179.5" y="-46.5" font-family="Helvetica,sans-Serif" font-size="10.00"> checksum</text>
</g>
<!-- Node4 -->
<g id="node4" class="node">
<title>Node4</title>
<g id="a_node4"><a xlink:title=" ">
<polygon fill="none" stroke="#bfbfbf" points="200,-78.5 200,-97.5 256,-97.5 256,-78.5 200,-78.5"/>
<text text-anchor="middle" x="228" y="-85.5" font-family="Helvetica,sans-Serif" font-size="10.00">uint32_t</text>
</a>
</g>
</g>
<!-- Node4&#45;&gt;Node1 -->
<g id="edge3" class="edge">
<title>Node4&#45;&gt;Node1</title>
<path fill="none" stroke="#9a32cd" stroke-dasharray="5,2" d="M220.39,-68.76C216.36,-59.44 211.18,-47.98 206,-38 202.79,-31.81 198.79,-25.06 195.59,-19.86"/>
<polygon fill="#9a32cd" stroke="#9a32cd" points="217.27,-70.35 224.4,-78.18 223.71,-67.61 217.27,-70.35"/>
<text text-anchor="middle" x="235.5" y="-46.5" font-family="Helvetica,sans-Serif" font-size="10.00"> unused</text>
</g>
<!-- Node5 -->
<g id="node5" class="node">
<title>Node5</title>
<g id="a_node5"><a xlink:title=" ">
<polygon fill="none" stroke="#bfbfbf" points="274,-78.5 274,-97.5 324,-97.5 324,-78.5 274,-78.5"/>
<text text-anchor="middle" x="299" y="-85.5" font-family="Helvetica,sans-Serif" font-size="10.00">uint8_t</text>
</a>
</g>
</g>
<!-- Node5&#45;&gt;Node1 -->
<g id="edge4" class="edge">
<title>Node5&#45;&gt;Node1</title>
<path fill="none" stroke="#9a32cd" stroke-dasharray="5,2" d="M288.13,-69.58C280.94,-59.24 270.69,-46.51 259,-38 247.87,-29.9 234,-23.85 221.61,-19.56"/>
<polygon fill="#9a32cd" stroke="#9a32cd" points="285.41,-71.81 293.84,-78.23 291.25,-67.95 285.41,-71.81"/>
<text text-anchor="middle" x="293.5" y="-52" font-family="Helvetica,sans-Serif" font-size="10.00"> code</text>
<text text-anchor="middle" x="293.5" y="-41" font-family="Helvetica,sans-Serif" font-size="10.00">type</text>
</g>
</g>
</svg>
