<?xml version="1.0" encoding="UTF-8" standalone="no"?>
<!DOCTYPE svg PUBLIC "-//W3C//DTD SVG 1.1//EN"
 "http://www.w3.org/Graphics/SVG/1.1/DTD/svg11.dtd">
<!-- Generated by graphviz version 2.43.0 (0)
 -->
<!-- Title: ahci_fis_dma_setup_t Pages: 1 -->
<svg width="291pt" height="161pt"
 viewBox="0.00 0.00 291.00 161.00" xmlns="http://www.w3.org/2000/svg" xmlns:xlink="http://www.w3.org/1999/xlink">
<g id="graph0" class="graph" transform="scale(1 1) rotate(0) translate(4 157)">
<title>ahci_fis_dma_setup_t</title>
<!-- Node1 -->
<g id="node1" class="node">
<title>Node1</title>
<g id="a_node1"><a xlink:title="DMA Setup FIS (bidirectional).">
<polygon fill="#bfbfbf" stroke="black" points="63,-0.5 63,-19.5 185,-19.5 185,-0.5 63,-0.5"/>
<text text-anchor="middle" x="124" y="-7.5" font-family="Helvetica,sans-Serif" font-size="10.00">ahci_fis_dma_setup_t</text>
</a>
</g>
</g>
<!-- Node2 -->
<g id="node2" class="node">
<title>Node2</title>
<g id="a_node2"><a xlink:title=" ">
<polygon fill="none" stroke="#bfbfbf" points="0,-133.5 0,-152.5 56,-152.5 56,-133.5 0,-133.5"/>
<text text-anchor="middle" x="28" y="-140.5" font-family="Helvetica,sans-Serif" font-size="10.00">uint64_t</text>
</a>
</g>
</g>
<!-- Node2&#45;&gt;Node1 -->
<g id="edge1" class="edge">
<title>Node2&#45;&gt;Node1</title>
<path fill="none" stroke="#9a32cd" stroke-dasharray="5,2" d="M26.15,-123.15C24.98,-100.29 26.6,-61.87 47,-38 54.36,-29.38 64.64,-23.52 75.3,-19.52"/>
<polygon fill="#9a32cd" stroke="#9a32cd" points="22.67,-123.54 26.91,-133.25 29.65,-123.02 22.67,-123.54"/>
<text text-anchor="middle" x="83.5" y="-74" font-family="Helvetica,sans-Serif" font-size="10.00"> dma_buffer_id</text>
</g>
<!-- Node3 -->
<g id="node3" class="node">
<title>Node3</title>
<g id="a_node3"><a xlink:title=" ">
<polygon fill="none" stroke="#bfbfbf" points="96,-133.5 96,-152.5 152,-152.5 152,-133.5 96,-133.5"/>
<text text-anchor="middle" x="124" y="-140.5" font-family="Helvetica,sans-Serif" font-size="10.00">uint32_t</text>
</a>
</g>
</g>
<!-- Node3&#45;&gt;Node1 -->
<g id="edge2" class="edge">
<title>Node3&#45;&gt;Node1</title>
<path fill="none" stroke="#9a32cd" stroke-dasharray="5,2" d="M124,-123.09C124,-94.36 124,-40.82 124,-19.8"/>
<polygon fill="#9a32cd" stroke="#9a32cd" points="120.5,-123.4 124,-133.4 127.5,-123.4 120.5,-123.4"/>
<text text-anchor="middle" x="170" y="-90.5" font-family="Helvetica,sans-Serif" font-size="10.00"> dma_buffer_offset</text>
<text text-anchor="middle" x="170" y="-79.5" font-family="Helvetica,sans-Serif" font-size="10.00">resvd</text>
<text text-anchor="middle" x="170" y="-68.5" font-family="Helvetica,sans-Serif" font-size="10.00">rsvd</text>
<text text-anchor="middle" x="170" y="-57.5" font-family="Helvetica,sans-Serif" font-size="10.00">transfer_count</text>
</g>
<!-- Node4 -->
<g id="node4" class="node">
<title>Node4</title>
<g id="a_node4"><a xlink:title=" ">
<polygon fill="none" stroke="#bfbfbf" points="214,-133.5 214,-152.5 264,-152.5 264,-133.5 214,-133.5"/>
<text text-anchor="middle" x="239" y="-140.5" font-family="Helvetica,sans-Serif" font-size="10.00">uint8_t</text>
</a>
</g>
</g>
<!-- Node4&#45;&gt;Node1 -->
<g id="edge3" class="edge">
<title>Node4&#45;&gt;Node1</title>
<path fill="none" stroke="#9a32cd" stroke-dasharray="5,2" d="M240.43,-123.25C241.1,-100.19 238.59,-61.25 217,-38 208.53,-28.88 197.19,-22.78 185.34,-18.71"/>
<polygon fill="#9a32cd" stroke="#9a32cd" points="236.92,-123.25 239.89,-133.43 243.91,-123.63 236.92,-123.25"/>
<text text-anchor="middle" x="261.5" y="-107" font-family="Helvetica,sans-Serif" font-size="10.00"> activate</text>
<text text-anchor="middle" x="261.5" y="-96" font-family="Helvetica,sans-Serif" font-size="10.00">direction</text>
<text text-anchor="middle" x="261.5" y="-85" font-family="Helvetica,sans-Serif" font-size="10.00">fis_type</text>
<text text-anchor="middle" x="261.5" y="-74" font-family="Helvetica,sans-Serif" font-size="10.00">interrupt</text>
<text text-anchor="middle" x="261.5" y="-63" font-family="Helvetica,sans-Serif" font-size="10.00">pmport</text>
<text text-anchor="middle" x="261.5" y="-52" font-family="Helvetica,sans-Serif" font-size="10.00">rsv0</text>
<text text-anchor="middle" x="261.5" y="-41" font-family="Helvetica,sans-Serif" font-size="10.00">rsved</text>
</g>
</g>
</svg>
