<?xml version="1.0" encoding="UTF-8" standalone="no"?>
<!DOCTYPE svg PUBLIC "-//W3C//DTD SVG 1.1//EN"
 "http://www.w3.org/Graphics/SVG/1.1/DTD/svg11.dtd">
<!-- Generated by graphviz version 2.43.0 (0)
 -->
<!-- Title: footer_t Pages: 1 -->
<svg width="249pt" height="173pt"
 viewBox="0.00 0.00 248.50 173.00" xmlns="http://www.w3.org/2000/svg" xmlns:xlink="http://www.w3.org/1999/xlink">
<g id="graph0" class="graph" transform="scale(1 1) rotate(0) translate(4 169)">
<title>footer_t</title>
<!-- Node1 -->
<g id="node1" class="node">
<title>Node1</title>
<g id="a_node1"><a xlink:title=" ">
<polygon fill="#bfbfbf" stroke="black" points="6.5,-0.5 6.5,-19.5 61.5,-19.5 61.5,-0.5 6.5,-0.5"/>
<text text-anchor="middle" x="34" y="-7.5" font-family="Helvetica,sans-Serif" font-size="10.00">footer_t</text>
</a>
</g>
</g>
<!-- Node2 -->
<g id="node2" class="node">
<title>Node2</title>
<g id="a_node2"><a xlink:title=" ">
<polygon fill="none" stroke="black" points="0,-145.5 0,-164.5 56,-164.5 56,-145.5 0,-145.5"/>
<text text-anchor="middle" x="28" y="-152.5" font-family="Helvetica,sans-Serif" font-size="10.00">uint64_t</text>
</a>
</g>
</g>
<!-- Node2&#45;&gt;Node1 -->
<g id="edge1" class="edge">
<title>Node2&#45;&gt;Node1</title>
<path fill="none" stroke="#9a32cd" stroke-dasharray="5,2" d="M28.54,-135.28C29.08,-117.66 29.96,-90.53 31,-67 31.74,-50.27 32.84,-30.74 33.48,-19.73"/>
<polygon fill="#9a32cd" stroke="#9a32cd" points="25.04,-135.25 28.24,-145.35 32.04,-135.46 25.04,-135.25"/>
<text text-anchor="middle" x="48" y="-74.5" font-family="Helvetica,sans-Serif" font-size="10.00"> magic</text>
</g>
<!-- Node3 -->
<g id="node3" class="node">
<title>Node3</title>
<g id="a_node3"><a xlink:href="structheader__t.html" target="_top" xlink:title=" ">
<polygon fill="none" stroke="black" points="74.5,-67.5 74.5,-86.5 133.5,-86.5 133.5,-67.5 74.5,-67.5"/>
<text text-anchor="middle" x="104" y="-74.5" font-family="Helvetica,sans-Serif" font-size="10.00">header_t</text>
</a>
</g>
</g>
<!-- Node2&#45;&gt;Node3 -->
<g id="edge3" class="edge">
<title>Node2&#45;&gt;Node3</title>
<path fill="none" stroke="#9a32cd" stroke-dasharray="5,2" d="M40.28,-136.94C47.76,-127.1 57.81,-114.78 68,-105 75.1,-98.18 83.93,-91.54 91.07,-86.54"/>
<polygon fill="#9a32cd" stroke="#9a32cd" points="37.35,-135.02 34.21,-145.14 42.98,-139.19 37.35,-135.02"/>
<text text-anchor="middle" x="85" y="-119" font-family="Helvetica,sans-Serif" font-size="10.00"> magic</text>
<text text-anchor="middle" x="85" y="-108" font-family="Helvetica,sans-Serif" font-size="10.00">size</text>
</g>
<!-- Node3&#45;&gt;Node1 -->
<g id="edge2" class="edge">
<title>Node3&#45;&gt;Node1</title>
<path fill="none" stroke="#9a32cd" stroke-dasharray="5,2" d="M87.15,-60.36C73.39,-47.58 54.45,-29.99 43.29,-19.63"/>
<polygon fill="#9a32cd" stroke="#9a32cd" points="84.85,-62.99 94.56,-67.23 89.61,-57.86 84.85,-62.99"/>
<text text-anchor="middle" x="92.5" y="-41" font-family="Helvetica,sans-Serif" font-size="10.00"> header</text>
</g>
<!-- Node4 -->
<g id="node4" class="node">
<title>Node4</title>
<g id="a_node4"><a xlink:title=" ">
<polygon fill="none" stroke="black" points="83,-145.5 83,-164.5 133,-164.5 133,-145.5 83,-145.5"/>
<text text-anchor="middle" x="108" y="-152.5" font-family="Helvetica,sans-Serif" font-size="10.00">uint8_t</text>
</a>
</g>
</g>
<!-- Node4&#45;&gt;Node3 -->
<g id="edge4" class="edge">
<title>Node4&#45;&gt;Node3</title>
<path fill="none" stroke="#9a32cd" stroke-dasharray="5,2" d="M107.01,-135.22C106.19,-119.7 105.07,-98.36 104.45,-86.62"/>
<polygon fill="#9a32cd" stroke="#9a32cd" points="103.52,-135.48 107.54,-145.28 110.51,-135.11 103.52,-135.48"/>
<text text-anchor="middle" x="118.5" y="-113.5" font-family="Helvetica,sans-Serif" font-size="10.00"> free</text>
</g>
<!-- Node5 -->
<g id="node5" class="node">
<title>Node5</title>
<g id="a_node5"><a xlink:title=" ">
<polygon fill="none" stroke="black" points="151.5,-145.5 151.5,-164.5 240.5,-164.5 240.5,-145.5 151.5,-145.5"/>
<text text-anchor="middle" x="196" y="-152.5" font-family="Helvetica,sans-Serif" font-size="10.00">struct header *</text>
</a>
</g>
</g>
<!-- Node5&#45;&gt;Node3 -->
<g id="edge5" class="edge">
<title>Node5&#45;&gt;Node3</title>
<path fill="none" stroke="#9a32cd" stroke-dasharray="5,2" d="M177.51,-138.73C158.56,-123.07 129.75,-99.27 114.43,-86.62"/>
<polygon fill="#9a32cd" stroke="#9a32cd" points="175.51,-141.61 185.45,-145.28 179.97,-136.21 175.51,-141.61"/>
<text text-anchor="middle" x="172.5" y="-119" font-family="Helvetica,sans-Serif" font-size="10.00"> next</text>
<text text-anchor="middle" x="172.5" y="-108" font-family="Helvetica,sans-Serif" font-size="10.00">prev</text>
</g>
</g>
</svg>
