<?xml version="1.0" encoding="UTF-8" standalone="no"?>
<!DOCTYPE svg PUBLIC "-//W3C//DTD SVG 1.1//EN"
 "http://www.w3.org/Graphics/SVG/1.1/DTD/svg11.dtd">
<!-- Generated by graphviz version 2.43.0 (0)
 -->
<!-- Title: ubasic_double_fn Pages: 1 -->
<!--zoomable 990 -->
<svg id="main" version="1.1" xmlns="http://www.w3.org/2000/svg" xmlns:xlink="http://www.w3.org/1999/xlink" xml:space="preserve" onload="init(evt)">
<style type="text/css"><![CDATA[
.edge:hover path { stroke: red; }
.edge:hover polygon { stroke: red; fill: red; }
]]></style>
<script type="text/javascript"><![CDATA[
var edges = document.getElementsByTagName('g');
if (edges && edges.length) {
  for (var i=0;i<edges.length;i++) {
    if (edges[i].id.substr(0,4)=='edge') {
      edges[i].setAttribute('class','edge');
    }
  }
}
]]></script>
        <defs>
                <circle id="rim" cx="0" cy="0" r="7"/>
                <circle id="rim2" cx="0" cy="0" r="3.5"/>
                <g id="zoomPlus">
                        <use xlink:href="#rim" fill="#404040">
                                <set attributeName="fill" to="#808080" begin="zoomplus.mouseover" end="zoomplus.mouseout"/>
                        </use>
                        <path d="M-4,0h8M0,-4v8" fill="none" stroke="white" stroke-width="1.5" pointer-events="none"/>
                </g>
                <g id="zoomMin">
                        <use xlink:href="#rim" fill="#404040">
                                <set attributeName="fill" to="#808080" begin="zoomminus.mouseover" end="zoomminus.mouseout"/>
                        </use>
                        <path d="M-4,0h8" fill="none" stroke="white" stroke-width="1.5" pointer-events="none"/>
                </g>
                <g id="dirArrow">
                        <path fill="none" stroke="white" stroke-width="1.5" d="M0,-3.0v7 M-2.5,-0.5L0,-3.0L2.5,-0.5"/>
                </g>
               <g id="resetDef">
                       <use xlink:href="#rim2" fill="#404040">
                               <set attributeName="fill" to="#808080" begin="reset.mouseover" end="reset.mouseout"/>
                       </use>
               </g>
        </defs>

<script type="text/javascript">
var viewWidth = 881;
var viewHeight = 990;
var sectionId = 'dynsection-0';
</script>
<script xlink:href="svgpan.js"/>
<svg id="graph" class="graph">
<g id="viewport">
<title>ubasic_double_fn</title>
<!-- Node1 -->
<g id="node1" class="node">
<title>Node1</title>
<g id="a_node1"><a xlink:title=" ">
<polygon fill="#bfbfbf" stroke="black" points="772,-633.92 772,-652.92 873,-652.92 873,-633.92 772,-633.92"/>
<text text-anchor="middle" x="822.5" y="-640.92" font-family="Helvetica,sans-Serif" font-size="10.00">ubasic_double_fn</text>
</a>
</g>
</g>
<!-- Node2 -->
<g id="node2" class="node">
<title>Node2</title>
<g id="a_node2"><a xlink:href="structubasic__ctx.html" target="_top" xlink:title=" ">
<polygon fill="none" stroke="black" points="628,-460.92 628,-479.92 696,-479.92 696,-460.92 628,-460.92"/>
<text text-anchor="middle" x="662" y="-467.92" font-family="Helvetica,sans-Serif" font-size="10.00">ubasic_ctx</text>
</a>
</g>
</g>
<!-- Node2&#45;&gt;Node1 -->
<g id="edge1" class="edge">
<title>Node2&#45;&gt;Node1</title>
<path fill="none" stroke="#9a32cd" stroke-dasharray="5,2" d="M678.81,-487.67C711.74,-523.62 786.77,-605.52 812.58,-633.69"/>
<polygon fill="#9a32cd" stroke="#9a32cd" points="681.08,-484.97 671.75,-479.97 675.92,-489.7 681.08,-484.97"/>
<text text-anchor="middle" x="734" y="-569.42" font-family="Helvetica,sans-Serif" font-size="10.00"> handler</text>
</g>
<!-- Node3 -->
<g id="node3" class="node">
<title>Node3</title>
<g id="a_node3"><a xlink:title=" ">
<polygon fill="none" stroke="#bfbfbf" points="378.5,-602.92 378.5,-621.92 468.5,-621.92 468.5,-602.92 378.5,-602.92"/>
<text text-anchor="middle" x="423.5" y="-609.92" font-family="Helvetica,sans-Serif" font-size="10.00">ub_return_type</text>
</a>
</g>
</g>
<!-- Node3&#45;&gt;Node2 -->
<g id="edge2" class="edge">
<title>Node3&#45;&gt;Node2</title>
<path fill="none" stroke="#9a32cd" stroke-dasharray="5,2" d="M478.71,-610.17C518.69,-605.98 572.43,-594.77 610,-565.42 638.77,-542.95 653.3,-499.59 658.59,-480.2"/>
<polygon fill="#9a32cd" stroke="#9a32cd" points="478.24,-606.7 468.61,-611.11 478.89,-613.67 478.24,-606.7"/>
<text text-anchor="middle" x="554" y="-609.42" font-family="Helvetica,sans-Serif" font-size="10.00"> fn_type</text>
</g>
<!-- Node4 -->
<g id="node4" class="node">
<title>Node4</title>
<g id="a_node4"><a xlink:href="structub__var__string__array.html" target="_top" xlink:title=" ">
<polygon fill="none" stroke="black" points="367,-640.92 367,-659.92 480,-659.92 480,-640.92 367,-640.92"/>
<text text-anchor="middle" x="423.5" y="-647.92" font-family="Helvetica,sans-Serif" font-size="10.00">ub_var_string_array</text>
</a>
</g>
</g>
<!-- Node4&#45;&gt;Node2 -->
<g id="edge3" class="edge">
<title>Node4&#45;&gt;Node2</title>
<path fill="none" stroke="#9a32cd" stroke-dasharray="5,2" d="M490.39,-656.11C529.34,-655.91 577.28,-648.99 610,-621.42 654.23,-584.16 660.23,-507.09 660.95,-480.05"/>
<polygon fill="#9a32cd" stroke="#9a32cd" points="490.22,-652.6 480.18,-656.01 490.15,-659.6 490.22,-652.6"/>
<text text-anchor="middle" x="554" y="-658.42" font-family="Helvetica,sans-Serif" font-size="10.00"> string_array_variables</text>
</g>
<!-- Node5 -->
<g id="node5" class="node">
<title>Node5</title>
<g id="a_node5"><a xlink:title=" ">
<polygon fill="none" stroke="#bfbfbf" points="176,-559.92 176,-578.92 232,-578.92 232,-559.92 176,-559.92"/>
<text text-anchor="middle" x="204" y="-566.92" font-family="Helvetica,sans-Serif" font-size="10.00">uint64_t</text>
</a>
</g>
</g>
<!-- Node5&#45;&gt;Node2 -->
<g id="edge15" class="edge">
<title>Node5&#45;&gt;Node2</title>
<path fill="none" stroke="#9a32cd" stroke-dasharray="5,2" d="M242.41,-567.16C315.19,-561.85 480.07,-545.26 610,-498.42 622.92,-493.76 636.51,-486.15 646.41,-480.04"/>
<polygon fill="#9a32cd" stroke="#9a32cd" points="242.09,-563.68 232.36,-567.87 242.58,-570.66 242.09,-563.68"/>
<text text-anchor="middle" x="423.5" y="-578.42" font-family="Helvetica,sans-Serif" font-size="10.00"> for_stack_ptr</text>
<text text-anchor="middle" x="423.5" y="-567.42" font-family="Helvetica,sans-Serif" font-size="10.00">gosub_stack</text>
<text text-anchor="middle" x="423.5" y="-556.42" font-family="Helvetica,sans-Serif" font-size="10.00">gosub_stack_ptr</text>
</g>
<!-- Node5&#45;&gt;Node4 -->
<g id="edge4" class="edge">
<title>Node5&#45;&gt;Node4</title>
<path fill="none" stroke="#9a32cd" stroke-dasharray="5,2" d="M242.24,-565.46C273.78,-564.13 318.57,-567.24 349,-590.42 364.83,-602.48 352.35,-617.95 367,-631.42 371.2,-635.28 376.22,-638.36 381.49,-640.82"/>
<polygon fill="#9a32cd" stroke="#9a32cd" points="241.88,-561.98 232.1,-566.06 242.29,-568.97 241.88,-561.98"/>
<text text-anchor="middle" x="307.5" y="-593.42" font-family="Helvetica,sans-Serif" font-size="10.00"> itemcount</text>
</g>
<!-- Node18 -->
<g id="node18" class="node">
<title>Node18</title>
<g id="a_node18"><a xlink:href="structub__var__int__array.html" target="_top" xlink:title=" ">
<polygon fill="none" stroke="black" points="374.5,-437.92 374.5,-456.92 472.5,-456.92 472.5,-437.92 374.5,-437.92"/>
<text text-anchor="middle" x="423.5" y="-444.92" font-family="Helvetica,sans-Serif" font-size="10.00">ub_var_int_array</text>
</a>
</g>
</g>
<!-- Node5&#45;&gt;Node18 -->
<g id="edge31" class="edge">
<title>Node5&#45;&gt;Node18</title>
<path fill="none" stroke="#9a32cd" stroke-dasharray="5,2" d="M241.09,-555.12C243.51,-553.67 245.84,-552.1 248,-550.42 258.24,-542.44 256.05,-535.75 266,-527.42 298.01,-500.61 313.14,-504.8 349,-483.42 357.26,-478.49 358.55,-476.01 367,-471.42 376.78,-466.1 387.97,-461.07 397.73,-457.01"/>
<polygon fill="#9a32cd" stroke="#9a32cd" points="239.27,-552.12 232.07,-559.89 242.55,-558.31 239.27,-552.12"/>
<text text-anchor="middle" x="307.5" y="-530.42" font-family="Helvetica,sans-Serif" font-size="10.00"> itemcount</text>
</g>
<!-- Node6 -->
<g id="node6" class="node">
<title>Node6</title>
<g id="a_node6"><a xlink:title=" ">
<polygon fill="none" stroke="#bfbfbf" points="9,-470.92 9,-489.92 47,-489.92 47,-470.92 9,-470.92"/>
<text text-anchor="middle" x="28" y="-477.92" font-family="Helvetica,sans-Serif" font-size="10.00">char</text>
</a>
</g>
</g>
<!-- Node6&#45;&gt;Node1 -->
<g id="edge51" class="edge">
<title>Node6&#45;&gt;Node1</title>
<path fill="none" stroke="#9a32cd" stroke-dasharray="5,2" d="M28.09,-500.32C27.43,-538.2 31.35,-621.37 74,-671.42 95.2,-696.29 118.3,-676.91 142,-699.42 155.55,-712.29 144.92,-726.39 160,-737.42 321.73,-855.69 416.56,-816.64 610,-764.42 693.72,-741.82 778.98,-677.82 809.63,-653.22"/>
<polygon fill="#9a32cd" stroke="#9a32cd" points="31.59,-500.2 28.4,-490.1 24.59,-499.99 31.59,-500.2"/>
<text text-anchor="middle" x="423.5" y="-817.42" font-family="Helvetica,sans-Serif" font-size="10.00"> name</text>
</g>
<!-- Node6&#45;&gt;Node2 -->
<g id="edge16" class="edge">
<title>Node6&#45;&gt;Node2</title>
<path fill="none" stroke="#9a32cd" stroke-dasharray="5,2" d="M32.6,-460.77C38.04,-435.3 50.33,-390.47 74,-359.42 96.58,-329.79 115.91,-337.01 142,-310.42 151.84,-300.39 148.64,-292.69 160,-284.42 199.79,-255.46 217.32,-259.61 266,-252.42 302.49,-247.03 316.01,-235.92 349,-252.42 360.93,-258.38 355.88,-269.06 367,-276.42 459.76,-337.82 526.7,-262.68 610,-336.42 648.21,-370.24 657.93,-435.82 660.28,-460.61"/>
<polygon fill="#9a32cd" stroke="#9a32cd" points="29.14,-460.21 30.62,-470.7 36,-461.58 29.14,-460.21"/>
<text text-anchor="middle" x="307.5" y="-299.42" font-family="Helvetica,sans-Serif" font-size="10.00"> item_begin</text>
<text text-anchor="middle" x="307.5" y="-288.42" font-family="Helvetica,sans-Serif" font-size="10.00">nextptr</text>
<text text-anchor="middle" x="307.5" y="-277.42" font-family="Helvetica,sans-Serif" font-size="10.00">program_ptr</text>
<text text-anchor="middle" x="307.5" y="-266.42" font-family="Helvetica,sans-Serif" font-size="10.00">ptr</text>
<text text-anchor="middle" x="307.5" y="-255.42" font-family="Helvetica,sans-Serif" font-size="10.00">string</text>
</g>
<!-- Node6&#45;&gt;Node4 -->
<g id="edge5" class="edge">
<title>Node6&#45;&gt;Node4</title>
<path fill="none" stroke="#9a32cd" stroke-dasharray="5,2" d="M30.35,-500.48C33.34,-527.89 42.97,-576.47 74,-601.42 117.98,-636.78 279.99,-646.62 366.76,-649.36"/>
<polygon fill="#9a32cd" stroke="#9a32cd" points="33.8,-499.81 29.43,-490.16 26.83,-500.43 33.8,-499.81"/>
<text text-anchor="middle" x="204" y="-644.42" font-family="Helvetica,sans-Serif" font-size="10.00"> varname</text>
</g>
<!-- Node7 -->
<g id="node7" class="node">
<title>Node7</title>
<g id="a_node7"><a xlink:href="structub__var__string.html" target="_top" xlink:title=" ">
<polygon fill="none" stroke="black" points="162.5,-679.92 162.5,-698.92 245.5,-698.92 245.5,-679.92 162.5,-679.92"/>
<text text-anchor="middle" x="204" y="-686.92" font-family="Helvetica,sans-Serif" font-size="10.00">ub_var_string</text>
</a>
</g>
</g>
<!-- Node6&#45;&gt;Node7 -->
<g id="edge7" class="edge">
<title>Node6&#45;&gt;Node7</title>
<path fill="none" stroke="#9a32cd" stroke-dasharray="5,2" d="M29.59,-500.09C31.57,-531.09 39.9,-591.37 74,-626.42 96.25,-649.28 113.32,-635.45 142,-649.42 159.76,-658.07 178.53,-671.03 190.48,-679.84"/>
<polygon fill="#9a32cd" stroke="#9a32cd" points="33.08,-499.91 29.11,-490.09 26.09,-500.25 33.08,-499.91"/>
<text text-anchor="middle" x="108" y="-663.42" font-family="Helvetica,sans-Serif" font-size="10.00"> value</text>
<text text-anchor="middle" x="108" y="-652.42" font-family="Helvetica,sans-Serif" font-size="10.00">varname</text>
</g>
<!-- Node9 -->
<g id="node9" class="node">
<title>Node9</title>
<g id="a_node9"><a xlink:href="structub__var__int.html" target="_top" xlink:title=" ">
<polygon fill="none" stroke="black" points="170,-492.92 170,-511.92 238,-511.92 238,-492.92 170,-492.92"/>
<text text-anchor="middle" x="204" y="-499.92" font-family="Helvetica,sans-Serif" font-size="10.00">ub_var_int</text>
</a>
</g>
</g>
<!-- Node6&#45;&gt;Node9 -->
<g id="edge12" class="edge">
<title>Node6&#45;&gt;Node9</title>
<path fill="none" stroke="#9a32cd" stroke-dasharray="5,2" d="M57.36,-484C88.17,-487.9 137.31,-494.11 169.87,-498.23"/>
<polygon fill="#9a32cd" stroke="#9a32cd" points="57.65,-480.51 47.29,-482.73 56.77,-487.46 57.65,-480.51"/>
<text text-anchor="middle" x="108" y="-497.42" font-family="Helvetica,sans-Serif" font-size="10.00"> varname</text>
</g>
<!-- Node11 -->
<g id="node11" class="node">
<title>Node11</title>
<g id="a_node11"><a xlink:href="structconsole.html" target="_top" xlink:title=" ">
<polygon fill="none" stroke="black" points="177,-896.92 177,-915.92 231,-915.92 231,-896.92 177,-896.92"/>
<text text-anchor="middle" x="204" y="-903.92" font-family="Helvetica,sans-Serif" font-size="10.00">console</text>
</a>
</g>
</g>
<!-- Node6&#45;&gt;Node11 -->
<g id="edge18" class="edge">
<title>Node6&#45;&gt;Node11</title>
<path fill="none" stroke="#9a32cd" stroke-dasharray="5,2" d="M31.03,-500.14C38.5,-572.31 64.59,-818.49 74,-832.42 93.38,-861.11 111.98,-853.17 142,-870.42 157.35,-879.24 174.74,-889.53 187.01,-896.84"/>
<polygon fill="#9a32cd" stroke="#9a32cd" points="34.5,-499.71 29.99,-490.12 27.54,-500.43 34.5,-499.71"/>
<text text-anchor="middle" x="108" y="-895.42" font-family="Helvetica,sans-Serif" font-size="10.00"> buffer</text>
<text text-anchor="middle" x="108" y="-884.42" font-family="Helvetica,sans-Serif" font-size="10.00">dirty</text>
<text text-anchor="middle" x="108" y="-873.42" font-family="Helvetica,sans-Serif" font-size="10.00">internalbuffer</text>
</g>
<!-- Node15 -->
<g id="node15" class="node">
<title>Node15</title>
<g id="a_node15"><a xlink:href="structub__var__double.html" target="_top" xlink:title=" ">
<polygon fill="none" stroke="black" points="160,-803.92 160,-822.92 248,-822.92 248,-803.92 160,-803.92"/>
<text text-anchor="middle" x="204" y="-810.92" font-family="Helvetica,sans-Serif" font-size="10.00">ub_var_double</text>
</a>
</g>
</g>
<!-- Node6&#45;&gt;Node15 -->
<g id="edge25" class="edge">
<title>Node6&#45;&gt;Node15</title>
<path fill="none" stroke="#9a32cd" stroke-dasharray="5,2" d="M30.58,-500.19C34.78,-547.9 47.75,-667.57 74,-696.42 95.29,-719.81 120.01,-694.68 142,-717.42 163.14,-739.27 142.48,-758.57 160,-783.42 165.98,-791.9 175.16,-798.78 183.5,-803.8"/>
<polygon fill="#9a32cd" stroke="#9a32cd" points="34.07,-499.85 29.74,-490.18 27.09,-500.44 34.07,-499.85"/>
<text text-anchor="middle" x="108" y="-720.42" font-family="Helvetica,sans-Serif" font-size="10.00"> varname</text>
</g>
<!-- Node6&#45;&gt;Node18 -->
<g id="edge32" class="edge">
<title>Node6&#45;&gt;Node18</title>
<path fill="none" stroke="#9a32cd" stroke-dasharray="5,2" d="M57.06,-475.44C101.3,-467.87 190.05,-453.77 266,-448.42 302.32,-445.86 343.5,-445.71 374.49,-446.14"/>
<polygon fill="#9a32cd" stroke="#9a32cd" points="56.31,-472.02 47.06,-477.18 57.51,-478.92 56.31,-472.02"/>
<text text-anchor="middle" x="204" y="-462.42" font-family="Helvetica,sans-Serif" font-size="10.00"> varname</text>
</g>
<!-- Node19 -->
<g id="node19" class="node">
<title>Node19</title>
<g id="a_node19"><a xlink:href="structub__proc__fn__def.html" target="_top" xlink:title=" ">
<polygon fill="none" stroke="black" points="378,-323.92 378,-342.92 469,-342.92 469,-323.92 378,-323.92"/>
<text text-anchor="middle" x="423.5" y="-330.92" font-family="Helvetica,sans-Serif" font-size="10.00">ub_proc_fn_def</text>
</a>
</g>
</g>
<!-- Node6&#45;&gt;Node19 -->
<g id="edge35" class="edge">
<title>Node6&#45;&gt;Node19</title>
<path fill="none" stroke="#9a32cd" stroke-dasharray="5,2" d="M36.31,-461.33C43.67,-444.14 56.46,-419.1 74,-402.42 105.11,-372.83 118.78,-370.44 160,-358.42 199.66,-346.84 313.89,-339.16 377.82,-335.64"/>
<polygon fill="#9a32cd" stroke="#9a32cd" points="32.95,-460.28 32.43,-470.86 39.44,-462.92 32.95,-460.28"/>
<text text-anchor="middle" x="204" y="-361.42" font-family="Helvetica,sans-Serif" font-size="10.00"> name</text>
</g>
<!-- Node21 -->
<g id="node21" class="node">
<title>Node21</title>
<g id="a_node21"><a xlink:href="structub__param.html" target="_top" xlink:title=" ">
<polygon fill="none" stroke="black" points="171.5,-378.92 171.5,-397.92 236.5,-397.92 236.5,-378.92 171.5,-378.92"/>
<text text-anchor="middle" x="204" y="-385.92" font-family="Helvetica,sans-Serif" font-size="10.00">ub_param</text>
</a>
</g>
</g>
<!-- Node6&#45;&gt;Node21 -->
<g id="edge39" class="edge">
<title>Node6&#45;&gt;Node21</title>
<path fill="none" stroke="#9a32cd" stroke-dasharray="5,2" d="M44.46,-463.17C52.62,-454.85 63.16,-445.22 74,-438.42 104.82,-419.08 144.34,-405.12 171.47,-396.94"/>
<polygon fill="#9a32cd" stroke="#9a32cd" points="41.76,-460.93 37.45,-470.61 46.85,-465.73 41.76,-460.93"/>
<text text-anchor="middle" x="108" y="-441.42" font-family="Helvetica,sans-Serif" font-size="10.00"> name</text>
</g>
<!-- Node22 -->
<g id="node22" class="node">
<title>Node22</title>
<g id="a_node22"><a xlink:href="structub__line__ref.html" target="_top" xlink:title=" ">
<polygon fill="none" stroke="black" points="168.5,-7.92 168.5,-26.92 239.5,-26.92 239.5,-7.92 168.5,-7.92"/>
<text text-anchor="middle" x="204" y="-14.92" font-family="Helvetica,sans-Serif" font-size="10.00">ub_line_ref</text>
</a>
</g>
</g>
<!-- Node6&#45;&gt;Node22 -->
<g id="edge43" class="edge">
<title>Node6&#45;&gt;Node22</title>
<path fill="none" stroke="#9a32cd" stroke-dasharray="5,2" d="M29.95,-460.7C32.88,-407.71 43.53,-263.86 74,-229.42 94.96,-205.73 120.78,-231.87 142,-208.42 169.07,-178.49 148.1,-157.98 160,-119.42 170.82,-84.34 189.43,-44.83 198.18,-27.02"/>
<polygon fill="#9a32cd" stroke="#9a32cd" points="26.44,-460.66 29.42,-470.82 33.43,-461.02 26.44,-460.66"/>
<text text-anchor="middle" x="108" y="-232.42" font-family="Helvetica,sans-Serif" font-size="10.00"> ptr</text>
</g>
<!-- Node25 -->
<g id="node25" class="node">
<title>Node25</title>
<g id="a_node25"><a xlink:href="structfor__state.html" target="_top" xlink:title=" ">
<polygon fill="none" stroke="black" points="174,-170.92 174,-189.92 234,-189.92 234,-170.92 174,-170.92"/>
<text text-anchor="middle" x="204" y="-177.92" font-family="Helvetica,sans-Serif" font-size="10.00">for_state</text>
</a>
</g>
</g>
<!-- Node6&#45;&gt;Node25 -->
<g id="edge48" class="edge">
<title>Node6&#45;&gt;Node25</title>
<path fill="none" stroke="#9a32cd" stroke-dasharray="5,2" d="M30.67,-460.48C35.04,-412.88 48.29,-294.41 74,-265.42 95.17,-241.55 114.97,-259.36 142,-242.42 164.78,-228.14 185.37,-203.75 195.81,-190.2"/>
<polygon fill="#9a32cd" stroke="#9a32cd" points="27.16,-460.45 29.77,-470.72 34.13,-461.07 27.16,-460.45"/>
<text text-anchor="middle" x="108" y="-268.42" font-family="Helvetica,sans-Serif" font-size="10.00"> for_variable</text>
</g>
<!-- Node7&#45;&gt;Node2 -->
<g id="edge41" class="edge">
<title>Node7&#45;&gt;Node2</title>
<path fill="none" stroke="#9a32cd" stroke-dasharray="5,2" d="M255.91,-694.24C352.43,-702.26 557.16,-713.49 610,-670.42 640.48,-645.57 656.19,-516.3 660.04,-479.94"/>
<polygon fill="#9a32cd" stroke="#9a32cd" points="256.06,-690.74 245.8,-693.38 255.47,-697.72 256.06,-690.74"/>
<text text-anchor="middle" x="423.5" y="-715.42" font-family="Helvetica,sans-Serif" font-size="10.00"> local_string_variables</text>
<text text-anchor="middle" x="423.5" y="-704.42" font-family="Helvetica,sans-Serif" font-size="10.00">str_variables</text>
</g>
<!-- Node7&#45;&gt;Node4 -->
<g id="edge6" class="edge">
<title>Node7&#45;&gt;Node4</title>
<path fill="none" stroke="#9a32cd" stroke-dasharray="5,2" d="M243.7,-677.03C251.05,-674.95 258.72,-672.97 266,-671.42 299.11,-664.35 336.7,-659.22 366.74,-655.79"/>
<polygon fill="#9a32cd" stroke="#9a32cd" points="242.54,-673.72 233.93,-679.89 244.51,-680.44 242.54,-673.72"/>
<text text-anchor="middle" x="307.5" y="-674.42" font-family="Helvetica,sans-Serif" font-size="10.00"> values</text>
</g>
<!-- Node7&#45;&gt;Node7 -->
<g id="edge9" class="edge">
<title>Node7&#45;&gt;Node7</title>
<path fill="none" stroke="#9a32cd" stroke-dasharray="5,2" d="M186.22,-708.82C187.41,-713.73 193.34,-717.42 204,-717.42 221.06,-717.42 225.99,-707.98 218.8,-699.17"/>
<polygon fill="#9a32cd" stroke="#9a32cd" points="189.59,-709.76 189.2,-699.17 182.91,-707.7 189.59,-709.76"/>
<text text-anchor="middle" x="204" y="-720.42" font-family="Helvetica,sans-Serif" font-size="10.00"> next</text>
</g>
<!-- Node8 -->
<g id="node8" class="node">
<title>Node8</title>
<g id="a_node8"><a xlink:title=" ">
<polygon fill="none" stroke="#bfbfbf" points="9,-742.92 9,-761.92 47,-761.92 47,-742.92 9,-742.92"/>
<text text-anchor="middle" x="28" y="-749.92" font-family="Helvetica,sans-Serif" font-size="10.00">bool</text>
</a>
</g>
</g>
<!-- Node8&#45;&gt;Node7 -->
<g id="edge8" class="edge">
<title>Node8&#45;&gt;Node7</title>
<path fill="none" stroke="#9a32cd" stroke-dasharray="5,2" d="M57.22,-750.07C80.64,-747.39 114.45,-741.81 142,-730.42 160.87,-722.62 179.98,-708.55 191.66,-699.1"/>
<polygon fill="#9a32cd" stroke="#9a32cd" points="56.84,-746.59 47.25,-751.11 57.56,-753.56 56.84,-746.59"/>
<text text-anchor="middle" x="108" y="-750.42" font-family="Helvetica,sans-Serif" font-size="10.00"> global</text>
</g>
<!-- Node8&#45;&gt;Node9 -->
<g id="edge14" class="edge">
<title>Node8&#45;&gt;Node9</title>
<path fill="none" stroke="#9a32cd" stroke-dasharray="5,2" d="M31.74,-732.73C36.48,-704.02 48.29,-649.89 74,-611.42 104.46,-565.83 159.25,-528.68 186.58,-511.97"/>
<polygon fill="#9a32cd" stroke="#9a32cd" points="28.26,-732.31 30.21,-742.72 35.18,-733.37 28.26,-732.31"/>
<text text-anchor="middle" x="108" y="-614.42" font-family="Helvetica,sans-Serif" font-size="10.00"> global</text>
</g>
<!-- Node8&#45;&gt;Node15 -->
<g id="edge27" class="edge">
<title>Node8&#45;&gt;Node15</title>
<path fill="none" stroke="#9a32cd" stroke-dasharray="5,2" d="M57.13,-762.28C89.88,-773.76 143.58,-792.59 175.88,-803.91"/>
<polygon fill="#9a32cd" stroke="#9a32cd" points="57.89,-758.84 47.29,-758.83 55.57,-765.44 57.89,-758.84"/>
<text text-anchor="middle" x="108" y="-794.42" font-family="Helvetica,sans-Serif" font-size="10.00"> global</text>
</g>
<!-- Node9&#45;&gt;Node2 -->
<g id="edge10" class="edge">
<title>Node9&#45;&gt;Node2</title>
<path fill="none" stroke="#9a32cd" stroke-dasharray="5,2" d="M248.55,-501.63C322.9,-499.9 478.98,-494.64 610,-479.42 615.81,-478.74 621.95,-477.83 627.89,-476.85"/>
<polygon fill="#9a32cd" stroke="#9a32cd" points="248.11,-498.14 238.19,-501.86 248.26,-505.13 248.11,-498.14"/>
<text text-anchor="middle" x="423.5" y="-511.42" font-family="Helvetica,sans-Serif" font-size="10.00"> int_variables</text>
<text text-anchor="middle" x="423.5" y="-500.42" font-family="Helvetica,sans-Serif" font-size="10.00">local_int_variables</text>
</g>
<!-- Node9&#45;&gt;Node9 -->
<g id="edge11" class="edge">
<title>Node9&#45;&gt;Node9</title>
<path fill="none" stroke="#9a32cd" stroke-dasharray="5,2" d="M186.22,-521.82C187.41,-526.73 193.34,-530.42 204,-530.42 221.06,-530.42 225.99,-520.98 218.8,-512.17"/>
<polygon fill="#9a32cd" stroke="#9a32cd" points="189.59,-522.76 189.2,-512.17 182.91,-520.7 189.59,-522.76"/>
<text text-anchor="middle" x="204" y="-533.42" font-family="Helvetica,sans-Serif" font-size="10.00"> next</text>
</g>
<!-- Node9&#45;&gt;Node18 -->
<g id="edge30" class="edge">
<title>Node9&#45;&gt;Node18</title>
<path fill="none" stroke="#9a32cd" stroke-dasharray="5,2" d="M231.05,-487.87C247.51,-478.67 265.75,-468.5 266,-468.42 301.12,-456.74 342.72,-451.54 374.2,-449.23"/>
<polygon fill="#9a32cd" stroke="#9a32cd" points="229.23,-484.87 222.21,-492.8 232.64,-490.98 229.23,-484.87"/>
<text text-anchor="middle" x="307.5" y="-471.42" font-family="Helvetica,sans-Serif" font-size="10.00"> values</text>
</g>
<!-- Node10 -->
<g id="node10" class="node">
<title>Node10</title>
<g id="a_node10"><a xlink:title=" ">
<polygon fill="none" stroke="#bfbfbf" points="3,-148.92 3,-167.92 53,-167.92 53,-148.92 3,-148.92"/>
<text text-anchor="middle" x="28" y="-155.92" font-family="Helvetica,sans-Serif" font-size="10.00">int64_t</text>
</a>
</g>
</g>
<!-- Node10&#45;&gt;Node2 -->
<g id="edge21" class="edge">
<title>Node10&#45;&gt;Node2</title>
<path fill="none" stroke="#9a32cd" stroke-dasharray="5,2" d="M53.52,-144.09C59.97,-140.98 67.08,-138.11 74,-136.42 305.46,-79.68 434.72,10.04 610,-151.42 656.82,-194.55 660.71,-412.01 660.99,-460.72"/>
<polygon fill="#9a32cd" stroke="#9a32cd" points="51.87,-141 44.61,-148.72 55.1,-147.21 51.87,-141"/>
<text text-anchor="middle" x="307.5" y="-96.42" font-family="Helvetica,sans-Serif" font-size="10.00"> current_linenum</text>
<text text-anchor="middle" x="307.5" y="-85.42" font-family="Helvetica,sans-Serif" font-size="10.00">eval_linenum</text>
</g>
<!-- Node10&#45;&gt;Node9 -->
<g id="edge13" class="edge">
<title>Node10&#45;&gt;Node9</title>
<path fill="none" stroke="#9a32cd" stroke-dasharray="5,2" d="M35.23,-177.7C43.14,-201.42 57.74,-242.68 74,-276.42 99.78,-329.91 120.58,-336.04 142,-391.42 156.24,-428.25 136.65,-446.58 160,-478.42 164.45,-484.48 170.92,-489.22 177.5,-492.81"/>
<polygon fill="#9a32cd" stroke="#9a32cd" points="38.53,-176.54 32.08,-168.13 31.88,-178.72 38.53,-176.54"/>
<text text-anchor="middle" x="108" y="-394.42" font-family="Helvetica,sans-Serif" font-size="10.00"> value</text>
</g>
<!-- Node10&#45;&gt;Node19 -->
<g id="edge36" class="edge">
<title>Node10&#45;&gt;Node19</title>
<path fill="none" stroke="#9a32cd" stroke-dasharray="5,2" d="M62.94,-150.14C106.85,-141.01 185.17,-130.09 248,-150.42 300.7,-167.47 316.09,-178.87 349,-223.42 363.78,-243.43 354,-255.21 367,-276.42 378.69,-295.5 397.81,-313.25 410.28,-323.72"/>
<polygon fill="#9a32cd" stroke="#9a32cd" points="62.1,-146.74 53.07,-152.29 63.59,-153.58 62.1,-146.74"/>
<text text-anchor="middle" x="204" y="-153.42" font-family="Helvetica,sans-Serif" font-size="10.00"> line</text>
</g>
<!-- Node10&#45;&gt;Node25 -->
<g id="edge49" class="edge">
<title>Node10&#45;&gt;Node25</title>
<path fill="none" stroke="#9a32cd" stroke-dasharray="5,2" d="M63.49,-162.78C95.74,-166.86 143.37,-172.88 173.79,-176.72"/>
<polygon fill="#9a32cd" stroke="#9a32cd" points="63.55,-159.26 53.19,-161.48 62.68,-166.2 63.55,-159.26"/>
<text text-anchor="middle" x="108" y="-198.42" font-family="Helvetica,sans-Serif" font-size="10.00"> line_after_for</text>
<text text-anchor="middle" x="108" y="-187.42" font-family="Helvetica,sans-Serif" font-size="10.00">step</text>
<text text-anchor="middle" x="108" y="-176.42" font-family="Helvetica,sans-Serif" font-size="10.00">to</text>
</g>
<!-- Node11&#45;&gt;Node2 -->
<g id="edge17" class="edge">
<title>Node11&#45;&gt;Node2</title>
<path fill="none" stroke="#9a32cd" stroke-dasharray="5,2" d="M241.39,-911.02C323.23,-919.07 521.58,-925.19 610,-810.42 651.44,-756.63 659.5,-529.93 660.79,-480.12"/>
<polygon fill="#9a32cd" stroke="#9a32cd" points="241.4,-907.5 231.09,-909.94 240.67,-914.46 241.4,-907.5"/>
<text text-anchor="middle" x="423.5" y="-915.42" font-family="Helvetica,sans-Serif" font-size="10.00"> cons</text>
</g>
<!-- Node12 -->
<g id="node12" class="node">
<title>Node12</title>
<g id="a_node12"><a xlink:title=" ">
<polygon fill="none" stroke="#bfbfbf" points="5.5,-900.92 5.5,-919.92 50.5,-919.92 50.5,-900.92 5.5,-900.92"/>
<text text-anchor="middle" x="28" y="-907.92" font-family="Helvetica,sans-Serif" font-size="10.00">size_t</text>
</a>
</g>
</g>
<!-- Node12&#45;&gt;Node11 -->
<g id="edge19" class="edge">
<title>Node12&#45;&gt;Node11</title>
<path fill="none" stroke="#9a32cd" stroke-dasharray="5,2" d="M60.8,-909.69C94.08,-908.92 145.74,-907.73 176.77,-907.02"/>
<polygon fill="#9a32cd" stroke="#9a32cd" points="60.6,-906.19 50.69,-909.92 60.76,-913.19 60.6,-906.19"/>
<text text-anchor="middle" x="108" y="-911.42" font-family="Helvetica,sans-Serif" font-size="10.00"> bufcnt</text>
</g>
<!-- Node13 -->
<g id="node13" class="node">
<title>Node13</title>
<g id="a_node13"><a xlink:title=" ">
<polygon fill="none" stroke="#bfbfbf" points="3,-938.92 3,-957.92 53,-957.92 53,-938.92 3,-938.92"/>
<text text-anchor="middle" x="28" y="-945.92" font-family="Helvetica,sans-Serif" font-size="10.00">uint8_t</text>
</a>
</g>
</g>
<!-- Node13&#45;&gt;Node11 -->
<g id="edge20" class="edge">
<title>Node13&#45;&gt;Node11</title>
<path fill="none" stroke="#9a32cd" stroke-dasharray="5,2" d="M63.4,-941.31C85.84,-936.55 115.75,-929.97 142,-923.42 153.52,-920.54 166.18,-917.07 176.96,-914.01"/>
<polygon fill="#9a32cd" stroke="#9a32cd" points="62.4,-937.95 53.34,-943.43 63.84,-944.8 62.4,-937.95"/>
<text text-anchor="middle" x="108" y="-974.42" font-family="Helvetica,sans-Serif" font-size="10.00"> attributes</text>
<text text-anchor="middle" x="108" y="-963.42" font-family="Helvetica,sans-Serif" font-size="10.00">last</text>
<text text-anchor="middle" x="108" y="-952.42" font-family="Helvetica,sans-Serif" font-size="10.00">x</text>
<text text-anchor="middle" x="108" y="-941.42" font-family="Helvetica,sans-Serif" font-size="10.00">y</text>
</g>
<!-- Node14 -->
<g id="node14" class="node">
<title>Node14</title>
<g id="a_node14"><a xlink:title=" ">
<polygon fill="none" stroke="#bfbfbf" points="398.5,-247.92 398.5,-266.92 448.5,-266.92 448.5,-247.92 398.5,-247.92"/>
<text text-anchor="middle" x="423.5" y="-254.92" font-family="Helvetica,sans-Serif" font-size="10.00">int32_t</text>
</a>
</g>
</g>
<!-- Node14&#45;&gt;Node2 -->
<g id="edge22" class="edge">
<title>Node14&#45;&gt;Node2</title>
<path fill="none" stroke="#9a32cd" stroke-dasharray="5,2" d="M458.82,-256.83C506.13,-256.75 588.04,-259.47 610,-278.42 638.46,-302.98 655.43,-424.94 659.84,-460.61"/>
<polygon fill="#9a32cd" stroke="#9a32cd" points="458.7,-253.33 448.72,-256.89 458.74,-260.33 458.7,-253.33"/>
<text text-anchor="middle" x="554" y="-281.42" font-family="Helvetica,sans-Serif" font-size="10.00"> graphics_colour</text>
</g>
<!-- Node15&#45;&gt;Node2 -->
<g id="edge23" class="edge">
<title>Node15&#45;&gt;Node2</title>
<path fill="none" stroke="#9a32cd" stroke-dasharray="5,2" d="M251.76,-825.1C337.98,-843.5 521.25,-867.35 610,-764.42 648.14,-720.18 658.66,-525.76 660.62,-480.06"/>
<polygon fill="#9a32cd" stroke="#9a32cd" points="252.51,-821.68 241.99,-822.95 251,-828.52 252.51,-821.68"/>
<text text-anchor="middle" x="423.5" y="-854.42" font-family="Helvetica,sans-Serif" font-size="10.00"> double_variables</text>
<text text-anchor="middle" x="423.5" y="-843.42" font-family="Helvetica,sans-Serif" font-size="10.00">local_double_variables</text>
</g>
<!-- Node15&#45;&gt;Node15 -->
<g id="edge26" class="edge">
<title>Node15&#45;&gt;Node15</title>
<path fill="none" stroke="#9a32cd" stroke-dasharray="5,2" d="M186.22,-832.82C187.41,-837.73 193.34,-841.42 204,-841.42 221.06,-841.42 225.99,-831.98 218.8,-823.17"/>
<polygon fill="#9a32cd" stroke="#9a32cd" points="189.59,-833.76 189.2,-823.17 182.91,-831.7 189.59,-833.76"/>
<text text-anchor="middle" x="204" y="-844.42" font-family="Helvetica,sans-Serif" font-size="10.00"> next</text>
</g>
<!-- Node16 -->
<g id="node16" class="node">
<title>Node16</title>
<g id="a_node16"><a xlink:title=" ">
<polygon fill="none" stroke="#bfbfbf" points="3,-810.92 3,-829.92 53,-829.92 53,-810.92 3,-810.92"/>
<text text-anchor="middle" x="28" y="-817.92" font-family="Helvetica,sans-Serif" font-size="10.00">double</text>
</a>
</g>
</g>
<!-- Node16&#45;&gt;Node15 -->
<g id="edge24" class="edge">
<title>Node16&#45;&gt;Node15</title>
<path fill="none" stroke="#9a32cd" stroke-dasharray="5,2" d="M63.2,-819.04C90.91,-817.93 130.09,-816.35 159.93,-815.15"/>
<polygon fill="#9a32cd" stroke="#9a32cd" points="63.05,-815.55 53.19,-819.44 63.33,-822.54 63.05,-815.55"/>
<text text-anchor="middle" x="108" y="-821.42" font-family="Helvetica,sans-Serif" font-size="10.00"> value</text>
</g>
<!-- Node17 -->
<g id="node17" class="node">
<title>Node17</title>
<g id="a_node17"><a xlink:title=" ">
<polygon fill="none" stroke="#bfbfbf" points="409,-195.92 409,-214.92 438,-214.92 438,-195.92 409,-195.92"/>
<text text-anchor="middle" x="423.5" y="-202.92" font-family="Helvetica,sans-Serif" font-size="10.00">int</text>
</a>
</g>
</g>
<!-- Node17&#45;&gt;Node2 -->
<g id="edge28" class="edge">
<title>Node17&#45;&gt;Node2</title>
<path fill="none" stroke="#9a32cd" stroke-dasharray="5,2" d="M447.88,-195.84C486.46,-181.77 563.75,-161.06 610,-199.42 651.36,-233.72 659.4,-416.27 660.75,-460.68"/>
<polygon fill="#9a32cd" stroke="#9a32cd" points="446.18,-192.74 438.09,-199.58 448.68,-199.28 446.18,-192.74"/>
<text text-anchor="middle" x="554" y="-246.42" font-family="Helvetica,sans-Serif" font-size="10.00"> bracket_depth</text>
<text text-anchor="middle" x="554" y="-235.42" font-family="Helvetica,sans-Serif" font-size="10.00">current_token</text>
<text text-anchor="middle" x="554" y="-224.42" font-family="Helvetica,sans-Serif" font-size="10.00">ended</text>
<text text-anchor="middle" x="554" y="-213.42" font-family="Helvetica,sans-Serif" font-size="10.00">errored</text>
<text text-anchor="middle" x="554" y="-202.42" font-family="Helvetica,sans-Serif" font-size="10.00">oldlen</text>
</g>
<!-- Node18&#45;&gt;Node2 -->
<g id="edge29" class="edge">
<title>Node18&#45;&gt;Node2</title>
<path fill="none" stroke="#9a32cd" stroke-dasharray="5,2" d="M482.7,-453.08C528.33,-457.52 590.2,-463.53 627.77,-467.19"/>
<polygon fill="#9a32cd" stroke="#9a32cd" points="482.94,-449.58 472.64,-452.1 482.26,-456.55 482.94,-449.58"/>
<text text-anchor="middle" x="554" y="-468.42" font-family="Helvetica,sans-Serif" font-size="10.00"> int_array_variables</text>
</g>
<!-- Node19&#45;&gt;Node2 -->
<g id="edge33" class="edge">
<title>Node19&#45;&gt;Node2</title>
<path fill="none" stroke="#9a32cd" stroke-dasharray="5,2" d="M479.2,-337.17C518.96,-342.34 572.19,-354.56 610,-383.42 636.72,-403.81 652.05,-442.55 658.04,-460.65"/>
<polygon fill="#9a32cd" stroke="#9a32cd" points="479.49,-333.68 469.15,-335.98 478.67,-340.63 479.49,-333.68"/>
<text text-anchor="middle" x="554" y="-386.42" font-family="Helvetica,sans-Serif" font-size="10.00"> defs</text>
</g>
<!-- Node19&#45;&gt;Node19 -->
<g id="edge37" class="edge">
<title>Node19&#45;&gt;Node19</title>
<path fill="none" stroke="#9a32cd" stroke-dasharray="5,2" d="M402.02,-352.82C403.45,-357.73 410.61,-361.42 423.5,-361.42 444.12,-361.42 450.08,-351.98 441.38,-343.17"/>
<polygon fill="#9a32cd" stroke="#9a32cd" points="405.4,-353.77 405.62,-343.17 398.84,-351.32 405.4,-353.77"/>
<text text-anchor="middle" x="423.5" y="-364.42" font-family="Helvetica,sans-Serif" font-size="10.00"> next</text>
</g>
<!-- Node20 -->
<g id="node20" class="node">
<title>Node20</title>
<g id="a_node20"><a xlink:title=" ">
<polygon fill="none" stroke="#bfbfbf" points="168.5,-293.92 168.5,-312.92 239.5,-312.92 239.5,-293.92 168.5,-293.92"/>
<text text-anchor="middle" x="204" y="-300.92" font-family="Helvetica,sans-Serif" font-size="10.00">ub_fn_type</text>
</a>
</g>
</g>
<!-- Node20&#45;&gt;Node19 -->
<g id="edge34" class="edge">
<title>Node20&#45;&gt;Node19</title>
<path fill="none" stroke="#9a32cd" stroke-dasharray="5,2" d="M250.07,-309.63C287.52,-314.8 340.51,-322.11 377.85,-327.26"/>
<polygon fill="#9a32cd" stroke="#9a32cd" points="250.33,-306.14 239.95,-308.24 249.37,-313.07 250.33,-306.14"/>
<text text-anchor="middle" x="307.5" y="-325.42" font-family="Helvetica,sans-Serif" font-size="10.00"> type</text>
</g>
<!-- Node21&#45;&gt;Node2 -->
<g id="edge50" class="edge">
<title>Node21&#45;&gt;Node2</title>
<path fill="none" stroke="#9a32cd" stroke-dasharray="5,2" d="M246.53,-392.06C312.01,-397.93 436.26,-409.6 480,-417.42 538.68,-427.9 553.25,-432.17 610,-450.42 619.42,-453.45 629.6,-457.31 638.37,-460.84"/>
<polygon fill="#9a32cd" stroke="#9a32cd" points="246.82,-388.57 236.55,-391.17 246.2,-395.54 246.82,-388.57"/>
<text text-anchor="middle" x="423.5" y="-420.42" font-family="Helvetica,sans-Serif" font-size="10.00"> param</text>
</g>
<!-- Node21&#45;&gt;Node19 -->
<g id="edge38" class="edge">
<title>Node21&#45;&gt;Node19</title>
<path fill="none" stroke="#9a32cd" stroke-dasharray="5,2" d="M246.69,-382.13C275.67,-377.31 315.03,-369.9 349,-360.42 366.15,-355.63 385,-348.67 399.31,-343.02"/>
<polygon fill="#9a32cd" stroke="#9a32cd" points="245.83,-378.72 236.52,-383.78 246.95,-385.63 245.83,-378.72"/>
<text text-anchor="middle" x="307.5" y="-381.42" font-family="Helvetica,sans-Serif" font-size="10.00"> params</text>
</g>
<!-- Node21&#45;&gt;Node21 -->
<g id="edge40" class="edge">
<title>Node21&#45;&gt;Node21</title>
<path fill="none" stroke="#9a32cd" stroke-dasharray="5,2" d="M186.22,-407.82C187.41,-412.73 193.34,-416.42 204,-416.42 221.06,-416.42 225.99,-406.98 218.8,-398.17"/>
<polygon fill="#9a32cd" stroke="#9a32cd" points="189.59,-408.76 189.2,-398.17 182.91,-406.7 189.59,-408.76"/>
<text text-anchor="middle" x="204" y="-419.42" font-family="Helvetica,sans-Serif" font-size="10.00"> next</text>
</g>
<!-- Node22&#45;&gt;Node2 -->
<g id="edge42" class="edge">
<title>Node22&#45;&gt;Node2</title>
<path fill="none" stroke="#9a32cd" stroke-dasharray="5,2" d="M249.57,-9.1C333.44,3.7 514.82,17.38 610,-81.42 664.23,-137.71 662.21,-405.7 661.22,-460.59"/>
<polygon fill="#9a32cd" stroke="#9a32cd" points="248.92,-5.66 239.6,-10.69 250.02,-12.58 248.92,-5.66"/>
<text text-anchor="middle" x="423.5" y="-26.42" font-family="Helvetica,sans-Serif" font-size="10.00"> line_tail</text>
<text text-anchor="middle" x="423.5" y="-15.42" font-family="Helvetica,sans-Serif" font-size="10.00">lines</text>
</g>
<!-- Node22&#45;&gt;Node22 -->
<g id="edge45" class="edge">
<title>Node22&#45;&gt;Node22</title>
<path fill="none" stroke="#9a32cd" stroke-dasharray="5,2" d="M186.22,-36.82C187.41,-41.73 193.34,-45.42 204,-45.42 221.06,-45.42 225.99,-35.98 218.8,-27.17"/>
<polygon fill="#9a32cd" stroke="#9a32cd" points="189.59,-37.76 189.2,-27.17 182.91,-35.7 189.59,-37.76"/>
<text text-anchor="middle" x="204" y="-59.42" font-family="Helvetica,sans-Serif" font-size="10.00"> next</text>
<text text-anchor="middle" x="204" y="-48.42" font-family="Helvetica,sans-Serif" font-size="10.00">prev</text>
</g>
<!-- Node23 -->
<g id="node23" class="node">
<title>Node23</title>
<g id="a_node23"><a xlink:title=" ">
<polygon fill="none" stroke="#bfbfbf" points="0,-7.92 0,-26.92 56,-26.92 56,-7.92 0,-7.92"/>
<text text-anchor="middle" x="28" y="-14.92" font-family="Helvetica,sans-Serif" font-size="10.00">uint32_t</text>
</a>
</g>
</g>
<!-- Node23&#45;&gt;Node22 -->
<g id="edge44" class="edge">
<title>Node23&#45;&gt;Node22</title>
<path fill="none" stroke="#9a32cd" stroke-dasharray="5,2" d="M66.33,-17.42C96.52,-17.42 138.71,-17.42 168.21,-17.42"/>
<polygon fill="#9a32cd" stroke="#9a32cd" points="66.19,-13.92 56.19,-17.42 66.19,-20.92 66.19,-13.92"/>
<text text-anchor="middle" x="108" y="-20.42" font-family="Helvetica,sans-Serif" font-size="10.00"> line_number</text>
</g>
<!-- Node24 -->
<g id="node24" class="node">
<title>Node24</title>
<g id="a_node24"><a xlink:title=" ">
<polygon fill="none" stroke="#bfbfbf" points="400.5,-736.92 400.5,-755.92 446.5,-755.92 446.5,-736.92 400.5,-736.92"/>
<text text-anchor="middle" x="423.5" y="-743.92" font-family="Helvetica,sans-Serif" font-size="10.00">void *</text>
</a>
</g>
</g>
<!-- Node24&#45;&gt;Node2 -->
<g id="edge46" class="edge">
<title>Node24&#45;&gt;Node2</title>
<path fill="none" stroke="#9a32cd" stroke-dasharray="5,2" d="M456.64,-750C497.95,-752.68 569.21,-750.5 610,-710.42 643.8,-677.21 657.37,-520.43 660.35,-479.97"/>
<polygon fill="#9a32cd" stroke="#9a32cd" points="456.81,-746.5 446.57,-749.21 456.27,-753.48 456.81,-746.5"/>
<text text-anchor="middle" x="554" y="-752.42" font-family="Helvetica,sans-Serif" font-size="10.00"> fn_return</text>
</g>
<!-- Node25&#45;&gt;Node2 -->
<g id="edge47" class="edge">
<title>Node25&#45;&gt;Node2</title>
<path fill="none" stroke="#9a32cd" stroke-dasharray="5,2" d="M244.04,-174.23C334.81,-160.77 556.44,-133.67 610,-180.42 653.42,-218.32 659.92,-414.46 660.85,-460.66"/>
<polygon fill="#9a32cd" stroke="#9a32cd" points="243.51,-170.77 234.14,-175.72 244.55,-177.69 243.51,-170.77"/>
<text text-anchor="middle" x="423.5" y="-162.42" font-family="Helvetica,sans-Serif" font-size="10.00"> for_stack</text>
</g>
</g>
</svg>
        <g id="navigator" transform="translate(0 0)" fill="#404254">
                <rect fill="#f2f5e9" fill-opacity="0.5" stroke="#606060" stroke-width=".5" x="0" y="0" width="60" height="60"/>
                <use id="zoomplus" xlink:href="#zoomPlus" x="17" y="9" onmousedown="handleZoom(evt,'in')"/>
                <use id="zoomminus" xlink:href="#zoomMin" x="42" y="9" onmousedown="handleZoom(evt,'out')"/>
                <use id="reset" xlink:href="#resetDef" x="30" y="36" onmousedown="handleReset()"/>
                <g id="arrowUp" xlink:href="#dirArrow" transform="translate(30 24)" onmousedown="handlePan(0,-1)">
                  <use xlink:href="#rim" fill="#404040">
                        <set attributeName="fill" to="#808080" begin="arrowUp.mouseover" end="arrowUp.mouseout"/>
                  </use>
                  <path fill="none" stroke="white" stroke-width="1.5" d="M0,-3.0v7 M-2.5,-0.5L0,-3.0L2.5,-0.5"/>
                </g>
                <g id="arrowRight" xlink:href="#dirArrow" transform="rotate(90) translate(36 -43)" onmousedown="handlePan(1,0)">
                  <use xlink:href="#rim" fill="#404040">
                        <set attributeName="fill" to="#808080" begin="arrowRight.mouseover" end="arrowRight.mouseout"/>
                  </use>
                  <path fill="none" stroke="white" stroke-width="1.5" d="M0,-3.0v7 M-2.5,-0.5L0,-3.0L2.5,-0.5"/>
                </g>
                <g id="arrowDown" xlink:href="#dirArrow" transform="rotate(180) translate(-30 -48)" onmousedown="handlePan(0,1)">
                  <use xlink:href="#rim" fill="#404040">
                        <set attributeName="fill" to="#808080" begin="arrowDown.mouseover" end="arrowDown.mouseout"/>
                  </use>
                  <path fill="none" stroke="white" stroke-width="1.5" d="M0,-3.0v7 M-2.5,-0.5L0,-3.0L2.5,-0.5"/>
                </g>
                <g id="arrowLeft" xlink:href="#dirArrow" transform="rotate(270) translate(-36 17)" onmousedown="handlePan(-1,0)">
                  <use xlink:href="#rim" fill="#404040">
                        <set attributeName="fill" to="#808080" begin="arrowLeft.mouseover" end="arrowLeft.mouseout"/>
                  </use>
                  <path fill="none" stroke="white" stroke-width="1.5" d="M0,-3.0v7 M-2.5,-0.5L0,-3.0L2.5,-0.5"/>
                </g>
        </g>
        <svg viewBox="0 0 15 15" width="100%" height="30px" preserveAspectRatio="xMaxYMin meet">
         <g id="arrow_out" transform="scale(0.3 0.3)">
          <a xlink:href="structubasic__double__fn__coll__graph_org.svg" target="_base">
           <rect id="button" ry="5" rx="5" y="6" x="6" height="38" width="38"
                fill="#f2f5e9" fill-opacity="0.5" stroke="#606060" stroke-width="1.0"/>
           <path id="arrow"
             d="M 11.500037,31.436501 C 11.940474,20.09759 22.043105,11.32322 32.158766,21.979434 L 37.068811,17.246167 C 37.068811,17.246167 37.088388,32 37.088388,32 L 22.160133,31.978069 C 22.160133,31.978069 26.997745,27.140456 26.997745,27.140456 C 18.528582,18.264221 13.291696,25.230495 11.500037,31.436501 z"
             style="fill:#404040;"/>
          </a>
         </g>
        </svg>
</svg>
