<?xml version="1.0" encoding="UTF-8" standalone="no"?>
<!DOCTYPE svg PUBLIC "-//W3C//DTD SVG 1.1//EN"
 "http://www.w3.org/Graphics/SVG/1.1/DTD/svg11.dtd">
<!-- Generated by graphviz version 2.43.0 (0)
 -->
<!-- Title: rfs_directory_start_t Pages: 1 -->
<svg width="220pt" height="117pt"
 viewBox="0.00 0.00 220.00 117.00" xmlns="http://www.w3.org/2000/svg" xmlns:xlink="http://www.w3.org/1999/xlink">
<g id="graph0" class="graph" transform="scale(1 1) rotate(0) translate(4 113)">
<title>rfs_directory_start_t</title>
<!-- Node1 -->
<g id="node1" class="node">
<title>Node1</title>
<g id="a_node1"><a xlink:title="On&#45;disk directory start entry.">
<polygon fill="#bfbfbf" stroke="black" points="57.5,-0.5 57.5,-19.5 172.5,-19.5 172.5,-0.5 57.5,-0.5"/>
<text text-anchor="middle" x="115" y="-7.5" font-family="Helvetica,sans-Serif" font-size="10.00">rfs_directory_start_t</text>
</a>
</g>
</g>
<!-- Node2 -->
<g id="node2" class="node">
<title>Node2</title>
<g id="a_node2"><a xlink:title=" ">
<polygon fill="none" stroke="#bfbfbf" points="0,-89.5 0,-108.5 56,-108.5 56,-89.5 0,-89.5"/>
<text text-anchor="middle" x="28" y="-96.5" font-family="Helvetica,sans-Serif" font-size="10.00">uint64_t</text>
</a>
</g>
</g>
<!-- Node2&#45;&gt;Node1 -->
<g id="edge1" class="edge">
<title>Node2&#45;&gt;Node1</title>
<path fill="none" stroke="#9a32cd" stroke-dasharray="5,2" d="M29.78,-78.88C31.92,-65.9 36.63,-49.13 47,-38 54.96,-29.45 65.99,-23.56 76.84,-19.52"/>
<polygon fill="#9a32cd" stroke="#9a32cd" points="26.28,-78.72 28.49,-89.08 33.22,-79.6 26.28,-78.72"/>
<text text-anchor="middle" x="79" y="-63" font-family="Helvetica,sans-Serif" font-size="10.00"> continuation</text>
<text text-anchor="middle" x="79" y="-52" font-family="Helvetica,sans-Serif" font-size="10.00">parent</text>
<text text-anchor="middle" x="79" y="-41" font-family="Helvetica,sans-Serif" font-size="10.00">sectors</text>
</g>
<!-- Node3 -->
<g id="node3" class="node">
<title>Node3</title>
<g id="a_node3"><a xlink:title=" ">
<polygon fill="none" stroke="#bfbfbf" points="96,-89.5 96,-108.5 134,-108.5 134,-89.5 96,-89.5"/>
<text text-anchor="middle" x="115" y="-96.5" font-family="Helvetica,sans-Serif" font-size="10.00">char</text>
</a>
</g>
</g>
<!-- Node3&#45;&gt;Node1 -->
<g id="edge2" class="edge">
<title>Node3&#45;&gt;Node1</title>
<path fill="none" stroke="#9a32cd" stroke-dasharray="5,2" d="M115,-79.19C115,-60.74 115,-33.41 115,-19.62"/>
<polygon fill="#9a32cd" stroke="#9a32cd" points="111.5,-79.34 115,-89.34 118.5,-79.34 111.5,-79.34"/>
<text text-anchor="middle" x="138" y="-57.5" font-family="Helvetica,sans-Serif" font-size="10.00"> reserved</text>
<text text-anchor="middle" x="138" y="-46.5" font-family="Helvetica,sans-Serif" font-size="10.00">title</text>
</g>
<!-- Node4 -->
<g id="node4" class="node">
<title>Node4</title>
<g id="a_node4"><a xlink:title=" ">
<polygon fill="none" stroke="#bfbfbf" points="156,-89.5 156,-108.5 212,-108.5 212,-89.5 156,-89.5"/>
<text text-anchor="middle" x="184" y="-96.5" font-family="Helvetica,sans-Serif" font-size="10.00">uint32_t</text>
</a>
</g>
</g>
<!-- Node4&#45;&gt;Node1 -->
<g id="edge3" class="edge">
<title>Node4&#45;&gt;Node1</title>
<path fill="none" stroke="#9a32cd" stroke-dasharray="5,2" d="M180.66,-79.31C177.59,-66.52 171.96,-49.81 162,-38 155.33,-30.09 145.71,-23.99 136.91,-19.61"/>
<polygon fill="#9a32cd" stroke="#9a32cd" points="177.28,-80.23 182.74,-89.31 184.13,-78.81 177.28,-80.23"/>
<text text-anchor="middle" x="191.5" y="-52" font-family="Helvetica,sans-Serif" font-size="10.00"> flags</text>
</g>
</g>
</svg>
