<?xml version="1.0" encoding="UTF-8" standalone="no"?>
<!DOCTYPE svg PUBLIC "-//W3C//DTD SVG 1.1//EN"
 "http://www.w3.org/Graphics/SVG/1.1/DTD/svg11.dtd">
<!-- Generated by graphviz version 2.43.0 (0)
 -->
<!-- Title: fs_directory_entry_t Pages: 1 -->
<!--zoomable 232 -->
<svg id="main" version="1.1" xmlns="http://www.w3.org/2000/svg" xmlns:xlink="http://www.w3.org/1999/xlink" xml:space="preserve" onload="init(evt)">
<style type="text/css"><![CDATA[
.edge:hover path { stroke: red; }
.edge:hover polygon { stroke: red; fill: red; }
]]></style>
<script type="text/javascript"><![CDATA[
var edges = document.getElementsByTagName('g');
if (edges && edges.length) {
  for (var i=0;i<edges.length;i++) {
    if (edges[i].id.substr(0,4)=='edge') {
      edges[i].setAttribute('class','edge');
    }
  }
}
]]></script>
        <defs>
                <circle id="rim" cx="0" cy="0" r="7"/>
                <circle id="rim2" cx="0" cy="0" r="3.5"/>
                <g id="zoomPlus">
                        <use xlink:href="#rim" fill="#404040">
                                <set attributeName="fill" to="#808080" begin="zoomplus.mouseover" end="zoomplus.mouseout"/>
                        </use>
                        <path d="M-4,0h8M0,-4v8" fill="none" stroke="white" stroke-width="1.5" pointer-events="none"/>
                </g>
                <g id="zoomMin">
                        <use xlink:href="#rim" fill="#404040">
                                <set attributeName="fill" to="#808080" begin="zoomminus.mouseover" end="zoomminus.mouseout"/>
                        </use>
                        <path d="M-4,0h8" fill="none" stroke="white" stroke-width="1.5" pointer-events="none"/>
                </g>
                <g id="dirArrow">
                        <path fill="none" stroke="white" stroke-width="1.5" d="M0,-3.0v7 M-2.5,-0.5L0,-3.0L2.5,-0.5"/>
                </g>
               <g id="resetDef">
                       <use xlink:href="#rim2" fill="#404040">
                               <set attributeName="fill" to="#808080" begin="reset.mouseover" end="reset.mouseout"/>
                       </use>
               </g>
        </defs>

<script type="text/javascript">
var viewWidth = 747;
var viewHeight = 232;
var sectionId = 'dynsection-0';
</script>
<script xlink:href="svgpan.js"/>
<svg id="graph" class="graph">
<g id="viewport">
<title>fs_directory_entry_t</title>
<!-- Node1 -->
<g id="node1" class="node">
<title>Node1</title>
<g id="a_node1"><a xlink:title="A VFS directory entry. Files AND directories have these, but internally there is also a tree of fs_tr...">
<polygon fill="#bfbfbf" stroke="black" points="101,-87 101,-106 215,-106 215,-87 101,-87"/>
<text text-anchor="middle" x="158" y="-94" font-family="Helvetica,sans-Serif" font-size="10.00">fs_directory_entry_t</text>
</a>
</g>
</g>
<!-- Node1&#45;&gt;Node1 -->
<g id="edge20" class="edge">
<title>Node1&#45;&gt;Node1</title>
<path fill="none" stroke="#9a32cd" stroke-dasharray="5,2" d="M225.44,-101.96C230.14,-100.71 233,-98.89 233,-96.5 233,-92.67 225.67,-90.31 215.23,-89.41"/>
<polygon fill="#9a32cd" stroke="#9a32cd" points="224.55,-98.56 215.23,-103.59 225.65,-105.47 224.55,-98.56"/>
<text text-anchor="middle" x="245.5" y="-94" font-family="Helvetica,sans-Serif" font-size="10.00"> next</text>
</g>
<!-- Node7 -->
<g id="node7" class="node">
<title>Node7</title>
<g id="a_node7"><a xlink:href="structfs__tree__t.html" target="_top" xlink:title="Used internally by filesystem.c to cache directories to RAM.">
<polygon fill="none" stroke="black" points="264.5,-7 264.5,-26 323.5,-26 323.5,-7 264.5,-7"/>
<text text-anchor="middle" x="294" y="-14" font-family="Helvetica,sans-Serif" font-size="10.00">fs_tree_t</text>
</a>
</g>
</g>
<!-- Node1&#45;&gt;Node7 -->
<g id="edge10" class="edge">
<title>Node1&#45;&gt;Node7</title>
<path fill="none" stroke="#9a32cd" stroke-dasharray="5,2" d="M165.57,-77.57C170.24,-68.44 177.07,-57.86 186,-51 208.89,-33.42 241.1,-24.98 264.38,-20.99"/>
<polygon fill="#9a32cd" stroke="#9a32cd" points="162.39,-76.11 161.34,-86.65 168.73,-79.06 162.39,-76.11"/>
<text text-anchor="middle" x="198" y="-54" font-family="Helvetica,sans-Serif" font-size="10.00"> files</text>
</g>
<!-- Node2 -->
<g id="node2" class="node">
<title>Node2</title>
<g id="a_node2"><a xlink:title=" ">
<polygon fill="none" stroke="black" points="277,-204.5 277,-223.5 315,-223.5 315,-204.5 277,-204.5"/>
<text text-anchor="middle" x="296" y="-211.5" font-family="Helvetica,sans-Serif" font-size="10.00">char</text>
</a>
</g>
</g>
<!-- Node2&#45;&gt;Node1 -->
<g id="edge1" class="edge">
<title>Node2&#45;&gt;Node1</title>
<path fill="none" stroke="#9a32cd" stroke-dasharray="5,2" d="M267.08,-209.26C250.36,-205.75 229.94,-198.99 216,-186 196.62,-167.94 208,-152.84 193,-131 186.43,-121.43 176.77,-112.44 169.27,-106.19"/>
<polygon fill="#9a32cd" stroke="#9a32cd" points="266.45,-212.7 276.92,-211.05 267.7,-205.82 266.45,-212.7"/>
<text text-anchor="middle" x="249" y="-167" font-family="Helvetica,sans-Serif" font-size="10.00"> alt_filename</text>
<text text-anchor="middle" x="249" y="-156" font-family="Helvetica,sans-Serif" font-size="10.00">device_name</text>
<text text-anchor="middle" x="249" y="-145" font-family="Helvetica,sans-Serif" font-size="10.00">filename</text>
</g>
<!-- Node2&#45;&gt;Node7 -->
<g id="edge8" class="edge">
<title>Node2&#45;&gt;Node7</title>
<path fill="none" stroke="#9a32cd" stroke-dasharray="5,2" d="M295.81,-194.3C295.39,-153.04 294.39,-55.48 294.09,-26.05"/>
<polygon fill="#9a32cd" stroke="#9a32cd" points="292.31,-194.38 295.91,-204.35 299.31,-194.31 292.31,-194.38"/>
<text text-anchor="middle" x="328.5" y="-99.5" font-family="Helvetica,sans-Serif" font-size="10.00"> device_name</text>
<text text-anchor="middle" x="328.5" y="-88.5" font-family="Helvetica,sans-Serif" font-size="10.00">name</text>
</g>
<!-- Node8 -->
<g id="node8" class="node">
<title>Node8</title>
<g id="a_node8"><a xlink:href="structfilesystem__t.html" target="_top" xlink:title="Defines a filesystem driver.">
<polygon fill="none" stroke="black" points="453.5,-87 453.5,-106 530.5,-106 530.5,-87 453.5,-87"/>
<text text-anchor="middle" x="492" y="-94" font-family="Helvetica,sans-Serif" font-size="10.00">filesystem_t</text>
</a>
</g>
</g>
<!-- Node2&#45;&gt;Node8 -->
<g id="edge12" class="edge">
<title>Node2&#45;&gt;Node8</title>
<path fill="none" stroke="#9a32cd" stroke-dasharray="5,2" d="M325.21,-207.63C342.18,-203.57 363.41,-196.8 380,-186 407.44,-168.14 403.26,-151.22 429,-131 442.05,-120.75 458.7,-112.05 471.61,-106.09"/>
<polygon fill="#9a32cd" stroke="#9a32cd" points="324.28,-204.25 315.27,-209.83 325.79,-211.09 324.28,-204.25"/>
<text text-anchor="middle" x="444.5" y="-156" font-family="Helvetica,sans-Serif" font-size="10.00"> name</text>
</g>
<!-- Node3 -->
<g id="node3" class="node">
<title>Node3</title>
<g id="a_node3"><a xlink:title=" ">
<polygon fill="none" stroke="black" points="72,-204.5 72,-223.5 128,-223.5 128,-204.5 72,-204.5"/>
<text text-anchor="middle" x="100" y="-211.5" font-family="Helvetica,sans-Serif" font-size="10.00">uint16_t</text>
</a>
</g>
</g>
<!-- Node3&#45;&gt;Node1 -->
<g id="edge2" class="edge">
<title>Node3&#45;&gt;Node1</title>
<path fill="none" stroke="#9a32cd" stroke-dasharray="5,2" d="M102.36,-194.25C105.2,-176.85 111.14,-150.76 123,-131 128.89,-121.19 138.4,-112.35 146.02,-106.22"/>
<polygon fill="#9a32cd" stroke="#9a32cd" points="98.88,-193.87 100.92,-204.26 105.81,-194.87 98.88,-193.87"/>
<text text-anchor="middle" x="135.5" y="-156" font-family="Helvetica,sans-Serif" font-size="10.00"> year</text>
</g>
<!-- Node4 -->
<g id="node4" class="node">
<title>Node4</title>
<g id="a_node4"><a xlink:title=" ">
<polygon fill="none" stroke="black" points="0,-204.5 0,-223.5 50,-223.5 50,-204.5 0,-204.5"/>
<text text-anchor="middle" x="25" y="-211.5" font-family="Helvetica,sans-Serif" font-size="10.00">uint8_t</text>
</a>
</g>
</g>
<!-- Node4&#45;&gt;Node1 -->
<g id="edge3" class="edge">
<title>Node4&#45;&gt;Node1</title>
<path fill="none" stroke="#9a32cd" stroke-dasharray="5,2" d="M30.56,-194.7C37.02,-176.27 49.39,-148.17 69,-131 82.66,-119.04 101.02,-111.17 117.51,-106.09"/>
<polygon fill="#9a32cd" stroke="#9a32cd" points="27.2,-193.69 27.42,-204.28 33.86,-195.86 27.2,-193.69"/>
<text text-anchor="middle" x="85" y="-178" font-family="Helvetica,sans-Serif" font-size="10.00"> day</text>
<text text-anchor="middle" x="85" y="-167" font-family="Helvetica,sans-Serif" font-size="10.00">hour</text>
<text text-anchor="middle" x="85" y="-156" font-family="Helvetica,sans-Serif" font-size="10.00">min</text>
<text text-anchor="middle" x="85" y="-145" font-family="Helvetica,sans-Serif" font-size="10.00">month</text>
<text text-anchor="middle" x="85" y="-134" font-family="Helvetica,sans-Serif" font-size="10.00">sec</text>
</g>
<!-- Node4&#45;&gt;Node7 -->
<g id="edge7" class="edge">
<title>Node4&#45;&gt;Node7</title>
<path fill="none" stroke="#9a32cd" stroke-dasharray="5,2" d="M24.44,-193.9C24.73,-163.96 30.24,-106.62 66,-80 126.58,-34.9 217.86,-22.35 264.41,-18.85"/>
<polygon fill="#9a32cd" stroke="#9a32cd" points="20.94,-194.28 24.54,-204.25 27.94,-194.21 20.94,-194.28"/>
<text text-anchor="middle" x="79" y="-94" font-family="Helvetica,sans-Serif" font-size="10.00"> dirty</text>
</g>
<!-- Node5 -->
<g id="node5" class="node">
<title>Node5</title>
<g id="a_node5"><a xlink:title=" ">
<polygon fill="none" stroke="black" points="371,-204.5 371,-223.5 427,-223.5 427,-204.5 371,-204.5"/>
<text text-anchor="middle" x="399" y="-211.5" font-family="Helvetica,sans-Serif" font-size="10.00">uint64_t</text>
</a>
</g>
</g>
<!-- Node5&#45;&gt;Node1 -->
<g id="edge4" class="edge">
<title>Node5&#45;&gt;Node1</title>
<path fill="none" stroke="#9a32cd" stroke-dasharray="5,2" d="M371.92,-199.79C364.3,-195.7 356.15,-190.96 349,-186 318.46,-164.82 318.85,-148.39 286,-131 263.36,-119.02 236.16,-111.12 212.67,-106.02"/>
<polygon fill="#9a32cd" stroke="#9a32cd" points="370.36,-202.93 380.85,-204.43 373.58,-196.71 370.36,-202.93"/>
<text text-anchor="middle" x="367" y="-161.5" font-family="Helvetica,sans-Serif" font-size="10.00"> lbapos</text>
<text text-anchor="middle" x="367" y="-150.5" font-family="Helvetica,sans-Serif" font-size="10.00">size</text>
</g>
<!-- Node5&#45;&gt;Node7 -->
<g id="edge18" class="edge">
<title>Node5&#45;&gt;Node7</title>
<path fill="none" stroke="#9a32cd" stroke-dasharray="5,2" d="M398.61,-194.23C397.19,-166.83 391.21,-115.31 367,-80 350.96,-56.61 324.03,-36.72 307.75,-26"/>
<polygon fill="#9a32cd" stroke="#9a32cd" points="395.12,-194.51 398.98,-204.38 402.11,-194.26 395.12,-194.51"/>
<text text-anchor="middle" x="400" y="-105" font-family="Helvetica,sans-Serif" font-size="10.00"> device</text>
<text text-anchor="middle" x="400" y="-94" font-family="Helvetica,sans-Serif" font-size="10.00">lbapos</text>
<text text-anchor="middle" x="400" y="-83" font-family="Helvetica,sans-Serif" font-size="10.00">size</text>
</g>
<!-- Node5&#45;&gt;Node8 -->
<g id="edge16" class="edge">
<title>Node5&#45;&gt;Node8</title>
<path fill="none" stroke="#9a32cd" stroke-dasharray="5,2" d="M436.63,-203.71C446.63,-199.68 456.68,-193.99 464,-186 469.55,-179.94 484.04,-127.34 489.69,-106.22"/>
<polygon fill="#9a32cd" stroke="#9a32cd" points="435.39,-200.44 427.14,-207.09 437.73,-207.03 435.39,-200.44"/>
<text text-anchor="middle" x="505.5" y="-161.5" font-family="Helvetica,sans-Serif" font-size="10.00"> createdir</text>
<text text-anchor="middle" x="505.5" y="-150.5" font-family="Helvetica,sans-Serif" font-size="10.00">createfile</text>
</g>
<!-- Node6 -->
<g id="node6" class="node">
<title>Node6</title>
<g id="a_node6"><a xlink:title=" ">
<polygon fill="none" stroke="black" points="146,-204.5 146,-223.5 202,-223.5 202,-204.5 146,-204.5"/>
<text text-anchor="middle" x="174" y="-211.5" font-family="Helvetica,sans-Serif" font-size="10.00">uint32_t</text>
</a>
</g>
</g>
<!-- Node6&#45;&gt;Node1 -->
<g id="edge5" class="edge">
<title>Node6&#45;&gt;Node1</title>
<path fill="none" stroke="#9a32cd" stroke-dasharray="5,2" d="M161.15,-195.67C159.44,-192.58 157.95,-189.3 157,-186 148.82,-157.65 153.47,-122.05 156.31,-106.01"/>
<polygon fill="#9a32cd" stroke="#9a32cd" points="158.25,-197.63 166.62,-204.13 164.13,-193.83 158.25,-197.63"/>
<text text-anchor="middle" x="175" y="-161.5" font-family="Helvetica,sans-Serif" font-size="10.00"> device</text>
<text text-anchor="middle" x="175" y="-150.5" font-family="Helvetica,sans-Serif" font-size="10.00">flags</text>
</g>
<!-- Node7&#45;&gt;Node1 -->
<g id="edge6" class="edge">
<title>Node7&#45;&gt;Node1</title>
<path fill="none" stroke="#9a32cd" stroke-dasharray="5,2" d="M269.01,-30.98C257.93,-37.02 244.77,-44.28 233,-51 211.57,-63.24 187.02,-77.93 172.02,-86.99"/>
<polygon fill="#9a32cd" stroke="#9a32cd" points="271,-33.88 278.12,-26.03 267.66,-27.73 271,-33.88"/>
<text text-anchor="middle" x="256.5" y="-54" font-family="Helvetica,sans-Serif" font-size="10.00"> directory</text>
</g>
<!-- Node7&#45;&gt;Node7 -->
<g id="edge9" class="edge">
<title>Node7&#45;&gt;Node7</title>
<path fill="none" stroke="#9a32cd" stroke-dasharray="5,2" d="M333.67,-22.95C338.41,-21.77 341.5,-19.62 341.5,-16.5 341.5,-11.5 333.58,-9 323.69,-9"/>
<polygon fill="#9a32cd" stroke="#9a32cd" points="333.26,-19.47 323.69,-24 334,-26.43 333.26,-19.47"/>
<text text-anchor="middle" x="366.5" y="-25" font-family="Helvetica,sans-Serif" font-size="10.00"> child_dirs</text>
<text text-anchor="middle" x="366.5" y="-14" font-family="Helvetica,sans-Serif" font-size="10.00">next</text>
<text text-anchor="middle" x="366.5" y="-3" font-family="Helvetica,sans-Serif" font-size="10.00">parent</text>
</g>
<!-- Node8&#45;&gt;Node7 -->
<g id="edge11" class="edge">
<title>Node8&#45;&gt;Node7</title>
<path fill="none" stroke="#9a32cd" stroke-dasharray="5,2" d="M470.28,-81.4C454.8,-71.81 433.22,-59.4 413,-51 383.47,-38.73 348,-29.4 323.51,-23.74"/>
<polygon fill="#9a32cd" stroke="#9a32cd" points="468.74,-84.56 479.07,-86.94 472.48,-78.64 468.74,-84.56"/>
<text text-anchor="middle" x="482" y="-54" font-family="Helvetica,sans-Serif" font-size="10.00"> responsible_driver</text>
</g>
<!-- Node8&#45;&gt;Node8 -->
<g id="edge17" class="edge">
<title>Node8&#45;&gt;Node8</title>
<path fill="none" stroke="#9a32cd" stroke-dasharray="5,2" d="M540.72,-102.59C545.48,-101.36 548.5,-99.33 548.5,-96.5 548.5,-91.97 540.77,-89.49 530.56,-89.07"/>
<polygon fill="#9a32cd" stroke="#9a32cd" points="540.01,-99.15 530.56,-103.93 540.93,-106.09 540.01,-99.15"/>
<text text-anchor="middle" x="561" y="-94" font-family="Helvetica,sans-Serif" font-size="10.00"> next</text>
</g>
<!-- Node9 -->
<g id="node9" class="node">
<title>Node9</title>
<g id="a_node9"><a xlink:title=" ">
<polygon fill="none" stroke="black" points="690.5,-204.5 690.5,-223.5 719.5,-223.5 719.5,-204.5 690.5,-204.5"/>
<text text-anchor="middle" x="705" y="-211.5" font-family="Helvetica,sans-Serif" font-size="10.00">int</text>
</a>
</g>
</g>
<!-- Node9&#45;&gt;Node8 -->
<g id="edge13" class="edge">
<title>Node9&#45;&gt;Node8</title>
<path fill="none" stroke="#9a32cd" stroke-dasharray="5,2" d="M704.89,-194.23C703.72,-175.41 698.83,-146.98 681,-131 679.6,-129.74 585.7,-113.52 530.8,-104.12"/>
<polygon fill="#9a32cd" stroke="#9a32cd" points="701.4,-194.4 705.23,-204.28 708.39,-194.17 701.4,-194.4"/>
<text text-anchor="middle" x="721.5" y="-156" font-family="Helvetica,sans-Serif" font-size="10.00"> mount</text>
</g>
<!-- Node10 -->
<g id="node10" class="node">
<title>Node10</title>
<g id="a_node10"><a xlink:title=" ">
<polygon fill="none" stroke="black" points="500.5,-204.5 500.5,-223.5 595.5,-223.5 595.5,-204.5 500.5,-204.5"/>
<text text-anchor="middle" x="548" y="-211.5" font-family="Helvetica,sans-Serif" font-size="10.00">void *(*)(void *)</text>
</a>
</g>
</g>
<!-- Node10&#45;&gt;Node8 -->
<g id="edge14" class="edge">
<title>Node10&#45;&gt;Node8</title>
<path fill="none" stroke="#9a32cd" stroke-dasharray="5,2" d="M548.51,-194.35C548.17,-176.84 545.5,-150.49 534,-131 527.74,-120.4 516.77,-111.82 507.61,-106"/>
<polygon fill="#9a32cd" stroke="#9a32cd" points="545.01,-194.4 548.46,-204.42 552.01,-194.44 545.01,-194.4"/>
<text text-anchor="middle" x="564" y="-156" font-family="Helvetica,sans-Serif" font-size="10.00"> getdir</text>
</g>
<!-- Node11 -->
<g id="node11" class="node">
<title>Node11</title>
<g id="a_node11"><a xlink:title=" ">
<polygon fill="none" stroke="black" points="614,-204.5 614,-223.5 652,-223.5 652,-204.5 614,-204.5"/>
<text text-anchor="middle" x="633" y="-211.5" font-family="Helvetica,sans-Serif" font-size="10.00">bool</text>
</a>
</g>
</g>
<!-- Node11&#45;&gt;Node8 -->
<g id="edge15" class="edge">
<title>Node11&#45;&gt;Node8</title>
<path fill="none" stroke="#9a32cd" stroke-dasharray="5,2" d="M626.42,-194.91C618.85,-176.44 604.72,-148.13 584,-131 568.8,-118.44 548.49,-110.38 530.81,-105.33"/>
<polygon fill="#9a32cd" stroke="#9a32cd" points="623.17,-196.19 630.04,-204.25 629.69,-193.66 623.17,-196.19"/>
<text text-anchor="middle" x="649" y="-178" font-family="Helvetica,sans-Serif" font-size="10.00"> readfile</text>
<text text-anchor="middle" x="649" y="-167" font-family="Helvetica,sans-Serif" font-size="10.00">rm</text>
<text text-anchor="middle" x="649" y="-156" font-family="Helvetica,sans-Serif" font-size="10.00">rmdir</text>
<text text-anchor="middle" x="649" y="-145" font-family="Helvetica,sans-Serif" font-size="10.00">truncatefile</text>
<text text-anchor="middle" x="649" y="-134" font-family="Helvetica,sans-Serif" font-size="10.00">writefile</text>
</g>
<!-- Node12 -->
<g id="node12" class="node">
<title>Node12</title>
<g id="a_node12"><a xlink:title=" ">
<polygon fill="none" stroke="black" points="592,-87 592,-106 638,-106 638,-87 592,-87"/>
<text text-anchor="middle" x="615" y="-94" font-family="Helvetica,sans-Serif" font-size="10.00">void *</text>
</a>
</g>
</g>
<!-- Node12&#45;&gt;Node7 -->
<g id="edge19" class="edge">
<title>Node12&#45;&gt;Node7</title>
<path fill="none" stroke="#9a32cd" stroke-dasharray="5,2" d="M594.01,-81.37C577.99,-71.27 554.99,-58.24 533,-51 460.37,-27.07 369.83,-20.24 323.83,-18.28"/>
<polygon fill="#9a32cd" stroke="#9a32cd" points="592.29,-84.42 602.58,-86.91 596.09,-78.54 592.29,-84.42"/>
<text text-anchor="middle" x="578" y="-54" font-family="Helvetica,sans-Serif" font-size="10.00"> opaque</text>
</g>
</g>
</svg>
        <g id="navigator" transform="translate(0 0)" fill="#404254">
                <rect fill="#f2f5e9" fill-opacity="0.5" stroke="#606060" stroke-width=".5" x="0" y="0" width="60" height="60"/>
                <use id="zoomplus" xlink:href="#zoomPlus" x="17" y="9" onmousedown="handleZoom(evt,'in')"/>
                <use id="zoomminus" xlink:href="#zoomMin" x="42" y="9" onmousedown="handleZoom(evt,'out')"/>
                <use id="reset" xlink:href="#resetDef" x="30" y="36" onmousedown="handleReset()"/>
                <g id="arrowUp" xlink:href="#dirArrow" transform="translate(30 24)" onmousedown="handlePan(0,-1)">
                  <use xlink:href="#rim" fill="#404040">
                        <set attributeName="fill" to="#808080" begin="arrowUp.mouseover" end="arrowUp.mouseout"/>
                  </use>
                  <path fill="none" stroke="white" stroke-width="1.5" d="M0,-3.0v7 M-2.5,-0.5L0,-3.0L2.5,-0.5"/>
                </g>
                <g id="arrowRight" xlink:href="#dirArrow" transform="rotate(90) translate(36 -43)" onmousedown="handlePan(1,0)">
                  <use xlink:href="#rim" fill="#404040">
                        <set attributeName="fill" to="#808080" begin="arrowRight.mouseover" end="arrowRight.mouseout"/>
                  </use>
                  <path fill="none" stroke="white" stroke-width="1.5" d="M0,-3.0v7 M-2.5,-0.5L0,-3.0L2.5,-0.5"/>
                </g>
                <g id="arrowDown" xlink:href="#dirArrow" transform="rotate(180) translate(-30 -48)" onmousedown="handlePan(0,1)">
                  <use xlink:href="#rim" fill="#404040">
                        <set attributeName="fill" to="#808080" begin="arrowDown.mouseover" end="arrowDown.mouseout"/>
                  </use>
                  <path fill="none" stroke="white" stroke-width="1.5" d="M0,-3.0v7 M-2.5,-0.5L0,-3.0L2.5,-0.5"/>
                </g>
                <g id="arrowLeft" xlink:href="#dirArrow" transform="rotate(270) translate(-36 17)" onmousedown="handlePan(-1,0)">
                  <use xlink:href="#rim" fill="#404040">
                        <set attributeName="fill" to="#808080" begin="arrowLeft.mouseover" end="arrowLeft.mouseout"/>
                  </use>
                  <path fill="none" stroke="white" stroke-width="1.5" d="M0,-3.0v7 M-2.5,-0.5L0,-3.0L2.5,-0.5"/>
                </g>
        </g>
        <svg viewBox="0 0 15 15" width="100%" height="30px" preserveAspectRatio="xMaxYMin meet">
         <g id="arrow_out" transform="scale(0.3 0.3)">
          <a xlink:href="structfs__directory__entry__t__coll__graph_org.svg" target="_base">
           <rect id="button" ry="5" rx="5" y="6" x="6" height="38" width="38"
                fill="#f2f5e9" fill-opacity="0.5" stroke="#606060" stroke-width="1.0"/>
           <path id="arrow"
             d="M 11.500037,31.436501 C 11.940474,20.09759 22.043105,11.32322 32.158766,21.979434 L 37.068811,17.246167 C 37.068811,17.246167 37.088388,32 37.088388,32 L 22.160133,31.978069 C 22.160133,31.978069 26.997745,27.140456 26.997745,27.140456 C 18.528582,18.264221 13.291696,25.230495 11.500037,31.436501 z"
             style="fill:#404040;"/>
          </a>
         </g>
        </svg>
</svg>
