<?xml version="1.0" encoding="UTF-8" standalone="no"?>
<!DOCTYPE svg PUBLIC "-//W3C//DTD SVG 1.1//EN"
 "http://www.w3.org/Graphics/SVG/1.1/DTD/svg11.dtd">
<!-- Generated by graphviz version 2.43.0 (0)
 -->
<!-- Title: stbi_io_callbacks Pages: 1 -->
<svg width="162pt" height="117pt"
 viewBox="0.00 0.00 162.00 117.00" xmlns="http://www.w3.org/2000/svg" xmlns:xlink="http://www.w3.org/1999/xlink">
<g id="graph0" class="graph" transform="scale(1 1) rotate(0) translate(4 113)">
<title>stbi_io_callbacks</title>
<!-- Node1 -->
<g id="node1" class="node">
<title>Node1</title>
<g id="a_node1"><a xlink:title=" ">
<polygon fill="#bfbfbf" stroke="black" points="46.5,-0.5 46.5,-19.5 146.5,-19.5 146.5,-0.5 46.5,-0.5"/>
<text text-anchor="middle" x="96.5" y="-7.5" font-family="Helvetica,sans-Serif" font-size="10.00">stbi_io_callbacks</text>
</a>
</g>
</g>
<!-- Node2 -->
<g id="node2" class="node">
<title>Node2</title>
<g id="a_node2"><a xlink:title=" ">
<polygon fill="none" stroke="#bfbfbf" points="0,-78.5 0,-108.5 107,-108.5 107,-78.5 0,-78.5"/>
<text text-anchor="start" x="8" y="-96.5" font-family="Helvetica,sans-Serif" font-size="10.00">void(*)(void *user,</text>
<text text-anchor="middle" x="53.5" y="-85.5" font-family="Helvetica,sans-Serif" font-size="10.00"> int n)</text>
</a>
</g>
</g>
<!-- Node2&#45;&gt;Node1 -->
<g id="edge1" class="edge">
<title>Node2&#45;&gt;Node1</title>
<path fill="none" stroke="#9a32cd" stroke-dasharray="5,2" d="M65.8,-69.18C74.56,-52.58 85.84,-31.21 91.99,-19.54"/>
<polygon fill="#9a32cd" stroke="#9a32cd" points="62.56,-67.83 60.99,-78.3 68.75,-71.09 62.56,-67.83"/>
<text text-anchor="middle" x="93.5" y="-46.5" font-family="Helvetica,sans-Serif" font-size="10.00"> skip</text>
</g>
<!-- Node3 -->
<g id="node3" class="node">
<title>Node3</title>
<g id="a_node3"><a xlink:title=" ">
<polygon fill="none" stroke="#bfbfbf" points="125,-84 125,-103 154,-103 154,-84 125,-84"/>
<text text-anchor="middle" x="139.5" y="-91" font-family="Helvetica,sans-Serif" font-size="10.00">int</text>
</a>
</g>
</g>
<!-- Node3&#45;&gt;Node1 -->
<g id="edge2" class="edge">
<title>Node3&#45;&gt;Node1</title>
<path fill="none" stroke="#9a32cd" stroke-dasharray="5,2" d="M130.18,-74.83C121.19,-57.79 107.97,-32.73 101.07,-19.66"/>
<polygon fill="#9a32cd" stroke="#9a32cd" points="127.14,-76.57 134.9,-83.78 133.33,-73.3 127.14,-76.57"/>
<text text-anchor="middle" x="132.5" y="-52" font-family="Helvetica,sans-Serif" font-size="10.00"> eof</text>
<text text-anchor="middle" x="132.5" y="-41" font-family="Helvetica,sans-Serif" font-size="10.00">read</text>
</g>
</g>
</svg>
