<?xml version="1.0" encoding="UTF-8" standalone="no"?>
<!DOCTYPE svg PUBLIC "-//W3C//DTD SVG 1.1//EN"
 "http://www.w3.org/Graphics/SVG/1.1/DTD/svg11.dtd">
<!-- Generated by graphviz version 2.43.0 (0)
 -->
<!-- Title: icmp_timestamp_packet Pages: 1 -->
<svg width="266pt" height="117pt"
 viewBox="0.00 0.00 266.00 117.00" xmlns="http://www.w3.org/2000/svg" xmlns:xlink="http://www.w3.org/1999/xlink">
<g id="graph0" class="graph" transform="scale(1 1) rotate(0) translate(4 113)">
<title>icmp_timestamp_packet</title>
<!-- Node1 -->
<g id="node1" class="node">
<title>Node1</title>
<g id="a_node1"><a xlink:title=" ">
<polygon fill="#bfbfbf" stroke="black" points="35.5,-0.5 35.5,-19.5 172.5,-19.5 172.5,-0.5 35.5,-0.5"/>
<text text-anchor="middle" x="104" y="-7.5" font-family="Helvetica,sans-Serif" font-size="10.00">icmp_timestamp_packet</text>
</a>
</g>
</g>
<!-- Node2 -->
<g id="node2" class="node">
<title>Node2</title>
<g id="a_node2"><a xlink:title=" ">
<polygon fill="none" stroke="#bfbfbf" points="0,-89.5 0,-108.5 56,-108.5 56,-89.5 0,-89.5"/>
<text text-anchor="middle" x="28" y="-96.5" font-family="Helvetica,sans-Serif" font-size="10.00">uint16_t</text>
</a>
</g>
</g>
<!-- Node2&#45;&gt;Node1 -->
<g id="edge1" class="edge">
<title>Node2&#45;&gt;Node1</title>
<path fill="none" stroke="#9a32cd" stroke-dasharray="5,2" d="M30.01,-79.09C32.26,-66.2 37,-49.46 47,-38 54.27,-29.67 64.68,-23.71 74.61,-19.54"/>
<polygon fill="#9a32cd" stroke="#9a32cd" points="26.52,-78.81 28.61,-89.19 33.45,-79.77 26.52,-78.81"/>
<text text-anchor="middle" x="73.5" y="-63" font-family="Helvetica,sans-Serif" font-size="10.00"> checksum</text>
<text text-anchor="middle" x="73.5" y="-52" font-family="Helvetica,sans-Serif" font-size="10.00">id</text>
<text text-anchor="middle" x="73.5" y="-41" font-family="Helvetica,sans-Serif" font-size="10.00">seq</text>
</g>
<!-- Node3 -->
<g id="node3" class="node">
<title>Node3</title>
<g id="a_node3"><a xlink:title=" ">
<polygon fill="none" stroke="#bfbfbf" points="76,-89.5 76,-108.5 132,-108.5 132,-89.5 76,-89.5"/>
<text text-anchor="middle" x="104" y="-96.5" font-family="Helvetica,sans-Serif" font-size="10.00">uint32_t</text>
</a>
</g>
</g>
<!-- Node3&#45;&gt;Node1 -->
<g id="edge2" class="edge">
<title>Node3&#45;&gt;Node1</title>
<path fill="none" stroke="#9a32cd" stroke-dasharray="5,2" d="M104,-79.19C104,-60.74 104,-33.41 104,-19.62"/>
<polygon fill="#9a32cd" stroke="#9a32cd" points="100.5,-79.34 104,-89.34 107.5,-79.34 100.5,-79.34"/>
<text text-anchor="middle" x="157" y="-63" font-family="Helvetica,sans-Serif" font-size="10.00"> originate_timestamp</text>
<text text-anchor="middle" x="157" y="-52" font-family="Helvetica,sans-Serif" font-size="10.00">receive_timestamp</text>
<text text-anchor="middle" x="157" y="-41" font-family="Helvetica,sans-Serif" font-size="10.00">transmit_timestamp</text>
</g>
<!-- Node4 -->
<g id="node4" class="node">
<title>Node4</title>
<g id="a_node4"><a xlink:title=" ">
<polygon fill="none" stroke="#bfbfbf" points="208,-89.5 208,-108.5 258,-108.5 258,-89.5 208,-89.5"/>
<text text-anchor="middle" x="233" y="-96.5" font-family="Helvetica,sans-Serif" font-size="10.00">uint8_t</text>
</a>
</g>
</g>
<!-- Node4&#45;&gt;Node1 -->
<g id="edge3" class="edge">
<title>Node4&#45;&gt;Node1</title>
<path fill="none" stroke="#9a32cd" stroke-dasharray="5,2" d="M230.77,-79.23C228.21,-65.9 222.72,-48.56 211,-38 200.25,-28.32 186.54,-22 172.54,-17.9"/>
<polygon fill="#9a32cd" stroke="#9a32cd" points="227.33,-79.89 232.31,-89.25 234.25,-78.83 227.33,-79.89"/>
<text text-anchor="middle" x="241.5" y="-57.5" font-family="Helvetica,sans-Serif" font-size="10.00"> code</text>
<text text-anchor="middle" x="241.5" y="-46.5" font-family="Helvetica,sans-Serif" font-size="10.00">type</text>
</g>
</g>
</svg>
