<?xml version="1.0" encoding="UTF-8" standalone="no"?>
<!DOCTYPE svg PUBLIC "-//W3C//DTD SVG 1.1//EN"
 "http://www.w3.org/Graphics/SVG/1.1/DTD/svg11.dtd">
<!-- Generated by graphviz version 2.43.0 (0)
 -->
<!-- Title: ub_var_double Pages: 1 -->
<svg width="185pt" height="95pt"
 viewBox="0.00 0.00 185.00 95.00" xmlns="http://www.w3.org/2000/svg" xmlns:xlink="http://www.w3.org/1999/xlink">
<g id="graph0" class="graph" transform="scale(1 1) rotate(0) translate(4 91)">
<title>ub_var_double</title>
<!-- Node1 -->
<g id="node1" class="node">
<title>Node1</title>
<g id="a_node1"><a xlink:title=" ">
<polygon fill="#bfbfbf" stroke="black" points="43,-0.5 43,-19.5 131,-19.5 131,-0.5 43,-0.5"/>
<text text-anchor="middle" x="87" y="-7.5" font-family="Helvetica,sans-Serif" font-size="10.00">ub_var_double</text>
</a>
</g>
</g>
<!-- Node1&#45;&gt;Node1 -->
<g id="edge3" class="edge">
<title>Node1&#45;&gt;Node1</title>
<path fill="none" stroke="#9a32cd" stroke-dasharray="5,2" d="M141.26,-14.71C146.02,-13.72 149,-12.15 149,-10 149,-6.56 141.37,-4.6 131.02,-4.12"/>
<polygon fill="#9a32cd" stroke="#9a32cd" points="140.56,-11.27 131.02,-15.88 141.36,-18.23 140.56,-11.27"/>
<text text-anchor="middle" x="161.5" y="-7.5" font-family="Helvetica,sans-Serif" font-size="10.00"> next</text>
</g>
<!-- Node2 -->
<g id="node2" class="node">
<title>Node2</title>
<g id="a_node2"><a xlink:title=" ">
<polygon fill="none" stroke="#bfbfbf" points="0,-67.5 0,-86.5 50,-86.5 50,-67.5 0,-67.5"/>
<text text-anchor="middle" x="25" y="-74.5" font-family="Helvetica,sans-Serif" font-size="10.00">double</text>
</a>
</g>
</g>
<!-- Node2&#45;&gt;Node1 -->
<g id="edge1" class="edge">
<title>Node2&#45;&gt;Node1</title>
<path fill="none" stroke="#9a32cd" stroke-dasharray="5,2" d="M35.66,-58.76C40.27,-51.94 45.98,-44.26 52,-38 58.6,-31.14 67.01,-24.59 73.94,-19.66"/>
<polygon fill="#9a32cd" stroke="#9a32cd" points="32.63,-57 30.14,-67.3 38.51,-60.8 32.63,-57"/>
<text text-anchor="middle" x="67.5" y="-41" font-family="Helvetica,sans-Serif" font-size="10.00"> value</text>
</g>
<!-- Node3 -->
<g id="node3" class="node">
<title>Node3</title>
<g id="a_node3"><a xlink:title=" ">
<polygon fill="none" stroke="#bfbfbf" points="68,-67.5 68,-86.5 106,-86.5 106,-67.5 68,-67.5"/>
<text text-anchor="middle" x="87" y="-74.5" font-family="Helvetica,sans-Serif" font-size="10.00">char</text>
</a>
</g>
</g>
<!-- Node3&#45;&gt;Node1 -->
<g id="edge2" class="edge">
<title>Node3&#45;&gt;Node1</title>
<path fill="none" stroke="#9a32cd" stroke-dasharray="5,2" d="M87,-57.04C87,-44.67 87,-29.12 87,-19.63"/>
<polygon fill="#9a32cd" stroke="#9a32cd" points="83.5,-57.23 87,-67.23 90.5,-57.23 83.5,-57.23"/>
<text text-anchor="middle" x="110.5" y="-41" font-family="Helvetica,sans-Serif" font-size="10.00"> varname</text>
</g>
<!-- Node4 -->
<g id="node4" class="node">
<title>Node4</title>
<g id="a_node4"><a xlink:title=" ">
<polygon fill="none" stroke="#bfbfbf" points="138,-67.5 138,-86.5 176,-86.5 176,-67.5 138,-67.5"/>
<text text-anchor="middle" x="157" y="-74.5" font-family="Helvetica,sans-Serif" font-size="10.00">bool</text>
</a>
</g>
</g>
<!-- Node4&#45;&gt;Node1 -->
<g id="edge4" class="edge">
<title>Node4&#45;&gt;Node1</title>
<path fill="none" stroke="#9a32cd" stroke-dasharray="5,2" d="M149.13,-58.03C145.52,-51.19 140.76,-43.69 135,-38 127.25,-30.34 116.88,-24.15 107.76,-19.64"/>
<polygon fill="#9a32cd" stroke="#9a32cd" points="146.08,-59.77 153.56,-67.28 152.4,-56.75 146.08,-59.77"/>
<text text-anchor="middle" x="160" y="-41" font-family="Helvetica,sans-Serif" font-size="10.00"> global</text>
</g>
</g>
</svg>
