<?xml version="1.0" encoding="UTF-8" standalone="no"?>
<!DOCTYPE svg PUBLIC "-//W3C//DTD SVG 1.1//EN"
 "http://www.w3.org/Graphics/SVG/1.1/DTD/svg11.dtd">
<!-- Generated by graphviz version 2.43.0 (0)
 -->
<!-- Title: net_address_t Pages: 1 -->
<svg width="114pt" height="106pt"
 viewBox="0.00 0.00 114.00 106.00" xmlns="http://www.w3.org/2000/svg" xmlns:xlink="http://www.w3.org/1999/xlink">
<g id="graph0" class="graph" transform="scale(1 1) rotate(0) translate(4 102)">
<title>net_address_t</title>
<!-- Node1 -->
<g id="node1" class="node">
<title>Node1</title>
<g id="a_node1"><a xlink:title="Represents an address bound to a protocol on an interface.">
<polygon fill="#bfbfbf" stroke="black" points="7.5,-0.5 7.5,-19.5 92.5,-19.5 92.5,-0.5 7.5,-0.5"/>
<text text-anchor="middle" x="50" y="-7.5" font-family="Helvetica,sans-Serif" font-size="10.00">net_address_t</text>
</a>
</g>
</g>
<!-- Node2 -->
<g id="node2" class="node">
<title>Node2</title>
<g id="a_node2"><a xlink:title=" ">
<polygon fill="none" stroke="#bfbfbf" points="0,-78.5 0,-97.5 38,-97.5 38,-78.5 0,-78.5"/>
<text text-anchor="middle" x="19" y="-85.5" font-family="Helvetica,sans-Serif" font-size="10.00">char</text>
</a>
</g>
</g>
<!-- Node2&#45;&gt;Node1 -->
<g id="edge1" class="edge">
<title>Node2&#45;&gt;Node1</title>
<path fill="none" stroke="#9a32cd" stroke-dasharray="5,2" d="M20.25,-68.05C21.42,-58.67 23.67,-47.38 28,-38 31.14,-31.19 36.4,-24.65 40.99,-19.7"/>
<polygon fill="#9a32cd" stroke="#9a32cd" points="16.74,-68.01 19.3,-78.29 23.71,-68.65 16.74,-68.01"/>
<text text-anchor="middle" x="43.5" y="-46.5" font-family="Helvetica,sans-Serif" font-size="10.00"> name</text>
</g>
<!-- Node3 -->
<g id="node3" class="node">
<title>Node3</title>
<g id="a_node3"><a xlink:title=" ">
<polygon fill="none" stroke="#bfbfbf" points="56,-78.5 56,-97.5 106,-97.5 106,-78.5 56,-78.5"/>
<text text-anchor="middle" x="81" y="-85.5" font-family="Helvetica,sans-Serif" font-size="10.00">uint8_t</text>
</a>
</g>
</g>
<!-- Node3&#45;&gt;Node1 -->
<g id="edge2" class="edge">
<title>Node3&#45;&gt;Node1</title>
<path fill="none" stroke="#9a32cd" stroke-dasharray="5,2" d="M73.53,-68.67C67.18,-53.11 58.35,-31.47 53.51,-19.62"/>
<polygon fill="#9a32cd" stroke="#9a32cd" points="70.43,-70.34 77.44,-78.28 76.91,-67.7 70.43,-70.34"/>
<text text-anchor="middle" x="84.5" y="-52" font-family="Helvetica,sans-Serif" font-size="10.00"> bytes</text>
<text text-anchor="middle" x="84.5" y="-41" font-family="Helvetica,sans-Serif" font-size="10.00">length</text>
</g>
</g>
</svg>
