<?xml version="1.0" encoding="UTF-8" standalone="no"?>
<!DOCTYPE svg PUBLIC "-//W3C//DTD SVG 1.1//EN"
 "http://www.w3.org/Graphics/SVG/1.1/DTD/svg11.dtd">
<!-- Generated by graphviz version 2.43.0 (0)
 -->
<!-- Title: lfn_t Pages: 1 -->
<svg width="145pt" height="128pt"
 viewBox="0.00 0.00 145.00 128.00" xmlns="http://www.w3.org/2000/svg" xmlns:xlink="http://www.w3.org/1999/xlink">
<g id="graph0" class="graph" transform="scale(1 1) rotate(0) translate(4 124)">
<title>lfn_t</title>
<!-- Node1 -->
<g id="node1" class="node">
<title>Node1</title>
<g id="a_node1"><a xlink:title="Long filename entry, overlays a directory_entry_t. These entries repeat before a non&#45;lfn entry,...">
<polygon fill="#bfbfbf" stroke="black" points="44,-0.5 44,-19.5 82,-19.5 82,-0.5 44,-0.5"/>
<text text-anchor="middle" x="63" y="-7.5" font-family="Helvetica,sans-Serif" font-size="10.00">lfn_t</text>
</a>
</g>
</g>
<!-- Node2 -->
<g id="node2" class="node">
<title>Node2</title>
<g id="a_node2"><a xlink:title=" ">
<polygon fill="none" stroke="black" points="0,-100.5 0,-119.5 50,-119.5 50,-100.5 0,-100.5"/>
<text text-anchor="middle" x="25" y="-107.5" font-family="Helvetica,sans-Serif" font-size="10.00">uint8_t</text>
</a>
</g>
</g>
<!-- Node2&#45;&gt;Node1 -->
<g id="edge1" class="edge">
<title>Node2&#45;&gt;Node1</title>
<path fill="none" stroke="#9a32cd" stroke-dasharray="5,2" d="M20.85,-89.99C18.58,-75.01 17.7,-54.06 26,-38 30.09,-30.09 37.68,-23.93 44.93,-19.51"/>
<polygon fill="#9a32cd" stroke="#9a32cd" points="17.45,-90.9 22.72,-100.09 24.34,-89.62 17.45,-90.9"/>
<text text-anchor="middle" x="52.5" y="-74" font-family="Helvetica,sans-Serif" font-size="10.00"> attributes</text>
<text text-anchor="middle" x="52.5" y="-63" font-family="Helvetica,sans-Serif" font-size="10.00">checksum</text>
<text text-anchor="middle" x="52.5" y="-52" font-family="Helvetica,sans-Serif" font-size="10.00">entry_type</text>
<text text-anchor="middle" x="52.5" y="-41" font-family="Helvetica,sans-Serif" font-size="10.00">order</text>
</g>
<!-- Node3 -->
<g id="node3" class="node">
<title>Node3</title>
<g id="a_node3"><a xlink:title=" ">
<polygon fill="none" stroke="black" points="73,-100.5 73,-119.5 129,-119.5 129,-100.5 73,-100.5"/>
<text text-anchor="middle" x="101" y="-107.5" font-family="Helvetica,sans-Serif" font-size="10.00">uint16_t</text>
</a>
</g>
</g>
<!-- Node3&#45;&gt;Node1 -->
<g id="edge2" class="edge">
<title>Node3&#45;&gt;Node1</title>
<path fill="none" stroke="#9a32cd" stroke-dasharray="5,2" d="M96.59,-90.66C92.78,-76.07 86.68,-55.29 79,-38 76.17,-31.63 72.17,-24.88 68.88,-19.72"/>
<polygon fill="#9a32cd" stroke="#9a32cd" points="93.22,-91.61 99.04,-100.46 100.01,-89.91 93.22,-91.61"/>
<text text-anchor="middle" x="115.5" y="-74" font-family="Helvetica,sans-Serif" font-size="10.00"> first</text>
<text text-anchor="middle" x="115.5" y="-63" font-family="Helvetica,sans-Serif" font-size="10.00">reserved</text>
<text text-anchor="middle" x="115.5" y="-52" font-family="Helvetica,sans-Serif" font-size="10.00">second</text>
<text text-anchor="middle" x="115.5" y="-41" font-family="Helvetica,sans-Serif" font-size="10.00">third</text>
</g>
</g>
</svg>
