<?xml version="1.0" encoding="UTF-8" standalone="no"?>
<!DOCTYPE svg PUBLIC "-//W3C//DTD SVG 1.1//EN"
 "http://www.w3.org/Graphics/SVG/1.1/DTD/svg11.dtd">
<!-- Generated by graphviz version 2.43.0 (0)
 -->
<!-- Title: ub_var_string Pages: 1 -->
<svg width="145pt" height="106pt"
 viewBox="0.00 0.00 144.50 106.00" xmlns="http://www.w3.org/2000/svg" xmlns:xlink="http://www.w3.org/1999/xlink">
<g id="graph0" class="graph" transform="scale(1 1) rotate(0) translate(4 102)">
<title>ub_var_string</title>
<!-- Node1 -->
<g id="node1" class="node">
<title>Node1</title>
<g id="a_node1"><a xlink:title="A string variable.">
<polygon fill="#bfbfbf" stroke="black" points="10.5,-0.5 10.5,-19.5 93.5,-19.5 93.5,-0.5 10.5,-0.5"/>
<text text-anchor="middle" x="52" y="-7.5" font-family="Helvetica,sans-Serif" font-size="10.00">ub_var_string</text>
</a>
</g>
</g>
<!-- Node1&#45;&gt;Node1 -->
<g id="edge3" class="edge">
<title>Node1&#45;&gt;Node1</title>
<path fill="none" stroke="#9a32cd" stroke-dasharray="5,2" d="M103.82,-15.66C108.53,-14.49 111.5,-12.6 111.5,-10 111.5,-5.84 103.91,-3.51 93.71,-2.99"/>
<polygon fill="#9a32cd" stroke="#9a32cd" points="103.15,-12.22 93.71,-17.01 104.08,-19.16 103.15,-12.22"/>
<text text-anchor="middle" x="124" y="-7.5" font-family="Helvetica,sans-Serif" font-size="10.00"> next</text>
</g>
<!-- Node2 -->
<g id="node2" class="node">
<title>Node2</title>
<g id="a_node2"><a xlink:title=" ">
<polygon fill="none" stroke="#bfbfbf" points="0,-78.5 0,-97.5 38,-97.5 38,-78.5 0,-78.5"/>
<text text-anchor="middle" x="19" y="-85.5" font-family="Helvetica,sans-Serif" font-size="10.00">char</text>
</a>
</g>
</g>
<!-- Node2&#45;&gt;Node1 -->
<g id="edge1" class="edge">
<title>Node2&#45;&gt;Node1</title>
<path fill="none" stroke="#9a32cd" stroke-dasharray="5,2" d="M15.84,-68.19C15.1,-58.7 15.58,-47.27 20,-38 23.63,-30.39 30.54,-24.13 37.01,-19.56"/>
<polygon fill="#9a32cd" stroke="#9a32cd" points="12.37,-68.7 17.09,-78.18 19.32,-67.83 12.37,-68.7"/>
<text text-anchor="middle" x="42" y="-52" font-family="Helvetica,sans-Serif" font-size="10.00"> value</text>
<text text-anchor="middle" x="42" y="-41" font-family="Helvetica,sans-Serif" font-size="10.00">varname</text>
</g>
<!-- Node3 -->
<g id="node3" class="node">
<title>Node3</title>
<g id="a_node3"><a xlink:title=" ">
<polygon fill="none" stroke="#bfbfbf" points="67,-78.5 67,-97.5 105,-97.5 105,-78.5 67,-78.5"/>
<text text-anchor="middle" x="86" y="-85.5" font-family="Helvetica,sans-Serif" font-size="10.00">bool</text>
</a>
</g>
</g>
<!-- Node3&#45;&gt;Node1 -->
<g id="edge2" class="edge">
<title>Node3&#45;&gt;Node1</title>
<path fill="none" stroke="#9a32cd" stroke-dasharray="5,2" d="M78,-69.12C71.03,-53.53 61.21,-31.59 55.85,-19.62"/>
<polygon fill="#9a32cd" stroke="#9a32cd" points="74.82,-70.58 82.1,-78.28 81.21,-67.72 74.82,-70.58"/>
<text text-anchor="middle" x="90" y="-46.5" font-family="Helvetica,sans-Serif" font-size="10.00"> global</text>
</g>
</g>
</svg>
