<?xml version="1.0" encoding="UTF-8" standalone="no"?>
<!DOCTYPE svg PUBLIC "-//W3C//DTD SVG 1.1//EN"
 "http://www.w3.org/Graphics/SVG/1.1/DTD/svg11.dtd">
<!-- Generated by graphviz version 2.43.0 (0)
 -->
<!-- Title: hashmap Pages: 1 -->
<svg width="282pt" height="439pt"
 viewBox="0.00 0.00 282.00 439.00" xmlns="http://www.w3.org/2000/svg" xmlns:xlink="http://www.w3.org/1999/xlink">
<g id="graph0" class="graph" transform="scale(1 1) rotate(0) translate(4 435)">
<title>hashmap</title>
<!-- Node1 -->
<g id="node1" class="node">
<title>Node1</title>
<g id="a_node1"><a xlink:title=" ">
<polygon fill="#bfbfbf" stroke="black" points="212,-175.5 212,-194.5 274,-194.5 274,-175.5 212,-175.5"/>
<text text-anchor="middle" x="243" y="-182.5" font-family="Helvetica,sans-Serif" font-size="10.00">hashmap</text>
</a>
</g>
</g>
<!-- Node2 -->
<g id="node2" class="node">
<title>Node2</title>
<g id="a_node2"><a xlink:title=" ">
<polygon fill="none" stroke="#bfbfbf" points="37,-400.5 37,-419.5 93,-419.5 93,-400.5 37,-400.5"/>
<text text-anchor="middle" x="65" y="-407.5" font-family="Helvetica,sans-Serif" font-size="10.00">uint64_t</text>
</a>
</g>
</g>
<!-- Node2&#45;&gt;Node1 -->
<g id="edge1" class="edge">
<title>Node2&#45;&gt;Node1</title>
<path fill="none" stroke="#9a32cd" stroke-dasharray="5,2" d="M103.08,-408.27C131.78,-404.93 170.48,-395.74 194,-371 242.95,-319.52 243.67,-224.94 242.54,-194.62"/>
<polygon fill="#9a32cd" stroke="#9a32cd" points="102.62,-404.79 93.01,-409.25 103.3,-411.76 102.62,-404.79"/>
<text text-anchor="middle" x="171" y="-423" font-family="Helvetica,sans-Serif" font-size="10.00"> hash</text>
<text text-anchor="middle" x="171" y="-412" font-family="Helvetica,sans-Serif" font-size="10.00">seed0</text>
<text text-anchor="middle" x="171" y="-401" font-family="Helvetica,sans-Serif" font-size="10.00">seed1</text>
</g>
<!-- Node3 -->
<g id="node3" class="node">
<title>Node3</title>
<g id="a_node3"><a xlink:title=" ">
<polygon fill="none" stroke="#bfbfbf" points="13,-351 13,-381 117,-381 117,-351 13,-351"/>
<text text-anchor="start" x="21" y="-369" font-family="Helvetica,sans-Serif" font-size="10.00">void(*)(const void</text>
<text text-anchor="middle" x="65" y="-358" font-family="Helvetica,sans-Serif" font-size="10.00"> *item)</text>
</a>
</g>
</g>
<!-- Node3&#45;&gt;Node1 -->
<g id="edge2" class="edge">
<title>Node3&#45;&gt;Node1</title>
<path fill="none" stroke="#9a32cd" stroke-dasharray="5,2" d="M127.03,-362.11C150.53,-357.72 176.02,-349 194,-332 234.58,-293.63 240.9,-220.57 241.85,-194.52"/>
<polygon fill="#9a32cd" stroke="#9a32cd" points="126.41,-358.66 117.11,-363.74 127.54,-365.57 126.41,-358.66"/>
<text text-anchor="middle" x="171" y="-359" font-family="Helvetica,sans-Serif" font-size="10.00"> elfree</text>
</g>
<!-- Node4 -->
<g id="node4" class="node">
<title>Node4</title>
<g id="a_node4"><a xlink:title=" ">
<polygon fill="none" stroke="#bfbfbf" points="42.5,-250.5 42.5,-269.5 87.5,-269.5 87.5,-250.5 42.5,-250.5"/>
<text text-anchor="middle" x="65" y="-257.5" font-family="Helvetica,sans-Serif" font-size="10.00">size_t</text>
</a>
</g>
</g>
<!-- Node4&#45;&gt;Node1 -->
<g id="edge3" class="edge">
<title>Node4&#45;&gt;Node1</title>
<path fill="none" stroke="#9a32cd" stroke-dasharray="5,2" d="M97.75,-254.4C124.47,-248.87 163.14,-238.89 194,-223 208.55,-215.51 222.97,-203.28 232.14,-194.72"/>
<polygon fill="#9a32cd" stroke="#9a32cd" points="96.92,-251 87.79,-256.37 98.28,-257.86 96.92,-251"/>
<text text-anchor="middle" x="171" y="-320" font-family="Helvetica,sans-Serif" font-size="10.00"> bucketsz</text>
<text text-anchor="middle" x="171" y="-309" font-family="Helvetica,sans-Serif" font-size="10.00">cap</text>
<text text-anchor="middle" x="171" y="-298" font-family="Helvetica,sans-Serif" font-size="10.00">count</text>
<text text-anchor="middle" x="171" y="-287" font-family="Helvetica,sans-Serif" font-size="10.00">elsize</text>
<text text-anchor="middle" x="171" y="-276" font-family="Helvetica,sans-Serif" font-size="10.00">growat</text>
<text text-anchor="middle" x="171" y="-265" font-family="Helvetica,sans-Serif" font-size="10.00">mask</text>
<text text-anchor="middle" x="171" y="-254" font-family="Helvetica,sans-Serif" font-size="10.00">nbuckets</text>
<text text-anchor="middle" x="171" y="-243" font-family="Helvetica,sans-Serif" font-size="10.00">shrinkat</text>
</g>
<!-- Node5 -->
<g id="node5" class="node">
<title>Node5</title>
<g id="a_node5"><a xlink:title=" ">
<polygon fill="none" stroke="#bfbfbf" points="50.5,-212.5 50.5,-231.5 79.5,-231.5 79.5,-212.5 50.5,-212.5"/>
<text text-anchor="middle" x="65" y="-219.5" font-family="Helvetica,sans-Serif" font-size="10.00">int</text>
</a>
</g>
</g>
<!-- Node5&#45;&gt;Node1 -->
<g id="edge4" class="edge">
<title>Node5&#45;&gt;Node1</title>
<path fill="none" stroke="#9a32cd" stroke-dasharray="5,2" d="M89.51,-218.54C115.3,-214.57 157.84,-207.5 194,-199 199.83,-197.63 206.01,-195.98 211.92,-194.3"/>
<polygon fill="#9a32cd" stroke="#9a32cd" points="88.91,-215.09 79.55,-220.05 89.96,-222.01 88.91,-215.09"/>
<text text-anchor="middle" x="171" y="-211" font-family="Helvetica,sans-Serif" font-size="10.00"> compare</text>
</g>
<!-- Node6 -->
<g id="node6" class="node">
<title>Node6</title>
<g id="a_node6"><a xlink:title=" ">
<polygon fill="none" stroke="#bfbfbf" points="46,-174.5 46,-193.5 84,-193.5 84,-174.5 46,-174.5"/>
<text text-anchor="middle" x="65" y="-181.5" font-family="Helvetica,sans-Serif" font-size="10.00">bool</text>
</a>
</g>
</g>
<!-- Node6&#45;&gt;Node1 -->
<g id="edge5" class="edge">
<title>Node6&#45;&gt;Node1</title>
<path fill="none" stroke="#9a32cd" stroke-dasharray="5,2" d="M94.27,-184.16C126.5,-184.34 178.97,-184.64 211.93,-184.83"/>
<polygon fill="#9a32cd" stroke="#9a32cd" points="94.19,-180.66 84.17,-184.1 94.15,-187.66 94.19,-180.66"/>
<text text-anchor="middle" x="171" y="-187" font-family="Helvetica,sans-Serif" font-size="10.00"> oom</text>
</g>
<!-- Node7 -->
<g id="node7" class="node">
<title>Node7</title>
<g id="a_node7"><a xlink:title=" ">
<polygon fill="none" stroke="#bfbfbf" points="0,-136.5 0,-155.5 130,-155.5 130,-136.5 0,-136.5"/>
<text text-anchor="middle" x="65" y="-143.5" font-family="Helvetica,sans-Serif" font-size="10.00">void *(*)(void *, size_t)</text>
</a>
</g>
</g>
<!-- Node7&#45;&gt;Node1 -->
<g id="edge6" class="edge">
<title>Node7&#45;&gt;Node1</title>
<path fill="none" stroke="#9a32cd" stroke-dasharray="5,2" d="M139.11,-157.26C157.16,-160.56 176.37,-164.5 194,-169 201.06,-170.8 208.59,-173.12 215.54,-175.42"/>
<polygon fill="#9a32cd" stroke="#9a32cd" points="139.67,-153.81 129.21,-155.5 138.44,-160.7 139.67,-153.81"/>
<text text-anchor="middle" x="171" y="-172" font-family="Helvetica,sans-Serif" font-size="10.00"> realloc</text>
</g>
<!-- Node8 -->
<g id="node8" class="node">
<title>Node8</title>
<g id="a_node8"><a xlink:title=" ">
<polygon fill="none" stroke="#bfbfbf" points="42,-76.5 42,-95.5 88,-95.5 88,-76.5 42,-76.5"/>
<text text-anchor="middle" x="65" y="-83.5" font-family="Helvetica,sans-Serif" font-size="10.00">void *</text>
</a>
</g>
</g>
<!-- Node8&#45;&gt;Node1 -->
<g id="edge7" class="edge">
<title>Node8&#45;&gt;Node1</title>
<path fill="none" stroke="#9a32cd" stroke-dasharray="5,2" d="M98.66,-85.51C126.25,-86.6 165.68,-91.87 194,-111 217.73,-127.03 232.4,-159.13 238.59,-175.26"/>
<polygon fill="#9a32cd" stroke="#9a32cd" points="98.43,-82 88.35,-85.27 98.27,-89 98.43,-82"/>
<text text-anchor="middle" x="171" y="-147" font-family="Helvetica,sans-Serif" font-size="10.00"> buckets</text>
<text text-anchor="middle" x="171" y="-136" font-family="Helvetica,sans-Serif" font-size="10.00">edata</text>
<text text-anchor="middle" x="171" y="-125" font-family="Helvetica,sans-Serif" font-size="10.00">spare</text>
<text text-anchor="middle" x="171" y="-114" font-family="Helvetica,sans-Serif" font-size="10.00">udata</text>
</g>
<!-- Node9 -->
<g id="node9" class="node">
<title>Node9</title>
<g id="a_node9"><a xlink:title=" ">
<polygon fill="none" stroke="#bfbfbf" points="7,-38.5 7,-57.5 123,-57.5 123,-38.5 7,-38.5"/>
<text text-anchor="middle" x="65" y="-45.5" font-family="Helvetica,sans-Serif" font-size="10.00">void(*)(const void *)</text>
</a>
</g>
</g>
<!-- Node9&#45;&gt;Node1 -->
<g id="edge8" class="edge">
<title>Node9&#45;&gt;Node1</title>
<path fill="none" stroke="#9a32cd" stroke-dasharray="5,2" d="M133.24,-51.47C154.55,-55.46 176.98,-63.02 194,-77 225.71,-103.05 237.17,-154.31 240.67,-175.5"/>
<polygon fill="#9a32cd" stroke="#9a32cd" points="133.65,-47.99 123.22,-49.83 132.52,-54.9 133.65,-47.99"/>
<text text-anchor="middle" x="171" y="-80" font-family="Helvetica,sans-Serif" font-size="10.00"> free</text>
</g>
<!-- Node10 -->
<g id="node10" class="node">
<title>Node10</title>
<g id="a_node10"><a xlink:title=" ">
<polygon fill="none" stroke="#bfbfbf" points="17.5,-0.5 17.5,-19.5 112.5,-19.5 112.5,-0.5 17.5,-0.5"/>
<text text-anchor="middle" x="65" y="-7.5" font-family="Helvetica,sans-Serif" font-size="10.00">void *(*)(size_t)</text>
</a>
</g>
</g>
<!-- Node10&#45;&gt;Node1 -->
<g id="edge9" class="edge">
<title>Node10&#45;&gt;Node1</title>
<path fill="none" stroke="#9a32cd" stroke-dasharray="5,2" d="M122.57,-11.22C147.19,-14.54 174.75,-22.4 194,-40 234.51,-77.04 240.89,-148.98 241.85,-175.17"/>
<polygon fill="#9a32cd" stroke="#9a32cd" points="122.91,-7.74 112.59,-10.1 122.13,-14.7 122.91,-7.74"/>
<text text-anchor="middle" x="171" y="-43" font-family="Helvetica,sans-Serif" font-size="10.00"> malloc</text>
</g>
</g>
</svg>
