<?xml version="1.0" encoding="UTF-8" standalone="no"?>
<!DOCTYPE svg PUBLIC "-//W3C//DTD SVG 1.1//EN"
 "http://www.w3.org/Graphics/SVG/1.1/DTD/svg11.dtd">
<!-- Generated by graphviz version 2.43.0 (0)
 -->
<!-- Title: ubasic_ctx Pages: 1 -->
<!--zoomable 925 -->
<svg id="main" version="1.1" xmlns="http://www.w3.org/2000/svg" xmlns:xlink="http://www.w3.org/1999/xlink" xml:space="preserve" onload="init(evt)">
<style type="text/css"><![CDATA[
.edge:hover path { stroke: red; }
.edge:hover polygon { stroke: red; fill: red; }
]]></style>
<script type="text/javascript"><![CDATA[
var edges = document.getElementsByTagName('g');
if (edges && edges.length) {
  for (var i=0;i<edges.length;i++) {
    if (edges[i].id.substr(0,4)=='edge') {
      edges[i].setAttribute('class','edge');
    }
  }
}
]]></script>
        <defs>
                <circle id="rim" cx="0" cy="0" r="7"/>
                <circle id="rim2" cx="0" cy="0" r="3.5"/>
                <g id="zoomPlus">
                        <use xlink:href="#rim" fill="#404040">
                                <set attributeName="fill" to="#808080" begin="zoomplus.mouseover" end="zoomplus.mouseout"/>
                        </use>
                        <path d="M-4,0h8M0,-4v8" fill="none" stroke="white" stroke-width="1.5" pointer-events="none"/>
                </g>
                <g id="zoomMin">
                        <use xlink:href="#rim" fill="#404040">
                                <set attributeName="fill" to="#808080" begin="zoomminus.mouseover" end="zoomminus.mouseout"/>
                        </use>
                        <path d="M-4,0h8" fill="none" stroke="white" stroke-width="1.5" pointer-events="none"/>
                </g>
                <g id="dirArrow">
                        <path fill="none" stroke="white" stroke-width="1.5" d="M0,-3.0v7 M-2.5,-0.5L0,-3.0L2.5,-0.5"/>
                </g>
               <g id="resetDef">
                       <use xlink:href="#rim2" fill="#404040">
                               <set attributeName="fill" to="#808080" begin="reset.mouseover" end="reset.mouseout"/>
                       </use>
               </g>
        </defs>

<script type="text/javascript">
var viewWidth = 704;
var viewHeight = 925;
var sectionId = 'dynsection-0';
</script>
<script xlink:href="svgpan.js"/>
<svg id="graph" class="graph">
<g id="viewport">
<title>ubasic_ctx</title>
<!-- Node1 -->
<g id="node1" class="node">
<title>Node1</title>
<g id="a_node1"><a xlink:title=" ">
<polygon fill="#bfbfbf" stroke="black" points="628,-484.5 628,-503.5 696,-503.5 696,-484.5 628,-484.5"/>
<text text-anchor="middle" x="662" y="-491.5" font-family="Helvetica,sans-Serif" font-size="10.00">ubasic_ctx</text>
</a>
</g>
</g>
<!-- Node2 -->
<g id="node2" class="node">
<title>Node2</title>
<g id="a_node2"><a xlink:title=" ">
<polygon fill="none" stroke="#bfbfbf" points="378.5,-892.5 378.5,-911.5 468.5,-911.5 468.5,-892.5 378.5,-892.5"/>
<text text-anchor="middle" x="423.5" y="-899.5" font-family="Helvetica,sans-Serif" font-size="10.00">ub_return_type</text>
</a>
</g>
</g>
<!-- Node2&#45;&gt;Node1 -->
<g id="edge1" class="edge">
<title>Node2&#45;&gt;Node1</title>
<path fill="none" stroke="#9a32cd" stroke-dasharray="5,2" d="M478.82,-907.03C520.7,-907.69 576.88,-901.01 610,-866 661.3,-811.78 661.63,-556.89 661.13,-503.73"/>
<polygon fill="#9a32cd" stroke="#9a32cd" points="478.88,-903.53 468.77,-906.73 478.67,-910.53 478.88,-903.53"/>
<text text-anchor="middle" x="554" y="-909" font-family="Helvetica,sans-Serif" font-size="10.00"> fn_type</text>
</g>
<!-- Node3 -->
<g id="node3" class="node">
<title>Node3</title>
<g id="a_node3"><a xlink:href="structub__var__string__array.html" target="_top" xlink:title=" ">
<polygon fill="none" stroke="black" points="367,-727.5 367,-746.5 480,-746.5 480,-727.5 367,-727.5"/>
<text text-anchor="middle" x="423.5" y="-734.5" font-family="Helvetica,sans-Serif" font-size="10.00">ub_var_string_array</text>
</a>
</g>
</g>
<!-- Node3&#45;&gt;Node1 -->
<g id="edge2" class="edge">
<title>Node3&#45;&gt;Node1</title>
<path fill="none" stroke="#9a32cd" stroke-dasharray="5,2" d="M490.17,-736.44C529.86,-732.6 578.67,-721.13 610,-690 637.19,-662.99 655.05,-539.85 659.76,-503.89"/>
<polygon fill="#9a32cd" stroke="#9a32cd" points="489.71,-732.96 480.03,-737.28 490.29,-739.94 489.71,-732.96"/>
<text text-anchor="middle" x="554" y="-738" font-family="Helvetica,sans-Serif" font-size="10.00"> string_array_variables</text>
</g>
<!-- Node4 -->
<g id="node4" class="node">
<title>Node4</title>
<g id="a_node4"><a xlink:title=" ">
<polygon fill="none" stroke="#bfbfbf" points="176,-666.5 176,-685.5 232,-685.5 232,-666.5 176,-666.5"/>
<text text-anchor="middle" x="204" y="-673.5" font-family="Helvetica,sans-Serif" font-size="10.00">uint64_t</text>
</a>
</g>
</g>
<!-- Node4&#45;&gt;Node1 -->
<g id="edge14" class="edge">
<title>Node4&#45;&gt;Node1</title>
<path fill="none" stroke="#9a32cd" stroke-dasharray="5,2" d="M242.29,-676.01C331.84,-675.25 555.67,-668.54 610,-621 646.48,-589.08 657.21,-527.39 660.06,-503.64"/>
<polygon fill="#9a32cd" stroke="#9a32cd" points="242.03,-672.51 232.05,-676.07 242.07,-679.51 242.03,-672.51"/>
<text text-anchor="middle" x="423.5" y="-696" font-family="Helvetica,sans-Serif" font-size="10.00"> for_stack_ptr</text>
<text text-anchor="middle" x="423.5" y="-685" font-family="Helvetica,sans-Serif" font-size="10.00">gosub_stack</text>
<text text-anchor="middle" x="423.5" y="-674" font-family="Helvetica,sans-Serif" font-size="10.00">gosub_stack_ptr</text>
</g>
<!-- Node4&#45;&gt;Node3 -->
<g id="edge3" class="edge">
<title>Node4&#45;&gt;Node3</title>
<path fill="none" stroke="#9a32cd" stroke-dasharray="5,2" d="M241.86,-683.43C271.15,-689.63 313.02,-699.19 349,-710 365.79,-715.05 384.33,-721.86 398.58,-727.38"/>
<polygon fill="#9a32cd" stroke="#9a32cd" points="242.57,-680 232.06,-681.37 241.13,-686.85 242.57,-680"/>
<text text-anchor="middle" x="307.5" y="-713" font-family="Helvetica,sans-Serif" font-size="10.00"> itemcount</text>
</g>
<!-- Node17 -->
<g id="node17" class="node">
<title>Node17</title>
<g id="a_node17"><a xlink:href="structub__var__int__array.html" target="_top" xlink:title=" ">
<polygon fill="none" stroke="black" points="374.5,-561.5 374.5,-580.5 472.5,-580.5 472.5,-561.5 374.5,-561.5"/>
<text text-anchor="middle" x="423.5" y="-568.5" font-family="Helvetica,sans-Serif" font-size="10.00">ub_var_int_array</text>
</a>
</g>
</g>
<!-- Node4&#45;&gt;Node17 -->
<g id="edge30" class="edge">
<title>Node4&#45;&gt;Node17</title>
<path fill="none" stroke="#9a32cd" stroke-dasharray="5,2" d="M233.3,-661.85C279.51,-638.73 366.16,-595.39 367,-595 377.66,-590.04 389.61,-584.82 399.69,-580.53"/>
<polygon fill="#9a32cd" stroke="#9a32cd" points="231.47,-658.84 224.1,-666.45 234.61,-665.1 231.47,-658.84"/>
<text text-anchor="middle" x="307.5" y="-648" font-family="Helvetica,sans-Serif" font-size="10.00"> itemcount</text>
</g>
<!-- Node5 -->
<g id="node5" class="node">
<title>Node5</title>
<g id="a_node5"><a xlink:title=" ">
<polygon fill="none" stroke="#bfbfbf" points="9,-489.5 9,-508.5 47,-508.5 47,-489.5 9,-489.5"/>
<text text-anchor="middle" x="28" y="-496.5" font-family="Helvetica,sans-Serif" font-size="10.00">char</text>
</a>
</g>
</g>
<!-- Node5&#45;&gt;Node1 -->
<g id="edge15" class="edge">
<title>Node5&#45;&gt;Node1</title>
<path fill="none" stroke="#9a32cd" stroke-dasharray="5,2" d="M56.98,-495.33C113.26,-488.84 243.78,-478.29 349,-504 357.69,-506.12 358.29,-510.95 367,-513 415.88,-524.54 429.78,-513.77 480,-513 537.8,-512.11 552.92,-518.12 610,-509 617.66,-507.78 625.78,-505.74 633.24,-503.56"/>
<polygon fill="#9a32cd" stroke="#9a32cd" points="56.56,-491.85 47.05,-496.52 57.39,-498.8 56.56,-491.85"/>
<text text-anchor="middle" x="307.5" y="-551" font-family="Helvetica,sans-Serif" font-size="10.00"> item_begin</text>
<text text-anchor="middle" x="307.5" y="-540" font-family="Helvetica,sans-Serif" font-size="10.00">nextptr</text>
<text text-anchor="middle" x="307.5" y="-529" font-family="Helvetica,sans-Serif" font-size="10.00">program_ptr</text>
<text text-anchor="middle" x="307.5" y="-518" font-family="Helvetica,sans-Serif" font-size="10.00">ptr</text>
<text text-anchor="middle" x="307.5" y="-507" font-family="Helvetica,sans-Serif" font-size="10.00">string</text>
</g>
<!-- Node5&#45;&gt;Node3 -->
<g id="edge4" class="edge">
<title>Node5&#45;&gt;Node3</title>
<path fill="none" stroke="#9a32cd" stroke-dasharray="5,2" d="M34.17,-518.18C40.97,-541.26 54.38,-580.58 74,-610 103.82,-654.71 113.1,-668.76 160,-695 224.55,-731.11 311.14,-738.47 366.89,-738.92"/>
<polygon fill="#9a32cd" stroke="#9a32cd" points="37.54,-517.21 31.45,-508.54 30.8,-519.11 37.54,-517.21"/>
<text text-anchor="middle" x="204" y="-729" font-family="Helvetica,sans-Serif" font-size="10.00"> varname</text>
</g>
<!-- Node6 -->
<g id="node6" class="node">
<title>Node6</title>
<g id="a_node6"><a xlink:href="structub__var__string.html" target="_top" xlink:title=" ">
<polygon fill="none" stroke="black" points="162.5,-762.5 162.5,-781.5 245.5,-781.5 245.5,-762.5 162.5,-762.5"/>
<text text-anchor="middle" x="204" y="-769.5" font-family="Helvetica,sans-Serif" font-size="10.00">ub_var_string</text>
</a>
</g>
</g>
<!-- Node5&#45;&gt;Node6 -->
<g id="edge6" class="edge">
<title>Node5&#45;&gt;Node6</title>
<path fill="none" stroke="#9a32cd" stroke-dasharray="5,2" d="M30.58,-518.58C34.8,-566.41 47.87,-687.45 74,-717 95.14,-740.9 112.67,-727.44 142,-740 157.5,-746.64 174.43,-755.67 186.51,-762.45"/>
<polygon fill="#9a32cd" stroke="#9a32cd" points="34.06,-518.24 29.73,-508.57 27.08,-518.83 34.06,-518.24"/>
<text text-anchor="middle" x="108" y="-754" font-family="Helvetica,sans-Serif" font-size="10.00"> value</text>
<text text-anchor="middle" x="108" y="-743" font-family="Helvetica,sans-Serif" font-size="10.00">varname</text>
</g>
<!-- Node8 -->
<g id="node8" class="node">
<title>Node8</title>
<g id="a_node8"><a xlink:href="structub__var__int.html" target="_top" xlink:title=" ">
<polygon fill="none" stroke="black" points="170,-587.5 170,-606.5 238,-606.5 238,-587.5 170,-587.5"/>
<text text-anchor="middle" x="204" y="-594.5" font-family="Helvetica,sans-Serif" font-size="10.00">ub_var_int</text>
</a>
</g>
</g>
<!-- Node5&#45;&gt;Node8 -->
<g id="edge11" class="edge">
<title>Node5&#45;&gt;Node8</title>
<path fill="none" stroke="#9a32cd" stroke-dasharray="5,2" d="M35.64,-518.04C42.55,-534.93 55.04,-558.89 74,-572 102.33,-591.59 142.12,-596.77 170,-597.72"/>
<polygon fill="#9a32cd" stroke="#9a32cd" points="38.88,-516.7 32.05,-508.6 32.33,-519.19 38.88,-516.7"/>
<text text-anchor="middle" x="108" y="-598" font-family="Helvetica,sans-Serif" font-size="10.00"> varname</text>
</g>
<!-- Node10 -->
<g id="node10" class="node">
<title>Node10</title>
<g id="a_node10"><a xlink:href="structconsole.html" target="_top" xlink:title=" ">
<polygon fill="none" stroke="black" points="177,-64.5 177,-83.5 231,-83.5 231,-64.5 177,-64.5"/>
<text text-anchor="middle" x="204" y="-71.5" font-family="Helvetica,sans-Serif" font-size="10.00">console</text>
</a>
</g>
</g>
<!-- Node5&#45;&gt;Node10 -->
<g id="edge17" class="edge">
<title>Node5&#45;&gt;Node10</title>
<path fill="none" stroke="#9a32cd" stroke-dasharray="5,2" d="M30.45,-479.16C34.75,-424.4 48.72,-272.44 74,-230 93.61,-197.08 116.68,-205.76 142,-177 168.77,-146.58 190.15,-102.74 198.82,-83.58"/>
<polygon fill="#9a32cd" stroke="#9a32cd" points="26.95,-479.06 29.68,-489.29 33.93,-479.59 26.95,-479.06"/>
<text text-anchor="middle" x="108" y="-255" font-family="Helvetica,sans-Serif" font-size="10.00"> buffer</text>
<text text-anchor="middle" x="108" y="-244" font-family="Helvetica,sans-Serif" font-size="10.00">dirty</text>
<text text-anchor="middle" x="108" y="-233" font-family="Helvetica,sans-Serif" font-size="10.00">internalbuffer</text>
</g>
<!-- Node14 -->
<g id="node14" class="node">
<title>Node14</title>
<g id="a_node14"><a xlink:href="structub__var__double.html" target="_top" xlink:title=" ">
<polygon fill="none" stroke="black" points="160,-842.5 160,-861.5 248,-861.5 248,-842.5 160,-842.5"/>
<text text-anchor="middle" x="204" y="-849.5" font-family="Helvetica,sans-Serif" font-size="10.00">ub_var_double</text>
</a>
</g>
</g>
<!-- Node5&#45;&gt;Node14 -->
<g id="edge24" class="edge">
<title>Node5&#45;&gt;Node14</title>
<path fill="none" stroke="#9a32cd" stroke-dasharray="5,2" d="M29.78,-518.93C32.31,-573.84 42.12,-725.68 74,-762 94.87,-785.77 117.99,-762.41 142,-783 155.88,-794.9 148.33,-805.92 160,-820 167.36,-828.89 177.68,-836.67 186.36,-842.34"/>
<polygon fill="#9a32cd" stroke="#9a32cd" points="33.27,-518.6 29.34,-508.76 26.27,-518.9 33.27,-518.6"/>
<text text-anchor="middle" x="108" y="-786" font-family="Helvetica,sans-Serif" font-size="10.00"> varname</text>
</g>
<!-- Node5&#45;&gt;Node17 -->
<g id="edge31" class="edge">
<title>Node5&#45;&gt;Node17</title>
<path fill="none" stroke="#9a32cd" stroke-dasharray="5,2" d="M41.5,-516.62C49.56,-526.5 60.96,-538 74,-544 100.6,-556.24 285.17,-565.37 374.4,-569.12"/>
<polygon fill="#9a32cd" stroke="#9a32cd" points="44.18,-514.36 35.32,-508.55 38.62,-518.61 44.18,-514.36"/>
<text text-anchor="middle" x="204" y="-565" font-family="Helvetica,sans-Serif" font-size="10.00"> varname</text>
</g>
<!-- Node18 -->
<g id="node18" class="node">
<title>Node18</title>
<g id="a_node18"><a xlink:href="structub__proc__fn__def.html" target="_top" xlink:title=" ">
<polygon fill="none" stroke="black" points="378,-332.5 378,-351.5 469,-351.5 469,-332.5 378,-332.5"/>
<text text-anchor="middle" x="423.5" y="-339.5" font-family="Helvetica,sans-Serif" font-size="10.00">ub_proc_fn_def</text>
</a>
</g>
</g>
<!-- Node5&#45;&gt;Node18 -->
<g id="edge34" class="edge">
<title>Node5&#45;&gt;Node18</title>
<path fill="none" stroke="#9a32cd" stroke-dasharray="5,2" d="M41.22,-481.2C49.52,-470.07 61.26,-455.99 74,-446 174.65,-367.04 224.61,-390.89 349,-361 361.3,-358.04 374.71,-354.63 386.67,-351.52"/>
<polygon fill="#9a32cd" stroke="#9a32cd" points="38.35,-479.2 35.36,-489.36 44.03,-483.28 38.35,-479.2"/>
<text text-anchor="middle" x="204" y="-398" font-family="Helvetica,sans-Serif" font-size="10.00"> name</text>
</g>
<!-- Node20 -->
<g id="node20" class="node">
<title>Node20</title>
<g id="a_node20"><a xlink:href="structub__param.html" target="_top" xlink:title=" ">
<polygon fill="none" stroke="black" points="171.5,-423.5 171.5,-442.5 236.5,-442.5 236.5,-423.5 171.5,-423.5"/>
<text text-anchor="middle" x="204" y="-430.5" font-family="Helvetica,sans-Serif" font-size="10.00">ub_param</text>
</a>
</g>
</g>
<!-- Node5&#45;&gt;Node20 -->
<g id="edge38" class="edge">
<title>Node5&#45;&gt;Node20</title>
<path fill="none" stroke="#9a32cd" stroke-dasharray="5,2" d="M53.47,-484.25C60.01,-480.63 67.16,-476.95 74,-474 106.26,-460.08 144.83,-448.43 171.35,-441.16"/>
<polygon fill="#9a32cd" stroke="#9a32cd" points="51.38,-481.41 44.44,-489.42 54.86,-487.49 51.38,-481.41"/>
<text text-anchor="middle" x="108" y="-477" font-family="Helvetica,sans-Serif" font-size="10.00"> name</text>
</g>
<!-- Node21 -->
<g id="node21" class="node">
<title>Node21</title>
<g id="a_node21"><a xlink:href="structub__line__ref.html" target="_top" xlink:title=" ">
<polygon fill="none" stroke="black" points="168.5,-175.5 168.5,-194.5 239.5,-194.5 239.5,-175.5 168.5,-175.5"/>
<text text-anchor="middle" x="204" y="-182.5" font-family="Helvetica,sans-Serif" font-size="10.00">ub_line_ref</text>
</a>
</g>
</g>
<!-- Node5&#45;&gt;Node21 -->
<g id="edge42" class="edge">
<title>Node5&#45;&gt;Node21</title>
<path fill="none" stroke="#9a32cd" stroke-dasharray="5,2" d="M30.67,-479.39C35.05,-432.57 48.32,-316.09 74,-288 95.34,-264.66 116.17,-285.26 142,-267 156.2,-256.96 184.41,-214.23 196.86,-194.75"/>
<polygon fill="#9a32cd" stroke="#9a32cd" points="27.18,-479.19 29.77,-489.46 34.15,-479.81 27.18,-479.19"/>
<text text-anchor="middle" x="108" y="-291" font-family="Helvetica,sans-Serif" font-size="10.00"> ptr</text>
</g>
<!-- Node24 -->
<g id="node24" class="node">
<title>Node24</title>
<g id="a_node24"><a xlink:href="structfor__state.html" target="_top" xlink:title=" ">
<polygon fill="none" stroke="black" points="174,-300.5 174,-319.5 234,-319.5 234,-300.5 174,-300.5"/>
<text text-anchor="middle" x="204" y="-307.5" font-family="Helvetica,sans-Serif" font-size="10.00">for_state</text>
</a>
</g>
</g>
<!-- Node5&#45;&gt;Node24 -->
<g id="edge47" class="edge">
<title>Node5&#45;&gt;Node24</title>
<path fill="none" stroke="#9a32cd" stroke-dasharray="5,2" d="M31.67,-479.27C36.14,-453.41 47.4,-408.07 74,-380 96.72,-356.02 115.48,-369.7 142,-350 151.87,-342.67 150.13,-336.33 160,-329 164.85,-325.4 170.49,-322.29 176.05,-319.69"/>
<polygon fill="#9a32cd" stroke="#9a32cd" points="28.18,-478.93 30.11,-489.34 35.1,-480 28.18,-478.93"/>
<text text-anchor="middle" x="108" y="-383" font-family="Helvetica,sans-Serif" font-size="10.00"> for_variable</text>
</g>
<!-- Node6&#45;&gt;Node1 -->
<g id="edge40" class="edge">
<title>Node6&#45;&gt;Node1</title>
<path fill="none" stroke="#9a32cd" stroke-dasharray="5,2" d="M255.96,-776.84C353.05,-784.87 559.43,-795.87 610,-750 647.51,-715.98 658.4,-546.23 660.56,-503.69"/>
<polygon fill="#9a32cd" stroke="#9a32cd" points="256.05,-773.33 245.79,-775.97 255.46,-780.31 256.05,-773.33"/>
<text text-anchor="middle" x="423.5" y="-798" font-family="Helvetica,sans-Serif" font-size="10.00"> local_string_variables</text>
<text text-anchor="middle" x="423.5" y="-787" font-family="Helvetica,sans-Serif" font-size="10.00">str_variables</text>
</g>
<!-- Node6&#45;&gt;Node3 -->
<g id="edge5" class="edge">
<title>Node6&#45;&gt;Node3</title>
<path fill="none" stroke="#9a32cd" stroke-dasharray="5,2" d="M255.64,-763.85C288.96,-758.49 332.58,-751.47 366.87,-745.95"/>
<polygon fill="#9a32cd" stroke="#9a32cd" points="254.97,-760.41 245.65,-765.46 256.08,-767.32 254.97,-760.41"/>
<text text-anchor="middle" x="307.5" y="-764" font-family="Helvetica,sans-Serif" font-size="10.00"> values</text>
</g>
<!-- Node6&#45;&gt;Node6 -->
<g id="edge8" class="edge">
<title>Node6&#45;&gt;Node6</title>
<path fill="none" stroke="#9a32cd" stroke-dasharray="5,2" d="M186.22,-791.4C187.41,-796.31 193.34,-800 204,-800 221.06,-800 225.99,-790.57 218.8,-781.76"/>
<polygon fill="#9a32cd" stroke="#9a32cd" points="189.59,-792.34 189.2,-781.76 182.91,-790.28 189.59,-792.34"/>
<text text-anchor="middle" x="204" y="-803" font-family="Helvetica,sans-Serif" font-size="10.00"> next</text>
</g>
<!-- Node7 -->
<g id="node7" class="node">
<title>Node7</title>
<g id="a_node7"><a xlink:title=" ">
<polygon fill="none" stroke="#bfbfbf" points="9,-808.5 9,-827.5 47,-827.5 47,-808.5 9,-808.5"/>
<text text-anchor="middle" x="28" y="-815.5" font-family="Helvetica,sans-Serif" font-size="10.00">bool</text>
</a>
</g>
</g>
<!-- Node7&#45;&gt;Node6 -->
<g id="edge7" class="edge">
<title>Node7&#45;&gt;Node6</title>
<path fill="none" stroke="#9a32cd" stroke-dasharray="5,2" d="M57.38,-813.95C80.44,-810.3 113.67,-804.25 142,-796 155.44,-792.08 170.05,-786.39 181.6,-781.53"/>
<polygon fill="#9a32cd" stroke="#9a32cd" points="56.6,-810.53 47.25,-815.5 57.66,-817.45 56.6,-810.53"/>
<text text-anchor="middle" x="108" y="-813" font-family="Helvetica,sans-Serif" font-size="10.00"> global</text>
</g>
<!-- Node7&#45;&gt;Node8 -->
<g id="edge13" class="edge">
<title>Node7&#45;&gt;Node8</title>
<path fill="none" stroke="#9a32cd" stroke-dasharray="5,2" d="M33.75,-798.38C40.13,-774.82 53.13,-734.89 74,-706 106.28,-661.32 160.72,-623.48 187.36,-606.53"/>
<polygon fill="#9a32cd" stroke="#9a32cd" points="30.32,-797.67 31.22,-808.23 37.1,-799.42 30.32,-797.67"/>
<text text-anchor="middle" x="108" y="-709" font-family="Helvetica,sans-Serif" font-size="10.00"> global</text>
</g>
<!-- Node7&#45;&gt;Node14 -->
<g id="edge26" class="edge">
<title>Node7&#45;&gt;Node14</title>
<path fill="none" stroke="#9a32cd" stroke-dasharray="5,2" d="M56.99,-825.89C62.6,-827.35 68.47,-828.79 74,-830 102.41,-836.2 134.66,-841.7 159.81,-845.65"/>
<polygon fill="#9a32cd" stroke="#9a32cd" points="57.86,-822.5 47.3,-823.29 56.05,-829.26 57.86,-822.5"/>
<text text-anchor="middle" x="108" y="-845" font-family="Helvetica,sans-Serif" font-size="10.00"> global</text>
</g>
<!-- Node8&#45;&gt;Node1 -->
<g id="edge9" class="edge">
<title>Node8&#45;&gt;Node1</title>
<path fill="none" stroke="#9a32cd" stroke-dasharray="5,2" d="M248.57,-601.81C254.42,-602.3 260.35,-602.72 266,-603 418.87,-610.5 480.75,-668.97 610,-587 640.48,-567.67 654.18,-523.42 658.93,-503.75"/>
<polygon fill="#9a32cd" stroke="#9a32cd" points="248.48,-598.29 238.2,-600.86 247.84,-605.26 248.48,-598.29"/>
<text text-anchor="middle" x="423.5" y="-644" font-family="Helvetica,sans-Serif" font-size="10.00"> int_variables</text>
<text text-anchor="middle" x="423.5" y="-633" font-family="Helvetica,sans-Serif" font-size="10.00">local_int_variables</text>
</g>
<!-- Node8&#45;&gt;Node8 -->
<g id="edge10" class="edge">
<title>Node8&#45;&gt;Node8</title>
<path fill="none" stroke="#9a32cd" stroke-dasharray="5,2" d="M186.22,-616.4C187.41,-621.31 193.34,-625 204,-625 221.06,-625 225.99,-615.57 218.8,-606.76"/>
<polygon fill="#9a32cd" stroke="#9a32cd" points="189.59,-617.34 189.2,-606.76 182.91,-615.28 189.59,-617.34"/>
<text text-anchor="middle" x="204" y="-628" font-family="Helvetica,sans-Serif" font-size="10.00"> next</text>
</g>
<!-- Node8&#45;&gt;Node17 -->
<g id="edge29" class="edge">
<title>Node8&#45;&gt;Node17</title>
<path fill="none" stroke="#9a32cd" stroke-dasharray="5,2" d="M248.31,-591.82C284.66,-587.48 336.52,-581.28 374.2,-576.77"/>
<polygon fill="#9a32cd" stroke="#9a32cd" points="247.55,-588.39 238.03,-593.05 248.38,-595.34 247.55,-588.39"/>
<text text-anchor="middle" x="307.5" y="-592" font-family="Helvetica,sans-Serif" font-size="10.00"> values</text>
</g>
<!-- Node9 -->
<g id="node9" class="node">
<title>Node9</title>
<g id="a_node9"><a xlink:title=" ">
<polygon fill="none" stroke="#bfbfbf" points="3,-252.5 3,-271.5 53,-271.5 53,-252.5 3,-252.5"/>
<text text-anchor="middle" x="28" y="-259.5" font-family="Helvetica,sans-Serif" font-size="10.00">int64_t</text>
</a>
</g>
</g>
<!-- Node9&#45;&gt;Node1 -->
<g id="edge20" class="edge">
<title>Node9&#45;&gt;Node1</title>
<path fill="none" stroke="#9a32cd" stroke-dasharray="5,2" d="M38.64,-242.95C46.5,-229.1 58.77,-210.78 74,-199 106.38,-173.95 120.32,-176.08 160,-166 257.26,-141.28 540.14,-131.96 610,-204 650.13,-245.38 659.13,-438.87 660.71,-484.39"/>
<polygon fill="#9a32cd" stroke="#9a32cd" points="35.38,-241.63 33.72,-252.1 41.54,-244.95 35.38,-241.63"/>
<text text-anchor="middle" x="307.5" y="-164" font-family="Helvetica,sans-Serif" font-size="10.00"> current_linenum</text>
<text text-anchor="middle" x="307.5" y="-153" font-family="Helvetica,sans-Serif" font-size="10.00">eval_linenum</text>
</g>
<!-- Node9&#45;&gt;Node8 -->
<g id="edge12" class="edge">
<title>Node9&#45;&gt;Node8</title>
<path fill="none" stroke="#9a32cd" stroke-dasharray="5,2" d="M29.07,-281.82C30.01,-322.97 36.39,-419.57 74,-489 77.18,-494.87 154.65,-569 160,-573 167.12,-578.32 175.56,-583.28 183.06,-587.29"/>
<polygon fill="#9a32cd" stroke="#9a32cd" points="32.57,-281.71 28.93,-271.76 25.57,-281.81 32.57,-281.71"/>
<text text-anchor="middle" x="108" y="-559" font-family="Helvetica,sans-Serif" font-size="10.00"> value</text>
</g>
<!-- Node9&#45;&gt;Node18 -->
<g id="edge35" class="edge">
<title>Node9&#45;&gt;Node18</title>
<path fill="none" stroke="#9a32cd" stroke-dasharray="5,2" d="M40.28,-243.92C48.22,-233.02 59.92,-220.1 74,-214 101.73,-201.99 115.7,-199.11 142,-214 155.53,-221.66 148.05,-234.06 160,-244 169.54,-251.93 330.56,-309.45 395.59,-332.49"/>
<polygon fill="#9a32cd" stroke="#9a32cd" points="37.24,-242.17 34.53,-252.41 43.04,-246.1 37.24,-242.17"/>
<text text-anchor="middle" x="204" y="-281" font-family="Helvetica,sans-Serif" font-size="10.00"> line</text>
</g>
<!-- Node9&#45;&gt;Node24 -->
<g id="edge48" class="edge">
<title>Node9&#45;&gt;Node24</title>
<path fill="none" stroke="#9a32cd" stroke-dasharray="5,2" d="M43.65,-279.06C51.71,-287.21 62.42,-296.21 74,-301 106.26,-314.33 146.93,-314.79 173.88,-313.09"/>
<polygon fill="#9a32cd" stroke="#9a32cd" points="46.16,-276.62 36.79,-271.67 41.03,-281.38 46.16,-276.62"/>
<text text-anchor="middle" x="108" y="-338" font-family="Helvetica,sans-Serif" font-size="10.00"> line_after_for</text>
<text text-anchor="middle" x="108" y="-327" font-family="Helvetica,sans-Serif" font-size="10.00">step</text>
<text text-anchor="middle" x="108" y="-316" font-family="Helvetica,sans-Serif" font-size="10.00">to</text>
</g>
<!-- Node10&#45;&gt;Node1 -->
<g id="edge16" class="edge">
<title>Node10&#45;&gt;Node1</title>
<path fill="none" stroke="#9a32cd" stroke-dasharray="5,2" d="M241.13,-61.81C319.99,-37.75 508.54,5.6 610,-91 639.56,-119.14 657.36,-425.94 660.5,-484.41"/>
<polygon fill="#9a32cd" stroke="#9a32cd" points="239.69,-58.6 231.19,-64.92 241.78,-65.28 239.69,-58.6"/>
<text text-anchor="middle" x="423.5" y="-38" font-family="Helvetica,sans-Serif" font-size="10.00"> cons</text>
</g>
<!-- Node11 -->
<g id="node11" class="node">
<title>Node11</title>
<g id="a_node11"><a xlink:title=" ">
<polygon fill="none" stroke="#bfbfbf" points="5.5,-67.5 5.5,-86.5 50.5,-86.5 50.5,-67.5 5.5,-67.5"/>
<text text-anchor="middle" x="28" y="-74.5" font-family="Helvetica,sans-Serif" font-size="10.00">size_t</text>
</a>
</g>
</g>
<!-- Node11&#45;&gt;Node10 -->
<g id="edge18" class="edge">
<title>Node11&#45;&gt;Node10</title>
<path fill="none" stroke="#9a32cd" stroke-dasharray="5,2" d="M60.8,-76.45C94.08,-75.88 145.74,-74.99 176.77,-74.45"/>
<polygon fill="#9a32cd" stroke="#9a32cd" points="60.62,-72.95 50.69,-76.63 60.74,-79.95 60.62,-72.95"/>
<text text-anchor="middle" x="108" y="-80" font-family="Helvetica,sans-Serif" font-size="10.00"> bufcnt</text>
</g>
<!-- Node12 -->
<g id="node12" class="node">
<title>Node12</title>
<g id="a_node12"><a xlink:title=" ">
<polygon fill="none" stroke="#bfbfbf" points="3,-0.5 3,-19.5 53,-19.5 53,-0.5 3,-0.5"/>
<text text-anchor="middle" x="28" y="-7.5" font-family="Helvetica,sans-Serif" font-size="10.00">uint8_t</text>
</a>
</g>
</g>
<!-- Node12&#45;&gt;Node10 -->
<g id="edge19" class="edge">
<title>Node12&#45;&gt;Node10</title>
<path fill="none" stroke="#9a32cd" stroke-dasharray="5,2" d="M63.31,-11.15C86.35,-12.94 116.95,-17.35 142,-28 162.26,-36.62 181.9,-53.4 193.2,-64.14"/>
<polygon fill="#9a32cd" stroke="#9a32cd" points="63.51,-7.65 53.3,-10.49 63.05,-14.64 63.51,-7.65"/>
<text text-anchor="middle" x="108" y="-64" font-family="Helvetica,sans-Serif" font-size="10.00"> attributes</text>
<text text-anchor="middle" x="108" y="-53" font-family="Helvetica,sans-Serif" font-size="10.00">last</text>
<text text-anchor="middle" x="108" y="-42" font-family="Helvetica,sans-Serif" font-size="10.00">x</text>
<text text-anchor="middle" x="108" y="-31" font-family="Helvetica,sans-Serif" font-size="10.00">y</text>
</g>
<!-- Node13 -->
<g id="node13" class="node">
<title>Node13</title>
<g id="a_node13"><a xlink:title=" ">
<polygon fill="none" stroke="#bfbfbf" points="398.5,-484.5 398.5,-503.5 448.5,-503.5 448.5,-484.5 398.5,-484.5"/>
<text text-anchor="middle" x="423.5" y="-491.5" font-family="Helvetica,sans-Serif" font-size="10.00">int32_t</text>
</a>
</g>
</g>
<!-- Node13&#45;&gt;Node1 -->
<g id="edge21" class="edge">
<title>Node13&#45;&gt;Node1</title>
<path fill="none" stroke="#9a32cd" stroke-dasharray="5,2" d="M459.12,-494C504.36,-494 583.06,-494 627.66,-494"/>
<polygon fill="#9a32cd" stroke="#9a32cd" points="458.92,-490.5 448.92,-494 458.92,-497.5 458.92,-490.5"/>
<text text-anchor="middle" x="554" y="-497" font-family="Helvetica,sans-Serif" font-size="10.00"> graphics_colour</text>
</g>
<!-- Node14&#45;&gt;Node1 -->
<g id="edge22" class="edge">
<title>Node14&#45;&gt;Node1</title>
<path fill="none" stroke="#9a32cd" stroke-dasharray="5,2" d="M258.4,-850C357.19,-845.11 562.74,-829.04 610,-779 648.83,-737.89 658.8,-548.89 660.65,-503.72"/>
<polygon fill="#9a32cd" stroke="#9a32cd" points="258.15,-846.5 248.32,-850.47 258.48,-853.5 258.15,-846.5"/>
<text text-anchor="middle" x="423.5" y="-855" font-family="Helvetica,sans-Serif" font-size="10.00"> double_variables</text>
<text text-anchor="middle" x="423.5" y="-844" font-family="Helvetica,sans-Serif" font-size="10.00">local_double_variables</text>
</g>
<!-- Node14&#45;&gt;Node14 -->
<g id="edge25" class="edge">
<title>Node14&#45;&gt;Node14</title>
<path fill="none" stroke="#9a32cd" stroke-dasharray="5,2" d="M186.22,-871.4C187.41,-876.31 193.34,-880 204,-880 221.06,-880 225.99,-870.57 218.8,-861.76"/>
<polygon fill="#9a32cd" stroke="#9a32cd" points="189.59,-872.34 189.2,-861.76 182.91,-870.28 189.59,-872.34"/>
<text text-anchor="middle" x="204" y="-883" font-family="Helvetica,sans-Serif" font-size="10.00"> next</text>
</g>
<!-- Node15 -->
<g id="node15" class="node">
<title>Node15</title>
<g id="a_node15"><a xlink:title=" ">
<polygon fill="none" stroke="#bfbfbf" points="3,-876.5 3,-895.5 53,-895.5 53,-876.5 3,-876.5"/>
<text text-anchor="middle" x="28" y="-883.5" font-family="Helvetica,sans-Serif" font-size="10.00">double</text>
</a>
</g>
</g>
<!-- Node15&#45;&gt;Node14 -->
<g id="edge23" class="edge">
<title>Node15&#45;&gt;Node14</title>
<path fill="none" stroke="#9a32cd" stroke-dasharray="5,2" d="M63.29,-879.34C85.69,-874.99 115.59,-869.17 142,-864 147.72,-862.88 153.74,-861.7 159.68,-860.53"/>
<polygon fill="#9a32cd" stroke="#9a32cd" points="62.4,-875.95 53.25,-881.29 63.73,-882.82 62.4,-875.95"/>
<text text-anchor="middle" x="108" y="-880" font-family="Helvetica,sans-Serif" font-size="10.00"> value</text>
</g>
<!-- Node16 -->
<g id="node16" class="node">
<title>Node16</title>
<g id="a_node16"><a xlink:title=" ">
<polygon fill="none" stroke="#bfbfbf" points="409,-399.5 409,-418.5 438,-418.5 438,-399.5 409,-399.5"/>
<text text-anchor="middle" x="423.5" y="-406.5" font-family="Helvetica,sans-Serif" font-size="10.00">int</text>
</a>
</g>
</g>
<!-- Node16&#45;&gt;Node1 -->
<g id="edge27" class="edge">
<title>Node16&#45;&gt;Node1</title>
<path fill="none" stroke="#9a32cd" stroke-dasharray="5,2" d="M447.62,-401.01C461.94,-396.49 480.81,-391.3 498,-389 547.34,-382.41 567.81,-362.59 610,-389 644.36,-410.51 656.16,-462.5 659.68,-484.21"/>
<polygon fill="#9a32cd" stroke="#9a32cd" points="446.51,-397.69 438.09,-404.13 448.69,-404.34 446.51,-397.69"/>
<text text-anchor="middle" x="554" y="-436" font-family="Helvetica,sans-Serif" font-size="10.00"> bracket_depth</text>
<text text-anchor="middle" x="554" y="-425" font-family="Helvetica,sans-Serif" font-size="10.00">current_token</text>
<text text-anchor="middle" x="554" y="-414" font-family="Helvetica,sans-Serif" font-size="10.00">ended</text>
<text text-anchor="middle" x="554" y="-403" font-family="Helvetica,sans-Serif" font-size="10.00">errored</text>
<text text-anchor="middle" x="554" y="-392" font-family="Helvetica,sans-Serif" font-size="10.00">oldlen</text>
</g>
<!-- Node17&#45;&gt;Node1 -->
<g id="edge28" class="edge">
<title>Node17&#45;&gt;Node1</title>
<path fill="none" stroke="#9a32cd" stroke-dasharray="5,2" d="M483.13,-572.7C521.13,-571.56 570.7,-565.69 610,-546 629.67,-536.14 646.16,-515.66 654.71,-503.55"/>
<polygon fill="#9a32cd" stroke="#9a32cd" points="482.66,-569.21 472.73,-572.91 482.8,-576.21 482.66,-569.21"/>
<text text-anchor="middle" x="554" y="-575" font-family="Helvetica,sans-Serif" font-size="10.00"> int_array_variables</text>
</g>
<!-- Node18&#45;&gt;Node1 -->
<g id="edge32" class="edge">
<title>Node18&#45;&gt;Node1</title>
<path fill="none" stroke="#9a32cd" stroke-dasharray="5,2" d="M479.48,-333.02C519.61,-329.6 573.21,-331.92 610,-360 650.76,-391.11 658.95,-458.92 660.59,-484.22"/>
<polygon fill="#9a32cd" stroke="#9a32cd" points="478.93,-329.56 469.33,-334.03 479.63,-336.52 478.93,-329.56"/>
<text text-anchor="middle" x="554" y="-363" font-family="Helvetica,sans-Serif" font-size="10.00"> defs</text>
</g>
<!-- Node18&#45;&gt;Node18 -->
<g id="edge36" class="edge">
<title>Node18&#45;&gt;Node18</title>
<path fill="none" stroke="#9a32cd" stroke-dasharray="5,2" d="M402.02,-361.4C403.45,-366.31 410.61,-370 423.5,-370 444.12,-370 450.08,-360.57 441.38,-351.76"/>
<polygon fill="#9a32cd" stroke="#9a32cd" points="405.4,-362.35 405.62,-351.76 398.84,-359.9 405.4,-362.35"/>
<text text-anchor="middle" x="423.5" y="-373" font-family="Helvetica,sans-Serif" font-size="10.00"> next</text>
</g>
<!-- Node19 -->
<g id="node19" class="node">
<title>Node19</title>
<g id="a_node19"><a xlink:title=" ">
<polygon fill="none" stroke="#bfbfbf" points="168.5,-338.5 168.5,-357.5 239.5,-357.5 239.5,-338.5 168.5,-338.5"/>
<text text-anchor="middle" x="204" y="-345.5" font-family="Helvetica,sans-Serif" font-size="10.00">ub_fn_type</text>
</a>
</g>
</g>
<!-- Node19&#45;&gt;Node18 -->
<g id="edge33" class="edge">
<title>Node19&#45;&gt;Node18</title>
<path fill="none" stroke="#9a32cd" stroke-dasharray="5,2" d="M250.07,-346.76C287.52,-345.72 340.51,-344.26 377.85,-343.23"/>
<polygon fill="#9a32cd" stroke="#9a32cd" points="249.84,-343.26 239.95,-347.04 250.04,-350.26 249.84,-343.26"/>
<text text-anchor="middle" x="307.5" y="-349" font-family="Helvetica,sans-Serif" font-size="10.00"> type</text>
</g>
<!-- Node20&#45;&gt;Node1 -->
<g id="edge49" class="edge">
<title>Node20&#45;&gt;Node1</title>
<path fill="none" stroke="#9a32cd" stroke-dasharray="5,2" d="M246.64,-438.59C253.12,-439.42 259.74,-440.25 266,-441 360.99,-452.33 385.22,-451.06 480,-464 531.76,-471.06 591.48,-481.39 627.73,-487.9"/>
<polygon fill="#9a32cd" stroke="#9a32cd" points="247.01,-435.11 236.64,-437.29 246.11,-442.05 247.01,-435.11"/>
<text text-anchor="middle" x="423.5" y="-467" font-family="Helvetica,sans-Serif" font-size="10.00"> param</text>
</g>
<!-- Node20&#45;&gt;Node18 -->
<g id="edge37" class="edge">
<title>Node20&#45;&gt;Node18</title>
<path fill="none" stroke="#9a32cd" stroke-dasharray="5,2" d="M246.65,-431.1C276.45,-428.37 316.83,-421.78 349,-406 358.61,-401.29 358.95,-397.06 367,-390 382.33,-376.56 400.17,-361.17 411.41,-351.52"/>
<polygon fill="#9a32cd" stroke="#9a32cd" points="246.26,-427.62 236.58,-431.92 246.83,-434.6 246.26,-427.62"/>
<text text-anchor="middle" x="307.5" y="-431" font-family="Helvetica,sans-Serif" font-size="10.00"> params</text>
</g>
<!-- Node20&#45;&gt;Node20 -->
<g id="edge39" class="edge">
<title>Node20&#45;&gt;Node20</title>
<path fill="none" stroke="#9a32cd" stroke-dasharray="5,2" d="M186.22,-452.4C187.41,-457.31 193.34,-461 204,-461 221.06,-461 225.99,-451.57 218.8,-442.76"/>
<polygon fill="#9a32cd" stroke="#9a32cd" points="189.59,-453.34 189.2,-442.76 182.91,-451.28 189.59,-453.34"/>
<text text-anchor="middle" x="204" y="-464" font-family="Helvetica,sans-Serif" font-size="10.00"> next</text>
</g>
<!-- Node21&#45;&gt;Node1 -->
<g id="edge41" class="edge">
<title>Node21&#45;&gt;Node1</title>
<path fill="none" stroke="#9a32cd" stroke-dasharray="5,2" d="M249.9,-180.59C333.23,-175.09 512.2,-176.29 610,-274 640.58,-304.55 656.32,-445.69 660.09,-484.24"/>
<polygon fill="#9a32cd" stroke="#9a32cd" points="249.47,-177.11 239.75,-181.33 249.97,-184.1 249.47,-177.11"/>
<text text-anchor="middle" x="423.5" y="-214" font-family="Helvetica,sans-Serif" font-size="10.00"> line_tail</text>
<text text-anchor="middle" x="423.5" y="-203" font-family="Helvetica,sans-Serif" font-size="10.00">lines</text>
</g>
<!-- Node21&#45;&gt;Node21 -->
<g id="edge44" class="edge">
<title>Node21&#45;&gt;Node21</title>
<path fill="none" stroke="#9a32cd" stroke-dasharray="5,2" d="M186.22,-204.4C187.41,-209.31 193.34,-213 204,-213 221.06,-213 225.99,-203.57 218.8,-194.76"/>
<polygon fill="#9a32cd" stroke="#9a32cd" points="189.59,-205.34 189.2,-194.76 182.91,-203.28 189.59,-205.34"/>
<text text-anchor="middle" x="204" y="-227" font-family="Helvetica,sans-Serif" font-size="10.00"> next</text>
<text text-anchor="middle" x="204" y="-216" font-family="Helvetica,sans-Serif" font-size="10.00">prev</text>
</g>
<!-- Node22 -->
<g id="node22" class="node">
<title>Node22</title>
<g id="a_node22"><a xlink:title=" ">
<polygon fill="none" stroke="#bfbfbf" points="0,-111.5 0,-130.5 56,-130.5 56,-111.5 0,-111.5"/>
<text text-anchor="middle" x="28" y="-118.5" font-family="Helvetica,sans-Serif" font-size="10.00">uint32_t</text>
</a>
</g>
</g>
<!-- Node22&#45;&gt;Node21 -->
<g id="edge43" class="edge">
<title>Node22&#45;&gt;Node21</title>
<path fill="none" stroke="#9a32cd" stroke-dasharray="5,2" d="M64.45,-134.04C97.87,-146.33 147.16,-164.46 177.06,-175.46"/>
<polygon fill="#9a32cd" stroke="#9a32cd" points="65.64,-130.75 55.05,-130.58 63.23,-137.32 65.64,-130.75"/>
<text text-anchor="middle" x="108" y="-165" font-family="Helvetica,sans-Serif" font-size="10.00"> line_number</text>
</g>
<!-- Node23 -->
<g id="node23" class="node">
<title>Node23</title>
<g id="a_node23"><a xlink:title=" ">
<polygon fill="none" stroke="#bfbfbf" points="400.5,-101.5 400.5,-120.5 446.5,-120.5 446.5,-101.5 400.5,-101.5"/>
<text text-anchor="middle" x="423.5" y="-108.5" font-family="Helvetica,sans-Serif" font-size="10.00">void *</text>
</a>
</g>
</g>
<!-- Node23&#45;&gt;Node1 -->
<g id="edge45" class="edge">
<title>Node23&#45;&gt;Node1</title>
<path fill="none" stroke="#9a32cd" stroke-dasharray="5,2" d="M456.28,-102.44C497.45,-93.48 568.81,-85.48 610,-124 664.23,-174.71 662.25,-430.77 661.23,-484.21"/>
<polygon fill="#9a32cd" stroke="#9a32cd" points="455.45,-99.04 446.5,-104.72 457.04,-105.86 455.45,-99.04"/>
<text text-anchor="middle" x="554" y="-127" font-family="Helvetica,sans-Serif" font-size="10.00"> fn_return</text>
</g>
<!-- Node24&#45;&gt;Node1 -->
<g id="edge46" class="edge">
<title>Node24&#45;&gt;Node1</title>
<path fill="none" stroke="#9a32cd" stroke-dasharray="5,2" d="M244.2,-297.72C323.45,-275.54 504.18,-238.84 610,-327 659.14,-367.94 661.92,-454.84 661.38,-484.13"/>
<polygon fill="#9a32cd" stroke="#9a32cd" points="242.8,-294.48 234.15,-300.6 244.73,-301.2 242.8,-294.48"/>
<text text-anchor="middle" x="423.5" y="-277" font-family="Helvetica,sans-Serif" font-size="10.00"> for_stack</text>
</g>
</g>
</svg>
        <g id="navigator" transform="translate(0 0)" fill="#404254">
                <rect fill="#f2f5e9" fill-opacity="0.5" stroke="#606060" stroke-width=".5" x="0" y="0" width="60" height="60"/>
                <use id="zoomplus" xlink:href="#zoomPlus" x="17" y="9" onmousedown="handleZoom(evt,'in')"/>
                <use id="zoomminus" xlink:href="#zoomMin" x="42" y="9" onmousedown="handleZoom(evt,'out')"/>
                <use id="reset" xlink:href="#resetDef" x="30" y="36" onmousedown="handleReset()"/>
                <g id="arrowUp" xlink:href="#dirArrow" transform="translate(30 24)" onmousedown="handlePan(0,-1)">
                  <use xlink:href="#rim" fill="#404040">
                        <set attributeName="fill" to="#808080" begin="arrowUp.mouseover" end="arrowUp.mouseout"/>
                  </use>
                  <path fill="none" stroke="white" stroke-width="1.5" d="M0,-3.0v7 M-2.5,-0.5L0,-3.0L2.5,-0.5"/>
                </g>
                <g id="arrowRight" xlink:href="#dirArrow" transform="rotate(90) translate(36 -43)" onmousedown="handlePan(1,0)">
                  <use xlink:href="#rim" fill="#404040">
                        <set attributeName="fill" to="#808080" begin="arrowRight.mouseover" end="arrowRight.mouseout"/>
                  </use>
                  <path fill="none" stroke="white" stroke-width="1.5" d="M0,-3.0v7 M-2.5,-0.5L0,-3.0L2.5,-0.5"/>
                </g>
                <g id="arrowDown" xlink:href="#dirArrow" transform="rotate(180) translate(-30 -48)" onmousedown="handlePan(0,1)">
                  <use xlink:href="#rim" fill="#404040">
                        <set attributeName="fill" to="#808080" begin="arrowDown.mouseover" end="arrowDown.mouseout"/>
                  </use>
                  <path fill="none" stroke="white" stroke-width="1.5" d="M0,-3.0v7 M-2.5,-0.5L0,-3.0L2.5,-0.5"/>
                </g>
                <g id="arrowLeft" xlink:href="#dirArrow" transform="rotate(270) translate(-36 17)" onmousedown="handlePan(-1,0)">
                  <use xlink:href="#rim" fill="#404040">
                        <set attributeName="fill" to="#808080" begin="arrowLeft.mouseover" end="arrowLeft.mouseout"/>
                  </use>
                  <path fill="none" stroke="white" stroke-width="1.5" d="M0,-3.0v7 M-2.5,-0.5L0,-3.0L2.5,-0.5"/>
                </g>
        </g>
        <svg viewBox="0 0 15 15" width="100%" height="30px" preserveAspectRatio="xMaxYMin meet">
         <g id="arrow_out" transform="scale(0.3 0.3)">
          <a xlink:href="structubasic__ctx__coll__graph_org.svg" target="_base">
           <rect id="button" ry="5" rx="5" y="6" x="6" height="38" width="38"
                fill="#f2f5e9" fill-opacity="0.5" stroke="#606060" stroke-width="1.0"/>
           <path id="arrow"
             d="M 11.500037,31.436501 C 11.940474,20.09759 22.043105,11.32322 32.158766,21.979434 L 37.068811,17.246167 C 37.068811,17.246167 37.088388,32 37.088388,32 L 22.160133,31.978069 C 22.160133,31.978069 26.997745,27.140456 26.997745,27.140456 C 18.528582,18.264221 13.291696,25.230495 11.500037,31.436501 z"
             style="fill:#404040;"/>
          </a>
         </g>
        </svg>
</svg>
