<?xml version="1.0" encoding="UTF-8" standalone="no"?>
<!DOCTYPE svg PUBLIC "-//W3C//DTD SVG 1.1//EN"
 "http://www.w3.org/Graphics/SVG/1.1/DTD/svg11.dtd">
<!-- Generated by graphviz version 2.43.0 (0)
 -->
<!-- Title: mbr_id_map_t Pages: 1 -->
<svg width="127pt" height="106pt"
 viewBox="0.00 0.00 127.00 106.00" xmlns="http://www.w3.org/2000/svg" xmlns:xlink="http://www.w3.org/1999/xlink">
<g id="graph0" class="graph" transform="scale(1 1) rotate(0) translate(4 102)">
<title>mbr_id_map_t</title>
<!-- Node1 -->
<g id="node1" class="node">
<title>Node1</title>
<g id="a_node1"><a xlink:title="Mapping of an MBR partition type byte to user&#45;facing labels.">
<polygon fill="#bfbfbf" stroke="black" points="7,-0.5 7,-19.5 93,-19.5 93,-0.5 7,-0.5"/>
<text text-anchor="middle" x="50" y="-7.5" font-family="Helvetica,sans-Serif" font-size="10.00">mbr_id_map_t</text>
</a>
</g>
</g>
<!-- Node2 -->
<g id="node2" class="node">
<title>Node2</title>
<g id="a_node2"><a xlink:title=" ">
<polygon fill="none" stroke="#bfbfbf" points="0,-78.5 0,-97.5 38,-97.5 38,-78.5 0,-78.5"/>
<text text-anchor="middle" x="19" y="-85.5" font-family="Helvetica,sans-Serif" font-size="10.00">char</text>
</a>
</g>
</g>
<!-- Node2&#45;&gt;Node1 -->
<g id="edge1" class="edge">
<title>Node2&#45;&gt;Node1</title>
<path fill="none" stroke="#9a32cd" stroke-dasharray="5,2" d="M21.84,-68.48C23.71,-59.07 26.62,-47.63 31,-38 33.94,-31.53 38.49,-24.99 42.4,-19.97"/>
<polygon fill="#9a32cd" stroke="#9a32cd" points="18.39,-67.91 20.12,-78.36 25.29,-69.11 18.39,-67.91"/>
<text text-anchor="middle" x="45" y="-52" font-family="Helvetica,sans-Serif" font-size="10.00"> label</text>
<text text-anchor="middle" x="45" y="-41" font-family="Helvetica,sans-Serif" font-size="10.00">os</text>
</g>
<!-- Node3 -->
<g id="node3" class="node">
<title>Node3</title>
<g id="a_node3"><a xlink:title=" ">
<polygon fill="none" stroke="#bfbfbf" points="56,-78.5 56,-97.5 106,-97.5 106,-78.5 56,-78.5"/>
<text text-anchor="middle" x="81" y="-85.5" font-family="Helvetica,sans-Serif" font-size="10.00">uint8_t</text>
</a>
</g>
</g>
<!-- Node3&#45;&gt;Node1 -->
<g id="edge2" class="edge">
<title>Node3&#45;&gt;Node1</title>
<path fill="none" stroke="#9a32cd" stroke-dasharray="5,2" d="M73.53,-68.67C67.18,-53.11 58.35,-31.47 53.51,-19.62"/>
<polygon fill="#9a32cd" stroke="#9a32cd" points="70.43,-70.34 77.44,-78.28 76.91,-67.7 70.43,-70.34"/>
<text text-anchor="middle" x="94" y="-46.5" font-family="Helvetica,sans-Serif" font-size="10.00"> mbr_type</text>
</g>
</g>
</svg>
