<?xml version="1.0" encoding="UTF-8" standalone="no"?>
<!DOCTYPE svg PUBLIC "-//W3C//DTD SVG 1.1//EN"
 "http://www.w3.org/Graphics/SVG/1.1/DTD/svg11.dtd">
<!-- Generated by graphviz version 2.43.0 (0)
 -->
<!-- Title: basic_ctx Pages: 1 -->
<svg width="623pt" height="1200pt"
 viewBox="0.00 0.00 623.00 1199.82" xmlns="http://www.w3.org/2000/svg" xmlns:xlink="http://www.w3.org/1999/xlink">
<g id="graph0" class="graph" transform="scale(1 1) rotate(0) translate(4 1195.82)">
<title>basic_ctx</title>
<!-- Node1 -->
<g id="node1" class="node">
<title>Node1</title>
<g id="a_node1"><a xlink:title="BASIC program context. Every instance of a BASIC program has one of these,* also certain structures s...">
<polygon fill="#bfbfbf" stroke="black" points="553,-505.32 553,-524.32 615,-524.32 615,-505.32 553,-505.32"/>
<text text-anchor="middle" x="584" y="-512.32" font-family="Helvetica,sans-Serif" font-size="10.00">basic_ctx</text>
</a>
</g>
</g>
<!-- Node2 -->
<g id="node2" class="node">
<title>Node2</title>
<g id="a_node2"><a xlink:title=" ">
<polygon fill="none" stroke="#bfbfbf" points="294.5,-1160.32 294.5,-1179.32 384.5,-1179.32 384.5,-1160.32 294.5,-1160.32"/>
<text text-anchor="middle" x="339.5" y="-1167.32" font-family="Helvetica,sans-Serif" font-size="10.00">ub_return_type</text>
</a>
</g>
</g>
<!-- Node2&#45;&gt;Node1 -->
<g id="edge1" class="edge">
<title>Node2&#45;&gt;Node1</title>
<path fill="none" stroke="#9a32cd" stroke-dasharray="5,2" d="M394.54,-1179.84C438.81,-1184.64 499.7,-1182.81 535,-1145.82 579.84,-1098.82 582.8,-600.13 582.99,-524.43"/>
<polygon fill="#9a32cd" stroke="#9a32cd" points="394.87,-1176.36 384.52,-1178.62 394.02,-1183.31 394.87,-1176.36"/>
<text text-anchor="middle" x="476" y="-1183.82" font-family="Helvetica,sans-Serif" font-size="10.00"> fn_type</text>
</g>
<!-- Node3 -->
<g id="node3" class="node">
<title>Node3</title>
<g id="a_node3"><a xlink:href="structub__var__double__array.html" target="_top" xlink:title="An array of real (double)">
<polygon fill="none" stroke="black" points="280,-988.32 280,-1007.32 399,-1007.32 399,-988.32 280,-988.32"/>
<text text-anchor="middle" x="339.5" y="-995.32" font-family="Helvetica,sans-Serif" font-size="10.00">ub_var_double_array</text>
</a>
</g>
</g>
<!-- Node3&#45;&gt;Node1 -->
<g id="edge2" class="edge">
<title>Node3&#45;&gt;Node1</title>
<path fill="none" stroke="#9a32cd" stroke-dasharray="5,2" d="M408.93,-987.61C452.02,-977.45 504.99,-957.34 535,-917.82 584,-853.28 583.7,-579.41 583.13,-524.45"/>
<polygon fill="#9a32cd" stroke="#9a32cd" points="408.06,-984.22 399.06,-989.81 409.58,-991.06 408.06,-984.22"/>
<text text-anchor="middle" x="476" y="-986.82" font-family="Helvetica,sans-Serif" font-size="10.00"> double_array_variables</text>
</g>
<!-- Node3&#45;&gt;Node3 -->
<g id="edge3" class="edge">
<title>Node3&#45;&gt;Node3</title>
<path fill="none" stroke="#9a32cd" stroke-dasharray="5,2" d="M319.13,-1017.22C320.49,-1022.13 327.28,-1025.82 339.5,-1025.82 359.05,-1025.82 364.7,-1016.38 356.45,-1007.58"/>
<polygon fill="#9a32cd" stroke="#9a32cd" points="322.51,-1018.17 322.55,-1007.58 315.91,-1015.83 322.51,-1018.17"/>
<text text-anchor="middle" x="339.5" y="-1028.82" font-family="Helvetica,sans-Serif" font-size="10.00"> next</text>
</g>
<!-- Node4 -->
<g id="node4" class="node">
<title>Node4</title>
<g id="a_node4"><a xlink:title=" ">
<polygon fill="none" stroke="#bfbfbf" points="115.5,-1014.32 115.5,-1033.32 165.5,-1033.32 165.5,-1014.32 115.5,-1014.32"/>
<text text-anchor="middle" x="140.5" y="-1021.32" font-family="Helvetica,sans-Serif" font-size="10.00">double</text>
</a>
</g>
</g>
<!-- Node4&#45;&gt;Node3 -->
<g id="edge4" class="edge">
<title>Node4&#45;&gt;Node3</title>
<path fill="none" stroke="#9a32cd" stroke-dasharray="5,2" d="M175.53,-1017.72C181.67,-1016.69 188.02,-1015.68 194,-1014.82 222.13,-1010.76 253.44,-1006.98 279.7,-1004.03"/>
<polygon fill="#9a32cd" stroke="#9a32cd" points="174.77,-1014.29 165.5,-1019.43 175.95,-1021.19 174.77,-1014.29"/>
<text text-anchor="middle" x="228" y="-1017.82" font-family="Helvetica,sans-Serif" font-size="10.00"> values</text>
</g>
<!-- Node15 -->
<g id="node15" class="node">
<title>Node15</title>
<g id="a_node15"><a xlink:href="structub__var__double.html" target="_top" xlink:title="A real (double) variable.">
<polygon fill="none" stroke="black" points="295.5,-1055.32 295.5,-1074.32 383.5,-1074.32 383.5,-1055.32 295.5,-1055.32"/>
<text text-anchor="middle" x="339.5" y="-1062.32" font-family="Helvetica,sans-Serif" font-size="10.00">ub_var_double</text>
</a>
</g>
</g>
<!-- Node4&#45;&gt;Node15 -->
<g id="edge26" class="edge">
<title>Node4&#45;&gt;Node15</title>
<path fill="none" stroke="#9a32cd" stroke-dasharray="5,2" d="M175.59,-1030.88C199.72,-1035.87 232.85,-1042.75 262,-1048.82 272.76,-1051.06 284.37,-1053.48 295.21,-1055.75"/>
<polygon fill="#9a32cd" stroke="#9a32cd" points="176.01,-1027.39 165.51,-1028.79 174.59,-1034.24 176.01,-1027.39"/>
<text text-anchor="middle" x="228" y="-1051.82" font-family="Helvetica,sans-Serif" font-size="10.00"> value</text>
</g>
<!-- Node5 -->
<g id="node5" class="node">
<title>Node5</title>
<g id="a_node5"><a xlink:title=" ">
<polygon fill="none" stroke="#bfbfbf" points="112.5,-915.32 112.5,-934.32 168.5,-934.32 168.5,-915.32 112.5,-915.32"/>
<text text-anchor="middle" x="140.5" y="-922.32" font-family="Helvetica,sans-Serif" font-size="10.00">uint64_t</text>
</a>
</g>
</g>
<!-- Node5&#45;&gt;Node1 -->
<g id="edge16" class="edge">
<title>Node5&#45;&gt;Node1</title>
<path fill="none" stroke="#9a32cd" stroke-dasharray="5,2" d="M178.76,-920.62C272.14,-909.74 510.5,-879.69 535,-853.82 581.59,-804.61 583.27,-574.15 583.07,-524.33"/>
<polygon fill="#9a32cd" stroke="#9a32cd" points="178.16,-917.16 168.63,-921.79 178.96,-924.12 178.16,-917.16"/>
<text text-anchor="middle" x="339.5" y="-964.82" font-family="Helvetica,sans-Serif" font-size="10.00"> call_stack</text>
<text text-anchor="middle" x="339.5" y="-953.82" font-family="Helvetica,sans-Serif" font-size="10.00">call_stack_ptr</text>
<text text-anchor="middle" x="339.5" y="-942.82" font-family="Helvetica,sans-Serif" font-size="10.00">for_stack_ptr</text>
<text text-anchor="middle" x="339.5" y="-931.82" font-family="Helvetica,sans-Serif" font-size="10.00">if_nest_level</text>
<text text-anchor="middle" x="339.5" y="-920.82" font-family="Helvetica,sans-Serif" font-size="10.00">repeat_stack</text>
<text text-anchor="middle" x="339.5" y="-909.82" font-family="Helvetica,sans-Serif" font-size="10.00">repeat_stack_ptr</text>
</g>
<!-- Node5&#45;&gt;Node3 -->
<g id="edge5" class="edge">
<title>Node5&#45;&gt;Node3</title>
<path fill="none" stroke="#9a32cd" stroke-dasharray="5,2" d="M178.7,-932.14C208.6,-938.43 247.86,-947.75 262,-955.82 271.83,-961.43 270.58,-967.55 280,-973.82 288.77,-979.66 299.19,-984.49 308.79,-988.26"/>
<polygon fill="#9a32cd" stroke="#9a32cd" points="179.07,-928.64 168.57,-930.05 177.65,-935.5 179.07,-928.64"/>
<text text-anchor="middle" x="228" y="-958.82" font-family="Helvetica,sans-Serif" font-size="10.00"> itemcount</text>
</g>
<!-- Node7 -->
<g id="node7" class="node">
<title>Node7</title>
<g id="a_node7"><a xlink:href="structub__var__string__array.html" target="_top" xlink:title="An array of strings.">
<polygon fill="none" stroke="black" points="283,-819.32 283,-838.32 396,-838.32 396,-819.32 283,-819.32"/>
<text text-anchor="middle" x="339.5" y="-826.32" font-family="Helvetica,sans-Serif" font-size="10.00">ub_var_string_array</text>
</a>
</g>
</g>
<!-- Node5&#45;&gt;Node7 -->
<g id="edge9" class="edge">
<title>Node5&#45;&gt;Node7</title>
<path fill="none" stroke="#9a32cd" stroke-dasharray="5,2" d="M166.47,-910.42C175.05,-905.77 184.81,-900.79 194,-896.82 223.28,-884.16 232.99,-887.09 262,-873.82 284.7,-863.44 309.31,-848.17 324.31,-838.36"/>
<polygon fill="#9a32cd" stroke="#9a32cd" points="164.76,-907.37 157.71,-915.28 168.15,-913.49 164.76,-907.37"/>
<text text-anchor="middle" x="228" y="-899.82" font-family="Helvetica,sans-Serif" font-size="10.00"> itemcount</text>
</g>
<!-- Node18 -->
<g id="node18" class="node">
<title>Node18</title>
<g id="a_node18"><a xlink:href="structub__var__int__array.html" target="_top" xlink:title="An array of integers.">
<polygon fill="none" stroke="black" points="290.5,-621.32 290.5,-640.32 388.5,-640.32 388.5,-621.32 290.5,-621.32"/>
<text text-anchor="middle" x="339.5" y="-628.32" font-family="Helvetica,sans-Serif" font-size="10.00">ub_var_int_array</text>
</a>
</g>
</g>
<!-- Node5&#45;&gt;Node18 -->
<g id="edge33" class="edge">
<title>Node5&#45;&gt;Node18</title>
<path fill="none" stroke="#9a32cd" stroke-dasharray="5,2" d="M167.49,-909.11C170.59,-906.58 173.52,-903.8 176,-900.82 188.45,-885.82 182.87,-876.82 194,-860.82 218.23,-825.99 242.14,-831.31 262,-793.82 282.73,-754.69 260.45,-735.55 280,-695.82 291.26,-672.93 312.94,-652.09 326.51,-640.47"/>
<polygon fill="#9a32cd" stroke="#9a32cd" points="165.15,-906.48 159.13,-915.2 169.27,-912.14 165.15,-906.48"/>
<text text-anchor="middle" x="228" y="-863.82" font-family="Helvetica,sans-Serif" font-size="10.00"> itemcount</text>
</g>
<!-- Node6 -->
<g id="node6" class="node">
<title>Node6</title>
<g id="a_node6"><a xlink:title=" ">
<polygon fill="none" stroke="#bfbfbf" points="0,-751.32 0,-770.32 38,-770.32 38,-751.32 0,-751.32"/>
<text text-anchor="middle" x="19" y="-758.32" font-family="Helvetica,sans-Serif" font-size="10.00">char</text>
</a>
</g>
</g>
<!-- Node6&#45;&gt;Node1 -->
<g id="edge17" class="edge">
<title>Node6&#45;&gt;Node1</title>
<path fill="none" stroke="#9a32cd" stroke-dasharray="5,2" d="M19.77,-780.72C19.91,-824.81 23.78,-933.42 56,-1016.82 69.95,-1052.93 72.1,-1068.43 105,-1088.82 186.23,-1139.16 472.06,-1154.73 535,-1082.82 573.37,-1038.98 581.77,-595.12 582.86,-524.32"/>
<polygon fill="#9a32cd" stroke="#9a32cd" points="23.27,-780.52 19.81,-770.51 16.27,-780.49 23.27,-780.52"/>
<text text-anchor="middle" x="228" y="-1174.82" font-family="Helvetica,sans-Serif" font-size="10.00"> item_begin</text>
<text text-anchor="middle" x="228" y="-1163.82" font-family="Helvetica,sans-Serif" font-size="10.00">nextptr</text>
<text text-anchor="middle" x="228" y="-1152.82" font-family="Helvetica,sans-Serif" font-size="10.00">program_ptr</text>
<text text-anchor="middle" x="228" y="-1141.82" font-family="Helvetica,sans-Serif" font-size="10.00">ptr</text>
<text text-anchor="middle" x="228" y="-1130.82" font-family="Helvetica,sans-Serif" font-size="10.00">string</text>
</g>
<!-- Node6&#45;&gt;Node3 -->
<g id="edge6" class="edge">
<title>Node6&#45;&gt;Node3</title>
<path fill="none" stroke="#9a32cd" stroke-dasharray="5,2" d="M23.47,-780.73C31.11,-818.48 53.04,-900.54 105,-943.82 154.08,-984.69 228.25,-995.96 279.78,-998.44"/>
<polygon fill="#9a32cd" stroke="#9a32cd" points="26.83,-779.71 21.54,-770.53 19.96,-781.01 26.83,-779.71"/>
<text text-anchor="middle" x="140.5" y="-982.82" font-family="Helvetica,sans-Serif" font-size="10.00"> varname</text>
</g>
<!-- Node6&#45;&gt;Node7 -->
<g id="edge10" class="edge">
<title>Node6&#45;&gt;Node7</title>
<path fill="none" stroke="#9a32cd" stroke-dasharray="5,2" d="M31.14,-779.08C45.28,-800.28 71.86,-834.09 105,-847.82 134.15,-859.89 144.73,-852.08 176,-847.82 184.23,-846.7 185.84,-844.34 194,-842.82 223.12,-837.41 255.95,-834.01 282.95,-831.93"/>
<polygon fill="#9a32cd" stroke="#9a32cd" points="34.04,-777.13 25.7,-770.6 28.15,-780.91 34.04,-777.13"/>
<text text-anchor="middle" x="140.5" y="-867.82" font-family="Helvetica,sans-Serif" font-size="10.00"> values</text>
<text text-anchor="middle" x="140.5" y="-856.82" font-family="Helvetica,sans-Serif" font-size="10.00">varname</text>
</g>
<!-- Node8 -->
<g id="node8" class="node">
<title>Node8</title>
<g id="a_node8"><a xlink:href="structub__var__int.html" target="_top" xlink:title="An integer variable.">
<polygon fill="none" stroke="black" points="305.5,-430.32 305.5,-449.32 373.5,-449.32 373.5,-430.32 305.5,-430.32"/>
<text text-anchor="middle" x="339.5" y="-437.32" font-family="Helvetica,sans-Serif" font-size="10.00">ub_var_int</text>
</a>
</g>
</g>
<!-- Node6&#45;&gt;Node8 -->
<g id="edge13" class="edge">
<title>Node6&#45;&gt;Node8</title>
<path fill="none" stroke="#9a32cd" stroke-dasharray="5,2" d="M21.98,-740.91C27.41,-695.7 46.32,-583.87 105,-514.82 155.6,-455.28 253.63,-442.56 305.1,-440.13"/>
<polygon fill="#9a32cd" stroke="#9a32cd" points="18.47,-740.8 20.85,-751.13 25.42,-741.57 18.47,-740.8"/>
<text text-anchor="middle" x="140.5" y="-517.82" font-family="Helvetica,sans-Serif" font-size="10.00"> varname</text>
</g>
<!-- Node11 -->
<g id="node11" class="node">
<title>Node11</title>
<g id="a_node11"><a xlink:href="structconsole.html" target="_top" xlink:title=" ">
<polygon fill="none" stroke="black" points="312.5,-220.32 312.5,-239.32 366.5,-239.32 366.5,-220.32 312.5,-220.32"/>
<text text-anchor="middle" x="339.5" y="-227.32" font-family="Helvetica,sans-Serif" font-size="10.00">console</text>
</a>
</g>
</g>
<!-- Node6&#45;&gt;Node11 -->
<g id="edge19" class="edge">
<title>Node6&#45;&gt;Node11</title>
<path fill="none" stroke="#9a32cd" stroke-dasharray="5,2" d="M21.17,-740.82C27.3,-639.55 57.26,-186.7 105,-148.82 160.65,-104.66 207.53,-133.21 262,-178.82 274.51,-189.29 267.38,-200.48 280,-210.82 289.17,-218.33 301.39,-222.9 312.28,-225.66"/>
<polygon fill="#9a32cd" stroke="#9a32cd" points="17.67,-740.73 20.57,-750.92 24.66,-741.14 17.67,-740.73"/>
<text text-anchor="middle" x="140.5" y="-173.82" font-family="Helvetica,sans-Serif" font-size="10.00"> buffer</text>
<text text-anchor="middle" x="140.5" y="-162.82" font-family="Helvetica,sans-Serif" font-size="10.00">dirty</text>
<text text-anchor="middle" x="140.5" y="-151.82" font-family="Helvetica,sans-Serif" font-size="10.00">internalbuffer</text>
</g>
<!-- Node6&#45;&gt;Node15 -->
<g id="edge27" class="edge">
<title>Node6&#45;&gt;Node15</title>
<path fill="none" stroke="#9a32cd" stroke-dasharray="5,2" d="M19.21,-780.86C18.35,-833.31 23.99,-975.18 105,-1042.82 158.14,-1087.18 243.67,-1082.33 295.14,-1074.06"/>
<polygon fill="#9a32cd" stroke="#9a32cd" points="22.72,-780.66 19.49,-770.57 15.72,-780.47 22.72,-780.66"/>
<text text-anchor="middle" x="140.5" y="-1076.82" font-family="Helvetica,sans-Serif" font-size="10.00"> varname</text>
</g>
<!-- Node6&#45;&gt;Node18 -->
<g id="edge34" class="edge">
<title>Node6&#45;&gt;Node18</title>
<path fill="none" stroke="#9a32cd" stroke-dasharray="5,2" d="M33.69,-743.16C48.91,-724.98 75.31,-697.59 105,-684.82 169.32,-657.16 194.85,-691.66 262,-671.82 285.55,-664.86 310.13,-650.14 324.87,-640.36"/>
<polygon fill="#9a32cd" stroke="#9a32cd" points="30.72,-741.26 27.15,-751.23 36.16,-745.66 30.72,-741.26"/>
<text text-anchor="middle" x="140.5" y="-687.82" font-family="Helvetica,sans-Serif" font-size="10.00"> varname</text>
</g>
<!-- Node19 -->
<g id="node19" class="node">
<title>Node19</title>
<g id="a_node19"><a xlink:href="structub__proc__fn__def.html" target="_top" xlink:title="Procedure or function definition Each has a name, a type, a starting line and a parameter list.">
<polygon fill="none" stroke="black" points="294,-705.32 294,-724.32 385,-724.32 385,-705.32 294,-705.32"/>
<text text-anchor="middle" x="339.5" y="-712.32" font-family="Helvetica,sans-Serif" font-size="10.00">ub_proc_fn_def</text>
</a>
</g>
</g>
<!-- Node6&#45;&gt;Node19 -->
<g id="edge40" class="edge">
<title>Node6&#45;&gt;Node19</title>
<path fill="none" stroke="#9a32cd" stroke-dasharray="5,2" d="M48.23,-757.82C93.48,-752.87 184.97,-742.29 262,-729.82 272.29,-728.15 283.31,-726.13 293.69,-724.12"/>
<polygon fill="#9a32cd" stroke="#9a32cd" points="47.84,-754.34 38.27,-758.9 48.59,-761.3 47.84,-754.34"/>
<text text-anchor="middle" x="140.5" y="-753.82" font-family="Helvetica,sans-Serif" font-size="10.00"> name</text>
</g>
<!-- Node21 -->
<g id="node21" class="node">
<title>Node21</title>
<g id="a_node21"><a xlink:href="structub__param.html" target="_top" xlink:title="FN/PROC parameter.">
<polygon fill="none" stroke="black" points="108,-790.32 108,-809.32 173,-809.32 173,-790.32 108,-790.32"/>
<text text-anchor="middle" x="140.5" y="-797.32" font-family="Helvetica,sans-Serif" font-size="10.00">ub_param</text>
</a>
</g>
</g>
<!-- Node6&#45;&gt;Node21 -->
<g id="edge44" class="edge">
<title>Node6&#45;&gt;Node21</title>
<path fill="none" stroke="#9a32cd" stroke-dasharray="5,2" d="M47.61,-771.81C50.43,-772.86 53.26,-773.88 56,-774.82 73.03,-780.67 92.27,-786.48 107.99,-791.03"/>
<polygon fill="#9a32cd" stroke="#9a32cd" points="48.8,-768.52 38.21,-768.23 46.3,-775.06 48.8,-768.52"/>
<text text-anchor="middle" x="71.5" y="-786.82" font-family="Helvetica,sans-Serif" font-size="10.00"> name</text>
</g>
<!-- Node22 -->
<g id="node22" class="node">
<title>Node22</title>
<g id="a_node22"><a xlink:href="structub__var__string.html" target="_top" xlink:title="A string variable.">
<polygon fill="none" stroke="black" points="298,-305.32 298,-324.32 381,-324.32 381,-305.32 298,-305.32"/>
<text text-anchor="middle" x="339.5" y="-312.32" font-family="Helvetica,sans-Serif" font-size="10.00">ub_var_string</text>
</a>
</g>
</g>
<!-- Node6&#45;&gt;Node22 -->
<g id="edge47" class="edge">
<title>Node6&#45;&gt;Node22</title>
<path fill="none" stroke="#9a32cd" stroke-dasharray="5,2" d="M21.07,-741.07C25.62,-665.08 45.85,-392.84 105,-334.82 156.99,-283.82 250.44,-294.36 301.94,-305.32"/>
<polygon fill="#9a32cd" stroke="#9a32cd" points="17.57,-740.98 20.49,-751.17 24.56,-741.39 17.57,-740.98"/>
<text text-anchor="middle" x="140.5" y="-348.82" font-family="Helvetica,sans-Serif" font-size="10.00"> value</text>
<text text-anchor="middle" x="140.5" y="-337.82" font-family="Helvetica,sans-Serif" font-size="10.00">varname</text>
</g>
<!-- Node24 -->
<g id="node24" class="node">
<title>Node24</title>
<g id="a_node24"><a xlink:href="structfor__state.html" target="_top" xlink:title="State for a FOR...NEXT loop.">
<polygon fill="none" stroke="black" points="309.5,-566.32 309.5,-585.32 369.5,-585.32 369.5,-566.32 309.5,-566.32"/>
<text text-anchor="middle" x="339.5" y="-573.32" font-family="Helvetica,sans-Serif" font-size="10.00">for_state</text>
</a>
</g>
</g>
<!-- Node6&#45;&gt;Node24 -->
<g id="edge52" class="edge">
<title>Node6&#45;&gt;Node24</title>
<path fill="none" stroke="#9a32cd" stroke-dasharray="5,2" d="M26.54,-741.66C32.47,-726.36 42.36,-705.04 56,-689.82 73.36,-670.45 80.34,-666.1 105,-657.82 171.3,-635.53 203.6,-685.32 262,-646.82 276.6,-637.19 268.11,-624.65 280,-611.82 290.37,-600.62 305,-591.62 317.03,-585.42"/>
<polygon fill="#9a32cd" stroke="#9a32cd" points="23.22,-740.55 23.08,-751.15 29.8,-742.95 23.22,-740.55"/>
<text text-anchor="middle" x="140.5" y="-660.82" font-family="Helvetica,sans-Serif" font-size="10.00"> for_variable</text>
</g>
<!-- Node7&#45;&gt;Node1 -->
<g id="edge7" class="edge">
<title>Node7&#45;&gt;Node1</title>
<path fill="none" stroke="#9a32cd" stroke-dasharray="5,2" d="M406.42,-838.66C448.65,-841.02 501.6,-836.01 535,-803.82 576.29,-764.02 582.08,-570.1 582.88,-524.45"/>
<polygon fill="#9a32cd" stroke="#9a32cd" points="406.44,-835.15 396.22,-837.93 405.94,-842.13 406.44,-835.15"/>
<text text-anchor="middle" x="476" y="-841.82" font-family="Helvetica,sans-Serif" font-size="10.00"> string_array_variables</text>
</g>
<!-- Node7&#45;&gt;Node7 -->
<g id="edge8" class="edge">
<title>Node7&#45;&gt;Node7</title>
<path fill="none" stroke="#9a32cd" stroke-dasharray="5,2" d="M319.13,-848.22C320.49,-853.13 327.28,-856.82 339.5,-856.82 359.05,-856.82 364.7,-847.38 356.45,-838.58"/>
<polygon fill="#9a32cd" stroke="#9a32cd" points="322.51,-849.17 322.55,-838.58 315.91,-846.83 322.51,-849.17"/>
<text text-anchor="middle" x="339.5" y="-859.82" font-family="Helvetica,sans-Serif" font-size="10.00"> next</text>
</g>
<!-- Node8&#45;&gt;Node1 -->
<g id="edge11" class="edge">
<title>Node8&#45;&gt;Node1</title>
<path fill="none" stroke="#9a32cd" stroke-dasharray="5,2" d="M383.6,-442.95C424.16,-447.15 485.84,-456.82 535,-478.82 549.45,-485.28 563.66,-496.76 572.83,-505.02"/>
<polygon fill="#9a32cd" stroke="#9a32cd" points="383.8,-439.45 373.51,-441.97 383.13,-446.42 383.8,-439.45"/>
<text text-anchor="middle" x="476" y="-492.82" font-family="Helvetica,sans-Serif" font-size="10.00"> int_variables</text>
<text text-anchor="middle" x="476" y="-481.82" font-family="Helvetica,sans-Serif" font-size="10.00">local_int_variables</text>
</g>
<!-- Node8&#45;&gt;Node8 -->
<g id="edge12" class="edge">
<title>Node8&#45;&gt;Node8</title>
<path fill="none" stroke="#9a32cd" stroke-dasharray="5,2" d="M319.13,-459.22C320.49,-464.13 327.28,-467.82 339.5,-467.82 359.05,-467.82 364.7,-458.38 356.45,-449.58"/>
<polygon fill="#9a32cd" stroke="#9a32cd" points="322.51,-460.17 322.55,-449.58 315.91,-457.83 322.51,-460.17"/>
<text text-anchor="middle" x="339.5" y="-470.82" font-family="Helvetica,sans-Serif" font-size="10.00"> next</text>
</g>
<!-- Node9 -->
<g id="node9" class="node">
<title>Node9</title>
<g id="a_node9"><a xlink:title=" ">
<polygon fill="none" stroke="#bfbfbf" points="115.5,-535.32 115.5,-554.32 165.5,-554.32 165.5,-535.32 115.5,-535.32"/>
<text text-anchor="middle" x="140.5" y="-542.32" font-family="Helvetica,sans-Serif" font-size="10.00">int64_t</text>
</a>
</g>
</g>
<!-- Node9&#45;&gt;Node1 -->
<g id="edge22" class="edge">
<title>Node9&#45;&gt;Node1</title>
<path fill="none" stroke="#9a32cd" stroke-dasharray="5,2" d="M175.97,-538.4C203.9,-533.49 244.35,-527.03 280,-523.82 379.59,-514.84 498.26,-514.23 552.82,-514.51"/>
<polygon fill="#9a32cd" stroke="#9a32cd" points="175.14,-535 165.91,-540.2 176.37,-541.89 175.14,-535"/>
<text text-anchor="middle" x="339.5" y="-548.82" font-family="Helvetica,sans-Serif" font-size="10.00"> current_linenum</text>
<text text-anchor="middle" x="339.5" y="-537.82" font-family="Helvetica,sans-Serif" font-size="10.00">eval_linenum</text>
<text text-anchor="middle" x="339.5" y="-526.82" font-family="Helvetica,sans-Serif" font-size="10.00">highest_line</text>
</g>
<!-- Node9&#45;&gt;Node8 -->
<g id="edge14" class="edge">
<title>Node9&#45;&gt;Node8</title>
<path fill="none" stroke="#9a32cd" stroke-dasharray="5,2" d="M153.91,-526.69C163.51,-513.91 177.86,-497.28 194,-486.82 196.49,-485.2 266.92,-462.62 308.51,-449.36"/>
<polygon fill="#9a32cd" stroke="#9a32cd" points="150.8,-525.01 147.8,-535.17 156.48,-529.1 150.8,-525.01"/>
<text text-anchor="middle" x="228" y="-489.82" font-family="Helvetica,sans-Serif" font-size="10.00"> value</text>
</g>
<!-- Node9&#45;&gt;Node18 -->
<g id="edge35" class="edge">
<title>Node9&#45;&gt;Node18</title>
<path fill="none" stroke="#9a32cd" stroke-dasharray="5,2" d="M162.6,-560.2C171.91,-566.53 183.18,-573.59 194,-578.82 222.72,-592.71 231.97,-591.05 262,-601.82 279.38,-608.05 298.84,-615.43 313.78,-621.19"/>
<polygon fill="#9a32cd" stroke="#9a32cd" points="164.55,-557.29 154.34,-554.43 160.54,-563.03 164.55,-557.29"/>
<text text-anchor="middle" x="228" y="-604.82" font-family="Helvetica,sans-Serif" font-size="10.00"> values</text>
</g>
<!-- Node9&#45;&gt;Node19 -->
<g id="edge41" class="edge">
<title>Node9&#45;&gt;Node19</title>
<path fill="none" stroke="#9a32cd" stroke-dasharray="5,2" d="M153.71,-563.17C163.67,-577.48 178.58,-597.44 194,-612.82 228.12,-646.84 240.32,-651.49 280,-678.82 293.75,-688.29 309.96,-698.17 321.82,-705.17"/>
<polygon fill="#9a32cd" stroke="#9a32cd" points="156.44,-560.98 147.92,-554.69 150.66,-564.92 156.44,-560.98"/>
<text text-anchor="middle" x="228" y="-668.82" font-family="Helvetica,sans-Serif" font-size="10.00"> line</text>
</g>
<!-- Node9&#45;&gt;Node24 -->
<g id="edge53" class="edge">
<title>Node9&#45;&gt;Node24</title>
<path fill="none" stroke="#9a32cd" stroke-dasharray="5,2" d="M175.92,-541.8C200.2,-540.48 233.37,-540.28 262,-545.82 267.5,-546.88 295.02,-557.92 315.49,-566.31"/>
<polygon fill="#9a32cd" stroke="#9a32cd" points="175.52,-538.32 165.76,-542.45 175.97,-545.31 175.52,-538.32"/>
<text text-anchor="middle" x="228" y="-570.82" font-family="Helvetica,sans-Serif" font-size="10.00"> line_after_for</text>
<text text-anchor="middle" x="228" y="-559.82" font-family="Helvetica,sans-Serif" font-size="10.00">step</text>
<text text-anchor="middle" x="228" y="-548.82" font-family="Helvetica,sans-Serif" font-size="10.00">to</text>
</g>
<!-- Node10 -->
<g id="node10" class="node">
<title>Node10</title>
<g id="a_node10"><a xlink:title=" ">
<polygon fill="none" stroke="#bfbfbf" points="121.5,-366.32 121.5,-385.32 159.5,-385.32 159.5,-366.32 121.5,-366.32"/>
<text text-anchor="middle" x="140.5" y="-373.32" font-family="Helvetica,sans-Serif" font-size="10.00">bool</text>
</a>
</g>
</g>
<!-- Node10&#45;&gt;Node1 -->
<g id="edge37" class="edge">
<title>Node10&#45;&gt;Node1</title>
<path fill="none" stroke="#9a32cd" stroke-dasharray="5,2" d="M170.06,-372.39C240.03,-365.58 422.49,-357.67 535,-442.82 557.04,-459.5 572.2,-489.4 578.98,-504.89"/>
<polygon fill="#9a32cd" stroke="#9a32cd" points="169.41,-368.94 159.83,-373.46 170.13,-375.9 169.41,-368.94"/>
<text text-anchor="middle" x="339.5" y="-395.82" font-family="Helvetica,sans-Serif" font-size="10.00"> ended</text>
<text text-anchor="middle" x="339.5" y="-384.82" font-family="Helvetica,sans-Serif" font-size="10.00">errored</text>
</g>
<!-- Node10&#45;&gt;Node8 -->
<g id="edge15" class="edge">
<title>Node10&#45;&gt;Node8</title>
<path fill="none" stroke="#9a32cd" stroke-dasharray="5,2" d="M169.72,-374.45C195.39,-374.44 233.52,-377.64 262,-393.82 272.98,-400.06 269.85,-408.3 280,-415.82 288.12,-421.83 297.96,-426.62 307.23,-430.29"/>
<polygon fill="#9a32cd" stroke="#9a32cd" points="169.48,-370.95 159.54,-374.62 169.6,-377.95 169.48,-370.95"/>
<text text-anchor="middle" x="228" y="-396.82" font-family="Helvetica,sans-Serif" font-size="10.00"> global</text>
</g>
<!-- Node10&#45;&gt;Node15 -->
<g id="edge29" class="edge">
<title>Node10&#45;&gt;Node15</title>
<path fill="none" stroke="#9a32cd" stroke-dasharray="5,2" d="M168.15,-390.4C201.97,-409.18 256.6,-440.5 262,-449.82 295.21,-507.14 240.25,-992.82 280,-1045.82 283.97,-1051.11 289.45,-1054.96 295.48,-1057.75"/>
<polygon fill="#9a32cd" stroke="#9a32cd" points="169.67,-387.24 159.22,-385.47 166.28,-393.37 169.67,-387.24"/>
<text text-anchor="middle" x="228" y="-452.82" font-family="Helvetica,sans-Serif" font-size="10.00"> global</text>
</g>
<!-- Node10&#45;&gt;Node22 -->
<g id="edge48" class="edge">
<title>Node10&#45;&gt;Node22</title>
<path fill="none" stroke="#9a32cd" stroke-dasharray="5,2" d="M157.85,-359.35C167.54,-350.61 180.52,-340.52 194,-334.82 227.12,-320.8 267.96,-316.18 297.76,-314.85"/>
<polygon fill="#9a32cd" stroke="#9a32cd" points="155.42,-356.83 150.56,-366.25 160.23,-361.92 155.42,-356.83"/>
<text text-anchor="middle" x="228" y="-337.82" font-family="Helvetica,sans-Serif" font-size="10.00"> global</text>
</g>
<!-- Node11&#45;&gt;Node1 -->
<g id="edge18" class="edge">
<title>Node11&#45;&gt;Node1</title>
<path fill="none" stroke="#9a32cd" stroke-dasharray="5,2" d="M376.67,-222.12C420.14,-215.17 492.52,-211.31 535,-250.82 573.2,-286.35 581.3,-461.83 582.73,-505.14"/>
<polygon fill="#9a32cd" stroke="#9a32cd" points="376.06,-218.67 366.8,-223.83 377.26,-225.57 376.06,-218.67"/>
<text text-anchor="middle" x="476" y="-253.82" font-family="Helvetica,sans-Serif" font-size="10.00"> cons</text>
</g>
<!-- Node12 -->
<g id="node12" class="node">
<title>Node12</title>
<g id="a_node12"><a xlink:title=" ">
<polygon fill="none" stroke="#bfbfbf" points="118,-243.32 118,-262.32 163,-262.32 163,-243.32 118,-243.32"/>
<text text-anchor="middle" x="140.5" y="-250.32" font-family="Helvetica,sans-Serif" font-size="10.00">size_t</text>
</a>
</g>
</g>
<!-- Node12&#45;&gt;Node1 -->
<g id="edge24" class="edge">
<title>Node12&#45;&gt;Node1</title>
<path fill="none" stroke="#9a32cd" stroke-dasharray="5,2" d="M173.45,-257.87C180.23,-258.89 187.34,-259.92 194,-260.82 269.81,-271.03 479.3,-255.38 535,-307.82 564.48,-335.57 578.69,-467.91 582.15,-505.09"/>
<polygon fill="#9a32cd" stroke="#9a32cd" points="173.6,-254.35 163.19,-256.3 172.54,-261.27 173.6,-254.35"/>
<text text-anchor="middle" x="339.5" y="-272.82" font-family="Helvetica,sans-Serif" font-size="10.00"> oldlen</text>
</g>
<!-- Node12&#45;&gt;Node11 -->
<g id="edge20" class="edge">
<title>Node12&#45;&gt;Node11</title>
<path fill="none" stroke="#9a32cd" stroke-dasharray="5,2" d="M173.5,-249.08C212.12,-244.57 276.32,-237.08 312.19,-232.89"/>
<polygon fill="#9a32cd" stroke="#9a32cd" points="172.86,-245.63 163.34,-250.27 173.67,-252.59 172.86,-245.63"/>
<text text-anchor="middle" x="228" y="-248.82" font-family="Helvetica,sans-Serif" font-size="10.00"> bufcnt</text>
</g>
<!-- Node13 -->
<g id="node13" class="node">
<title>Node13</title>
<g id="a_node13"><a xlink:title=" ">
<polygon fill="none" stroke="#bfbfbf" points="115.5,-191.32 115.5,-210.32 165.5,-210.32 165.5,-191.32 115.5,-191.32"/>
<text text-anchor="middle" x="140.5" y="-198.32" font-family="Helvetica,sans-Serif" font-size="10.00">uint8_t</text>
</a>
</g>
</g>
<!-- Node13&#45;&gt;Node11 -->
<g id="edge21" class="edge">
<title>Node13&#45;&gt;Node11</title>
<path fill="none" stroke="#9a32cd" stroke-dasharray="5,2" d="M175.5,-189.47C200.49,-183.12 234.7,-178.66 262,-190.82 272.92,-195.68 269.97,-204.3 280,-210.82 289.76,-217.16 301.82,-221.54 312.44,-224.49"/>
<polygon fill="#9a32cd" stroke="#9a32cd" points="174.45,-186.13 165.74,-192.17 176.31,-192.88 174.45,-186.13"/>
<text text-anchor="middle" x="228" y="-226.82" font-family="Helvetica,sans-Serif" font-size="10.00"> attributes</text>
<text text-anchor="middle" x="228" y="-215.82" font-family="Helvetica,sans-Serif" font-size="10.00">last</text>
<text text-anchor="middle" x="228" y="-204.82" font-family="Helvetica,sans-Serif" font-size="10.00">x</text>
<text text-anchor="middle" x="228" y="-193.82" font-family="Helvetica,sans-Serif" font-size="10.00">y</text>
</g>
<!-- Node14 -->
<g id="node14" class="node">
<title>Node14</title>
<g id="a_node14"><a xlink:title=" ">
<polygon fill="none" stroke="#bfbfbf" points="314.5,-182.32 314.5,-201.32 364.5,-201.32 364.5,-182.32 314.5,-182.32"/>
<text text-anchor="middle" x="339.5" y="-189.32" font-family="Helvetica,sans-Serif" font-size="10.00">int32_t</text>
</a>
</g>
</g>
<!-- Node14&#45;&gt;Node1 -->
<g id="edge23" class="edge">
<title>Node14&#45;&gt;Node1</title>
<path fill="none" stroke="#9a32cd" stroke-dasharray="5,2" d="M374.46,-182.02C417.54,-171.88 491.46,-162.46 535,-201.82 581.29,-243.66 583.23,-457.4 583.07,-505.29"/>
<polygon fill="#9a32cd" stroke="#9a32cd" points="373.58,-178.63 364.72,-184.45 375.27,-185.43 373.58,-178.63"/>
<text text-anchor="middle" x="476" y="-204.82" font-family="Helvetica,sans-Serif" font-size="10.00"> graphics_colour</text>
</g>
<!-- Node15&#45;&gt;Node1 -->
<g id="edge25" class="edge">
<title>Node15&#45;&gt;Node1</title>
<path fill="none" stroke="#9a32cd" stroke-dasharray="5,2" d="M393.95,-1062.07C439.02,-1056.68 501.37,-1041.4 535,-998.82 565.55,-960.13 580.3,-589.36 582.66,-524.48"/>
<polygon fill="#9a32cd" stroke="#9a32cd" points="393.33,-1058.61 383.76,-1063.15 394.08,-1065.57 393.33,-1058.61"/>
<text text-anchor="middle" x="476" y="-1070.82" font-family="Helvetica,sans-Serif" font-size="10.00"> double_variables</text>
<text text-anchor="middle" x="476" y="-1059.82" font-family="Helvetica,sans-Serif" font-size="10.00">local_double_variables</text>
</g>
<!-- Node15&#45;&gt;Node15 -->
<g id="edge28" class="edge">
<title>Node15&#45;&gt;Node15</title>
<path fill="none" stroke="#9a32cd" stroke-dasharray="5,2" d="M319.13,-1084.22C320.49,-1089.13 327.28,-1092.82 339.5,-1092.82 359.05,-1092.82 364.7,-1083.38 356.45,-1074.58"/>
<polygon fill="#9a32cd" stroke="#9a32cd" points="322.51,-1085.17 322.55,-1074.58 315.91,-1082.83 322.51,-1085.17"/>
<text text-anchor="middle" x="339.5" y="-1095.82" font-family="Helvetica,sans-Serif" font-size="10.00"> next</text>
</g>
<!-- Node16 -->
<g id="node16" class="node">
<title>Node16</title>
<g id="a_node16"><a xlink:title=" ">
<polygon fill="none" stroke="#bfbfbf" points="289,-144.32 289,-163.32 390,-163.32 390,-144.32 289,-144.32"/>
<text text-anchor="middle" x="339.5" y="-151.32" font-family="Helvetica,sans-Serif" font-size="10.00">struct hashmap *</text>
</a>
</g>
</g>
<!-- Node16&#45;&gt;Node1 -->
<g id="edge30" class="edge">
<title>Node16&#45;&gt;Node1</title>
<path fill="none" stroke="#9a32cd" stroke-dasharray="5,2" d="M378.62,-141.52C422.11,-130.12 492.67,-120.02 535,-157.82 588.3,-205.4 584.69,-452.46 583.3,-504.99"/>
<polygon fill="#9a32cd" stroke="#9a32cd" points="377.42,-138.22 368.71,-144.26 379.28,-144.97 377.42,-138.22"/>
<text text-anchor="middle" x="476" y="-160.82" font-family="Helvetica,sans-Serif" font-size="10.00"> lines</text>
</g>
<!-- Node17 -->
<g id="node17" class="node">
<title>Node17</title>
<g id="a_node17"><a xlink:title=" ">
<polygon fill="none" stroke="#bfbfbf" points="126,-84.32 126,-103.32 155,-103.32 155,-84.32 126,-84.32"/>
<text text-anchor="middle" x="140.5" y="-91.32" font-family="Helvetica,sans-Serif" font-size="10.00">int</text>
</a>
</g>
</g>
<!-- Node17&#45;&gt;Node1 -->
<g id="edge31" class="edge">
<title>Node17&#45;&gt;Node1</title>
<path fill="none" stroke="#9a32cd" stroke-dasharray="5,2" d="M165.55,-94.09C246.97,-95.24 508.57,-100.93 535,-126.82 563,-154.25 579.55,-448.09 582.52,-505.22"/>
<polygon fill="#9a32cd" stroke="#9a32cd" points="165.35,-90.59 155.31,-93.95 165.26,-97.58 165.35,-90.59"/>
<text text-anchor="middle" x="339.5" y="-115.82" font-family="Helvetica,sans-Serif" font-size="10.00"> bracket_depth</text>
<text text-anchor="middle" x="339.5" y="-104.82" font-family="Helvetica,sans-Serif" font-size="10.00">current_token</text>
</g>
<!-- Node25 -->
<g id="node25" class="node">
<title>Node25</title>
<g id="a_node25"><a xlink:href="structcpuid__result__t.html" target="_top" xlink:title="CPUID instruction result.">
<polygon fill="none" stroke="black" points="297,-48.32 297,-67.32 382,-67.32 382,-48.32 297,-48.32"/>
<text text-anchor="middle" x="339.5" y="-55.32" font-family="Helvetica,sans-Serif" font-size="10.00">cpuid_result_t</text>
</a>
</g>
</g>
<!-- Node17&#45;&gt;Node25 -->
<g id="edge55" class="edge">
<title>Node17&#45;&gt;Node25</title>
<path fill="none" stroke="#9a32cd" stroke-dasharray="5,2" d="M154.75,-76.33C164.29,-65.27 178.22,-51.94 194,-45.82 232.13,-31.01 280.08,-39.84 310.01,-48.26"/>
<polygon fill="#9a32cd" stroke="#9a32cd" points="151.95,-74.22 148.35,-84.19 157.38,-78.64 151.95,-74.22"/>
<text text-anchor="middle" x="228" y="-81.82" font-family="Helvetica,sans-Serif" font-size="10.00"> eax</text>
<text text-anchor="middle" x="228" y="-70.82" font-family="Helvetica,sans-Serif" font-size="10.00">ebx</text>
<text text-anchor="middle" x="228" y="-59.82" font-family="Helvetica,sans-Serif" font-size="10.00">ecx</text>
<text text-anchor="middle" x="228" y="-48.82" font-family="Helvetica,sans-Serif" font-size="10.00">edx</text>
</g>
<!-- Node18&#45;&gt;Node1 -->
<g id="edge32" class="edge">
<title>Node18&#45;&gt;Node1</title>
<path fill="none" stroke="#9a32cd" stroke-dasharray="5,2" d="M398.6,-622.22C439.35,-614.13 493.71,-599.03 535,-571.82 554.01,-559.29 569.57,-537.05 577.44,-524.37"/>
<polygon fill="#9a32cd" stroke="#9a32cd" points="397.72,-618.83 388.55,-624.13 399.02,-625.7 397.72,-618.83"/>
<text text-anchor="middle" x="476" y="-619.82" font-family="Helvetica,sans-Serif" font-size="10.00"> int_array_variables</text>
</g>
<!-- Node18&#45;&gt;Node18 -->
<g id="edge36" class="edge">
<title>Node18&#45;&gt;Node18</title>
<path fill="none" stroke="#9a32cd" stroke-dasharray="5,2" d="M319.13,-650.22C320.49,-655.13 327.28,-658.82 339.5,-658.82 359.05,-658.82 364.7,-649.38 356.45,-640.58"/>
<polygon fill="#9a32cd" stroke="#9a32cd" points="322.51,-651.17 322.55,-640.58 315.91,-648.83 322.51,-651.17"/>
<text text-anchor="middle" x="339.5" y="-661.82" font-family="Helvetica,sans-Serif" font-size="10.00"> next</text>
</g>
<!-- Node19&#45;&gt;Node1 -->
<g id="edge38" class="edge">
<title>Node19&#45;&gt;Node1</title>
<path fill="none" stroke="#9a32cd" stroke-dasharray="5,2" d="M394.8,-703.62C437.82,-692.2 496.86,-670.5 535,-631.82 565.99,-600.4 577.9,-546.19 581.6,-524.35"/>
<polygon fill="#9a32cd" stroke="#9a32cd" points="393.87,-700.24 385.05,-706.1 395.6,-707.02 393.87,-700.24"/>
<text text-anchor="middle" x="476" y="-699.82" font-family="Helvetica,sans-Serif" font-size="10.00"> defs</text>
</g>
<!-- Node19&#45;&gt;Node19 -->
<g id="edge42" class="edge">
<title>Node19&#45;&gt;Node19</title>
<path fill="none" stroke="#9a32cd" stroke-dasharray="5,2" d="M319.13,-734.22C320.49,-739.13 327.28,-742.82 339.5,-742.82 359.05,-742.82 364.7,-733.38 356.45,-724.58"/>
<polygon fill="#9a32cd" stroke="#9a32cd" points="322.51,-735.17 322.55,-724.58 315.91,-732.83 322.51,-735.17"/>
<text text-anchor="middle" x="339.5" y="-745.82" font-family="Helvetica,sans-Serif" font-size="10.00"> next</text>
</g>
<!-- Node20 -->
<g id="node20" class="node">
<title>Node20</title>
<g id="a_node20"><a xlink:title=" ">
<polygon fill="none" stroke="#bfbfbf" points="105,-705.32 105,-724.32 176,-724.32 176,-705.32 105,-705.32"/>
<text text-anchor="middle" x="140.5" y="-712.32" font-family="Helvetica,sans-Serif" font-size="10.00">ub_fn_type</text>
</a>
</g>
</g>
<!-- Node20&#45;&gt;Node19 -->
<g id="edge39" class="edge">
<title>Node20&#45;&gt;Node19</title>
<path fill="none" stroke="#9a32cd" stroke-dasharray="5,2" d="M186.29,-714.82C218.43,-714.82 261.56,-714.82 293.7,-714.82"/>
<polygon fill="#9a32cd" stroke="#9a32cd" points="186.27,-711.32 176.27,-714.82 186.27,-718.32 186.27,-711.32"/>
<text text-anchor="middle" x="228" y="-717.82" font-family="Helvetica,sans-Serif" font-size="10.00"> type</text>
</g>
<!-- Node21&#45;&gt;Node1 -->
<g id="edge56" class="edge">
<title>Node21&#45;&gt;Node1</title>
<path fill="none" stroke="#9a32cd" stroke-dasharray="5,2" d="M183.28,-797.5C206.53,-795.93 235.95,-793.45 262,-789.82 386.98,-772.37 451.27,-806.23 535,-711.82 584.98,-655.46 584.94,-555.66 583.58,-524.43"/>
<polygon fill="#9a32cd" stroke="#9a32cd" points="182.82,-794.03 173.07,-798.17 183.27,-801.01 182.82,-794.03"/>
<text text-anchor="middle" x="339.5" y="-789.82" font-family="Helvetica,sans-Serif" font-size="10.00"> param</text>
</g>
<!-- Node21&#45;&gt;Node19 -->
<g id="edge43" class="edge">
<title>Node21&#45;&gt;Node19</title>
<path fill="none" stroke="#9a32cd" stroke-dasharray="5,2" d="M174.01,-786.5C180.6,-783.88 187.5,-781.21 194,-778.82 223.93,-767.78 232.73,-768.51 262,-755.82 283.57,-746.47 307.26,-733.29 322.47,-724.42"/>
<polygon fill="#9a32cd" stroke="#9a32cd" points="172.64,-783.27 164.66,-790.24 175.24,-789.77 172.64,-783.27"/>
<text text-anchor="middle" x="228" y="-781.82" font-family="Helvetica,sans-Serif" font-size="10.00"> params</text>
</g>
<!-- Node21&#45;&gt;Node21 -->
<g id="edge45" class="edge">
<title>Node21&#45;&gt;Node21</title>
<path fill="none" stroke="#9a32cd" stroke-dasharray="5,2" d="M127.98,-819.58C128.96,-824.31 133.14,-827.82 140.5,-827.82 152.59,-827.82 156.08,-818.38 150.98,-809.58"/>
<polygon fill="#9a32cd" stroke="#9a32cd" points="131.45,-820.07 130.02,-809.58 124.59,-818.67 131.45,-820.07"/>
<text text-anchor="middle" x="140.5" y="-830.82" font-family="Helvetica,sans-Serif" font-size="10.00"> next</text>
</g>
<!-- Node22&#45;&gt;Node1 -->
<g id="edge46" class="edge">
<title>Node22&#45;&gt;Node1</title>
<path fill="none" stroke="#9a32cd" stroke-dasharray="5,2" d="M391.32,-311.43C434.77,-311.38 496.25,-318.47 535,-353.82 580.25,-395.09 583.56,-476.99 583.29,-505.09"/>
<polygon fill="#9a32cd" stroke="#9a32cd" points="391.19,-307.93 381.24,-311.57 391.29,-314.93 391.19,-307.93"/>
<text text-anchor="middle" x="476" y="-367.82" font-family="Helvetica,sans-Serif" font-size="10.00"> local_string_variables</text>
<text text-anchor="middle" x="476" y="-356.82" font-family="Helvetica,sans-Serif" font-size="10.00">str_variables</text>
</g>
<!-- Node22&#45;&gt;Node22 -->
<g id="edge49" class="edge">
<title>Node22&#45;&gt;Node22</title>
<path fill="none" stroke="#9a32cd" stroke-dasharray="5,2" d="M319.13,-334.22C320.49,-339.13 327.28,-342.82 339.5,-342.82 359.05,-342.82 364.7,-333.38 356.45,-324.58"/>
<polygon fill="#9a32cd" stroke="#9a32cd" points="322.51,-335.17 322.55,-324.58 315.91,-332.83 322.51,-335.17"/>
<text text-anchor="middle" x="339.5" y="-345.82" font-family="Helvetica,sans-Serif" font-size="10.00"> next</text>
</g>
<!-- Node23 -->
<g id="node23" class="node">
<title>Node23</title>
<g id="a_node23"><a xlink:title=" ">
<polygon fill="none" stroke="#bfbfbf" points="316.5,-10.32 316.5,-29.32 362.5,-29.32 362.5,-10.32 316.5,-10.32"/>
<text text-anchor="middle" x="339.5" y="-17.32" font-family="Helvetica,sans-Serif" font-size="10.00">void *</text>
</a>
</g>
</g>
<!-- Node23&#45;&gt;Node1 -->
<g id="edge50" class="edge">
<title>Node23&#45;&gt;Node1</title>
<path fill="none" stroke="#9a32cd" stroke-dasharray="5,2" d="M372.39,-10.25C415.44,0.48 491.74,11.45 535,-29.82 570.74,-63.91 581.22,-439.3 582.78,-505.03"/>
<polygon fill="#9a32cd" stroke="#9a32cd" points="371.49,-6.87 362.71,-12.8 373.27,-13.64 371.49,-6.87"/>
<text text-anchor="middle" x="476" y="-32.82" font-family="Helvetica,sans-Serif" font-size="10.00"> fn_return</text>
</g>
<!-- Node24&#45;&gt;Node1 -->
<g id="edge51" class="edge">
<title>Node24&#45;&gt;Node1</title>
<path fill="none" stroke="#9a32cd" stroke-dasharray="5,2" d="M379.58,-566.94C418.96,-557.86 481.38,-543.11 535,-528.82 540.79,-527.28 546.94,-525.55 552.85,-523.85"/>
<polygon fill="#9a32cd" stroke="#9a32cd" points="378.57,-563.58 369.61,-569.23 380.13,-570.4 378.57,-563.58"/>
<text text-anchor="middle" x="476" y="-559.82" font-family="Helvetica,sans-Serif" font-size="10.00"> for_stack</text>
</g>
<!-- Node25&#45;&gt;Node1 -->
<g id="edge54" class="edge">
<title>Node25&#45;&gt;Node1</title>
<path fill="none" stroke="#9a32cd" stroke-dasharray="5,2" d="M392.09,-47.41C436.24,-41.78 498.31,-42.21 535,-78.82 566.33,-110.08 580.34,-444.19 582.65,-505.26"/>
<polygon fill="#9a32cd" stroke="#9a32cd" points="391.53,-43.96 382.12,-48.82 392.52,-50.89 391.53,-43.96"/>
<text text-anchor="middle" x="476" y="-81.82" font-family="Helvetica,sans-Serif" font-size="10.00"> last_cpuid_result</text>
</g>
</g>
</svg>
