<?xml version="1.0" encoding="UTF-8" standalone="no"?>
<!DOCTYPE svg PUBLIC "-//W3C//DTD SVG 1.1//EN"
 "http://www.w3.org/Graphics/SVG/1.1/DTD/svg11.dtd">
<!-- Generated by graphviz version 2.43.0 (0)
 -->
<!-- Title: e1000_tx_desc Pages: 1 -->
<svg width="206pt" height="128pt"
 viewBox="0.00 0.00 206.00 128.00" xmlns="http://www.w3.org/2000/svg" xmlns:xlink="http://www.w3.org/1999/xlink">
<g id="graph0" class="graph" transform="scale(1 1) rotate(0) translate(4 124)">
<title>e1000_tx_desc</title>
<!-- Node1 -->
<g id="node1" class="node">
<title>Node1</title>
<g id="a_node1"><a xlink:title=" ">
<polygon fill="#bfbfbf" stroke="black" points="57.5,-0.5 57.5,-19.5 146.5,-19.5 146.5,-0.5 57.5,-0.5"/>
<text text-anchor="middle" x="102" y="-7.5" font-family="Helvetica,sans-Serif" font-size="10.00">e1000_tx_desc</text>
</a>
</g>
</g>
<!-- Node2 -->
<g id="node2" class="node">
<title>Node2</title>
<g id="a_node2"><a xlink:title=" ">
<polygon fill="none" stroke="#bfbfbf" points="0,-100.5 0,-119.5 56,-119.5 56,-100.5 0,-100.5"/>
<text text-anchor="middle" x="28" y="-107.5" font-family="Helvetica,sans-Serif" font-size="10.00">uint64_t</text>
</a>
</g>
</g>
<!-- Node2&#45;&gt;Node1 -->
<g id="edge1" class="edge">
<title>Node2&#45;&gt;Node1</title>
<path fill="none" stroke="#9a32cd" stroke-dasharray="5,2" d="M37.65,-91.08C46.06,-76.18 59.06,-54.78 73,-38 78.54,-31.33 85.65,-24.69 91.44,-19.66"/>
<polygon fill="#9a32cd" stroke="#9a32cd" points="34.37,-89.77 32.61,-100.21 40.5,-93.15 34.37,-89.77"/>
<text text-anchor="middle" x="85.5" y="-57.5" font-family="Helvetica,sans-Serif" font-size="10.00"> addr</text>
</g>
<!-- Node3 -->
<g id="node3" class="node">
<title>Node3</title>
<g id="a_node3"><a xlink:title=" ">
<polygon fill="none" stroke="#bfbfbf" points="74,-100.5 74,-119.5 130,-119.5 130,-100.5 74,-100.5"/>
<text text-anchor="middle" x="102" y="-107.5" font-family="Helvetica,sans-Serif" font-size="10.00">uint16_t</text>
</a>
</g>
</g>
<!-- Node3&#45;&gt;Node1 -->
<g id="edge2" class="edge">
<title>Node3&#45;&gt;Node1</title>
<path fill="none" stroke="#9a32cd" stroke-dasharray="5,2" d="M102,-90.22C102,-68.95 102,-35.22 102,-19.54"/>
<polygon fill="#9a32cd" stroke="#9a32cd" points="98.5,-90.3 102,-100.3 105.5,-90.3 98.5,-90.3"/>
<text text-anchor="middle" x="119.5" y="-63" font-family="Helvetica,sans-Serif" font-size="10.00"> length</text>
<text text-anchor="middle" x="119.5" y="-52" font-family="Helvetica,sans-Serif" font-size="10.00">special</text>
</g>
<!-- Node4 -->
<g id="node4" class="node">
<title>Node4</title>
<g id="a_node4"><a xlink:title=" ">
<polygon fill="none" stroke="#bfbfbf" points="148,-100.5 148,-119.5 198,-119.5 198,-100.5 148,-100.5"/>
<text text-anchor="middle" x="173" y="-107.5" font-family="Helvetica,sans-Serif" font-size="10.00">uint8_t</text>
</a>
</g>
</g>
<!-- Node4&#45;&gt;Node1 -->
<g id="edge3" class="edge">
<title>Node4&#45;&gt;Node1</title>
<path fill="none" stroke="#9a32cd" stroke-dasharray="5,2" d="M167.73,-90.48C162.69,-75.19 153.95,-53.55 141,-38 134.78,-30.53 126.01,-24.21 118.36,-19.57"/>
<polygon fill="#9a32cd" stroke="#9a32cd" points="164.46,-91.78 170.74,-100.31 171.16,-89.73 164.46,-91.78"/>
<text text-anchor="middle" x="179.5" y="-74" font-family="Helvetica,sans-Serif" font-size="10.00"> cmd</text>
<text text-anchor="middle" x="179.5" y="-63" font-family="Helvetica,sans-Serif" font-size="10.00">cso</text>
<text text-anchor="middle" x="179.5" y="-52" font-family="Helvetica,sans-Serif" font-size="10.00">css</text>
<text text-anchor="middle" x="179.5" y="-41" font-family="Helvetica,sans-Serif" font-size="10.00">status</text>
</g>
</g>
</svg>
