<?xml version="1.0" encoding="UTF-8" standalone="no"?>
<!DOCTYPE svg PUBLIC "-//W3C//DTD SVG 1.1//EN"
 "http://www.w3.org/Graphics/SVG/1.1/DTD/svg11.dtd">
<!-- Generated by graphviz version 2.43.0 (0)
 -->
<!-- Title: elf_ehdr Pages: 1 -->
<svg width="306pt" height="172pt"
 viewBox="0.00 0.00 306.00 172.00" xmlns="http://www.w3.org/2000/svg" xmlns:xlink="http://www.w3.org/1999/xlink">
<g id="graph0" class="graph" transform="scale(1 1) rotate(0) translate(4 168)">
<title>elf_ehdr</title>
<!-- Node1 -->
<g id="node1" class="node">
<title>Node1</title>
<g id="a_node1"><a xlink:title="ELF file header (ELF64)">
<polygon fill="#bfbfbf" stroke="black" points="115,-0.5 115,-19.5 171,-19.5 171,-0.5 115,-0.5"/>
<text text-anchor="middle" x="143" y="-7.5" font-family="Helvetica,sans-Serif" font-size="10.00">elf_ehdr</text>
</a>
</g>
</g>
<!-- Node2 -->
<g id="node2" class="node">
<title>Node2</title>
<g id="a_node2"><a xlink:title=" ">
<polygon fill="none" stroke="#bfbfbf" points="0,-144.5 0,-163.5 56,-163.5 56,-144.5 0,-144.5"/>
<text text-anchor="middle" x="28" y="-151.5" font-family="Helvetica,sans-Serif" font-size="10.00">uint64_t</text>
</a>
</g>
</g>
<!-- Node2&#45;&gt;Node1 -->
<g id="edge1" class="edge">
<title>Node2&#45;&gt;Node1</title>
<path fill="none" stroke="#9a32cd" stroke-dasharray="5,2" d="M25.45,-134.12C23.17,-108.96 23.24,-64.54 47,-38 63.98,-19.04 93.11,-12.95 114.84,-11.2"/>
<polygon fill="#9a32cd" stroke="#9a32cd" points="21.99,-134.64 26.58,-144.19 28.94,-133.86 21.99,-134.64"/>
<text text-anchor="middle" x="67" y="-90.5" font-family="Helvetica,sans-Serif" font-size="10.00"> e_entry</text>
<text text-anchor="middle" x="67" y="-79.5" font-family="Helvetica,sans-Serif" font-size="10.00">e_phoff</text>
<text text-anchor="middle" x="67" y="-68.5" font-family="Helvetica,sans-Serif" font-size="10.00">e_shoff</text>
</g>
<!-- Node3 -->
<g id="node3" class="node">
<title>Node3</title>
<g id="a_node3"><a xlink:title=" ">
<polygon fill="none" stroke="#bfbfbf" points="74,-144.5 74,-163.5 130,-163.5 130,-144.5 74,-144.5"/>
<text text-anchor="middle" x="102" y="-151.5" font-family="Helvetica,sans-Serif" font-size="10.00">uint16_t</text>
</a>
</g>
</g>
<!-- Node3&#45;&gt;Node1 -->
<g id="edge2" class="edge">
<title>Node3&#45;&gt;Node1</title>
<path fill="none" stroke="#9a32cd" stroke-dasharray="5,2" d="M97.14,-134.38C91.98,-110.5 86.61,-68.52 103,-38 107.28,-30.03 115.07,-23.98 122.64,-19.65"/>
<polygon fill="#9a32cd" stroke="#9a32cd" points="93.77,-135.33 99.49,-144.25 100.58,-133.71 93.77,-135.33"/>
<text text-anchor="middle" x="132.5" y="-118" font-family="Helvetica,sans-Serif" font-size="10.00"> e_ehsize</text>
<text text-anchor="middle" x="132.5" y="-107" font-family="Helvetica,sans-Serif" font-size="10.00">e_machine</text>
<text text-anchor="middle" x="132.5" y="-96" font-family="Helvetica,sans-Serif" font-size="10.00">e_phentsize</text>
<text text-anchor="middle" x="132.5" y="-85" font-family="Helvetica,sans-Serif" font-size="10.00">e_phnum</text>
<text text-anchor="middle" x="132.5" y="-74" font-family="Helvetica,sans-Serif" font-size="10.00">e_shentsize</text>
<text text-anchor="middle" x="132.5" y="-63" font-family="Helvetica,sans-Serif" font-size="10.00">e_shnum</text>
<text text-anchor="middle" x="132.5" y="-52" font-family="Helvetica,sans-Serif" font-size="10.00">e_shstrndx</text>
<text text-anchor="middle" x="132.5" y="-41" font-family="Helvetica,sans-Serif" font-size="10.00">e_type</text>
</g>
<!-- Node4 -->
<g id="node4" class="node">
<title>Node4</title>
<g id="a_node4"><a xlink:title=" ">
<polygon fill="none" stroke="#bfbfbf" points="165,-144.5 165,-163.5 203,-163.5 203,-144.5 165,-144.5"/>
<text text-anchor="middle" x="184" y="-151.5" font-family="Helvetica,sans-Serif" font-size="10.00">char</text>
</a>
</g>
</g>
<!-- Node4&#45;&gt;Node1 -->
<g id="edge3" class="edge">
<title>Node4&#45;&gt;Node1</title>
<path fill="none" stroke="#9a32cd" stroke-dasharray="5,2" d="M182.83,-134.01C180.83,-110.61 175.58,-70.02 162,-38 159.22,-31.46 154.68,-24.92 150.73,-19.91"/>
<polygon fill="#9a32cd" stroke="#9a32cd" points="179.36,-134.56 183.58,-144.27 186.34,-134.04 179.36,-134.56"/>
<text text-anchor="middle" x="201" y="-79.5" font-family="Helvetica,sans-Serif" font-size="10.00"> e_ident</text>
</g>
<!-- Node5 -->
<g id="node5" class="node">
<title>Node5</title>
<g id="a_node5"><a xlink:title=" ">
<polygon fill="none" stroke="#bfbfbf" points="221,-144.5 221,-163.5 277,-163.5 277,-144.5 221,-144.5"/>
<text text-anchor="middle" x="249" y="-151.5" font-family="Helvetica,sans-Serif" font-size="10.00">uint32_t</text>
</a>
</g>
</g>
<!-- Node5&#45;&gt;Node1 -->
<g id="edge4" class="edge">
<title>Node5&#45;&gt;Node1</title>
<path fill="none" stroke="#9a32cd" stroke-dasharray="5,2" d="M250.44,-134.19C251.29,-109.1 248.92,-64.77 225,-38 211.42,-22.8 189.12,-16.13 171.21,-13.22"/>
<polygon fill="#9a32cd" stroke="#9a32cd" points="246.94,-134.05 249.89,-144.22 253.93,-134.43 246.94,-134.05"/>
<text text-anchor="middle" x="274" y="-85" font-family="Helvetica,sans-Serif" font-size="10.00"> e_flags</text>
<text text-anchor="middle" x="274" y="-74" font-family="Helvetica,sans-Serif" font-size="10.00">e_version</text>
</g>
</g>
</svg>
