<?xml version="1.0" encoding="UTF-8" standalone="no"?>
<!DOCTYPE svg PUBLIC "-//W3C//DTD SVG 1.1//EN"
 "http://www.w3.org/Graphics/SVG/1.1/DTD/svg11.dtd">
<!-- Generated by graphviz version 2.43.0 (0)
 -->
<!-- Title: ahci_fis_pio_setup_t Pages: 1 -->
<svg width="190pt" height="205pt"
 viewBox="0.00 0.00 190.00 205.00" xmlns="http://www.w3.org/2000/svg" xmlns:xlink="http://www.w3.org/1999/xlink">
<g id="graph0" class="graph" transform="scale(1 1) rotate(0) translate(4 201)">
<title>ahci_fis_pio_setup_t</title>
<!-- Node1 -->
<g id="node1" class="node">
<title>Node1</title>
<g id="a_node1"><a xlink:title="PIO Setup FIS (device to host).">
<polygon fill="#bfbfbf" stroke="black" points="18.5,-0.5 18.5,-19.5 133.5,-19.5 133.5,-0.5 18.5,-0.5"/>
<text text-anchor="middle" x="76" y="-7.5" font-family="Helvetica,sans-Serif" font-size="10.00">ahci_fis_pio_setup_t</text>
</a>
</g>
</g>
<!-- Node2 -->
<g id="node2" class="node">
<title>Node2</title>
<g id="a_node2"><a xlink:title=" ">
<polygon fill="none" stroke="#bfbfbf" points="0,-177.5 0,-196.5 56,-196.5 56,-177.5 0,-177.5"/>
<text text-anchor="middle" x="28" y="-184.5" font-family="Helvetica,sans-Serif" font-size="10.00">uint16_t</text>
</a>
</g>
</g>
<!-- Node2&#45;&gt;Node1 -->
<g id="edge1" class="edge">
<title>Node2&#45;&gt;Node1</title>
<path fill="none" stroke="#9a32cd" stroke-dasharray="5,2" d="M22.59,-167.37C15.13,-137.71 5.12,-78.94 29,-38 33.84,-29.71 42.28,-23.74 50.69,-19.56"/>
<polygon fill="#9a32cd" stroke="#9a32cd" points="19.27,-168.47 25.25,-177.21 26.02,-166.64 19.27,-168.47"/>
<text text-anchor="middle" x="66" y="-96" font-family="Helvetica,sans-Serif" font-size="10.00"> transfer_count</text>
</g>
<!-- Node3 -->
<g id="node3" class="node">
<title>Node3</title>
<g id="a_node3"><a xlink:title=" ">
<polygon fill="none" stroke="#bfbfbf" points="100,-177.5 100,-196.5 150,-196.5 150,-177.5 100,-177.5"/>
<text text-anchor="middle" x="125" y="-184.5" font-family="Helvetica,sans-Serif" font-size="10.00">uint8_t</text>
</a>
</g>
</g>
<!-- Node3&#45;&gt;Node1 -->
<g id="edge2" class="edge">
<title>Node3&#45;&gt;Node1</title>
<path fill="none" stroke="#9a32cd" stroke-dasharray="5,2" d="M125.86,-167.42C126.45,-138.23 124.45,-80.6 103,-38 99.36,-30.78 93.06,-24.31 87.46,-19.51"/>
<polygon fill="#9a32cd" stroke="#9a32cd" points="122.36,-167.32 125.53,-177.43 129.36,-167.55 122.36,-167.32"/>
<text text-anchor="middle" x="153.5" y="-151" font-family="Helvetica,sans-Serif" font-size="10.00"> count_high</text>
<text text-anchor="middle" x="153.5" y="-140" font-family="Helvetica,sans-Serif" font-size="10.00">count_low</text>
<text text-anchor="middle" x="153.5" y="-129" font-family="Helvetica,sans-Serif" font-size="10.00">device</text>
<text text-anchor="middle" x="153.5" y="-118" font-family="Helvetica,sans-Serif" font-size="10.00">direction</text>
<text text-anchor="middle" x="153.5" y="-107" font-family="Helvetica,sans-Serif" font-size="10.00">e_status</text>
<text text-anchor="middle" x="153.5" y="-96" font-family="Helvetica,sans-Serif" font-size="10.00">error</text>
<text text-anchor="middle" x="153.5" y="-85" font-family="Helvetica,sans-Serif" font-size="10.00">fis_type</text>
<text text-anchor="middle" x="153.5" y="-74" font-family="Helvetica,sans-Serif" font-size="10.00">interrupt</text>
<text text-anchor="middle" x="153.5" y="-63" font-family="Helvetica,sans-Serif" font-size="10.00">lba0</text>
<text text-anchor="middle" x="153.5" y="-52" font-family="Helvetica,sans-Serif" font-size="10.00">lba1</text>
<text text-anchor="middle" x="153.5" y="-41" font-family="Helvetica,sans-Serif" font-size="10.00">...</text>
</g>
</g>
</svg>
