<?xml version="1.0" encoding="UTF-8" standalone="no"?>
<!DOCTYPE svg PUBLIC "-//W3C//DTD SVG 1.1//EN"
 "http://www.w3.org/Graphics/SVG/1.1/DTD/svg11.dtd">
<!-- Generated by graphviz version 2.43.0 (0)
 -->
<!-- Title: __attribute__ Pages: 1 -->
<svg width="872pt" height="249pt"
 viewBox="0.00 0.00 872.00 249.00" xmlns="http://www.w3.org/2000/svg" xmlns:xlink="http://www.w3.org/1999/xlink">
<g id="graph0" class="graph" transform="scale(1 1) rotate(0) translate(4 245)">
<title>__attribute__</title>
<!-- Node1 -->
<g id="node1" class="node">
<title>Node1</title>
<g id="a_node1"><a xlink:title=" ">
<polygon fill="#bfbfbf" stroke="black" points="362,-0.5 362,-19.5 442,-19.5 442,-0.5 362,-0.5"/>
<text text-anchor="middle" x="402" y="-7.5" font-family="Helvetica,sans-Serif" font-size="10.00">__attribute__</text>
</a>
</g>
</g>
<!-- Node2 -->
<g id="node2" class="node">
<title>Node2</title>
<g id="a_node2"><a xlink:title=" ">
<polygon fill="none" stroke="#bfbfbf" points="0,-221.5 0,-240.5 56,-240.5 56,-221.5 0,-221.5"/>
<text text-anchor="middle" x="28" y="-228.5" font-family="Helvetica,sans-Serif" font-size="10.00">uint16_t</text>
</a>
</g>
</g>
<!-- Node2&#45;&gt;Node1 -->
<g id="edge1" class="edge">
<title>Node2&#45;&gt;Node1</title>
<path fill="none" stroke="#9a32cd" stroke-dasharray="5,2" d="M20.51,-211.53C6.46,-173.49 -18.65,-85.97 26,-38 48.52,-13.81 269.6,-10.98 361.87,-10.87"/>
<polygon fill="#9a32cd" stroke="#9a32cd" points="17.41,-213.2 24.28,-221.26 23.93,-210.67 17.41,-213.2"/>
<text text-anchor="middle" x="84" y="-162" font-family="Helvetica,sans-Serif" font-size="10.00"> interleave_unit_size</text>
<text text-anchor="middle" x="84" y="-151" font-family="Helvetica,sans-Serif" font-size="10.00">lsb_blocksize</text>
<text text-anchor="middle" x="84" y="-140" font-family="Helvetica,sans-Serif" font-size="10.00">lsb_volumeseqno</text>
<text text-anchor="middle" x="84" y="-129" font-family="Helvetica,sans-Serif" font-size="10.00">lsb_volumesetsize</text>
<text text-anchor="middle" x="84" y="-118" font-family="Helvetica,sans-Serif" font-size="10.00">msb_blocksize</text>
<text text-anchor="middle" x="84" y="-107" font-family="Helvetica,sans-Serif" font-size="10.00">msb_volumeseqno</text>
<text text-anchor="middle" x="84" y="-96" font-family="Helvetica,sans-Serif" font-size="10.00">msb_volumesetsize</text>
<text text-anchor="middle" x="84" y="-85" font-family="Helvetica,sans-Serif" font-size="10.00">sequence_number_lsb</text>
<text text-anchor="middle" x="84" y="-74" font-family="Helvetica,sans-Serif" font-size="10.00">sequence_number_msb</text>
</g>
<!-- Node3 -->
<g id="node3" class="node">
<title>Node3</title>
<g id="a_node3"><a xlink:title=" ">
<polygon fill="none" stroke="#bfbfbf" points="148,-221.5 148,-240.5 186,-240.5 186,-221.5 148,-221.5"/>
<text text-anchor="middle" x="167" y="-228.5" font-family="Helvetica,sans-Serif" font-size="10.00">char</text>
</a>
</g>
</g>
<!-- Node3&#45;&gt;Node1 -->
<g id="edge2" class="edge">
<title>Node3&#45;&gt;Node1</title>
<path fill="none" stroke="#9a32cd" stroke-dasharray="5,2" d="M160.66,-211.59C148.89,-173.65 128.68,-86.31 173,-38 185.52,-24.36 299.53,-16.33 361.82,-12.93"/>
<polygon fill="#9a32cd" stroke="#9a32cd" points="157.4,-212.87 163.83,-221.29 164.05,-210.7 157.4,-212.87"/>
<text text-anchor="middle" x="215" y="-173" font-family="Helvetica,sans-Serif" font-size="10.00"> abstract_file</text>
<text text-anchor="middle" x="215" y="-162" font-family="Helvetica,sans-Serif" font-size="10.00">application_id</text>
<text text-anchor="middle" x="215" y="-151" font-family="Helvetica,sans-Serif" font-size="10.00">bibliographic_file</text>
<text text-anchor="middle" x="215" y="-140" font-family="Helvetica,sans-Serif" font-size="10.00">copyright_file</text>
<text text-anchor="middle" x="215" y="-129" font-family="Helvetica,sans-Serif" font-size="10.00">data_preparer</text>
<text text-anchor="middle" x="215" y="-118" font-family="Helvetica,sans-Serif" font-size="10.00">day</text>
<text text-anchor="middle" x="215" y="-107" font-family="Helvetica,sans-Serif" font-size="10.00">escape_seq</text>
<text text-anchor="middle" x="215" y="-96" font-family="Helvetica,sans-Serif" font-size="10.00">filename</text>
<text text-anchor="middle" x="215" y="-85" font-family="Helvetica,sans-Serif" font-size="10.00">hour</text>
<text text-anchor="middle" x="215" y="-74" font-family="Helvetica,sans-Serif" font-size="10.00">millisecond</text>
<text text-anchor="middle" x="215" y="-63" font-family="Helvetica,sans-Serif" font-size="10.00">...</text>
</g>
<!-- Node4 -->
<g id="node4" class="node">
<title>Node4</title>
<g id="a_node4"><a xlink:title=" ">
<polygon fill="none" stroke="#bfbfbf" points="246,-221.5 246,-240.5 302,-240.5 302,-221.5 246,-221.5"/>
<text text-anchor="middle" x="274" y="-228.5" font-family="Helvetica,sans-Serif" font-size="10.00">uint32_t</text>
</a>
</g>
</g>
<!-- Node4&#45;&gt;Node1 -->
<g id="edge3" class="edge">
<title>Node4&#45;&gt;Node1</title>
<path fill="none" stroke="#9a32cd" stroke-dasharray="5,2" d="M269.53,-211.34C261.7,-173.6 250.1,-87.58 293,-38 302.06,-27.53 334.6,-20.37 361.79,-16.07"/>
<polygon fill="#9a32cd" stroke="#9a32cd" points="266.19,-212.41 271.78,-221.41 273.02,-210.89 266.19,-212.41"/>
<text text-anchor="middle" x="345.5" y="-195" font-family="Helvetica,sans-Serif" font-size="10.00"> data_length_lsb</text>
<text text-anchor="middle" x="345.5" y="-184" font-family="Helvetica,sans-Serif" font-size="10.00">data_length_msb</text>
<text text-anchor="middle" x="345.5" y="-173" font-family="Helvetica,sans-Serif" font-size="10.00">extent_lba_lsb</text>
<text text-anchor="middle" x="345.5" y="-162" font-family="Helvetica,sans-Serif" font-size="10.00">extent_lba_msb</text>
<text text-anchor="start" x="293" y="-151" font-family="Helvetica,sans-Serif" font-size="10.00">lsb_optpathtable_L</text>
<text text-anchor="middle" x="345.5" y="-140" font-family="Helvetica,sans-Serif" font-size="10.00">_lba</text>
<text text-anchor="start" x="293" y="-129" font-family="Helvetica,sans-Serif" font-size="10.00">lsb_optpathtable</text>
<text text-anchor="middle" x="345.5" y="-118" font-family="Helvetica,sans-Serif" font-size="10.00">_M_lba</text>
<text text-anchor="start" x="293" y="-107" font-family="Helvetica,sans-Serif" font-size="10.00">lsb_pathtable_L</text>
<text text-anchor="middle" x="345.5" y="-96" font-family="Helvetica,sans-Serif" font-size="10.00">_lba</text>
<text text-anchor="start" x="293" y="-85" font-family="Helvetica,sans-Serif" font-size="10.00">lsb_pathtable</text>
<text text-anchor="middle" x="345.5" y="-74" font-family="Helvetica,sans-Serif" font-size="10.00">_M_lba</text>
<text text-anchor="middle" x="345.5" y="-63" font-family="Helvetica,sans-Serif" font-size="10.00">lsb_pathtablesize</text>
<text text-anchor="middle" x="345.5" y="-52" font-family="Helvetica,sans-Serif" font-size="10.00">lsb_volumespacesize</text>
<text text-anchor="middle" x="345.5" y="-41" font-family="Helvetica,sans-Serif" font-size="10.00">...</text>
</g>
<!-- Node5 -->
<g id="node5" class="node">
<title>Node5</title>
<g id="a_node5"><a xlink:title=" ">
<polygon fill="none" stroke="#bfbfbf" points="377,-221.5 377,-240.5 427,-240.5 427,-221.5 377,-221.5"/>
<text text-anchor="middle" x="402" y="-228.5" font-family="Helvetica,sans-Serif" font-size="10.00">uint8_t</text>
</a>
</g>
</g>
<!-- Node5&#45;&gt;Node1 -->
<g id="edge4" class="edge">
<title>Node5&#45;&gt;Node1</title>
<path fill="none" stroke="#9a32cd" stroke-dasharray="5,2" d="M402,-211.26C402,-166.03 402,-52.22 402,-19.76"/>
<polygon fill="#9a32cd" stroke="#9a32cd" points="398.5,-211.41 402,-221.41 405.5,-211.41 398.5,-211.41"/>
<text text-anchor="middle" x="442" y="-178.5" font-family="Helvetica,sans-Serif" font-size="10.00"> application_use</text>
<text text-anchor="middle" x="442" y="-167.5" font-family="Helvetica,sans-Serif" font-size="10.00">attribute_length</text>
<text text-anchor="middle" x="442" y="-156.5" font-family="Helvetica,sans-Serif" font-size="10.00">day</text>
<text text-anchor="middle" x="442" y="-145.5" font-family="Helvetica,sans-Serif" font-size="10.00">file_flags</text>
<text text-anchor="start" x="402" y="-134.5" font-family="Helvetica,sans-Serif" font-size="10.00">file_structure</text>
<text text-anchor="middle" x="442" y="-123.5" font-family="Helvetica,sans-Serif" font-size="10.00">_version</text>
<text text-anchor="middle" x="442" y="-112.5" font-family="Helvetica,sans-Serif" font-size="10.00">filename_length</text>
<text text-anchor="middle" x="442" y="-101.5" font-family="Helvetica,sans-Serif" font-size="10.00">hour</text>
<text text-anchor="middle" x="442" y="-90.5" font-family="Helvetica,sans-Serif" font-size="10.00">length</text>
<text text-anchor="middle" x="442" y="-79.5" font-family="Helvetica,sans-Serif" font-size="10.00">minute</text>
<text text-anchor="middle" x="442" y="-68.5" font-family="Helvetica,sans-Serif" font-size="10.00">month</text>
<text text-anchor="middle" x="442" y="-57.5" font-family="Helvetica,sans-Serif" font-size="10.00">...</text>
</g>
<!-- Node6 -->
<g id="node6" class="node">
<title>Node6</title>
<g id="a_node6"><a xlink:title=" ">
<polygon fill="none" stroke="#bfbfbf" points="448,-221.5 448,-240.5 554,-240.5 554,-221.5 448,-221.5"/>
<text text-anchor="middle" x="501" y="-228.5" font-family="Helvetica,sans-Serif" font-size="10.00">ISO9660_directory</text>
</a>
</g>
</g>
<!-- Node6&#45;&gt;Node1 -->
<g id="edge5" class="edge">
<title>Node6&#45;&gt;Node1</title>
<path fill="none" stroke="#9a32cd" stroke-dasharray="5,2" d="M505.36,-211.11C512.81,-173.63 523.57,-89.08 483,-38 473.13,-25.58 457.37,-18.83 442.35,-15.17"/>
<polygon fill="#9a32cd" stroke="#9a32cd" points="501.88,-210.63 503.21,-221.14 508.72,-212.09 501.88,-210.63"/>
<text text-anchor="middle" x="548" y="-118" font-family="Helvetica,sans-Serif" font-size="10.00"> root_directory</text>
</g>
<!-- Node7 -->
<g id="node7" class="node">
<title>Node7</title>
<g id="a_node7"><a xlink:title=" ">
<polygon fill="none" stroke="#bfbfbf" points="572.5,-221.5 572.5,-240.5 671.5,-240.5 671.5,-221.5 572.5,-221.5"/>
<text text-anchor="middle" x="622" y="-228.5" font-family="Helvetica,sans-Serif" font-size="10.00">DIRECTORY_date</text>
</a>
</g>
</g>
<!-- Node7&#45;&gt;Node1 -->
<g id="edge6" class="edge">
<title>Node7&#45;&gt;Node1</title>
<path fill="none" stroke="#9a32cd" stroke-dasharray="5,2" d="M621.38,-211.12C619.52,-167.53 612.54,-61.79 588,-38 567.79,-18.41 490.37,-12.96 442.01,-11.49"/>
<polygon fill="#9a32cd" stroke="#9a32cd" points="617.88,-211.35 621.76,-221.21 624.88,-211.09 617.88,-211.35"/>
<text text-anchor="middle" x="658" y="-118" font-family="Helvetica,sans-Serif" font-size="10.00"> recording_date</text>
</g>
<!-- Node8 -->
<g id="node8" class="node">
<title>Node8</title>
<g id="a_node8"><a xlink:title=" ">
<polygon fill="none" stroke="#bfbfbf" points="690,-221.5 690,-240.5 754,-240.5 754,-221.5 690,-221.5"/>
<text text-anchor="middle" x="722" y="-228.5" font-family="Helvetica,sans-Serif" font-size="10.00">PVD_date</text>
</a>
</g>
</g>
<!-- Node8&#45;&gt;Node1 -->
<g id="edge7" class="edge">
<title>Node8&#45;&gt;Node1</title>
<path fill="none" stroke="#9a32cd" stroke-dasharray="5,2" d="M726.62,-211.23C734.88,-172.62 747.19,-84.08 700,-38 681.93,-20.35 519.3,-13.94 442.2,-11.87"/>
<polygon fill="#9a32cd" stroke="#9a32cd" points="723.18,-210.58 724.35,-221.11 730,-212.15 723.18,-210.58"/>
<text text-anchor="middle" x="799" y="-134.5" font-family="Helvetica,sans-Serif" font-size="10.00"> volume_creation_date</text>
<text text-anchor="middle" x="799" y="-123.5" font-family="Helvetica,sans-Serif" font-size="10.00">volume_effective_date</text>
<text text-anchor="middle" x="799" y="-112.5" font-family="Helvetica,sans-Serif" font-size="10.00">volume_expire_date</text>
<text text-anchor="middle" x="799" y="-101.5" font-family="Helvetica,sans-Serif" font-size="10.00">volume_modification_date</text>
</g>
</g>
</svg>
