<?xml version="1.0" encoding="UTF-8" standalone="no"?>
<!DOCTYPE svg PUBLIC "-//W3C//DTD SVG 1.1//EN"
 "http://www.w3.org/Graphics/SVG/1.1/DTD/svg11.dtd">
<!-- Generated by graphviz version 2.43.0 (0)
 -->
<!-- Title: proc_id_t Pages: 1 -->
<svg width="912pt" height="1350pt"
 viewBox="0.00 0.00 912.00 1350.00" xmlns="http://www.w3.org/2000/svg" xmlns:xlink="http://www.w3.org/1999/xlink">
<g id="graph0" class="graph" transform="scale(1 1) rotate(0) translate(4 1346)">
<title>proc_id_t</title>
<!-- Node1 -->
<g id="node1" class="node">
<title>Node1</title>
<g id="a_node1"><a xlink:title="Process identifier struct. Used to identify processes by ID in the hash map only, contains the id and...">
<polygon fill="#bfbfbf" stroke="black" points="843,-79.5 843,-98.5 904,-98.5 904,-79.5 843,-79.5"/>
<text text-anchor="middle" x="873.5" y="-86.5" font-family="Helvetica,sans-Serif" font-size="10.00">proc_id_t</text>
</a>
</g>
</g>
<!-- Node2 -->
<g id="node2" class="node">
<title>Node2</title>
<g id="a_node2"><a xlink:href="structprocess__t.html" target="_top" xlink:title=" ">
<polygon fill="none" stroke="black" points="719,-337.5 719,-356.5 782,-356.5 782,-337.5 719,-337.5"/>
<text text-anchor="middle" x="750.5" y="-344.5" font-family="Helvetica,sans-Serif" font-size="10.00">process_t</text>
</a>
</g>
</g>
<!-- Node2&#45;&gt;Node1 -->
<g id="edge1" class="edge">
<title>Node2&#45;&gt;Node1</title>
<path fill="none" stroke="#9a32cd" stroke-dasharray="5,2" d="M760.46,-327.89C784.58,-276.46 850.28,-136.38 868.03,-98.53"/>
<polygon fill="#9a32cd" stroke="#9a32cd" points="757.17,-326.66 756.1,-337.2 763.51,-329.63 757.17,-326.66"/>
<text text-anchor="middle" x="812.5" y="-244" font-family="Helvetica,sans-Serif" font-size="10.00"> proc</text>
</g>
<!-- Node2&#45;&gt;Node2 -->
<g id="edge2" class="edge">
<title>Node2&#45;&gt;Node2</title>
<path fill="none" stroke="#9a32cd" stroke-dasharray="5,2" d="M739.08,-366.77C739.98,-371.5 743.78,-375 750.5,-375 761.52,-375 764.7,-365.57 760.06,-356.76"/>
<polygon fill="#9a32cd" stroke="#9a32cd" points="742.56,-367.23 740.94,-356.76 735.67,-365.95 742.56,-367.23"/>
<text text-anchor="middle" x="750.5" y="-389" font-family="Helvetica,sans-Serif" font-size="10.00"> next</text>
<text text-anchor="middle" x="750.5" y="-378" font-family="Helvetica,sans-Serif" font-size="10.00">prev</text>
</g>
<!-- Node3 -->
<g id="node3" class="node">
<title>Node3</title>
<g id="a_node3"><a xlink:title=" ">
<polygon fill="none" stroke="#bfbfbf" points="553,-1322.5 553,-1341.5 646,-1341.5 646,-1322.5 553,-1322.5"/>
<text text-anchor="middle" x="599.5" y="-1329.5" font-family="Helvetica,sans-Serif" font-size="10.00">process_state_t</text>
</a>
</g>
</g>
<!-- Node3&#45;&gt;Node2 -->
<g id="edge3" class="edge">
<title>Node3&#45;&gt;Node2</title>
<path fill="none" stroke="#9a32cd" stroke-dasharray="5,2" d="M656.01,-1331.17C672.91,-1328.01 689.93,-1321.32 701,-1308 733.1,-1269.38 747.69,-455.17 749.34,-356.72"/>
<polygon fill="#9a32cd" stroke="#9a32cd" points="655.49,-1327.71 646.12,-1332.65 656.53,-1334.63 655.49,-1327.71"/>
<text text-anchor="middle" x="682.5" y="-1331" font-family="Helvetica,sans-Serif" font-size="10.00"> state</text>
</g>
<!-- Node4 -->
<g id="node4" class="node">
<title>Node4</title>
<g id="a_node4"><a xlink:title=" ">
<polygon fill="none" stroke="#bfbfbf" points="112.5,-1037.5 112.5,-1056.5 168.5,-1056.5 168.5,-1037.5 112.5,-1037.5"/>
<text text-anchor="middle" x="140.5" y="-1044.5" font-family="Helvetica,sans-Serif" font-size="10.00">uint64_t</text>
</a>
</g>
</g>
<!-- Node4&#45;&gt;Node2 -->
<g id="edge4" class="edge">
<title>Node4&#45;&gt;Node2</title>
<path fill="none" stroke="#9a32cd" stroke-dasharray="5,2" d="M175.47,-1063.61C213.08,-1104.4 244.09,-1209.06 280,-1229 292.89,-1236.16 533.38,-1226.29 535,-1225 681.34,-1107.76 741.39,-444.17 748.72,-356.55"/>
<polygon fill="#9a32cd" stroke="#9a32cd" points="177.76,-1060.95 168.12,-1056.56 172.91,-1066.01 177.76,-1060.95"/>
<text text-anchor="middle" x="476" y="-1244" font-family="Helvetica,sans-Serif" font-size="10.00"> size</text>
<text text-anchor="middle" x="476" y="-1233" font-family="Helvetica,sans-Serif" font-size="10.00">start_time</text>
</g>
<!-- Node5 -->
<g id="node5" class="node">
<title>Node5</title>
<g id="a_node5"><a xlink:href="structubasic__ctx.html" target="_top" xlink:title="BASIC program context Every instance of a BASIC program has one of these, also certain structures suc...">
<polygon fill="none" stroke="black" points="565.5,-714.5 565.5,-733.5 633.5,-733.5 633.5,-714.5 565.5,-714.5"/>
<text text-anchor="middle" x="599.5" y="-721.5" font-family="Helvetica,sans-Serif" font-size="10.00">ubasic_ctx</text>
</a>
</g>
</g>
<!-- Node4&#45;&gt;Node5 -->
<g id="edge21" class="edge">
<title>Node4&#45;&gt;Node5</title>
<path fill="none" stroke="#9a32cd" stroke-dasharray="5,2" d="M178.48,-1057.54C256.83,-1077.36 440.11,-1109.98 535,-1013 575.51,-971.6 593.92,-778.9 597.74,-733.57"/>
<polygon fill="#9a32cd" stroke="#9a32cd" points="179.14,-1054.09 168.58,-1054.96 177.37,-1060.87 179.14,-1054.09"/>
<text text-anchor="middle" x="339.5" y="-1104" font-family="Helvetica,sans-Serif" font-size="10.00"> for_stack_ptr</text>
<text text-anchor="middle" x="339.5" y="-1093" font-family="Helvetica,sans-Serif" font-size="10.00">gosub_stack</text>
<text text-anchor="middle" x="339.5" y="-1082" font-family="Helvetica,sans-Serif" font-size="10.00">gosub_stack_ptr</text>
</g>
<!-- Node7 -->
<g id="node7" class="node">
<title>Node7</title>
<g id="a_node7"><a xlink:href="structub__var__double__array.html" target="_top" xlink:title="An array of real (double)">
<polygon fill="none" stroke="black" points="280,-988.5 280,-1007.5 399,-1007.5 399,-988.5 280,-988.5"/>
<text text-anchor="middle" x="339.5" y="-995.5" font-family="Helvetica,sans-Serif" font-size="10.00">ub_var_double_array</text>
</a>
</g>
</g>
<!-- Node4&#45;&gt;Node7 -->
<g id="edge9" class="edge">
<title>Node4&#45;&gt;Node7</title>
<path fill="none" stroke="#9a32cd" stroke-dasharray="5,2" d="M178.67,-1041.78C202.67,-1038.02 234.43,-1032.33 262,-1025 279.97,-1020.22 299.74,-1013.19 314.69,-1007.5"/>
<polygon fill="#9a32cd" stroke="#9a32cd" points="177.93,-1038.35 168.57,-1043.31 178.98,-1045.27 177.93,-1038.35"/>
<text text-anchor="middle" x="228" y="-1041" font-family="Helvetica,sans-Serif" font-size="10.00"> itemcount</text>
</g>
<!-- Node10 -->
<g id="node10" class="node">
<title>Node10</title>
<g id="a_node10"><a xlink:href="structub__var__string__array.html" target="_top" xlink:title="An array of strings.">
<polygon fill="none" stroke="black" points="283,-921.5 283,-940.5 396,-940.5 396,-921.5 283,-921.5"/>
<text text-anchor="middle" x="339.5" y="-928.5" font-family="Helvetica,sans-Serif" font-size="10.00">ub_var_string_array</text>
</a>
</g>
</g>
<!-- Node4&#45;&gt;Node10 -->
<g id="edge14" class="edge">
<title>Node4&#45;&gt;Node10</title>
<path fill="none" stroke="#9a32cd" stroke-dasharray="5,2" d="M162.09,-1031.26C171.45,-1024.65 182.9,-1017.27 194,-1012 222.57,-998.42 233.98,-1005.67 262,-991 275.83,-983.76 309.62,-955.65 327.3,-940.61"/>
<polygon fill="#9a32cd" stroke="#9a32cd" points="159.85,-1028.57 153.83,-1037.28 163.97,-1034.22 159.85,-1028.57"/>
<text text-anchor="middle" x="228" y="-1015" font-family="Helvetica,sans-Serif" font-size="10.00"> itemcount</text>
</g>
<!-- Node21 -->
<g id="node21" class="node">
<title>Node21</title>
<g id="a_node21"><a xlink:href="structub__var__int__array.html" target="_top" xlink:title="An array of integers.">
<polygon fill="none" stroke="black" points="290.5,-673.5 290.5,-692.5 388.5,-692.5 388.5,-673.5 290.5,-673.5"/>
<text text-anchor="middle" x="339.5" y="-680.5" font-family="Helvetica,sans-Serif" font-size="10.00">ub_var_int_array</text>
</a>
</g>
</g>
<!-- Node4&#45;&gt;Node21 -->
<g id="edge37" class="edge">
<title>Node4&#45;&gt;Node21</title>
<path fill="none" stroke="#9a32cd" stroke-dasharray="5,2" d="M147.73,-1027.86C155.69,-1005.68 171.23,-968.98 194,-944 218.09,-917.57 243.12,-931.37 262,-901 302.11,-836.47 243.94,-797.87 280,-731 289.1,-714.12 306.85,-700.88 320.42,-692.62"/>
<polygon fill="#9a32cd" stroke="#9a32cd" points="144.37,-1026.87 144.43,-1037.47 150.99,-1029.15 144.37,-1026.87"/>
<text text-anchor="middle" x="228" y="-947" font-family="Helvetica,sans-Serif" font-size="10.00"> itemcount</text>
</g>
<!-- Node5&#45;&gt;Node2 -->
<g id="edge5" class="edge">
<title>Node5&#45;&gt;Node2</title>
<path fill="none" stroke="#9a32cd" stroke-dasharray="5,2" d="M608.1,-704.77C635.12,-636.41 725.95,-406.59 745.69,-356.63"/>
<polygon fill="#9a32cd" stroke="#9a32cd" points="604.75,-703.72 604.33,-714.3 611.26,-706.29 604.75,-703.72"/>
<text text-anchor="middle" x="682.5" y="-561" font-family="Helvetica,sans-Serif" font-size="10.00"> code</text>
</g>
<!-- Node6 -->
<g id="node6" class="node">
<title>Node6</title>
<g id="a_node6"><a xlink:title=" ">
<polygon fill="none" stroke="#bfbfbf" points="294.5,-845.5 294.5,-864.5 384.5,-864.5 384.5,-845.5 294.5,-845.5"/>
<text text-anchor="middle" x="339.5" y="-852.5" font-family="Helvetica,sans-Serif" font-size="10.00">ub_return_type</text>
</a>
</g>
</g>
<!-- Node6&#45;&gt;Node5 -->
<g id="edge6" class="edge">
<title>Node6&#45;&gt;Node5</title>
<path fill="none" stroke="#9a32cd" stroke-dasharray="5,2" d="M394.94,-853.58C444.29,-851.35 512.6,-845.64 535,-831 571.16,-807.36 589.58,-755.35 595.9,-733.73"/>
<polygon fill="#9a32cd" stroke="#9a32cd" points="394.57,-850.09 384.73,-854 394.86,-857.08 394.57,-850.09"/>
<text text-anchor="middle" x="476" y="-855" font-family="Helvetica,sans-Serif" font-size="10.00"> fn_type</text>
</g>
<!-- Node7&#45;&gt;Node5 -->
<g id="edge7" class="edge">
<title>Node7&#45;&gt;Node5</title>
<path fill="none" stroke="#9a32cd" stroke-dasharray="5,2" d="M409.4,-998.87C450.84,-995.71 501.82,-984.78 535,-953 599.95,-890.79 600.33,-768.47 599.01,-733.53"/>
<polygon fill="#9a32cd" stroke="#9a32cd" points="409.12,-995.38 399.36,-999.5 409.56,-1002.37 409.12,-995.38"/>
<text text-anchor="middle" x="476" y="-1001" font-family="Helvetica,sans-Serif" font-size="10.00"> double_array_variables</text>
</g>
<!-- Node7&#45;&gt;Node7 -->
<g id="edge8" class="edge">
<title>Node7&#45;&gt;Node7</title>
<path fill="none" stroke="#9a32cd" stroke-dasharray="5,2" d="M319.13,-1017.4C320.49,-1022.31 327.28,-1026 339.5,-1026 359.05,-1026 364.7,-1016.57 356.45,-1007.76"/>
<polygon fill="#9a32cd" stroke="#9a32cd" points="322.51,-1018.35 322.55,-1007.76 315.91,-1016.01 322.51,-1018.35"/>
<text text-anchor="middle" x="339.5" y="-1029" font-family="Helvetica,sans-Serif" font-size="10.00"> next</text>
</g>
<!-- Node8 -->
<g id="node8" class="node">
<title>Node8</title>
<g id="a_node8"><a xlink:title=" ">
<polygon fill="none" stroke="#bfbfbf" points="115.5,-796.5 115.5,-815.5 165.5,-815.5 165.5,-796.5 115.5,-796.5"/>
<text text-anchor="middle" x="140.5" y="-803.5" font-family="Helvetica,sans-Serif" font-size="10.00">double</text>
</a>
</g>
</g>
<!-- Node8&#45;&gt;Node7 -->
<g id="edge10" class="edge">
<title>Node8&#45;&gt;Node7</title>
<path fill="none" stroke="#9a32cd" stroke-dasharray="5,2" d="M150.1,-824.96C157.55,-841.82 168.3,-867.24 176,-890 185.88,-919.21 172.35,-935.05 194,-957 197.88,-960.93 259.97,-977.63 301.48,-988.47"/>
<polygon fill="#9a32cd" stroke="#9a32cd" points="153.22,-823.38 145.95,-815.67 146.83,-826.23 153.22,-823.38"/>
<text text-anchor="middle" x="228" y="-980" font-family="Helvetica,sans-Serif" font-size="10.00"> values</text>
</g>
<!-- Node18 -->
<g id="node18" class="node">
<title>Node18</title>
<g id="a_node18"><a xlink:href="structub__var__double.html" target="_top" xlink:title="A real (double) variable.">
<polygon fill="none" stroke="black" points="295.5,-740.5 295.5,-759.5 383.5,-759.5 383.5,-740.5 295.5,-740.5"/>
<text text-anchor="middle" x="339.5" y="-747.5" font-family="Helvetica,sans-Serif" font-size="10.00">ub_var_double</text>
</a>
</g>
</g>
<!-- Node8&#45;&gt;Node18 -->
<g id="edge30" class="edge">
<title>Node8&#45;&gt;Node18</title>
<path fill="none" stroke="#9a32cd" stroke-dasharray="5,2" d="M175.71,-802.86C200.16,-800.01 233.61,-794.85 262,-786 283.44,-779.32 306.58,-767.76 321.73,-759.55"/>
<polygon fill="#9a32cd" stroke="#9a32cd" points="175.06,-799.41 165.5,-803.98 175.82,-806.37 175.06,-799.41"/>
<text text-anchor="middle" x="228" y="-803" font-family="Helvetica,sans-Serif" font-size="10.00"> value</text>
</g>
<!-- Node9 -->
<g id="node9" class="node">
<title>Node9</title>
<g id="a_node9"><a xlink:title=" ">
<polygon fill="none" stroke="#bfbfbf" points="0,-687.5 0,-706.5 38,-706.5 38,-687.5 0,-687.5"/>
<text text-anchor="middle" x="19" y="-694.5" font-family="Helvetica,sans-Serif" font-size="10.00">char</text>
</a>
</g>
</g>
<!-- Node9&#45;&gt;Node2 -->
<g id="edge59" class="edge">
<title>Node9&#45;&gt;Node2</title>
<path fill="none" stroke="#9a32cd" stroke-dasharray="5,2" d="M19.65,-716.93C18.35,-820.64 19.02,-1294 139.5,-1294 139.5,-1294 139.5,-1294 600.5,-1294 700.67,-1294 744.21,-456.47 749.04,-356.68"/>
<polygon fill="#9a32cd" stroke="#9a32cd" points="23.15,-716.91 19.8,-706.86 16.15,-716.81 23.15,-716.91"/>
<text text-anchor="middle" x="339.5" y="-1308" font-family="Helvetica,sans-Serif" font-size="10.00"> directory</text>
<text text-anchor="middle" x="339.5" y="-1297" font-family="Helvetica,sans-Serif" font-size="10.00">name</text>
</g>
<!-- Node9&#45;&gt;Node5 -->
<g id="edge22" class="edge">
<title>Node9&#45;&gt;Node5</title>
<path fill="none" stroke="#9a32cd" stroke-dasharray="5,2" d="M26.22,-716.43C36.9,-746.15 61.87,-801.87 105,-825 189.97,-870.57 446.56,-805.41 535,-767 554.78,-758.41 574.96,-743.47 587.11,-733.66"/>
<polygon fill="#9a32cd" stroke="#9a32cd" points="29.46,-715.1 22.92,-706.77 22.84,-717.36 29.46,-715.1"/>
<text text-anchor="middle" x="228" y="-887" font-family="Helvetica,sans-Serif" font-size="10.00"> item_begin</text>
<text text-anchor="middle" x="228" y="-876" font-family="Helvetica,sans-Serif" font-size="10.00">nextptr</text>
<text text-anchor="middle" x="228" y="-865" font-family="Helvetica,sans-Serif" font-size="10.00">program_ptr</text>
<text text-anchor="middle" x="228" y="-854" font-family="Helvetica,sans-Serif" font-size="10.00">ptr</text>
<text text-anchor="middle" x="228" y="-843" font-family="Helvetica,sans-Serif" font-size="10.00">string</text>
</g>
<!-- Node9&#45;&gt;Node7 -->
<g id="edge11" class="edge">
<title>Node9&#45;&gt;Node7</title>
<path fill="none" stroke="#9a32cd" stroke-dasharray="5,2" d="M21.35,-716.67C26.62,-786.75 48.37,-1022.42 105,-1066 160.49,-1108.7 197.15,-1079.4 262,-1053 288.66,-1042.14 314.82,-1020.22 328.57,-1007.58"/>
<polygon fill="#9a32cd" stroke="#9a32cd" points="24.83,-716.29 20.62,-706.56 17.85,-716.79 24.83,-716.29"/>
<text text-anchor="middle" x="140.5" y="-1090" font-family="Helvetica,sans-Serif" font-size="10.00"> varname</text>
</g>
<!-- Node9&#45;&gt;Node10 -->
<g id="edge15" class="edge">
<title>Node9&#45;&gt;Node10</title>
<path fill="none" stroke="#9a32cd" stroke-dasharray="5,2" d="M21.91,-716.73C26.02,-755.08 36.9,-837.67 56,-858 86.66,-890.62 209.65,-913 282.86,-923.72"/>
<polygon fill="#9a32cd" stroke="#9a32cd" points="25.4,-716.37 20.89,-706.78 18.43,-717.08 25.4,-716.37"/>
<text text-anchor="middle" x="140.5" y="-918" font-family="Helvetica,sans-Serif" font-size="10.00"> values</text>
<text text-anchor="middle" x="140.5" y="-907" font-family="Helvetica,sans-Serif" font-size="10.00">varname</text>
</g>
<!-- Node11 -->
<g id="node11" class="node">
<title>Node11</title>
<g id="a_node11"><a xlink:href="structub__var__int.html" target="_top" xlink:title="An integer variable.">
<polygon fill="none" stroke="black" points="305.5,-380.5 305.5,-399.5 373.5,-399.5 373.5,-380.5 305.5,-380.5"/>
<text text-anchor="middle" x="339.5" y="-387.5" font-family="Helvetica,sans-Serif" font-size="10.00">ub_var_int</text>
</a>
</g>
</g>
<!-- Node9&#45;&gt;Node11 -->
<g id="edge18" class="edge">
<title>Node9&#45;&gt;Node11</title>
<path fill="none" stroke="#9a32cd" stroke-dasharray="5,2" d="M22.31,-677.32C30.01,-615.67 57.06,-428.46 105,-396 165.61,-354.96 256.83,-368.81 305.37,-380.55"/>
<polygon fill="#9a32cd" stroke="#9a32cd" points="18.83,-676.95 21.1,-687.3 25.78,-677.8 18.83,-676.95"/>
<text text-anchor="middle" x="140.5" y="-399" font-family="Helvetica,sans-Serif" font-size="10.00"> varname</text>
</g>
<!-- Node14 -->
<g id="node14" class="node">
<title>Node14</title>
<g id="a_node14"><a xlink:href="structconsole.html" target="_top" xlink:title=" ">
<polygon fill="none" stroke="black" points="312.5,-203.5 312.5,-222.5 366.5,-222.5 366.5,-203.5 312.5,-203.5"/>
<text text-anchor="middle" x="339.5" y="-210.5" font-family="Helvetica,sans-Serif" font-size="10.00">console</text>
</a>
</g>
</g>
<!-- Node9&#45;&gt;Node14 -->
<g id="edge24" class="edge">
<title>Node9&#45;&gt;Node14</title>
<path fill="none" stroke="#9a32cd" stroke-dasharray="5,2" d="M19.64,-677.3C18.48,-588.66 19.18,-228.53 105,-170 131.07,-152.22 144.71,-165.93 176,-170 182.84,-170.89 268.15,-193.9 312.34,-205.89"/>
<polygon fill="#9a32cd" stroke="#9a32cd" points="16.14,-677.4 19.79,-687.35 23.14,-677.29 16.14,-677.4"/>
<text text-anchor="middle" x="140.5" y="-195" font-family="Helvetica,sans-Serif" font-size="10.00"> buffer</text>
<text text-anchor="middle" x="140.5" y="-184" font-family="Helvetica,sans-Serif" font-size="10.00">dirty</text>
<text text-anchor="middle" x="140.5" y="-173" font-family="Helvetica,sans-Serif" font-size="10.00">internalbuffer</text>
</g>
<!-- Node9&#45;&gt;Node18 -->
<g id="edge31" class="edge">
<title>Node9&#45;&gt;Node18</title>
<path fill="none" stroke="#9a32cd" stroke-dasharray="5,2" d="M45.19,-711.22C48.76,-712.96 52.43,-714.61 56,-716 115.09,-738.95 131.13,-743.93 194,-752 223.98,-755.85 231.78,-752.39 262,-752 272.76,-751.86 284.37,-751.61 295.21,-751.33"/>
<polygon fill="#9a32cd" stroke="#9a32cd" points="46.6,-708.01 36.11,-706.52 43.38,-714.23 46.6,-708.01"/>
<text text-anchor="middle" x="140.5" y="-752" font-family="Helvetica,sans-Serif" font-size="10.00"> varname</text>
</g>
<!-- Node9&#45;&gt;Node21 -->
<g id="edge38" class="edge">
<title>Node9&#45;&gt;Node21</title>
<path fill="none" stroke="#9a32cd" stroke-dasharray="5,2" d="M48.28,-700.18C93.58,-704.68 185.15,-711.4 262,-702 277.21,-700.14 293.76,-696.27 307.56,-692.51"/>
<polygon fill="#9a32cd" stroke="#9a32cd" points="48.61,-696.69 38.3,-699.14 47.89,-703.65 48.61,-696.69"/>
<text text-anchor="middle" x="140.5" y="-709" font-family="Helvetica,sans-Serif" font-size="10.00"> varname</text>
</g>
<!-- Node22 -->
<g id="node22" class="node">
<title>Node22</title>
<g id="a_node22"><a xlink:href="structub__proc__fn__def.html" target="_top" xlink:title="Procedure or function definition Each has a name, a type, a starting line and a parameter list.">
<polygon fill="none" stroke="black" points="294,-559.5 294,-578.5 385,-578.5 385,-559.5 294,-559.5"/>
<text text-anchor="middle" x="339.5" y="-566.5" font-family="Helvetica,sans-Serif" font-size="10.00">ub_proc_fn_def</text>
</a>
</g>
</g>
<!-- Node9&#45;&gt;Node22 -->
<g id="edge44" class="edge">
<title>Node9&#45;&gt;Node22</title>
<path fill="none" stroke="#9a32cd" stroke-dasharray="5,2" d="M26.61,-677.82C37.69,-649.02 63.03,-595.57 105,-573 166.59,-539.87 251.2,-549.57 299.84,-559.42"/>
<polygon fill="#9a32cd" stroke="#9a32cd" points="23.32,-676.62 23.17,-687.21 29.89,-679.03 23.32,-676.62"/>
<text text-anchor="middle" x="140.5" y="-576" font-family="Helvetica,sans-Serif" font-size="10.00"> name</text>
</g>
<!-- Node24 -->
<g id="node24" class="node">
<title>Node24</title>
<g id="a_node24"><a xlink:href="structub__param.html" target="_top" xlink:title="FN/PROC parameter.">
<polygon fill="none" stroke="black" points="108,-631.5 108,-650.5 173,-650.5 173,-631.5 108,-631.5"/>
<text text-anchor="middle" x="140.5" y="-638.5" font-family="Helvetica,sans-Serif" font-size="10.00">ub_param</text>
</a>
</g>
</g>
<!-- Node9&#45;&gt;Node24 -->
<g id="edge48" class="edge">
<title>Node9&#45;&gt;Node24</title>
<path fill="none" stroke="#9a32cd" stroke-dasharray="5,2" d="M47.25,-684.23C69.14,-673.97 99.37,-659.8 119.18,-650.52"/>
<polygon fill="#9a32cd" stroke="#9a32cd" points="45.72,-681.08 38.15,-688.49 48.69,-687.42 45.72,-681.08"/>
<text text-anchor="middle" x="71.5" y="-681" font-family="Helvetica,sans-Serif" font-size="10.00"> name</text>
</g>
<!-- Node25 -->
<g id="node25" class="node">
<title>Node25</title>
<g id="a_node25"><a xlink:href="structub__var__string.html" target="_top" xlink:title="A string variable.">
<polygon fill="none" stroke="black" points="298,-312.5 298,-331.5 381,-331.5 381,-312.5 298,-312.5"/>
<text text-anchor="middle" x="339.5" y="-319.5" font-family="Helvetica,sans-Serif" font-size="10.00">ub_var_string</text>
</a>
</g>
</g>
<!-- Node9&#45;&gt;Node25 -->
<g id="edge51" class="edge">
<title>Node9&#45;&gt;Node25</title>
<path fill="none" stroke="#9a32cd" stroke-dasharray="5,2" d="M20.61,-676.96C23.44,-599.9 38.17,-324.72 105,-278 138.3,-254.72 258.62,-293.32 312.32,-312.36"/>
<polygon fill="#9a32cd" stroke="#9a32cd" points="17.1,-677.09 20.26,-687.2 24.1,-677.32 17.1,-677.09"/>
<text text-anchor="middle" x="140.5" y="-292" font-family="Helvetica,sans-Serif" font-size="10.00"> value</text>
<text text-anchor="middle" x="140.5" y="-281" font-family="Helvetica,sans-Serif" font-size="10.00">varname</text>
</g>
<!-- Node27 -->
<g id="node27" class="node">
<title>Node27</title>
<g id="a_node27"><a xlink:href="structfor__state.html" target="_top" xlink:title="State for a FOR...NEXT loop.">
<polygon fill="none" stroke="black" points="309.5,-447.5 309.5,-466.5 369.5,-466.5 369.5,-447.5 309.5,-447.5"/>
<text text-anchor="middle" x="339.5" y="-454.5" font-family="Helvetica,sans-Serif" font-size="10.00">for_state</text>
</a>
</g>
</g>
<!-- Node9&#45;&gt;Node27 -->
<g id="edge56" class="edge">
<title>Node9&#45;&gt;Node27</title>
<path fill="none" stroke="#9a32cd" stroke-dasharray="5,2" d="M23.25,-677.19C34.21,-618.21 75.95,-445.32 194,-404 222.53,-394.02 236.11,-388.41 262,-404 276.65,-412.82 266.91,-427 280,-438 288.26,-444.94 299.1,-449.36 309.21,-452.17"/>
<polygon fill="#9a32cd" stroke="#9a32cd" points="19.74,-676.94 21.46,-687.39 26.64,-678.15 19.74,-676.94"/>
<text text-anchor="middle" x="140.5" y="-471" font-family="Helvetica,sans-Serif" font-size="10.00"> for_variable</text>
</g>
<!-- Node10&#45;&gt;Node5 -->
<g id="edge12" class="edge">
<title>Node10&#45;&gt;Node5</title>
<path fill="none" stroke="#9a32cd" stroke-dasharray="5,2" d="M406.25,-938.53C447.5,-939.64 499.44,-933.94 535,-905 590.01,-860.23 597.44,-764.66 598.38,-733.81"/>
<polygon fill="#9a32cd" stroke="#9a32cd" points="406.14,-935.03 396,-938.11 405.85,-942.02 406.14,-935.03"/>
<text text-anchor="middle" x="476" y="-941" font-family="Helvetica,sans-Serif" font-size="10.00"> string_array_variables</text>
</g>
<!-- Node10&#45;&gt;Node10 -->
<g id="edge13" class="edge">
<title>Node10&#45;&gt;Node10</title>
<path fill="none" stroke="#9a32cd" stroke-dasharray="5,2" d="M319.13,-950.4C320.49,-955.31 327.28,-959 339.5,-959 359.05,-959 364.7,-949.57 356.45,-940.76"/>
<polygon fill="#9a32cd" stroke="#9a32cd" points="322.51,-951.35 322.55,-940.76 315.91,-949.01 322.51,-951.35"/>
<text text-anchor="middle" x="339.5" y="-962" font-family="Helvetica,sans-Serif" font-size="10.00"> next</text>
</g>
<!-- Node11&#45;&gt;Node5 -->
<g id="edge16" class="edge">
<title>Node11&#45;&gt;Node5</title>
<path fill="none" stroke="#9a32cd" stroke-dasharray="5,2" d="M383.66,-383.76C427.61,-380.01 494.84,-381.91 535,-420 579.3,-462.02 594.92,-667.66 597.93,-714.49"/>
<polygon fill="#9a32cd" stroke="#9a32cd" points="383.17,-380.29 373.56,-384.75 383.86,-387.26 383.17,-380.29"/>
<text text-anchor="middle" x="476" y="-434" font-family="Helvetica,sans-Serif" font-size="10.00"> int_variables</text>
<text text-anchor="middle" x="476" y="-423" font-family="Helvetica,sans-Serif" font-size="10.00">local_int_variables</text>
</g>
<!-- Node11&#45;&gt;Node11 -->
<g id="edge17" class="edge">
<title>Node11&#45;&gt;Node11</title>
<path fill="none" stroke="#9a32cd" stroke-dasharray="5,2" d="M319.13,-409.4C320.49,-414.31 327.28,-418 339.5,-418 359.05,-418 364.7,-408.57 356.45,-399.76"/>
<polygon fill="#9a32cd" stroke="#9a32cd" points="322.51,-410.35 322.55,-399.76 315.91,-408.01 322.51,-410.35"/>
<text text-anchor="middle" x="339.5" y="-421" font-family="Helvetica,sans-Serif" font-size="10.00"> next</text>
</g>
<!-- Node12 -->
<g id="node12" class="node">
<title>Node12</title>
<g id="a_node12"><a xlink:title=" ">
<polygon fill="none" stroke="#bfbfbf" points="115.5,-495.5 115.5,-514.5 165.5,-514.5 165.5,-495.5 115.5,-495.5"/>
<text text-anchor="middle" x="140.5" y="-502.5" font-family="Helvetica,sans-Serif" font-size="10.00">int64_t</text>
</a>
</g>
</g>
<!-- Node12&#45;&gt;Node5 -->
<g id="edge27" class="edge">
<title>Node12&#45;&gt;Node5</title>
<path fill="none" stroke="#9a32cd" stroke-dasharray="5,2" d="M175.99,-499.54C251.6,-489.67 433.27,-477.77 535,-571 579.1,-611.42 593.46,-687.16 597.29,-714.14"/>
<polygon fill="#9a32cd" stroke="#9a32cd" points="175.06,-496.13 165.63,-500.97 176.01,-503.07 175.06,-496.13"/>
<text text-anchor="middle" x="339.5" y="-519" font-family="Helvetica,sans-Serif" font-size="10.00"> current_linenum</text>
<text text-anchor="middle" x="339.5" y="-508" font-family="Helvetica,sans-Serif" font-size="10.00">eval_linenum</text>
</g>
<!-- Node12&#45;&gt;Node11 -->
<g id="edge19" class="edge">
<title>Node12&#45;&gt;Node11</title>
<path fill="none" stroke="#9a32cd" stroke-dasharray="5,2" d="M150.51,-486.08C159.35,-469.48 174.36,-445.87 194,-432 227.5,-408.33 274.26,-397.9 305.41,-393.37"/>
<polygon fill="#9a32cd" stroke="#9a32cd" points="147.2,-484.87 145.81,-495.37 153.45,-488.02 147.2,-484.87"/>
<text text-anchor="middle" x="228" y="-435" font-family="Helvetica,sans-Serif" font-size="10.00"> value</text>
</g>
<!-- Node12&#45;&gt;Node21 -->
<g id="edge39" class="edge">
<title>Node12&#45;&gt;Node21</title>
<path fill="none" stroke="#9a32cd" stroke-dasharray="5,2" d="M161.12,-521.92C166.74,-527.74 172.33,-534.65 176,-542 196.38,-582.79 163.3,-609.28 194,-643 218.27,-669.66 258.57,-679.18 290.46,-682.3"/>
<polygon fill="#9a32cd" stroke="#9a32cd" points="163.26,-519.12 153.62,-514.72 158.41,-524.17 163.26,-519.12"/>
<text text-anchor="middle" x="228" y="-680" font-family="Helvetica,sans-Serif" font-size="10.00"> values</text>
</g>
<!-- Node12&#45;&gt;Node22 -->
<g id="edge45" class="edge">
<title>Node12&#45;&gt;Node22</title>
<path fill="none" stroke="#9a32cd" stroke-dasharray="5,2" d="M175.53,-513.64C199.82,-520.04 233.16,-529.3 262,-539 280.39,-545.18 300.83,-553.26 315.95,-559.48"/>
<polygon fill="#9a32cd" stroke="#9a32cd" points="176.28,-510.22 165.72,-511.08 174.51,-516.99 176.28,-510.22"/>
<text text-anchor="middle" x="228" y="-542" font-family="Helvetica,sans-Serif" font-size="10.00"> line</text>
</g>
<!-- Node12&#45;&gt;Node27 -->
<g id="edge57" class="edge">
<title>Node12&#45;&gt;Node27</title>
<path fill="none" stroke="#9a32cd" stroke-dasharray="5,2" d="M155.17,-487.53C164.74,-476.78 178.54,-463.97 194,-458 231.8,-443.4 279.41,-446.83 309.42,-451.34"/>
<polygon fill="#9a32cd" stroke="#9a32cd" points="152.49,-485.28 148.73,-495.19 157.84,-489.79 152.49,-485.28"/>
<text text-anchor="middle" x="228" y="-483" font-family="Helvetica,sans-Serif" font-size="10.00"> line_after_for</text>
<text text-anchor="middle" x="228" y="-472" font-family="Helvetica,sans-Serif" font-size="10.00">step</text>
<text text-anchor="middle" x="228" y="-461" font-family="Helvetica,sans-Serif" font-size="10.00">to</text>
</g>
<!-- Node13 -->
<g id="node13" class="node">
<title>Node13</title>
<g id="a_node13"><a xlink:title=" ">
<polygon fill="none" stroke="#bfbfbf" points="121.5,-309.5 121.5,-328.5 159.5,-328.5 159.5,-309.5 121.5,-309.5"/>
<text text-anchor="middle" x="140.5" y="-316.5" font-family="Helvetica,sans-Serif" font-size="10.00">bool</text>
</a>
</g>
</g>
<!-- Node13&#45;&gt;Node5 -->
<g id="edge41" class="edge">
<title>Node13&#45;&gt;Node5</title>
<path fill="none" stroke="#9a32cd" stroke-dasharray="5,2" d="M169.23,-307.5C177.15,-304.47 185.84,-301.39 194,-299 231.47,-288.01 241.16,-285.02 280,-281 393.51,-269.25 456.95,-227.75 535,-311 592.18,-372 597.87,-657.97 598.44,-714.34"/>
<polygon fill="#9a32cd" stroke="#9a32cd" points="167.75,-304.32 159.72,-311.25 170.31,-310.84 167.75,-304.32"/>
<text text-anchor="middle" x="339.5" y="-295" font-family="Helvetica,sans-Serif" font-size="10.00"> ended</text>
<text text-anchor="middle" x="339.5" y="-284" font-family="Helvetica,sans-Serif" font-size="10.00">errored</text>
</g>
<!-- Node13&#45;&gt;Node11 -->
<g id="edge20" class="edge">
<title>Node13&#45;&gt;Node11</title>
<path fill="none" stroke="#9a32cd" stroke-dasharray="5,2" d="M169.57,-317.53C195.69,-317.54 234.61,-321.2 262,-340 274.82,-348.8 267.91,-360.22 280,-370 287.35,-375.94 296.55,-380.16 305.48,-383.14"/>
<polygon fill="#9a32cd" stroke="#9a32cd" points="169.5,-314.03 159.56,-317.7 169.62,-321.03 169.5,-314.03"/>
<text text-anchor="middle" x="228" y="-343" font-family="Helvetica,sans-Serif" font-size="10.00"> global</text>
</g>
<!-- Node13&#45;&gt;Node18 -->
<g id="edge33" class="edge">
<title>Node13&#45;&gt;Node18</title>
<path fill="none" stroke="#9a32cd" stroke-dasharray="5,2" d="M167.99,-333.39C171.16,-336.17 173.98,-339.37 176,-343 213.73,-410.88 150.26,-627.83 194,-692 216.61,-725.17 261.61,-739.37 295.42,-745.45"/>
<polygon fill="#9a32cd" stroke="#9a32cd" points="169.79,-330.37 159.65,-327.32 165.67,-336.03 169.79,-330.37"/>
<text text-anchor="middle" x="228" y="-740" font-family="Helvetica,sans-Serif" font-size="10.00"> global</text>
</g>
<!-- Node13&#45;&gt;Node25 -->
<g id="edge52" class="edge">
<title>Node13&#45;&gt;Node25</title>
<path fill="none" stroke="#9a32cd" stroke-dasharray="5,2" d="M169.54,-310.72C177.39,-308.77 185.96,-306.98 194,-306 224,-302.34 231.94,-302.89 262,-306 274.69,-307.31 288.37,-309.82 300.61,-312.46"/>
<polygon fill="#9a32cd" stroke="#9a32cd" points="168.53,-307.37 159.76,-313.32 170.32,-314.14 168.53,-307.37"/>
<text text-anchor="middle" x="228" y="-309" font-family="Helvetica,sans-Serif" font-size="10.00"> global</text>
</g>
<!-- Node14&#45;&gt;Node2 -->
<g id="edge60" class="edge">
<title>Node14&#45;&gt;Node2</title>
<path fill="none" stroke="#9a32cd" stroke-dasharray="5,2" d="M376.63,-210.97C416.33,-209.79 481.56,-211 535,-227 618.39,-251.97 705.09,-313.35 736.87,-337.25"/>
<polygon fill="#9a32cd" stroke="#9a32cd" points="376.5,-207.47 366.63,-211.33 376.75,-214.47 376.5,-207.47"/>
<text text-anchor="middle" x="599.5" y="-278" font-family="Helvetica,sans-Serif" font-size="10.00"> cons</text>
</g>
<!-- Node14&#45;&gt;Node5 -->
<g id="edge23" class="edge">
<title>Node14&#45;&gt;Node5</title>
<path fill="none" stroke="#9a32cd" stroke-dasharray="5,2" d="M376.59,-218.19C431.31,-226.21 529.54,-241.31 535,-247 602.26,-317.06 599.73,-653.31 598.69,-714.45"/>
<polygon fill="#9a32cd" stroke="#9a32cd" points="376.99,-214.71 366.59,-216.73 375.98,-221.64 376.99,-214.71"/>
<text text-anchor="middle" x="476" y="-250" font-family="Helvetica,sans-Serif" font-size="10.00"> cons</text>
</g>
<!-- Node15 -->
<g id="node15" class="node">
<title>Node15</title>
<g id="a_node15"><a xlink:title=" ">
<polygon fill="none" stroke="#bfbfbf" points="118,-212.5 118,-231.5 163,-231.5 163,-212.5 118,-212.5"/>
<text text-anchor="middle" x="140.5" y="-219.5" font-family="Helvetica,sans-Serif" font-size="10.00">size_t</text>
</a>
</g>
</g>
<!-- Node15&#45;&gt;Node14 -->
<g id="edge25" class="edge">
<title>Node15&#45;&gt;Node14</title>
<path fill="none" stroke="#9a32cd" stroke-dasharray="5,2" d="M173.5,-220.54C212.12,-218.77 276.32,-215.84 312.19,-214.2"/>
<polygon fill="#9a32cd" stroke="#9a32cd" points="173.16,-217.05 163.34,-221 173.48,-224.04 173.16,-217.05"/>
<text text-anchor="middle" x="228" y="-222" font-family="Helvetica,sans-Serif" font-size="10.00"> bufcnt</text>
</g>
<!-- Node16 -->
<g id="node16" class="node">
<title>Node16</title>
<g id="a_node16"><a xlink:title=" ">
<polygon fill="none" stroke="#bfbfbf" points="115.5,-95.5 115.5,-114.5 165.5,-114.5 165.5,-95.5 115.5,-95.5"/>
<text text-anchor="middle" x="140.5" y="-102.5" font-family="Helvetica,sans-Serif" font-size="10.00">uint8_t</text>
</a>
</g>
</g>
<!-- Node16&#45;&gt;Node2 -->
<g id="edge62" class="edge">
<title>Node16&#45;&gt;Node2</title>
<path fill="none" stroke="#9a32cd" stroke-dasharray="5,2" d="M175.84,-104.08C200.08,-103.99 233.24,-105.03 262,-110 438.07,-140.4 493.02,-136.68 646,-229 693.13,-257.44 730.32,-314.47 743.92,-337.26"/>
<polygon fill="#9a32cd" stroke="#9a32cd" points="175.66,-100.58 165.7,-104.18 175.73,-107.58 175.66,-100.58"/>
<text text-anchor="middle" x="476" y="-173" font-family="Helvetica,sans-Serif" font-size="10.00"> cpu</text>
</g>
<!-- Node16&#45;&gt;Node14 -->
<g id="edge26" class="edge">
<title>Node16&#45;&gt;Node14</title>
<path fill="none" stroke="#9a32cd" stroke-dasharray="5,2" d="M175.87,-106.53C201.11,-108.94 235.49,-114.98 262,-130 294.57,-148.45 321.12,-185.57 332.51,-203.23"/>
<polygon fill="#9a32cd" stroke="#9a32cd" points="175.91,-103.02 165.66,-105.71 175.34,-110 175.91,-103.02"/>
<text text-anchor="middle" x="228" y="-166" font-family="Helvetica,sans-Serif" font-size="10.00"> attributes</text>
<text text-anchor="middle" x="228" y="-155" font-family="Helvetica,sans-Serif" font-size="10.00">last</text>
<text text-anchor="middle" x="228" y="-144" font-family="Helvetica,sans-Serif" font-size="10.00">x</text>
<text text-anchor="middle" x="228" y="-133" font-family="Helvetica,sans-Serif" font-size="10.00">y</text>
</g>
<!-- Node17 -->
<g id="node17" class="node">
<title>Node17</title>
<g id="a_node17"><a xlink:title=" ">
<polygon fill="none" stroke="#bfbfbf" points="314.5,-1200.5 314.5,-1219.5 364.5,-1219.5 364.5,-1200.5 314.5,-1200.5"/>
<text text-anchor="middle" x="339.5" y="-1207.5" font-family="Helvetica,sans-Serif" font-size="10.00">int32_t</text>
</a>
</g>
</g>
<!-- Node17&#45;&gt;Node5 -->
<g id="edge28" class="edge">
<title>Node17&#45;&gt;Node5</title>
<path fill="none" stroke="#9a32cd" stroke-dasharray="5,2" d="M374.98,-1210.78C424.7,-1211.13 513.01,-1208.58 535,-1187 602.17,-1121.07 599.75,-794.38 598.7,-733.71"/>
<polygon fill="#9a32cd" stroke="#9a32cd" points="374.74,-1207.28 364.7,-1210.67 374.66,-1214.28 374.74,-1207.28"/>
<text text-anchor="middle" x="476" y="-1213" font-family="Helvetica,sans-Serif" font-size="10.00"> graphics_colour</text>
</g>
<!-- Node18&#45;&gt;Node5 -->
<g id="edge29" class="edge">
<title>Node18&#45;&gt;Node5</title>
<path fill="none" stroke="#9a32cd" stroke-dasharray="5,2" d="M393.66,-744.64C445.28,-739.44 522.02,-731.71 565.44,-727.33"/>
<polygon fill="#9a32cd" stroke="#9a32cd" points="393.28,-741.16 383.68,-745.65 393.98,-748.13 393.28,-741.16"/>
<text text-anchor="middle" x="476" y="-755" font-family="Helvetica,sans-Serif" font-size="10.00"> double_variables</text>
<text text-anchor="middle" x="476" y="-744" font-family="Helvetica,sans-Serif" font-size="10.00">local_double_variables</text>
</g>
<!-- Node18&#45;&gt;Node18 -->
<g id="edge32" class="edge">
<title>Node18&#45;&gt;Node18</title>
<path fill="none" stroke="#9a32cd" stroke-dasharray="5,2" d="M319.13,-769.4C320.49,-774.31 327.28,-778 339.5,-778 359.05,-778 364.7,-768.57 356.45,-759.76"/>
<polygon fill="#9a32cd" stroke="#9a32cd" points="322.51,-770.35 322.55,-759.76 315.91,-768.01 322.51,-770.35"/>
<text text-anchor="middle" x="339.5" y="-781" font-family="Helvetica,sans-Serif" font-size="10.00"> next</text>
</g>
<!-- Node19 -->
<g id="node19" class="node">
<title>Node19</title>
<g id="a_node19"><a xlink:title=" ">
<polygon fill="none" stroke="#bfbfbf" points="289,-1162.5 289,-1181.5 390,-1181.5 390,-1162.5 289,-1162.5"/>
<text text-anchor="middle" x="339.5" y="-1169.5" font-family="Helvetica,sans-Serif" font-size="10.00">struct hashmap *</text>
</a>
</g>
</g>
<!-- Node19&#45;&gt;Node5 -->
<g id="edge34" class="edge">
<title>Node19&#45;&gt;Node5</title>
<path fill="none" stroke="#9a32cd" stroke-dasharray="5,2" d="M400.12,-1172.95C450.1,-1172.41 516.24,-1168.11 535,-1150 597.14,-1090.02 598.84,-791.43 598.58,-733.68"/>
<polygon fill="#9a32cd" stroke="#9a32cd" points="400.01,-1169.45 390.04,-1173.02 400.06,-1176.45 400.01,-1169.45"/>
<text text-anchor="middle" x="476" y="-1175" font-family="Helvetica,sans-Serif" font-size="10.00"> lines</text>
</g>
<!-- Node20 -->
<g id="node20" class="node">
<title>Node20</title>
<g id="a_node20"><a xlink:title=" ">
<polygon fill="none" stroke="#bfbfbf" points="325,-1124.5 325,-1143.5 354,-1143.5 354,-1124.5 325,-1124.5"/>
<text text-anchor="middle" x="339.5" y="-1131.5" font-family="Helvetica,sans-Serif" font-size="10.00">int</text>
</a>
</g>
</g>
<!-- Node20&#45;&gt;Node5 -->
<g id="edge35" class="edge">
<title>Node20&#45;&gt;Node5</title>
<path fill="none" stroke="#9a32cd" stroke-dasharray="5,2" d="M364.08,-1128.65C415.23,-1117.02 532.03,-1090.16 535,-1087 585.01,-1033.69 596.33,-786.35 598.19,-733.82"/>
<polygon fill="#9a32cd" stroke="#9a32cd" points="363.21,-1125.26 354.23,-1130.89 364.76,-1132.09 363.21,-1125.26"/>
<text text-anchor="middle" x="476" y="-1141" font-family="Helvetica,sans-Serif" font-size="10.00"> bracket_depth</text>
<text text-anchor="middle" x="476" y="-1130" font-family="Helvetica,sans-Serif" font-size="10.00">current_token</text>
<text text-anchor="middle" x="476" y="-1119" font-family="Helvetica,sans-Serif" font-size="10.00">oldlen</text>
</g>
<!-- Node21&#45;&gt;Node5 -->
<g id="edge36" class="edge">
<title>Node21&#45;&gt;Node5</title>
<path fill="none" stroke="#9a32cd" stroke-dasharray="5,2" d="M398.7,-692.25C450.1,-700.42 523.22,-712.04 565.27,-718.72"/>
<polygon fill="#9a32cd" stroke="#9a32cd" points="399.15,-688.78 388.73,-690.66 398.05,-695.69 399.15,-688.78"/>
<text text-anchor="middle" x="476" y="-716" font-family="Helvetica,sans-Serif" font-size="10.00"> int_array_variables</text>
</g>
<!-- Node21&#45;&gt;Node21 -->
<g id="edge40" class="edge">
<title>Node21&#45;&gt;Node21</title>
<path fill="none" stroke="#9a32cd" stroke-dasharray="5,2" d="M319.13,-702.4C320.49,-707.31 327.28,-711 339.5,-711 359.05,-711 364.7,-701.57 356.45,-692.76"/>
<polygon fill="#9a32cd" stroke="#9a32cd" points="322.51,-703.35 322.55,-692.76 315.91,-701.01 322.51,-703.35"/>
<text text-anchor="middle" x="339.5" y="-714" font-family="Helvetica,sans-Serif" font-size="10.00"> next</text>
</g>
<!-- Node22&#45;&gt;Node5 -->
<g id="edge42" class="edge">
<title>Node22&#45;&gt;Node5</title>
<path fill="none" stroke="#9a32cd" stroke-dasharray="5,2" d="M395.17,-571.99C437.02,-576.72 494.29,-588.73 535,-619 569.02,-644.29 588.52,-693.71 595.52,-714.46"/>
<polygon fill="#9a32cd" stroke="#9a32cd" points="395.46,-568.5 385.15,-570.96 394.74,-575.46 395.46,-568.5"/>
<text text-anchor="middle" x="476" y="-622" font-family="Helvetica,sans-Serif" font-size="10.00"> defs</text>
</g>
<!-- Node22&#45;&gt;Node22 -->
<g id="edge46" class="edge">
<title>Node22&#45;&gt;Node22</title>
<path fill="none" stroke="#9a32cd" stroke-dasharray="5,2" d="M319.13,-588.4C320.49,-593.31 327.28,-597 339.5,-597 359.05,-597 364.7,-587.57 356.45,-578.76"/>
<polygon fill="#9a32cd" stroke="#9a32cd" points="322.51,-589.35 322.55,-578.76 315.91,-587.01 322.51,-589.35"/>
<text text-anchor="middle" x="339.5" y="-600" font-family="Helvetica,sans-Serif" font-size="10.00"> next</text>
</g>
<!-- Node23 -->
<g id="node23" class="node">
<title>Node23</title>
<g id="a_node23"><a xlink:title=" ">
<polygon fill="none" stroke="#bfbfbf" points="105,-593.5 105,-612.5 176,-612.5 176,-593.5 105,-593.5"/>
<text text-anchor="middle" x="140.5" y="-600.5" font-family="Helvetica,sans-Serif" font-size="10.00">ub_fn_type</text>
</a>
</g>
</g>
<!-- Node23&#45;&gt;Node22 -->
<g id="edge43" class="edge">
<title>Node23&#45;&gt;Node22</title>
<path fill="none" stroke="#9a32cd" stroke-dasharray="5,2" d="M186.29,-595.27C218.43,-589.72 261.56,-582.28 293.7,-576.73"/>
<polygon fill="#9a32cd" stroke="#9a32cd" points="185.53,-591.85 176.27,-597 186.72,-598.75 185.53,-591.85"/>
<text text-anchor="middle" x="228" y="-596" font-family="Helvetica,sans-Serif" font-size="10.00"> type</text>
</g>
<!-- Node24&#45;&gt;Node5 -->
<g id="edge58" class="edge">
<title>Node24&#45;&gt;Node5</title>
<path fill="none" stroke="#9a32cd" stroke-dasharray="5,2" d="M159.25,-657.18C168.81,-664.79 181.23,-673.04 194,-677 222.87,-685.95 234.97,-690.52 262,-677 273.93,-671.04 268.07,-658.96 280,-653 327.31,-629.35 346.63,-645.64 399,-653 461.27,-661.75 476.44,-669.08 535,-692 551.32,-698.39 569.08,-707.54 581.65,-714.42"/>
<polygon fill="#9a32cd" stroke="#9a32cd" points="161.26,-654.29 151.36,-650.52 156.74,-659.64 161.26,-654.29"/>
<text text-anchor="middle" x="339.5" y="-656" font-family="Helvetica,sans-Serif" font-size="10.00"> param</text>
</g>
<!-- Node24&#45;&gt;Node22 -->
<g id="edge47" class="edge">
<title>Node24&#45;&gt;Node22</title>
<path fill="none" stroke="#9a32cd" stroke-dasharray="5,2" d="M183.03,-631.85C206.57,-626.11 236.36,-617.93 262,-608 283.55,-599.66 307.05,-587.12 322.24,-578.53"/>
<polygon fill="#9a32cd" stroke="#9a32cd" points="181.94,-628.51 173.02,-634.23 183.56,-635.32 181.94,-628.51"/>
<text text-anchor="middle" x="228" y="-632" font-family="Helvetica,sans-Serif" font-size="10.00"> params</text>
</g>
<!-- Node24&#45;&gt;Node24 -->
<g id="edge49" class="edge">
<title>Node24&#45;&gt;Node24</title>
<path fill="none" stroke="#9a32cd" stroke-dasharray="5,2" d="M127.98,-660.77C128.96,-665.5 133.14,-669 140.5,-669 152.59,-669 156.08,-659.57 150.98,-650.76"/>
<polygon fill="#9a32cd" stroke="#9a32cd" points="131.45,-661.25 130.02,-650.76 124.59,-659.86 131.45,-661.25"/>
<text text-anchor="middle" x="140.5" y="-672" font-family="Helvetica,sans-Serif" font-size="10.00"> next</text>
</g>
<!-- Node25&#45;&gt;Node5 -->
<g id="edge50" class="edge">
<title>Node25&#45;&gt;Node5</title>
<path fill="none" stroke="#9a32cd" stroke-dasharray="5,2" d="M391.44,-316.06C435.54,-313.97 497.9,-318.82 535,-356 587.43,-408.55 596.87,-661.55 598.28,-714.34"/>
<polygon fill="#9a32cd" stroke="#9a32cd" points="390.98,-312.58 381.21,-316.69 391.41,-319.57 390.98,-312.58"/>
<text text-anchor="middle" x="476" y="-370" font-family="Helvetica,sans-Serif" font-size="10.00"> local_string_variables</text>
<text text-anchor="middle" x="476" y="-359" font-family="Helvetica,sans-Serif" font-size="10.00">str_variables</text>
</g>
<!-- Node25&#45;&gt;Node25 -->
<g id="edge53" class="edge">
<title>Node25&#45;&gt;Node25</title>
<path fill="none" stroke="#9a32cd" stroke-dasharray="5,2" d="M319.13,-341.4C320.49,-346.31 327.28,-350 339.5,-350 359.05,-350 364.7,-340.57 356.45,-331.76"/>
<polygon fill="#9a32cd" stroke="#9a32cd" points="322.51,-342.35 322.55,-331.76 315.91,-340.01 322.51,-342.35"/>
<text text-anchor="middle" x="339.5" y="-353" font-family="Helvetica,sans-Serif" font-size="10.00"> next</text>
</g>
<!-- Node26 -->
<g id="node26" class="node">
<title>Node26</title>
<g id="a_node26"><a xlink:title=" ">
<polygon fill="none" stroke="#bfbfbf" points="316.5,-883.5 316.5,-902.5 362.5,-902.5 362.5,-883.5 316.5,-883.5"/>
<text text-anchor="middle" x="339.5" y="-890.5" font-family="Helvetica,sans-Serif" font-size="10.00">void *</text>
</a>
</g>
</g>
<!-- Node26&#45;&gt;Node5 -->
<g id="edge54" class="edge">
<title>Node26&#45;&gt;Node5</title>
<path fill="none" stroke="#9a32cd" stroke-dasharray="5,2" d="M373.09,-892.41C421.69,-890.93 510.09,-885.66 535,-867 580.22,-833.13 593.88,-759.9 597.41,-733.62"/>
<polygon fill="#9a32cd" stroke="#9a32cd" points="372.7,-888.92 362.8,-892.69 372.89,-895.92 372.7,-888.92"/>
<text text-anchor="middle" x="476" y="-893" font-family="Helvetica,sans-Serif" font-size="10.00"> fn_return</text>
</g>
<!-- Node27&#45;&gt;Node5 -->
<g id="edge55" class="edge">
<title>Node27&#45;&gt;Node5</title>
<path fill="none" stroke="#9a32cd" stroke-dasharray="5,2" d="M379.71,-449.81C423.06,-444.26 492.38,-442.85 535,-480 571.79,-512.07 592.67,-673.42 597.44,-714.48"/>
<polygon fill="#9a32cd" stroke="#9a32cd" points="378.96,-446.38 369.55,-451.24 379.94,-453.31 378.96,-446.38"/>
<text text-anchor="middle" x="476" y="-483" font-family="Helvetica,sans-Serif" font-size="10.00"> for_stack</text>
</g>
<!-- Node28 -->
<g id="node28" class="node">
<title>Node28</title>
<g id="a_node28"><a xlink:title=" ">
<polygon fill="none" stroke="#bfbfbf" points="571.5,-0.5 571.5,-19.5 627.5,-19.5 627.5,-0.5 571.5,-0.5"/>
<text text-anchor="middle" x="599.5" y="-7.5" font-family="Helvetica,sans-Serif" font-size="10.00">uint32_t</text>
</a>
</g>
</g>
<!-- Node28&#45;&gt;Node1 -->
<g id="edge63" class="edge">
<title>Node28&#45;&gt;Node1</title>
<path fill="none" stroke="#9a32cd" stroke-dasharray="5,2" d="M637.85,-4.47C656.96,-2.74 680.46,-2.34 701,-7 763.44,-21.16 829.73,-60.95 858.18,-79.39"/>
<polygon fill="#9a32cd" stroke="#9a32cd" points="637.3,-1 627.73,-5.54 638.04,-7.96 637.3,-1"/>
<text text-anchor="middle" x="750.5" y="-38" font-family="Helvetica,sans-Serif" font-size="10.00"> id</text>
</g>
<!-- Node28&#45;&gt;Node2 -->
<g id="edge61" class="edge">
<title>Node28&#45;&gt;Node2</title>
<path fill="none" stroke="#9a32cd" stroke-dasharray="5,2" d="M637.97,-6.38C659.3,-6.48 684.9,-10.62 701,-27 745.71,-72.48 749.26,-288.91 749.5,-337.36"/>
<polygon fill="#9a32cd" stroke="#9a32cd" points="637.81,-2.88 627.9,-6.62 637.98,-9.88 637.81,-2.88"/>
<text text-anchor="middle" x="682.5" y="-74" font-family="Helvetica,sans-Serif" font-size="10.00"> gid</text>
<text text-anchor="middle" x="682.5" y="-63" font-family="Helvetica,sans-Serif" font-size="10.00">pid</text>
<text text-anchor="middle" x="682.5" y="-52" font-family="Helvetica,sans-Serif" font-size="10.00">ppid</text>
<text text-anchor="middle" x="682.5" y="-41" font-family="Helvetica,sans-Serif" font-size="10.00">uid</text>
<text text-anchor="middle" x="682.5" y="-30" font-family="Helvetica,sans-Serif" font-size="10.00">waitpid</text>
</g>
</g>
</svg>
