<?xml version="1.0" encoding="UTF-8" standalone="no"?>
<!DOCTYPE svg PUBLIC "-//W3C//DTD SVG 1.1//EN"
 "http://www.w3.org/Graphics/SVG/1.1/DTD/svg11.dtd">
<!-- Generated by graphviz version 2.43.0 (0)
 -->
<!-- Title: mountpoint_t Pages: 1 -->
<svg width="493pt" height="206pt"
 viewBox="0.00 0.00 493.00 206.00" xmlns="http://www.w3.org/2000/svg" xmlns:xlink="http://www.w3.org/1999/xlink">
<g id="graph0" class="graph" transform="scale(1 1) rotate(0) translate(4 202)">
<title>mountpoint_t</title>
<!-- Node1 -->
<g id="node1" class="node">
<title>Node1</title>
<g id="a_node1"><a xlink:title=" ">
<polygon fill="#bfbfbf" stroke="black" points="355.5,-0.5 355.5,-19.5 437.5,-19.5 437.5,-0.5 355.5,-0.5"/>
<text text-anchor="middle" x="396.5" y="-7.5" font-family="Helvetica,sans-Serif" font-size="10.00">mountpoint_t</text>
</a>
</g>
</g>
<!-- Node1&#45;&gt;Node1 -->
<g id="edge9" class="edge">
<title>Node1&#45;&gt;Node1</title>
<path fill="none" stroke="#9a32cd" stroke-dasharray="5,2" d="M447.76,-14.79C452.51,-13.81 455.5,-12.21 455.5,-10 455.5,-6.47 447.84,-4.5 437.58,-4.08"/>
<polygon fill="#9a32cd" stroke="#9a32cd" points="447.14,-11.34 437.58,-15.92 447.91,-18.3 447.14,-11.34"/>
<text text-anchor="middle" x="468" y="-7.5" font-family="Helvetica,sans-Serif" font-size="10.00"> next</text>
</g>
<!-- Node2 -->
<g id="node2" class="node">
<title>Node2</title>
<g id="a_node2"><a xlink:href="structfilesystem__t.html" target="_top" xlink:title="Defines a filesystem driver.">
<polygon fill="none" stroke="black" points="204,-67.5 204,-86.5 281,-86.5 281,-67.5 204,-67.5"/>
<text text-anchor="middle" x="242.5" y="-74.5" font-family="Helvetica,sans-Serif" font-size="10.00">filesystem_t</text>
</a>
</g>
</g>
<!-- Node2&#45;&gt;Node1 -->
<g id="edge1" class="edge">
<title>Node2&#45;&gt;Node1</title>
<path fill="none" stroke="#9a32cd" stroke-dasharray="5,2" d="M257.69,-60.49C266.11,-52.71 277.15,-43.73 288.5,-38 309.37,-27.46 334.64,-20.85 355.49,-16.81"/>
<polygon fill="#9a32cd" stroke="#9a32cd" points="255.25,-57.98 250.49,-67.45 260.11,-63.02 255.25,-57.98"/>
<text text-anchor="middle" x="335.5" y="-41" font-family="Helvetica,sans-Serif" font-size="10.00"> responsible_driver</text>
</g>
<!-- Node2&#45;&gt;Node2 -->
<g id="edge4" class="edge">
<title>Node2&#45;&gt;Node2</title>
<path fill="none" stroke="#9a32cd" stroke-dasharray="5,2" d="M291.22,-81.87C295.98,-80.89 299,-79.27 299,-77 299,-73.38 291.27,-71.39 281.06,-71.05"/>
<polygon fill="#9a32cd" stroke="#9a32cd" points="290.63,-78.41 281.06,-82.95 291.37,-85.38 290.63,-78.41"/>
<text text-anchor="middle" x="311.5" y="-74.5" font-family="Helvetica,sans-Serif" font-size="10.00"> next</text>
</g>
<!-- Node3 -->
<g id="node3" class="node">
<title>Node3</title>
<g id="a_node3"><a xlink:title=" ">
<polygon fill="none" stroke="#bfbfbf" points="113.5,-178.5 113.5,-197.5 169.5,-197.5 169.5,-178.5 113.5,-178.5"/>
<text text-anchor="middle" x="141.5" y="-185.5" font-family="Helvetica,sans-Serif" font-size="10.00">uint64_t</text>
</a>
</g>
</g>
<!-- Node3&#45;&gt;Node2 -->
<g id="edge2" class="edge">
<title>Node3&#45;&gt;Node2</title>
<path fill="none" stroke="#9a32cd" stroke-dasharray="5,2" d="M139.49,-168.04C138.63,-149.72 140.37,-122.27 155.5,-105 167.59,-91.2 186.59,-84.36 203.75,-81.01"/>
<polygon fill="#9a32cd" stroke="#9a32cd" points="136.01,-168.4 140.26,-178.1 142.99,-167.86 136.01,-168.4"/>
<text text-anchor="middle" x="180" y="-141" font-family="Helvetica,sans-Serif" font-size="10.00"> createdir</text>
<text text-anchor="middle" x="180" y="-130" font-family="Helvetica,sans-Serif" font-size="10.00">createfile</text>
<text text-anchor="middle" x="180" y="-119" font-family="Helvetica,sans-Serif" font-size="10.00">freespace</text>
</g>
<!-- Node4 -->
<g id="node4" class="node">
<title>Node4</title>
<g id="a_node4"><a xlink:title=" ">
<polygon fill="none" stroke="#bfbfbf" points="0,-178.5 0,-197.5 95,-197.5 95,-178.5 0,-178.5"/>
<text text-anchor="middle" x="47.5" y="-185.5" font-family="Helvetica,sans-Serif" font-size="10.00">void *(*)(void *)</text>
</a>
</g>
</g>
<!-- Node4&#45;&gt;Node2 -->
<g id="edge3" class="edge">
<title>Node4&#45;&gt;Node2</title>
<path fill="none" stroke="#9a32cd" stroke-dasharray="5,2" d="M54.76,-169.04C63.43,-150.01 79.8,-120.59 103.5,-105 133.38,-85.35 174.2,-79.31 203.87,-77.76"/>
<polygon fill="#9a32cd" stroke="#9a32cd" points="51.48,-167.83 50.74,-178.4 57.91,-170.59 51.48,-167.83"/>
<text text-anchor="middle" x="119.5" y="-130" font-family="Helvetica,sans-Serif" font-size="10.00"> getdir</text>
</g>
<!-- Node5 -->
<g id="node5" class="node">
<title>Node5</title>
<g id="a_node5"><a xlink:title=" ">
<polygon fill="none" stroke="#bfbfbf" points="354.5,-178.5 354.5,-197.5 392.5,-197.5 392.5,-178.5 354.5,-178.5"/>
<text text-anchor="middle" x="373.5" y="-185.5" font-family="Helvetica,sans-Serif" font-size="10.00">char</text>
</a>
</g>
</g>
<!-- Node5&#45;&gt;Node1 -->
<g id="edge8" class="edge">
<title>Node5&#45;&gt;Node1</title>
<path fill="none" stroke="#9a32cd" stroke-dasharray="5,2" d="M380.26,-168.56C381.12,-165.72 381.91,-162.8 382.5,-160 393.59,-107.37 395.9,-42.43 396.38,-19.5"/>
<polygon fill="#9a32cd" stroke="#9a32cd" points="376.91,-167.55 377.02,-178.14 383.54,-169.79 376.91,-167.55"/>
<text text-anchor="middle" x="406" y="-74.5" font-family="Helvetica,sans-Serif" font-size="10.00"> path</text>
</g>
<!-- Node5&#45;&gt;Node2 -->
<g id="edge5" class="edge">
<title>Node5&#45;&gt;Node2</title>
<path fill="none" stroke="#9a32cd" stroke-dasharray="5,2" d="M359.15,-170.6C356.46,-167.2 353.78,-163.56 351.5,-160 336.8,-137.07 345.04,-122.88 324.5,-105 312.4,-94.47 296.09,-88.03 281.21,-84.09"/>
<polygon fill="#9a32cd" stroke="#9a32cd" points="356.55,-172.94 365.63,-178.39 361.93,-168.46 356.55,-172.94"/>
<text text-anchor="middle" x="367" y="-130" font-family="Helvetica,sans-Serif" font-size="10.00"> name</text>
</g>
<!-- Node6 -->
<g id="node6" class="node">
<title>Node6</title>
<g id="a_node6"><a xlink:title=" ">
<polygon fill="none" stroke="#bfbfbf" points="199,-178.5 199,-197.5 228,-197.5 228,-178.5 199,-178.5"/>
<text text-anchor="middle" x="213.5" y="-185.5" font-family="Helvetica,sans-Serif" font-size="10.00">int</text>
</a>
</g>
</g>
<!-- Node6&#45;&gt;Node2 -->
<g id="edge6" class="edge">
<title>Node6&#45;&gt;Node2</title>
<path fill="none" stroke="#9a32cd" stroke-dasharray="5,2" d="M209.8,-168.52C207.24,-151.33 205.7,-125.37 214.5,-105 217.66,-97.69 223.86,-91.38 229.62,-86.7"/>
<polygon fill="#9a32cd" stroke="#9a32cd" points="206.36,-169.16 211.53,-178.41 213.25,-167.96 206.36,-169.16"/>
<text text-anchor="middle" x="232" y="-130" font-family="Helvetica,sans-Serif" font-size="10.00"> mount</text>
</g>
<!-- Node7 -->
<g id="node7" class="node">
<title>Node7</title>
<g id="a_node7"><a xlink:title=" ">
<polygon fill="none" stroke="#bfbfbf" points="252.5,-178.5 252.5,-197.5 290.5,-197.5 290.5,-178.5 252.5,-178.5"/>
<text text-anchor="middle" x="271.5" y="-185.5" font-family="Helvetica,sans-Serif" font-size="10.00">bool</text>
</a>
</g>
</g>
<!-- Node7&#45;&gt;Node2 -->
<g id="edge7" class="edge">
<title>Node7&#45;&gt;Node2</title>
<path fill="none" stroke="#9a32cd" stroke-dasharray="5,2" d="M266.58,-168.52C260.23,-144.64 249.44,-104.07 244.77,-86.51"/>
<polygon fill="#9a32cd" stroke="#9a32cd" points="263.27,-169.68 269.22,-178.45 270.04,-167.88 263.27,-169.68"/>
<text text-anchor="middle" x="292.5" y="-152" font-family="Helvetica,sans-Serif" font-size="10.00"> readfile</text>
<text text-anchor="middle" x="292.5" y="-141" font-family="Helvetica,sans-Serif" font-size="10.00">rm</text>
<text text-anchor="middle" x="292.5" y="-130" font-family="Helvetica,sans-Serif" font-size="10.00">rmdir</text>
<text text-anchor="middle" x="292.5" y="-119" font-family="Helvetica,sans-Serif" font-size="10.00">truncatefile</text>
<text text-anchor="middle" x="292.5" y="-108" font-family="Helvetica,sans-Serif" font-size="10.00">writefile</text>
</g>
<!-- Node8 -->
<g id="node8" class="node">
<title>Node8</title>
<g id="a_node8"><a xlink:title=" ">
<polygon fill="none" stroke="#bfbfbf" points="440,-67.5 440,-86.5 485,-86.5 485,-67.5 440,-67.5"/>
<text text-anchor="middle" x="462.5" y="-74.5" font-family="Helvetica,sans-Serif" font-size="10.00">size_t</text>
</a>
</g>
</g>
<!-- Node8&#45;&gt;Node1 -->
<g id="edge10" class="edge">
<title>Node8&#45;&gt;Node1</title>
<path fill="none" stroke="#9a32cd" stroke-dasharray="5,2" d="M446.25,-60C433.31,-47.25 415.69,-29.89 405.26,-19.63"/>
<polygon fill="#9a32cd" stroke="#9a32cd" points="444.02,-62.71 453.6,-67.23 448.93,-57.72 444.02,-62.71"/>
<text text-anchor="middle" x="442" y="-41" font-family="Helvetica,sans-Serif" font-size="10.00"> len</text>
</g>
</g>
</svg>
