<?xml version="1.0" encoding="UTF-8" standalone="no"?>
<!DOCTYPE svg PUBLIC "-//W3C//DTD SVG 1.1//EN"
 "http://www.w3.org/Graphics/SVG/1.1/DTD/svg11.dtd">
<!-- Generated by graphviz version 2.43.0 (0)
 -->
<!-- Title: map_iter Pages: 1 -->
<svg width="320pt" height="362pt"
 viewBox="0.00 0.00 319.50 362.00" xmlns="http://www.w3.org/2000/svg" xmlns:xlink="http://www.w3.org/1999/xlink">
<g id="graph0" class="graph" transform="scale(1 1) rotate(0) translate(4 358)">
<title>map_iter</title>
<!-- Node1 -->
<g id="node1" class="node">
<title>Node1</title>
<g id="a_node1"><a xlink:title=" ">
<polygon fill="#bfbfbf" stroke="black" points="131,-0.5 131,-19.5 191,-19.5 191,-0.5 131,-0.5"/>
<text text-anchor="middle" x="161" y="-7.5" font-family="Helvetica,sans-Serif" font-size="10.00">map_iter</text>
</a>
</g>
</g>
<!-- Node2 -->
<g id="node2" class="node">
<title>Node2</title>
<g id="a_node2"><a xlink:href="structmap.html" target="_top" xlink:title="Ordered key→value container (red–black tree).">
<polygon fill="none" stroke="black" points="142,-67.5 142,-86.5 180,-86.5 180,-67.5 142,-67.5"/>
<text text-anchor="middle" x="161" y="-74.5" font-family="Helvetica,sans-Serif" font-size="10.00">map</text>
</a>
</g>
</g>
<!-- Node2&#45;&gt;Node1 -->
<g id="edge1" class="edge">
<title>Node2&#45;&gt;Node1</title>
<path fill="none" stroke="#9a32cd" stroke-dasharray="5,2" d="M161,-57.04C161,-44.67 161,-29.12 161,-19.63"/>
<polygon fill="#9a32cd" stroke="#9a32cd" points="157.5,-57.23 161,-67.23 164.5,-57.23 157.5,-57.23"/>
<text text-anchor="middle" x="178" y="-41" font-family="Helvetica,sans-Serif" font-size="10.00"> owner</text>
</g>
<!-- Node3 -->
<g id="node3" class="node">
<title>Node3</title>
<g id="a_node3"><a xlink:href="structvector.html" target="_top" xlink:title="Contiguous dynamic array of uintptr_t.">
<polygon fill="none" stroke="black" points="79.5,-256.5 79.5,-275.5 126.5,-275.5 126.5,-256.5 79.5,-256.5"/>
<text text-anchor="middle" x="103" y="-263.5" font-family="Helvetica,sans-Serif" font-size="10.00">vector</text>
</a>
</g>
</g>
<!-- Node3&#45;&gt;Node2 -->
<g id="edge2" class="edge">
<title>Node3&#45;&gt;Node2</title>
<path fill="none" stroke="#9a32cd" stroke-dasharray="5,2" d="M96.14,-246.73C87.45,-220.42 75.55,-170.98 93,-134 103.38,-112.01 127.1,-95.73 143.58,-86.56"/>
<polygon fill="#9a32cd" stroke="#9a32cd" points="92.85,-247.92 99.47,-256.19 99.46,-245.59 92.85,-247.92"/>
<text text-anchor="middle" x="111.5" y="-141.5" font-family="Helvetica,sans-Serif" font-size="10.00"> free_ix</text>
</g>
<!-- Node6 -->
<g id="node6" class="node">
<title>Node6</title>
<g id="a_node6"><a xlink:href="structmap__soa.html" target="_top" xlink:title=" ">
<polygon fill="none" stroke="black" points="203.5,-134.5 203.5,-153.5 264.5,-153.5 264.5,-134.5 203.5,-134.5"/>
<text text-anchor="middle" x="234" y="-141.5" font-family="Helvetica,sans-Serif" font-size="10.00">map_soa</text>
</a>
</g>
</g>
<!-- Node3&#45;&gt;Node6 -->
<g id="edge6" class="edge">
<title>Node3&#45;&gt;Node6</title>
<path fill="none" stroke="#9a32cd" stroke-dasharray="5,2" d="M119.84,-249.57C147.77,-223.99 202.75,-173.63 224.66,-153.55"/>
<polygon fill="#9a32cd" stroke="#9a32cd" points="117.43,-247.03 112.42,-256.37 122.16,-252.2 117.43,-247.03"/>
<text text-anchor="middle" x="219" y="-230" font-family="Helvetica,sans-Serif" font-size="10.00"> colour</text>
<text text-anchor="middle" x="219" y="-219" font-family="Helvetica,sans-Serif" font-size="10.00">keys</text>
<text text-anchor="middle" x="219" y="-208" font-family="Helvetica,sans-Serif" font-size="10.00">left</text>
<text text-anchor="middle" x="219" y="-197" font-family="Helvetica,sans-Serif" font-size="10.00">parent</text>
<text text-anchor="middle" x="219" y="-186" font-family="Helvetica,sans-Serif" font-size="10.00">right</text>
<text text-anchor="middle" x="219" y="-175" font-family="Helvetica,sans-Serif" font-size="10.00">vals</text>
</g>
<!-- Node4 -->
<g id="node4" class="node">
<title>Node4</title>
<g id="a_node4"><a xlink:title=" ">
<polygon fill="none" stroke="#bfbfbf" points="106,-334.5 106,-353.5 172,-353.5 172,-334.5 106,-334.5"/>
<text text-anchor="middle" x="139" y="-341.5" font-family="Helvetica,sans-Serif" font-size="10.00">uintptr_t *</text>
</a>
</g>
</g>
<!-- Node4&#45;&gt;Node3 -->
<g id="edge3" class="edge">
<title>Node4&#45;&gt;Node3</title>
<path fill="none" stroke="#9a32cd" stroke-dasharray="5,2" d="M131.15,-324.88C127.06,-315.59 121.89,-304.13 117,-294 114.06,-287.91 110.56,-281.16 107.79,-275.94"/>
<polygon fill="#9a32cd" stroke="#9a32cd" points="128.04,-326.49 135.25,-334.26 134.46,-323.69 128.04,-326.49"/>
<text text-anchor="middle" x="138.5" y="-302.5" font-family="Helvetica,sans-Serif" font-size="10.00"> data</text>
</g>
<!-- Node5 -->
<g id="node5" class="node">
<title>Node5</title>
<g id="a_node5"><a xlink:title=" ">
<polygon fill="none" stroke="#bfbfbf" points="15.5,-334.5 15.5,-353.5 60.5,-353.5 60.5,-334.5 15.5,-334.5"/>
<text text-anchor="middle" x="38" y="-341.5" font-family="Helvetica,sans-Serif" font-size="10.00">size_t</text>
</a>
</g>
</g>
<!-- Node5&#45;&gt;Node1 -->
<g id="edge10" class="edge">
<title>Node5&#45;&gt;Node1</title>
<path fill="none" stroke="#9a32cd" stroke-dasharray="5,2" d="M24.01,-326.29C13.17,-311.63 0,-289.23 0,-267 0,-267 0,-267 0,-76 0,-20.23 84.08,-11.12 130.72,-10.36"/>
<polygon fill="#9a32cd" stroke="#9a32cd" points="21.39,-328.63 30.31,-334.35 26.9,-324.32 21.39,-328.63"/>
<text text-anchor="middle" x="3.5" y="-141.5" font-family="Helvetica,sans-Serif" font-size="10.00"> i</text>
</g>
<!-- Node5&#45;&gt;Node2 -->
<g id="edge7" class="edge">
<title>Node5&#45;&gt;Node2</title>
<path fill="none" stroke="#9a32cd" stroke-dasharray="5,2" d="M35.86,-324.24C32.92,-291.93 30.04,-224.24 50,-172 63.46,-136.79 72.45,-128.41 102,-105 113.92,-95.56 129.68,-88.56 141.91,-84.06"/>
<polygon fill="#9a32cd" stroke="#9a32cd" points="32.4,-324.85 36.9,-334.44 39.37,-324.14 32.4,-324.85"/>
<text text-anchor="middle" x="65.5" y="-208" font-family="Helvetica,sans-Serif" font-size="10.00"> count</text>
<text text-anchor="middle" x="65.5" y="-197" font-family="Helvetica,sans-Serif" font-size="10.00">root</text>
</g>
<!-- Node5&#45;&gt;Node3 -->
<g id="edge4" class="edge">
<title>Node5&#45;&gt;Node3</title>
<path fill="none" stroke="#9a32cd" stroke-dasharray="5,2" d="M46.67,-325.51C52.03,-315.66 59.5,-303.46 68,-294 74.25,-287.03 82.5,-280.57 89.41,-275.72"/>
<polygon fill="#9a32cd" stroke="#9a32cd" points="43.55,-323.91 42.05,-334.4 49.76,-327.14 43.55,-323.91"/>
<text text-anchor="middle" x="90.5" y="-308" font-family="Helvetica,sans-Serif" font-size="10.00"> capacity</text>
<text text-anchor="middle" x="90.5" y="-297" font-family="Helvetica,sans-Serif" font-size="10.00">count</text>
</g>
<!-- Node6&#45;&gt;Node2 -->
<g id="edge5" class="edge">
<title>Node6&#45;&gt;Node2</title>
<path fill="none" stroke="#9a32cd" stroke-dasharray="5,2" d="M221.52,-126.11C215.96,-119.16 209.07,-111.29 202,-105 194.1,-97.98 184.23,-91.42 176.16,-86.53"/>
<polygon fill="#9a32cd" stroke="#9a32cd" points="218.9,-128.44 227.77,-134.23 224.44,-124.17 218.9,-128.44"/>
<text text-anchor="middle" x="217" y="-108" font-family="Helvetica,sans-Serif" font-size="10.00"> a</text>
</g>
<!-- Node7 -->
<g id="node7" class="node">
<title>Node7</title>
<g id="a_node7"><a xlink:title=" ">
<polygon fill="none" stroke="#bfbfbf" points="282.5,-134.5 282.5,-153.5 311.5,-153.5 311.5,-134.5 282.5,-134.5"/>
<text text-anchor="middle" x="297" y="-141.5" font-family="Helvetica,sans-Serif" font-size="10.00">int</text>
</a>
</g>
</g>
<!-- Node7&#45;&gt;Node1 -->
<g id="edge11" class="edge">
<title>Node7&#45;&gt;Node1</title>
<path fill="none" stroke="#9a32cd" stroke-dasharray="5,2" d="M288.87,-125.32C285.39,-118.63 280.97,-111.14 276,-105 245.69,-67.5 198.3,-34.63 174.95,-19.63"/>
<polygon fill="#9a32cd" stroke="#9a32cd" points="285.74,-126.87 293.27,-134.32 292.03,-123.8 285.74,-126.87"/>
<text text-anchor="middle" x="273" y="-74.5" font-family="Helvetica,sans-Serif" font-size="10.00"> state</text>
</g>
<!-- Node7&#45;&gt;Node2 -->
<g id="edge8" class="edge">
<title>Node7&#45;&gt;Node2</title>
<path fill="none" stroke="#9a32cd" stroke-dasharray="5,2" d="M273.49,-129.67C259.8,-122.1 242.12,-112.64 226,-105 210.87,-97.83 193.32,-90.6 180.27,-85.43"/>
<polygon fill="#9a32cd" stroke="#9a32cd" points="271.82,-132.75 282.26,-134.56 275.23,-126.63 271.82,-132.75"/>
<text text-anchor="middle" x="259.5" y="-108" font-family="Helvetica,sans-Serif" font-size="10.00"> cmp</text>
</g>
<!-- Node8 -->
<g id="node8" class="node">
<title>Node8</title>
<g id="a_node8"><a xlink:title=" ">
<polygon fill="none" stroke="#bfbfbf" points="139,-134.5 139,-153.5 185,-153.5 185,-134.5 139,-134.5"/>
<text text-anchor="middle" x="162" y="-141.5" font-family="Helvetica,sans-Serif" font-size="10.00">void *</text>
</a>
</g>
</g>
<!-- Node8&#45;&gt;Node2 -->
<g id="edge9" class="edge">
<title>Node8&#45;&gt;Node2</title>
<path fill="none" stroke="#9a32cd" stroke-dasharray="5,2" d="M161.71,-124.04C161.52,-111.67 161.28,-96.12 161.13,-86.63"/>
<polygon fill="#9a32cd" stroke="#9a32cd" points="158.21,-124.29 161.87,-134.23 165.21,-124.18 158.21,-124.29"/>
<text text-anchor="middle" x="181" y="-108" font-family="Helvetica,sans-Serif" font-size="10.00"> opaque</text>
</g>
</g>
</svg>
