<?xml version="1.0" encoding="UTF-8" standalone="no"?>
<!DOCTYPE svg PUBLIC "-//W3C//DTD SVG 1.1//EN"
 "http://www.w3.org/Graphics/SVG/1.1/DTD/svg11.dtd">
<!-- Generated by graphviz version 2.43.0 (0)
 -->
<!-- Title: process_t Pages: 1 -->
<svg width="790pt" height="1444pt"
 viewBox="0.00 0.00 790.00 1443.88" xmlns="http://www.w3.org/2000/svg" xmlns:xlink="http://www.w3.org/1999/xlink">
<g id="graph0" class="graph" transform="scale(1 1) rotate(0) translate(4 1439.88)">
<title>process_t</title>
<!-- Node1 -->
<g id="node1" class="node">
<title>Node1</title>
<g id="a_node1"><a xlink:title=" ">
<polygon fill="#bfbfbf" stroke="black" points="719,-1262.38 719,-1281.38 782,-1281.38 782,-1262.38 719,-1262.38"/>
<text text-anchor="middle" x="750.5" y="-1269.38" font-family="Helvetica,sans-Serif" font-size="10.00">process_t</text>
</a>
</g>
</g>
<!-- Node1&#45;&gt;Node1 -->
<g id="edge64" class="edge">
<title>Node1&#45;&gt;Node1</title>
<path fill="none" stroke="#9a32cd" stroke-dasharray="5,2" d="M737.98,-1291.64C738.96,-1296.37 743.14,-1299.88 750.5,-1299.88 762.59,-1299.88 766.08,-1290.44 760.98,-1281.64"/>
<polygon fill="#9a32cd" stroke="#9a32cd" points="741.45,-1292.13 740.02,-1281.64 734.59,-1290.73 741.45,-1292.13"/>
<text text-anchor="middle" x="750.5" y="-1313.88" font-family="Helvetica,sans-Serif" font-size="10.00"> next</text>
<text text-anchor="middle" x="750.5" y="-1302.88" font-family="Helvetica,sans-Serif" font-size="10.00">prev</text>
</g>
<!-- Node2 -->
<g id="node2" class="node">
<title>Node2</title>
<g id="a_node2"><a xlink:title=" ">
<polygon fill="none" stroke="black" points="571.5,-1384.38 571.5,-1403.38 627.5,-1403.38 627.5,-1384.38 571.5,-1384.38"/>
<text text-anchor="middle" x="599.5" y="-1391.38" font-family="Helvetica,sans-Serif" font-size="10.00">uint32_t</text>
</a>
</g>
</g>
<!-- Node2&#45;&gt;Node1 -->
<g id="edge1" class="edge">
<title>Node2&#45;&gt;Node1</title>
<path fill="none" stroke="#9a32cd" stroke-dasharray="5,2" d="M637.89,-1388.96C658.38,-1384.67 683.16,-1376.68 701,-1361.88 727.37,-1340.01 741.54,-1299.96 746.92,-1281.57"/>
<polygon fill="#9a32cd" stroke="#9a32cd" points="637.11,-1385.55 627.93,-1390.83 638.41,-1392.42 637.11,-1385.55"/>
<text text-anchor="middle" x="682.5" y="-1427.88" font-family="Helvetica,sans-Serif" font-size="10.00"> gid</text>
<text text-anchor="middle" x="682.5" y="-1416.88" font-family="Helvetica,sans-Serif" font-size="10.00">pid</text>
<text text-anchor="middle" x="682.5" y="-1405.88" font-family="Helvetica,sans-Serif" font-size="10.00">ppid</text>
<text text-anchor="middle" x="682.5" y="-1394.88" font-family="Helvetica,sans-Serif" font-size="10.00">uid</text>
<text text-anchor="middle" x="682.5" y="-1383.88" font-family="Helvetica,sans-Serif" font-size="10.00">waitpid</text>
</g>
<!-- Node3 -->
<g id="node3" class="node">
<title>Node3</title>
<g id="a_node3"><a xlink:title=" ">
<polygon fill="none" stroke="black" points="553,-1346.38 553,-1365.38 646,-1365.38 646,-1346.38 553,-1346.38"/>
<text text-anchor="middle" x="599.5" y="-1353.38" font-family="Helvetica,sans-Serif" font-size="10.00">process_state_t</text>
</a>
</g>
</g>
<!-- Node3&#45;&gt;Node1 -->
<g id="edge2" class="edge">
<title>Node3&#45;&gt;Node1</title>
<path fill="none" stroke="#9a32cd" stroke-dasharray="5,2" d="M655.98,-1349.39C671.38,-1345.84 687.56,-1340.36 701,-1331.88 721.17,-1319.16 736.74,-1295.12 744.35,-1281.65"/>
<polygon fill="#9a32cd" stroke="#9a32cd" points="655.08,-1346 646,-1351.45 656.5,-1352.85 655.08,-1346"/>
<text text-anchor="middle" x="682.5" y="-1349.88" font-family="Helvetica,sans-Serif" font-size="10.00"> state</text>
</g>
<!-- Node4 -->
<g id="node4" class="node">
<title>Node4</title>
<g id="a_node4"><a xlink:title=" ">
<polygon fill="none" stroke="black" points="112.5,-876.38 112.5,-895.38 168.5,-895.38 168.5,-876.38 112.5,-876.38"/>
<text text-anchor="middle" x="140.5" y="-883.38" font-family="Helvetica,sans-Serif" font-size="10.00">uint64_t</text>
</a>
</g>
</g>
<!-- Node4&#45;&gt;Node1 -->
<g id="edge3" class="edge">
<title>Node4&#45;&gt;Node1</title>
<path fill="none" stroke="#9a32cd" stroke-dasharray="5,2" d="M144.62,-905.56C153.76,-962.38 180.64,-1123.88 194,-1143.88 200.4,-1153.46 269.26,-1197.7 280,-1201.88 290.35,-1205.9 615.97,-1252.75 718.74,-1267.48"/>
<polygon fill="#9a32cd" stroke="#9a32cd" points="148.08,-904.99 143.04,-895.67 141.16,-906.09 148.08,-904.99"/>
<text text-anchor="middle" x="476" y="-1253.88" font-family="Helvetica,sans-Serif" font-size="10.00"> size</text>
<text text-anchor="middle" x="476" y="-1242.88" font-family="Helvetica,sans-Serif" font-size="10.00">start_time</text>
</g>
<!-- Node9 -->
<g id="node9" class="node">
<title>Node9</title>
<g id="a_node9"><a xlink:href="structbasic__ctx.html" target="_top" xlink:title="BASIC program context. Every instance of a BASIC program has one of these,* also certain structures s...">
<polygon fill="none" stroke="black" points="568.5,-640.38 568.5,-659.38 630.5,-659.38 630.5,-640.38 568.5,-640.38"/>
<text text-anchor="middle" x="599.5" y="-647.38" font-family="Helvetica,sans-Serif" font-size="10.00">basic_ctx</text>
</a>
</g>
</g>
<!-- Node4&#45;&gt;Node9 -->
<g id="edge29" class="edge">
<title>Node4&#45;&gt;Node9</title>
<path fill="none" stroke="#9a32cd" stroke-dasharray="5,2" d="M178.38,-895.08C256.53,-912.14 439.47,-938.7 535,-841.88 587.53,-788.65 596.6,-691.08 598.17,-659.8"/>
<polygon fill="#9a32cd" stroke="#9a32cd" points="179.03,-891.64 168.5,-892.85 177.49,-898.47 179.03,-891.64"/>
<text text-anchor="middle" x="339.5" y="-968.88" font-family="Helvetica,sans-Serif" font-size="10.00"> call_stack</text>
<text text-anchor="middle" x="339.5" y="-957.88" font-family="Helvetica,sans-Serif" font-size="10.00">call_stack_ptr</text>
<text text-anchor="middle" x="339.5" y="-946.88" font-family="Helvetica,sans-Serif" font-size="10.00">for_stack_ptr</text>
<text text-anchor="middle" x="339.5" y="-935.88" font-family="Helvetica,sans-Serif" font-size="10.00">if_nest_level</text>
<text text-anchor="middle" x="339.5" y="-924.88" font-family="Helvetica,sans-Serif" font-size="10.00">repeat_stack</text>
<text text-anchor="middle" x="339.5" y="-913.88" font-family="Helvetica,sans-Serif" font-size="10.00">repeat_stack_ptr</text>
</g>
<!-- Node21 -->
<g id="node21" class="node">
<title>Node21</title>
<g id="a_node21"><a xlink:href="structub__var__int__array.html" target="_top" xlink:title="An array of integers.">
<polygon fill="none" stroke="black" points="290.5,-764.38 290.5,-783.38 388.5,-783.38 388.5,-764.38 290.5,-764.38"/>
<text text-anchor="middle" x="339.5" y="-771.38" font-family="Helvetica,sans-Serif" font-size="10.00">ub_var_int_array</text>
</a>
</g>
</g>
<!-- Node4&#45;&gt;Node21 -->
<g id="edge43" class="edge">
<title>Node4&#45;&gt;Node21</title>
<path fill="none" stroke="#9a32cd" stroke-dasharray="5,2" d="M165.16,-870.25C168.87,-867.57 172.6,-864.72 176,-861.88 184.68,-854.62 184.78,-850.44 194,-843.88 232.16,-816.73 282.47,-795.07 312.54,-783.38"/>
<polygon fill="#9a32cd" stroke="#9a32cd" points="162.9,-867.57 156.7,-876.16 166.9,-873.31 162.9,-867.57"/>
<text text-anchor="middle" x="228" y="-846.88" font-family="Helvetica,sans-Serif" font-size="10.00"> itemcount</text>
</g>
<!-- Node22 -->
<g id="node22" class="node">
<title>Node22</title>
<g id="a_node22"><a xlink:href="structub__var__string__array.html" target="_top" xlink:title="An array of strings.">
<polygon fill="none" stroke="black" points="283,-831.38 283,-850.38 396,-850.38 396,-831.38 283,-831.38"/>
<text text-anchor="middle" x="339.5" y="-838.38" font-family="Helvetica,sans-Serif" font-size="10.00">ub_var_string_array</text>
</a>
</g>
</g>
<!-- Node4&#45;&gt;Node22 -->
<g id="edge48" class="edge">
<title>Node4&#45;&gt;Node22</title>
<path fill="none" stroke="#9a32cd" stroke-dasharray="5,2" d="M178.77,-877.36C212.33,-869.7 261.62,-858.44 296.55,-850.46"/>
<polygon fill="#9a32cd" stroke="#9a32cd" points="177.86,-873.98 168.89,-879.62 179.42,-880.81 177.86,-873.98"/>
<text text-anchor="middle" x="228" y="-875.88" font-family="Helvetica,sans-Serif" font-size="10.00"> itemcount</text>
</g>
<!-- Node23 -->
<g id="node23" class="node">
<title>Node23</title>
<g id="a_node23"><a xlink:href="structub__var__double__array.html" target="_top" xlink:title="An array of real (double)">
<polygon fill="none" stroke="black" points="280,-697.38 280,-716.38 399,-716.38 399,-697.38 280,-697.38"/>
<text text-anchor="middle" x="339.5" y="-704.38" font-family="Helvetica,sans-Serif" font-size="10.00">ub_var_double_array</text>
</a>
</g>
</g>
<!-- Node4&#45;&gt;Node23 -->
<g id="edge52" class="edge">
<title>Node4&#45;&gt;Node23</title>
<path fill="none" stroke="#9a32cd" stroke-dasharray="5,2" d="M168.62,-870.02C171.39,-867.57 173.94,-864.85 176,-861.88 194.53,-835.11 174.4,-816.87 194,-790.88 223.01,-752.42 275.15,-728.52 308.23,-716.47"/>
<polygon fill="#9a32cd" stroke="#9a32cd" points="166.28,-867.4 160.41,-876.22 170.5,-872.98 166.28,-867.4"/>
<text text-anchor="middle" x="228" y="-793.88" font-family="Helvetica,sans-Serif" font-size="10.00"> itemcount</text>
</g>
<!-- Node5 -->
<g id="node5" class="node">
<title>Node5</title>
<g id="a_node5"><a xlink:title=" ">
<polygon fill="none" stroke="black" points="115.5,-1255.38 115.5,-1274.38 165.5,-1274.38 165.5,-1255.38 115.5,-1255.38"/>
<text text-anchor="middle" x="140.5" y="-1262.38" font-family="Helvetica,sans-Serif" font-size="10.00">uint8_t</text>
</a>
</g>
</g>
<!-- Node5&#45;&gt;Node1 -->
<g id="edge4" class="edge">
<title>Node5&#45;&gt;Node1</title>
<path fill="none" stroke="#9a32cd" stroke-dasharray="5,2" d="M175.74,-1265.27C283.74,-1266.52 616.18,-1270.34 718.92,-1271.53"/>
<polygon fill="#9a32cd" stroke="#9a32cd" points="175.75,-1261.77 165.71,-1265.16 175.67,-1268.77 175.75,-1261.77"/>
<text text-anchor="middle" x="476" y="-1271.88" font-family="Helvetica,sans-Serif" font-size="10.00"> cpu</text>
</g>
<!-- Node7 -->
<g id="node7" class="node">
<title>Node7</title>
<g id="a_node7"><a xlink:href="structconsole.html" target="_top" xlink:title=" ">
<polygon fill="none" stroke="black" points="312.5,-1173.38 312.5,-1192.38 366.5,-1192.38 366.5,-1173.38 312.5,-1173.38"/>
<text text-anchor="middle" x="339.5" y="-1180.38" font-family="Helvetica,sans-Serif" font-size="10.00">console</text>
</a>
</g>
</g>
<!-- Node5&#45;&gt;Node7 -->
<g id="edge8" class="edge">
<title>Node5&#45;&gt;Node7</title>
<path fill="none" stroke="#9a32cd" stroke-dasharray="5,2" d="M156.25,-1247.49C165.96,-1237.12 179.52,-1224.52 194,-1216.88 214.34,-1206.14 276.57,-1193.84 312.38,-1187.39"/>
<polygon fill="#9a32cd" stroke="#9a32cd" points="153.41,-1245.41 149.34,-1255.2 158.62,-1250.09 153.41,-1245.41"/>
<text text-anchor="middle" x="228" y="-1252.88" font-family="Helvetica,sans-Serif" font-size="10.00"> attributes</text>
<text text-anchor="middle" x="228" y="-1241.88" font-family="Helvetica,sans-Serif" font-size="10.00">last</text>
<text text-anchor="middle" x="228" y="-1230.88" font-family="Helvetica,sans-Serif" font-size="10.00">x</text>
<text text-anchor="middle" x="228" y="-1219.88" font-family="Helvetica,sans-Serif" font-size="10.00">y</text>
</g>
<!-- Node6 -->
<g id="node6" class="node">
<title>Node6</title>
<g id="a_node6"><a xlink:title=" ">
<polygon fill="none" stroke="black" points="0,-666.38 0,-685.38 38,-685.38 38,-666.38 0,-666.38"/>
<text text-anchor="middle" x="19" y="-673.38" font-family="Helvetica,sans-Serif" font-size="10.00">char</text>
</a>
</g>
</g>
<!-- Node6&#45;&gt;Node1 -->
<g id="edge5" class="edge">
<title>Node6&#45;&gt;Node1</title>
<path fill="none" stroke="#9a32cd" stroke-dasharray="5,2" d="M20.35,-695.94C21.7,-757.71 28.04,-950.29 56,-1106.88 73.73,-1206.16 38.65,-1317.88 139.5,-1317.88 139.5,-1317.88 139.5,-1317.88 600.5,-1317.88 649.5,-1317.88 703.7,-1294.88 731.24,-1281.41"/>
<polygon fill="#9a32cd" stroke="#9a32cd" points="23.84,-695.6 20.14,-685.68 16.84,-695.74 23.84,-695.6"/>
<text text-anchor="middle" x="339.5" y="-1342.88" font-family="Helvetica,sans-Serif" font-size="10.00"> csd</text>
<text text-anchor="middle" x="339.5" y="-1331.88" font-family="Helvetica,sans-Serif" font-size="10.00">directory</text>
<text text-anchor="middle" x="339.5" y="-1320.88" font-family="Helvetica,sans-Serif" font-size="10.00">name</text>
</g>
<!-- Node6&#45;&gt;Node7 -->
<g id="edge7" class="edge">
<title>Node6&#45;&gt;Node7</title>
<path fill="none" stroke="#9a32cd" stroke-dasharray="5,2" d="M20.36,-695.67C21.84,-765.37 28.76,-998.94 56,-1067.88 83.84,-1138.32 120.59,-1149.23 194,-1167.88 234.46,-1178.15 283,-1181.41 312.26,-1182.43"/>
<polygon fill="#9a32cd" stroke="#9a32cd" points="23.85,-695.54 20.16,-685.61 16.86,-695.68 23.85,-695.54"/>
<text text-anchor="middle" x="140.5" y="-1187.88" font-family="Helvetica,sans-Serif" font-size="10.00"> buffer</text>
<text text-anchor="middle" x="140.5" y="-1176.88" font-family="Helvetica,sans-Serif" font-size="10.00">dirty</text>
<text text-anchor="middle" x="140.5" y="-1165.88" font-family="Helvetica,sans-Serif" font-size="10.00">internalbuffer</text>
</g>
<!-- Node6&#45;&gt;Node9 -->
<g id="edge11" class="edge">
<title>Node6&#45;&gt;Node9</title>
<path fill="none" stroke="#9a32cd" stroke-dasharray="5,2" d="M24.46,-695.48C34.39,-736.6 60.99,-833.89 105,-904.88 158.68,-991.46 206.2,-986.65 262,-1071.88 273.12,-1088.87 263.05,-1102.7 280,-1113.88 293.13,-1122.54 533.57,-1110.17 535,-1108.88 604.22,-1046.3 600.13,-720.17 598.76,-659.57"/>
<polygon fill="#9a32cd" stroke="#9a32cd" points="27.84,-694.59 22.15,-685.66 21.03,-696.19 27.84,-694.59"/>
<text text-anchor="middle" x="228" y="-1118.88" font-family="Helvetica,sans-Serif" font-size="10.00"> item_begin</text>
<text text-anchor="middle" x="228" y="-1107.88" font-family="Helvetica,sans-Serif" font-size="10.00">nextptr</text>
<text text-anchor="middle" x="228" y="-1096.88" font-family="Helvetica,sans-Serif" font-size="10.00">program_ptr</text>
<text text-anchor="middle" x="228" y="-1085.88" font-family="Helvetica,sans-Serif" font-size="10.00">ptr</text>
<text text-anchor="middle" x="228" y="-1074.88" font-family="Helvetica,sans-Serif" font-size="10.00">string</text>
</g>
<!-- Node13 -->
<g id="node13" class="node">
<title>Node13</title>
<g id="a_node13"><a xlink:href="structub__var__int.html" target="_top" xlink:title="An integer variable.">
<polygon fill="none" stroke="black" points="305.5,-266.38 305.5,-285.38 373.5,-285.38 373.5,-266.38 305.5,-266.38"/>
<text text-anchor="middle" x="339.5" y="-273.38" font-family="Helvetica,sans-Serif" font-size="10.00">ub_var_int</text>
</a>
</g>
</g>
<!-- Node6&#45;&gt;Node13 -->
<g id="edge16" class="edge">
<title>Node6&#45;&gt;Node13</title>
<path fill="none" stroke="#9a32cd" stroke-dasharray="5,2" d="M20.54,-656.08C22.48,-595.46 30.33,-413.37 56,-360.88 98.29,-274.39 167.21,-310.71 262,-293.88 276.24,-291.35 291.8,-287.83 305.15,-284.57"/>
<polygon fill="#9a32cd" stroke="#9a32cd" points="17.04,-656.12 20.24,-666.22 24.04,-656.33 17.04,-656.12"/>
<text text-anchor="middle" x="140.5" y="-312.88" font-family="Helvetica,sans-Serif" font-size="10.00"> varname</text>
</g>
<!-- Node14 -->
<g id="node14" class="node">
<title>Node14</title>
<g id="a_node14"><a xlink:href="structub__var__string.html" target="_top" xlink:title="A string variable.">
<polygon fill="none" stroke="black" points="298,-333.38 298,-352.38 381,-352.38 381,-333.38 298,-333.38"/>
<text text-anchor="middle" x="339.5" y="-340.38" font-family="Helvetica,sans-Serif" font-size="10.00">ub_var_string</text>
</a>
</g>
</g>
<!-- Node6&#45;&gt;Node14 -->
<g id="edge21" class="edge">
<title>Node6&#45;&gt;Node14</title>
<path fill="none" stroke="#9a32cd" stroke-dasharray="5,2" d="M21.83,-655.91C28.36,-589.74 52.95,-379.71 105,-341.88 134.68,-320.31 239.11,-329.74 297.76,-337.12"/>
<polygon fill="#9a32cd" stroke="#9a32cd" points="18.31,-655.92 20.85,-666.2 25.28,-656.58 18.31,-655.92"/>
<text text-anchor="middle" x="140.5" y="-355.88" font-family="Helvetica,sans-Serif" font-size="10.00"> value</text>
<text text-anchor="middle" x="140.5" y="-344.88" font-family="Helvetica,sans-Serif" font-size="10.00">varname</text>
</g>
<!-- Node15 -->
<g id="node15" class="node">
<title>Node15</title>
<g id="a_node15"><a xlink:href="structub__var__double.html" target="_top" xlink:title="A real (double) variable.">
<polygon fill="none" stroke="black" points="295.5,-185.38 295.5,-204.38 383.5,-204.38 383.5,-185.38 295.5,-185.38"/>
<text text-anchor="middle" x="339.5" y="-192.38" font-family="Helvetica,sans-Serif" font-size="10.00">ub_var_double</text>
</a>
</g>
</g>
<!-- Node6&#45;&gt;Node15 -->
<g id="edge25" class="edge">
<title>Node6&#45;&gt;Node15</title>
<path fill="none" stroke="#9a32cd" stroke-dasharray="5,2" d="M19.85,-655.99C19.7,-569.51 24.28,-227.93 105,-169.88 168.25,-124.39 204.73,-159.78 280,-179.88 286.69,-181.66 293.81,-183.53 300.71,-185.31"/>
<polygon fill="#9a32cd" stroke="#9a32cd" points="16.36,-656.26 19.9,-666.25 23.35,-656.23 16.36,-656.26"/>
<text text-anchor="middle" x="140.5" y="-172.88" font-family="Helvetica,sans-Serif" font-size="10.00"> varname</text>
</g>
<!-- Node17 -->
<g id="node17" class="node">
<title>Node17</title>
<g id="a_node17"><a xlink:href="structfor__state.html" target="_top" xlink:title="State for a FOR...NEXT loop.">
<polygon fill="none" stroke="black" points="309.5,-574.38 309.5,-593.38 369.5,-593.38 369.5,-574.38 309.5,-574.38"/>
<text text-anchor="middle" x="339.5" y="-581.38" font-family="Helvetica,sans-Serif" font-size="10.00">for_state</text>
</a>
</g>
</g>
<!-- Node6&#45;&gt;Node17 -->
<g id="edge33" class="edge">
<title>Node6&#45;&gt;Node17</title>
<path fill="none" stroke="#9a32cd" stroke-dasharray="5,2" d="M48.35,-671.33C94.11,-663.56 186.74,-645.96 262,-619.88 282.94,-612.62 305.79,-601.4 321.02,-593.42"/>
<polygon fill="#9a32cd" stroke="#9a32cd" points="47.57,-667.92 38.28,-673.02 48.72,-674.82 47.57,-667.92"/>
<text text-anchor="middle" x="140.5" y="-662.88" font-family="Helvetica,sans-Serif" font-size="10.00"> for_variable</text>
</g>
<!-- Node18 -->
<g id="node18" class="node">
<title>Node18</title>
<g id="a_node18"><a xlink:href="structub__proc__fn__def.html" target="_top" xlink:title="Procedure or function definition Each has a name, a type, a starting line and a parameter list.">
<polygon fill="none" stroke="black" points="294,-400.38 294,-419.38 385,-419.38 385,-400.38 294,-400.38"/>
<text text-anchor="middle" x="339.5" y="-407.38" font-family="Helvetica,sans-Serif" font-size="10.00">ub_proc_fn_def</text>
</a>
</g>
</g>
<!-- Node6&#45;&gt;Node18 -->
<g id="edge35" class="edge">
<title>Node6&#45;&gt;Node18</title>
<path fill="none" stroke="#9a32cd" stroke-dasharray="5,2" d="M23.07,-655.97C30.21,-616.23 51.58,-526.57 105,-475.88 132.12,-450.14 233.89,-428.36 293.75,-417.43"/>
<polygon fill="#9a32cd" stroke="#9a32cd" points="19.59,-655.54 21.38,-665.98 26.49,-656.7 19.59,-655.54"/>
<text text-anchor="middle" x="140.5" y="-478.88" font-family="Helvetica,sans-Serif" font-size="10.00"> name</text>
</g>
<!-- Node20 -->
<g id="node20" class="node">
<title>Node20</title>
<g id="a_node20"><a xlink:href="structub__param.html" target="_top" xlink:title="FN/PROC parameter.">
<polygon fill="none" stroke="black" points="108,-549.38 108,-568.38 173,-568.38 173,-549.38 108,-549.38"/>
<text text-anchor="middle" x="140.5" y="-556.38" font-family="Helvetica,sans-Serif" font-size="10.00">ub_param</text>
</a>
</g>
</g>
<!-- Node6&#45;&gt;Node20 -->
<g id="edge39" class="edge">
<title>Node6&#45;&gt;Node20</title>
<path fill="none" stroke="#9a32cd" stroke-dasharray="5,2" d="M27,-656.78C33.01,-642.34 42.79,-622.71 56,-608.88 73.27,-590.79 98.48,-576.9 116.68,-568.41"/>
<polygon fill="#9a32cd" stroke="#9a32cd" points="23.69,-655.63 23.3,-666.21 30.21,-658.18 23.69,-655.63"/>
<text text-anchor="middle" x="71.5" y="-611.88" font-family="Helvetica,sans-Serif" font-size="10.00"> name</text>
</g>
<!-- Node6&#45;&gt;Node21 -->
<g id="edge44" class="edge">
<title>Node6&#45;&gt;Node21</title>
<path fill="none" stroke="#9a32cd" stroke-dasharray="5,2" d="M41.75,-691.18C46.37,-694.2 51.28,-697.25 56,-699.88 114.9,-732.68 128.71,-746.06 194,-762.88 225.43,-770.97 261.88,-773.7 290.3,-774.42"/>
<polygon fill="#9a32cd" stroke="#9a32cd" points="43.6,-688.21 33.35,-685.52 39.69,-694.01 43.6,-688.21"/>
<text text-anchor="middle" x="140.5" y="-760.88" font-family="Helvetica,sans-Serif" font-size="10.00"> varname</text>
</g>
<!-- Node6&#45;&gt;Node22 -->
<g id="edge49" class="edge">
<title>Node6&#45;&gt;Node22</title>
<path fill="none" stroke="#9a32cd" stroke-dasharray="5,2" d="M33.39,-693.85C40,-702.49 48.21,-712.9 56,-721.88 105.64,-779.09 122.03,-798.27 194,-821.88 222.49,-831.22 255.57,-835.99 282.88,-838.41"/>
<polygon fill="#9a32cd" stroke="#9a32cd" points="35.99,-691.49 27.17,-685.62 30.41,-695.71 35.99,-691.49"/>
<text text-anchor="middle" x="140.5" y="-828.88" font-family="Helvetica,sans-Serif" font-size="10.00"> values</text>
<text text-anchor="middle" x="140.5" y="-817.88" font-family="Helvetica,sans-Serif" font-size="10.00">varname</text>
</g>
<!-- Node6&#45;&gt;Node23 -->
<g id="edge53" class="edge">
<title>Node6&#45;&gt;Node23</title>
<path fill="none" stroke="#9a32cd" stroke-dasharray="5,2" d="M48.4,-681.69C82.72,-688.43 142.31,-699.2 194,-703.88 222.11,-706.42 253.42,-707.31 279.69,-707.5"/>
<polygon fill="#9a32cd" stroke="#9a32cd" points="48.67,-678.18 38.18,-679.66 47.31,-685.04 48.67,-678.18"/>
<text text-anchor="middle" x="140.5" y="-704.88" font-family="Helvetica,sans-Serif" font-size="10.00"> varname</text>
</g>
<!-- Node7&#45;&gt;Node1 -->
<g id="edge6" class="edge">
<title>Node7&#45;&gt;Node1</title>
<path fill="none" stroke="#9a32cd" stroke-dasharray="5,2" d="M376.64,-1182.08C456.85,-1180.92 646.92,-1181.76 701,-1213.88 721.09,-1225.81 736.69,-1249.19 744.33,-1262.33"/>
<polygon fill="#9a32cd" stroke="#9a32cd" points="376.46,-1178.58 366.52,-1182.24 376.58,-1185.58 376.46,-1178.58"/>
<text text-anchor="middle" x="599.5" y="-1198.88" font-family="Helvetica,sans-Serif" font-size="10.00"> cons</text>
</g>
<!-- Node7&#45;&gt;Node9 -->
<g id="edge56" class="edge">
<title>Node7&#45;&gt;Node9</title>
<path fill="none" stroke="#9a32cd" stroke-dasharray="5,2" d="M376.44,-1173.55C389.21,-1170.34 403.72,-1166.82 417,-1163.88 469.17,-1152.32 498.44,-1179.85 535,-1140.88 603.36,-1068 599.93,-722.51 598.72,-659.69"/>
<polygon fill="#9a32cd" stroke="#9a32cd" points="375.46,-1170.19 366.62,-1176.04 377.18,-1176.98 375.46,-1170.19"/>
<text text-anchor="middle" x="476" y="-1166.88" font-family="Helvetica,sans-Serif" font-size="10.00"> cons</text>
</g>
<!-- Node8 -->
<g id="node8" class="node">
<title>Node8</title>
<g id="a_node8"><a xlink:title=" ">
<polygon fill="none" stroke="black" points="118,-1102.38 118,-1121.38 163,-1121.38 163,-1102.38 118,-1102.38"/>
<text text-anchor="middle" x="140.5" y="-1109.38" font-family="Helvetica,sans-Serif" font-size="10.00">size_t</text>
</a>
</g>
</g>
<!-- Node8&#45;&gt;Node7 -->
<g id="edge9" class="edge">
<title>Node8&#45;&gt;Node7</title>
<path fill="none" stroke="#9a32cd" stroke-dasharray="5,2" d="M173.01,-1123.23C211.57,-1137.13 276.17,-1160.41 312.19,-1173.4"/>
<polygon fill="#9a32cd" stroke="#9a32cd" points="173.93,-1119.85 163.34,-1119.75 171.56,-1126.43 173.93,-1119.85"/>
<text text-anchor="middle" x="228" y="-1155.88" font-family="Helvetica,sans-Serif" font-size="10.00"> bufcnt</text>
</g>
<!-- Node8&#45;&gt;Node9 -->
<g id="edge30" class="edge">
<title>Node8&#45;&gt;Node9</title>
<path fill="none" stroke="#9a32cd" stroke-dasharray="5,2" d="M149.03,-1092.9C157.31,-1074.51 172.38,-1047.21 194,-1031.88 270.58,-977.56 313.53,-1019.74 399,-980.88 466.12,-950.36 492.64,-946.23 535,-885.88 587.89,-810.51 596.74,-693.34 598.21,-659.39"/>
<polygon fill="#9a32cd" stroke="#9a32cd" points="145.73,-1091.74 145.04,-1102.31 152.17,-1094.47 145.73,-1091.74"/>
<text text-anchor="middle" x="339.5" y="-1003.88" font-family="Helvetica,sans-Serif" font-size="10.00"> oldlen</text>
</g>
<!-- Node9&#45;&gt;Node1 -->
<g id="edge10" class="edge">
<title>Node9&#45;&gt;Node1</title>
<path fill="none" stroke="#9a32cd" stroke-dasharray="5,2" d="M605.22,-669.59C628.48,-766.69 730.41,-1192.18 747.16,-1262.13"/>
<polygon fill="#9a32cd" stroke="#9a32cd" points="608.57,-668.56 602.84,-659.65 601.77,-670.19 608.57,-668.56"/>
<text text-anchor="middle" x="682.5" y="-1055.88" font-family="Helvetica,sans-Serif" font-size="10.00"> code</text>
</g>
<!-- Node10 -->
<g id="node10" class="node">
<title>Node10</title>
<g id="a_node10"><a xlink:title=" ">
<polygon fill="none" stroke="black" points="126,-25.38 126,-44.38 155,-44.38 155,-25.38 126,-25.38"/>
<text text-anchor="middle" x="140.5" y="-32.38" font-family="Helvetica,sans-Serif" font-size="10.00">int</text>
</a>
</g>
</g>
<!-- Node10&#45;&gt;Node9 -->
<g id="edge12" class="edge">
<title>Node10&#45;&gt;Node9</title>
<path fill="none" stroke="#9a32cd" stroke-dasharray="5,2" d="M165.09,-41.85C174.11,-44.45 184.51,-47.38 194,-49.88 344.75,-89.52 431.24,-15.56 535,-131.88 605.26,-210.65 600.23,-575.13 598.76,-639.99"/>
<polygon fill="#9a32cd" stroke="#9a32cd" points="165.85,-38.42 155.27,-38.99 163.89,-45.14 165.85,-38.42"/>
<text text-anchor="middle" x="339.5" y="-77.88" font-family="Helvetica,sans-Serif" font-size="10.00"> bracket_depth</text>
<text text-anchor="middle" x="339.5" y="-66.88" font-family="Helvetica,sans-Serif" font-size="10.00">current_token</text>
</g>
<!-- Node27 -->
<g id="node27" class="node">
<title>Node27</title>
<g id="a_node27"><a xlink:href="structcpuid__result__t.html" target="_top" xlink:title="CPUID instruction result.">
<polygon fill="none" stroke="black" points="297,-2.38 297,-21.38 382,-21.38 382,-2.38 297,-2.38"/>
<text text-anchor="middle" x="339.5" y="-9.38" font-family="Helvetica,sans-Serif" font-size="10.00">cpuid_result_t</text>
</a>
</g>
</g>
<!-- Node10&#45;&gt;Node27 -->
<g id="edge62" class="edge">
<title>Node10&#45;&gt;Node27</title>
<path fill="none" stroke="#9a32cd" stroke-dasharray="5,2" d="M162.93,-19.82C172.07,-14.29 183.11,-8.69 194,-5.88 227.8,2.84 267.49,0.32 296.72,-3.8"/>
<polygon fill="#9a32cd" stroke="#9a32cd" points="161.04,-16.88 154.52,-25.23 164.82,-22.77 161.04,-16.88"/>
<text text-anchor="middle" x="228" y="-41.88" font-family="Helvetica,sans-Serif" font-size="10.00"> eax</text>
<text text-anchor="middle" x="228" y="-30.88" font-family="Helvetica,sans-Serif" font-size="10.00">ebx</text>
<text text-anchor="middle" x="228" y="-19.88" font-family="Helvetica,sans-Serif" font-size="10.00">ecx</text>
<text text-anchor="middle" x="228" y="-8.88" font-family="Helvetica,sans-Serif" font-size="10.00">edx</text>
</g>
<!-- Node11 -->
<g id="node11" class="node">
<title>Node11</title>
<g id="a_node11"><a xlink:title=" ">
<polygon fill="none" stroke="black" points="115.5,-496.38 115.5,-515.38 165.5,-515.38 165.5,-496.38 115.5,-496.38"/>
<text text-anchor="middle" x="140.5" y="-503.38" font-family="Helvetica,sans-Serif" font-size="10.00">int64_t</text>
</a>
</g>
</g>
<!-- Node11&#45;&gt;Node9 -->
<g id="edge13" class="edge">
<title>Node11&#45;&gt;Node9</title>
<path fill="none" stroke="#9a32cd" stroke-dasharray="5,2" d="M175.45,-497.05C249.86,-479.88 429.11,-450.8 535,-536.88 569.92,-565.27 589.04,-618.27 595.73,-640.1"/>
<polygon fill="#9a32cd" stroke="#9a32cd" points="174.58,-493.65 165.66,-499.38 176.2,-500.46 174.58,-493.65"/>
<text text-anchor="middle" x="339.5" y="-506.88" font-family="Helvetica,sans-Serif" font-size="10.00"> current_linenum</text>
<text text-anchor="middle" x="339.5" y="-495.88" font-family="Helvetica,sans-Serif" font-size="10.00">eval_linenum</text>
<text text-anchor="middle" x="339.5" y="-484.88" font-family="Helvetica,sans-Serif" font-size="10.00">highest_line</text>
</g>
<!-- Node11&#45;&gt;Node13 -->
<g id="edge17" class="edge">
<title>Node11&#45;&gt;Node13</title>
<path fill="none" stroke="#9a32cd" stroke-dasharray="5,2" d="M168.06,-490.31C171.02,-487.77 173.77,-484.95 176,-481.88 192.34,-459.34 177.28,-444.14 194,-421.88 215.61,-393.09 239.95,-406.33 262,-377.88 277.49,-357.88 265.66,-344.72 280,-323.88 291.17,-307.64 309.34,-293.95 322.46,-285.4"/>
<polygon fill="#9a32cd" stroke="#9a32cd" points="165.85,-487.58 159.91,-496.35 170.02,-493.2 165.85,-487.58"/>
<text text-anchor="middle" x="228" y="-424.88" font-family="Helvetica,sans-Serif" font-size="10.00"> value</text>
</g>
<!-- Node11&#45;&gt;Node17 -->
<g id="edge32" class="edge">
<title>Node11&#45;&gt;Node17</title>
<path fill="none" stroke="#9a32cd" stroke-dasharray="5,2" d="M170.44,-519.75C178.04,-523.21 186.27,-526.81 194,-529.88 223.66,-541.64 233.37,-538.8 262,-552.88 270.63,-557.12 271.35,-560.69 280,-564.88 289.23,-569.35 299.76,-573.14 309.32,-576.13"/>
<polygon fill="#9a32cd" stroke="#9a32cd" points="171.78,-516.51 161.24,-515.48 168.84,-522.86 171.78,-516.51"/>
<text text-anchor="middle" x="228" y="-577.88" font-family="Helvetica,sans-Serif" font-size="10.00"> line_after_for</text>
<text text-anchor="middle" x="228" y="-566.88" font-family="Helvetica,sans-Serif" font-size="10.00">step</text>
<text text-anchor="middle" x="228" y="-555.88" font-family="Helvetica,sans-Serif" font-size="10.00">to</text>
</g>
<!-- Node11&#45;&gt;Node18 -->
<g id="edge37" class="edge">
<title>Node11&#45;&gt;Node18</title>
<path fill="none" stroke="#9a32cd" stroke-dasharray="5,2" d="M165.62,-490.39C169.23,-487.71 172.81,-484.83 176,-481.88 185.27,-473.3 183.61,-467.07 194,-459.88 220.23,-441.72 231.85,-447.3 262,-436.88 278.51,-431.17 296.97,-424.66 311.62,-419.46"/>
<polygon fill="#9a32cd" stroke="#9a32cd" points="163.48,-487.62 157.31,-496.22 167.5,-493.35 163.48,-487.62"/>
<text text-anchor="middle" x="228" y="-462.88" font-family="Helvetica,sans-Serif" font-size="10.00"> line</text>
</g>
<!-- Node11&#45;&gt;Node21 -->
<g id="edge45" class="edge">
<title>Node11&#45;&gt;Node21</title>
<path fill="none" stroke="#9a32cd" stroke-dasharray="5,2" d="M162.08,-522.33C167.32,-527.44 172.46,-533.44 176,-539.88 194.2,-572.95 179.03,-588.23 194,-622.88 215.17,-671.88 234.07,-676.39 262,-721.88 270.74,-736.12 267.14,-744.21 280,-754.88 284.68,-758.77 290.18,-761.86 295.9,-764.33"/>
<polygon fill="#9a32cd" stroke="#9a32cd" points="164.29,-519.61 154.51,-515.52 159.61,-524.81 164.29,-519.61"/>
<text text-anchor="middle" x="228" y="-724.88" font-family="Helvetica,sans-Serif" font-size="10.00"> values</text>
</g>
<!-- Node12 -->
<g id="node12" class="node">
<title>Node12</title>
<g id="a_node12"><a xlink:title=" ">
<polygon fill="none" stroke="black" points="121.5,-190.38 121.5,-209.38 159.5,-209.38 159.5,-190.38 121.5,-190.38"/>
<text text-anchor="middle" x="140.5" y="-197.38" font-family="Helvetica,sans-Serif" font-size="10.00">bool</text>
</a>
</g>
</g>
<!-- Node12&#45;&gt;Node9 -->
<g id="edge14" class="edge">
<title>Node12&#45;&gt;Node9</title>
<path fill="none" stroke="#9a32cd" stroke-dasharray="5,2" d="M168.8,-185.58C176.78,-181.76 185.62,-177.86 194,-174.88 231.07,-161.68 240.94,-158.58 280,-153.88 393.83,-140.18 459.85,-106.29 535,-192.88 595.77,-262.9 598.56,-579.99 598.54,-640.05"/>
<polygon fill="#9a32cd" stroke="#9a32cd" points="166.99,-182.57 159.57,-190.14 170.09,-188.84 166.99,-182.57"/>
<text text-anchor="middle" x="339.5" y="-167.88" font-family="Helvetica,sans-Serif" font-size="10.00"> ended</text>
<text text-anchor="middle" x="339.5" y="-156.88" font-family="Helvetica,sans-Serif" font-size="10.00">errored</text>
</g>
<!-- Node12&#45;&gt;Node13 -->
<g id="edge18" class="edge">
<title>Node12&#45;&gt;Node13</title>
<path fill="none" stroke="#9a32cd" stroke-dasharray="5,2" d="M170.12,-196.91C196.06,-195.65 234.37,-197.49 262,-214.88 274.52,-222.76 269.24,-232.72 280,-242.88 290.35,-252.64 304.12,-260.6 315.7,-266.25"/>
<polygon fill="#9a32cd" stroke="#9a32cd" points="169.56,-193.44 159.82,-197.6 170.03,-200.42 169.56,-193.44"/>
<text text-anchor="middle" x="228" y="-217.88" font-family="Helvetica,sans-Serif" font-size="10.00"> global</text>
</g>
<!-- Node12&#45;&gt;Node14 -->
<g id="edge22" class="edge">
<title>Node12&#45;&gt;Node14</title>
<path fill="none" stroke="#9a32cd" stroke-dasharray="5,2" d="M154.91,-217.32C164.97,-229.85 179.46,-246.78 194,-259.88 221.48,-284.64 233.02,-284.89 262,-307.88 270.39,-314.53 270.71,-318.56 280,-323.88 286.58,-327.65 294.01,-330.79 301.31,-333.36"/>
<polygon fill="#9a32cd" stroke="#9a32cd" points="157.64,-215.13 148.7,-209.44 152.14,-219.46 157.64,-215.13"/>
<text text-anchor="middle" x="228" y="-310.88" font-family="Helvetica,sans-Serif" font-size="10.00"> global</text>
</g>
<!-- Node12&#45;&gt;Node15 -->
<g id="edge27" class="edge">
<title>Node12&#45;&gt;Node15</title>
<path fill="none" stroke="#9a32cd" stroke-dasharray="5,2" d="M169.02,-187.89C176.93,-185.01 185.68,-182.34 194,-180.88 229.25,-174.7 269.86,-179.68 299.03,-185.34"/>
<polygon fill="#9a32cd" stroke="#9a32cd" points="167.58,-184.7 159.54,-191.59 170.13,-191.22 167.58,-184.7"/>
<text text-anchor="middle" x="228" y="-183.88" font-family="Helvetica,sans-Serif" font-size="10.00"> global</text>
</g>
<!-- Node13&#45;&gt;Node9 -->
<g id="edge15" class="edge">
<title>Node13&#45;&gt;Node9</title>
<path fill="none" stroke="#9a32cd" stroke-dasharray="5,2" d="M384.03,-271.75C428.28,-270.14 495.76,-275.22 535,-314.88 582.36,-362.74 595.69,-590.1 598.08,-640.13"/>
<polygon fill="#9a32cd" stroke="#9a32cd" points="383.68,-268.26 373.86,-272.25 384.02,-275.26 383.68,-268.26"/>
<text text-anchor="middle" x="476" y="-328.88" font-family="Helvetica,sans-Serif" font-size="10.00"> int_variables</text>
<text text-anchor="middle" x="476" y="-317.88" font-family="Helvetica,sans-Serif" font-size="10.00">local_int_variables</text>
</g>
<!-- Node13&#45;&gt;Node13 -->
<g id="edge19" class="edge">
<title>Node13&#45;&gt;Node13</title>
<path fill="none" stroke="#9a32cd" stroke-dasharray="5,2" d="M319.13,-295.28C320.49,-300.19 327.28,-303.88 339.5,-303.88 359.05,-303.88 364.7,-294.44 356.45,-285.64"/>
<polygon fill="#9a32cd" stroke="#9a32cd" points="322.51,-296.23 322.55,-285.64 315.91,-293.89 322.51,-296.23"/>
<text text-anchor="middle" x="339.5" y="-306.88" font-family="Helvetica,sans-Serif" font-size="10.00"> next</text>
</g>
<!-- Node14&#45;&gt;Node9 -->
<g id="edge20" class="edge">
<title>Node14&#45;&gt;Node9</title>
<path fill="none" stroke="#9a32cd" stroke-dasharray="5,2" d="M391.5,-340.16C435.34,-340.72 497.3,-348.87 535,-385.88 572.68,-422.87 593.04,-597.25 597.54,-640.27"/>
<polygon fill="#9a32cd" stroke="#9a32cd" points="391.32,-336.66 381.32,-340.16 391.32,-343.66 391.32,-336.66"/>
<text text-anchor="middle" x="476" y="-399.88" font-family="Helvetica,sans-Serif" font-size="10.00"> local_string_variables</text>
<text text-anchor="middle" x="476" y="-388.88" font-family="Helvetica,sans-Serif" font-size="10.00">str_variables</text>
</g>
<!-- Node14&#45;&gt;Node14 -->
<g id="edge23" class="edge">
<title>Node14&#45;&gt;Node14</title>
<path fill="none" stroke="#9a32cd" stroke-dasharray="5,2" d="M319.13,-362.28C320.49,-367.19 327.28,-370.88 339.5,-370.88 359.05,-370.88 364.7,-361.44 356.45,-352.64"/>
<polygon fill="#9a32cd" stroke="#9a32cd" points="322.51,-363.23 322.55,-352.64 315.91,-360.89 322.51,-363.23"/>
<text text-anchor="middle" x="339.5" y="-373.88" font-family="Helvetica,sans-Serif" font-size="10.00"> next</text>
</g>
<!-- Node15&#45;&gt;Node9 -->
<g id="edge24" class="edge">
<title>Node15&#45;&gt;Node9</title>
<path fill="none" stroke="#9a32cd" stroke-dasharray="5,2" d="M393.8,-194.14C438.18,-196.58 499.64,-207.59 535,-246.88 589.5,-307.42 597.33,-584.47 598.35,-640.12"/>
<polygon fill="#9a32cd" stroke="#9a32cd" points="393.9,-190.64 383.76,-193.71 393.61,-197.63 393.9,-190.64"/>
<text text-anchor="middle" x="476" y="-260.88" font-family="Helvetica,sans-Serif" font-size="10.00"> double_variables</text>
<text text-anchor="middle" x="476" y="-249.88" font-family="Helvetica,sans-Serif" font-size="10.00">local_double_variables</text>
</g>
<!-- Node15&#45;&gt;Node15 -->
<g id="edge28" class="edge">
<title>Node15&#45;&gt;Node15</title>
<path fill="none" stroke="#9a32cd" stroke-dasharray="5,2" d="M319.13,-214.28C320.49,-219.19 327.28,-222.88 339.5,-222.88 359.05,-222.88 364.7,-213.44 356.45,-204.64"/>
<polygon fill="#9a32cd" stroke="#9a32cd" points="322.51,-215.23 322.55,-204.64 315.91,-212.89 322.51,-215.23"/>
<text text-anchor="middle" x="339.5" y="-225.88" font-family="Helvetica,sans-Serif" font-size="10.00"> next</text>
</g>
<!-- Node16 -->
<g id="node16" class="node">
<title>Node16</title>
<g id="a_node16"><a xlink:title=" ">
<polygon fill="none" stroke="black" points="115.5,-373.38 115.5,-392.38 165.5,-392.38 165.5,-373.38 115.5,-373.38"/>
<text text-anchor="middle" x="140.5" y="-380.38" font-family="Helvetica,sans-Serif" font-size="10.00">double</text>
</a>
</g>
</g>
<!-- Node16&#45;&gt;Node15 -->
<g id="edge26" class="edge">
<title>Node16&#45;&gt;Node15</title>
<path fill="none" stroke="#9a32cd" stroke-dasharray="5,2" d="M169.29,-366.81C171.86,-364.43 174.18,-361.78 176,-358.88 202.83,-316.19 160.93,-284.94 194,-246.88 214.74,-223 232.2,-236.49 262,-225.88 280.49,-219.29 301.1,-210.87 316.27,-204.47"/>
<polygon fill="#9a32cd" stroke="#9a32cd" points="166.83,-364.29 161.08,-373.19 171.12,-369.82 166.83,-364.29"/>
<text text-anchor="middle" x="228" y="-249.88" font-family="Helvetica,sans-Serif" font-size="10.00"> value</text>
</g>
<!-- Node16&#45;&gt;Node23 -->
<g id="edge54" class="edge">
<title>Node16&#45;&gt;Node23</title>
<path fill="none" stroke="#9a32cd" stroke-dasharray="5,2" d="M173.53,-398.68C174.43,-399.69 175.26,-400.75 176,-401.88 198.6,-436.19 168.24,-553.87 194,-585.88 213.92,-610.62 240.59,-584.41 262,-607.88 286.56,-634.8 255.45,-660.94 280,-687.88 283.52,-691.75 287.84,-694.83 292.52,-697.29"/>
<polygon fill="#9a32cd" stroke="#9a32cd" points="175.44,-395.73 165.5,-392.06 170.99,-401.13 175.44,-395.73"/>
<text text-anchor="middle" x="228" y="-610.88" font-family="Helvetica,sans-Serif" font-size="10.00"> values</text>
</g>
<!-- Node17&#45;&gt;Node9 -->
<g id="edge31" class="edge">
<title>Node17&#45;&gt;Node9</title>
<path fill="none" stroke="#9a32cd" stroke-dasharray="5,2" d="M379.77,-582.41C420.04,-582.19 483.83,-585.5 535,-604.88 555.98,-612.82 576.45,-629.38 588.25,-640.05"/>
<polygon fill="#9a32cd" stroke="#9a32cd" points="379.52,-578.91 369.57,-582.54 379.61,-585.91 379.52,-578.91"/>
<text text-anchor="middle" x="476" y="-607.88" font-family="Helvetica,sans-Serif" font-size="10.00"> for_stack</text>
</g>
<!-- Node18&#45;&gt;Node9 -->
<g id="edge34" class="edge">
<title>Node18&#45;&gt;Node9</title>
<path fill="none" stroke="#9a32cd" stroke-dasharray="5,2" d="M395.28,-410.31C438.4,-413.54 497.33,-424.79 535,-459.88 589.46,-510.61 597.24,-609.29 598.33,-640.31"/>
<polygon fill="#9a32cd" stroke="#9a32cd" points="395.43,-406.81 385.23,-409.68 394.99,-413.8 395.43,-406.81"/>
<text text-anchor="middle" x="476" y="-462.88" font-family="Helvetica,sans-Serif" font-size="10.00"> defs</text>
</g>
<!-- Node18&#45;&gt;Node18 -->
<g id="edge41" class="edge">
<title>Node18&#45;&gt;Node18</title>
<path fill="none" stroke="#9a32cd" stroke-dasharray="5,2" d="M319.13,-429.28C320.49,-434.19 327.28,-437.88 339.5,-437.88 359.05,-437.88 364.7,-428.44 356.45,-419.64"/>
<polygon fill="#9a32cd" stroke="#9a32cd" points="322.51,-430.23 322.55,-419.64 315.91,-427.89 322.51,-430.23"/>
<text text-anchor="middle" x="339.5" y="-440.88" font-family="Helvetica,sans-Serif" font-size="10.00"> next</text>
</g>
<!-- Node19 -->
<g id="node19" class="node">
<title>Node19</title>
<g id="a_node19"><a xlink:title=" ">
<polygon fill="none" stroke="black" points="105,-411.38 105,-430.38 176,-430.38 176,-411.38 105,-411.38"/>
<text text-anchor="middle" x="140.5" y="-418.38" font-family="Helvetica,sans-Serif" font-size="10.00">ub_fn_type</text>
</a>
</g>
</g>
<!-- Node19&#45;&gt;Node18 -->
<g id="edge36" class="edge">
<title>Node19&#45;&gt;Node18</title>
<path fill="none" stroke="#9a32cd" stroke-dasharray="5,2" d="M172.1,-405.44C173.48,-404.31 174.79,-403.13 176,-401.88 188.19,-389.33 179.07,-375.99 194,-366.88 219.8,-351.14 234.97,-353.36 262,-366.88 273.93,-372.84 269.15,-383.12 280,-390.88 285.39,-394.73 291.59,-397.83 297.91,-400.32"/>
<polygon fill="#9a32cd" stroke="#9a32cd" points="169.93,-402.68 163.67,-411.22 173.9,-408.45 169.93,-402.68"/>
<text text-anchor="middle" x="228" y="-369.88" font-family="Helvetica,sans-Serif" font-size="10.00"> type</text>
</g>
<!-- Node20&#45;&gt;Node9 -->
<g id="edge59" class="edge">
<title>Node20&#45;&gt;Node9</title>
<path fill="none" stroke="#9a32cd" stroke-dasharray="5,2" d="M151.32,-577.85C160.24,-592.93 174.92,-613.06 194,-622.88 202.32,-627.16 476.18,-642.97 568.48,-648.19"/>
<polygon fill="#9a32cd" stroke="#9a32cd" points="154.22,-575.86 146.29,-568.83 148.1,-579.27 154.22,-575.86"/>
<text text-anchor="middle" x="339.5" y="-640.88" font-family="Helvetica,sans-Serif" font-size="10.00"> param</text>
</g>
<!-- Node20&#45;&gt;Node18 -->
<g id="edge38" class="edge">
<title>Node20&#45;&gt;Node18</title>
<path fill="none" stroke="#9a32cd" stroke-dasharray="5,2" d="M160.73,-542.56C170.48,-534.54 182.64,-524.89 194,-516.88 223.03,-496.41 233.27,-495.77 262,-474.88 286.81,-456.84 313.66,-432.88 328.02,-419.67"/>
<polygon fill="#9a32cd" stroke="#9a32cd" points="158.31,-540.03 152.86,-549.12 162.79,-545.41 158.31,-540.03"/>
<text text-anchor="middle" x="228" y="-519.88" font-family="Helvetica,sans-Serif" font-size="10.00"> params</text>
</g>
<!-- Node20&#45;&gt;Node20 -->
<g id="edge40" class="edge">
<title>Node20&#45;&gt;Node20</title>
<path fill="none" stroke="#9a32cd" stroke-dasharray="5,2" d="M127.98,-578.64C128.96,-583.37 133.14,-586.88 140.5,-586.88 152.59,-586.88 156.08,-577.44 150.98,-568.64"/>
<polygon fill="#9a32cd" stroke="#9a32cd" points="131.45,-579.13 130.02,-568.64 124.59,-577.73 131.45,-579.13"/>
<text text-anchor="middle" x="140.5" y="-589.88" font-family="Helvetica,sans-Serif" font-size="10.00"> next</text>
</g>
<!-- Node21&#45;&gt;Node9 -->
<g id="edge42" class="edge">
<title>Node21&#45;&gt;Node9</title>
<path fill="none" stroke="#9a32cd" stroke-dasharray="5,2" d="M398.74,-763.71C439.09,-754.86 492.92,-739.35 535,-713.88 559.1,-699.29 580.7,-673.58 591.41,-659.59"/>
<polygon fill="#9a32cd" stroke="#9a32cd" points="397.84,-760.32 388.78,-765.82 399.29,-767.17 397.84,-760.32"/>
<text text-anchor="middle" x="476" y="-761.88" font-family="Helvetica,sans-Serif" font-size="10.00"> int_array_variables</text>
</g>
<!-- Node21&#45;&gt;Node21 -->
<g id="edge46" class="edge">
<title>Node21&#45;&gt;Node21</title>
<path fill="none" stroke="#9a32cd" stroke-dasharray="5,2" d="M319.13,-793.28C320.49,-798.19 327.28,-801.88 339.5,-801.88 359.05,-801.88 364.7,-792.44 356.45,-783.64"/>
<polygon fill="#9a32cd" stroke="#9a32cd" points="322.51,-794.23 322.55,-783.64 315.91,-791.89 322.51,-794.23"/>
<text text-anchor="middle" x="339.5" y="-804.88" font-family="Helvetica,sans-Serif" font-size="10.00"> next</text>
</g>
<!-- Node22&#45;&gt;Node9 -->
<g id="edge47" class="edge">
<title>Node22&#45;&gt;Node9</title>
<path fill="none" stroke="#9a32cd" stroke-dasharray="5,2" d="M405.99,-831.28C447.05,-822.36 498.86,-805.48 535,-773.88 571.96,-741.56 590.23,-682.53 596.21,-659.47"/>
<polygon fill="#9a32cd" stroke="#9a32cd" points="405.15,-827.88 396.06,-833.32 406.56,-834.73 405.15,-827.88"/>
<text text-anchor="middle" x="476" y="-829.88" font-family="Helvetica,sans-Serif" font-size="10.00"> string_array_variables</text>
</g>
<!-- Node22&#45;&gt;Node22 -->
<g id="edge50" class="edge">
<title>Node22&#45;&gt;Node22</title>
<path fill="none" stroke="#9a32cd" stroke-dasharray="5,2" d="M319.13,-860.28C320.49,-865.19 327.28,-868.88 339.5,-868.88 359.05,-868.88 364.7,-859.44 356.45,-850.64"/>
<polygon fill="#9a32cd" stroke="#9a32cd" points="322.51,-861.23 322.55,-850.64 315.91,-858.89 322.51,-861.23"/>
<text text-anchor="middle" x="339.5" y="-871.88" font-family="Helvetica,sans-Serif" font-size="10.00"> next</text>
</g>
<!-- Node23&#45;&gt;Node9 -->
<g id="edge51" class="edge">
<title>Node23&#45;&gt;Node9</title>
<path fill="none" stroke="#9a32cd" stroke-dasharray="5,2" d="M409.52,-700.47C447.11,-695.92 494.15,-688.52 535,-676.88 550.44,-672.48 567.11,-665.29 579.5,-659.43"/>
<polygon fill="#9a32cd" stroke="#9a32cd" points="408.71,-697.04 399.19,-701.67 409.53,-703.99 408.71,-697.04"/>
<text text-anchor="middle" x="476" y="-701.88" font-family="Helvetica,sans-Serif" font-size="10.00"> double_array_variables</text>
</g>
<!-- Node23&#45;&gt;Node23 -->
<g id="edge55" class="edge">
<title>Node23&#45;&gt;Node23</title>
<path fill="none" stroke="#9a32cd" stroke-dasharray="5,2" d="M319.13,-726.28C320.49,-731.19 327.28,-734.88 339.5,-734.88 359.05,-734.88 364.7,-725.44 356.45,-716.64"/>
<polygon fill="#9a32cd" stroke="#9a32cd" points="322.51,-727.23 322.55,-716.64 315.91,-724.89 322.51,-727.23"/>
<text text-anchor="middle" x="339.5" y="-737.88" font-family="Helvetica,sans-Serif" font-size="10.00"> next</text>
</g>
<!-- Node24 -->
<g id="node24" class="node">
<title>Node24</title>
<g id="a_node24"><a xlink:title=" ">
<polygon fill="none" stroke="black" points="294.5,-1085.38 294.5,-1104.38 384.5,-1104.38 384.5,-1085.38 294.5,-1085.38"/>
<text text-anchor="middle" x="339.5" y="-1092.38" font-family="Helvetica,sans-Serif" font-size="10.00">ub_return_type</text>
</a>
</g>
</g>
<!-- Node24&#45;&gt;Node9 -->
<g id="edge57" class="edge">
<title>Node24&#45;&gt;Node9</title>
<path fill="none" stroke="#9a32cd" stroke-dasharray="5,2" d="M394.72,-1095.28C445.24,-1094.44 515.61,-1089.75 535,-1070.88 596.18,-1011.33 598.65,-716.46 598.55,-659.43"/>
<polygon fill="#9a32cd" stroke="#9a32cd" points="394.54,-1091.78 384.59,-1095.4 394.63,-1098.78 394.54,-1091.78"/>
<text text-anchor="middle" x="476" y="-1096.88" font-family="Helvetica,sans-Serif" font-size="10.00"> fn_type</text>
</g>
<!-- Node25 -->
<g id="node25" class="node">
<title>Node25</title>
<g id="a_node25"><a xlink:title=" ">
<polygon fill="none" stroke="black" points="316.5,-1047.38 316.5,-1066.38 362.5,-1066.38 362.5,-1047.38 316.5,-1047.38"/>
<text text-anchor="middle" x="339.5" y="-1054.38" font-family="Helvetica,sans-Serif" font-size="10.00">void *</text>
</a>
</g>
</g>
<!-- Node25&#45;&gt;Node9 -->
<g id="edge58" class="edge">
<title>Node25&#45;&gt;Node9</title>
<path fill="none" stroke="#9a32cd" stroke-dasharray="5,2" d="M372.65,-1057.22C421.84,-1057.02 512.45,-1053.61 535,-1031.88 590.55,-978.34 597.53,-713.79 598.39,-659.59"/>
<polygon fill="#9a32cd" stroke="#9a32cd" points="372.54,-1053.72 362.54,-1057.21 372.53,-1060.72 372.54,-1053.72"/>
<text text-anchor="middle" x="476" y="-1058.88" font-family="Helvetica,sans-Serif" font-size="10.00"> fn_return</text>
</g>
<!-- Node26 -->
<g id="node26" class="node">
<title>Node26</title>
<g id="a_node26"><a xlink:title=" ">
<polygon fill="none" stroke="black" points="314.5,-659.38 314.5,-678.38 364.5,-678.38 364.5,-659.38 314.5,-659.38"/>
<text text-anchor="middle" x="339.5" y="-666.38" font-family="Helvetica,sans-Serif" font-size="10.00">int32_t</text>
</a>
</g>
</g>
<!-- Node26&#45;&gt;Node9 -->
<g id="edge60" class="edge">
<title>Node26&#45;&gt;Node9</title>
<path fill="none" stroke="#9a32cd" stroke-dasharray="5,2" d="M374.92,-666.34C425.69,-662.6 519.87,-655.67 568.18,-652.11"/>
<polygon fill="#9a32cd" stroke="#9a32cd" points="374.49,-662.87 364.77,-667.09 375,-669.85 374.49,-662.87"/>
<text text-anchor="middle" x="476" y="-664.88" font-family="Helvetica,sans-Serif" font-size="10.00"> graphics_colour</text>
</g>
<!-- Node27&#45;&gt;Node9 -->
<g id="edge61" class="edge">
<title>Node27&#45;&gt;Node9</title>
<path fill="none" stroke="#9a32cd" stroke-dasharray="5,2" d="M392.36,-3.22C436.68,0.94 498.85,-1.46 535,-38.88 578.72,-84.13 595.8,-565.21 598.2,-640.1"/>
<polygon fill="#9a32cd" stroke="#9a32cd" points="391.91,0.25 382.35,-4.3 392.66,-6.71 391.91,0.25"/>
<text text-anchor="middle" x="476" y="-41.88" font-family="Helvetica,sans-Serif" font-size="10.00"> last_cpuid_result</text>
</g>
<!-- Node28 -->
<g id="node28" class="node">
<title>Node28</title>
<g id="a_node28"><a xlink:title=" ">
<polygon fill="none" stroke="black" points="289,-536.38 289,-555.38 390,-555.38 390,-536.38 289,-536.38"/>
<text text-anchor="middle" x="339.5" y="-543.38" font-family="Helvetica,sans-Serif" font-size="10.00">struct hashmap *</text>
</a>
</g>
</g>
<!-- Node28&#45;&gt;Node9 -->
<g id="edge63" class="edge">
<title>Node28&#45;&gt;Node9</title>
<path fill="none" stroke="#9a32cd" stroke-dasharray="5,2" d="M400.07,-540.94C440.58,-540.28 494.04,-544.85 535,-567.88 565.13,-584.82 585.79,-622.48 594.23,-640.24"/>
<polygon fill="#9a32cd" stroke="#9a32cd" points="399.97,-537.45 390.07,-541.22 400.16,-544.44 399.97,-537.45"/>
<text text-anchor="middle" x="476" y="-570.88" font-family="Helvetica,sans-Serif" font-size="10.00"> lines</text>
</g>
</g>
</svg>
