<?xml version="1.0" encoding="UTF-8" standalone="no"?>
<!DOCTYPE svg PUBLIC "-//W3C//DTD SVG 1.1//EN"
 "http://www.w3.org/Graphics/SVG/1.1/DTD/svg11.dtd">
<!-- Generated by graphviz version 2.43.0 (0)
 -->
<!-- Title: buddy_allocator_t Pages: 1 -->
<svg width="348pt" height="173pt"
 viewBox="0.00 0.00 347.50 173.00" xmlns="http://www.w3.org/2000/svg" xmlns:xlink="http://www.w3.org/1999/xlink">
<g id="graph0" class="graph" transform="scale(1 1) rotate(0) translate(4 169)">
<title>buddy_allocator_t</title>
<!-- Node1 -->
<g id="node1" class="node">
<title>Node1</title>
<g id="a_node1"><a xlink:title="Buddy allocator instance.">
<polygon fill="#bfbfbf" stroke="black" points="136.5,-0.5 136.5,-19.5 240.5,-19.5 240.5,-0.5 136.5,-0.5"/>
<text text-anchor="middle" x="188.5" y="-7.5" font-family="Helvetica,sans-Serif" font-size="10.00">buddy_allocator_t</text>
</a>
</g>
</g>
<!-- Node2 -->
<g id="node2" class="node">
<title>Node2</title>
<g id="a_node2"><a xlink:href="structbuddy__block__t.html" target="_top" xlink:title="Free list node structure (internal use).">
<polygon fill="none" stroke="black" points="15,-78.5 15,-97.5 102,-97.5 102,-78.5 15,-78.5"/>
<text text-anchor="middle" x="58.5" y="-85.5" font-family="Helvetica,sans-Serif" font-size="10.00">buddy_block_t</text>
</a>
</g>
</g>
<!-- Node2&#45;&gt;Node1 -->
<g id="edge1" class="edge">
<title>Node2&#45;&gt;Node1</title>
<path fill="none" stroke="#9a32cd" stroke-dasharray="5,2" d="M64.01,-68.83C68.07,-58.37 74.64,-45.79 84.5,-38 99.21,-26.38 118.4,-19.72 136.28,-15.92"/>
<polygon fill="#9a32cd" stroke="#9a32cd" points="60.68,-67.74 60.75,-78.34 67.3,-70.01 60.68,-67.74"/>
<text text-anchor="middle" x="109" y="-46.5" font-family="Helvetica,sans-Serif" font-size="10.00"> free_lists</text>
</g>
<!-- Node3 -->
<g id="node3" class="node">
<title>Node3</title>
<g id="a_node3"><a xlink:title=" ">
<polygon fill="none" stroke="#bfbfbf" points="0,-145.5 0,-164.5 117,-164.5 117,-145.5 0,-145.5"/>
<text text-anchor="middle" x="58.5" y="-152.5" font-family="Helvetica,sans-Serif" font-size="10.00">struct buddy_block *</text>
</a>
</g>
</g>
<!-- Node3&#45;&gt;Node2 -->
<g id="edge2" class="edge">
<title>Node3&#45;&gt;Node2</title>
<path fill="none" stroke="#9a32cd" stroke-dasharray="5,2" d="M58.5,-135.04C58.5,-122.67 58.5,-107.12 58.5,-97.63"/>
<polygon fill="#9a32cd" stroke="#9a32cd" points="55,-135.23 58.5,-145.23 62,-135.23 55,-135.23"/>
<text text-anchor="middle" x="71" y="-119" font-family="Helvetica,sans-Serif" font-size="10.00"> next</text>
</g>
<!-- Node4 -->
<g id="node4" class="node">
<title>Node4</title>
<g id="a_node4"><a xlink:title=" ">
<polygon fill="none" stroke="#bfbfbf" points="120,-78.5 120,-97.5 165,-97.5 165,-78.5 120,-78.5"/>
<text text-anchor="middle" x="142.5" y="-85.5" font-family="Helvetica,sans-Serif" font-size="10.00">size_t</text>
</a>
</g>
</g>
<!-- Node4&#45;&gt;Node1 -->
<g id="edge3" class="edge">
<title>Node4&#45;&gt;Node1</title>
<path fill="none" stroke="#9a32cd" stroke-dasharray="5,2" d="M138.76,-68.2C137.82,-58.57 138.29,-46.99 143.5,-38 148.25,-29.8 156.57,-23.81 164.77,-19.58"/>
<polygon fill="#9a32cd" stroke="#9a32cd" points="135.34,-69 140.31,-78.36 142.26,-67.95 135.34,-69"/>
<text text-anchor="middle" x="178.5" y="-52" font-family="Helvetica,sans-Serif" font-size="10.00"> current_bytes</text>
<text text-anchor="middle" x="178.5" y="-41" font-family="Helvetica,sans-Serif" font-size="10.00">peak_bytes</text>
</g>
<!-- Node5 -->
<g id="node5" class="node">
<title>Node5</title>
<g id="a_node5"><a xlink:title=" ">
<polygon fill="none" stroke="#bfbfbf" points="221,-78.5 221,-97.5 250,-97.5 250,-78.5 221,-78.5"/>
<text text-anchor="middle" x="235.5" y="-85.5" font-family="Helvetica,sans-Serif" font-size="10.00">int</text>
</a>
</g>
</g>
<!-- Node5&#45;&gt;Node1 -->
<g id="edge4" class="edge">
<title>Node5&#45;&gt;Node1</title>
<path fill="none" stroke="#9a32cd" stroke-dasharray="5,2" d="M228.89,-68.59C225.07,-59.07 219.78,-47.49 213.5,-38 209.13,-31.39 203.13,-24.85 198.1,-19.86"/>
<polygon fill="#9a32cd" stroke="#9a32cd" points="225.73,-70.13 232.55,-78.24 232.28,-67.65 225.73,-70.13"/>
<text text-anchor="middle" x="252.5" y="-52" font-family="Helvetica,sans-Serif" font-size="10.00"> max_order</text>
<text text-anchor="middle" x="252.5" y="-41" font-family="Helvetica,sans-Serif" font-size="10.00">min_order</text>
</g>
<!-- Node6 -->
<g id="node6" class="node">
<title>Node6</title>
<g id="a_node6"><a xlink:title=" ">
<polygon fill="none" stroke="#bfbfbf" points="289.5,-78.5 289.5,-97.5 339.5,-97.5 339.5,-78.5 289.5,-78.5"/>
<text text-anchor="middle" x="314.5" y="-85.5" font-family="Helvetica,sans-Serif" font-size="10.00">uint8_t</text>
</a>
</g>
</g>
<!-- Node6&#45;&gt;Node1 -->
<g id="edge5" class="edge">
<title>Node6&#45;&gt;Node1</title>
<path fill="none" stroke="#9a32cd" stroke-dasharray="5,2" d="M307.42,-68.88C302.47,-58.43 294.88,-45.85 284.5,-38 271.8,-28.39 255.83,-22.2 240.58,-18.21"/>
<polygon fill="#9a32cd" stroke="#9a32cd" points="304.33,-70.56 311.5,-78.36 310.77,-67.79 304.33,-70.56"/>
<text text-anchor="middle" x="314" y="-46.5" font-family="Helvetica,sans-Serif" font-size="10.00"> pool</text>
</g>
</g>
</svg>
