<?xml version="1.0" encoding="UTF-8" standalone="no"?>
<!DOCTYPE svg PUBLIC "-//W3C//DTD SVG 1.1//EN"
 "http://www.w3.org/Graphics/SVG/1.1/DTD/svg11.dtd">
<!-- Generated by graphviz version 2.43.0 (0)
 -->
<!-- Title: storage_device_t Pages: 1 -->
<svg width="351pt" height="106pt"
 viewBox="0.00 0.00 351.00 106.00" xmlns="http://www.w3.org/2000/svg" xmlns:xlink="http://www.w3.org/1999/xlink">
<g id="graph0" class="graph" transform="scale(1 1) rotate(0) translate(4 102)">
<title>storage_device_t</title>
<!-- Node1 -->
<g id="node1" class="node">
<title>Node1</title>
<g id="a_node1"><a xlink:title=" ">
<polygon fill="#bfbfbf" stroke="black" points="105,-0.5 105,-19.5 205,-19.5 205,-0.5 105,-0.5"/>
<text text-anchor="middle" x="155" y="-7.5" font-family="Helvetica,sans-Serif" font-size="10.00">storage_device_t</text>
</a>
</g>
</g>
<!-- Node1&#45;&gt;Node1 -->
<g id="edge3" class="edge">
<title>Node1&#45;&gt;Node1</title>
<path fill="none" stroke="#9a32cd" stroke-dasharray="5,2" d="M215.35,-15.4C220.08,-14.21 223,-12.41 223,-10 223,-6.14 215.52,-3.85 205.11,-3.13"/>
<polygon fill="#9a32cd" stroke="#9a32cd" points="214.51,-11.98 205.11,-16.87 215.51,-18.91 214.51,-11.98"/>
<text text-anchor="middle" x="235.5" y="-7.5" font-family="Helvetica,sans-Serif" font-size="10.00"> next</text>
</g>
<!-- Node2 -->
<g id="node2" class="node">
<title>Node2</title>
<g id="a_node2"><a xlink:title=" ">
<polygon fill="none" stroke="#bfbfbf" points="0,-78.5 0,-97.5 56,-97.5 56,-78.5 0,-78.5"/>
<text text-anchor="middle" x="28" y="-85.5" font-family="Helvetica,sans-Serif" font-size="10.00">uint64_t</text>
</a>
</g>
</g>
<!-- Node2&#45;&gt;Node1 -->
<g id="edge1" class="edge">
<title>Node2&#45;&gt;Node1</title>
<path fill="none" stroke="#9a32cd" stroke-dasharray="5,2" d="M33.92,-68.86C38.21,-58.41 45.03,-45.83 55,-38 69.22,-26.84 87.68,-20.28 104.87,-16.43"/>
<polygon fill="#9a32cd" stroke="#9a32cd" points="30.59,-67.76 30.44,-78.35 37.17,-70.16 30.59,-67.76"/>
<text text-anchor="middle" x="78" y="-52" font-family="Helvetica,sans-Serif" font-size="10.00"> opaque1</text>
<text text-anchor="middle" x="78" y="-41" font-family="Helvetica,sans-Serif" font-size="10.00">size</text>
</g>
<!-- Node3 -->
<g id="node3" class="node">
<title>Node3</title>
<g id="a_node3"><a xlink:title=" ">
<polygon fill="none" stroke="#bfbfbf" points="76,-78.5 76,-97.5 114,-97.5 114,-78.5 76,-78.5"/>
<text text-anchor="middle" x="95" y="-85.5" font-family="Helvetica,sans-Serif" font-size="10.00">char</text>
</a>
</g>
</g>
<!-- Node3&#45;&gt;Node1 -->
<g id="edge2" class="edge">
<title>Node3&#45;&gt;Node1</title>
<path fill="none" stroke="#9a32cd" stroke-dasharray="5,2" d="M101.51,-68.77C105.57,-58.99 111.46,-47.11 119,-38 124.98,-30.78 133.26,-24.39 140.38,-19.65"/>
<polygon fill="#9a32cd" stroke="#9a32cd" points="98.15,-67.74 97.83,-78.33 104.69,-70.25 98.15,-67.74"/>
<text text-anchor="middle" x="134.5" y="-46.5" font-family="Helvetica,sans-Serif" font-size="10.00"> name</text>
</g>
<!-- Node4 -->
<g id="node4" class="node">
<title>Node4</title>
<g id="a_node4"><a xlink:title=" ">
<polygon fill="none" stroke="#bfbfbf" points="132,-78.5 132,-97.5 188,-97.5 188,-78.5 132,-78.5"/>
<text text-anchor="middle" x="160" y="-85.5" font-family="Helvetica,sans-Serif" font-size="10.00">uint32_t</text>
</a>
</g>
</g>
<!-- Node4&#45;&gt;Node1 -->
<g id="edge4" class="edge">
<title>Node4&#45;&gt;Node1</title>
<path fill="none" stroke="#9a32cd" stroke-dasharray="5,2" d="M156.86,-67.86C156.52,-65.23 156.21,-62.55 156,-60 154.82,-45.93 154.75,-29.5 154.85,-19.69"/>
<polygon fill="#9a32cd" stroke="#9a32cd" points="153.44,-68.66 158.38,-78.03 160.36,-67.63 153.44,-68.66"/>
<text text-anchor="middle" x="183.5" y="-46.5" font-family="Helvetica,sans-Serif" font-size="10.00"> block_size</text>
</g>
<!-- Node5 -->
<g id="node5" class="node">
<title>Node5</title>
<g id="a_node5"><a xlink:title=" ">
<polygon fill="none" stroke="#bfbfbf" points="218.5,-78.5 218.5,-97.5 247.5,-97.5 247.5,-78.5 218.5,-78.5"/>
<text text-anchor="middle" x="233" y="-85.5" font-family="Helvetica,sans-Serif" font-size="10.00">int</text>
</a>
</g>
</g>
<!-- Node5&#45;&gt;Node1 -->
<g id="edge5" class="edge">
<title>Node5&#45;&gt;Node1</title>
<path fill="none" stroke="#9a32cd" stroke-dasharray="5,2" d="M228.11,-68.51C224.68,-58.48 219.21,-46.44 211,-38 203.02,-29.8 192.05,-23.76 181.93,-19.5"/>
<polygon fill="#9a32cd" stroke="#9a32cd" points="224.83,-69.78 231.06,-78.35 231.54,-67.76 224.83,-69.78"/>
<text text-anchor="middle" x="250" y="-52" font-family="Helvetica,sans-Serif" font-size="10.00"> blockread</text>
<text text-anchor="middle" x="250" y="-41" font-family="Helvetica,sans-Serif" font-size="10.00">blockwrite</text>
</g>
<!-- Node6 -->
<g id="node6" class="node">
<title>Node6</title>
<g id="a_node6"><a xlink:title=" ">
<polygon fill="none" stroke="#bfbfbf" points="285,-78.5 285,-97.5 331,-97.5 331,-78.5 285,-78.5"/>
<text text-anchor="middle" x="308" y="-85.5" font-family="Helvetica,sans-Serif" font-size="10.00">void *</text>
</a>
</g>
</g>
<!-- Node6&#45;&gt;Node1 -->
<g id="edge6" class="edge">
<title>Node6&#45;&gt;Node1</title>
<path fill="none" stroke="#9a32cd" stroke-dasharray="5,2" d="M301.85,-68.67C297.39,-58.14 290.32,-45.56 280,-38 258.51,-22.26 229.7,-15.34 205.15,-12.43"/>
<polygon fill="#9a32cd" stroke="#9a32cd" points="298.65,-70.12 305.46,-78.24 305.2,-67.65 298.65,-70.12"/>
<text text-anchor="middle" x="320" y="-46.5" font-family="Helvetica,sans-Serif" font-size="10.00"> opaque2</text>
</g>
</g>
</svg>
