<?xml version="1.0" encoding="UTF-8" standalone="no"?>
<!DOCTYPE svg PUBLIC "-//W3C//DTD SVG 1.1//EN"
 "http://www.w3.org/Graphics/SVG/1.1/DTD/svg11.dtd">
<!-- Generated by graphviz version 2.43.0 (0)
 -->
<!-- Title: filesystem_t Pages: 1 -->
<svg width="328pt" height="128pt"
 viewBox="0.00 0.00 328.00 128.00" xmlns="http://www.w3.org/2000/svg" xmlns:xlink="http://www.w3.org/1999/xlink">
<g id="graph0" class="graph" transform="scale(1 1) rotate(0) translate(4 124)">
<title>filesystem_t</title>
<!-- Node1 -->
<g id="node1" class="node">
<title>Node1</title>
<g id="a_node1"><a xlink:title="Defines a filesystem driver.">
<polygon fill="#bfbfbf" stroke="black" points="125.5,-0.5 125.5,-19.5 202.5,-19.5 202.5,-0.5 125.5,-0.5"/>
<text text-anchor="middle" x="164" y="-7.5" font-family="Helvetica,sans-Serif" font-size="10.00">filesystem_t</text>
</a>
</g>
</g>
<!-- Node1&#45;&gt;Node1 -->
<g id="edge3" class="edge">
<title>Node1&#45;&gt;Node1</title>
<path fill="none" stroke="#9a32cd" stroke-dasharray="5,2" d="M212.72,-17.61C217.48,-16.08 220.5,-13.54 220.5,-10 220.5,-4.34 212.77,-1.24 202.56,-0.71"/>
<polygon fill="#9a32cd" stroke="#9a32cd" points="211.85,-14.21 202.56,-19.29 212.99,-21.11 211.85,-14.21"/>
<text text-anchor="middle" x="233" y="-7.5" font-family="Helvetica,sans-Serif" font-size="10.00"> next</text>
</g>
<!-- Node2 -->
<g id="node2" class="node">
<title>Node2</title>
<g id="a_node2"><a xlink:title=" ">
<polygon fill="none" stroke="#bfbfbf" points="0,-100.5 0,-119.5 56,-119.5 56,-100.5 0,-100.5"/>
<text text-anchor="middle" x="28" y="-107.5" font-family="Helvetica,sans-Serif" font-size="10.00">uint64_t</text>
</a>
</g>
</g>
<!-- Node2&#45;&gt;Node1 -->
<g id="edge1" class="edge">
<title>Node2&#45;&gt;Node1</title>
<path fill="none" stroke="#9a32cd" stroke-dasharray="5,2" d="M37.59,-91.31C47.14,-75.26 63.2,-52.04 83,-38 95.46,-29.17 111,-23.07 125.13,-18.94"/>
<polygon fill="#9a32cd" stroke="#9a32cd" points="34.42,-89.8 32.52,-100.22 40.51,-93.26 34.42,-89.8"/>
<text text-anchor="middle" x="106.5" y="-74" font-family="Helvetica,sans-Serif" font-size="10.00"> createdir</text>
<text text-anchor="middle" x="106.5" y="-63" font-family="Helvetica,sans-Serif" font-size="10.00">createfile</text>
<text text-anchor="middle" x="106.5" y="-52" font-family="Helvetica,sans-Serif" font-size="10.00">readfile</text>
<text text-anchor="middle" x="106.5" y="-41" font-family="Helvetica,sans-Serif" font-size="10.00">writefile</text>
</g>
<!-- Node3 -->
<g id="node3" class="node">
<title>Node3</title>
<g id="a_node3"><a xlink:title=" ">
<polygon fill="none" stroke="#bfbfbf" points="74.5,-100.5 74.5,-119.5 169.5,-119.5 169.5,-100.5 74.5,-100.5"/>
<text text-anchor="middle" x="122" y="-107.5" font-family="Helvetica,sans-Serif" font-size="10.00">void *(*)(void *)</text>
</a>
</g>
</g>
<!-- Node3&#45;&gt;Node1 -->
<g id="edge2" class="edge">
<title>Node3&#45;&gt;Node1</title>
<path fill="none" stroke="#9a32cd" stroke-dasharray="5,2" d="M129.67,-91.1C138.76,-69.89 153.53,-35.44 160.34,-19.54"/>
<polygon fill="#9a32cd" stroke="#9a32cd" points="126.45,-89.73 125.73,-100.3 132.88,-92.49 126.45,-89.73"/>
<text text-anchor="middle" x="167" y="-57.5" font-family="Helvetica,sans-Serif" font-size="10.00"> getdir</text>
</g>
<!-- Node4 -->
<g id="node4" class="node">
<title>Node4</title>
<g id="a_node4"><a xlink:title=" ">
<polygon fill="none" stroke="#bfbfbf" points="188,-100.5 188,-119.5 226,-119.5 226,-100.5 188,-100.5"/>
<text text-anchor="middle" x="207" y="-107.5" font-family="Helvetica,sans-Serif" font-size="10.00">char</text>
</a>
</g>
</g>
<!-- Node4&#45;&gt;Node1 -->
<g id="edge4" class="edge">
<title>Node4&#45;&gt;Node1</title>
<path fill="none" stroke="#9a32cd" stroke-dasharray="5,2" d="M203.18,-90.38C199.69,-75.63 193.75,-54.78 185,-38 181.59,-31.47 176.56,-24.93 172.28,-19.93"/>
<polygon fill="#9a32cd" stroke="#9a32cd" points="199.79,-91.29 205.36,-100.31 206.63,-89.79 199.79,-91.29"/>
<text text-anchor="middle" x="217.5" y="-74" font-family="Helvetica,sans-Serif" font-size="10.00"> mount</text>
<text text-anchor="middle" x="217.5" y="-63" font-family="Helvetica,sans-Serif" font-size="10.00">name</text>
<text text-anchor="middle" x="217.5" y="-52" font-family="Helvetica,sans-Serif" font-size="10.00">rm</text>
<text text-anchor="middle" x="217.5" y="-41" font-family="Helvetica,sans-Serif" font-size="10.00">rmdir</text>
</g>
<!-- Node5 -->
<g id="node5" class="node">
<title>Node5</title>
<g id="a_node5"><a xlink:title=" ">
<polygon fill="none" stroke="#bfbfbf" points="244.5,-100.5 244.5,-119.5 289.5,-119.5 289.5,-100.5 244.5,-100.5"/>
<text text-anchor="middle" x="267" y="-107.5" font-family="Helvetica,sans-Serif" font-size="10.00">size_t</text>
</a>
</g>
</g>
<!-- Node5&#45;&gt;Node1 -->
<g id="edge5" class="edge">
<title>Node5&#45;&gt;Node1</title>
<path fill="none" stroke="#9a32cd" stroke-dasharray="5,2" d="M264,-90.09C260.55,-74.21 253.39,-51.96 239,-38 229.07,-28.36 215.45,-22.13 202.54,-18.12"/>
<polygon fill="#9a32cd" stroke="#9a32cd" points="260.63,-91.12 265.91,-100.3 267.51,-89.83 260.63,-91.12"/>
<text text-anchor="middle" x="290.5" y="-57.5" font-family="Helvetica,sans-Serif" font-size="10.00"> truncatefile</text>
</g>
</g>
</svg>
