<?xml version="1.0" encoding="UTF-8" standalone="no"?>
<!DOCTYPE svg PUBLIC "-//W3C//DTD SVG 1.1//EN"
 "http://www.w3.org/Graphics/SVG/1.1/DTD/svg11.dtd">
<!-- Generated by graphviz version 2.43.0 (0)
 -->
<!-- Title: net_config Pages: 1 -->
<svg width="138pt" height="128pt"
 viewBox="0.00 0.00 138.00 128.00" xmlns="http://www.w3.org/2000/svg" xmlns:xlink="http://www.w3.org/1999/xlink">
<g id="graph0" class="graph" transform="scale(1 1) rotate(0) translate(4 124)">
<title>net_config</title>
<!-- Node1 -->
<g id="node1" class="node">
<title>Node1</title>
<g id="a_node1"><a xlink:title=" ">
<polygon fill="#bfbfbf" stroke="black" points="22.5,-0.5 22.5,-19.5 89.5,-19.5 89.5,-0.5 22.5,-0.5"/>
<text text-anchor="middle" x="56" y="-7.5" font-family="Helvetica,sans-Serif" font-size="10.00">net_config</text>
</a>
</g>
</g>
<!-- Node2 -->
<g id="node2" class="node">
<title>Node2</title>
<g id="a_node2"><a xlink:title=" ">
<polygon fill="none" stroke="#bfbfbf" points="0,-100.5 0,-119.5 38,-119.5 38,-100.5 0,-100.5"/>
<text text-anchor="middle" x="19" y="-107.5" font-family="Helvetica,sans-Serif" font-size="10.00">char</text>
</a>
</g>
</g>
<!-- Node2&#45;&gt;Node1 -->
<g id="edge1" class="edge">
<title>Node2&#45;&gt;Node1</title>
<path fill="none" stroke="#9a32cd" stroke-dasharray="5,2" d="M14.9,-90.02C12.67,-75.06 11.8,-54.11 20,-38 23.97,-30.2 31.35,-24.06 38.41,-19.62"/>
<polygon fill="#9a32cd" stroke="#9a32cd" points="11.51,-90.9 16.75,-100.11 18.39,-89.64 11.51,-90.9"/>
<text text-anchor="middle" x="46" y="-57.5" font-family="Helvetica,sans-Serif" font-size="10.00"> hostname</text>
</g>
<!-- Node3 -->
<g id="node3" class="node">
<title>Node3</title>
<g id="a_node3"><a xlink:title=" ">
<polygon fill="none" stroke="#bfbfbf" points="66,-100.5 66,-119.5 122,-119.5 122,-100.5 66,-100.5"/>
<text text-anchor="middle" x="94" y="-107.5" font-family="Helvetica,sans-Serif" font-size="10.00">uint32_t</text>
</a>
</g>
</g>
<!-- Node3&#45;&gt;Node1 -->
<g id="edge2" class="edge">
<title>Node3&#45;&gt;Node1</title>
<path fill="none" stroke="#9a32cd" stroke-dasharray="5,2" d="M89.59,-90.66C85.78,-76.07 79.68,-55.29 72,-38 69.17,-31.63 65.17,-24.88 61.88,-19.72"/>
<polygon fill="#9a32cd" stroke="#9a32cd" points="86.22,-91.61 92.04,-100.46 93.01,-89.91 86.22,-91.61"/>
<text text-anchor="middle" x="108.5" y="-74" font-family="Helvetica,sans-Serif" font-size="10.00"> dns</text>
<text text-anchor="middle" x="108.5" y="-63" font-family="Helvetica,sans-Serif" font-size="10.00">gateway</text>
<text text-anchor="middle" x="108.5" y="-52" font-family="Helvetica,sans-Serif" font-size="10.00">ip</text>
<text text-anchor="middle" x="108.5" y="-41" font-family="Helvetica,sans-Serif" font-size="10.00">netmask</text>
</g>
</g>
</svg>
