<?xml version="1.0" encoding="UTF-8" standalone="no"?>
<!DOCTYPE svg PUBLIC "-//W3C//DTD SVG 1.1//EN"
 "http://www.w3.org/Graphics/SVG/1.1/DTD/svg11.dtd">
<!-- Generated by graphviz version 2.43.0 (0)
 -->
<!-- Title: rsdp Pages: 1 -->
<svg width="378pt" height="128pt"
 viewBox="0.00 0.00 378.00 128.00" xmlns="http://www.w3.org/2000/svg" xmlns:xlink="http://www.w3.org/1999/xlink">
<g id="graph0" class="graph" transform="scale(1 1) rotate(0) translate(4 124)">
<title>rsdp</title>
<!-- Node1 -->
<g id="node1" class="node">
<title>Node1</title>
<g id="a_node1"><a xlink:title=" ">
<polygon fill="#bfbfbf" stroke="black" points="134,-0.5 134,-19.5 172,-19.5 172,-0.5 134,-0.5"/>
<text text-anchor="middle" x="153" y="-7.5" font-family="Helvetica,sans-Serif" font-size="10.00">rsdp</text>
</a>
</g>
</g>
<!-- Node2 -->
<g id="node2" class="node">
<title>Node2</title>
<g id="a_node2"><a xlink:title=" ">
<polygon fill="none" stroke="#bfbfbf" points="0,-100.5 0,-119.5 56,-119.5 56,-100.5 0,-100.5"/>
<text text-anchor="middle" x="28" y="-107.5" font-family="Helvetica,sans-Serif" font-size="10.00">uint64_t</text>
</a>
</g>
</g>
<!-- Node2&#45;&gt;Node1 -->
<g id="edge1" class="edge">
<title>Node2&#45;&gt;Node1</title>
<path fill="none" stroke="#9a32cd" stroke-dasharray="5,2" d="M26.21,-89.99C25.8,-74.06 27.97,-51.77 41,-38 53.58,-24.71 105.41,-16.62 133.94,-13.09"/>
<polygon fill="#9a32cd" stroke="#9a32cd" points="22.73,-90.49 26.84,-100.26 29.72,-90.06 22.73,-90.49"/>
<text text-anchor="middle" x="75" y="-57.5" font-family="Helvetica,sans-Serif" font-size="10.00"> xsdt_address</text>
</g>
<!-- Node3 -->
<g id="node3" class="node">
<title>Node3</title>
<g id="a_node3"><a xlink:title=" ">
<polygon fill="none" stroke="#bfbfbf" points="100,-100.5 100,-119.5 138,-119.5 138,-100.5 100,-100.5"/>
<text text-anchor="middle" x="119" y="-107.5" font-family="Helvetica,sans-Serif" font-size="10.00">char</text>
</a>
</g>
</g>
<!-- Node3&#45;&gt;Node1 -->
<g id="edge2" class="edge">
<title>Node3&#45;&gt;Node1</title>
<path fill="none" stroke="#9a32cd" stroke-dasharray="5,2" d="M115.09,-90.11C112.96,-75.2 112.14,-54.28 120,-38 123.67,-30.4 130.61,-24.21 137.19,-19.69"/>
<polygon fill="#9a32cd" stroke="#9a32cd" points="111.68,-90.91 116.85,-100.16 118.57,-89.7 111.68,-90.91"/>
<text text-anchor="middle" x="143" y="-63" font-family="Helvetica,sans-Serif" font-size="10.00"> oem_id</text>
<text text-anchor="middle" x="143" y="-52" font-family="Helvetica,sans-Serif" font-size="10.00">signature</text>
</g>
<!-- Node4 -->
<g id="node4" class="node">
<title>Node4</title>
<g id="a_node4"><a xlink:title=" ">
<polygon fill="none" stroke="#bfbfbf" points="160,-100.5 160,-119.5 216,-119.5 216,-100.5 160,-100.5"/>
<text text-anchor="middle" x="188" y="-107.5" font-family="Helvetica,sans-Serif" font-size="10.00">uint32_t</text>
</a>
</g>
</g>
<!-- Node4&#45;&gt;Node1 -->
<g id="edge3" class="edge">
<title>Node4&#45;&gt;Node1</title>
<path fill="none" stroke="#9a32cd" stroke-dasharray="5,2" d="M183.04,-90.36C179,-75.89 172.85,-55.42 166,-38 163.56,-31.8 160.31,-25.05 157.67,-19.85"/>
<polygon fill="#9a32cd" stroke="#9a32cd" points="179.69,-91.38 185.7,-100.11 186.45,-89.54 179.69,-91.38"/>
<text text-anchor="middle" x="211.5" y="-63" font-family="Helvetica,sans-Serif" font-size="10.00"> length</text>
<text text-anchor="middle" x="211.5" y="-52" font-family="Helvetica,sans-Serif" font-size="10.00">rsdt_address</text>
</g>
<!-- Node5 -->
<g id="node5" class="node">
<title>Node5</title>
<g id="a_node5"><a xlink:title=" ">
<polygon fill="none" stroke="#bfbfbf" points="249,-100.5 249,-119.5 299,-119.5 299,-100.5 249,-100.5"/>
<text text-anchor="middle" x="274" y="-107.5" font-family="Helvetica,sans-Serif" font-size="10.00">uint8_t</text>
</a>
</g>
</g>
<!-- Node5&#45;&gt;Node1 -->
<g id="edge4" class="edge">
<title>Node5&#45;&gt;Node1</title>
<path fill="none" stroke="#9a32cd" stroke-dasharray="5,2" d="M271.51,-89.86C268.44,-73.84 261.68,-51.5 247,-38 226.38,-19.04 193.29,-13.3 172.37,-11.62"/>
<polygon fill="#9a32cd" stroke="#9a32cd" points="268.13,-90.86 273.16,-100.19 275.04,-89.76 268.13,-90.86"/>
<text text-anchor="middle" x="319.5" y="-74" font-family="Helvetica,sans-Serif" font-size="10.00"> checksum</text>
<text text-anchor="middle" x="319.5" y="-63" font-family="Helvetica,sans-Serif" font-size="10.00">extended_checksum</text>
<text text-anchor="middle" x="319.5" y="-52" font-family="Helvetica,sans-Serif" font-size="10.00">reserved</text>
<text text-anchor="middle" x="319.5" y="-41" font-family="Helvetica,sans-Serif" font-size="10.00">revision</text>
</g>
</g>
</svg>
