<?xml version="1.0" encoding="UTF-8" standalone="no"?>
<!DOCTYPE svg PUBLIC "-//W3C//DTD SVG 1.1//EN"
 "http://www.w3.org/Graphics/SVG/1.1/DTD/svg11.dtd">
<!-- Generated by graphviz version 2.43.0 (0)
 -->
<!-- Title: fs_directory_entry_t Pages: 1 -->
<svg width="770pt" height="221pt"
 viewBox="0.00 0.00 769.50 221.00" xmlns="http://www.w3.org/2000/svg" xmlns:xlink="http://www.w3.org/1999/xlink">
<g id="graph0" class="graph" transform="scale(1 1) rotate(0) translate(4 217)">
<title>fs_directory_entry_t</title>
<!-- Node1 -->
<g id="node1" class="node">
<title>Node1</title>
<g id="a_node1"><a xlink:title=" ">
<polygon fill="#bfbfbf" stroke="black" points="103,-81.5 103,-100.5 217,-100.5 217,-81.5 103,-81.5"/>
<text text-anchor="middle" x="160" y="-88.5" font-family="Helvetica,sans-Serif" font-size="10.00">fs_directory_entry_t</text>
</a>
</g>
</g>
<!-- Node1&#45;&gt;Node1 -->
<g id="edge1" class="edge">
<title>Node1&#45;&gt;Node1</title>
<path fill="none" stroke="#9a32cd" stroke-dasharray="5,2" d="M227.44,-95.64C232.14,-94.58 235,-93.03 235,-91 235,-87.75 227.67,-85.74 217.23,-84.98"/>
<polygon fill="#9a32cd" stroke="#9a32cd" points="226.67,-92.21 217.23,-97.02 227.6,-99.15 226.67,-92.21"/>
<text text-anchor="middle" x="247.5" y="-88.5" font-family="Helvetica,sans-Serif" font-size="10.00"> next</text>
</g>
<!-- Node3 -->
<g id="node3" class="node">
<title>Node3</title>
<g id="a_node3"><a xlink:href="structfs__tree__t.html" target="_top" xlink:title=" ">
<polygon fill="none" stroke="black" points="297.5,-7 297.5,-26 356.5,-26 356.5,-7 297.5,-7"/>
<text text-anchor="middle" x="327" y="-14" font-family="Helvetica,sans-Serif" font-size="10.00">fs_tree_t</text>
</a>
</g>
</g>
<!-- Node1&#45;&gt;Node3 -->
<g id="edge5" class="edge">
<title>Node1&#45;&gt;Node3</title>
<path fill="none" stroke="#9a32cd" stroke-dasharray="5,2" d="M166.71,-72.21C170.42,-64.62 175.77,-56.3 183,-51 216.83,-26.17 266.18,-19.39 297.44,-17.73"/>
<polygon fill="#9a32cd" stroke="#9a32cd" points="163.47,-70.89 162.75,-81.47 169.9,-73.65 163.47,-70.89"/>
<text text-anchor="middle" x="195" y="-54" font-family="Helvetica,sans-Serif" font-size="10.00"> files</text>
</g>
<!-- Node2 -->
<g id="node2" class="node">
<title>Node2</title>
<g id="a_node2"><a xlink:title=" ">
<polygon fill="none" stroke="#bfbfbf" points="0,-193.5 0,-212.5 56,-212.5 56,-193.5 0,-193.5"/>
<text text-anchor="middle" x="28" y="-200.5" font-family="Helvetica,sans-Serif" font-size="10.00">uint64_t</text>
</a>
</g>
</g>
<!-- Node2&#45;&gt;Node1 -->
<g id="edge2" class="edge">
<title>Node2&#45;&gt;Node1</title>
<path fill="none" stroke="#9a32cd" stroke-dasharray="5,2" d="M31.39,-183.47C35.75,-164.83 45.14,-136.56 64,-120 74.89,-110.44 88.89,-104.13 102.82,-99.98"/>
<polygon fill="#9a32cd" stroke="#9a32cd" points="27.93,-182.9 29.32,-193.4 34.79,-184.32 27.93,-182.9"/>
<text text-anchor="middle" x="82" y="-150.5" font-family="Helvetica,sans-Serif" font-size="10.00"> lbapos</text>
<text text-anchor="middle" x="82" y="-139.5" font-family="Helvetica,sans-Serif" font-size="10.00">size</text>
</g>
<!-- Node2&#45;&gt;Node3 -->
<g id="edge4" class="edge">
<title>Node2&#45;&gt;Node3</title>
<path fill="none" stroke="#9a32cd" stroke-dasharray="5,2" d="M25.59,-183.04C24.21,-165.85 24.22,-140.19 33,-120 42.78,-97.51 50.11,-92.83 71,-80 143.9,-35.23 246.9,-22.52 297.12,-18.92"/>
<polygon fill="#9a32cd" stroke="#9a32cd" points="22.15,-183.83 26.67,-193.41 29.11,-183.1 22.15,-183.83"/>
<text text-anchor="middle" x="82.5" y="-88.5" font-family="Helvetica,sans-Serif" font-size="10.00"> size</text>
</g>
<!-- Node3&#45;&gt;Node1 -->
<g id="edge3" class="edge">
<title>Node3&#45;&gt;Node1</title>
<path fill="none" stroke="#9a32cd" stroke-dasharray="5,2" d="M290.83,-29.45C273.7,-35.41 253.08,-43.05 235,-51 213.64,-60.39 189.88,-73.16 174.94,-81.49"/>
<polygon fill="#9a32cd" stroke="#9a32cd" points="292.15,-32.69 300.47,-26.14 289.87,-26.07 292.15,-32.69"/>
<text text-anchor="middle" x="258.5" y="-54" font-family="Helvetica,sans-Serif" font-size="10.00"> directory</text>
</g>
<!-- Node3&#45;&gt;Node3 -->
<g id="edge6" class="edge">
<title>Node3&#45;&gt;Node3</title>
<path fill="none" stroke="#9a32cd" stroke-dasharray="5,2" d="M366.67,-22.95C371.41,-21.77 374.5,-19.62 374.5,-16.5 374.5,-11.5 366.58,-9 356.69,-9"/>
<polygon fill="#9a32cd" stroke="#9a32cd" points="366.26,-19.47 356.69,-24 367,-26.43 366.26,-19.47"/>
<text text-anchor="middle" x="399.5" y="-25" font-family="Helvetica,sans-Serif" font-size="10.00"> child_dirs</text>
<text text-anchor="middle" x="399.5" y="-14" font-family="Helvetica,sans-Serif" font-size="10.00">next</text>
<text text-anchor="middle" x="399.5" y="-3" font-family="Helvetica,sans-Serif" font-size="10.00">parent</text>
</g>
<!-- Node4 -->
<g id="node4" class="node">
<title>Node4</title>
<g id="a_node4"><a xlink:href="structfilesystem__t.html" target="_top" xlink:title=" ">
<polygon fill="none" stroke="black" points="517.5,-81.5 517.5,-100.5 594.5,-100.5 594.5,-81.5 517.5,-81.5"/>
<text text-anchor="middle" x="556" y="-88.5" font-family="Helvetica,sans-Serif" font-size="10.00">filesystem_t</text>
</a>
</g>
</g>
<!-- Node4&#45;&gt;Node3 -->
<g id="edge7" class="edge">
<title>Node4&#45;&gt;Node3</title>
<path fill="none" stroke="#9a32cd" stroke-dasharray="5,2" d="M532.5,-76.55C517.12,-68.21 496.35,-57.83 477,-51 436.36,-36.66 387.3,-27.08 356.62,-21.96"/>
<polygon fill="#9a32cd" stroke="#9a32cd" points="530.87,-79.65 541.32,-81.42 534.26,-73.52 530.87,-79.65"/>
<text text-anchor="middle" x="548" y="-54" font-family="Helvetica,sans-Serif" font-size="10.00"> responsible_driver</text>
</g>
<!-- Node4&#45;&gt;Node4 -->
<g id="edge9" class="edge">
<title>Node4&#45;&gt;Node4</title>
<path fill="none" stroke="#9a32cd" stroke-dasharray="5,2" d="M604.72,-96.18C609.48,-95.13 612.5,-93.41 612.5,-91 612.5,-87.15 604.77,-85.04 594.56,-84.68"/>
<polygon fill="#9a32cd" stroke="#9a32cd" points="604.1,-92.72 594.56,-97.32 604.88,-99.68 604.1,-92.72"/>
<text text-anchor="middle" x="625" y="-88.5" font-family="Helvetica,sans-Serif" font-size="10.00"> next</text>
</g>
<!-- Node5 -->
<g id="node5" class="node">
<title>Node5</title>
<g id="a_node5"><a xlink:title=" ">
<polygon fill="none" stroke="#bfbfbf" points="569.5,-193.5 569.5,-212.5 664.5,-212.5 664.5,-193.5 569.5,-193.5"/>
<text text-anchor="middle" x="617" y="-200.5" font-family="Helvetica,sans-Serif" font-size="10.00">void *(*)(void *)</text>
</a>
</g>
</g>
<!-- Node5&#45;&gt;Node4 -->
<g id="edge8" class="edge">
<title>Node5&#45;&gt;Node4</title>
<path fill="none" stroke="#9a32cd" stroke-dasharray="5,2" d="M615.57,-183.13C613.43,-165.45 608.14,-138.99 595,-120 589.4,-111.91 580.68,-105.33 572.9,-100.59"/>
<polygon fill="#9a32cd" stroke="#9a32cd" points="612.11,-183.69 616.56,-193.3 619.07,-183.01 612.11,-183.69"/>
<text text-anchor="middle" x="630" y="-145" font-family="Helvetica,sans-Serif" font-size="10.00"> getdir</text>
</g>
<!-- Node6 -->
<g id="node6" class="node">
<title>Node6</title>
<g id="a_node6"><a xlink:title=" ">
<polygon fill="none" stroke="#bfbfbf" points="682.5,-193.5 682.5,-212.5 761.5,-212.5 761.5,-193.5 682.5,-193.5"/>
<text text-anchor="middle" x="722" y="-200.5" font-family="Helvetica,sans-Serif" font-size="10.00">int(*)(void *)</text>
</a>
</g>
</g>
<!-- Node6&#45;&gt;Node4 -->
<g id="edge10" class="edge">
<title>Node6&#45;&gt;Node4</title>
<path fill="none" stroke="#9a32cd" stroke-dasharray="5,2" d="M711.37,-185C698.88,-166.4 676.47,-136.96 650,-120 633.37,-109.34 612.51,-102.59 594.67,-98.4"/>
<polygon fill="#9a32cd" stroke="#9a32cd" points="708.44,-186.91 716.82,-193.39 714.31,-183.1 708.44,-186.91"/>
<text text-anchor="middle" x="712.5" y="-145" font-family="Helvetica,sans-Serif" font-size="10.00"> rm</text>
</g>
<!-- Node7 -->
<g id="node7" class="node">
<title>Node7</title>
<g id="a_node7"><a xlink:title=" ">
<polygon fill="none" stroke="#bfbfbf" points="339,-193.5 339,-212.5 377,-212.5 377,-193.5 339,-193.5"/>
<text text-anchor="middle" x="358" y="-200.5" font-family="Helvetica,sans-Serif" font-size="10.00">char</text>
</a>
</g>
</g>
<!-- Node7&#45;&gt;Node1 -->
<g id="edge18" class="edge">
<title>Node7&#45;&gt;Node1</title>
<path fill="none" stroke="#9a32cd" stroke-dasharray="5,2" d="M328.82,-194.91C312.5,-190.35 292.07,-183.67 275,-175 232.63,-153.49 188.78,-117.24 169.77,-100.7"/>
<polygon fill="#9a32cd" stroke="#9a32cd" points="328.32,-198.39 338.88,-197.59 330.12,-191.63 328.32,-198.39"/>
<text text-anchor="middle" x="309.5" y="-150.5" font-family="Helvetica,sans-Serif" font-size="10.00"> device_name</text>
<text text-anchor="middle" x="309.5" y="-139.5" font-family="Helvetica,sans-Serif" font-size="10.00">filename</text>
</g>
<!-- Node7&#45;&gt;Node3 -->
<g id="edge13" class="edge">
<title>Node7&#45;&gt;Node3</title>
<path fill="none" stroke="#9a32cd" stroke-dasharray="5,2" d="M354.81,-183.01C348.2,-143.68 333.24,-54.62 328.48,-26.31"/>
<polygon fill="#9a32cd" stroke="#9a32cd" points="351.4,-183.82 356.5,-193.1 358.3,-182.66 351.4,-183.82"/>
<text text-anchor="middle" x="374.5" y="-94" font-family="Helvetica,sans-Serif" font-size="10.00"> device_name</text>
<text text-anchor="middle" x="374.5" y="-83" font-family="Helvetica,sans-Serif" font-size="10.00">name</text>
</g>
<!-- Node7&#45;&gt;Node4 -->
<g id="edge11" class="edge">
<title>Node7&#45;&gt;Node4</title>
<path fill="none" stroke="#9a32cd" stroke-dasharray="5,2" d="M387.13,-196.51C404.07,-192.41 425.31,-185.63 442,-175 470.12,-157.09 465.88,-139.39 493,-120 504.39,-111.86 518.53,-105.31 530.53,-100.6"/>
<polygon fill="#9a32cd" stroke="#9a32cd" points="386.2,-193.13 377.21,-198.73 387.74,-199.96 386.2,-193.13"/>
<text text-anchor="middle" x="510.5" y="-150.5" font-family="Helvetica,sans-Serif" font-size="10.00"> mount</text>
<text text-anchor="middle" x="510.5" y="-139.5" font-family="Helvetica,sans-Serif" font-size="10.00">name</text>
</g>
<!-- Node8 -->
<g id="node8" class="node">
<title>Node8</title>
<g id="a_node8"><a xlink:title=" ">
<polygon fill="none" stroke="#bfbfbf" points="435,-193.5 435,-212.5 491,-212.5 491,-193.5 435,-193.5"/>
<text text-anchor="middle" x="463" y="-200.5" font-family="Helvetica,sans-Serif" font-size="10.00">uint32_t</text>
</a>
</g>
</g>
<!-- Node8&#45;&gt;Node1 -->
<g id="edge19" class="edge">
<title>Node8&#45;&gt;Node1</title>
<path fill="none" stroke="#9a32cd" stroke-dasharray="5,2" d="M435.97,-188.72C428.35,-184.63 420.18,-179.9 413,-175 381.74,-153.67 382.48,-135.61 348,-120 325.23,-109.69 263.57,-101.78 217.02,-97.04"/>
<polygon fill="#9a32cd" stroke="#9a32cd" points="434.4,-191.85 444.89,-193.37 437.64,-185.64 434.4,-191.85"/>
<text text-anchor="middle" x="431" y="-150.5" font-family="Helvetica,sans-Serif" font-size="10.00"> device</text>
<text text-anchor="middle" x="431" y="-139.5" font-family="Helvetica,sans-Serif" font-size="10.00">flags</text>
</g>
<!-- Node8&#45;&gt;Node3 -->
<g id="edge14" class="edge">
<title>Node8&#45;&gt;Node3</title>
<path fill="none" stroke="#9a32cd" stroke-dasharray="5,2" d="M462.73,-182.98C461.81,-165.75 458.72,-140.07 449,-120 426.7,-73.94 372.92,-40.92 344.8,-26.15"/>
<polygon fill="#9a32cd" stroke="#9a32cd" points="459.24,-183.51 463.07,-193.38 466.24,-183.27 459.24,-183.51"/>
<text text-anchor="middle" x="456" y="-94" font-family="Helvetica,sans-Serif" font-size="10.00"> device</text>
<text text-anchor="middle" x="456" y="-83" font-family="Helvetica,sans-Serif" font-size="10.00">lbapos</text>
</g>
<!-- Node8&#45;&gt;Node4 -->
<g id="edge12" class="edge">
<title>Node8&#45;&gt;Node4</title>
<path fill="none" stroke="#9a32cd" stroke-dasharray="5,2" d="M501,-194.02C512.29,-189.99 523.82,-183.97 532,-175 542.11,-163.92 551.07,-119.49 554.51,-100.59"/>
<polygon fill="#9a32cd" stroke="#9a32cd" points="499.73,-190.76 491.23,-197.08 501.82,-197.44 499.73,-190.76"/>
<text text-anchor="middle" x="570" y="-150.5" font-family="Helvetica,sans-Serif" font-size="10.00"> readfile</text>
<text text-anchor="middle" x="570" y="-139.5" font-family="Helvetica,sans-Serif" font-size="10.00">writefile</text>
</g>
<!-- Node9 -->
<g id="node9" class="node">
<title>Node9</title>
<g id="a_node9"><a xlink:title=" ">
<polygon fill="none" stroke="#bfbfbf" points="215,-193.5 215,-212.5 265,-212.5 265,-193.5 215,-193.5"/>
<text text-anchor="middle" x="240" y="-200.5" font-family="Helvetica,sans-Serif" font-size="10.00">uint8_t</text>
</a>
</g>
</g>
<!-- Node9&#45;&gt;Node1 -->
<g id="edge20" class="edge">
<title>Node9&#45;&gt;Node1</title>
<path fill="none" stroke="#9a32cd" stroke-dasharray="5,2" d="M204.97,-199.34C188.5,-196.12 170.27,-189.3 160,-175 143.87,-152.53 151.93,-117.08 156.97,-100.75"/>
<polygon fill="#9a32cd" stroke="#9a32cd" points="204.49,-202.81 214.91,-200.91 205.58,-195.89 204.49,-202.81"/>
<text text-anchor="middle" x="176" y="-167" font-family="Helvetica,sans-Serif" font-size="10.00"> day</text>
<text text-anchor="middle" x="176" y="-156" font-family="Helvetica,sans-Serif" font-size="10.00">hour</text>
<text text-anchor="middle" x="176" y="-145" font-family="Helvetica,sans-Serif" font-size="10.00">min</text>
<text text-anchor="middle" x="176" y="-134" font-family="Helvetica,sans-Serif" font-size="10.00">month</text>
<text text-anchor="middle" x="176" y="-123" font-family="Helvetica,sans-Serif" font-size="10.00">sec</text>
</g>
<!-- Node9&#45;&gt;Node3 -->
<g id="edge15" class="edge">
<title>Node9&#45;&gt;Node3</title>
<path fill="none" stroke="#9a32cd" stroke-dasharray="5,2" d="M269.59,-188.32C275.04,-184.66 280.19,-180.23 284,-175 309.56,-139.87 295.26,-121.83 307,-80 312.42,-60.69 319.84,-38.39 323.95,-26.34"/>
<polygon fill="#9a32cd" stroke="#9a32cd" points="267.76,-185.34 260.95,-193.45 271.34,-191.36 267.76,-185.34"/>
<text text-anchor="middle" x="320" y="-88.5" font-family="Helvetica,sans-Serif" font-size="10.00"> dirty</text>
</g>
<!-- Node10 -->
<g id="node10" class="node">
<title>Node10</title>
<g id="a_node10"><a xlink:title=" ">
<polygon fill="none" stroke="#bfbfbf" points="656,-81.5 656,-100.5 702,-100.5 702,-81.5 656,-81.5"/>
<text text-anchor="middle" x="679" y="-88.5" font-family="Helvetica,sans-Serif" font-size="10.00">void *</text>
</a>
</g>
</g>
<!-- Node10&#45;&gt;Node3 -->
<g id="edge16" class="edge">
<title>Node10&#45;&gt;Node3</title>
<path fill="none" stroke="#9a32cd" stroke-dasharray="5,2" d="M656.25,-76.38C640.67,-67.7 619.24,-57 599,-51 513.47,-25.65 407.31,-19.47 356.63,-17.97"/>
<polygon fill="#9a32cd" stroke="#9a32cd" points="654.71,-79.54 665.13,-81.47 658.19,-73.46 654.71,-79.54"/>
<text text-anchor="middle" x="646" y="-54" font-family="Helvetica,sans-Serif" font-size="10.00"> opaque</text>
</g>
<!-- Node11 -->
<g id="node11" class="node">
<title>Node11</title>
<g id="a_node11"><a xlink:title=" ">
<polygon fill="none" stroke="#bfbfbf" points="83,-193.5 83,-212.5 139,-212.5 139,-193.5 83,-193.5"/>
<text text-anchor="middle" x="111" y="-200.5" font-family="Helvetica,sans-Serif" font-size="10.00">uint16_t</text>
</a>
</g>
</g>
<!-- Node11&#45;&gt;Node1 -->
<g id="edge17" class="edge">
<title>Node11&#45;&gt;Node1</title>
<path fill="none" stroke="#9a32cd" stroke-dasharray="5,2" d="M106.26,-183.25C102.91,-165.67 100.77,-139.28 112,-120 117.1,-111.25 126.09,-104.96 134.92,-100.6"/>
<polygon fill="#9a32cd" stroke="#9a32cd" points="102.93,-184.37 108.51,-193.37 109.76,-182.85 102.93,-184.37"/>
<text text-anchor="middle" x="124.5" y="-145" font-family="Helvetica,sans-Serif" font-size="10.00"> year</text>
</g>
</g>
</svg>
