<?xml version="1.0" encoding="UTF-8" standalone="no"?>
<!DOCTYPE svg PUBLIC "-//W3C//DTD SVG 1.1//EN"
 "http://www.w3.org/Graphics/SVG/1.1/DTD/svg11.dtd">
<!-- Generated by graphviz version 2.43.0 (0)
 -->
<!-- Title: rsdt Pages: 1 -->
<svg width="370pt" height="195pt"
 viewBox="0.00 0.00 370.00 195.00" xmlns="http://www.w3.org/2000/svg" xmlns:xlink="http://www.w3.org/1999/xlink">
<g id="graph0" class="graph" transform="scale(1 1) rotate(0) translate(4 191)">
<title>rsdt</title>
<!-- Node1 -->
<g id="node1" class="node">
<title>Node1</title>
<g id="a_node1"><a xlink:title=" ">
<polygon fill="#bfbfbf" stroke="black" points="195.5,-0.5 195.5,-19.5 230.5,-19.5 230.5,-0.5 195.5,-0.5"/>
<text text-anchor="middle" x="213" y="-7.5" font-family="Helvetica,sans-Serif" font-size="10.00">rsdt</text>
</a>
</g>
</g>
<!-- Node2 -->
<g id="node2" class="node">
<title>Node2</title>
<g id="a_node2"><a xlink:href="structsdt__header.html" target="_top" xlink:title=" ">
<polygon fill="none" stroke="black" points="111.5,-67.5 111.5,-86.5 182.5,-86.5 182.5,-67.5 111.5,-67.5"/>
<text text-anchor="middle" x="147" y="-74.5" font-family="Helvetica,sans-Serif" font-size="10.00">sdt_header</text>
</a>
</g>
</g>
<!-- Node2&#45;&gt;Node1 -->
<g id="edge1" class="edge">
<title>Node2&#45;&gt;Node1</title>
<path fill="none" stroke="#9a32cd" stroke-dasharray="5,2" d="M163.25,-60C176.19,-47.25 193.81,-29.89 204.24,-19.63"/>
<polygon fill="#9a32cd" stroke="#9a32cd" points="160.57,-57.72 155.9,-67.23 165.48,-62.71 160.57,-57.72"/>
<text text-anchor="middle" x="201.5" y="-41" font-family="Helvetica,sans-Serif" font-size="10.00"> header</text>
</g>
<!-- Node3 -->
<g id="node3" class="node">
<title>Node3</title>
<g id="a_node3"><a xlink:title=" ">
<polygon fill="none" stroke="#bfbfbf" points="0,-167.5 0,-186.5 38,-186.5 38,-167.5 0,-167.5"/>
<text text-anchor="middle" x="19" y="-174.5" font-family="Helvetica,sans-Serif" font-size="10.00">char</text>
</a>
</g>
</g>
<!-- Node3&#45;&gt;Node2 -->
<g id="edge2" class="edge">
<title>Node3&#45;&gt;Node2</title>
<path fill="none" stroke="#9a32cd" stroke-dasharray="5,2" d="M17.19,-156.97C16.77,-141.03 18.93,-118.73 32,-105 42.82,-93.64 81.78,-86.21 111.38,-82.08"/>
<polygon fill="#9a32cd" stroke="#9a32cd" points="13.71,-157.48 17.83,-167.25 20.7,-157.05 13.71,-157.48"/>
<text text-anchor="middle" x="65.5" y="-135.5" font-family="Helvetica,sans-Serif" font-size="10.00"> oem_id</text>
<text text-anchor="middle" x="65.5" y="-124.5" font-family="Helvetica,sans-Serif" font-size="10.00">oem_table_id</text>
<text text-anchor="middle" x="65.5" y="-113.5" font-family="Helvetica,sans-Serif" font-size="10.00">signature</text>
</g>
<!-- Node4 -->
<g id="node4" class="node">
<title>Node4</title>
<g id="a_node4"><a xlink:title=" ">
<polygon fill="none" stroke="#bfbfbf" points="204,-167.5 204,-186.5 260,-186.5 260,-167.5 204,-167.5"/>
<text text-anchor="middle" x="232" y="-174.5" font-family="Helvetica,sans-Serif" font-size="10.00">uint32_t</text>
</a>
</g>
</g>
<!-- Node4&#45;&gt;Node1 -->
<g id="edge5" class="edge">
<title>Node4&#45;&gt;Node1</title>
<path fill="none" stroke="#9a32cd" stroke-dasharray="5,2" d="M255.82,-161.01C259.54,-157.55 262.85,-153.53 265,-149 273.37,-131.33 269.89,-123.93 265,-105 256.14,-70.69 231.79,-35.53 219.82,-19.68"/>
<polygon fill="#9a32cd" stroke="#9a32cd" points="253.51,-158.37 247.86,-167.33 257.87,-163.85 253.51,-158.37"/>
<text text-anchor="middle" x="310" y="-74.5" font-family="Helvetica,sans-Serif" font-size="10.00"> pointer_to_other_sdt</text>
</g>
<!-- Node4&#45;&gt;Node2 -->
<g id="edge3" class="edge">
<title>Node4&#45;&gt;Node2</title>
<path fill="none" stroke="#9a32cd" stroke-dasharray="5,2" d="M203.1,-162.37C196.97,-158.62 190.89,-154.14 186,-149 170.78,-133.02 173.74,-124.28 163,-105 159.61,-98.91 155.61,-92.16 152.45,-86.93"/>
<polygon fill="#9a32cd" stroke="#9a32cd" points="201.53,-165.51 211.96,-167.35 204.95,-159.4 201.53,-165.51"/>
<text text-anchor="middle" x="225.5" y="-141" font-family="Helvetica,sans-Serif" font-size="10.00"> creator_id</text>
<text text-anchor="middle" x="225.5" y="-130" font-family="Helvetica,sans-Serif" font-size="10.00">creator_revision</text>
<text text-anchor="middle" x="225.5" y="-119" font-family="Helvetica,sans-Serif" font-size="10.00">length</text>
<text text-anchor="middle" x="225.5" y="-108" font-family="Helvetica,sans-Serif" font-size="10.00">oem_revision</text>
</g>
<!-- Node5 -->
<g id="node5" class="node">
<title>Node5</title>
<g id="a_node5"><a xlink:title=" ">
<polygon fill="none" stroke="#bfbfbf" points="84,-167.5 84,-186.5 134,-186.5 134,-167.5 84,-167.5"/>
<text text-anchor="middle" x="109" y="-174.5" font-family="Helvetica,sans-Serif" font-size="10.00">uint8_t</text>
</a>
</g>
</g>
<!-- Node5&#45;&gt;Node2 -->
<g id="edge4" class="edge">
<title>Node5&#45;&gt;Node2</title>
<path fill="none" stroke="#9a32cd" stroke-dasharray="5,2" d="M104.85,-156.99C102.58,-142.01 101.7,-121.06 110,-105 114.09,-97.09 121.68,-90.93 128.93,-86.51"/>
<polygon fill="#9a32cd" stroke="#9a32cd" points="101.45,-157.9 106.72,-167.09 108.34,-156.62 101.45,-157.9"/>
<text text-anchor="middle" x="136.5" y="-130" font-family="Helvetica,sans-Serif" font-size="10.00"> checksum</text>
<text text-anchor="middle" x="136.5" y="-119" font-family="Helvetica,sans-Serif" font-size="10.00">revision</text>
</g>
</g>
</svg>
