<?xml version="1.0" encoding="UTF-8" standalone="no"?>
<!DOCTYPE svg PUBLIC "-//W3C//DTD SVG 1.1//EN"
 "http://www.w3.org/Graphics/SVG/1.1/DTD/svg11.dtd">
<!-- Generated by graphviz version 2.43.0 (0)
 -->
<!-- Title: achi_hba_cmd_tbl_t Pages: 1 -->
<svg width="206pt" height="239pt"
 viewBox="0.00 0.00 206.00 239.00" xmlns="http://www.w3.org/2000/svg" xmlns:xlink="http://www.w3.org/1999/xlink">
<g id="graph0" class="graph" transform="scale(1 1) rotate(0) translate(4 235)">
<title>achi_hba_cmd_tbl_t</title>
<!-- Node1 -->
<g id="node1" class="node">
<title>Node1</title>
<g id="a_node1"><a xlink:title=" ">
<polygon fill="#bfbfbf" stroke="black" points="0,-0.5 0,-19.5 113,-19.5 113,-0.5 0,-0.5"/>
<text text-anchor="middle" x="56.5" y="-7.5" font-family="Helvetica,sans-Serif" font-size="10.00">achi_hba_cmd_tbl_t</text>
</a>
</g>
</g>
<!-- Node2 -->
<g id="node2" class="node">
<title>Node2</title>
<g id="a_node2"><a xlink:title=" ">
<polygon fill="none" stroke="black" points="4.5,-89.5 4.5,-108.5 54.5,-108.5 54.5,-89.5 4.5,-89.5"/>
<text text-anchor="middle" x="29.5" y="-96.5" font-family="Helvetica,sans-Serif" font-size="10.00">uint8_t</text>
</a>
</g>
</g>
<!-- Node2&#45;&gt;Node1 -->
<g id="edge1" class="edge">
<title>Node2&#45;&gt;Node1</title>
<path fill="none" stroke="#9a32cd" stroke-dasharray="5,2" d="M35.17,-79.71C40.9,-61.25 49.5,-33.54 53.82,-19.62"/>
<polygon fill="#9a32cd" stroke="#9a32cd" points="31.81,-78.75 32.19,-89.34 38.49,-80.83 31.81,-78.75"/>
<text text-anchor="middle" x="64" y="-63" font-family="Helvetica,sans-Serif" font-size="10.00"> acmd</text>
<text text-anchor="middle" x="64" y="-52" font-family="Helvetica,sans-Serif" font-size="10.00">cfis</text>
<text text-anchor="middle" x="64" y="-41" font-family="Helvetica,sans-Serif" font-size="10.00">rsv</text>
</g>
<!-- Node3 -->
<g id="node3" class="node">
<title>Node3</title>
<g id="a_node3"><a xlink:href="structahci__hba__prdt__entry__t.html" target="_top" xlink:title=" ">
<polygon fill="none" stroke="black" points="73,-89.5 73,-108.5 198,-108.5 198,-89.5 73,-89.5"/>
<text text-anchor="middle" x="135.5" y="-96.5" font-family="Helvetica,sans-Serif" font-size="10.00">ahci_hba_prdt_entry_t</text>
</a>
</g>
</g>
<!-- Node3&#45;&gt;Node1 -->
<g id="edge2" class="edge">
<title>Node3&#45;&gt;Node1</title>
<path fill="none" stroke="#9a32cd" stroke-dasharray="5,2" d="M121.6,-81.33C111.3,-69.13 96.8,-52.29 83.5,-38 77.72,-31.79 70.97,-25.04 65.66,-19.84"/>
<polygon fill="#9a32cd" stroke="#9a32cd" points="119.17,-83.88 128.28,-89.29 124.53,-79.38 119.17,-83.88"/>
<text text-anchor="middle" x="138.5" y="-52" font-family="Helvetica,sans-Serif" font-size="10.00"> prdt_entry</text>
</g>
<!-- Node4 -->
<g id="node4" class="node">
<title>Node4</title>
<g id="a_node4"><a xlink:title=" ">
<polygon fill="none" stroke="black" points="107.5,-211.5 107.5,-230.5 163.5,-230.5 163.5,-211.5 107.5,-211.5"/>
<text text-anchor="middle" x="135.5" y="-218.5" font-family="Helvetica,sans-Serif" font-size="10.00">uint32_t</text>
</a>
</g>
</g>
<!-- Node4&#45;&gt;Node3 -->
<g id="edge3" class="edge">
<title>Node4&#45;&gt;Node3</title>
<path fill="none" stroke="#9a32cd" stroke-dasharray="5,2" d="M135.5,-201.15C135.5,-174.72 135.5,-127.76 135.5,-108.55"/>
<polygon fill="#9a32cd" stroke="#9a32cd" points="132,-201.37 135.5,-211.37 139,-201.37 132,-201.37"/>
<text text-anchor="middle" x="148" y="-185" font-family="Helvetica,sans-Serif" font-size="10.00"> dba</text>
<text text-anchor="middle" x="148" y="-174" font-family="Helvetica,sans-Serif" font-size="10.00">dbau</text>
<text text-anchor="middle" x="148" y="-163" font-family="Helvetica,sans-Serif" font-size="10.00">dbc</text>
<text text-anchor="middle" x="148" y="-152" font-family="Helvetica,sans-Serif" font-size="10.00">i</text>
<text text-anchor="middle" x="148" y="-141" font-family="Helvetica,sans-Serif" font-size="10.00">rsv0</text>
<text text-anchor="middle" x="148" y="-130" font-family="Helvetica,sans-Serif" font-size="10.00">rsv1</text>
</g>
</g>
</svg>
