<?xml version="1.0" encoding="UTF-8" standalone="no"?>
<!DOCTYPE svg PUBLIC "-//W3C//DTD SVG 1.1//EN"
 "http://www.w3.org/Graphics/SVG/1.1/DTD/svg11.dtd">
<!-- Generated by graphviz version 2.43.0 (0)
 -->
<!-- Title: process_t Pages: 1 -->
<svg width="790pt" height="1350pt"
 viewBox="0.00 0.00 790.00 1349.65" xmlns="http://www.w3.org/2000/svg" xmlns:xlink="http://www.w3.org/1999/xlink">
<g id="graph0" class="graph" transform="scale(1 1) rotate(0) translate(4 1345.65)">
<title>process_t</title>
<!-- Node1 -->
<g id="node1" class="node">
<title>Node1</title>
<g id="a_node1"><a xlink:title=" ">
<polygon fill="#bfbfbf" stroke="black" points="719,-740.15 719,-759.15 782,-759.15 782,-740.15 719,-740.15"/>
<text text-anchor="middle" x="750.5" y="-747.15" font-family="Helvetica,sans-Serif" font-size="10.00">process_t</text>
</a>
</g>
</g>
<!-- Node1&#45;&gt;Node1 -->
<g id="edge1" class="edge">
<title>Node1&#45;&gt;Node1</title>
<path fill="none" stroke="#9a32cd" stroke-dasharray="5,2" d="M737.98,-769.42C738.96,-774.15 743.14,-777.65 750.5,-777.65 762.59,-777.65 766.08,-768.22 760.98,-759.41"/>
<polygon fill="#9a32cd" stroke="#9a32cd" points="741.45,-769.91 740.02,-759.41 734.59,-768.51 741.45,-769.91"/>
<text text-anchor="middle" x="750.5" y="-791.65" font-family="Helvetica,sans-Serif" font-size="10.00"> next</text>
<text text-anchor="middle" x="750.5" y="-780.65" font-family="Helvetica,sans-Serif" font-size="10.00">prev</text>
</g>
<!-- Node2 -->
<g id="node2" class="node">
<title>Node2</title>
<g id="a_node2"><a xlink:title=" ">
<polygon fill="none" stroke="#bfbfbf" points="553,-1322.15 553,-1341.15 646,-1341.15 646,-1322.15 553,-1322.15"/>
<text text-anchor="middle" x="599.5" y="-1329.15" font-family="Helvetica,sans-Serif" font-size="10.00">process_state_t</text>
</a>
</g>
</g>
<!-- Node2&#45;&gt;Node1 -->
<g id="edge2" class="edge">
<title>Node2&#45;&gt;Node1</title>
<path fill="none" stroke="#9a32cd" stroke-dasharray="5,2" d="M656.42,-1330.45C673.08,-1327.23 689.84,-1320.59 701,-1307.65 738.31,-1264.39 747.99,-830.35 749.33,-759.43"/>
<polygon fill="#9a32cd" stroke="#9a32cd" points="655.47,-1327.06 646.12,-1332.05 656.54,-1333.98 655.47,-1327.06"/>
<text text-anchor="middle" x="682.5" y="-1330.65" font-family="Helvetica,sans-Serif" font-size="10.00"> state</text>
</g>
<!-- Node3 -->
<g id="node3" class="node">
<title>Node3</title>
<g id="a_node3"><a xlink:title=" ">
<polygon fill="none" stroke="#bfbfbf" points="112.5,-1037.15 112.5,-1056.15 168.5,-1056.15 168.5,-1037.15 112.5,-1037.15"/>
<text text-anchor="middle" x="140.5" y="-1044.15" font-family="Helvetica,sans-Serif" font-size="10.00">uint64_t</text>
</a>
</g>
</g>
<!-- Node3&#45;&gt;Node1 -->
<g id="edge3" class="edge">
<title>Node3&#45;&gt;Node1</title>
<path fill="none" stroke="#9a32cd" stroke-dasharray="5,2" d="M175.91,-1063.2C239.49,-1123.75 206.39,-1187.78 280,-1228.65 292.73,-1235.72 533.21,-1225.85 535,-1224.65 708.53,-1108.96 743.47,-816.52 748.7,-759.41"/>
<polygon fill="#9a32cd" stroke="#9a32cd" points="177.9,-1060.28 168.12,-1056.21 173.23,-1065.49 177.9,-1060.28"/>
<text text-anchor="middle" x="476" y="-1242.65" font-family="Helvetica,sans-Serif" font-size="10.00"> size</text>
<text text-anchor="middle" x="476" y="-1231.65" font-family="Helvetica,sans-Serif" font-size="10.00">start_time</text>
</g>
<!-- Node4 -->
<g id="node4" class="node">
<title>Node4</title>
<g id="a_node4"><a xlink:href="structubasic__ctx.html" target="_top" xlink:title="BASIC program context Every instance of a BASIC program has one of these, also certain structures suc...">
<polygon fill="none" stroke="black" points="565.5,-740.15 565.5,-759.15 633.5,-759.15 633.5,-740.15 565.5,-740.15"/>
<text text-anchor="middle" x="599.5" y="-747.15" font-family="Helvetica,sans-Serif" font-size="10.00">ubasic_ctx</text>
</a>
</g>
</g>
<!-- Node3&#45;&gt;Node4 -->
<g id="edge20" class="edge">
<title>Node3&#45;&gt;Node4</title>
<path fill="none" stroke="#9a32cd" stroke-dasharray="5,2" d="M178.65,-1057.03C256.94,-1076.38 439.5,-1107.84 535,-1011.65 571.93,-974.45 592.85,-801.76 597.5,-759.17"/>
<polygon fill="#9a32cd" stroke="#9a32cd" points="179.31,-1053.58 168.75,-1054.51 177.58,-1060.37 179.31,-1053.58"/>
<text text-anchor="middle" x="339.5" y="-1102.65" font-family="Helvetica,sans-Serif" font-size="10.00"> for_stack_ptr</text>
<text text-anchor="middle" x="339.5" y="-1091.65" font-family="Helvetica,sans-Serif" font-size="10.00">gosub_stack</text>
<text text-anchor="middle" x="339.5" y="-1080.65" font-family="Helvetica,sans-Serif" font-size="10.00">gosub_stack_ptr</text>
</g>
<!-- Node6 -->
<g id="node6" class="node">
<title>Node6</title>
<g id="a_node6"><a xlink:href="structub__var__double__array.html" target="_top" xlink:title="An array of real (double)">
<polygon fill="none" stroke="black" points="280,-988.15 280,-1007.15 399,-1007.15 399,-988.15 280,-988.15"/>
<text text-anchor="middle" x="339.5" y="-995.15" font-family="Helvetica,sans-Serif" font-size="10.00">ub_var_double_array</text>
</a>
</g>
</g>
<!-- Node3&#45;&gt;Node6 -->
<g id="edge8" class="edge">
<title>Node3&#45;&gt;Node6</title>
<path fill="none" stroke="#9a32cd" stroke-dasharray="5,2" d="M178.67,-1041.43C202.67,-1037.67 234.43,-1031.99 262,-1024.65 279.97,-1019.87 299.74,-1012.85 314.69,-1007.16"/>
<polygon fill="#9a32cd" stroke="#9a32cd" points="177.93,-1038 168.57,-1042.97 178.98,-1044.92 177.93,-1038"/>
<text text-anchor="middle" x="228" y="-1040.65" font-family="Helvetica,sans-Serif" font-size="10.00"> itemcount</text>
</g>
<!-- Node9 -->
<g id="node9" class="node">
<title>Node9</title>
<g id="a_node9"><a xlink:href="structub__var__string__array.html" target="_top" xlink:title="An array of strings.">
<polygon fill="none" stroke="black" points="283,-921.15 283,-940.15 396,-940.15 396,-921.15 283,-921.15"/>
<text text-anchor="middle" x="339.5" y="-928.15" font-family="Helvetica,sans-Serif" font-size="10.00">ub_var_string_array</text>
</a>
</g>
</g>
<!-- Node3&#45;&gt;Node9 -->
<g id="edge13" class="edge">
<title>Node3&#45;&gt;Node9</title>
<path fill="none" stroke="#9a32cd" stroke-dasharray="5,2" d="M162.09,-1030.92C171.45,-1024.3 182.9,-1016.93 194,-1011.65 222.57,-998.07 233.98,-1005.32 262,-990.65 275.83,-983.41 309.62,-955.3 327.3,-940.27"/>
<polygon fill="#9a32cd" stroke="#9a32cd" points="159.85,-1028.22 153.83,-1036.94 163.97,-1033.88 159.85,-1028.22"/>
<text text-anchor="middle" x="228" y="-1014.65" font-family="Helvetica,sans-Serif" font-size="10.00"> itemcount</text>
</g>
<!-- Node20 -->
<g id="node20" class="node">
<title>Node20</title>
<g id="a_node20"><a xlink:href="structub__var__int__array.html" target="_top" xlink:title="An array of integers.">
<polygon fill="none" stroke="black" points="290.5,-673.15 290.5,-692.15 388.5,-692.15 388.5,-673.15 290.5,-673.15"/>
<text text-anchor="middle" x="339.5" y="-680.15" font-family="Helvetica,sans-Serif" font-size="10.00">ub_var_int_array</text>
</a>
</g>
</g>
<!-- Node3&#45;&gt;Node20 -->
<g id="edge36" class="edge">
<title>Node3&#45;&gt;Node20</title>
<path fill="none" stroke="#9a32cd" stroke-dasharray="5,2" d="M159.17,-1029.56C165.35,-1022.68 171.8,-1014.32 176,-1005.65 193.24,-970.13 167.44,-947.87 194,-918.65 215.27,-895.24 241.88,-922.06 262,-897.65 285.74,-868.85 262.25,-763.49 280,-730.65 289.12,-713.78 306.87,-700.54 320.43,-692.28"/>
<polygon fill="#9a32cd" stroke="#9a32cd" points="156.54,-1027.24 152.17,-1036.9 161.61,-1032.07 156.54,-1027.24"/>
<text text-anchor="middle" x="228" y="-921.65" font-family="Helvetica,sans-Serif" font-size="10.00"> itemcount</text>
</g>
<!-- Node4&#45;&gt;Node1 -->
<g id="edge4" class="edge">
<title>Node4&#45;&gt;Node1</title>
<path fill="none" stroke="#9a32cd" stroke-dasharray="5,2" d="M643.81,-749.65C667.75,-749.65 696.93,-749.65 718.56,-749.65"/>
<polygon fill="#9a32cd" stroke="#9a32cd" points="643.57,-746.15 633.57,-749.65 643.57,-753.15 643.57,-746.15"/>
<text text-anchor="middle" x="682.5" y="-752.65" font-family="Helvetica,sans-Serif" font-size="10.00"> code</text>
</g>
<!-- Node5 -->
<g id="node5" class="node">
<title>Node5</title>
<g id="a_node5"><a xlink:title=" ">
<polygon fill="none" stroke="#bfbfbf" points="294.5,-845.15 294.5,-864.15 384.5,-864.15 384.5,-845.15 294.5,-845.15"/>
<text text-anchor="middle" x="339.5" y="-852.15" font-family="Helvetica,sans-Serif" font-size="10.00">ub_return_type</text>
</a>
</g>
</g>
<!-- Node5&#45;&gt;Node4 -->
<g id="edge5" class="edge">
<title>Node5&#45;&gt;Node4</title>
<path fill="none" stroke="#9a32cd" stroke-dasharray="5,2" d="M394.88,-858.73C435.92,-859.35 492.26,-854.8 535,-830.65 564.71,-813.86 585.44,-777.04 594.04,-759.42"/>
<polygon fill="#9a32cd" stroke="#9a32cd" points="394.89,-855.23 384.8,-858.47 394.7,-862.23 394.89,-855.23"/>
<text text-anchor="middle" x="476" y="-860.65" font-family="Helvetica,sans-Serif" font-size="10.00"> fn_type</text>
</g>
<!-- Node6&#45;&gt;Node4 -->
<g id="edge6" class="edge">
<title>Node6&#45;&gt;Node4</title>
<path fill="none" stroke="#9a32cd" stroke-dasharray="5,2" d="M409.04,-998.14C450.35,-994.84 501.3,-983.89 535,-952.65 593.23,-898.68 598.44,-792.18 598.62,-759.45"/>
<polygon fill="#9a32cd" stroke="#9a32cd" points="408.78,-994.65 399.04,-998.81 409.25,-1001.64 408.78,-994.65"/>
<text text-anchor="middle" x="476" y="-999.65" font-family="Helvetica,sans-Serif" font-size="10.00"> double_array_variables</text>
</g>
<!-- Node6&#45;&gt;Node6 -->
<g id="edge7" class="edge">
<title>Node6&#45;&gt;Node6</title>
<path fill="none" stroke="#9a32cd" stroke-dasharray="5,2" d="M319.13,-1017.05C320.49,-1021.97 327.28,-1025.65 339.5,-1025.65 359.05,-1025.65 364.7,-1016.22 356.45,-1007.41"/>
<polygon fill="#9a32cd" stroke="#9a32cd" points="322.51,-1018.01 322.55,-1007.41 315.91,-1015.67 322.51,-1018.01"/>
<text text-anchor="middle" x="339.5" y="-1028.65" font-family="Helvetica,sans-Serif" font-size="10.00"> next</text>
</g>
<!-- Node7 -->
<g id="node7" class="node">
<title>Node7</title>
<g id="a_node7"><a xlink:title=" ">
<polygon fill="none" stroke="#bfbfbf" points="115.5,-804.15 115.5,-823.15 165.5,-823.15 165.5,-804.15 115.5,-804.15"/>
<text text-anchor="middle" x="140.5" y="-811.15" font-family="Helvetica,sans-Serif" font-size="10.00">double</text>
</a>
</g>
</g>
<!-- Node7&#45;&gt;Node6 -->
<g id="edge9" class="edge">
<title>Node7&#45;&gt;Node6</title>
<path fill="none" stroke="#9a32cd" stroke-dasharray="5,2" d="M146.05,-833.29C152.77,-858.65 167.53,-902.93 194,-931.65 223.52,-963.68 240,-961.41 280,-978.65 288.04,-982.12 296.93,-985.32 305.31,-988.06"/>
<polygon fill="#9a32cd" stroke="#9a32cd" points="149.39,-832.24 143.57,-823.39 142.6,-833.94 149.39,-832.24"/>
<text text-anchor="middle" x="228" y="-973.65" font-family="Helvetica,sans-Serif" font-size="10.00"> values</text>
</g>
<!-- Node17 -->
<g id="node17" class="node">
<title>Node17</title>
<g id="a_node17"><a xlink:href="structub__var__double.html" target="_top" xlink:title="A real (double) variable.">
<polygon fill="none" stroke="black" points="295.5,-740.15 295.5,-759.15 383.5,-759.15 383.5,-740.15 295.5,-740.15"/>
<text text-anchor="middle" x="339.5" y="-747.15" font-family="Helvetica,sans-Serif" font-size="10.00">ub_var_double</text>
</a>
</g>
</g>
<!-- Node7&#45;&gt;Node17 -->
<g id="edge29" class="edge">
<title>Node7&#45;&gt;Node17</title>
<path fill="none" stroke="#9a32cd" stroke-dasharray="5,2" d="M175.8,-807.69C200.22,-802.96 233.59,-795.51 262,-785.65 282.94,-778.39 305.79,-767.17 321.02,-759.19"/>
<polygon fill="#9a32cd" stroke="#9a32cd" points="175.11,-804.26 165.93,-809.55 176.41,-811.14 175.11,-804.26"/>
<text text-anchor="middle" x="228" y="-806.65" font-family="Helvetica,sans-Serif" font-size="10.00"> value</text>
</g>
<!-- Node8 -->
<g id="node8" class="node">
<title>Node8</title>
<g id="a_node8"><a xlink:title=" ">
<polygon fill="none" stroke="#bfbfbf" points="0,-699.15 0,-718.15 38,-718.15 38,-699.15 0,-699.15"/>
<text text-anchor="middle" x="19" y="-706.15" font-family="Helvetica,sans-Serif" font-size="10.00">char</text>
</a>
</g>
</g>
<!-- Node8&#45;&gt;Node1 -->
<g id="edge58" class="edge">
<title>Node8&#45;&gt;Node1</title>
<path fill="none" stroke="#9a32cd" stroke-dasharray="5,2" d="M19.73,-728.49C18.87,-830.75 21.47,-1293.65 139.5,-1293.65 139.5,-1293.65 139.5,-1293.65 600.5,-1293.65 715.8,-1293.65 745.06,-833.29 749,-759.56"/>
<polygon fill="#9a32cd" stroke="#9a32cd" points="23.23,-728.36 19.84,-718.32 16.23,-728.28 23.23,-728.36"/>
<text text-anchor="middle" x="339.5" y="-1307.65" font-family="Helvetica,sans-Serif" font-size="10.00"> directory</text>
<text text-anchor="middle" x="339.5" y="-1296.65" font-family="Helvetica,sans-Serif" font-size="10.00">name</text>
</g>
<!-- Node8&#45;&gt;Node4 -->
<g id="edge21" class="edge">
<title>Node8&#45;&gt;Node4</title>
<path fill="none" stroke="#9a32cd" stroke-dasharray="5,2" d="M26.56,-727.92C37.58,-756.84 62.84,-810.44 105,-832.65 147.64,-855.12 488.61,-788.72 535,-775.65 550.02,-771.42 566.3,-764.71 578.61,-759.17"/>
<polygon fill="#9a32cd" stroke="#9a32cd" points="29.84,-726.69 23.14,-718.49 23.26,-729.08 29.84,-726.69"/>
<text text-anchor="middle" x="228" y="-880.65" font-family="Helvetica,sans-Serif" font-size="10.00"> item_begin</text>
<text text-anchor="middle" x="228" y="-869.65" font-family="Helvetica,sans-Serif" font-size="10.00">nextptr</text>
<text text-anchor="middle" x="228" y="-858.65" font-family="Helvetica,sans-Serif" font-size="10.00">program_ptr</text>
<text text-anchor="middle" x="228" y="-847.65" font-family="Helvetica,sans-Serif" font-size="10.00">ptr</text>
<text text-anchor="middle" x="228" y="-836.65" font-family="Helvetica,sans-Serif" font-size="10.00">string</text>
</g>
<!-- Node8&#45;&gt;Node6 -->
<g id="edge10" class="edge">
<title>Node8&#45;&gt;Node6</title>
<path fill="none" stroke="#9a32cd" stroke-dasharray="5,2" d="M21.5,-728.6C27.16,-797.63 49.76,-1024.37 105,-1065.65 161.08,-1107.57 197.15,-1079.06 262,-1052.65 288.66,-1041.8 314.82,-1019.87 328.57,-1007.23"/>
<polygon fill="#9a32cd" stroke="#9a32cd" points="24.96,-727.96 20.69,-718.27 17.99,-728.52 24.96,-727.96"/>
<text text-anchor="middle" x="140.5" y="-1089.65" font-family="Helvetica,sans-Serif" font-size="10.00"> varname</text>
</g>
<!-- Node8&#45;&gt;Node9 -->
<g id="edge14" class="edge">
<title>Node8&#45;&gt;Node9</title>
<path fill="none" stroke="#9a32cd" stroke-dasharray="5,2" d="M20.2,-728.56C21.41,-760.17 27.55,-822.66 56,-865.65 97.8,-928.82 121.95,-942.29 194,-965.65 222.75,-974.97 232.47,-972.09 262,-965.65 284.26,-960.8 307.8,-948.87 322.79,-940.28"/>
<polygon fill="#9a32cd" stroke="#9a32cd" points="23.69,-728.31 19.94,-718.4 16.69,-728.49 23.69,-728.31"/>
<text text-anchor="middle" x="140.5" y="-972.65" font-family="Helvetica,sans-Serif" font-size="10.00"> values</text>
<text text-anchor="middle" x="140.5" y="-961.65" font-family="Helvetica,sans-Serif" font-size="10.00">varname</text>
</g>
<!-- Node10 -->
<g id="node10" class="node">
<title>Node10</title>
<g id="a_node10"><a xlink:href="structub__var__int.html" target="_top" xlink:title="An integer variable.">
<polygon fill="none" stroke="black" points="305.5,-380.15 305.5,-399.15 373.5,-399.15 373.5,-380.15 305.5,-380.15"/>
<text text-anchor="middle" x="339.5" y="-387.15" font-family="Helvetica,sans-Serif" font-size="10.00">ub_var_int</text>
</a>
</g>
</g>
<!-- Node8&#45;&gt;Node10 -->
<g id="edge17" class="edge">
<title>Node8&#45;&gt;Node10</title>
<path fill="none" stroke="#9a32cd" stroke-dasharray="5,2" d="M20.16,-689.08C21.14,-649.97 26.68,-560.01 56,-491.65 70.26,-458.4 75.55,-447.67 105,-426.65 165.3,-383.61 256.65,-382.87 305.29,-386.18"/>
<polygon fill="#9a32cd" stroke="#9a32cd" points="16.66,-689.05 19.99,-699.11 23.66,-689.17 16.66,-689.05"/>
<text text-anchor="middle" x="140.5" y="-429.65" font-family="Helvetica,sans-Serif" font-size="10.00"> varname</text>
</g>
<!-- Node13 -->
<g id="node13" class="node">
<title>Node13</title>
<g id="a_node13"><a xlink:href="structconsole.html" target="_top" xlink:title=" ">
<polygon fill="none" stroke="black" points="312.5,-203.15 312.5,-222.15 366.5,-222.15 366.5,-203.15 312.5,-203.15"/>
<text text-anchor="middle" x="339.5" y="-210.15" font-family="Helvetica,sans-Serif" font-size="10.00">console</text>
</a>
</g>
</g>
<!-- Node8&#45;&gt;Node13 -->
<g id="edge23" class="edge">
<title>Node8&#45;&gt;Node13</title>
<path fill="none" stroke="#9a32cd" stroke-dasharray="5,2" d="M19.55,-688.51C18.03,-597.87 17.36,-229.6 105,-169.65 138.51,-146.73 258.72,-184.55 312.35,-203.2"/>
<polygon fill="#9a32cd" stroke="#9a32cd" points="16.06,-688.85 19.75,-698.78 23.06,-688.72 16.06,-688.85"/>
<text text-anchor="middle" x="140.5" y="-194.65" font-family="Helvetica,sans-Serif" font-size="10.00"> buffer</text>
<text text-anchor="middle" x="140.5" y="-183.65" font-family="Helvetica,sans-Serif" font-size="10.00">dirty</text>
<text text-anchor="middle" x="140.5" y="-172.65" font-family="Helvetica,sans-Serif" font-size="10.00">internalbuffer</text>
</g>
<!-- Node8&#45;&gt;Node17 -->
<g id="edge30" class="edge">
<title>Node8&#45;&gt;Node17</title>
<path fill="none" stroke="#9a32cd" stroke-dasharray="5,2" d="M41.33,-724.16C46.03,-727.2 51.08,-730.21 56,-732.65 76.65,-742.91 82.29,-745.69 105,-749.65 170.49,-761.07 247.9,-757.86 295.08,-754.08"/>
<polygon fill="#9a32cd" stroke="#9a32cd" points="43.09,-721.12 32.85,-718.38 39.15,-726.9 43.09,-721.12"/>
<text text-anchor="middle" x="140.5" y="-759.65" font-family="Helvetica,sans-Serif" font-size="10.00"> varname</text>
</g>
<!-- Node8&#45;&gt;Node20 -->
<g id="edge37" class="edge">
<title>Node8&#45;&gt;Node20</title>
<path fill="none" stroke="#9a32cd" stroke-dasharray="5,2" d="M48.37,-714.7C103.42,-725.95 222.75,-747.92 262,-735.65 289.14,-727.17 315.12,-705.3 328.71,-692.46"/>
<polygon fill="#9a32cd" stroke="#9a32cd" points="48.76,-711.2 38.26,-712.6 47.34,-718.06 48.76,-711.2"/>
<text text-anchor="middle" x="140.5" y="-737.65" font-family="Helvetica,sans-Serif" font-size="10.00"> varname</text>
</g>
<!-- Node21 -->
<g id="node21" class="node">
<title>Node21</title>
<g id="a_node21"><a xlink:href="structub__proc__fn__def.html" target="_top" xlink:title="Procedure or function definition Each has a name, a type, a starting line and a parameter list.">
<polygon fill="none" stroke="black" points="294,-559.15 294,-578.15 385,-578.15 385,-559.15 294,-559.15"/>
<text text-anchor="middle" x="339.5" y="-566.15" font-family="Helvetica,sans-Serif" font-size="10.00">ub_proc_fn_def</text>
</a>
</g>
</g>
<!-- Node8&#45;&gt;Node21 -->
<g id="edge43" class="edge">
<title>Node8&#45;&gt;Node21</title>
<path fill="none" stroke="#9a32cd" stroke-dasharray="5,2" d="M25.47,-689.46C35.46,-658.43 59.9,-598.15 105,-572.65 136.15,-555.04 235.34,-559.81 293.94,-564.48"/>
<polygon fill="#9a32cd" stroke="#9a32cd" points="22.09,-688.52 22.53,-699.11 28.79,-690.56 22.09,-688.52"/>
<text text-anchor="middle" x="140.5" y="-575.65" font-family="Helvetica,sans-Serif" font-size="10.00"> name</text>
</g>
<!-- Node23 -->
<g id="node23" class="node">
<title>Node23</title>
<g id="a_node23"><a xlink:href="structub__param.html" target="_top" xlink:title="FN/PROC parameter.">
<polygon fill="none" stroke="black" points="108,-643.15 108,-662.15 173,-662.15 173,-643.15 108,-643.15"/>
<text text-anchor="middle" x="140.5" y="-650.15" font-family="Helvetica,sans-Serif" font-size="10.00">ub_param</text>
</a>
</g>
</g>
<!-- Node8&#45;&gt;Node23 -->
<g id="edge47" class="edge">
<title>Node8&#45;&gt;Node23</title>
<path fill="none" stroke="#9a32cd" stroke-dasharray="5,2" d="M47.25,-695.88C69.14,-685.63 99.37,-671.46 119.18,-662.18"/>
<polygon fill="#9a32cd" stroke="#9a32cd" points="45.72,-692.74 38.15,-700.15 48.69,-699.07 45.72,-692.74"/>
<text text-anchor="middle" x="71.5" y="-692.65" font-family="Helvetica,sans-Serif" font-size="10.00"> name</text>
</g>
<!-- Node24 -->
<g id="node24" class="node">
<title>Node24</title>
<g id="a_node24"><a xlink:href="structub__var__string.html" target="_top" xlink:title="A string variable.">
<polygon fill="none" stroke="black" points="298,-312.15 298,-331.15 381,-331.15 381,-312.15 298,-312.15"/>
<text text-anchor="middle" x="339.5" y="-319.15" font-family="Helvetica,sans-Serif" font-size="10.00">ub_var_string</text>
</a>
</g>
</g>
<!-- Node8&#45;&gt;Node24 -->
<g id="edge50" class="edge">
<title>Node8&#45;&gt;Node24</title>
<path fill="none" stroke="#9a32cd" stroke-dasharray="5,2" d="M20.56,-688.65C23.22,-610.48 37.44,-327.52 105,-277.65 137.77,-253.46 258.95,-292.78 312.63,-312.02"/>
<polygon fill="#9a32cd" stroke="#9a32cd" points="17.05,-688.9 20.24,-699.01 24.05,-689.12 17.05,-688.9"/>
<text text-anchor="middle" x="140.5" y="-291.65" font-family="Helvetica,sans-Serif" font-size="10.00"> value</text>
<text text-anchor="middle" x="140.5" y="-280.65" font-family="Helvetica,sans-Serif" font-size="10.00">varname</text>
</g>
<!-- Node26 -->
<g id="node26" class="node">
<title>Node26</title>
<g id="a_node26"><a xlink:href="structfor__state.html" target="_top" xlink:title="State for a FOR...NEXT loop.">
<polygon fill="none" stroke="black" points="309.5,-447.15 309.5,-466.15 369.5,-466.15 369.5,-447.15 309.5,-447.15"/>
<text text-anchor="middle" x="339.5" y="-454.15" font-family="Helvetica,sans-Serif" font-size="10.00">for_state</text>
</a>
</g>
</g>
<!-- Node8&#45;&gt;Node26 -->
<g id="edge55" class="edge">
<title>Node8&#45;&gt;Node26</title>
<path fill="none" stroke="#9a32cd" stroke-dasharray="5,2" d="M21.25,-688.73C25.19,-643.66 41.18,-533.31 105,-474.65 161.13,-423.07 260.3,-437.39 309.35,-448.75"/>
<polygon fill="#9a32cd" stroke="#9a32cd" points="17.75,-688.69 20.48,-698.93 24.73,-689.23 17.75,-688.69"/>
<text text-anchor="middle" x="140.5" y="-477.65" font-family="Helvetica,sans-Serif" font-size="10.00"> for_variable</text>
</g>
<!-- Node9&#45;&gt;Node4 -->
<g id="edge11" class="edge">
<title>Node9&#45;&gt;Node4</title>
<path fill="none" stroke="#9a32cd" stroke-dasharray="5,2" d="M406.59,-938C447.51,-939 498.94,-933.41 535,-905.65 583.66,-868.2 595.22,-787.22 597.8,-759.33"/>
<polygon fill="#9a32cd" stroke="#9a32cd" points="406.55,-934.49 396.43,-937.61 406.29,-941.49 406.55,-934.49"/>
<text text-anchor="middle" x="476" y="-940.65" font-family="Helvetica,sans-Serif" font-size="10.00"> string_array_variables</text>
</g>
<!-- Node9&#45;&gt;Node9 -->
<g id="edge12" class="edge">
<title>Node9&#45;&gt;Node9</title>
<path fill="none" stroke="#9a32cd" stroke-dasharray="5,2" d="M319.13,-950.05C320.49,-954.97 327.28,-958.65 339.5,-958.65 359.05,-958.65 364.7,-949.22 356.45,-940.41"/>
<polygon fill="#9a32cd" stroke="#9a32cd" points="322.51,-951.01 322.55,-940.41 315.91,-948.67 322.51,-951.01"/>
<text text-anchor="middle" x="339.5" y="-961.65" font-family="Helvetica,sans-Serif" font-size="10.00"> next</text>
</g>
<!-- Node10&#45;&gt;Node4 -->
<g id="edge15" class="edge">
<title>Node10&#45;&gt;Node4</title>
<path fill="none" stroke="#9a32cd" stroke-dasharray="5,2" d="M383.78,-383.28C427.83,-379.43 495.14,-381.24 535,-419.65 582.79,-465.7 595.79,-690.52 598.09,-740.01"/>
<polygon fill="#9a32cd" stroke="#9a32cd" points="383.26,-379.82 373.66,-384.3 383.96,-386.78 383.26,-379.82"/>
<text text-anchor="middle" x="476" y="-433.65" font-family="Helvetica,sans-Serif" font-size="10.00"> int_variables</text>
<text text-anchor="middle" x="476" y="-422.65" font-family="Helvetica,sans-Serif" font-size="10.00">local_int_variables</text>
</g>
<!-- Node10&#45;&gt;Node10 -->
<g id="edge16" class="edge">
<title>Node10&#45;&gt;Node10</title>
<path fill="none" stroke="#9a32cd" stroke-dasharray="5,2" d="M319.13,-409.05C320.49,-413.97 327.28,-417.65 339.5,-417.65 359.05,-417.65 364.7,-408.22 356.45,-399.41"/>
<polygon fill="#9a32cd" stroke="#9a32cd" points="322.51,-410.01 322.55,-399.41 315.91,-407.67 322.51,-410.01"/>
<text text-anchor="middle" x="339.5" y="-420.65" font-family="Helvetica,sans-Serif" font-size="10.00"> next</text>
</g>
<!-- Node11 -->
<g id="node11" class="node">
<title>Node11</title>
<g id="a_node11"><a xlink:title=" ">
<polygon fill="none" stroke="#bfbfbf" points="115.5,-495.15 115.5,-514.15 165.5,-514.15 165.5,-495.15 115.5,-495.15"/>
<text text-anchor="middle" x="140.5" y="-502.15" font-family="Helvetica,sans-Serif" font-size="10.00">int64_t</text>
</a>
</g>
</g>
<!-- Node11&#45;&gt;Node4 -->
<g id="edge26" class="edge">
<title>Node11&#45;&gt;Node4</title>
<path fill="none" stroke="#9a32cd" stroke-dasharray="5,2" d="M175.86,-498.78C251.86,-487.94 435.35,-473.88 535,-569.65 585.65,-618.33 595.96,-709.83 598.01,-739.84"/>
<polygon fill="#9a32cd" stroke="#9a32cd" points="175.24,-495.34 165.87,-500.28 176.28,-502.26 175.24,-495.34"/>
<text text-anchor="middle" x="339.5" y="-514.65" font-family="Helvetica,sans-Serif" font-size="10.00"> current_linenum</text>
<text text-anchor="middle" x="339.5" y="-503.65" font-family="Helvetica,sans-Serif" font-size="10.00">eval_linenum</text>
</g>
<!-- Node11&#45;&gt;Node10 -->
<g id="edge18" class="edge">
<title>Node11&#45;&gt;Node10</title>
<path fill="none" stroke="#9a32cd" stroke-dasharray="5,2" d="M150.51,-485.74C159.35,-469.13 174.36,-445.53 194,-431.65 227.5,-407.99 274.26,-397.55 305.41,-393.02"/>
<polygon fill="#9a32cd" stroke="#9a32cd" points="147.2,-484.52 145.81,-495.02 153.45,-487.68 147.2,-484.52"/>
<text text-anchor="middle" x="228" y="-434.65" font-family="Helvetica,sans-Serif" font-size="10.00"> value</text>
</g>
<!-- Node11&#45;&gt;Node20 -->
<g id="edge38" class="edge">
<title>Node11&#45;&gt;Node20</title>
<path fill="none" stroke="#9a32cd" stroke-dasharray="5,2" d="M160.48,-521.52C166.16,-527.41 171.94,-534.37 176,-541.65 190.8,-568.21 173.01,-585.66 194,-607.65 215.93,-630.63 236.99,-610.08 262,-629.65 273.95,-639 268.42,-648.85 280,-658.65 287.29,-664.82 296.38,-669.57 305.21,-673.15"/>
<polygon fill="#9a32cd" stroke="#9a32cd" points="162.59,-518.69 152.97,-514.24 157.71,-523.72 162.59,-518.69"/>
<text text-anchor="middle" x="228" y="-632.65" font-family="Helvetica,sans-Serif" font-size="10.00"> values</text>
</g>
<!-- Node11&#45;&gt;Node21 -->
<g id="edge44" class="edge">
<title>Node11&#45;&gt;Node21</title>
<path fill="none" stroke="#9a32cd" stroke-dasharray="5,2" d="M175.53,-513.3C199.82,-519.7 233.16,-528.95 262,-538.65 280.39,-544.84 300.83,-552.92 315.95,-559.13"/>
<polygon fill="#9a32cd" stroke="#9a32cd" points="176.28,-509.87 165.72,-510.73 174.51,-516.65 176.28,-509.87"/>
<text text-anchor="middle" x="228" y="-541.65" font-family="Helvetica,sans-Serif" font-size="10.00"> line</text>
</g>
<!-- Node11&#45;&gt;Node26 -->
<g id="edge56" class="edge">
<title>Node11&#45;&gt;Node26</title>
<path fill="none" stroke="#9a32cd" stroke-dasharray="5,2" d="M155.17,-487.18C164.74,-476.44 178.54,-463.62 194,-457.65 231.8,-443.06 279.41,-446.48 309.42,-450.99"/>
<polygon fill="#9a32cd" stroke="#9a32cd" points="152.49,-484.94 148.73,-494.84 157.84,-489.44 152.49,-484.94"/>
<text text-anchor="middle" x="228" y="-482.65" font-family="Helvetica,sans-Serif" font-size="10.00"> line_after_for</text>
<text text-anchor="middle" x="228" y="-471.65" font-family="Helvetica,sans-Serif" font-size="10.00">step</text>
<text text-anchor="middle" x="228" y="-460.65" font-family="Helvetica,sans-Serif" font-size="10.00">to</text>
</g>
<!-- Node12 -->
<g id="node12" class="node">
<title>Node12</title>
<g id="a_node12"><a xlink:title=" ">
<polygon fill="none" stroke="#bfbfbf" points="121.5,-309.15 121.5,-328.15 159.5,-328.15 159.5,-309.15 121.5,-309.15"/>
<text text-anchor="middle" x="140.5" y="-316.15" font-family="Helvetica,sans-Serif" font-size="10.00">bool</text>
</a>
</g>
</g>
<!-- Node12&#45;&gt;Node4 -->
<g id="edge40" class="edge">
<title>Node12&#45;&gt;Node4</title>
<path fill="none" stroke="#9a32cd" stroke-dasharray="5,2" d="M169.23,-307.15C177.15,-304.13 185.84,-301.05 194,-298.65 231.47,-287.67 241.16,-284.67 280,-280.65 393.51,-268.9 457.33,-227.05 535,-310.65 595.54,-375.81 598.53,-680.82 598.53,-739.78"/>
<polygon fill="#9a32cd" stroke="#9a32cd" points="167.75,-303.98 159.72,-310.9 170.31,-310.49 167.75,-303.98"/>
<text text-anchor="middle" x="339.5" y="-294.65" font-family="Helvetica,sans-Serif" font-size="10.00"> ended</text>
<text text-anchor="middle" x="339.5" y="-283.65" font-family="Helvetica,sans-Serif" font-size="10.00">errored</text>
</g>
<!-- Node12&#45;&gt;Node10 -->
<g id="edge19" class="edge">
<title>Node12&#45;&gt;Node10</title>
<path fill="none" stroke="#9a32cd" stroke-dasharray="5,2" d="M169.57,-317.18C195.69,-317.19 234.61,-320.85 262,-339.65 274.82,-348.45 267.91,-359.88 280,-369.65 287.35,-375.59 296.55,-379.81 305.48,-382.79"/>
<polygon fill="#9a32cd" stroke="#9a32cd" points="169.5,-313.68 159.56,-317.36 169.62,-320.68 169.5,-313.68"/>
<text text-anchor="middle" x="228" y="-342.65" font-family="Helvetica,sans-Serif" font-size="10.00"> global</text>
</g>
<!-- Node12&#45;&gt;Node17 -->
<g id="edge32" class="edge">
<title>Node12&#45;&gt;Node17</title>
<path fill="none" stroke="#9a32cd" stroke-dasharray="5,2" d="M167.98,-333.05C171.15,-335.83 173.98,-339.03 176,-342.65 211.67,-406.6 158.12,-607.82 194,-671.65 215.16,-709.3 261.88,-729.71 296.5,-740.09"/>
<polygon fill="#9a32cd" stroke="#9a32cd" points="169.78,-330.03 159.64,-326.98 165.66,-335.69 169.78,-330.03"/>
<text text-anchor="middle" x="228" y="-728.65" font-family="Helvetica,sans-Serif" font-size="10.00"> global</text>
</g>
<!-- Node12&#45;&gt;Node24 -->
<g id="edge51" class="edge">
<title>Node12&#45;&gt;Node24</title>
<path fill="none" stroke="#9a32cd" stroke-dasharray="5,2" d="M169.54,-310.38C177.39,-308.43 185.96,-306.63 194,-305.65 224,-301.99 231.94,-302.54 262,-305.65 274.69,-306.97 288.37,-309.47 300.61,-312.12"/>
<polygon fill="#9a32cd" stroke="#9a32cd" points="168.53,-307.02 159.76,-312.97 170.32,-313.79 168.53,-307.02"/>
<text text-anchor="middle" x="228" y="-308.65" font-family="Helvetica,sans-Serif" font-size="10.00"> global</text>
</g>
<!-- Node13&#45;&gt;Node1 -->
<g id="edge59" class="edge">
<title>Node13&#45;&gt;Node1</title>
<path fill="none" stroke="#9a32cd" stroke-dasharray="5,2" d="M376.79,-204.74C418.98,-197.73 488.74,-193.16 535,-226.65 719.01,-359.9 745.63,-679.84 749.04,-739.86"/>
<polygon fill="#9a32cd" stroke="#9a32cd" points="375.91,-201.34 366.69,-206.56 377.15,-208.23 375.91,-201.34"/>
<text text-anchor="middle" x="599.5" y="-354.65" font-family="Helvetica,sans-Serif" font-size="10.00"> cons</text>
</g>
<!-- Node13&#45;&gt;Node4 -->
<g id="edge22" class="edge">
<title>Node13&#45;&gt;Node4</title>
<path fill="none" stroke="#9a32cd" stroke-dasharray="5,2" d="M376.59,-217.84C431.32,-225.86 529.55,-240.94 535,-246.65 570.54,-283.92 594.16,-673.32 597.96,-739.97"/>
<polygon fill="#9a32cd" stroke="#9a32cd" points="376.99,-214.36 366.59,-216.38 375.98,-221.29 376.99,-214.36"/>
<text text-anchor="middle" x="476" y="-249.65" font-family="Helvetica,sans-Serif" font-size="10.00"> cons</text>
</g>
<!-- Node14 -->
<g id="node14" class="node">
<title>Node14</title>
<g id="a_node14"><a xlink:title=" ">
<polygon fill="none" stroke="#bfbfbf" points="118,-212.15 118,-231.15 163,-231.15 163,-212.15 118,-212.15"/>
<text text-anchor="middle" x="140.5" y="-219.15" font-family="Helvetica,sans-Serif" font-size="10.00">size_t</text>
</a>
</g>
</g>
<!-- Node14&#45;&gt;Node13 -->
<g id="edge24" class="edge">
<title>Node14&#45;&gt;Node13</title>
<path fill="none" stroke="#9a32cd" stroke-dasharray="5,2" d="M173.5,-220.19C212.12,-218.43 276.32,-215.49 312.19,-213.86"/>
<polygon fill="#9a32cd" stroke="#9a32cd" points="173.16,-216.7 163.34,-220.66 173.48,-223.7 173.16,-216.7"/>
<text text-anchor="middle" x="228" y="-221.65" font-family="Helvetica,sans-Serif" font-size="10.00"> bufcnt</text>
</g>
<!-- Node15 -->
<g id="node15" class="node">
<title>Node15</title>
<g id="a_node15"><a xlink:title=" ">
<polygon fill="none" stroke="#bfbfbf" points="115.5,-95.15 115.5,-114.15 165.5,-114.15 165.5,-95.15 115.5,-95.15"/>
<text text-anchor="middle" x="140.5" y="-102.15" font-family="Helvetica,sans-Serif" font-size="10.00">uint8_t</text>
</a>
</g>
</g>
<!-- Node15&#45;&gt;Node1 -->
<g id="edge61" class="edge">
<title>Node15&#45;&gt;Node1</title>
<path fill="none" stroke="#9a32cd" stroke-dasharray="5,2" d="M175.77,-98.82C199.99,-95.64 233.14,-93.17 262,-97.65 441.5,-125.56 524.43,-102.67 646,-237.65 716.7,-316.16 744.44,-675.89 748.86,-739.9"/>
<polygon fill="#9a32cd" stroke="#9a32cd" points="175.06,-95.39 165.65,-100.27 176.04,-102.32 175.06,-95.39"/>
<text text-anchor="middle" x="476" y="-150.65" font-family="Helvetica,sans-Serif" font-size="10.00"> cpu</text>
</g>
<!-- Node15&#45;&gt;Node13 -->
<g id="edge25" class="edge">
<title>Node15&#45;&gt;Node13</title>
<path fill="none" stroke="#9a32cd" stroke-dasharray="5,2" d="M175.97,-101.58C201.27,-100.87 235.67,-103.26 262,-117.65 298.61,-137.66 324.17,-183.13 334.02,-203.03"/>
<polygon fill="#9a32cd" stroke="#9a32cd" points="175.57,-98.09 165.74,-102.04 175.89,-105.08 175.57,-98.09"/>
<text text-anchor="middle" x="228" y="-153.65" font-family="Helvetica,sans-Serif" font-size="10.00"> attributes</text>
<text text-anchor="middle" x="228" y="-142.65" font-family="Helvetica,sans-Serif" font-size="10.00">last</text>
<text text-anchor="middle" x="228" y="-131.65" font-family="Helvetica,sans-Serif" font-size="10.00">x</text>
<text text-anchor="middle" x="228" y="-120.65" font-family="Helvetica,sans-Serif" font-size="10.00">y</text>
</g>
<!-- Node16 -->
<g id="node16" class="node">
<title>Node16</title>
<g id="a_node16"><a xlink:title=" ">
<polygon fill="none" stroke="#bfbfbf" points="314.5,-1200.15 314.5,-1219.15 364.5,-1219.15 364.5,-1200.15 314.5,-1200.15"/>
<text text-anchor="middle" x="339.5" y="-1207.15" font-family="Helvetica,sans-Serif" font-size="10.00">int32_t</text>
</a>
</g>
</g>
<!-- Node16&#45;&gt;Node4 -->
<g id="edge27" class="edge">
<title>Node16&#45;&gt;Node4</title>
<path fill="none" stroke="#9a32cd" stroke-dasharray="5,2" d="M374.96,-1210.41C424.65,-1210.74 512.93,-1208.15 535,-1186.65 598.58,-1124.74 599.1,-817.45 598.61,-759.19"/>
<polygon fill="#9a32cd" stroke="#9a32cd" points="374.72,-1206.91 364.68,-1210.3 374.64,-1213.91 374.72,-1206.91"/>
<text text-anchor="middle" x="476" y="-1212.65" font-family="Helvetica,sans-Serif" font-size="10.00"> graphics_colour</text>
</g>
<!-- Node17&#45;&gt;Node4 -->
<g id="edge28" class="edge">
<title>Node17&#45;&gt;Node4</title>
<path fill="none" stroke="#9a32cd" stroke-dasharray="5,2" d="M393.98,-749.65C445.6,-749.65 522.11,-749.65 565.44,-749.65"/>
<polygon fill="#9a32cd" stroke="#9a32cd" points="393.68,-746.15 383.68,-749.65 393.68,-753.15 393.68,-746.15"/>
<text text-anchor="middle" x="476" y="-763.65" font-family="Helvetica,sans-Serif" font-size="10.00"> double_variables</text>
<text text-anchor="middle" x="476" y="-752.65" font-family="Helvetica,sans-Serif" font-size="10.00">local_double_variables</text>
</g>
<!-- Node17&#45;&gt;Node17 -->
<g id="edge31" class="edge">
<title>Node17&#45;&gt;Node17</title>
<path fill="none" stroke="#9a32cd" stroke-dasharray="5,2" d="M319.13,-769.05C320.49,-773.97 327.28,-777.65 339.5,-777.65 359.05,-777.65 364.7,-768.22 356.45,-759.41"/>
<polygon fill="#9a32cd" stroke="#9a32cd" points="322.51,-770.01 322.55,-759.41 315.91,-767.67 322.51,-770.01"/>
<text text-anchor="middle" x="339.5" y="-780.65" font-family="Helvetica,sans-Serif" font-size="10.00"> next</text>
</g>
<!-- Node18 -->
<g id="node18" class="node">
<title>Node18</title>
<g id="a_node18"><a xlink:title=" ">
<polygon fill="none" stroke="#bfbfbf" points="289,-1162.15 289,-1181.15 390,-1181.15 390,-1162.15 289,-1162.15"/>
<text text-anchor="middle" x="339.5" y="-1169.15" font-family="Helvetica,sans-Serif" font-size="10.00">struct hashmap *</text>
</a>
</g>
</g>
<!-- Node18&#45;&gt;Node4 -->
<g id="edge33" class="edge">
<title>Node18&#45;&gt;Node4</title>
<path fill="none" stroke="#9a32cd" stroke-dasharray="5,2" d="M400.08,-1172.56C450.04,-1171.99 516.16,-1167.67 535,-1149.65 593.44,-1093.77 598.13,-815.43 598.48,-759.46"/>
<polygon fill="#9a32cd" stroke="#9a32cd" points="399.98,-1169.07 390,-1172.63 400.02,-1176.07 399.98,-1169.07"/>
<text text-anchor="middle" x="476" y="-1174.65" font-family="Helvetica,sans-Serif" font-size="10.00"> lines</text>
</g>
<!-- Node19 -->
<g id="node19" class="node">
<title>Node19</title>
<g id="a_node19"><a xlink:title=" ">
<polygon fill="none" stroke="#bfbfbf" points="325,-1124.15 325,-1143.15 354,-1143.15 354,-1124.15 325,-1124.15"/>
<text text-anchor="middle" x="339.5" y="-1131.15" font-family="Helvetica,sans-Serif" font-size="10.00">int</text>
</a>
</g>
</g>
<!-- Node19&#45;&gt;Node4 -->
<g id="edge34" class="edge">
<title>Node19&#45;&gt;Node4</title>
<path fill="none" stroke="#9a32cd" stroke-dasharray="5,2" d="M364.08,-1128.31C415.22,-1116.66 532.01,-1089.8 535,-1086.65 581.65,-1037.56 595.54,-809.58 598.05,-759.43"/>
<polygon fill="#9a32cd" stroke="#9a32cd" points="363.2,-1124.92 354.23,-1130.55 364.76,-1131.74 363.2,-1124.92"/>
<text text-anchor="middle" x="476" y="-1140.65" font-family="Helvetica,sans-Serif" font-size="10.00"> bracket_depth</text>
<text text-anchor="middle" x="476" y="-1129.65" font-family="Helvetica,sans-Serif" font-size="10.00">current_token</text>
<text text-anchor="middle" x="476" y="-1118.65" font-family="Helvetica,sans-Serif" font-size="10.00">oldlen</text>
</g>
<!-- Node20&#45;&gt;Node4 -->
<g id="edge35" class="edge">
<title>Node20&#45;&gt;Node4</title>
<path fill="none" stroke="#9a32cd" stroke-dasharray="5,2" d="M387.05,-694.74C438.43,-708.08 519.86,-729.23 565.21,-741.01"/>
<polygon fill="#9a32cd" stroke="#9a32cd" points="387.75,-691.31 377.19,-692.18 385.99,-698.08 387.75,-691.31"/>
<text text-anchor="middle" x="476" y="-734.65" font-family="Helvetica,sans-Serif" font-size="10.00"> int_array_variables</text>
</g>
<!-- Node20&#45;&gt;Node20 -->
<g id="edge39" class="edge">
<title>Node20&#45;&gt;Node20</title>
<path fill="none" stroke="#9a32cd" stroke-dasharray="5,2" d="M319.13,-702.05C320.49,-706.97 327.28,-710.65 339.5,-710.65 359.05,-710.65 364.7,-701.22 356.45,-692.41"/>
<polygon fill="#9a32cd" stroke="#9a32cd" points="322.51,-703.01 322.55,-692.41 315.91,-700.67 322.51,-703.01"/>
<text text-anchor="middle" x="339.5" y="-713.65" font-family="Helvetica,sans-Serif" font-size="10.00"> next</text>
</g>
<!-- Node21&#45;&gt;Node4 -->
<g id="edge41" class="edge">
<title>Node21&#45;&gt;Node4</title>
<path fill="none" stroke="#9a32cd" stroke-dasharray="5,2" d="M395.18,-570.53C437.54,-574.63 495.48,-586.33 535,-618.65 575.11,-651.45 591.7,-715.73 596.72,-740.03"/>
<polygon fill="#9a32cd" stroke="#9a32cd" points="395.3,-567.03 385.03,-569.66 394.7,-574 395.3,-567.03"/>
<text text-anchor="middle" x="476" y="-621.65" font-family="Helvetica,sans-Serif" font-size="10.00"> defs</text>
</g>
<!-- Node21&#45;&gt;Node21 -->
<g id="edge45" class="edge">
<title>Node21&#45;&gt;Node21</title>
<path fill="none" stroke="#9a32cd" stroke-dasharray="5,2" d="M319.13,-588.05C320.49,-592.97 327.28,-596.65 339.5,-596.65 359.05,-596.65 364.7,-587.22 356.45,-578.41"/>
<polygon fill="#9a32cd" stroke="#9a32cd" points="322.51,-589.01 322.55,-578.41 315.91,-586.67 322.51,-589.01"/>
<text text-anchor="middle" x="339.5" y="-599.65" font-family="Helvetica,sans-Serif" font-size="10.00"> next</text>
</g>
<!-- Node22 -->
<g id="node22" class="node">
<title>Node22</title>
<g id="a_node22"><a xlink:title=" ">
<polygon fill="none" stroke="#bfbfbf" points="105,-593.15 105,-612.15 176,-612.15 176,-593.15 105,-593.15"/>
<text text-anchor="middle" x="140.5" y="-600.15" font-family="Helvetica,sans-Serif" font-size="10.00">ub_fn_type</text>
</a>
</g>
</g>
<!-- Node22&#45;&gt;Node21 -->
<g id="edge42" class="edge">
<title>Node22&#45;&gt;Node21</title>
<path fill="none" stroke="#9a32cd" stroke-dasharray="5,2" d="M186.29,-594.92C218.43,-589.38 261.56,-581.93 293.7,-576.39"/>
<polygon fill="#9a32cd" stroke="#9a32cd" points="185.53,-591.5 176.27,-596.65 186.72,-598.4 185.53,-591.5"/>
<text text-anchor="middle" x="228" y="-595.65" font-family="Helvetica,sans-Serif" font-size="10.00"> type</text>
</g>
<!-- Node23&#45;&gt;Node4 -->
<g id="edge57" class="edge">
<title>Node23&#45;&gt;Node4</title>
<path fill="none" stroke="#9a32cd" stroke-dasharray="5,2" d="M172.5,-665.87C179.45,-668.27 186.88,-670.4 194,-671.65 223.77,-676.87 234.24,-683.59 262,-671.65 272.69,-667.06 269.31,-657.25 280,-652.65 328.59,-631.76 346.84,-643.89 399,-652.65 462.07,-663.24 478.87,-669 535,-699.65 555.69,-710.95 576.57,-728.95 588.48,-740"/>
<polygon fill="#9a32cd" stroke="#9a32cd" points="173.34,-662.45 162.75,-662.25 170.9,-669.01 173.34,-662.45"/>
<text text-anchor="middle" x="339.5" y="-655.65" font-family="Helvetica,sans-Serif" font-size="10.00"> param</text>
</g>
<!-- Node23&#45;&gt;Node21 -->
<g id="edge46" class="edge">
<title>Node23&#45;&gt;Node21</title>
<path fill="none" stroke="#9a32cd" stroke-dasharray="5,2" d="M183.53,-656.82C207.72,-657.4 237.98,-654.93 262,-642.65 272.95,-637.06 271.43,-630.46 280,-621.65 295.48,-605.74 314.8,-588.74 326.89,-578.41"/>
<polygon fill="#9a32cd" stroke="#9a32cd" points="183.37,-653.31 173.23,-656.38 183.07,-660.3 183.37,-653.31"/>
<text text-anchor="middle" x="228" y="-659.65" font-family="Helvetica,sans-Serif" font-size="10.00"> params</text>
</g>
<!-- Node23&#45;&gt;Node23 -->
<g id="edge48" class="edge">
<title>Node23&#45;&gt;Node23</title>
<path fill="none" stroke="#9a32cd" stroke-dasharray="5,2" d="M127.98,-672.42C128.96,-677.15 133.14,-680.65 140.5,-680.65 152.59,-680.65 156.08,-671.22 150.98,-662.41"/>
<polygon fill="#9a32cd" stroke="#9a32cd" points="131.45,-672.91 130.02,-662.41 124.59,-671.51 131.45,-672.91"/>
<text text-anchor="middle" x="140.5" y="-683.65" font-family="Helvetica,sans-Serif" font-size="10.00"> next</text>
</g>
<!-- Node24&#45;&gt;Node4 -->
<g id="edge49" class="edge">
<title>Node24&#45;&gt;Node4</title>
<path fill="none" stroke="#9a32cd" stroke-dasharray="5,2" d="M391.54,-315.62C435.71,-313.46 498.11,-318.27 535,-355.65 590.97,-412.37 597.62,-685.21 598.4,-740.04"/>
<polygon fill="#9a32cd" stroke="#9a32cd" points="391.06,-312.14 381.3,-316.26 391.49,-319.13 391.06,-312.14"/>
<text text-anchor="middle" x="476" y="-369.65" font-family="Helvetica,sans-Serif" font-size="10.00"> local_string_variables</text>
<text text-anchor="middle" x="476" y="-358.65" font-family="Helvetica,sans-Serif" font-size="10.00">str_variables</text>
</g>
<!-- Node24&#45;&gt;Node24 -->
<g id="edge52" class="edge">
<title>Node24&#45;&gt;Node24</title>
<path fill="none" stroke="#9a32cd" stroke-dasharray="5,2" d="M319.13,-341.05C320.49,-345.97 327.28,-349.65 339.5,-349.65 359.05,-349.65 364.7,-340.22 356.45,-331.41"/>
<polygon fill="#9a32cd" stroke="#9a32cd" points="322.51,-342.01 322.55,-331.41 315.91,-339.67 322.51,-342.01"/>
<text text-anchor="middle" x="339.5" y="-352.65" font-family="Helvetica,sans-Serif" font-size="10.00"> next</text>
</g>
<!-- Node25 -->
<g id="node25" class="node">
<title>Node25</title>
<g id="a_node25"><a xlink:title=" ">
<polygon fill="none" stroke="#bfbfbf" points="316.5,-883.15 316.5,-902.15 362.5,-902.15 362.5,-883.15 316.5,-883.15"/>
<text text-anchor="middle" x="339.5" y="-890.15" font-family="Helvetica,sans-Serif" font-size="10.00">void *</text>
</a>
</g>
</g>
<!-- Node25&#45;&gt;Node4 -->
<g id="edge53" class="edge">
<title>Node25&#45;&gt;Node4</title>
<path fill="none" stroke="#9a32cd" stroke-dasharray="5,2" d="M372.92,-892.59C421.28,-891.9 509.38,-888.18 535,-870.65 574.94,-843.32 591.55,-782.71 596.65,-759.22"/>
<polygon fill="#9a32cd" stroke="#9a32cd" points="372.63,-889.09 362.67,-892.7 372.71,-896.09 372.63,-889.09"/>
<text text-anchor="middle" x="476" y="-893.65" font-family="Helvetica,sans-Serif" font-size="10.00"> fn_return</text>
</g>
<!-- Node26&#45;&gt;Node4 -->
<g id="edge54" class="edge">
<title>Node26&#45;&gt;Node4</title>
<path fill="none" stroke="#9a32cd" stroke-dasharray="5,2" d="M379.6,-449.31C423.08,-443.56 492.73,-441.92 535,-479.65 575.32,-515.65 593.76,-696.15 597.68,-740.03"/>
<polygon fill="#9a32cd" stroke="#9a32cd" points="379.07,-445.85 369.68,-450.75 380.08,-452.78 379.07,-445.85"/>
<text text-anchor="middle" x="476" y="-482.65" font-family="Helvetica,sans-Serif" font-size="10.00"> for_stack</text>
</g>
<!-- Node27 -->
<g id="node27" class="node">
<title>Node27</title>
<g id="a_node27"><a xlink:title=" ">
<polygon fill="none" stroke="#bfbfbf" points="571.5,-4.15 571.5,-23.15 627.5,-23.15 627.5,-4.15 571.5,-4.15"/>
<text text-anchor="middle" x="599.5" y="-11.15" font-family="Helvetica,sans-Serif" font-size="10.00">uint32_t</text>
</a>
</g>
</g>
<!-- Node27&#45;&gt;Node1 -->
<g id="edge60" class="edge">
<title>Node27&#45;&gt;Node1</title>
<path fill="none" stroke="#9a32cd" stroke-dasharray="5,2" d="M637.71,-2.8C658.95,0.95 684.55,0.9 701,-14.65 756.29,-66.93 750.69,-657.28 749.63,-740.04"/>
<polygon fill="#9a32cd" stroke="#9a32cd" points="636.77,0.58 627.69,-4.88 638.19,-6.27 636.77,0.58"/>
<text text-anchor="middle" x="682.5" y="-61.65" font-family="Helvetica,sans-Serif" font-size="10.00"> gid</text>
<text text-anchor="middle" x="682.5" y="-50.65" font-family="Helvetica,sans-Serif" font-size="10.00">pid</text>
<text text-anchor="middle" x="682.5" y="-39.65" font-family="Helvetica,sans-Serif" font-size="10.00">ppid</text>
<text text-anchor="middle" x="682.5" y="-28.65" font-family="Helvetica,sans-Serif" font-size="10.00">uid</text>
<text text-anchor="middle" x="682.5" y="-17.65" font-family="Helvetica,sans-Serif" font-size="10.00">waitpid</text>
</g>
</g>
</svg>
