<?xml version="1.0" encoding="UTF-8" standalone="no"?>
<!DOCTYPE svg PUBLIC "-//W3C//DTD SVG 1.1//EN"
 "http://www.w3.org/Graphics/SVG/1.1/DTD/svg11.dtd">
<!-- Generated by graphviz version 2.43.0 (0)
 -->
<!-- Title: ub_proc_fn_def Pages: 1 -->
<svg width="342pt" height="162pt"
 viewBox="0.00 0.00 341.50 162.00" xmlns="http://www.w3.org/2000/svg" xmlns:xlink="http://www.w3.org/1999/xlink">
<g id="graph0" class="graph" transform="scale(1 1) rotate(0) translate(4 158)">
<title>ub_proc_fn_def</title>
<!-- Node1 -->
<g id="node1" class="node">
<title>Node1</title>
<g id="a_node1"><a xlink:title="Procedure or function definition Each has a name, a type, a starting line and a parameter list.">
<polygon fill="#bfbfbf" stroke="black" points="91,-0.5 91,-19.5 182,-19.5 182,-0.5 91,-0.5"/>
<text text-anchor="middle" x="136.5" y="-7.5" font-family="Helvetica,sans-Serif" font-size="10.00">ub_proc_fn_def</text>
</a>
</g>
</g>
<!-- Node1&#45;&gt;Node1 -->
<g id="edge4" class="edge">
<title>Node1&#45;&gt;Node1</title>
<path fill="none" stroke="#9a32cd" stroke-dasharray="5,2" d="M192.33,-14.66C197.06,-13.66 200,-12.11 200,-10 200,-6.62 192.47,-4.67 182.16,-4.15"/>
<polygon fill="#9a32cd" stroke="#9a32cd" points="191.69,-11.21 182.16,-15.85 192.5,-18.16 191.69,-11.21"/>
<text text-anchor="middle" x="212.5" y="-7.5" font-family="Helvetica,sans-Serif" font-size="10.00"> next</text>
</g>
<!-- Node2 -->
<g id="node2" class="node">
<title>Node2</title>
<g id="a_node2"><a xlink:title=" ">
<polygon fill="none" stroke="#bfbfbf" points="0,-67.5 0,-86.5 71,-86.5 71,-67.5 0,-67.5"/>
<text text-anchor="middle" x="35.5" y="-74.5" font-family="Helvetica,sans-Serif" font-size="10.00">ub_fn_type</text>
</a>
</g>
</g>
<!-- Node2&#45;&gt;Node1 -->
<g id="edge1" class="edge">
<title>Node2&#45;&gt;Node1</title>
<path fill="none" stroke="#9a32cd" stroke-dasharray="5,2" d="M47.42,-58.93C53.14,-51.71 60.48,-43.69 68.5,-38 79.79,-29.99 93.8,-23.91 106.16,-19.56"/>
<polygon fill="#9a32cd" stroke="#9a32cd" points="44.29,-57.28 41.13,-67.39 49.91,-61.45 44.29,-57.28"/>
<text text-anchor="middle" x="81" y="-41" font-family="Helvetica,sans-Serif" font-size="10.00"> type</text>
</g>
<!-- Node3 -->
<g id="node3" class="node">
<title>Node3</title>
<g id="a_node3"><a xlink:title=" ">
<polygon fill="none" stroke="#bfbfbf" points="104.5,-134.5 104.5,-153.5 142.5,-153.5 142.5,-134.5 104.5,-134.5"/>
<text text-anchor="middle" x="123.5" y="-141.5" font-family="Helvetica,sans-Serif" font-size="10.00">char</text>
</a>
</g>
</g>
<!-- Node3&#45;&gt;Node1 -->
<g id="edge2" class="edge">
<title>Node3&#45;&gt;Node1</title>
<path fill="none" stroke="#9a32cd" stroke-dasharray="5,2" d="M119.03,-124.17C116.02,-108.72 113.15,-86.33 116.5,-67 119.5,-49.71 127.33,-30.69 132.26,-19.86"/>
<polygon fill="#9a32cd" stroke="#9a32cd" points="115.63,-125.01 121.16,-134.05 122.47,-123.53 115.63,-125.01"/>
<text text-anchor="middle" x="132" y="-74.5" font-family="Helvetica,sans-Serif" font-size="10.00"> name</text>
</g>
<!-- Node5 -->
<g id="node5" class="node">
<title>Node5</title>
<g id="a_node5"><a xlink:href="structub__param.html" target="_top" xlink:title="FN/PROC parameter.">
<polygon fill="none" stroke="black" points="157,-67.5 157,-86.5 222,-86.5 222,-67.5 157,-67.5"/>
<text text-anchor="middle" x="189.5" y="-74.5" font-family="Helvetica,sans-Serif" font-size="10.00">ub_param</text>
</a>
</g>
</g>
<!-- Node3&#45;&gt;Node5 -->
<g id="edge6" class="edge">
<title>Node3&#45;&gt;Node5</title>
<path fill="none" stroke="#9a32cd" stroke-dasharray="5,2" d="M139.75,-127C152.69,-114.25 170.31,-96.89 180.74,-86.63"/>
<polygon fill="#9a32cd" stroke="#9a32cd" points="137.07,-124.72 132.4,-134.23 141.98,-129.71 137.07,-124.72"/>
<text text-anchor="middle" x="176" y="-108" font-family="Helvetica,sans-Serif" font-size="10.00"> name</text>
</g>
<!-- Node4 -->
<g id="node4" class="node">
<title>Node4</title>
<g id="a_node4"><a xlink:title=" ">
<polygon fill="none" stroke="#bfbfbf" points="283.5,-67.5 283.5,-86.5 333.5,-86.5 333.5,-67.5 283.5,-67.5"/>
<text text-anchor="middle" x="308.5" y="-74.5" font-family="Helvetica,sans-Serif" font-size="10.00">int64_t</text>
</a>
</g>
</g>
<!-- Node4&#45;&gt;Node1 -->
<g id="edge3" class="edge">
<title>Node4&#45;&gt;Node1</title>
<path fill="none" stroke="#9a32cd" stroke-dasharray="5,2" d="M277.29,-63.71C258.07,-56.19 232.9,-46.43 210.5,-38 193.73,-31.69 174.75,-24.77 160.21,-19.51"/>
<polygon fill="#9a32cd" stroke="#9a32cd" points="276.16,-67.03 286.75,-67.42 278.72,-60.51 276.16,-67.03"/>
<text text-anchor="middle" x="247.5" y="-41" font-family="Helvetica,sans-Serif" font-size="10.00"> line</text>
</g>
<!-- Node5&#45;&gt;Node1 -->
<g id="edge5" class="edge">
<title>Node5&#45;&gt;Node1</title>
<path fill="none" stroke="#9a32cd" stroke-dasharray="5,2" d="M175.86,-59.27C165.53,-46.6 151.75,-29.7 143.53,-19.63"/>
<polygon fill="#9a32cd" stroke="#9a32cd" points="173.32,-61.7 182.35,-67.23 178.75,-57.27 173.32,-61.7"/>
<text text-anchor="middle" x="186.5" y="-41" font-family="Helvetica,sans-Serif" font-size="10.00"> params</text>
</g>
<!-- Node5&#45;&gt;Node5 -->
<g id="edge7" class="edge">
<title>Node5&#45;&gt;Node5</title>
<path fill="none" stroke="#9a32cd" stroke-dasharray="5,2" d="M232.14,-82.07C236.91,-81.11 240,-79.42 240,-77 240,-73.12 232.1,-71.13 222.04,-71.01"/>
<polygon fill="#9a32cd" stroke="#9a32cd" points="231.68,-78.59 222.04,-82.99 232.32,-85.56 231.68,-78.59"/>
<text text-anchor="middle" x="252.5" y="-74.5" font-family="Helvetica,sans-Serif" font-size="10.00"> next</text>
</g>
</g>
</svg>
