<?xml version="1.0" encoding="UTF-8" standalone="no"?>
<!DOCTYPE svg PUBLIC "-//W3C//DTD SVG 1.1//EN"
 "http://www.w3.org/Graphics/SVG/1.1/DTD/svg11.dtd">
<!-- Generated by graphviz version 2.43.0 (0)
 -->
<!-- Title: dhcp_packet_t Pages: 1 -->
<svg width="288pt" height="194pt"
 viewBox="0.00 0.00 288.00 194.00" xmlns="http://www.w3.org/2000/svg" xmlns:xlink="http://www.w3.org/1999/xlink">
<g id="graph0" class="graph" transform="scale(1 1) rotate(0) translate(4 190)">
<title>dhcp_packet_t</title>
<!-- Node1 -->
<g id="node1" class="node">
<title>Node1</title>
<g id="a_node1"><a xlink:title="Definition of a DHCP packet.">
<polygon fill="#bfbfbf" stroke="black" points="59,-0.5 59,-19.5 145,-19.5 145,-0.5 59,-0.5"/>
<text text-anchor="middle" x="102" y="-7.5" font-family="Helvetica,sans-Serif" font-size="10.00">dhcp_packet_t</text>
</a>
</g>
</g>
<!-- Node2 -->
<g id="node2" class="node">
<title>Node2</title>
<g id="a_node2"><a xlink:title=" ">
<polygon fill="none" stroke="#bfbfbf" points="0,-166.5 0,-185.5 56,-185.5 56,-166.5 0,-166.5"/>
<text text-anchor="middle" x="28" y="-173.5" font-family="Helvetica,sans-Serif" font-size="10.00">uint16_t</text>
</a>
</g>
</g>
<!-- Node2&#45;&gt;Node1 -->
<g id="edge1" class="edge">
<title>Node2&#45;&gt;Node1</title>
<path fill="none" stroke="#9a32cd" stroke-dasharray="5,2" d="M27.64,-156.3C28,-128.09 32.33,-74.1 58,-38 63.61,-30.11 72.32,-24.07 80.51,-19.73"/>
<polygon fill="#9a32cd" stroke="#9a32cd" points="24.14,-156.39 27.67,-166.38 31.14,-156.37 24.14,-156.39"/>
<text text-anchor="middle" x="78" y="-96" font-family="Helvetica,sans-Serif" font-size="10.00"> flags</text>
<text text-anchor="middle" x="78" y="-85" font-family="Helvetica,sans-Serif" font-size="10.00">seconds</text>
</g>
<!-- Node3 -->
<g id="node3" class="node">
<title>Node3</title>
<g id="a_node3"><a xlink:title=" ">
<polygon fill="none" stroke="#bfbfbf" points="74,-166.5 74,-185.5 130,-185.5 130,-166.5 74,-166.5"/>
<text text-anchor="middle" x="102" y="-173.5" font-family="Helvetica,sans-Serif" font-size="10.00">uint32_t</text>
</a>
</g>
</g>
<!-- Node3&#45;&gt;Node1 -->
<g id="edge2" class="edge">
<title>Node3&#45;&gt;Node1</title>
<path fill="none" stroke="#9a32cd" stroke-dasharray="5,2" d="M102,-155.75C102,-120.19 102,-45.5 102,-19.86"/>
<polygon fill="#9a32cd" stroke="#9a32cd" points="98.5,-156.18 102,-166.18 105.5,-156.18 98.5,-156.18"/>
<text text-anchor="middle" x="138.5" y="-112.5" font-family="Helvetica,sans-Serif" font-size="10.00"> client_ip</text>
<text text-anchor="middle" x="138.5" y="-101.5" font-family="Helvetica,sans-Serif" font-size="10.00">relay_agent_ip</text>
<text text-anchor="middle" x="138.5" y="-90.5" font-family="Helvetica,sans-Serif" font-size="10.00">server_ip</text>
<text text-anchor="middle" x="138.5" y="-79.5" font-family="Helvetica,sans-Serif" font-size="10.00">xid</text>
<text text-anchor="middle" x="138.5" y="-68.5" font-family="Helvetica,sans-Serif" font-size="10.00">your_ip</text>
</g>
<!-- Node4 -->
<g id="node4" class="node">
<title>Node4</title>
<g id="a_node4"><a xlink:title=" ">
<polygon fill="none" stroke="#bfbfbf" points="173,-166.5 173,-185.5 223,-185.5 223,-166.5 173,-166.5"/>
<text text-anchor="middle" x="198" y="-173.5" font-family="Helvetica,sans-Serif" font-size="10.00">uint8_t</text>
</a>
</g>
</g>
<!-- Node4&#45;&gt;Node1 -->
<g id="edge3" class="edge">
<title>Node4&#45;&gt;Node1</title>
<path fill="none" stroke="#9a32cd" stroke-dasharray="5,2" d="M200.51,-156.14C203.25,-127.28 204.03,-71.96 176,-38 168.16,-28.51 156.69,-22.35 145.11,-18.36"/>
<polygon fill="#9a32cd" stroke="#9a32cd" points="196.99,-156.1 199.33,-166.43 203.94,-156.89 196.99,-156.1"/>
<text text-anchor="middle" x="240.5" y="-140" font-family="Helvetica,sans-Serif" font-size="10.00"> boot_file</text>
<text text-anchor="start" x="201" y="-129" font-family="Helvetica,sans-Serif" font-size="10.00">client_hardware</text>
<text text-anchor="middle" x="240.5" y="-118" font-family="Helvetica,sans-Serif" font-size="10.00">_addr</text>
<text text-anchor="start" x="201" y="-107" font-family="Helvetica,sans-Serif" font-size="10.00">hardware_addr</text>
<text text-anchor="middle" x="240.5" y="-96" font-family="Helvetica,sans-Serif" font-size="10.00">_len</text>
<text text-anchor="middle" x="240.5" y="-85" font-family="Helvetica,sans-Serif" font-size="10.00">hardware_type</text>
<text text-anchor="middle" x="240.5" y="-74" font-family="Helvetica,sans-Serif" font-size="10.00">hops</text>
<text text-anchor="middle" x="240.5" y="-63" font-family="Helvetica,sans-Serif" font-size="10.00">op</text>
<text text-anchor="middle" x="240.5" y="-52" font-family="Helvetica,sans-Serif" font-size="10.00">options</text>
<text text-anchor="middle" x="240.5" y="-41" font-family="Helvetica,sans-Serif" font-size="10.00">server_name</text>
</g>
</g>
</svg>
