<?xml version="1.0" encoding="UTF-8" standalone="no"?>
<!DOCTYPE svg PUBLIC "-//W3C//DTD SVG 1.1//EN"
 "http://www.w3.org/Graphics/SVG/1.1/DTD/svg11.dtd">
<!-- Generated by graphviz version 2.43.0 (0)
 -->
<!-- Title: dhcp_packet_t Pages: 1 -->
<svg width="274pt" height="194pt"
 viewBox="0.00 0.00 274.00 194.00" xmlns="http://www.w3.org/2000/svg" xmlns:xlink="http://www.w3.org/1999/xlink">
<g id="graph0" class="graph" transform="scale(1 1) rotate(0) translate(4 190)">
<title>dhcp_packet_t</title>
<!-- Node1 -->
<g id="node1" class="node">
<title>Node1</title>
<g id="a_node1"><a xlink:title="Definition of a DHCP packet.">
<polygon fill="#bfbfbf" stroke="black" points="84,-0.5 84,-19.5 170,-19.5 170,-0.5 84,-0.5"/>
<text text-anchor="middle" x="127" y="-7.5" font-family="Helvetica,sans-Serif" font-size="10.00">dhcp_packet_t</text>
</a>
</g>
</g>
<!-- Node2 -->
<g id="node2" class="node">
<title>Node2</title>
<g id="a_node2"><a xlink:title=" ">
<polygon fill="none" stroke="black" points="0,-166.5 0,-185.5 50,-185.5 50,-166.5 0,-166.5"/>
<text text-anchor="middle" x="25" y="-173.5" font-family="Helvetica,sans-Serif" font-size="10.00">uint8_t</text>
</a>
</g>
</g>
<!-- Node2&#45;&gt;Node1 -->
<g id="edge1" class="edge">
<title>Node2&#45;&gt;Node1</title>
<path fill="none" stroke="#9a32cd" stroke-dasharray="5,2" d="M21.91,-156.45C18.22,-127.6 15.69,-71.81 44,-38 53.92,-26.15 69.11,-19.46 83.8,-15.69"/>
<polygon fill="#9a32cd" stroke="#9a32cd" points="18.46,-157.01 23.37,-166.4 25.38,-155.99 18.46,-157.01"/>
<text text-anchor="middle" x="83.5" y="-140" font-family="Helvetica,sans-Serif" font-size="10.00"> boot_file</text>
<text text-anchor="start" x="44" y="-129" font-family="Helvetica,sans-Serif" font-size="10.00">client_hardware</text>
<text text-anchor="middle" x="83.5" y="-118" font-family="Helvetica,sans-Serif" font-size="10.00">_addr</text>
<text text-anchor="start" x="44" y="-107" font-family="Helvetica,sans-Serif" font-size="10.00">hardware_addr</text>
<text text-anchor="middle" x="83.5" y="-96" font-family="Helvetica,sans-Serif" font-size="10.00">_len</text>
<text text-anchor="middle" x="83.5" y="-85" font-family="Helvetica,sans-Serif" font-size="10.00">hardware_type</text>
<text text-anchor="middle" x="83.5" y="-74" font-family="Helvetica,sans-Serif" font-size="10.00">hops</text>
<text text-anchor="middle" x="83.5" y="-63" font-family="Helvetica,sans-Serif" font-size="10.00">op</text>
<text text-anchor="middle" x="83.5" y="-52" font-family="Helvetica,sans-Serif" font-size="10.00">options</text>
<text text-anchor="middle" x="83.5" y="-41" font-family="Helvetica,sans-Serif" font-size="10.00">server_name</text>
</g>
<!-- Node3 -->
<g id="node3" class="node">
<title>Node3</title>
<g id="a_node3"><a xlink:title=" ">
<polygon fill="none" stroke="black" points="99,-166.5 99,-185.5 155,-185.5 155,-166.5 99,-166.5"/>
<text text-anchor="middle" x="127" y="-173.5" font-family="Helvetica,sans-Serif" font-size="10.00">uint32_t</text>
</a>
</g>
</g>
<!-- Node3&#45;&gt;Node1 -->
<g id="edge2" class="edge">
<title>Node3&#45;&gt;Node1</title>
<path fill="none" stroke="#9a32cd" stroke-dasharray="5,2" d="M127,-155.75C127,-120.19 127,-45.5 127,-19.86"/>
<polygon fill="#9a32cd" stroke="#9a32cd" points="123.5,-156.18 127,-166.18 130.5,-156.18 123.5,-156.18"/>
<text text-anchor="middle" x="163.5" y="-112.5" font-family="Helvetica,sans-Serif" font-size="10.00"> client_ip</text>
<text text-anchor="middle" x="163.5" y="-101.5" font-family="Helvetica,sans-Serif" font-size="10.00">relay_agent_ip</text>
<text text-anchor="middle" x="163.5" y="-90.5" font-family="Helvetica,sans-Serif" font-size="10.00">server_ip</text>
<text text-anchor="middle" x="163.5" y="-79.5" font-family="Helvetica,sans-Serif" font-size="10.00">xid</text>
<text text-anchor="middle" x="163.5" y="-68.5" font-family="Helvetica,sans-Serif" font-size="10.00">your_ip</text>
</g>
<!-- Node4 -->
<g id="node4" class="node">
<title>Node4</title>
<g id="a_node4"><a xlink:title=" ">
<polygon fill="none" stroke="black" points="195,-166.5 195,-185.5 251,-185.5 251,-166.5 195,-166.5"/>
<text text-anchor="middle" x="223" y="-173.5" font-family="Helvetica,sans-Serif" font-size="10.00">uint16_t</text>
</a>
</g>
</g>
<!-- Node4&#45;&gt;Node1 -->
<g id="edge3" class="edge">
<title>Node4&#45;&gt;Node1</title>
<path fill="none" stroke="#9a32cd" stroke-dasharray="5,2" d="M225.51,-156.14C228.25,-127.28 229.03,-71.96 201,-38 193.16,-28.51 181.69,-22.35 170.11,-18.36"/>
<polygon fill="#9a32cd" stroke="#9a32cd" points="221.99,-156.1 224.33,-166.43 228.94,-156.89 221.99,-156.1"/>
<text text-anchor="middle" x="246" y="-96" font-family="Helvetica,sans-Serif" font-size="10.00"> flags</text>
<text text-anchor="middle" x="246" y="-85" font-family="Helvetica,sans-Serif" font-size="10.00">seconds</text>
</g>
</g>
</svg>
