<?xml version="1.0" encoding="UTF-8" standalone="no"?>
<!DOCTYPE svg PUBLIC "-//W3C//DTD SVG 1.1//EN"
 "http://www.w3.org/Graphics/SVG/1.1/DTD/svg11.dtd">
<!-- Generated by graphviz version 2.43.0 (0)
 -->
<!-- Title: fs_directory_entry_t Pages: 1 -->
<svg width="832pt" height="232pt"
 viewBox="0.00 0.00 832.00 232.00" xmlns="http://www.w3.org/2000/svg" xmlns:xlink="http://www.w3.org/1999/xlink">
<g id="graph0" class="graph" transform="scale(1 1) rotate(0) translate(4 228)">
<title>fs_directory_entry_t</title>
<!-- Node1 -->
<g id="node1" class="node">
<title>Node1</title>
<g id="a_node1"><a xlink:title="A VFS directory entry. Files AND directories have these, but internally there is also a tree of fs_tr...">
<polygon fill="#bfbfbf" stroke="black" points="519,-87 519,-106 633,-106 633,-87 519,-87"/>
<text text-anchor="middle" x="576" y="-94" font-family="Helvetica,sans-Serif" font-size="10.00">fs_directory_entry_t</text>
</a>
</g>
</g>
<!-- Node1&#45;&gt;Node1 -->
<g id="edge1" class="edge">
<title>Node1&#45;&gt;Node1</title>
<path fill="none" stroke="#9a32cd" stroke-dasharray="5,2" d="M643.44,-101.96C648.14,-100.71 651,-98.89 651,-96.5 651,-92.67 643.67,-90.31 633.23,-89.41"/>
<polygon fill="#9a32cd" stroke="#9a32cd" points="642.55,-98.56 633.23,-103.59 643.65,-105.47 642.55,-98.56"/>
<text text-anchor="middle" x="663.5" y="-94" font-family="Helvetica,sans-Serif" font-size="10.00"> next</text>
</g>
<!-- Node3 -->
<g id="node3" class="node">
<title>Node3</title>
<g id="a_node3"><a xlink:href="structfs__tree__t.html" target="_top" xlink:title="Used internally by filesystem.c to cache directories to RAM.">
<polygon fill="none" stroke="black" points="499.5,-7 499.5,-26 558.5,-26 558.5,-7 499.5,-7"/>
<text text-anchor="middle" x="529" y="-14" font-family="Helvetica,sans-Serif" font-size="10.00">fs_tree_t</text>
</a>
</g>
</g>
<!-- Node1&#45;&gt;Node3 -->
<g id="edge5" class="edge">
<title>Node1&#45;&gt;Node3</title>
<path fill="none" stroke="#9a32cd" stroke-dasharray="5,2" d="M545.61,-81.87C537.82,-76.81 530.4,-70.24 526,-62 520.02,-50.8 522.93,-35.68 525.8,-26.27"/>
<polygon fill="#9a32cd" stroke="#9a32cd" points="544.02,-84.99 554.44,-86.95 547.52,-78.93 544.02,-84.99"/>
<text text-anchor="middle" x="538" y="-54" font-family="Helvetica,sans-Serif" font-size="10.00"> files</text>
</g>
<!-- Node2 -->
<g id="node2" class="node">
<title>Node2</title>
<g id="a_node2"><a xlink:title=" ">
<polygon fill="none" stroke="#bfbfbf" points="313,-204.5 313,-223.5 369,-223.5 369,-204.5 313,-204.5"/>
<text text-anchor="middle" x="341" y="-211.5" font-family="Helvetica,sans-Serif" font-size="10.00">uint64_t</text>
</a>
</g>
</g>
<!-- Node2&#45;&gt;Node1 -->
<g id="edge2" class="edge">
<title>Node2&#45;&gt;Node1</title>
<path fill="none" stroke="#9a32cd" stroke-dasharray="5,2" d="M353.96,-196.53C369.67,-177.73 397.93,-147.45 429,-131 445.65,-122.18 490.08,-112.68 525.77,-106.06"/>
<polygon fill="#9a32cd" stroke="#9a32cd" points="351.07,-194.53 347.48,-204.5 356.5,-198.95 351.07,-194.53"/>
<text text-anchor="middle" x="447" y="-161.5" font-family="Helvetica,sans-Serif" font-size="10.00"> lbapos</text>
<text text-anchor="middle" x="447" y="-150.5" font-family="Helvetica,sans-Serif" font-size="10.00">size</text>
</g>
<!-- Node2&#45;&gt;Node3 -->
<g id="edge4" class="edge">
<title>Node2&#45;&gt;Node3</title>
<path fill="none" stroke="#9a32cd" stroke-dasharray="5,2" d="M341.58,-194.24C343.42,-166.06 350.82,-112.64 380,-80 411.41,-44.86 465.76,-28.93 499.42,-22.12"/>
<polygon fill="#9a32cd" stroke="#9a32cd" points="338.08,-194.17 341.09,-204.33 345.07,-194.51 338.08,-194.17"/>
<text text-anchor="middle" x="398" y="-105" font-family="Helvetica,sans-Serif" font-size="10.00"> device</text>
<text text-anchor="middle" x="398" y="-94" font-family="Helvetica,sans-Serif" font-size="10.00">lbapos</text>
<text text-anchor="middle" x="398" y="-83" font-family="Helvetica,sans-Serif" font-size="10.00">size</text>
</g>
<!-- Node4 -->
<g id="node4" class="node">
<title>Node4</title>
<g id="a_node4"><a xlink:href="structfilesystem__t.html" target="_top" xlink:title="Defines a filesystem driver.">
<polygon fill="none" stroke="black" points="160.5,-87 160.5,-106 237.5,-106 237.5,-87 160.5,-87"/>
<text text-anchor="middle" x="199" y="-94" font-family="Helvetica,sans-Serif" font-size="10.00">filesystem_t</text>
</a>
</g>
</g>
<!-- Node2&#45;&gt;Node4 -->
<g id="edge8" class="edge">
<title>Node2&#45;&gt;Node4</title>
<path fill="none" stroke="#9a32cd" stroke-dasharray="5,2" d="M302.9,-212.61C279.25,-210.42 249.71,-203.87 230,-186 217.82,-174.96 205.56,-126.24 200.93,-106.18"/>
<polygon fill="#9a32cd" stroke="#9a32cd" points="302.73,-216.11 312.96,-213.32 303.23,-209.13 302.73,-216.11"/>
<text text-anchor="middle" x="253.5" y="-161.5" font-family="Helvetica,sans-Serif" font-size="10.00"> createdir</text>
<text text-anchor="middle" x="253.5" y="-150.5" font-family="Helvetica,sans-Serif" font-size="10.00">createfile</text>
</g>
<!-- Node3&#45;&gt;Node1 -->
<g id="edge3" class="edge">
<title>Node3&#45;&gt;Node1</title>
<path fill="none" stroke="#9a32cd" stroke-dasharray="5,2" d="M542.3,-34.08C546.28,-39.35 550.5,-45.29 554,-51 561.3,-62.9 568.17,-77.56 572.23,-86.72"/>
<polygon fill="#9a32cd" stroke="#9a32cd" points="544.93,-31.76 536.03,-26.01 539.41,-36.05 544.93,-31.76"/>
<text text-anchor="middle" x="583.5" y="-54" font-family="Helvetica,sans-Serif" font-size="10.00"> directory</text>
</g>
<!-- Node3&#45;&gt;Node3 -->
<g id="edge6" class="edge">
<title>Node3&#45;&gt;Node3</title>
<path fill="none" stroke="#9a32cd" stroke-dasharray="5,2" d="M568.67,-22.95C573.41,-21.77 576.5,-19.62 576.5,-16.5 576.5,-11.5 568.58,-9 558.69,-9"/>
<polygon fill="#9a32cd" stroke="#9a32cd" points="568.26,-19.47 558.69,-24 569,-26.43 568.26,-19.47"/>
<text text-anchor="middle" x="601.5" y="-25" font-family="Helvetica,sans-Serif" font-size="10.00"> child_dirs</text>
<text text-anchor="middle" x="601.5" y="-14" font-family="Helvetica,sans-Serif" font-size="10.00">next</text>
<text text-anchor="middle" x="601.5" y="-3" font-family="Helvetica,sans-Serif" font-size="10.00">parent</text>
</g>
<!-- Node4&#45;&gt;Node3 -->
<g id="edge7" class="edge">
<title>Node4&#45;&gt;Node3</title>
<path fill="none" stroke="#9a32cd" stroke-dasharray="5,2" d="M209.03,-78.36C215.67,-68.64 225.31,-57.22 237,-51 281.93,-27.08 434.17,-20.1 499.17,-18.18"/>
<polygon fill="#9a32cd" stroke="#9a32cd" points="206,-76.6 203.61,-86.92 211.91,-80.35 206,-76.6"/>
<text text-anchor="middle" x="284" y="-54" font-family="Helvetica,sans-Serif" font-size="10.00"> responsible_driver</text>
</g>
<!-- Node4&#45;&gt;Node4 -->
<g id="edge10" class="edge">
<title>Node4&#45;&gt;Node4</title>
<path fill="none" stroke="#9a32cd" stroke-dasharray="5,2" d="M247.72,-102.59C252.48,-101.36 255.5,-99.33 255.5,-96.5 255.5,-91.97 247.77,-89.49 237.56,-89.07"/>
<polygon fill="#9a32cd" stroke="#9a32cd" points="247.01,-99.15 237.56,-103.93 247.93,-106.09 247.01,-99.15"/>
<text text-anchor="middle" x="268" y="-94" font-family="Helvetica,sans-Serif" font-size="10.00"> next</text>
</g>
<!-- Node5 -->
<g id="node5" class="node">
<title>Node5</title>
<g id="a_node5"><a xlink:title=" ">
<polygon fill="none" stroke="#bfbfbf" points="56.5,-204.5 56.5,-223.5 151.5,-223.5 151.5,-204.5 56.5,-204.5"/>
<text text-anchor="middle" x="104" y="-211.5" font-family="Helvetica,sans-Serif" font-size="10.00">void *(*)(void *)</text>
</a>
</g>
</g>
<!-- Node5&#45;&gt;Node4 -->
<g id="edge9" class="edge">
<title>Node5&#45;&gt;Node4</title>
<path fill="none" stroke="#9a32cd" stroke-dasharray="5,2" d="M106,-194.09C108.8,-176 115.44,-148.9 131,-131 141.1,-119.38 156.17,-111.38 169.56,-106.13"/>
<polygon fill="#9a32cd" stroke="#9a32cd" points="102.49,-193.89 104.68,-204.26 109.44,-194.79 102.49,-193.89"/>
<text text-anchor="middle" x="147" y="-156" font-family="Helvetica,sans-Serif" font-size="10.00"> getdir</text>
</g>
<!-- Node6 -->
<g id="node6" class="node">
<title>Node6</title>
<g id="a_node6"><a xlink:title=" ">
<polygon fill="none" stroke="#bfbfbf" points="387,-204.5 387,-223.5 425,-223.5 425,-204.5 387,-204.5"/>
<text text-anchor="middle" x="406" y="-211.5" font-family="Helvetica,sans-Serif" font-size="10.00">char</text>
</a>
</g>
</g>
<!-- Node6&#45;&gt;Node1 -->
<g id="edge18" class="edge">
<title>Node6&#45;&gt;Node1</title>
<path fill="none" stroke="#9a32cd" stroke-dasharray="5,2" d="M434.78,-204.96C446.34,-200.7 459.22,-194.53 469,-186 490.48,-167.25 480.71,-149.96 502,-131 514.85,-119.56 532.26,-111.41 546.96,-106.02"/>
<polygon fill="#9a32cd" stroke="#9a32cd" points="433.43,-201.72 425.07,-208.23 435.66,-208.36 433.43,-201.72"/>
<text text-anchor="middle" x="535" y="-167" font-family="Helvetica,sans-Serif" font-size="10.00"> alt_filename</text>
<text text-anchor="middle" x="535" y="-156" font-family="Helvetica,sans-Serif" font-size="10.00">device_name</text>
<text text-anchor="middle" x="535" y="-145" font-family="Helvetica,sans-Serif" font-size="10.00">filename</text>
</g>
<!-- Node6&#45;&gt;Node3 -->
<g id="edge14" class="edge">
<title>Node6&#45;&gt;Node3</title>
<path fill="none" stroke="#9a32cd" stroke-dasharray="5,2" d="M405.42,-193.94C405.41,-177.05 406.68,-151.89 413,-131 420.48,-106.25 423.8,-99.31 441,-80 462.06,-56.35 493.67,-36.69 512.72,-26.06"/>
<polygon fill="#9a32cd" stroke="#9a32cd" points="401.92,-194.21 405.57,-204.16 408.92,-194.11 401.92,-194.21"/>
<text text-anchor="middle" x="475.5" y="-99.5" font-family="Helvetica,sans-Serif" font-size="10.00"> device_name</text>
<text text-anchor="middle" x="475.5" y="-88.5" font-family="Helvetica,sans-Serif" font-size="10.00">name</text>
</g>
<!-- Node6&#45;&gt;Node4 -->
<g id="edge11" class="edge">
<title>Node6&#45;&gt;Node4</title>
<path fill="none" stroke="#9a32cd" stroke-dasharray="5,2" d="M378.76,-199.77C370.66,-195.6 361.86,-190.81 354,-186 318.14,-164.03 313.64,-151.64 277,-131 259.41,-121.09 238.31,-112.19 222.49,-106.06"/>
<polygon fill="#9a32cd" stroke="#9a32cd" points="377.34,-202.98 387.85,-204.36 380.5,-196.73 377.34,-202.98"/>
<text text-anchor="middle" x="369.5" y="-156" font-family="Helvetica,sans-Serif" font-size="10.00"> name</text>
</g>
<!-- Node7 -->
<g id="node7" class="node">
<title>Node7</title>
<g id="a_node7"><a xlink:title=" ">
<polygon fill="none" stroke="#bfbfbf" points="169.5,-204.5 169.5,-223.5 198.5,-223.5 198.5,-204.5 169.5,-204.5"/>
<text text-anchor="middle" x="184" y="-211.5" font-family="Helvetica,sans-Serif" font-size="10.00">int</text>
</a>
</g>
</g>
<!-- Node7&#45;&gt;Node4 -->
<g id="edge12" class="edge">
<title>Node7&#45;&gt;Node4</title>
<path fill="none" stroke="#9a32cd" stroke-dasharray="5,2" d="M174.79,-195.05C173.64,-192.09 172.64,-189.01 172,-186 166.93,-162.09 163.87,-154.05 172,-131 175.43,-121.28 183.01,-112.3 189.26,-106.1"/>
<polygon fill="#9a32cd" stroke="#9a32cd" points="171.69,-196.67 179.02,-204.32 178.05,-193.77 171.69,-196.67"/>
<text text-anchor="middle" x="189.5" y="-156" font-family="Helvetica,sans-Serif" font-size="10.00"> mount</text>
</g>
<!-- Node8 -->
<g id="node8" class="node">
<title>Node8</title>
<g id="a_node8"><a xlink:title=" ">
<polygon fill="none" stroke="#bfbfbf" points="0,-204.5 0,-223.5 38,-223.5 38,-204.5 0,-204.5"/>
<text text-anchor="middle" x="19" y="-211.5" font-family="Helvetica,sans-Serif" font-size="10.00">bool</text>
</a>
</g>
</g>
<!-- Node8&#45;&gt;Node4 -->
<g id="edge13" class="edge">
<title>Node8&#45;&gt;Node4</title>
<path fill="none" stroke="#9a32cd" stroke-dasharray="5,2" d="M20.48,-194.31C22.98,-175.54 29.75,-147.16 48,-131 64.39,-116.49 121.12,-106.88 160.18,-101.81"/>
<polygon fill="#9a32cd" stroke="#9a32cd" points="16.99,-194 19.42,-204.32 23.95,-194.74 16.99,-194"/>
<text text-anchor="middle" x="76" y="-178" font-family="Helvetica,sans-Serif" font-size="10.00"> readfile</text>
<text text-anchor="middle" x="76" y="-167" font-family="Helvetica,sans-Serif" font-size="10.00">rm</text>
<text text-anchor="middle" x="76" y="-156" font-family="Helvetica,sans-Serif" font-size="10.00">rmdir</text>
<text text-anchor="middle" x="76" y="-145" font-family="Helvetica,sans-Serif" font-size="10.00">truncatefile</text>
<text text-anchor="middle" x="76" y="-134" font-family="Helvetica,sans-Serif" font-size="10.00">writefile</text>
</g>
<!-- Node9 -->
<g id="node9" class="node">
<title>Node9</title>
<g id="a_node9"><a xlink:title=" ">
<polygon fill="none" stroke="#bfbfbf" points="703,-204.5 703,-223.5 753,-223.5 753,-204.5 703,-204.5"/>
<text text-anchor="middle" x="728" y="-211.5" font-family="Helvetica,sans-Serif" font-size="10.00">uint8_t</text>
</a>
</g>
</g>
<!-- Node9&#45;&gt;Node1 -->
<g id="edge20" class="edge">
<title>Node9&#45;&gt;Node1</title>
<path fill="none" stroke="#9a32cd" stroke-dasharray="5,2" d="M702.12,-198.78C696.97,-195.11 691.95,-190.82 688,-186 671.2,-165.51 684.07,-149.39 665,-131 652.4,-118.85 634.98,-111.02 618.89,-106.01"/>
<polygon fill="#9a32cd" stroke="#9a32cd" points="700.43,-201.86 710.72,-204.35 704.23,-195.98 700.43,-201.86"/>
<text text-anchor="middle" x="704" y="-178" font-family="Helvetica,sans-Serif" font-size="10.00"> day</text>
<text text-anchor="middle" x="704" y="-167" font-family="Helvetica,sans-Serif" font-size="10.00">hour</text>
<text text-anchor="middle" x="704" y="-156" font-family="Helvetica,sans-Serif" font-size="10.00">min</text>
<text text-anchor="middle" x="704" y="-145" font-family="Helvetica,sans-Serif" font-size="10.00">month</text>
<text text-anchor="middle" x="704" y="-134" font-family="Helvetica,sans-Serif" font-size="10.00">sec</text>
</g>
<!-- Node9&#45;&gt;Node3 -->
<g id="edge15" class="edge">
<title>Node9&#45;&gt;Node3</title>
<path fill="none" stroke="#9a32cd" stroke-dasharray="5,2" d="M728.8,-193.76C728.88,-176.75 727.48,-151.53 720,-131 710.59,-105.17 706.46,-97.18 685,-80 646.97,-49.54 592.17,-32.23 558.66,-23.87"/>
<polygon fill="#9a32cd" stroke="#9a32cd" points="725.29,-193.99 728.55,-204.06 732.29,-194.15 725.29,-193.99"/>
<text text-anchor="middle" x="725" y="-94" font-family="Helvetica,sans-Serif" font-size="10.00"> dirty</text>
</g>
<!-- Node10 -->
<g id="node10" class="node">
<title>Node10</title>
<g id="a_node10"><a xlink:title=" ">
<polygon fill="none" stroke="#bfbfbf" points="778,-87 778,-106 824,-106 824,-87 778,-87"/>
<text text-anchor="middle" x="801" y="-94" font-family="Helvetica,sans-Serif" font-size="10.00">void *</text>
</a>
</g>
</g>
<!-- Node10&#45;&gt;Node3 -->
<g id="edge16" class="edge">
<title>Node10&#45;&gt;Node3</title>
<path fill="none" stroke="#9a32cd" stroke-dasharray="5,2" d="M786.39,-79.37C776.53,-69.55 762.68,-57.65 748,-51 684.93,-22.45 602.28,-17.48 558.77,-17.05"/>
<polygon fill="#9a32cd" stroke="#9a32cd" points="783.93,-81.86 793.37,-86.66 788.98,-77.02 783.93,-81.86"/>
<text text-anchor="middle" x="785" y="-54" font-family="Helvetica,sans-Serif" font-size="10.00"> opaque</text>
</g>
<!-- Node11 -->
<g id="node11" class="node">
<title>Node11</title>
<g id="a_node11"><a xlink:title=" ">
<polygon fill="none" stroke="#bfbfbf" points="617,-204.5 617,-223.5 673,-223.5 673,-204.5 617,-204.5"/>
<text text-anchor="middle" x="645" y="-211.5" font-family="Helvetica,sans-Serif" font-size="10.00">uint16_t</text>
</a>
</g>
</g>
<!-- Node11&#45;&gt;Node1 -->
<g id="edge17" class="edge">
<title>Node11&#45;&gt;Node1</title>
<path fill="none" stroke="#9a32cd" stroke-dasharray="5,2" d="M640.75,-194.41C636.13,-176.94 627.56,-150.62 614,-131 607.2,-121.16 596.9,-112.32 588.74,-106.2"/>
<polygon fill="#9a32cd" stroke="#9a32cd" points="637.43,-195.58 643.22,-204.45 644.23,-193.9 637.43,-195.58"/>
<text text-anchor="middle" x="650.5" y="-156" font-family="Helvetica,sans-Serif" font-size="10.00"> year</text>
</g>
<!-- Node12 -->
<g id="node12" class="node">
<title>Node12</title>
<g id="a_node12"><a xlink:title=" ">
<polygon fill="none" stroke="#bfbfbf" points="543,-204.5 543,-223.5 599,-223.5 599,-204.5 543,-204.5"/>
<text text-anchor="middle" x="571" y="-211.5" font-family="Helvetica,sans-Serif" font-size="10.00">uint32_t</text>
</a>
</g>
</g>
<!-- Node12&#45;&gt;Node1 -->
<g id="edge19" class="edge">
<title>Node12&#45;&gt;Node1</title>
<path fill="none" stroke="#9a32cd" stroke-dasharray="5,2" d="M571.82,-194.16C572.91,-168.87 574.81,-124.94 575.62,-106.28"/>
<polygon fill="#9a32cd" stroke="#9a32cd" points="568.31,-194.18 571.38,-204.32 575.31,-194.48 568.31,-194.18"/>
<text text-anchor="middle" x="592" y="-161.5" font-family="Helvetica,sans-Serif" font-size="10.00"> device</text>
<text text-anchor="middle" x="592" y="-150.5" font-family="Helvetica,sans-Serif" font-size="10.00">flags</text>
</g>
</g>
</svg>
