<?xml version="1.0" encoding="UTF-8" standalone="no"?>
<!DOCTYPE svg PUBLIC "-//W3C//DTD SVG 1.1//EN"
 "http://www.w3.org/Graphics/SVG/1.1/DTD/svg11.dtd">
<!-- Generated by graphviz version 2.43.0 (0)
 -->
<!-- Title: ip_packet Pages: 1 -->
<svg width="422pt" height="172pt"
 viewBox="0.00 0.00 421.50 172.00" xmlns="http://www.w3.org/2000/svg" xmlns:xlink="http://www.w3.org/1999/xlink">
<g id="graph0" class="graph" transform="scale(1 1) rotate(0) translate(4 168)">
<title>ip_packet</title>
<!-- Node1 -->
<g id="node1" class="node">
<title>Node1</title>
<g id="a_node1"><a xlink:title="Structure for an IP packet.">
<polygon fill="#bfbfbf" stroke="black" points="176.5,-0.5 176.5,-19.5 239.5,-19.5 239.5,-0.5 176.5,-0.5"/>
<text text-anchor="middle" x="208" y="-7.5" font-family="Helvetica,sans-Serif" font-size="10.00">ip_packet</text>
</a>
</g>
</g>
<!-- Node2 -->
<g id="node2" class="node">
<title>Node2</title>
<g id="a_node2"><a xlink:title=" ">
<polygon fill="none" stroke="black" points="0,-144.5 0,-163.5 38,-163.5 38,-144.5 0,-144.5"/>
<text text-anchor="middle" x="19" y="-151.5" font-family="Helvetica,sans-Serif" font-size="10.00">char</text>
</a>
</g>
</g>
<!-- Node2&#45;&gt;Node1 -->
<g id="edge1" class="edge">
<title>Node2&#45;&gt;Node1</title>
<path fill="none" stroke="#9a32cd" stroke-dasharray="5,2" d="M14.96,-134.53C10.6,-109.16 7.26,-63.74 32,-38 51.33,-17.89 130.9,-12.71 176.15,-11.41"/>
<polygon fill="#9a32cd" stroke="#9a32cd" points="11.53,-135.21 16.88,-144.35 18.4,-133.87 11.53,-135.21"/>
<text text-anchor="middle" x="80" y="-85" font-family="Helvetica,sans-Serif" font-size="10.00"> flags_fragment_ptr</text>
<text text-anchor="middle" x="80" y="-74" font-family="Helvetica,sans-Serif" font-size="10.00">version_ihl_ptr</text>
</g>
<!-- Node3 -->
<g id="node3" class="node">
<title>Node3</title>
<g id="a_node3"><a xlink:title=" ">
<polygon fill="none" stroke="black" points="105,-144.5 105,-163.5 155,-163.5 155,-144.5 105,-144.5"/>
<text text-anchor="middle" x="130" y="-151.5" font-family="Helvetica,sans-Serif" font-size="10.00">uint8_t</text>
</a>
</g>
</g>
<!-- Node3&#45;&gt;Node1 -->
<g id="edge2" class="edge">
<title>Node3&#45;&gt;Node1</title>
<path fill="none" stroke="#9a32cd" stroke-dasharray="5,2" d="M131.43,-134.17C134.14,-109.74 141.91,-66.82 164,-38 170,-30.18 178.96,-24.09 187.24,-19.69"/>
<polygon fill="#9a32cd" stroke="#9a32cd" points="127.93,-133.98 130.49,-144.26 134.9,-134.63 127.93,-133.98"/>
<text text-anchor="middle" x="184" y="-118" font-family="Helvetica,sans-Serif" font-size="10.00"> data</text>
<text text-anchor="middle" x="184" y="-107" font-family="Helvetica,sans-Serif" font-size="10.00">dst_ip</text>
<text text-anchor="middle" x="184" y="-96" font-family="Helvetica,sans-Serif" font-size="10.00">ihl</text>
<text text-anchor="middle" x="184" y="-85" font-family="Helvetica,sans-Serif" font-size="10.00">options</text>
<text text-anchor="middle" x="184" y="-74" font-family="Helvetica,sans-Serif" font-size="10.00">protocol</text>
<text text-anchor="middle" x="184" y="-63" font-family="Helvetica,sans-Serif" font-size="10.00">src_ip</text>
<text text-anchor="middle" x="184" y="-52" font-family="Helvetica,sans-Serif" font-size="10.00">ttl</text>
<text text-anchor="middle" x="184" y="-41" font-family="Helvetica,sans-Serif" font-size="10.00">version</text>
</g>
<!-- Node4 -->
<g id="node4" class="node">
<title>Node4</title>
<g id="a_node4"><a xlink:title=" ">
<polygon fill="none" stroke="black" points="173.5,-144.5 173.5,-163.5 242.5,-163.5 242.5,-144.5 173.5,-144.5"/>
<text text-anchor="middle" x="208" y="-151.5" font-family="Helvetica,sans-Serif" font-size="10.00">tos_flags_t</text>
</a>
</g>
</g>
<!-- Node4&#45;&gt;Node1 -->
<g id="edge3" class="edge">
<title>Node4&#45;&gt;Node1</title>
<path fill="none" stroke="#9a32cd" stroke-dasharray="5,2" d="M208,-134.11C208,-102.93 208,-41.93 208,-19.52"/>
<polygon fill="#9a32cd" stroke="#9a32cd" points="204.5,-134.12 208,-144.12 211.5,-134.12 204.5,-134.12"/>
<text text-anchor="middle" x="217.5" y="-79.5" font-family="Helvetica,sans-Serif" font-size="10.00"> tos</text>
</g>
<!-- Node5 -->
<g id="node5" class="node">
<title>Node5</title>
<g id="a_node5"><a xlink:title=" ">
<polygon fill="none" stroke="black" points="261,-144.5 261,-163.5 317,-163.5 317,-144.5 261,-144.5"/>
<text text-anchor="middle" x="289" y="-151.5" font-family="Helvetica,sans-Serif" font-size="10.00">uint16_t</text>
</a>
</g>
</g>
<!-- Node5&#45;&gt;Node1 -->
<g id="edge4" class="edge">
<title>Node5&#45;&gt;Node1</title>
<path fill="none" stroke="#9a32cd" stroke-dasharray="5,2" d="M276.22,-135.9C274.03,-132.68 271.86,-129.29 270,-126 248.92,-88.77 253.77,-74.21 231,-38 226.94,-31.54 221.41,-25 216.8,-19.98"/>
<polygon fill="#9a32cd" stroke="#9a32cd" points="273.55,-138.19 282.21,-144.29 279.25,-134.12 273.55,-138.19"/>
<text text-anchor="middle" x="316" y="-90.5" font-family="Helvetica,sans-Serif" font-size="10.00"> header_checksum</text>
<text text-anchor="middle" x="316" y="-79.5" font-family="Helvetica,sans-Serif" font-size="10.00">id</text>
<text text-anchor="middle" x="316" y="-68.5" font-family="Helvetica,sans-Serif" font-size="10.00">length</text>
</g>
<!-- Node6 -->
<g id="node6" class="node">
<title>Node6</title>
<g id="a_node6"><a xlink:title=" ">
<polygon fill="none" stroke="black" points="354.5,-144.5 354.5,-163.5 413.5,-163.5 413.5,-144.5 354.5,-144.5"/>
<text text-anchor="middle" x="384" y="-151.5" font-family="Helvetica,sans-Serif" font-size="10.00">ip_frag_t</text>
</a>
</g>
</g>
<!-- Node6&#45;&gt;Node1 -->
<g id="edge5" class="edge">
<title>Node6&#45;&gt;Node1</title>
<path fill="none" stroke="#9a32cd" stroke-dasharray="5,2" d="M386.34,-134.08C388.34,-108.51 387.62,-63.23 362,-38 345.12,-21.38 279.7,-14.87 239.76,-12.41"/>
<polygon fill="#9a32cd" stroke="#9a32cd" points="382.83,-133.99 385.3,-144.29 389.79,-134.7 382.83,-133.99"/>
<text text-anchor="middle" x="398.5" y="-79.5" font-family="Helvetica,sans-Serif" font-size="10.00"> frag</text>
</g>
</g>
</svg>
