<?xml version="1.0" encoding="UTF-8" standalone="no"?>
<!DOCTYPE svg PUBLIC "-//W3C//DTD SVG 1.1//EN"
 "http://www.w3.org/Graphics/SVG/1.1/DTD/svg11.dtd">
<!-- Generated by graphviz version 2.43.0 (0)
 -->
<!-- Title: idt_entry_t Pages: 1 -->
<svg width="249pt" height="117pt"
 viewBox="0.00 0.00 249.00 117.00" xmlns="http://www.w3.org/2000/svg" xmlns:xlink="http://www.w3.org/1999/xlink">
<g id="graph0" class="graph" transform="scale(1 1) rotate(0) translate(4 113)">
<title>idt_entry_t</title>
<!-- Node1 -->
<g id="node1" class="node">
<title>Node1</title>
<g id="a_node1"><a xlink:title=" ">
<polygon fill="#bfbfbf" stroke="black" points="67.5,-0.5 67.5,-19.5 136.5,-19.5 136.5,-0.5 67.5,-0.5"/>
<text text-anchor="middle" x="102" y="-7.5" font-family="Helvetica,sans-Serif" font-size="10.00">idt_entry_t</text>
</a>
</g>
</g>
<!-- Node2 -->
<g id="node2" class="node">
<title>Node2</title>
<g id="a_node2"><a xlink:title=" ">
<polygon fill="none" stroke="#bfbfbf" points="0,-89.5 0,-108.5 56,-108.5 56,-89.5 0,-89.5"/>
<text text-anchor="middle" x="28" y="-96.5" font-family="Helvetica,sans-Serif" font-size="10.00">uint16_t</text>
</a>
</g>
</g>
<!-- Node2&#45;&gt;Node1 -->
<g id="edge1" class="edge">
<title>Node2&#45;&gt;Node1</title>
<path fill="none" stroke="#9a32cd" stroke-dasharray="5,2" d="M32.94,-79.68C37.13,-66.84 44.21,-49.9 55,-38 62.08,-30.19 71.96,-24.04 80.83,-19.6"/>
<polygon fill="#9a32cd" stroke="#9a32cd" points="29.57,-78.72 30.08,-89.3 36.28,-80.72 29.57,-78.72"/>
<text text-anchor="middle" x="76.5" y="-63" font-family="Helvetica,sans-Serif" font-size="10.00"> offset_1</text>
<text text-anchor="middle" x="76.5" y="-52" font-family="Helvetica,sans-Serif" font-size="10.00">offset_2</text>
<text text-anchor="middle" x="76.5" y="-41" font-family="Helvetica,sans-Serif" font-size="10.00">selector</text>
</g>
<!-- Node3 -->
<g id="node3" class="node">
<title>Node3</title>
<g id="a_node3"><a xlink:title=" ">
<polygon fill="none" stroke="#bfbfbf" points="74,-89.5 74,-108.5 130,-108.5 130,-89.5 74,-89.5"/>
<text text-anchor="middle" x="102" y="-96.5" font-family="Helvetica,sans-Serif" font-size="10.00">uint32_t</text>
</a>
</g>
</g>
<!-- Node3&#45;&gt;Node1 -->
<g id="edge2" class="edge">
<title>Node3&#45;&gt;Node1</title>
<path fill="none" stroke="#9a32cd" stroke-dasharray="5,2" d="M102,-79.19C102,-60.74 102,-33.41 102,-19.62"/>
<polygon fill="#9a32cd" stroke="#9a32cd" points="98.5,-79.34 102,-89.34 105.5,-79.34 98.5,-79.34"/>
<text text-anchor="middle" x="123.5" y="-57.5" font-family="Helvetica,sans-Serif" font-size="10.00"> offset_3</text>
<text text-anchor="middle" x="123.5" y="-46.5" font-family="Helvetica,sans-Serif" font-size="10.00">zero</text>
</g>
<!-- Node4 -->
<g id="node4" class="node">
<title>Node4</title>
<g id="a_node4"><a xlink:title=" ">
<polygon fill="none" stroke="#bfbfbf" points="148,-89.5 148,-108.5 198,-108.5 198,-89.5 148,-89.5"/>
<text text-anchor="middle" x="173" y="-96.5" font-family="Helvetica,sans-Serif" font-size="10.00">uint8_t</text>
</a>
</g>
</g>
<!-- Node4&#45;&gt;Node1 -->
<g id="edge3" class="edge">
<title>Node4&#45;&gt;Node1</title>
<path fill="none" stroke="#9a32cd" stroke-dasharray="5,2" d="M168.97,-79.3C165.44,-66.51 159.24,-49.79 149,-38 142.21,-30.18 132.58,-24.1 123.8,-19.7"/>
<polygon fill="#9a32cd" stroke="#9a32cd" points="165.64,-80.42 171.41,-89.31 172.44,-78.76 165.64,-80.42"/>
<text text-anchor="middle" x="203.5" y="-57.5" font-family="Helvetica,sans-Serif" font-size="10.00"> ist</text>
<text text-anchor="middle" x="203.5" y="-46.5" font-family="Helvetica,sans-Serif" font-size="10.00">type_attributes</text>
</g>
</g>
</svg>
