<?xml version="1.0" encoding="UTF-8" standalone="no"?>
<!DOCTYPE svg PUBLIC "-//W3C//DTD SVG 1.1//EN"
 "http://www.w3.org/Graphics/SVG/1.1/DTD/svg11.dtd">
<!-- Generated by graphviz version 2.43.0 (0)
 -->
<!-- Title: storage_device_t Pages: 1 -->
<svg width="697pt" height="173pt"
 viewBox="0.00 0.00 697.00 173.00" xmlns="http://www.w3.org/2000/svg" xmlns:xlink="http://www.w3.org/1999/xlink">
<g id="graph0" class="graph" transform="scale(1 1) rotate(0) translate(4 169)">
<title>storage_device_t</title>
<!-- Node1 -->
<g id="node1" class="node">
<title>Node1</title>
<g id="a_node1"><a xlink:title="Represents a block storage device e.g. a hard disk, DVD&#45;ROM drive, etc.">
<polygon fill="#bfbfbf" stroke="black" points="351,-0.5 351,-19.5 451,-19.5 451,-0.5 351,-0.5"/>
<text text-anchor="middle" x="401" y="-7.5" font-family="Helvetica,sans-Serif" font-size="10.00">storage_device_t</text>
</a>
</g>
</g>
<!-- Node1&#45;&gt;Node1 -->
<g id="edge7" class="edge">
<title>Node1&#45;&gt;Node1</title>
<path fill="none" stroke="#9a32cd" stroke-dasharray="5,2" d="M461.35,-15.4C466.08,-14.21 469,-12.41 469,-10 469,-6.14 461.52,-3.85 451.11,-3.13"/>
<polygon fill="#9a32cd" stroke="#9a32cd" points="460.51,-11.98 451.11,-16.87 461.51,-18.91 460.51,-11.98"/>
<text text-anchor="middle" x="481.5" y="-7.5" font-family="Helvetica,sans-Serif" font-size="10.00"> next</text>
</g>
<!-- Node2 -->
<g id="node2" class="node">
<title>Node2</title>
<g id="a_node2"><a xlink:title=" ">
<polygon fill="none" stroke="#bfbfbf" points="0,-78.5 0,-97.5 56,-97.5 56,-78.5 0,-78.5"/>
<text text-anchor="middle" x="28" y="-85.5" font-family="Helvetica,sans-Serif" font-size="10.00">uint64_t</text>
</a>
</g>
</g>
<!-- Node2&#45;&gt;Node1 -->
<g id="edge1" class="edge">
<title>Node2&#45;&gt;Node1</title>
<path fill="none" stroke="#9a32cd" stroke-dasharray="5,2" d="M45.84,-71.7C60.25,-60.29 81.59,-45.44 103,-38 147.47,-22.54 278.35,-15.44 350.99,-12.61"/>
<polygon fill="#9a32cd" stroke="#9a32cd" points="43.34,-69.22 37.82,-78.27 47.77,-74.64 43.34,-69.22"/>
<text text-anchor="middle" x="126" y="-52" font-family="Helvetica,sans-Serif" font-size="10.00"> opaque1</text>
<text text-anchor="middle" x="126" y="-41" font-family="Helvetica,sans-Serif" font-size="10.00">size</text>
</g>
<!-- Node3 -->
<g id="node3" class="node">
<title>Node3</title>
<g id="a_node3"><a xlink:title=" ">
<polygon fill="none" stroke="#bfbfbf" points="74,-78.5 74,-97.5 190,-97.5 190,-78.5 74,-78.5"/>
<text text-anchor="middle" x="132" y="-85.5" font-family="Helvetica,sans-Serif" font-size="10.00">struct block_cache *</text>
</a>
</g>
</g>
<!-- Node3&#45;&gt;Node1 -->
<g id="edge2" class="edge">
<title>Node3&#45;&gt;Node1</title>
<path fill="none" stroke="#9a32cd" stroke-dasharray="5,2" d="M143.64,-70.21C152.31,-59.12 165.17,-45.32 180,-38 209.11,-23.63 295.19,-16.49 350.93,-13.28"/>
<polygon fill="#9a32cd" stroke="#9a32cd" points="140.75,-68.23 137.63,-78.35 146.38,-72.39 140.75,-68.23"/>
<text text-anchor="middle" x="196" y="-46.5" font-family="Helvetica,sans-Serif" font-size="10.00"> cache</text>
</g>
<!-- Node4 -->
<g id="node4" class="node">
<title>Node4</title>
<g id="a_node4"><a xlink:href="structstorage__device__ui__t.html" target="_top" xlink:title=" ">
<polygon fill="none" stroke="black" points="275,-78.5 275,-97.5 389,-97.5 389,-78.5 275,-78.5"/>
<text text-anchor="middle" x="332" y="-85.5" font-family="Helvetica,sans-Serif" font-size="10.00">storage_device_ui_t</text>
</a>
</g>
</g>
<!-- Node4&#45;&gt;Node1 -->
<g id="edge3" class="edge">
<title>Node4&#45;&gt;Node1</title>
<path fill="none" stroke="#9a32cd" stroke-dasharray="5,2" d="M346.64,-70.88C360.86,-55.22 381.9,-32.04 393.18,-19.62"/>
<polygon fill="#9a32cd" stroke="#9a32cd" points="344.05,-68.53 339.92,-78.28 349.23,-73.23 344.05,-68.53"/>
<text text-anchor="middle" x="380.5" y="-46.5" font-family="Helvetica,sans-Serif" font-size="10.00"> ui</text>
</g>
<!-- Node5 -->
<g id="node5" class="node">
<title>Node5</title>
<g id="a_node5"><a xlink:title=" ">
<polygon fill="none" stroke="#bfbfbf" points="255,-145.5 255,-164.5 293,-164.5 293,-145.5 255,-145.5"/>
<text text-anchor="middle" x="274" y="-152.5" font-family="Helvetica,sans-Serif" font-size="10.00">char</text>
</a>
</g>
</g>
<!-- Node5&#45;&gt;Node1 -->
<g id="edge6" class="edge">
<title>Node5&#45;&gt;Node1</title>
<path fill="none" stroke="#9a32cd" stroke-dasharray="5,2" d="M256.27,-138.46C240.44,-122.66 221.67,-97.76 235,-78 260.64,-40 311.84,-23.55 350.64,-16.43"/>
<polygon fill="#9a32cd" stroke="#9a32cd" points="253.97,-141.1 263.65,-145.42 258.78,-136.01 253.97,-141.1"/>
<text text-anchor="middle" x="250.5" y="-85.5" font-family="Helvetica,sans-Serif" font-size="10.00"> name</text>
</g>
<!-- Node5&#45;&gt;Node4 -->
<g id="edge4" class="edge">
<title>Node5&#45;&gt;Node4</title>
<path fill="none" stroke="#9a32cd" stroke-dasharray="5,2" d="M288.6,-137.63C299.95,-124.92 315.23,-107.8 324.3,-97.63"/>
<polygon fill="#9a32cd" stroke="#9a32cd" points="285.87,-135.44 281.82,-145.23 291.09,-140.1 285.87,-135.44"/>
<text text-anchor="middle" x="320" y="-119" font-family="Helvetica,sans-Serif" font-size="10.00"> label</text>
</g>
<!-- Node6 -->
<g id="node6" class="node">
<title>Node6</title>
<g id="a_node6"><a xlink:title=" ">
<polygon fill="none" stroke="#bfbfbf" points="336,-145.5 336,-164.5 374,-164.5 374,-145.5 336,-145.5"/>
<text text-anchor="middle" x="355" y="-152.5" font-family="Helvetica,sans-Serif" font-size="10.00">bool</text>
</a>
</g>
</g>
<!-- Node6&#45;&gt;Node1 -->
<g id="edge10" class="edge">
<title>Node6&#45;&gt;Node1</title>
<path fill="none" stroke="#9a32cd" stroke-dasharray="5,2" d="M382.94,-142.04C388.91,-138.14 394.48,-133.17 398,-127 418.15,-91.64 408.37,-39.86 403.35,-19.59"/>
<polygon fill="#9a32cd" stroke="#9a32cd" points="381.08,-139.07 374.08,-147.02 384.51,-145.17 381.08,-139.07"/>
<text text-anchor="middle" x="437" y="-85.5" font-family="Helvetica,sans-Serif" font-size="10.00"> blockclear</text>
</g>
<!-- Node6&#45;&gt;Node4 -->
<g id="edge5" class="edge">
<title>Node6&#45;&gt;Node4</title>
<path fill="none" stroke="#9a32cd" stroke-dasharray="5,2" d="M348.56,-135.79C344.14,-123.31 338.48,-107.31 335.05,-97.63"/>
<polygon fill="#9a32cd" stroke="#9a32cd" points="345.26,-136.97 351.9,-145.23 351.86,-134.64 345.26,-136.97"/>
<text text-anchor="middle" x="369" y="-119" font-family="Helvetica,sans-Serif" font-size="10.00"> is_optical</text>
</g>
<!-- Node7 -->
<g id="node7" class="node">
<title>Node7</title>
<g id="a_node7"><a xlink:title=" ">
<polygon fill="none" stroke="#bfbfbf" points="497,-78.5 497,-97.5 553,-97.5 553,-78.5 497,-78.5"/>
<text text-anchor="middle" x="525" y="-85.5" font-family="Helvetica,sans-Serif" font-size="10.00">uint32_t</text>
</a>
</g>
</g>
<!-- Node7&#45;&gt;Node1 -->
<g id="edge8" class="edge">
<title>Node7&#45;&gt;Node1</title>
<path fill="none" stroke="#9a32cd" stroke-dasharray="5,2" d="M502.13,-72.98C476.65,-57.36 436.26,-32.61 415.06,-19.62"/>
<polygon fill="#9a32cd" stroke="#9a32cd" points="500.42,-76.04 510.78,-78.28 504.08,-70.07 500.42,-76.04"/>
<text text-anchor="middle" x="504.5" y="-46.5" font-family="Helvetica,sans-Serif" font-size="10.00"> block_size</text>
</g>
<!-- Node8 -->
<g id="node8" class="node">
<title>Node8</title>
<g id="a_node8"><a xlink:title=" ">
<polygon fill="none" stroke="#bfbfbf" points="571.5,-78.5 571.5,-97.5 600.5,-97.5 600.5,-78.5 571.5,-78.5"/>
<text text-anchor="middle" x="586" y="-85.5" font-family="Helvetica,sans-Serif" font-size="10.00">int</text>
</a>
</g>
</g>
<!-- Node8&#45;&gt;Node1 -->
<g id="edge9" class="edge">
<title>Node8&#45;&gt;Node1</title>
<path fill="none" stroke="#9a32cd" stroke-dasharray="5,2" d="M573.23,-70.2C564.06,-59.33 550.75,-45.8 536,-38 509.9,-24.2 477.57,-17.43 451.09,-14.12"/>
<polygon fill="#9a32cd" stroke="#9a32cd" points="570.66,-72.58 579.65,-78.18 576.12,-68.19 570.66,-72.58"/>
<text text-anchor="middle" x="588" y="-52" font-family="Helvetica,sans-Serif" font-size="10.00"> blockread</text>
<text text-anchor="middle" x="588" y="-41" font-family="Helvetica,sans-Serif" font-size="10.00">blockwrite</text>
</g>
<!-- Node9 -->
<g id="node9" class="node">
<title>Node9</title>
<g id="a_node9"><a xlink:title=" ">
<polygon fill="none" stroke="#bfbfbf" points="638,-78.5 638,-97.5 684,-97.5 684,-78.5 638,-78.5"/>
<text text-anchor="middle" x="661" y="-85.5" font-family="Helvetica,sans-Serif" font-size="10.00">void *</text>
</a>
</g>
</g>
<!-- Node9&#45;&gt;Node1 -->
<g id="edge11" class="edge">
<title>Node9&#45;&gt;Node1</title>
<path fill="none" stroke="#9a32cd" stroke-dasharray="5,2" d="M650.73,-69.91C643.14,-58.88 631.75,-45.28 618,-38 589.99,-23.16 506.18,-16.19 451.29,-13.14"/>
<polygon fill="#9a32cd" stroke="#9a32cd" points="647.82,-71.86 656.18,-78.37 653.71,-68.07 647.82,-71.86"/>
<text text-anchor="middle" x="666" y="-52" font-family="Helvetica,sans-Serif" font-size="10.00"> opaque2</text>
<text text-anchor="middle" x="666" y="-41" font-family="Helvetica,sans-Serif" font-size="10.00">opaque3</text>
</g>
</g>
</svg>
