<?xml version="1.0" encoding="UTF-8" standalone="no"?>
<!DOCTYPE svg PUBLIC "-//W3C//DTD SVG 1.1//EN"
 "http://www.w3.org/Graphics/SVG/1.1/DTD/svg11.dtd">
<!-- Generated by graphviz version 2.43.0 (0)
 -->
<!-- Title: icmp_parameter_problem_packet Pages: 1 -->
<svg width="283pt" height="128pt"
 viewBox="0.00 0.00 283.00 128.00" xmlns="http://www.w3.org/2000/svg" xmlns:xlink="http://www.w3.org/1999/xlink">
<g id="graph0" class="graph" transform="scale(1 1) rotate(0) translate(4 124)">
<title>icmp_parameter_problem_packet</title>
<!-- Node1 -->
<g id="node1" class="node">
<title>Node1</title>
<g id="a_node1"><a xlink:title=" ">
<polygon fill="#bfbfbf" stroke="black" points="36.5,-0.5 36.5,-30.5 179.5,-30.5 179.5,-0.5 36.5,-0.5"/>
<text text-anchor="start" x="44.5" y="-18.5" font-family="Helvetica,sans-Serif" font-size="10.00">icmp_parameter_problem</text>
<text text-anchor="middle" x="108" y="-7.5" font-family="Helvetica,sans-Serif" font-size="10.00">_packet</text>
</a>
</g>
</g>
<!-- Node2 -->
<g id="node2" class="node">
<title>Node2</title>
<g id="a_node2"><a xlink:title=" ">
<polygon fill="none" stroke="black" points="0,-100.5 0,-119.5 50,-119.5 50,-100.5 0,-100.5"/>
<text text-anchor="middle" x="25" y="-107.5" font-family="Helvetica,sans-Serif" font-size="10.00">uint8_t</text>
</a>
</g>
</g>
<!-- Node2&#45;&gt;Node1 -->
<g id="edge1" class="edge">
<title>Node2&#45;&gt;Node1</title>
<path fill="none" stroke="#9a32cd" stroke-dasharray="5,2" d="M27.11,-90.17C29.4,-77.33 34.16,-60.6 44,-49 50.53,-41.3 59.34,-35.23 68.32,-30.51"/>
<polygon fill="#9a32cd" stroke="#9a32cd" points="23.62,-89.84 25.66,-100.24 30.55,-90.84 23.62,-89.84"/>
<text text-anchor="middle" x="74" y="-74" font-family="Helvetica,sans-Serif" font-size="10.00"> code</text>
<text text-anchor="middle" x="74" y="-63" font-family="Helvetica,sans-Serif" font-size="10.00">problem_ptr</text>
<text text-anchor="middle" x="74" y="-52" font-family="Helvetica,sans-Serif" font-size="10.00">type</text>
</g>
<!-- Node3 -->
<g id="node3" class="node">
<title>Node3</title>
<g id="a_node3"><a xlink:title=" ">
<polygon fill="none" stroke="black" points="80,-100.5 80,-119.5 136,-119.5 136,-100.5 80,-100.5"/>
<text text-anchor="middle" x="108" y="-107.5" font-family="Helvetica,sans-Serif" font-size="10.00">uint16_t</text>
</a>
</g>
</g>
<!-- Node3&#45;&gt;Node1 -->
<g id="edge2" class="edge">
<title>Node3&#45;&gt;Node1</title>
<path fill="none" stroke="#9a32cd" stroke-dasharray="5,2" d="M108,-90.29C108,-72.67 108,-46.67 108,-30.7"/>
<polygon fill="#9a32cd" stroke="#9a32cd" points="104.5,-90.46 108,-100.46 111.5,-90.46 104.5,-90.46"/>
<text text-anchor="middle" x="134.5" y="-74" font-family="Helvetica,sans-Serif" font-size="10.00"> checksum</text>
<text text-anchor="middle" x="134.5" y="-63" font-family="Helvetica,sans-Serif" font-size="10.00">unused1</text>
<text text-anchor="middle" x="134.5" y="-52" font-family="Helvetica,sans-Serif" font-size="10.00">unused2</text>
</g>
<!-- Node4 -->
<g id="node4" class="node">
<title>Node4</title>
<g id="a_node4"><a xlink:title=" ">
<polygon fill="none" stroke="black" points="154,-100.5 154,-119.5 226,-119.5 226,-100.5 154,-100.5"/>
<text text-anchor="middle" x="190" y="-107.5" font-family="Helvetica,sans-Serif" font-size="10.00">ip_packet_t</text>
</a>
</g>
</g>
<!-- Node4&#45;&gt;Node1 -->
<g id="edge3" class="edge">
<title>Node4&#45;&gt;Node1</title>
<path fill="none" stroke="#9a32cd" stroke-dasharray="5,2" d="M185.63,-90.28C181.88,-77.49 175.4,-60.77 165,-49 158.44,-41.57 149.75,-35.44 141.15,-30.58"/>
<polygon fill="#9a32cd" stroke="#9a32cd" points="182.34,-91.51 188.25,-100.3 189.11,-89.74 182.34,-91.51"/>
<text text-anchor="middle" x="228.5" y="-63" font-family="Helvetica,sans-Serif" font-size="10.00"> original_datagram</text>
</g>
</g>
</svg>
