<?xml version="1.0" encoding="UTF-8" standalone="no"?>
<!DOCTYPE svg PUBLIC "-//W3C//DTD SVG 1.1//EN"
 "http://www.w3.org/Graphics/SVG/1.1/DTD/svg11.dtd">
<!-- Generated by graphviz version 2.43.0 (0)
 -->
<!-- Title: tcp_ordered_list_t Pages: 1 -->
<svg width="196pt" height="97pt"
 viewBox="0.00 0.00 195.50 97.00" xmlns="http://www.w3.org/2000/svg" xmlns:xlink="http://www.w3.org/1999/xlink">
<g id="graph0" class="graph" transform="scale(1 1) rotate(0) translate(4 93)">
<title>tcp_ordered_list_t</title>
<!-- Node1 -->
<g id="node1" class="node">
<title>Node1</title>
<g id="a_node1"><a xlink:title=" ">
<polygon fill="#bfbfbf" stroke="black" points="40.5,-1.5 40.5,-20.5 144.5,-20.5 144.5,-1.5 40.5,-1.5"/>
<text text-anchor="middle" x="92.5" y="-8.5" font-family="Helvetica,sans-Serif" font-size="10.00">tcp_ordered_list_t</text>
</a>
</g>
</g>
<!-- Node1&#45;&gt;Node1 -->
<g id="edge3" class="edge">
<title>Node1&#45;&gt;Node1</title>
<path fill="none" stroke="#9a32cd" stroke-dasharray="5,2" d="M154.9,-15.77C159.61,-14.71 162.5,-13.12 162.5,-11 162.5,-7.61 155.09,-5.58 144.7,-4.89"/>
<polygon fill="#9a32cd" stroke="#9a32cd" points="154.16,-12.34 144.7,-17.11 155.07,-19.28 154.16,-12.34"/>
<text text-anchor="middle" x="175" y="-14" font-family="Helvetica,sans-Serif" font-size="10.00"> next</text>
<text text-anchor="middle" x="175" y="-3" font-family="Helvetica,sans-Serif" font-size="10.00">prev</text>
</g>
<!-- Node2 -->
<g id="node2" class="node">
<title>Node2</title>
<g id="a_node2"><a xlink:title=" ">
<polygon fill="none" stroke="black" points="0,-69.5 0,-88.5 97,-88.5 97,-69.5 0,-69.5"/>
<text text-anchor="middle" x="48.5" y="-76.5" font-family="Helvetica,sans-Serif" font-size="10.00">tcp_segment_t *</text>
</a>
</g>
</g>
<!-- Node2&#45;&gt;Node1 -->
<g id="edge1" class="edge">
<title>Node2&#45;&gt;Node1</title>
<path fill="none" stroke="#9a32cd" stroke-dasharray="5,2" d="M57.56,-60.02C61.05,-53.55 65.22,-46.3 69.5,-40 74.16,-33.13 80.13,-25.9 84.82,-20.51"/>
<polygon fill="#9a32cd" stroke="#9a32cd" points="54.25,-58.8 52.74,-69.28 60.46,-62.03 54.25,-58.8"/>
<text text-anchor="middle" x="92.5" y="-43" font-family="Helvetica,sans-Serif" font-size="10.00"> segment</text>
</g>
<!-- Node3 -->
<g id="node3" class="node">
<title>Node3</title>
<g id="a_node3"><a xlink:title=" ">
<polygon fill="none" stroke="black" points="115,-69.5 115,-88.5 160,-88.5 160,-69.5 115,-69.5"/>
<text text-anchor="middle" x="137.5" y="-76.5" font-family="Helvetica,sans-Serif" font-size="10.00">size_t</text>
</a>
</g>
</g>
<!-- Node3&#45;&gt;Node1 -->
<g id="edge2" class="edge">
<title>Node3&#45;&gt;Node1</title>
<path fill="none" stroke="#9a32cd" stroke-dasharray="5,2" d="M128.16,-60.51C124.45,-53.93 119.99,-46.48 115.5,-40 110.77,-33.18 104.8,-25.94 100.13,-20.54"/>
<polygon fill="#9a32cd" stroke="#9a32cd" points="125.11,-62.22 132.99,-69.3 131.25,-58.85 125.11,-62.22"/>
<text text-anchor="middle" x="131" y="-43" font-family="Helvetica,sans-Serif" font-size="10.00"> len</text>
</g>
</g>
</svg>
