<?xml version="1.0" encoding="UTF-8" standalone="no"?>
<!DOCTYPE svg PUBLIC "-//W3C//DTD SVG 1.1//EN"
 "http://www.w3.org/Graphics/SVG/1.1/DTD/svg11.dtd">
<!-- Generated by graphviz version 2.43.0 (0)
 -->
<!-- Title: block_cache_t Pages: 1 -->
<!--zoomable 800 -->
<svg id="main" version="1.1" xmlns="http://www.w3.org/2000/svg" xmlns:xlink="http://www.w3.org/1999/xlink" xml:space="preserve" onload="init(evt)">
<style type="text/css"><![CDATA[
.edge:hover path { stroke: red; }
.edge:hover polygon { stroke: red; fill: red; }
]]></style>
<script type="text/javascript"><![CDATA[
var edges = document.getElementsByTagName('g');
if (edges && edges.length) {
  for (var i=0;i<edges.length;i++) {
    if (edges[i].id.substr(0,4)=='edge') {
      edges[i].setAttribute('class','edge');
    }
  }
}
]]></script>
        <defs>
                <circle id="rim" cx="0" cy="0" r="7"/>
                <circle id="rim2" cx="0" cy="0" r="3.5"/>
                <g id="zoomPlus">
                        <use xlink:href="#rim" fill="#404040">
                                <set attributeName="fill" to="#808080" begin="zoomplus.mouseover" end="zoomplus.mouseout"/>
                        </use>
                        <path d="M-4,0h8M0,-4v8" fill="none" stroke="white" stroke-width="1.5" pointer-events="none"/>
                </g>
                <g id="zoomMin">
                        <use xlink:href="#rim" fill="#404040">
                                <set attributeName="fill" to="#808080" begin="zoomminus.mouseover" end="zoomminus.mouseout"/>
                        </use>
                        <path d="M-4,0h8" fill="none" stroke="white" stroke-width="1.5" pointer-events="none"/>
                </g>
                <g id="dirArrow">
                        <path fill="none" stroke="white" stroke-width="1.5" d="M0,-3.0v7 M-2.5,-0.5L0,-3.0L2.5,-0.5"/>
                </g>
               <g id="resetDef">
                       <use xlink:href="#rim2" fill="#404040">
                               <set attributeName="fill" to="#808080" begin="reset.mouseover" end="reset.mouseout"/>
                       </use>
               </g>
        </defs>

<script type="text/javascript">
var viewWidth = 607;
var viewHeight = 800;
var sectionId = 'dynsection-0';
</script>
<script xlink:href="svgpan.js"/>
<svg id="graph" class="graph">
<g id="viewport">
<title>block_cache_t</title>
<!-- Node1 -->
<g id="node1" class="node">
<title>Node1</title>
<g id="a_node1"><a xlink:title="Per&#45;device block cache.">
<polygon fill="#bfbfbf" stroke="black" points="513,-445.5 513,-464.5 599,-464.5 599,-445.5 513,-445.5"/>
<text text-anchor="middle" x="556" y="-452.5" font-family="Helvetica,sans-Serif" font-size="10.00">block_cache_t</text>
</a>
</g>
</g>
<!-- Node2 -->
<g id="node2" class="node">
<title>Node2</title>
<g id="a_node2"><a xlink:title=" ">
<polygon fill="none" stroke="#bfbfbf" points="154,-685.5 154,-704.5 210,-704.5 210,-685.5 154,-685.5"/>
<text text-anchor="middle" x="182" y="-692.5" font-family="Helvetica,sans-Serif" font-size="10.00">uint64_t</text>
</a>
</g>
</g>
<!-- Node2&#45;&gt;Node1 -->
<g id="edge1" class="edge">
<title>Node2&#45;&gt;Node1</title>
<path fill="none" stroke="#9a32cd" stroke-dasharray="5,2" d="M220.2,-704.53C247.03,-709.5 283.56,-712.3 313,-700 434.91,-649.06 526.69,-503.48 549.5,-464.63"/>
<polygon fill="#9a32cd" stroke="#9a32cd" points="220.56,-701.03 210.07,-702.46 219.16,-707.89 220.56,-701.03"/>
<text text-anchor="middle" x="381" y="-694" font-family="Helvetica,sans-Serif" font-size="10.00"> tick</text>
</g>
<!-- Node3 -->
<g id="node3" class="node">
<title>Node3</title>
<g id="a_node3"><a xlink:href="structlru__node__t.html" target="_top" xlink:title=" ">
<polygon fill="none" stroke="black" points="347,-743.5 347,-762.5 415,-762.5 415,-743.5 347,-743.5"/>
<text text-anchor="middle" x="381" y="-750.5" font-family="Helvetica,sans-Serif" font-size="10.00">lru_node_t</text>
</a>
</g>
</g>
<!-- Node2&#45;&gt;Node3 -->
<g id="edge3" class="edge">
<title>Node2&#45;&gt;Node3</title>
<path fill="none" stroke="#9a32cd" stroke-dasharray="5,2" d="M213.61,-708.49C227.06,-714.09 243.14,-720.35 258,-725 287.56,-734.24 322.01,-741.87 346.75,-746.82"/>
<polygon fill="#9a32cd" stroke="#9a32cd" points="214.91,-705.24 204.34,-704.56 212.18,-711.69 214.91,-705.24"/>
<text text-anchor="middle" x="285.5" y="-742" font-family="Helvetica,sans-Serif" font-size="10.00"> lba</text>
</g>
<!-- Node5 -->
<g id="node5" class="node">
<title>Node5</title>
<g id="a_node5"><a xlink:href="structhashmap.html" target="_top" xlink:title=" ">
<polygon fill="none" stroke="black" points="350,-445.5 350,-464.5 412,-464.5 412,-445.5 350,-445.5"/>
<text text-anchor="middle" x="381" y="-452.5" font-family="Helvetica,sans-Serif" font-size="10.00">hashmap</text>
</a>
</g>
</g>
<!-- Node2&#45;&gt;Node5 -->
<g id="edge6" class="edge">
<title>Node2&#45;&gt;Node5</title>
<path fill="none" stroke="#9a32cd" stroke-dasharray="5,2" d="M217.58,-681.71C254.89,-667.25 309.47,-645.69 313,-642 363.81,-588.95 376.45,-494.72 379.26,-464.57"/>
<polygon fill="#9a32cd" stroke="#9a32cd" points="216.11,-678.52 208.04,-685.4 218.63,-685.05 216.11,-678.52"/>
<text text-anchor="middle" x="285.5" y="-689" font-family="Helvetica,sans-Serif" font-size="10.00"> hash</text>
<text text-anchor="middle" x="285.5" y="-678" font-family="Helvetica,sans-Serif" font-size="10.00">seed0</text>
<text text-anchor="middle" x="285.5" y="-667" font-family="Helvetica,sans-Serif" font-size="10.00">seed1</text>
</g>
<!-- Node12 -->
<g id="node12" class="node">
<title>Node12</title>
<g id="a_node12"><a xlink:href="structstorage__device__t.html" target="_top" xlink:title="Represents a block storage device e.g. a hard disk, DVD&#45;ROM drive, etc.">
<polygon fill="none" stroke="black" points="331,-150.5 331,-169.5 431,-169.5 431,-150.5 331,-150.5"/>
<text text-anchor="middle" x="381" y="-157.5" font-family="Helvetica,sans-Serif" font-size="10.00">storage_device_t</text>
</a>
</g>
</g>
<!-- Node2&#45;&gt;Node12 -->
<g id="edge14" class="edge">
<title>Node2&#45;&gt;Node12</title>
<path fill="none" stroke="#9a32cd" stroke-dasharray="5,2" d="M215.69,-680.4C225.14,-674.52 234.4,-666.77 240,-657 274.31,-597.13 216.34,-402.01 258,-347 273.61,-326.38 294.29,-345.85 313,-328 360.93,-282.26 375.37,-197.79 378.96,-169.51"/>
<polygon fill="#9a32cd" stroke="#9a32cd" points="213.69,-677.51 206.69,-685.46 217.13,-683.61 213.69,-677.51"/>
<text text-anchor="middle" x="285.5" y="-361" font-family="Helvetica,sans-Serif" font-size="10.00"> opaque1</text>
<text text-anchor="middle" x="285.5" y="-350" font-family="Helvetica,sans-Serif" font-size="10.00">size</text>
</g>
<!-- Node3&#45;&gt;Node1 -->
<g id="edge2" class="edge">
<title>Node3&#45;&gt;Node1</title>
<path fill="none" stroke="#9a32cd" stroke-dasharray="5,2" d="M425.33,-754.12C448.94,-752.37 476.94,-746.08 495,-728 533.49,-689.46 550.62,-508.56 554.25,-464.63"/>
<polygon fill="#9a32cd" stroke="#9a32cd" points="424.99,-750.63 415.18,-754.62 425.34,-757.62 424.99,-750.63"/>
<text text-anchor="middle" x="472" y="-764" font-family="Helvetica,sans-Serif" font-size="10.00"> lru_head</text>
<text text-anchor="middle" x="472" y="-753" font-family="Helvetica,sans-Serif" font-size="10.00">lru_tail</text>
</g>
<!-- Node4 -->
<g id="node4" class="node">
<title>Node4</title>
<g id="a_node4"><a xlink:title=" ">
<polygon fill="none" stroke="#bfbfbf" points="133,-771.5 133,-790.5 231,-790.5 231,-771.5 133,-771.5"/>
<text text-anchor="middle" x="182" y="-778.5" font-family="Helvetica,sans-Serif" font-size="10.00">struct lru_node *</text>
</a>
</g>
</g>
<!-- Node4&#45;&gt;Node3 -->
<g id="edge4" class="edge">
<title>Node4&#45;&gt;Node3</title>
<path fill="none" stroke="#9a32cd" stroke-dasharray="5,2" d="M241.14,-772.74C275.58,-767.84 317.97,-761.82 346.8,-757.72"/>
<polygon fill="#9a32cd" stroke="#9a32cd" points="240.6,-769.28 231.19,-774.15 241.58,-776.21 240.6,-769.28"/>
<text text-anchor="middle" x="285.5" y="-784" font-family="Helvetica,sans-Serif" font-size="10.00"> next</text>
<text text-anchor="middle" x="285.5" y="-773" font-family="Helvetica,sans-Serif" font-size="10.00">prev</text>
</g>
<!-- Node5&#45;&gt;Node1 -->
<g id="edge5" class="edge">
<title>Node5&#45;&gt;Node1</title>
<path fill="none" stroke="#9a32cd" stroke-dasharray="5,2" d="M422.47,-455C449.65,-455 485.39,-455 512.9,-455"/>
<polygon fill="#9a32cd" stroke="#9a32cd" points="422.13,-451.5 412.13,-455 422.13,-458.5 422.13,-451.5"/>
<text text-anchor="middle" x="472" y="-458" font-family="Helvetica,sans-Serif" font-size="10.00"> map</text>
</g>
<!-- Node6 -->
<g id="node6" class="node">
<title>Node6</title>
<g id="a_node6"><a xlink:title=" ">
<polygon fill="none" stroke="#bfbfbf" points="125,-388 125,-418 239,-418 239,-388 125,-388"/>
<text text-anchor="start" x="133" y="-406" font-family="Helvetica,sans-Serif" font-size="10.00">void(*)(const void</text>
<text text-anchor="middle" x="182" y="-395" font-family="Helvetica,sans-Serif" font-size="10.00"> *item, void *udata)</text>
</a>
</g>
</g>
<!-- Node6&#45;&gt;Node5 -->
<g id="edge7" class="edge">
<title>Node6&#45;&gt;Node5</title>
<path fill="none" stroke="#9a32cd" stroke-dasharray="5,2" d="M249.07,-414.7C269.71,-418.89 292.44,-424.07 313,-430 327.91,-434.3 344.23,-440.36 357.04,-445.44"/>
<polygon fill="#9a32cd" stroke="#9a32cd" points="249.62,-411.24 239.13,-412.72 248.25,-418.1 249.62,-411.24"/>
<text text-anchor="middle" x="285.5" y="-433" font-family="Helvetica,sans-Serif" font-size="10.00"> elfree</text>
</g>
<!-- Node7 -->
<g id="node7" class="node">
<title>Node7</title>
<g id="a_node7"><a xlink:title=" ">
<polygon fill="none" stroke="#bfbfbf" points="129.5,-617 129.5,-647 234.5,-647 234.5,-617 129.5,-617"/>
<text text-anchor="start" x="137.5" y="-635" font-family="Helvetica,sans-Serif" font-size="10.00">void(*)(const void</text>
<text text-anchor="middle" x="182" y="-624" font-family="Helvetica,sans-Serif" font-size="10.00"> *ptr, void *udata)</text>
</a>
</g>
</g>
<!-- Node7&#45;&gt;Node5 -->
<g id="edge8" class="edge">
<title>Node7&#45;&gt;Node5</title>
<path fill="none" stroke="#9a32cd" stroke-dasharray="5,2" d="M244.5,-630.35C268.05,-626.94 293.84,-619.5 313,-604 358.87,-566.9 374.43,-491.72 378.65,-464.84"/>
<polygon fill="#9a32cd" stroke="#9a32cd" points="244.06,-626.88 234.57,-631.58 244.92,-633.83 244.06,-626.88"/>
<text text-anchor="middle" x="285.5" y="-630" font-family="Helvetica,sans-Serif" font-size="10.00"> free</text>
</g>
<!-- Node8 -->
<g id="node8" class="node">
<title>Node8</title>
<g id="a_node8"><a xlink:title=" ">
<polygon fill="none" stroke="#bfbfbf" points="159.5,-484.5 159.5,-503.5 204.5,-503.5 204.5,-484.5 159.5,-484.5"/>
<text text-anchor="middle" x="182" y="-491.5" font-family="Helvetica,sans-Serif" font-size="10.00">size_t</text>
</a>
</g>
</g>
<!-- Node8&#45;&gt;Node5 -->
<g id="edge9" class="edge">
<title>Node8&#45;&gt;Node5</title>
<path fill="none" stroke="#9a32cd" stroke-dasharray="5,2" d="M214.65,-487.74C251.84,-480.37 313.11,-468.24 349.7,-461"/>
<polygon fill="#9a32cd" stroke="#9a32cd" points="213.97,-484.3 204.84,-489.68 215.32,-491.17 213.97,-484.3"/>
<text text-anchor="middle" x="285.5" y="-592" font-family="Helvetica,sans-Serif" font-size="10.00"> bucketsz</text>
<text text-anchor="middle" x="285.5" y="-581" font-family="Helvetica,sans-Serif" font-size="10.00">cap</text>
<text text-anchor="middle" x="285.5" y="-570" font-family="Helvetica,sans-Serif" font-size="10.00">count</text>
<text text-anchor="middle" x="285.5" y="-559" font-family="Helvetica,sans-Serif" font-size="10.00">elsize</text>
<text text-anchor="middle" x="285.5" y="-548" font-family="Helvetica,sans-Serif" font-size="10.00">growat</text>
<text text-anchor="middle" x="285.5" y="-537" font-family="Helvetica,sans-Serif" font-size="10.00">malloc</text>
<text text-anchor="middle" x="285.5" y="-526" font-family="Helvetica,sans-Serif" font-size="10.00">mask</text>
<text text-anchor="middle" x="285.5" y="-515" font-family="Helvetica,sans-Serif" font-size="10.00">nbuckets</text>
<text text-anchor="middle" x="285.5" y="-504" font-family="Helvetica,sans-Serif" font-size="10.00">realloc</text>
<text text-anchor="middle" x="285.5" y="-493" font-family="Helvetica,sans-Serif" font-size="10.00">shrinkat</text>
<text text-anchor="middle" x="285.5" y="-482" font-family="Helvetica,sans-Serif" font-size="10.00">...</text>
</g>
<!-- Node9 -->
<g id="node9" class="node">
<title>Node9</title>
<g id="a_node9"><a xlink:title=" ">
<polygon fill="none" stroke="#bfbfbf" points="167.5,-322.5 167.5,-341.5 196.5,-341.5 196.5,-322.5 167.5,-322.5"/>
<text text-anchor="middle" x="182" y="-329.5" font-family="Helvetica,sans-Serif" font-size="10.00">int</text>
</a>
</g>
</g>
<!-- Node9&#45;&gt;Node5 -->
<g id="edge10" class="edge">
<title>Node9&#45;&gt;Node5</title>
<path fill="none" stroke="#9a32cd" stroke-dasharray="5,2" d="M205.71,-344.64C220.53,-352.84 240.34,-363.68 258,-373 282.26,-385.8 289.98,-386.09 313,-401 334.32,-414.8 356.87,-434.09 369.61,-445.49"/>
<polygon fill="#9a32cd" stroke="#9a32cd" points="207.2,-341.47 196.76,-339.68 203.81,-347.59 207.2,-341.47"/>
<text text-anchor="middle" x="285.5" y="-404" font-family="Helvetica,sans-Serif" font-size="10.00"> compare</text>
</g>
<!-- Node9&#45;&gt;Node12 -->
<g id="edge22" class="edge">
<title>Node9&#45;&gt;Node12</title>
<path fill="none" stroke="#9a32cd" stroke-dasharray="5,2" d="M206.62,-323.58C242.95,-310.56 308.8,-286.66 313,-283 350.05,-250.75 370.35,-192.81 377.26,-169.8"/>
<polygon fill="#9a32cd" stroke="#9a32cd" points="205.05,-320.42 196.82,-327.09 207.41,-327.01 205.05,-320.42"/>
<text text-anchor="middle" x="285.5" y="-317" font-family="Helvetica,sans-Serif" font-size="10.00"> blockread</text>
<text text-anchor="middle" x="285.5" y="-306" font-family="Helvetica,sans-Serif" font-size="10.00">blockwrite</text>
</g>
<!-- Node10 -->
<g id="node10" class="node">
<title>Node10</title>
<g id="a_node10"><a xlink:title=" ">
<polygon fill="none" stroke="#bfbfbf" points="0,-181.5 0,-200.5 38,-200.5 38,-181.5 0,-181.5"/>
<text text-anchor="middle" x="19" y="-188.5" font-family="Helvetica,sans-Serif" font-size="10.00">bool</text>
</a>
</g>
</g>
<!-- Node10&#45;&gt;Node5 -->
<g id="edge11" class="edge">
<title>Node10&#45;&gt;Node5</title>
<path fill="none" stroke="#9a32cd" stroke-dasharray="5,2" d="M22.08,-210.5C28.16,-256.94 50.44,-374.23 124,-428 159.27,-453.78 289.97,-455.93 349.77,-455.51"/>
<polygon fill="#9a32cd" stroke="#9a32cd" points="25.55,-210.04 20.88,-200.53 18.6,-210.88 25.55,-210.04"/>
<text text-anchor="middle" x="182" y="-455" font-family="Helvetica,sans-Serif" font-size="10.00"> oom</text>
</g>
<!-- Node10&#45;&gt;Node12 -->
<g id="edge23" class="edge">
<title>Node10&#45;&gt;Node12</title>
<path fill="none" stroke="#9a32cd" stroke-dasharray="5,2" d="M48.44,-188.55C109.65,-183.28 254.54,-170.8 330.92,-164.23"/>
<polygon fill="#9a32cd" stroke="#9a32cd" points="48.01,-185.07 38.35,-189.42 48.61,-192.05 48.01,-185.07"/>
<text text-anchor="middle" x="182" y="-185" font-family="Helvetica,sans-Serif" font-size="10.00"> blockclear</text>
</g>
<!-- Node14 -->
<g id="node14" class="node">
<title>Node14</title>
<g id="a_node14"><a xlink:href="structstorage__device__ui__t.html" target="_top" xlink:title=" ">
<polygon fill="none" stroke="black" points="125,-127.5 125,-146.5 239,-146.5 239,-127.5 125,-127.5"/>
<text text-anchor="middle" x="182" y="-134.5" font-family="Helvetica,sans-Serif" font-size="10.00">storage_device_ui_t</text>
</a>
</g>
</g>
<!-- Node10&#45;&gt;Node14 -->
<g id="edge18" class="edge">
<title>Node10&#45;&gt;Node14</title>
<path fill="none" stroke="#9a32cd" stroke-dasharray="5,2" d="M39.76,-175.3C44.83,-171.84 50.44,-168.47 56,-166 77.59,-156.43 102.73,-149.81 124.78,-145.34"/>
<polygon fill="#9a32cd" stroke="#9a32cd" points="37.33,-172.74 31.32,-181.46 41.46,-178.39 37.33,-172.74"/>
<text text-anchor="middle" x="81" y="-169" font-family="Helvetica,sans-Serif" font-size="10.00"> is_optical</text>
</g>
<!-- Node11 -->
<g id="node11" class="node">
<title>Node11</title>
<g id="a_node11"><a xlink:title=" ">
<polygon fill="none" stroke="#bfbfbf" points="159,-218.5 159,-237.5 205,-237.5 205,-218.5 159,-218.5"/>
<text text-anchor="middle" x="182" y="-225.5" font-family="Helvetica,sans-Serif" font-size="10.00">void *</text>
</a>
</g>
</g>
<!-- Node11&#45;&gt;Node5 -->
<g id="edge12" class="edge">
<title>Node11&#45;&gt;Node5</title>
<path fill="none" stroke="#9a32cd" stroke-dasharray="5,2" d="M215.37,-220.23C244.08,-215.36 285.58,-213.53 313,-235 381.52,-288.67 381.93,-410.47 380.54,-445.44"/>
<polygon fill="#9a32cd" stroke="#9a32cd" points="214.6,-216.82 205.43,-222.13 215.91,-223.69 214.6,-216.82"/>
<text text-anchor="middle" x="285.5" y="-271" font-family="Helvetica,sans-Serif" font-size="10.00"> buckets</text>
<text text-anchor="middle" x="285.5" y="-260" font-family="Helvetica,sans-Serif" font-size="10.00">edata</text>
<text text-anchor="middle" x="285.5" y="-249" font-family="Helvetica,sans-Serif" font-size="10.00">spare</text>
<text text-anchor="middle" x="285.5" y="-238" font-family="Helvetica,sans-Serif" font-size="10.00">udata</text>
</g>
<!-- Node11&#45;&gt;Node12 -->
<g id="edge24" class="edge">
<title>Node11&#45;&gt;Node12</title>
<path fill="none" stroke="#9a32cd" stroke-dasharray="5,2" d="M213.13,-214.21C232.94,-205.17 255.62,-194.86 258,-194 284.86,-184.23 315.9,-175.62 339.95,-169.5"/>
<polygon fill="#9a32cd" stroke="#9a32cd" points="211.67,-211.03 204.03,-218.37 214.58,-217.4 211.67,-211.03"/>
<text text-anchor="middle" x="285.5" y="-208" font-family="Helvetica,sans-Serif" font-size="10.00"> opaque2</text>
<text text-anchor="middle" x="285.5" y="-197" font-family="Helvetica,sans-Serif" font-size="10.00">opaque3</text>
</g>
<!-- Node12&#45;&gt;Node1 -->
<g id="edge13" class="edge">
<title>Node12&#45;&gt;Node1</title>
<path fill="none" stroke="#9a32cd" stroke-dasharray="5,2" d="M393.01,-178.77C426.24,-235.44 524.81,-403.53 549.4,-445.45"/>
<polygon fill="#9a32cd" stroke="#9a32cd" points="395.83,-176.67 387.76,-169.82 389.8,-180.21 395.83,-176.67"/>
<text text-anchor="middle" x="472" y="-354" font-family="Helvetica,sans-Serif" font-size="10.00"> dev</text>
</g>
<!-- Node12&#45;&gt;Node12 -->
<g id="edge20" class="edge">
<title>Node12&#45;&gt;Node12</title>
<path fill="none" stroke="#9a32cd" stroke-dasharray="5,2" d="M364.33,-179.4C365.45,-184.31 371,-188 381,-188 397,-188 401.62,-178.57 394.87,-169.76"/>
<polygon fill="#9a32cd" stroke="#9a32cd" points="367.71,-180.34 367.13,-169.76 360.98,-178.39 367.71,-180.34"/>
<text text-anchor="middle" x="381" y="-191" font-family="Helvetica,sans-Serif" font-size="10.00"> next</text>
</g>
<!-- Node13 -->
<g id="node13" class="node">
<title>Node13</title>
<g id="a_node13"><a xlink:title=" ">
<polygon fill="none" stroke="#bfbfbf" points="124,-42.5 124,-61.5 240,-61.5 240,-42.5 124,-42.5"/>
<text text-anchor="middle" x="182" y="-49.5" font-family="Helvetica,sans-Serif" font-size="10.00">struct block_cache *</text>
</a>
</g>
</g>
<!-- Node13&#45;&gt;Node12 -->
<g id="edge15" class="edge">
<title>Node13&#45;&gt;Node12</title>
<path fill="none" stroke="#9a32cd" stroke-dasharray="5,2" d="M250.18,-53.24C271.44,-56.08 294.26,-61.84 313,-73 344.77,-91.93 366.87,-132.13 375.7,-150.49"/>
<polygon fill="#9a32cd" stroke="#9a32cd" points="250.55,-49.76 240.22,-52.11 249.75,-56.72 250.55,-49.76"/>
<text text-anchor="middle" x="285.5" y="-76" font-family="Helvetica,sans-Serif" font-size="10.00"> cache</text>
</g>
<!-- Node14&#45;&gt;Node12 -->
<g id="edge16" class="edge">
<title>Node14&#45;&gt;Node12</title>
<path fill="none" stroke="#9a32cd" stroke-dasharray="5,2" d="M249.28,-131.05C269.84,-130.53 292.48,-131.3 313,-135 329.37,-137.95 346.96,-144.67 360.01,-150.39"/>
<polygon fill="#9a32cd" stroke="#9a32cd" points="248.92,-127.57 239.06,-131.43 249.18,-134.56 248.92,-127.57"/>
<text text-anchor="middle" x="285.5" y="-138" font-family="Helvetica,sans-Serif" font-size="10.00"> ui</text>
</g>
<!-- Node15 -->
<g id="node15" class="node">
<title>Node15</title>
<g id="a_node15"><a xlink:title=" ">
<polygon fill="none" stroke="#bfbfbf" points="0,-105.5 0,-124.5 38,-124.5 38,-105.5 0,-105.5"/>
<text text-anchor="middle" x="19" y="-112.5" font-family="Helvetica,sans-Serif" font-size="10.00">char</text>
</a>
</g>
</g>
<!-- Node15&#45;&gt;Node12 -->
<g id="edge19" class="edge">
<title>Node15&#45;&gt;Node12</title>
<path fill="none" stroke="#9a32cd" stroke-dasharray="5,2" d="M48.12,-112.25C69.03,-110.35 98.27,-107.99 124,-107 208.36,-103.76 234.05,-96.09 313,-126 330.93,-132.79 350.36,-143 363.66,-150.45"/>
<polygon fill="#9a32cd" stroke="#9a32cd" points="47.64,-108.78 38.01,-113.19 48.29,-115.75 47.64,-108.78"/>
<text text-anchor="middle" x="182" y="-110" font-family="Helvetica,sans-Serif" font-size="10.00"> name</text>
</g>
<!-- Node15&#45;&gt;Node14 -->
<g id="edge17" class="edge">
<title>Node15&#45;&gt;Node14</title>
<path fill="none" stroke="#9a32cd" stroke-dasharray="5,2" d="M48.35,-118.87C69.42,-121.75 98.86,-125.78 124.65,-129.3"/>
<polygon fill="#9a32cd" stroke="#9a32cd" points="48.54,-115.37 38.16,-117.48 47.59,-122.3 48.54,-115.37"/>
<text text-anchor="middle" x="81" y="-129" font-family="Helvetica,sans-Serif" font-size="10.00"> label</text>
</g>
<!-- Node16 -->
<g id="node16" class="node">
<title>Node16</title>
<g id="a_node16"><a xlink:title=" ">
<polygon fill="none" stroke="#bfbfbf" points="154,-0.5 154,-19.5 210,-19.5 210,-0.5 154,-0.5"/>
<text text-anchor="middle" x="182" y="-7.5" font-family="Helvetica,sans-Serif" font-size="10.00">uint32_t</text>
</a>
</g>
</g>
<!-- Node16&#45;&gt;Node1 -->
<g id="edge25" class="edge">
<title>Node16&#45;&gt;Node1</title>
<path fill="none" stroke="#9a32cd" stroke-dasharray="5,2" d="M220.2,-7.61C246.75,-7.09 282.92,-8.81 313,-19 372.54,-39.17 392.25,-47.5 431,-97 522.02,-213.28 548.76,-400.93 553.96,-445.35"/>
<polygon fill="#9a32cd" stroke="#9a32cd" points="220.06,-4.12 210.17,-7.93 220.28,-11.11 220.06,-4.12"/>
<text text-anchor="middle" x="381" y="-133" font-family="Helvetica,sans-Serif" font-size="10.00"> cap</text>
<text text-anchor="middle" x="381" y="-122" font-family="Helvetica,sans-Serif" font-size="10.00">lock</text>
<text text-anchor="middle" x="381" y="-111" font-family="Helvetica,sans-Serif" font-size="10.00">lru_count</text>
<text text-anchor="middle" x="381" y="-100" font-family="Helvetica,sans-Serif" font-size="10.00">sector_size</text>
</g>
<!-- Node16&#45;&gt;Node12 -->
<g id="edge21" class="edge">
<title>Node16&#45;&gt;Node12</title>
<path fill="none" stroke="#9a32cd" stroke-dasharray="5,2" d="M220.33,-14.86C253.38,-19.78 298.55,-28.19 313,-39 352.03,-68.2 371.29,-127.18 377.59,-150.34"/>
<polygon fill="#9a32cd" stroke="#9a32cd" points="220.48,-11.35 210.08,-13.39 219.48,-18.28 220.48,-11.35"/>
<text text-anchor="middle" x="285.5" y="-42" font-family="Helvetica,sans-Serif" font-size="10.00"> block_size</text>
</g>
</g>
</svg>
        <g id="navigator" transform="translate(0 0)" fill="#404254">
                <rect fill="#f2f5e9" fill-opacity="0.5" stroke="#606060" stroke-width=".5" x="0" y="0" width="60" height="60"/>
                <use id="zoomplus" xlink:href="#zoomPlus" x="17" y="9" onmousedown="handleZoom(evt,'in')"/>
                <use id="zoomminus" xlink:href="#zoomMin" x="42" y="9" onmousedown="handleZoom(evt,'out')"/>
                <use id="reset" xlink:href="#resetDef" x="30" y="36" onmousedown="handleReset()"/>
                <g id="arrowUp" xlink:href="#dirArrow" transform="translate(30 24)" onmousedown="handlePan(0,-1)">
                  <use xlink:href="#rim" fill="#404040">
                        <set attributeName="fill" to="#808080" begin="arrowUp.mouseover" end="arrowUp.mouseout"/>
                  </use>
                  <path fill="none" stroke="white" stroke-width="1.5" d="M0,-3.0v7 M-2.5,-0.5L0,-3.0L2.5,-0.5"/>
                </g>
                <g id="arrowRight" xlink:href="#dirArrow" transform="rotate(90) translate(36 -43)" onmousedown="handlePan(1,0)">
                  <use xlink:href="#rim" fill="#404040">
                        <set attributeName="fill" to="#808080" begin="arrowRight.mouseover" end="arrowRight.mouseout"/>
                  </use>
                  <path fill="none" stroke="white" stroke-width="1.5" d="M0,-3.0v7 M-2.5,-0.5L0,-3.0L2.5,-0.5"/>
                </g>
                <g id="arrowDown" xlink:href="#dirArrow" transform="rotate(180) translate(-30 -48)" onmousedown="handlePan(0,1)">
                  <use xlink:href="#rim" fill="#404040">
                        <set attributeName="fill" to="#808080" begin="arrowDown.mouseover" end="arrowDown.mouseout"/>
                  </use>
                  <path fill="none" stroke="white" stroke-width="1.5" d="M0,-3.0v7 M-2.5,-0.5L0,-3.0L2.5,-0.5"/>
                </g>
                <g id="arrowLeft" xlink:href="#dirArrow" transform="rotate(270) translate(-36 17)" onmousedown="handlePan(-1,0)">
                  <use xlink:href="#rim" fill="#404040">
                        <set attributeName="fill" to="#808080" begin="arrowLeft.mouseover" end="arrowLeft.mouseout"/>
                  </use>
                  <path fill="none" stroke="white" stroke-width="1.5" d="M0,-3.0v7 M-2.5,-0.5L0,-3.0L2.5,-0.5"/>
                </g>
        </g>
        <svg viewBox="0 0 15 15" width="100%" height="30px" preserveAspectRatio="xMaxYMin meet">
         <g id="arrow_out" transform="scale(0.3 0.3)">
          <a xlink:href="structblock__cache__t__coll__graph_org.svg" target="_base">
           <rect id="button" ry="5" rx="5" y="6" x="6" height="38" width="38"
                fill="#f2f5e9" fill-opacity="0.5" stroke="#606060" stroke-width="1.0"/>
           <path id="arrow"
             d="M 11.500037,31.436501 C 11.940474,20.09759 22.043105,11.32322 32.158766,21.979434 L 37.068811,17.246167 C 37.068811,17.246167 37.088388,32 37.088388,32 L 22.160133,31.978069 C 22.160133,31.978069 26.997745,27.140456 26.997745,27.140456 C 18.528582,18.264221 13.291696,25.230495 11.500037,31.436501 z"
             style="fill:#404040;"/>
          </a>
         </g>
        </svg>
</svg>
