<?xml version="1.0" encoding="UTF-8" standalone="no"?>
<!DOCTYPE svg PUBLIC "-//W3C//DTD SVG 1.1//EN"
 "http://www.w3.org/Graphics/SVG/1.1/DTD/svg11.dtd">
<!-- Generated by graphviz version 2.43.0 (0)
 -->
<!-- Title: icmp_parameter_problem_packet Pages: 1 -->
<svg width="290pt" height="128pt"
 viewBox="0.00 0.00 290.00 128.00" xmlns="http://www.w3.org/2000/svg" xmlns:xlink="http://www.w3.org/1999/xlink">
<g id="graph0" class="graph" transform="scale(1 1) rotate(0) translate(4 124)">
<title>icmp_parameter_problem_packet</title>
<!-- Node1 -->
<g id="node1" class="node">
<title>Node1</title>
<g id="a_node1"><a xlink:title=" ">
<polygon fill="#bfbfbf" stroke="black" points="80.5,-0.5 80.5,-30.5 223.5,-30.5 223.5,-0.5 80.5,-0.5"/>
<text text-anchor="start" x="88.5" y="-18.5" font-family="Helvetica,sans-Serif" font-size="10.00">icmp_parameter_problem</text>
<text text-anchor="middle" x="152" y="-7.5" font-family="Helvetica,sans-Serif" font-size="10.00">_packet</text>
</a>
</g>
</g>
<!-- Node2 -->
<g id="node2" class="node">
<title>Node2</title>
<g id="a_node2"><a xlink:title=" ">
<polygon fill="none" stroke="#bfbfbf" points="0,-100.5 0,-119.5 72,-119.5 72,-100.5 0,-100.5"/>
<text text-anchor="middle" x="36" y="-107.5" font-family="Helvetica,sans-Serif" font-size="10.00">ip_packet_t</text>
</a>
</g>
</g>
<!-- Node2&#45;&gt;Node1 -->
<g id="edge1" class="edge">
<title>Node2&#45;&gt;Node1</title>
<path fill="none" stroke="#9a32cd" stroke-dasharray="5,2" d="M37.53,-90.14C39.55,-77.01 44.21,-59.97 55,-49 62.72,-41.15 72.39,-35.2 82.62,-30.68"/>
<polygon fill="#9a32cd" stroke="#9a32cd" points="34.01,-90.08 36.35,-100.41 40.97,-90.88 34.01,-90.08"/>
<text text-anchor="middle" x="101.5" y="-63" font-family="Helvetica,sans-Serif" font-size="10.00"> original_datagram</text>
</g>
<!-- Node3 -->
<g id="node3" class="node">
<title>Node3</title>
<g id="a_node3"><a xlink:title=" ">
<polygon fill="none" stroke="#bfbfbf" points="124,-100.5 124,-119.5 180,-119.5 180,-100.5 124,-100.5"/>
<text text-anchor="middle" x="152" y="-107.5" font-family="Helvetica,sans-Serif" font-size="10.00">uint16_t</text>
</a>
</g>
</g>
<!-- Node3&#45;&gt;Node1 -->
<g id="edge2" class="edge">
<title>Node3&#45;&gt;Node1</title>
<path fill="none" stroke="#9a32cd" stroke-dasharray="5,2" d="M152,-90.29C152,-72.67 152,-46.67 152,-30.7"/>
<polygon fill="#9a32cd" stroke="#9a32cd" points="148.5,-90.46 152,-100.46 155.5,-90.46 148.5,-90.46"/>
<text text-anchor="middle" x="178.5" y="-74" font-family="Helvetica,sans-Serif" font-size="10.00"> checksum</text>
<text text-anchor="middle" x="178.5" y="-63" font-family="Helvetica,sans-Serif" font-size="10.00">unused1</text>
<text text-anchor="middle" x="178.5" y="-52" font-family="Helvetica,sans-Serif" font-size="10.00">unused2</text>
</g>
<!-- Node4 -->
<g id="node4" class="node">
<title>Node4</title>
<g id="a_node4"><a xlink:title=" ">
<polygon fill="none" stroke="#bfbfbf" points="203,-100.5 203,-119.5 253,-119.5 253,-100.5 203,-100.5"/>
<text text-anchor="middle" x="228" y="-107.5" font-family="Helvetica,sans-Serif" font-size="10.00">uint8_t</text>
</a>
</g>
</g>
<!-- Node4&#45;&gt;Node1 -->
<g id="edge3" class="edge">
<title>Node4&#45;&gt;Node1</title>
<path fill="none" stroke="#9a32cd" stroke-dasharray="5,2" d="M224.58,-90.37C221.48,-77.61 215.83,-60.91 206,-49 199.87,-41.58 191.57,-35.41 183.32,-30.53"/>
<polygon fill="#9a32cd" stroke="#9a32cd" points="221.2,-91.29 226.7,-100.35 228.05,-89.84 221.2,-91.29"/>
<text text-anchor="middle" x="252" y="-74" font-family="Helvetica,sans-Serif" font-size="10.00"> code</text>
<text text-anchor="middle" x="252" y="-63" font-family="Helvetica,sans-Serif" font-size="10.00">problem_ptr</text>
<text text-anchor="middle" x="252" y="-52" font-family="Helvetica,sans-Serif" font-size="10.00">type</text>
</g>
</g>
</svg>
