<?xml version="1.0" encoding="UTF-8" standalone="no"?>
<!DOCTYPE svg PUBLIC "-//W3C//DTD SVG 1.1//EN"
 "http://www.w3.org/Graphics/SVG/1.1/DTD/svg11.dtd">
<!-- Generated by graphviz version 2.43.0 (0)
 -->
<!-- Title: netdev_t Pages: 1 -->
<svg width="393pt" height="253pt"
 viewBox="0.00 0.00 392.60 253.00" xmlns="http://www.w3.org/2000/svg" xmlns:xlink="http://www.w3.org/1999/xlink">
<g id="graph0" class="graph" transform="scale(1 1) rotate(0) translate(4 249)">
<title>netdev_t</title>
<!-- Node1 -->
<g id="node1" class="node">
<title>Node1</title>
<g id="a_node1"><a xlink:title="An ethernet network device, this relates directly to a physical network card in the machine....">
<polygon fill="#bfbfbf" stroke="black" points="226.1,-0.5 226.1,-19.5 285.1,-19.5 285.1,-0.5 226.1,-0.5"/>
<text text-anchor="middle" x="255.6" y="-7.5" font-family="Helvetica,sans-Serif" font-size="10.00">netdev_t</text>
</a>
</g>
</g>
<!-- Node2 -->
<g id="node2" class="node">
<title>Node2</title>
<g id="a_node2"><a xlink:title=" ">
<polygon fill="none" stroke="black" points="33.6,-225.5 33.6,-244.5 71.6,-244.5 71.6,-225.5 33.6,-225.5"/>
<text text-anchor="middle" x="52.6" y="-232.5" font-family="Helvetica,sans-Serif" font-size="10.00">char</text>
</a>
</g>
</g>
<!-- Node2&#45;&gt;Node1 -->
<g id="edge1" class="edge">
<title>Node2&#45;&gt;Node1</title>
<path fill="none" stroke="#9a32cd" stroke-dasharray="5,2" d="M38.1,-217.56C18.06,-192.73 -13.5,-144.54 6.6,-107 48.9,-27.96 169.51,-13.56 225.88,-11.24"/>
<polygon fill="#9a32cd" stroke="#9a32cd" points="35.5,-219.91 44.61,-225.32 40.86,-215.41 35.5,-219.91"/>
<text text-anchor="middle" x="35.6" y="-121" font-family="Helvetica,sans-Serif" font-size="10.00"> description</text>
<text text-anchor="middle" x="35.6" y="-110" font-family="Helvetica,sans-Serif" font-size="10.00">name</text>
</g>
<!-- Node5 -->
<g id="node5" class="node">
<title>Node5</title>
<g id="a_node5"><a xlink:href="structnetproto__t.html" target="_top" xlink:title="Represents a protocol, or group of related protocols, that can be attached to an interface and can ha...">
<polygon fill="none" stroke="black" points="76.1,-68.5 76.1,-87.5 143.1,-87.5 143.1,-68.5 76.1,-68.5"/>
<text text-anchor="middle" x="109.6" y="-75.5" font-family="Helvetica,sans-Serif" font-size="10.00">netproto_t</text>
</a>
</g>
</g>
<!-- Node2&#45;&gt;Node5 -->
<g id="edge5" class="edge">
<title>Node2&#45;&gt;Node5</title>
<path fill="none" stroke="#9a32cd" stroke-dasharray="5,2" d="M52.08,-215.16C52.28,-188.59 56.16,-139.73 79.6,-107 84.82,-99.7 92.17,-92.8 98.29,-87.68"/>
<polygon fill="#9a32cd" stroke="#9a32cd" points="48.58,-215.4 52.18,-225.36 55.58,-215.33 48.58,-215.4"/>
<text text-anchor="middle" x="77.1" y="-154.5" font-family="Helvetica,sans-Serif" font-size="10.00"> name</text>
</g>
<!-- Node6 -->
<g id="node6" class="node">
<title>Node6</title>
<g id="a_node6"><a xlink:href="structnet__address__t.html" target="_top" xlink:title="Represents an address that is bound to a protocol on an interface. This is kept as flexible as possib...">
<polygon fill="none" stroke="black" points="102.1,-147.5 102.1,-166.5 187.1,-166.5 187.1,-147.5 102.1,-147.5"/>
<text text-anchor="middle" x="144.6" y="-154.5" font-family="Helvetica,sans-Serif" font-size="10.00">net_address_t</text>
</a>
</g>
</g>
<!-- Node2&#45;&gt;Node6 -->
<g id="edge8" class="edge">
<title>Node2&#45;&gt;Node6</title>
<path fill="none" stroke="#9a32cd" stroke-dasharray="5,2" d="M71.08,-218.73C90.04,-203.07 118.85,-179.27 134.16,-166.62"/>
<polygon fill="#9a32cd" stroke="#9a32cd" points="68.63,-216.21 63.15,-225.28 73.09,-221.61 68.63,-216.21"/>
<text text-anchor="middle" x="125.1" y="-193.5" font-family="Helvetica,sans-Serif" font-size="10.00"> name</text>
</g>
<!-- Node3 -->
<g id="node3" class="node">
<title>Node3</title>
<g id="a_node3"><a xlink:title=" ">
<polygon fill="none" stroke="black" points="229.6,-147.5 229.6,-166.5 285.6,-166.5 285.6,-147.5 229.6,-147.5"/>
<text text-anchor="middle" x="257.6" y="-154.5" font-family="Helvetica,sans-Serif" font-size="10.00">uint16_t</text>
</a>
</g>
</g>
<!-- Node3&#45;&gt;Node1 -->
<g id="edge2" class="edge">
<title>Node3&#45;&gt;Node1</title>
<path fill="none" stroke="#9a32cd" stroke-dasharray="5,2" d="M264.6,-137.61C265.42,-134.76 266.14,-131.83 266.6,-129 273.19,-88.38 262.77,-39.21 257.89,-19.64"/>
<polygon fill="#9a32cd" stroke="#9a32cd" points="261.24,-136.59 261.34,-147.18 267.87,-138.84 261.24,-136.59"/>
<text text-anchor="middle" x="283.6" y="-81" font-family="Helvetica,sans-Serif" font-size="10.00"> mtu</text>
<text text-anchor="middle" x="283.6" y="-70" font-family="Helvetica,sans-Serif" font-size="10.00">speed</text>
</g>
<!-- Node3&#45;&gt;Node5 -->
<g id="edge6" class="edge">
<title>Node3&#45;&gt;Node5</title>
<path fill="none" stroke="#9a32cd" stroke-dasharray="5,2" d="M219.65,-149.64C201.55,-145.53 180.09,-139.02 162.6,-129 150.32,-121.97 149.88,-116.71 139.6,-107 132.66,-100.44 124.76,-93.08 118.81,-87.55"/>
<polygon fill="#9a32cd" stroke="#9a32cd" points="219.08,-153.1 229.59,-151.74 220.53,-146.25 219.08,-153.1"/>
<text text-anchor="middle" x="214.6" y="-121" font-family="Helvetica,sans-Serif" font-size="10.00"> ethernet_protocol_id</text>
<text text-anchor="middle" x="214.6" y="-110" font-family="Helvetica,sans-Serif" font-size="10.00">num_addresses</text>
</g>
<!-- Node4 -->
<g id="node4" class="node">
<title>Node4</title>
<g id="a_node4"><a xlink:title=" ">
<polygon fill="none" stroke="black" points="230.6,-225.5 230.6,-244.5 280.6,-244.5 280.6,-225.5 230.6,-225.5"/>
<text text-anchor="middle" x="255.6" y="-232.5" font-family="Helvetica,sans-Serif" font-size="10.00">uint8_t</text>
</a>
</g>
</g>
<!-- Node4&#45;&gt;Node1 -->
<g id="edge3" class="edge">
<title>Node4&#45;&gt;Node1</title>
<path fill="none" stroke="#9a32cd" stroke-dasharray="5,2" d="M268.16,-217.12C277.13,-204.12 288.63,-185.33 294.6,-167 308.4,-124.6 317.85,-108.9 302.6,-67 295.39,-47.2 277.77,-29.53 266.27,-19.56"/>
<polygon fill="#9a32cd" stroke="#9a32cd" points="265.15,-215.3 262.19,-225.48 270.85,-219.38 265.15,-215.3"/>
<text text-anchor="middle" x="347.6" y="-121" font-family="Helvetica,sans-Serif" font-size="10.00"> flags</text>
<text text-anchor="middle" x="347.6" y="-110" font-family="Helvetica,sans-Serif" font-size="10.00">num_netprotos</text>
</g>
<!-- Node4&#45;&gt;Node6 -->
<g id="edge9" class="edge">
<title>Node4&#45;&gt;Node6</title>
<path fill="none" stroke="#9a32cd" stroke-dasharray="5,2" d="M234.52,-219.57C211.68,-203.93 175.99,-179.5 157.18,-166.62"/>
<polygon fill="#9a32cd" stroke="#9a32cd" points="232.63,-222.52 242.86,-225.28 236.59,-216.74 232.63,-222.52"/>
<text text-anchor="middle" x="229.1" y="-199" font-family="Helvetica,sans-Serif" font-size="10.00"> bytes</text>
<text text-anchor="middle" x="229.1" y="-188" font-family="Helvetica,sans-Serif" font-size="10.00">length</text>
</g>
<!-- Node5&#45;&gt;Node1 -->
<g id="edge4" class="edge">
<title>Node5&#45;&gt;Node1</title>
<path fill="none" stroke="#9a32cd" stroke-dasharray="5,2" d="M137.9,-64.21C166.95,-51.07 211.36,-31 236.5,-19.63"/>
<polygon fill="#9a32cd" stroke="#9a32cd" points="136.35,-61.06 128.68,-68.37 139.24,-67.44 136.35,-61.06"/>
<text text-anchor="middle" x="219.1" y="-41" font-family="Helvetica,sans-Serif" font-size="10.00"> netproto</text>
</g>
<!-- Node6&#45;&gt;Node5 -->
<g id="edge7" class="edge">
<title>Node6&#45;&gt;Node5</title>
<path fill="none" stroke="#9a32cd" stroke-dasharray="5,2" d="M100.88,-142.59C95.22,-139.05 90.16,-134.59 86.6,-129 81.34,-120.76 83.3,-116.21 86.6,-107 89.23,-99.66 94.7,-92.86 99.65,-87.8"/>
<polygon fill="#9a32cd" stroke="#9a32cd" points="99.66,-145.9 110.14,-147.43 102.9,-139.69 99.66,-145.9"/>
<text text-anchor="middle" x="113.1" y="-115.5" font-family="Helvetica,sans-Serif" font-size="10.00"> addresses</text>
</g>
</g>
</svg>
