<?xml version="1.0" encoding="UTF-8" standalone="no"?>
<!DOCTYPE svg PUBLIC "-//W3C//DTD SVG 1.1//EN"
 "http://www.w3.org/Graphics/SVG/1.1/DTD/svg11.dtd">
<!-- Generated by graphviz version 2.43.0 (0)
 -->
<!-- Title: flanterm_fb_context Pages: 1 -->
<svg width="748pt" height="1456pt"
 viewBox="0.00 0.00 748.00 1455.50" xmlns="http://www.w3.org/2000/svg" xmlns:xlink="http://www.w3.org/1999/xlink">
<g id="graph0" class="graph" transform="scale(1 1) rotate(0) translate(4 1451.5)">
<title>flanterm_fb_context</title>
<!-- Node1 -->
<g id="node1" class="node">
<title>Node1</title>
<g id="a_node1"><a xlink:title=" ">
<polygon fill="#bfbfbf" stroke="black" points="625,-1047 625,-1066 740,-1066 740,-1047 625,-1047"/>
<text text-anchor="middle" x="682.5" y="-1054" font-family="Helvetica,sans-Serif" font-size="10.00">flanterm_fb_context</text>
</a>
</g>
</g>
<!-- Node2 -->
<g id="node2" class="node">
<title>Node2</title>
<g id="a_node2"><a xlink:href="structflanterm__fb__char.html" target="_top" xlink:title=" ">
<polygon fill="none" stroke="black" points="136,-1243 136,-1262 235,-1262 235,-1243 136,-1243"/>
<text text-anchor="middle" x="185.5" y="-1250" font-family="Helvetica,sans-Serif" font-size="10.00">flanterm_fb_char</text>
</a>
</g>
</g>
<!-- Node2&#45;&gt;Node1 -->
<g id="edge1" class="edge">
<title>Node2&#45;&gt;Node1</title>
<path fill="none" stroke="#9a32cd" stroke-dasharray="5,2" d="M245.21,-1259.92C316.2,-1267.06 438.76,-1273.48 540,-1248.5 571.68,-1240.68 583.81,-1241.45 607,-1218.5 652.98,-1172.98 673.54,-1093.81 679.54,-1066.27"/>
<polygon fill="#9a32cd" stroke="#9a32cd" points="245.43,-1256.43 235.12,-1258.87 244.7,-1263.39 245.43,-1256.43"/>
<text text-anchor="middle" x="469.5" y="-1268.5" font-family="Helvetica,sans-Serif" font-size="10.00"> grid</text>
</g>
<!-- Node7 -->
<g id="node7" class="node">
<title>Node7</title>
<g id="a_node7"><a xlink:href="structflanterm__fb__queue__item.html" target="_top" xlink:title=" ">
<polygon fill="none" stroke="black" points="401.5,-1220 401.5,-1239 537.5,-1239 537.5,-1220 401.5,-1220"/>
<text text-anchor="middle" x="469.5" y="-1227" font-family="Helvetica,sans-Serif" font-size="10.00">flanterm_fb_queue_item</text>
</a>
</g>
</g>
<!-- Node2&#45;&gt;Node7 -->
<g id="edge8" class="edge">
<title>Node2&#45;&gt;Node7</title>
<path fill="none" stroke="#9a32cd" stroke-dasharray="5,2" d="M245.3,-1247.7C290.79,-1243.99 353.82,-1238.85 401.3,-1234.98"/>
<polygon fill="#9a32cd" stroke="#9a32cd" points="244.98,-1244.22 235.3,-1248.52 245.55,-1251.2 244.98,-1244.22"/>
<text text-anchor="middle" x="331" y="-1246.5" font-family="Helvetica,sans-Serif" font-size="10.00"> c</text>
</g>
<!-- Node3 -->
<g id="node3" class="node">
<title>Node3</title>
<g id="a_node3"><a xlink:title=" ">
<polygon fill="none" stroke="#bfbfbf" points="0,-1243 0,-1262 56,-1262 56,-1243 0,-1243"/>
<text text-anchor="middle" x="28" y="-1250" font-family="Helvetica,sans-Serif" font-size="10.00">uint32_t</text>
</a>
</g>
</g>
<!-- Node3&#45;&gt;Node1 -->
<g id="edge4" class="edge">
<title>Node3&#45;&gt;Node1</title>
<path fill="none" stroke="#9a32cd" stroke-dasharray="5,2" d="M44.24,-1269.56C52.24,-1277.23 62.72,-1285.46 74,-1289.5 80.69,-1291.9 82.89,-1289.57 90,-1289.5 290.03,-1287.5 346.51,-1331.25 540,-1280.5 572.7,-1271.92 584.52,-1269.75 607,-1244.5 656.5,-1188.91 675.11,-1096.46 680.04,-1066.33"/>
<polygon fill="#9a32cd" stroke="#9a32cd" points="46.6,-1266.97 37.12,-1262.25 41.59,-1271.85 46.6,-1266.97"/>
<text text-anchor="middle" x="331" y="-1439.5" font-family="Helvetica,sans-Serif" font-size="10.00"> ansi_bright_colours</text>
<text text-anchor="middle" x="331" y="-1428.5" font-family="Helvetica,sans-Serif" font-size="10.00">ansi_colours</text>
<text text-anchor="middle" x="331" y="-1417.5" font-family="Helvetica,sans-Serif" font-size="10.00">canvas</text>
<text text-anchor="middle" x="331" y="-1406.5" font-family="Helvetica,sans-Serif" font-size="10.00">default_bg</text>
<text text-anchor="middle" x="331" y="-1395.5" font-family="Helvetica,sans-Serif" font-size="10.00">default_bg_bright</text>
<text text-anchor="middle" x="331" y="-1384.5" font-family="Helvetica,sans-Serif" font-size="10.00">default_fg</text>
<text text-anchor="middle" x="331" y="-1373.5" font-family="Helvetica,sans-Serif" font-size="10.00">default_fg_bright</text>
<text text-anchor="middle" x="331" y="-1362.5" font-family="Helvetica,sans-Serif" font-size="10.00">framebuffer</text>
<text text-anchor="start" x="282" y="-1351.5" font-family="Helvetica,sans-Serif" font-size="10.00">saved_state_text</text>
<text text-anchor="middle" x="331" y="-1340.5" font-family="Helvetica,sans-Serif" font-size="10.00">_bg</text>
<text text-anchor="start" x="282" y="-1329.5" font-family="Helvetica,sans-Serif" font-size="10.00">saved_state_text</text>
<text text-anchor="middle" x="331" y="-1318.5" font-family="Helvetica,sans-Serif" font-size="10.00">_fg</text>
<text text-anchor="middle" x="331" y="-1307.5" font-family="Helvetica,sans-Serif" font-size="10.00">...</text>
</g>
<!-- Node3&#45;&gt;Node2 -->
<g id="edge2" class="edge">
<title>Node3&#45;&gt;Node2</title>
<path fill="none" stroke="#9a32cd" stroke-dasharray="5,2" d="M66.15,-1252.5C87,-1252.5 113.26,-1252.5 135.75,-1252.5"/>
<polygon fill="#9a32cd" stroke="#9a32cd" points="66.09,-1249 56.09,-1252.5 66.09,-1256 66.09,-1249"/>
<text text-anchor="middle" x="82" y="-1277.5" font-family="Helvetica,sans-Serif" font-size="10.00"> bg</text>
<text text-anchor="middle" x="82" y="-1266.5" font-family="Helvetica,sans-Serif" font-size="10.00">c</text>
<text text-anchor="middle" x="82" y="-1255.5" font-family="Helvetica,sans-Serif" font-size="10.00">fg</text>
</g>
<!-- Node9 -->
<g id="node9" class="node">
<title>Node9</title>
<g id="a_node9"><a xlink:href="structflanterm__context.html" target="_top" xlink:title=" ">
<polygon fill="none" stroke="black" points="419.5,-477 419.5,-496 519.5,-496 519.5,-477 419.5,-477"/>
<text text-anchor="middle" x="469.5" y="-484" font-family="Helvetica,sans-Serif" font-size="10.00">flanterm_context</text>
</a>
</g>
</g>
<!-- Node3&#45;&gt;Node9 -->
<g id="edge20" class="edge">
<title>Node3&#45;&gt;Node9</title>
<path fill="none" stroke="#9a32cd" stroke-dasharray="5,2" d="M29.14,-1232.69C30.24,-1104.66 39.42,-397.43 108,-334.5 152.73,-293.45 329.29,-312.69 381,-344.5 432.3,-376.06 458,-450.08 465.84,-476.72"/>
<polygon fill="#9a32cd" stroke="#9a32cd" points="25.64,-1232.92 29.06,-1242.95 32.64,-1232.98 25.64,-1232.92"/>
<text text-anchor="middle" x="185.5" y="-337.5" font-family="Helvetica,sans-Serif" font-size="10.00"> esc_values</text>
</g>
<!-- Node4 -->
<g id="node4" class="node">
<title>Node4</title>
<g id="a_node4"><a xlink:title=" ">
<polygon fill="none" stroke="#bfbfbf" points="163,-1116 163,-1135 208,-1135 208,-1116 163,-1116"/>
<text text-anchor="middle" x="185.5" y="-1123" font-family="Helvetica,sans-Serif" font-size="10.00">size_t</text>
</a>
</g>
</g>
<!-- Node4&#45;&gt;Node1 -->
<g id="edge3" class="edge">
<title>Node4&#45;&gt;Node1</title>
<path fill="none" stroke="#9a32cd" stroke-dasharray="5,2" d="M218.16,-1130.54C258.43,-1135.38 329,-1138.47 381,-1111.5 392.21,-1105.68 387.92,-1095.56 399,-1089.5 469.72,-1050.81 565.12,-1048.04 624.97,-1051.12"/>
<polygon fill="#9a32cd" stroke="#9a32cd" points="218.49,-1127.05 208.12,-1129.22 217.58,-1133.99 218.49,-1127.05"/>
<text text-anchor="middle" x="469.5" y="-1202.5" font-family="Helvetica,sans-Serif" font-size="10.00"> bpp</text>
<text text-anchor="middle" x="469.5" y="-1191.5" font-family="Helvetica,sans-Serif" font-size="10.00">canvas_size</text>
<text text-anchor="middle" x="469.5" y="-1180.5" font-family="Helvetica,sans-Serif" font-size="10.00">cursor_x</text>
<text text-anchor="middle" x="469.5" y="-1169.5" font-family="Helvetica,sans-Serif" font-size="10.00">cursor_y</text>
<text text-anchor="middle" x="469.5" y="-1158.5" font-family="Helvetica,sans-Serif" font-size="10.00">font_bits_size</text>
<text text-anchor="middle" x="469.5" y="-1147.5" font-family="Helvetica,sans-Serif" font-size="10.00">font_bool_size</text>
<text text-anchor="middle" x="469.5" y="-1136.5" font-family="Helvetica,sans-Serif" font-size="10.00">font_height</text>
<text text-anchor="middle" x="469.5" y="-1125.5" font-family="Helvetica,sans-Serif" font-size="10.00">font_scale_x</text>
<text text-anchor="middle" x="469.5" y="-1114.5" font-family="Helvetica,sans-Serif" font-size="10.00">font_scale_y</text>
<text text-anchor="middle" x="469.5" y="-1103.5" font-family="Helvetica,sans-Serif" font-size="10.00">font_width</text>
<text text-anchor="middle" x="469.5" y="-1092.5" font-family="Helvetica,sans-Serif" font-size="10.00">...</text>
</g>
<!-- Node4&#45;&gt;Node7 -->
<g id="edge9" class="edge">
<title>Node4&#45;&gt;Node7</title>
<path fill="none" stroke="#9a32cd" stroke-dasharray="5,2" d="M217.65,-1137.53C258.98,-1153.43 334.26,-1182.14 399,-1205.5 412.57,-1210.4 427.7,-1215.65 440.37,-1219.98"/>
<polygon fill="#9a32cd" stroke="#9a32cd" points="218.74,-1134.2 208.15,-1133.87 216.22,-1140.73 218.74,-1134.2"/>
<text text-anchor="middle" x="331" y="-1210.5" font-family="Helvetica,sans-Serif" font-size="10.00"> x</text>
<text text-anchor="middle" x="331" y="-1199.5" font-family="Helvetica,sans-Serif" font-size="10.00">y</text>
</g>
<!-- Node4&#45;&gt;Node9 -->
<g id="edge19" class="edge">
<title>Node4&#45;&gt;Node9</title>
<path fill="none" stroke="#9a32cd" stroke-dasharray="5,2" d="M194.42,-1106.48C208,-1075.94 238.43,-1015.75 281,-979.5 317.97,-948.02 351.34,-973.94 381,-935.5 412.06,-895.24 389.85,-872.52 399,-822.5 422.75,-692.71 457.43,-535.98 466.35,-496.09"/>
<polygon fill="#9a32cd" stroke="#9a32cd" points="191.08,-1105.39 190.33,-1115.95 197.51,-1108.16 191.08,-1105.39"/>
<text text-anchor="middle" x="331" y="-1103.5" font-family="Helvetica,sans-Serif" font-size="10.00"> cols</text>
<text text-anchor="middle" x="331" y="-1092.5" font-family="Helvetica,sans-Serif" font-size="10.00">current_bg</text>
<text text-anchor="middle" x="331" y="-1081.5" font-family="Helvetica,sans-Serif" font-size="10.00">current_charset</text>
<text text-anchor="middle" x="331" y="-1070.5" font-family="Helvetica,sans-Serif" font-size="10.00">current_primary</text>
<text text-anchor="middle" x="331" y="-1059.5" font-family="Helvetica,sans-Serif" font-size="10.00">esc_values_i</text>
<text text-anchor="middle" x="331" y="-1048.5" font-family="Helvetica,sans-Serif" font-size="10.00">escape_offset</text>
<text text-anchor="middle" x="331" y="-1037.5" font-family="Helvetica,sans-Serif" font-size="10.00">rows</text>
<text text-anchor="middle" x="331" y="-1026.5" font-family="Helvetica,sans-Serif" font-size="10.00">saved_cursor_x</text>
<text text-anchor="middle" x="331" y="-1015.5" font-family="Helvetica,sans-Serif" font-size="10.00">saved_cursor_y</text>
<text text-anchor="start" x="281" y="-1004.5" font-family="Helvetica,sans-Serif" font-size="10.00">saved_state_current</text>
<text text-anchor="middle" x="331" y="-993.5" font-family="Helvetica,sans-Serif" font-size="10.00">_bg</text>
<text text-anchor="middle" x="331" y="-982.5" font-family="Helvetica,sans-Serif" font-size="10.00">...</text>
</g>
<!-- Node5 -->
<g id="node5" class="node">
<title>Node5</title>
<g id="a_node5"><a xlink:title=" ">
<polygon fill="none" stroke="#bfbfbf" points="166.5,-907 166.5,-926 204.5,-926 204.5,-907 166.5,-907"/>
<text text-anchor="middle" x="185.5" y="-914" font-family="Helvetica,sans-Serif" font-size="10.00">bool</text>
</a>
</g>
</g>
<!-- Node5&#45;&gt;Node1 -->
<g id="edge5" class="edge">
<title>Node5&#45;&gt;Node1</title>
<path fill="none" stroke="#9a32cd" stroke-dasharray="5,2" d="M214.61,-921.25C265.36,-930.05 368.23,-948.92 381,-959.5 396.64,-972.45 383.2,-988.74 399,-1001.5 416.4,-1015.54 547.58,-1036.84 624.92,-1048.38"/>
<polygon fill="#9a32cd" stroke="#9a32cd" points="215.07,-917.78 204.62,-919.54 213.89,-924.68 215.07,-917.78"/>
<text text-anchor="middle" x="469.5" y="-1036.5" font-family="Helvetica,sans-Serif" font-size="10.00"> font_bool</text>
</g>
<!-- Node5&#45;&gt;Node9 -->
<g id="edge24" class="edge">
<title>Node5&#45;&gt;Node9</title>
<path fill="none" stroke="#9a32cd" stroke-dasharray="5,2" d="M205.19,-899.95C221.47,-885.03 245.19,-862.04 263,-839.5 272.41,-827.6 269.71,-820.63 281,-810.5 317.69,-777.57 348.67,-799.72 381,-762.5 453.68,-678.82 466.07,-534.53 468.11,-496.12"/>
<polygon fill="#9a32cd" stroke="#9a32cd" points="202.49,-897.67 197.42,-906.97 207.19,-902.86 202.49,-897.67"/>
<text text-anchor="middle" x="331" y="-923.5" font-family="Helvetica,sans-Serif" font-size="10.00"> autoflush</text>
<text text-anchor="middle" x="331" y="-912.5" font-family="Helvetica,sans-Serif" font-size="10.00">bg_bold</text>
<text text-anchor="middle" x="331" y="-901.5" font-family="Helvetica,sans-Serif" font-size="10.00">bold</text>
<text text-anchor="middle" x="331" y="-890.5" font-family="Helvetica,sans-Serif" font-size="10.00">control_sequence</text>
<text text-anchor="middle" x="331" y="-879.5" font-family="Helvetica,sans-Serif" font-size="10.00">cursor_enabled</text>
<text text-anchor="middle" x="331" y="-868.5" font-family="Helvetica,sans-Serif" font-size="10.00">dec_private</text>
<text text-anchor="middle" x="331" y="-857.5" font-family="Helvetica,sans-Serif" font-size="10.00">discard_next</text>
<text text-anchor="middle" x="331" y="-846.5" font-family="Helvetica,sans-Serif" font-size="10.00">escape</text>
<text text-anchor="middle" x="331" y="-835.5" font-family="Helvetica,sans-Serif" font-size="10.00">insert_mode</text>
<text text-anchor="middle" x="331" y="-824.5" font-family="Helvetica,sans-Serif" font-size="10.00">osc</text>
<text text-anchor="middle" x="331" y="-813.5" font-family="Helvetica,sans-Serif" font-size="10.00">...</text>
</g>
<!-- Node6 -->
<g id="node6" class="node">
<title>Node6</title>
<g id="a_node6"><a xlink:title=" ">
<polygon fill="none" stroke="#bfbfbf" points="160.5,-811 160.5,-830 210.5,-830 210.5,-811 160.5,-811"/>
<text text-anchor="middle" x="185.5" y="-818" font-family="Helvetica,sans-Serif" font-size="10.00">uint8_t</text>
</a>
</g>
</g>
<!-- Node6&#45;&gt;Node1 -->
<g id="edge6" class="edge">
<title>Node6&#45;&gt;Node1</title>
<path fill="none" stroke="#9a32cd" stroke-dasharray="5,2" d="M199.62,-838.26C216.04,-858.9 246.26,-891.97 281,-906.5 387.35,-950.98 434.27,-874.57 540,-920.5 605,-948.74 657.79,-1020.87 675.3,-1046.93"/>
<polygon fill="#9a32cd" stroke="#9a32cd" points="202.34,-836.05 193.46,-830.27 196.79,-840.32 202.34,-836.05"/>
<text text-anchor="middle" x="469.5" y="-989.5" font-family="Helvetica,sans-Serif" font-size="10.00"> blue_mask_shift</text>
<text text-anchor="middle" x="469.5" y="-978.5" font-family="Helvetica,sans-Serif" font-size="10.00">blue_mask_size</text>
<text text-anchor="middle" x="469.5" y="-967.5" font-family="Helvetica,sans-Serif" font-size="10.00">font_bits</text>
<text text-anchor="middle" x="469.5" y="-956.5" font-family="Helvetica,sans-Serif" font-size="10.00">green_mask_shift</text>
<text text-anchor="middle" x="469.5" y="-945.5" font-family="Helvetica,sans-Serif" font-size="10.00">green_mask_size</text>
<text text-anchor="middle" x="469.5" y="-934.5" font-family="Helvetica,sans-Serif" font-size="10.00">red_mask_shift</text>
<text text-anchor="middle" x="469.5" y="-923.5" font-family="Helvetica,sans-Serif" font-size="10.00">red_mask_size</text>
</g>
<!-- Node6&#45;&gt;Node9 -->
<g id="edge23" class="edge">
<title>Node6&#45;&gt;Node9</title>
<path fill="none" stroke="#9a32cd" stroke-dasharray="5,2" d="M215.98,-805.99C231.29,-797.45 249.54,-785.56 263,-771.5 274.02,-759.99 268.18,-749.96 281,-740.5 317.7,-713.43 346.64,-747.48 381,-717.5 451.45,-656.04 465.37,-531.74 467.95,-496.2"/>
<polygon fill="#9a32cd" stroke="#9a32cd" points="214.06,-803.06 206.9,-810.87 217.37,-809.22 214.06,-803.06"/>
<text text-anchor="middle" x="331" y="-754.5" font-family="Helvetica,sans-Serif" font-size="10.00"> charsets</text>
<text text-anchor="middle" x="331" y="-743.5" font-family="Helvetica,sans-Serif" font-size="10.00">g_select</text>
</g>
<!-- Node7&#45;&gt;Node1 -->
<g id="edge7" class="edge">
<title>Node7&#45;&gt;Node1</title>
<path fill="none" stroke="#9a32cd" stroke-dasharray="5,2" d="M518.32,-1216.4C525.87,-1213.38 533.36,-1209.77 540,-1205.5 602.4,-1165.34 656.81,-1092.08 675.02,-1066.02"/>
<polygon fill="#9a32cd" stroke="#9a32cd" points="516.98,-1213.17 508.8,-1219.91 519.4,-1219.74 516.98,-1213.17"/>
<text text-anchor="middle" x="582.5" y="-1206.5" font-family="Helvetica,sans-Serif" font-size="10.00"> map</text>
<text text-anchor="middle" x="582.5" y="-1195.5" font-family="Helvetica,sans-Serif" font-size="10.00">queue</text>
</g>
<!-- Node8 -->
<g id="node8" class="node">
<title>Node8</title>
<g id="a_node8"><a xlink:title=" ">
<polygon fill="none" stroke="#bfbfbf" points="399,-831.5 399,-883.5 540,-883.5 540,-831.5 399,-831.5"/>
<text text-anchor="start" x="407" y="-871.5" font-family="Helvetica,sans-Serif" font-size="10.00">void(*)(struct flanterm</text>
<text text-anchor="start" x="407" y="-860.5" font-family="Helvetica,sans-Serif" font-size="10.00">_context *ctx, struct</text>
<text text-anchor="start" x="407" y="-849.5" font-family="Helvetica,sans-Serif" font-size="10.00"> flanterm_fb_char *c, size</text>
<text text-anchor="middle" x="469.5" y="-838.5" font-family="Helvetica,sans-Serif" font-size="10.00">_t x, size_t y)</text>
</a>
</g>
</g>
<!-- Node8&#45;&gt;Node1 -->
<g id="edge10" class="edge">
<title>Node8&#45;&gt;Node1</title>
<path fill="none" stroke="#9a32cd" stroke-dasharray="5,2" d="M550.16,-867.49C570.42,-873.12 590.97,-881.88 607,-895.5 656.28,-937.39 674.84,-1018.89 679.92,-1046.83"/>
<polygon fill="#9a32cd" stroke="#9a32cd" points="550.81,-864.04 540.26,-864.97 549.09,-870.83 550.81,-864.04"/>
<text text-anchor="middle" x="582.5" y="-898.5" font-family="Helvetica,sans-Serif" font-size="10.00"> plot_char</text>
</g>
<!-- Node9&#45;&gt;Node1 -->
<g id="edge11" class="edge">
<title>Node9&#45;&gt;Node1</title>
<path fill="none" stroke="#9a32cd" stroke-dasharray="5,2" d="M477.6,-505.6C497.84,-560.08 557.58,-720.89 607,-854.5 634.36,-928.47 667.23,-1017.73 677.94,-1046.83"/>
<polygon fill="#9a32cd" stroke="#9a32cd" points="480.86,-504.32 474.09,-496.16 474.29,-506.76 480.86,-504.32"/>
<text text-anchor="middle" x="582.5" y="-857.5" font-family="Helvetica,sans-Serif" font-size="10.00"> term</text>
</g>
<!-- Node10 -->
<g id="node10" class="node">
<title>Node10</title>
<g id="a_node10"><a xlink:title=" ">
<polygon fill="none" stroke="#bfbfbf" points="122.5,-248 122.5,-289 248.5,-289 248.5,-248 122.5,-248"/>
<text text-anchor="start" x="130.5" y="-277" font-family="Helvetica,sans-Serif" font-size="10.00">void(*)(struct flanterm</text>
<text text-anchor="start" x="130.5" y="-266" font-family="Helvetica,sans-Serif" font-size="10.00">_context *, size_t *x,</text>
<text text-anchor="middle" x="185.5" y="-255" font-family="Helvetica,sans-Serif" font-size="10.00"> size_t *y)</text>
</a>
</g>
</g>
<!-- Node10&#45;&gt;Node9 -->
<g id="edge12" class="edge">
<title>Node10&#45;&gt;Node9</title>
<path fill="none" stroke="#9a32cd" stroke-dasharray="5,2" d="M258.95,-264.75C298.57,-266.28 346.46,-274.4 381,-300.5 441.93,-346.54 462.14,-445.58 467.13,-476.84"/>
<polygon fill="#9a32cd" stroke="#9a32cd" points="258.9,-261.24 248.81,-264.49 258.72,-268.24 258.9,-261.24"/>
<text text-anchor="middle" x="331" y="-303.5" font-family="Helvetica,sans-Serif" font-size="10.00"> get_cursor_pos</text>
</g>
<!-- Node11 -->
<g id="node11" class="node">
<title>Node11</title>
<g id="a_node11"><a xlink:title=" ">
<polygon fill="none" stroke="#bfbfbf" points="122.5,-198.5 122.5,-228.5 248.5,-228.5 248.5,-198.5 122.5,-198.5"/>
<text text-anchor="start" x="130.5" y="-216.5" font-family="Helvetica,sans-Serif" font-size="10.00">void(*)(struct flanterm</text>
<text text-anchor="middle" x="185.5" y="-205.5" font-family="Helvetica,sans-Serif" font-size="10.00">_context *, size_t fg)</text>
</a>
</g>
</g>
<!-- Node11&#45;&gt;Node9 -->
<g id="edge13" class="edge">
<title>Node11&#45;&gt;Node9</title>
<path fill="none" stroke="#9a32cd" stroke-dasharray="5,2" d="M258.68,-206.33C298.78,-206.23 347.25,-213.01 381,-240.5 458.15,-303.33 467.33,-439.27 468.38,-476.76"/>
<polygon fill="#9a32cd" stroke="#9a32cd" points="258.61,-202.83 248.67,-206.5 258.73,-209.83 258.61,-202.83"/>
<text text-anchor="middle" x="331" y="-254.5" font-family="Helvetica,sans-Serif" font-size="10.00"> set_text_fg</text>
<text text-anchor="middle" x="331" y="-243.5" font-family="Helvetica,sans-Serif" font-size="10.00">set_text_fg_bright</text>
</g>
<!-- Node12 -->
<g id="node12" class="node">
<title>Node12</title>
<g id="a_node12"><a xlink:title=" ">
<polygon fill="none" stroke="#bfbfbf" points="122.5,-138 122.5,-179 248.5,-179 248.5,-138 122.5,-138"/>
<text text-anchor="start" x="130.5" y="-167" font-family="Helvetica,sans-Serif" font-size="10.00">void(*)(struct flanterm</text>
<text text-anchor="start" x="130.5" y="-156" font-family="Helvetica,sans-Serif" font-size="10.00">_context *, size_t x,</text>
<text text-anchor="middle" x="185.5" y="-145" font-family="Helvetica,sans-Serif" font-size="10.00"> size_t y)</text>
</a>
</g>
</g>
<!-- Node12&#45;&gt;Node9 -->
<g id="edge14" class="edge">
<title>Node12&#45;&gt;Node9</title>
<path fill="none" stroke="#9a32cd" stroke-dasharray="5,2" d="M259.04,-153.62C299.49,-154.81 348.19,-163.3 381,-192.5 469.51,-271.28 470.26,-435.21 468.94,-476.76"/>
<polygon fill="#9a32cd" stroke="#9a32cd" points="258.99,-150.12 248.94,-153.46 258.89,-157.12 258.99,-150.12"/>
<text text-anchor="middle" x="331" y="-195.5" font-family="Helvetica,sans-Serif" font-size="10.00"> set_cursor_pos</text>
</g>
<!-- Node13 -->
<g id="node13" class="node">
<title>Node13</title>
<g id="a_node13"><a xlink:title=" ">
<polygon fill="none" stroke="#bfbfbf" points="121.5,-88.5 121.5,-118.5 249.5,-118.5 249.5,-88.5 121.5,-88.5"/>
<text text-anchor="start" x="129.5" y="-106.5" font-family="Helvetica,sans-Serif" font-size="10.00">void(*)(struct flanterm</text>
<text text-anchor="middle" x="185.5" y="-95.5" font-family="Helvetica,sans-Serif" font-size="10.00">_context *, bool move)</text>
</a>
</g>
</g>
<!-- Node13&#45;&gt;Node9 -->
<g id="edge15" class="edge">
<title>Node13&#45;&gt;Node9</title>
<path fill="none" stroke="#9a32cd" stroke-dasharray="5,2" d="M260.04,-99.39C300.59,-101.13 349.05,-110.41 381,-140.5 432.42,-188.93 461.65,-425.55 467.43,-476.73"/>
<polygon fill="#9a32cd" stroke="#9a32cd" points="260.01,-95.88 249.91,-99.1 259.81,-102.88 260.01,-95.88"/>
<text text-anchor="middle" x="331" y="-143.5" font-family="Helvetica,sans-Serif" font-size="10.00"> clear</text>
</g>
<!-- Node14 -->
<g id="node14" class="node">
<title>Node14</title>
<g id="a_node14"><a xlink:title=" ">
<polygon fill="none" stroke="#bfbfbf" points="157.5,-50 157.5,-69 213.5,-69 213.5,-50 157.5,-50"/>
<text text-anchor="middle" x="185.5" y="-57" font-family="Helvetica,sans-Serif" font-size="10.00">uint64_t</text>
</a>
</g>
</g>
<!-- Node14&#45;&gt;Node9 -->
<g id="edge16" class="edge">
<title>Node14&#45;&gt;Node9</title>
<path fill="none" stroke="#9a32cd" stroke-dasharray="5,2" d="M223.41,-50.74C266.67,-42.84 337.9,-37.58 381,-75.5 444.12,-131.04 464.51,-419.76 467.95,-476.73"/>
<polygon fill="#9a32cd" stroke="#9a32cd" points="222.71,-47.31 213.57,-52.67 224.06,-54.18 222.71,-47.31"/>
<text text-anchor="middle" x="331" y="-89.5" font-family="Helvetica,sans-Serif" font-size="10.00"> code_point</text>
<text text-anchor="middle" x="331" y="-78.5" font-family="Helvetica,sans-Serif" font-size="10.00">oob_output</text>
</g>
<!-- Node15 -->
<g id="node15" class="node">
<title>Node15</title>
<g id="a_node15"><a xlink:title=" ">
<polygon fill="none" stroke="#bfbfbf" points="120,-0.5 120,-30.5 251,-30.5 251,-0.5 120,-0.5"/>
<text text-anchor="start" x="128" y="-18.5" font-family="Helvetica,sans-Serif" font-size="10.00">void(*)(struct flanterm</text>
<text text-anchor="middle" x="185.5" y="-7.5" font-family="Helvetica,sans-Serif" font-size="10.00">_context *, uint32_t bg)</text>
</a>
</g>
</g>
<!-- Node15&#45;&gt;Node9 -->
<g id="edge17" class="edge">
<title>Node15&#45;&gt;Node9</title>
<path fill="none" stroke="#9a32cd" stroke-dasharray="5,2" d="M261.13,-1.21C301.34,2.03 349.1,-2 381,-30.5 450.74,-92.79 465.94,-416.69 468.18,-476.87"/>
<polygon fill="#9a32cd" stroke="#9a32cd" points="260.7,2.27 251.08,-2.17 261.37,-4.7 260.7,2.27"/>
<text text-anchor="middle" x="331" y="-33.5" font-family="Helvetica,sans-Serif" font-size="10.00"> set_text_bg_rgb</text>
</g>
<!-- Node16 -->
<g id="node16" class="node">
<title>Node16</title>
<g id="a_node16"><a xlink:title=" ">
<polygon fill="none" stroke="#bfbfbf" points="108,-721 108,-762 263,-762 263,-721 108,-721"/>
<text text-anchor="start" x="116" y="-750" font-family="Helvetica,sans-Serif" font-size="10.00">void(*)(struct flanterm</text>
<text text-anchor="start" x="116" y="-739" font-family="Helvetica,sans-Serif" font-size="10.00">_context *, uint64_t,</text>
<text text-anchor="middle" x="185.5" y="-728" font-family="Helvetica,sans-Serif" font-size="10.00"> uint64_t, uint64_t, uint64_t)</text>
</a>
</g>
</g>
<!-- Node16&#45;&gt;Node9 -->
<g id="edge18" class="edge">
<title>Node16&#45;&gt;Node9</title>
<path fill="none" stroke="#9a32cd" stroke-dasharray="5,2" d="M248.03,-717.41C258.93,-713.52 270.24,-709.72 281,-706.5 324.7,-693.44 345.81,-712.51 381,-683.5 443.08,-632.32 462.6,-528.15 467.26,-496.1"/>
<polygon fill="#9a32cd" stroke="#9a32cd" points="246.78,-714.14 238.58,-720.85 249.17,-720.72 246.78,-714.14"/>
<text text-anchor="middle" x="331" y="-709.5" font-family="Helvetica,sans-Serif" font-size="10.00"> callback</text>
</g>
<!-- Node17 -->
<g id="node17" class="node">
<title>Node17</title>
<g id="a_node17"><a xlink:title=" ">
<polygon fill="none" stroke="#bfbfbf" points="121,-671.5 121,-701.5 250,-701.5 250,-671.5 121,-671.5"/>
<text text-anchor="start" x="129" y="-689.5" font-family="Helvetica,sans-Serif" font-size="10.00">void(*)(struct flanterm</text>
<text text-anchor="middle" x="185.5" y="-678.5" font-family="Helvetica,sans-Serif" font-size="10.00">_context *, uint32_t fg)</text>
</a>
</g>
</g>
<!-- Node17&#45;&gt;Node9 -->
<g id="edge21" class="edge">
<title>Node17&#45;&gt;Node9</title>
<path fill="none" stroke="#9a32cd" stroke-dasharray="5,2" d="M260.23,-675.6C311,-667.56 371.05,-656.8 381,-649.5 435.64,-609.41 459.65,-524.67 466.4,-496.12"/>
<polygon fill="#9a32cd" stroke="#9a32cd" points="259.55,-672.16 250.22,-677.17 260.64,-679.08 259.55,-672.16"/>
<text text-anchor="middle" x="331" y="-675.5" font-family="Helvetica,sans-Serif" font-size="10.00"> set_text_fg_rgb</text>
</g>
<!-- Node18 -->
<g id="node18" class="node">
<title>Node18</title>
<g id="a_node18"><a xlink:title=" ">
<polygon fill="none" stroke="#bfbfbf" points="122.5,-622.5 122.5,-652.5 248.5,-652.5 248.5,-622.5 122.5,-622.5"/>
<text text-anchor="start" x="130.5" y="-640.5" font-family="Helvetica,sans-Serif" font-size="10.00">void(*)(struct flanterm</text>
<text text-anchor="middle" x="185.5" y="-629.5" font-family="Helvetica,sans-Serif" font-size="10.00">_context *, uint8_t c)</text>
</a>
</g>
</g>
<!-- Node18&#45;&gt;Node9 -->
<g id="edge22" class="edge">
<title>Node18&#45;&gt;Node9</title>
<path fill="none" stroke="#9a32cd" stroke-dasharray="5,2" d="M259.06,-637.48C297.73,-634.47 344.67,-625.82 381,-603.5 424.87,-576.55 454.19,-518.77 464.44,-496"/>
<polygon fill="#9a32cd" stroke="#9a32cd" points="258.65,-634 248.91,-638.15 259.12,-640.98 258.65,-634"/>
<text text-anchor="middle" x="331" y="-638.5" font-family="Helvetica,sans-Serif" font-size="10.00"> raw_putchar</text>
</g>
<!-- Node19 -->
<g id="node19" class="node">
<title>Node19</title>
<g id="a_node19"><a xlink:title=" ">
<polygon fill="none" stroke="#bfbfbf" points="122.5,-551.5 122.5,-603.5 248.5,-603.5 248.5,-551.5 122.5,-551.5"/>
<text text-anchor="start" x="130.5" y="-591.5" font-family="Helvetica,sans-Serif" font-size="10.00">void(*)(struct flanterm</text>
<text text-anchor="start" x="130.5" y="-580.5" font-family="Helvetica,sans-Serif" font-size="10.00">_context *, size_t new</text>
<text text-anchor="start" x="130.5" y="-569.5" font-family="Helvetica,sans-Serif" font-size="10.00">_x, size_t new_y, size</text>
<text text-anchor="middle" x="185.5" y="-558.5" font-family="Helvetica,sans-Serif" font-size="10.00">_t old_x, size_t old_y)</text>
</a>
</g>
</g>
<!-- Node19&#45;&gt;Node9 -->
<g id="edge25" class="edge">
<title>Node19&#45;&gt;Node9</title>
<path fill="none" stroke="#9a32cd" stroke-dasharray="5,2" d="M258.94,-587.48C296.73,-589.72 342.9,-587.65 381,-571.5 418.83,-555.47 449.57,-514.92 462.25,-496.22"/>
<polygon fill="#9a32cd" stroke="#9a32cd" points="258.74,-583.96 248.52,-586.75 258.25,-590.94 258.74,-583.96"/>
<text text-anchor="middle" x="331" y="-591.5" font-family="Helvetica,sans-Serif" font-size="10.00"> move_character</text>
</g>
<!-- Node20 -->
<g id="node20" class="node">
<title>Node20</title>
<g id="a_node20"><a xlink:title=" ">
<polygon fill="none" stroke="#bfbfbf" points="120,-491 120,-532 251,-532 251,-491 120,-491"/>
<text text-anchor="start" x="128" y="-520" font-family="Helvetica,sans-Serif" font-size="10.00">void(*)(struct flanterm</text>
<text text-anchor="start" x="128" y="-509" font-family="Helvetica,sans-Serif" font-size="10.00">_context *, void(*)(void</text>
<text text-anchor="middle" x="185.5" y="-498" font-family="Helvetica,sans-Serif" font-size="10.00"> *, size_t))</text>
</a>
</g>
</g>
<!-- Node20&#45;&gt;Node9 -->
<g id="edge26" class="edge">
<title>Node20&#45;&gt;Node9</title>
<path fill="none" stroke="#9a32cd" stroke-dasharray="5,2" d="M248.58,-535.63C265.07,-541.94 278.92,-547.12 281,-547.5 324.71,-555.54 338.6,-560.82 381,-547.5 413.33,-537.34 444.15,-510.54 459.1,-496.07"/>
<polygon fill="#9a32cd" stroke="#9a32cd" points="249.79,-532.34 239.2,-532.02 247.28,-538.88 249.79,-532.34"/>
<text text-anchor="middle" x="331" y="-559.5" font-family="Helvetica,sans-Serif" font-size="10.00"> deinit</text>
</g>
<!-- Node21 -->
<g id="node21" class="node">
<title>Node21</title>
<g id="a_node21"><a xlink:title=" ">
<polygon fill="none" stroke="#bfbfbf" points="122.5,-404.5 122.5,-434.5 248.5,-434.5 248.5,-404.5 122.5,-404.5"/>
<text text-anchor="start" x="130.5" y="-422.5" font-family="Helvetica,sans-Serif" font-size="10.00">void(*)(struct flanterm</text>
<text text-anchor="middle" x="185.5" y="-411.5" font-family="Helvetica,sans-Serif" font-size="10.00">_context *)</text>
</a>
</g>
</g>
<!-- Node21&#45;&gt;Node9 -->
<g id="edge27" class="edge">
<title>Node21&#45;&gt;Node9</title>
<path fill="none" stroke="#9a32cd" stroke-dasharray="5,2" d="M237.62,-401.7C278.01,-390.61 335.02,-381.69 381,-400.5 419.44,-416.23 450.09,-457.89 462.51,-476.86"/>
<polygon fill="#9a32cd" stroke="#9a32cd" points="236.63,-398.34 227.99,-404.47 238.57,-405.07 236.63,-398.34"/>
<text text-anchor="middle" x="331" y="-535.5" font-family="Helvetica,sans-Serif" font-size="10.00"> double_buffer_flush</text>
<text text-anchor="middle" x="331" y="-524.5" font-family="Helvetica,sans-Serif" font-size="10.00">full_refresh</text>
<text text-anchor="middle" x="331" y="-513.5" font-family="Helvetica,sans-Serif" font-size="10.00">restore_state</text>
<text text-anchor="middle" x="331" y="-502.5" font-family="Helvetica,sans-Serif" font-size="10.00">revscroll</text>
<text text-anchor="middle" x="331" y="-491.5" font-family="Helvetica,sans-Serif" font-size="10.00">save_state</text>
<text text-anchor="middle" x="331" y="-480.5" font-family="Helvetica,sans-Serif" font-size="10.00">scroll</text>
<text text-anchor="middle" x="331" y="-469.5" font-family="Helvetica,sans-Serif" font-size="10.00">set_text_bg_default</text>
<text text-anchor="start" x="281.5" y="-458.5" font-family="Helvetica,sans-Serif" font-size="10.00">set_text_bg_default</text>
<text text-anchor="middle" x="331" y="-447.5" font-family="Helvetica,sans-Serif" font-size="10.00">_bright</text>
<text text-anchor="middle" x="331" y="-436.5" font-family="Helvetica,sans-Serif" font-size="10.00">set_text_fg_default</text>
<text text-anchor="start" x="281.5" y="-425.5" font-family="Helvetica,sans-Serif" font-size="10.00">set_text_fg_default</text>
<text text-anchor="middle" x="331" y="-414.5" font-family="Helvetica,sans-Serif" font-size="10.00">_bright</text>
<text text-anchor="middle" x="331" y="-403.5" font-family="Helvetica,sans-Serif" font-size="10.00">...</text>
</g>
<!-- Node22 -->
<g id="node22" class="node">
<title>Node22</title>
<g id="a_node22"><a xlink:title=" ">
<polygon fill="none" stroke="#bfbfbf" points="122.5,-355.5 122.5,-385.5 248.5,-385.5 248.5,-355.5 122.5,-355.5"/>
<text text-anchor="start" x="130.5" y="-373.5" font-family="Helvetica,sans-Serif" font-size="10.00">void(*)(struct flanterm</text>
<text text-anchor="middle" x="185.5" y="-362.5" font-family="Helvetica,sans-Serif" font-size="10.00">_context *, size_t bg)</text>
</a>
</g>
</g>
<!-- Node22&#45;&gt;Node9 -->
<g id="edge28" class="edge">
<title>Node22&#45;&gt;Node9</title>
<path fill="none" stroke="#9a32cd" stroke-dasharray="5,2" d="M249.77,-353.57C289.58,-346.42 340.83,-343.87 381,-364.5 428.53,-388.9 456.05,-452.46 465.13,-476.81"/>
<polygon fill="#9a32cd" stroke="#9a32cd" points="249.07,-350.14 239.91,-355.48 250.39,-357.02 249.07,-350.14"/>
<text text-anchor="middle" x="331" y="-378.5" font-family="Helvetica,sans-Serif" font-size="10.00"> set_text_bg</text>
<text text-anchor="middle" x="331" y="-367.5" font-family="Helvetica,sans-Serif" font-size="10.00">set_text_bg_bright</text>
</g>
</g>
</svg>
