<?xml version="1.0" encoding="UTF-8" standalone="no"?>
<!DOCTYPE svg PUBLIC "-//W3C//DTD SVG 1.1//EN"
 "http://www.w3.org/Graphics/SVG/1.1/DTD/svg11.dtd">
<!-- Generated by graphviz version 2.43.0 (0)
 -->
<!-- Title: dns_header Pages: 1 -->
<svg width="141pt" height="139pt"
 viewBox="0.00 0.00 141.00 139.00" xmlns="http://www.w3.org/2000/svg" xmlns:xlink="http://www.w3.org/1999/xlink">
<g id="graph0" class="graph" transform="scale(1 1) rotate(0) translate(4 135)">
<title>dns_header</title>
<!-- Node1 -->
<g id="node1" class="node">
<title>Node1</title>
<g id="a_node1"><a xlink:title=" ">
<polygon fill="#bfbfbf" stroke="black" points="26.5,-0.5 26.5,-19.5 99.5,-19.5 99.5,-0.5 26.5,-0.5"/>
<text text-anchor="middle" x="63" y="-7.5" font-family="Helvetica,sans-Serif" font-size="10.00">dns_header</text>
</a>
</g>
</g>
<!-- Node2 -->
<g id="node2" class="node">
<title>Node2</title>
<g id="a_node2"><a xlink:title=" ">
<polygon fill="none" stroke="black" points="0,-111.5 0,-130.5 56,-130.5 56,-111.5 0,-111.5"/>
<text text-anchor="middle" x="28" y="-118.5" font-family="Helvetica,sans-Serif" font-size="10.00">uint16_t</text>
</a>
</g>
</g>
<!-- Node2&#45;&gt;Node1 -->
<g id="edge1" class="edge">
<title>Node2&#45;&gt;Node1</title>
<path fill="none" stroke="#9a32cd" stroke-dasharray="5,2" d="M25.62,-101.38C24.25,-84.09 24.38,-58.06 34,-38 37.51,-30.68 43.94,-24.37 49.86,-19.7"/>
<polygon fill="#9a32cd" stroke="#9a32cd" points="22.14,-101.75 26.65,-111.34 29.1,-101.03 22.14,-101.75"/>
<text text-anchor="middle" x="55.5" y="-85" font-family="Helvetica,sans-Serif" font-size="10.00"> ancount</text>
<text text-anchor="middle" x="55.5" y="-74" font-family="Helvetica,sans-Serif" font-size="10.00">arcount</text>
<text text-anchor="middle" x="55.5" y="-63" font-family="Helvetica,sans-Serif" font-size="10.00">id</text>
<text text-anchor="middle" x="55.5" y="-52" font-family="Helvetica,sans-Serif" font-size="10.00">nscount</text>
<text text-anchor="middle" x="55.5" y="-41" font-family="Helvetica,sans-Serif" font-size="10.00">qdcount</text>
</g>
<!-- Node3 -->
<g id="node3" class="node">
<title>Node3</title>
<g id="a_node3"><a xlink:title=" ">
<polygon fill="none" stroke="black" points="74,-111.5 74,-130.5 124,-130.5 124,-111.5 74,-111.5"/>
<text text-anchor="middle" x="99" y="-118.5" font-family="Helvetica,sans-Serif" font-size="10.00">uint8_t</text>
</a>
</g>
</g>
<!-- Node3&#45;&gt;Node1 -->
<g id="edge2" class="edge">
<title>Node3&#45;&gt;Node1</title>
<path fill="none" stroke="#9a32cd" stroke-dasharray="5,2" d="M95.13,-100.99C91.4,-84.12 85.15,-58.99 77,-38 74.55,-31.7 71.05,-24.95 68.17,-19.77"/>
<polygon fill="#9a32cd" stroke="#9a32cd" points="91.79,-102.13 97.29,-111.18 98.64,-100.68 91.79,-102.13"/>
<text text-anchor="middle" x="113" y="-74" font-family="Helvetica,sans-Serif" font-size="10.00"> flags1</text>
<text text-anchor="middle" x="113" y="-63" font-family="Helvetica,sans-Serif" font-size="10.00">flags2</text>
<text text-anchor="middle" x="113" y="-52" font-family="Helvetica,sans-Serif" font-size="10.00">payload</text>
</g>
</g>
</svg>
