<?xml version="1.0" encoding="UTF-8" standalone="no"?>
<!DOCTYPE svg PUBLIC "-//W3C//DTD SVG 1.1//EN"
 "http://www.w3.org/Graphics/SVG/1.1/DTD/svg11.dtd">
<!-- Generated by graphviz version 2.43.0 (0)
 -->
<!-- Title: ip_packet_frag Pages: 1 -->
<svg width="172pt" height="97pt"
 viewBox="0.00 0.00 172.00 97.00" xmlns="http://www.w3.org/2000/svg" xmlns:xlink="http://www.w3.org/1999/xlink">
<g id="graph0" class="graph" transform="scale(1 1) rotate(0) translate(4 93)">
<title>ip_packet_frag</title>
<!-- Node1 -->
<g id="node1" class="node">
<title>Node1</title>
<g id="a_node1"><a xlink:title=" ">
<polygon fill="#bfbfbf" stroke="black" points="33,-1.5 33,-20.5 121,-20.5 121,-1.5 33,-1.5"/>
<text text-anchor="middle" x="77" y="-8.5" font-family="Helvetica,sans-Serif" font-size="10.00">ip_packet_frag</text>
</a>
</g>
</g>
<!-- Node1&#45;&gt;Node1 -->
<g id="edge3" class="edge">
<title>Node1&#45;&gt;Node1</title>
<path fill="none" stroke="#9a32cd" stroke-dasharray="5,2" d="M131.26,-16.01C136.02,-14.95 139,-13.28 139,-11 139,-7.35 131.37,-5.26 121.02,-4.75"/>
<polygon fill="#9a32cd" stroke="#9a32cd" points="130.53,-12.57 121.02,-17.25 131.37,-19.52 130.53,-12.57"/>
<text text-anchor="middle" x="151.5" y="-14" font-family="Helvetica,sans-Serif" font-size="10.00"> next</text>
<text text-anchor="middle" x="151.5" y="-3" font-family="Helvetica,sans-Serif" font-size="10.00">prev</text>
</g>
<!-- Node2 -->
<g id="node2" class="node">
<title>Node2</title>
<g id="a_node2"><a xlink:title=" ">
<polygon fill="none" stroke="#bfbfbf" points="0,-69.5 0,-88.5 72,-88.5 72,-69.5 0,-69.5"/>
<text text-anchor="middle" x="36" y="-76.5" font-family="Helvetica,sans-Serif" font-size="10.00">ip_packet_t</text>
</a>
</g>
</g>
<!-- Node2&#45;&gt;Node1 -->
<g id="edge1" class="edge">
<title>Node2&#45;&gt;Node1</title>
<path fill="none" stroke="#9a32cd" stroke-dasharray="5,2" d="M46.83,-60.56C54.77,-47.78 65.22,-30.96 71.51,-20.84"/>
<polygon fill="#9a32cd" stroke="#9a32cd" points="43.66,-59.03 41.36,-69.37 49.61,-62.72 43.66,-59.03"/>
<text text-anchor="middle" x="77" y="-43" font-family="Helvetica,sans-Serif" font-size="10.00"> packet</text>
</g>
<!-- Node3 -->
<g id="node3" class="node">
<title>Node3</title>
<g id="a_node3"><a xlink:title=" ">
<polygon fill="none" stroke="#bfbfbf" points="90,-69.5 90,-88.5 146,-88.5 146,-69.5 90,-69.5"/>
<text text-anchor="middle" x="118" y="-76.5" font-family="Helvetica,sans-Serif" font-size="10.00">uint32_t</text>
</a>
</g>
</g>
<!-- Node3&#45;&gt;Node1 -->
<g id="edge2" class="edge">
<title>Node3&#45;&gt;Node1</title>
<path fill="none" stroke="#9a32cd" stroke-dasharray="5,2" d="M108.34,-60.72C104.59,-54.17 100.19,-46.68 96,-40 91.88,-33.43 86.95,-26.19 83.15,-20.72"/>
<polygon fill="#9a32cd" stroke="#9a32cd" points="105.31,-62.46 113.28,-69.45 111.4,-59.02 105.31,-62.46"/>
<text text-anchor="middle" x="117.5" y="-43" font-family="Helvetica,sans-Serif" font-size="10.00"> offset</text>
</g>
</g>
</svg>
