<?xml version="1.0" encoding="UTF-8" standalone="no"?>
<!DOCTYPE svg PUBLIC "-//W3C//DTD SVG 1.1//EN"
 "http://www.w3.org/Graphics/SVG/1.1/DTD/svg11.dtd">
<!-- Generated by graphviz version 2.43.0 (0)
 -->
<!-- Title: fs_handle_t Pages: 1 -->
<!--zoomable 254 -->
<svg id="main" version="1.1" xmlns="http://www.w3.org/2000/svg" xmlns:xlink="http://www.w3.org/1999/xlink" xml:space="preserve" onload="init(evt)">
<style type="text/css"><![CDATA[
.edge:hover path { stroke: red; }
.edge:hover polygon { stroke: red; fill: red; }
]]></style>
<script type="text/javascript"><![CDATA[
var edges = document.getElementsByTagName('g');
if (edges && edges.length) {
  for (var i=0;i<edges.length;i++) {
    if (edges[i].id.substr(0,4)=='edge') {
      edges[i].setAttribute('class','edge');
    }
  }
}
]]></script>
        <defs>
                <circle id="rim" cx="0" cy="0" r="7"/>
                <circle id="rim2" cx="0" cy="0" r="3.5"/>
                <g id="zoomPlus">
                        <use xlink:href="#rim" fill="#404040">
                                <set attributeName="fill" to="#808080" begin="zoomplus.mouseover" end="zoomplus.mouseout"/>
                        </use>
                        <path d="M-4,0h8M0,-4v8" fill="none" stroke="white" stroke-width="1.5" pointer-events="none"/>
                </g>
                <g id="zoomMin">
                        <use xlink:href="#rim" fill="#404040">
                                <set attributeName="fill" to="#808080" begin="zoomminus.mouseover" end="zoomminus.mouseout"/>
                        </use>
                        <path d="M-4,0h8" fill="none" stroke="white" stroke-width="1.5" pointer-events="none"/>
                </g>
                <g id="dirArrow">
                        <path fill="none" stroke="white" stroke-width="1.5" d="M0,-3.0v7 M-2.5,-0.5L0,-3.0L2.5,-0.5"/>
                </g>
               <g id="resetDef">
                       <use xlink:href="#rim2" fill="#404040">
                               <set attributeName="fill" to="#808080" begin="reset.mouseover" end="reset.mouseout"/>
                       </use>
               </g>
        </defs>

<script type="text/javascript">
var viewWidth = 967;
var viewHeight = 254;
var sectionId = 'dynsection-0';
</script>
<script xlink:href="svgpan.js"/>
<svg id="graph" class="graph">
<g id="viewport">
<title>fs_handle_t</title>
<!-- Node1 -->
<g id="node1" class="node">
<title>Node1</title>
<g id="a_node1"><a xlink:title="The data for an open file descriptor.">
<polygon fill="#bfbfbf" stroke="black" points="734.5,-7 734.5,-26 807.5,-26 807.5,-7 734.5,-7"/>
<text text-anchor="middle" x="771" y="-14" font-family="Helvetica,sans-Serif" font-size="10.00">fs_handle_t</text>
</a>
</g>
</g>
<!-- Node2 -->
<g id="node2" class="node">
<title>Node2</title>
<g id="a_node2"><a xlink:href="structfs__directory__entry__t.html" target="_top" xlink:title="A VFS directory entry. Files AND directories have these, but internally there is also a tree of fs_tr...">
<polygon fill="none" stroke="black" points="73,-98 73,-117 187,-117 187,-98 73,-98"/>
<text text-anchor="middle" x="130" y="-105" font-family="Helvetica,sans-Serif" font-size="10.00">fs_directory_entry_t</text>
</a>
</g>
</g>
<!-- Node2&#45;&gt;Node1 -->
<g id="edge1" class="edge">
<title>Node2&#45;&gt;Node1</title>
<path fill="none" stroke="#9a32cd" stroke-dasharray="5,2" d="M156.23,-93.53C184.35,-80.29 230.68,-60.41 273,-51 360.97,-31.45 634.75,-21.55 734.32,-18.53"/>
<polygon fill="#9a32cd" stroke="#9a32cd" points="154.59,-90.43 147.08,-97.9 157.61,-96.75 154.59,-90.43"/>
<text text-anchor="middle" x="282.5" y="-54" font-family="Helvetica,sans-Serif" font-size="10.00"> file</text>
</g>
<!-- Node2&#45;&gt;Node2 -->
<g id="edge2" class="edge">
<title>Node2&#45;&gt;Node2</title>
<path fill="none" stroke="#9a32cd" stroke-dasharray="5,2" d="M197.08,-114.44C201.99,-112.88 205,-110.57 205,-107.5 205,-102.71 197.67,-99.76 187.23,-98.64"/>
<polygon fill="#9a32cd" stroke="#9a32cd" points="196.37,-111.01 187.23,-116.36 197.71,-117.89 196.37,-111.01"/>
<text text-anchor="middle" x="217.5" y="-105" font-family="Helvetica,sans-Serif" font-size="10.00"> next</text>
</g>
<!-- Node4 -->
<g id="node4" class="node">
<title>Node4</title>
<g id="a_node4"><a xlink:href="structfs__tree__t.html" target="_top" xlink:title="Used internally by filesystem.c to cache directories to RAM.">
<polygon fill="none" stroke="black" points="236.5,-7 236.5,-26 295.5,-26 295.5,-7 236.5,-7"/>
<text text-anchor="middle" x="266" y="-14" font-family="Helvetica,sans-Serif" font-size="10.00">fs_tree_t</text>
</a>
</g>
</g>
<!-- Node2&#45;&gt;Node4 -->
<g id="edge6" class="edge">
<title>Node2&#45;&gt;Node4</title>
<path fill="none" stroke="#9a32cd" stroke-dasharray="5,2" d="M122.84,-88.22C119.51,-76.4 117.85,-61.34 126,-51 139.47,-33.93 199.3,-24.59 236.26,-20.36"/>
<polygon fill="#9a32cd" stroke="#9a32cd" points="119.62,-89.6 126.15,-97.94 126.24,-87.35 119.62,-89.6"/>
<text text-anchor="middle" x="138" y="-54" font-family="Helvetica,sans-Serif" font-size="10.00"> files</text>
</g>
<!-- Node3 -->
<g id="node3" class="node">
<title>Node3</title>
<g id="a_node3"><a xlink:title=" ">
<polygon fill="none" stroke="#bfbfbf" points="254,-226.5 254,-245.5 310,-245.5 310,-226.5 254,-226.5"/>
<text text-anchor="middle" x="282" y="-233.5" font-family="Helvetica,sans-Serif" font-size="10.00">uint64_t</text>
</a>
</g>
</g>
<!-- Node3&#45;&gt;Node1 -->
<g id="edge21" class="edge">
<title>Node3&#45;&gt;Node1</title>
<path fill="none" stroke="#9a32cd" stroke-dasharray="5,2" d="M290.15,-216.98C299.15,-198.8 315.16,-170.93 336,-153 350.47,-140.55 361.36,-148.35 375,-135 404.69,-105.94 381.84,-74.64 416,-51 441.77,-33.16 648.9,-22.58 734.34,-18.94"/>
<polygon fill="#9a32cd" stroke="#9a32cd" points="286.91,-215.65 285.79,-226.19 293.23,-218.65 286.91,-215.65"/>
<text text-anchor="middle" x="422" y="-127" font-family="Helvetica,sans-Serif" font-size="10.00"> inbufpos</text>
<text text-anchor="middle" x="422" y="-116" font-family="Helvetica,sans-Serif" font-size="10.00">inbufsize</text>
<text text-anchor="middle" x="422" y="-105" font-family="Helvetica,sans-Serif" font-size="10.00">outbufpos</text>
<text text-anchor="middle" x="422" y="-94" font-family="Helvetica,sans-Serif" font-size="10.00">outbufsize</text>
<text text-anchor="middle" x="422" y="-83" font-family="Helvetica,sans-Serif" font-size="10.00">seekpos</text>
</g>
<!-- Node3&#45;&gt;Node2 -->
<g id="edge3" class="edge">
<title>Node3&#45;&gt;Node2</title>
<path fill="none" stroke="#9a32cd" stroke-dasharray="5,2" d="M244.25,-225.38C234.1,-221.35 223.79,-215.73 216,-208 197.19,-189.34 209.58,-173.67 193,-153 180.43,-137.33 160.96,-124.75 147,-117.01"/>
<polygon fill="#9a32cd" stroke="#9a32cd" points="243.26,-228.74 253.85,-228.79 245.6,-222.15 243.26,-228.74"/>
<text text-anchor="middle" x="234" y="-183.5" font-family="Helvetica,sans-Serif" font-size="10.00"> lbapos</text>
<text text-anchor="middle" x="234" y="-172.5" font-family="Helvetica,sans-Serif" font-size="10.00">size</text>
</g>
<!-- Node3&#45;&gt;Node4 -->
<g id="edge5" class="edge">
<title>Node3&#45;&gt;Node4</title>
<path fill="none" stroke="#9a32cd" stroke-dasharray="5,2" d="M280.63,-216.39C277.33,-171.47 269.01,-58.44 266.64,-26.2"/>
<polygon fill="#9a32cd" stroke="#9a32cd" points="277.15,-216.76 281.37,-226.47 284.13,-216.24 277.15,-216.76"/>
<text text-anchor="middle" x="293" y="-116" font-family="Helvetica,sans-Serif" font-size="10.00"> device</text>
<text text-anchor="middle" x="293" y="-105" font-family="Helvetica,sans-Serif" font-size="10.00">lbapos</text>
<text text-anchor="middle" x="293" y="-94" font-family="Helvetica,sans-Serif" font-size="10.00">size</text>
</g>
<!-- Node5 -->
<g id="node5" class="node">
<title>Node5</title>
<g id="a_node5"><a xlink:href="structfilesystem__t.html" target="_top" xlink:title="Defines a filesystem driver.">
<polygon fill="none" stroke="black" points="472.5,-98 472.5,-117 549.5,-117 549.5,-98 472.5,-98"/>
<text text-anchor="middle" x="511" y="-105" font-family="Helvetica,sans-Serif" font-size="10.00">filesystem_t</text>
</a>
</g>
</g>
<!-- Node3&#45;&gt;Node5 -->
<g id="edge9" class="edge">
<title>Node3&#45;&gt;Node5</title>
<path fill="none" stroke="#9a32cd" stroke-dasharray="5,2" d="M313.83,-221.75C320.66,-217.97 327.47,-213.38 333,-208 353.1,-188.42 341.22,-169.38 364,-153 398.54,-128.17 417.71,-148.64 458,-135 471.64,-130.38 486.21,-122.89 496.62,-117.05"/>
<polygon fill="#9a32cd" stroke="#9a32cd" points="311.97,-218.77 304.63,-226.41 315.13,-225.02 311.97,-218.77"/>
<text text-anchor="middle" x="387.5" y="-194.5" font-family="Helvetica,sans-Serif" font-size="10.00"> createdir</text>
<text text-anchor="middle" x="387.5" y="-183.5" font-family="Helvetica,sans-Serif" font-size="10.00">createfile</text>
<text text-anchor="middle" x="387.5" y="-172.5" font-family="Helvetica,sans-Serif" font-size="10.00">readfile</text>
<text text-anchor="middle" x="387.5" y="-161.5" font-family="Helvetica,sans-Serif" font-size="10.00">writefile</text>
</g>
<!-- Node4&#45;&gt;Node2 -->
<g id="edge4" class="edge">
<title>Node4&#45;&gt;Node2</title>
<path fill="none" stroke="#9a32cd" stroke-dasharray="5,2" d="M226.21,-23.51C205.62,-28.23 181.09,-36.54 163,-51 147.41,-63.46 137.55,-85.42 132.98,-97.65"/>
<polygon fill="#9a32cd" stroke="#9a32cd" points="227.18,-26.89 236.25,-21.42 225.75,-20.04 227.18,-26.89"/>
<text text-anchor="middle" x="186.5" y="-54" font-family="Helvetica,sans-Serif" font-size="10.00"> directory</text>
</g>
<!-- Node4&#45;&gt;Node4 -->
<g id="edge7" class="edge">
<title>Node4&#45;&gt;Node4</title>
<path fill="none" stroke="#9a32cd" stroke-dasharray="5,2" d="M305.67,-22.95C310.41,-21.77 313.5,-19.62 313.5,-16.5 313.5,-11.5 305.58,-9 295.69,-9"/>
<polygon fill="#9a32cd" stroke="#9a32cd" points="305.26,-19.47 295.69,-24 306,-26.43 305.26,-19.47"/>
<text text-anchor="middle" x="338.5" y="-25" font-family="Helvetica,sans-Serif" font-size="10.00"> child_dirs</text>
<text text-anchor="middle" x="338.5" y="-14" font-family="Helvetica,sans-Serif" font-size="10.00">next</text>
<text text-anchor="middle" x="338.5" y="-3" font-family="Helvetica,sans-Serif" font-size="10.00">parent</text>
</g>
<!-- Node5&#45;&gt;Node4 -->
<g id="edge8" class="edge">
<title>Node5&#45;&gt;Node4</title>
<path fill="none" stroke="#9a32cd" stroke-dasharray="5,2" d="M486.51,-93.3C477.66,-88.79 467.51,-83.9 458,-80 401.89,-56.99 333.93,-36.54 295.77,-25.69"/>
<polygon fill="#9a32cd" stroke="#9a32cd" points="485.03,-96.48 495.51,-97.99 488.26,-90.27 485.03,-96.48"/>
<text text-anchor="middle" x="454" y="-54" font-family="Helvetica,sans-Serif" font-size="10.00"> responsible_driver</text>
</g>
<!-- Node5&#45;&gt;Node5 -->
<g id="edge11" class="edge">
<title>Node5&#45;&gt;Node5</title>
<path fill="none" stroke="#9a32cd" stroke-dasharray="5,2" d="M559.72,-115.11C564.48,-113.58 567.5,-111.04 567.5,-107.5 567.5,-101.84 559.77,-98.74 549.56,-98.21"/>
<polygon fill="#9a32cd" stroke="#9a32cd" points="558.85,-111.71 549.56,-116.79 559.99,-118.61 558.85,-111.71"/>
<text text-anchor="middle" x="580" y="-105" font-family="Helvetica,sans-Serif" font-size="10.00"> next</text>
</g>
<!-- Node6 -->
<g id="node6" class="node">
<title>Node6</title>
<g id="a_node6"><a xlink:title=" ">
<polygon fill="none" stroke="#bfbfbf" points="360.5,-226.5 360.5,-245.5 455.5,-245.5 455.5,-226.5 360.5,-226.5"/>
<text text-anchor="middle" x="408" y="-233.5" font-family="Helvetica,sans-Serif" font-size="10.00">void *(*)(void *)</text>
</a>
</g>
</g>
<!-- Node6&#45;&gt;Node5 -->
<g id="edge10" class="edge">
<title>Node6&#45;&gt;Node5</title>
<path fill="none" stroke="#9a32cd" stroke-dasharray="5,2" d="M411.9,-216.68C416.45,-198.85 425.4,-171.76 441,-153 454.44,-136.83 475.32,-124.63 490.78,-117.13"/>
<polygon fill="#9a32cd" stroke="#9a32cd" points="408.49,-215.9 409.62,-226.44 415.31,-217.5 408.49,-215.9"/>
<text text-anchor="middle" x="457" y="-178" font-family="Helvetica,sans-Serif" font-size="10.00"> getdir</text>
</g>
<!-- Node7 -->
<g id="node7" class="node">
<title>Node7</title>
<g id="a_node7"><a xlink:title=" ">
<polygon fill="none" stroke="#bfbfbf" points="657,-226.5 657,-245.5 695,-245.5 695,-226.5 657,-226.5"/>
<text text-anchor="middle" x="676" y="-233.5" font-family="Helvetica,sans-Serif" font-size="10.00">char</text>
</a>
</g>
</g>
<!-- Node7&#45;&gt;Node1 -->
<g id="edge22" class="edge">
<title>Node7&#45;&gt;Node1</title>
<path fill="none" stroke="#9a32cd" stroke-dasharray="5,2" d="M705.16,-232.88C758.08,-227.27 868.87,-207.08 917,-135 930.57,-114.67 930.36,-100.47 917,-80 893.03,-43.29 842.52,-28.07 807.68,-21.81"/>
<polygon fill="#9a32cd" stroke="#9a32cd" points="704.71,-229.4 695.09,-233.84 705.38,-236.37 704.71,-229.4"/>
<text text-anchor="middle" x="943" y="-110.5" font-family="Helvetica,sans-Serif" font-size="10.00"> inbuf</text>
<text text-anchor="middle" x="943" y="-99.5" font-family="Helvetica,sans-Serif" font-size="10.00">outbuf</text>
</g>
<!-- Node7&#45;&gt;Node2 -->
<g id="edge18" class="edge">
<title>Node7&#45;&gt;Node2</title>
<path fill="none" stroke="#9a32cd" stroke-dasharray="5,2" d="M646.8,-235.79C620.7,-234.93 582.98,-229.56 559,-208 539.77,-190.71 560.6,-168.64 540,-153 513.76,-133.07 276.61,-139.75 244,-135 215.45,-130.84 183.5,-123.14 160.7,-117.11"/>
<polygon fill="#9a32cd" stroke="#9a32cd" points="646.81,-239.29 656.86,-235.93 646.9,-232.29 646.81,-239.29"/>
<text text-anchor="middle" x="592" y="-189" font-family="Helvetica,sans-Serif" font-size="10.00"> alt_filename</text>
<text text-anchor="middle" x="592" y="-178" font-family="Helvetica,sans-Serif" font-size="10.00">device_name</text>
<text text-anchor="middle" x="592" y="-167" font-family="Helvetica,sans-Serif" font-size="10.00">filename</text>
</g>
<!-- Node7&#45;&gt;Node4 -->
<g id="edge14" class="edge">
<title>Node7&#45;&gt;Node4</title>
<path fill="none" stroke="#9a32cd" stroke-dasharray="5,2" d="M684.44,-217C685.5,-214.05 686.42,-210.98 687,-208 691.7,-184.01 697.2,-175.21 687,-153 676.61,-130.37 623.85,-91.94 602,-80 499.94,-24.24 357.2,-17.23 295.9,-17"/>
<polygon fill="#9a32cd" stroke="#9a32cd" points="681.2,-215.69 680.57,-226.27 687.65,-218.39 681.2,-215.69"/>
<text text-anchor="middle" x="706.5" y="-110.5" font-family="Helvetica,sans-Serif" font-size="10.00"> device_name</text>
<text text-anchor="middle" x="706.5" y="-99.5" font-family="Helvetica,sans-Serif" font-size="10.00">name</text>
</g>
<!-- Node7&#45;&gt;Node5 -->
<g id="edge12" class="edge">
<title>Node7&#45;&gt;Node5</title>
<path fill="none" stroke="#9a32cd" stroke-dasharray="5,2" d="M659.83,-218.52C657.01,-215.19 654.26,-211.6 652,-208 637.9,-185.57 648.06,-171.4 629,-153 607.34,-132.09 574.9,-120.81 549.52,-114.84"/>
<polygon fill="#9a32cd" stroke="#9a32cd" points="657.42,-221.07 666.74,-226.12 662.6,-216.36 657.42,-221.07"/>
<text text-anchor="middle" x="669.5" y="-194.5" font-family="Helvetica,sans-Serif" font-size="10.00"> mount</text>
<text text-anchor="middle" x="669.5" y="-183.5" font-family="Helvetica,sans-Serif" font-size="10.00">name</text>
<text text-anchor="middle" x="669.5" y="-172.5" font-family="Helvetica,sans-Serif" font-size="10.00">rm</text>
<text text-anchor="middle" x="669.5" y="-161.5" font-family="Helvetica,sans-Serif" font-size="10.00">rmdir</text>
</g>
<!-- Node8 -->
<g id="node8" class="node">
<title>Node8</title>
<g id="a_node8"><a xlink:title=" ">
<polygon fill="none" stroke="#bfbfbf" points="473.5,-226.5 473.5,-245.5 518.5,-245.5 518.5,-226.5 473.5,-226.5"/>
<text text-anchor="middle" x="496" y="-233.5" font-family="Helvetica,sans-Serif" font-size="10.00">size_t</text>
</a>
</g>
</g>
<!-- Node8&#45;&gt;Node5 -->
<g id="edge13" class="edge">
<title>Node8&#45;&gt;Node5</title>
<path fill="none" stroke="#9a32cd" stroke-dasharray="5,2" d="M484.65,-217.53C483.14,-214.46 481.83,-211.22 481,-208 474.87,-184.34 473.86,-176.38 481,-153 485.25,-139.1 495.46,-125.62 502.79,-117.2"/>
<polygon fill="#9a32cd" stroke="#9a32cd" points="481.78,-219.55 489.79,-226.48 487.85,-216.07 481.78,-219.55"/>
<text text-anchor="middle" x="510.5" y="-178" font-family="Helvetica,sans-Serif" font-size="10.00"> truncatefile</text>
</g>
<!-- Node9 -->
<g id="node9" class="node">
<title>Node9</title>
<g id="a_node9"><a xlink:title=" ">
<polygon fill="none" stroke="#bfbfbf" points="0,-226.5 0,-245.5 50,-245.5 50,-226.5 0,-226.5"/>
<text text-anchor="middle" x="25" y="-233.5" font-family="Helvetica,sans-Serif" font-size="10.00">uint8_t</text>
</a>
</g>
</g>
<!-- Node9&#45;&gt;Node2 -->
<g id="edge20" class="edge">
<title>Node9&#45;&gt;Node2</title>
<path fill="none" stroke="#9a32cd" stroke-dasharray="5,2" d="M30.89,-216.54C37.22,-198.8 48.63,-171.96 65,-153 78.41,-137.47 98.42,-124.86 112.69,-117.08"/>
<polygon fill="#9a32cd" stroke="#9a32cd" points="27.49,-215.66 27.6,-226.25 34.12,-217.9 27.49,-215.66"/>
<text text-anchor="middle" x="81" y="-200" font-family="Helvetica,sans-Serif" font-size="10.00"> day</text>
<text text-anchor="middle" x="81" y="-189" font-family="Helvetica,sans-Serif" font-size="10.00">hour</text>
<text text-anchor="middle" x="81" y="-178" font-family="Helvetica,sans-Serif" font-size="10.00">min</text>
<text text-anchor="middle" x="81" y="-167" font-family="Helvetica,sans-Serif" font-size="10.00">month</text>
<text text-anchor="middle" x="81" y="-156" font-family="Helvetica,sans-Serif" font-size="10.00">sec</text>
</g>
<!-- Node9&#45;&gt;Node4 -->
<g id="edge15" class="edge">
<title>Node9&#45;&gt;Node4</title>
<path fill="none" stroke="#9a32cd" stroke-dasharray="5,2" d="M20.64,-216.04C14.52,-184.34 7.3,-120.1 38,-80 62.14,-48.47 180.05,-28.9 236.18,-21.22"/>
<polygon fill="#9a32cd" stroke="#9a32cd" points="17.28,-217.08 22.77,-226.15 24.13,-215.64 17.28,-217.08"/>
<text text-anchor="middle" x="51" y="-105" font-family="Helvetica,sans-Serif" font-size="10.00"> dirty</text>
</g>
<!-- Node10 -->
<g id="node10" class="node">
<title>Node10</title>
<g id="a_node10"><a xlink:title=" ">
<polygon fill="none" stroke="#bfbfbf" points="320,-98 320,-117 366,-117 366,-98 320,-98"/>
<text text-anchor="middle" x="343" y="-105" font-family="Helvetica,sans-Serif" font-size="10.00">void *</text>
</a>
</g>
</g>
<!-- Node10&#45;&gt;Node4 -->
<g id="edge16" class="edge">
<title>Node10&#45;&gt;Node4</title>
<path fill="none" stroke="#9a32cd" stroke-dasharray="5,2" d="M328.9,-90.2C312.57,-71.32 286.27,-40.93 273.47,-26.14"/>
<polygon fill="#9a32cd" stroke="#9a32cd" points="326.43,-92.69 335.62,-97.97 331.72,-88.11 326.43,-92.69"/>
<text text-anchor="middle" x="325" y="-54" font-family="Helvetica,sans-Serif" font-size="10.00"> opaque</text>
</g>
<!-- Node11 -->
<g id="node11" class="node">
<title>Node11</title>
<g id="a_node11"><a xlink:title=" ">
<polygon fill="none" stroke="#bfbfbf" points="72,-226.5 72,-245.5 128,-245.5 128,-226.5 72,-226.5"/>
<text text-anchor="middle" x="100" y="-233.5" font-family="Helvetica,sans-Serif" font-size="10.00">uint16_t</text>
</a>
</g>
</g>
<!-- Node11&#45;&gt;Node2 -->
<g id="edge17" class="edge">
<title>Node11&#45;&gt;Node2</title>
<path fill="none" stroke="#9a32cd" stroke-dasharray="5,2" d="M100.31,-216.02C101,-199.18 103.06,-174.05 109,-153 112.71,-139.85 119.99,-125.75 124.92,-117.03"/>
<polygon fill="#9a32cd" stroke="#9a32cd" points="96.81,-216.11 100.02,-226.2 103.8,-216.31 96.81,-216.11"/>
<text text-anchor="middle" x="121.5" y="-178" font-family="Helvetica,sans-Serif" font-size="10.00"> year</text>
</g>
<!-- Node12 -->
<g id="node12" class="node">
<title>Node12</title>
<g id="a_node12"><a xlink:title=" ">
<polygon fill="none" stroke="#bfbfbf" points="146,-226.5 146,-245.5 202,-245.5 202,-226.5 146,-226.5"/>
<text text-anchor="middle" x="174" y="-233.5" font-family="Helvetica,sans-Serif" font-size="10.00">uint32_t</text>
</a>
</g>
</g>
<!-- Node12&#45;&gt;Node2 -->
<g id="edge19" class="edge">
<title>Node12&#45;&gt;Node2</title>
<path fill="none" stroke="#9a32cd" stroke-dasharray="5,2" d="M162.06,-217.7C160.2,-214.56 158.42,-211.25 157,-208 142.91,-175.87 134.57,-134.62 131.43,-117.04"/>
<polygon fill="#9a32cd" stroke="#9a32cd" points="159.28,-219.85 167.64,-226.37 165.17,-216.07 159.28,-219.85"/>
<text text-anchor="middle" x="175" y="-183.5" font-family="Helvetica,sans-Serif" font-size="10.00"> device</text>
<text text-anchor="middle" x="175" y="-172.5" font-family="Helvetica,sans-Serif" font-size="10.00">flags</text>
</g>
<!-- Node13 -->
<g id="node13" class="node">
<title>Node13</title>
<g id="a_node13"><a xlink:title=" ">
<polygon fill="none" stroke="#bfbfbf" points="752,-98 752,-117 790,-117 790,-98 752,-98"/>
<text text-anchor="middle" x="771" y="-105" font-family="Helvetica,sans-Serif" font-size="10.00">bool</text>
</a>
</g>
</g>
<!-- Node13&#45;&gt;Node1 -->
<g id="edge23" class="edge">
<title>Node13&#45;&gt;Node1</title>
<path fill="none" stroke="#9a32cd" stroke-dasharray="5,2" d="M771,-87.85C771,-68.88 771,-40.33 771,-26.14"/>
<polygon fill="#9a32cd" stroke="#9a32cd" points="767.5,-87.97 771,-97.97 774.5,-87.97 767.5,-87.97"/>
<text text-anchor="middle" x="790" y="-54" font-family="Helvetica,sans-Serif" font-size="10.00"> cached</text>
</g>
<!-- Node14 -->
<g id="node14" class="node">
<title>Node14</title>
<g id="a_node14"><a xlink:title=" ">
<polygon fill="none" stroke="#bfbfbf" points="808,-98 808,-117 908,-117 908,-98 808,-98"/>
<text text-anchor="middle" x="858" y="-105" font-family="Helvetica,sans-Serif" font-size="10.00">fs_handle_type_t</text>
</a>
</g>
</g>
<!-- Node14&#45;&gt;Node1 -->
<g id="edge24" class="edge">
<title>Node14&#45;&gt;Node1</title>
<path fill="none" stroke="#9a32cd" stroke-dasharray="5,2" d="M845.75,-89.5C837.16,-78.09 825.09,-62.99 813,-51 803.73,-41.8 792.04,-32.65 783.35,-26.24"/>
<polygon fill="#9a32cd" stroke="#9a32cd" points="843.07,-91.77 851.82,-97.74 848.7,-87.62 843.07,-91.77"/>
<text text-anchor="middle" x="834.5" y="-54" font-family="Helvetica,sans-Serif" font-size="10.00"> type</text>
</g>
</g>
</svg>
        <g id="navigator" transform="translate(0 0)" fill="#404254">
                <rect fill="#f2f5e9" fill-opacity="0.5" stroke="#606060" stroke-width=".5" x="0" y="0" width="60" height="60"/>
                <use id="zoomplus" xlink:href="#zoomPlus" x="17" y="9" onmousedown="handleZoom(evt,'in')"/>
                <use id="zoomminus" xlink:href="#zoomMin" x="42" y="9" onmousedown="handleZoom(evt,'out')"/>
                <use id="reset" xlink:href="#resetDef" x="30" y="36" onmousedown="handleReset()"/>
                <g id="arrowUp" xlink:href="#dirArrow" transform="translate(30 24)" onmousedown="handlePan(0,-1)">
                  <use xlink:href="#rim" fill="#404040">
                        <set attributeName="fill" to="#808080" begin="arrowUp.mouseover" end="arrowUp.mouseout"/>
                  </use>
                  <path fill="none" stroke="white" stroke-width="1.5" d="M0,-3.0v7 M-2.5,-0.5L0,-3.0L2.5,-0.5"/>
                </g>
                <g id="arrowRight" xlink:href="#dirArrow" transform="rotate(90) translate(36 -43)" onmousedown="handlePan(1,0)">
                  <use xlink:href="#rim" fill="#404040">
                        <set attributeName="fill" to="#808080" begin="arrowRight.mouseover" end="arrowRight.mouseout"/>
                  </use>
                  <path fill="none" stroke="white" stroke-width="1.5" d="M0,-3.0v7 M-2.5,-0.5L0,-3.0L2.5,-0.5"/>
                </g>
                <g id="arrowDown" xlink:href="#dirArrow" transform="rotate(180) translate(-30 -48)" onmousedown="handlePan(0,1)">
                  <use xlink:href="#rim" fill="#404040">
                        <set attributeName="fill" to="#808080" begin="arrowDown.mouseover" end="arrowDown.mouseout"/>
                  </use>
                  <path fill="none" stroke="white" stroke-width="1.5" d="M0,-3.0v7 M-2.5,-0.5L0,-3.0L2.5,-0.5"/>
                </g>
                <g id="arrowLeft" xlink:href="#dirArrow" transform="rotate(270) translate(-36 17)" onmousedown="handlePan(-1,0)">
                  <use xlink:href="#rim" fill="#404040">
                        <set attributeName="fill" to="#808080" begin="arrowLeft.mouseover" end="arrowLeft.mouseout"/>
                  </use>
                  <path fill="none" stroke="white" stroke-width="1.5" d="M0,-3.0v7 M-2.5,-0.5L0,-3.0L2.5,-0.5"/>
                </g>
        </g>
        <svg viewBox="0 0 15 15" width="100%" height="30px" preserveAspectRatio="xMaxYMin meet">
         <g id="arrow_out" transform="scale(0.3 0.3)">
          <a xlink:href="structfs__handle__t__coll__graph_org.svg" target="_base">
           <rect id="button" ry="5" rx="5" y="6" x="6" height="38" width="38"
                fill="#f2f5e9" fill-opacity="0.5" stroke="#606060" stroke-width="1.0"/>
           <path id="arrow"
             d="M 11.500037,31.436501 C 11.940474,20.09759 22.043105,11.32322 32.158766,21.979434 L 37.068811,17.246167 C 37.068811,17.246167 37.088388,32 37.088388,32 L 22.160133,31.978069 C 22.160133,31.978069 26.997745,27.140456 26.997745,27.140456 C 18.528582,18.264221 13.291696,25.230495 11.500037,31.436501 z"
             style="fill:#404040;"/>
          </a>
         </g>
        </svg>
</svg>
