<?xml version="1.0" encoding="UTF-8" standalone="no"?>
<!DOCTYPE svg PUBLIC "-//W3C//DTD SVG 1.1//EN"
 "http://www.w3.org/Graphics/SVG/1.1/DTD/svg11.dtd">
<!-- Generated by graphviz version 2.43.0 (0)
 -->
<!-- Title: console Pages: 1 -->
<svg width="221pt" height="128pt"
 viewBox="0.00 0.00 221.00 128.00" xmlns="http://www.w3.org/2000/svg" xmlns:xlink="http://www.w3.org/1999/xlink">
<g id="graph0" class="graph" transform="scale(1 1) rotate(0) translate(4 124)">
<title>console</title>
<!-- Node1 -->
<g id="node1" class="node">
<title>Node1</title>
<g id="a_node1"><a xlink:title=" ">
<polygon fill="#bfbfbf" stroke="black" points="82,-0.5 82,-19.5 136,-19.5 136,-0.5 82,-0.5"/>
<text text-anchor="middle" x="109" y="-7.5" font-family="Helvetica,sans-Serif" font-size="10.00">console</text>
</a>
</g>
</g>
<!-- Node2 -->
<g id="node2" class="node">
<title>Node2</title>
<g id="a_node2"><a xlink:title=" ">
<polygon fill="none" stroke="black" points="0,-100.5 0,-119.5 38,-119.5 38,-100.5 0,-100.5"/>
<text text-anchor="middle" x="19" y="-107.5" font-family="Helvetica,sans-Serif" font-size="10.00">char</text>
</a>
</g>
</g>
<!-- Node2&#45;&gt;Node1 -->
<g id="edge1" class="edge">
<title>Node2&#45;&gt;Node1</title>
<path fill="none" stroke="#9a32cd" stroke-dasharray="5,2" d="M19.44,-90.27C20.78,-74.52 25.06,-52.33 38,-38 49.31,-25.47 67.06,-18.72 81.98,-15.1"/>
<polygon fill="#9a32cd" stroke="#9a32cd" points="15.94,-90.23 18.91,-100.4 22.93,-90.6 15.94,-90.23"/>
<text text-anchor="middle" x="71.5" y="-68.5" font-family="Helvetica,sans-Serif" font-size="10.00"> buffer</text>
<text text-anchor="middle" x="71.5" y="-57.5" font-family="Helvetica,sans-Serif" font-size="10.00">dirty</text>
<text text-anchor="middle" x="71.5" y="-46.5" font-family="Helvetica,sans-Serif" font-size="10.00">internalbuffer</text>
</g>
<!-- Node3 -->
<g id="node3" class="node">
<title>Node3</title>
<g id="a_node3"><a xlink:title=" ">
<polygon fill="none" stroke="black" points="84,-100.5 84,-119.5 134,-119.5 134,-100.5 84,-100.5"/>
<text text-anchor="middle" x="109" y="-107.5" font-family="Helvetica,sans-Serif" font-size="10.00">uint8_t</text>
</a>
</g>
</g>
<!-- Node3&#45;&gt;Node1 -->
<g id="edge2" class="edge">
<title>Node3&#45;&gt;Node1</title>
<path fill="none" stroke="#9a32cd" stroke-dasharray="5,2" d="M109,-90.22C109,-68.95 109,-35.22 109,-19.54"/>
<polygon fill="#9a32cd" stroke="#9a32cd" points="105.5,-90.3 109,-100.3 112.5,-90.3 105.5,-90.3"/>
<text text-anchor="middle" x="134.5" y="-74" font-family="Helvetica,sans-Serif" font-size="10.00"> attributes</text>
<text text-anchor="middle" x="134.5" y="-63" font-family="Helvetica,sans-Serif" font-size="10.00">last</text>
<text text-anchor="middle" x="134.5" y="-52" font-family="Helvetica,sans-Serif" font-size="10.00">x</text>
<text text-anchor="middle" x="134.5" y="-41" font-family="Helvetica,sans-Serif" font-size="10.00">y</text>
</g>
<!-- Node4 -->
<g id="node4" class="node">
<title>Node4</title>
<g id="a_node4"><a xlink:title=" ">
<polygon fill="none" stroke="black" points="160.5,-100.5 160.5,-119.5 205.5,-119.5 205.5,-100.5 160.5,-100.5"/>
<text text-anchor="middle" x="183" y="-107.5" font-family="Helvetica,sans-Serif" font-size="10.00">size_t</text>
</a>
</g>
</g>
<!-- Node4&#45;&gt;Node1 -->
<g id="edge3" class="edge">
<title>Node4&#45;&gt;Node1</title>
<path fill="none" stroke="#9a32cd" stroke-dasharray="5,2" d="M181.18,-90.1C178.81,-74.58 173.39,-52.82 161,-38 154.15,-29.8 144.17,-23.79 134.78,-19.55"/>
<polygon fill="#9a32cd" stroke="#9a32cd" points="177.71,-90.61 182.42,-100.11 184.66,-89.75 177.71,-90.61"/>
<text text-anchor="middle" x="196" y="-57.5" font-family="Helvetica,sans-Serif" font-size="10.00"> bufcnt</text>
</g>
</g>
</svg>
