<?xml version="1.0" encoding="UTF-8" standalone="no"?>
<!DOCTYPE svg PUBLIC "-//W3C//DTD SVG 1.1//EN"
 "http://www.w3.org/Graphics/SVG/1.1/DTD/svg11.dtd">
<!-- Generated by graphviz version 2.43.0 (0)
 -->
<!-- Title: ip_fragmented_packet_parts Pages: 1 -->
<svg width="272pt" height="175pt"
 viewBox="0.00 0.00 272.00 175.00" xmlns="http://www.w3.org/2000/svg" xmlns:xlink="http://www.w3.org/1999/xlink">
<g id="graph0" class="graph" transform="scale(1 1) rotate(0) translate(4 171)">
<title>ip_fragmented_packet_parts</title>
<!-- Node1 -->
<g id="node1" class="node">
<title>Node1</title>
<g id="a_node1"><a xlink:title=" ">
<polygon fill="#bfbfbf" stroke="black" points="29.5,-0.5 29.5,-30.5 154.5,-30.5 154.5,-0.5 29.5,-0.5"/>
<text text-anchor="start" x="37.5" y="-18.5" font-family="Helvetica,sans-Serif" font-size="10.00">ip_fragmented_packet</text>
<text text-anchor="middle" x="92" y="-7.5" font-family="Helvetica,sans-Serif" font-size="10.00">_parts</text>
</a>
</g>
</g>
<!-- Node2 -->
<g id="node2" class="node">
<title>Node2</title>
<g id="a_node2"><a xlink:title=" ">
<polygon fill="none" stroke="#bfbfbf" points="0,-79.5 0,-98.5 56,-98.5 56,-79.5 0,-79.5"/>
<text text-anchor="middle" x="28" y="-86.5" font-family="Helvetica,sans-Serif" font-size="10.00">uint16_t</text>
</a>
</g>
</g>
<!-- Node2&#45;&gt;Node1 -->
<g id="edge1" class="edge">
<title>Node2&#45;&gt;Node1</title>
<path fill="none" stroke="#9a32cd" stroke-dasharray="5,2" d="M42.8,-71.46C53.91,-59.05 68.95,-42.26 79.46,-30.51"/>
<polygon fill="#9a32cd" stroke="#9a32cd" points="39.91,-69.45 35.85,-79.23 45.13,-74.12 39.91,-69.45"/>
<text text-anchor="middle" x="67.5" y="-52" font-family="Helvetica,sans-Serif" font-size="10.00"> id</text>
</g>
<!-- Node3 -->
<g id="node3" class="node">
<title>Node3</title>
<g id="a_node3"><a xlink:title=" ">
<polygon fill="none" stroke="#bfbfbf" points="66,-147.5 66,-166.5 122,-166.5 122,-147.5 66,-147.5"/>
<text text-anchor="middle" x="94" y="-154.5" font-family="Helvetica,sans-Serif" font-size="10.00">uint32_t</text>
</a>
</g>
</g>
<!-- Node3&#45;&gt;Node1 -->
<g id="edge2" class="edge">
<title>Node3&#45;&gt;Node1</title>
<path fill="none" stroke="#9a32cd" stroke-dasharray="5,2" d="M93.73,-137.12C93.32,-108.85 92.57,-56.17 92.21,-30.83"/>
<polygon fill="#9a32cd" stroke="#9a32cd" points="90.23,-137.32 93.87,-147.27 97.23,-137.22 90.23,-137.32"/>
<text text-anchor="middle" x="104.5" y="-86.5" font-family="Helvetica,sans-Serif" font-size="10.00"> size</text>
</g>
<!-- Node4 -->
<g id="node4" class="node">
<title>Node4</title>
<g id="a_node4"><a xlink:href="structip__packet__frag.html" target="_top" xlink:title=" ">
<polygon fill="none" stroke="black" points="133,-79.5 133,-98.5 221,-98.5 221,-79.5 133,-79.5"/>
<text text-anchor="middle" x="177" y="-86.5" font-family="Helvetica,sans-Serif" font-size="10.00">ip_packet_frag</text>
</a>
</g>
</g>
<!-- Node3&#45;&gt;Node4 -->
<g id="edge5" class="edge">
<title>Node3&#45;&gt;Node4</title>
<path fill="none" stroke="#9a32cd" stroke-dasharray="5,2" d="M112.74,-141.1C129.21,-128 152.6,-109.4 166.15,-98.63"/>
<polygon fill="#9a32cd" stroke="#9a32cd" points="110.5,-138.41 104.85,-147.37 114.86,-143.89 110.5,-138.41"/>
<text text-anchor="middle" x="155.5" y="-121" font-family="Helvetica,sans-Serif" font-size="10.00"> offset</text>
</g>
<!-- Node4&#45;&gt;Node1 -->
<g id="edge3" class="edge">
<title>Node4&#45;&gt;Node1</title>
<path fill="none" stroke="#9a32cd" stroke-dasharray="5,2" d="M158.6,-72.52C143.75,-60.03 123.02,-42.6 108.65,-30.51"/>
<polygon fill="#9a32cd" stroke="#9a32cd" points="156.67,-75.47 166.58,-79.23 161.18,-70.12 156.67,-75.47"/>
<text text-anchor="middle" x="172.5" y="-52" font-family="Helvetica,sans-Serif" font-size="10.00"> ordered_list</text>
</g>
<!-- Node4&#45;&gt;Node4 -->
<g id="edge6" class="edge">
<title>Node4&#45;&gt;Node4</title>
<path fill="none" stroke="#9a32cd" stroke-dasharray="5,2" d="M231.26,-94.01C236.02,-92.95 239,-91.28 239,-89 239,-85.35 231.37,-83.26 221.02,-82.75"/>
<polygon fill="#9a32cd" stroke="#9a32cd" points="230.53,-90.57 221.02,-95.25 231.37,-97.52 230.53,-90.57"/>
<text text-anchor="middle" x="251.5" y="-92" font-family="Helvetica,sans-Serif" font-size="10.00"> next</text>
<text text-anchor="middle" x="251.5" y="-81" font-family="Helvetica,sans-Serif" font-size="10.00">prev</text>
</g>
<!-- Node5 -->
<g id="node5" class="node">
<title>Node5</title>
<g id="a_node5"><a xlink:title=" ">
<polygon fill="none" stroke="#bfbfbf" points="143,-147.5 143,-166.5 215,-166.5 215,-147.5 143,-147.5"/>
<text text-anchor="middle" x="179" y="-154.5" font-family="Helvetica,sans-Serif" font-size="10.00">ip_packet_t</text>
</a>
</g>
</g>
<!-- Node5&#45;&gt;Node4 -->
<g id="edge4" class="edge">
<title>Node5&#45;&gt;Node4</title>
<path fill="none" stroke="#9a32cd" stroke-dasharray="5,2" d="M178.43,-137.04C178.04,-124.47 177.56,-108.56 177.27,-98.84"/>
<polygon fill="#9a32cd" stroke="#9a32cd" points="174.94,-137.48 178.74,-147.37 181.93,-137.27 174.94,-137.48"/>
<text text-anchor="middle" x="196" y="-121" font-family="Helvetica,sans-Serif" font-size="10.00"> packet</text>
</g>
</g>
</svg>
