<?xml version="1.0" encoding="UTF-8" standalone="no"?>
<!DOCTYPE svg PUBLIC "-//W3C//DTD SVG 1.1//EN"
 "http://www.w3.org/Graphics/SVG/1.1/DTD/svg11.dtd">
<!-- Generated by graphviz version 2.43.0 (0)
 -->
<!-- Title: netproto_t Pages: 1 -->
<svg width="290pt" height="184pt"
 viewBox="0.00 0.00 289.50 184.00" xmlns="http://www.w3.org/2000/svg" xmlns:xlink="http://www.w3.org/1999/xlink">
<g id="graph0" class="graph" transform="scale(1 1) rotate(0) translate(4 180)">
<title>netproto_t</title>
<!-- Node1 -->
<g id="node1" class="node">
<title>Node1</title>
<g id="a_node1"><a xlink:title="Represents a protocol, or group of related protocols, that can be attached to an interface and can ha...">
<polygon fill="#bfbfbf" stroke="black" points="113.5,-0.5 113.5,-19.5 180.5,-19.5 180.5,-0.5 113.5,-0.5"/>
<text text-anchor="middle" x="147" y="-7.5" font-family="Helvetica,sans-Serif" font-size="10.00">netproto_t</text>
</a>
</g>
</g>
<!-- Node2 -->
<g id="node2" class="node">
<title>Node2</title>
<g id="a_node2"><a xlink:title=" ">
<polygon fill="none" stroke="#bfbfbf" points="0,-78.5 0,-97.5 56,-97.5 56,-78.5 0,-78.5"/>
<text text-anchor="middle" x="28" y="-85.5" font-family="Helvetica,sans-Serif" font-size="10.00">uint16_t</text>
</a>
</g>
</g>
<!-- Node2&#45;&gt;Node1 -->
<g id="edge1" class="edge">
<title>Node2&#45;&gt;Node1</title>
<path fill="none" stroke="#9a32cd" stroke-dasharray="5,2" d="M23.29,-68.43C21.88,-58.37 22.22,-46.34 29,-38 39.51,-25.08 82.24,-17.81 113.26,-14.14"/>
<polygon fill="#9a32cd" stroke="#9a32cd" points="19.87,-69.19 25.27,-78.3 26.73,-67.81 19.87,-69.19"/>
<text text-anchor="middle" x="81" y="-52" font-family="Helvetica,sans-Serif" font-size="10.00"> ethernet_protocol_id</text>
<text text-anchor="middle" x="81" y="-41" font-family="Helvetica,sans-Serif" font-size="10.00">num_addresses</text>
</g>
<!-- Node3 -->
<g id="node3" class="node">
<title>Node3</title>
<g id="a_node3"><a xlink:title=" ">
<polygon fill="none" stroke="#bfbfbf" points="143,-156.5 143,-175.5 181,-175.5 181,-156.5 143,-156.5"/>
<text text-anchor="middle" x="162" y="-163.5" font-family="Helvetica,sans-Serif" font-size="10.00">char</text>
</a>
</g>
</g>
<!-- Node3&#45;&gt;Node1 -->
<g id="edge2" class="edge">
<title>Node3&#45;&gt;Node1</title>
<path fill="none" stroke="#9a32cd" stroke-dasharray="5,2" d="M160.15,-145.98C156.87,-112.37 150.19,-43.76 147.84,-19.63"/>
<polygon fill="#9a32cd" stroke="#9a32cd" points="156.7,-146.67 161.15,-156.28 163.66,-145.99 156.7,-146.67"/>
<text text-anchor="middle" x="171.5" y="-85.5" font-family="Helvetica,sans-Serif" font-size="10.00"> name</text>
</g>
<!-- Node4 -->
<g id="node4" class="node">
<title>Node4</title>
<g id="a_node4"><a xlink:href="structnet__address__t.html" target="_top" xlink:title="Represents an address that is bound to a protocol on an interface. This is kept as flexible as possib...">
<polygon fill="none" stroke="black" points="196.5,-78.5 196.5,-97.5 281.5,-97.5 281.5,-78.5 196.5,-78.5"/>
<text text-anchor="middle" x="239" y="-85.5" font-family="Helvetica,sans-Serif" font-size="10.00">net_address_t</text>
</a>
</g>
</g>
<!-- Node3&#45;&gt;Node4 -->
<g id="edge4" class="edge">
<title>Node3&#45;&gt;Node4</title>
<path fill="none" stroke="#9a32cd" stroke-dasharray="5,2" d="M174.84,-148.35C182.78,-138.5 193.44,-126.03 204,-116 211.01,-109.34 219.6,-102.7 226.51,-97.66"/>
<polygon fill="#9a32cd" stroke="#9a32cd" points="172.09,-146.19 168.64,-156.21 177.58,-150.53 172.09,-146.19"/>
<text text-anchor="middle" x="219.5" y="-124.5" font-family="Helvetica,sans-Serif" font-size="10.00"> name</text>
</g>
<!-- Node4&#45;&gt;Node1 -->
<g id="edge3" class="edge">
<title>Node4&#45;&gt;Node1</title>
<path fill="none" stroke="#9a32cd" stroke-dasharray="5,2" d="M220.51,-71.73C201.56,-56.07 172.75,-32.27 157.43,-19.62"/>
<polygon fill="#9a32cd" stroke="#9a32cd" points="218.51,-74.61 228.45,-78.28 222.97,-69.21 218.51,-74.61"/>
<text text-anchor="middle" x="230.5" y="-46.5" font-family="Helvetica,sans-Serif" font-size="10.00"> addresses</text>
</g>
<!-- Node5 -->
<g id="node5" class="node">
<title>Node5</title>
<g id="a_node5"><a xlink:title=" ">
<polygon fill="none" stroke="#bfbfbf" points="214,-156.5 214,-175.5 264,-175.5 264,-156.5 214,-156.5"/>
<text text-anchor="middle" x="239" y="-163.5" font-family="Helvetica,sans-Serif" font-size="10.00">uint8_t</text>
</a>
</g>
</g>
<!-- Node5&#45;&gt;Node4 -->
<g id="edge5" class="edge">
<title>Node5&#45;&gt;Node4</title>
<path fill="none" stroke="#9a32cd" stroke-dasharray="5,2" d="M239,-146.22C239,-130.7 239,-109.36 239,-97.62"/>
<polygon fill="#9a32cd" stroke="#9a32cd" points="235.5,-146.28 239,-156.28 242.5,-146.28 235.5,-146.28"/>
<text text-anchor="middle" x="254.5" y="-130" font-family="Helvetica,sans-Serif" font-size="10.00"> bytes</text>
<text text-anchor="middle" x="254.5" y="-119" font-family="Helvetica,sans-Serif" font-size="10.00">length</text>
</g>
</g>
</svg>
