<?xml version="1.0" encoding="UTF-8" standalone="no"?>
<!DOCTYPE svg PUBLIC "-//W3C//DTD SVG 1.1//EN"
 "http://www.w3.org/Graphics/SVG/1.1/DTD/svg11.dtd">
<!-- Generated by graphviz version 2.43.0 (0)
 -->
<!-- Title: hashmap Pages: 1 -->
<svg width="266pt" height="405pt"
 viewBox="0.00 0.00 266.00 405.00" xmlns="http://www.w3.org/2000/svg" xmlns:xlink="http://www.w3.org/1999/xlink">
<g id="graph0" class="graph" transform="scale(1 1) rotate(0) translate(4 401)">
<title>hashmap</title>
<!-- Node1 -->
<g id="node1" class="node">
<title>Node1</title>
<g id="a_node1"><a xlink:title=" ">
<polygon fill="#bfbfbf" stroke="black" points="196,-137.5 196,-156.5 258,-156.5 258,-137.5 196,-137.5"/>
<text text-anchor="middle" x="227" y="-144.5" font-family="Helvetica,sans-Serif" font-size="10.00">hashmap</text>
</a>
</g>
</g>
<!-- Node2 -->
<g id="node2" class="node">
<title>Node2</title>
<g id="a_node2"><a xlink:title=" ">
<polygon fill="none" stroke="#bfbfbf" points="29,-366.5 29,-385.5 85,-385.5 85,-366.5 29,-366.5"/>
<text text-anchor="middle" x="57" y="-373.5" font-family="Helvetica,sans-Serif" font-size="10.00">uint64_t</text>
</a>
</g>
</g>
<!-- Node2&#45;&gt;Node1 -->
<g id="edge1" class="edge">
<title>Node2&#45;&gt;Node1</title>
<path fill="none" stroke="#9a32cd" stroke-dasharray="5,2" d="M95.21,-373.94C121.84,-370.47 156.62,-361.57 178,-339 203.76,-311.81 220.45,-191.7 224.84,-156.64"/>
<polygon fill="#9a32cd" stroke="#9a32cd" points="94.64,-370.48 85.08,-375.05 95.41,-377.43 94.64,-370.48"/>
<text text-anchor="middle" x="155" y="-389" font-family="Helvetica,sans-Serif" font-size="10.00"> hash</text>
<text text-anchor="middle" x="155" y="-378" font-family="Helvetica,sans-Serif" font-size="10.00">seed0</text>
<text text-anchor="middle" x="155" y="-367" font-family="Helvetica,sans-Serif" font-size="10.00">seed1</text>
</g>
<!-- Node3 -->
<g id="node3" class="node">
<title>Node3</title>
<g id="a_node3"><a xlink:title=" ">
<polygon fill="none" stroke="#bfbfbf" points="0,-317 0,-347 114,-347 114,-317 0,-317"/>
<text text-anchor="start" x="8" y="-335" font-family="Helvetica,sans-Serif" font-size="10.00">void(*)(const void</text>
<text text-anchor="middle" x="57" y="-324" font-family="Helvetica,sans-Serif" font-size="10.00"> *item, void *udata)</text>
</a>
</g>
</g>
<!-- Node3&#45;&gt;Node1 -->
<g id="edge2" class="edge">
<title>Node3&#45;&gt;Node1</title>
<path fill="none" stroke="#9a32cd" stroke-dasharray="5,2" d="M124.21,-327.12C143.6,-322.7 163.47,-314.83 178,-301 220.4,-260.65 225.56,-183.54 226.03,-156.59"/>
<polygon fill="#9a32cd" stroke="#9a32cd" points="123.27,-323.73 114.15,-329.12 124.64,-330.6 123.27,-323.73"/>
<text text-anchor="middle" x="155" y="-327" font-family="Helvetica,sans-Serif" font-size="10.00"> elfree</text>
</g>
<!-- Node4 -->
<g id="node4" class="node">
<title>Node4</title>
<g id="a_node4"><a xlink:title=" ">
<polygon fill="none" stroke="#bfbfbf" points="4.5,-268 4.5,-298 109.5,-298 109.5,-268 4.5,-268"/>
<text text-anchor="start" x="12.5" y="-286" font-family="Helvetica,sans-Serif" font-size="10.00">void(*)(const void</text>
<text text-anchor="middle" x="57" y="-275" font-family="Helvetica,sans-Serif" font-size="10.00"> *ptr, void *udata)</text>
</a>
</g>
</g>
<!-- Node4&#45;&gt;Node1 -->
<g id="edge3" class="edge">
<title>Node4&#45;&gt;Node1</title>
<path fill="none" stroke="#9a32cd" stroke-dasharray="5,2" d="M119.86,-287.93C140.14,-286.57 161.65,-281.59 178,-269 214.79,-240.68 223.43,-180.02 225.42,-156.55"/>
<polygon fill="#9a32cd" stroke="#9a32cd" points="119.57,-284.44 109.71,-288.33 119.84,-291.43 119.57,-284.44"/>
<text text-anchor="middle" x="155" y="-289" font-family="Helvetica,sans-Serif" font-size="10.00"> free</text>
</g>
<!-- Node5 -->
<g id="node5" class="node">
<title>Node5</title>
<g id="a_node5"><a xlink:title=" ">
<polygon fill="none" stroke="#bfbfbf" points="34.5,-141.5 34.5,-160.5 79.5,-160.5 79.5,-141.5 34.5,-141.5"/>
<text text-anchor="middle" x="57" y="-148.5" font-family="Helvetica,sans-Serif" font-size="10.00">size_t</text>
</a>
</g>
</g>
<!-- Node5&#45;&gt;Node1 -->
<g id="edge4" class="edge">
<title>Node5&#45;&gt;Node1</title>
<path fill="none" stroke="#9a32cd" stroke-dasharray="5,2" d="M90.04,-149.49C103.05,-148.93 118.24,-148.35 132,-148 153.37,-147.45 177.49,-147.2 195.94,-147.09"/>
<polygon fill="#9a32cd" stroke="#9a32cd" points="89.52,-146.01 79.69,-149.95 89.83,-153 89.52,-146.01"/>
<text text-anchor="middle" x="155" y="-261" font-family="Helvetica,sans-Serif" font-size="10.00"> bucketsz</text>
<text text-anchor="middle" x="155" y="-250" font-family="Helvetica,sans-Serif" font-size="10.00">cap</text>
<text text-anchor="middle" x="155" y="-239" font-family="Helvetica,sans-Serif" font-size="10.00">count</text>
<text text-anchor="middle" x="155" y="-228" font-family="Helvetica,sans-Serif" font-size="10.00">elsize</text>
<text text-anchor="middle" x="155" y="-217" font-family="Helvetica,sans-Serif" font-size="10.00">growat</text>
<text text-anchor="middle" x="155" y="-206" font-family="Helvetica,sans-Serif" font-size="10.00">malloc</text>
<text text-anchor="middle" x="155" y="-195" font-family="Helvetica,sans-Serif" font-size="10.00">mask</text>
<text text-anchor="middle" x="155" y="-184" font-family="Helvetica,sans-Serif" font-size="10.00">nbuckets</text>
<text text-anchor="middle" x="155" y="-173" font-family="Helvetica,sans-Serif" font-size="10.00">realloc</text>
<text text-anchor="middle" x="155" y="-162" font-family="Helvetica,sans-Serif" font-size="10.00">shrinkat</text>
<text text-anchor="middle" x="155" y="-151" font-family="Helvetica,sans-Serif" font-size="10.00">...</text>
</g>
<!-- Node6 -->
<g id="node6" class="node">
<title>Node6</title>
<g id="a_node6"><a xlink:title=" ">
<polygon fill="none" stroke="#bfbfbf" points="42.5,-103.5 42.5,-122.5 71.5,-122.5 71.5,-103.5 42.5,-103.5"/>
<text text-anchor="middle" x="57" y="-110.5" font-family="Helvetica,sans-Serif" font-size="10.00">int</text>
</a>
</g>
</g>
<!-- Node6&#45;&gt;Node1 -->
<g id="edge5" class="edge">
<title>Node6&#45;&gt;Node1</title>
<path fill="none" stroke="#9a32cd" stroke-dasharray="5,2" d="M81.91,-115.74C106.27,-118.78 145.05,-124.29 178,-132 184.46,-133.51 191.32,-135.45 197.76,-137.42"/>
<polygon fill="#9a32cd" stroke="#9a32cd" points="82.15,-112.25 71.8,-114.52 81.31,-119.2 82.15,-112.25"/>
<text text-anchor="middle" x="155" y="-135" font-family="Helvetica,sans-Serif" font-size="10.00"> compare</text>
</g>
<!-- Node7 -->
<g id="node7" class="node">
<title>Node7</title>
<g id="a_node7"><a xlink:title=" ">
<polygon fill="none" stroke="#bfbfbf" points="38,-65.5 38,-84.5 76,-84.5 76,-65.5 38,-65.5"/>
<text text-anchor="middle" x="57" y="-72.5" font-family="Helvetica,sans-Serif" font-size="10.00">bool</text>
</a>
</g>
</g>
<!-- Node7&#45;&gt;Node1 -->
<g id="edge6" class="edge">
<title>Node7&#45;&gt;Node1</title>
<path fill="none" stroke="#9a32cd" stroke-dasharray="5,2" d="M86.31,-79.37C111.42,-84.02 148.58,-92.86 178,-108 192.89,-115.67 207.46,-128.47 216.57,-137.31"/>
<polygon fill="#9a32cd" stroke="#9a32cd" points="86.79,-75.9 76.34,-77.62 85.59,-82.8 86.79,-75.9"/>
<text text-anchor="middle" x="155" y="-111" font-family="Helvetica,sans-Serif" font-size="10.00"> oom</text>
</g>
<!-- Node8 -->
<g id="node8" class="node">
<title>Node8</title>
<g id="a_node8"><a xlink:title=" ">
<polygon fill="none" stroke="#bfbfbf" points="34,-0.5 34,-19.5 80,-19.5 80,-0.5 34,-0.5"/>
<text text-anchor="middle" x="57" y="-7.5" font-family="Helvetica,sans-Serif" font-size="10.00">void *</text>
</a>
</g>
</g>
<!-- Node8&#45;&gt;Node1 -->
<g id="edge7" class="edge">
<title>Node8&#45;&gt;Node1</title>
<path fill="none" stroke="#9a32cd" stroke-dasharray="5,2" d="M90.28,-11.21C116.63,-13.79 153.39,-21.21 178,-42 208.32,-67.61 220.45,-116.41 224.39,-137.22"/>
<polygon fill="#9a32cd" stroke="#9a32cd" points="90.29,-7.7 80.05,-10.4 89.74,-14.68 90.29,-7.7"/>
<text text-anchor="middle" x="155" y="-78" font-family="Helvetica,sans-Serif" font-size="10.00"> buckets</text>
<text text-anchor="middle" x="155" y="-67" font-family="Helvetica,sans-Serif" font-size="10.00">edata</text>
<text text-anchor="middle" x="155" y="-56" font-family="Helvetica,sans-Serif" font-size="10.00">spare</text>
<text text-anchor="middle" x="155" y="-45" font-family="Helvetica,sans-Serif" font-size="10.00">udata</text>
</g>
</g>
</svg>
