<?xml version="1.0" encoding="UTF-8" standalone="no"?>
<!DOCTYPE svg PUBLIC "-//W3C//DTD SVG 1.1//EN"
 "http://www.w3.org/Graphics/SVG/1.1/DTD/svg11.dtd">
<!-- Generated by graphviz version 2.43.0 (0)
 -->
<!-- Title: MultiBoot Pages: 1 -->
<svg width="430pt" height="307pt"
 viewBox="0.00 0.00 430.00 307.00" xmlns="http://www.w3.org/2000/svg" xmlns:xlink="http://www.w3.org/1999/xlink">
<g id="graph0" class="graph" transform="scale(1 1) rotate(0) translate(4 303)">
<title>MultiBoot</title>
<!-- Node1 -->
<g id="node1" class="node">
<title>Node1</title>
<g id="a_node1"><a xlink:title=" ">
<polygon fill="#bfbfbf" stroke="black" points="148,-0.5 148,-19.5 212,-19.5 212,-0.5 148,-0.5"/>
<text text-anchor="middle" x="180" y="-7.5" font-family="Helvetica,sans-Serif" font-size="10.00">MultiBoot</text>
</a>
</g>
</g>
<!-- Node2 -->
<g id="node2" class="node">
<title>Node2</title>
<g id="a_node2"><a xlink:title=" ">
<polygon fill="none" stroke="#bfbfbf" points="0,-151 0,-170 56,-170 56,-151 0,-151"/>
<text text-anchor="middle" x="28" y="-158" font-family="Helvetica,sans-Serif" font-size="10.00">uint16_t</text>
</a>
</g>
</g>
<!-- Node2&#45;&gt;Node1 -->
<g id="edge1" class="edge">
<title>Node2&#45;&gt;Node1</title>
<path fill="none" stroke="#9a32cd" stroke-dasharray="5,2" d="M21.66,-141.13C13.9,-114.96 4.59,-66.91 29,-38 43.9,-20.35 107.96,-14.22 147.7,-12.1"/>
<polygon fill="#9a32cd" stroke="#9a32cd" points="18.4,-142.43 24.78,-150.89 25.06,-140.3 18.4,-142.43"/>
<text text-anchor="middle" x="74.5" y="-74" font-family="Helvetica,sans-Serif" font-size="10.00"> vbe_interface_len</text>
<text text-anchor="middle" x="74.5" y="-63" font-family="Helvetica,sans-Serif" font-size="10.00">vbe_interface_off</text>
<text text-anchor="middle" x="74.5" y="-52" font-family="Helvetica,sans-Serif" font-size="10.00">vbe_interface_seg</text>
<text text-anchor="middle" x="74.5" y="-41" font-family="Helvetica,sans-Serif" font-size="10.00">vbe_mode</text>
</g>
<!-- Node3 -->
<g id="node3" class="node">
<title>Node3</title>
<g id="a_node3"><a xlink:title=" ">
<polygon fill="none" stroke="#bfbfbf" points="145,-279.5 145,-298.5 201,-298.5 201,-279.5 145,-279.5"/>
<text text-anchor="middle" x="173" y="-286.5" font-family="Helvetica,sans-Serif" font-size="10.00">uint32_t</text>
</a>
</g>
</g>
<!-- Node3&#45;&gt;Node1 -->
<g id="edge2" class="edge">
<title>Node3&#45;&gt;Node1</title>
<path fill="none" stroke="#9a32cd" stroke-dasharray="5,2" d="M163.02,-270.42C156.16,-257.27 147.65,-238.6 144,-221 133.09,-168.34 133.73,-152.79 144,-100 149.99,-69.24 166.59,-35.66 175,-19.99"/>
<polygon fill="#9a32cd" stroke="#9a32cd" points="159.99,-272.17 167.84,-279.28 166.14,-268.83 159.99,-272.17"/>
<text text-anchor="middle" x="190" y="-213" font-family="Helvetica,sans-Serif" font-size="10.00"> apm_table</text>
<text text-anchor="middle" x="190" y="-202" font-family="Helvetica,sans-Serif" font-size="10.00">boot_device</text>
<text text-anchor="middle" x="190" y="-191" font-family="Helvetica,sans-Serif" font-size="10.00">config_table</text>
<text text-anchor="middle" x="190" y="-180" font-family="Helvetica,sans-Serif" font-size="10.00">drives_addr</text>
<text text-anchor="middle" x="190" y="-169" font-family="Helvetica,sans-Serif" font-size="10.00">drives_length</text>
<text text-anchor="middle" x="190" y="-158" font-family="Helvetica,sans-Serif" font-size="10.00">elf_headers_addr</text>
<text text-anchor="middle" x="190" y="-147" font-family="Helvetica,sans-Serif" font-size="10.00">elf_headers_num</text>
<text text-anchor="middle" x="190" y="-136" font-family="Helvetica,sans-Serif" font-size="10.00">elf_headers_shndx</text>
<text text-anchor="middle" x="190" y="-125" font-family="Helvetica,sans-Serif" font-size="10.00">elf_headers_size</text>
<text text-anchor="middle" x="190" y="-114" font-family="Helvetica,sans-Serif" font-size="10.00">flags</text>
<text text-anchor="middle" x="190" y="-103" font-family="Helvetica,sans-Serif" font-size="10.00">...</text>
</g>
<!-- Node4 -->
<g id="node4" class="node">
<title>Node4</title>
<g id="a_node4"><a xlink:href="struct_m_b___mem_map.html" target="_top" xlink:title=" ">
<polygon fill="none" stroke="black" points="244.5,-151 244.5,-170 327.5,-170 327.5,-151 244.5,-151"/>
<text text-anchor="middle" x="286" y="-158" font-family="Helvetica,sans-Serif" font-size="10.00">MB_MemMap</text>
</a>
</g>
</g>
<!-- Node3&#45;&gt;Node4 -->
<g id="edge5" class="edge">
<title>Node3&#45;&gt;Node4</title>
<path fill="none" stroke="#9a32cd" stroke-dasharray="5,2" d="M187.45,-271.83C211.61,-244.78 259.41,-191.26 278.18,-170.26"/>
<polygon fill="#9a32cd" stroke="#9a32cd" points="184.82,-269.52 180.77,-279.31 190.04,-274.18 184.82,-269.52"/>
<text text-anchor="middle" x="227.5" y="-253" font-family="Helvetica,sans-Serif" font-size="10.00"> size</text>
<text text-anchor="middle" x="227.5" y="-242" font-family="Helvetica,sans-Serif" font-size="10.00">type</text>
</g>
<!-- Node4&#45;&gt;Node1 -->
<g id="edge3" class="edge">
<title>Node4&#45;&gt;Node1</title>
<path fill="none" stroke="#9a32cd" stroke-dasharray="5,2" d="M273.75,-142.34C251.03,-110.51 203.15,-43.43 186.15,-19.61"/>
<polygon fill="#9a32cd" stroke="#9a32cd" points="271.03,-144.55 279.69,-150.66 276.73,-140.48 271.03,-144.55"/>
<text text-anchor="middle" x="260" y="-57.5" font-family="Helvetica,sans-Serif" font-size="10.00"> mmap_addr</text>
</g>
<!-- Node5 -->
<g id="node5" class="node">
<title>Node5</title>
<g id="a_node5"><a xlink:title=" ">
<polygon fill="none" stroke="#bfbfbf" points="258,-279.5 258,-298.5 314,-298.5 314,-279.5 258,-279.5"/>
<text text-anchor="middle" x="286" y="-286.5" font-family="Helvetica,sans-Serif" font-size="10.00">uint64_t</text>
</a>
</g>
</g>
<!-- Node5&#45;&gt;Node4 -->
<g id="edge4" class="edge">
<title>Node5&#45;&gt;Node4</title>
<path fill="none" stroke="#9a32cd" stroke-dasharray="5,2" d="M286,-268.94C286,-241.12 286,-190.54 286,-170.26"/>
<polygon fill="#9a32cd" stroke="#9a32cd" points="282.5,-269.31 286,-279.31 289.5,-269.31 282.5,-269.31"/>
<text text-anchor="middle" x="298.5" y="-253" font-family="Helvetica,sans-Serif" font-size="10.00"> addr</text>
<text text-anchor="middle" x="298.5" y="-242" font-family="Helvetica,sans-Serif" font-size="10.00">len</text>
</g>
<!-- Node6 -->
<g id="node6" class="node">
<title>Node6</title>
<g id="a_node6"><a xlink:title=" ">
<polygon fill="none" stroke="#bfbfbf" points="345.5,-151 345.5,-170 420.5,-170 420.5,-151 345.5,-151"/>
<text text-anchor="middle" x="383" y="-158" font-family="Helvetica,sans-Serif" font-size="10.00">const char *</text>
</a>
</g>
</g>
<!-- Node6&#45;&gt;Node1 -->
<g id="edge6" class="edge">
<title>Node6&#45;&gt;Node1</title>
<path fill="none" stroke="#9a32cd" stroke-dasharray="5,2" d="M375.05,-141.43C362.25,-114.52 334.43,-64.25 295,-38 270.25,-21.52 236.64,-15.05 212.15,-12.53"/>
<polygon fill="#9a32cd" stroke="#9a32cd" points="372,-143.18 379.35,-150.81 378.37,-140.26 372,-143.18"/>
<text text-anchor="middle" x="380" y="-63" font-family="Helvetica,sans-Serif" font-size="10.00"> bootloadername</text>
<text text-anchor="middle" x="380" y="-52" font-family="Helvetica,sans-Serif" font-size="10.00">commandline</text>
</g>
</g>
</svg>
