<?xml version="1.0" encoding="UTF-8" standalone="no"?>
<!DOCTYPE svg PUBLIC "-//W3C//DTD SVG 1.1//EN"
 "http://www.w3.org/Graphics/SVG/1.1/DTD/svg11.dtd">
<!-- Generated by graphviz version 2.43.0 (0)
 -->
<!-- Title: basic_ctx Pages: 1 -->
<!--zoomable 1290 -->
<svg id="main" version="1.1" xmlns="http://www.w3.org/2000/svg" xmlns:xlink="http://www.w3.org/1999/xlink" xml:space="preserve" onload="init(evt)">
<style type="text/css"><![CDATA[
.edge:hover path { stroke: red; }
.edge:hover polygon { stroke: red; fill: red; }
]]></style>
<script type="text/javascript"><![CDATA[
var edges = document.getElementsByTagName('g');
if (edges && edges.length) {
  for (var i=0;i<edges.length;i++) {
    if (edges[i].id.substr(0,4)=='edge') {
      edges[i].setAttribute('class','edge');
    }
  }
}
]]></script>
        <defs>
                <circle id="rim" cx="0" cy="0" r="7"/>
                <circle id="rim2" cx="0" cy="0" r="3.5"/>
                <g id="zoomPlus">
                        <use xlink:href="#rim" fill="#404040">
                                <set attributeName="fill" to="#808080" begin="zoomplus.mouseover" end="zoomplus.mouseout"/>
                        </use>
                        <path d="M-4,0h8M0,-4v8" fill="none" stroke="white" stroke-width="1.5" pointer-events="none"/>
                </g>
                <g id="zoomMin">
                        <use xlink:href="#rim" fill="#404040">
                                <set attributeName="fill" to="#808080" begin="zoomminus.mouseover" end="zoomminus.mouseout"/>
                        </use>
                        <path d="M-4,0h8" fill="none" stroke="white" stroke-width="1.5" pointer-events="none"/>
                </g>
                <g id="dirArrow">
                        <path fill="none" stroke="white" stroke-width="1.5" d="M0,-3.0v7 M-2.5,-0.5L0,-3.0L2.5,-0.5"/>
                </g>
               <g id="resetDef">
                       <use xlink:href="#rim2" fill="#404040">
                               <set attributeName="fill" to="#808080" begin="reset.mouseover" end="reset.mouseout"/>
                       </use>
               </g>
        </defs>

<script type="text/javascript">
var viewWidth = 623;
var viewHeight = 1290;
var sectionId = 'dynsection-0';
</script>
<script xlink:href="svgpan.js"/>
<svg id="graph" class="graph">
<g id="viewport">
<title>basic_ctx</title>
<!-- Node1 -->
<g id="node1" class="node">
<title>Node1</title>
<g id="a_node1"><a xlink:title="BASIC program context. Every instance of a BASIC program has one of these,* also certain structures s...">
<polygon fill="#bfbfbf" stroke="black" points="553,-485.34 553,-504.34 615,-504.34 615,-485.34 553,-485.34"/>
<text text-anchor="middle" x="584" y="-492.34" font-family="Helvetica,sans-Serif" font-size="10.00">basic_ctx</text>
</a>
</g>
</g>
<!-- Node2 -->
<g id="node2" class="node">
<title>Node2</title>
<g id="a_node2"><a xlink:title=" ">
<polygon fill="none" stroke="black" points="0,-761.34 0,-780.34 38,-780.34 38,-761.34 0,-761.34"/>
<text text-anchor="middle" x="19" y="-768.34" font-family="Helvetica,sans-Serif" font-size="10.00">char</text>
</a>
</g>
</g>
<!-- Node2&#45;&gt;Node1 -->
<g id="edge1" class="edge">
<title>Node2&#45;&gt;Node1</title>
<path fill="none" stroke="#9a32cd" stroke-dasharray="5,2" d="M20.69,-790.74C23.1,-854.23 32.34,-1051.19 56,-1109.84 69.27,-1142.73 73.13,-1157.25 105,-1172.84 278.57,-1257.72 418.34,-1262.86 535,-1108.84 573.09,-1058.55 581.74,-579.17 582.86,-504.57"/>
<polygon fill="#9a32cd" stroke="#9a32cd" points="24.18,-790.37 20.31,-780.5 17.18,-790.62 24.18,-790.37"/>
<text text-anchor="middle" x="228" y="-1273.84" font-family="Helvetica,sans-Serif" font-size="10.00"> item_begin</text>
<text text-anchor="middle" x="228" y="-1262.84" font-family="Helvetica,sans-Serif" font-size="10.00">nextptr</text>
<text text-anchor="middle" x="228" y="-1251.84" font-family="Helvetica,sans-Serif" font-size="10.00">program_ptr</text>
<text text-anchor="middle" x="228" y="-1240.84" font-family="Helvetica,sans-Serif" font-size="10.00">ptr</text>
<text text-anchor="middle" x="228" y="-1229.84" font-family="Helvetica,sans-Serif" font-size="10.00">string</text>
</g>
<!-- Node6 -->
<g id="node6" class="node">
<title>Node6</title>
<g id="a_node6"><a xlink:href="structub__var__int.html" target="_top" xlink:title="An integer variable.">
<polygon fill="none" stroke="black" points="305.5,-771.34 305.5,-790.34 373.5,-790.34 373.5,-771.34 305.5,-771.34"/>
<text text-anchor="middle" x="339.5" y="-778.34" font-family="Helvetica,sans-Serif" font-size="10.00">ub_var_int</text>
</a>
</g>
</g>
<!-- Node2&#45;&gt;Node6 -->
<g id="edge6" class="edge">
<title>Node2&#45;&gt;Node6</title>
<path fill="none" stroke="#9a32cd" stroke-dasharray="5,2" d="M48.48,-769.33C93.77,-767.24 184.96,-764.32 262,-769.84 276.32,-770.86 292.03,-772.95 305.48,-775.03"/>
<polygon fill="#9a32cd" stroke="#9a32cd" points="48.07,-765.84 38.25,-769.82 48.4,-772.84 48.07,-765.84"/>
<text text-anchor="middle" x="140.5" y="-769.84" font-family="Helvetica,sans-Serif" font-size="10.00"> varname</text>
</g>
<!-- Node7 -->
<g id="node7" class="node">
<title>Node7</title>
<g id="a_node7"><a xlink:href="structub__var__string.html" target="_top" xlink:title="A string variable.">
<polygon fill="none" stroke="black" points="298,-535.34 298,-554.34 381,-554.34 381,-535.34 298,-535.34"/>
<text text-anchor="middle" x="339.5" y="-542.34" font-family="Helvetica,sans-Serif" font-size="10.00">ub_var_string</text>
</a>
</g>
</g>
<!-- Node2&#45;&gt;Node7 -->
<g id="edge11" class="edge">
<title>Node2&#45;&gt;Node7</title>
<path fill="none" stroke="#9a32cd" stroke-dasharray="5,2" d="M23.77,-751.16C31.85,-714.64 54.35,-636.4 105,-595.84 134.31,-572.36 238.9,-556.59 297.67,-549.36"/>
<polygon fill="#9a32cd" stroke="#9a32cd" points="20.32,-750.57 21.72,-761.07 27.18,-751.99 20.32,-750.57"/>
<text text-anchor="middle" x="140.5" y="-609.84" font-family="Helvetica,sans-Serif" font-size="10.00"> value</text>
<text text-anchor="middle" x="140.5" y="-598.84" font-family="Helvetica,sans-Serif" font-size="10.00">varname</text>
</g>
<!-- Node8 -->
<g id="node8" class="node">
<title>Node8</title>
<g id="a_node8"><a xlink:href="structub__var__double.html" target="_top" xlink:title="A real (double) variable.">
<polygon fill="none" stroke="black" points="295.5,-343.34 295.5,-362.34 383.5,-362.34 383.5,-343.34 295.5,-343.34"/>
<text text-anchor="middle" x="339.5" y="-350.34" font-family="Helvetica,sans-Serif" font-size="10.00">ub_var_double</text>
</a>
</g>
</g>
<!-- Node2&#45;&gt;Node8 -->
<g id="edge15" class="edge">
<title>Node2&#45;&gt;Node8</title>
<path fill="none" stroke="#9a32cd" stroke-dasharray="5,2" d="M20.85,-750.65C24.51,-675.39 41.7,-413.11 105,-366.84 161.88,-325.25 248.91,-333.6 299.1,-343.3"/>
<polygon fill="#9a32cd" stroke="#9a32cd" points="17.34,-750.91 20.38,-761.06 24.33,-751.23 17.34,-750.91"/>
<text text-anchor="middle" x="140.5" y="-369.84" font-family="Helvetica,sans-Serif" font-size="10.00"> varname</text>
</g>
<!-- Node12 -->
<g id="node12" class="node">
<title>Node12</title>
<g id="a_node12"><a xlink:href="structfor__state.html" target="_top" xlink:title="State for a FOR...NEXT loop.">
<polygon fill="none" stroke="black" points="309.5,-974.34 309.5,-993.34 369.5,-993.34 369.5,-974.34 309.5,-974.34"/>
<text text-anchor="middle" x="339.5" y="-981.34" font-family="Helvetica,sans-Serif" font-size="10.00">for_state</text>
</a>
</g>
</g>
<!-- Node2&#45;&gt;Node12 -->
<g id="edge23" class="edge">
<title>Node2&#45;&gt;Node12</title>
<path fill="none" stroke="#9a32cd" stroke-dasharray="5,2" d="M23.97,-790.54C32.49,-828.03 55.84,-910.21 105,-958.84 157.07,-1010.33 189.68,-1020.35 262,-1008.84 280.49,-1005.89 300.58,-999.18 315.54,-993.45"/>
<polygon fill="#9a32cd" stroke="#9a32cd" points="27.32,-789.46 21.8,-780.42 20.48,-790.94 27.32,-789.46"/>
<text text-anchor="middle" x="140.5" y="-1009.84" font-family="Helvetica,sans-Serif" font-size="10.00"> for_variable</text>
</g>
<!-- Node13 -->
<g id="node13" class="node">
<title>Node13</title>
<g id="a_node13"><a xlink:href="structub__proc__fn__def.html" target="_top" xlink:title="Procedure or function definition Each has a name, a type, a starting line and a parameter list.">
<polygon fill="none" stroke="black" points="294,-1038.34 294,-1057.34 385,-1057.34 385,-1038.34 294,-1038.34"/>
<text text-anchor="middle" x="339.5" y="-1045.34" font-family="Helvetica,sans-Serif" font-size="10.00">ub_proc_fn_def</text>
</a>
</g>
</g>
<!-- Node2&#45;&gt;Node13 -->
<g id="edge25" class="edge">
<title>Node2&#45;&gt;Node13</title>
<path fill="none" stroke="#9a32cd" stroke-dasharray="5,2" d="M19.54,-790.66C19.61,-840.02 27.57,-968.31 105,-1021.84 161.03,-1060.57 243.33,-1059.83 293.77,-1054.64"/>
<polygon fill="#9a32cd" stroke="#9a32cd" points="23.04,-790.42 19.64,-780.39 16.04,-790.35 23.04,-790.42"/>
<text text-anchor="middle" x="140.5" y="-1052.84" font-family="Helvetica,sans-Serif" font-size="10.00"> name</text>
</g>
<!-- Node15 -->
<g id="node15" class="node">
<title>Node15</title>
<g id="a_node15"><a xlink:href="structub__param.html" target="_top" xlink:title="FN/PROC parameter.">
<polygon fill="none" stroke="black" points="108,-1115.34 108,-1134.34 173,-1134.34 173,-1115.34 108,-1115.34"/>
<text text-anchor="middle" x="140.5" y="-1122.34" font-family="Helvetica,sans-Serif" font-size="10.00">ub_param</text>
</a>
</g>
</g>
<!-- Node2&#45;&gt;Node15 -->
<g id="edge29" class="edge">
<title>Node2&#45;&gt;Node15</title>
<path fill="none" stroke="#9a32cd" stroke-dasharray="5,2" d="M20.66,-790.65C22.85,-848.2 31.21,-1014.34 56,-1061.84 69.19,-1087.11 97.61,-1105.08 117.62,-1115.2"/>
<polygon fill="#9a32cd" stroke="#9a32cd" points="24.15,-790.24 20.29,-780.37 17.15,-790.49 24.15,-790.24"/>
<text text-anchor="middle" x="71.5" y="-1097.84" font-family="Helvetica,sans-Serif" font-size="10.00"> name</text>
</g>
<!-- Node16 -->
<g id="node16" class="node">
<title>Node16</title>
<g id="a_node16"><a xlink:href="structub__var__int__array.html" target="_top" xlink:title="An array of integers.">
<polygon fill="none" stroke="black" points="290.5,-907.34 290.5,-926.34 388.5,-926.34 388.5,-907.34 290.5,-907.34"/>
<text text-anchor="middle" x="339.5" y="-914.34" font-family="Helvetica,sans-Serif" font-size="10.00">ub_var_int_array</text>
</a>
</g>
</g>
<!-- Node2&#45;&gt;Node16 -->
<g id="edge34" class="edge">
<title>Node2&#45;&gt;Node16</title>
<path fill="none" stroke="#9a32cd" stroke-dasharray="5,2" d="M28.61,-789.68C41.84,-816.97 69.4,-867.84 105,-900.84 138.12,-931.53 150.27,-938.59 194,-949.84 223.27,-957.36 232.4,-955.95 262,-949.84 283.67,-945.36 306.77,-934.45 321.84,-926.39"/>
<polygon fill="#9a32cd" stroke="#9a32cd" points="31.69,-788.01 24.26,-780.46 25.36,-791 31.69,-788.01"/>
<text text-anchor="middle" x="140.5" y="-946.84" font-family="Helvetica,sans-Serif" font-size="10.00"> varname</text>
</g>
<!-- Node17 -->
<g id="node17" class="node">
<title>Node17</title>
<g id="a_node17"><a xlink:href="structub__var__string__array.html" target="_top" xlink:title="An array of strings.">
<polygon fill="none" stroke="black" points="283,-704.34 283,-723.34 396,-723.34 396,-704.34 283,-704.34"/>
<text text-anchor="middle" x="339.5" y="-711.34" font-family="Helvetica,sans-Serif" font-size="10.00">ub_var_string_array</text>
</a>
</g>
</g>
<!-- Node2&#45;&gt;Node17 -->
<g id="edge39" class="edge">
<title>Node2&#45;&gt;Node17</title>
<path fill="none" stroke="#9a32cd" stroke-dasharray="5,2" d="M47.68,-758.83C64.06,-752.22 85.37,-744.44 105,-739.84 164.77,-725.82 234.96,-719.3 282.67,-716.3"/>
<polygon fill="#9a32cd" stroke="#9a32cd" points="46.09,-755.71 38.18,-762.76 48.76,-762.17 46.09,-755.71"/>
<text text-anchor="middle" x="140.5" y="-753.84" font-family="Helvetica,sans-Serif" font-size="10.00"> values</text>
<text text-anchor="middle" x="140.5" y="-742.84" font-family="Helvetica,sans-Serif" font-size="10.00">varname</text>
</g>
<!-- Node18 -->
<g id="node18" class="node">
<title>Node18</title>
<g id="a_node18"><a xlink:href="structub__var__double__array.html" target="_top" xlink:title="An array of real (double)">
<polygon fill="none" stroke="black" points="280,-410.34 280,-429.34 399,-429.34 399,-410.34 280,-410.34"/>
<text text-anchor="middle" x="339.5" y="-417.34" font-family="Helvetica,sans-Serif" font-size="10.00">ub_var_double_array</text>
</a>
</g>
</g>
<!-- Node2&#45;&gt;Node18 -->
<g id="edge43" class="edge">
<title>Node2&#45;&gt;Node18</title>
<path fill="none" stroke="#9a32cd" stroke-dasharray="5,2" d="M19.2,-751.07C18.24,-698.07 23.46,-551.84 105,-478.84 130.58,-455.93 219.46,-438.13 279.88,-428.31"/>
<polygon fill="#9a32cd" stroke="#9a32cd" points="15.71,-751.27 19.49,-761.17 22.71,-751.07 15.71,-751.27"/>
<text text-anchor="middle" x="140.5" y="-481.84" font-family="Helvetica,sans-Serif" font-size="10.00"> varname</text>
</g>
<!-- Node19 -->
<g id="node19" class="node">
<title>Node19</title>
<g id="a_node19"><a xlink:href="structconsole.html" target="_top" xlink:title=" ">
<polygon fill="none" stroke="black" points="312.5,-258.34 312.5,-277.34 366.5,-277.34 366.5,-258.34 312.5,-258.34"/>
<text text-anchor="middle" x="339.5" y="-265.34" font-family="Helvetica,sans-Serif" font-size="10.00">console</text>
</a>
</g>
</g>
<!-- Node2&#45;&gt;Node19 -->
<g id="edge47" class="edge">
<title>Node2&#45;&gt;Node19</title>
<path fill="none" stroke="#9a32cd" stroke-dasharray="5,2" d="M19.74,-750.91C19.09,-663.54 21.83,-316.23 105,-259.84 138.07,-237.41 258.52,-254.24 312.28,-263.18"/>
<polygon fill="#9a32cd" stroke="#9a32cd" points="16.24,-751.09 19.84,-761.05 23.24,-751.02 16.24,-751.09"/>
<text text-anchor="middle" x="140.5" y="-284.84" font-family="Helvetica,sans-Serif" font-size="10.00"> buffer</text>
<text text-anchor="middle" x="140.5" y="-273.84" font-family="Helvetica,sans-Serif" font-size="10.00">dirty</text>
<text text-anchor="middle" x="140.5" y="-262.84" font-family="Helvetica,sans-Serif" font-size="10.00">internalbuffer</text>
</g>
<!-- Node3 -->
<g id="node3" class="node">
<title>Node3</title>
<g id="a_node3"><a xlink:title=" ">
<polygon fill="none" stroke="black" points="126,-121.34 126,-140.34 155,-140.34 155,-121.34 126,-121.34"/>
<text text-anchor="middle" x="140.5" y="-128.34" font-family="Helvetica,sans-Serif" font-size="10.00">int</text>
</a>
</g>
</g>
<!-- Node3&#45;&gt;Node1 -->
<g id="edge2" class="edge">
<title>Node3&#45;&gt;Node1</title>
<path fill="none" stroke="#9a32cd" stroke-dasharray="5,2" d="M164.9,-138.52C189.66,-147.02 229.55,-161.8 262,-178.84 270.51,-183.31 271.19,-186.99 280,-190.84 386.81,-237.44 454.26,-167.81 535,-251.84 568.15,-286.33 579.94,-444.43 582.45,-485.21"/>
<polygon fill="#9a32cd" stroke="#9a32cd" points="165.88,-135.16 155.28,-135.27 163.64,-141.79 165.88,-135.16"/>
<text text-anchor="middle" x="339.5" y="-221.84" font-family="Helvetica,sans-Serif" font-size="10.00"> bracket_depth</text>
<text text-anchor="middle" x="339.5" y="-210.84" font-family="Helvetica,sans-Serif" font-size="10.00">current_token</text>
</g>
<!-- Node24 -->
<g id="node24" class="node">
<title>Node24</title>
<g id="a_node24"><a xlink:href="structcpuid__result__t.html" target="_top" xlink:title="CPUID instruction result.">
<polygon fill="none" stroke="black" points="297,-162.34 297,-181.34 382,-181.34 382,-162.34 297,-162.34"/>
<text text-anchor="middle" x="339.5" y="-169.34" font-family="Helvetica,sans-Serif" font-size="10.00">cpuid_result_t</text>
</a>
</g>
</g>
<!-- Node3&#45;&gt;Node24 -->
<g id="edge55" class="edge">
<title>Node3&#45;&gt;Node24</title>
<path fill="none" stroke="#9a32cd" stroke-dasharray="5,2" d="M163.8,-116.56C189.62,-102.02 232.39,-84.32 262,-104.84 280.73,-117.81 263.53,-137.09 280,-152.84 284.79,-157.41 290.68,-160.88 296.88,-163.52"/>
<polygon fill="#9a32cd" stroke="#9a32cd" points="161.94,-113.59 155.11,-121.69 165.5,-119.62 161.94,-113.59"/>
<text text-anchor="middle" x="228" y="-140.84" font-family="Helvetica,sans-Serif" font-size="10.00"> eax</text>
<text text-anchor="middle" x="228" y="-129.84" font-family="Helvetica,sans-Serif" font-size="10.00">ebx</text>
<text text-anchor="middle" x="228" y="-118.84" font-family="Helvetica,sans-Serif" font-size="10.00">ecx</text>
<text text-anchor="middle" x="228" y="-107.84" font-family="Helvetica,sans-Serif" font-size="10.00">edx</text>
</g>
<!-- Node4 -->
<g id="node4" class="node">
<title>Node4</title>
<g id="a_node4"><a xlink:title=" ">
<polygon fill="none" stroke="black" points="115.5,-872.34 115.5,-891.34 165.5,-891.34 165.5,-872.34 115.5,-872.34"/>
<text text-anchor="middle" x="140.5" y="-879.34" font-family="Helvetica,sans-Serif" font-size="10.00">int64_t</text>
</a>
</g>
</g>
<!-- Node4&#45;&gt;Node1 -->
<g id="edge3" class="edge">
<title>Node4&#45;&gt;Node1</title>
<path fill="none" stroke="#9a32cd" stroke-dasharray="5,2" d="M175.58,-875.01C270.05,-856.02 528.78,-803.53 535,-796.84 575.83,-752.89 581.98,-551.17 582.86,-504.49"/>
<polygon fill="#9a32cd" stroke="#9a32cd" points="174.78,-871.6 165.67,-877 176.16,-878.46 174.78,-871.6"/>
<text text-anchor="middle" x="339.5" y="-877.84" font-family="Helvetica,sans-Serif" font-size="10.00"> current_linenum</text>
<text text-anchor="middle" x="339.5" y="-866.84" font-family="Helvetica,sans-Serif" font-size="10.00">eval_linenum</text>
<text text-anchor="middle" x="339.5" y="-855.84" font-family="Helvetica,sans-Serif" font-size="10.00">highest_line</text>
</g>
<!-- Node4&#45;&gt;Node6 -->
<g id="edge7" class="edge">
<title>Node4&#45;&gt;Node6</title>
<path fill="none" stroke="#9a32cd" stroke-dasharray="5,2" d="M146.59,-862.36C153.42,-840.55 167.83,-806.14 194,-789.84 227.49,-768.97 274.25,-770.31 305.41,-774.47"/>
<polygon fill="#9a32cd" stroke="#9a32cd" points="143.17,-861.61 143.76,-872.18 149.89,-863.54 143.17,-861.61"/>
<text text-anchor="middle" x="228" y="-792.84" font-family="Helvetica,sans-Serif" font-size="10.00"> value</text>
</g>
<!-- Node4&#45;&gt;Node12 -->
<g id="edge22" class="edge">
<title>Node4&#45;&gt;Node12</title>
<path fill="none" stroke="#9a32cd" stroke-dasharray="5,2" d="M175.59,-894.04C201.11,-904.26 235.94,-920.58 262,-941.84 272.06,-950.04 269.36,-957.39 280,-964.84 288.66,-970.89 299.37,-975.11 309.25,-978"/>
<polygon fill="#9a32cd" stroke="#9a32cd" points="176.56,-890.66 165.97,-890.3 174.02,-897.19 176.56,-890.66"/>
<text text-anchor="middle" x="228" y="-966.84" font-family="Helvetica,sans-Serif" font-size="10.00"> line_after_for</text>
<text text-anchor="middle" x="228" y="-955.84" font-family="Helvetica,sans-Serif" font-size="10.00">step</text>
<text text-anchor="middle" x="228" y="-944.84" font-family="Helvetica,sans-Serif" font-size="10.00">to</text>
</g>
<!-- Node4&#45;&gt;Node13 -->
<g id="edge27" class="edge">
<title>Node4&#45;&gt;Node13</title>
<path fill="none" stroke="#9a32cd" stroke-dasharray="5,2" d="M155.02,-899.48C161.8,-908.81 169.87,-920.61 176,-931.84 185.94,-950.01 179.88,-959.67 194,-974.84 224.36,-1007.44 272.52,-1027.65 304.8,-1038.32"/>
<polygon fill="#9a32cd" stroke="#9a32cd" points="157.78,-897.34 149,-891.41 152.17,-901.52 157.78,-897.34"/>
<text text-anchor="middle" x="228" y="-1021.84" font-family="Helvetica,sans-Serif" font-size="10.00"> line</text>
</g>
<!-- Node4&#45;&gt;Node16 -->
<g id="edge35" class="edge">
<title>Node4&#45;&gt;Node16</title>
<path fill="none" stroke="#9a32cd" stroke-dasharray="5,2" d="M175.73,-877.68C200.18,-875.77 233.63,-875.36 262,-882.84 270.85,-885.17 271.75,-888.87 280,-892.84 290.78,-898.02 302.99,-903.14 313.45,-907.31"/>
<polygon fill="#9a32cd" stroke="#9a32cd" points="175.16,-874.21 165.51,-878.6 175.78,-881.19 175.16,-874.21"/>
<text text-anchor="middle" x="228" y="-885.84" font-family="Helvetica,sans-Serif" font-size="10.00"> values</text>
</g>
<!-- Node5 -->
<g id="node5" class="node">
<title>Node5</title>
<g id="a_node5"><a xlink:title=" ">
<polygon fill="none" stroke="black" points="121.5,-499.34 121.5,-518.34 159.5,-518.34 159.5,-499.34 121.5,-499.34"/>
<text text-anchor="middle" x="140.5" y="-506.34" font-family="Helvetica,sans-Serif" font-size="10.00">bool</text>
</a>
</g>
</g>
<!-- Node5&#45;&gt;Node1 -->
<g id="edge4" class="edge">
<title>Node5&#45;&gt;Node1</title>
<path fill="none" stroke="#9a32cd" stroke-dasharray="5,2" d="M170.13,-507.75C198.14,-506.7 242,-505.09 280,-503.84 379.94,-500.55 498.44,-497.18 552.89,-495.67"/>
<polygon fill="#9a32cd" stroke="#9a32cd" points="169.73,-504.26 159.87,-508.13 169.99,-511.26 169.73,-504.26"/>
<text text-anchor="middle" x="339.5" y="-517.84" font-family="Helvetica,sans-Serif" font-size="10.00"> ended</text>
<text text-anchor="middle" x="339.5" y="-506.84" font-family="Helvetica,sans-Serif" font-size="10.00">errored</text>
</g>
<!-- Node5&#45;&gt;Node6 -->
<g id="edge8" class="edge">
<title>Node5&#45;&gt;Node6</title>
<path fill="none" stroke="#9a32cd" stroke-dasharray="5,2" d="M164.8,-524.98C169.15,-529.02 173.2,-533.69 176,-538.84 203.04,-588.52 168.32,-614.43 194,-664.84 213.12,-702.36 236.07,-697.65 262,-730.84 271.81,-743.39 267.61,-751.82 280,-761.84 287.31,-767.74 296.51,-771.83 305.43,-774.66"/>
<polygon fill="#9a32cd" stroke="#9a32cd" points="166.8,-522.09 156.86,-518.42 162.34,-527.49 166.8,-522.09"/>
<text text-anchor="middle" x="228" y="-733.84" font-family="Helvetica,sans-Serif" font-size="10.00"> global</text>
</g>
<!-- Node5&#45;&gt;Node7 -->
<g id="edge12" class="edge">
<title>Node5&#45;&gt;Node7</title>
<path fill="none" stroke="#9a32cd" stroke-dasharray="5,2" d="M169.74,-513.99C203.33,-520.13 259.66,-530.43 297.92,-537.42"/>
<polygon fill="#9a32cd" stroke="#9a32cd" points="170.15,-510.51 159.68,-512.16 168.89,-517.4 170.15,-510.51"/>
<text text-anchor="middle" x="228" y="-532.84" font-family="Helvetica,sans-Serif" font-size="10.00"> global</text>
</g>
<!-- Node5&#45;&gt;Node8 -->
<g id="edge17" class="edge">
<title>Node5&#45;&gt;Node8</title>
<path fill="none" stroke="#9a32cd" stroke-dasharray="5,2" d="M165.29,-493.55C195.59,-473.86 245.96,-440.33 262,-424.84 271.59,-415.57 270.78,-410.47 280,-400.84 293.99,-386.22 312.32,-371.82 324.7,-362.66"/>
<polygon fill="#9a32cd" stroke="#9a32cd" points="163.08,-490.81 156.59,-499.18 166.88,-496.69 163.08,-490.81"/>
<text text-anchor="middle" x="228" y="-475.84" font-family="Helvetica,sans-Serif" font-size="10.00"> global</text>
</g>
<!-- Node6&#45;&gt;Node1 -->
<g id="edge5" class="edge">
<title>Node6&#45;&gt;Node1</title>
<path fill="none" stroke="#9a32cd" stroke-dasharray="5,2" d="M383.77,-777.76C428.34,-772.19 496.56,-756.59 535,-712.84 563.2,-680.74 578.43,-542.2 582.11,-504.4"/>
<polygon fill="#9a32cd" stroke="#9a32cd" points="383.35,-774.28 373.81,-778.88 384.14,-781.24 383.35,-774.28"/>
<text text-anchor="middle" x="476" y="-784.84" font-family="Helvetica,sans-Serif" font-size="10.00"> int_variables</text>
<text text-anchor="middle" x="476" y="-773.84" font-family="Helvetica,sans-Serif" font-size="10.00">local_int_variables</text>
</g>
<!-- Node6&#45;&gt;Node6 -->
<g id="edge9" class="edge">
<title>Node6&#45;&gt;Node6</title>
<path fill="none" stroke="#9a32cd" stroke-dasharray="5,2" d="M319.13,-800.24C320.49,-805.15 327.28,-808.84 339.5,-808.84 359.05,-808.84 364.7,-799.4 356.45,-790.59"/>
<polygon fill="#9a32cd" stroke="#9a32cd" points="322.51,-801.19 322.55,-790.59 315.91,-798.85 322.51,-801.19"/>
<text text-anchor="middle" x="339.5" y="-811.84" font-family="Helvetica,sans-Serif" font-size="10.00"> next</text>
</g>
<!-- Node7&#45;&gt;Node1 -->
<g id="edge10" class="edge">
<title>Node7&#45;&gt;Node1</title>
<path fill="none" stroke="#9a32cd" stroke-dasharray="5,2" d="M391.26,-536.88C430.68,-530.36 486.59,-520.34 535,-508.84 540.83,-507.45 547,-505.79 552.91,-504.11"/>
<polygon fill="#9a32cd" stroke="#9a32cd" points="390.66,-533.43 381.36,-538.5 391.79,-540.34 390.66,-533.43"/>
<text text-anchor="middle" x="476" y="-545.84" font-family="Helvetica,sans-Serif" font-size="10.00"> local_string_variables</text>
<text text-anchor="middle" x="476" y="-534.84" font-family="Helvetica,sans-Serif" font-size="10.00">str_variables</text>
</g>
<!-- Node7&#45;&gt;Node7 -->
<g id="edge13" class="edge">
<title>Node7&#45;&gt;Node7</title>
<path fill="none" stroke="#9a32cd" stroke-dasharray="5,2" d="M319.13,-564.24C320.49,-569.15 327.28,-572.84 339.5,-572.84 359.05,-572.84 364.7,-563.4 356.45,-554.59"/>
<polygon fill="#9a32cd" stroke="#9a32cd" points="322.51,-565.19 322.55,-554.59 315.91,-562.85 322.51,-565.19"/>
<text text-anchor="middle" x="339.5" y="-575.84" font-family="Helvetica,sans-Serif" font-size="10.00"> next</text>
</g>
<!-- Node8&#45;&gt;Node1 -->
<g id="edge14" class="edge">
<title>Node8&#45;&gt;Node1</title>
<path fill="none" stroke="#9a32cd" stroke-dasharray="5,2" d="M393.92,-357.5C436.09,-363.59 494.39,-377.6 535,-409.84 560.35,-429.96 574.59,-467.37 580.19,-485.07"/>
<polygon fill="#9a32cd" stroke="#9a32cd" points="394.21,-354.01 383.84,-356.15 393.28,-360.95 394.21,-354.01"/>
<text text-anchor="middle" x="476" y="-423.84" font-family="Helvetica,sans-Serif" font-size="10.00"> double_variables</text>
<text text-anchor="middle" x="476" y="-412.84" font-family="Helvetica,sans-Serif" font-size="10.00">local_double_variables</text>
</g>
<!-- Node8&#45;&gt;Node8 -->
<g id="edge18" class="edge">
<title>Node8&#45;&gt;Node8</title>
<path fill="none" stroke="#9a32cd" stroke-dasharray="5,2" d="M319.13,-372.24C320.49,-377.15 327.28,-380.84 339.5,-380.84 359.05,-380.84 364.7,-371.4 356.45,-362.59"/>
<polygon fill="#9a32cd" stroke="#9a32cd" points="322.51,-373.19 322.55,-362.59 315.91,-370.85 322.51,-373.19"/>
<text text-anchor="middle" x="339.5" y="-383.84" font-family="Helvetica,sans-Serif" font-size="10.00"> next</text>
</g>
<!-- Node9 -->
<g id="node9" class="node">
<title>Node9</title>
<g id="a_node9"><a xlink:title=" ">
<polygon fill="none" stroke="black" points="115.5,-387.34 115.5,-406.34 165.5,-406.34 165.5,-387.34 115.5,-387.34"/>
<text text-anchor="middle" x="140.5" y="-394.34" font-family="Helvetica,sans-Serif" font-size="10.00">double</text>
</a>
</g>
</g>
<!-- Node9&#45;&gt;Node8 -->
<g id="edge16" class="edge">
<title>Node9&#45;&gt;Node8</title>
<path fill="none" stroke="#9a32cd" stroke-dasharray="5,2" d="M175.83,-389.17C209.17,-381.72 259.87,-370.4 295.8,-362.37"/>
<polygon fill="#9a32cd" stroke="#9a32cd" points="174.65,-385.84 165.66,-391.44 176.18,-392.68 174.65,-385.84"/>
<text text-anchor="middle" x="228" y="-387.84" font-family="Helvetica,sans-Serif" font-size="10.00"> value</text>
</g>
<!-- Node9&#45;&gt;Node18 -->
<g id="edge44" class="edge">
<title>Node9&#45;&gt;Node18</title>
<path fill="none" stroke="#9a32cd" stroke-dasharray="5,2" d="M175.59,-400.82C204.24,-404.16 245.85,-409.02 279.84,-412.99"/>
<polygon fill="#9a32cd" stroke="#9a32cd" points="175.99,-397.34 165.66,-399.66 175.18,-404.29 175.99,-397.34"/>
<text text-anchor="middle" x="228" y="-412.84" font-family="Helvetica,sans-Serif" font-size="10.00"> values</text>
</g>
<!-- Node10 -->
<g id="node10" class="node">
<title>Node10</title>
<g id="a_node10"><a xlink:title=" ">
<polygon fill="none" stroke="black" points="112.5,-627.34 112.5,-646.34 168.5,-646.34 168.5,-627.34 112.5,-627.34"/>
<text text-anchor="middle" x="140.5" y="-634.34" font-family="Helvetica,sans-Serif" font-size="10.00">uint64_t</text>
</a>
</g>
</g>
<!-- Node10&#45;&gt;Node1 -->
<g id="edge19" class="edge">
<title>Node10&#45;&gt;Node1</title>
<path fill="none" stroke="#9a32cd" stroke-dasharray="5,2" d="M178.72,-632.98C265.11,-623.46 476.34,-596.76 535,-557.84 555.62,-544.15 570.98,-518.56 578.27,-504.58"/>
<polygon fill="#9a32cd" stroke="#9a32cd" points="178.14,-629.52 168.58,-634.08 178.9,-636.48 178.14,-629.52"/>
<text text-anchor="middle" x="339.5" y="-677.84" font-family="Helvetica,sans-Serif" font-size="10.00"> call_stack</text>
<text text-anchor="middle" x="339.5" y="-666.84" font-family="Helvetica,sans-Serif" font-size="10.00">call_stack_ptr</text>
<text text-anchor="middle" x="339.5" y="-655.84" font-family="Helvetica,sans-Serif" font-size="10.00">for_stack_ptr</text>
<text text-anchor="middle" x="339.5" y="-644.84" font-family="Helvetica,sans-Serif" font-size="10.00">if_nest_level</text>
<text text-anchor="middle" x="339.5" y="-633.84" font-family="Helvetica,sans-Serif" font-size="10.00">repeat_stack</text>
<text text-anchor="middle" x="339.5" y="-622.84" font-family="Helvetica,sans-Serif" font-size="10.00">repeat_stack_ptr</text>
</g>
<!-- Node10&#45;&gt;Node16 -->
<g id="edge33" class="edge">
<title>Node10&#45;&gt;Node16</title>
<path fill="none" stroke="#9a32cd" stroke-dasharray="5,2" d="M155.62,-654.82C162.82,-664.87 171.07,-677.95 176,-690.84 193.7,-737.1 170.03,-757.48 194,-800.84 213.5,-836.11 236.65,-829.5 262,-860.84 272.26,-873.52 267.77,-882.03 280,-892.84 286.99,-899.01 295.79,-903.74 304.42,-907.29"/>
<polygon fill="#9a32cd" stroke="#9a32cd" points="158.22,-652.44 149.43,-646.52 152.61,-656.63 158.22,-652.44"/>
<text text-anchor="middle" x="228" y="-863.84" font-family="Helvetica,sans-Serif" font-size="10.00"> itemcount</text>
</g>
<!-- Node10&#45;&gt;Node17 -->
<g id="edge38" class="edge">
<title>Node10&#45;&gt;Node17</title>
<path fill="none" stroke="#9a32cd" stroke-dasharray="5,2" d="M178.65,-633.5C204.33,-633.11 238.03,-636.59 262,-653.84 276.52,-664.28 266.89,-677.66 280,-689.84 286.68,-696.03 295.17,-700.74 303.61,-704.26"/>
<polygon fill="#9a32cd" stroke="#9a32cd" points="178.42,-630.01 168.55,-633.86 178.66,-637 178.42,-630.01"/>
<text text-anchor="middle" x="228" y="-656.84" font-family="Helvetica,sans-Serif" font-size="10.00"> itemcount</text>
</g>
<!-- Node10&#45;&gt;Node18 -->
<g id="edge42" class="edge">
<title>Node10&#45;&gt;Node18</title>
<path fill="none" stroke="#9a32cd" stroke-dasharray="5,2" d="M161.4,-620.6C171.15,-612.73 183.11,-603.19 194,-594.84 223.76,-572 241.1,-575.99 262,-544.84 280.38,-517.44 263.05,-501.13 280,-472.84 290.99,-454.5 310.31,-438.83 323.72,-429.38"/>
<polygon fill="#9a32cd" stroke="#9a32cd" points="159.05,-618 153.48,-627.02 163.46,-623.44 159.05,-618"/>
<text text-anchor="middle" x="228" y="-597.84" font-family="Helvetica,sans-Serif" font-size="10.00"> itemcount</text>
</g>
<!-- Node11 -->
<g id="node11" class="node">
<title>Node11</title>
<g id="a_node11"><a xlink:title=" ">
<polygon fill="none" stroke="black" points="118,-302.34 118,-321.34 163,-321.34 163,-302.34 118,-302.34"/>
<text text-anchor="middle" x="140.5" y="-309.34" font-family="Helvetica,sans-Serif" font-size="10.00">size_t</text>
</a>
</g>
</g>
<!-- Node11&#45;&gt;Node1 -->
<g id="edge20" class="edge">
<title>Node11&#45;&gt;Node1</title>
<path fill="none" stroke="#9a32cd" stroke-dasharray="5,2" d="M173.26,-310.96C257.28,-309.33 482.52,-309.64 535,-357.84 573.24,-392.95 581.02,-460.26 582.6,-485.22"/>
<polygon fill="#9a32cd" stroke="#9a32cd" points="172.97,-307.46 163.05,-311.18 173.13,-314.46 172.97,-307.46"/>
<text text-anchor="middle" x="339.5" y="-320.84" font-family="Helvetica,sans-Serif" font-size="10.00"> oldlen</text>
</g>
<!-- Node11&#45;&gt;Node19 -->
<g id="edge49" class="edge">
<title>Node11&#45;&gt;Node19</title>
<path fill="none" stroke="#9a32cd" stroke-dasharray="5,2" d="M169.12,-298.08C177,-294.61 185.7,-291.21 194,-288.84 234.46,-277.26 283.21,-271.87 312.48,-269.51"/>
<polygon fill="#9a32cd" stroke="#9a32cd" points="167.63,-294.92 160,-302.27 170.55,-301.28 167.63,-294.92"/>
<text text-anchor="middle" x="228" y="-291.84" font-family="Helvetica,sans-Serif" font-size="10.00"> bufcnt</text>
</g>
<!-- Node12&#45;&gt;Node1 -->
<g id="edge21" class="edge">
<title>Node12&#45;&gt;Node1</title>
<path fill="none" stroke="#9a32cd" stroke-dasharray="5,2" d="M380.06,-985.42C424.91,-984.86 496.74,-976.4 535,-931.84 563.9,-898.18 579.9,-565.2 582.59,-504.36"/>
<polygon fill="#9a32cd" stroke="#9a32cd" points="379.83,-981.92 369.83,-985.42 379.83,-988.92 379.83,-981.92"/>
<text text-anchor="middle" x="476" y="-984.84" font-family="Helvetica,sans-Serif" font-size="10.00"> for_stack</text>
</g>
<!-- Node13&#45;&gt;Node1 -->
<g id="edge24" class="edge">
<title>Node13&#45;&gt;Node1</title>
<path fill="none" stroke="#9a32cd" stroke-dasharray="5,2" d="M395.24,-1049.07C439.93,-1046.87 501.06,-1035.93 535,-995.84 568.03,-956.82 580.78,-570.54 582.73,-504.43"/>
<polygon fill="#9a32cd" stroke="#9a32cd" points="394.98,-1045.57 385.11,-1049.43 395.23,-1052.57 394.98,-1045.57"/>
<text text-anchor="middle" x="476" y="-1049.84" font-family="Helvetica,sans-Serif" font-size="10.00"> defs</text>
</g>
<!-- Node13&#45;&gt;Node13 -->
<g id="edge31" class="edge">
<title>Node13&#45;&gt;Node13</title>
<path fill="none" stroke="#9a32cd" stroke-dasharray="5,2" d="M319.13,-1067.24C320.49,-1072.15 327.28,-1075.84 339.5,-1075.84 359.05,-1075.84 364.7,-1066.4 356.45,-1057.59"/>
<polygon fill="#9a32cd" stroke="#9a32cd" points="322.51,-1068.19 322.55,-1057.59 315.91,-1065.85 322.51,-1068.19"/>
<text text-anchor="middle" x="339.5" y="-1078.84" font-family="Helvetica,sans-Serif" font-size="10.00"> next</text>
</g>
<!-- Node14 -->
<g id="node14" class="node">
<title>Node14</title>
<g id="a_node14"><a xlink:title=" ">
<polygon fill="none" stroke="black" points="105,-1077.34 105,-1096.34 176,-1096.34 176,-1077.34 105,-1077.34"/>
<text text-anchor="middle" x="140.5" y="-1084.34" font-family="Helvetica,sans-Serif" font-size="10.00">ub_fn_type</text>
</a>
</g>
</g>
<!-- Node14&#45;&gt;Node13 -->
<g id="edge26" class="edge">
<title>Node14&#45;&gt;Node13</title>
<path fill="none" stroke="#9a32cd" stroke-dasharray="5,2" d="M186.29,-1077.97C218.43,-1071.61 261.56,-1063.07 293.7,-1056.7"/>
<polygon fill="#9a32cd" stroke="#9a32cd" points="185.4,-1074.58 176.27,-1079.95 186.76,-1081.44 185.4,-1074.58"/>
<text text-anchor="middle" x="228" y="-1078.84" font-family="Helvetica,sans-Serif" font-size="10.00"> type</text>
</g>
<!-- Node15&#45;&gt;Node1 -->
<g id="edge52" class="edge">
<title>Node15&#45;&gt;Node1</title>
<path fill="none" stroke="#9a32cd" stroke-dasharray="5,2" d="M183.09,-1133.33C265.18,-1147.37 447.6,-1164.53 535,-1061.84 572.62,-1017.64 581.62,-576.79 582.84,-504.76"/>
<polygon fill="#9a32cd" stroke="#9a32cd" points="183.59,-1129.86 173.13,-1131.55 182.36,-1136.75 183.59,-1129.86"/>
<text text-anchor="middle" x="339.5" y="-1146.84" font-family="Helvetica,sans-Serif" font-size="10.00"> param</text>
</g>
<!-- Node15&#45;&gt;Node13 -->
<g id="edge28" class="edge">
<title>Node15&#45;&gt;Node13</title>
<path fill="none" stroke="#9a32cd" stroke-dasharray="5,2" d="M183.18,-1115.66C206.77,-1109.84 236.56,-1101.4 262,-1090.84 284.51,-1081.49 308.77,-1067.03 323.79,-1057.5"/>
<polygon fill="#9a32cd" stroke="#9a32cd" points="182.05,-1112.34 173.14,-1118.08 183.69,-1119.14 182.05,-1112.34"/>
<text text-anchor="middle" x="228" y="-1114.84" font-family="Helvetica,sans-Serif" font-size="10.00"> params</text>
</g>
<!-- Node15&#45;&gt;Node15 -->
<g id="edge30" class="edge">
<title>Node15&#45;&gt;Node15</title>
<path fill="none" stroke="#9a32cd" stroke-dasharray="5,2" d="M127.98,-1144.6C128.96,-1149.33 133.14,-1152.84 140.5,-1152.84 152.59,-1152.84 156.08,-1143.4 150.98,-1134.59"/>
<polygon fill="#9a32cd" stroke="#9a32cd" points="131.45,-1145.09 130.02,-1134.59 124.59,-1143.69 131.45,-1145.09"/>
<text text-anchor="middle" x="140.5" y="-1155.84" font-family="Helvetica,sans-Serif" font-size="10.00"> next</text>
</g>
<!-- Node16&#45;&gt;Node1 -->
<g id="edge32" class="edge">
<title>Node16&#45;&gt;Node1</title>
<path fill="none" stroke="#9a32cd" stroke-dasharray="5,2" d="M398.52,-919.19C442.56,-917.6 501.13,-907.64 535,-869.84 585.14,-813.86 583.99,-557.96 583.18,-504.6"/>
<polygon fill="#9a32cd" stroke="#9a32cd" points="398.43,-915.69 388.51,-919.42 398.59,-922.69 398.43,-915.69"/>
<text text-anchor="middle" x="476" y="-919.84" font-family="Helvetica,sans-Serif" font-size="10.00"> int_array_variables</text>
</g>
<!-- Node16&#45;&gt;Node16 -->
<g id="edge36" class="edge">
<title>Node16&#45;&gt;Node16</title>
<path fill="none" stroke="#9a32cd" stroke-dasharray="5,2" d="M319.13,-936.24C320.49,-941.15 327.28,-944.84 339.5,-944.84 359.05,-944.84 364.7,-935.4 356.45,-926.59"/>
<polygon fill="#9a32cd" stroke="#9a32cd" points="322.51,-937.19 322.55,-926.59 315.91,-934.85 322.51,-937.19"/>
<text text-anchor="middle" x="339.5" y="-947.84" font-family="Helvetica,sans-Serif" font-size="10.00"> next</text>
</g>
<!-- Node17&#45;&gt;Node1 -->
<g id="edge37" class="edge">
<title>Node17&#45;&gt;Node1</title>
<path fill="none" stroke="#9a32cd" stroke-dasharray="5,2" d="M404.39,-701.86C446.65,-690.85 500.44,-670.47 535,-633.84 570.92,-595.77 580.09,-529.53 582.32,-504.65"/>
<polygon fill="#9a32cd" stroke="#9a32cd" points="403.32,-698.52 394.47,-704.33 405.01,-705.31 403.32,-698.52"/>
<text text-anchor="middle" x="476" y="-700.84" font-family="Helvetica,sans-Serif" font-size="10.00"> string_array_variables</text>
</g>
<!-- Node17&#45;&gt;Node17 -->
<g id="edge40" class="edge">
<title>Node17&#45;&gt;Node17</title>
<path fill="none" stroke="#9a32cd" stroke-dasharray="5,2" d="M319.13,-733.24C320.49,-738.15 327.28,-741.84 339.5,-741.84 359.05,-741.84 364.7,-732.4 356.45,-723.59"/>
<polygon fill="#9a32cd" stroke="#9a32cd" points="322.51,-734.19 322.55,-723.59 315.91,-731.85 322.51,-734.19"/>
<text text-anchor="middle" x="339.5" y="-744.84" font-family="Helvetica,sans-Serif" font-size="10.00"> next</text>
</g>
<!-- Node18&#45;&gt;Node1 -->
<g id="edge41" class="edge">
<title>Node18&#45;&gt;Node1</title>
<path fill="none" stroke="#9a32cd" stroke-dasharray="5,2" d="M400.37,-431.51C439.41,-440.02 491.07,-453 535,-469.84 546.06,-474.07 557.86,-480.19 566.99,-485.32"/>
<polygon fill="#9a32cd" stroke="#9a32cd" points="400.74,-428.01 390.23,-429.34 399.27,-434.85 400.74,-428.01"/>
<text text-anchor="middle" x="476" y="-472.84" font-family="Helvetica,sans-Serif" font-size="10.00"> double_array_variables</text>
</g>
<!-- Node18&#45;&gt;Node18 -->
<g id="edge45" class="edge">
<title>Node18&#45;&gt;Node18</title>
<path fill="none" stroke="#9a32cd" stroke-dasharray="5,2" d="M319.13,-439.24C320.49,-444.15 327.28,-447.84 339.5,-447.84 359.05,-447.84 364.7,-438.4 356.45,-429.59"/>
<polygon fill="#9a32cd" stroke="#9a32cd" points="322.51,-440.19 322.55,-429.59 315.91,-437.85 322.51,-440.19"/>
<text text-anchor="middle" x="339.5" y="-450.84" font-family="Helvetica,sans-Serif" font-size="10.00"> next</text>
</g>
<!-- Node19&#45;&gt;Node1 -->
<g id="edge46" class="edge">
<title>Node19&#45;&gt;Node1</title>
<path fill="none" stroke="#9a32cd" stroke-dasharray="5,2" d="M376.63,-260.45C419.81,-253.88 491.66,-250.46 535,-288.84 565.17,-315.55 578.89,-447.9 582.19,-485.1"/>
<polygon fill="#9a32cd" stroke="#9a32cd" points="375.86,-257.03 366.56,-262.11 377,-263.93 375.86,-257.03"/>
<text text-anchor="middle" x="476" y="-291.84" font-family="Helvetica,sans-Serif" font-size="10.00"> cons</text>
</g>
<!-- Node20 -->
<g id="node20" class="node">
<title>Node20</title>
<g id="a_node20"><a xlink:title=" ">
<polygon fill="none" stroke="black" points="115.5,-186.34 115.5,-205.34 165.5,-205.34 165.5,-186.34 115.5,-186.34"/>
<text text-anchor="middle" x="140.5" y="-193.34" font-family="Helvetica,sans-Serif" font-size="10.00">uint8_t</text>
</a>
</g>
</g>
<!-- Node20&#45;&gt;Node19 -->
<g id="edge48" class="edge">
<title>Node20&#45;&gt;Node19</title>
<path fill="none" stroke="#9a32cd" stroke-dasharray="5,2" d="M175.41,-186.55C201.41,-181.53 236.96,-179.46 262,-196.84 280.38,-209.59 264.37,-227.83 280,-243.84 288.67,-252.71 301.08,-258.43 312.25,-262.04"/>
<polygon fill="#9a32cd" stroke="#9a32cd" points="174.64,-183.13 165.6,-188.66 176.12,-189.98 174.64,-183.13"/>
<text text-anchor="middle" x="228" y="-232.84" font-family="Helvetica,sans-Serif" font-size="10.00"> attributes</text>
<text text-anchor="middle" x="228" y="-221.84" font-family="Helvetica,sans-Serif" font-size="10.00">last</text>
<text text-anchor="middle" x="228" y="-210.84" font-family="Helvetica,sans-Serif" font-size="10.00">x</text>
<text text-anchor="middle" x="228" y="-199.84" font-family="Helvetica,sans-Serif" font-size="10.00">y</text>
</g>
<!-- Node21 -->
<g id="node21" class="node">
<title>Node21</title>
<g id="a_node21"><a xlink:title=" ">
<polygon fill="none" stroke="black" points="294.5,-124.34 294.5,-143.34 384.5,-143.34 384.5,-124.34 294.5,-124.34"/>
<text text-anchor="middle" x="339.5" y="-131.34" font-family="Helvetica,sans-Serif" font-size="10.00">ub_return_type</text>
</a>
</g>
</g>
<!-- Node21&#45;&gt;Node1 -->
<g id="edge50" class="edge">
<title>Node21&#45;&gt;Node1</title>
<path fill="none" stroke="#9a32cd" stroke-dasharray="5,2" d="M382.94,-122.04C426.81,-112.67 494.46,-106.59 535,-143.84 586.74,-191.38 584.36,-433.69 583.25,-485.2"/>
<polygon fill="#9a32cd" stroke="#9a32cd" points="382.11,-118.64 373.14,-124.27 383.67,-125.46 382.11,-118.64"/>
<text text-anchor="middle" x="476" y="-146.84" font-family="Helvetica,sans-Serif" font-size="10.00"> fn_type</text>
</g>
<!-- Node22 -->
<g id="node22" class="node">
<title>Node22</title>
<g id="a_node22"><a xlink:title=" ">
<polygon fill="none" stroke="black" points="316.5,-86.34 316.5,-105.34 362.5,-105.34 362.5,-86.34 316.5,-86.34"/>
<text text-anchor="middle" x="339.5" y="-93.34" font-family="Helvetica,sans-Serif" font-size="10.00">void *</text>
</a>
</g>
</g>
<!-- Node22&#45;&gt;Node1 -->
<g id="edge51" class="edge">
<title>Node22&#45;&gt;Node1</title>
<path fill="none" stroke="#9a32cd" stroke-dasharray="5,2" d="M372.43,-85.16C415.2,-73.08 490.82,-59.88 535,-99.84 564.59,-126.59 579.86,-426.68 582.56,-485.04"/>
<polygon fill="#9a32cd" stroke="#9a32cd" points="371.4,-81.81 362.81,-88.01 373.39,-88.52 371.4,-81.81"/>
<text text-anchor="middle" x="476" y="-102.84" font-family="Helvetica,sans-Serif" font-size="10.00"> fn_return</text>
</g>
<!-- Node23 -->
<g id="node23" class="node">
<title>Node23</title>
<g id="a_node23"><a xlink:title=" ">
<polygon fill="none" stroke="black" points="314.5,-48.34 314.5,-67.34 364.5,-67.34 364.5,-48.34 314.5,-48.34"/>
<text text-anchor="middle" x="339.5" y="-55.34" font-family="Helvetica,sans-Serif" font-size="10.00">int32_t</text>
</a>
</g>
</g>
<!-- Node23&#45;&gt;Node1 -->
<g id="edge53" class="edge">
<title>Node23&#45;&gt;Node1</title>
<path fill="none" stroke="#9a32cd" stroke-dasharray="5,2" d="M374.46,-52.65C423.87,-45.94 512.17,-37.37 535,-57.84 568.04,-87.44 580.66,-423.72 582.7,-485.21"/>
<polygon fill="#9a32cd" stroke="#9a32cd" points="373.96,-49.18 364.55,-54.04 374.94,-56.12 373.96,-49.18"/>
<text text-anchor="middle" x="476" y="-60.84" font-family="Helvetica,sans-Serif" font-size="10.00"> graphics_colour</text>
</g>
<!-- Node24&#45;&gt;Node1 -->
<g id="edge54" class="edge">
<title>Node24&#45;&gt;Node1</title>
<path fill="none" stroke="#9a32cd" stroke-dasharray="5,2" d="M392.35,-161.78C436.18,-156.53 497.64,-157.3 535,-192.84 578.47,-234.18 582.6,-437.89 582.97,-485.07"/>
<polygon fill="#9a32cd" stroke="#9a32cd" points="391.61,-158.35 382.17,-163.15 392.54,-165.29 391.61,-158.35"/>
<text text-anchor="middle" x="476" y="-195.84" font-family="Helvetica,sans-Serif" font-size="10.00"> last_cpuid_result</text>
</g>
<!-- Node25 -->
<g id="node25" class="node">
<title>Node25</title>
<g id="a_node25"><a xlink:title=" ">
<polygon fill="none" stroke="black" points="289,-10.34 289,-29.34 390,-29.34 390,-10.34 289,-10.34"/>
<text text-anchor="middle" x="339.5" y="-17.34" font-family="Helvetica,sans-Serif" font-size="10.00">struct hashmap *</text>
</a>
</g>
</g>
<!-- Node25&#45;&gt;Node1 -->
<g id="edge56" class="edge">
<title>Node25&#45;&gt;Node1</title>
<path fill="none" stroke="#9a32cd" stroke-dasharray="5,2" d="M382.06,-8.02C426.1,1.7 494.74,8.4 535,-29.84 569.28,-62.39 580.92,-420.88 582.74,-485.04"/>
<polygon fill="#9a32cd" stroke="#9a32cd" points="381.17,-4.64 372.24,-10.33 382.77,-11.45 381.17,-4.64"/>
<text text-anchor="middle" x="476" y="-32.84" font-family="Helvetica,sans-Serif" font-size="10.00"> lines</text>
</g>
</g>
</svg>
        <g id="navigator" transform="translate(0 0)" fill="#404254">
                <rect fill="#f2f5e9" fill-opacity="0.5" stroke="#606060" stroke-width=".5" x="0" y="0" width="60" height="60"/>
                <use id="zoomplus" xlink:href="#zoomPlus" x="17" y="9" onmousedown="handleZoom(evt,'in')"/>
                <use id="zoomminus" xlink:href="#zoomMin" x="42" y="9" onmousedown="handleZoom(evt,'out')"/>
                <use id="reset" xlink:href="#resetDef" x="30" y="36" onmousedown="handleReset()"/>
                <g id="arrowUp" xlink:href="#dirArrow" transform="translate(30 24)" onmousedown="handlePan(0,-1)">
                  <use xlink:href="#rim" fill="#404040">
                        <set attributeName="fill" to="#808080" begin="arrowUp.mouseover" end="arrowUp.mouseout"/>
                  </use>
                  <path fill="none" stroke="white" stroke-width="1.5" d="M0,-3.0v7 M-2.5,-0.5L0,-3.0L2.5,-0.5"/>
                </g>
                <g id="arrowRight" xlink:href="#dirArrow" transform="rotate(90) translate(36 -43)" onmousedown="handlePan(1,0)">
                  <use xlink:href="#rim" fill="#404040">
                        <set attributeName="fill" to="#808080" begin="arrowRight.mouseover" end="arrowRight.mouseout"/>
                  </use>
                  <path fill="none" stroke="white" stroke-width="1.5" d="M0,-3.0v7 M-2.5,-0.5L0,-3.0L2.5,-0.5"/>
                </g>
                <g id="arrowDown" xlink:href="#dirArrow" transform="rotate(180) translate(-30 -48)" onmousedown="handlePan(0,1)">
                  <use xlink:href="#rim" fill="#404040">
                        <set attributeName="fill" to="#808080" begin="arrowDown.mouseover" end="arrowDown.mouseout"/>
                  </use>
                  <path fill="none" stroke="white" stroke-width="1.5" d="M0,-3.0v7 M-2.5,-0.5L0,-3.0L2.5,-0.5"/>
                </g>
                <g id="arrowLeft" xlink:href="#dirArrow" transform="rotate(270) translate(-36 17)" onmousedown="handlePan(-1,0)">
                  <use xlink:href="#rim" fill="#404040">
                        <set attributeName="fill" to="#808080" begin="arrowLeft.mouseover" end="arrowLeft.mouseout"/>
                  </use>
                  <path fill="none" stroke="white" stroke-width="1.5" d="M0,-3.0v7 M-2.5,-0.5L0,-3.0L2.5,-0.5"/>
                </g>
        </g>
        <svg viewBox="0 0 15 15" width="100%" height="30px" preserveAspectRatio="xMaxYMin meet">
         <g id="arrow_out" transform="scale(0.3 0.3)">
          <a xlink:href="structbasic__ctx__coll__graph_org.svg" target="_base">
           <rect id="button" ry="5" rx="5" y="6" x="6" height="38" width="38"
                fill="#f2f5e9" fill-opacity="0.5" stroke="#606060" stroke-width="1.0"/>
           <path id="arrow"
             d="M 11.500037,31.436501 C 11.940474,20.09759 22.043105,11.32322 32.158766,21.979434 L 37.068811,17.246167 C 37.068811,17.246167 37.088388,32 37.088388,32 L 22.160133,31.978069 C 22.160133,31.978069 26.997745,27.140456 26.997745,27.140456 C 18.528582,18.264221 13.291696,25.230495 11.500037,31.436501 z"
             style="fill:#404040;"/>
          </a>
         </g>
        </svg>
</svg>
