<?xml version="1.0" encoding="UTF-8" standalone="no"?>
<!DOCTYPE svg PUBLIC "-//W3C//DTD SVG 1.1//EN"
 "http://www.w3.org/Graphics/SVG/1.1/DTD/svg11.dtd">
<!-- Generated by graphviz version 2.43.0 (0)
 -->
<!-- Title: tcp_conn_t Pages: 1 -->
<svg width="727pt" height="285pt"
 viewBox="0.00 0.00 727.00 285.00" xmlns="http://www.w3.org/2000/svg" xmlns:xlink="http://www.w3.org/1999/xlink">
<g id="graph0" class="graph" transform="scale(1 1) rotate(0) translate(4 281)">
<title>tcp_conn_t</title>
<!-- Node1 -->
<g id="node1" class="node">
<title>Node1</title>
<g id="a_node1"><a xlink:title=" ">
<polygon fill="#bfbfbf" stroke="black" points="326.5,-0.5 326.5,-19.5 395.5,-19.5 395.5,-0.5 326.5,-0.5"/>
<text text-anchor="middle" x="361" y="-7.5" font-family="Helvetica,sans-Serif" font-size="10.00">tcp_conn_t</text>
</a>
</g>
</g>
<!-- Node2 -->
<g id="node2" class="node">
<title>Node2</title>
<g id="a_node2"><a xlink:title=" ">
<polygon fill="none" stroke="#bfbfbf" points="0,-189.5 0,-208.5 56,-208.5 56,-189.5 0,-189.5"/>
<text text-anchor="middle" x="28" y="-196.5" font-family="Helvetica,sans-Serif" font-size="10.00">uint16_t</text>
</a>
</g>
</g>
<!-- Node2&#45;&gt;Node1 -->
<g id="edge1" class="edge">
<title>Node2&#45;&gt;Node1</title>
<path fill="none" stroke="#9a32cd" stroke-dasharray="5,2" d="M25.33,-179.03C21.73,-145.07 19.83,-74.05 60,-38 79.47,-20.52 251.39,-13.89 326.33,-11.81"/>
<polygon fill="#9a32cd" stroke="#9a32cd" points="21.91,-179.89 26.6,-189.39 28.85,-179.03 21.91,-179.89"/>
<text text-anchor="middle" x="90.5" y="-107" font-family="Helvetica,sans-Serif" font-size="10.00"> local_port</text>
<text text-anchor="middle" x="90.5" y="-96" font-family="Helvetica,sans-Serif" font-size="10.00">remote_port</text>
</g>
<!-- Node3 -->
<g id="node3" class="node">
<title>Node3</title>
<g id="a_node3"><a xlink:title=" ">
<polygon fill="none" stroke="#bfbfbf" points="74.5,-189.5 74.5,-208.5 175.5,-208.5 175.5,-189.5 74.5,-189.5"/>
<text text-anchor="middle" x="125" y="-196.5" font-family="Helvetica,sans-Serif" font-size="10.00">enum tcp_state_t</text>
</a>
</g>
</g>
<!-- Node3&#45;&gt;Node1 -->
<g id="edge2" class="edge">
<title>Node3&#45;&gt;Node1</title>
<path fill="none" stroke="#9a32cd" stroke-dasharray="5,2" d="M124.2,-179.06C123.9,-145.14 128.61,-74.19 170,-38 192.69,-18.16 277.9,-12.87 326.49,-11.48"/>
<polygon fill="#9a32cd" stroke="#9a32cd" points="120.71,-179.49 124.47,-189.4 127.71,-179.31 120.71,-179.49"/>
<text text-anchor="middle" x="184" y="-101.5" font-family="Helvetica,sans-Serif" font-size="10.00"> state</text>
</g>
<!-- Node4 -->
<g id="node4" class="node">
<title>Node4</title>
<g id="a_node4"><a xlink:title=" ">
<polygon fill="none" stroke="#bfbfbf" points="219.5,-257.5 219.5,-276.5 264.5,-276.5 264.5,-257.5 219.5,-257.5"/>
<text text-anchor="middle" x="242" y="-264.5" font-family="Helvetica,sans-Serif" font-size="10.00">size_t</text>
</a>
</g>
</g>
<!-- Node4&#45;&gt;Node1 -->
<g id="edge3" class="edge">
<title>Node4&#45;&gt;Node1</title>
<path fill="none" stroke="#9a32cd" stroke-dasharray="5,2" d="M231.28,-248.44C222.95,-232.49 213.91,-208.4 221,-188 247.63,-111.4 322.73,-42.95 350.5,-19.55"/>
<polygon fill="#9a32cd" stroke="#9a32cd" points="228.27,-250.23 236.23,-257.22 234.37,-246.79 228.27,-250.23"/>
<text text-anchor="middle" x="260.5" y="-202" font-family="Helvetica,sans-Serif" font-size="10.00"> recv_buffer_len</text>
<text text-anchor="middle" x="260.5" y="-191" font-family="Helvetica,sans-Serif" font-size="10.00">send_buffer_len</text>
</g>
<!-- Node8 -->
<g id="node8" class="node">
<title>Node8</title>
<g id="a_node8"><a xlink:href="structtcp__ordered__list__t.html" target="_top" xlink:title=" ">
<polygon fill="none" stroke="black" points="309,-189.5 309,-208.5 413,-208.5 413,-189.5 309,-189.5"/>
<text text-anchor="middle" x="361" y="-196.5" font-family="Helvetica,sans-Serif" font-size="10.00">tcp_ordered_list_t</text>
</a>
</g>
</g>
<!-- Node4&#45;&gt;Node8 -->
<g id="edge8" class="edge">
<title>Node4&#45;&gt;Node8</title>
<path fill="none" stroke="#9a32cd" stroke-dasharray="5,2" d="M266.31,-252.51C290,-239.38 325.3,-219.8 345.44,-208.63"/>
<polygon fill="#9a32cd" stroke="#9a32cd" points="264.6,-249.46 257.56,-257.37 268,-255.58 264.6,-249.46"/>
<text text-anchor="middle" x="317.5" y="-231" font-family="Helvetica,sans-Serif" font-size="10.00"> len</text>
</g>
<!-- Node5 -->
<g id="node5" class="node">
<title>Node5</title>
<g id="a_node5"><a xlink:title=" ">
<polygon fill="none" stroke="#bfbfbf" points="474,-189.5 474,-208.5 530,-208.5 530,-189.5 474,-189.5"/>
<text text-anchor="middle" x="502" y="-196.5" font-family="Helvetica,sans-Serif" font-size="10.00">uint32_t</text>
</a>
</g>
</g>
<!-- Node5&#45;&gt;Node1 -->
<g id="edge4" class="edge">
<title>Node5&#45;&gt;Node1</title>
<path fill="none" stroke="#9a32cd" stroke-dasharray="5,2" d="M486.19,-181.59C483.2,-177.96 480.3,-174 478,-170 447.02,-116.15 475.31,-82.54 432,-38 422.26,-27.98 408.41,-21.63 395.53,-17.62"/>
<polygon fill="#9a32cd" stroke="#9a32cd" points="483.81,-184.18 493.06,-189.33 489.04,-179.53 483.81,-184.18"/>
<text text-anchor="middle" x="509.5" y="-162" font-family="Helvetica,sans-Serif" font-size="10.00"> irs</text>
<text text-anchor="middle" x="509.5" y="-151" font-family="Helvetica,sans-Serif" font-size="10.00">iss</text>
<text text-anchor="middle" x="509.5" y="-140" font-family="Helvetica,sans-Serif" font-size="10.00">local_addr</text>
<text text-anchor="middle" x="509.5" y="-129" font-family="Helvetica,sans-Serif" font-size="10.00">msl_time</text>
<text text-anchor="middle" x="509.5" y="-118" font-family="Helvetica,sans-Serif" font-size="10.00">rcv_lst</text>
<text text-anchor="middle" x="509.5" y="-107" font-family="Helvetica,sans-Serif" font-size="10.00">rcv_nxt</text>
<text text-anchor="middle" x="509.5" y="-96" font-family="Helvetica,sans-Serif" font-size="10.00">rcv_up</text>
<text text-anchor="middle" x="509.5" y="-85" font-family="Helvetica,sans-Serif" font-size="10.00">rcv_wnd</text>
<text text-anchor="start" x="478" y="-74" font-family="Helvetica,sans-Serif" font-size="10.00">recv_buffer</text>
<text text-anchor="middle" x="509.5" y="-63" font-family="Helvetica,sans-Serif" font-size="10.00">_spinlock</text>
<text text-anchor="middle" x="509.5" y="-52" font-family="Helvetica,sans-Serif" font-size="10.00">remote_addr</text>
<text text-anchor="middle" x="509.5" y="-41" font-family="Helvetica,sans-Serif" font-size="10.00">...</text>
</g>
<!-- Node6 -->
<g id="node6" class="node">
<title>Node6</title>
<g id="a_node6"><a xlink:title=" ">
<polygon fill="none" stroke="#bfbfbf" points="548.5,-189.5 548.5,-208.5 577.5,-208.5 577.5,-189.5 548.5,-189.5"/>
<text text-anchor="middle" x="563" y="-196.5" font-family="Helvetica,sans-Serif" font-size="10.00">int</text>
</a>
</g>
</g>
<!-- Node6&#45;&gt;Node1 -->
<g id="edge5" class="edge">
<title>Node6&#45;&gt;Node1</title>
<path fill="none" stroke="#9a32cd" stroke-dasharray="5,2" d="M563.12,-179.35C562.97,-141.51 560.38,-57.61 541,-38 521.29,-18.05 442.38,-12.78 395.84,-11.43"/>
<polygon fill="#9a32cd" stroke="#9a32cd" points="559.62,-179.49 563.11,-189.5 566.62,-179.5 559.62,-179.49"/>
<text text-anchor="middle" x="596.5" y="-112.5" font-family="Helvetica,sans-Serif" font-size="10.00"> fd</text>
<text text-anchor="middle" x="596.5" y="-101.5" font-family="Helvetica,sans-Serif" font-size="10.00">recv_eof_pos</text>
<text text-anchor="middle" x="596.5" y="-90.5" font-family="Helvetica,sans-Serif" font-size="10.00">send_eof_pos</text>
</g>
<!-- Node7 -->
<g id="node7" class="node">
<title>Node7</title>
<g id="a_node7"><a xlink:title=" ">
<polygon fill="none" stroke="#bfbfbf" points="628,-189.5 628,-208.5 678,-208.5 678,-189.5 628,-189.5"/>
<text text-anchor="middle" x="653" y="-196.5" font-family="Helvetica,sans-Serif" font-size="10.00">uint8_t</text>
</a>
</g>
</g>
<!-- Node7&#45;&gt;Node1 -->
<g id="edge6" class="edge">
<title>Node7&#45;&gt;Node1</title>
<path fill="none" stroke="#9a32cd" stroke-dasharray="5,2" d="M656.97,-179.24C662.86,-145.59 669.47,-75.07 631,-38 614.36,-21.96 464.56,-14.65 395.54,-12.1"/>
<polygon fill="#9a32cd" stroke="#9a32cd" points="653.45,-179 654.99,-189.48 660.32,-180.33 653.45,-179"/>
<text text-anchor="middle" x="690" y="-107" font-family="Helvetica,sans-Serif" font-size="10.00"> recv_buffer</text>
<text text-anchor="middle" x="690" y="-96" font-family="Helvetica,sans-Serif" font-size="10.00">send_buffer</text>
</g>
<!-- Node8&#45;&gt;Node1 -->
<g id="edge7" class="edge">
<title>Node8&#45;&gt;Node1</title>
<path fill="none" stroke="#9a32cd" stroke-dasharray="5,2" d="M361,-179.34C361,-139.62 361,-48 361,-19.57"/>
<polygon fill="#9a32cd" stroke="#9a32cd" points="357.5,-179.48 361,-189.48 364.5,-179.48 357.5,-179.48"/>
<text text-anchor="middle" x="394.5" y="-101.5" font-family="Helvetica,sans-Serif" font-size="10.00"> segment_list</text>
</g>
<!-- Node8&#45;&gt;Node8 -->
<g id="edge10" class="edge">
<title>Node8&#45;&gt;Node8</title>
<path fill="none" stroke="#9a32cd" stroke-dasharray="5,2" d="M423.4,-203.77C428.11,-202.71 431,-201.12 431,-199 431,-195.61 423.59,-193.58 413.2,-192.89"/>
<polygon fill="#9a32cd" stroke="#9a32cd" points="422.66,-200.34 413.2,-205.11 423.57,-207.28 422.66,-200.34"/>
<text text-anchor="middle" x="443.5" y="-202" font-family="Helvetica,sans-Serif" font-size="10.00"> next</text>
<text text-anchor="middle" x="443.5" y="-191" font-family="Helvetica,sans-Serif" font-size="10.00">prev</text>
</g>
<!-- Node9 -->
<g id="node9" class="node">
<title>Node9</title>
<g id="a_node9"><a xlink:title=" ">
<polygon fill="none" stroke="#bfbfbf" points="312.5,-257.5 312.5,-276.5 409.5,-276.5 409.5,-257.5 312.5,-257.5"/>
<text text-anchor="middle" x="361" y="-264.5" font-family="Helvetica,sans-Serif" font-size="10.00">tcp_segment_t *</text>
</a>
</g>
</g>
<!-- Node9&#45;&gt;Node8 -->
<g id="edge9" class="edge">
<title>Node9&#45;&gt;Node8</title>
<path fill="none" stroke="#9a32cd" stroke-dasharray="5,2" d="M361,-247.04C361,-234.47 361,-218.56 361,-208.84"/>
<polygon fill="#9a32cd" stroke="#9a32cd" points="357.5,-247.37 361,-257.37 364.5,-247.37 357.5,-247.37"/>
<text text-anchor="middle" x="384" y="-231" font-family="Helvetica,sans-Serif" font-size="10.00"> segment</text>
</g>
</g>
</svg>
