<?xml version="1.0" encoding="UTF-8" standalone="no"?>
<!DOCTYPE svg PUBLIC "-//W3C//DTD SVG 1.1//EN"
 "http://www.w3.org/Graphics/SVG/1.1/DTD/svg11.dtd">
<!-- Generated by graphviz version 2.43.0 (0)
 -->
<!-- Title: ahci_fis_pio_setup_t Pages: 1 -->
<svg width="132pt" height="205pt"
 viewBox="0.00 0.00 132.00 205.00" xmlns="http://www.w3.org/2000/svg" xmlns:xlink="http://www.w3.org/1999/xlink">
<g id="graph0" class="graph" transform="scale(1 1) rotate(0) translate(4 201)">
<title>ahci_fis_pio_setup_t</title>
<!-- Node1 -->
<g id="node1" class="node">
<title>Node1</title>
<g id="a_node1"><a xlink:title=" ">
<polygon fill="#bfbfbf" stroke="black" points="2.5,-0.5 2.5,-19.5 117.5,-19.5 117.5,-0.5 2.5,-0.5"/>
<text text-anchor="middle" x="60" y="-7.5" font-family="Helvetica,sans-Serif" font-size="10.00">ahci_fis_pio_setup_t</text>
</a>
</g>
</g>
<!-- Node2 -->
<g id="node2" class="node">
<title>Node2</title>
<g id="a_node2"><a xlink:title=" ">
<polygon fill="none" stroke="black" points="0,-177.5 0,-196.5 50,-196.5 50,-177.5 0,-177.5"/>
<text text-anchor="middle" x="25" y="-184.5" font-family="Helvetica,sans-Serif" font-size="10.00">uint8_t</text>
</a>
</g>
</g>
<!-- Node2&#45;&gt;Node1 -->
<g id="edge1" class="edge">
<title>Node2&#45;&gt;Node1</title>
<path fill="none" stroke="#9a32cd" stroke-dasharray="5,2" d="M21.69,-167.52C17.38,-138.47 12.51,-81.02 32,-38 35.34,-30.62 41.71,-24.22 47.52,-19.51"/>
<polygon fill="#9a32cd" stroke="#9a32cd" points="18.25,-168.18 23.32,-177.48 25.16,-167.05 18.25,-168.18"/>
<text text-anchor="middle" x="53" y="-151" font-family="Helvetica,sans-Serif" font-size="10.00"> counth</text>
<text text-anchor="middle" x="53" y="-140" font-family="Helvetica,sans-Serif" font-size="10.00">countl</text>
<text text-anchor="middle" x="53" y="-129" font-family="Helvetica,sans-Serif" font-size="10.00">d</text>
<text text-anchor="middle" x="53" y="-118" font-family="Helvetica,sans-Serif" font-size="10.00">device</text>
<text text-anchor="middle" x="53" y="-107" font-family="Helvetica,sans-Serif" font-size="10.00">e_status</text>
<text text-anchor="middle" x="53" y="-96" font-family="Helvetica,sans-Serif" font-size="10.00">error</text>
<text text-anchor="middle" x="53" y="-85" font-family="Helvetica,sans-Serif" font-size="10.00">fis_type</text>
<text text-anchor="middle" x="53" y="-74" font-family="Helvetica,sans-Serif" font-size="10.00">i</text>
<text text-anchor="middle" x="53" y="-63" font-family="Helvetica,sans-Serif" font-size="10.00">lba0</text>
<text text-anchor="middle" x="53" y="-52" font-family="Helvetica,sans-Serif" font-size="10.00">lba1</text>
<text text-anchor="middle" x="53" y="-41" font-family="Helvetica,sans-Serif" font-size="10.00">...</text>
</g>
<!-- Node3 -->
<g id="node3" class="node">
<title>Node3</title>
<g id="a_node3"><a xlink:title=" ">
<polygon fill="none" stroke="black" points="68,-177.5 68,-196.5 124,-196.5 124,-177.5 68,-177.5"/>
<text text-anchor="middle" x="96" y="-184.5" font-family="Helvetica,sans-Serif" font-size="10.00">uint16_t</text>
</a>
</g>
</g>
<!-- Node3&#45;&gt;Node1 -->
<g id="edge2" class="edge">
<title>Node3&#45;&gt;Node1</title>
<path fill="none" stroke="#9a32cd" stroke-dasharray="5,2" d="M95.19,-167.29C93.53,-138.77 88.55,-82.96 74,-38 71.92,-31.57 68.42,-24.82 65.44,-19.68"/>
<polygon fill="#9a32cd" stroke="#9a32cd" points="91.71,-167.62 95.71,-177.43 98.7,-167.27 91.71,-167.62"/>
<text text-anchor="middle" x="100.5" y="-96" font-family="Helvetica,sans-Serif" font-size="10.00"> tc</text>
</g>
</g>
</svg>
