<?xml version="1.0" encoding="UTF-8" standalone="no"?>
<!DOCTYPE svg PUBLIC "-//W3C//DTD SVG 1.1//EN"
 "http://www.w3.org/Graphics/SVG/1.1/DTD/svg11.dtd">
<!-- Generated by graphviz version 2.43.0 (0)
 -->
<!-- Title: elf_shdr Pages: 1 -->
<svg width="163pt" height="150pt"
 viewBox="0.00 0.00 163.00 150.00" xmlns="http://www.w3.org/2000/svg" xmlns:xlink="http://www.w3.org/1999/xlink">
<g id="graph0" class="graph" transform="scale(1 1) rotate(0) translate(4 146)">
<title>elf_shdr</title>
<!-- Node1 -->
<g id="node1" class="node">
<title>Node1</title>
<g id="a_node1"><a xlink:title="ELF section header (ELF64)">
<polygon fill="#bfbfbf" stroke="black" points="43,-0.5 43,-19.5 99,-19.5 99,-0.5 43,-0.5"/>
<text text-anchor="middle" x="71" y="-7.5" font-family="Helvetica,sans-Serif" font-size="10.00">elf_shdr</text>
</a>
</g>
</g>
<!-- Node2 -->
<g id="node2" class="node">
<title>Node2</title>
<g id="a_node2"><a xlink:title=" ">
<polygon fill="none" stroke="#bfbfbf" points="0,-122.5 0,-141.5 56,-141.5 56,-122.5 0,-122.5"/>
<text text-anchor="middle" x="28" y="-129.5" font-family="Helvetica,sans-Serif" font-size="10.00">uint64_t</text>
</a>
</g>
</g>
<!-- Node2&#45;&gt;Node1 -->
<g id="edge1" class="edge">
<title>Node2&#45;&gt;Node1</title>
<path fill="none" stroke="#9a32cd" stroke-dasharray="5,2" d="M23.31,-112.5C19.37,-92.73 16.2,-61.14 29,-38 33.45,-29.96 41.41,-23.95 49.22,-19.66"/>
<polygon fill="#9a32cd" stroke="#9a32cd" points="19.93,-113.39 25.55,-122.37 26.75,-111.84 19.93,-113.39"/>
<text text-anchor="middle" x="60.5" y="-96" font-family="Helvetica,sans-Serif" font-size="10.00"> sh_addr</text>
<text text-anchor="middle" x="60.5" y="-85" font-family="Helvetica,sans-Serif" font-size="10.00">sh_addralign</text>
<text text-anchor="middle" x="60.5" y="-74" font-family="Helvetica,sans-Serif" font-size="10.00">sh_entsize</text>
<text text-anchor="middle" x="60.5" y="-63" font-family="Helvetica,sans-Serif" font-size="10.00">sh_flags</text>
<text text-anchor="middle" x="60.5" y="-52" font-family="Helvetica,sans-Serif" font-size="10.00">sh_offset</text>
<text text-anchor="middle" x="60.5" y="-41" font-family="Helvetica,sans-Serif" font-size="10.00">sh_size</text>
</g>
<!-- Node3 -->
<g id="node3" class="node">
<title>Node3</title>
<g id="a_node3"><a xlink:title=" ">
<polygon fill="none" stroke="#bfbfbf" points="86,-122.5 86,-141.5 142,-141.5 142,-122.5 86,-122.5"/>
<text text-anchor="middle" x="114" y="-129.5" font-family="Helvetica,sans-Serif" font-size="10.00">uint32_t</text>
</a>
</g>
</g>
<!-- Node3&#45;&gt;Node1 -->
<g id="edge2" class="edge">
<title>Node3&#45;&gt;Node1</title>
<path fill="none" stroke="#9a32cd" stroke-dasharray="5,2" d="M111.98,-112.46C109.35,-93.11 103.62,-62.27 92,-38 88.82,-31.36 83.79,-24.82 79.45,-19.84"/>
<polygon fill="#9a32cd" stroke="#9a32cd" points="108.51,-112.89 113.2,-122.39 115.46,-112.03 108.51,-112.89"/>
<text text-anchor="middle" x="132.5" y="-85" font-family="Helvetica,sans-Serif" font-size="10.00"> sh_info</text>
<text text-anchor="middle" x="132.5" y="-74" font-family="Helvetica,sans-Serif" font-size="10.00">sh_link</text>
<text text-anchor="middle" x="132.5" y="-63" font-family="Helvetica,sans-Serif" font-size="10.00">sh_name</text>
<text text-anchor="middle" x="132.5" y="-52" font-family="Helvetica,sans-Serif" font-size="10.00">sh_type</text>
</g>
</g>
</svg>
