<?xml version="1.0" encoding="UTF-8" standalone="no"?>
<!DOCTYPE svg PUBLIC "-//W3C//DTD SVG 1.1//EN"
 "http://www.w3.org/Graphics/SVG/1.1/DTD/svg11.dtd">
<!-- Generated by graphviz version 2.43.0 (0)
 -->
<!-- Title: fs_handle_t Pages: 1 -->
<!--zoomable 254 -->
<svg id="main" version="1.1" xmlns="http://www.w3.org/2000/svg" xmlns:xlink="http://www.w3.org/1999/xlink" xml:space="preserve" onload="init(evt)">
<style type="text/css"><![CDATA[
.edge:hover path { stroke: red; }
.edge:hover polygon { stroke: red; fill: red; }
]]></style>
<script type="text/javascript"><![CDATA[
var edges = document.getElementsByTagName('g');
if (edges && edges.length) {
  for (var i=0;i<edges.length;i++) {
    if (edges[i].id.substr(0,4)=='edge') {
      edges[i].setAttribute('class','edge');
    }
  }
}
]]></script>
        <defs>
                <circle id="rim" cx="0" cy="0" r="7"/>
                <circle id="rim2" cx="0" cy="0" r="3.5"/>
                <g id="zoomPlus">
                        <use xlink:href="#rim" fill="#404040">
                                <set attributeName="fill" to="#808080" begin="zoomplus.mouseover" end="zoomplus.mouseout"/>
                        </use>
                        <path d="M-4,0h8M0,-4v8" fill="none" stroke="white" stroke-width="1.5" pointer-events="none"/>
                </g>
                <g id="zoomMin">
                        <use xlink:href="#rim" fill="#404040">
                                <set attributeName="fill" to="#808080" begin="zoomminus.mouseover" end="zoomminus.mouseout"/>
                        </use>
                        <path d="M-4,0h8" fill="none" stroke="white" stroke-width="1.5" pointer-events="none"/>
                </g>
                <g id="dirArrow">
                        <path fill="none" stroke="white" stroke-width="1.5" d="M0,-3.0v7 M-2.5,-0.5L0,-3.0L2.5,-0.5"/>
                </g>
               <g id="resetDef">
                       <use xlink:href="#rim2" fill="#404040">
                               <set attributeName="fill" to="#808080" begin="reset.mouseover" end="reset.mouseout"/>
                       </use>
               </g>
        </defs>

<script type="text/javascript">
var viewWidth = 940;
var viewHeight = 254;
var sectionId = 'dynsection-0';
</script>
<script xlink:href="svgpan.js"/>
<svg id="graph" class="graph">
<g id="viewport">
<title>fs_handle_t</title>
<!-- Node1 -->
<g id="node1" class="node">
<title>Node1</title>
<g id="a_node1"><a xlink:title="The data for an open file descriptor.">
<polygon fill="#bfbfbf" stroke="black" points="301.87,-7 301.87,-26 374.87,-26 374.87,-7 301.87,-7"/>
<text text-anchor="middle" x="338.37" y="-14" font-family="Helvetica,sans-Serif" font-size="10.00">fs_handle_t</text>
</a>
</g>
</g>
<!-- Node2 -->
<g id="node2" class="node">
<title>Node2</title>
<g id="a_node2"><a xlink:href="structfs__directory__entry__t.html" target="_top" xlink:title="A VFS directory entry. Files AND directories have these, but internally there is also a tree of fs_tr...">
<polygon fill="none" stroke="black" points="717.37,-98 717.37,-117 831.37,-117 831.37,-98 717.37,-98"/>
<text text-anchor="middle" x="774.37" y="-105" font-family="Helvetica,sans-Serif" font-size="10.00">fs_directory_entry_t</text>
</a>
</g>
</g>
<!-- Node2&#45;&gt;Node1 -->
<g id="edge1" class="edge">
<title>Node2&#45;&gt;Node1</title>
<path fill="none" stroke="#9a32cd" stroke-dasharray="5,2" d="M742.03,-94.26C729.92,-89.73 716.04,-84.58 703.37,-80 666.62,-66.72 658.45,-59.8 620.37,-51 533.91,-31.01 429.62,-22.57 375.32,-19.32"/>
<polygon fill="#9a32cd" stroke="#9a32cd" points="741.12,-97.66 751.72,-97.9 743.59,-91.11 741.12,-97.66"/>
<text text-anchor="middle" x="665.87" y="-54" font-family="Helvetica,sans-Serif" font-size="10.00"> file</text>
</g>
<!-- Node2&#45;&gt;Node2 -->
<g id="edge2" class="edge">
<title>Node2&#45;&gt;Node2</title>
<path fill="none" stroke="#9a32cd" stroke-dasharray="5,2" d="M841.46,-114.44C846.37,-112.88 849.37,-110.57 849.37,-107.5 849.37,-102.71 842.05,-99.76 831.6,-98.64"/>
<polygon fill="#9a32cd" stroke="#9a32cd" points="840.75,-111.01 831.6,-116.36 842.08,-117.89 840.75,-111.01"/>
<text text-anchor="middle" x="861.87" y="-105" font-family="Helvetica,sans-Serif" font-size="10.00"> next</text>
</g>
<!-- Node4 -->
<g id="node4" class="node">
<title>Node4</title>
<g id="a_node4"><a xlink:href="structfs__tree__t.html" target="_top" xlink:title="Used internally by filesystem.c to cache directories to RAM.">
<polygon fill="none" stroke="black" points="600.87,-7 600.87,-26 659.87,-26 659.87,-7 600.87,-7"/>
<text text-anchor="middle" x="630.37" y="-14" font-family="Helvetica,sans-Serif" font-size="10.00">fs_tree_t</text>
</a>
</g>
</g>
<!-- Node2&#45;&gt;Node4 -->
<g id="edge6" class="edge">
<title>Node2&#45;&gt;Node4</title>
<path fill="none" stroke="#9a32cd" stroke-dasharray="5,2" d="M771.71,-87.63C769.04,-75.56 763.77,-60.44 753.37,-51 727.74,-27.71 687.48,-20.38 660.05,-18.19"/>
<polygon fill="#9a32cd" stroke="#9a32cd" points="768.29,-88.39 773.49,-97.62 775.18,-87.16 768.29,-88.39"/>
<text text-anchor="middle" x="773.37" y="-54" font-family="Helvetica,sans-Serif" font-size="10.00"> files</text>
</g>
<!-- Node3 -->
<g id="node3" class="node">
<title>Node3</title>
<g id="a_node3"><a xlink:title=" ">
<polygon fill="none" stroke="#bfbfbf" points="332.37,-226.5 332.37,-245.5 388.37,-245.5 388.37,-226.5 332.37,-226.5"/>
<text text-anchor="middle" x="360.37" y="-233.5" font-family="Helvetica,sans-Serif" font-size="10.00">uint64_t</text>
</a>
</g>
</g>
<!-- Node3&#45;&gt;Node1 -->
<g id="edge22" class="edge">
<title>Node3&#45;&gt;Node1</title>
<path fill="none" stroke="#9a32cd" stroke-dasharray="5,2" d="M358.49,-216.39C353.95,-171.47 342.51,-58.44 339.25,-26.2"/>
<polygon fill="#9a32cd" stroke="#9a32cd" points="355.02,-216.88 359.51,-226.47 361.99,-216.17 355.02,-216.88"/>
<text text-anchor="middle" x="375.37" y="-127" font-family="Helvetica,sans-Serif" font-size="10.00"> inbufpos</text>
<text text-anchor="middle" x="375.37" y="-116" font-family="Helvetica,sans-Serif" font-size="10.00">inbufsize</text>
<text text-anchor="middle" x="375.37" y="-105" font-family="Helvetica,sans-Serif" font-size="10.00">outbufpos</text>
<text text-anchor="middle" x="375.37" y="-94" font-family="Helvetica,sans-Serif" font-size="10.00">outbufsize</text>
<text text-anchor="middle" x="375.37" y="-83" font-family="Helvetica,sans-Serif" font-size="10.00">seekpos</text>
</g>
<!-- Node3&#45;&gt;Node2 -->
<g id="edge3" class="edge">
<title>Node3&#45;&gt;Node2</title>
<path fill="none" stroke="#9a32cd" stroke-dasharray="5,2" d="M397.25,-221.92C403.95,-218.23 410.39,-213.65 415.37,-208 432.5,-188.62 413.82,-168.7 434.37,-153 458.18,-134.81 674.09,-141.3 703.37,-135 721.77,-131.04 741.77,-123.24 755.84,-117.12"/>
<polygon fill="#9a32cd" stroke="#9a32cd" points="395.51,-218.87 388.06,-226.39 398.58,-225.16 395.51,-218.87"/>
<text text-anchor="middle" x="452.37" y="-183.5" font-family="Helvetica,sans-Serif" font-size="10.00"> lbapos</text>
<text text-anchor="middle" x="452.37" y="-172.5" font-family="Helvetica,sans-Serif" font-size="10.00">size</text>
</g>
<!-- Node3&#45;&gt;Node4 -->
<g id="edge5" class="edge">
<title>Node3&#45;&gt;Node4</title>
<path fill="none" stroke="#9a32cd" stroke-dasharray="5,2" d="M368.46,-217.12C377.43,-197.17 392.24,-163.91 404.37,-135 414.57,-110.73 407,-97.83 426.37,-80 475.71,-34.6 557.26,-22.16 600.81,-18.76"/>
<polygon fill="#9a32cd" stroke="#9a32cd" points="365.16,-215.93 364.24,-226.48 371.54,-218.8 365.16,-215.93"/>
<text text-anchor="middle" x="444.37" y="-116" font-family="Helvetica,sans-Serif" font-size="10.00"> device</text>
<text text-anchor="middle" x="444.37" y="-105" font-family="Helvetica,sans-Serif" font-size="10.00">lbapos</text>
<text text-anchor="middle" x="444.37" y="-94" font-family="Helvetica,sans-Serif" font-size="10.00">size</text>
</g>
<!-- Node5 -->
<g id="node5" class="node">
<title>Node5</title>
<g id="a_node5"><a xlink:href="structfilesystem__t.html" target="_top" xlink:title="Defines a filesystem driver.">
<polygon fill="none" stroke="black" points="181.87,-98 181.87,-117 258.87,-117 258.87,-98 181.87,-98"/>
<text text-anchor="middle" x="220.37" y="-105" font-family="Helvetica,sans-Serif" font-size="10.00">filesystem_t</text>
</a>
</g>
</g>
<!-- Node3&#45;&gt;Node5 -->
<g id="edge9" class="edge">
<title>Node3&#45;&gt;Node5</title>
<path fill="none" stroke="#9a32cd" stroke-dasharray="5,2" d="M322.45,-229.77C306.91,-225.96 289.71,-219.37 277.37,-208 257.89,-190.04 267.64,-175.94 254.37,-153 246.68,-139.7 235.53,-125.87 228.13,-117.22"/>
<polygon fill="#9a32cd" stroke="#9a32cd" points="321.84,-233.22 332.36,-231.9 323.31,-226.38 321.84,-233.22"/>
<text text-anchor="middle" x="300.87" y="-183.5" font-family="Helvetica,sans-Serif" font-size="10.00"> createdir</text>
<text text-anchor="middle" x="300.87" y="-172.5" font-family="Helvetica,sans-Serif" font-size="10.00">createfile</text>
</g>
<!-- Node4&#45;&gt;Node2 -->
<g id="edge4" class="edge">
<title>Node4&#45;&gt;Node2</title>
<path fill="none" stroke="#9a32cd" stroke-dasharray="5,2" d="M652.94,-31.45C683.12,-50.1 735.69,-82.59 760.57,-97.97"/>
<polygon fill="#9a32cd" stroke="#9a32cd" points="654.7,-28.42 644.35,-26.14 651.02,-34.37 654.7,-28.42"/>
<text text-anchor="middle" x="725.87" y="-54" font-family="Helvetica,sans-Serif" font-size="10.00"> directory</text>
</g>
<!-- Node4&#45;&gt;Node4 -->
<g id="edge7" class="edge">
<title>Node4&#45;&gt;Node4</title>
<path fill="none" stroke="#9a32cd" stroke-dasharray="5,2" d="M670.05,-22.95C674.78,-21.77 677.87,-19.62 677.87,-16.5 677.87,-11.5 669.96,-9 660.06,-9"/>
<polygon fill="#9a32cd" stroke="#9a32cd" points="669.64,-19.47 660.06,-24 670.37,-26.43 669.64,-19.47"/>
<text text-anchor="middle" x="702.87" y="-25" font-family="Helvetica,sans-Serif" font-size="10.00"> child_dirs</text>
<text text-anchor="middle" x="702.87" y="-14" font-family="Helvetica,sans-Serif" font-size="10.00">next</text>
<text text-anchor="middle" x="702.87" y="-3" font-family="Helvetica,sans-Serif" font-size="10.00">parent</text>
</g>
<!-- Node5&#45;&gt;Node4 -->
<g id="edge8" class="edge">
<title>Node5&#45;&gt;Node4</title>
<path fill="none" stroke="#9a32cd" stroke-dasharray="5,2" d="M240.11,-92.09C259.14,-79 289.26,-60.36 318.37,-51 418.21,-18.9 544.32,-16.13 600.74,-16.74"/>
<polygon fill="#9a32cd" stroke="#9a32cd" points="237.87,-89.38 231.71,-98 241.9,-95.1 237.87,-89.38"/>
<text text-anchor="middle" x="365.37" y="-54" font-family="Helvetica,sans-Serif" font-size="10.00"> responsible_driver</text>
</g>
<!-- Node5&#45;&gt;Node5 -->
<g id="edge11" class="edge">
<title>Node5&#45;&gt;Node5</title>
<path fill="none" stroke="#9a32cd" stroke-dasharray="5,2" d="M269.09,-115.11C273.85,-113.58 276.87,-111.04 276.87,-107.5 276.87,-101.84 269.14,-98.74 258.93,-98.21"/>
<polygon fill="#9a32cd" stroke="#9a32cd" points="268.22,-111.71 258.93,-116.79 269.37,-118.61 268.22,-111.71"/>
<text text-anchor="middle" x="289.37" y="-105" font-family="Helvetica,sans-Serif" font-size="10.00"> next</text>
</g>
<!-- Node6 -->
<g id="node6" class="node">
<title>Node6</title>
<g id="a_node6"><a xlink:title=" ">
<polygon fill="none" stroke="#bfbfbf" points="90.87,-226.5 90.87,-245.5 185.87,-245.5 185.87,-226.5 90.87,-226.5"/>
<text text-anchor="middle" x="138.37" y="-233.5" font-family="Helvetica,sans-Serif" font-size="10.00">void *(*)(void *)</text>
</a>
</g>
</g>
<!-- Node6&#45;&gt;Node5 -->
<g id="edge10" class="edge">
<title>Node6&#45;&gt;Node5</title>
<path fill="none" stroke="#9a32cd" stroke-dasharray="5,2" d="M146.81,-216.66C154.98,-199.6 168.18,-173.76 182.37,-153 191.43,-139.75 203.78,-125.9 211.91,-117.25"/>
<polygon fill="#9a32cd" stroke="#9a32cd" points="143.49,-215.48 142.41,-226.02 149.83,-218.46 143.49,-215.48"/>
<text text-anchor="middle" x="198.37" y="-178" font-family="Helvetica,sans-Serif" font-size="10.00"> getdir</text>
</g>
<!-- Node7 -->
<g id="node7" class="node">
<title>Node7</title>
<g id="a_node7"><a xlink:title=" ">
<polygon fill="none" stroke="#bfbfbf" points="578.37,-226.5 578.37,-245.5 616.37,-245.5 616.37,-226.5 578.37,-226.5"/>
<text text-anchor="middle" x="597.37" y="-233.5" font-family="Helvetica,sans-Serif" font-size="10.00">char</text>
</a>
</g>
</g>
<!-- Node7&#45;&gt;Node1 -->
<g id="edge23" class="edge">
<title>Node7&#45;&gt;Node1</title>
<path fill="none" stroke="#9a32cd" stroke-dasharray="5,2" d="M584.83,-218.55C571.53,-201.49 549.56,-174.38 528.37,-153 519.72,-144.27 515.77,-143.98 507.37,-135 486.56,-112.72 489.84,-99.46 466.37,-80 435.34,-54.27 391.93,-35.97 364.49,-26.07"/>
<polygon fill="#9a32cd" stroke="#9a32cd" points="582.06,-220.69 590.94,-226.47 587.6,-216.41 582.06,-220.69"/>
<text text-anchor="middle" x="523.37" y="-110.5" font-family="Helvetica,sans-Serif" font-size="10.00"> inbuf</text>
<text text-anchor="middle" x="523.37" y="-99.5" font-family="Helvetica,sans-Serif" font-size="10.00">outbuf</text>
</g>
<!-- Node7&#45;&gt;Node2 -->
<g id="edge19" class="edge">
<title>Node7&#45;&gt;Node2</title>
<path fill="none" stroke="#9a32cd" stroke-dasharray="5,2" d="M624.95,-220.97C630.78,-217.25 636.61,-212.88 641.37,-208 661.14,-187.77 652.29,-171.85 673.37,-153 685.3,-142.34 724.65,-126.65 750.56,-117.03"/>
<polygon fill="#9a32cd" stroke="#9a32cd" points="622.78,-218.19 615.94,-226.28 626.33,-224.22 622.78,-218.19"/>
<text text-anchor="middle" x="706.37" y="-189" font-family="Helvetica,sans-Serif" font-size="10.00"> alt_filename</text>
<text text-anchor="middle" x="706.37" y="-178" font-family="Helvetica,sans-Serif" font-size="10.00">device_name</text>
<text text-anchor="middle" x="706.37" y="-167" font-family="Helvetica,sans-Serif" font-size="10.00">filename</text>
</g>
<!-- Node7&#45;&gt;Node4 -->
<g id="edge15" class="edge">
<title>Node7&#45;&gt;Node4</title>
<path fill="none" stroke="#9a32cd" stroke-dasharray="5,2" d="M600.2,-216.39C607.01,-171.47 624.16,-58.44 629.05,-26.2"/>
<polygon fill="#9a32cd" stroke="#9a32cd" points="596.71,-216.06 598.67,-226.47 603.63,-217.11 596.71,-216.06"/>
<text text-anchor="middle" x="654.87" y="-110.5" font-family="Helvetica,sans-Serif" font-size="10.00"> device_name</text>
<text text-anchor="middle" x="654.87" y="-99.5" font-family="Helvetica,sans-Serif" font-size="10.00">name</text>
</g>
<!-- Node7&#45;&gt;Node5 -->
<g id="edge12" class="edge">
<title>Node7&#45;&gt;Node5</title>
<path fill="none" stroke="#9a32cd" stroke-dasharray="5,2" d="M568.06,-233.83C546.21,-231.5 516.91,-225.1 497.37,-208 477.44,-190.54 495.56,-168.91 474.37,-153 446.12,-131.78 351.07,-141.72 316.37,-135 292.61,-130.4 266.13,-122.9 247.01,-117.06"/>
<polygon fill="#9a32cd" stroke="#9a32cd" points="567.85,-237.33 578.11,-234.68 568.43,-230.35 567.85,-237.33"/>
<text text-anchor="middle" x="512.87" y="-178" font-family="Helvetica,sans-Serif" font-size="10.00"> name</text>
</g>
<!-- Node8 -->
<g id="node8" class="node">
<title>Node8</title>
<g id="a_node8"><a xlink:title=" ">
<polygon fill="none" stroke="#bfbfbf" points="203.87,-226.5 203.87,-245.5 232.87,-245.5 232.87,-226.5 203.87,-226.5"/>
<text text-anchor="middle" x="218.37" y="-233.5" font-family="Helvetica,sans-Serif" font-size="10.00">int</text>
</a>
</g>
</g>
<!-- Node8&#45;&gt;Node5 -->
<g id="edge13" class="edge">
<title>Node8&#45;&gt;Node5</title>
<path fill="none" stroke="#9a32cd" stroke-dasharray="5,2" d="M218.55,-216.35C218.71,-199.73 219,-174.74 219.37,-153 219.59,-140.48 219.93,-125.99 220.16,-117.03"/>
<polygon fill="#9a32cd" stroke="#9a32cd" points="215.05,-216.35 218.45,-226.38 222.05,-216.42 215.05,-216.35"/>
<text text-anchor="middle" x="236.87" y="-178" font-family="Helvetica,sans-Serif" font-size="10.00"> mount</text>
</g>
<!-- Node9 -->
<g id="node9" class="node">
<title>Node9</title>
<g id="a_node9"><a xlink:title=" ">
<polygon fill="none" stroke="#bfbfbf" points="11.37,-226.5 11.37,-245.5 49.37,-245.5 49.37,-226.5 11.37,-226.5"/>
<text text-anchor="middle" x="30.37" y="-233.5" font-family="Helvetica,sans-Serif" font-size="10.00">bool</text>
</a>
</g>
</g>
<!-- Node9&#45;&gt;Node1 -->
<g id="edge24" class="edge">
<title>Node9&#45;&gt;Node1</title>
<path fill="none" stroke="#9a32cd" stroke-dasharray="5,2" d="M21.5,-217.13C7.27,-185.61 -15.96,-119.72 16.37,-80 51.97,-36.28 225.12,-22.8 301.76,-18.94"/>
<polygon fill="#9a32cd" stroke="#9a32cd" points="18.45,-218.87 25.89,-226.41 24.78,-215.88 18.45,-218.87"/>
<text text-anchor="middle" x="35.37" y="-105" font-family="Helvetica,sans-Serif" font-size="10.00"> cached</text>
</g>
<!-- Node9&#45;&gt;Node5 -->
<g id="edge14" class="edge">
<title>Node9&#45;&gt;Node5</title>
<path fill="none" stroke="#9a32cd" stroke-dasharray="5,2" d="M38.65,-217.42C48.5,-198.49 66.76,-168.95 91.37,-153 122.32,-132.95 137.88,-148.04 172.37,-135 184.66,-130.35 197.65,-123.02 207.01,-117.24"/>
<polygon fill="#9a32cd" stroke="#9a32cd" points="35.48,-215.94 34.17,-226.46 41.75,-219.05 35.48,-215.94"/>
<text text-anchor="middle" x="119.37" y="-200" font-family="Helvetica,sans-Serif" font-size="10.00"> readfile</text>
<text text-anchor="middle" x="119.37" y="-189" font-family="Helvetica,sans-Serif" font-size="10.00">rm</text>
<text text-anchor="middle" x="119.37" y="-178" font-family="Helvetica,sans-Serif" font-size="10.00">rmdir</text>
<text text-anchor="middle" x="119.37" y="-167" font-family="Helvetica,sans-Serif" font-size="10.00">truncatefile</text>
<text text-anchor="middle" x="119.37" y="-156" font-family="Helvetica,sans-Serif" font-size="10.00">writefile</text>
</g>
<!-- Node10 -->
<g id="node10" class="node">
<title>Node10</title>
<g id="a_node10"><a xlink:title=" ">
<polygon fill="none" stroke="#bfbfbf" points="876.37,-226.5 876.37,-245.5 926.37,-245.5 926.37,-226.5 876.37,-226.5"/>
<text text-anchor="middle" x="901.37" y="-233.5" font-family="Helvetica,sans-Serif" font-size="10.00">uint8_t</text>
</a>
</g>
</g>
<!-- Node10&#45;&gt;Node2 -->
<g id="edge21" class="edge">
<title>Node10&#45;&gt;Node2</title>
<path fill="none" stroke="#9a32cd" stroke-dasharray="5,2" d="M877.34,-220.43C872.62,-216.8 868.01,-212.6 864.37,-208 847.96,-187.2 858.25,-173.43 841.37,-153 828.21,-137.07 807.88,-124.68 793.06,-117.07"/>
<polygon fill="#9a32cd" stroke="#9a32cd" points="875.58,-223.47 885.78,-226.34 879.6,-217.74 875.58,-223.47"/>
<text text-anchor="middle" x="880.37" y="-200" font-family="Helvetica,sans-Serif" font-size="10.00"> day</text>
<text text-anchor="middle" x="880.37" y="-189" font-family="Helvetica,sans-Serif" font-size="10.00">hour</text>
<text text-anchor="middle" x="880.37" y="-178" font-family="Helvetica,sans-Serif" font-size="10.00">min</text>
<text text-anchor="middle" x="880.37" y="-167" font-family="Helvetica,sans-Serif" font-size="10.00">month</text>
<text text-anchor="middle" x="880.37" y="-156" font-family="Helvetica,sans-Serif" font-size="10.00">sec</text>
</g>
<!-- Node10&#45;&gt;Node4 -->
<g id="edge16" class="edge">
<title>Node10&#45;&gt;Node4</title>
<path fill="none" stroke="#9a32cd" stroke-dasharray="5,2" d="M905.31,-216.46C910.95,-184.39 917.24,-118.31 883.37,-80 853.93,-46.69 720.63,-27.69 660.25,-20.66"/>
<polygon fill="#9a32cd" stroke="#9a32cd" points="901.87,-215.8 903.41,-226.29 908.75,-217.13 901.87,-215.8"/>
<text text-anchor="middle" x="919.37" y="-105" font-family="Helvetica,sans-Serif" font-size="10.00"> dirty</text>
</g>
<!-- Node11 -->
<g id="node11" class="node">
<title>Node11</title>
<g id="a_node11"><a xlink:title=" ">
<polygon fill="none" stroke="#bfbfbf" points="548.37,-98 548.37,-117 594.37,-117 594.37,-98 548.37,-98"/>
<text text-anchor="middle" x="571.37" y="-105" font-family="Helvetica,sans-Serif" font-size="10.00">void *</text>
</a>
</g>
</g>
<!-- Node11&#45;&gt;Node4 -->
<g id="edge17" class="edge">
<title>Node11&#45;&gt;Node4</title>
<path fill="none" stroke="#9a32cd" stroke-dasharray="5,2" d="M569.04,-87.7C568.55,-76.29 569.67,-61.87 576.37,-51 583.44,-39.54 596.03,-31.4 607.28,-26.01"/>
<polygon fill="#9a32cd" stroke="#9a32cd" points="565.57,-88.21 569.91,-97.87 572.54,-87.61 565.57,-88.21"/>
<text text-anchor="middle" x="596.37" y="-54" font-family="Helvetica,sans-Serif" font-size="10.00"> opaque</text>
</g>
<!-- Node12 -->
<g id="node12" class="node">
<title>Node12</title>
<g id="a_node12"><a xlink:title=" ">
<polygon fill="none" stroke="#bfbfbf" points="711.37,-226.5 711.37,-245.5 767.37,-245.5 767.37,-226.5 711.37,-226.5"/>
<text text-anchor="middle" x="739.37" y="-233.5" font-family="Helvetica,sans-Serif" font-size="10.00">uint16_t</text>
</a>
</g>
</g>
<!-- Node12&#45;&gt;Node2 -->
<g id="edge18" class="edge">
<title>Node12&#45;&gt;Node2</title>
<path fill="none" stroke="#9a32cd" stroke-dasharray="5,2" d="M742.68,-216.15C745.82,-199.4 751,-174.33 757.37,-153 761.16,-140.32 766.86,-126.11 770.59,-117.23"/>
<polygon fill="#9a32cd" stroke="#9a32cd" points="739.19,-215.81 740.85,-226.27 746.08,-217.06 739.19,-215.81"/>
<text text-anchor="middle" x="769.87" y="-178" font-family="Helvetica,sans-Serif" font-size="10.00"> year</text>
</g>
<!-- Node13 -->
<g id="node13" class="node">
<title>Node13</title>
<g id="a_node13"><a xlink:title=" ">
<polygon fill="none" stroke="#bfbfbf" points="785.37,-226.5 785.37,-245.5 841.37,-245.5 841.37,-226.5 785.37,-226.5"/>
<text text-anchor="middle" x="813.37" y="-233.5" font-family="Helvetica,sans-Serif" font-size="10.00">uint32_t</text>
</a>
</g>
</g>
<!-- Node13&#45;&gt;Node2 -->
<g id="edge20" class="edge">
<title>Node13&#45;&gt;Node2</title>
<path fill="none" stroke="#9a32cd" stroke-dasharray="5,2" d="M807.72,-216.67C799.2,-189.03 783.38,-137.72 777.07,-117.26"/>
<polygon fill="#9a32cd" stroke="#9a32cd" points="804.4,-217.78 810.69,-226.31 811.09,-215.72 804.4,-217.78"/>
<text text-anchor="middle" x="822.37" y="-183.5" font-family="Helvetica,sans-Serif" font-size="10.00"> device</text>
<text text-anchor="middle" x="822.37" y="-172.5" font-family="Helvetica,sans-Serif" font-size="10.00">flags</text>
</g>
<!-- Node14 -->
<g id="node14" class="node">
<title>Node14</title>
<g id="a_node14"><a xlink:title=" ">
<polygon fill="none" stroke="#bfbfbf" points="63.37,-98 63.37,-117 163.37,-117 163.37,-98 63.37,-98"/>
<text text-anchor="middle" x="113.37" y="-105" font-family="Helvetica,sans-Serif" font-size="10.00">fs_handle_type_t</text>
</a>
</g>
</g>
<!-- Node14&#45;&gt;Node1 -->
<g id="edge25" class="edge">
<title>Node14&#45;&gt;Node1</title>
<path fill="none" stroke="#9a32cd" stroke-dasharray="5,2" d="M127.88,-90.28C140.1,-77.64 158.71,-60.66 178.37,-51 217.86,-31.61 268.18,-23.42 301.75,-19.97"/>
<polygon fill="#9a32cd" stroke="#9a32cd" points="125.09,-88.15 120.82,-97.84 130.2,-92.92 125.09,-88.15"/>
<text text-anchor="middle" x="190.87" y="-54" font-family="Helvetica,sans-Serif" font-size="10.00"> type</text>
</g>
</g>
</svg>
        <g id="navigator" transform="translate(0 0)" fill="#404254">
                <rect fill="#f2f5e9" fill-opacity="0.5" stroke="#606060" stroke-width=".5" x="0" y="0" width="60" height="60"/>
                <use id="zoomplus" xlink:href="#zoomPlus" x="17" y="9" onmousedown="handleZoom(evt,'in')"/>
                <use id="zoomminus" xlink:href="#zoomMin" x="42" y="9" onmousedown="handleZoom(evt,'out')"/>
                <use id="reset" xlink:href="#resetDef" x="30" y="36" onmousedown="handleReset()"/>
                <g id="arrowUp" xlink:href="#dirArrow" transform="translate(30 24)" onmousedown="handlePan(0,-1)">
                  <use xlink:href="#rim" fill="#404040">
                        <set attributeName="fill" to="#808080" begin="arrowUp.mouseover" end="arrowUp.mouseout"/>
                  </use>
                  <path fill="none" stroke="white" stroke-width="1.5" d="M0,-3.0v7 M-2.5,-0.5L0,-3.0L2.5,-0.5"/>
                </g>
                <g id="arrowRight" xlink:href="#dirArrow" transform="rotate(90) translate(36 -43)" onmousedown="handlePan(1,0)">
                  <use xlink:href="#rim" fill="#404040">
                        <set attributeName="fill" to="#808080" begin="arrowRight.mouseover" end="arrowRight.mouseout"/>
                  </use>
                  <path fill="none" stroke="white" stroke-width="1.5" d="M0,-3.0v7 M-2.5,-0.5L0,-3.0L2.5,-0.5"/>
                </g>
                <g id="arrowDown" xlink:href="#dirArrow" transform="rotate(180) translate(-30 -48)" onmousedown="handlePan(0,1)">
                  <use xlink:href="#rim" fill="#404040">
                        <set attributeName="fill" to="#808080" begin="arrowDown.mouseover" end="arrowDown.mouseout"/>
                  </use>
                  <path fill="none" stroke="white" stroke-width="1.5" d="M0,-3.0v7 M-2.5,-0.5L0,-3.0L2.5,-0.5"/>
                </g>
                <g id="arrowLeft" xlink:href="#dirArrow" transform="rotate(270) translate(-36 17)" onmousedown="handlePan(-1,0)">
                  <use xlink:href="#rim" fill="#404040">
                        <set attributeName="fill" to="#808080" begin="arrowLeft.mouseover" end="arrowLeft.mouseout"/>
                  </use>
                  <path fill="none" stroke="white" stroke-width="1.5" d="M0,-3.0v7 M-2.5,-0.5L0,-3.0L2.5,-0.5"/>
                </g>
        </g>
        <svg viewBox="0 0 15 15" width="100%" height="30px" preserveAspectRatio="xMaxYMin meet">
         <g id="arrow_out" transform="scale(0.3 0.3)">
          <a xlink:href="structfs__handle__t__coll__graph_org.svg" target="_base">
           <rect id="button" ry="5" rx="5" y="6" x="6" height="38" width="38"
                fill="#f2f5e9" fill-opacity="0.5" stroke="#606060" stroke-width="1.0"/>
           <path id="arrow"
             d="M 11.500037,31.436501 C 11.940474,20.09759 22.043105,11.32322 32.158766,21.979434 L 37.068811,17.246167 C 37.068811,17.246167 37.088388,32 37.088388,32 L 22.160133,31.978069 C 22.160133,31.978069 26.997745,27.140456 26.997745,27.140456 C 18.528582,18.264221 13.291696,25.230495 11.500037,31.436501 z"
             style="fill:#404040;"/>
          </a>
         </g>
        </svg>
</svg>
