<?xml version="1.0" encoding="UTF-8" standalone="no"?>
<!DOCTYPE svg PUBLIC "-//W3C//DTD SVG 1.1//EN"
 "http://www.w3.org/Graphics/SVG/1.1/DTD/svg11.dtd">
<!-- Generated by graphviz version 2.43.0 (0)
 -->
<!-- Title: pci_subclass Pages: 1 -->
<svg width="147pt" height="117pt"
 viewBox="0.00 0.00 147.00 117.00" xmlns="http://www.w3.org/2000/svg" xmlns:xlink="http://www.w3.org/1999/xlink">
<g id="graph0" class="graph" transform="scale(1 1) rotate(0) translate(4 113)">
<title>pci_subclass</title>
<!-- Node1 -->
<g id="node1" class="node">
<title>Node1</title>
<g id="a_node1"><a xlink:title=" ">
<polygon fill="#bfbfbf" stroke="black" points="19,-0.5 19,-19.5 97,-19.5 97,-0.5 19,-0.5"/>
<text text-anchor="middle" x="58" y="-7.5" font-family="Helvetica,sans-Serif" font-size="10.00">pci_subclass</text>
</a>
</g>
</g>
<!-- Node2 -->
<g id="node2" class="node">
<title>Node2</title>
<g id="a_node2"><a xlink:title=" ">
<polygon fill="none" stroke="black" points="0,-89.5 0,-108.5 50,-108.5 50,-89.5 0,-89.5"/>
<text text-anchor="middle" x="25" y="-96.5" font-family="Helvetica,sans-Serif" font-size="10.00">uint8_t</text>
</a>
</g>
</g>
<!-- Node2&#45;&gt;Node1 -->
<g id="edge1" class="edge">
<title>Node2&#45;&gt;Node1</title>
<path fill="none" stroke="#9a32cd" stroke-dasharray="5,2" d="M21.46,-79.32C20.02,-67 19.91,-50.83 26,-38 29.62,-30.38 36.53,-24.13 43,-19.56"/>
<polygon fill="#9a32cd" stroke="#9a32cd" points="18.02,-80 23.01,-89.35 24.94,-78.93 18.02,-80"/>
<text text-anchor="middle" x="47.5" y="-63" font-family="Helvetica,sans-Serif" font-size="10.00"> id</text>
<text text-anchor="middle" x="47.5" y="-52" font-family="Helvetica,sans-Serif" font-size="10.00">progif</text>
<text text-anchor="middle" x="47.5" y="-41" font-family="Helvetica,sans-Serif" font-size="10.00">subclass</text>
</g>
<!-- Node3 -->
<g id="node3" class="node">
<title>Node3</title>
<g id="a_node3"><a xlink:title=" ">
<polygon fill="none" stroke="black" points="72,-89.5 72,-108.5 110,-108.5 110,-89.5 72,-89.5"/>
<text text-anchor="middle" x="91" y="-96.5" font-family="Helvetica,sans-Serif" font-size="10.00">char</text>
</a>
</g>
</g>
<!-- Node3&#45;&gt;Node1 -->
<g id="edge2" class="edge">
<title>Node3&#45;&gt;Node1</title>
<path fill="none" stroke="#9a32cd" stroke-dasharray="5,2" d="M84.5,-79.75C80.21,-67.83 74.39,-51.94 69,-38 66.66,-31.96 63.91,-25.21 61.75,-19.97"/>
<polygon fill="#9a32cd" stroke="#9a32cd" points="81.29,-81.19 87.96,-89.42 87.88,-78.82 81.29,-81.19"/>
<text text-anchor="middle" x="110" y="-52" font-family="Helvetica,sans-Serif" font-size="10.00"> description</text>
</g>
</g>
</svg>
