<?xml version="1.0" encoding="UTF-8" standalone="no"?>
<!DOCTYPE svg PUBLIC "-//W3C//DTD SVG 1.1//EN"
 "http://www.w3.org/Graphics/SVG/1.1/DTD/svg11.dtd">
<!-- Generated by graphviz version 2.43.0 (0)
 -->
<!-- Title: basic_double_fn Pages: 1 -->
<svg width="794pt" height="1251pt"
 viewBox="0.00 0.00 794.00 1250.90" xmlns="http://www.w3.org/2000/svg" xmlns:xlink="http://www.w3.org/1999/xlink">
<g id="graph0" class="graph" transform="scale(1 1) rotate(0) translate(4 1246.9)">
<title>basic_double_fn</title>
<!-- Node1 -->
<g id="node1" class="node">
<title>Node1</title>
<g id="a_node1"><a xlink:title="Builtin real (double) function.">
<polygon fill="#bfbfbf" stroke="black" points="691,-958.4 691,-977.4 786,-977.4 786,-958.4 691,-958.4"/>
<text text-anchor="middle" x="738.5" y="-965.4" font-family="Helvetica,sans-Serif" font-size="10.00">basic_double_fn</text>
</a>
</g>
</g>
<!-- Node2 -->
<g id="node2" class="node">
<title>Node2</title>
<g id="a_node2"><a xlink:title=" ">
<polygon fill="none" stroke="#bfbfbf" points="0,-782.4 0,-801.4 38,-801.4 38,-782.4 0,-782.4"/>
<text text-anchor="middle" x="19" y="-789.4" font-family="Helvetica,sans-Serif" font-size="10.00">char</text>
</a>
</g>
</g>
<!-- Node2&#45;&gt;Node1 -->
<g id="edge1" class="edge">
<title>Node2&#45;&gt;Node1</title>
<path fill="none" stroke="#9a32cd" stroke-dasharray="5,2" d="M21.03,-811.68C26.01,-897.31 51.15,-1231.9 139.5,-1231.9 139.5,-1231.9 139.5,-1231.9 585,-1231.9 704.89,-1231.9 732.01,-1025.24 736.67,-977.61"/>
<polygon fill="#9a32cd" stroke="#9a32cd" points="24.51,-811.29 20.47,-801.5 17.52,-811.68 24.51,-811.29"/>
<text text-anchor="middle" x="339.5" y="-1234.9" font-family="Helvetica,sans-Serif" font-size="10.00"> name</text>
</g>
<!-- Node3 -->
<g id="node3" class="node">
<title>Node3</title>
<g id="a_node3"><a xlink:href="structbasic__ctx.html" target="_top" xlink:title="BASIC program context. Every instance of a BASIC program has one of these,* also certain structures s...">
<polygon fill="none" stroke="black" points="553,-691.4 553,-710.4 615,-710.4 615,-691.4 553,-691.4"/>
<text text-anchor="middle" x="584" y="-698.4" font-family="Helvetica,sans-Serif" font-size="10.00">basic_ctx</text>
</a>
</g>
</g>
<!-- Node2&#45;&gt;Node3 -->
<g id="edge19" class="edge">
<title>Node2&#45;&gt;Node3</title>
<path fill="none" stroke="#9a32cd" stroke-dasharray="5,2" d="M20.23,-811.91C21.36,-850.37 27.18,-936.57 56,-1001.9 70.32,-1034.36 73.13,-1049.32 105,-1064.9 137.01,-1080.56 218.75,-1086.91 399,-1053.9 461.49,-1042.46 493.78,-1058.25 535,-1009.9 574.89,-963.12 581.77,-757.23 582.82,-710.4"/>
<polygon fill="#9a32cd" stroke="#9a32cd" points="23.72,-811.51 20.01,-801.58 16.73,-811.66 23.72,-811.51"/>
<text text-anchor="middle" x="228" y="-1123.9" font-family="Helvetica,sans-Serif" font-size="10.00"> item_begin</text>
<text text-anchor="middle" x="228" y="-1112.9" font-family="Helvetica,sans-Serif" font-size="10.00">nextptr</text>
<text text-anchor="middle" x="228" y="-1101.9" font-family="Helvetica,sans-Serif" font-size="10.00">program_ptr</text>
<text text-anchor="middle" x="228" y="-1090.9" font-family="Helvetica,sans-Serif" font-size="10.00">ptr</text>
<text text-anchor="middle" x="228" y="-1079.9" font-family="Helvetica,sans-Serif" font-size="10.00">string</text>
</g>
<!-- Node5 -->
<g id="node5" class="node">
<title>Node5</title>
<g id="a_node5"><a xlink:href="structub__var__double__array.html" target="_top" xlink:title="An array of real (double)">
<polygon fill="none" stroke="black" points="280,-808.4 280,-827.4 399,-827.4 399,-808.4 280,-808.4"/>
<text text-anchor="middle" x="339.5" y="-815.4" font-family="Helvetica,sans-Serif" font-size="10.00">ub_var_double_array</text>
</a>
</g>
</g>
<!-- Node2&#45;&gt;Node5 -->
<g id="edge8" class="edge">
<title>Node2&#45;&gt;Node5</title>
<path fill="none" stroke="#9a32cd" stroke-dasharray="5,2" d="M47.76,-800.33C81.83,-810.2 141.53,-825.95 194,-831.9 224.03,-835.31 231.9,-834.63 262,-831.9 272.49,-830.95 283.69,-829.28 294.19,-827.41"/>
<polygon fill="#9a32cd" stroke="#9a32cd" points="48.63,-796.94 38.05,-797.48 46.66,-803.66 48.63,-796.94"/>
<text text-anchor="middle" x="140.5" y="-831.9" font-family="Helvetica,sans-Serif" font-size="10.00"> varname</text>
</g>
<!-- Node8 -->
<g id="node8" class="node">
<title>Node8</title>
<g id="a_node8"><a xlink:href="structub__var__string__array.html" target="_top" xlink:title="An array of strings.">
<polygon fill="none" stroke="black" points="283,-514.4 283,-533.4 396,-533.4 396,-514.4 283,-514.4"/>
<text text-anchor="middle" x="339.5" y="-521.4" font-family="Helvetica,sans-Serif" font-size="10.00">ub_var_string_array</text>
</a>
</g>
</g>
<!-- Node2&#45;&gt;Node8 -->
<g id="edge12" class="edge">
<title>Node2&#45;&gt;Node8</title>
<path fill="none" stroke="#9a32cd" stroke-dasharray="5,2" d="M20.44,-772.24C22.62,-723.58 35.06,-596.45 105,-526.9 155.26,-476.92 192.04,-487.55 262,-498.9 270.32,-500.25 271.99,-502.27 280,-504.9 289.43,-508.01 299.73,-511.36 309.03,-514.38"/>
<polygon fill="#9a32cd" stroke="#9a32cd" points="16.94,-772.25 20.09,-782.36 23.93,-772.49 16.94,-772.25"/>
<text text-anchor="middle" x="140.5" y="-540.9" font-family="Helvetica,sans-Serif" font-size="10.00"> values</text>
<text text-anchor="middle" x="140.5" y="-529.9" font-family="Helvetica,sans-Serif" font-size="10.00">varname</text>
</g>
<!-- Node9 -->
<g id="node9" class="node">
<title>Node9</title>
<g id="a_node9"><a xlink:href="structub__var__int.html" target="_top" xlink:title="An integer variable.">
<polygon fill="none" stroke="black" points="305.5,-447.4 305.5,-466.4 373.5,-466.4 373.5,-447.4 305.5,-447.4"/>
<text text-anchor="middle" x="339.5" y="-454.4" font-family="Helvetica,sans-Serif" font-size="10.00">ub_var_int</text>
</a>
</g>
</g>
<!-- Node2&#45;&gt;Node9 -->
<g id="edge15" class="edge">
<title>Node2&#45;&gt;Node9</title>
<path fill="none" stroke="#9a32cd" stroke-dasharray="5,2" d="M19.79,-772.06C19.99,-729.04 24.04,-624.66 56,-544.9 69.99,-509.99 72.31,-494.5 105,-475.9 168.46,-439.8 257.72,-444.98 305.41,-451.31"/>
<polygon fill="#9a32cd" stroke="#9a32cd" points="16.29,-772.07 19.81,-782.06 23.29,-772.05 16.29,-772.07"/>
<text text-anchor="middle" x="140.5" y="-478.9" font-family="Helvetica,sans-Serif" font-size="10.00"> varname</text>
</g>
<!-- Node12 -->
<g id="node12" class="node">
<title>Node12</title>
<g id="a_node12"><a xlink:href="structconsole.html" target="_top" xlink:title=" ">
<polygon fill="none" stroke="black" points="312.5,-147.4 312.5,-166.4 366.5,-166.4 366.5,-147.4 312.5,-147.4"/>
<text text-anchor="middle" x="339.5" y="-154.4" font-family="Helvetica,sans-Serif" font-size="10.00">console</text>
</a>
</g>
</g>
<!-- Node2&#45;&gt;Node12 -->
<g id="edge21" class="edge">
<title>Node2&#45;&gt;Node12</title>
<path fill="none" stroke="#9a32cd" stroke-dasharray="5,2" d="M20.72,-772C23.66,-693.97 35.62,-408.86 56,-320.9 69.28,-263.58 59.17,-234.81 105,-197.9 160.09,-153.54 192.4,-184.49 262,-171.9 278.78,-168.87 297.58,-165.19 312.34,-162.23"/>
<polygon fill="#9a32cd" stroke="#9a32cd" points="17.21,-772.2 20.34,-782.33 24.2,-772.46 17.21,-772.2"/>
<text text-anchor="middle" x="140.5" y="-222.9" font-family="Helvetica,sans-Serif" font-size="10.00"> buffer</text>
<text text-anchor="middle" x="140.5" y="-211.9" font-family="Helvetica,sans-Serif" font-size="10.00">dirty</text>
<text text-anchor="middle" x="140.5" y="-200.9" font-family="Helvetica,sans-Serif" font-size="10.00">internalbuffer</text>
</g>
<!-- Node16 -->
<g id="node16" class="node">
<title>Node16</title>
<g id="a_node16"><a xlink:href="structub__var__double.html" target="_top" xlink:title="A real (double) variable.">
<polygon fill="none" stroke="black" points="295.5,-741.4 295.5,-760.4 383.5,-760.4 383.5,-741.4 295.5,-741.4"/>
<text text-anchor="middle" x="339.5" y="-748.4" font-family="Helvetica,sans-Serif" font-size="10.00">ub_var_double</text>
</a>
</g>
</g>
<!-- Node2&#45;&gt;Node16 -->
<g id="edge29" class="edge">
<title>Node2&#45;&gt;Node16</title>
<path fill="none" stroke="#9a32cd" stroke-dasharray="5,2" d="M47.48,-778.52C63.78,-771.27 85.09,-762.98 105,-758.9 140.07,-751.71 237.77,-750.63 295.08,-750.66"/>
<polygon fill="#9a32cd" stroke="#9a32cd" points="45.66,-775.5 38.03,-782.85 48.58,-781.86 45.66,-775.5"/>
<text text-anchor="middle" x="140.5" y="-761.9" font-family="Helvetica,sans-Serif" font-size="10.00"> varname</text>
</g>
<!-- Node19 -->
<g id="node19" class="node">
<title>Node19</title>
<g id="a_node19"><a xlink:href="structub__var__int__array.html" target="_top" xlink:title="An array of integers.">
<polygon fill="none" stroke="black" points="290.5,-380.4 290.5,-399.4 388.5,-399.4 388.5,-380.4 290.5,-380.4"/>
<text text-anchor="middle" x="339.5" y="-387.4" font-family="Helvetica,sans-Serif" font-size="10.00">ub_var_int_array</text>
</a>
</g>
</g>
<!-- Node2&#45;&gt;Node19 -->
<g id="edge36" class="edge">
<title>Node2&#45;&gt;Node19</title>
<path fill="none" stroke="#9a32cd" stroke-dasharray="5,2" d="M20.6,-771.82C22.65,-711.96 30.74,-535.69 56,-484.9 69.44,-457.88 78.28,-451.93 105,-437.9 109.13,-435.73 223.2,-412.82 290.35,-399.45"/>
<polygon fill="#9a32cd" stroke="#9a32cd" points="17.09,-772.07 20.26,-782.17 24.08,-772.29 17.09,-772.07"/>
<text text-anchor="middle" x="140.5" y="-440.9" font-family="Helvetica,sans-Serif" font-size="10.00"> varname</text>
</g>
<!-- Node20 -->
<g id="node20" class="node">
<title>Node20</title>
<g id="a_node20"><a xlink:href="structub__proc__fn__def.html" target="_top" xlink:title="Procedure or function definition Each has a name, a type, a starting line and a parameter list.">
<polygon fill="none" stroke="black" points="294,-942.4 294,-961.4 385,-961.4 385,-942.4 294,-942.4"/>
<text text-anchor="middle" x="339.5" y="-949.4" font-family="Helvetica,sans-Serif" font-size="10.00">ub_proc_fn_def</text>
</a>
</g>
</g>
<!-- Node2&#45;&gt;Node20 -->
<g id="edge42" class="edge">
<title>Node2&#45;&gt;Node20</title>
<path fill="none" stroke="#9a32cd" stroke-dasharray="5,2" d="M30.76,-810.24C44.83,-832.45 71.67,-869.23 105,-887.9 165.51,-921.8 245.02,-938.59 293.9,-946.24"/>
<polygon fill="#9a32cd" stroke="#9a32cd" points="33.57,-808.13 25.37,-801.43 27.6,-811.79 33.57,-808.13"/>
<text text-anchor="middle" x="140.5" y="-920.9" font-family="Helvetica,sans-Serif" font-size="10.00"> name</text>
</g>
<!-- Node22 -->
<g id="node22" class="node">
<title>Node22</title>
<g id="a_node22"><a xlink:href="structub__param.html" target="_top" xlink:title="FN/PROC parameter.">
<polygon fill="none" stroke="black" points="108,-1007.4 108,-1026.4 173,-1026.4 173,-1007.4 108,-1007.4"/>
<text text-anchor="middle" x="140.5" y="-1014.4" font-family="Helvetica,sans-Serif" font-size="10.00">ub_param</text>
</a>
</g>
</g>
<!-- Node2&#45;&gt;Node22 -->
<g id="edge46" class="edge">
<title>Node2&#45;&gt;Node22</title>
<path fill="none" stroke="#9a32cd" stroke-dasharray="5,2" d="M20.58,-812.09C22.33,-844.22 29.2,-908.04 56,-953.9 70.57,-978.83 99.25,-997.1 118.9,-1007.36"/>
<polygon fill="#9a32cd" stroke="#9a32cd" points="24.07,-811.62 20.14,-801.78 17.07,-811.92 24.07,-811.62"/>
<text text-anchor="middle" x="71.5" y="-989.9" font-family="Helvetica,sans-Serif" font-size="10.00"> name</text>
</g>
<!-- Node23 -->
<g id="node23" class="node">
<title>Node23</title>
<g id="a_node23"><a xlink:href="structub__var__string.html" target="_top" xlink:title="A string variable.">
<polygon fill="none" stroke="black" points="298,-875.4 298,-894.4 381,-894.4 381,-875.4 298,-875.4"/>
<text text-anchor="middle" x="339.5" y="-882.4" font-family="Helvetica,sans-Serif" font-size="10.00">ub_var_string</text>
</a>
</g>
</g>
<!-- Node2&#45;&gt;Node23 -->
<g id="edge49" class="edge">
<title>Node2&#45;&gt;Node23</title>
<path fill="none" stroke="#9a32cd" stroke-dasharray="5,2" d="M39.41,-808.17C44.64,-812.23 50.41,-816.41 56,-819.9 76.57,-832.75 81.94,-836.4 105,-843.9 170.56,-865.24 250.29,-876.21 297.58,-881.24"/>
<polygon fill="#9a32cd" stroke="#9a32cd" points="41.22,-805.14 31.23,-801.61 36.84,-810.6 41.22,-805.14"/>
<text text-anchor="middle" x="140.5" y="-875.9" font-family="Helvetica,sans-Serif" font-size="10.00"> value</text>
<text text-anchor="middle" x="140.5" y="-864.9" font-family="Helvetica,sans-Serif" font-size="10.00">varname</text>
</g>
<!-- Node25 -->
<g id="node25" class="node">
<title>Node25</title>
<g id="a_node25"><a xlink:href="structfor__state.html" target="_top" xlink:title="State for a FOR...NEXT loop.">
<polygon fill="none" stroke="black" points="309.5,-234.4 309.5,-253.4 369.5,-253.4 369.5,-234.4 309.5,-234.4"/>
<text text-anchor="middle" x="339.5" y="-241.4" font-family="Helvetica,sans-Serif" font-size="10.00">for_state</text>
</a>
</g>
</g>
<!-- Node2&#45;&gt;Node25 -->
<g id="edge54" class="edge">
<title>Node2&#45;&gt;Node25</title>
<path fill="none" stroke="#9a32cd" stroke-dasharray="5,2" d="M20.59,-771.97C22.49,-718.47 29.94,-567.43 56,-444.9 70.59,-376.3 64.21,-351.96 105,-294.9 133.79,-254.62 147.04,-243.6 194,-227.9 233.62,-214.66 282.4,-225.22 311.95,-234.35"/>
<polygon fill="#9a32cd" stroke="#9a32cd" points="17.09,-772.02 20.26,-782.12 24.08,-772.25 17.09,-772.02"/>
<text text-anchor="middle" x="140.5" y="-297.9" font-family="Helvetica,sans-Serif" font-size="10.00"> for_variable</text>
</g>
<!-- Node3&#45;&gt;Node1 -->
<g id="edge2" class="edge">
<title>Node3&#45;&gt;Node1</title>
<path fill="none" stroke="#9a32cd" stroke-dasharray="5,2" d="M595.47,-719.23C625.22,-771.32 709.57,-919 731.98,-958.23"/>
<polygon fill="#9a32cd" stroke="#9a32cd" points="598.43,-717.35 590.43,-710.4 592.35,-720.82 598.43,-717.35"/>
<text text-anchor="middle" x="653" y="-852.9" font-family="Helvetica,sans-Serif" font-size="10.00"> handler</text>
</g>
<!-- Node4 -->
<g id="node4" class="node">
<title>Node4</title>
<g id="a_node4"><a xlink:title=" ">
<polygon fill="none" stroke="#bfbfbf" points="294.5,-342.4 294.5,-361.4 384.5,-361.4 384.5,-342.4 294.5,-342.4"/>
<text text-anchor="middle" x="339.5" y="-349.4" font-family="Helvetica,sans-Serif" font-size="10.00">ub_return_type</text>
</a>
</g>
</g>
<!-- Node4&#45;&gt;Node3 -->
<g id="edge3" class="edge">
<title>Node4&#45;&gt;Node3</title>
<path fill="none" stroke="#9a32cd" stroke-dasharray="5,2" d="M395.01,-342.74C438.8,-338.74 498.77,-341.37 535,-376.9 581.07,-422.1 583.18,-641.89 583.07,-691.11"/>
<polygon fill="#9a32cd" stroke="#9a32cd" points="394.39,-339.29 384.81,-343.82 395.12,-346.25 394.39,-339.29"/>
<text text-anchor="middle" x="476" y="-379.9" font-family="Helvetica,sans-Serif" font-size="10.00"> fn_type</text>
</g>
<!-- Node5&#45;&gt;Node3 -->
<g id="edge4" class="edge">
<title>Node5&#45;&gt;Node3</title>
<path fill="none" stroke="#9a32cd" stroke-dasharray="5,2" d="M409.17,-809.9C448.63,-802.72 497.63,-789.21 535,-763.9 555.49,-750.02 570.9,-724.52 578.24,-710.59"/>
<polygon fill="#9a32cd" stroke="#9a32cd" points="408.35,-806.49 399.09,-811.63 409.54,-813.39 408.35,-806.49"/>
<text text-anchor="middle" x="476" y="-810.9" font-family="Helvetica,sans-Serif" font-size="10.00"> double_array_variables</text>
</g>
<!-- Node5&#45;&gt;Node5 -->
<g id="edge5" class="edge">
<title>Node5&#45;&gt;Node5</title>
<path fill="none" stroke="#9a32cd" stroke-dasharray="5,2" d="M319.13,-837.3C320.49,-842.22 327.28,-845.9 339.5,-845.9 359.05,-845.9 364.7,-836.47 356.45,-827.66"/>
<polygon fill="#9a32cd" stroke="#9a32cd" points="322.51,-838.25 322.55,-827.66 315.91,-835.92 322.51,-838.25"/>
<text text-anchor="middle" x="339.5" y="-848.9" font-family="Helvetica,sans-Serif" font-size="10.00"> next</text>
</g>
<!-- Node6 -->
<g id="node6" class="node">
<title>Node6</title>
<g id="a_node6"><a xlink:title=" ">
<polygon fill="none" stroke="#bfbfbf" points="115.5,-779.4 115.5,-798.4 165.5,-798.4 165.5,-779.4 115.5,-779.4"/>
<text text-anchor="middle" x="140.5" y="-786.4" font-family="Helvetica,sans-Serif" font-size="10.00">double</text>
</a>
</g>
</g>
<!-- Node6&#45;&gt;Node5 -->
<g id="edge6" class="edge">
<title>Node6&#45;&gt;Node5</title>
<path fill="none" stroke="#9a32cd" stroke-dasharray="5,2" d="M171.84,-802.23C178.99,-804.87 186.66,-807.31 194,-808.9 221.88,-814.94 253.45,-817.39 279.94,-818.25"/>
<polygon fill="#9a32cd" stroke="#9a32cd" points="173.1,-798.97 162.51,-798.57 170.54,-805.48 173.1,-798.97"/>
<text text-anchor="middle" x="228" y="-819.9" font-family="Helvetica,sans-Serif" font-size="10.00"> values</text>
</g>
<!-- Node6&#45;&gt;Node16 -->
<g id="edge28" class="edge">
<title>Node6&#45;&gt;Node16</title>
<path fill="none" stroke="#9a32cd" stroke-dasharray="5,2" d="M175.86,-786.64C200.12,-784.62 233.29,-781.02 262,-774.9 279.02,-771.28 297.66,-765.47 312.27,-760.48"/>
<polygon fill="#9a32cd" stroke="#9a32cd" points="175.42,-783.16 165.72,-787.43 175.97,-790.14 175.42,-783.16"/>
<text text-anchor="middle" x="228" y="-786.9" font-family="Helvetica,sans-Serif" font-size="10.00"> value</text>
</g>
<!-- Node7 -->
<g id="node7" class="node">
<title>Node7</title>
<g id="a_node7"><a xlink:title=" ">
<polygon fill="none" stroke="#bfbfbf" points="112.5,-558.4 112.5,-577.4 168.5,-577.4 168.5,-558.4 112.5,-558.4"/>
<text text-anchor="middle" x="140.5" y="-565.4" font-family="Helvetica,sans-Serif" font-size="10.00">uint64_t</text>
</a>
</g>
</g>
<!-- Node7&#45;&gt;Node3 -->
<g id="edge18" class="edge">
<title>Node7&#45;&gt;Node3</title>
<path fill="none" stroke="#9a32cd" stroke-dasharray="5,2" d="M178.92,-571.68C229.69,-577.49 322.81,-590.59 399,-614.9 463.5,-635.48 534.75,-673.57 566.34,-691.32"/>
<polygon fill="#9a32cd" stroke="#9a32cd" points="179.07,-568.18 168.75,-570.55 178.3,-575.13 179.07,-568.18"/>
<text text-anchor="middle" x="339.5" y="-672.9" font-family="Helvetica,sans-Serif" font-size="10.00"> call_stack</text>
<text text-anchor="middle" x="339.5" y="-661.9" font-family="Helvetica,sans-Serif" font-size="10.00">call_stack_ptr</text>
<text text-anchor="middle" x="339.5" y="-650.9" font-family="Helvetica,sans-Serif" font-size="10.00">for_stack_ptr</text>
<text text-anchor="middle" x="339.5" y="-639.9" font-family="Helvetica,sans-Serif" font-size="10.00">if_nest_level</text>
<text text-anchor="middle" x="339.5" y="-628.9" font-family="Helvetica,sans-Serif" font-size="10.00">repeat_stack</text>
<text text-anchor="middle" x="339.5" y="-617.9" font-family="Helvetica,sans-Serif" font-size="10.00">repeat_stack_ptr</text>
</g>
<!-- Node7&#45;&gt;Node5 -->
<g id="edge7" class="edge">
<title>Node7&#45;&gt;Node5</title>
<path fill="none" stroke="#9a32cd" stroke-dasharray="5,2" d="M173.58,-581.21C180.29,-583.86 187.35,-586.55 194,-588.9 223.82,-599.45 242.03,-585.37 262,-609.9 315.26,-675.35 227.21,-733.07 280,-798.9 283.07,-802.73 286.93,-805.8 291.19,-808.26"/>
<polygon fill="#9a32cd" stroke="#9a32cd" points="174.67,-577.88 164.09,-577.4 172.07,-584.37 174.67,-577.88"/>
<text text-anchor="middle" x="228" y="-612.9" font-family="Helvetica,sans-Serif" font-size="10.00"> itemcount</text>
</g>
<!-- Node7&#45;&gt;Node8 -->
<g id="edge11" class="edge">
<title>Node7&#45;&gt;Node8</title>
<path fill="none" stroke="#9a32cd" stroke-dasharray="5,2" d="M178.45,-556.94C183.65,-555.52 188.95,-554.13 194,-552.9 224.21,-545.57 258.29,-538.66 285.77,-533.43"/>
<polygon fill="#9a32cd" stroke="#9a32cd" points="177.32,-553.63 168.64,-559.7 179.21,-560.36 177.32,-553.63"/>
<text text-anchor="middle" x="228" y="-555.9" font-family="Helvetica,sans-Serif" font-size="10.00"> itemcount</text>
</g>
<!-- Node7&#45;&gt;Node19 -->
<g id="edge35" class="edge">
<title>Node7&#45;&gt;Node19</title>
<path fill="none" stroke="#9a32cd" stroke-dasharray="5,2" d="M158.54,-551.21C184.34,-526.1 235.08,-477.33 280,-437.9 295.6,-424.21 314.23,-409.13 326.2,-399.6"/>
<polygon fill="#9a32cd" stroke="#9a32cd" points="156.08,-548.72 151.37,-558.21 160.97,-553.73 156.08,-548.72"/>
<text text-anchor="middle" x="228" y="-517.9" font-family="Helvetica,sans-Serif" font-size="10.00"> itemcount</text>
</g>
<!-- Node8&#45;&gt;Node3 -->
<g id="edge9" class="edge">
<title>Node8&#45;&gt;Node3</title>
<path fill="none" stroke="#9a32cd" stroke-dasharray="5,2" d="M406.4,-525.82C447.86,-530.33 499.97,-542.52 535,-573.9 570.81,-605.99 580.03,-667.58 582.3,-691.28"/>
<polygon fill="#9a32cd" stroke="#9a32cd" points="406.66,-522.33 396.37,-524.85 405.99,-529.29 406.66,-522.33"/>
<text text-anchor="middle" x="476" y="-576.9" font-family="Helvetica,sans-Serif" font-size="10.00"> string_array_variables</text>
</g>
<!-- Node8&#45;&gt;Node8 -->
<g id="edge10" class="edge">
<title>Node8&#45;&gt;Node8</title>
<path fill="none" stroke="#9a32cd" stroke-dasharray="5,2" d="M319.13,-543.3C320.49,-548.22 327.28,-551.9 339.5,-551.9 359.05,-551.9 364.7,-542.47 356.45,-533.66"/>
<polygon fill="#9a32cd" stroke="#9a32cd" points="322.51,-544.25 322.55,-533.66 315.91,-541.92 322.51,-544.25"/>
<text text-anchor="middle" x="339.5" y="-554.9" font-family="Helvetica,sans-Serif" font-size="10.00"> next</text>
</g>
<!-- Node9&#45;&gt;Node3 -->
<g id="edge13" class="edge">
<title>Node9&#45;&gt;Node3</title>
<path fill="none" stroke="#9a32cd" stroke-dasharray="5,2" d="M383.77,-454.66C427.81,-454.86 495.11,-462.38 535,-501.9 562.65,-529.29 578.12,-655.45 582.01,-691.35"/>
<polygon fill="#9a32cd" stroke="#9a32cd" points="383.62,-451.16 373.65,-454.75 383.68,-458.16 383.62,-451.16"/>
<text text-anchor="middle" x="476" y="-515.9" font-family="Helvetica,sans-Serif" font-size="10.00"> int_variables</text>
<text text-anchor="middle" x="476" y="-504.9" font-family="Helvetica,sans-Serif" font-size="10.00">local_int_variables</text>
</g>
<!-- Node9&#45;&gt;Node9 -->
<g id="edge14" class="edge">
<title>Node9&#45;&gt;Node9</title>
<path fill="none" stroke="#9a32cd" stroke-dasharray="5,2" d="M319.13,-476.3C320.49,-481.22 327.28,-484.9 339.5,-484.9 359.05,-484.9 364.7,-475.47 356.45,-466.66"/>
<polygon fill="#9a32cd" stroke="#9a32cd" points="322.51,-477.25 322.55,-466.66 315.91,-474.92 322.51,-477.25"/>
<text text-anchor="middle" x="339.5" y="-487.9" font-family="Helvetica,sans-Serif" font-size="10.00"> next</text>
</g>
<!-- Node10 -->
<g id="node10" class="node">
<title>Node10</title>
<g id="a_node10"><a xlink:title=" ">
<polygon fill="none" stroke="#bfbfbf" points="115.5,-315.4 115.5,-334.4 165.5,-334.4 165.5,-315.4 115.5,-315.4"/>
<text text-anchor="middle" x="140.5" y="-322.4" font-family="Helvetica,sans-Serif" font-size="10.00">int64_t</text>
</a>
</g>
</g>
<!-- Node10&#45;&gt;Node3 -->
<g id="edge24" class="edge">
<title>Node10&#45;&gt;Node3</title>
<path fill="none" stroke="#9a32cd" stroke-dasharray="5,2" d="M175.74,-312.07C253.76,-285.3 444.95,-234.16 535,-337.9 582.61,-392.75 583.47,-638.89 583.11,-691.13"/>
<polygon fill="#9a32cd" stroke="#9a32cd" points="174.21,-308.9 165.94,-315.51 176.53,-315.5 174.21,-308.9"/>
<text text-anchor="middle" x="339.5" y="-308.9" font-family="Helvetica,sans-Serif" font-size="10.00"> current_linenum</text>
<text text-anchor="middle" x="339.5" y="-297.9" font-family="Helvetica,sans-Serif" font-size="10.00">eval_linenum</text>
<text text-anchor="middle" x="339.5" y="-286.9" font-family="Helvetica,sans-Serif" font-size="10.00">highest_line</text>
</g>
<!-- Node10&#45;&gt;Node9 -->
<g id="edge16" class="edge">
<title>Node10&#45;&gt;Node9</title>
<path fill="none" stroke="#9a32cd" stroke-dasharray="5,2" d="M175.44,-332.9C208.91,-341.08 255.91,-353.46 262,-359.9 286.44,-385.75 255.96,-411.67 280,-437.9 286.64,-445.15 296.06,-449.64 305.41,-452.42"/>
<polygon fill="#9a32cd" stroke="#9a32cd" points="176.09,-329.46 165.55,-330.51 174.45,-336.26 176.09,-329.46"/>
<text text-anchor="middle" x="228" y="-362.9" font-family="Helvetica,sans-Serif" font-size="10.00"> value</text>
</g>
<!-- Node10&#45;&gt;Node19 -->
<g id="edge37" class="edge">
<title>Node10&#45;&gt;Node19</title>
<path fill="none" stroke="#9a32cd" stroke-dasharray="5,2" d="M175.33,-315.72C201.3,-310.76 236.84,-308.71 262,-325.9 279.79,-338.05 264.27,-356.18 280,-370.9 284.13,-374.77 289.06,-377.85 294.28,-380.3"/>
<polygon fill="#9a32cd" stroke="#9a32cd" points="174.6,-312.3 165.55,-317.81 176.06,-319.14 174.6,-312.3"/>
<text text-anchor="middle" x="228" y="-328.9" font-family="Helvetica,sans-Serif" font-size="10.00"> values</text>
</g>
<!-- Node10&#45;&gt;Node20 -->
<g id="edge43" class="edge">
<title>Node10&#45;&gt;Node20</title>
<path fill="none" stroke="#9a32cd" stroke-dasharray="5,2" d="M159.85,-341.17C192.16,-370.01 256.34,-428.26 262,-440.9 284.33,-490.84 247.04,-889.24 280,-932.9 283.6,-937.67 288.43,-941.27 293.77,-943.97"/>
<polygon fill="#9a32cd" stroke="#9a32cd" points="162.18,-338.55 152.38,-334.52 157.52,-343.78 162.18,-338.55"/>
<text text-anchor="middle" x="228" y="-443.9" font-family="Helvetica,sans-Serif" font-size="10.00"> line</text>
</g>
<!-- Node10&#45;&gt;Node25 -->
<g id="edge55" class="edge">
<title>Node10&#45;&gt;Node25</title>
<path fill="none" stroke="#9a32cd" stroke-dasharray="5,2" d="M152.79,-306.77C167.24,-283.71 190.79,-246.65 194,-244.9 229.92,-225.35 278.68,-230.29 309.37,-236.46"/>
<polygon fill="#9a32cd" stroke="#9a32cd" points="149.74,-305.04 147.41,-315.38 155.68,-308.75 149.74,-305.04"/>
<text text-anchor="middle" x="228" y="-269.9" font-family="Helvetica,sans-Serif" font-size="10.00"> line_after_for</text>
<text text-anchor="middle" x="228" y="-258.9" font-family="Helvetica,sans-Serif" font-size="10.00">step</text>
<text text-anchor="middle" x="228" y="-247.9" font-family="Helvetica,sans-Serif" font-size="10.00">to</text>
</g>
<!-- Node11 -->
<g id="node11" class="node">
<title>Node11</title>
<g id="a_node11"><a xlink:title=" ">
<polygon fill="none" stroke="#bfbfbf" points="121.5,-678.4 121.5,-697.4 159.5,-697.4 159.5,-678.4 121.5,-678.4"/>
<text text-anchor="middle" x="140.5" y="-685.4" font-family="Helvetica,sans-Serif" font-size="10.00">bool</text>
</a>
</g>
</g>
<!-- Node11&#45;&gt;Node3 -->
<g id="edge39" class="edge">
<title>Node11&#45;&gt;Node3</title>
<path fill="none" stroke="#9a32cd" stroke-dasharray="5,2" d="M170.03,-685.97C177.8,-685.53 186.22,-685.12 194,-684.9 224.21,-684.04 231.79,-684.15 262,-684.9 369.1,-687.57 496.11,-695.24 552.92,-698.9"/>
<polygon fill="#9a32cd" stroke="#9a32cd" points="169.72,-682.49 159.95,-686.59 170.15,-689.47 169.72,-682.49"/>
<text text-anchor="middle" x="339.5" y="-703.9" font-family="Helvetica,sans-Serif" font-size="10.00"> ended</text>
<text text-anchor="middle" x="339.5" y="-692.9" font-family="Helvetica,sans-Serif" font-size="10.00">errored</text>
</g>
<!-- Node11&#45;&gt;Node9 -->
<g id="edge17" class="edge">
<title>Node11&#45;&gt;Node9</title>
<path fill="none" stroke="#9a32cd" stroke-dasharray="5,2" d="M158.62,-671.66C168.38,-663.08 181.2,-652.9 194,-645.9 221.99,-630.59 241.5,-647.34 262,-622.9 296.1,-582.26 253.75,-551.01 280,-504.9 289.55,-488.12 307.43,-474.78 320.91,-466.47"/>
<polygon fill="#9a32cd" stroke="#9a32cd" points="156.25,-669.08 151.2,-678.39 160.96,-674.27 156.25,-669.08"/>
<text text-anchor="middle" x="228" y="-648.9" font-family="Helvetica,sans-Serif" font-size="10.00"> global</text>
</g>
<!-- Node11&#45;&gt;Node16 -->
<g id="edge31" class="edge">
<title>Node11&#45;&gt;Node16</title>
<path fill="none" stroke="#9a32cd" stroke-dasharray="5,2" d="M169.71,-686.25C195.37,-686 233.48,-688.85 262,-704.9 273.01,-711.1 269.85,-719.39 280,-726.9 288.12,-732.91 297.96,-737.7 307.23,-741.37"/>
<polygon fill="#9a32cd" stroke="#9a32cd" points="169.44,-682.76 159.53,-686.52 169.62,-689.76 169.44,-682.76"/>
<text text-anchor="middle" x="228" y="-707.9" font-family="Helvetica,sans-Serif" font-size="10.00"> global</text>
</g>
<!-- Node11&#45;&gt;Node23 -->
<g id="edge50" class="edge">
<title>Node11&#45;&gt;Node23</title>
<path fill="none" stroke="#9a32cd" stroke-dasharray="5,2" d="M168.22,-702.31C201.85,-720.67 255.98,-751.1 262,-759.9 288.99,-799.34 248.76,-829.74 280,-865.9 284.75,-871.4 291.1,-875.31 297.87,-878.1"/>
<polygon fill="#9a32cd" stroke="#9a32cd" points="169.8,-699.18 159.34,-697.48 166.45,-705.33 169.8,-699.18"/>
<text text-anchor="middle" x="228" y="-762.9" font-family="Helvetica,sans-Serif" font-size="10.00"> global</text>
</g>
<!-- Node12&#45;&gt;Node3 -->
<g id="edge20" class="edge">
<title>Node12&#45;&gt;Node3</title>
<path fill="none" stroke="#9a32cd" stroke-dasharray="5,2" d="M376.64,-156.82C421.39,-158.85 496.39,-169.66 535,-216.9 566.19,-255.07 580.42,-626.27 582.68,-691.23"/>
<polygon fill="#9a32cd" stroke="#9a32cd" points="376.61,-153.32 366.5,-156.48 376.38,-160.31 376.61,-153.32"/>
<text text-anchor="middle" x="476" y="-219.9" font-family="Helvetica,sans-Serif" font-size="10.00"> cons</text>
</g>
<!-- Node13 -->
<g id="node13" class="node">
<title>Node13</title>
<g id="a_node13"><a xlink:title=" ">
<polygon fill="none" stroke="#bfbfbf" points="118,-64.4 118,-83.4 163,-83.4 163,-64.4 118,-64.4"/>
<text text-anchor="middle" x="140.5" y="-71.4" font-family="Helvetica,sans-Serif" font-size="10.00">size_t</text>
</a>
</g>
</g>
<!-- Node13&#45;&gt;Node3 -->
<g id="edge26" class="edge">
<title>Node13&#45;&gt;Node3</title>
<path fill="none" stroke="#9a32cd" stroke-dasharray="5,2" d="M172.97,-69.25C249.2,-59.99 444.14,-48.64 535,-157.9 570.48,-200.56 581.23,-620.69 582.79,-690.96"/>
<polygon fill="#9a32cd" stroke="#9a32cd" points="172.49,-65.78 163.02,-70.53 173.39,-72.73 172.49,-65.78"/>
<text text-anchor="middle" x="339.5" y="-80.9" font-family="Helvetica,sans-Serif" font-size="10.00"> oldlen</text>
</g>
<!-- Node13&#45;&gt;Node12 -->
<g id="edge22" class="edge">
<title>Node13&#45;&gt;Node12</title>
<path fill="none" stroke="#9a32cd" stroke-dasharray="5,2" d="M172.99,-80.51C197.81,-86.32 232.95,-95.88 262,-108.9 285.75,-119.55 310.86,-136.57 325.59,-147.22"/>
<polygon fill="#9a32cd" stroke="#9a32cd" points="173.56,-77.05 163.03,-78.25 172.01,-83.88 173.56,-77.05"/>
<text text-anchor="middle" x="228" y="-111.9" font-family="Helvetica,sans-Serif" font-size="10.00"> bufcnt</text>
</g>
<!-- Node14 -->
<g id="node14" class="node">
<title>Node14</title>
<g id="a_node14"><a xlink:title=" ">
<polygon fill="none" stroke="#bfbfbf" points="115.5,-117.4 115.5,-136.4 165.5,-136.4 165.5,-117.4 115.5,-117.4"/>
<text text-anchor="middle" x="140.5" y="-124.4" font-family="Helvetica,sans-Serif" font-size="10.00">uint8_t</text>
</a>
</g>
</g>
<!-- Node14&#45;&gt;Node12 -->
<g id="edge23" class="edge">
<title>Node14&#45;&gt;Node12</title>
<path fill="none" stroke="#9a32cd" stroke-dasharray="5,2" d="M175.9,-123.99C200.17,-122.71 233.34,-122.53 262,-127.9 282.1,-131.67 303.8,-140.38 318.93,-147.27"/>
<polygon fill="#9a32cd" stroke="#9a32cd" points="175.51,-120.51 165.75,-124.62 175.94,-127.49 175.51,-120.51"/>
<text text-anchor="middle" x="228" y="-163.9" font-family="Helvetica,sans-Serif" font-size="10.00"> attributes</text>
<text text-anchor="middle" x="228" y="-152.9" font-family="Helvetica,sans-Serif" font-size="10.00">last</text>
<text text-anchor="middle" x="228" y="-141.9" font-family="Helvetica,sans-Serif" font-size="10.00">x</text>
<text text-anchor="middle" x="228" y="-130.9" font-family="Helvetica,sans-Serif" font-size="10.00">y</text>
</g>
<!-- Node15 -->
<g id="node15" class="node">
<title>Node15</title>
<g id="a_node15"><a xlink:title=" ">
<polygon fill="none" stroke="#bfbfbf" points="314.5,-4.4 314.5,-23.4 364.5,-23.4 364.5,-4.4 314.5,-4.4"/>
<text text-anchor="middle" x="339.5" y="-11.4" font-family="Helvetica,sans-Serif" font-size="10.00">int32_t</text>
</a>
</g>
</g>
<!-- Node15&#45;&gt;Node3 -->
<g id="edge25" class="edge">
<title>Node15&#45;&gt;Node3</title>
<path fill="none" stroke="#9a32cd" stroke-dasharray="5,2" d="M374.57,-5.97C418.42,2.01 493.84,7.75 535,-34.9 582.7,-84.33 583.22,-613.05 583.03,-691.26"/>
<polygon fill="#9a32cd" stroke="#9a32cd" points="373.81,-2.55 364.66,-7.9 375.15,-9.42 373.81,-2.55"/>
<text text-anchor="middle" x="476" y="-37.9" font-family="Helvetica,sans-Serif" font-size="10.00"> graphics_colour</text>
</g>
<!-- Node16&#45;&gt;Node3 -->
<g id="edge27" class="edge">
<title>Node16&#45;&gt;Node3</title>
<path fill="none" stroke="#9a32cd" stroke-dasharray="5,2" d="M393.53,-742.57C432.81,-736.04 487.52,-726.19 535,-714.9 540.83,-713.52 547,-711.86 552.91,-710.18"/>
<polygon fill="#9a32cd" stroke="#9a32cd" points="392.94,-739.12 383.64,-744.2 394.07,-746.03 392.94,-739.12"/>
<text text-anchor="middle" x="476" y="-751.9" font-family="Helvetica,sans-Serif" font-size="10.00"> double_variables</text>
<text text-anchor="middle" x="476" y="-740.9" font-family="Helvetica,sans-Serif" font-size="10.00">local_double_variables</text>
</g>
<!-- Node16&#45;&gt;Node16 -->
<g id="edge30" class="edge">
<title>Node16&#45;&gt;Node16</title>
<path fill="none" stroke="#9a32cd" stroke-dasharray="5,2" d="M319.13,-770.3C320.49,-775.22 327.28,-778.9 339.5,-778.9 359.05,-778.9 364.7,-769.47 356.45,-760.66"/>
<polygon fill="#9a32cd" stroke="#9a32cd" points="322.51,-771.25 322.55,-760.66 315.91,-768.92 322.51,-771.25"/>
<text text-anchor="middle" x="339.5" y="-781.9" font-family="Helvetica,sans-Serif" font-size="10.00"> next</text>
</g>
<!-- Node17 -->
<g id="node17" class="node">
<title>Node17</title>
<g id="a_node17"><a xlink:title=" ">
<polygon fill="none" stroke="#bfbfbf" points="289,-1176.4 289,-1195.4 390,-1195.4 390,-1176.4 289,-1176.4"/>
<text text-anchor="middle" x="339.5" y="-1183.4" font-family="Helvetica,sans-Serif" font-size="10.00">struct hashmap *</text>
</a>
</g>
</g>
<!-- Node17&#45;&gt;Node3 -->
<g id="edge32" class="edge">
<title>Node17&#45;&gt;Node3</title>
<path fill="none" stroke="#9a32cd" stroke-dasharray="5,2" d="M397.09,-1196.63C440.89,-1201.38 499.83,-1199.4 535,-1163.9 568.13,-1130.46 580.72,-774.35 582.71,-710.63"/>
<polygon fill="#9a32cd" stroke="#9a32cd" points="397.5,-1193.15 387.15,-1195.41 396.65,-1200.1 397.5,-1193.15"/>
<text text-anchor="middle" x="476" y="-1200.9" font-family="Helvetica,sans-Serif" font-size="10.00"> lines</text>
</g>
<!-- Node18 -->
<g id="node18" class="node">
<title>Node18</title>
<g id="a_node18"><a xlink:title=" ">
<polygon fill="none" stroke="#bfbfbf" points="325,-1138.4 325,-1157.4 354,-1157.4 354,-1138.4 325,-1138.4"/>
<text text-anchor="middle" x="339.5" y="-1145.4" font-family="Helvetica,sans-Serif" font-size="10.00">int</text>
</a>
</g>
</g>
<!-- Node18&#45;&gt;Node3 -->
<g id="edge33" class="edge">
<title>Node18&#45;&gt;Node3</title>
<path fill="none" stroke="#9a32cd" stroke-dasharray="5,2" d="M364.1,-1145.98C413.3,-1141.76 523.25,-1131.05 535,-1118.9 564.45,-1088.44 579.94,-769.89 582.59,-710.43"/>
<polygon fill="#9a32cd" stroke="#9a32cd" points="363.72,-1142.5 354.05,-1146.83 364.31,-1149.48 363.72,-1142.5"/>
<text text-anchor="middle" x="476" y="-1153.9" font-family="Helvetica,sans-Serif" font-size="10.00"> bracket_depth</text>
<text text-anchor="middle" x="476" y="-1142.9" font-family="Helvetica,sans-Serif" font-size="10.00">current_token</text>
</g>
<!-- Node19&#45;&gt;Node3 -->
<g id="edge34" class="edge">
<title>Node19&#45;&gt;Node3</title>
<path fill="none" stroke="#9a32cd" stroke-dasharray="5,2" d="M398.77,-389.74C442.48,-392.9 500.5,-404.6 535,-441.9 569.7,-479.42 580.4,-648.84 582.55,-691.25"/>
<polygon fill="#9a32cd" stroke="#9a32cd" points="398.74,-386.24 388.55,-389.14 398.32,-393.22 398.74,-386.24"/>
<text text-anchor="middle" x="476" y="-444.9" font-family="Helvetica,sans-Serif" font-size="10.00"> int_array_variables</text>
</g>
<!-- Node19&#45;&gt;Node19 -->
<g id="edge38" class="edge">
<title>Node19&#45;&gt;Node19</title>
<path fill="none" stroke="#9a32cd" stroke-dasharray="5,2" d="M319.13,-409.3C320.49,-414.22 327.28,-417.9 339.5,-417.9 359.05,-417.9 364.7,-408.47 356.45,-399.66"/>
<polygon fill="#9a32cd" stroke="#9a32cd" points="322.51,-410.25 322.55,-399.66 315.91,-407.92 322.51,-410.25"/>
<text text-anchor="middle" x="339.5" y="-420.9" font-family="Helvetica,sans-Serif" font-size="10.00"> next</text>
</g>
<!-- Node20&#45;&gt;Node3 -->
<g id="edge40" class="edge">
<title>Node20&#45;&gt;Node3</title>
<path fill="none" stroke="#9a32cd" stroke-dasharray="5,2" d="M395.31,-952.39C439,-949.75 498.68,-938.85 535,-901.9 562.54,-873.89 578.09,-746.71 582.01,-710.53"/>
<polygon fill="#9a32cd" stroke="#9a32cd" points="394.95,-948.91 385.13,-952.88 395.29,-955.9 394.95,-948.91"/>
<text text-anchor="middle" x="476" y="-952.9" font-family="Helvetica,sans-Serif" font-size="10.00"> defs</text>
</g>
<!-- Node20&#45;&gt;Node20 -->
<g id="edge44" class="edge">
<title>Node20&#45;&gt;Node20</title>
<path fill="none" stroke="#9a32cd" stroke-dasharray="5,2" d="M319.13,-971.3C320.49,-976.22 327.28,-979.9 339.5,-979.9 359.05,-979.9 364.7,-970.47 356.45,-961.66"/>
<polygon fill="#9a32cd" stroke="#9a32cd" points="322.51,-972.25 322.55,-961.66 315.91,-969.92 322.51,-972.25"/>
<text text-anchor="middle" x="339.5" y="-982.9" font-family="Helvetica,sans-Serif" font-size="10.00"> next</text>
</g>
<!-- Node21 -->
<g id="node21" class="node">
<title>Node21</title>
<g id="a_node21"><a xlink:title=" ">
<polygon fill="none" stroke="#bfbfbf" points="105,-969.4 105,-988.4 176,-988.4 176,-969.4 105,-969.4"/>
<text text-anchor="middle" x="140.5" y="-976.4" font-family="Helvetica,sans-Serif" font-size="10.00">ub_fn_type</text>
</a>
</g>
</g>
<!-- Node21&#45;&gt;Node20 -->
<g id="edge41" class="edge">
<title>Node21&#45;&gt;Node20</title>
<path fill="none" stroke="#9a32cd" stroke-dasharray="5,2" d="M186.29,-972.76C218.43,-968.36 261.56,-962.45 293.7,-958.04"/>
<polygon fill="#9a32cd" stroke="#9a32cd" points="185.7,-969.31 176.27,-974.14 186.65,-976.25 185.7,-969.31"/>
<text text-anchor="middle" x="228" y="-973.9" font-family="Helvetica,sans-Serif" font-size="10.00"> type</text>
</g>
<!-- Node22&#45;&gt;Node3 -->
<g id="edge56" class="edge">
<title>Node22&#45;&gt;Node3</title>
<path fill="none" stroke="#9a32cd" stroke-dasharray="5,2" d="M182.99,-1026.35C264.11,-1042.08 443.73,-1062.99 535,-964.9 570.54,-926.7 580.64,-753.23 582.6,-710.46"/>
<polygon fill="#9a32cd" stroke="#9a32cd" points="183.63,-1022.9 173.14,-1024.37 182.25,-1029.77 183.63,-1022.9"/>
<text text-anchor="middle" x="339.5" y="-1041.9" font-family="Helvetica,sans-Serif" font-size="10.00"> param</text>
</g>
<!-- Node22&#45;&gt;Node20 -->
<g id="edge45" class="edge">
<title>Node22&#45;&gt;Node20</title>
<path fill="none" stroke="#9a32cd" stroke-dasharray="5,2" d="M183.05,-1007.47C206.49,-1001.76 236.17,-993.85 262,-984.9 281.68,-978.09 303.43,-968.5 318.69,-961.41"/>
<polygon fill="#9a32cd" stroke="#9a32cd" points="182,-1004.13 173.09,-1009.86 183.63,-1010.93 182,-1004.13"/>
<text text-anchor="middle" x="228" y="-1006.9" font-family="Helvetica,sans-Serif" font-size="10.00"> params</text>
</g>
<!-- Node22&#45;&gt;Node22 -->
<g id="edge47" class="edge">
<title>Node22&#45;&gt;Node22</title>
<path fill="none" stroke="#9a32cd" stroke-dasharray="5,2" d="M127.98,-1036.67C128.96,-1041.4 133.14,-1044.9 140.5,-1044.9 152.59,-1044.9 156.08,-1035.47 150.98,-1026.66"/>
<polygon fill="#9a32cd" stroke="#9a32cd" points="131.45,-1037.16 130.02,-1026.66 124.59,-1035.76 131.45,-1037.16"/>
<text text-anchor="middle" x="140.5" y="-1047.9" font-family="Helvetica,sans-Serif" font-size="10.00"> next</text>
</g>
<!-- Node23&#45;&gt;Node3 -->
<g id="edge48" class="edge">
<title>Node23&#45;&gt;Node3</title>
<path fill="none" stroke="#9a32cd" stroke-dasharray="5,2" d="M391.39,-880.72C434.61,-874.63 495.71,-859.67 535,-822.9 568.57,-791.49 579.05,-733.69 581.97,-710.7"/>
<polygon fill="#9a32cd" stroke="#9a32cd" points="390.83,-877.27 381.36,-882.02 391.73,-884.21 390.83,-877.27"/>
<text text-anchor="middle" x="476" y="-889.9" font-family="Helvetica,sans-Serif" font-size="10.00"> local_string_variables</text>
<text text-anchor="middle" x="476" y="-878.9" font-family="Helvetica,sans-Serif" font-size="10.00">str_variables</text>
</g>
<!-- Node23&#45;&gt;Node23 -->
<g id="edge51" class="edge">
<title>Node23&#45;&gt;Node23</title>
<path fill="none" stroke="#9a32cd" stroke-dasharray="5,2" d="M319.13,-904.3C320.49,-909.22 327.28,-912.9 339.5,-912.9 359.05,-912.9 364.7,-903.47 356.45,-894.66"/>
<polygon fill="#9a32cd" stroke="#9a32cd" points="322.51,-905.25 322.55,-894.66 315.91,-902.92 322.51,-905.25"/>
<text text-anchor="middle" x="339.5" y="-915.9" font-family="Helvetica,sans-Serif" font-size="10.00"> next</text>
</g>
<!-- Node24 -->
<g id="node24" class="node">
<title>Node24</title>
<g id="a_node24"><a xlink:title=" ">
<polygon fill="none" stroke="#bfbfbf" points="316.5,-1100.4 316.5,-1119.4 362.5,-1119.4 362.5,-1100.4 316.5,-1100.4"/>
<text text-anchor="middle" x="339.5" y="-1107.4" font-family="Helvetica,sans-Serif" font-size="10.00">void *</text>
</a>
</g>
</g>
<!-- Node24&#45;&gt;Node3 -->
<g id="edge52" class="edge">
<title>Node24&#45;&gt;Node3</title>
<path fill="none" stroke="#9a32cd" stroke-dasharray="5,2" d="M372.73,-1107.9C425.05,-1104.33 523.76,-1096.18 535,-1084.9 562.33,-1057.48 579.36,-768.13 582.48,-710.76"/>
<polygon fill="#9a32cd" stroke="#9a32cd" points="372.37,-1104.41 362.62,-1108.57 372.83,-1111.4 372.37,-1104.41"/>
<text text-anchor="middle" x="476" y="-1106.9" font-family="Helvetica,sans-Serif" font-size="10.00"> fn_return</text>
</g>
<!-- Node25&#45;&gt;Node3 -->
<g id="edge53" class="edge">
<title>Node25&#45;&gt;Node3</title>
<path fill="none" stroke="#9a32cd" stroke-dasharray="5,2" d="M379.7,-235.53C423.89,-228.62 494.79,-225.58 535,-265.9 566.19,-297.17 580.32,-630.45 582.65,-691.37"/>
<polygon fill="#9a32cd" stroke="#9a32cd" points="378.89,-232.12 369.62,-237.25 380.06,-239.02 378.89,-232.12"/>
<text text-anchor="middle" x="476" y="-268.9" font-family="Helvetica,sans-Serif" font-size="10.00"> for_stack</text>
</g>
</g>
</svg>
