<?xml version="1.0" encoding="UTF-8" standalone="no"?>
<!DOCTYPE svg PUBLIC "-//W3C//DTD SVG 1.1//EN"
 "http://www.w3.org/Graphics/SVG/1.1/DTD/svg11.dtd">
<!-- Generated by graphviz version 2.43.0 (0)
 -->
<!-- Title: fat32_fs_info_t Pages: 1 -->
<svg width="148pt" height="139pt"
 viewBox="0.00 0.00 148.00 139.00" xmlns="http://www.w3.org/2000/svg" xmlns:xlink="http://www.w3.org/1999/xlink">
<g id="graph0" class="graph" transform="scale(1 1) rotate(0) translate(4 135)">
<title>fat32_fs_info_t</title>
<!-- Node1 -->
<g id="node1" class="node">
<title>Node1</title>
<g id="a_node1"><a xlink:title="FAT32 FSINFO structure.">
<polygon fill="#bfbfbf" stroke="black" points="11.5,-0.5 11.5,-19.5 100.5,-19.5 100.5,-0.5 11.5,-0.5"/>
<text text-anchor="middle" x="56" y="-7.5" font-family="Helvetica,sans-Serif" font-size="10.00">fat32_fs_info_t</text>
</a>
</g>
</g>
<!-- Node2 -->
<g id="node2" class="node">
<title>Node2</title>
<g id="a_node2"><a xlink:title=" ">
<polygon fill="none" stroke="#bfbfbf" points="0,-111.5 0,-130.5 38,-130.5 38,-111.5 0,-111.5"/>
<text text-anchor="middle" x="19" y="-118.5" font-family="Helvetica,sans-Serif" font-size="10.00">char</text>
</a>
</g>
</g>
<!-- Node2&#45;&gt;Node1 -->
<g id="edge1" class="edge">
<title>Node2&#45;&gt;Node1</title>
<path fill="none" stroke="#9a32cd" stroke-dasharray="5,2" d="M14.73,-101.26C11.77,-83.87 9.96,-57.79 20,-38 23.96,-30.2 31.35,-24.05 38.4,-19.61"/>
<polygon fill="#9a32cd" stroke="#9a32cd" points="11.34,-102.15 16.72,-111.27 18.2,-100.78 11.34,-102.15"/>
<text text-anchor="middle" x="46" y="-68.5" font-family="Helvetica,sans-Serif" font-size="10.00"> reserved1</text>
<text text-anchor="middle" x="46" y="-57.5" font-family="Helvetica,sans-Serif" font-size="10.00">reserved2</text>
</g>
<!-- Node3 -->
<g id="node3" class="node">
<title>Node3</title>
<g id="a_node3"><a xlink:title=" ">
<polygon fill="none" stroke="#bfbfbf" points="66,-111.5 66,-130.5 122,-130.5 122,-111.5 66,-111.5"/>
<text text-anchor="middle" x="94" y="-118.5" font-family="Helvetica,sans-Serif" font-size="10.00">uint32_t</text>
</a>
</g>
</g>
<!-- Node3&#45;&gt;Node1 -->
<g id="edge2" class="edge">
<title>Node3&#45;&gt;Node1</title>
<path fill="none" stroke="#9a32cd" stroke-dasharray="5,2" d="M90.41,-100.87C86.88,-83.93 80.74,-58.75 72,-38 69.29,-31.57 65.29,-24.82 61.97,-19.68"/>
<polygon fill="#9a32cd" stroke="#9a32cd" points="87.07,-101.99 92.44,-111.12 93.94,-100.63 87.07,-101.99"/>
<text text-anchor="middle" x="114" y="-85" font-family="Helvetica,sans-Serif" font-size="10.00"> freecount</text>
<text text-anchor="middle" x="114" y="-74" font-family="Helvetica,sans-Serif" font-size="10.00">nextfree</text>
<text text-anchor="middle" x="114" y="-63" font-family="Helvetica,sans-Serif" font-size="10.00">signature1</text>
<text text-anchor="middle" x="114" y="-52" font-family="Helvetica,sans-Serif" font-size="10.00">structsig</text>
<text text-anchor="middle" x="114" y="-41" font-family="Helvetica,sans-Serif" font-size="10.00">trailsig</text>
</g>
</g>
</svg>
