<?xml version="1.0" encoding="UTF-8" standalone="no"?>
<!DOCTYPE svg PUBLIC "-//W3C//DTD SVG 1.1//EN"
 "http://www.w3.org/Graphics/SVG/1.1/DTD/svg11.dtd">
<!-- Generated by graphviz version 2.43.0 (0)
 -->
<!-- Title: ub_line_ref Pages: 1 -->
<svg width="142pt" height="97pt"
 viewBox="0.00 0.00 142.00 97.00" xmlns="http://www.w3.org/2000/svg" xmlns:xlink="http://www.w3.org/1999/xlink">
<g id="graph0" class="graph" transform="scale(1 1) rotate(0) translate(4 93)">
<title>ub_line_ref</title>
<!-- Node1 -->
<g id="node1" class="node">
<title>Node1</title>
<g id="a_node1"><a xlink:title=" ">
<polygon fill="#bfbfbf" stroke="black" points="15.5,-1.5 15.5,-20.5 86.5,-20.5 86.5,-1.5 15.5,-1.5"/>
<text text-anchor="middle" x="51" y="-8.5" font-family="Helvetica,sans-Serif" font-size="10.00">ub_line_ref</text>
</a>
</g>
</g>
<!-- Node1&#45;&gt;Node1 -->
<g id="edge3" class="edge">
<title>Node1&#45;&gt;Node1</title>
<path fill="none" stroke="#9a32cd" stroke-dasharray="5,2" d="M96.78,-16.26C101.49,-15.22 104.5,-13.47 104.5,-11 104.5,-7.05 96.79,-4.93 86.75,-4.66"/>
<polygon fill="#9a32cd" stroke="#9a32cd" points="96.32,-12.79 86.75,-17.34 97.07,-19.74 96.32,-12.79"/>
<text text-anchor="middle" x="117" y="-14" font-family="Helvetica,sans-Serif" font-size="10.00"> next</text>
<text text-anchor="middle" x="117" y="-3" font-family="Helvetica,sans-Serif" font-size="10.00">prev</text>
</g>
<!-- Node2 -->
<g id="node2" class="node">
<title>Node2</title>
<g id="a_node2"><a xlink:title=" ">
<polygon fill="none" stroke="#bfbfbf" points="0,-69.5 0,-88.5 38,-88.5 38,-69.5 0,-69.5"/>
<text text-anchor="middle" x="19" y="-76.5" font-family="Helvetica,sans-Serif" font-size="10.00">char</text>
</a>
</g>
</g>
<!-- Node2&#45;&gt;Node1 -->
<g id="edge1" class="edge">
<title>Node2&#45;&gt;Node1</title>
<path fill="none" stroke="#9a32cd" stroke-dasharray="5,2" d="M27.64,-60.19C33.81,-47.45 41.86,-30.86 46.71,-20.84"/>
<polygon fill="#9a32cd" stroke="#9a32cd" points="24.4,-58.85 23.18,-69.37 30.7,-61.9 24.4,-58.85"/>
<text text-anchor="middle" x="45.5" y="-43" font-family="Helvetica,sans-Serif" font-size="10.00"> ptr</text>
</g>
<!-- Node3 -->
<g id="node3" class="node">
<title>Node3</title>
<g id="a_node3"><a xlink:title=" ">
<polygon fill="none" stroke="#bfbfbf" points="56,-69.5 56,-88.5 112,-88.5 112,-69.5 56,-69.5"/>
<text text-anchor="middle" x="84" y="-76.5" font-family="Helvetica,sans-Serif" font-size="10.00">uint32_t</text>
</a>
</g>
</g>
<!-- Node3&#45;&gt;Node1 -->
<g id="edge2" class="edge">
<title>Node3&#45;&gt;Node1</title>
<path fill="none" stroke="#9a32cd" stroke-dasharray="5,2" d="M75.09,-60.19C68.73,-47.45 60.43,-30.86 55.42,-20.84"/>
<polygon fill="#9a32cd" stroke="#9a32cd" points="72.08,-61.99 79.69,-69.37 78.34,-58.86 72.08,-61.99"/>
<text text-anchor="middle" x="102" y="-43" font-family="Helvetica,sans-Serif" font-size="10.00"> line_number</text>
</g>
</g>
</svg>
