<?xml version="1.0" encoding="UTF-8" standalone="no"?>
<!DOCTYPE svg PUBLIC "-//W3C//DTD SVG 1.1//EN"
 "http://www.w3.org/Graphics/SVG/1.1/DTD/svg11.dtd">
<!-- Generated by graphviz version 2.43.0 (0)
 -->
<!-- Title: ioapic_t Pages: 1 -->
<svg width="208pt" height="106pt"
 viewBox="0.00 0.00 208.00 106.00" xmlns="http://www.w3.org/2000/svg" xmlns:xlink="http://www.w3.org/1999/xlink">
<g id="graph0" class="graph" transform="scale(1 1) rotate(0) translate(4 102)">
<title>ioapic_t</title>
<!-- Node1 -->
<g id="node1" class="node">
<title>Node1</title>
<g id="a_node1"><a xlink:title="Definition of an IOAPIC.">
<polygon fill="#bfbfbf" stroke="black" points="70.5,-0.5 70.5,-19.5 125.5,-19.5 125.5,-0.5 70.5,-0.5"/>
<text text-anchor="middle" x="98" y="-7.5" font-family="Helvetica,sans-Serif" font-size="10.00">ioapic_t</text>
</a>
</g>
</g>
<!-- Node2 -->
<g id="node2" class="node">
<title>Node2</title>
<g id="a_node2"><a xlink:title=" ">
<polygon fill="none" stroke="black" points="0,-78.5 0,-97.5 50,-97.5 50,-78.5 0,-78.5"/>
<text text-anchor="middle" x="25" y="-85.5" font-family="Helvetica,sans-Serif" font-size="10.00">uint8_t</text>
</a>
</g>
</g>
<!-- Node2&#45;&gt;Node1 -->
<g id="edge1" class="edge">
<title>Node2&#45;&gt;Node1</title>
<path fill="none" stroke="#9a32cd" stroke-dasharray="5,2" d="M28.71,-68.58C31.51,-58.56 36.24,-46.52 44,-38 51.41,-29.86 61.82,-23.86 71.53,-19.61"/>
<polygon fill="#9a32cd" stroke="#9a32cd" points="25.29,-67.85 26.38,-78.38 32.1,-69.46 25.29,-67.85"/>
<text text-anchor="middle" x="69" y="-52" font-family="Helvetica,sans-Serif" font-size="10.00"> gsi_count</text>
<text text-anchor="middle" x="69" y="-41" font-family="Helvetica,sans-Serif" font-size="10.00">id</text>
</g>
<!-- Node3 -->
<g id="node3" class="node">
<title>Node3</title>
<g id="a_node3"><a xlink:title=" ">
<polygon fill="none" stroke="black" points="70,-78.5 70,-97.5 126,-97.5 126,-78.5 70,-78.5"/>
<text text-anchor="middle" x="98" y="-85.5" font-family="Helvetica,sans-Serif" font-size="10.00">uint64_t</text>
</a>
</g>
</g>
<!-- Node3&#45;&gt;Node1 -->
<g id="edge2" class="edge">
<title>Node3&#45;&gt;Node1</title>
<path fill="none" stroke="#9a32cd" stroke-dasharray="5,2" d="M98,-68.22C98,-52.7 98,-31.36 98,-19.62"/>
<polygon fill="#9a32cd" stroke="#9a32cd" points="94.5,-68.28 98,-78.28 101.5,-68.28 94.5,-68.28"/>
<text text-anchor="middle" x="113.5" y="-46.5" font-family="Helvetica,sans-Serif" font-size="10.00"> paddr</text>
</g>
<!-- Node4 -->
<g id="node4" class="node">
<title>Node4</title>
<g id="a_node4"><a xlink:title=" ">
<polygon fill="none" stroke="black" points="144,-78.5 144,-97.5 200,-97.5 200,-78.5 144,-78.5"/>
<text text-anchor="middle" x="172" y="-85.5" font-family="Helvetica,sans-Serif" font-size="10.00">uint32_t</text>
</a>
</g>
</g>
<!-- Node4&#45;&gt;Node1 -->
<g id="edge3" class="edge">
<title>Node4&#45;&gt;Node1</title>
<path fill="none" stroke="#9a32cd" stroke-dasharray="5,2" d="M160.04,-69.97C152.76,-60.14 142.96,-47.81 133,-38 126.11,-31.21 117.52,-24.57 110.58,-19.57"/>
<polygon fill="#9a32cd" stroke="#9a32cd" points="157.26,-72.1 165.96,-78.15 162.94,-68 157.26,-72.1"/>
<text text-anchor="middle" x="175" y="-46.5" font-family="Helvetica,sans-Serif" font-size="10.00"> gsi_base</text>
</g>
</g>
</svg>
