<?xml version="1.0" encoding="UTF-8" standalone="no"?>
<!DOCTYPE svg PUBLIC "-//W3C//DTD SVG 1.1//EN"
 "http://www.w3.org/Graphics/SVG/1.1/DTD/svg11.dtd">
<!-- Generated by graphviz version 2.43.0 (0)
 -->
<!-- Title: ip_fragmented_packet_parts_t Pages: 1 -->
<svg width="365pt" height="184pt"
 viewBox="0.00 0.00 365.00 184.00" xmlns="http://www.w3.org/2000/svg" xmlns:xlink="http://www.w3.org/1999/xlink">
<g id="graph0" class="graph" transform="scale(1 1) rotate(0) translate(4 180)">
<title>ip_fragmented_packet_parts_t</title>
<!-- Node1 -->
<g id="node1" class="node">
<title>Node1</title>
<g id="a_node1"><a xlink:title=" ">
<polygon fill="#bfbfbf" stroke="black" points="197.5,-0.5 197.5,-30.5 322.5,-30.5 322.5,-0.5 197.5,-0.5"/>
<text text-anchor="start" x="205.5" y="-18.5" font-family="Helvetica,sans-Serif" font-size="10.00">ip_fragmented_packet</text>
<text text-anchor="middle" x="260" y="-7.5" font-family="Helvetica,sans-Serif" font-size="10.00">_parts_t</text>
</a>
</g>
</g>
<!-- Node2 -->
<g id="node2" class="node">
<title>Node2</title>
<g id="a_node2"><a xlink:href="structip__packet__frag__t.html" target="_top" xlink:title=" ">
<polygon fill="none" stroke="black" points="116.5,-78.5 116.5,-97.5 213.5,-97.5 213.5,-78.5 116.5,-78.5"/>
<text text-anchor="middle" x="165" y="-85.5" font-family="Helvetica,sans-Serif" font-size="10.00">ip_packet_frag_t</text>
</a>
</g>
</g>
<!-- Node2&#45;&gt;Node1 -->
<g id="edge1" class="edge">
<title>Node2&#45;&gt;Node1</title>
<path fill="none" stroke="#9a32cd" stroke-dasharray="5,2" d="M171.45,-68.98C174.66,-62.02 179.12,-54.45 185,-49 193.33,-41.28 203.77,-35.21 214.2,-30.52"/>
<polygon fill="#9a32cd" stroke="#9a32cd" points="168.14,-67.82 167.64,-78.4 174.63,-70.44 168.14,-67.82"/>
<text text-anchor="middle" x="215.5" y="-52" font-family="Helvetica,sans-Serif" font-size="10.00"> ordered_list</text>
</g>
<!-- Node3 -->
<g id="node3" class="node">
<title>Node3</title>
<g id="a_node3"><a xlink:title=" ">
<polygon fill="none" stroke="#bfbfbf" points="0,-156.5 0,-175.5 72,-175.5 72,-156.5 0,-156.5"/>
<text text-anchor="middle" x="36" y="-163.5" font-family="Helvetica,sans-Serif" font-size="10.00">ip_packet_t</text>
</a>
</g>
</g>
<!-- Node3&#45;&gt;Node2 -->
<g id="edge2" class="edge">
<title>Node3&#45;&gt;Node2</title>
<path fill="none" stroke="#9a32cd" stroke-dasharray="5,2" d="M59.39,-151.17C76.01,-141.35 98.87,-127.85 119,-116 129.53,-109.8 141.43,-102.81 150.49,-97.5"/>
<polygon fill="#9a32cd" stroke="#9a32cd" points="57.22,-148.39 50.39,-156.49 60.78,-154.42 57.22,-148.39"/>
<text text-anchor="middle" x="137" y="-124.5" font-family="Helvetica,sans-Serif" font-size="10.00"> packet</text>
</g>
<!-- Node4 -->
<g id="node4" class="node">
<title>Node4</title>
<g id="a_node4"><a xlink:title=" ">
<polygon fill="none" stroke="#bfbfbf" points="236,-156.5 236,-175.5 292,-175.5 292,-156.5 236,-156.5"/>
<text text-anchor="middle" x="264" y="-163.5" font-family="Helvetica,sans-Serif" font-size="10.00">uint32_t</text>
</a>
</g>
</g>
<!-- Node4&#45;&gt;Node1 -->
<g id="edge6" class="edge">
<title>Node4&#45;&gt;Node1</title>
<path fill="none" stroke="#9a32cd" stroke-dasharray="5,2" d="M263.49,-146.13C262.68,-116.07 261.12,-57.96 260.39,-30.95"/>
<polygon fill="#9a32cd" stroke="#9a32cd" points="259.99,-146.25 263.76,-156.16 266.99,-146.06 259.99,-146.25"/>
<text text-anchor="middle" x="273.5" y="-85.5" font-family="Helvetica,sans-Serif" font-size="10.00"> size</text>
</g>
<!-- Node4&#45;&gt;Node2 -->
<g id="edge3" class="edge">
<title>Node4&#45;&gt;Node2</title>
<path fill="none" stroke="#9a32cd" stroke-dasharray="5,2" d="M236.69,-151.66C229.39,-147.64 221.69,-142.97 215,-138 198.42,-125.67 181.81,-108.11 172.52,-97.7"/>
<polygon fill="#9a32cd" stroke="#9a32cd" points="235.12,-154.79 245.59,-156.36 238.39,-148.6 235.12,-154.79"/>
<text text-anchor="middle" x="230.5" y="-124.5" font-family="Helvetica,sans-Serif" font-size="10.00"> offset</text>
</g>
<!-- Node5 -->
<g id="node5" class="node">
<title>Node5</title>
<g id="a_node5"><a xlink:title=" ">
<polygon fill="none" stroke="#bfbfbf" points="90.5,-156.5 90.5,-175.5 217.5,-175.5 217.5,-156.5 90.5,-156.5"/>
<text text-anchor="middle" x="154" y="-163.5" font-family="Helvetica,sans-Serif" font-size="10.00">struct ip_packet_frag *</text>
</a>
</g>
</g>
<!-- Node5&#45;&gt;Node2 -->
<g id="edge4" class="edge">
<title>Node5&#45;&gt;Node2</title>
<path fill="none" stroke="#9a32cd" stroke-dasharray="5,2" d="M156.72,-146.22C158.96,-130.7 162.05,-109.36 163.75,-97.62"/>
<polygon fill="#9a32cd" stroke="#9a32cd" points="153.23,-145.88 155.26,-156.28 160.16,-146.89 153.23,-145.88"/>
<text text-anchor="middle" x="173.5" y="-130" font-family="Helvetica,sans-Serif" font-size="10.00"> next</text>
<text text-anchor="middle" x="173.5" y="-119" font-family="Helvetica,sans-Serif" font-size="10.00">prev</text>
</g>
<!-- Node6 -->
<g id="node6" class="node">
<title>Node6</title>
<g id="a_node6"><a xlink:title=" ">
<polygon fill="none" stroke="#bfbfbf" points="301,-78.5 301,-97.5 357,-97.5 357,-78.5 301,-78.5"/>
<text text-anchor="middle" x="329" y="-85.5" font-family="Helvetica,sans-Serif" font-size="10.00">uint16_t</text>
</a>
</g>
</g>
<!-- Node6&#45;&gt;Node1 -->
<g id="edge5" class="edge">
<title>Node6&#45;&gt;Node1</title>
<path fill="none" stroke="#9a32cd" stroke-dasharray="5,2" d="M313.43,-71.09C301.51,-58.91 285.23,-42.27 273.78,-30.58"/>
<polygon fill="#9a32cd" stroke="#9a32cd" points="311.04,-73.66 320.54,-78.36 316.05,-68.76 311.04,-73.66"/>
<text text-anchor="middle" x="306.5" y="-52" font-family="Helvetica,sans-Serif" font-size="10.00"> id</text>
</g>
</g>
</svg>
