<?xml version="1.0" encoding="UTF-8" standalone="no"?>
<!DOCTYPE svg PUBLIC "-//W3C//DTD SVG 1.1//EN"
 "http://www.w3.org/Graphics/SVG/1.1/DTD/svg11.dtd">
<!-- Generated by graphviz version 2.43.0 (0)
 -->
<!-- Title: tcp_conn_t Pages: 1 -->
<svg width="703pt" height="285pt"
 viewBox="0.00 0.00 702.50 285.00" xmlns="http://www.w3.org/2000/svg" xmlns:xlink="http://www.w3.org/1999/xlink">
<g id="graph0" class="graph" transform="scale(1 1) rotate(0) translate(4 281)">
<title>tcp_conn_t</title>
<!-- Node1 -->
<g id="node1" class="node">
<title>Node1</title>
<g id="a_node1"><a xlink:title=" ">
<polygon fill="#bfbfbf" stroke="black" points="253,-0.5 253,-19.5 322,-19.5 322,-0.5 253,-0.5"/>
<text text-anchor="middle" x="287.5" y="-7.5" font-family="Helvetica,sans-Serif" font-size="10.00">tcp_conn_t</text>
</a>
</g>
</g>
<!-- Node2 -->
<g id="node2" class="node">
<title>Node2</title>
<g id="a_node2"><a xlink:title=" ">
<polygon fill="none" stroke="black" points="0,-189.5 0,-208.5 71,-208.5 71,-189.5 0,-189.5"/>
<text text-anchor="middle" x="35.5" y="-196.5" font-family="Helvetica,sans-Serif" font-size="10.00">tcp_state_t</text>
</a>
</g>
</g>
<!-- Node2&#45;&gt;Node1 -->
<g id="edge1" class="edge">
<title>Node2&#45;&gt;Node1</title>
<path fill="none" stroke="#9a32cd" stroke-dasharray="5,2" d="M33.74,-179.09C31.75,-145.22 33.02,-74.34 73.5,-38 99.21,-14.92 199.01,-11.09 252.76,-10.74"/>
<polygon fill="#9a32cd" stroke="#9a32cd" points="30.28,-179.71 34.53,-189.41 37.26,-179.18 30.28,-179.71"/>
<text text-anchor="middle" x="87.5" y="-101.5" font-family="Helvetica,sans-Serif" font-size="10.00"> state</text>
</g>
<!-- Node3 -->
<g id="node3" class="node">
<title>Node3</title>
<g id="a_node3"><a xlink:title=" ">
<polygon fill="none" stroke="black" points="89.5,-189.5 89.5,-208.5 145.5,-208.5 145.5,-189.5 89.5,-189.5"/>
<text text-anchor="middle" x="117.5" y="-196.5" font-family="Helvetica,sans-Serif" font-size="10.00">uint32_t</text>
</a>
</g>
</g>
<!-- Node3&#45;&gt;Node1 -->
<g id="edge2" class="edge">
<title>Node3&#45;&gt;Node1</title>
<path fill="none" stroke="#9a32cd" stroke-dasharray="5,2" d="M112.48,-179.18C104.87,-146.02 94.83,-77 130.5,-38 146.51,-20.5 211.53,-14.33 252.71,-12.16"/>
<polygon fill="#9a32cd" stroke="#9a32cd" points="109.18,-180.44 114.99,-189.31 115.98,-178.76 109.18,-180.44"/>
<text text-anchor="middle" x="162" y="-162" font-family="Helvetica,sans-Serif" font-size="10.00"> irs</text>
<text text-anchor="middle" x="162" y="-151" font-family="Helvetica,sans-Serif" font-size="10.00">iss</text>
<text text-anchor="middle" x="162" y="-140" font-family="Helvetica,sans-Serif" font-size="10.00">local_addr</text>
<text text-anchor="middle" x="162" y="-129" font-family="Helvetica,sans-Serif" font-size="10.00">msl_time</text>
<text text-anchor="middle" x="162" y="-118" font-family="Helvetica,sans-Serif" font-size="10.00">rcv_lst</text>
<text text-anchor="middle" x="162" y="-107" font-family="Helvetica,sans-Serif" font-size="10.00">rcv_nxt</text>
<text text-anchor="middle" x="162" y="-96" font-family="Helvetica,sans-Serif" font-size="10.00">rcv_up</text>
<text text-anchor="middle" x="162" y="-85" font-family="Helvetica,sans-Serif" font-size="10.00">rcv_wnd</text>
<text text-anchor="start" x="130.5" y="-74" font-family="Helvetica,sans-Serif" font-size="10.00">recv_buffer</text>
<text text-anchor="middle" x="162" y="-63" font-family="Helvetica,sans-Serif" font-size="10.00">_spinlock</text>
<text text-anchor="middle" x="162" y="-52" font-family="Helvetica,sans-Serif" font-size="10.00">remote_addr</text>
<text text-anchor="middle" x="162" y="-41" font-family="Helvetica,sans-Serif" font-size="10.00">...</text>
</g>
<!-- Node4 -->
<g id="node4" class="node">
<title>Node4</title>
<g id="a_node4"><a xlink:title=" ">
<polygon fill="none" stroke="black" points="175.5,-189.5 175.5,-208.5 231.5,-208.5 231.5,-189.5 175.5,-189.5"/>
<text text-anchor="middle" x="203.5" y="-196.5" font-family="Helvetica,sans-Serif" font-size="10.00">uint16_t</text>
</a>
</g>
</g>
<!-- Node4&#45;&gt;Node1 -->
<g id="edge3" class="edge">
<title>Node4&#45;&gt;Node1</title>
<path fill="none" stroke="#9a32cd" stroke-dasharray="5,2" d="M200.15,-179.39C195.44,-147.1 190.65,-80.11 222.5,-38 229.87,-28.25 241.4,-22 252.72,-18"/>
<polygon fill="#9a32cd" stroke="#9a32cd" points="196.7,-179.96 201.75,-189.27 203.61,-178.84 196.7,-179.96"/>
<text text-anchor="middle" x="253" y="-107" font-family="Helvetica,sans-Serif" font-size="10.00"> local_port</text>
<text text-anchor="middle" x="253" y="-96" font-family="Helvetica,sans-Serif" font-size="10.00">remote_port</text>
</g>
<!-- Node5 -->
<g id="node5" class="node">
<title>Node5</title>
<g id="a_node5"><a xlink:title=" ">
<polygon fill="none" stroke="black" points="273,-189.5 273,-208.5 302,-208.5 302,-189.5 273,-189.5"/>
<text text-anchor="middle" x="287.5" y="-196.5" font-family="Helvetica,sans-Serif" font-size="10.00">int</text>
</a>
</g>
</g>
<!-- Node5&#45;&gt;Node1 -->
<g id="edge4" class="edge">
<title>Node5&#45;&gt;Node1</title>
<path fill="none" stroke="#9a32cd" stroke-dasharray="5,2" d="M287.5,-179.34C287.5,-139.62 287.5,-48 287.5,-19.57"/>
<polygon fill="#9a32cd" stroke="#9a32cd" points="284,-179.48 287.5,-189.48 291,-179.48 284,-179.48"/>
<text text-anchor="middle" x="321" y="-112.5" font-family="Helvetica,sans-Serif" font-size="10.00"> fd</text>
<text text-anchor="middle" x="321" y="-101.5" font-family="Helvetica,sans-Serif" font-size="10.00">recv_eof_pos</text>
<text text-anchor="middle" x="321" y="-90.5" font-family="Helvetica,sans-Serif" font-size="10.00">send_eof_pos</text>
</g>
<!-- Node6 -->
<g id="node6" class="node">
<title>Node6</title>
<g id="a_node6"><a xlink:title=" ">
<polygon fill="none" stroke="black" points="352.5,-189.5 352.5,-208.5 402.5,-208.5 402.5,-189.5 352.5,-189.5"/>
<text text-anchor="middle" x="377.5" y="-196.5" font-family="Helvetica,sans-Serif" font-size="10.00">uint8_t</text>
</a>
</g>
</g>
<!-- Node6&#45;&gt;Node1 -->
<g id="edge5" class="edge">
<title>Node6&#45;&gt;Node1</title>
<path fill="none" stroke="#9a32cd" stroke-dasharray="5,2" d="M377.23,-179.17C376.33,-141.72 372.43,-59.6 355.5,-38 347.35,-27.6 334.6,-21.2 322.33,-17.26"/>
<polygon fill="#9a32cd" stroke="#9a32cd" points="373.73,-179.32 377.42,-189.25 380.73,-179.18 373.73,-179.32"/>
<text text-anchor="middle" x="406.5" y="-107" font-family="Helvetica,sans-Serif" font-size="10.00"> recv_buffer</text>
<text text-anchor="middle" x="406.5" y="-96" font-family="Helvetica,sans-Serif" font-size="10.00">send_buffer</text>
</g>
<!-- Node7 -->
<g id="node7" class="node">
<title>Node7</title>
<g id="a_node7"><a xlink:title=" ">
<polygon fill="none" stroke="black" points="458,-257.5 458,-276.5 503,-276.5 503,-257.5 458,-257.5"/>
<text text-anchor="middle" x="480.5" y="-264.5" font-family="Helvetica,sans-Serif" font-size="10.00">size_t</text>
</a>
</g>
</g>
<!-- Node7&#45;&gt;Node1 -->
<g id="edge6" class="edge">
<title>Node7&#45;&gt;Node1</title>
<path fill="none" stroke="#9a32cd" stroke-dasharray="5,2" d="M472.67,-248.26C468.18,-237.4 462.79,-223.13 459.5,-210 440.73,-135.19 489.76,-93.78 436.5,-38 421.16,-21.93 361.14,-15.31 322.11,-12.67"/>
<polygon fill="#9a32cd" stroke="#9a32cd" points="469.46,-249.64 476.6,-257.46 475.89,-246.89 469.46,-249.64"/>
<text text-anchor="middle" x="499" y="-202" font-family="Helvetica,sans-Serif" font-size="10.00"> recv_buffer_len</text>
<text text-anchor="middle" x="499" y="-191" font-family="Helvetica,sans-Serif" font-size="10.00">send_buffer_len</text>
</g>
<!-- Node8 -->
<g id="node8" class="node">
<title>Node8</title>
<g id="a_node8"><a xlink:href="structtcp__ordered__list__t.html" target="_top" xlink:title=" ">
<polygon fill="none" stroke="black" points="547.5,-189.5 547.5,-208.5 651.5,-208.5 651.5,-189.5 547.5,-189.5"/>
<text text-anchor="middle" x="599.5" y="-196.5" font-family="Helvetica,sans-Serif" font-size="10.00">tcp_ordered_list_t</text>
</a>
</g>
</g>
<!-- Node7&#45;&gt;Node8 -->
<g id="edge9" class="edge">
<title>Node7&#45;&gt;Node8</title>
<path fill="none" stroke="#9a32cd" stroke-dasharray="5,2" d="M504.81,-252.51C528.5,-239.38 563.8,-219.8 583.94,-208.63"/>
<polygon fill="#9a32cd" stroke="#9a32cd" points="503.1,-249.46 496.06,-257.37 506.5,-255.58 503.1,-249.46"/>
<text text-anchor="middle" x="557" y="-231" font-family="Helvetica,sans-Serif" font-size="10.00"> len</text>
</g>
<!-- Node8&#45;&gt;Node1 -->
<g id="edge7" class="edge">
<title>Node8&#45;&gt;Node1</title>
<path fill="none" stroke="#9a32cd" stroke-dasharray="5,2" d="M590.12,-179.94C571.37,-145.84 525.71,-72.29 464.5,-38 440.77,-24.71 366.77,-16.97 322.32,-13.41"/>
<polygon fill="#9a32cd" stroke="#9a32cd" points="587.26,-182.01 595.07,-189.18 593.43,-178.71 587.26,-182.01"/>
<text text-anchor="middle" x="618" y="-101.5" font-family="Helvetica,sans-Serif" font-size="10.00"> segment_list</text>
</g>
<!-- Node8&#45;&gt;Node8 -->
<g id="edge10" class="edge">
<title>Node8&#45;&gt;Node8</title>
<path fill="none" stroke="#9a32cd" stroke-dasharray="5,2" d="M661.9,-203.77C666.61,-202.71 669.5,-201.12 669.5,-199 669.5,-195.61 662.09,-193.58 651.7,-192.89"/>
<polygon fill="#9a32cd" stroke="#9a32cd" points="661.16,-200.34 651.7,-205.11 662.07,-207.28 661.16,-200.34"/>
<text text-anchor="middle" x="682" y="-202" font-family="Helvetica,sans-Serif" font-size="10.00"> next</text>
<text text-anchor="middle" x="682" y="-191" font-family="Helvetica,sans-Serif" font-size="10.00">prev</text>
</g>
<!-- Node9 -->
<g id="node9" class="node">
<title>Node9</title>
<g id="a_node9"><a xlink:title=" ">
<polygon fill="none" stroke="black" points="551,-257.5 551,-276.5 648,-276.5 648,-257.5 551,-257.5"/>
<text text-anchor="middle" x="599.5" y="-264.5" font-family="Helvetica,sans-Serif" font-size="10.00">tcp_segment_t *</text>
</a>
</g>
</g>
<!-- Node9&#45;&gt;Node8 -->
<g id="edge8" class="edge">
<title>Node9&#45;&gt;Node8</title>
<path fill="none" stroke="#9a32cd" stroke-dasharray="5,2" d="M599.5,-247.04C599.5,-234.47 599.5,-218.56 599.5,-208.84"/>
<polygon fill="#9a32cd" stroke="#9a32cd" points="596,-247.37 599.5,-257.37 603,-247.37 596,-247.37"/>
<text text-anchor="middle" x="622.5" y="-231" font-family="Helvetica,sans-Serif" font-size="10.00"> segment</text>
</g>
</g>
</svg>
