<?xml version="1.0" encoding="UTF-8" standalone="no"?>
<!DOCTYPE svg PUBLIC "-//W3C//DTD SVG 1.1//EN"
 "http://www.w3.org/Graphics/SVG/1.1/DTD/svg11.dtd">
<!-- Generated by graphviz version 2.43.0 (0)
 -->
<!-- Title: ubasic_double_fn Pages: 1 -->
<!--zoomable 1249 -->
<svg id="main" version="1.1" xmlns="http://www.w3.org/2000/svg" xmlns:xlink="http://www.w3.org/1999/xlink" xml:space="preserve" onload="init(evt)">
<style type="text/css"><![CDATA[
.edge:hover path { stroke: red; }
.edge:hover polygon { stroke: red; fill: red; }
]]></style>
<script type="text/javascript"><![CDATA[
var edges = document.getElementsByTagName('g');
if (edges && edges.length) {
  for (var i=0;i<edges.length;i++) {
    if (edges[i].id.substr(0,4)=='edge') {
      edges[i].setAttribute('class','edge');
    }
  }
}
]]></script>
        <defs>
                <circle id="rim" cx="0" cy="0" r="7"/>
                <circle id="rim2" cx="0" cy="0" r="3.5"/>
                <g id="zoomPlus">
                        <use xlink:href="#rim" fill="#404040">
                                <set attributeName="fill" to="#808080" begin="zoomplus.mouseover" end="zoomplus.mouseout"/>
                        </use>
                        <path d="M-4,0h8M0,-4v8" fill="none" stroke="white" stroke-width="1.5" pointer-events="none"/>
                </g>
                <g id="zoomMin">
                        <use xlink:href="#rim" fill="#404040">
                                <set attributeName="fill" to="#808080" begin="zoomminus.mouseover" end="zoomminus.mouseout"/>
                        </use>
                        <path d="M-4,0h8" fill="none" stroke="white" stroke-width="1.5" pointer-events="none"/>
                </g>
                <g id="dirArrow">
                        <path fill="none" stroke="white" stroke-width="1.5" d="M0,-3.0v7 M-2.5,-0.5L0,-3.0L2.5,-0.5"/>
                </g>
               <g id="resetDef">
                       <use xlink:href="#rim2" fill="#404040">
                               <set attributeName="fill" to="#808080" begin="reset.mouseover" end="reset.mouseout"/>
                       </use>
               </g>
        </defs>

<script type="text/javascript">
var viewWidth = 806;
var viewHeight = 1249;
var sectionId = 'dynsection-0';
</script>
<script xlink:href="svgpan.js"/>
<svg id="graph" class="graph">
<g id="viewport">
<title>ubasic_double_fn</title>
<!-- Node1 -->
<g id="node1" class="node">
<title>Node1</title>
<g id="a_node1"><a xlink:title="Builtin real (double) function.">
<polygon fill="#bfbfbf" stroke="black" points="697,-955.5 697,-974.5 798,-974.5 798,-955.5 697,-955.5"/>
<text text-anchor="middle" x="747.5" y="-962.5" font-family="Helvetica,sans-Serif" font-size="10.00">ubasic_double_fn</text>
</a>
</g>
</g>
<!-- Node2 -->
<g id="node2" class="node">
<title>Node2</title>
<g id="a_node2"><a xlink:href="structubasic__ctx.html" target="_top" xlink:title="BASIC program context. Every instance of a BASIC program has one of these,* also certain structures s...">
<polygon fill="none" stroke="black" points="553,-689.5 553,-708.5 621,-708.5 621,-689.5 553,-689.5"/>
<text text-anchor="middle" x="587" y="-696.5" font-family="Helvetica,sans-Serif" font-size="10.00">ubasic_ctx</text>
</a>
</g>
</g>
<!-- Node2&#45;&gt;Node1 -->
<g id="edge1" class="edge">
<title>Node2&#45;&gt;Node1</title>
<path fill="none" stroke="#9a32cd" stroke-dasharray="5,2" d="M599.12,-717.66C630.26,-769.93 717.59,-916.49 740.79,-955.41"/>
<polygon fill="#9a32cd" stroke="#9a32cd" points="601.95,-715.58 593.83,-708.78 595.94,-719.16 601.95,-715.58"/>
<text text-anchor="middle" x="659" y="-850" font-family="Helvetica,sans-Serif" font-size="10.00"> handler</text>
</g>
<!-- Node3 -->
<g id="node3" class="node">
<title>Node3</title>
<g id="a_node3"><a xlink:title=" ">
<polygon fill="none" stroke="#bfbfbf" points="294.5,-1060.5 294.5,-1079.5 384.5,-1079.5 384.5,-1060.5 294.5,-1060.5"/>
<text text-anchor="middle" x="339.5" y="-1067.5" font-family="Helvetica,sans-Serif" font-size="10.00">ub_return_type</text>
</a>
</g>
</g>
<!-- Node3&#45;&gt;Node2 -->
<g id="edge2" class="edge">
<title>Node3&#45;&gt;Node2</title>
<path fill="none" stroke="#9a32cd" stroke-dasharray="5,2" d="M394.94,-1066.35C448.96,-1062.2 525.1,-1054.72 535,-1045 584.4,-996.51 586.26,-759.94 586.08,-708.77"/>
<polygon fill="#9a32cd" stroke="#9a32cd" points="394.51,-1062.87 384.8,-1067.11 395.03,-1069.85 394.51,-1062.87"/>
<text text-anchor="middle" x="476" y="-1067" font-family="Helvetica,sans-Serif" font-size="10.00"> fn_type</text>
</g>
<!-- Node4 -->
<g id="node4" class="node">
<title>Node4</title>
<g id="a_node4"><a xlink:href="structub__var__double__array.html" target="_top" xlink:title="An array of real (double)">
<polygon fill="none" stroke="black" points="280,-917.5 280,-936.5 399,-936.5 399,-917.5 280,-917.5"/>
<text text-anchor="middle" x="339.5" y="-924.5" font-family="Helvetica,sans-Serif" font-size="10.00">ub_var_double_array</text>
</a>
</g>
</g>
<!-- Node4&#45;&gt;Node2 -->
<g id="edge3" class="edge">
<title>Node4&#45;&gt;Node2</title>
<path fill="none" stroke="#9a32cd" stroke-dasharray="5,2" d="M406.05,-915.04C448.27,-904.1 501.36,-883.8 535,-847 572.95,-805.48 582.87,-734.34 585.28,-708.63"/>
<polygon fill="#9a32cd" stroke="#9a32cd" points="404.99,-911.7 396.12,-917.49 406.67,-918.49 404.99,-911.7"/>
<text text-anchor="middle" x="476" y="-914" font-family="Helvetica,sans-Serif" font-size="10.00"> double_array_variables</text>
</g>
<!-- Node4&#45;&gt;Node4 -->
<g id="edge4" class="edge">
<title>Node4&#45;&gt;Node4</title>
<path fill="none" stroke="#9a32cd" stroke-dasharray="5,2" d="M319.13,-946.4C320.49,-951.31 327.28,-955 339.5,-955 359.05,-955 364.7,-945.57 356.45,-936.76"/>
<polygon fill="#9a32cd" stroke="#9a32cd" points="322.51,-947.35 322.55,-936.76 315.91,-945.01 322.51,-947.35"/>
<text text-anchor="middle" x="339.5" y="-958" font-family="Helvetica,sans-Serif" font-size="10.00"> next</text>
</g>
<!-- Node5 -->
<g id="node5" class="node">
<title>Node5</title>
<g id="a_node5"><a xlink:title=" ">
<polygon fill="none" stroke="#bfbfbf" points="115.5,-893.5 115.5,-912.5 165.5,-912.5 165.5,-893.5 115.5,-893.5"/>
<text text-anchor="middle" x="140.5" y="-900.5" font-family="Helvetica,sans-Serif" font-size="10.00">double</text>
</a>
</g>
</g>
<!-- Node5&#45;&gt;Node4 -->
<g id="edge5" class="edge">
<title>Node5&#45;&gt;Node4</title>
<path fill="none" stroke="#9a32cd" stroke-dasharray="5,2" d="M175.59,-907.15C204.24,-910.64 245.85,-915.71 279.84,-919.85"/>
<polygon fill="#9a32cd" stroke="#9a32cd" points="176.01,-903.68 165.66,-905.94 175.16,-910.63 176.01,-903.68"/>
<text text-anchor="middle" x="228" y="-920" font-family="Helvetica,sans-Serif" font-size="10.00"> values</text>
</g>
<!-- Node16 -->
<g id="node16" class="node">
<title>Node16</title>
<g id="a_node16"><a xlink:href="structub__var__double.html" target="_top" xlink:title="A real (double) variable.">
<polygon fill="none" stroke="black" points="295.5,-850.5 295.5,-869.5 383.5,-869.5 383.5,-850.5 295.5,-850.5"/>
<text text-anchor="middle" x="339.5" y="-857.5" font-family="Helvetica,sans-Serif" font-size="10.00">ub_var_double</text>
</a>
</g>
</g>
<!-- Node5&#45;&gt;Node16 -->
<g id="edge27" class="edge">
<title>Node5&#45;&gt;Node16</title>
<path fill="none" stroke="#9a32cd" stroke-dasharray="5,2" d="M175.8,-895.51C209.02,-888.26 259.5,-877.24 295.42,-869.4"/>
<polygon fill="#9a32cd" stroke="#9a32cd" points="174.68,-892.18 165.66,-897.73 176.17,-899.01 174.68,-892.18"/>
<text text-anchor="middle" x="228" y="-894" font-family="Helvetica,sans-Serif" font-size="10.00"> value</text>
</g>
<!-- Node6 -->
<g id="node6" class="node">
<title>Node6</title>
<g id="a_node6"><a xlink:title=" ">
<polygon fill="none" stroke="#bfbfbf" points="112.5,-745.5 112.5,-764.5 168.5,-764.5 168.5,-745.5 112.5,-745.5"/>
<text text-anchor="middle" x="140.5" y="-752.5" font-family="Helvetica,sans-Serif" font-size="10.00">uint64_t</text>
</a>
</g>
</g>
<!-- Node6&#45;&gt;Node2 -->
<g id="edge17" class="edge">
<title>Node6&#45;&gt;Node2</title>
<path fill="none" stroke="#9a32cd" stroke-dasharray="5,2" d="M178.88,-750.72C203.64,-746.71 236.18,-739.12 262,-725 271.65,-719.72 269.84,-712.22 280,-708 328.48,-687.9 484.28,-693.45 552.96,-697.05"/>
<polygon fill="#9a32cd" stroke="#9a32cd" points="178.16,-747.29 168.79,-752.23 179.2,-754.21 178.16,-747.29"/>
<text text-anchor="middle" x="339.5" y="-766" font-family="Helvetica,sans-Serif" font-size="10.00"> call_stack</text>
<text text-anchor="middle" x="339.5" y="-755" font-family="Helvetica,sans-Serif" font-size="10.00">call_stack_ptr</text>
<text text-anchor="middle" x="339.5" y="-744" font-family="Helvetica,sans-Serif" font-size="10.00">for_stack_ptr</text>
<text text-anchor="middle" x="339.5" y="-733" font-family="Helvetica,sans-Serif" font-size="10.00">if_nest_level</text>
<text text-anchor="middle" x="339.5" y="-722" font-family="Helvetica,sans-Serif" font-size="10.00">repeat_stack</text>
<text text-anchor="middle" x="339.5" y="-711" font-family="Helvetica,sans-Serif" font-size="10.00">repeat_stack_ptr</text>
</g>
<!-- Node6&#45;&gt;Node4 -->
<g id="edge6" class="edge">
<title>Node6&#45;&gt;Node4</title>
<path fill="none" stroke="#9a32cd" stroke-dasharray="5,2" d="M163.79,-770.48C167.93,-773.54 172.15,-776.8 176,-780 216.59,-813.79 232.57,-818.15 262,-862 274.23,-880.23 264.03,-892.94 280,-908 284.12,-911.88 289.04,-914.97 294.25,-917.43"/>
<polygon fill="#9a32cd" stroke="#9a32cd" points="165.75,-767.57 155.59,-764.56 161.65,-773.25 165.75,-767.57"/>
<text text-anchor="middle" x="228" y="-865" font-family="Helvetica,sans-Serif" font-size="10.00"> itemcount</text>
</g>
<!-- Node8 -->
<g id="node8" class="node">
<title>Node8</title>
<g id="a_node8"><a xlink:href="structub__var__string__array.html" target="_top" xlink:title="An array of strings.">
<polygon fill="none" stroke="black" points="283,-783.5 283,-802.5 396,-802.5 396,-783.5 283,-783.5"/>
<text text-anchor="middle" x="339.5" y="-790.5" font-family="Helvetica,sans-Serif" font-size="10.00">ub_var_string_array</text>
</a>
</g>
</g>
<!-- Node6&#45;&gt;Node8 -->
<g id="edge10" class="edge">
<title>Node6&#45;&gt;Node8</title>
<path fill="none" stroke="#9a32cd" stroke-dasharray="5,2" d="M178.99,-759.54C202.86,-762.7 234.38,-767.34 262,-773 276.26,-775.92 291.82,-779.85 305.17,-783.45"/>
<polygon fill="#9a32cd" stroke="#9a32cd" points="179.29,-756.05 168.93,-758.24 178.39,-763 179.29,-756.05"/>
<text text-anchor="middle" x="228" y="-776" font-family="Helvetica,sans-Serif" font-size="10.00"> itemcount</text>
</g>
<!-- Node19 -->
<g id="node19" class="node">
<title>Node19</title>
<g id="a_node19"><a xlink:href="structub__var__int__array.html" target="_top" xlink:title="An array of integers.">
<polygon fill="none" stroke="black" points="290.5,-500.5 290.5,-519.5 388.5,-519.5 388.5,-500.5 290.5,-500.5"/>
<text text-anchor="middle" x="339.5" y="-507.5" font-family="Helvetica,sans-Serif" font-size="10.00">ub_var_int_array</text>
</a>
</g>
</g>
<!-- Node6&#45;&gt;Node19 -->
<g id="edge34" class="edge">
<title>Node6&#45;&gt;Node19</title>
<path fill="none" stroke="#9a32cd" stroke-dasharray="5,2" d="M167.87,-740.07C170.7,-738.14 173.46,-736.1 176,-734 185.2,-726.37 184.01,-720.57 194,-714 220.65,-696.46 241.64,-715.56 262,-691 298.66,-646.77 253.11,-613.76 280,-563 289.88,-544.35 309.04,-528.96 322.75,-519.65"/>
<polygon fill="#9a32cd" stroke="#9a32cd" points="165.93,-737.15 159.37,-745.47 169.68,-743.06 165.93,-737.15"/>
<text text-anchor="middle" x="228" y="-717" font-family="Helvetica,sans-Serif" font-size="10.00"> itemcount</text>
</g>
<!-- Node7 -->
<g id="node7" class="node">
<title>Node7</title>
<g id="a_node7"><a xlink:title=" ">
<polygon fill="none" stroke="#bfbfbf" points="0,-647.5 0,-666.5 38,-666.5 38,-647.5 0,-647.5"/>
<text text-anchor="middle" x="19" y="-654.5" font-family="Helvetica,sans-Serif" font-size="10.00">char</text>
</a>
</g>
</g>
<!-- Node7&#45;&gt;Node1 -->
<g id="edge56" class="edge">
<title>Node7&#45;&gt;Node1</title>
<path fill="none" stroke="#9a32cd" stroke-dasharray="5,2" d="M19.81,-677.07C19.4,-778.51 24.04,-1230 139.5,-1230 139.5,-1230 139.5,-1230 588,-1230 709.42,-1230 740.06,-1022.56 745.51,-974.75"/>
<polygon fill="#9a32cd" stroke="#9a32cd" points="23.31,-676.97 19.88,-666.95 16.31,-676.92 23.31,-676.97"/>
<text text-anchor="middle" x="339.5" y="-1233" font-family="Helvetica,sans-Serif" font-size="10.00"> name</text>
</g>
<!-- Node7&#45;&gt;Node2 -->
<g id="edge18" class="edge">
<title>Node7&#45;&gt;Node2</title>
<path fill="none" stroke="#9a32cd" stroke-dasharray="5,2" d="M19.59,-676.9C19.43,-719.6 22.82,-822.41 56,-900 69.95,-932.62 73.69,-946.33 105,-963 189.66,-1008.06 471.54,-997.92 535,-926 564.53,-892.53 581.08,-747.68 585.06,-708.69"/>
<polygon fill="#9a32cd" stroke="#9a32cd" points="23.1,-676.78 19.71,-666.74 16.1,-676.7 23.1,-676.78"/>
<text text-anchor="middle" x="228" y="-1037" font-family="Helvetica,sans-Serif" font-size="10.00"> item_begin</text>
<text text-anchor="middle" x="228" y="-1026" font-family="Helvetica,sans-Serif" font-size="10.00">nextptr</text>
<text text-anchor="middle" x="228" y="-1015" font-family="Helvetica,sans-Serif" font-size="10.00">program_ptr</text>
<text text-anchor="middle" x="228" y="-1004" font-family="Helvetica,sans-Serif" font-size="10.00">ptr</text>
<text text-anchor="middle" x="228" y="-993" font-family="Helvetica,sans-Serif" font-size="10.00">string</text>
</g>
<!-- Node7&#45;&gt;Node4 -->
<g id="edge7" class="edge">
<title>Node7&#45;&gt;Node4</title>
<path fill="none" stroke="#9a32cd" stroke-dasharray="5,2" d="M19.21,-676.79C18.39,-727.82 24.2,-863.95 105,-922 165.26,-965.3 258.69,-949.25 307.07,-936.57"/>
<polygon fill="#9a32cd" stroke="#9a32cd" points="22.71,-676.83 19.48,-666.74 15.71,-676.64 22.71,-676.83"/>
<text text-anchor="middle" x="140.5" y="-951" font-family="Helvetica,sans-Serif" font-size="10.00"> varname</text>
</g>
<!-- Node7&#45;&gt;Node8 -->
<g id="edge11" class="edge">
<title>Node7&#45;&gt;Node8</title>
<path fill="none" stroke="#9a32cd" stroke-dasharray="5,2" d="M29.69,-675.55C43.54,-700.6 71.12,-745.41 105,-774 138.73,-802.45 151.03,-807.96 194,-818 223.43,-824.88 232.15,-822.75 262,-818 280.49,-815.06 300.58,-808.34 315.54,-802.62"/>
<polygon fill="#9a32cd" stroke="#9a32cd" points="32.74,-673.84 24.91,-666.7 26.58,-677.16 32.74,-673.84"/>
<text text-anchor="middle" x="140.5" y="-827" font-family="Helvetica,sans-Serif" font-size="10.00"> values</text>
<text text-anchor="middle" x="140.5" y="-816" font-family="Helvetica,sans-Serif" font-size="10.00">varname</text>
</g>
<!-- Node9 -->
<g id="node9" class="node">
<title>Node9</title>
<g id="a_node9"><a xlink:href="structub__var__int.html" target="_top" xlink:title="An integer variable.">
<polygon fill="none" stroke="black" points="305.5,-309.5 305.5,-328.5 373.5,-328.5 373.5,-309.5 305.5,-309.5"/>
<text text-anchor="middle" x="339.5" y="-316.5" font-family="Helvetica,sans-Serif" font-size="10.00">ub_var_int</text>
</a>
</g>
</g>
<!-- Node7&#45;&gt;Node9 -->
<g id="edge14" class="edge">
<title>Node7&#45;&gt;Node9</title>
<path fill="none" stroke="#9a32cd" stroke-dasharray="5,2" d="M21.35,-637.1C25.56,-589.35 42.21,-466.65 105,-391 154.85,-330.94 253.67,-320.02 305.31,-318.63"/>
<polygon fill="#9a32cd" stroke="#9a32cd" points="17.84,-637.07 20.55,-647.31 24.82,-637.62 17.84,-637.07"/>
<text text-anchor="middle" x="140.5" y="-394" font-family="Helvetica,sans-Serif" font-size="10.00"> varname</text>
</g>
<!-- Node12 -->
<g id="node12" class="node">
<title>Node12</title>
<g id="a_node12"><a xlink:href="structconsole.html" target="_top" xlink:title=" ">
<polygon fill="none" stroke="black" points="312.5,-82.5 312.5,-101.5 366.5,-101.5 366.5,-82.5 312.5,-82.5"/>
<text text-anchor="middle" x="339.5" y="-89.5" font-family="Helvetica,sans-Serif" font-size="10.00">console</text>
</a>
</g>
</g>
<!-- Node7&#45;&gt;Node12 -->
<g id="edge20" class="edge">
<title>Node7&#45;&gt;Node12</title>
<path fill="none" stroke="#9a32cd" stroke-dasharray="5,2" d="M20.23,-636.95C21.3,-563.1 27.07,-306.68 56,-231 68.92,-197.21 75.47,-186.9 105,-166 139.19,-141.8 259.03,-111.03 312.46,-98.12"/>
<polygon fill="#9a32cd" stroke="#9a32cd" points="16.73,-637.13 20.1,-647.18 23.73,-637.22 16.73,-637.13"/>
<text text-anchor="middle" x="140.5" y="-191" font-family="Helvetica,sans-Serif" font-size="10.00"> buffer</text>
<text text-anchor="middle" x="140.5" y="-180" font-family="Helvetica,sans-Serif" font-size="10.00">dirty</text>
<text text-anchor="middle" x="140.5" y="-169" font-family="Helvetica,sans-Serif" font-size="10.00">internalbuffer</text>
</g>
<!-- Node7&#45;&gt;Node16 -->
<g id="edge28" class="edge">
<title>Node7&#45;&gt;Node16</title>
<path fill="none" stroke="#9a32cd" stroke-dasharray="5,2" d="M22.53,-676.79C28.67,-715.61 48.29,-801.18 105,-838 162.54,-875.36 245.5,-873.07 295.48,-867.14"/>
<polygon fill="#9a32cd" stroke="#9a32cd" points="25.97,-676.15 21.08,-666.75 19.04,-677.15 25.97,-676.15"/>
<text text-anchor="middle" x="140.5" y="-867" font-family="Helvetica,sans-Serif" font-size="10.00"> varname</text>
</g>
<!-- Node7&#45;&gt;Node19 -->
<g id="edge35" class="edge">
<title>Node7&#45;&gt;Node19</title>
<path fill="none" stroke="#9a32cd" stroke-dasharray="5,2" d="M32.24,-638.92C46.96,-618.74 73.65,-586.86 105,-571 167.93,-539.16 194.7,-569.06 262,-548 284.22,-541.05 307.96,-528.33 323,-519.53"/>
<polygon fill="#9a32cd" stroke="#9a32cd" points="29.25,-637.07 26.34,-647.26 34.97,-641.11 29.25,-637.07"/>
<text text-anchor="middle" x="140.5" y="-574" font-family="Helvetica,sans-Serif" font-size="10.00"> varname</text>
</g>
<!-- Node20 -->
<g id="node20" class="node">
<title>Node20</title>
<g id="a_node20"><a xlink:href="structub__proc__fn__def.html" target="_top" xlink:title="Procedure or function definition Each has a name, a type, a starting line and a parameter list.">
<polygon fill="none" stroke="black" points="294,-614.5 294,-633.5 385,-633.5 385,-614.5 294,-614.5"/>
<text text-anchor="middle" x="339.5" y="-621.5" font-family="Helvetica,sans-Serif" font-size="10.00">ub_proc_fn_def</text>
</a>
</g>
</g>
<!-- Node7&#45;&gt;Node20 -->
<g id="edge41" class="edge">
<title>Node7&#45;&gt;Node20</title>
<path fill="none" stroke="#9a32cd" stroke-dasharray="5,2" d="M48.48,-656.41C79.8,-655.55 131.6,-653.54 176,-649 216.04,-644.9 261.27,-637.74 293.82,-632.12"/>
<polygon fill="#9a32cd" stroke="#9a32cd" points="48.21,-652.91 38.3,-656.66 48.38,-659.91 48.21,-652.91"/>
<text text-anchor="middle" x="140.5" y="-657" font-family="Helvetica,sans-Serif" font-size="10.00"> name</text>
</g>
<!-- Node22 -->
<g id="node22" class="node">
<title>Node22</title>
<g id="a_node22"><a xlink:href="structub__param.html" target="_top" xlink:title="FN/PROC parameter.">
<polygon fill="none" stroke="black" points="108,-591.5 108,-610.5 173,-610.5 173,-591.5 108,-591.5"/>
<text text-anchor="middle" x="140.5" y="-598.5" font-family="Helvetica,sans-Serif" font-size="10.00">ub_param</text>
</a>
</g>
</g>
<!-- Node7&#45;&gt;Node22 -->
<g id="edge45" class="edge">
<title>Node7&#45;&gt;Node22</title>
<path fill="none" stroke="#9a32cd" stroke-dasharray="5,2" d="M47.25,-644.23C69.14,-633.97 99.37,-619.8 119.18,-610.52"/>
<polygon fill="#9a32cd" stroke="#9a32cd" points="45.72,-641.08 38.15,-648.49 48.69,-647.42 45.72,-641.08"/>
<text text-anchor="middle" x="71.5" y="-641" font-family="Helvetica,sans-Serif" font-size="10.00"> name</text>
</g>
<!-- Node23 -->
<g id="node23" class="node">
<title>Node23</title>
<g id="a_node23"><a xlink:href="structub__var__string.html" target="_top" xlink:title="A string variable.">
<polygon fill="none" stroke="black" points="298,-242.5 298,-261.5 381,-261.5 381,-242.5 298,-242.5"/>
<text text-anchor="middle" x="339.5" y="-249.5" font-family="Helvetica,sans-Serif" font-size="10.00">ub_var_string</text>
</a>
</g>
</g>
<!-- Node7&#45;&gt;Node23 -->
<g id="edge48" class="edge">
<title>Node7&#45;&gt;Node23</title>
<path fill="none" stroke="#9a32cd" stroke-dasharray="5,2" d="M20.49,-637.43C22.93,-558.46 36.56,-264.95 105,-211 136.84,-185.9 257.95,-223.71 312.08,-242.47"/>
<polygon fill="#9a32cd" stroke="#9a32cd" points="16.99,-637.37 20.21,-647.47 23.99,-637.57 16.99,-637.37"/>
<text text-anchor="middle" x="140.5" y="-225" font-family="Helvetica,sans-Serif" font-size="10.00"> value</text>
<text text-anchor="middle" x="140.5" y="-214" font-family="Helvetica,sans-Serif" font-size="10.00">varname</text>
</g>
<!-- Node25 -->
<g id="node25" class="node">
<title>Node25</title>
<g id="a_node25"><a xlink:href="structfor__state.html" target="_top" xlink:title="State for a FOR...NEXT loop.">
<polygon fill="none" stroke="black" points="309.5,-462.5 309.5,-481.5 369.5,-481.5 369.5,-462.5 309.5,-462.5"/>
<text text-anchor="middle" x="339.5" y="-469.5" font-family="Helvetica,sans-Serif" font-size="10.00">for_state</text>
</a>
</g>
</g>
<!-- Node7&#45;&gt;Node25 -->
<g id="edge53" class="edge">
<title>Node7&#45;&gt;Node25</title>
<path fill="none" stroke="#9a32cd" stroke-dasharray="5,2" d="M26.13,-637.27C31.99,-620.58 41.99,-596.62 56,-579 73.15,-557.43 79.48,-551.4 105,-541 170.04,-514.5 203.49,-561.86 262,-523 275.59,-513.97 267.38,-501.34 280,-491 288.34,-484.17 299.21,-479.77 309.31,-476.95"/>
<polygon fill="#9a32cd" stroke="#9a32cd" points="22.71,-636.46 22.89,-647.06 29.36,-638.67 22.71,-636.46"/>
<text text-anchor="middle" x="140.5" y="-544" font-family="Helvetica,sans-Serif" font-size="10.00"> for_variable</text>
</g>
<!-- Node8&#45;&gt;Node2 -->
<g id="edge8" class="edge">
<title>Node8&#45;&gt;Node2</title>
<path fill="none" stroke="#9a32cd" stroke-dasharray="5,2" d="M374.82,-779.86C424.92,-760.68 516.88,-725.46 561.04,-708.56"/>
<polygon fill="#9a32cd" stroke="#9a32cd" points="373.48,-776.63 365.39,-783.47 375.98,-783.16 373.48,-776.63"/>
<text text-anchor="middle" x="476" y="-765" font-family="Helvetica,sans-Serif" font-size="10.00"> string_array_variables</text>
</g>
<!-- Node8&#45;&gt;Node8 -->
<g id="edge9" class="edge">
<title>Node8&#45;&gt;Node8</title>
<path fill="none" stroke="#9a32cd" stroke-dasharray="5,2" d="M319.13,-812.4C320.49,-817.31 327.28,-821 339.5,-821 359.05,-821 364.7,-811.57 356.45,-802.76"/>
<polygon fill="#9a32cd" stroke="#9a32cd" points="322.51,-813.35 322.55,-802.76 315.91,-811.01 322.51,-813.35"/>
<text text-anchor="middle" x="339.5" y="-824" font-family="Helvetica,sans-Serif" font-size="10.00"> next</text>
</g>
<!-- Node9&#45;&gt;Node2 -->
<g id="edge12" class="edge">
<title>Node9&#45;&gt;Node2</title>
<path fill="none" stroke="#9a32cd" stroke-dasharray="5,2" d="M383.96,-314.58C428.47,-312.68 496.42,-317.47 535,-358 582.05,-407.43 585.75,-639.3 585.99,-689.43"/>
<polygon fill="#9a32cd" stroke="#9a32cd" points="383.53,-311.1 373.74,-315.16 383.92,-318.09 383.53,-311.1"/>
<text text-anchor="middle" x="476" y="-372" font-family="Helvetica,sans-Serif" font-size="10.00"> int_variables</text>
<text text-anchor="middle" x="476" y="-361" font-family="Helvetica,sans-Serif" font-size="10.00">local_int_variables</text>
</g>
<!-- Node9&#45;&gt;Node9 -->
<g id="edge13" class="edge">
<title>Node9&#45;&gt;Node9</title>
<path fill="none" stroke="#9a32cd" stroke-dasharray="5,2" d="M319.13,-338.4C320.49,-343.31 327.28,-347 339.5,-347 359.05,-347 364.7,-337.57 356.45,-328.76"/>
<polygon fill="#9a32cd" stroke="#9a32cd" points="322.51,-339.35 322.55,-328.76 315.91,-337.01 322.51,-339.35"/>
<text text-anchor="middle" x="339.5" y="-350" font-family="Helvetica,sans-Serif" font-size="10.00"> next</text>
</g>
<!-- Node10 -->
<g id="node10" class="node">
<title>Node10</title>
<g id="a_node10"><a xlink:title=" ">
<polygon fill="none" stroke="#bfbfbf" points="115.5,-411.5 115.5,-430.5 165.5,-430.5 165.5,-411.5 115.5,-411.5"/>
<text text-anchor="middle" x="140.5" y="-418.5" font-family="Helvetica,sans-Serif" font-size="10.00">int64_t</text>
</a>
</g>
</g>
<!-- Node10&#45;&gt;Node2 -->
<g id="edge23" class="edge">
<title>Node10&#45;&gt;Node2</title>
<path fill="none" stroke="#9a32cd" stroke-dasharray="5,2" d="M175.71,-411.87C252.18,-393.75 437.86,-362.88 535,-460 568.3,-493.3 582.2,-648.58 585.3,-689.23"/>
<polygon fill="#9a32cd" stroke="#9a32cd" points="174.55,-408.55 165.67,-414.33 176.21,-415.35 174.55,-408.55"/>
<text text-anchor="middle" x="339.5" y="-411" font-family="Helvetica,sans-Serif" font-size="10.00"> current_linenum</text>
<text text-anchor="middle" x="339.5" y="-400" font-family="Helvetica,sans-Serif" font-size="10.00">eval_linenum</text>
</g>
<!-- Node10&#45;&gt;Node9 -->
<g id="edge15" class="edge">
<title>Node10&#45;&gt;Node9</title>
<path fill="none" stroke="#9a32cd" stroke-dasharray="5,2" d="M153.57,-403.16C163.14,-390.28 177.6,-373.4 194,-363 203.55,-356.94 265.84,-339.07 305.46,-328.06"/>
<polygon fill="#9a32cd" stroke="#9a32cd" points="150.72,-401.13 147.76,-411.3 156.42,-405.19 150.72,-401.13"/>
<text text-anchor="middle" x="228" y="-366" font-family="Helvetica,sans-Serif" font-size="10.00"> value</text>
</g>
<!-- Node10&#45;&gt;Node19 -->
<g id="edge36" class="edge">
<title>Node10&#45;&gt;Node19</title>
<path fill="none" stroke="#9a32cd" stroke-dasharray="5,2" d="M162.6,-436.38C171.91,-442.71 183.18,-449.77 194,-455 222.72,-468.89 233.64,-463.39 262,-478 270.77,-482.52 271.2,-486.53 280,-491 287.24,-494.67 295.33,-497.84 303.14,-500.48"/>
<polygon fill="#9a32cd" stroke="#9a32cd" points="164.55,-433.47 154.34,-430.61 160.54,-439.21 164.55,-433.47"/>
<text text-anchor="middle" x="228" y="-481" font-family="Helvetica,sans-Serif" font-size="10.00"> values</text>
</g>
<!-- Node10&#45;&gt;Node20 -->
<g id="edge42" class="edge">
<title>Node10&#45;&gt;Node20</title>
<path fill="none" stroke="#9a32cd" stroke-dasharray="5,2" d="M151.33,-439.41C171.19,-475.02 219.41,-553.89 280,-600 287.95,-606.05 297.64,-610.83 306.83,-614.48"/>
<polygon fill="#9a32cd" stroke="#9a32cd" points="154.36,-437.67 146.49,-430.58 148.22,-441.03 154.36,-437.67"/>
<text text-anchor="middle" x="228" y="-588" font-family="Helvetica,sans-Serif" font-size="10.00"> line</text>
</g>
<!-- Node10&#45;&gt;Node25 -->
<g id="edge54" class="edge">
<title>Node10&#45;&gt;Node25</title>
<path fill="none" stroke="#9a32cd" stroke-dasharray="5,2" d="M175.9,-416.22C200.44,-414.02 233.91,-413.51 262,-422 288.43,-429.99 314.27,-450.22 328.12,-462.36"/>
<polygon fill="#9a32cd" stroke="#9a32cd" points="175.23,-412.77 165.65,-417.28 175.95,-419.73 175.23,-412.77"/>
<text text-anchor="middle" x="228" y="-447" font-family="Helvetica,sans-Serif" font-size="10.00"> line_after_for</text>
<text text-anchor="middle" x="228" y="-436" font-family="Helvetica,sans-Serif" font-size="10.00">step</text>
<text text-anchor="middle" x="228" y="-425" font-family="Helvetica,sans-Serif" font-size="10.00">to</text>
</g>
<!-- Node11 -->
<g id="node11" class="node">
<title>Node11</title>
<g id="a_node11"><a xlink:title=" ">
<polygon fill="none" stroke="#bfbfbf" points="121.5,-242.5 121.5,-261.5 159.5,-261.5 159.5,-242.5 121.5,-242.5"/>
<text text-anchor="middle" x="140.5" y="-249.5" font-family="Helvetica,sans-Serif" font-size="10.00">bool</text>
</a>
</g>
</g>
<!-- Node11&#45;&gt;Node2 -->
<g id="edge38" class="edge">
<title>Node11&#45;&gt;Node2</title>
<path fill="none" stroke="#9a32cd" stroke-dasharray="5,2" d="M169.07,-239.92C178.99,-235.69 188.97,-231.6 194,-230 231.31,-218.17 241.09,-215.25 280,-211 393.55,-198.61 459.21,-157.55 535,-243 565.79,-277.72 582.78,-626.98 585.58,-689.46"/>
<polygon fill="#9a32cd" stroke="#9a32cd" points="167.54,-236.77 159.74,-243.95 170.31,-243.2 167.54,-236.77"/>
<text text-anchor="middle" x="339.5" y="-225" font-family="Helvetica,sans-Serif" font-size="10.00"> ended</text>
<text text-anchor="middle" x="339.5" y="-214" font-family="Helvetica,sans-Serif" font-size="10.00">errored</text>
</g>
<!-- Node11&#45;&gt;Node9 -->
<g id="edge16" class="edge">
<title>Node11&#45;&gt;Node9</title>
<path fill="none" stroke="#9a32cd" stroke-dasharray="5,2" d="M169.52,-249.7C195.6,-248.97 234.49,-251.61 262,-270 274.93,-278.64 267.83,-290.32 280,-300 287.35,-305.85 296.56,-309.93 305.49,-312.75"/>
<polygon fill="#9a32cd" stroke="#9a32cd" points="169.35,-246.21 159.53,-250.17 169.68,-253.2 169.35,-246.21"/>
<text text-anchor="middle" x="228" y="-273" font-family="Helvetica,sans-Serif" font-size="10.00"> global</text>
</g>
<!-- Node11&#45;&gt;Node16 -->
<g id="edge30" class="edge">
<title>Node11&#45;&gt;Node16</title>
<path fill="none" stroke="#9a32cd" stroke-dasharray="5,2" d="M167.62,-266.51C201.39,-285.54 256.56,-317.59 262,-327 290.62,-376.46 245.6,-795.36 280,-841 283.98,-846.29 289.47,-850.13 295.5,-852.91"/>
<polygon fill="#9a32cd" stroke="#9a32cd" points="169.15,-263.36 158.72,-261.52 165.73,-269.46 169.15,-263.36"/>
<text text-anchor="middle" x="228" y="-330" font-family="Helvetica,sans-Serif" font-size="10.00"> global</text>
</g>
<!-- Node11&#45;&gt;Node23 -->
<g id="edge49" class="edge">
<title>Node11&#45;&gt;Node23</title>
<path fill="none" stroke="#9a32cd" stroke-dasharray="5,2" d="M169.42,-241.82C177.27,-239.42 185.87,-237.21 194,-236 223.89,-231.55 231.94,-232.89 262,-236 274.69,-237.31 288.37,-239.82 300.61,-242.46"/>
<polygon fill="#9a32cd" stroke="#9a32cd" points="168.08,-238.58 159.66,-245.01 170.25,-245.23 168.08,-238.58"/>
<text text-anchor="middle" x="228" y="-239" font-family="Helvetica,sans-Serif" font-size="10.00"> global</text>
</g>
<!-- Node12&#45;&gt;Node2 -->
<g id="edge19" class="edge">
<title>Node12&#45;&gt;Node2</title>
<path fill="none" stroke="#9a32cd" stroke-dasharray="5,2" d="M376.75,-96.74C421.86,-104.73 497.53,-125.41 535,-177 566.37,-220.19 583.06,-622.26 585.64,-689.49"/>
<polygon fill="#9a32cd" stroke="#9a32cd" points="377.23,-93.27 366.79,-95.1 376.09,-100.18 377.23,-93.27"/>
<text text-anchor="middle" x="476" y="-180" font-family="Helvetica,sans-Serif" font-size="10.00"> cons</text>
</g>
<!-- Node13 -->
<g id="node13" class="node">
<title>Node13</title>
<g id="a_node13"><a xlink:title=" ">
<polygon fill="none" stroke="#bfbfbf" points="118,-0.5 118,-19.5 163,-19.5 163,-0.5 118,-0.5"/>
<text text-anchor="middle" x="140.5" y="-7.5" font-family="Helvetica,sans-Serif" font-size="10.00">size_t</text>
</a>
</g>
</g>
<!-- Node13&#45;&gt;Node2 -->
<g id="edge25" class="edge">
<title>Node13&#45;&gt;Node2</title>
<path fill="none" stroke="#9a32cd" stroke-dasharray="5,2" d="M173.16,-6.16C249.82,1.15 445.65,7.5 535,-104 573.17,-151.63 584.27,-615.15 585.81,-689.08"/>
<polygon fill="#9a32cd" stroke="#9a32cd" points="172.75,-2.68 163.16,-7.18 173.46,-9.65 172.75,-2.68"/>
<text text-anchor="middle" x="339.5" y="-24" font-family="Helvetica,sans-Serif" font-size="10.00"> oldlen</text>
</g>
<!-- Node13&#45;&gt;Node12 -->
<g id="edge21" class="edge">
<title>Node13&#45;&gt;Node12</title>
<path fill="none" stroke="#9a32cd" stroke-dasharray="5,2" d="M172.99,-16.29C197.82,-21.86 232.97,-31.12 262,-44 285.93,-54.62 311.2,-71.81 325.87,-82.48"/>
<polygon fill="#9a32cd" stroke="#9a32cd" points="173.55,-12.83 163.04,-14.13 172.07,-19.67 173.55,-12.83"/>
<text text-anchor="middle" x="228" y="-47" font-family="Helvetica,sans-Serif" font-size="10.00"> bufcnt</text>
</g>
<!-- Node14 -->
<g id="node14" class="node">
<title>Node14</title>
<g id="a_node14"><a xlink:title=" ">
<polygon fill="none" stroke="#bfbfbf" points="115.5,-52.5 115.5,-71.5 165.5,-71.5 165.5,-52.5 115.5,-52.5"/>
<text text-anchor="middle" x="140.5" y="-59.5" font-family="Helvetica,sans-Serif" font-size="10.00">uint8_t</text>
</a>
</g>
</g>
<!-- Node14&#45;&gt;Node12 -->
<g id="edge22" class="edge">
<title>Node14&#45;&gt;Node12</title>
<path fill="none" stroke="#9a32cd" stroke-dasharray="5,2" d="M175.9,-59.09C200.17,-57.81 233.34,-57.63 262,-63 282.1,-66.77 303.8,-75.47 318.93,-82.37"/>
<polygon fill="#9a32cd" stroke="#9a32cd" points="175.51,-55.61 165.75,-59.71 175.94,-62.59 175.51,-55.61"/>
<text text-anchor="middle" x="228" y="-99" font-family="Helvetica,sans-Serif" font-size="10.00"> attributes</text>
<text text-anchor="middle" x="228" y="-88" font-family="Helvetica,sans-Serif" font-size="10.00">last</text>
<text text-anchor="middle" x="228" y="-77" font-family="Helvetica,sans-Serif" font-size="10.00">x</text>
<text text-anchor="middle" x="228" y="-66" font-family="Helvetica,sans-Serif" font-size="10.00">y</text>
</g>
<!-- Node15 -->
<g id="node15" class="node">
<title>Node15</title>
<g id="a_node15"><a xlink:title=" ">
<polygon fill="none" stroke="#bfbfbf" points="314.5,-1174.5 314.5,-1193.5 364.5,-1193.5 364.5,-1174.5 314.5,-1174.5"/>
<text text-anchor="middle" x="339.5" y="-1181.5" font-family="Helvetica,sans-Serif" font-size="10.00">int32_t</text>
</a>
</g>
</g>
<!-- Node15&#45;&gt;Node2 -->
<g id="edge24" class="edge">
<title>Node15&#45;&gt;Node2</title>
<path fill="none" stroke="#9a32cd" stroke-dasharray="5,2" d="M374.37,-1191.3C418.01,-1198.5 493.2,-1203.12 535,-1161 568.11,-1127.63 583.2,-772.29 585.64,-708.71"/>
<polygon fill="#9a32cd" stroke="#9a32cd" points="374.98,-1187.85 364.52,-1189.54 373.75,-1194.74 374.98,-1187.85"/>
<text text-anchor="middle" x="476" y="-1199" font-family="Helvetica,sans-Serif" font-size="10.00"> graphics_colour</text>
</g>
<!-- Node16&#45;&gt;Node2 -->
<g id="edge26" class="edge">
<title>Node16&#45;&gt;Node2</title>
<path fill="none" stroke="#9a32cd" stroke-dasharray="5,2" d="M387.27,-846.77C391.33,-845.04 395.3,-843.12 399,-841 408.29,-835.68 407.91,-830.65 417,-825 465.07,-795.09 491.3,-813 535,-777 558.35,-757.76 574.8,-725.01 581.97,-708.75"/>
<polygon fill="#9a32cd" stroke="#9a32cd" points="385.75,-843.61 377.69,-850.48 388.28,-850.13 385.75,-843.61"/>
<text text-anchor="middle" x="476" y="-839" font-family="Helvetica,sans-Serif" font-size="10.00"> double_variables</text>
<text text-anchor="middle" x="476" y="-828" font-family="Helvetica,sans-Serif" font-size="10.00">local_double_variables</text>
</g>
<!-- Node16&#45;&gt;Node16 -->
<g id="edge29" class="edge">
<title>Node16&#45;&gt;Node16</title>
<path fill="none" stroke="#9a32cd" stroke-dasharray="5,2" d="M319.13,-879.4C320.49,-884.31 327.28,-888 339.5,-888 359.05,-888 364.7,-878.57 356.45,-869.76"/>
<polygon fill="#9a32cd" stroke="#9a32cd" points="322.51,-880.35 322.55,-869.76 315.91,-878.01 322.51,-880.35"/>
<text text-anchor="middle" x="339.5" y="-891" font-family="Helvetica,sans-Serif" font-size="10.00"> next</text>
</g>
<!-- Node17 -->
<g id="node17" class="node">
<title>Node17</title>
<g id="a_node17"><a xlink:title=" ">
<polygon fill="none" stroke="#bfbfbf" points="289,-1136.5 289,-1155.5 390,-1155.5 390,-1136.5 289,-1136.5"/>
<text text-anchor="middle" x="339.5" y="-1143.5" font-family="Helvetica,sans-Serif" font-size="10.00">struct hashmap *</text>
</a>
</g>
</g>
<!-- Node17&#45;&gt;Node2 -->
<g id="edge31" class="edge">
<title>Node17&#45;&gt;Node2</title>
<path fill="none" stroke="#9a32cd" stroke-dasharray="5,2" d="M400.24,-1147.08C450.31,-1146.62 516.5,-1142.37 535,-1124 565.58,-1093.63 582.62,-769.26 585.55,-708.7"/>
<polygon fill="#9a32cd" stroke="#9a32cd" points="400.13,-1143.58 390.14,-1147.13 400.16,-1150.58 400.13,-1143.58"/>
<text text-anchor="middle" x="476" y="-1149" font-family="Helvetica,sans-Serif" font-size="10.00"> lines</text>
</g>
<!-- Node18 -->
<g id="node18" class="node">
<title>Node18</title>
<g id="a_node18"><a xlink:title=" ">
<polygon fill="none" stroke="#bfbfbf" points="325,-1098.5 325,-1117.5 354,-1117.5 354,-1098.5 325,-1098.5"/>
<text text-anchor="middle" x="339.5" y="-1105.5" font-family="Helvetica,sans-Serif" font-size="10.00">int</text>
</a>
</g>
</g>
<!-- Node18&#45;&gt;Node2 -->
<g id="edge32" class="edge">
<title>Node18&#45;&gt;Node2</title>
<path fill="none" stroke="#9a32cd" stroke-dasharray="5,2" d="M364.08,-1106.06C413.25,-1101.8 523.14,-1091.04 535,-1079 588.61,-1024.6 587.09,-762.34 586.2,-708.62"/>
<polygon fill="#9a32cd" stroke="#9a32cd" points="363.71,-1102.58 354.04,-1106.92 364.3,-1109.56 363.71,-1102.58"/>
<text text-anchor="middle" x="476" y="-1114" font-family="Helvetica,sans-Serif" font-size="10.00"> bracket_depth</text>
<text text-anchor="middle" x="476" y="-1103" font-family="Helvetica,sans-Serif" font-size="10.00">current_token</text>
</g>
<!-- Node19&#45;&gt;Node2 -->
<g id="edge33" class="edge">
<title>Node19&#45;&gt;Node2</title>
<path fill="none" stroke="#9a32cd" stroke-dasharray="5,2" d="M398.95,-511.06C441.52,-514.84 497.98,-526.51 535,-560 574.27,-595.52 583.36,-663.88 585.42,-689.23"/>
<polygon fill="#9a32cd" stroke="#9a32cd" points="398.96,-507.55 388.72,-510.28 398.43,-514.53 398.96,-507.55"/>
<text text-anchor="middle" x="476" y="-563" font-family="Helvetica,sans-Serif" font-size="10.00"> int_array_variables</text>
</g>
<!-- Node19&#45;&gt;Node19 -->
<g id="edge37" class="edge">
<title>Node19&#45;&gt;Node19</title>
<path fill="none" stroke="#9a32cd" stroke-dasharray="5,2" d="M319.13,-529.4C320.49,-534.31 327.28,-538 339.5,-538 359.05,-538 364.7,-528.57 356.45,-519.76"/>
<polygon fill="#9a32cd" stroke="#9a32cd" points="322.51,-530.35 322.55,-519.76 315.91,-528.01 322.51,-530.35"/>
<text text-anchor="middle" x="339.5" y="-541" font-family="Helvetica,sans-Serif" font-size="10.00"> next</text>
</g>
<!-- Node20&#45;&gt;Node2 -->
<g id="edge39" class="edge">
<title>Node20&#45;&gt;Node2</title>
<path fill="none" stroke="#9a32cd" stroke-dasharray="5,2" d="M395.28,-634.94C434.76,-643.58 488.97,-657 535,-674 546.47,-678.24 558.79,-684.23 568.45,-689.29"/>
<polygon fill="#9a32cd" stroke="#9a32cd" points="395.83,-631.48 385.32,-632.8 394.36,-638.32 395.83,-631.48"/>
<text text-anchor="middle" x="476" y="-677" font-family="Helvetica,sans-Serif" font-size="10.00"> defs</text>
</g>
<!-- Node20&#45;&gt;Node20 -->
<g id="edge43" class="edge">
<title>Node20&#45;&gt;Node20</title>
<path fill="none" stroke="#9a32cd" stroke-dasharray="5,2" d="M319.13,-643.4C320.49,-648.31 327.28,-652 339.5,-652 359.05,-652 364.7,-642.57 356.45,-633.76"/>
<polygon fill="#9a32cd" stroke="#9a32cd" points="322.51,-644.35 322.55,-633.76 315.91,-642.01 322.51,-644.35"/>
<text text-anchor="middle" x="339.5" y="-655" font-family="Helvetica,sans-Serif" font-size="10.00"> next</text>
</g>
<!-- Node21 -->
<g id="node21" class="node">
<title>Node21</title>
<g id="a_node21"><a xlink:title=" ">
<polygon fill="none" stroke="#bfbfbf" points="105,-705.5 105,-724.5 176,-724.5 176,-705.5 105,-705.5"/>
<text text-anchor="middle" x="140.5" y="-712.5" font-family="Helvetica,sans-Serif" font-size="10.00">ub_fn_type</text>
</a>
</g>
</g>
<!-- Node21&#45;&gt;Node20 -->
<g id="edge40" class="edge">
<title>Node21&#45;&gt;Node20</title>
<path fill="none" stroke="#9a32cd" stroke-dasharray="5,2" d="M163.6,-699.43C175.01,-691.56 187.81,-683.04 194,-680 222.63,-665.92 232.22,-668.44 262,-657 281.04,-649.69 302.31,-640.42 317.58,-633.57"/>
<polygon fill="#9a32cd" stroke="#9a32cd" points="161.49,-696.63 155.28,-705.22 165.48,-702.38 161.49,-696.63"/>
<text text-anchor="middle" x="228" y="-683" font-family="Helvetica,sans-Serif" font-size="10.00"> type</text>
</g>
<!-- Node22&#45;&gt;Node2 -->
<g id="edge55" class="edge">
<title>Node22&#45;&gt;Node2</title>
<path fill="none" stroke="#9a32cd" stroke-dasharray="5,2" d="M183.04,-595.4C234.17,-589.52 323.5,-582.61 399,-594 461.55,-603.44 482.61,-600.55 535,-636 555.98,-650.2 572.67,-675.57 580.73,-689.39"/>
<polygon fill="#9a32cd" stroke="#9a32cd" points="182.55,-591.93 173.03,-596.59 183.38,-598.88 182.55,-591.93"/>
<text text-anchor="middle" x="339.5" y="-597" font-family="Helvetica,sans-Serif" font-size="10.00"> param</text>
</g>
<!-- Node22&#45;&gt;Node20 -->
<g id="edge44" class="edge">
<title>Node22&#45;&gt;Node20</title>
<path fill="none" stroke="#9a32cd" stroke-dasharray="5,2" d="M183.21,-605.87C215.64,-609.66 260.53,-614.9 293.71,-618.77"/>
<polygon fill="#9a32cd" stroke="#9a32cd" points="183.49,-602.38 173.15,-604.7 182.68,-609.33 183.49,-602.38"/>
<text text-anchor="middle" x="228" y="-618" font-family="Helvetica,sans-Serif" font-size="10.00"> params</text>
</g>
<!-- Node22&#45;&gt;Node22 -->
<g id="edge46" class="edge">
<title>Node22&#45;&gt;Node22</title>
<path fill="none" stroke="#9a32cd" stroke-dasharray="5,2" d="M127.98,-620.77C128.96,-625.5 133.14,-629 140.5,-629 152.59,-629 156.08,-619.57 150.98,-610.76"/>
<polygon fill="#9a32cd" stroke="#9a32cd" points="131.45,-621.25 130.02,-610.76 124.59,-619.86 131.45,-621.25"/>
<text text-anchor="middle" x="140.5" y="-632" font-family="Helvetica,sans-Serif" font-size="10.00"> next</text>
</g>
<!-- Node23&#45;&gt;Node2 -->
<g id="edge47" class="edge">
<title>Node23&#45;&gt;Node2</title>
<path fill="none" stroke="#9a32cd" stroke-dasharray="5,2" d="M391.28,-246.55C435.76,-244.84 498.79,-250.39 535,-289 591.55,-349.3 587.61,-633.4 586.27,-689.4"/>
<polygon fill="#9a32cd" stroke="#9a32cd" points="391.05,-243.06 381.24,-247.07 391.41,-250.05 391.05,-243.06"/>
<text text-anchor="middle" x="476" y="-303" font-family="Helvetica,sans-Serif" font-size="10.00"> local_string_variables</text>
<text text-anchor="middle" x="476" y="-292" font-family="Helvetica,sans-Serif" font-size="10.00">str_variables</text>
</g>
<!-- Node23&#45;&gt;Node23 -->
<g id="edge50" class="edge">
<title>Node23&#45;&gt;Node23</title>
<path fill="none" stroke="#9a32cd" stroke-dasharray="5,2" d="M319.13,-271.4C320.49,-276.31 327.28,-280 339.5,-280 359.05,-280 364.7,-270.57 356.45,-261.76"/>
<polygon fill="#9a32cd" stroke="#9a32cd" points="322.51,-272.35 322.55,-261.76 315.91,-270.01 322.51,-272.35"/>
<text text-anchor="middle" x="339.5" y="-283" font-family="Helvetica,sans-Serif" font-size="10.00"> next</text>
</g>
<!-- Node24 -->
<g id="node24" class="node">
<title>Node24</title>
<g id="a_node24"><a xlink:title=" ">
<polygon fill="none" stroke="#bfbfbf" points="316.5,-1022.5 316.5,-1041.5 362.5,-1041.5 362.5,-1022.5 316.5,-1022.5"/>
<text text-anchor="middle" x="339.5" y="-1029.5" font-family="Helvetica,sans-Serif" font-size="10.00">void *</text>
</a>
</g>
</g>
<!-- Node24&#45;&gt;Node2 -->
<g id="edge51" class="edge">
<title>Node24&#45;&gt;Node2</title>
<path fill="none" stroke="#9a32cd" stroke-dasharray="5,2" d="M372.64,-1032.52C421.82,-1032.59 512.42,-1029.68 535,-1008 579.42,-965.36 585.16,-756.28 585.89,-708.67"/>
<polygon fill="#9a32cd" stroke="#9a32cd" points="372.55,-1029.02 362.53,-1032.46 372.51,-1036.02 372.55,-1029.02"/>
<text text-anchor="middle" x="476" y="-1034" font-family="Helvetica,sans-Serif" font-size="10.00"> fn_return</text>
</g>
<!-- Node25&#45;&gt;Node2 -->
<g id="edge52" class="edge">
<title>Node25&#45;&gt;Node2</title>
<path fill="none" stroke="#9a32cd" stroke-dasharray="5,2" d="M379.85,-465.7C423.31,-461.13 492.74,-461.22 535,-499 564.25,-525.15 580.78,-652.93 584.95,-689.31"/>
<polygon fill="#9a32cd" stroke="#9a32cd" points="379.17,-462.26 369.65,-466.91 380,-469.21 379.17,-462.26"/>
<text text-anchor="middle" x="476" y="-502" font-family="Helvetica,sans-Serif" font-size="10.00"> for_stack</text>
</g>
</g>
</svg>
        <g id="navigator" transform="translate(0 0)" fill="#404254">
                <rect fill="#f2f5e9" fill-opacity="0.5" stroke="#606060" stroke-width=".5" x="0" y="0" width="60" height="60"/>
                <use id="zoomplus" xlink:href="#zoomPlus" x="17" y="9" onmousedown="handleZoom(evt,'in')"/>
                <use id="zoomminus" xlink:href="#zoomMin" x="42" y="9" onmousedown="handleZoom(evt,'out')"/>
                <use id="reset" xlink:href="#resetDef" x="30" y="36" onmousedown="handleReset()"/>
                <g id="arrowUp" xlink:href="#dirArrow" transform="translate(30 24)" onmousedown="handlePan(0,-1)">
                  <use xlink:href="#rim" fill="#404040">
                        <set attributeName="fill" to="#808080" begin="arrowUp.mouseover" end="arrowUp.mouseout"/>
                  </use>
                  <path fill="none" stroke="white" stroke-width="1.5" d="M0,-3.0v7 M-2.5,-0.5L0,-3.0L2.5,-0.5"/>
                </g>
                <g id="arrowRight" xlink:href="#dirArrow" transform="rotate(90) translate(36 -43)" onmousedown="handlePan(1,0)">
                  <use xlink:href="#rim" fill="#404040">
                        <set attributeName="fill" to="#808080" begin="arrowRight.mouseover" end="arrowRight.mouseout"/>
                  </use>
                  <path fill="none" stroke="white" stroke-width="1.5" d="M0,-3.0v7 M-2.5,-0.5L0,-3.0L2.5,-0.5"/>
                </g>
                <g id="arrowDown" xlink:href="#dirArrow" transform="rotate(180) translate(-30 -48)" onmousedown="handlePan(0,1)">
                  <use xlink:href="#rim" fill="#404040">
                        <set attributeName="fill" to="#808080" begin="arrowDown.mouseover" end="arrowDown.mouseout"/>
                  </use>
                  <path fill="none" stroke="white" stroke-width="1.5" d="M0,-3.0v7 M-2.5,-0.5L0,-3.0L2.5,-0.5"/>
                </g>
                <g id="arrowLeft" xlink:href="#dirArrow" transform="rotate(270) translate(-36 17)" onmousedown="handlePan(-1,0)">
                  <use xlink:href="#rim" fill="#404040">
                        <set attributeName="fill" to="#808080" begin="arrowLeft.mouseover" end="arrowLeft.mouseout"/>
                  </use>
                  <path fill="none" stroke="white" stroke-width="1.5" d="M0,-3.0v7 M-2.5,-0.5L0,-3.0L2.5,-0.5"/>
                </g>
        </g>
        <svg viewBox="0 0 15 15" width="100%" height="30px" preserveAspectRatio="xMaxYMin meet">
         <g id="arrow_out" transform="scale(0.3 0.3)">
          <a xlink:href="structubasic__double__fn__coll__graph_org.svg" target="_base">
           <rect id="button" ry="5" rx="5" y="6" x="6" height="38" width="38"
                fill="#f2f5e9" fill-opacity="0.5" stroke="#606060" stroke-width="1.0"/>
           <path id="arrow"
             d="M 11.500037,31.436501 C 11.940474,20.09759 22.043105,11.32322 32.158766,21.979434 L 37.068811,17.246167 C 37.068811,17.246167 37.088388,32 37.088388,32 L 22.160133,31.978069 C 22.160133,31.978069 26.997745,27.140456 26.997745,27.140456 C 18.528582,18.264221 13.291696,25.230495 11.500037,31.436501 z"
             style="fill:#404040;"/>
          </a>
         </g>
        </svg>
</svg>
