<?xml version="1.0" encoding="UTF-8" standalone="no"?>
<!DOCTYPE svg PUBLIC "-//W3C//DTD SVG 1.1//EN"
 "http://www.w3.org/Graphics/SVG/1.1/DTD/svg11.dtd">
<!-- Generated by graphviz version 2.43.0 (0)
 -->
<!-- Title: directory_entry_t Pages: 1 -->
<svg width="347pt" height="161pt"
 viewBox="0.00 0.00 347.00 161.00" xmlns="http://www.w3.org/2000/svg" xmlns:xlink="http://www.w3.org/1999/xlink">
<g id="graph0" class="graph" transform="scale(1 1) rotate(0) translate(4 157)">
<title>directory_entry_t</title>
<!-- Node1 -->
<g id="node1" class="node">
<title>Node1</title>
<g id="a_node1"><a xlink:title="A directory entry, e.g. file, volume label, directory, long filename entry.">
<polygon fill="#bfbfbf" stroke="black" points="102,-0.5 102,-19.5 202,-19.5 202,-0.5 102,-0.5"/>
<text text-anchor="middle" x="152" y="-7.5" font-family="Helvetica,sans-Serif" font-size="10.00">directory_entry_t</text>
</a>
</g>
</g>
<!-- Node2 -->
<g id="node2" class="node">
<title>Node2</title>
<g id="a_node2"><a xlink:title=" ">
<polygon fill="none" stroke="#bfbfbf" points="0,-133.5 0,-152.5 56,-152.5 56,-133.5 0,-133.5"/>
<text text-anchor="middle" x="28" y="-140.5" font-family="Helvetica,sans-Serif" font-size="10.00">uint16_t</text>
</a>
</g>
</g>
<!-- Node2&#45;&gt;Node1 -->
<g id="edge1" class="edge">
<title>Node2&#45;&gt;Node1</title>
<path fill="none" stroke="#9a32cd" stroke-dasharray="5,2" d="M23.52,-123.68C19.1,-100.79 15.62,-61.73 36,-38 44.76,-27.8 74.53,-21 101.72,-16.77"/>
<polygon fill="#9a32cd" stroke="#9a32cd" points="20.11,-124.46 25.67,-133.49 26.95,-122.97 20.11,-124.46"/>
<text text-anchor="middle" x="72" y="-107" font-family="Helvetica,sans-Serif" font-size="10.00"> access_date</text>
<text text-anchor="middle" x="72" y="-96" font-family="Helvetica,sans-Serif" font-size="10.00">create_date</text>
<text text-anchor="middle" x="72" y="-85" font-family="Helvetica,sans-Serif" font-size="10.00">create_time</text>
<text text-anchor="middle" x="72" y="-74" font-family="Helvetica,sans-Serif" font-size="10.00">first_cluster_hi</text>
<text text-anchor="middle" x="72" y="-63" font-family="Helvetica,sans-Serif" font-size="10.00">first_cluster_lo</text>
<text text-anchor="middle" x="72" y="-52" font-family="Helvetica,sans-Serif" font-size="10.00">write_date</text>
<text text-anchor="middle" x="72" y="-41" font-family="Helvetica,sans-Serif" font-size="10.00">write_time</text>
</g>
<!-- Node3 -->
<g id="node3" class="node">
<title>Node3</title>
<g id="a_node3"><a xlink:title=" ">
<polygon fill="none" stroke="#bfbfbf" points="98,-133.5 98,-152.5 136,-152.5 136,-133.5 98,-133.5"/>
<text text-anchor="middle" x="117" y="-140.5" font-family="Helvetica,sans-Serif" font-size="10.00">char</text>
</a>
</g>
</g>
<!-- Node3&#45;&gt;Node1 -->
<g id="edge2" class="edge">
<title>Node3&#45;&gt;Node1</title>
<path fill="none" stroke="#9a32cd" stroke-dasharray="5,2" d="M114.05,-123.27C111.53,-101.62 110.09,-65.47 123,-38 126.45,-30.65 132.88,-24.34 138.81,-19.67"/>
<polygon fill="#9a32cd" stroke="#9a32cd" points="110.61,-123.96 115.44,-133.39 117.55,-123.01 110.61,-123.96"/>
<text text-anchor="middle" x="138.5" y="-74" font-family="Helvetica,sans-Serif" font-size="10.00"> name</text>
</g>
<!-- Node4 -->
<g id="node4" class="node">
<title>Node4</title>
<g id="a_node4"><a xlink:title=" ">
<polygon fill="none" stroke="#bfbfbf" points="154,-133.5 154,-152.5 210,-152.5 210,-133.5 154,-133.5"/>
<text text-anchor="middle" x="182" y="-140.5" font-family="Helvetica,sans-Serif" font-size="10.00">uint32_t</text>
</a>
</g>
</g>
<!-- Node4&#45;&gt;Node1 -->
<g id="edge3" class="edge">
<title>Node4&#45;&gt;Node1</title>
<path fill="none" stroke="#9a32cd" stroke-dasharray="5,2" d="M177.76,-123.47C171.2,-94.83 158.85,-40.92 154.01,-19.8"/>
<polygon fill="#9a32cd" stroke="#9a32cd" points="174.39,-124.44 180.03,-133.4 181.21,-122.88 174.39,-124.44"/>
<text text-anchor="middle" x="186.5" y="-74" font-family="Helvetica,sans-Serif" font-size="10.00"> size</text>
</g>
<!-- Node5 -->
<g id="node5" class="node">
<title>Node5</title>
<g id="a_node5"><a xlink:title=" ">
<polygon fill="none" stroke="#bfbfbf" points="228,-133.5 228,-152.5 278,-152.5 278,-133.5 228,-133.5"/>
<text text-anchor="middle" x="253" y="-140.5" font-family="Helvetica,sans-Serif" font-size="10.00">uint8_t</text>
</a>
</g>
</g>
<!-- Node5&#45;&gt;Node1 -->
<g id="edge4" class="edge">
<title>Node5&#45;&gt;Node1</title>
<path fill="none" stroke="#9a32cd" stroke-dasharray="5,2" d="M247.86,-123.76C240.73,-101.25 225.96,-62.91 202,-38 194.41,-30.11 184,-23.98 174.65,-19.58"/>
<polygon fill="#9a32cd" stroke="#9a32cd" points="244.53,-124.83 250.75,-133.41 251.23,-122.83 244.53,-124.83"/>
<text text-anchor="middle" x="291.5" y="-85" font-family="Helvetica,sans-Serif" font-size="10.00"> attr</text>
<text text-anchor="middle" x="291.5" y="-74" font-family="Helvetica,sans-Serif" font-size="10.00">create_time_tenths</text>
<text text-anchor="middle" x="291.5" y="-63" font-family="Helvetica,sans-Serif" font-size="10.00">nt</text>
</g>
</g>
</svg>
