<?xml version="1.0" encoding="UTF-8" standalone="no"?>
<!DOCTYPE svg PUBLIC "-//W3C//DTD SVG 1.1//EN"
 "http://www.w3.org/Graphics/SVG/1.1/DTD/svg11.dtd">
<!-- Generated by graphviz version 2.43.0 (0)
 -->
<!-- Title: iso9660 Pages: 1 -->
<!--zoomable 232 -->
<svg id="main" version="1.1" xmlns="http://www.w3.org/2000/svg" xmlns:xlink="http://www.w3.org/1999/xlink" xml:space="preserve" onload="init(evt)">
<style type="text/css"><![CDATA[
.edge:hover path { stroke: red; }
.edge:hover polygon { stroke: red; fill: red; }
]]></style>
<script type="text/javascript"><![CDATA[
var edges = document.getElementsByTagName('g');
if (edges && edges.length) {
  for (var i=0;i<edges.length;i++) {
    if (edges[i].id.substr(0,4)=='edge') {
      edges[i].setAttribute('class','edge');
    }
  }
}
]]></script>
        <defs>
                <circle id="rim" cx="0" cy="0" r="7"/>
                <circle id="rim2" cx="0" cy="0" r="3.5"/>
                <g id="zoomPlus">
                        <use xlink:href="#rim" fill="#404040">
                                <set attributeName="fill" to="#808080" begin="zoomplus.mouseover" end="zoomplus.mouseout"/>
                        </use>
                        <path d="M-4,0h8M0,-4v8" fill="none" stroke="white" stroke-width="1.5" pointer-events="none"/>
                </g>
                <g id="zoomMin">
                        <use xlink:href="#rim" fill="#404040">
                                <set attributeName="fill" to="#808080" begin="zoomminus.mouseover" end="zoomminus.mouseout"/>
                        </use>
                        <path d="M-4,0h8" fill="none" stroke="white" stroke-width="1.5" pointer-events="none"/>
                </g>
                <g id="dirArrow">
                        <path fill="none" stroke="white" stroke-width="1.5" d="M0,-3.0v7 M-2.5,-0.5L0,-3.0L2.5,-0.5"/>
                </g>
               <g id="resetDef">
                       <use xlink:href="#rim2" fill="#404040">
                               <set attributeName="fill" to="#808080" begin="reset.mouseover" end="reset.mouseout"/>
                       </use>
               </g>
        </defs>

<script type="text/javascript">
var viewWidth = 1200;
var viewHeight = 232;
var sectionId = 'dynsection-0';
</script>
<script xlink:href="svgpan.js"/>
<svg id="graph" class="graph">
<g id="viewport">
<title>iso9660</title>
<!-- Node1 -->
<g id="node1" class="node">
<title>Node1</title>
<g id="a_node1"><a xlink:title="High&#45;level ISO9660 volume mapping.">
<polygon fill="#bfbfbf" stroke="black" points="752.5,-7 752.5,-26 807.5,-26 807.5,-7 752.5,-7"/>
<text text-anchor="middle" x="780" y="-14" font-family="Helvetica,sans-Serif" font-size="10.00">iso9660</text>
</a>
</g>
</g>
<!-- Node2 -->
<g id="node2" class="node">
<title>Node2</title>
<g id="a_node2"><a xlink:href="structfs__directory__entry__t.html" target="_top" xlink:title="A VFS directory entry. Files AND directories have these, but internally there is also a tree of fs_tr...">
<polygon fill="none" stroke="black" points="215,-87 215,-106 329,-106 329,-87 215,-87"/>
<text text-anchor="middle" x="272" y="-94" font-family="Helvetica,sans-Serif" font-size="10.00">fs_directory_entry_t</text>
</a>
</g>
</g>
<!-- Node2&#45;&gt;Node1 -->
<g id="edge1" class="edge">
<title>Node2&#45;&gt;Node1</title>
<path fill="none" stroke="#9a32cd" stroke-dasharray="5,2" d="M301.06,-82.71C328.24,-70.96 366.99,-54.8 383,-51 518.62,-18.85 686.7,-16.56 752.12,-17.04"/>
<polygon fill="#9a32cd" stroke="#9a32cd" points="299.4,-79.61 291.63,-86.81 302.19,-86.03 299.4,-79.61"/>
<text text-anchor="middle" x="394.5" y="-54" font-family="Helvetica,sans-Serif" font-size="10.00"> root</text>
</g>
<!-- Node2&#45;&gt;Node2 -->
<g id="edge2" class="edge">
<title>Node2&#45;&gt;Node2</title>
<path fill="none" stroke="#9a32cd" stroke-dasharray="5,2" d="M339.44,-101.96C344.14,-100.71 347,-98.89 347,-96.5 347,-92.67 339.67,-90.31 329.23,-89.41"/>
<polygon fill="#9a32cd" stroke="#9a32cd" points="338.55,-98.56 329.23,-103.59 339.65,-105.47 338.55,-98.56"/>
<text text-anchor="middle" x="359.5" y="-94" font-family="Helvetica,sans-Serif" font-size="10.00"> next</text>
</g>
<!-- Node4 -->
<g id="node4" class="node">
<title>Node4</title>
<g id="a_node4"><a xlink:href="structfs__tree__t.html" target="_top" xlink:title="Used internally by filesystem.c to cache directories to RAM.">
<polygon fill="none" stroke="black" points="286.5,-7 286.5,-26 345.5,-26 345.5,-7 286.5,-7"/>
<text text-anchor="middle" x="316" y="-14" font-family="Helvetica,sans-Serif" font-size="10.00">fs_tree_t</text>
</a>
</g>
</g>
<!-- Node2&#45;&gt;Node4 -->
<g id="edge6" class="edge">
<title>Node2&#45;&gt;Node4</title>
<path fill="none" stroke="#9a32cd" stroke-dasharray="5,2" d="M264.72,-77.14C262.57,-68.75 261.77,-58.93 266,-51 272.05,-39.66 283.83,-31.49 294.44,-26.05"/>
<polygon fill="#9a32cd" stroke="#9a32cd" points="261.44,-78.36 267.9,-86.76 268.09,-76.17 261.44,-78.36"/>
<text text-anchor="middle" x="278" y="-54" font-family="Helvetica,sans-Serif" font-size="10.00"> files</text>
</g>
<!-- Node3 -->
<g id="node3" class="node">
<title>Node3</title>
<g id="a_node3"><a xlink:title=" ">
<polygon fill="none" stroke="#bfbfbf" points="179,-204.5 179,-223.5 235,-223.5 235,-204.5 179,-204.5"/>
<text text-anchor="middle" x="207" y="-211.5" font-family="Helvetica,sans-Serif" font-size="10.00">uint64_t</text>
</a>
</g>
</g>
<!-- Node3&#45;&gt;Node2 -->
<g id="edge3" class="edge">
<title>Node3&#45;&gt;Node2</title>
<path fill="none" stroke="#9a32cd" stroke-dasharray="5,2" d="M186.1,-197.68C182.81,-194.23 179.87,-190.3 178,-186 168.24,-163.59 163.91,-150.98 178,-131 186.69,-118.68 200.33,-110.87 214.55,-105.92"/>
<polygon fill="#9a32cd" stroke="#9a32cd" points="183.84,-200.35 193.63,-204.41 188.51,-195.13 183.84,-200.35"/>
<text text-anchor="middle" x="196" y="-161.5" font-family="Helvetica,sans-Serif" font-size="10.00"> lbapos</text>
<text text-anchor="middle" x="196" y="-150.5" font-family="Helvetica,sans-Serif" font-size="10.00">size</text>
</g>
<!-- Node3&#45;&gt;Node4 -->
<g id="edge5" class="edge">
<title>Node3&#45;&gt;Node4</title>
<path fill="none" stroke="#9a32cd" stroke-dasharray="5,2" d="M176.16,-199.18C171.28,-195.6 166.9,-191.24 164,-186 141.17,-144.7 141.76,-117.8 170,-80 197.81,-42.78 252.26,-27.48 286.24,-21.37"/>
<polygon fill="#9a32cd" stroke="#9a32cd" points="174.33,-202.16 184.67,-204.48 178.03,-196.22 174.33,-202.16"/>
<text text-anchor="middle" x="188" y="-105" font-family="Helvetica,sans-Serif" font-size="10.00"> device</text>
<text text-anchor="middle" x="188" y="-94" font-family="Helvetica,sans-Serif" font-size="10.00">lbapos</text>
<text text-anchor="middle" x="188" y="-83" font-family="Helvetica,sans-Serif" font-size="10.00">size</text>
</g>
<!-- Node5 -->
<g id="node5" class="node">
<title>Node5</title>
<g id="a_node5"><a xlink:href="structfilesystem__t.html" target="_top" xlink:title="Defines a filesystem driver.">
<polygon fill="none" stroke="black" points="393.5,-87 393.5,-106 470.5,-106 470.5,-87 393.5,-87"/>
<text text-anchor="middle" x="432" y="-94" font-family="Helvetica,sans-Serif" font-size="10.00">filesystem_t</text>
</a>
</g>
</g>
<!-- Node3&#45;&gt;Node5 -->
<g id="edge9" class="edge">
<title>Node3&#45;&gt;Node5</title>
<path fill="none" stroke="#9a32cd" stroke-dasharray="5,2" d="M212.63,-194.56C219.78,-171.67 231.83,-135.12 237,-131 262.23,-110.92 349.46,-119.71 381,-113 389.6,-111.17 398.84,-108.56 407.06,-106.01"/>
<polygon fill="#9a32cd" stroke="#9a32cd" points="209.25,-193.64 209.64,-204.23 215.94,-195.71 209.25,-193.64"/>
<text text-anchor="middle" x="261.5" y="-167" font-family="Helvetica,sans-Serif" font-size="10.00"> createdir</text>
<text text-anchor="middle" x="261.5" y="-156" font-family="Helvetica,sans-Serif" font-size="10.00">createfile</text>
<text text-anchor="middle" x="261.5" y="-145" font-family="Helvetica,sans-Serif" font-size="10.00">freespace</text>
</g>
<!-- Node14 -->
<g id="node14" class="node">
<title>Node14</title>
<g id="a_node14"><a xlink:href="structstorage__device__t.html" target="_top" xlink:title="Represents a block storage device e.g. a hard disk, DVD&#45;ROM drive, etc.">
<polygon fill="none" stroke="black" points="870,-87 870,-106 970,-106 970,-87 870,-87"/>
<text text-anchor="middle" x="920" y="-94" font-family="Helvetica,sans-Serif" font-size="10.00">storage_device_t</text>
</a>
</g>
</g>
<!-- Node3&#45;&gt;Node14 -->
<g id="edge24" class="edge">
<title>Node3&#45;&gt;Node14</title>
<path fill="none" stroke="#9a32cd" stroke-dasharray="5,2" d="M245.23,-205.83C259.17,-201.78 274.36,-195.54 286,-186 307.87,-168.07 293.72,-145.51 318,-131 369.34,-100.32 796.74,-121.08 856,-113 867.33,-111.46 879.57,-108.75 890.29,-106.03"/>
<polygon fill="#9a32cd" stroke="#9a32cd" points="244.15,-202.49 235.36,-208.41 245.92,-209.27 244.15,-202.49"/>
<text text-anchor="middle" x="341" y="-161.5" font-family="Helvetica,sans-Serif" font-size="10.00"> opaque1</text>
<text text-anchor="middle" x="341" y="-150.5" font-family="Helvetica,sans-Serif" font-size="10.00">size</text>
</g>
<!-- Node4&#45;&gt;Node2 -->
<g id="edge4" class="edge">
<title>Node4&#45;&gt;Node2</title>
<path fill="none" stroke="#9a32cd" stroke-dasharray="5,2" d="M307.83,-35.26C303.88,-43.52 298.93,-53.39 294,-62 289.02,-70.69 282.68,-80.21 278.09,-86.87"/>
<polygon fill="#9a32cd" stroke="#9a32cd" points="311.01,-36.73 312.09,-26.19 304.67,-33.76 311.01,-36.73"/>
<text text-anchor="middle" x="322.5" y="-54" font-family="Helvetica,sans-Serif" font-size="10.00"> directory</text>
</g>
<!-- Node4&#45;&gt;Node4 -->
<g id="edge7" class="edge">
<title>Node4&#45;&gt;Node4</title>
<path fill="none" stroke="#9a32cd" stroke-dasharray="5,2" d="M355.67,-22.95C360.41,-21.77 363.5,-19.62 363.5,-16.5 363.5,-11.5 355.58,-9 345.69,-9"/>
<polygon fill="#9a32cd" stroke="#9a32cd" points="355.26,-19.47 345.69,-24 356,-26.43 355.26,-19.47"/>
<text text-anchor="middle" x="388.5" y="-25" font-family="Helvetica,sans-Serif" font-size="10.00"> child_dirs</text>
<text text-anchor="middle" x="388.5" y="-14" font-family="Helvetica,sans-Serif" font-size="10.00">next</text>
<text text-anchor="middle" x="388.5" y="-3" font-family="Helvetica,sans-Serif" font-size="10.00">parent</text>
</g>
<!-- Node5&#45;&gt;Node4 -->
<g id="edge8" class="edge">
<title>Node5&#45;&gt;Node4</title>
<path fill="none" stroke="#9a32cd" stroke-dasharray="5,2" d="M426.58,-77.15C423.11,-68.21 417.78,-57.92 410,-51 392.01,-34.99 365.84,-26.49 345.68,-22.07"/>
<polygon fill="#9a32cd" stroke="#9a32cd" points="423.3,-78.4 429.82,-86.75 429.94,-76.16 423.3,-78.4"/>
<text text-anchor="middle" x="465" y="-54" font-family="Helvetica,sans-Serif" font-size="10.00"> responsible_driver</text>
</g>
<!-- Node5&#45;&gt;Node5 -->
<g id="edge11" class="edge">
<title>Node5&#45;&gt;Node5</title>
<path fill="none" stroke="#9a32cd" stroke-dasharray="5,2" d="M480.72,-102.59C485.48,-101.36 488.5,-99.33 488.5,-96.5 488.5,-91.97 480.77,-89.49 470.56,-89.07"/>
<polygon fill="#9a32cd" stroke="#9a32cd" points="480.01,-99.15 470.56,-103.93 480.93,-106.09 480.01,-99.15"/>
<text text-anchor="middle" x="501" y="-94" font-family="Helvetica,sans-Serif" font-size="10.00"> next</text>
</g>
<!-- Node6 -->
<g id="node6" class="node">
<title>Node6</title>
<g id="a_node6"><a xlink:title=" ">
<polygon fill="none" stroke="#bfbfbf" points="314.5,-204.5 314.5,-223.5 409.5,-223.5 409.5,-204.5 314.5,-204.5"/>
<text text-anchor="middle" x="362" y="-211.5" font-family="Helvetica,sans-Serif" font-size="10.00">void *(*)(void *)</text>
</a>
</g>
</g>
<!-- Node6&#45;&gt;Node5 -->
<g id="edge10" class="edge">
<title>Node6&#45;&gt;Node5</title>
<path fill="none" stroke="#9a32cd" stroke-dasharray="5,2" d="M365.88,-194.33C370.17,-176.8 378.35,-150.44 392,-131 399.08,-120.92 409.93,-112.09 418.54,-106.04"/>
<polygon fill="#9a32cd" stroke="#9a32cd" points="362.39,-193.88 363.6,-204.41 369.22,-195.43 362.39,-193.88"/>
<text text-anchor="middle" x="408" y="-156" font-family="Helvetica,sans-Serif" font-size="10.00"> getdir</text>
</g>
<!-- Node7 -->
<g id="node7" class="node">
<title>Node7</title>
<g id="a_node7"><a xlink:title=" ">
<polygon fill="none" stroke="#bfbfbf" points="627,-204.5 627,-223.5 665,-223.5 665,-204.5 627,-204.5"/>
<text text-anchor="middle" x="646" y="-211.5" font-family="Helvetica,sans-Serif" font-size="10.00">char</text>
</a>
</g>
</g>
<!-- Node7&#45;&gt;Node1 -->
<g id="edge22" class="edge">
<title>Node7&#45;&gt;Node1</title>
<path fill="none" stroke="#9a32cd" stroke-dasharray="5,2" d="M653.56,-195.07C667.98,-161.08 698.6,-89.8 706,-80 723.33,-57.05 750.52,-36.87 766.67,-26"/>
<polygon fill="#9a32cd" stroke="#9a32cd" points="650.33,-193.73 649.66,-204.31 656.78,-196.46 650.33,-193.73"/>
<text text-anchor="middle" x="742.5" y="-94" font-family="Helvetica,sans-Serif" font-size="10.00"> volume_name</text>
</g>
<!-- Node7&#45;&gt;Node2 -->
<g id="edge19" class="edge">
<title>Node7&#45;&gt;Node2</title>
<path fill="none" stroke="#9a32cd" stroke-dasharray="5,2" d="M616.69,-210.67C581.12,-207.28 523.9,-199.83 508,-186 488.48,-169.03 508.85,-147.57 489,-131 485.91,-128.42 392.33,-114.65 329.08,-105.58"/>
<polygon fill="#9a32cd" stroke="#9a32cd" points="616.69,-214.19 626.97,-211.6 617.32,-207.22 616.69,-214.19"/>
<text text-anchor="middle" x="541" y="-167" font-family="Helvetica,sans-Serif" font-size="10.00"> alt_filename</text>
<text text-anchor="middle" x="541" y="-156" font-family="Helvetica,sans-Serif" font-size="10.00">device_name</text>
<text text-anchor="middle" x="541" y="-145" font-family="Helvetica,sans-Serif" font-size="10.00">filename</text>
</g>
<!-- Node7&#45;&gt;Node4 -->
<g id="edge15" class="edge">
<title>Node7&#45;&gt;Node4</title>
<path fill="none" stroke="#9a32cd" stroke-dasharray="5,2" d="M646.81,-194.16C646.69,-176.52 644.17,-150.07 632,-131 615.15,-104.6 545.02,-62.76 516,-51 458.57,-27.74 385.57,-20.63 345.56,-18.45"/>
<polygon fill="#9a32cd" stroke="#9a32cd" points="643.31,-194.26 646.62,-204.32 650.31,-194.39 643.31,-194.26"/>
<text text-anchor="middle" x="649.5" y="-99.5" font-family="Helvetica,sans-Serif" font-size="10.00"> device_name</text>
<text text-anchor="middle" x="649.5" y="-88.5" font-family="Helvetica,sans-Serif" font-size="10.00">name</text>
</g>
<!-- Node7&#45;&gt;Node5 -->
<g id="edge12" class="edge">
<title>Node7&#45;&gt;Node5</title>
<path fill="none" stroke="#9a32cd" stroke-dasharray="5,2" d="M617.72,-199.78C611.63,-195.97 605.65,-191.37 601,-186 583.66,-165.96 598.26,-148.07 578,-131 561.99,-117.51 508.37,-107.74 470.78,-102.34"/>
<polygon fill="#9a32cd" stroke="#9a32cd" points="616.12,-202.9 626.55,-204.78 619.57,-196.81 616.12,-202.9"/>
<text text-anchor="middle" x="616.5" y="-156" font-family="Helvetica,sans-Serif" font-size="10.00"> name</text>
</g>
<!-- Node7&#45;&gt;Node14 -->
<g id="edge25" class="edge">
<title>Node7&#45;&gt;Node14</title>
<path fill="none" stroke="#9a32cd" stroke-dasharray="5,2" d="M669.14,-198.53C673.82,-194.85 678.4,-190.62 682,-186 698.28,-165.1 683.85,-146.96 705,-131 731.97,-110.64 822.74,-118.99 856,-113 866.46,-111.12 877.77,-108.56 887.93,-106.06"/>
<polygon fill="#9a32cd" stroke="#9a32cd" points="666.9,-195.83 660.81,-204.5 670.98,-201.52 666.9,-195.83"/>
<text text-anchor="middle" x="720.5" y="-156" font-family="Helvetica,sans-Serif" font-size="10.00"> name</text>
</g>
<!-- Node8 -->
<g id="node8" class="node">
<title>Node8</title>
<g id="a_node8"><a xlink:title=" ">
<polygon fill="none" stroke="#bfbfbf" points="1108.5,-204.5 1108.5,-223.5 1137.5,-223.5 1137.5,-204.5 1108.5,-204.5"/>
<text text-anchor="middle" x="1123" y="-211.5" font-family="Helvetica,sans-Serif" font-size="10.00">int</text>
</a>
</g>
</g>
<!-- Node8&#45;&gt;Node1 -->
<g id="edge31" class="edge">
<title>Node8&#45;&gt;Node1</title>
<path fill="none" stroke="#9a32cd" stroke-dasharray="5,2" d="M1147.41,-206.84C1158.13,-202.79 1169.7,-196.28 1176,-186 1188.77,-165.16 1187.23,-152.71 1176,-131 1147.73,-76.34 1120.44,-73.08 1063,-51 1016.7,-33.21 869.33,-22.74 807.61,-19.03"/>
<polygon fill="#9a32cd" stroke="#9a32cd" points="1146.02,-203.61 1137.58,-210.01 1148.17,-210.27 1146.02,-203.61"/>
<text text-anchor="middle" x="1178" y="-94" font-family="Helvetica,sans-Serif" font-size="10.00"> joliet</text>
</g>
<!-- Node8&#45;&gt;Node5 -->
<g id="edge13" class="edge">
<title>Node8&#45;&gt;Node5</title>
<path fill="none" stroke="#9a32cd" stroke-dasharray="5,2" d="M1098.7,-205.32C1086.89,-200.85 1072.93,-194.42 1062,-186 1037.2,-166.9 1045.95,-145.09 1018,-131 970.94,-107.27 596.5,-117.62 544,-113 519.46,-110.84 492.06,-107.07 470.51,-103.79"/>
<polygon fill="#9a32cd" stroke="#9a32cd" points="1097.8,-208.71 1108.39,-208.74 1100.13,-202.11 1097.8,-208.71"/>
<text text-anchor="middle" x="1079.5" y="-156" font-family="Helvetica,sans-Serif" font-size="10.00"> mount</text>
</g>
<!-- Node8&#45;&gt;Node14 -->
<g id="edge28" class="edge">
<title>Node8&#45;&gt;Node14</title>
<path fill="none" stroke="#9a32cd" stroke-dasharray="5,2" d="M1123.37,-194.3C1122.66,-175.53 1118.48,-147.14 1101,-131 1096.14,-126.51 1021.92,-113.83 970.05,-105.42"/>
<polygon fill="#9a32cd" stroke="#9a32cd" points="1119.87,-194.34 1123.45,-204.32 1126.87,-194.29 1119.87,-194.34"/>
<text text-anchor="middle" x="1148" y="-161.5" font-family="Helvetica,sans-Serif" font-size="10.00"> blockread</text>
<text text-anchor="middle" x="1148" y="-150.5" font-family="Helvetica,sans-Serif" font-size="10.00">blockwrite</text>
</g>
<!-- Node9 -->
<g id="node9" class="node">
<title>Node9</title>
<g id="a_node9"><a xlink:title=" ">
<polygon fill="none" stroke="#bfbfbf" points="428,-204.5 428,-223.5 466,-223.5 466,-204.5 428,-204.5"/>
<text text-anchor="middle" x="447" y="-211.5" font-family="Helvetica,sans-Serif" font-size="10.00">bool</text>
</a>
</g>
</g>
<!-- Node9&#45;&gt;Node5 -->
<g id="edge14" class="edge">
<title>Node9&#45;&gt;Node5</title>
<path fill="none" stroke="#9a32cd" stroke-dasharray="5,2" d="M436.43,-195.46C435.02,-192.4 433.79,-189.18 433,-186 425.89,-157.53 428.83,-122.28 430.78,-106.21"/>
<polygon fill="#9a32cd" stroke="#9a32cd" points="433.42,-197.25 441.23,-204.42 439.6,-193.95 433.42,-197.25"/>
<text text-anchor="middle" x="461" y="-178" font-family="Helvetica,sans-Serif" font-size="10.00"> readfile</text>
<text text-anchor="middle" x="461" y="-167" font-family="Helvetica,sans-Serif" font-size="10.00">rm</text>
<text text-anchor="middle" x="461" y="-156" font-family="Helvetica,sans-Serif" font-size="10.00">rmdir</text>
<text text-anchor="middle" x="461" y="-145" font-family="Helvetica,sans-Serif" font-size="10.00">truncatefile</text>
<text text-anchor="middle" x="461" y="-134" font-family="Helvetica,sans-Serif" font-size="10.00">writefile</text>
</g>
<!-- Node10 -->
<g id="node10" class="node">
<title>Node10</title>
<g id="a_node10"><a xlink:title=" ">
<polygon fill="none" stroke="#bfbfbf" points="0,-204.5 0,-223.5 50,-223.5 50,-204.5 0,-204.5"/>
<text text-anchor="middle" x="25" y="-211.5" font-family="Helvetica,sans-Serif" font-size="10.00">uint8_t</text>
</a>
</g>
</g>
<!-- Node10&#45;&gt;Node2 -->
<g id="edge21" class="edge">
<title>Node10&#45;&gt;Node2</title>
<path fill="none" stroke="#9a32cd" stroke-dasharray="5,2" d="M30.75,-194.69C37.76,-175.56 51.54,-146.27 74,-131 114.96,-103.14 135.16,-121.3 184,-113 197,-110.79 211.07,-108.34 224.06,-106.05"/>
<polygon fill="#9a32cd" stroke="#9a32cd" points="27.37,-193.75 27.47,-204.35 34,-196.01 27.37,-193.75"/>
<text text-anchor="middle" x="90" y="-178" font-family="Helvetica,sans-Serif" font-size="10.00"> day</text>
<text text-anchor="middle" x="90" y="-167" font-family="Helvetica,sans-Serif" font-size="10.00">hour</text>
<text text-anchor="middle" x="90" y="-156" font-family="Helvetica,sans-Serif" font-size="10.00">min</text>
<text text-anchor="middle" x="90" y="-145" font-family="Helvetica,sans-Serif" font-size="10.00">month</text>
<text text-anchor="middle" x="90" y="-134" font-family="Helvetica,sans-Serif" font-size="10.00">sec</text>
</g>
<!-- Node10&#45;&gt;Node4 -->
<g id="edge16" class="edge">
<title>Node10&#45;&gt;Node4</title>
<path fill="none" stroke="#9a32cd" stroke-dasharray="5,2" d="M21.64,-194.34C19.48,-176.63 18.98,-149.99 31,-131 86.96,-42.56 224.93,-23.02 286.04,-18.71"/>
<polygon fill="#9a32cd" stroke="#9a32cd" points="18.19,-194.92 23.14,-204.28 25.11,-193.87 18.19,-194.92"/>
<text text-anchor="middle" x="91" y="-94" font-family="Helvetica,sans-Serif" font-size="10.00"> dirty</text>
</g>
<!-- Node11 -->
<g id="node11" class="node">
<title>Node11</title>
<g id="a_node11"><a xlink:title=" ">
<polygon fill="none" stroke="#bfbfbf" points="961,-204.5 961,-223.5 1007,-223.5 1007,-204.5 961,-204.5"/>
<text text-anchor="middle" x="984" y="-211.5" font-family="Helvetica,sans-Serif" font-size="10.00">void *</text>
</a>
</g>
</g>
<!-- Node11&#45;&gt;Node4 -->
<g id="edge17" class="edge">
<title>Node11&#45;&gt;Node4</title>
<path fill="none" stroke="#9a32cd" stroke-dasharray="5,2" d="M1008.32,-198.02C1012.18,-194.56 1015.66,-190.53 1018,-186 1039.65,-144.12 1051.3,-116.94 1022,-80 986.83,-35.66 954.02,-59.1 898,-51 687.9,-20.62 431.38,-17.53 345.55,-17.41"/>
<polygon fill="#9a32cd" stroke="#9a32cd" points="1005.91,-195.46 1000.14,-204.34 1010.19,-201 1005.91,-195.46"/>
<text text-anchor="middle" x="1058" y="-94" font-family="Helvetica,sans-Serif" font-size="10.00"> opaque</text>
</g>
<!-- Node11&#45;&gt;Node14 -->
<g id="edge29" class="edge">
<title>Node11&#45;&gt;Node14</title>
<path fill="none" stroke="#9a32cd" stroke-dasharray="5,2" d="M974.31,-195.51C960.43,-170.46 935.39,-125.27 924.87,-106.28"/>
<polygon fill="#9a32cd" stroke="#9a32cd" points="971.28,-197.27 979.19,-204.32 977.4,-193.88 971.28,-197.27"/>
<text text-anchor="middle" x="991" y="-156" font-family="Helvetica,sans-Serif" font-size="10.00"> opaque2</text>
</g>
<!-- Node12 -->
<g id="node12" class="node">
<title>Node12</title>
<g id="a_node12"><a xlink:title=" ">
<polygon fill="none" stroke="#bfbfbf" points="76,-204.5 76,-223.5 132,-223.5 132,-204.5 76,-204.5"/>
<text text-anchor="middle" x="104" y="-211.5" font-family="Helvetica,sans-Serif" font-size="10.00">uint16_t</text>
</a>
</g>
</g>
<!-- Node12&#45;&gt;Node2 -->
<g id="edge18" class="edge">
<title>Node12&#45;&gt;Node2</title>
<path fill="none" stroke="#9a32cd" stroke-dasharray="5,2" d="M107.02,-194.34C111.05,-175.59 120,-147.23 139,-131 151.13,-120.64 187,-111.94 218.44,-106.01"/>
<polygon fill="#9a32cd" stroke="#9a32cd" points="103.55,-193.86 105.15,-204.33 110.43,-195.15 103.55,-193.86"/>
<text text-anchor="middle" x="151.5" y="-156" font-family="Helvetica,sans-Serif" font-size="10.00"> year</text>
</g>
<!-- Node13 -->
<g id="node13" class="node">
<title>Node13</title>
<g id="a_node13"><a xlink:title=" ">
<polygon fill="none" stroke="#bfbfbf" points="781,-204.5 781,-223.5 837,-223.5 837,-204.5 781,-204.5"/>
<text text-anchor="middle" x="809" y="-211.5" font-family="Helvetica,sans-Serif" font-size="10.00">uint32_t</text>
</a>
</g>
</g>
<!-- Node13&#45;&gt;Node1 -->
<g id="edge30" class="edge">
<title>Node13&#45;&gt;Node1</title>
<path fill="none" stroke="#9a32cd" stroke-dasharray="5,2" d="M806.62,-194.19C804.31,-177.46 800.36,-152.4 795,-131 792.95,-122.82 790.74,-121.25 789,-113 782.33,-81.39 780.6,-42.84 780.15,-26.03"/>
<polygon fill="#9a32cd" stroke="#9a32cd" points="803.18,-194.84 807.96,-204.29 810.12,-193.92 803.18,-194.84"/>
<text text-anchor="middle" x="825" y="-105" font-family="Helvetica,sans-Serif" font-size="10.00"> pathtable_lba</text>
<text text-anchor="middle" x="825" y="-94" font-family="Helvetica,sans-Serif" font-size="10.00">rootextent_lba</text>
<text text-anchor="middle" x="825" y="-83" font-family="Helvetica,sans-Serif" font-size="10.00">rootextent_len</text>
</g>
<!-- Node13&#45;&gt;Node2 -->
<g id="edge20" class="edge">
<title>Node13&#45;&gt;Node2</title>
<path fill="none" stroke="#9a32cd" stroke-dasharray="5,2" d="M776.35,-199.55C770.02,-195.86 763.85,-191.36 759,-186 741.22,-166.36 757.67,-146.24 736,-131 704.06,-108.53 423.88,-116.66 385,-113 366.07,-111.22 345.45,-108.6 327.07,-106.01"/>
<polygon fill="#9a32cd" stroke="#9a32cd" points="775.13,-202.87 785.61,-204.4 778.38,-196.66 775.13,-202.87"/>
<text text-anchor="middle" x="777" y="-161.5" font-family="Helvetica,sans-Serif" font-size="10.00"> device</text>
<text text-anchor="middle" x="777" y="-150.5" font-family="Helvetica,sans-Serif" font-size="10.00">flags</text>
</g>
<!-- Node13&#45;&gt;Node14 -->
<g id="edge27" class="edge">
<title>Node13&#45;&gt;Node14</title>
<path fill="none" stroke="#9a32cd" stroke-dasharray="5,2" d="M821.67,-196.47C835.11,-179.34 857.36,-152.18 879,-131 888.33,-121.87 899.92,-112.56 908.4,-106.08"/>
<polygon fill="#9a32cd" stroke="#9a32cd" points="818.86,-194.37 815.49,-204.42 824.39,-198.67 818.86,-194.37"/>
<text text-anchor="middle" x="906.5" y="-156" font-family="Helvetica,sans-Serif" font-size="10.00"> block_size</text>
</g>
<!-- Node14&#45;&gt;Node1 -->
<g id="edge23" class="edge">
<title>Node14&#45;&gt;Node1</title>
<path fill="none" stroke="#9a32cd" stroke-dasharray="5,2" d="M895.47,-81.83C866.68,-65.8 819.81,-39.68 795.59,-26.18"/>
<polygon fill="#9a32cd" stroke="#9a32cd" points="894.04,-85.05 904.48,-86.85 897.45,-78.93 894.04,-85.05"/>
<text text-anchor="middle" x="876" y="-54" font-family="Helvetica,sans-Serif" font-size="10.00"> device</text>
</g>
<!-- Node14&#45;&gt;Node14 -->
<g id="edge26" class="edge">
<title>Node14&#45;&gt;Node14</title>
<path fill="none" stroke="#9a32cd" stroke-dasharray="5,2" d="M980.35,-102.18C985.08,-100.93 988,-99.04 988,-96.5 988,-92.44 980.52,-90.03 970.11,-89.26"/>
<polygon fill="#9a32cd" stroke="#9a32cd" points="979.48,-98.78 970.11,-103.74 980.53,-105.7 979.48,-98.78"/>
<text text-anchor="middle" x="1000.5" y="-94" font-family="Helvetica,sans-Serif" font-size="10.00"> next</text>
</g>
</g>
</svg>
        <g id="navigator" transform="translate(0 0)" fill="#404254">
                <rect fill="#f2f5e9" fill-opacity="0.5" stroke="#606060" stroke-width=".5" x="0" y="0" width="60" height="60"/>
                <use id="zoomplus" xlink:href="#zoomPlus" x="17" y="9" onmousedown="handleZoom(evt,'in')"/>
                <use id="zoomminus" xlink:href="#zoomMin" x="42" y="9" onmousedown="handleZoom(evt,'out')"/>
                <use id="reset" xlink:href="#resetDef" x="30" y="36" onmousedown="handleReset()"/>
                <g id="arrowUp" xlink:href="#dirArrow" transform="translate(30 24)" onmousedown="handlePan(0,-1)">
                  <use xlink:href="#rim" fill="#404040">
                        <set attributeName="fill" to="#808080" begin="arrowUp.mouseover" end="arrowUp.mouseout"/>
                  </use>
                  <path fill="none" stroke="white" stroke-width="1.5" d="M0,-3.0v7 M-2.5,-0.5L0,-3.0L2.5,-0.5"/>
                </g>
                <g id="arrowRight" xlink:href="#dirArrow" transform="rotate(90) translate(36 -43)" onmousedown="handlePan(1,0)">
                  <use xlink:href="#rim" fill="#404040">
                        <set attributeName="fill" to="#808080" begin="arrowRight.mouseover" end="arrowRight.mouseout"/>
                  </use>
                  <path fill="none" stroke="white" stroke-width="1.5" d="M0,-3.0v7 M-2.5,-0.5L0,-3.0L2.5,-0.5"/>
                </g>
                <g id="arrowDown" xlink:href="#dirArrow" transform="rotate(180) translate(-30 -48)" onmousedown="handlePan(0,1)">
                  <use xlink:href="#rim" fill="#404040">
                        <set attributeName="fill" to="#808080" begin="arrowDown.mouseover" end="arrowDown.mouseout"/>
                  </use>
                  <path fill="none" stroke="white" stroke-width="1.5" d="M0,-3.0v7 M-2.5,-0.5L0,-3.0L2.5,-0.5"/>
                </g>
                <g id="arrowLeft" xlink:href="#dirArrow" transform="rotate(270) translate(-36 17)" onmousedown="handlePan(-1,0)">
                  <use xlink:href="#rim" fill="#404040">
                        <set attributeName="fill" to="#808080" begin="arrowLeft.mouseover" end="arrowLeft.mouseout"/>
                  </use>
                  <path fill="none" stroke="white" stroke-width="1.5" d="M0,-3.0v7 M-2.5,-0.5L0,-3.0L2.5,-0.5"/>
                </g>
        </g>
        <svg viewBox="0 0 15 15" width="100%" height="30px" preserveAspectRatio="xMaxYMin meet">
         <g id="arrow_out" transform="scale(0.3 0.3)">
          <a xlink:href="structiso9660__coll__graph_org.svg" target="_base">
           <rect id="button" ry="5" rx="5" y="6" x="6" height="38" width="38"
                fill="#f2f5e9" fill-opacity="0.5" stroke="#606060" stroke-width="1.0"/>
           <path id="arrow"
             d="M 11.500037,31.436501 C 11.940474,20.09759 22.043105,11.32322 32.158766,21.979434 L 37.068811,17.246167 C 37.068811,17.246167 37.088388,32 37.088388,32 L 22.160133,31.978069 C 22.160133,31.978069 26.997745,27.140456 26.997745,27.140456 C 18.528582,18.264221 13.291696,25.230495 11.500037,31.436501 z"
             style="fill:#404040;"/>
          </a>
         </g>
        </svg>
</svg>
