<?xml version="1.0" encoding="UTF-8" standalone="no"?>
<!DOCTYPE svg PUBLIC "-//W3C//DTD SVG 1.1//EN"
 "http://www.w3.org/Graphics/SVG/1.1/DTD/svg11.dtd">
<!-- Generated by graphviz version 2.43.0 (0)
 -->
<!-- Title: datetime Pages: 1 -->
<svg width="79pt" height="161pt"
 viewBox="0.00 0.00 78.50 161.00" xmlns="http://www.w3.org/2000/svg" xmlns:xlink="http://www.w3.org/1999/xlink">
<g id="graph0" class="graph" transform="scale(1 1) rotate(0) translate(4 157)">
<title>datetime</title>
<!-- Node1 -->
<g id="node1" class="node">
<title>Node1</title>
<g id="a_node1"><a xlink:title="A representation of date and time.">
<polygon fill="#bfbfbf" stroke="black" points="0,-0.5 0,-19.5 61,-19.5 61,-0.5 0,-0.5"/>
<text text-anchor="middle" x="30.5" y="-7.5" font-family="Helvetica,sans-Serif" font-size="10.00">datetime</text>
</a>
</g>
</g>
<!-- Node2 -->
<g id="node2" class="node">
<title>Node2</title>
<g id="a_node2"><a xlink:title=" ">
<polygon fill="none" stroke="#bfbfbf" points="5.5,-133.5 5.5,-152.5 55.5,-152.5 55.5,-133.5 5.5,-133.5"/>
<text text-anchor="middle" x="30.5" y="-140.5" font-family="Helvetica,sans-Serif" font-size="10.00">uint8_t</text>
</a>
</g>
</g>
<!-- Node2&#45;&gt;Node1 -->
<g id="edge1" class="edge">
<title>Node2&#45;&gt;Node1</title>
<path fill="none" stroke="#9a32cd" stroke-dasharray="5,2" d="M30.5,-123.09C30.5,-94.36 30.5,-40.82 30.5,-19.8"/>
<polygon fill="#9a32cd" stroke="#9a32cd" points="27,-123.4 30.5,-133.4 34,-123.4 27,-123.4"/>
<text text-anchor="middle" x="50.5" y="-107" font-family="Helvetica,sans-Serif" font-size="10.00"> century</text>
<text text-anchor="middle" x="50.5" y="-96" font-family="Helvetica,sans-Serif" font-size="10.00">day</text>
<text text-anchor="middle" x="50.5" y="-85" font-family="Helvetica,sans-Serif" font-size="10.00">hour</text>
<text text-anchor="middle" x="50.5" y="-74" font-family="Helvetica,sans-Serif" font-size="10.00">minute</text>
<text text-anchor="middle" x="50.5" y="-63" font-family="Helvetica,sans-Serif" font-size="10.00">month</text>
<text text-anchor="middle" x="50.5" y="-52" font-family="Helvetica,sans-Serif" font-size="10.00">second</text>
<text text-anchor="middle" x="50.5" y="-41" font-family="Helvetica,sans-Serif" font-size="10.00">year</text>
</g>
</g>
</svg>
