<?xml version="1.0" encoding="UTF-8" standalone="no"?>
<!DOCTYPE svg PUBLIC "-//W3C//DTD SVG 1.1//EN"
 "http://www.w3.org/Graphics/SVG/1.1/DTD/svg11.dtd">
<!-- Generated by graphviz version 2.43.0 (0)
 -->
<!-- Title: filesystem_t Pages: 1 -->
<svg width="331pt" height="106pt"
 viewBox="0.00 0.00 330.50 106.00" xmlns="http://www.w3.org/2000/svg" xmlns:xlink="http://www.w3.org/1999/xlink">
<g id="graph0" class="graph" transform="scale(1 1) rotate(0) translate(4 102)">
<title>filesystem_t</title>
<!-- Node1 -->
<g id="node1" class="node">
<title>Node1</title>
<g id="a_node1"><a xlink:title=" ">
<polygon fill="#bfbfbf" stroke="black" points="152,-0.5 152,-19.5 229,-19.5 229,-0.5 152,-0.5"/>
<text text-anchor="middle" x="190.5" y="-7.5" font-family="Helvetica,sans-Serif" font-size="10.00">filesystem_t</text>
</a>
</g>
</g>
<!-- Node1&#45;&gt;Node1 -->
<g id="edge2" class="edge">
<title>Node1&#45;&gt;Node1</title>
<path fill="none" stroke="#9a32cd" stroke-dasharray="5,2" d="M239.22,-15.79C243.98,-14.62 247,-12.69 247,-10 247,-5.7 239.27,-3.34 229.06,-2.94"/>
<polygon fill="#9a32cd" stroke="#9a32cd" points="238.54,-12.34 229.06,-17.06 239.41,-19.29 238.54,-12.34"/>
<text text-anchor="middle" x="259.5" y="-7.5" font-family="Helvetica,sans-Serif" font-size="10.00"> next</text>
</g>
<!-- Node2 -->
<g id="node2" class="node">
<title>Node2</title>
<g id="a_node2"><a xlink:title=" ">
<polygon fill="none" stroke="#bfbfbf" points="0,-78.5 0,-97.5 95,-97.5 95,-78.5 0,-78.5"/>
<text text-anchor="middle" x="47.5" y="-85.5" font-family="Helvetica,sans-Serif" font-size="10.00">void *(*)(void *)</text>
</a>
</g>
</g>
<!-- Node2&#45;&gt;Node1 -->
<g id="edge1" class="edge">
<title>Node2&#45;&gt;Node1</title>
<path fill="none" stroke="#9a32cd" stroke-dasharray="5,2" d="M69.92,-72.85C86.41,-62.67 109.51,-48.88 130.5,-38 143.38,-31.33 158.25,-24.63 169.96,-19.57"/>
<polygon fill="#9a32cd" stroke="#9a32cd" points="67.68,-70.12 61.04,-78.38 71.38,-76.06 67.68,-70.12"/>
<text text-anchor="middle" x="146.5" y="-46.5" font-family="Helvetica,sans-Serif" font-size="10.00"> getdir</text>
</g>
<!-- Node3 -->
<g id="node3" class="node">
<title>Node3</title>
<g id="a_node3"><a xlink:title=" ">
<polygon fill="none" stroke="#bfbfbf" points="113,-78.5 113,-97.5 192,-97.5 192,-78.5 113,-78.5"/>
<text text-anchor="middle" x="152.5" y="-85.5" font-family="Helvetica,sans-Serif" font-size="10.00">int(*)(void *)</text>
</a>
</g>
</g>
<!-- Node3&#45;&gt;Node1 -->
<g id="edge3" class="edge">
<title>Node3&#45;&gt;Node1</title>
<path fill="none" stroke="#9a32cd" stroke-dasharray="5,2" d="M161.44,-69.12C169.24,-53.53 180.21,-31.59 186.19,-19.62"/>
<polygon fill="#9a32cd" stroke="#9a32cd" points="158.2,-67.77 156.86,-78.28 164.46,-70.9 158.2,-67.77"/>
<text text-anchor="middle" x="184" y="-46.5" font-family="Helvetica,sans-Serif" font-size="10.00"> rm</text>
</g>
<!-- Node4 -->
<g id="node4" class="node">
<title>Node4</title>
<g id="a_node4"><a xlink:title=" ">
<polygon fill="none" stroke="#bfbfbf" points="210.5,-78.5 210.5,-97.5 248.5,-97.5 248.5,-78.5 210.5,-78.5"/>
<text text-anchor="middle" x="229.5" y="-85.5" font-family="Helvetica,sans-Serif" font-size="10.00">char</text>
</a>
</g>
</g>
<!-- Node4&#45;&gt;Node1 -->
<g id="edge4" class="edge">
<title>Node4&#45;&gt;Node1</title>
<path fill="none" stroke="#9a32cd" stroke-dasharray="5,2" d="M220.33,-69.12C212.32,-53.53 201.06,-31.59 194.92,-19.62"/>
<polygon fill="#9a32cd" stroke="#9a32cd" points="217.35,-70.98 225.03,-78.28 223.57,-67.79 217.35,-70.98"/>
<text text-anchor="middle" x="232" y="-52" font-family="Helvetica,sans-Serif" font-size="10.00"> mount</text>
<text text-anchor="middle" x="232" y="-41" font-family="Helvetica,sans-Serif" font-size="10.00">name</text>
</g>
<!-- Node5 -->
<g id="node5" class="node">
<title>Node5</title>
<g id="a_node5"><a xlink:title=" ">
<polygon fill="none" stroke="#bfbfbf" points="266.5,-78.5 266.5,-97.5 322.5,-97.5 322.5,-78.5 266.5,-78.5"/>
<text text-anchor="middle" x="294.5" y="-85.5" font-family="Helvetica,sans-Serif" font-size="10.00">uint32_t</text>
</a>
</g>
</g>
<!-- Node5&#45;&gt;Node1 -->
<g id="edge5" class="edge">
<title>Node5&#45;&gt;Node1</title>
<path fill="none" stroke="#9a32cd" stroke-dasharray="5,2" d="M283.4,-70.04C275.95,-59.69 265.34,-46.81 253.5,-38 242.9,-30.12 229.65,-23.99 218.04,-19.59"/>
<polygon fill="#9a32cd" stroke="#9a32cd" points="280.55,-72.06 289.1,-78.31 286.31,-68.09 280.55,-72.06"/>
<text text-anchor="middle" x="295.5" y="-52" font-family="Helvetica,sans-Serif" font-size="10.00"> readfile</text>
<text text-anchor="middle" x="295.5" y="-41" font-family="Helvetica,sans-Serif" font-size="10.00">writefile</text>
</g>
</g>
</svg>
