<?xml version="1.0" encoding="UTF-8" standalone="no"?>
<!DOCTYPE svg PUBLIC "-//W3C//DTD SVG 1.1//EN"
 "http://www.w3.org/Graphics/SVG/1.1/DTD/svg11.dtd">
<!-- Generated by graphviz version 2.43.0 (0)
 -->
<!-- Title: ubasic_double_fn Pages: 1 -->
<!--zoomable 1031 -->
<svg id="main" version="1.1" xmlns="http://www.w3.org/2000/svg" xmlns:xlink="http://www.w3.org/1999/xlink" xml:space="preserve" onload="init(evt)">
<style type="text/css"><![CDATA[
.edge:hover path { stroke: red; }
.edge:hover polygon { stroke: red; fill: red; }
]]></style>
<script type="text/javascript"><![CDATA[
var edges = document.getElementsByTagName('g');
if (edges && edges.length) {
  for (var i=0;i<edges.length;i++) {
    if (edges[i].id.substr(0,4)=='edge') {
      edges[i].setAttribute('class','edge');
    }
  }
}
]]></script>
        <defs>
                <circle id="rim" cx="0" cy="0" r="7"/>
                <circle id="rim2" cx="0" cy="0" r="3.5"/>
                <g id="zoomPlus">
                        <use xlink:href="#rim" fill="#404040">
                                <set attributeName="fill" to="#808080" begin="zoomplus.mouseover" end="zoomplus.mouseout"/>
                        </use>
                        <path d="M-4,0h8M0,-4v8" fill="none" stroke="white" stroke-width="1.5" pointer-events="none"/>
                </g>
                <g id="zoomMin">
                        <use xlink:href="#rim" fill="#404040">
                                <set attributeName="fill" to="#808080" begin="zoomminus.mouseover" end="zoomminus.mouseout"/>
                        </use>
                        <path d="M-4,0h8" fill="none" stroke="white" stroke-width="1.5" pointer-events="none"/>
                </g>
                <g id="dirArrow">
                        <path fill="none" stroke="white" stroke-width="1.5" d="M0,-3.0v7 M-2.5,-0.5L0,-3.0L2.5,-0.5"/>
                </g>
               <g id="resetDef">
                       <use xlink:href="#rim2" fill="#404040">
                               <set attributeName="fill" to="#808080" begin="reset.mouseover" end="reset.mouseout"/>
                       </use>
               </g>
        </defs>

<script type="text/javascript">
var viewWidth = 902;
var viewHeight = 1031;
var sectionId = 'dynsection-0';
</script>
<script xlink:href="svgpan.js"/>
<svg id="graph" class="graph">
<g id="viewport">
<title>ubasic_double_fn</title>
<!-- Node1 -->
<g id="node1" class="node">
<title>Node1</title>
<g id="a_node1"><a xlink:title=" ">
<polygon fill="#bfbfbf" stroke="black" points="793,-625.61 793,-644.61 894,-644.61 894,-625.61 793,-625.61"/>
<text text-anchor="middle" x="843.5" y="-632.61" font-family="Helvetica,sans-Serif" font-size="10.00">ubasic_double_fn</text>
</a>
</g>
</g>
<!-- Node2 -->
<g id="node2" class="node">
<title>Node2</title>
<g id="a_node2"><a xlink:href="structubasic__ctx.html" target="_top" xlink:title=" ">
<polygon fill="none" stroke="black" points="649,-452.61 649,-471.61 717,-471.61 717,-452.61 649,-452.61"/>
<text text-anchor="middle" x="683" y="-459.61" font-family="Helvetica,sans-Serif" font-size="10.00">ubasic_ctx</text>
</a>
</g>
</g>
<!-- Node2&#45;&gt;Node1 -->
<g id="edge1" class="edge">
<title>Node2&#45;&gt;Node1</title>
<path fill="none" stroke="#9a32cd" stroke-dasharray="5,2" d="M699.81,-479.37C732.74,-515.31 807.77,-597.21 833.58,-625.38"/>
<polygon fill="#9a32cd" stroke="#9a32cd" points="702.08,-476.67 692.75,-471.66 696.92,-481.4 702.08,-476.67"/>
<text text-anchor="middle" x="755" y="-561.11" font-family="Helvetica,sans-Serif" font-size="10.00"> handler</text>
</g>
<!-- Node3 -->
<g id="node3" class="node">
<title>Node3</title>
<g id="a_node3"><a xlink:href="structub__var__string__array.html" target="_top" xlink:title=" ">
<polygon fill="none" stroke="black" points="384,-676.61 384,-695.61 497,-695.61 497,-676.61 384,-676.61"/>
<text text-anchor="middle" x="440.5" y="-683.61" font-family="Helvetica,sans-Serif" font-size="10.00">ub_var_string_array</text>
</a>
</g>
</g>
<!-- Node3&#45;&gt;Node2 -->
<g id="edge2" class="edge">
<title>Node3&#45;&gt;Node2</title>
<path fill="none" stroke="#9a32cd" stroke-dasharray="5,2" d="M507.25,-694.2C547.65,-695.41 597.85,-689.63 631,-660.11 660.03,-634.26 676.71,-507.74 680.93,-471.71"/>
<polygon fill="#9a32cd" stroke="#9a32cd" points="507.35,-690.7 497.2,-693.75 507.04,-697.69 507.35,-690.7"/>
<text text-anchor="middle" x="575" y="-697.11" font-family="Helvetica,sans-Serif" font-size="10.00"> string_array_variables</text>
</g>
<!-- Node4 -->
<g id="node4" class="node">
<title>Node4</title>
<g id="a_node4"><a xlink:title=" ">
<polygon fill="none" stroke="#bfbfbf" points="182.5,-601.61 182.5,-620.61 238.5,-620.61 238.5,-601.61 182.5,-601.61"/>
<text text-anchor="middle" x="210.5" y="-608.61" font-family="Helvetica,sans-Serif" font-size="10.00">uint64_t</text>
</a>
</g>
</g>
<!-- Node4&#45;&gt;Node2 -->
<g id="edge14" class="edge">
<title>Node4&#45;&gt;Node2</title>
<path fill="none" stroke="#9a32cd" stroke-dasharray="5,2" d="M248.61,-607C304.1,-600.39 411.7,-585.8 501,-563.11 560.26,-548.06 579.95,-551.76 631,-518.11 650.11,-505.52 666.8,-484.18 675.53,-471.79"/>
<polygon fill="#9a32cd" stroke="#9a32cd" points="248.08,-603.54 238.55,-608.18 248.89,-610.49 248.08,-603.54"/>
<text text-anchor="middle" x="440.5" y="-612.11" font-family="Helvetica,sans-Serif" font-size="10.00"> for_stack_ptr</text>
<text text-anchor="middle" x="440.5" y="-601.11" font-family="Helvetica,sans-Serif" font-size="10.00">gosub_stack</text>
<text text-anchor="middle" x="440.5" y="-590.11" font-family="Helvetica,sans-Serif" font-size="10.00">gosub_stack_ptr</text>
</g>
<!-- Node4&#45;&gt;Node3 -->
<g id="edge3" class="edge">
<title>Node4&#45;&gt;Node3</title>
<path fill="none" stroke="#9a32cd" stroke-dasharray="5,2" d="M248.74,-607.24C281.51,-605.8 329,-608.69 362,-632.11 376.26,-642.24 366.65,-655.81 380,-667.11 384.55,-670.97 389.89,-674.04 395.48,-676.49"/>
<polygon fill="#9a32cd" stroke="#9a32cd" points="248.43,-603.75 238.66,-607.84 248.85,-610.74 248.43,-603.75"/>
<text text-anchor="middle" x="320.5" y="-635.11" font-family="Helvetica,sans-Serif" font-size="10.00"> itemcount</text>
</g>
<!-- Node18 -->
<g id="node18" class="node">
<title>Node18</title>
<g id="a_node18"><a xlink:href="structub__var__int__array.html" target="_top" xlink:title=" ">
<polygon fill="none" stroke="black" points="391.5,-473.61 391.5,-492.61 489.5,-492.61 489.5,-473.61 391.5,-473.61"/>
<text text-anchor="middle" x="440.5" y="-480.61" font-family="Helvetica,sans-Serif" font-size="10.00">ub_var_int_array</text>
</a>
</g>
</g>
<!-- Node4&#45;&gt;Node18 -->
<g id="edge31" class="edge">
<title>Node4&#45;&gt;Node18</title>
<path fill="none" stroke="#9a32cd" stroke-dasharray="5,2" d="M248.06,-599.82C252.63,-597.63 257.07,-595.08 261,-592.11 271.64,-584.08 268.87,-576.78 279,-568.11 310.73,-540.98 328.07,-548.45 362,-524.11 370.94,-517.7 370.74,-513.05 380,-507.11 389.1,-501.28 399.84,-496.42 409.68,-492.64"/>
<polygon fill="#9a32cd" stroke="#9a32cd" points="246.46,-596.69 238.61,-603.81 249.18,-603.14 246.46,-596.69"/>
<text text-anchor="middle" x="320.5" y="-571.11" font-family="Helvetica,sans-Serif" font-size="10.00"> itemcount</text>
</g>
<!-- Node5 -->
<g id="node5" class="node">
<title>Node5</title>
<g id="a_node5"><a xlink:title=" ">
<polygon fill="none" stroke="#bfbfbf" points="9,-514.61 9,-533.61 47,-533.61 47,-514.61 9,-514.61"/>
<text text-anchor="middle" x="28" y="-521.61" font-family="Helvetica,sans-Serif" font-size="10.00">char</text>
</a>
</g>
</g>
<!-- Node5&#45;&gt;Node1 -->
<g id="edge51" class="edge">
<title>Node5&#45;&gt;Node1</title>
<path fill="none" stroke="#9a32cd" stroke-dasharray="5,2" d="M28.15,-543.81C27.61,-581.3 31.71,-663.61 74,-713.11 95.23,-737.96 114.01,-724.23 142,-741.11 150.92,-746.49 150.25,-752.46 160,-756.11 356.2,-829.68 432.06,-800.93 631,-735.11 706.77,-710.04 790.83,-664.54 825.81,-644.75"/>
<polygon fill="#9a32cd" stroke="#9a32cd" points="31.65,-543.79 28.43,-533.7 24.66,-543.59 31.65,-543.79"/>
<text text-anchor="middle" x="440.5" y="-801.11" font-family="Helvetica,sans-Serif" font-size="10.00"> name</text>
</g>
<!-- Node5&#45;&gt;Node2 -->
<g id="edge15" class="edge">
<title>Node5&#45;&gt;Node2</title>
<path fill="none" stroke="#9a32cd" stroke-dasharray="5,2" d="M31.42,-504.53C35.64,-478.01 46.7,-430.61 74,-401.11 96.56,-376.74 118.98,-394.06 142,-370.11 156.64,-354.88 144.21,-340.15 160,-326.11 201.03,-289.66 224.62,-300.51 279,-293.11 438.37,-271.43 504.59,-277.67 631,-377.11 656.83,-397.44 672.51,-434.75 678.8,-452.39"/>
<polygon fill="#9a32cd" stroke="#9a32cd" points="27.94,-504.11 30,-514.5 34.87,-505.1 27.94,-504.11"/>
<text text-anchor="middle" x="320.5" y="-340.11" font-family="Helvetica,sans-Serif" font-size="10.00"> item_begin</text>
<text text-anchor="middle" x="320.5" y="-329.11" font-family="Helvetica,sans-Serif" font-size="10.00">nextptr</text>
<text text-anchor="middle" x="320.5" y="-318.11" font-family="Helvetica,sans-Serif" font-size="10.00">program_ptr</text>
<text text-anchor="middle" x="320.5" y="-307.11" font-family="Helvetica,sans-Serif" font-size="10.00">ptr</text>
<text text-anchor="middle" x="320.5" y="-296.11" font-family="Helvetica,sans-Serif" font-size="10.00">string</text>
</g>
<!-- Node5&#45;&gt;Node3 -->
<g id="edge4" class="edge">
<title>Node5&#45;&gt;Node3</title>
<path fill="none" stroke="#9a32cd" stroke-dasharray="5,2" d="M30.38,-543.95C33.41,-571.03 43.08,-618.96 74,-643.11 97.92,-661.8 287.66,-676.43 383.91,-682.74"/>
<polygon fill="#9a32cd" stroke="#9a32cd" points="33.84,-543.39 29.44,-533.75 26.87,-544.03 33.84,-543.39"/>
<text text-anchor="middle" x="210.5" y="-675.11" font-family="Helvetica,sans-Serif" font-size="10.00"> varname</text>
</g>
<!-- Node6 -->
<g id="node6" class="node">
<title>Node6</title>
<g id="a_node6"><a xlink:href="structub__var__string.html" target="_top" xlink:title=" ">
<polygon fill="none" stroke="black" points="169,-698.61 169,-717.61 252,-717.61 252,-698.61 169,-698.61"/>
<text text-anchor="middle" x="210.5" y="-705.61" font-family="Helvetica,sans-Serif" font-size="10.00">ub_var_string</text>
</a>
</g>
</g>
<!-- Node5&#45;&gt;Node6 -->
<g id="edge6" class="edge">
<title>Node5&#45;&gt;Node6</title>
<path fill="none" stroke="#9a32cd" stroke-dasharray="5,2" d="M29.54,-544.08C31.47,-575 39.74,-634.39 74,-668.11 77.68,-671.74 135.22,-687.92 174.12,-698.56"/>
<polygon fill="#9a32cd" stroke="#9a32cd" points="33.02,-543.57 29.07,-533.74 26.03,-543.89 33.02,-543.57"/>
<text text-anchor="middle" x="108" y="-702.11" font-family="Helvetica,sans-Serif" font-size="10.00"> value</text>
<text text-anchor="middle" x="108" y="-691.11" font-family="Helvetica,sans-Serif" font-size="10.00">varname</text>
</g>
<!-- Node8 -->
<g id="node8" class="node">
<title>Node8</title>
<g id="a_node8"><a xlink:href="structub__var__int.html" target="_top" xlink:title=" ">
<polygon fill="none" stroke="black" points="176.5,-534.61 176.5,-553.61 244.5,-553.61 244.5,-534.61 176.5,-534.61"/>
<text text-anchor="middle" x="210.5" y="-541.61" font-family="Helvetica,sans-Serif" font-size="10.00">ub_var_int</text>
</a>
</g>
</g>
<!-- Node5&#45;&gt;Node8 -->
<g id="edge11" class="edge">
<title>Node5&#45;&gt;Node8</title>
<path fill="none" stroke="#9a32cd" stroke-dasharray="5,2" d="M57.39,-527.26C89.6,-530.83 142.07,-536.64 176.19,-540.42"/>
<polygon fill="#9a32cd" stroke="#9a32cd" points="57.63,-523.76 47.3,-526.14 56.85,-530.72 57.63,-523.76"/>
<text text-anchor="middle" x="108" y="-539.11" font-family="Helvetica,sans-Serif" font-size="10.00"> varname</text>
</g>
<!-- Node10 -->
<g id="node10" class="node">
<title>Node10</title>
<g id="a_node10"><a xlink:href="structconsole.html" target="_top" xlink:title=" ">
<polygon fill="none" stroke="black" points="183.5,-914.61 183.5,-933.61 237.5,-933.61 237.5,-914.61 183.5,-914.61"/>
<text text-anchor="middle" x="210.5" y="-921.61" font-family="Helvetica,sans-Serif" font-size="10.00">console</text>
</a>
</g>
</g>
<!-- Node5&#45;&gt;Node10 -->
<g id="edge17" class="edge">
<title>Node5&#45;&gt;Node10</title>
<path fill="none" stroke="#9a32cd" stroke-dasharray="5,2" d="M31.03,-543.93C38.41,-615.35 63.95,-856.09 74,-869.11 74.45,-869.7 146.93,-898.93 185.68,-914.53"/>
<polygon fill="#9a32cd" stroke="#9a32cd" points="34.48,-543.23 29.97,-533.64 27.51,-543.95 34.48,-543.23"/>
<text text-anchor="middle" x="108" y="-921.11" font-family="Helvetica,sans-Serif" font-size="10.00"> buffer</text>
<text text-anchor="middle" x="108" y="-910.11" font-family="Helvetica,sans-Serif" font-size="10.00">dirty</text>
<text text-anchor="middle" x="108" y="-899.11" font-family="Helvetica,sans-Serif" font-size="10.00">internalbuffer</text>
</g>
<!-- Node14 -->
<g id="node14" class="node">
<title>Node14</title>
<g id="a_node14"><a xlink:href="structub__var__double.html" target="_top" xlink:title=" ">
<polygon fill="none" stroke="black" points="166.5,-823.61 166.5,-842.61 254.5,-842.61 254.5,-823.61 166.5,-823.61"/>
<text text-anchor="middle" x="210.5" y="-830.61" font-family="Helvetica,sans-Serif" font-size="10.00">ub_var_double</text>
</a>
</g>
</g>
<!-- Node5&#45;&gt;Node14 -->
<g id="edge24" class="edge">
<title>Node5&#45;&gt;Node14</title>
<path fill="none" stroke="#9a32cd" stroke-dasharray="5,2" d="M30.63,-544C34.92,-591.48 48.01,-709.6 74,-738.11 95.31,-761.49 117.51,-739.09 142,-759.11 154.93,-769.69 149.38,-779.22 160,-792.11 170.22,-804.51 184.6,-815.94 195.23,-823.56"/>
<polygon fill="#9a32cd" stroke="#9a32cd" points="34.1,-543.45 29.75,-533.79 27.13,-544.05 34.1,-543.45"/>
<text text-anchor="middle" x="108" y="-762.11" font-family="Helvetica,sans-Serif" font-size="10.00"> varname</text>
</g>
<!-- Node5&#45;&gt;Node18 -->
<g id="edge32" class="edge">
<title>Node5&#45;&gt;Node18</title>
<path fill="none" stroke="#9a32cd" stroke-dasharray="5,2" d="M57.27,-519.2C103.48,-511.38 198.17,-496.26 279,-489.11 316.64,-485.78 359.4,-484.3 391.31,-483.64"/>
<polygon fill="#9a32cd" stroke="#9a32cd" points="56.39,-515.8 47.12,-520.93 57.57,-522.7 56.39,-515.8"/>
<text text-anchor="middle" x="210.5" y="-505.11" font-family="Helvetica,sans-Serif" font-size="10.00"> varname</text>
</g>
<!-- Node19 -->
<g id="node19" class="node">
<title>Node19</title>
<g id="a_node19"><a xlink:href="structub__proc__fn__def.html" target="_top" xlink:title=" ">
<polygon fill="none" stroke="black" points="395,-359.61 395,-378.61 486,-378.61 486,-359.61 395,-359.61"/>
<text text-anchor="middle" x="440.5" y="-366.61" font-family="Helvetica,sans-Serif" font-size="10.00">ub_proc_fn_def</text>
</a>
</g>
</g>
<!-- Node5&#45;&gt;Node19 -->
<g id="edge35" class="edge">
<title>Node5&#45;&gt;Node19</title>
<path fill="none" stroke="#9a32cd" stroke-dasharray="5,2" d="M36.07,-504.81C43.34,-487.18 56.11,-461.31 74,-444.11 104.95,-414.36 118.88,-412.46 160,-400.11 181.92,-393.53 321.67,-379.96 394.88,-373.17"/>
<polygon fill="#9a32cd" stroke="#9a32cd" points="32.64,-503.98 32.27,-514.57 39.16,-506.53 32.64,-503.98"/>
<text text-anchor="middle" x="210.5" y="-403.11" font-family="Helvetica,sans-Serif" font-size="10.00"> name</text>
</g>
<!-- Node21 -->
<g id="node21" class="node">
<title>Node21</title>
<g id="a_node21"><a xlink:href="structub__param.html" target="_top" xlink:title=" ">
<polygon fill="none" stroke="black" points="178,-420.61 178,-439.61 243,-439.61 243,-420.61 178,-420.61"/>
<text text-anchor="middle" x="210.5" y="-427.61" font-family="Helvetica,sans-Serif" font-size="10.00">ub_param</text>
</a>
</g>
</g>
<!-- Node5&#45;&gt;Node21 -->
<g id="edge39" class="edge">
<title>Node5&#45;&gt;Node21</title>
<path fill="none" stroke="#9a32cd" stroke-dasharray="5,2" d="M43.41,-506.86C51.63,-497.91 62.55,-487.36 74,-480.11 106.74,-459.41 149.32,-445.48 177.93,-437.7"/>
<polygon fill="#9a32cd" stroke="#9a32cd" points="40.67,-504.68 36.69,-514.5 45.93,-509.31 40.67,-504.68"/>
<text text-anchor="middle" x="108" y="-483.11" font-family="Helvetica,sans-Serif" font-size="10.00"> name</text>
</g>
<!-- Node22 -->
<g id="node22" class="node">
<title>Node22</title>
<g id="a_node22"><a xlink:href="structub__line__ref.html" target="_top" xlink:title=" ">
<polygon fill="none" stroke="black" points="175,-51.61 175,-70.61 246,-70.61 246,-51.61 175,-51.61"/>
<text text-anchor="middle" x="210.5" y="-58.61" font-family="Helvetica,sans-Serif" font-size="10.00">ub_line_ref</text>
</a>
</g>
</g>
<!-- Node5&#45;&gt;Node22 -->
<g id="edge43" class="edge">
<title>Node5&#45;&gt;Node22</title>
<path fill="none" stroke="#9a32cd" stroke-dasharray="5,2" d="M30.22,-504.34C33.72,-453.68 45.47,-320.98 74,-289.11 95.1,-265.55 120.09,-290.93 142,-268.11 163.65,-245.56 150.75,-229.98 160,-200.11 175.24,-150.93 197.06,-93.29 205.74,-70.79"/>
<polygon fill="#9a32cd" stroke="#9a32cd" points="26.7,-504.39 29.54,-514.6 33.69,-504.85 26.7,-504.39"/>
<text text-anchor="middle" x="108" y="-292.11" font-family="Helvetica,sans-Serif" font-size="10.00"> ptr</text>
</g>
<!-- Node25 -->
<g id="node25" class="node">
<title>Node25</title>
<g id="a_node25"><a xlink:href="structfor__state.html" target="_top" xlink:title=" ">
<polygon fill="none" stroke="black" points="180.5,-251.61 180.5,-270.61 240.5,-270.61 240.5,-251.61 180.5,-251.61"/>
<text text-anchor="middle" x="210.5" y="-258.61" font-family="Helvetica,sans-Serif" font-size="10.00">for_state</text>
</a>
</g>
</g>
<!-- Node5&#45;&gt;Node25 -->
<g id="edge48" class="edge">
<title>Node5&#45;&gt;Node25</title>
<path fill="none" stroke="#9a32cd" stroke-dasharray="5,2" d="M31.04,-504.14C36.02,-459.12 50.17,-351.55 74,-325.11 95.36,-301.41 113.08,-315.59 142,-302.11 161.51,-293.02 182.48,-279.66 195.78,-270.69"/>
<polygon fill="#9a32cd" stroke="#9a32cd" points="27.55,-503.84 29.97,-514.16 34.51,-504.59 27.55,-503.84"/>
<text text-anchor="middle" x="108" y="-328.11" font-family="Helvetica,sans-Serif" font-size="10.00"> for_variable</text>
</g>
<!-- Node6&#45;&gt;Node2 -->
<g id="edge41" class="edge">
<title>Node6&#45;&gt;Node2</title>
<path fill="none" stroke="#9a32cd" stroke-dasharray="5,2" d="M262.17,-715.98C361.39,-730.17 576.42,-754.59 631,-709.11 668.51,-677.86 679.37,-513.63 681.55,-471.81"/>
<polygon fill="#9a32cd" stroke="#9a32cd" points="262.48,-712.49 252.08,-714.51 261.47,-719.42 262.48,-712.49"/>
<text text-anchor="middle" x="440.5" y="-749.11" font-family="Helvetica,sans-Serif" font-size="10.00"> local_string_variables</text>
<text text-anchor="middle" x="440.5" y="-738.11" font-family="Helvetica,sans-Serif" font-size="10.00">str_variables</text>
</g>
<!-- Node6&#45;&gt;Node3 -->
<g id="edge5" class="edge">
<title>Node6&#45;&gt;Node3</title>
<path fill="none" stroke="#9a32cd" stroke-dasharray="5,2" d="M262.54,-703.19C298.51,-699.72 346.68,-695.07 383.67,-691.5"/>
<polygon fill="#9a32cd" stroke="#9a32cd" points="261.88,-699.74 252.26,-704.18 262.55,-706.7 261.88,-699.74"/>
<text text-anchor="middle" x="320.5" y="-703.11" font-family="Helvetica,sans-Serif" font-size="10.00"> values</text>
</g>
<!-- Node6&#45;&gt;Node6 -->
<g id="edge8" class="edge">
<title>Node6&#45;&gt;Node6</title>
<path fill="none" stroke="#9a32cd" stroke-dasharray="5,2" d="M191.61,-727.51C192.87,-732.43 199.17,-736.11 210.5,-736.11 228.63,-736.11 233.87,-726.68 226.22,-717.87"/>
<polygon fill="#9a32cd" stroke="#9a32cd" points="194.98,-728.46 194.78,-717.87 188.33,-726.28 194.98,-728.46"/>
<text text-anchor="middle" x="210.5" y="-739.11" font-family="Helvetica,sans-Serif" font-size="10.00"> next</text>
</g>
<!-- Node7 -->
<g id="node7" class="node">
<title>Node7</title>
<g id="a_node7"><a xlink:title=" ">
<polygon fill="none" stroke="#bfbfbf" points="9,-784.61 9,-803.61 47,-803.61 47,-784.61 9,-784.61"/>
<text text-anchor="middle" x="28" y="-791.61" font-family="Helvetica,sans-Serif" font-size="10.00">bool</text>
</a>
</g>
</g>
<!-- Node7&#45;&gt;Node6 -->
<g id="edge7" class="edge">
<title>Node7&#45;&gt;Node6</title>
<path fill="none" stroke="#9a32cd" stroke-dasharray="5,2" d="M57.36,-792.98C81.12,-791.03 115.34,-785.84 142,-772.11 168.13,-758.66 191.22,-731.99 202.39,-717.69"/>
<polygon fill="#9a32cd" stroke="#9a32cd" points="56.98,-789.5 47.24,-793.67 57.45,-796.48 56.98,-789.5"/>
<text text-anchor="middle" x="108" y="-793.11" font-family="Helvetica,sans-Serif" font-size="10.00"> global</text>
</g>
<!-- Node7&#45;&gt;Node8 -->
<g id="edge13" class="edge">
<title>Node7&#45;&gt;Node8</title>
<path fill="none" stroke="#9a32cd" stroke-dasharray="5,2" d="M31.62,-774.34C36.21,-745.53 47.83,-691.28 74,-653.11 105.76,-606.8 162.9,-570.25 191.77,-553.72"/>
<polygon fill="#9a32cd" stroke="#9a32cd" points="28.14,-773.97 30.15,-784.37 35.06,-774.99 28.14,-773.97"/>
<text text-anchor="middle" x="108" y="-656.11" font-family="Helvetica,sans-Serif" font-size="10.00"> global</text>
</g>
<!-- Node7&#45;&gt;Node14 -->
<g id="edge26" class="edge">
<title>Node7&#45;&gt;Node14</title>
<path fill="none" stroke="#9a32cd" stroke-dasharray="5,2" d="M57.02,-801.88C62.63,-803.35 68.49,-804.83 74,-806.11 104.72,-813.26 139.63,-820.19 166.33,-825.24"/>
<polygon fill="#9a32cd" stroke="#9a32cd" points="57.89,-798.49 47.32,-799.28 56.08,-805.25 57.89,-798.49"/>
<text text-anchor="middle" x="108" y="-823.11" font-family="Helvetica,sans-Serif" font-size="10.00"> global</text>
</g>
<!-- Node8&#45;&gt;Node2 -->
<g id="edge9" class="edge">
<title>Node8&#45;&gt;Node2</title>
<path fill="none" stroke="#9a32cd" stroke-dasharray="5,2" d="M254.89,-544.14C332.42,-542.99 498.95,-535.07 631,-491.11 644.53,-486.61 658.51,-478.36 668.41,-471.81"/>
<polygon fill="#9a32cd" stroke="#9a32cd" points="254.52,-540.64 244.56,-544.26 254.6,-547.64 254.52,-540.64"/>
<text text-anchor="middle" x="440.5" y="-551.11" font-family="Helvetica,sans-Serif" font-size="10.00"> int_variables</text>
<text text-anchor="middle" x="440.5" y="-540.11" font-family="Helvetica,sans-Serif" font-size="10.00">local_int_variables</text>
</g>
<!-- Node8&#45;&gt;Node8 -->
<g id="edge10" class="edge">
<title>Node8&#45;&gt;Node8</title>
<path fill="none" stroke="#9a32cd" stroke-dasharray="5,2" d="M191.61,-563.51C192.87,-568.43 199.17,-572.11 210.5,-572.11 228.63,-572.11 233.87,-562.68 226.22,-553.87"/>
<polygon fill="#9a32cd" stroke="#9a32cd" points="194.98,-564.46 194.78,-553.87 188.33,-562.28 194.98,-564.46"/>
<text text-anchor="middle" x="210.5" y="-575.11" font-family="Helvetica,sans-Serif" font-size="10.00"> next</text>
</g>
<!-- Node8&#45;&gt;Node18 -->
<g id="edge30" class="edge">
<title>Node8&#45;&gt;Node18</title>
<path fill="none" stroke="#9a32cd" stroke-dasharray="5,2" d="M241.6,-530.1C248.06,-526.93 254.81,-523.5 261,-520.11 269.23,-515.62 270.21,-512.37 279,-509.11 315.27,-495.69 358.68,-489.18 391.21,-486.04"/>
<polygon fill="#9a32cd" stroke="#9a32cd" points="239.93,-527.02 232.44,-534.51 242.97,-533.32 239.93,-527.02"/>
<text text-anchor="middle" x="320.5" y="-512.11" font-family="Helvetica,sans-Serif" font-size="10.00"> values</text>
</g>
<!-- Node9 -->
<g id="node9" class="node">
<title>Node9</title>
<g id="a_node9"><a xlink:title=" ">
<polygon fill="none" stroke="#bfbfbf" points="3,-208.61 3,-227.61 53,-227.61 53,-208.61 3,-208.61"/>
<text text-anchor="middle" x="28" y="-215.61" font-family="Helvetica,sans-Serif" font-size="10.00">int64_t</text>
</a>
</g>
</g>
<!-- Node9&#45;&gt;Node2 -->
<g id="edge20" class="edge">
<title>Node9&#45;&gt;Node2</title>
<path fill="none" stroke="#9a32cd" stroke-dasharray="5,2" d="M62.77,-207.33C66.53,-206.44 70.33,-205.67 74,-205.11 164.1,-191.46 187.88,-202 279,-201.11 357.86,-200.34 573.43,-192.23 631,-246.11 662.01,-275.14 677.44,-414.41 681.12,-452.48"/>
<polygon fill="#9a32cd" stroke="#9a32cd" points="61.8,-203.97 53.03,-209.92 63.59,-210.74 61.8,-203.97"/>
<text text-anchor="middle" x="320.5" y="-215.11" font-family="Helvetica,sans-Serif" font-size="10.00"> current_linenum</text>
<text text-anchor="middle" x="320.5" y="-204.11" font-family="Helvetica,sans-Serif" font-size="10.00">eval_linenum</text>
</g>
<!-- Node9&#45;&gt;Node8 -->
<g id="edge12" class="edge">
<title>Node9&#45;&gt;Node8</title>
<path fill="none" stroke="#9a32cd" stroke-dasharray="5,2" d="M34.68,-237.25C42.13,-261.13 56.35,-302.86 74,-336.11 98.68,-382.62 121.12,-384.78 142,-433.11 157.66,-469.36 135.74,-488.96 160,-520.11 164.81,-526.29 171.62,-530.98 178.65,-534.49"/>
<polygon fill="#9a32cd" stroke="#9a32cd" points="38.02,-236.18 31.75,-227.63 31.32,-238.22 38.02,-236.18"/>
<text text-anchor="middle" x="108" y="-436.11" font-family="Helvetica,sans-Serif" font-size="10.00"> value</text>
</g>
<!-- Node9&#45;&gt;Node19 -->
<g id="edge36" class="edge">
<title>Node9&#45;&gt;Node19</title>
<path fill="none" stroke="#9a32cd" stroke-dasharray="5,2" d="M63.24,-213.2C128.18,-205.82 270.9,-199.03 362,-265.11 398.09,-291.29 424.71,-339.19 434.93,-359.55"/>
<polygon fill="#9a32cd" stroke="#9a32cd" points="62.64,-209.75 53.14,-214.43 63.49,-216.7 62.64,-209.75"/>
<text text-anchor="middle" x="210.5" y="-224.11" font-family="Helvetica,sans-Serif" font-size="10.00"> line</text>
</g>
<!-- Node9&#45;&gt;Node25 -->
<g id="edge49" class="edge">
<title>Node9&#45;&gt;Node25</title>
<path fill="none" stroke="#9a32cd" stroke-dasharray="5,2" d="M63.25,-221.3C85.86,-223.88 116,-228.24 142,-235.11 157.9,-239.32 175.21,-246.03 188.31,-251.58"/>
<polygon fill="#9a32cd" stroke="#9a32cd" points="63.44,-217.8 53.12,-220.2 62.68,-224.76 63.44,-217.8"/>
<text text-anchor="middle" x="108" y="-260.11" font-family="Helvetica,sans-Serif" font-size="10.00"> line_after_for</text>
<text text-anchor="middle" x="108" y="-249.11" font-family="Helvetica,sans-Serif" font-size="10.00">step</text>
<text text-anchor="middle" x="108" y="-238.11" font-family="Helvetica,sans-Serif" font-size="10.00">to</text>
</g>
<!-- Node10&#45;&gt;Node2 -->
<g id="edge16" class="edge">
<title>Node10&#45;&gt;Node2</title>
<path fill="none" stroke="#9a32cd" stroke-dasharray="5,2" d="M248,-925.66C333.29,-927.02 544.92,-916.69 631,-788.11 667.17,-734.09 679.3,-519.55 681.58,-471.64"/>
<polygon fill="#9a32cd" stroke="#9a32cd" points="247.85,-922.16 237.77,-925.44 247.69,-929.16 247.85,-922.16"/>
<text text-anchor="middle" x="440.5" y="-920.11" font-family="Helvetica,sans-Serif" font-size="10.00"> cons</text>
</g>
<!-- Node11 -->
<g id="node11" class="node">
<title>Node11</title>
<g id="a_node11"><a xlink:title=" ">
<polygon fill="none" stroke="#bfbfbf" points="5.5,-942.61 5.5,-961.61 50.5,-961.61 50.5,-942.61 5.5,-942.61"/>
<text text-anchor="middle" x="28" y="-949.61" font-family="Helvetica,sans-Serif" font-size="10.00">size_t</text>
</a>
</g>
</g>
<!-- Node11&#45;&gt;Node10 -->
<g id="edge18" class="edge">
<title>Node11&#45;&gt;Node10</title>
<path fill="none" stroke="#9a32cd" stroke-dasharray="5,2" d="M60.88,-947.17C95.71,-941.77 150.85,-933.21 183.27,-928.18"/>
<polygon fill="#9a32cd" stroke="#9a32cd" points="60.12,-943.74 50.77,-948.74 61.19,-950.66 60.12,-943.74"/>
<text text-anchor="middle" x="108" y="-947.11" font-family="Helvetica,sans-Serif" font-size="10.00"> bufcnt</text>
</g>
<!-- Node12 -->
<g id="node12" class="node">
<title>Node12</title>
<g id="a_node12"><a xlink:title=" ">
<polygon fill="none" stroke="#bfbfbf" points="3,-980.61 3,-999.61 53,-999.61 53,-980.61 3,-980.61"/>
<text text-anchor="middle" x="28" y="-987.61" font-family="Helvetica,sans-Serif" font-size="10.00">uint8_t</text>
</a>
</g>
</g>
<!-- Node12&#45;&gt;Node10 -->
<g id="edge19" class="edge">
<title>Node12&#45;&gt;Node10</title>
<path fill="none" stroke="#9a32cd" stroke-dasharray="5,2" d="M63.15,-982.73C85.89,-977.33 116.21,-969.21 142,-959.11 160.19,-951.99 179.91,-941.41 193.31,-933.74"/>
<polygon fill="#9a32cd" stroke="#9a32cd" points="62.24,-979.35 53.28,-985.01 63.82,-986.17 62.24,-979.35"/>
<text text-anchor="middle" x="108" y="-1015.11" font-family="Helvetica,sans-Serif" font-size="10.00"> attributes</text>
<text text-anchor="middle" x="108" y="-1004.11" font-family="Helvetica,sans-Serif" font-size="10.00">last</text>
<text text-anchor="middle" x="108" y="-993.11" font-family="Helvetica,sans-Serif" font-size="10.00">x</text>
<text text-anchor="middle" x="108" y="-982.11" font-family="Helvetica,sans-Serif" font-size="10.00">y</text>
</g>
<!-- Node13 -->
<g id="node13" class="node">
<title>Node13</title>
<g id="a_node13"><a xlink:title=" ">
<polygon fill="none" stroke="#bfbfbf" points="415.5,-160.61 415.5,-179.61 465.5,-179.61 465.5,-160.61 415.5,-160.61"/>
<text text-anchor="middle" x="440.5" y="-167.61" font-family="Helvetica,sans-Serif" font-size="10.00">int32_t</text>
</a>
</g>
</g>
<!-- Node13&#45;&gt;Node2 -->
<g id="edge21" class="edge">
<title>Node13&#45;&gt;Node2</title>
<path fill="none" stroke="#9a32cd" stroke-dasharray="5,2" d="M475.54,-172.27C527.02,-175.85 619.89,-183.68 631,-194.11 669.74,-230.52 679.76,-409.18 681.63,-452.59"/>
<polygon fill="#9a32cd" stroke="#9a32cd" points="475.74,-168.78 465.53,-171.59 475.27,-175.76 475.74,-168.78"/>
<text text-anchor="middle" x="575" y="-197.11" font-family="Helvetica,sans-Serif" font-size="10.00"> graphics_colour</text>
</g>
<!-- Node14&#45;&gt;Node2 -->
<g id="edge22" class="edge">
<title>Node14&#45;&gt;Node2</title>
<path fill="none" stroke="#9a32cd" stroke-dasharray="5,2" d="M264.59,-839.86C357.43,-848.27 547.35,-849.65 631,-735.11 662.85,-691.5 678.01,-515.2 681.3,-471.8"/>
<polygon fill="#9a32cd" stroke="#9a32cd" points="264.86,-836.37 254.57,-838.89 264.18,-843.34 264.86,-836.37"/>
<text text-anchor="middle" x="440.5" y="-855.11" font-family="Helvetica,sans-Serif" font-size="10.00"> double_variables</text>
<text text-anchor="middle" x="440.5" y="-844.11" font-family="Helvetica,sans-Serif" font-size="10.00">local_double_variables</text>
</g>
<!-- Node14&#45;&gt;Node14 -->
<g id="edge25" class="edge">
<title>Node14&#45;&gt;Node14</title>
<path fill="none" stroke="#9a32cd" stroke-dasharray="5,2" d="M191.61,-852.51C192.87,-857.43 199.17,-861.11 210.5,-861.11 228.63,-861.11 233.87,-851.68 226.22,-842.87"/>
<polygon fill="#9a32cd" stroke="#9a32cd" points="194.98,-853.46 194.78,-842.87 188.33,-851.28 194.98,-853.46"/>
<text text-anchor="middle" x="210.5" y="-864.11" font-family="Helvetica,sans-Serif" font-size="10.00"> next</text>
</g>
<!-- Node15 -->
<g id="node15" class="node">
<title>Node15</title>
<g id="a_node15"><a xlink:title=" ">
<polygon fill="none" stroke="#bfbfbf" points="3,-852.61 3,-871.61 53,-871.61 53,-852.61 3,-852.61"/>
<text text-anchor="middle" x="28" y="-859.61" font-family="Helvetica,sans-Serif" font-size="10.00">double</text>
</a>
</g>
</g>
<!-- Node15&#45;&gt;Node14 -->
<g id="edge23" class="edge">
<title>Node15&#45;&gt;Node14</title>
<path fill="none" stroke="#9a32cd" stroke-dasharray="5,2" d="M63.48,-856.57C92.69,-851.88 134.73,-845.13 166.2,-840.07"/>
<polygon fill="#9a32cd" stroke="#9a32cd" points="62.66,-853.16 53.34,-858.2 63.77,-860.07 62.66,-853.16"/>
<text text-anchor="middle" x="108" y="-857.11" font-family="Helvetica,sans-Serif" font-size="10.00"> value</text>
</g>
<!-- Node16 -->
<g id="node16" class="node">
<title>Node16</title>
<g id="a_node16"><a xlink:title=" ">
<polygon fill="none" stroke="#bfbfbf" points="426,-109.61 426,-128.61 455,-128.61 455,-109.61 426,-109.61"/>
<text text-anchor="middle" x="440.5" y="-116.61" font-family="Helvetica,sans-Serif" font-size="10.00">int</text>
</a>
</g>
</g>
<!-- Node16&#45;&gt;Node2 -->
<g id="edge27" class="edge">
<title>Node16&#45;&gt;Node2</title>
<path fill="none" stroke="#9a32cd" stroke-dasharray="5,2" d="M465.21,-115.15C510.47,-108.16 606.84,-96.26 631,-117.11 683.37,-162.31 682.88,-401.68 682.17,-452.59"/>
<polygon fill="#9a32cd" stroke="#9a32cd" points="464.45,-111.73 455.12,-116.76 465.55,-118.64 464.45,-111.73"/>
<text text-anchor="middle" x="575" y="-164.11" font-family="Helvetica,sans-Serif" font-size="10.00"> bracket_depth</text>
<text text-anchor="middle" x="575" y="-153.11" font-family="Helvetica,sans-Serif" font-size="10.00">current_token</text>
<text text-anchor="middle" x="575" y="-142.11" font-family="Helvetica,sans-Serif" font-size="10.00">ended</text>
<text text-anchor="middle" x="575" y="-131.11" font-family="Helvetica,sans-Serif" font-size="10.00">errored</text>
<text text-anchor="middle" x="575" y="-120.11" font-family="Helvetica,sans-Serif" font-size="10.00">oldlen</text>
</g>
<!-- Node17 -->
<g id="node17" class="node">
<title>Node17</title>
<g id="a_node17"><a xlink:title=" ">
<polygon fill="none" stroke="#bfbfbf" points="380,-71.61 380,-90.61 501,-90.61 501,-71.61 380,-71.61"/>
<text text-anchor="middle" x="440.5" y="-78.61" font-family="Helvetica,sans-Serif" font-size="10.00">enum ub_return_type</text>
</a>
</g>
</g>
<!-- Node17&#45;&gt;Node2 -->
<g id="edge28" class="edge">
<title>Node17&#45;&gt;Node2</title>
<path fill="none" stroke="#9a32cd" stroke-dasharray="5,2" d="M484.22,-69.41C527,-60.52 591.93,-55.19 631,-91.11 685.8,-141.5 683.37,-398.61 682.25,-452.28"/>
<polygon fill="#9a32cd" stroke="#9a32cd" points="483.39,-66.01 474.38,-71.59 484.91,-72.84 483.39,-66.01"/>
<text text-anchor="middle" x="575" y="-94.11" font-family="Helvetica,sans-Serif" font-size="10.00"> fn_type</text>
</g>
<!-- Node18&#45;&gt;Node2 -->
<g id="edge29" class="edge">
<title>Node18&#45;&gt;Node2</title>
<path fill="none" stroke="#9a32cd" stroke-dasharray="5,2" d="M499.57,-478.04C546.27,-473.97 610.21,-468.38 648.68,-465.02"/>
<polygon fill="#9a32cd" stroke="#9a32cd" points="499.25,-474.56 489.59,-478.91 499.86,-481.53 499.25,-474.56"/>
<text text-anchor="middle" x="575" y="-479.11" font-family="Helvetica,sans-Serif" font-size="10.00"> int_array_variables</text>
</g>
<!-- Node19&#45;&gt;Node2 -->
<g id="edge33" class="edge">
<title>Node19&#45;&gt;Node2</title>
<path fill="none" stroke="#9a32cd" stroke-dasharray="5,2" d="M495.92,-376.89C535.11,-384.03 588.37,-396.96 631,-419.11 647.65,-427.76 663.65,-442.69 673.16,-452.48"/>
<polygon fill="#9a32cd" stroke="#9a32cd" points="496.48,-373.44 486.02,-375.16 495.27,-380.33 496.48,-373.44"/>
<text text-anchor="middle" x="575" y="-422.11" font-family="Helvetica,sans-Serif" font-size="10.00"> defs</text>
</g>
<!-- Node19&#45;&gt;Node19 -->
<g id="edge37" class="edge">
<title>Node19&#45;&gt;Node19</title>
<path fill="none" stroke="#9a32cd" stroke-dasharray="5,2" d="M418.18,-388.14C419.4,-393.24 426.84,-397.11 440.5,-397.11 461.83,-397.11 467.99,-387.68 459,-378.87"/>
<polygon fill="#9a32cd" stroke="#9a32cd" points="421.43,-389.45 422,-378.87 414.95,-386.78 421.43,-389.45"/>
<text text-anchor="middle" x="440.5" y="-400.11" font-family="Helvetica,sans-Serif" font-size="10.00"> next</text>
</g>
<!-- Node20 -->
<g id="node20" class="node">
<title>Node20</title>
<g id="a_node20"><a xlink:title=" ">
<polygon fill="none" stroke="#bfbfbf" points="160,-335.61 160,-354.61 261,-354.61 261,-335.61 160,-335.61"/>
<text text-anchor="middle" x="210.5" y="-342.61" font-family="Helvetica,sans-Serif" font-size="10.00">enum ub_fn_type</text>
</a>
</g>
</g>
<!-- Node20&#45;&gt;Node19 -->
<g id="edge34" class="edge">
<title>Node20&#45;&gt;Node19</title>
<path fill="none" stroke="#9a32cd" stroke-dasharray="5,2" d="M271.35,-351.41C310.06,-355.49 359.61,-360.7 394.87,-364.42"/>
<polygon fill="#9a32cd" stroke="#9a32cd" points="271.57,-347.92 261.25,-350.35 270.83,-354.88 271.57,-347.92"/>
<text text-anchor="middle" x="320.5" y="-363.11" font-family="Helvetica,sans-Serif" font-size="10.00"> type</text>
</g>
<!-- Node21&#45;&gt;Node2 -->
<g id="edge50" class="edge">
<title>Node21&#45;&gt;Node2</title>
<path fill="none" stroke="#9a32cd" stroke-dasharray="5,2" d="M253.23,-433.25C261.76,-433.88 270.67,-434.53 279,-435.11 416.27,-444.8 579.91,-455.5 648.82,-459.97"/>
<polygon fill="#9a32cd" stroke="#9a32cd" points="253.32,-429.75 243.09,-432.5 252.8,-436.73 253.32,-429.75"/>
<text text-anchor="middle" x="440.5" y="-452.11" font-family="Helvetica,sans-Serif" font-size="10.00"> param</text>
</g>
<!-- Node21&#45;&gt;Node19 -->
<g id="edge38" class="edge">
<title>Node21&#45;&gt;Node19</title>
<path fill="none" stroke="#9a32cd" stroke-dasharray="5,2" d="M253.39,-424.83C283.91,-420.37 326.04,-412.97 362,-402.11 382.44,-395.94 404.77,-386.08 420.19,-378.74"/>
<polygon fill="#9a32cd" stroke="#9a32cd" points="252.52,-421.42 243.11,-426.28 253.5,-428.35 252.52,-421.42"/>
<text text-anchor="middle" x="320.5" y="-423.11" font-family="Helvetica,sans-Serif" font-size="10.00"> params</text>
</g>
<!-- Node21&#45;&gt;Node21 -->
<g id="edge40" class="edge">
<title>Node21&#45;&gt;Node21</title>
<path fill="none" stroke="#9a32cd" stroke-dasharray="5,2" d="M191.61,-449.51C192.87,-454.43 199.17,-458.11 210.5,-458.11 228.63,-458.11 233.87,-448.68 226.22,-439.87"/>
<polygon fill="#9a32cd" stroke="#9a32cd" points="194.98,-450.46 194.78,-439.87 188.33,-448.28 194.98,-450.46"/>
<text text-anchor="middle" x="210.5" y="-461.11" font-family="Helvetica,sans-Serif" font-size="10.00"> next</text>
</g>
<!-- Node22&#45;&gt;Node2 -->
<g id="edge42" class="edge">
<title>Node22&#45;&gt;Node2</title>
<path fill="none" stroke="#9a32cd" stroke-dasharray="5,2" d="M243.21,-47.89C321.82,-17.46 526.82,47.09 631,-59.11 687.79,-117.01 683.7,-396.17 682.29,-452.28"/>
<polygon fill="#9a32cd" stroke="#9a32cd" points="241.85,-44.66 233.84,-51.59 244.42,-51.17 241.85,-44.66"/>
<text text-anchor="middle" x="440.5" y="-22.11" font-family="Helvetica,sans-Serif" font-size="10.00"> line_tail</text>
<text text-anchor="middle" x="440.5" y="-11.11" font-family="Helvetica,sans-Serif" font-size="10.00">lines</text>
</g>
<!-- Node22&#45;&gt;Node22 -->
<g id="edge45" class="edge">
<title>Node22&#45;&gt;Node22</title>
<path fill="none" stroke="#9a32cd" stroke-dasharray="5,2" d="M191.61,-80.51C192.87,-85.43 199.17,-89.11 210.5,-89.11 228.63,-89.11 233.87,-79.68 226.22,-70.87"/>
<polygon fill="#9a32cd" stroke="#9a32cd" points="194.98,-81.46 194.78,-70.87 188.33,-79.28 194.98,-81.46"/>
<text text-anchor="middle" x="210.5" y="-103.11" font-family="Helvetica,sans-Serif" font-size="10.00"> next</text>
<text text-anchor="middle" x="210.5" y="-92.11" font-family="Helvetica,sans-Serif" font-size="10.00">prev</text>
</g>
<!-- Node23 -->
<g id="node23" class="node">
<title>Node23</title>
<g id="a_node23"><a xlink:title=" ">
<polygon fill="none" stroke="#bfbfbf" points="0,-51.61 0,-70.61 56,-70.61 56,-51.61 0,-51.61"/>
<text text-anchor="middle" x="28" y="-58.61" font-family="Helvetica,sans-Serif" font-size="10.00">uint32_t</text>
</a>
</g>
</g>
<!-- Node23&#45;&gt;Node22 -->
<g id="edge44" class="edge">
<title>Node23&#45;&gt;Node22</title>
<path fill="none" stroke="#9a32cd" stroke-dasharray="5,2" d="M66.28,-61.11C98.18,-61.11 143.75,-61.11 174.86,-61.11"/>
<polygon fill="#9a32cd" stroke="#9a32cd" points="66.02,-57.61 56.02,-61.11 66.02,-64.61 66.02,-57.61"/>
<text text-anchor="middle" x="108" y="-64.11" font-family="Helvetica,sans-Serif" font-size="10.00"> line_number</text>
</g>
<!-- Node24 -->
<g id="node24" class="node">
<title>Node24</title>
<g id="a_node24"><a xlink:title=" ">
<polygon fill="none" stroke="#bfbfbf" points="417.5,-638.61 417.5,-657.61 463.5,-657.61 463.5,-638.61 417.5,-638.61"/>
<text text-anchor="middle" x="440.5" y="-645.61" font-family="Helvetica,sans-Serif" font-size="10.00">void *</text>
</a>
</g>
</g>
<!-- Node24&#45;&gt;Node2 -->
<g id="edge46" class="edge">
<title>Node24&#45;&gt;Node2</title>
<path fill="none" stroke="#9a32cd" stroke-dasharray="5,2" d="M473.63,-648.86C515.06,-648.08 587.01,-640.57 631,-601.11 670.42,-565.76 679.42,-497.3 681.43,-471.9"/>
<polygon fill="#9a32cd" stroke="#9a32cd" points="473.51,-645.36 463.54,-648.93 473.56,-652.36 473.51,-645.36"/>
<text text-anchor="middle" x="575" y="-648.11" font-family="Helvetica,sans-Serif" font-size="10.00"> fn_return</text>
</g>
<!-- Node25&#45;&gt;Node2 -->
<g id="edge47" class="edge">
<title>Node25&#45;&gt;Node2</title>
<path fill="none" stroke="#9a32cd" stroke-dasharray="5,2" d="M250.77,-257.03C343.78,-248.24 574.04,-231.93 631,-279.11 658.56,-301.94 676.04,-417.56 680.73,-452.26"/>
<polygon fill="#9a32cd" stroke="#9a32cd" points="250.26,-253.56 240.64,-258.01 250.93,-260.53 250.26,-253.56"/>
<text text-anchor="middle" x="440.5" y="-252.11" font-family="Helvetica,sans-Serif" font-size="10.00"> for_stack</text>
</g>
</g>
</svg>
        <g id="navigator" transform="translate(0 0)" fill="#404254">
                <rect fill="#f2f5e9" fill-opacity="0.5" stroke="#606060" stroke-width=".5" x="0" y="0" width="60" height="60"/>
                <use id="zoomplus" xlink:href="#zoomPlus" x="17" y="9" onmousedown="handleZoom(evt,'in')"/>
                <use id="zoomminus" xlink:href="#zoomMin" x="42" y="9" onmousedown="handleZoom(evt,'out')"/>
                <use id="reset" xlink:href="#resetDef" x="30" y="36" onmousedown="handleReset()"/>
                <g id="arrowUp" xlink:href="#dirArrow" transform="translate(30 24)" onmousedown="handlePan(0,-1)">
                  <use xlink:href="#rim" fill="#404040">
                        <set attributeName="fill" to="#808080" begin="arrowUp.mouseover" end="arrowUp.mouseout"/>
                  </use>
                  <path fill="none" stroke="white" stroke-width="1.5" d="M0,-3.0v7 M-2.5,-0.5L0,-3.0L2.5,-0.5"/>
                </g>
                <g id="arrowRight" xlink:href="#dirArrow" transform="rotate(90) translate(36 -43)" onmousedown="handlePan(1,0)">
                  <use xlink:href="#rim" fill="#404040">
                        <set attributeName="fill" to="#808080" begin="arrowRight.mouseover" end="arrowRight.mouseout"/>
                  </use>
                  <path fill="none" stroke="white" stroke-width="1.5" d="M0,-3.0v7 M-2.5,-0.5L0,-3.0L2.5,-0.5"/>
                </g>
                <g id="arrowDown" xlink:href="#dirArrow" transform="rotate(180) translate(-30 -48)" onmousedown="handlePan(0,1)">
                  <use xlink:href="#rim" fill="#404040">
                        <set attributeName="fill" to="#808080" begin="arrowDown.mouseover" end="arrowDown.mouseout"/>
                  </use>
                  <path fill="none" stroke="white" stroke-width="1.5" d="M0,-3.0v7 M-2.5,-0.5L0,-3.0L2.5,-0.5"/>
                </g>
                <g id="arrowLeft" xlink:href="#dirArrow" transform="rotate(270) translate(-36 17)" onmousedown="handlePan(-1,0)">
                  <use xlink:href="#rim" fill="#404040">
                        <set attributeName="fill" to="#808080" begin="arrowLeft.mouseover" end="arrowLeft.mouseout"/>
                  </use>
                  <path fill="none" stroke="white" stroke-width="1.5" d="M0,-3.0v7 M-2.5,-0.5L0,-3.0L2.5,-0.5"/>
                </g>
        </g>
        <svg viewBox="0 0 15 15" width="100%" height="30px" preserveAspectRatio="xMaxYMin meet">
         <g id="arrow_out" transform="scale(0.3 0.3)">
          <a xlink:href="structubasic__double__fn__coll__graph_org.svg" target="_base">
           <rect id="button" ry="5" rx="5" y="6" x="6" height="38" width="38"
                fill="#f2f5e9" fill-opacity="0.5" stroke="#606060" stroke-width="1.0"/>
           <path id="arrow"
             d="M 11.500037,31.436501 C 11.940474,20.09759 22.043105,11.32322 32.158766,21.979434 L 37.068811,17.246167 C 37.068811,17.246167 37.088388,32 37.088388,32 L 22.160133,31.978069 C 22.160133,31.978069 26.997745,27.140456 26.997745,27.140456 C 18.528582,18.264221 13.291696,25.230495 11.500037,31.436501 z"
             style="fill:#404040;"/>
          </a>
         </g>
        </svg>
</svg>
