<?xml version="1.0" encoding="UTF-8" standalone="no"?>
<!DOCTYPE svg PUBLIC "-//W3C//DTD SVG 1.1//EN"
 "http://www.w3.org/Graphics/SVG/1.1/DTD/svg11.dtd">
<!-- Generated by graphviz version 2.43.0 (0)
 -->
<!-- Title: __attribute__ Pages: 1 -->
<!--zoomable 249 -->
<svg id="main" version="1.1" xmlns="http://www.w3.org/2000/svg" xmlns:xlink="http://www.w3.org/1999/xlink" xml:space="preserve" onload="init(evt)">
<style type="text/css"><![CDATA[
.edge:hover path { stroke: red; }
.edge:hover polygon { stroke: red; fill: red; }
]]></style>
<script type="text/javascript"><![CDATA[
var edges = document.getElementsByTagName('g');
if (edges && edges.length) {
  for (var i=0;i<edges.length;i++) {
    if (edges[i].id.substr(0,4)=='edge') {
      edges[i].setAttribute('class','edge');
    }
  }
}
]]></script>
        <defs>
                <circle id="rim" cx="0" cy="0" r="7"/>
                <circle id="rim2" cx="0" cy="0" r="3.5"/>
                <g id="zoomPlus">
                        <use xlink:href="#rim" fill="#404040">
                                <set attributeName="fill" to="#808080" begin="zoomplus.mouseover" end="zoomplus.mouseout"/>
                        </use>
                        <path d="M-4,0h8M0,-4v8" fill="none" stroke="white" stroke-width="1.5" pointer-events="none"/>
                </g>
                <g id="zoomMin">
                        <use xlink:href="#rim" fill="#404040">
                                <set attributeName="fill" to="#808080" begin="zoomminus.mouseover" end="zoomminus.mouseout"/>
                        </use>
                        <path d="M-4,0h8" fill="none" stroke="white" stroke-width="1.5" pointer-events="none"/>
                </g>
                <g id="dirArrow">
                        <path fill="none" stroke="white" stroke-width="1.5" d="M0,-3.0v7 M-2.5,-0.5L0,-3.0L2.5,-0.5"/>
                </g>
               <g id="resetDef">
                       <use xlink:href="#rim2" fill="#404040">
                               <set attributeName="fill" to="#808080" begin="reset.mouseover" end="reset.mouseout"/>
                       </use>
               </g>
        </defs>

<script type="text/javascript">
var viewWidth = 854;
var viewHeight = 249;
var sectionId = 'dynsection-0';
</script>
<script xlink:href="svgpan.js"/>
<svg id="graph" class="graph">
<g id="viewport">
<title>__attribute__</title>
<!-- Node1 -->
<g id="node1" class="node">
<title>Node1</title>
<g id="a_node1"><a xlink:title=" ">
<polygon fill="#bfbfbf" stroke="black" points="325.42,-0.5 325.42,-19.5 405.42,-19.5 405.42,-0.5 325.42,-0.5"/>
<text text-anchor="middle" x="365.42" y="-7.5" font-family="Helvetica,sans-Serif" font-size="10.00">__attribute__</text>
</a>
</g>
</g>
<!-- Node2 -->
<g id="node2" class="node">
<title>Node2</title>
<g id="a_node2"><a xlink:title=" ">
<polygon fill="none" stroke="black" points="8.42,-221.5 8.42,-240.5 46.42,-240.5 46.42,-221.5 8.42,-221.5"/>
<text text-anchor="middle" x="27.42" y="-228.5" font-family="Helvetica,sans-Serif" font-size="10.00">char</text>
</a>
</g>
</g>
<!-- Node2&#45;&gt;Node1 -->
<g id="edge1" class="edge">
<title>Node2&#45;&gt;Node1</title>
<path fill="none" stroke="#9a32cd" stroke-dasharray="5,2" d="M19.96,-211.56C5.96,-173.57 -19.05,-86.14 25.42,-38 45.41,-16.36 239.77,-12.05 325.33,-11.2"/>
<polygon fill="#9a32cd" stroke="#9a32cd" points="16.85,-213.21 23.71,-221.28 23.38,-210.69 16.85,-213.21"/>
<text text-anchor="middle" x="67.42" y="-173" font-family="Helvetica,sans-Serif" font-size="10.00"> abstract_file</text>
<text text-anchor="middle" x="67.42" y="-162" font-family="Helvetica,sans-Serif" font-size="10.00">application_id</text>
<text text-anchor="middle" x="67.42" y="-151" font-family="Helvetica,sans-Serif" font-size="10.00">bibliographic_file</text>
<text text-anchor="middle" x="67.42" y="-140" font-family="Helvetica,sans-Serif" font-size="10.00">copyright_file</text>
<text text-anchor="middle" x="67.42" y="-129" font-family="Helvetica,sans-Serif" font-size="10.00">data_preparer</text>
<text text-anchor="middle" x="67.42" y="-118" font-family="Helvetica,sans-Serif" font-size="10.00">day</text>
<text text-anchor="middle" x="67.42" y="-107" font-family="Helvetica,sans-Serif" font-size="10.00">escape_seq</text>
<text text-anchor="middle" x="67.42" y="-96" font-family="Helvetica,sans-Serif" font-size="10.00">filename</text>
<text text-anchor="middle" x="67.42" y="-85" font-family="Helvetica,sans-Serif" font-size="10.00">hour</text>
<text text-anchor="middle" x="67.42" y="-74" font-family="Helvetica,sans-Serif" font-size="10.00">millisecond</text>
<text text-anchor="middle" x="67.42" y="-63" font-family="Helvetica,sans-Serif" font-size="10.00">...</text>
</g>
<!-- Node3 -->
<g id="node3" class="node">
<title>Node3</title>
<g id="a_node3"><a xlink:title=" ">
<polygon fill="none" stroke="black" points="109.42,-221.5 109.42,-240.5 159.42,-240.5 159.42,-221.5 109.42,-221.5"/>
<text text-anchor="middle" x="134.42" y="-228.5" font-family="Helvetica,sans-Serif" font-size="10.00">uint8_t</text>
</a>
</g>
</g>
<!-- Node3&#45;&gt;Node1 -->
<g id="edge2" class="edge">
<title>Node3&#45;&gt;Node1</title>
<path fill="none" stroke="#9a32cd" stroke-dasharray="5,2" d="M128.09,-211.59C116.33,-173.67 96.15,-86.36 140.42,-38 152.64,-24.65 263.53,-16.54 324.94,-13.04"/>
<polygon fill="#9a32cd" stroke="#9a32cd" points="124.82,-212.87 131.25,-221.29 131.48,-210.7 124.82,-212.87"/>
<text text-anchor="middle" x="180.42" y="-178.5" font-family="Helvetica,sans-Serif" font-size="10.00"> application_use</text>
<text text-anchor="middle" x="180.42" y="-167.5" font-family="Helvetica,sans-Serif" font-size="10.00">attribute_length</text>
<text text-anchor="middle" x="180.42" y="-156.5" font-family="Helvetica,sans-Serif" font-size="10.00">day</text>
<text text-anchor="middle" x="180.42" y="-145.5" font-family="Helvetica,sans-Serif" font-size="10.00">file_flags</text>
<text text-anchor="start" x="140.42" y="-134.5" font-family="Helvetica,sans-Serif" font-size="10.00">file_structure</text>
<text text-anchor="middle" x="180.42" y="-123.5" font-family="Helvetica,sans-Serif" font-size="10.00">_version</text>
<text text-anchor="middle" x="180.42" y="-112.5" font-family="Helvetica,sans-Serif" font-size="10.00">filename_length</text>
<text text-anchor="middle" x="180.42" y="-101.5" font-family="Helvetica,sans-Serif" font-size="10.00">hour</text>
<text text-anchor="middle" x="180.42" y="-90.5" font-family="Helvetica,sans-Serif" font-size="10.00">length</text>
<text text-anchor="middle" x="180.42" y="-79.5" font-family="Helvetica,sans-Serif" font-size="10.00">minute</text>
<text text-anchor="middle" x="180.42" y="-68.5" font-family="Helvetica,sans-Serif" font-size="10.00">month</text>
<text text-anchor="middle" x="180.42" y="-57.5" font-family="Helvetica,sans-Serif" font-size="10.00">...</text>
</g>
<!-- Node4 -->
<g id="node4" class="node">
<title>Node4</title>
<g id="a_node4"><a xlink:title=" ">
<polygon fill="none" stroke="black" points="209.42,-221.5 209.42,-240.5 265.42,-240.5 265.42,-221.5 209.42,-221.5"/>
<text text-anchor="middle" x="237.42" y="-228.5" font-family="Helvetica,sans-Serif" font-size="10.00">uint32_t</text>
</a>
</g>
</g>
<!-- Node4&#45;&gt;Node1 -->
<g id="edge3" class="edge">
<title>Node4&#45;&gt;Node1</title>
<path fill="none" stroke="#9a32cd" stroke-dasharray="5,2" d="M232.95,-211.34C225.12,-173.6 213.52,-87.58 256.42,-38 265.48,-27.53 298.02,-20.37 325.21,-16.07"/>
<polygon fill="#9a32cd" stroke="#9a32cd" points="229.61,-212.41 235.2,-221.41 236.44,-210.89 229.61,-212.41"/>
<text text-anchor="middle" x="308.92" y="-195" font-family="Helvetica,sans-Serif" font-size="10.00"> data_length_lsb</text>
<text text-anchor="middle" x="308.92" y="-184" font-family="Helvetica,sans-Serif" font-size="10.00">data_length_msb</text>
<text text-anchor="middle" x="308.92" y="-173" font-family="Helvetica,sans-Serif" font-size="10.00">extent_lba_lsb</text>
<text text-anchor="middle" x="308.92" y="-162" font-family="Helvetica,sans-Serif" font-size="10.00">extent_lba_msb</text>
<text text-anchor="start" x="256.42" y="-151" font-family="Helvetica,sans-Serif" font-size="10.00">lsb_optpathtable_L</text>
<text text-anchor="middle" x="308.92" y="-140" font-family="Helvetica,sans-Serif" font-size="10.00">_lba</text>
<text text-anchor="start" x="256.42" y="-129" font-family="Helvetica,sans-Serif" font-size="10.00">lsb_optpathtable</text>
<text text-anchor="middle" x="308.92" y="-118" font-family="Helvetica,sans-Serif" font-size="10.00">_M_lba</text>
<text text-anchor="start" x="256.42" y="-107" font-family="Helvetica,sans-Serif" font-size="10.00">lsb_pathtable_L</text>
<text text-anchor="middle" x="308.92" y="-96" font-family="Helvetica,sans-Serif" font-size="10.00">_lba</text>
<text text-anchor="start" x="256.42" y="-85" font-family="Helvetica,sans-Serif" font-size="10.00">lsb_pathtable</text>
<text text-anchor="middle" x="308.92" y="-74" font-family="Helvetica,sans-Serif" font-size="10.00">_M_lba</text>
<text text-anchor="middle" x="308.92" y="-63" font-family="Helvetica,sans-Serif" font-size="10.00">lsb_pathtablesize</text>
<text text-anchor="middle" x="308.92" y="-52" font-family="Helvetica,sans-Serif" font-size="10.00">lsb_volumespacesize</text>
<text text-anchor="middle" x="308.92" y="-41" font-family="Helvetica,sans-Serif" font-size="10.00">...</text>
</g>
<!-- Node5 -->
<g id="node5" class="node">
<title>Node5</title>
<g id="a_node5"><a xlink:title=" ">
<polygon fill="none" stroke="black" points="315.92,-221.5 315.92,-240.5 414.92,-240.5 414.92,-221.5 315.92,-221.5"/>
<text text-anchor="middle" x="365.42" y="-228.5" font-family="Helvetica,sans-Serif" font-size="10.00">DIRECTORY_date</text>
</a>
</g>
</g>
<!-- Node5&#45;&gt;Node1 -->
<g id="edge4" class="edge">
<title>Node5&#45;&gt;Node1</title>
<path fill="none" stroke="#9a32cd" stroke-dasharray="5,2" d="M365.42,-211.26C365.42,-166.03 365.42,-52.22 365.42,-19.76"/>
<polygon fill="#9a32cd" stroke="#9a32cd" points="361.92,-211.41 365.42,-221.41 368.92,-211.41 361.92,-211.41"/>
<text text-anchor="middle" x="403.42" y="-118" font-family="Helvetica,sans-Serif" font-size="10.00"> recording_date</text>
</g>
<!-- Node6 -->
<g id="node6" class="node">
<title>Node6</title>
<g id="a_node6"><a xlink:title=" ">
<polygon fill="none" stroke="black" points="436.42,-221.5 436.42,-240.5 492.42,-240.5 492.42,-221.5 436.42,-221.5"/>
<text text-anchor="middle" x="464.42" y="-228.5" font-family="Helvetica,sans-Serif" font-size="10.00">uint16_t</text>
</a>
</g>
</g>
<!-- Node6&#45;&gt;Node1 -->
<g id="edge5" class="edge">
<title>Node6&#45;&gt;Node1</title>
<path fill="none" stroke="#9a32cd" stroke-dasharray="5,2" d="M464.72,-211.21C465.03,-168.22 463.51,-64.42 442.42,-38 433.4,-26.71 419.35,-20.13 405.7,-16.3"/>
<polygon fill="#9a32cd" stroke="#9a32cd" points="461.22,-211.35 464.6,-221.39 468.22,-211.43 461.22,-211.35"/>
<text text-anchor="middle" x="522.42" y="-162" font-family="Helvetica,sans-Serif" font-size="10.00"> interleave_unit_size</text>
<text text-anchor="middle" x="522.42" y="-151" font-family="Helvetica,sans-Serif" font-size="10.00">lsb_blocksize</text>
<text text-anchor="middle" x="522.42" y="-140" font-family="Helvetica,sans-Serif" font-size="10.00">lsb_volumeseqno</text>
<text text-anchor="middle" x="522.42" y="-129" font-family="Helvetica,sans-Serif" font-size="10.00">lsb_volumesetsize</text>
<text text-anchor="middle" x="522.42" y="-118" font-family="Helvetica,sans-Serif" font-size="10.00">msb_blocksize</text>
<text text-anchor="middle" x="522.42" y="-107" font-family="Helvetica,sans-Serif" font-size="10.00">msb_volumeseqno</text>
<text text-anchor="middle" x="522.42" y="-96" font-family="Helvetica,sans-Serif" font-size="10.00">msb_volumesetsize</text>
<text text-anchor="middle" x="522.42" y="-85" font-family="Helvetica,sans-Serif" font-size="10.00">sequence_number_lsb</text>
<text text-anchor="middle" x="522.42" y="-74" font-family="Helvetica,sans-Serif" font-size="10.00">sequence_number_msb</text>
</g>
<!-- Node7 -->
<g id="node7" class="node">
<title>Node7</title>
<g id="a_node7"><a xlink:title=" ">
<polygon fill="none" stroke="black" points="550.42,-221.5 550.42,-240.5 656.42,-240.5 656.42,-221.5 550.42,-221.5"/>
<text text-anchor="middle" x="603.42" y="-228.5" font-family="Helvetica,sans-Serif" font-size="10.00">ISO9660_directory</text>
</a>
</g>
</g>
<!-- Node7&#45;&gt;Node1 -->
<g id="edge6" class="edge">
<title>Node7&#45;&gt;Node1</title>
<path fill="none" stroke="#9a32cd" stroke-dasharray="5,2" d="M604.08,-211.16C605.17,-167.65 605.25,-62.08 581.42,-38 557.63,-13.96 461.5,-10.34 405.83,-10.33"/>
<polygon fill="#9a32cd" stroke="#9a32cd" points="600.58,-211.13 603.78,-221.23 607.58,-211.34 600.58,-211.13"/>
<text text-anchor="middle" x="640.42" y="-118" font-family="Helvetica,sans-Serif" font-size="10.00"> root_directory</text>
</g>
<!-- Node8 -->
<g id="node8" class="node">
<title>Node8</title>
<g id="a_node8"><a xlink:title=" ">
<polygon fill="none" stroke="black" points="674.42,-221.5 674.42,-240.5 738.42,-240.5 738.42,-221.5 674.42,-221.5"/>
<text text-anchor="middle" x="706.42" y="-228.5" font-family="Helvetica,sans-Serif" font-size="10.00">PVD_date</text>
</a>
</g>
</g>
<!-- Node8&#45;&gt;Node1 -->
<g id="edge7" class="edge">
<title>Node8&#45;&gt;Node1</title>
<path fill="none" stroke="#9a32cd" stroke-dasharray="5,2" d="M710.5,-211.68C717.88,-173.22 728.54,-83.81 680.42,-38 660.92,-19.43 486.2,-13.46 405.7,-11.69"/>
<polygon fill="#9a32cd" stroke="#9a32cd" points="707.07,-210.99 708.47,-221.49 713.93,-212.41 707.07,-210.99"/>
<text text-anchor="middle" x="781.42" y="-134.5" font-family="Helvetica,sans-Serif" font-size="10.00"> volume_creation_date</text>
<text text-anchor="middle" x="781.42" y="-123.5" font-family="Helvetica,sans-Serif" font-size="10.00">volume_effective_date</text>
<text text-anchor="middle" x="781.42" y="-112.5" font-family="Helvetica,sans-Serif" font-size="10.00">volume_expire_date</text>
<text text-anchor="middle" x="781.42" y="-101.5" font-family="Helvetica,sans-Serif" font-size="10.00">volume_modification_date</text>
</g>
</g>
</svg>
        <g id="navigator" transform="translate(0 0)" fill="#404254">
                <rect fill="#f2f5e9" fill-opacity="0.5" stroke="#606060" stroke-width=".5" x="0" y="0" width="60" height="60"/>
                <use id="zoomplus" xlink:href="#zoomPlus" x="17" y="9" onmousedown="handleZoom(evt,'in')"/>
                <use id="zoomminus" xlink:href="#zoomMin" x="42" y="9" onmousedown="handleZoom(evt,'out')"/>
                <use id="reset" xlink:href="#resetDef" x="30" y="36" onmousedown="handleReset()"/>
                <g id="arrowUp" xlink:href="#dirArrow" transform="translate(30 24)" onmousedown="handlePan(0,-1)">
                  <use xlink:href="#rim" fill="#404040">
                        <set attributeName="fill" to="#808080" begin="arrowUp.mouseover" end="arrowUp.mouseout"/>
                  </use>
                  <path fill="none" stroke="white" stroke-width="1.5" d="M0,-3.0v7 M-2.5,-0.5L0,-3.0L2.5,-0.5"/>
                </g>
                <g id="arrowRight" xlink:href="#dirArrow" transform="rotate(90) translate(36 -43)" onmousedown="handlePan(1,0)">
                  <use xlink:href="#rim" fill="#404040">
                        <set attributeName="fill" to="#808080" begin="arrowRight.mouseover" end="arrowRight.mouseout"/>
                  </use>
                  <path fill="none" stroke="white" stroke-width="1.5" d="M0,-3.0v7 M-2.5,-0.5L0,-3.0L2.5,-0.5"/>
                </g>
                <g id="arrowDown" xlink:href="#dirArrow" transform="rotate(180) translate(-30 -48)" onmousedown="handlePan(0,1)">
                  <use xlink:href="#rim" fill="#404040">
                        <set attributeName="fill" to="#808080" begin="arrowDown.mouseover" end="arrowDown.mouseout"/>
                  </use>
                  <path fill="none" stroke="white" stroke-width="1.5" d="M0,-3.0v7 M-2.5,-0.5L0,-3.0L2.5,-0.5"/>
                </g>
                <g id="arrowLeft" xlink:href="#dirArrow" transform="rotate(270) translate(-36 17)" onmousedown="handlePan(-1,0)">
                  <use xlink:href="#rim" fill="#404040">
                        <set attributeName="fill" to="#808080" begin="arrowLeft.mouseover" end="arrowLeft.mouseout"/>
                  </use>
                  <path fill="none" stroke="white" stroke-width="1.5" d="M0,-3.0v7 M-2.5,-0.5L0,-3.0L2.5,-0.5"/>
                </g>
        </g>
        <svg viewBox="0 0 15 15" width="100%" height="30px" preserveAspectRatio="xMaxYMin meet">
         <g id="arrow_out" transform="scale(0.3 0.3)">
          <a xlink:href="struct____attribute______coll__graph_org.svg" target="_base">
           <rect id="button" ry="5" rx="5" y="6" x="6" height="38" width="38"
                fill="#f2f5e9" fill-opacity="0.5" stroke="#606060" stroke-width="1.0"/>
           <path id="arrow"
             d="M 11.500037,31.436501 C 11.940474,20.09759 22.043105,11.32322 32.158766,21.979434 L 37.068811,17.246167 C 37.068811,17.246167 37.088388,32 37.088388,32 L 22.160133,31.978069 C 22.160133,31.978069 26.997745,27.140456 26.997745,27.140456 C 18.528582,18.264221 13.291696,25.230495 11.500037,31.436501 z"
             style="fill:#404040;"/>
          </a>
         </g>
        </svg>
</svg>
