<?xml version="1.0" encoding="UTF-8" standalone="no"?>
<!DOCTYPE svg PUBLIC "-//W3C//DTD SVG 1.1//EN"
 "http://www.w3.org/Graphics/SVG/1.1/DTD/svg11.dtd">
<!-- Generated by graphviz version 2.43.0 (0)
 -->
<!-- Title: module Pages: 1 -->
<svg width="728pt" height="197pt"
 viewBox="0.00 0.00 728.00 197.00" xmlns="http://www.w3.org/2000/svg" xmlns:xlink="http://www.w3.org/1999/xlink">
<g id="graph0" class="graph" transform="scale(1 1) rotate(0) translate(4 193)">
<title>module</title>
<!-- Node1 -->
<g id="node1" class="node">
<title>Node1</title>
<g id="a_node1"><a xlink:title="Describes a loaded and relocated module image.">
<polygon fill="#bfbfbf" stroke="black" points="398.5,-0.5 398.5,-19.5 451.5,-19.5 451.5,-0.5 398.5,-0.5"/>
<text text-anchor="middle" x="425" y="-7.5" font-family="Helvetica,sans-Serif" font-size="10.00">module</text>
</a>
</g>
</g>
<!-- Node2 -->
<g id="node2" class="node">
<title>Node2</title>
<g id="a_node2"><a xlink:title=" ">
<polygon fill="none" stroke="#bfbfbf" points="0,-169.5 0,-188.5 56,-188.5 56,-169.5 0,-169.5"/>
<text text-anchor="middle" x="28" y="-176.5" font-family="Helvetica,sans-Serif" font-size="10.00">uint16_t</text>
</a>
</g>
</g>
<!-- Node2&#45;&gt;Node1 -->
<g id="edge1" class="edge">
<title>Node2&#45;&gt;Node1</title>
<path fill="none" stroke="#9a32cd" stroke-dasharray="5,2" d="M30.85,-159.13C33.11,-149.32 37.07,-137.61 44,-129 52.82,-118.03 194.48,-41.09 204,-38 271.65,-16.04 356.22,-11.7 398.44,-11"/>
<polygon fill="#9a32cd" stroke="#9a32cd" points="27.38,-158.67 28.98,-169.14 34.26,-159.96 27.38,-158.67"/>
<text text-anchor="middle" x="123.5" y="-97.5" font-family="Helvetica,sans-Serif" font-size="10.00"> shndx</text>
</g>
<!-- Node8 -->
<g id="node8" class="node">
<title>Node8</title>
<g id="a_node8"><a xlink:href="structelf__sym.html" target="_top" xlink:title="ELF symbol table entry (ELF64)">
<polygon fill="none" stroke="black" points="154,-90.5 154,-109.5 210,-109.5 210,-90.5 154,-90.5"/>
<text text-anchor="middle" x="182" y="-97.5" font-family="Helvetica,sans-Serif" font-size="10.00">elf_sym</text>
</a>
</g>
</g>
<!-- Node2&#45;&gt;Node8 -->
<g id="edge9" class="edge">
<title>Node2&#45;&gt;Node8</title>
<path fill="none" stroke="#9a32cd" stroke-dasharray="5,2" d="M39.18,-161.09C47.12,-150.36 58.7,-137.05 72,-129 97.12,-113.8 130.26,-106.81 153.58,-103.62"/>
<polygon fill="#9a32cd" stroke="#9a32cd" points="36.29,-159.11 33.41,-169.31 42.02,-163.13 36.29,-159.11"/>
<text text-anchor="middle" x="95.5" y="-137.5" font-family="Helvetica,sans-Serif" font-size="10.00"> st_shndx</text>
</g>
<!-- Node3 -->
<g id="node3" class="node">
<title>Node3</title>
<g id="a_node3"><a xlink:title=" ">
<polygon fill="none" stroke="#bfbfbf" points="259,-169.5 259,-188.5 297,-188.5 297,-169.5 259,-169.5"/>
<text text-anchor="middle" x="278" y="-176.5" font-family="Helvetica,sans-Serif" font-size="10.00">char</text>
</a>
</g>
</g>
<!-- Node3&#45;&gt;Node1 -->
<g id="edge2" class="edge">
<title>Node3&#45;&gt;Node1</title>
<path fill="none" stroke="#9a32cd" stroke-dasharray="5,2" d="M287.61,-160.12C289.14,-157.11 290.65,-153.98 292,-151 304.15,-124.07 299.41,-113.45 316,-89 334.72,-61.42 343.59,-56.98 371,-38 381.43,-30.78 394.06,-24.35 404.49,-19.58"/>
<polygon fill="#9a32cd" stroke="#9a32cd" points="284.44,-158.64 282.92,-169.12 290.65,-161.88 284.44,-158.64"/>
<text text-anchor="middle" x="331.5" y="-103" font-family="Helvetica,sans-Serif" font-size="10.00"> name</text>
<text text-anchor="middle" x="331.5" y="-92" font-family="Helvetica,sans-Serif" font-size="10.00">strtab</text>
</g>
<!-- Node3&#45;&gt;Node8 -->
<g id="edge10" class="edge">
<title>Node3&#45;&gt;Node8</title>
<path fill="none" stroke="#9a32cd" stroke-dasharray="5,2" d="M262.56,-162.17C249.6,-148.96 232.65,-131.84 229,-129 219.56,-121.65 208.02,-114.75 198.74,-109.64"/>
<polygon fill="#9a32cd" stroke="#9a32cd" points="260.09,-164.66 269.59,-169.36 265.1,-159.76 260.09,-164.66"/>
<text text-anchor="middle" x="271" y="-143" font-family="Helvetica,sans-Serif" font-size="10.00"> st_info</text>
<text text-anchor="middle" x="271" y="-132" font-family="Helvetica,sans-Serif" font-size="10.00">st_other</text>
</g>
<!-- Node4 -->
<g id="node4" class="node">
<title>Node4</title>
<g id="a_node4"><a xlink:title=" ">
<polygon fill="none" stroke="#bfbfbf" points="355.5,-90.5 355.5,-109.5 400.5,-109.5 400.5,-90.5 355.5,-90.5"/>
<text text-anchor="middle" x="378" y="-97.5" font-family="Helvetica,sans-Serif" font-size="10.00">size_t</text>
</a>
</g>
</g>
<!-- Node4&#45;&gt;Node1 -->
<g id="edge3" class="edge">
<title>Node4&#45;&gt;Node1</title>
<path fill="none" stroke="#9a32cd" stroke-dasharray="5,2" d="M375.42,-80.42C374.58,-67.61 375.39,-50.68 383,-38 387.82,-29.97 396.05,-23.91 403.95,-19.59"/>
<polygon fill="#9a32cd" stroke="#9a32cd" points="371.94,-80.82 376.46,-90.4 378.9,-80.09 371.94,-80.82"/>
<text text-anchor="middle" x="417" y="-63" font-family="Helvetica,sans-Serif" font-size="10.00"> placed_count</text>
<text text-anchor="middle" x="417" y="-52" font-family="Helvetica,sans-Serif" font-size="10.00">size</text>
<text text-anchor="middle" x="417" y="-41" font-family="Helvetica,sans-Serif" font-size="10.00">sym_count</text>
</g>
<!-- Node5 -->
<g id="node5" class="node">
<title>Node5</title>
<g id="a_node5"><a xlink:title=" ">
<polygon fill="none" stroke="#bfbfbf" points="418.5,-90.5 418.5,-109.5 527.5,-109.5 527.5,-90.5 418.5,-90.5"/>
<text text-anchor="middle" x="473" y="-97.5" font-family="Helvetica,sans-Serif" font-size="10.00">anonymous:placed</text>
</a>
</g>
</g>
<!-- Node5&#45;&gt;Node1 -->
<g id="edge4" class="edge">
<title>Node5&#45;&gt;Node1</title>
<path fill="none" stroke="#9a32cd" stroke-dasharray="5,2" d="M468.49,-80.39C464.93,-67.81 459.18,-51.16 451,-38 446.74,-31.15 440.51,-24.6 435.21,-19.67"/>
<polygon fill="#9a32cd" stroke="#9a32cd" points="465.14,-81.42 471.06,-90.2 471.91,-79.64 465.14,-81.42"/>
<text text-anchor="middle" x="483" y="-52" font-family="Helvetica,sans-Serif" font-size="10.00"> placed</text>
</g>
<!-- Node6 -->
<g id="node6" class="node">
<title>Node6</title>
<g id="a_node6"><a xlink:title=" ">
<polygon fill="none" stroke="#bfbfbf" points="546,-90.5 546,-109.5 584,-109.5 584,-90.5 546,-90.5"/>
<text text-anchor="middle" x="565" y="-97.5" font-family="Helvetica,sans-Serif" font-size="10.00">bool</text>
</a>
</g>
</g>
<!-- Node6&#45;&gt;Node1 -->
<g id="edge5" class="edge">
<title>Node6&#45;&gt;Node1</title>
<path fill="none" stroke="#9a32cd" stroke-dasharray="5,2" d="M552.21,-82.18C541.07,-68.56 523.79,-49.77 505,-38 488.6,-27.73 467.84,-20.87 451.58,-16.64"/>
<polygon fill="#9a32cd" stroke="#9a32cd" points="549.65,-84.58 558.6,-90.25 555.14,-80.24 549.65,-84.58"/>
<text text-anchor="middle" x="559.5" y="-57.5" font-family="Helvetica,sans-Serif" font-size="10.00"> exit_fn</text>
<text text-anchor="middle" x="559.5" y="-46.5" font-family="Helvetica,sans-Serif" font-size="10.00">init_fn</text>
</g>
<!-- Node7 -->
<g id="node7" class="node">
<title>Node7</title>
<g id="a_node7"><a xlink:title=" ">
<polygon fill="none" stroke="#bfbfbf" points="602,-90.5 602,-109.5 652,-109.5 652,-90.5 602,-90.5"/>
<text text-anchor="middle" x="627" y="-97.5" font-family="Helvetica,sans-Serif" font-size="10.00">uint8_t</text>
</a>
</g>
</g>
<!-- Node7&#45;&gt;Node1 -->
<g id="edge6" class="edge">
<title>Node7&#45;&gt;Node1</title>
<path fill="none" stroke="#9a32cd" stroke-dasharray="5,2" d="M618.59,-81.07C611.04,-67.03 598.58,-48.23 582,-38 560.64,-24.82 490.65,-16.76 451.72,-13.18"/>
<polygon fill="#9a32cd" stroke="#9a32cd" points="615.59,-82.9 623.21,-90.26 621.85,-79.75 615.59,-82.9"/>
<text text-anchor="middle" x="624.5" y="-57.5" font-family="Helvetica,sans-Serif" font-size="10.00"> addr</text>
<text text-anchor="middle" x="624.5" y="-46.5" font-family="Helvetica,sans-Serif" font-size="10.00">base</text>
</g>
<!-- Node8&#45;&gt;Node1 -->
<g id="edge7" class="edge">
<title>Node8&#45;&gt;Node1</title>
<path fill="none" stroke="#9a32cd" stroke-dasharray="5,2" d="M195.81,-82.6C208.79,-68.38 229.52,-48.47 252,-38 300.22,-15.54 363.36,-11.17 398.49,-10.65"/>
<polygon fill="#9a32cd" stroke="#9a32cd" points="193.1,-80.39 189.12,-90.21 198.35,-85.02 193.1,-80.39"/>
<text text-anchor="middle" x="272" y="-52" font-family="Helvetica,sans-Serif" font-size="10.00"> symtab</text>
</g>
<!-- Node9 -->
<g id="node9" class="node">
<title>Node9</title>
<g id="a_node9"><a xlink:title=" ">
<polygon fill="none" stroke="#bfbfbf" points="84,-169.5 84,-188.5 140,-188.5 140,-169.5 84,-169.5"/>
<text text-anchor="middle" x="112" y="-176.5" font-family="Helvetica,sans-Serif" font-size="10.00">uint64_t</text>
</a>
</g>
</g>
<!-- Node9&#45;&gt;Node8 -->
<g id="edge8" class="edge">
<title>Node9&#45;&gt;Node8</title>
<path fill="none" stroke="#9a32cd" stroke-dasharray="5,2" d="M118.48,-159.82C122.66,-149.9 128.85,-137.87 137,-129 144.35,-121 154.48,-114.43 163.27,-109.67"/>
<polygon fill="#9a32cd" stroke="#9a32cd" points="115.2,-158.58 114.85,-169.17 121.73,-161.12 115.2,-158.58"/>
<text text-anchor="middle" x="158" y="-143" font-family="Helvetica,sans-Serif" font-size="10.00"> st_size</text>
<text text-anchor="middle" x="158" y="-132" font-family="Helvetica,sans-Serif" font-size="10.00">st_value</text>
</g>
<!-- Node10 -->
<g id="node10" class="node">
<title>Node10</title>
<g id="a_node10"><a xlink:title=" ">
<polygon fill="none" stroke="#bfbfbf" points="158,-169.5 158,-188.5 214,-188.5 214,-169.5 158,-169.5"/>
<text text-anchor="middle" x="186" y="-176.5" font-family="Helvetica,sans-Serif" font-size="10.00">uint32_t</text>
</a>
</g>
</g>
<!-- Node10&#45;&gt;Node8 -->
<g id="edge11" class="edge">
<title>Node10&#45;&gt;Node8</title>
<path fill="none" stroke="#9a32cd" stroke-dasharray="5,2" d="M183.65,-158.84C183.4,-156.21 183.17,-153.54 183,-151 182.05,-136.44 181.91,-119.46 181.94,-109.5"/>
<polygon fill="#9a32cd" stroke="#9a32cd" points="180.2,-159.47 184.8,-169.02 187.16,-158.69 180.2,-159.47"/>
<text text-anchor="middle" x="206" y="-137.5" font-family="Helvetica,sans-Serif" font-size="10.00"> st_name</text>
</g>
<!-- Node11 -->
<g id="node11" class="node">
<title>Node11</title>
<g id="a_node11"><a xlink:title=" ">
<polygon fill="none" stroke="#bfbfbf" points="670,-90.5 670,-109.5 716,-109.5 716,-90.5 670,-90.5"/>
<text text-anchor="middle" x="693" y="-97.5" font-family="Helvetica,sans-Serif" font-size="10.00">void *</text>
</a>
</g>
</g>
<!-- Node11&#45;&gt;Node1 -->
<g id="edge12" class="edge">
<title>Node11&#45;&gt;Node1</title>
<path fill="none" stroke="#9a32cd" stroke-dasharray="5,2" d="M683,-81.24C673.97,-67.02 659.31,-47.88 641,-38 608.82,-20.64 501.88,-14.1 451.58,-11.94"/>
<polygon fill="#9a32cd" stroke="#9a32cd" points="680.18,-83.35 688.32,-90.12 686.18,-79.75 680.18,-83.35"/>
<text text-anchor="middle" x="697.5" y="-52" font-family="Helvetica,sans-Serif" font-size="10.00"> raw_bits</text>
</g>
</g>
</svg>
