<?xml version="1.0" encoding="UTF-8" standalone="no"?>
<!DOCTYPE svg PUBLIC "-//W3C//DTD SVG 1.1//EN"
 "http://www.w3.org/Graphics/SVG/1.1/DTD/svg11.dtd">
<!-- Generated by graphviz version 2.43.0 (0)
 -->
<!-- Title: __attribute__ Pages: 1 -->
<svg width="852pt" height="249pt"
 viewBox="0.00 0.00 851.71 249.00" xmlns="http://www.w3.org/2000/svg" xmlns:xlink="http://www.w3.org/1999/xlink">
<g id="graph0" class="graph" transform="scale(1 1) rotate(0) translate(4 245)">
<title>__attribute__</title>
<!-- Node1 -->
<g id="node1" class="node">
<title>Node1</title>
<g id="a_node1"><a xlink:title="Describes an IRQ override from the MADT table.">
<polygon fill="#bfbfbf" stroke="black" points="341.71,-0.5 341.71,-19.5 421.71,-19.5 421.71,-0.5 341.71,-0.5"/>
<text text-anchor="middle" x="381.71" y="-7.5" font-family="Helvetica,sans-Serif" font-size="10.00">__attribute__</text>
</a>
</g>
</g>
<!-- Node2 -->
<g id="node2" class="node">
<title>Node2</title>
<g id="a_node2"><a xlink:title=" ">
<polygon fill="none" stroke="#bfbfbf" points="7.71,-221.5 7.71,-240.5 45.71,-240.5 45.71,-221.5 7.71,-221.5"/>
<text text-anchor="middle" x="26.71" y="-228.5" font-family="Helvetica,sans-Serif" font-size="10.00">char</text>
</a>
</g>
</g>
<!-- Node2&#45;&gt;Node1 -->
<g id="edge1" class="edge">
<title>Node2&#45;&gt;Node1</title>
<path fill="none" stroke="#9a32cd" stroke-dasharray="5,2" d="M19.38,-211.54C5.62,-173.53 -18.84,-86.06 25.71,-38 46.8,-15.24 252.73,-11.57 341.41,-11.05"/>
<polygon fill="#9a32cd" stroke="#9a32cd" points="16.24,-213.16 23.06,-221.27 22.79,-210.68 16.24,-213.16"/>
<text text-anchor="middle" x="67.71" y="-173" font-family="Helvetica,sans-Serif" font-size="10.00"> abstract_file</text>
<text text-anchor="middle" x="67.71" y="-162" font-family="Helvetica,sans-Serif" font-size="10.00">application_id</text>
<text text-anchor="middle" x="67.71" y="-151" font-family="Helvetica,sans-Serif" font-size="10.00">bibliographic_file</text>
<text text-anchor="middle" x="67.71" y="-140" font-family="Helvetica,sans-Serif" font-size="10.00">copyright_file</text>
<text text-anchor="middle" x="67.71" y="-129" font-family="Helvetica,sans-Serif" font-size="10.00">data_preparer</text>
<text text-anchor="middle" x="67.71" y="-118" font-family="Helvetica,sans-Serif" font-size="10.00">day</text>
<text text-anchor="middle" x="67.71" y="-107" font-family="Helvetica,sans-Serif" font-size="10.00">escape_seq</text>
<text text-anchor="middle" x="67.71" y="-96" font-family="Helvetica,sans-Serif" font-size="10.00">filename</text>
<text text-anchor="middle" x="67.71" y="-85" font-family="Helvetica,sans-Serif" font-size="10.00">hour</text>
<text text-anchor="middle" x="67.71" y="-74" font-family="Helvetica,sans-Serif" font-size="10.00">millisecond</text>
<text text-anchor="middle" x="67.71" y="-63" font-family="Helvetica,sans-Serif" font-size="10.00">...</text>
</g>
<!-- Node3 -->
<g id="node3" class="node">
<title>Node3</title>
<g id="a_node3"><a xlink:title=" ">
<polygon fill="none" stroke="#bfbfbf" points="105.71,-221.5 105.71,-240.5 161.71,-240.5 161.71,-221.5 105.71,-221.5"/>
<text text-anchor="middle" x="133.71" y="-228.5" font-family="Helvetica,sans-Serif" font-size="10.00">uint16_t</text>
</a>
</g>
</g>
<!-- Node3&#45;&gt;Node1 -->
<g id="edge2" class="edge">
<title>Node3&#45;&gt;Node1</title>
<path fill="none" stroke="#9a32cd" stroke-dasharray="5,2" d="M127.46,-211.55C115.88,-173.54 96.11,-86.08 140.71,-38 154.09,-23.57 276.52,-15.81 341.54,-12.68"/>
<polygon fill="#9a32cd" stroke="#9a32cd" points="124.19,-212.82 130.58,-221.27 130.86,-210.68 124.19,-212.82"/>
<text text-anchor="middle" x="198.71" y="-178.5" font-family="Helvetica,sans-Serif" font-size="10.00"> flags</text>
<text text-anchor="start" x="140.71" y="-167.5" font-family="Helvetica,sans-Serif" font-size="10.00">interleave_unit</text>
<text text-anchor="middle" x="198.71" y="-156.5" font-family="Helvetica,sans-Serif" font-size="10.00">_size</text>
<text text-anchor="middle" x="198.71" y="-145.5" font-family="Helvetica,sans-Serif" font-size="10.00">lsb_blocksize</text>
<text text-anchor="middle" x="198.71" y="-134.5" font-family="Helvetica,sans-Serif" font-size="10.00">lsb_volumeseqno</text>
<text text-anchor="middle" x="198.71" y="-123.5" font-family="Helvetica,sans-Serif" font-size="10.00">lsb_volumesetsize</text>
<text text-anchor="middle" x="198.71" y="-112.5" font-family="Helvetica,sans-Serif" font-size="10.00">msb_blocksize</text>
<text text-anchor="middle" x="198.71" y="-101.5" font-family="Helvetica,sans-Serif" font-size="10.00">msb_volumeseqno</text>
<text text-anchor="middle" x="198.71" y="-90.5" font-family="Helvetica,sans-Serif" font-size="10.00">msb_volumesetsize</text>
<text text-anchor="middle" x="198.71" y="-79.5" font-family="Helvetica,sans-Serif" font-size="10.00">sequence_number_lsb</text>
<text text-anchor="middle" x="198.71" y="-68.5" font-family="Helvetica,sans-Serif" font-size="10.00">sequence_number_msb</text>
<text text-anchor="middle" x="198.71" y="-57.5" font-family="Helvetica,sans-Serif" font-size="10.00">...</text>
</g>
<!-- Node4 -->
<g id="node4" class="node">
<title>Node4</title>
<g id="a_node4"><a xlink:title=" ">
<polygon fill="none" stroke="#bfbfbf" points="244.71,-221.5 244.71,-240.5 300.71,-240.5 300.71,-221.5 244.71,-221.5"/>
<text text-anchor="middle" x="272.71" y="-228.5" font-family="Helvetica,sans-Serif" font-size="10.00">uint32_t</text>
</a>
</g>
</g>
<!-- Node4&#45;&gt;Node1 -->
<g id="edge3" class="edge">
<title>Node4&#45;&gt;Node1</title>
<path fill="none" stroke="#9a32cd" stroke-dasharray="5,2" d="M268.44,-211.51C260.98,-174.08 250.02,-88.61 291.71,-38 303.84,-23.27 323.68,-16.36 341.65,-13.21"/>
<polygon fill="#9a32cd" stroke="#9a32cd" points="265.07,-212.45 270.59,-221.49 271.91,-210.98 265.07,-212.45"/>
<text text-anchor="middle" x="334.71" y="-195" font-family="Helvetica,sans-Serif" font-size="10.00"> data_length_lsb</text>
<text text-anchor="middle" x="334.71" y="-184" font-family="Helvetica,sans-Serif" font-size="10.00">data_length_msb</text>
<text text-anchor="middle" x="334.71" y="-173" font-family="Helvetica,sans-Serif" font-size="10.00">extent_lba_lsb</text>
<text text-anchor="middle" x="334.71" y="-162" font-family="Helvetica,sans-Serif" font-size="10.00">extent_lba_msb</text>
<text text-anchor="middle" x="334.71" y="-151" font-family="Helvetica,sans-Serif" font-size="10.00">gsi</text>
<text text-anchor="start" x="291.71" y="-140" font-family="Helvetica,sans-Serif" font-size="10.00">lsb_optpathtable</text>
<text text-anchor="middle" x="334.71" y="-129" font-family="Helvetica,sans-Serif" font-size="10.00">_L_lba</text>
<text text-anchor="start" x="291.71" y="-118" font-family="Helvetica,sans-Serif" font-size="10.00">lsb_optpathtable</text>
<text text-anchor="middle" x="334.71" y="-107" font-family="Helvetica,sans-Serif" font-size="10.00">_M_lba</text>
<text text-anchor="start" x="291.71" y="-96" font-family="Helvetica,sans-Serif" font-size="10.00">lsb_pathtable_L</text>
<text text-anchor="middle" x="334.71" y="-85" font-family="Helvetica,sans-Serif" font-size="10.00">_lba</text>
<text text-anchor="start" x="291.71" y="-74" font-family="Helvetica,sans-Serif" font-size="10.00">lsb_pathtable</text>
<text text-anchor="middle" x="334.71" y="-63" font-family="Helvetica,sans-Serif" font-size="10.00">_M_lba</text>
<text text-anchor="middle" x="334.71" y="-52" font-family="Helvetica,sans-Serif" font-size="10.00">lsb_pathtablesize</text>
<text text-anchor="middle" x="334.71" y="-41" font-family="Helvetica,sans-Serif" font-size="10.00">...</text>
</g>
<!-- Node5 -->
<g id="node5" class="node">
<title>Node5</title>
<g id="a_node5"><a xlink:title=" ">
<polygon fill="none" stroke="#bfbfbf" points="356.71,-221.5 356.71,-240.5 406.71,-240.5 406.71,-221.5 356.71,-221.5"/>
<text text-anchor="middle" x="381.71" y="-228.5" font-family="Helvetica,sans-Serif" font-size="10.00">uint8_t</text>
</a>
</g>
</g>
<!-- Node5&#45;&gt;Node1 -->
<g id="edge4" class="edge">
<title>Node5&#45;&gt;Node1</title>
<path fill="none" stroke="#9a32cd" stroke-dasharray="5,2" d="M381.71,-211.26C381.71,-166.03 381.71,-52.22 381.71,-19.76"/>
<polygon fill="#9a32cd" stroke="#9a32cd" points="378.21,-211.41 381.71,-221.41 385.21,-211.41 378.21,-211.41"/>
<text text-anchor="middle" x="421.71" y="-178.5" font-family="Helvetica,sans-Serif" font-size="10.00"> application_use</text>
<text text-anchor="middle" x="421.71" y="-167.5" font-family="Helvetica,sans-Serif" font-size="10.00">attribute_length</text>
<text text-anchor="middle" x="421.71" y="-156.5" font-family="Helvetica,sans-Serif" font-size="10.00">bus_source</text>
<text text-anchor="middle" x="421.71" y="-145.5" font-family="Helvetica,sans-Serif" font-size="10.00">day</text>
<text text-anchor="middle" x="421.71" y="-134.5" font-family="Helvetica,sans-Serif" font-size="10.00">file_flags</text>
<text text-anchor="start" x="381.71" y="-123.5" font-family="Helvetica,sans-Serif" font-size="10.00">file_structure</text>
<text text-anchor="middle" x="421.71" y="-112.5" font-family="Helvetica,sans-Serif" font-size="10.00">_version</text>
<text text-anchor="middle" x="421.71" y="-101.5" font-family="Helvetica,sans-Serif" font-size="10.00">filename_length</text>
<text text-anchor="middle" x="421.71" y="-90.5" font-family="Helvetica,sans-Serif" font-size="10.00">hour</text>
<text text-anchor="middle" x="421.71" y="-79.5" font-family="Helvetica,sans-Serif" font-size="10.00">irq_source</text>
<text text-anchor="middle" x="421.71" y="-68.5" font-family="Helvetica,sans-Serif" font-size="10.00">length</text>
<text text-anchor="middle" x="421.71" y="-57.5" font-family="Helvetica,sans-Serif" font-size="10.00">...</text>
</g>
<!-- Node6 -->
<g id="node6" class="node">
<title>Node6</title>
<g id="a_node6"><a xlink:title=" ">
<polygon fill="none" stroke="#bfbfbf" points="427.71,-221.5 427.71,-240.5 533.71,-240.5 533.71,-221.5 427.71,-221.5"/>
<text text-anchor="middle" x="480.71" y="-228.5" font-family="Helvetica,sans-Serif" font-size="10.00">ISO9660_directory</text>
</a>
</g>
</g>
<!-- Node6&#45;&gt;Node1 -->
<g id="edge5" class="edge">
<title>Node6&#45;&gt;Node1</title>
<path fill="none" stroke="#9a32cd" stroke-dasharray="5,2" d="M485.06,-211.11C492.52,-173.63 503.28,-89.08 462.71,-38 452.84,-25.58 437.07,-18.83 422.06,-15.17"/>
<polygon fill="#9a32cd" stroke="#9a32cd" points="481.59,-210.63 482.92,-221.14 488.43,-212.09 481.59,-210.63"/>
<text text-anchor="middle" x="527.71" y="-118" font-family="Helvetica,sans-Serif" font-size="10.00"> root_directory</text>
</g>
<!-- Node7 -->
<g id="node7" class="node">
<title>Node7</title>
<g id="a_node7"><a xlink:title=" ">
<polygon fill="none" stroke="#bfbfbf" points="552.21,-221.5 552.21,-240.5 651.21,-240.5 651.21,-221.5 552.21,-221.5"/>
<text text-anchor="middle" x="601.71" y="-228.5" font-family="Helvetica,sans-Serif" font-size="10.00">DIRECTORY_date</text>
</a>
</g>
</g>
<!-- Node7&#45;&gt;Node1 -->
<g id="edge6" class="edge">
<title>Node7&#45;&gt;Node1</title>
<path fill="none" stroke="#9a32cd" stroke-dasharray="5,2" d="M601.08,-211.12C599.23,-167.53 592.25,-61.79 567.71,-38 547.5,-18.41 470.07,-12.96 421.72,-11.49"/>
<polygon fill="#9a32cd" stroke="#9a32cd" points="597.59,-211.35 601.47,-221.21 604.59,-211.09 597.59,-211.35"/>
<text text-anchor="middle" x="637.71" y="-118" font-family="Helvetica,sans-Serif" font-size="10.00"> recording_date</text>
</g>
<!-- Node8 -->
<g id="node8" class="node">
<title>Node8</title>
<g id="a_node8"><a xlink:title=" ">
<polygon fill="none" stroke="#bfbfbf" points="669.71,-221.5 669.71,-240.5 733.71,-240.5 733.71,-221.5 669.71,-221.5"/>
<text text-anchor="middle" x="701.71" y="-228.5" font-family="Helvetica,sans-Serif" font-size="10.00">PVD_date</text>
</a>
</g>
</g>
<!-- Node8&#45;&gt;Node1 -->
<g id="edge7" class="edge">
<title>Node8&#45;&gt;Node1</title>
<path fill="none" stroke="#9a32cd" stroke-dasharray="5,2" d="M706.33,-211.23C714.58,-172.62 726.9,-84.08 679.71,-38 661.64,-20.35 499.01,-13.94 421.91,-11.87"/>
<polygon fill="#9a32cd" stroke="#9a32cd" points="702.89,-210.58 704.06,-221.11 709.71,-212.15 702.89,-210.58"/>
<text text-anchor="middle" x="778.71" y="-134.5" font-family="Helvetica,sans-Serif" font-size="10.00"> volume_creation_date</text>
<text text-anchor="middle" x="778.71" y="-123.5" font-family="Helvetica,sans-Serif" font-size="10.00">volume_effective_date</text>
<text text-anchor="middle" x="778.71" y="-112.5" font-family="Helvetica,sans-Serif" font-size="10.00">volume_expire_date</text>
<text text-anchor="middle" x="778.71" y="-101.5" font-family="Helvetica,sans-Serif" font-size="10.00">volume_modification_date</text>
</g>
</g>
</svg>
