<?xml version="1.0" encoding="UTF-8" standalone="no"?>
<!DOCTYPE svg PUBLIC "-//W3C//DTD SVG 1.1//EN"
 "http://www.w3.org/Graphics/SVG/1.1/DTD/svg11.dtd">
<!-- Generated by graphviz version 2.43.0 (0)
 -->
<!-- Title: partition_t Pages: 1 -->
<svg width="228pt" height="128pt"
 viewBox="0.00 0.00 228.00 128.00" xmlns="http://www.w3.org/2000/svg" xmlns:xlink="http://www.w3.org/1999/xlink">
<g id="graph0" class="graph" transform="scale(1 1) rotate(0) translate(4 124)">
<title>partition_t</title>
<!-- Node1 -->
<g id="node1" class="node">
<title>Node1</title>
<g id="a_node1"><a xlink:title="A disk partition entry within the MBR.">
<polygon fill="#bfbfbf" stroke="black" points="75.5,-0.5 75.5,-19.5 142.5,-19.5 142.5,-0.5 75.5,-0.5"/>
<text text-anchor="middle" x="109" y="-7.5" font-family="Helvetica,sans-Serif" font-size="10.00">partition_t</text>
</a>
</g>
</g>
<!-- Node2 -->
<g id="node2" class="node">
<title>Node2</title>
<g id="a_node2"><a xlink:title=" ">
<polygon fill="none" stroke="#bfbfbf" points="0,-100.5 0,-119.5 56,-119.5 56,-100.5 0,-100.5"/>
<text text-anchor="middle" x="28" y="-107.5" font-family="Helvetica,sans-Serif" font-size="10.00">uint16_t</text>
</a>
</g>
</g>
<!-- Node2&#45;&gt;Node1 -->
<g id="edge1" class="edge">
<title>Node2&#45;&gt;Node1</title>
<path fill="none" stroke="#9a32cd" stroke-dasharray="5,2" d="M28.61,-90.42C30.06,-74.76 34.41,-52.63 47,-38 54.35,-29.46 64.91,-23.53 75.23,-19.45"/>
<polygon fill="#9a32cd" stroke="#9a32cd" points="25.12,-90.29 28,-100.48 32.1,-90.71 25.12,-90.29"/>
<text text-anchor="middle" x="76" y="-63" font-family="Helvetica,sans-Serif" font-size="10.00"> endcylsect</text>
<text text-anchor="middle" x="76" y="-52" font-family="Helvetica,sans-Serif" font-size="10.00">startcylsect</text>
</g>
<!-- Node3 -->
<g id="node3" class="node">
<title>Node3</title>
<g id="a_node3"><a xlink:title=" ">
<polygon fill="none" stroke="#bfbfbf" points="81,-100.5 81,-119.5 137,-119.5 137,-100.5 81,-100.5"/>
<text text-anchor="middle" x="109" y="-107.5" font-family="Helvetica,sans-Serif" font-size="10.00">uint32_t</text>
</a>
</g>
</g>
<!-- Node3&#45;&gt;Node1 -->
<g id="edge2" class="edge">
<title>Node3&#45;&gt;Node1</title>
<path fill="none" stroke="#9a32cd" stroke-dasharray="5,2" d="M109,-90.22C109,-68.95 109,-35.22 109,-19.54"/>
<polygon fill="#9a32cd" stroke="#9a32cd" points="105.5,-90.3 109,-100.3 112.5,-90.3 105.5,-90.3"/>
<text text-anchor="middle" x="128" y="-63" font-family="Helvetica,sans-Serif" font-size="10.00"> length</text>
<text text-anchor="middle" x="128" y="-52" font-family="Helvetica,sans-Serif" font-size="10.00">startlba</text>
</g>
<!-- Node4 -->
<g id="node4" class="node">
<title>Node4</title>
<g id="a_node4"><a xlink:title=" ">
<polygon fill="none" stroke="#bfbfbf" points="155,-100.5 155,-119.5 205,-119.5 205,-100.5 155,-100.5"/>
<text text-anchor="middle" x="180" y="-107.5" font-family="Helvetica,sans-Serif" font-size="10.00">uint8_t</text>
</a>
</g>
</g>
<!-- Node4&#45;&gt;Node1 -->
<g id="edge3" class="edge">
<title>Node4&#45;&gt;Node1</title>
<path fill="none" stroke="#9a32cd" stroke-dasharray="5,2" d="M175.74,-90.36C171.5,-75 163.74,-53.32 151,-38 144.68,-30.4 135.66,-24.22 127.6,-19.69"/>
<polygon fill="#9a32cd" stroke="#9a32cd" points="172.4,-91.41 178.23,-100.25 179.18,-89.7 172.4,-91.41"/>
<text text-anchor="middle" x="196.5" y="-74" font-family="Helvetica,sans-Serif" font-size="10.00"> bootable</text>
<text text-anchor="middle" x="196.5" y="-63" font-family="Helvetica,sans-Serif" font-size="10.00">endhead</text>
<text text-anchor="middle" x="196.5" y="-52" font-family="Helvetica,sans-Serif" font-size="10.00">starthead</text>
<text text-anchor="middle" x="196.5" y="-41" font-family="Helvetica,sans-Serif" font-size="10.00">systemid</text>
</g>
</g>
</svg>
