<?xml version="1.0" encoding="UTF-8" standalone="no"?>
<!DOCTYPE svg PUBLIC "-//W3C//DTD SVG 1.1//EN"
 "http://www.w3.org/Graphics/SVG/1.1/DTD/svg11.dtd">
<!-- Generated by graphviz version 2.43.0 (0)
 -->
<!-- Title: queue_t Pages: 1 -->
<svg width="737pt" height="354pt"
 viewBox="0.00 0.00 737.00 354.00" xmlns="http://www.w3.org/2000/svg" xmlns:xlink="http://www.w3.org/1999/xlink">
<g id="graph0" class="graph" transform="scale(1 1) rotate(0) translate(4 350)">
<title>queue_t</title>
<!-- Node1 -->
<g id="node1" class="node">
<title>Node1</title>
<g id="a_node1"><a xlink:title=" ">
<polygon fill="#bfbfbf" stroke="black" points="0,-258.5 0,-277.5 56,-277.5 56,-258.5 0,-258.5"/>
<text text-anchor="middle" x="28" y="-265.5" font-family="Helvetica,sans-Serif" font-size="10.00">queue_t</text>
</a>
</g>
</g>
<!-- Node4 -->
<g id="node4" class="node">
<title>Node4</title>
<g id="a_node4"><a xlink:href="structtcp__conn__t.html" target="_top" xlink:title=" ">
<polygon fill="none" stroke="black" points="298.5,-68.5 298.5,-87.5 367.5,-87.5 367.5,-68.5 298.5,-68.5"/>
<text text-anchor="middle" x="333" y="-75.5" font-family="Helvetica,sans-Serif" font-size="10.00">tcp_conn_t</text>
</a>
</g>
</g>
<!-- Node1&#45;&gt;Node4 -->
<g id="edge9" class="edge">
<title>Node1&#45;&gt;Node4</title>
<path fill="none" stroke="#9a32cd" stroke-dasharray="5,2" d="M27.42,-248.3C26.68,-210.34 27.35,-126.25 47,-107 64.64,-89.72 226.08,-82.42 298.33,-80"/>
<polygon fill="#9a32cd" stroke="#9a32cd" points="23.93,-248.56 27.68,-258.47 30.93,-248.38 23.93,-248.56"/>
<text text-anchor="middle" x="68.5" y="-170.5" font-family="Helvetica,sans-Serif" font-size="10.00"> pending</text>
</g>
<!-- Node2 -->
<g id="node2" class="node">
<title>Node2</title>
<g id="a_node2"><a xlink:href="structpending__node__t.html" target="_top" xlink:title=" ">
<polygon fill="none" stroke="black" points="286,-0.5 286,-19.5 380,-19.5 380,-0.5 286,-0.5"/>
<text text-anchor="middle" x="333" y="-7.5" font-family="Helvetica,sans-Serif" font-size="10.00">pending_node_t</text>
</a>
</g>
</g>
<!-- Node2&#45;&gt;Node1 -->
<g id="edge1" class="edge">
<title>Node2&#45;&gt;Node1</title>
<path fill="none" stroke="#9a32cd" stroke-dasharray="5,2" d="M276.1,-20.81C196.56,-35.8 58.54,-66.96 29,-107 -5.8,-154.17 16.09,-232.28 24.86,-258.28"/>
<polygon fill="#9a32cd" stroke="#9a32cd" points="276.78,-24.24 285.97,-18.97 275.5,-17.36 276.78,-24.24"/>
<text text-anchor="middle" x="111" y="-81" font-family="Helvetica,sans-Serif" font-size="10.00"> head</text>
<text text-anchor="middle" x="111" y="-70" font-family="Helvetica,sans-Serif" font-size="10.00">tail</text>
</g>
<!-- Node3 -->
<g id="node3" class="node">
<title>Node3</title>
<g id="a_node3"><a xlink:title=" ">
<polygon fill="none" stroke="#bfbfbf" points="386,-68.5 386,-87.5 510,-87.5 510,-68.5 386,-68.5"/>
<text text-anchor="middle" x="448" y="-75.5" font-family="Helvetica,sans-Serif" font-size="10.00">struct pending_node *</text>
</a>
</g>
</g>
<!-- Node3&#45;&gt;Node2 -->
<g id="edge2" class="edge">
<title>Node3&#45;&gt;Node2</title>
<path fill="none" stroke="#9a32cd" stroke-dasharray="5,2" d="M424.2,-63.34C401.31,-50.2 367.41,-30.75 348.04,-19.63"/>
<polygon fill="#9a32cd" stroke="#9a32cd" points="422.55,-66.43 432.97,-68.37 426.03,-60.36 422.55,-66.43"/>
<text text-anchor="middle" x="409.5" y="-41" font-family="Helvetica,sans-Serif" font-size="10.00"> next</text>
</g>
<!-- Node4&#45;&gt;Node2 -->
<g id="edge3" class="edge">
<title>Node4&#45;&gt;Node2</title>
<path fill="none" stroke="#9a32cd" stroke-dasharray="5,2" d="M333,-58.04C333,-45.47 333,-29.56 333,-19.84"/>
<polygon fill="#9a32cd" stroke="#9a32cd" points="329.5,-58.37 333,-68.37 336.5,-58.37 329.5,-58.37"/>
<text text-anchor="middle" x="346.5" y="-41" font-family="Helvetica,sans-Serif" font-size="10.00"> conn</text>
</g>
<!-- Node5 -->
<g id="node5" class="node">
<title>Node5</title>
<g id="a_node5"><a xlink:title=" ">
<polygon fill="none" stroke="#bfbfbf" points="86,-258.5 86,-277.5 142,-277.5 142,-258.5 86,-258.5"/>
<text text-anchor="middle" x="114" y="-265.5" font-family="Helvetica,sans-Serif" font-size="10.00">uint16_t</text>
</a>
</g>
</g>
<!-- Node5&#45;&gt;Node4 -->
<g id="edge4" class="edge">
<title>Node5&#45;&gt;Node4</title>
<path fill="none" stroke="#9a32cd" stroke-dasharray="5,2" d="M107.27,-248.7C96.49,-215.85 79.93,-146.61 115,-107 138.52,-80.43 242.95,-77.69 298.29,-78.18"/>
<polygon fill="#9a32cd" stroke="#9a32cd" points="104.03,-250.05 110.62,-258.35 110.65,-247.76 104.03,-250.05"/>
<text text-anchor="middle" x="145.5" y="-176" font-family="Helvetica,sans-Serif" font-size="10.00"> local_port</text>
<text text-anchor="middle" x="145.5" y="-165" font-family="Helvetica,sans-Serif" font-size="10.00">remote_port</text>
</g>
<!-- Node6 -->
<g id="node6" class="node">
<title>Node6</title>
<g id="a_node6"><a xlink:title=" ">
<polygon fill="none" stroke="#bfbfbf" points="191.5,-326.5 191.5,-345.5 236.5,-345.5 236.5,-326.5 191.5,-326.5"/>
<text text-anchor="middle" x="214" y="-333.5" font-family="Helvetica,sans-Serif" font-size="10.00">size_t</text>
</a>
</g>
</g>
<!-- Node6&#45;&gt;Node4 -->
<g id="edge5" class="edge">
<title>Node6&#45;&gt;Node4</title>
<path fill="none" stroke="#9a32cd" stroke-dasharray="5,2" d="M203.3,-317.45C194.97,-301.5 185.93,-277.41 193,-257 219.62,-180.09 294.73,-111.18 322.5,-87.61"/>
<polygon fill="#9a32cd" stroke="#9a32cd" points="200.28,-319.23 208.23,-326.22 206.38,-315.79 200.28,-319.23"/>
<text text-anchor="middle" x="232.5" y="-271" font-family="Helvetica,sans-Serif" font-size="10.00"> recv_buffer_len</text>
<text text-anchor="middle" x="232.5" y="-260" font-family="Helvetica,sans-Serif" font-size="10.00">send_buffer_len</text>
</g>
<!-- Node10 -->
<g id="node10" class="node">
<title>Node10</title>
<g id="a_node10"><a xlink:href="structtcp__ordered__list__t.html" target="_top" xlink:title=" ">
<polygon fill="none" stroke="black" points="281,-258.5 281,-277.5 385,-277.5 385,-258.5 281,-258.5"/>
<text text-anchor="middle" x="333" y="-265.5" font-family="Helvetica,sans-Serif" font-size="10.00">tcp_ordered_list_t</text>
</a>
</g>
</g>
<!-- Node6&#45;&gt;Node10 -->
<g id="edge11" class="edge">
<title>Node6&#45;&gt;Node10</title>
<path fill="none" stroke="#9a32cd" stroke-dasharray="5,2" d="M238.31,-321.51C262,-308.38 297.3,-288.8 317.44,-277.63"/>
<polygon fill="#9a32cd" stroke="#9a32cd" points="236.6,-318.46 229.56,-326.37 240,-324.58 236.6,-318.46"/>
<text text-anchor="middle" x="289.5" y="-300" font-family="Helvetica,sans-Serif" font-size="10.00"> len</text>
</g>
<!-- Node7 -->
<g id="node7" class="node">
<title>Node7</title>
<g id="a_node7"><a xlink:title=" ">
<polygon fill="none" stroke="#bfbfbf" points="446,-258.5 446,-277.5 502,-277.5 502,-258.5 446,-258.5"/>
<text text-anchor="middle" x="474" y="-265.5" font-family="Helvetica,sans-Serif" font-size="10.00">uint32_t</text>
</a>
</g>
</g>
<!-- Node7&#45;&gt;Node4 -->
<g id="edge6" class="edge">
<title>Node7&#45;&gt;Node4</title>
<path fill="none" stroke="#9a32cd" stroke-dasharray="5,2" d="M449.78,-252.45C444.96,-248.6 440.36,-244.08 437,-239 403.66,-188.55 443.88,-152.46 404,-107 398.19,-100.38 379.25,-93.08 362.4,-87.59"/>
<polygon fill="#9a32cd" stroke="#9a32cd" points="447.74,-255.3 457.91,-258.28 451.81,-249.61 447.74,-255.3"/>
<text text-anchor="middle" x="468.5" y="-231" font-family="Helvetica,sans-Serif" font-size="10.00"> irs</text>
<text text-anchor="middle" x="468.5" y="-220" font-family="Helvetica,sans-Serif" font-size="10.00">iss</text>
<text text-anchor="middle" x="468.5" y="-209" font-family="Helvetica,sans-Serif" font-size="10.00">local_addr</text>
<text text-anchor="middle" x="468.5" y="-198" font-family="Helvetica,sans-Serif" font-size="10.00">msl_time</text>
<text text-anchor="middle" x="468.5" y="-187" font-family="Helvetica,sans-Serif" font-size="10.00">rcv_lst</text>
<text text-anchor="middle" x="468.5" y="-176" font-family="Helvetica,sans-Serif" font-size="10.00">rcv_nxt</text>
<text text-anchor="middle" x="468.5" y="-165" font-family="Helvetica,sans-Serif" font-size="10.00">rcv_up</text>
<text text-anchor="middle" x="468.5" y="-154" font-family="Helvetica,sans-Serif" font-size="10.00">rcv_wnd</text>
<text text-anchor="start" x="437" y="-143" font-family="Helvetica,sans-Serif" font-size="10.00">recv_buffer</text>
<text text-anchor="middle" x="468.5" y="-132" font-family="Helvetica,sans-Serif" font-size="10.00">_spinlock</text>
<text text-anchor="middle" x="468.5" y="-121" font-family="Helvetica,sans-Serif" font-size="10.00">remote_addr</text>
<text text-anchor="middle" x="468.5" y="-110" font-family="Helvetica,sans-Serif" font-size="10.00">...</text>
</g>
<!-- Node8 -->
<g id="node8" class="node">
<title>Node8</title>
<g id="a_node8"><a xlink:title=" ">
<polygon fill="none" stroke="#bfbfbf" points="520.5,-258.5 520.5,-277.5 549.5,-277.5 549.5,-258.5 520.5,-258.5"/>
<text text-anchor="middle" x="535" y="-265.5" font-family="Helvetica,sans-Serif" font-size="10.00">int</text>
</a>
</g>
</g>
<!-- Node8&#45;&gt;Node4 -->
<g id="edge7" class="edge">
<title>Node8&#45;&gt;Node4</title>
<path fill="none" stroke="#9a32cd" stroke-dasharray="5,2" d="M526.62,-249.15C525.27,-245.83 523.99,-242.35 523,-239 506.05,-181.91 542.68,-148.53 500,-107 480.2,-87.73 404.16,-94.06 377,-89 373.92,-88.43 370.73,-87.79 367.53,-87.12"/>
<polygon fill="#9a32cd" stroke="#9a32cd" points="523.45,-250.62 530.68,-258.37 529.85,-247.8 523.45,-250.62"/>
<text text-anchor="middle" x="556.5" y="-187" font-family="Helvetica,sans-Serif" font-size="10.00"> backlog</text>
<text text-anchor="middle" x="556.5" y="-176" font-family="Helvetica,sans-Serif" font-size="10.00">fd</text>
<text text-anchor="middle" x="556.5" y="-165" font-family="Helvetica,sans-Serif" font-size="10.00">recv_eof_pos</text>
<text text-anchor="middle" x="556.5" y="-154" font-family="Helvetica,sans-Serif" font-size="10.00">send_eof_pos</text>
</g>
<!-- Node9 -->
<g id="node9" class="node">
<title>Node9</title>
<g id="a_node9"><a xlink:title=" ">
<polygon fill="none" stroke="#bfbfbf" points="587,-258.5 587,-277.5 637,-277.5 637,-258.5 587,-258.5"/>
<text text-anchor="middle" x="612" y="-265.5" font-family="Helvetica,sans-Serif" font-size="10.00">uint8_t</text>
</a>
</g>
</g>
<!-- Node9&#45;&gt;Node4 -->
<g id="edge8" class="edge">
<title>Node9&#45;&gt;Node4</title>
<path fill="none" stroke="#9a32cd" stroke-dasharray="5,2" d="M612.23,-248.25C612.25,-210.22 610,-125.98 590,-107 572.77,-90.65 400.47,-92.64 377,-89 374.06,-88.54 371.02,-88 367.98,-87.41"/>
<polygon fill="#9a32cd" stroke="#9a32cd" points="608.72,-248.43 612.16,-258.45 615.72,-248.47 608.72,-248.43"/>
<text text-anchor="middle" x="641" y="-176" font-family="Helvetica,sans-Serif" font-size="10.00"> recv_buffer</text>
<text text-anchor="middle" x="641" y="-165" font-family="Helvetica,sans-Serif" font-size="10.00">send_buffer</text>
</g>
<!-- Node10&#45;&gt;Node4 -->
<g id="edge10" class="edge">
<title>Node10&#45;&gt;Node4</title>
<path fill="none" stroke="#9a32cd" stroke-dasharray="5,2" d="M333,-248.24C333,-208.31 333,-116.2 333,-87.62"/>
<polygon fill="#9a32cd" stroke="#9a32cd" points="329.5,-248.43 333,-258.43 336.5,-248.43 329.5,-248.43"/>
<text text-anchor="middle" x="366.5" y="-170.5" font-family="Helvetica,sans-Serif" font-size="10.00"> segment_list</text>
</g>
<!-- Node10&#45;&gt;Node10 -->
<g id="edge13" class="edge">
<title>Node10&#45;&gt;Node10</title>
<path fill="none" stroke="#9a32cd" stroke-dasharray="5,2" d="M395.4,-272.77C400.11,-271.71 403,-270.12 403,-268 403,-264.61 395.59,-262.58 385.2,-261.89"/>
<polygon fill="#9a32cd" stroke="#9a32cd" points="394.66,-269.34 385.2,-274.11 395.57,-276.28 394.66,-269.34"/>
<text text-anchor="middle" x="415.5" y="-271" font-family="Helvetica,sans-Serif" font-size="10.00"> next</text>
<text text-anchor="middle" x="415.5" y="-260" font-family="Helvetica,sans-Serif" font-size="10.00">prev</text>
</g>
<!-- Node11 -->
<g id="node11" class="node">
<title>Node11</title>
<g id="a_node11"><a xlink:title=" ">
<polygon fill="none" stroke="#bfbfbf" points="284.5,-326.5 284.5,-345.5 381.5,-345.5 381.5,-326.5 284.5,-326.5"/>
<text text-anchor="middle" x="333" y="-333.5" font-family="Helvetica,sans-Serif" font-size="10.00">tcp_segment_t *</text>
</a>
</g>
</g>
<!-- Node11&#45;&gt;Node10 -->
<g id="edge12" class="edge">
<title>Node11&#45;&gt;Node10</title>
<path fill="none" stroke="#9a32cd" stroke-dasharray="5,2" d="M333,-316.04C333,-303.47 333,-287.56 333,-277.84"/>
<polygon fill="#9a32cd" stroke="#9a32cd" points="329.5,-316.37 333,-326.37 336.5,-316.37 329.5,-316.37"/>
<text text-anchor="middle" x="356" y="-300" font-family="Helvetica,sans-Serif" font-size="10.00"> segment</text>
</g>
<!-- Node12 -->
<g id="node12" class="node">
<title>Node12</title>
<g id="a_node12"><a xlink:title=" ">
<polygon fill="none" stroke="#bfbfbf" points="657.5,-258.5 657.5,-277.5 728.5,-277.5 728.5,-258.5 657.5,-258.5"/>
<text text-anchor="middle" x="693" y="-265.5" font-family="Helvetica,sans-Serif" font-size="10.00">tcp_state_t</text>
</a>
</g>
</g>
<!-- Node12&#45;&gt;Node4 -->
<g id="edge14" class="edge">
<title>Node12&#45;&gt;Node4</title>
<path fill="none" stroke="#9a32cd" stroke-dasharray="5,2" d="M697.03,-248.53C703.16,-214.83 710.35,-143.48 671,-107 647,-84.75 409.4,-93.64 377,-89 374.05,-88.58 371.01,-88.06 367.97,-87.49"/>
<polygon fill="#9a32cd" stroke="#9a32cd" points="693.58,-247.92 695.05,-258.41 700.44,-249.29 693.58,-247.92"/>
<text text-anchor="middle" x="715" y="-170.5" font-family="Helvetica,sans-Serif" font-size="10.00"> state</text>
</g>
</g>
</svg>
