<?xml version="1.0" encoding="UTF-8" standalone="no"?>
<!DOCTYPE svg PUBLIC "-//W3C//DTD SVG 1.1//EN"
 "http://www.w3.org/Graphics/SVG/1.1/DTD/svg11.dtd">
<!-- Generated by graphviz version 2.43.0 (0)
 -->
<!-- Title: ide_device Pages: 1 -->
<svg width="311pt" height="128pt"
 viewBox="0.00 0.00 311.00 128.00" xmlns="http://www.w3.org/2000/svg" xmlns:xlink="http://www.w3.org/1999/xlink">
<g id="graph0" class="graph" transform="scale(1 1) rotate(0) translate(4 124)">
<title>ide_device</title>
<!-- Node1 -->
<g id="node1" class="node">
<title>Node1</title>
<g id="a_node1"><a xlink:title=" ">
<polygon fill="#bfbfbf" stroke="black" points="102.5,-0.5 102.5,-19.5 171.5,-19.5 171.5,-0.5 102.5,-0.5"/>
<text text-anchor="middle" x="137" y="-7.5" font-family="Helvetica,sans-Serif" font-size="10.00">ide_device</text>
</a>
</g>
</g>
<!-- Node2 -->
<g id="node2" class="node">
<title>Node2</title>
<g id="a_node2"><a xlink:title=" ">
<polygon fill="none" stroke="black" points="0,-100.5 0,-119.5 50,-119.5 50,-100.5 0,-100.5"/>
<text text-anchor="middle" x="25" y="-107.5" font-family="Helvetica,sans-Serif" font-size="10.00">uint8_t</text>
</a>
</g>
</g>
<!-- Node2&#45;&gt;Node1 -->
<g id="edge1" class="edge">
<title>Node2&#45;&gt;Node1</title>
<path fill="none" stroke="#9a32cd" stroke-dasharray="5,2" d="M24.85,-90.01C25.76,-74.1 29.61,-51.81 43,-38 58.36,-22.15 82.36,-15.43 102.26,-12.66"/>
<polygon fill="#9a32cd" stroke="#9a32cd" points="21.35,-90.19 24.61,-100.27 28.34,-90.35 21.35,-90.19"/>
<text text-anchor="middle" x="64.5" y="-74" font-family="Helvetica,sans-Serif" font-size="10.00"> channel</text>
<text text-anchor="middle" x="64.5" y="-63" font-family="Helvetica,sans-Serif" font-size="10.00">drive</text>
<text text-anchor="middle" x="64.5" y="-52" font-family="Helvetica,sans-Serif" font-size="10.00">model</text>
<text text-anchor="middle" x="64.5" y="-41" font-family="Helvetica,sans-Serif" font-size="10.00">reserved</text>
</g>
<!-- Node3 -->
<g id="node3" class="node">
<title>Node3</title>
<g id="a_node3"><a xlink:title=" ">
<polygon fill="none" stroke="black" points="68,-100.5 68,-119.5 124,-119.5 124,-100.5 68,-100.5"/>
<text text-anchor="middle" x="96" y="-107.5" font-family="Helvetica,sans-Serif" font-size="10.00">uint16_t</text>
</a>
</g>
</g>
<!-- Node3&#45;&gt;Node1 -->
<g id="edge2" class="edge">
<title>Node3&#45;&gt;Node1</title>
<path fill="none" stroke="#9a32cd" stroke-dasharray="5,2" d="M91.68,-89.9C89.33,-74.88 88.4,-53.9 97,-38 101.3,-30.04 109.09,-23.99 116.67,-19.66"/>
<polygon fill="#9a32cd" stroke="#9a32cd" points="88.31,-90.89 93.63,-100.05 95.18,-89.56 88.31,-90.89"/>
<text text-anchor="middle" x="127" y="-68.5" font-family="Helvetica,sans-Serif" font-size="10.00"> capabilities</text>
<text text-anchor="middle" x="127" y="-57.5" font-family="Helvetica,sans-Serif" font-size="10.00">sign</text>
<text text-anchor="middle" x="127" y="-46.5" font-family="Helvetica,sans-Serif" font-size="10.00">type</text>
</g>
<!-- Node4 -->
<g id="node4" class="node">
<title>Node4</title>
<g id="a_node4"><a xlink:title=" ">
<polygon fill="none" stroke="black" points="151,-100.5 151,-119.5 207,-119.5 207,-100.5 151,-100.5"/>
<text text-anchor="middle" x="179" y="-107.5" font-family="Helvetica,sans-Serif" font-size="10.00">uint32_t</text>
</a>
</g>
</g>
<!-- Node4&#45;&gt;Node1 -->
<g id="edge3" class="edge">
<title>Node4&#45;&gt;Node1</title>
<path fill="none" stroke="#9a32cd" stroke-dasharray="5,2" d="M175.07,-90.44C171.53,-75.71 165.55,-54.88 157,-38 153.62,-31.34 148.62,-24.59 144.47,-19.5"/>
<polygon fill="#9a32cd" stroke="#9a32cd" points="171.69,-91.35 177.31,-100.34 178.51,-89.81 171.69,-91.35"/>
<text text-anchor="middle" x="208.5" y="-57.5" font-family="Helvetica,sans-Serif" font-size="10.00"> commandsets</text>
</g>
<!-- Node5 -->
<g id="node5" class="node">
<title>Node5</title>
<g id="a_node5"><a xlink:title=" ">
<polygon fill="none" stroke="black" points="247,-100.5 247,-119.5 303,-119.5 303,-100.5 247,-100.5"/>
<text text-anchor="middle" x="275" y="-107.5" font-family="Helvetica,sans-Serif" font-size="10.00">uint64_t</text>
</a>
</g>
</g>
<!-- Node5&#45;&gt;Node1 -->
<g id="edge4" class="edge">
<title>Node5&#45;&gt;Node1</title>
<path fill="none" stroke="#9a32cd" stroke-dasharray="5,2" d="M273.03,-90.18C270.33,-74.04 263.97,-51.34 249,-38 227.95,-19.23 196.11,-12.95 171.75,-11.09"/>
<polygon fill="#9a32cd" stroke="#9a32cd" points="269.56,-90.67 274.37,-100.11 276.5,-89.73 269.56,-90.67"/>
<text text-anchor="middle" x="282.5" y="-57.5" font-family="Helvetica,sans-Serif" font-size="10.00"> size</text>
</g>
</g>
</svg>
