<?xml version="1.0" encoding="UTF-8" standalone="no"?>
<!DOCTYPE svg PUBLIC "-//W3C//DTD SVG 1.1//EN"
 "http://www.w3.org/Graphics/SVG/1.1/DTD/svg11.dtd">
<!-- Generated by graphviz version 2.43.0 (0)
 -->
<!-- Title: ub_var_double_array Pages: 1 -->
<svg width="300pt" height="162pt"
 viewBox="0.00 0.00 300.00 162.00" xmlns="http://www.w3.org/2000/svg" xmlns:xlink="http://www.w3.org/1999/xlink">
<g id="graph0" class="graph" transform="scale(1 1) rotate(0) translate(4 158)">
<title>ub_var_double_array</title>
<!-- Node1 -->
<g id="node1" class="node">
<title>Node1</title>
<g id="a_node1"><a xlink:title=" ">
<polygon fill="#bfbfbf" stroke="black" points="36.5,-0.5 36.5,-19.5 155.5,-19.5 155.5,-0.5 36.5,-0.5"/>
<text text-anchor="middle" x="96" y="-7.5" font-family="Helvetica,sans-Serif" font-size="10.00">ub_var_double_array</text>
</a>
</g>
</g>
<!-- Node2 -->
<g id="node2" class="node">
<title>Node2</title>
<g id="a_node2"><a xlink:title=" ">
<polygon fill="none" stroke="#bfbfbf" points="0,-67.5 0,-86.5 56,-86.5 56,-67.5 0,-67.5"/>
<text text-anchor="middle" x="28" y="-74.5" font-family="Helvetica,sans-Serif" font-size="10.00">uint64_t</text>
</a>
</g>
</g>
<!-- Node2&#45;&gt;Node1 -->
<g id="edge1" class="edge">
<title>Node2&#45;&gt;Node1</title>
<path fill="none" stroke="#9a32cd" stroke-dasharray="5,2" d="M24.48,-57.14C24.24,-50.58 25.19,-43.49 29,-38 34.94,-29.45 44.07,-23.61 53.7,-19.61"/>
<polygon fill="#9a32cd" stroke="#9a32cd" points="21.03,-57.82 25.71,-67.32 27.98,-56.97 21.03,-57.82"/>
<text text-anchor="middle" x="55.5" y="-41" font-family="Helvetica,sans-Serif" font-size="10.00"> itemcount</text>
</g>
<!-- Node3 -->
<g id="node3" class="node">
<title>Node3</title>
<g id="a_node3"><a xlink:title=" ">
<polygon fill="none" stroke="#bfbfbf" points="93,-134.5 93,-153.5 131,-153.5 131,-134.5 93,-134.5"/>
<text text-anchor="middle" x="112" y="-141.5" font-family="Helvetica,sans-Serif" font-size="10.00">char</text>
</a>
</g>
</g>
<!-- Node3&#45;&gt;Node1 -->
<g id="edge2" class="edge">
<title>Node3&#45;&gt;Node1</title>
<path fill="none" stroke="#9a32cd" stroke-dasharray="5,2" d="M109.63,-124.25C108.26,-113.37 106.51,-99.42 105,-87 102.05,-62.73 98.69,-34.09 97.03,-19.89"/>
<polygon fill="#9a32cd" stroke="#9a32cd" points="106.17,-124.79 110.89,-134.27 113.11,-123.91 106.17,-124.79"/>
<text text-anchor="middle" x="128.5" y="-74.5" font-family="Helvetica,sans-Serif" font-size="10.00"> varname</text>
</g>
<!-- Node4 -->
<g id="node4" class="node">
<title>Node4</title>
<g id="a_node4"><a xlink:href="structub__var__double.html" target="_top" xlink:title=" ">
<polygon fill="none" stroke="black" points="161,-67.5 161,-86.5 249,-86.5 249,-67.5 161,-67.5"/>
<text text-anchor="middle" x="205" y="-74.5" font-family="Helvetica,sans-Serif" font-size="10.00">ub_var_double</text>
</a>
</g>
</g>
<!-- Node3&#45;&gt;Node4 -->
<g id="edge5" class="edge">
<title>Node3&#45;&gt;Node4</title>
<path fill="none" stroke="#9a32cd" stroke-dasharray="5,2" d="M126.66,-127.1C133.86,-119.82 142.93,-111.42 152,-105 162.2,-97.79 174.6,-91.36 184.84,-86.59"/>
<polygon fill="#9a32cd" stroke="#9a32cd" points="124.05,-124.76 119.66,-134.4 129.11,-129.6 124.05,-124.76"/>
<text text-anchor="middle" x="175.5" y="-108" font-family="Helvetica,sans-Serif" font-size="10.00"> varname</text>
</g>
<!-- Node4&#45;&gt;Node1 -->
<g id="edge3" class="edge">
<title>Node4&#45;&gt;Node1</title>
<path fill="none" stroke="#9a32cd" stroke-dasharray="5,2" d="M181.43,-61.94C159.84,-49.07 128.58,-30.43 110.47,-19.63"/>
<polygon fill="#9a32cd" stroke="#9a32cd" points="179.92,-65.12 190.3,-67.23 183.5,-59.11 179.92,-65.12"/>
<text text-anchor="middle" x="175" y="-41" font-family="Helvetica,sans-Serif" font-size="10.00"> values</text>
</g>
<!-- Node4&#45;&gt;Node4 -->
<g id="edge6" class="edge">
<title>Node4&#45;&gt;Node4</title>
<path fill="none" stroke="#9a32cd" stroke-dasharray="5,2" d="M259.26,-81.71C264.02,-80.72 267,-79.15 267,-77 267,-73.56 259.37,-71.6 249.02,-71.12"/>
<polygon fill="#9a32cd" stroke="#9a32cd" points="258.56,-78.27 249.02,-82.88 259.36,-85.23 258.56,-78.27"/>
<text text-anchor="middle" x="279.5" y="-74.5" font-family="Helvetica,sans-Serif" font-size="10.00"> next</text>
</g>
<!-- Node5 -->
<g id="node5" class="node">
<title>Node5</title>
<g id="a_node5"><a xlink:title=" ">
<polygon fill="none" stroke="#bfbfbf" points="178,-134.5 178,-153.5 228,-153.5 228,-134.5 178,-134.5"/>
<text text-anchor="middle" x="203" y="-141.5" font-family="Helvetica,sans-Serif" font-size="10.00">double</text>
</a>
</g>
</g>
<!-- Node5&#45;&gt;Node4 -->
<g id="edge4" class="edge">
<title>Node5&#45;&gt;Node4</title>
<path fill="none" stroke="#9a32cd" stroke-dasharray="5,2" d="M203.58,-124.04C203.96,-111.67 204.44,-96.12 204.73,-86.63"/>
<polygon fill="#9a32cd" stroke="#9a32cd" points="200.08,-124.13 203.27,-134.23 207.08,-124.35 200.08,-124.13"/>
<text text-anchor="middle" x="219.5" y="-108" font-family="Helvetica,sans-Serif" font-size="10.00"> value</text>
</g>
<!-- Node6 -->
<g id="node6" class="node">
<title>Node6</title>
<g id="a_node6"><a xlink:title=" ">
<polygon fill="none" stroke="#bfbfbf" points="246,-134.5 246,-153.5 284,-153.5 284,-134.5 246,-134.5"/>
<text text-anchor="middle" x="265" y="-141.5" font-family="Helvetica,sans-Serif" font-size="10.00">bool</text>
</a>
</g>
</g>
<!-- Node6&#45;&gt;Node4 -->
<g id="edge7" class="edge">
<title>Node6&#45;&gt;Node4</title>
<path fill="none" stroke="#9a32cd" stroke-dasharray="5,2" d="M254.78,-125.77C250.35,-118.96 244.84,-111.27 239,-105 232.63,-98.16 224.45,-91.61 217.72,-86.68"/>
<polygon fill="#9a32cd" stroke="#9a32cd" points="251.84,-127.66 260.09,-134.31 257.78,-123.97 251.84,-127.66"/>
<text text-anchor="middle" x="264" y="-108" font-family="Helvetica,sans-Serif" font-size="10.00"> global</text>
</g>
</g>
</svg>
