<?xml version="1.0" encoding="UTF-8" standalone="no"?>
<!DOCTYPE svg PUBLIC "-//W3C//DTD SVG 1.1//EN"
 "http://www.w3.org/Graphics/SVG/1.1/DTD/svg11.dtd">
<!-- Generated by graphviz version 2.43.0 (0)
 -->
<!-- Title: packet_queue_item_t Pages: 1 -->
<svg width="350pt" height="106pt"
 viewBox="0.00 0.00 349.50 106.00" xmlns="http://www.w3.org/2000/svg" xmlns:xlink="http://www.w3.org/1999/xlink">
<g id="graph0" class="graph" transform="scale(1 1) rotate(0) translate(4 102)">
<title>packet_queue_item_t</title>
<!-- Node1 -->
<g id="node1" class="node">
<title>Node1</title>
<g id="a_node1"><a xlink:title=" ">
<polygon fill="#bfbfbf" stroke="black" points="88.5,-0.5 88.5,-19.5 209.5,-19.5 209.5,-0.5 88.5,-0.5"/>
<text text-anchor="middle" x="149" y="-7.5" font-family="Helvetica,sans-Serif" font-size="10.00">packet_queue_item_t</text>
</a>
</g>
</g>
<!-- Node2 -->
<g id="node2" class="node">
<title>Node2</title>
<g id="a_node2"><a xlink:title=" ">
<polygon fill="none" stroke="#bfbfbf" points="0,-73 0,-92 72,-92 72,-73 0,-73"/>
<text text-anchor="middle" x="36" y="-80" font-family="Helvetica,sans-Serif" font-size="10.00">ip_packet_t</text>
</a>
</g>
</g>
<!-- Node2&#45;&gt;Node1 -->
<g id="edge1" class="edge">
<title>Node2&#45;&gt;Node1</title>
<path fill="none" stroke="#9a32cd" stroke-dasharray="5,2" d="M47.37,-64.75C54.2,-55.77 63.57,-45.13 74,-38 86,-29.81 100.77,-23.79 114.03,-19.55"/>
<polygon fill="#9a32cd" stroke="#9a32cd" points="44.45,-62.82 41.45,-72.98 50.13,-66.91 44.45,-62.82"/>
<text text-anchor="middle" x="92" y="-41" font-family="Helvetica,sans-Serif" font-size="10.00"> packet</text>
</g>
<!-- Node3 -->
<g id="node3" class="node">
<title>Node3</title>
<g id="a_node3"><a xlink:title=" ">
<polygon fill="none" stroke="#bfbfbf" points="90,-73 90,-92 140,-92 140,-73 90,-73"/>
<text text-anchor="middle" x="115" y="-80" font-family="Helvetica,sans-Serif" font-size="10.00">int64_t</text>
</a>
</g>
</g>
<!-- Node3&#45;&gt;Node1 -->
<g id="edge2" class="edge">
<title>Node3&#45;&gt;Node1</title>
<path fill="none" stroke="#9a32cd" stroke-dasharray="5,2" d="M113.2,-62.78C113.19,-54.78 114.24,-45.56 118,-38 121.75,-30.46 128.63,-24.13 134.96,-19.51"/>
<polygon fill="#9a32cd" stroke="#9a32cd" points="109.71,-63.19 113.74,-72.99 116.7,-62.82 109.71,-63.19"/>
<text text-anchor="middle" x="139.5" y="-41" font-family="Helvetica,sans-Serif" font-size="10.00"> last_arp</text>
</g>
<!-- Node4 -->
<g id="node4" class="node">
<title>Node4</title>
<g id="a_node4"><a xlink:title=" ">
<polygon fill="none" stroke="#bfbfbf" points="158,-73 158,-92 208,-92 208,-73 158,-73"/>
<text text-anchor="middle" x="183" y="-80" font-family="Helvetica,sans-Serif" font-size="10.00">uint8_t</text>
</a>
</g>
</g>
<!-- Node4&#45;&gt;Node1 -->
<g id="edge3" class="edge">
<title>Node4&#45;&gt;Node1</title>
<path fill="none" stroke="#9a32cd" stroke-dasharray="5,2" d="M174.41,-63.68C167.63,-49.63 158.47,-30.64 153.2,-19.72"/>
<polygon fill="#9a32cd" stroke="#9a32cd" points="171.33,-65.37 178.83,-72.86 177.64,-62.33 171.33,-65.37"/>
<text text-anchor="middle" x="190" y="-41" font-family="Helvetica,sans-Serif" font-size="10.00"> arp_tries</text>
</g>
<!-- Node5 -->
<g id="node5" class="node">
<title>Node5</title>
<g id="a_node5"><a xlink:title=" ">
<polygon fill="none" stroke="#bfbfbf" points="226.5,-67.5 226.5,-97.5 341.5,-97.5 341.5,-67.5 226.5,-67.5"/>
<text text-anchor="start" x="234.5" y="-85.5" font-family="Helvetica,sans-Serif" font-size="10.00">struct packet_queue</text>
<text text-anchor="middle" x="284" y="-74.5" font-family="Helvetica,sans-Serif" font-size="10.00">_item *</text>
</a>
</g>
</g>
<!-- Node5&#45;&gt;Node1 -->
<g id="edge4" class="edge">
<title>Node5&#45;&gt;Node1</title>
<path fill="none" stroke="#9a32cd" stroke-dasharray="5,2" d="M256.18,-61.67C244.41,-53.75 230.35,-44.9 217,-38 203.23,-30.89 187.14,-24.42 174.07,-19.6"/>
<polygon fill="#9a32cd" stroke="#9a32cd" points="254.45,-64.73 264.68,-67.49 258.41,-58.96 254.45,-64.73"/>
<text text-anchor="middle" x="248.5" y="-41" font-family="Helvetica,sans-Serif" font-size="10.00"> next</text>
</g>
</g>
</svg>
