<?xml version="1.0" encoding="UTF-8" standalone="no"?>
<!DOCTYPE svg PUBLIC "-//W3C//DTD SVG 1.1//EN"
 "http://www.w3.org/Graphics/SVG/1.1/DTD/svg11.dtd">
<!-- Generated by graphviz version 2.43.0 (0)
 -->
<!-- Title: rfs_t Pages: 1 -->
<!--zoomable 230 -->
<svg id="main" version="1.1" xmlns="http://www.w3.org/2000/svg" xmlns:xlink="http://www.w3.org/1999/xlink" xml:space="preserve" onload="init(evt)">
<style type="text/css"><![CDATA[
.edge:hover path { stroke: red; }
.edge:hover polygon { stroke: red; fill: red; }
]]></style>
<script type="text/javascript"><![CDATA[
var edges = document.getElementsByTagName('g');
if (edges && edges.length) {
  for (var i=0;i<edges.length;i++) {
    if (edges[i].id.substr(0,4)=='edge') {
      edges[i].setAttribute('class','edge');
    }
  }
}
]]></script>
        <defs>
                <circle id="rim" cx="0" cy="0" r="7"/>
                <circle id="rim2" cx="0" cy="0" r="3.5"/>
                <g id="zoomPlus">
                        <use xlink:href="#rim" fill="#404040">
                                <set attributeName="fill" to="#808080" begin="zoomplus.mouseover" end="zoomplus.mouseout"/>
                        </use>
                        <path d="M-4,0h8M0,-4v8" fill="none" stroke="white" stroke-width="1.5" pointer-events="none"/>
                </g>
                <g id="zoomMin">
                        <use xlink:href="#rim" fill="#404040">
                                <set attributeName="fill" to="#808080" begin="zoomminus.mouseover" end="zoomminus.mouseout"/>
                        </use>
                        <path d="M-4,0h8" fill="none" stroke="white" stroke-width="1.5" pointer-events="none"/>
                </g>
                <g id="dirArrow">
                        <path fill="none" stroke="white" stroke-width="1.5" d="M0,-3.0v7 M-2.5,-0.5L0,-3.0L2.5,-0.5"/>
                </g>
               <g id="resetDef">
                       <use xlink:href="#rim2" fill="#404040">
                               <set attributeName="fill" to="#808080" begin="reset.mouseover" end="reset.mouseout"/>
                       </use>
               </g>
        </defs>

<script type="text/javascript">
var viewWidth = 529;
var viewHeight = 230;
var sectionId = 'dynsection-0';
</script>
<script xlink:href="svgpan.js"/>
<svg id="graph" class="graph">
<g id="viewport">
<title>rfs_t</title>
<!-- Node1 -->
<g id="node1" class="node">
<title>Node1</title>
<g id="a_node1"><a xlink:title=" ">
<polygon fill="#bfbfbf" stroke="black" points="102.83,-0.5 102.83,-19.5 140.83,-19.5 140.83,-0.5 102.83,-0.5"/>
<text text-anchor="middle" x="121.83" y="-7.5" font-family="Helvetica,sans-Serif" font-size="10.00">rfs_t</text>
</a>
</g>
</g>
<!-- Node2 -->
<g id="node2" class="node">
<title>Node2</title>
<g id="a_node2"><a xlink:href="structrfs__description__block__t.html" target="_top" xlink:title=" ">
<polygon fill="none" stroke="black" points="57.33,-68.5 57.33,-87.5 186.33,-87.5 186.33,-68.5 57.33,-68.5"/>
<text text-anchor="middle" x="121.83" y="-75.5" font-family="Helvetica,sans-Serif" font-size="10.00">rfs_description_block_t</text>
</a>
</g>
</g>
<!-- Node2&#45;&gt;Node1 -->
<g id="edge1" class="edge">
<title>Node2&#45;&gt;Node1</title>
<path fill="none" stroke="#9a32cd" stroke-dasharray="5,2" d="M121.83,-58.04C121.83,-45.47 121.83,-29.56 121.83,-19.84"/>
<polygon fill="#9a32cd" stroke="#9a32cd" points="118.33,-58.37 121.83,-68.37 125.33,-58.37 118.33,-58.37"/>
<text text-anchor="middle" x="134.83" y="-41" font-family="Helvetica,sans-Serif" font-size="10.00"> desc</text>
</g>
<!-- Node3 -->
<g id="node3" class="node">
<title>Node3</title>
<g id="a_node3"><a xlink:title=" ">
<polygon fill="none" stroke="#bfbfbf" points="9.83,-202.5 9.83,-221.5 65.83,-221.5 65.83,-202.5 9.83,-202.5"/>
<text text-anchor="middle" x="37.83" y="-209.5" font-family="Helvetica,sans-Serif" font-size="10.00">uint64_t</text>
</a>
</g>
</g>
<!-- Node3&#45;&gt;Node1 -->
<g id="edge3" class="edge">
<title>Node3&#45;&gt;Node1</title>
<path fill="none" stroke="#9a32cd" stroke-dasharray="5,2" d="M26.74,-193.45C25.2,-190.4 23.81,-187.18 22.83,-184 7.38,-134.19 -13.26,-111.56 13.83,-67 33.14,-35.24 76.94,-20.68 102.44,-14.68"/>
<polygon fill="#9a32cd" stroke="#9a32cd" points="23.86,-195.47 31.85,-202.42 29.94,-192 23.86,-195.47"/>
<text text-anchor="middle" x="30.83" y="-81" font-family="Helvetica,sans-Serif" font-size="10.00"> length</text>
<text text-anchor="middle" x="30.83" y="-70" font-family="Helvetica,sans-Serif" font-size="10.00">start</text>
</g>
<!-- Node3&#45;&gt;Node2 -->
<g id="edge2" class="edge">
<title>Node3&#45;&gt;Node2</title>
<path fill="none" stroke="#9a32cd" stroke-dasharray="5,2" d="M32.1,-192.52C26.35,-170.04 20.69,-132.01 38.83,-107 45.44,-97.89 55.16,-91.71 65.64,-87.52"/>
<polygon fill="#9a32cd" stroke="#9a32cd" points="28.82,-193.77 34.91,-202.44 35.55,-191.87 28.82,-193.77"/>
<text text-anchor="middle" x="106.83" y="-176" font-family="Helvetica,sans-Serif" font-size="10.00"> creation_time</text>
<text text-anchor="middle" x="106.83" y="-165" font-family="Helvetica,sans-Serif" font-size="10.00">free_space_map_checksum</text>
<text text-anchor="middle" x="106.83" y="-154" font-family="Helvetica,sans-Serif" font-size="10.00">free_space_map_length</text>
<text text-anchor="middle" x="106.83" y="-143" font-family="Helvetica,sans-Serif" font-size="10.00">free_space_map_start</text>
<text text-anchor="middle" x="106.83" y="-132" font-family="Helvetica,sans-Serif" font-size="10.00">identifier</text>
<text text-anchor="middle" x="106.83" y="-121" font-family="Helvetica,sans-Serif" font-size="10.00">root_directory</text>
<text text-anchor="middle" x="106.83" y="-110" font-family="Helvetica,sans-Serif" font-size="10.00">sequence</text>
</g>
<!-- Node4 -->
<g id="node4" class="node">
<title>Node4</title>
<g id="a_node4"><a xlink:href="structstorage__device__t.html" target="_top" xlink:title="Represents a block storage device e.g. a hard disk, DVD&#45;ROM drive, etc.">
<polygon fill="none" stroke="black" points="242.83,-68.5 242.83,-87.5 342.83,-87.5 342.83,-68.5 242.83,-68.5"/>
<text text-anchor="middle" x="292.83" y="-75.5" font-family="Helvetica,sans-Serif" font-size="10.00">storage_device_t</text>
</a>
</g>
</g>
<!-- Node3&#45;&gt;Node4 -->
<g id="edge5" class="edge">
<title>Node3&#45;&gt;Node4</title>
<path fill="none" stroke="#9a32cd" stroke-dasharray="5,2" d="M75.96,-207.55C111.12,-203.67 160.04,-196.24 174.83,-184 203.25,-160.48 178.83,-132.14 205.83,-107 216.05,-97.49 229.52,-91.2 242.81,-87.06"/>
<polygon fill="#9a32cd" stroke="#9a32cd" points="75.57,-204.08 65.99,-208.6 76.3,-211.04 75.57,-204.08"/>
<text text-anchor="middle" x="228.83" y="-148.5" font-family="Helvetica,sans-Serif" font-size="10.00"> opaque1</text>
<text text-anchor="middle" x="228.83" y="-137.5" font-family="Helvetica,sans-Serif" font-size="10.00">size</text>
</g>
<!-- Node4&#45;&gt;Node1 -->
<g id="edge4" class="edge">
<title>Node4&#45;&gt;Node1</title>
<path fill="none" stroke="#9a32cd" stroke-dasharray="5,2" d="M261.12,-64.76C225.9,-51.17 170.17,-29.66 141.02,-18.41"/>
<polygon fill="#9a32cd" stroke="#9a32cd" points="259.88,-68.04 270.47,-68.37 262.41,-61.51 259.88,-68.04"/>
<text text-anchor="middle" x="228.83" y="-41" font-family="Helvetica,sans-Serif" font-size="10.00"> dev</text>
</g>
<!-- Node4&#45;&gt;Node4 -->
<g id="edge7" class="edge">
<title>Node4&#45;&gt;Node4</title>
<path fill="none" stroke="#9a32cd" stroke-dasharray="5,2" d="M353.17,-82.83C357.91,-81.77 360.83,-80.16 360.83,-78 360.83,-74.55 353.35,-72.5 342.94,-71.85"/>
<polygon fill="#9a32cd" stroke="#9a32cd" points="352.41,-79.4 342.94,-84.15 353.31,-86.34 352.41,-79.4"/>
<text text-anchor="middle" x="373.33" y="-75.5" font-family="Helvetica,sans-Serif" font-size="10.00"> next</text>
</g>
<!-- Node5 -->
<g id="node5" class="node">
<title>Node5</title>
<g id="a_node5"><a xlink:title=" ">
<polygon fill="none" stroke="#bfbfbf" points="240.83,-202.5 240.83,-221.5 278.83,-221.5 278.83,-202.5 240.83,-202.5"/>
<text text-anchor="middle" x="259.83" y="-209.5" font-family="Helvetica,sans-Serif" font-size="10.00">char</text>
</a>
</g>
</g>
<!-- Node5&#45;&gt;Node4 -->
<g id="edge6" class="edge">
<title>Node5&#45;&gt;Node4</title>
<path fill="none" stroke="#9a32cd" stroke-dasharray="5,2" d="M256.83,-192.36C254.22,-170.81 252.55,-134.74 264.83,-107 268.22,-99.33 274.74,-92.61 280.64,-87.68"/>
<polygon fill="#9a32cd" stroke="#9a32cd" points="253.39,-193.03 258.25,-202.44 260.32,-192.05 253.39,-193.03"/>
<text text-anchor="middle" x="280.33" y="-143" font-family="Helvetica,sans-Serif" font-size="10.00"> name</text>
</g>
<!-- Node6 -->
<g id="node6" class="node">
<title>Node6</title>
<g id="a_node6"><a xlink:title=" ">
<polygon fill="none" stroke="#bfbfbf" points="296.83,-202.5 296.83,-221.5 352.83,-221.5 352.83,-202.5 296.83,-202.5"/>
<text text-anchor="middle" x="324.83" y="-209.5" font-family="Helvetica,sans-Serif" font-size="10.00">uint32_t</text>
</a>
</g>
</g>
<!-- Node6&#45;&gt;Node4 -->
<g id="edge8" class="edge">
<title>Node6&#45;&gt;Node4</title>
<path fill="none" stroke="#9a32cd" stroke-dasharray="5,2" d="M320.29,-192.28C313.25,-163.25 299.99,-108.54 294.89,-87.52"/>
<polygon fill="#9a32cd" stroke="#9a32cd" points="316.97,-193.45 322.73,-202.34 323.78,-191.8 316.97,-193.45"/>
<text text-anchor="middle" x="346.33" y="-143" font-family="Helvetica,sans-Serif" font-size="10.00"> block_size</text>
</g>
<!-- Node7 -->
<g id="node7" class="node">
<title>Node7</title>
<g id="a_node7"><a xlink:title=" ">
<polygon fill="none" stroke="#bfbfbf" points="383.33,-202.5 383.33,-221.5 412.33,-221.5 412.33,-202.5 383.33,-202.5"/>
<text text-anchor="middle" x="397.83" y="-209.5" font-family="Helvetica,sans-Serif" font-size="10.00">int</text>
</a>
</g>
</g>
<!-- Node7&#45;&gt;Node4 -->
<g id="edge9" class="edge">
<title>Node7&#45;&gt;Node4</title>
<path fill="none" stroke="#9a32cd" stroke-dasharray="5,2" d="M396.06,-191.98C393.22,-165.5 386.83,-119.37 375.83,-107 367.24,-97.34 355.2,-91.01 342.96,-86.86"/>
<polygon fill="#9a32cd" stroke="#9a32cd" points="392.61,-192.67 397.09,-202.27 399.57,-191.97 392.61,-192.67"/>
<text text-anchor="middle" x="421.83" y="-148.5" font-family="Helvetica,sans-Serif" font-size="10.00"> blockread</text>
<text text-anchor="middle" x="421.83" y="-137.5" font-family="Helvetica,sans-Serif" font-size="10.00">blockwrite</text>
</g>
<!-- Node8 -->
<g id="node8" class="node">
<title>Node8</title>
<g id="a_node8"><a xlink:title=" ">
<polygon fill="none" stroke="#bfbfbf" points="449.83,-202.5 449.83,-221.5 495.83,-221.5 495.83,-202.5 449.83,-202.5"/>
<text text-anchor="middle" x="472.83" y="-209.5" font-family="Helvetica,sans-Serif" font-size="10.00">void *</text>
</a>
</g>
</g>
<!-- Node8&#45;&gt;Node4 -->
<g id="edge10" class="edge">
<title>Node8&#45;&gt;Node4</title>
<path fill="none" stroke="#9a32cd" stroke-dasharray="5,2" d="M474.63,-192.18C475.75,-168.77 473.74,-129.17 450.83,-107 435.71,-92.38 383.46,-85.26 343.14,-81.89"/>
<polygon fill="#9a32cd" stroke="#9a32cd" points="471.14,-192.01 473.91,-202.23 478.12,-192.51 471.14,-192.01"/>
<text text-anchor="middle" x="497.83" y="-143" font-family="Helvetica,sans-Serif" font-size="10.00"> opaque2</text>
</g>
</g>
</svg>
        <g id="navigator" transform="translate(0 0)" fill="#404254">
                <rect fill="#f2f5e9" fill-opacity="0.5" stroke="#606060" stroke-width=".5" x="0" y="0" width="60" height="60"/>
                <use id="zoomplus" xlink:href="#zoomPlus" x="17" y="9" onmousedown="handleZoom(evt,'in')"/>
                <use id="zoomminus" xlink:href="#zoomMin" x="42" y="9" onmousedown="handleZoom(evt,'out')"/>
                <use id="reset" xlink:href="#resetDef" x="30" y="36" onmousedown="handleReset()"/>
                <g id="arrowUp" xlink:href="#dirArrow" transform="translate(30 24)" onmousedown="handlePan(0,-1)">
                  <use xlink:href="#rim" fill="#404040">
                        <set attributeName="fill" to="#808080" begin="arrowUp.mouseover" end="arrowUp.mouseout"/>
                  </use>
                  <path fill="none" stroke="white" stroke-width="1.5" d="M0,-3.0v7 M-2.5,-0.5L0,-3.0L2.5,-0.5"/>
                </g>
                <g id="arrowRight" xlink:href="#dirArrow" transform="rotate(90) translate(36 -43)" onmousedown="handlePan(1,0)">
                  <use xlink:href="#rim" fill="#404040">
                        <set attributeName="fill" to="#808080" begin="arrowRight.mouseover" end="arrowRight.mouseout"/>
                  </use>
                  <path fill="none" stroke="white" stroke-width="1.5" d="M0,-3.0v7 M-2.5,-0.5L0,-3.0L2.5,-0.5"/>
                </g>
                <g id="arrowDown" xlink:href="#dirArrow" transform="rotate(180) translate(-30 -48)" onmousedown="handlePan(0,1)">
                  <use xlink:href="#rim" fill="#404040">
                        <set attributeName="fill" to="#808080" begin="arrowDown.mouseover" end="arrowDown.mouseout"/>
                  </use>
                  <path fill="none" stroke="white" stroke-width="1.5" d="M0,-3.0v7 M-2.5,-0.5L0,-3.0L2.5,-0.5"/>
                </g>
                <g id="arrowLeft" xlink:href="#dirArrow" transform="rotate(270) translate(-36 17)" onmousedown="handlePan(-1,0)">
                  <use xlink:href="#rim" fill="#404040">
                        <set attributeName="fill" to="#808080" begin="arrowLeft.mouseover" end="arrowLeft.mouseout"/>
                  </use>
                  <path fill="none" stroke="white" stroke-width="1.5" d="M0,-3.0v7 M-2.5,-0.5L0,-3.0L2.5,-0.5"/>
                </g>
        </g>
        <svg viewBox="0 0 15 15" width="100%" height="30px" preserveAspectRatio="xMaxYMin meet">
         <g id="arrow_out" transform="scale(0.3 0.3)">
          <a xlink:href="structrfs__t__coll__graph_org.svg" target="_base">
           <rect id="button" ry="5" rx="5" y="6" x="6" height="38" width="38"
                fill="#f2f5e9" fill-opacity="0.5" stroke="#606060" stroke-width="1.0"/>
           <path id="arrow"
             d="M 11.500037,31.436501 C 11.940474,20.09759 22.043105,11.32322 32.158766,21.979434 L 37.068811,17.246167 C 37.068811,17.246167 37.088388,32 37.088388,32 L 22.160133,31.978069 C 22.160133,31.978069 26.997745,27.140456 26.997745,27.140456 C 18.528582,18.264221 13.291696,25.230495 11.500037,31.436501 z"
             style="fill:#404040;"/>
          </a>
         </g>
        </svg>
</svg>
