<?xml version="1.0" encoding="UTF-8" standalone="no"?>
<!DOCTYPE svg PUBLIC "-//W3C//DTD SVG 1.1//EN"
 "http://www.w3.org/Graphics/SVG/1.1/DTD/svg11.dtd">
<!-- Generated by graphviz version 2.43.0 (0)
 -->
<!-- Title: module Pages: 1 -->
<!--zoomable 197 -->
<svg id="main" version="1.1" xmlns="http://www.w3.org/2000/svg" xmlns:xlink="http://www.w3.org/1999/xlink" xml:space="preserve" onload="init(evt)">
<style type="text/css"><![CDATA[
.edge:hover path { stroke: red; }
.edge:hover polygon { stroke: red; fill: red; }
]]></style>
<script type="text/javascript"><![CDATA[
var edges = document.getElementsByTagName('g');
if (edges && edges.length) {
  for (var i=0;i<edges.length;i++) {
    if (edges[i].id.substr(0,4)=='edge') {
      edges[i].setAttribute('class','edge');
    }
  }
}
]]></script>
        <defs>
                <circle id="rim" cx="0" cy="0" r="7"/>
                <circle id="rim2" cx="0" cy="0" r="3.5"/>
                <g id="zoomPlus">
                        <use xlink:href="#rim" fill="#404040">
                                <set attributeName="fill" to="#808080" begin="zoomplus.mouseover" end="zoomplus.mouseout"/>
                        </use>
                        <path d="M-4,0h8M0,-4v8" fill="none" stroke="white" stroke-width="1.5" pointer-events="none"/>
                </g>
                <g id="zoomMin">
                        <use xlink:href="#rim" fill="#404040">
                                <set attributeName="fill" to="#808080" begin="zoomminus.mouseover" end="zoomminus.mouseout"/>
                        </use>
                        <path d="M-4,0h8" fill="none" stroke="white" stroke-width="1.5" pointer-events="none"/>
                </g>
                <g id="dirArrow">
                        <path fill="none" stroke="white" stroke-width="1.5" d="M0,-3.0v7 M-2.5,-0.5L0,-3.0L2.5,-0.5"/>
                </g>
               <g id="resetDef">
                       <use xlink:href="#rim2" fill="#404040">
                               <set attributeName="fill" to="#808080" begin="reset.mouseover" end="reset.mouseout"/>
                       </use>
               </g>
        </defs>

<script type="text/javascript">
var viewWidth = 677;
var viewHeight = 197;
var sectionId = 'dynsection-0';
</script>
<script xlink:href="svgpan.js"/>
<svg id="graph" class="graph">
<g id="viewport">
<title>module</title>
<!-- Node1 -->
<g id="node1" class="node">
<title>Node1</title>
<g id="a_node1"><a xlink:title="Describes a loaded and relocated module image.">
<polygon fill="#bfbfbf" stroke="black" points="319.5,-0.5 319.5,-19.5 372.5,-19.5 372.5,-0.5 319.5,-0.5"/>
<text text-anchor="middle" x="346" y="-7.5" font-family="Helvetica,sans-Serif" font-size="10.00">module</text>
</a>
</g>
</g>
<!-- Node2 -->
<g id="node2" class="node">
<title>Node2</title>
<g id="a_node2"><a xlink:title=" ">
<polygon fill="none" stroke="#bfbfbf" points="67,-169.5 67,-188.5 123,-188.5 123,-169.5 67,-169.5"/>
<text text-anchor="middle" x="95" y="-176.5" font-family="Helvetica,sans-Serif" font-size="10.00">uint16_t</text>
</a>
</g>
</g>
<!-- Node2&#45;&gt;Node1 -->
<g id="edge1" class="edge">
<title>Node2&#45;&gt;Node1</title>
<path fill="none" stroke="#9a32cd" stroke-dasharray="5,2" d="M89.88,-159.52C85.72,-140.62 82.27,-111 94,-89 113.14,-53.11 132.1,-52.77 170,-38 220.4,-18.36 284.14,-12.95 319.43,-11.5"/>
<polygon fill="#9a32cd" stroke="#9a32cd" points="86.49,-160.4 92.3,-169.26 93.29,-158.72 86.49,-160.4"/>
<text text-anchor="middle" x="110.5" y="-97.5" font-family="Helvetica,sans-Serif" font-size="10.00"> shndx</text>
</g>
<!-- Node8 -->
<g id="node8" class="node">
<title>Node8</title>
<g id="a_node8"><a xlink:href="structelf__sym.html" target="_top" xlink:title="ELF symbol table entry (ELF64)">
<polygon fill="none" stroke="black" points="451,-90.5 451,-109.5 507,-109.5 507,-90.5 451,-90.5"/>
<text text-anchor="middle" x="479" y="-97.5" font-family="Helvetica,sans-Serif" font-size="10.00">elf_sym</text>
</a>
</g>
</g>
<!-- Node2&#45;&gt;Node8 -->
<g id="edge9" class="edge">
<title>Node2&#45;&gt;Node8</title>
<path fill="none" stroke="#9a32cd" stroke-dasharray="5,2" d="M133.07,-171.59C197.14,-160.59 330.45,-136.81 442,-111 444.85,-110.34 447.82,-109.61 450.77,-108.86"/>
<polygon fill="#9a32cd" stroke="#9a32cd" points="132.3,-168.17 123.03,-173.31 133.48,-175.07 132.3,-168.17"/>
<text text-anchor="middle" x="379.5" y="-137.5" font-family="Helvetica,sans-Serif" font-size="10.00"> st_shndx</text>
</g>
<!-- Node3 -->
<g id="node3" class="node">
<title>Node3</title>
<g id="a_node3"><a xlink:title=" ">
<polygon fill="none" stroke="#bfbfbf" points="0,-169.5 0,-188.5 38,-188.5 38,-169.5 0,-169.5"/>
<text text-anchor="middle" x="19" y="-176.5" font-family="Helvetica,sans-Serif" font-size="10.00">char</text>
</a>
</g>
</g>
<!-- Node3&#45;&gt;Node1 -->
<g id="edge2" class="edge">
<title>Node3&#45;&gt;Node1</title>
<path fill="none" stroke="#9a32cd" stroke-dasharray="5,2" d="M23.26,-159.4C31.85,-127.02 54.67,-61.52 103,-38 140.59,-19.7 264.23,-13.58 319.22,-11.73"/>
<polygon fill="#9a32cd" stroke="#9a32cd" points="19.81,-158.8 20.8,-169.35 26.6,-160.48 19.81,-158.8"/>
<text text-anchor="middle" x="66.5" y="-103" font-family="Helvetica,sans-Serif" font-size="10.00"> name</text>
<text text-anchor="middle" x="66.5" y="-92" font-family="Helvetica,sans-Serif" font-size="10.00">strtab</text>
</g>
<!-- Node3&#45;&gt;Node8 -->
<g id="edge10" class="edge">
<title>Node3&#45;&gt;Node8</title>
<path fill="none" stroke="#9a32cd" stroke-dasharray="5,2" d="M47.79,-168.89C84.72,-157.59 150.95,-138.65 209,-129 311.46,-111.97 339.64,-128.63 442,-111 444.89,-110.5 447.87,-109.88 450.84,-109.19"/>
<polygon fill="#9a32cd" stroke="#9a32cd" points="46.7,-165.56 38.18,-171.86 48.77,-172.25 46.7,-165.56"/>
<text text-anchor="middle" x="229" y="-143" font-family="Helvetica,sans-Serif" font-size="10.00"> st_info</text>
<text text-anchor="middle" x="229" y="-132" font-family="Helvetica,sans-Serif" font-size="10.00">st_other</text>
</g>
<!-- Node4 -->
<g id="node4" class="node">
<title>Node4</title>
<g id="a_node4"><a xlink:title=" ">
<polygon fill="none" stroke="#bfbfbf" points="136.5,-90.5 136.5,-109.5 181.5,-109.5 181.5,-90.5 136.5,-90.5"/>
<text text-anchor="middle" x="159" y="-97.5" font-family="Helvetica,sans-Serif" font-size="10.00">size_t</text>
</a>
</g>
</g>
<!-- Node4&#45;&gt;Node1 -->
<g id="edge3" class="edge">
<title>Node4&#45;&gt;Node1</title>
<path fill="none" stroke="#9a32cd" stroke-dasharray="5,2" d="M167.46,-81.15C175.04,-67.15 187.51,-48.38 204,-38 239.47,-15.68 289.09,-10.99 319.31,-10.43"/>
<polygon fill="#9a32cd" stroke="#9a32cd" points="164.22,-79.8 162.81,-90.3 170.46,-82.96 164.22,-79.8"/>
<text text-anchor="middle" x="238" y="-63" font-family="Helvetica,sans-Serif" font-size="10.00"> placed_count</text>
<text text-anchor="middle" x="238" y="-52" font-family="Helvetica,sans-Serif" font-size="10.00">size</text>
<text text-anchor="middle" x="238" y="-41" font-family="Helvetica,sans-Serif" font-size="10.00">sym_count</text>
</g>
<!-- Node5 -->
<g id="node5" class="node">
<title>Node5</title>
<g id="a_node5"><a xlink:title=" ">
<polygon fill="none" stroke="#bfbfbf" points="199.5,-90.5 199.5,-109.5 308.5,-109.5 308.5,-90.5 199.5,-90.5"/>
<text text-anchor="middle" x="254" y="-97.5" font-family="Helvetica,sans-Serif" font-size="10.00">anonymous:placed</text>
</a>
</g>
</g>
<!-- Node5&#45;&gt;Node1 -->
<g id="edge4" class="edge">
<title>Node5&#45;&gt;Node1</title>
<path fill="none" stroke="#9a32cd" stroke-dasharray="5,2" d="M266.11,-82.46C276.02,-69.54 290.82,-51.56 306,-38 313.75,-31.08 323.37,-24.53 331.24,-19.61"/>
<polygon fill="#9a32cd" stroke="#9a32cd" points="263.29,-80.38 260.09,-90.48 268.89,-84.58 263.29,-80.38"/>
<text text-anchor="middle" x="324" y="-52" font-family="Helvetica,sans-Serif" font-size="10.00"> placed</text>
</g>
<!-- Node6 -->
<g id="node6" class="node">
<title>Node6</title>
<g id="a_node6"><a xlink:title=" ">
<polygon fill="none" stroke="#bfbfbf" points="327,-90.5 327,-109.5 365,-109.5 365,-90.5 327,-90.5"/>
<text text-anchor="middle" x="346" y="-97.5" font-family="Helvetica,sans-Serif" font-size="10.00">bool</text>
</a>
</g>
</g>
<!-- Node6&#45;&gt;Node1 -->
<g id="edge5" class="edge">
<title>Node6&#45;&gt;Node1</title>
<path fill="none" stroke="#9a32cd" stroke-dasharray="5,2" d="M346,-79.98C346,-61.31 346,-33.67 346,-19.72"/>
<polygon fill="#9a32cd" stroke="#9a32cd" points="342.5,-80.24 346,-90.24 349.5,-80.24 342.5,-80.24"/>
<text text-anchor="middle" x="363" y="-52" font-family="Helvetica,sans-Serif" font-size="10.00"> init_fn</text>
</g>
<!-- Node7 -->
<g id="node7" class="node">
<title>Node7</title>
<g id="a_node7"><a xlink:title=" ">
<polygon fill="none" stroke="#bfbfbf" points="383,-90.5 383,-109.5 433,-109.5 433,-90.5 383,-90.5"/>
<text text-anchor="middle" x="408" y="-97.5" font-family="Helvetica,sans-Serif" font-size="10.00">uint8_t</text>
</a>
</g>
</g>
<!-- Node7&#45;&gt;Node1 -->
<g id="edge6" class="edge">
<title>Node7&#45;&gt;Node1</title>
<path fill="none" stroke="#9a32cd" stroke-dasharray="5,2" d="M403.67,-80.29C400.01,-67.42 393.76,-50.48 384,-38 378.12,-30.48 369.58,-24.15 362.09,-19.52"/>
<polygon fill="#9a32cd" stroke="#9a32cd" points="400.37,-81.51 406.25,-90.33 407.15,-79.77 400.37,-81.51"/>
<text text-anchor="middle" x="412.5" y="-57.5" font-family="Helvetica,sans-Serif" font-size="10.00"> addr</text>
<text text-anchor="middle" x="412.5" y="-46.5" font-family="Helvetica,sans-Serif" font-size="10.00">base</text>
</g>
<!-- Node8&#45;&gt;Node1 -->
<g id="edge7" class="edge">
<title>Node8&#45;&gt;Node1</title>
<path fill="none" stroke="#9a32cd" stroke-dasharray="5,2" d="M468.72,-81.66C459.81,-68 445.72,-49.42 429,-38 412.11,-26.46 389.95,-19.58 372.78,-15.66"/>
<polygon fill="#9a32cd" stroke="#9a32cd" points="465.78,-83.55 474.04,-90.18 471.72,-79.84 465.78,-83.55"/>
<text text-anchor="middle" x="480" y="-52" font-family="Helvetica,sans-Serif" font-size="10.00"> symtab</text>
</g>
<!-- Node9 -->
<g id="node9" class="node">
<title>Node9</title>
<g id="a_node9"><a xlink:title=" ">
<polygon fill="none" stroke="#bfbfbf" points="488,-169.5 488,-188.5 544,-188.5 544,-169.5 488,-169.5"/>
<text text-anchor="middle" x="516" y="-176.5" font-family="Helvetica,sans-Serif" font-size="10.00">uint64_t</text>
</a>
</g>
</g>
<!-- Node9&#45;&gt;Node8 -->
<g id="edge8" class="edge">
<title>Node9&#45;&gt;Node8</title>
<path fill="none" stroke="#9a32cd" stroke-dasharray="5,2" d="M507.46,-160.22C499.87,-144.44 489.11,-122.04 483.23,-109.81"/>
<polygon fill="#9a32cd" stroke="#9a32cd" points="504.41,-161.97 511.9,-169.47 510.72,-158.94 504.41,-161.97"/>
<text text-anchor="middle" x="523" y="-143" font-family="Helvetica,sans-Serif" font-size="10.00"> st_size</text>
<text text-anchor="middle" x="523" y="-132" font-family="Helvetica,sans-Serif" font-size="10.00">st_value</text>
</g>
<!-- Node10 -->
<g id="node10" class="node">
<title>Node10</title>
<g id="a_node10"><a xlink:title=" ">
<polygon fill="none" stroke="#bfbfbf" points="414,-169.5 414,-188.5 470,-188.5 470,-169.5 414,-169.5"/>
<text text-anchor="middle" x="442" y="-176.5" font-family="Helvetica,sans-Serif" font-size="10.00">uint32_t</text>
</a>
</g>
</g>
<!-- Node10&#45;&gt;Node8 -->
<g id="edge11" class="edge">
<title>Node10&#45;&gt;Node8</title>
<path fill="none" stroke="#9a32cd" stroke-dasharray="5,2" d="M438.68,-159.11C437.91,-149.6 438.39,-138.18 443,-129 447.12,-120.79 454.9,-114.27 462.17,-109.6"/>
<polygon fill="#9a32cd" stroke="#9a32cd" points="435.23,-159.68 440,-169.14 442.17,-158.77 435.23,-159.68"/>
<text text-anchor="middle" x="466" y="-137.5" font-family="Helvetica,sans-Serif" font-size="10.00"> st_name</text>
</g>
<!-- Node11 -->
<g id="node11" class="node">
<title>Node11</title>
<g id="a_node11"><a xlink:title=" ">
<polygon fill="none" stroke="#bfbfbf" points="525.5,-90.5 525.5,-109.5 604.5,-109.5 604.5,-90.5 525.5,-90.5"/>
<text text-anchor="middle" x="565" y="-97.5" font-family="Helvetica,sans-Serif" font-size="10.00">void(*)(void)</text>
</a>
</g>
</g>
<!-- Node11&#45;&gt;Node1 -->
<g id="edge12" class="edge">
<title>Node11&#45;&gt;Node1</title>
<path fill="none" stroke="#9a32cd" stroke-dasharray="5,2" d="M552.76,-81.86C541.69,-67.73 524.08,-48.39 504,-38 461.73,-16.14 405.44,-11.44 372.71,-10.72"/>
<polygon fill="#9a32cd" stroke="#9a32cd" points="550.25,-84.34 559.05,-90.24 555.85,-80.14 550.25,-84.34"/>
<text text-anchor="middle" x="561.5" y="-52" font-family="Helvetica,sans-Serif" font-size="10.00"> exit_fn</text>
</g>
<!-- Node12 -->
<g id="node12" class="node">
<title>Node12</title>
<g id="a_node12"><a xlink:title=" ">
<polygon fill="none" stroke="#bfbfbf" points="623,-90.5 623,-109.5 669,-109.5 669,-90.5 623,-90.5"/>
<text text-anchor="middle" x="646" y="-97.5" font-family="Helvetica,sans-Serif" font-size="10.00">void *</text>
</a>
</g>
</g>
<!-- Node12&#45;&gt;Node1 -->
<g id="edge13" class="edge">
<title>Node12&#45;&gt;Node1</title>
<path fill="none" stroke="#9a32cd" stroke-dasharray="5,2" d="M633.96,-81.98C622.78,-67.63 604.77,-47.91 584,-38 547.12,-20.41 426.63,-13.92 372.62,-11.85"/>
<polygon fill="#9a32cd" stroke="#9a32cd" points="631.21,-84.15 640,-90.08 636.82,-79.97 631.21,-84.15"/>
<text text-anchor="middle" x="645.5" y="-52" font-family="Helvetica,sans-Serif" font-size="10.00"> raw_bits</text>
</g>
</g>
</svg>
        <g id="navigator" transform="translate(0 0)" fill="#404254">
                <rect fill="#f2f5e9" fill-opacity="0.5" stroke="#606060" stroke-width=".5" x="0" y="0" width="60" height="60"/>
                <use id="zoomplus" xlink:href="#zoomPlus" x="17" y="9" onmousedown="handleZoom(evt,'in')"/>
                <use id="zoomminus" xlink:href="#zoomMin" x="42" y="9" onmousedown="handleZoom(evt,'out')"/>
                <use id="reset" xlink:href="#resetDef" x="30" y="36" onmousedown="handleReset()"/>
                <g id="arrowUp" xlink:href="#dirArrow" transform="translate(30 24)" onmousedown="handlePan(0,-1)">
                  <use xlink:href="#rim" fill="#404040">
                        <set attributeName="fill" to="#808080" begin="arrowUp.mouseover" end="arrowUp.mouseout"/>
                  </use>
                  <path fill="none" stroke="white" stroke-width="1.5" d="M0,-3.0v7 M-2.5,-0.5L0,-3.0L2.5,-0.5"/>
                </g>
                <g id="arrowRight" xlink:href="#dirArrow" transform="rotate(90) translate(36 -43)" onmousedown="handlePan(1,0)">
                  <use xlink:href="#rim" fill="#404040">
                        <set attributeName="fill" to="#808080" begin="arrowRight.mouseover" end="arrowRight.mouseout"/>
                  </use>
                  <path fill="none" stroke="white" stroke-width="1.5" d="M0,-3.0v7 M-2.5,-0.5L0,-3.0L2.5,-0.5"/>
                </g>
                <g id="arrowDown" xlink:href="#dirArrow" transform="rotate(180) translate(-30 -48)" onmousedown="handlePan(0,1)">
                  <use xlink:href="#rim" fill="#404040">
                        <set attributeName="fill" to="#808080" begin="arrowDown.mouseover" end="arrowDown.mouseout"/>
                  </use>
                  <path fill="none" stroke="white" stroke-width="1.5" d="M0,-3.0v7 M-2.5,-0.5L0,-3.0L2.5,-0.5"/>
                </g>
                <g id="arrowLeft" xlink:href="#dirArrow" transform="rotate(270) translate(-36 17)" onmousedown="handlePan(-1,0)">
                  <use xlink:href="#rim" fill="#404040">
                        <set attributeName="fill" to="#808080" begin="arrowLeft.mouseover" end="arrowLeft.mouseout"/>
                  </use>
                  <path fill="none" stroke="white" stroke-width="1.5" d="M0,-3.0v7 M-2.5,-0.5L0,-3.0L2.5,-0.5"/>
                </g>
        </g>
        <svg viewBox="0 0 15 15" width="100%" height="30px" preserveAspectRatio="xMaxYMin meet">
         <g id="arrow_out" transform="scale(0.3 0.3)">
          <a xlink:href="structmodule__coll__graph_org.svg" target="_base">
           <rect id="button" ry="5" rx="5" y="6" x="6" height="38" width="38"
                fill="#f2f5e9" fill-opacity="0.5" stroke="#606060" stroke-width="1.0"/>
           <path id="arrow"
             d="M 11.500037,31.436501 C 11.940474,20.09759 22.043105,11.32322 32.158766,21.979434 L 37.068811,17.246167 C 37.068811,17.246167 37.088388,32 37.088388,32 L 22.160133,31.978069 C 22.160133,31.978069 26.997745,27.140456 26.997745,27.140456 C 18.528582,18.264221 13.291696,25.230495 11.500037,31.436501 z"
             style="fill:#404040;"/>
          </a>
         </g>
        </svg>
</svg>
