<?xml version="1.0" encoding="UTF-8" standalone="no"?>
<!DOCTYPE svg PUBLIC "-//W3C//DTD SVG 1.1//EN"
 "http://www.w3.org/Graphics/SVG/1.1/DTD/svg11.dtd">
<!-- Generated by graphviz version 2.43.0 (0)
 -->
<!-- Title: mt_rand_t Pages: 1 -->
<svg width="114pt" height="95pt"
 viewBox="0.00 0.00 114.00 95.00" xmlns="http://www.w3.org/2000/svg" xmlns:xlink="http://www.w3.org/1999/xlink">
<g id="graph0" class="graph" transform="scale(1 1) rotate(0) translate(4 91)">
<title>mt_rand_t</title>
<!-- Node1 -->
<g id="node1" class="node">
<title>Node1</title>
<g id="a_node1"><a xlink:title=" ">
<polygon fill="#bfbfbf" stroke="black" points="25,-0.5 25,-19.5 91,-19.5 91,-0.5 25,-0.5"/>
<text text-anchor="middle" x="58" y="-7.5" font-family="Helvetica,sans-Serif" font-size="10.00">mt_rand_t</text>
</a>
</g>
</g>
<!-- Node2 -->
<g id="node2" class="node">
<title>Node2</title>
<g id="a_node2"><a xlink:title=" ">
<polygon fill="none" stroke="#bfbfbf" points="0,-67.5 0,-86.5 56,-86.5 56,-67.5 0,-67.5"/>
<text text-anchor="middle" x="28" y="-74.5" font-family="Helvetica,sans-Serif" font-size="10.00">uint32_t</text>
</a>
</g>
</g>
<!-- Node2&#45;&gt;Node1 -->
<g id="edge1" class="edge">
<title>Node2&#45;&gt;Node1</title>
<path fill="none" stroke="#9a32cd" stroke-dasharray="5,2" d="M36.4,-57.79C42.17,-45.31 49.55,-29.31 54.02,-19.63"/>
<polygon fill="#9a32cd" stroke="#9a32cd" points="33.06,-56.69 32.05,-67.23 39.41,-59.62 33.06,-56.69"/>
<text text-anchor="middle" x="53.5" y="-41" font-family="Helvetica,sans-Serif" font-size="10.00"> mt</text>
</g>
<!-- Node3 -->
<g id="node3" class="node">
<title>Node3</title>
<g id="a_node3"><a xlink:title=" ">
<polygon fill="none" stroke="#bfbfbf" points="74.5,-67.5 74.5,-86.5 103.5,-86.5 103.5,-67.5 74.5,-67.5"/>
<text text-anchor="middle" x="89" y="-74.5" font-family="Helvetica,sans-Serif" font-size="10.00">int</text>
</a>
</g>
</g>
<!-- Node3&#45;&gt;Node1 -->
<g id="edge2" class="edge">
<title>Node3&#45;&gt;Node1</title>
<path fill="none" stroke="#9a32cd" stroke-dasharray="5,2" d="M80.49,-58.16C74.51,-45.63 66.78,-29.41 62.11,-19.63"/>
<polygon fill="#9a32cd" stroke="#9a32cd" points="77.36,-59.71 84.82,-67.23 83.67,-56.7 77.36,-59.71"/>
<text text-anchor="middle" x="90.5" y="-41" font-family="Helvetica,sans-Serif" font-size="10.00"> index</text>
</g>
</g>
</svg>
