<?xml version="1.0" encoding="UTF-8" standalone="no"?>
<!DOCTYPE svg PUBLIC "-//W3C//DTD SVG 1.1//EN"
 "http://www.w3.org/Graphics/SVG/1.1/DTD/svg11.dtd">
<!-- Generated by graphviz version 2.43.0 (0)
 -->
<!-- Title: idt_ptr Pages: 1 -->
<svg width="128pt" height="95pt"
 viewBox="0.00 0.00 128.00 95.00" xmlns="http://www.w3.org/2000/svg" xmlns:xlink="http://www.w3.org/1999/xlink">
<g id="graph0" class="graph" transform="scale(1 1) rotate(0) translate(4 91)">
<title>idt_ptr</title>
<!-- Node1 -->
<g id="node1" class="node">
<title>Node1</title>
<g id="a_node1"><a xlink:title=" ">
<polygon fill="#bfbfbf" stroke="black" points="38,-0.5 38,-19.5 86,-19.5 86,-0.5 38,-0.5"/>
<text text-anchor="middle" x="62" y="-7.5" font-family="Helvetica,sans-Serif" font-size="10.00">idt_ptr</text>
</a>
</g>
</g>
<!-- Node2 -->
<g id="node2" class="node">
<title>Node2</title>
<g id="a_node2"><a xlink:title=" ">
<polygon fill="none" stroke="#bfbfbf" points="0,-67.5 0,-86.5 56,-86.5 56,-67.5 0,-67.5"/>
<text text-anchor="middle" x="28" y="-74.5" font-family="Helvetica,sans-Serif" font-size="10.00">uint16_t</text>
</a>
</g>
</g>
<!-- Node2&#45;&gt;Node1 -->
<g id="edge1" class="edge">
<title>Node2&#45;&gt;Node1</title>
<path fill="none" stroke="#9a32cd" stroke-dasharray="5,2" d="M37.33,-58.16C43.89,-45.63 52.37,-29.41 57.49,-19.63"/>
<polygon fill="#9a32cd" stroke="#9a32cd" points="34.12,-56.75 32.59,-67.23 40.32,-60 34.12,-56.75"/>
<text text-anchor="middle" x="61" y="-41" font-family="Helvetica,sans-Serif" font-size="10.00"> limit</text>
</g>
<!-- Node3 -->
<g id="node3" class="node">
<title>Node3</title>
<g id="a_node3"><a xlink:title=" ">
<polygon fill="none" stroke="#bfbfbf" points="74,-67.5 74,-86.5 120,-86.5 120,-67.5 74,-67.5"/>
<text text-anchor="middle" x="97" y="-74.5" font-family="Helvetica,sans-Serif" font-size="10.00">void *</text>
</a>
</g>
</g>
<!-- Node3&#45;&gt;Node1 -->
<g id="edge2" class="edge">
<title>Node3&#45;&gt;Node1</title>
<path fill="none" stroke="#9a32cd" stroke-dasharray="5,2" d="M87.4,-58.16C80.65,-45.63 71.91,-29.41 66.65,-19.63"/>
<polygon fill="#9a32cd" stroke="#9a32cd" points="84.46,-60.09 92.28,-67.23 90.62,-56.77 84.46,-60.09"/>
<text text-anchor="middle" x="94.5" y="-41" font-family="Helvetica,sans-Serif" font-size="10.00"> base</text>
</g>
</g>
</svg>
