<?xml version="1.0" encoding="UTF-8" standalone="no"?>
<!DOCTYPE svg PUBLIC "-//W3C//DTD SVG 1.1//EN"
 "http://www.w3.org/Graphics/SVG/1.1/DTD/svg11.dtd">
<!-- Generated by graphviz version 2.43.0 (0)
 -->
<!-- Title: tcp_ordered_list_t Pages: 1 -->
<svg width="170pt" height="97pt"
 viewBox="0.00 0.00 169.50 97.00" xmlns="http://www.w3.org/2000/svg" xmlns:xlink="http://www.w3.org/1999/xlink">
<g id="graph0" class="graph" transform="scale(1 1) rotate(0) translate(4 93)">
<title>tcp_ordered_list_t</title>
<!-- Node1 -->
<g id="node1" class="node">
<title>Node1</title>
<g id="a_node1"><a xlink:title=" ">
<polygon fill="#bfbfbf" stroke="black" points="14.5,-1.5 14.5,-20.5 118.5,-20.5 118.5,-1.5 14.5,-1.5"/>
<text text-anchor="middle" x="66.5" y="-8.5" font-family="Helvetica,sans-Serif" font-size="10.00">tcp_ordered_list_t</text>
</a>
</g>
</g>
<!-- Node1&#45;&gt;Node1 -->
<g id="edge3" class="edge">
<title>Node1&#45;&gt;Node1</title>
<path fill="none" stroke="#9a32cd" stroke-dasharray="5,2" d="M128.9,-15.77C133.61,-14.71 136.5,-13.12 136.5,-11 136.5,-7.61 129.09,-5.58 118.7,-4.89"/>
<polygon fill="#9a32cd" stroke="#9a32cd" points="128.16,-12.34 118.7,-17.11 129.07,-19.28 128.16,-12.34"/>
<text text-anchor="middle" x="149" y="-14" font-family="Helvetica,sans-Serif" font-size="10.00"> next</text>
<text text-anchor="middle" x="149" y="-3" font-family="Helvetica,sans-Serif" font-size="10.00">prev</text>
</g>
<!-- Node2 -->
<g id="node2" class="node">
<title>Node2</title>
<g id="a_node2"><a xlink:title=" ">
<polygon fill="none" stroke="#bfbfbf" points="0,-69.5 0,-88.5 45,-88.5 45,-69.5 0,-69.5"/>
<text text-anchor="middle" x="22.5" y="-76.5" font-family="Helvetica,sans-Serif" font-size="10.00">size_t</text>
</a>
</g>
</g>
<!-- Node2&#45;&gt;Node1 -->
<g id="edge1" class="edge">
<title>Node2&#45;&gt;Node1</title>
<path fill="none" stroke="#9a32cd" stroke-dasharray="5,2" d="M33.87,-60.94C42.43,-48.11 53.79,-31.06 60.61,-20.84"/>
<polygon fill="#9a32cd" stroke="#9a32cd" points="30.89,-59.11 28.25,-69.37 36.71,-62.99 30.89,-59.11"/>
<text text-anchor="middle" x="57" y="-43" font-family="Helvetica,sans-Serif" font-size="10.00"> len</text>
</g>
<!-- Node3 -->
<g id="node3" class="node">
<title>Node3</title>
<g id="a_node3"><a xlink:title=" ">
<polygon fill="none" stroke="#bfbfbf" points="63,-69.5 63,-88.5 160,-88.5 160,-69.5 63,-69.5"/>
<text text-anchor="middle" x="111.5" y="-76.5" font-family="Helvetica,sans-Serif" font-size="10.00">tcp_segment_t *</text>
</a>
</g>
</g>
<!-- Node3&#45;&gt;Node1 -->
<g id="edge2" class="edge">
<title>Node3&#45;&gt;Node1</title>
<path fill="none" stroke="#9a32cd" stroke-dasharray="5,2" d="M99.87,-60.94C91.12,-48.11 79.49,-31.06 72.53,-20.84"/>
<polygon fill="#9a32cd" stroke="#9a32cd" points="97.09,-63.08 105.62,-69.37 102.88,-59.14 97.09,-63.08"/>
<text text-anchor="middle" x="115.5" y="-43" font-family="Helvetica,sans-Serif" font-size="10.00"> segment</text>
</g>
</g>
</svg>
