<?xml version="1.0" encoding="UTF-8" standalone="no"?>
<!DOCTYPE svg PUBLIC "-//W3C//DTD SVG 1.1//EN"
 "http://www.w3.org/Graphics/SVG/1.1/DTD/svg11.dtd">
<!-- Generated by graphviz version 2.43.0 (0)
 -->
<!-- Title: rfs_t Pages: 1 -->
<!--zoomable 352 -->
<svg id="main" version="1.1" xmlns="http://www.w3.org/2000/svg" xmlns:xlink="http://www.w3.org/1999/xlink" xml:space="preserve" onload="init(evt)">
<style type="text/css"><![CDATA[
.edge:hover path { stroke: red; }
.edge:hover polygon { stroke: red; fill: red; }
]]></style>
<script type="text/javascript"><![CDATA[
var edges = document.getElementsByTagName('g');
if (edges && edges.length) {
  for (var i=0;i<edges.length;i++) {
    if (edges[i].id.substr(0,4)=='edge') {
      edges[i].setAttribute('class','edge');
    }
  }
}
]]></script>
        <defs>
                <circle id="rim" cx="0" cy="0" r="7"/>
                <circle id="rim2" cx="0" cy="0" r="3.5"/>
                <g id="zoomPlus">
                        <use xlink:href="#rim" fill="#404040">
                                <set attributeName="fill" to="#808080" begin="zoomplus.mouseover" end="zoomplus.mouseout"/>
                        </use>
                        <path d="M-4,0h8M0,-4v8" fill="none" stroke="white" stroke-width="1.5" pointer-events="none"/>
                </g>
                <g id="zoomMin">
                        <use xlink:href="#rim" fill="#404040">
                                <set attributeName="fill" to="#808080" begin="zoomminus.mouseover" end="zoomminus.mouseout"/>
                        </use>
                        <path d="M-4,0h8" fill="none" stroke="white" stroke-width="1.5" pointer-events="none"/>
                </g>
                <g id="dirArrow">
                        <path fill="none" stroke="white" stroke-width="1.5" d="M0,-3.0v7 M-2.5,-0.5L0,-3.0L2.5,-0.5"/>
                </g>
               <g id="resetDef">
                       <use xlink:href="#rim2" fill="#404040">
                               <set attributeName="fill" to="#808080" begin="reset.mouseover" end="reset.mouseout"/>
                       </use>
               </g>
        </defs>

<script type="text/javascript">
var viewWidth = 1118;
var viewHeight = 352;
var sectionId = 'dynsection-0';
</script>
<script xlink:href="svgpan.js"/>
<svg id="graph" class="graph">
<g id="viewport">
<title>rfs_t</title>
<!-- Node1 -->
<g id="node1" class="node">
<title>Node1</title>
<g id="a_node1"><a xlink:title="In&#45;memory RetroFS mount context.">
<polygon fill="#bfbfbf" stroke="black" points="602,-0.5 602,-19.5 640,-19.5 640,-0.5 602,-0.5"/>
<text text-anchor="middle" x="621" y="-7.5" font-family="Helvetica,sans-Serif" font-size="10.00">rfs_t</text>
</a>
</g>
</g>
<!-- Node2 -->
<g id="node2" class="node">
<title>Node2</title>
<g id="a_node2"><a xlink:href="structrfs__description__block__t.html" target="_top" xlink:title="On&#45;disk description block containing global filesystem metadata.">
<polygon fill="none" stroke="black" points="54.5,-118 54.5,-137 183.5,-137 183.5,-118 54.5,-118"/>
<text text-anchor="middle" x="119" y="-125" font-family="Helvetica,sans-Serif" font-size="10.00">rfs_description_block_t</text>
</a>
</g>
</g>
<!-- Node2&#45;&gt;Node1 -->
<g id="edge1" class="edge">
<title>Node2&#45;&gt;Node1</title>
<path fill="none" stroke="#9a32cd" stroke-dasharray="5,2" d="M133.48,-110.47C153.51,-89.53 191.88,-53.7 233,-38 301.6,-11.8 533.71,-10.63 601.97,-10.87"/>
<polygon fill="#9a32cd" stroke="#9a32cd" points="130.77,-108.24 126.51,-117.94 135.89,-113.01 130.77,-108.24"/>
<text text-anchor="middle" x="246" y="-57.5" font-family="Helvetica,sans-Serif" font-size="10.00"> desc</text>
</g>
<!-- Node3 -->
<g id="node3" class="node">
<title>Node3</title>
<g id="a_node3"><a xlink:title=" ">
<polygon fill="none" stroke="#bfbfbf" points="196,-257.5 196,-276.5 252,-276.5 252,-257.5 196,-257.5"/>
<text text-anchor="middle" x="224" y="-264.5" font-family="Helvetica,sans-Serif" font-size="10.00">uint64_t</text>
</a>
</g>
</g>
<!-- Node3&#45;&gt;Node1 -->
<g id="edge4" class="edge">
<title>Node3&#45;&gt;Node1</title>
<path fill="none" stroke="#9a32cd" stroke-dasharray="5,2" d="M246.47,-251.43C251.02,-247.76 255.48,-243.56 259,-239 278.47,-213.78 265.8,-196.79 287,-173 377.27,-71.73 544.91,-27.47 601.65,-14.94"/>
<polygon fill="#9a32cd" stroke="#9a32cd" points="244.34,-248.65 238.37,-257.41 248.5,-254.28 244.34,-248.65"/>
<text text-anchor="middle" x="406" y="-147" font-family="Helvetica,sans-Serif" font-size="10.00"> l1_groups</text>
<text text-anchor="middle" x="406" y="-136" font-family="Helvetica,sans-Serif" font-size="10.00">l2_groups</text>
<text text-anchor="middle" x="406" y="-125" font-family="Helvetica,sans-Serif" font-size="10.00">length</text>
<text text-anchor="middle" x="406" y="-114" font-family="Helvetica,sans-Serif" font-size="10.00">start</text>
<text text-anchor="middle" x="406" y="-103" font-family="Helvetica,sans-Serif" font-size="10.00">total_sectors</text>
</g>
<!-- Node3&#45;&gt;Node2 -->
<g id="edge2" class="edge">
<title>Node3&#45;&gt;Node2</title>
<path fill="none" stroke="#9a32cd" stroke-dasharray="5,2" d="M185.91,-261.01C159.7,-256.71 128.21,-249.51 120,-239 96.15,-208.45 109.32,-157.31 115.93,-137.1"/>
<polygon fill="#9a32cd" stroke="#9a32cd" points="185.58,-264.5 195.99,-262.57 186.65,-257.58 185.58,-264.5"/>
<text text-anchor="middle" x="189.5" y="-231" font-family="Helvetica,sans-Serif" font-size="10.00"> free_space_map_checksum</text>
<text text-anchor="middle" x="189.5" y="-220" font-family="Helvetica,sans-Serif" font-size="10.00">free_space_map_length</text>
<text text-anchor="middle" x="189.5" y="-209" font-family="Helvetica,sans-Serif" font-size="10.00">free_space_map_start</text>
<text text-anchor="middle" x="189.5" y="-198" font-family="Helvetica,sans-Serif" font-size="10.00">identifier</text>
<text text-anchor="middle" x="189.5" y="-187" font-family="Helvetica,sans-Serif" font-size="10.00">root_directory</text>
<text text-anchor="middle" x="189.5" y="-176" font-family="Helvetica,sans-Serif" font-size="10.00">sequence</text>
</g>
<!-- Node6 -->
<g id="node6" class="node">
<title>Node6</title>
<g id="a_node6"><a xlink:href="structstorage__device__t.html" target="_top" xlink:title="Represents a block storage device e.g. a hard disk, DVD&#45;ROM drive, etc.">
<polygon fill="none" stroke="black" points="571,-118 571,-137 671,-137 671,-118 571,-118"/>
<text text-anchor="middle" x="621" y="-125" font-family="Helvetica,sans-Serif" font-size="10.00">storage_device_t</text>
</a>
</g>
</g>
<!-- Node3&#45;&gt;Node6 -->
<g id="edge7" class="edge">
<title>Node3&#45;&gt;Node6</title>
<path fill="none" stroke="#9a32cd" stroke-dasharray="5,2" d="M261.62,-255.04C269.93,-251.12 278.02,-245.9 284,-239 303.99,-215.93 279.26,-192.19 303,-173 347.86,-136.72 506.04,-169.04 562,-155 577.68,-151.07 594.39,-143.17 606.01,-137.02"/>
<polygon fill="#9a32cd" stroke="#9a32cd" points="260.15,-251.87 252.26,-258.94 262.83,-258.33 260.15,-251.87"/>
<text text-anchor="middle" x="326" y="-209" font-family="Helvetica,sans-Serif" font-size="10.00"> opaque1</text>
<text text-anchor="middle" x="326" y="-198" font-family="Helvetica,sans-Serif" font-size="10.00">size</text>
</g>
<!-- Node4 -->
<g id="node4" class="node">
<title>Node4</title>
<g id="a_node4"><a xlink:title=" ">
<polygon fill="none" stroke="#bfbfbf" points="0,-257.5 0,-276.5 50,-276.5 50,-257.5 0,-257.5"/>
<text text-anchor="middle" x="25" y="-264.5" font-family="Helvetica,sans-Serif" font-size="10.00">int64_t</text>
</a>
</g>
</g>
<!-- Node4&#45;&gt;Node2 -->
<g id="edge3" class="edge">
<title>Node4&#45;&gt;Node2</title>
<path fill="none" stroke="#9a32cd" stroke-dasharray="5,2" d="M19.89,-247.75C15.42,-227.75 11.64,-195.52 26,-173 37.84,-154.44 59.77,-143.44 79.36,-137.02"/>
<polygon fill="#9a32cd" stroke="#9a32cd" points="16.5,-248.62 22.34,-257.47 23.29,-246.91 16.5,-248.62"/>
<text text-anchor="middle" x="61.5" y="-203.5" font-family="Helvetica,sans-Serif" font-size="10.00"> creation_time</text>
</g>
<!-- Node5 -->
<g id="node5" class="node">
<title>Node5</title>
<g id="a_node5"><a xlink:title=" ">
<polygon fill="none" stroke="#bfbfbf" points="497,-118 497,-137 553,-137 553,-118 497,-118"/>
<text text-anchor="middle" x="525" y="-125" font-family="Helvetica,sans-Serif" font-size="10.00">uint16_t</text>
</a>
</g>
</g>
<!-- Node5&#45;&gt;Node1 -->
<g id="edge5" class="edge">
<title>Node5&#45;&gt;Node1</title>
<path fill="none" stroke="#9a32cd" stroke-dasharray="5,2" d="M524.76,-107.85C525.5,-88.14 529.66,-57.29 547,-38 561.08,-22.34 585,-15.75 601.82,-12.98"/>
<polygon fill="#9a32cd" stroke="#9a32cd" points="521.26,-107.96 524.64,-118 528.26,-108.04 521.26,-107.96"/>
<text text-anchor="middle" x="582" y="-57.5" font-family="Helvetica,sans-Serif" font-size="10.00"> l1_free_count</text>
</g>
<!-- Node6&#45;&gt;Node1 -->
<g id="edge6" class="edge">
<title>Node6&#45;&gt;Node1</title>
<path fill="none" stroke="#9a32cd" stroke-dasharray="5,2" d="M621,-107.66C621,-82.37 621,-38.44 621,-19.78"/>
<polygon fill="#9a32cd" stroke="#9a32cd" points="617.5,-107.82 621,-117.82 624.5,-107.82 617.5,-107.82"/>
<text text-anchor="middle" x="632" y="-57.5" font-family="Helvetica,sans-Serif" font-size="10.00"> dev</text>
</g>
<!-- Node6&#45;&gt;Node6 -->
<g id="edge13" class="edge">
<title>Node6&#45;&gt;Node6</title>
<path fill="none" stroke="#9a32cd" stroke-dasharray="5,2" d="M652.14,-139.06C671.08,-141.73 689,-137.87 689,-127.5 689,-115.32 664.29,-112.13 642.24,-117.94"/>
<polygon fill="#9a32cd" stroke="#9a32cd" points="652.73,-135.6 642.24,-137.06 651.35,-142.47 652.73,-135.6"/>
<text text-anchor="middle" x="701.5" y="-125" font-family="Helvetica,sans-Serif" font-size="10.00"> next</text>
</g>
<!-- Node7 -->
<g id="node7" class="node">
<title>Node7</title>
<g id="a_node7"><a xlink:title=" ">
<polygon fill="none" stroke="#bfbfbf" points="270,-257.5 270,-276.5 386,-276.5 386,-257.5 270,-257.5"/>
<text text-anchor="middle" x="328" y="-264.5" font-family="Helvetica,sans-Serif" font-size="10.00">struct block_cache *</text>
</a>
</g>
</g>
<!-- Node7&#45;&gt;Node6 -->
<g id="edge8" class="edge">
<title>Node7&#45;&gt;Node6</title>
<path fill="none" stroke="#9a32cd" stroke-dasharray="5,2" d="M344.8,-249.99C347.8,-246.56 350.7,-242.82 353,-239 369,-212.37 351.57,-192.19 376,-173 408.65,-147.34 521.86,-165.65 562,-155 577.41,-150.91 593.88,-143.21 605.49,-137.15"/>
<polygon fill="#9a32cd" stroke="#9a32cd" points="342.21,-247.63 337.83,-257.28 347.27,-252.47 342.21,-247.63"/>
<text text-anchor="middle" x="392" y="-203.5" font-family="Helvetica,sans-Serif" font-size="10.00"> cache</text>
</g>
<!-- Node8 -->
<g id="node8" class="node">
<title>Node8</title>
<g id="a_node8"><a xlink:href="structstorage__device__ui__t.html" target="_top" xlink:title=" ">
<polygon fill="none" stroke="black" points="471,-257.5 471,-276.5 585,-276.5 585,-257.5 471,-257.5"/>
<text text-anchor="middle" x="528" y="-264.5" font-family="Helvetica,sans-Serif" font-size="10.00">storage_device_ui_t</text>
</a>
</g>
</g>
<!-- Node8&#45;&gt;Node6 -->
<g id="edge9" class="edge">
<title>Node8&#45;&gt;Node6</title>
<path fill="none" stroke="#9a32cd" stroke-dasharray="5,2" d="M539.55,-248.93C559.59,-219.3 600.12,-159.38 615.18,-137.1"/>
<polygon fill="#9a32cd" stroke="#9a32cd" points="536.52,-247.15 533.82,-257.4 542.32,-251.08 536.52,-247.15"/>
<text text-anchor="middle" x="595.5" y="-203.5" font-family="Helvetica,sans-Serif" font-size="10.00"> ui</text>
</g>
<!-- Node9 -->
<g id="node9" class="node">
<title>Node9</title>
<g id="a_node9"><a xlink:title=" ">
<polygon fill="none" stroke="#bfbfbf" points="451,-324.5 451,-343.5 489,-343.5 489,-324.5 451,-324.5"/>
<text text-anchor="middle" x="470" y="-331.5" font-family="Helvetica,sans-Serif" font-size="10.00">char</text>
</a>
</g>
</g>
<!-- Node9&#45;&gt;Node6 -->
<g id="edge12" class="edge">
<title>Node9&#45;&gt;Node6</title>
<path fill="none" stroke="#9a32cd" stroke-dasharray="5,2" d="M452.21,-316.92C437.48,-301.56 420.52,-277.74 431,-257 449.5,-220.39 561.26,-159.49 604.2,-137.1"/>
<polygon fill="#9a32cd" stroke="#9a32cd" points="449.97,-319.62 459.56,-324.13 454.87,-314.63 449.97,-319.62"/>
<text text-anchor="middle" x="446.5" y="-264.5" font-family="Helvetica,sans-Serif" font-size="10.00"> name</text>
</g>
<!-- Node9&#45;&gt;Node8 -->
<g id="edge10" class="edge">
<title>Node9&#45;&gt;Node8</title>
<path fill="none" stroke="#9a32cd" stroke-dasharray="5,2" d="M484.6,-316.63C495.95,-303.92 511.23,-286.8 520.3,-276.63"/>
<polygon fill="#9a32cd" stroke="#9a32cd" points="481.87,-314.44 477.82,-324.23 487.09,-319.1 481.87,-314.44"/>
<text text-anchor="middle" x="517" y="-298" font-family="Helvetica,sans-Serif" font-size="10.00"> label</text>
</g>
<!-- Node10 -->
<g id="node10" class="node">
<title>Node10</title>
<g id="a_node10"><a xlink:title=" ">
<polygon fill="none" stroke="#bfbfbf" points="532,-324.5 532,-343.5 570,-343.5 570,-324.5 532,-324.5"/>
<text text-anchor="middle" x="551" y="-331.5" font-family="Helvetica,sans-Serif" font-size="10.00">bool</text>
</a>
</g>
</g>
<!-- Node10&#45;&gt;Node6 -->
<g id="edge16" class="edge">
<title>Node10&#45;&gt;Node6</title>
<path fill="none" stroke="#9a32cd" stroke-dasharray="5,2" d="M579.29,-320.6C585.31,-316.73 591.04,-311.9 595,-306 631.99,-250.93 625.43,-164.62 622.18,-137.18"/>
<polygon fill="#9a32cd" stroke="#9a32cd" points="577.43,-317.62 570.43,-325.57 580.86,-323.73 577.43,-317.62"/>
<text text-anchor="middle" x="643" y="-264.5" font-family="Helvetica,sans-Serif" font-size="10.00"> blockclear</text>
</g>
<!-- Node10&#45;&gt;Node8 -->
<g id="edge11" class="edge">
<title>Node10&#45;&gt;Node8</title>
<path fill="none" stroke="#9a32cd" stroke-dasharray="5,2" d="M544.56,-314.79C540.14,-302.31 534.48,-286.31 531.05,-276.63"/>
<polygon fill="#9a32cd" stroke="#9a32cd" points="541.26,-315.97 547.9,-324.23 547.86,-313.64 541.26,-315.97"/>
<text text-anchor="middle" x="566" y="-298" font-family="Helvetica,sans-Serif" font-size="10.00"> is_optical</text>
</g>
<!-- Node11 -->
<g id="node11" class="node">
<title>Node11</title>
<g id="a_node11"><a xlink:title=" ">
<polygon fill="none" stroke="#bfbfbf" points="693,-257.5 693,-276.5 749,-276.5 749,-257.5 693,-257.5"/>
<text text-anchor="middle" x="721" y="-264.5" font-family="Helvetica,sans-Serif" font-size="10.00">uint32_t</text>
</a>
</g>
</g>
<!-- Node11&#45;&gt;Node6 -->
<g id="edge14" class="edge">
<title>Node11&#45;&gt;Node6</title>
<path fill="none" stroke="#9a32cd" stroke-dasharray="5,2" d="M683.02,-256.96C672.77,-252.93 662.47,-247.17 655,-239 647.89,-231.22 629.57,-161.85 623.21,-137.17"/>
<polygon fill="#9a32cd" stroke="#9a32cd" points="682.14,-260.36 692.73,-260.32 684.43,-253.74 682.14,-260.36"/>
<text text-anchor="middle" x="682.5" y="-203.5" font-family="Helvetica,sans-Serif" font-size="10.00"> block_size</text>
</g>
<!-- Node12 -->
<g id="node12" class="node">
<title>Node12</title>
<g id="a_node12"><a xlink:title=" ">
<polygon fill="none" stroke="#bfbfbf" points="767.5,-257.5 767.5,-276.5 796.5,-276.5 796.5,-257.5 767.5,-257.5"/>
<text text-anchor="middle" x="782" y="-264.5" font-family="Helvetica,sans-Serif" font-size="10.00">int</text>
</a>
</g>
</g>
<!-- Node12&#45;&gt;Node6 -->
<g id="edge15" class="edge">
<title>Node12&#45;&gt;Node6</title>
<path fill="none" stroke="#9a32cd" stroke-dasharray="5,2" d="M758.15,-254.89C747.6,-249.57 736.73,-243.42 733,-239 712.96,-215.27 730.51,-196.33 710,-173 694.49,-155.36 670.34,-143.9 651.11,-137.04"/>
<polygon fill="#9a32cd" stroke="#9a32cd" points="756.64,-258.04 767.16,-259.28 759.71,-251.75 756.64,-258.04"/>
<text text-anchor="middle" x="759" y="-209" font-family="Helvetica,sans-Serif" font-size="10.00"> blockread</text>
<text text-anchor="middle" x="759" y="-198" font-family="Helvetica,sans-Serif" font-size="10.00">blockwrite</text>
</g>
<!-- Node13 -->
<g id="node13" class="node">
<title>Node13</title>
<g id="a_node13"><a xlink:title=" ">
<polygon fill="none" stroke="#bfbfbf" points="830,-257.5 830,-276.5 876,-276.5 876,-257.5 830,-257.5"/>
<text text-anchor="middle" x="853" y="-264.5" font-family="Helvetica,sans-Serif" font-size="10.00">void *</text>
</a>
</g>
</g>
<!-- Node13&#45;&gt;Node1 -->
<g id="edge20" class="edge">
<title>Node13&#45;&gt;Node1</title>
<path fill="none" stroke="#9a32cd" stroke-dasharray="5,2" d="M858.07,-247.61C862.42,-227.95 866.25,-196.44 854,-173 807.44,-83.93 687.13,-33.94 640.17,-17.31"/>
<polygon fill="#9a32cd" stroke="#9a32cd" points="854.64,-246.88 855.63,-257.43 861.43,-248.57 854.64,-246.88"/>
<text text-anchor="middle" x="875" y="-125" font-family="Helvetica,sans-Serif" font-size="10.00"> cache_block</text>
</g>
<!-- Node13&#45;&gt;Node6 -->
<g id="edge17" class="edge">
<title>Node13&#45;&gt;Node6</title>
<path fill="none" stroke="#9a32cd" stroke-dasharray="5,2" d="M823.44,-252.32C817.73,-248.63 812.23,-244.19 808,-239 788.4,-214.9 807.72,-194.18 785,-173 754.35,-144.44 707.25,-133.87 671.37,-130.12"/>
<polygon fill="#9a32cd" stroke="#9a32cd" points="822,-255.53 832.42,-257.5 825.5,-249.47 822,-255.53"/>
<text text-anchor="middle" x="831" y="-209" font-family="Helvetica,sans-Serif" font-size="10.00"> opaque2</text>
<text text-anchor="middle" x="831" y="-198" font-family="Helvetica,sans-Serif" font-size="10.00">opaque3</text>
</g>
<!-- Node14 -->
<g id="node14" class="node">
<title>Node14</title>
<g id="a_node14"><a xlink:title=" ">
<polygon fill="none" stroke="#bfbfbf" points="950.5,-118 950.5,-137 995.5,-137 995.5,-118 950.5,-118"/>
<text text-anchor="middle" x="973" y="-125" font-family="Helvetica,sans-Serif" font-size="10.00">size_t</text>
</a>
</g>
</g>
<!-- Node14&#45;&gt;Node1 -->
<g id="edge18" class="edge">
<title>Node14&#45;&gt;Node1</title>
<path fill="none" stroke="#9a32cd" stroke-dasharray="5,2" d="M961.26,-109.53C945.78,-88.68 916.43,-54.1 882,-38 838.98,-17.89 692.9,-12.63 640.18,-11.37"/>
<polygon fill="#9a32cd" stroke="#9a32cd" points="958.51,-111.7 967.19,-117.78 964.19,-107.61 958.51,-111.7"/>
<text text-anchor="middle" x="982" y="-57.5" font-family="Helvetica,sans-Serif" font-size="10.00"> cache_block_size</text>
</g>
<!-- Node15 -->
<g id="node15" class="node">
<title>Node15</title>
<g id="a_node15"><a xlink:title=" ">
<polygon fill="none" stroke="#bfbfbf" points="1036,-118 1036,-137 1086,-137 1086,-118 1036,-118"/>
<text text-anchor="middle" x="1061" y="-125" font-family="Helvetica,sans-Serif" font-size="10.00">uint8_t</text>
</a>
</g>
</g>
<!-- Node15&#45;&gt;Node1 -->
<g id="edge19" class="edge">
<title>Node15&#45;&gt;Node1</title>
<path fill="none" stroke="#9a32cd" stroke-dasharray="5,2" d="M1060.22,-107.84C1058.25,-87.12 1051.65,-54.46 1030,-38 998.7,-14.21 716.63,-11.37 640.09,-11.04"/>
<polygon fill="#9a32cd" stroke="#9a32cd" points="1056.73,-108.19 1060.9,-117.93 1063.72,-107.72 1056.73,-108.19"/>
<text text-anchor="middle" x="1082.5" y="-74" font-family="Helvetica,sans-Serif" font-size="10.00"> l1_all_free</text>
<text text-anchor="middle" x="1082.5" y="-63" font-family="Helvetica,sans-Serif" font-size="10.00">l1_not_full</text>
<text text-anchor="middle" x="1082.5" y="-52" font-family="Helvetica,sans-Serif" font-size="10.00">l2_all_free</text>
<text text-anchor="middle" x="1082.5" y="-41" font-family="Helvetica,sans-Serif" font-size="10.00">l2_not_full</text>
</g>
</g>
</svg>
        <g id="navigator" transform="translate(0 0)" fill="#404254">
                <rect fill="#f2f5e9" fill-opacity="0.5" stroke="#606060" stroke-width=".5" x="0" y="0" width="60" height="60"/>
                <use id="zoomplus" xlink:href="#zoomPlus" x="17" y="9" onmousedown="handleZoom(evt,'in')"/>
                <use id="zoomminus" xlink:href="#zoomMin" x="42" y="9" onmousedown="handleZoom(evt,'out')"/>
                <use id="reset" xlink:href="#resetDef" x="30" y="36" onmousedown="handleReset()"/>
                <g id="arrowUp" xlink:href="#dirArrow" transform="translate(30 24)" onmousedown="handlePan(0,-1)">
                  <use xlink:href="#rim" fill="#404040">
                        <set attributeName="fill" to="#808080" begin="arrowUp.mouseover" end="arrowUp.mouseout"/>
                  </use>
                  <path fill="none" stroke="white" stroke-width="1.5" d="M0,-3.0v7 M-2.5,-0.5L0,-3.0L2.5,-0.5"/>
                </g>
                <g id="arrowRight" xlink:href="#dirArrow" transform="rotate(90) translate(36 -43)" onmousedown="handlePan(1,0)">
                  <use xlink:href="#rim" fill="#404040">
                        <set attributeName="fill" to="#808080" begin="arrowRight.mouseover" end="arrowRight.mouseout"/>
                  </use>
                  <path fill="none" stroke="white" stroke-width="1.5" d="M0,-3.0v7 M-2.5,-0.5L0,-3.0L2.5,-0.5"/>
                </g>
                <g id="arrowDown" xlink:href="#dirArrow" transform="rotate(180) translate(-30 -48)" onmousedown="handlePan(0,1)">
                  <use xlink:href="#rim" fill="#404040">
                        <set attributeName="fill" to="#808080" begin="arrowDown.mouseover" end="arrowDown.mouseout"/>
                  </use>
                  <path fill="none" stroke="white" stroke-width="1.5" d="M0,-3.0v7 M-2.5,-0.5L0,-3.0L2.5,-0.5"/>
                </g>
                <g id="arrowLeft" xlink:href="#dirArrow" transform="rotate(270) translate(-36 17)" onmousedown="handlePan(-1,0)">
                  <use xlink:href="#rim" fill="#404040">
                        <set attributeName="fill" to="#808080" begin="arrowLeft.mouseover" end="arrowLeft.mouseout"/>
                  </use>
                  <path fill="none" stroke="white" stroke-width="1.5" d="M0,-3.0v7 M-2.5,-0.5L0,-3.0L2.5,-0.5"/>
                </g>
        </g>
        <svg viewBox="0 0 15 15" width="100%" height="30px" preserveAspectRatio="xMaxYMin meet">
         <g id="arrow_out" transform="scale(0.3 0.3)">
          <a xlink:href="structrfs__t__coll__graph_org.svg" target="_base">
           <rect id="button" ry="5" rx="5" y="6" x="6" height="38" width="38"
                fill="#f2f5e9" fill-opacity="0.5" stroke="#606060" stroke-width="1.0"/>
           <path id="arrow"
             d="M 11.500037,31.436501 C 11.940474,20.09759 22.043105,11.32322 32.158766,21.979434 L 37.068811,17.246167 C 37.068811,17.246167 37.088388,32 37.088388,32 L 22.160133,31.978069 C 22.160133,31.978069 26.997745,27.140456 26.997745,27.140456 C 18.528582,18.264221 13.291696,25.230495 11.500037,31.436501 z"
             style="fill:#404040;"/>
          </a>
         </g>
        </svg>
</svg>
