<?xml version="1.0" encoding="UTF-8" standalone="no"?>
<!DOCTYPE svg PUBLIC "-//W3C//DTD SVG 1.1//EN"
 "http://www.w3.org/Graphics/SVG/1.1/DTD/svg11.dtd">
<!-- Generated by graphviz version 2.43.0 (0)
 -->
<!-- Title: fs_tree_t Pages: 1 -->
<svg width="649pt" height="288pt"
 viewBox="0.00 0.00 649.26 288.00" xmlns="http://www.w3.org/2000/svg" xmlns:xlink="http://www.w3.org/1999/xlink">
<g id="graph0" class="graph" transform="scale(1 1) rotate(0) translate(4 284)">
<title>fs_tree_t</title>
<!-- Node1 -->
<g id="node1" class="node">
<title>Node1</title>
<g id="a_node1"><a xlink:title=" ">
<polygon fill="#bfbfbf" stroke="black" points="269.76,-85 269.76,-104 328.76,-104 328.76,-85 269.76,-85"/>
<text text-anchor="middle" x="299.26" y="-92" font-family="Helvetica,sans-Serif" font-size="10.00">fs_tree_t</text>
</a>
</g>
</g>
<!-- Node1&#45;&gt;Node1 -->
<g id="edge10" class="edge">
<title>Node1&#45;&gt;Node1</title>
<path fill="none" stroke="#9a32cd" stroke-dasharray="5,2" d="M338.93,-102.56C343.66,-101.09 346.76,-98.41 346.76,-94.5 346.76,-88.25 338.84,-85.12 328.94,-85.12"/>
<polygon fill="#9a32cd" stroke="#9a32cd" points="338.4,-99.1 328.94,-103.88 339.32,-106.04 338.4,-99.1"/>
<text text-anchor="middle" x="371.76" y="-103" font-family="Helvetica,sans-Serif" font-size="10.00"> child_dirs</text>
<text text-anchor="middle" x="371.76" y="-92" font-family="Helvetica,sans-Serif" font-size="10.00">next</text>
<text text-anchor="middle" x="371.76" y="-81" font-family="Helvetica,sans-Serif" font-size="10.00">parent</text>
</g>
<!-- Node3 -->
<g id="node3" class="node">
<title>Node3</title>
<g id="a_node3"><a xlink:href="structfs__directory__entry__t.html" target="_top" xlink:title=" ">
<polygon fill="none" stroke="black" points="162.26,-0.5 162.26,-19.5 276.26,-19.5 276.26,-0.5 162.26,-0.5"/>
<text text-anchor="middle" x="219.26" y="-7.5" font-family="Helvetica,sans-Serif" font-size="10.00">fs_directory_entry_t</text>
</a>
</g>
</g>
<!-- Node1&#45;&gt;Node3 -->
<g id="edge5" class="edge">
<title>Node1&#45;&gt;Node3</title>
<path fill="none" stroke="#9a32cd" stroke-dasharray="5,2" d="M295.59,-74.82C292.44,-63.03 286.85,-48.17 277.26,-38 269.48,-29.76 258.7,-23.8 248.53,-19.61"/>
<polygon fill="#9a32cd" stroke="#9a32cd" points="292.26,-75.95 297.9,-84.92 299.08,-74.39 292.26,-75.95"/>
<text text-anchor="middle" x="308.76" y="-41" font-family="Helvetica,sans-Serif" font-size="10.00"> directory</text>
</g>
<!-- Node2 -->
<g id="node2" class="node">
<title>Node2</title>
<g id="a_node2"><a xlink:title=" ">
<polygon fill="none" stroke="#bfbfbf" points="80.26,-181.5 80.26,-200.5 136.26,-200.5 136.26,-181.5 80.26,-181.5"/>
<text text-anchor="middle" x="108.26" y="-188.5" font-family="Helvetica,sans-Serif" font-size="10.00">uint64_t</text>
</a>
</g>
</g>
<!-- Node2&#45;&gt;Node1 -->
<g id="edge1" class="edge">
<title>Node2&#45;&gt;Node1</title>
<path fill="none" stroke="#9a32cd" stroke-dasharray="5,2" d="M134.33,-176.77C155.03,-166.41 184.78,-151.83 211.26,-140 230.55,-131.38 236.37,-131.48 255.26,-122 265.94,-116.64 277.49,-109.63 286.08,-104.17"/>
<polygon fill="#9a32cd" stroke="#9a32cd" points="132.59,-173.73 125.23,-181.35 135.74,-179.98 132.59,-173.73"/>
<text text-anchor="middle" x="222.76" y="-148.5" font-family="Helvetica,sans-Serif" font-size="10.00"> size</text>
</g>
<!-- Node2&#45;&gt;Node3 -->
<g id="edge4" class="edge">
<title>Node2&#45;&gt;Node3</title>
<path fill="none" stroke="#9a32cd" stroke-dasharray="5,2" d="M96.98,-172.58C82.13,-147.22 60.34,-99.63 82.26,-67 100.09,-40.44 132.98,-26.47 162.07,-19.13"/>
<polygon fill="#9a32cd" stroke="#9a32cd" points="94.19,-174.72 102.4,-181.41 100.15,-171.06 94.19,-174.72"/>
<text text-anchor="middle" x="100.26" y="-97.5" font-family="Helvetica,sans-Serif" font-size="10.00"> lbapos</text>
<text text-anchor="middle" x="100.26" y="-86.5" font-family="Helvetica,sans-Serif" font-size="10.00">size</text>
</g>
<!-- Node3&#45;&gt;Node1 -->
<g id="edge2" class="edge">
<title>Node3&#45;&gt;Node1</title>
<path fill="none" stroke="#9a32cd" stroke-dasharray="5,2" d="M233.52,-27.45C239.51,-34.23 246.61,-42.09 253.26,-49 265.58,-61.81 280.47,-75.99 289.9,-84.83"/>
<polygon fill="#9a32cd" stroke="#9a32cd" points="235.87,-24.83 226.65,-19.61 230.6,-29.44 235.87,-24.83"/>
<text text-anchor="middle" x="265.26" y="-41" font-family="Helvetica,sans-Serif" font-size="10.00"> files</text>
</g>
<!-- Node3&#45;&gt;Node3 -->
<g id="edge3" class="edge">
<title>Node3&#45;&gt;Node3</title>
<path fill="none" stroke="#9a32cd" stroke-dasharray="5,2" d="M286.7,-14.37C291.4,-13.37 294.26,-11.91 294.26,-10 294.26,-6.94 286.93,-5.05 276.48,-4.33"/>
<polygon fill="#9a32cd" stroke="#9a32cd" points="285.96,-10.93 276.48,-15.67 286.85,-17.88 285.96,-10.93"/>
<text text-anchor="middle" x="306.76" y="-7.5" font-family="Helvetica,sans-Serif" font-size="10.00"> next</text>
</g>
<!-- Node4 -->
<g id="node4" class="node">
<title>Node4</title>
<g id="a_node4"><a xlink:title=" ">
<polygon fill="none" stroke="#bfbfbf" points="127.26,-85 127.26,-104 183.26,-104 183.26,-85 127.26,-85"/>
<text text-anchor="middle" x="155.26" y="-92" font-family="Helvetica,sans-Serif" font-size="10.00">uint16_t</text>
</a>
</g>
</g>
<!-- Node4&#45;&gt;Node3 -->
<g id="edge6" class="edge">
<title>Node4&#45;&gt;Node3</title>
<path fill="none" stroke="#9a32cd" stroke-dasharray="5,2" d="M160.76,-74.95C164.83,-63.44 171.24,-48.83 180.26,-38 186.47,-30.53 195.25,-24.21 202.9,-19.57"/>
<polygon fill="#9a32cd" stroke="#9a32cd" points="157.32,-74.22 157.57,-84.82 163.98,-76.38 157.32,-74.22"/>
<text text-anchor="middle" x="192.76" y="-41" font-family="Helvetica,sans-Serif" font-size="10.00"> year</text>
</g>
<!-- Node5 -->
<g id="node5" class="node">
<title>Node5</title>
<g id="a_node5"><a xlink:title=" ">
<polygon fill="none" stroke="#bfbfbf" points="261.26,-260.5 261.26,-279.5 299.26,-279.5 299.26,-260.5 261.26,-260.5"/>
<text text-anchor="middle" x="280.26" y="-267.5" font-family="Helvetica,sans-Serif" font-size="10.00">char</text>
</a>
</g>
</g>
<!-- Node5&#45;&gt;Node1 -->
<g id="edge17" class="edge">
<title>Node5&#45;&gt;Node1</title>
<path fill="none" stroke="#9a32cd" stroke-dasharray="5,2" d="M282.05,-250.38C283.8,-232.37 286.59,-204.3 289.26,-180 292.29,-152.39 296.26,-119.76 298.16,-104.38"/>
<polygon fill="#9a32cd" stroke="#9a32cd" points="278.56,-250.11 281.08,-260.4 285.52,-250.79 278.56,-250.11"/>
<text text-anchor="middle" x="323.76" y="-194" font-family="Helvetica,sans-Serif" font-size="10.00"> device_name</text>
<text text-anchor="middle" x="323.76" y="-183" font-family="Helvetica,sans-Serif" font-size="10.00">name</text>
</g>
<!-- Node5&#45;&gt;Node3 -->
<g id="edge7" class="edge">
<title>Node5&#45;&gt;Node3</title>
<path fill="none" stroke="#9a32cd" stroke-dasharray="5,2" d="M250.65,-268.48C190.74,-265.58 56.76,-249.18 9.26,-162 -22.95,-102.88 37.79,-71.37 96.26,-38 116.19,-26.62 140.47,-20.04 162.17,-16.22"/>
<polygon fill="#9a32cd" stroke="#9a32cd" points="250.81,-271.99 260.94,-268.88 251.09,-265 250.81,-271.99"/>
<text text-anchor="middle" x="43.76" y="-154" font-family="Helvetica,sans-Serif" font-size="10.00"> device_name</text>
<text text-anchor="middle" x="43.76" y="-143" font-family="Helvetica,sans-Serif" font-size="10.00">filename</text>
</g>
<!-- Node8 -->
<g id="node8" class="node">
<title>Node8</title>
<g id="a_node8"><a xlink:href="structfilesystem__t.html" target="_top" xlink:title=" ">
<polygon fill="none" stroke="black" points="367.76,-181.5 367.76,-200.5 444.76,-200.5 444.76,-181.5 367.76,-181.5"/>
<text text-anchor="middle" x="406.26" y="-188.5" font-family="Helvetica,sans-Serif" font-size="10.00">filesystem_t</text>
</a>
</g>
</g>
<!-- Node5&#45;&gt;Node8 -->
<g id="edge15" class="edge">
<title>Node5&#45;&gt;Node8</title>
<path fill="none" stroke="#9a32cd" stroke-dasharray="5,2" d="M300.68,-254.14C314.87,-244.06 334.36,-230.68 352.26,-220 364.05,-212.97 377.79,-205.86 388.46,-200.56"/>
<polygon fill="#9a32cd" stroke="#9a32cd" points="298.28,-251.55 292.2,-260.22 302.36,-257.24 298.28,-251.55"/>
<text text-anchor="middle" x="369.76" y="-234" font-family="Helvetica,sans-Serif" font-size="10.00"> mount</text>
<text text-anchor="middle" x="369.76" y="-223" font-family="Helvetica,sans-Serif" font-size="10.00">name</text>
</g>
<!-- Node6 -->
<g id="node6" class="node">
<title>Node6</title>
<g id="a_node6"><a xlink:title=" ">
<polygon fill="none" stroke="#bfbfbf" points="560.26,-260.5 560.26,-279.5 616.26,-279.5 616.26,-260.5 560.26,-260.5"/>
<text text-anchor="middle" x="588.26" y="-267.5" font-family="Helvetica,sans-Serif" font-size="10.00">uint32_t</text>
</a>
</g>
</g>
<!-- Node6&#45;&gt;Node1 -->
<g id="edge18" class="edge">
<title>Node6&#45;&gt;Node1</title>
<path fill="none" stroke="#9a32cd" stroke-dasharray="5,2" d="M587.81,-250.02C586.02,-221.23 578.05,-167.01 544.26,-140 511.42,-113.75 387.05,-101.7 329.2,-97.43"/>
<polygon fill="#9a32cd" stroke="#9a32cd" points="584.33,-250.5 588.25,-260.34 591.32,-250.2 584.33,-250.5"/>
<text text-anchor="middle" x="597.26" y="-194" font-family="Helvetica,sans-Serif" font-size="10.00"> device</text>
<text text-anchor="middle" x="597.26" y="-183" font-family="Helvetica,sans-Serif" font-size="10.00">lbapos</text>
</g>
<!-- Node6&#45;&gt;Node3 -->
<g id="edge8" class="edge">
<title>Node6&#45;&gt;Node3</title>
<path fill="none" stroke="#9a32cd" stroke-dasharray="5,2" d="M601.92,-252.19C615.01,-233.92 631.13,-204.11 619.26,-180 606.38,-153.84 592.27,-154.98 567.26,-140 470.97,-82.34 443.06,-72.49 336.26,-38 312.95,-30.47 286.39,-24.17 264.47,-19.55"/>
<polygon fill="#9a32cd" stroke="#9a32cd" points="598.97,-250.3 595.7,-260.38 604.54,-254.53 598.97,-250.3"/>
<text text-anchor="middle" x="623.26" y="-154" font-family="Helvetica,sans-Serif" font-size="10.00"> device</text>
<text text-anchor="middle" x="623.26" y="-143" font-family="Helvetica,sans-Serif" font-size="10.00">flags</text>
</g>
<!-- Node6&#45;&gt;Node8 -->
<g id="edge16" class="edge">
<title>Node6&#45;&gt;Node8</title>
<path fill="none" stroke="#9a32cd" stroke-dasharray="5,2" d="M560.53,-256.02C538.61,-245.88 507.16,-231.61 479.26,-220 462.84,-213.17 444.11,-206 429.73,-200.62"/>
<polygon fill="#9a32cd" stroke="#9a32cd" points="559.34,-259.32 569.88,-260.36 562.28,-252.97 559.34,-259.32"/>
<text text-anchor="middle" x="547.26" y="-234" font-family="Helvetica,sans-Serif" font-size="10.00"> readfile</text>
<text text-anchor="middle" x="547.26" y="-223" font-family="Helvetica,sans-Serif" font-size="10.00">writefile</text>
</g>
<!-- Node7 -->
<g id="node7" class="node">
<title>Node7</title>
<g id="a_node7"><a xlink:title=" ">
<polygon fill="none" stroke="#bfbfbf" points="194.26,-181.5 194.26,-200.5 244.26,-200.5 244.26,-181.5 194.26,-181.5"/>
<text text-anchor="middle" x="219.26" y="-188.5" font-family="Helvetica,sans-Serif" font-size="10.00">uint8_t</text>
</a>
</g>
</g>
<!-- Node7&#45;&gt;Node1 -->
<g id="edge19" class="edge">
<title>Node7&#45;&gt;Node1</title>
<path fill="none" stroke="#9a32cd" stroke-dasharray="5,2" d="M229.65,-172.9C236,-162.94 244.55,-150.35 253.26,-140 264.56,-126.57 279.43,-112.76 289.16,-104.17"/>
<polygon fill="#9a32cd" stroke="#9a32cd" points="226.62,-171.15 224.3,-181.49 232.56,-174.85 226.62,-171.15"/>
<text text-anchor="middle" x="266.26" y="-148.5" font-family="Helvetica,sans-Serif" font-size="10.00"> dirty</text>
</g>
<!-- Node7&#45;&gt;Node3 -->
<g id="edge9" class="edge">
<title>Node7&#45;&gt;Node3</title>
<path fill="none" stroke="#9a32cd" stroke-dasharray="5,2" d="M219.26,-171.09C219.26,-132.68 219.26,-46.89 219.26,-19.55"/>
<polygon fill="#9a32cd" stroke="#9a32cd" points="215.76,-171.37 219.26,-181.37 222.76,-171.37 215.76,-171.37"/>
<text text-anchor="middle" x="235.26" y="-114" font-family="Helvetica,sans-Serif" font-size="10.00"> day</text>
<text text-anchor="middle" x="235.26" y="-103" font-family="Helvetica,sans-Serif" font-size="10.00">hour</text>
<text text-anchor="middle" x="235.26" y="-92" font-family="Helvetica,sans-Serif" font-size="10.00">min</text>
<text text-anchor="middle" x="235.26" y="-81" font-family="Helvetica,sans-Serif" font-size="10.00">month</text>
<text text-anchor="middle" x="235.26" y="-70" font-family="Helvetica,sans-Serif" font-size="10.00">sec</text>
</g>
<!-- Node8&#45;&gt;Node1 -->
<g id="edge11" class="edge">
<title>Node8&#45;&gt;Node1</title>
<path fill="none" stroke="#9a32cd" stroke-dasharray="5,2" d="M388.82,-174.6C366.13,-154.56 327.24,-120.22 309.11,-104.2"/>
<polygon fill="#9a32cd" stroke="#9a32cd" points="386.57,-177.28 396.38,-181.28 391.2,-172.04 386.57,-177.28"/>
<text text-anchor="middle" x="419.26" y="-148.5" font-family="Helvetica,sans-Serif" font-size="10.00"> responsible_driver</text>
</g>
<!-- Node8&#45;&gt;Node8 -->
<g id="edge13" class="edge">
<title>Node8&#45;&gt;Node8</title>
<path fill="none" stroke="#9a32cd" stroke-dasharray="5,2" d="M454.98,-197.09C459.74,-195.86 462.76,-193.83 462.76,-191 462.76,-186.47 455.02,-183.99 444.81,-183.57"/>
<polygon fill="#9a32cd" stroke="#9a32cd" points="454.27,-193.65 444.81,-198.43 455.19,-200.59 454.27,-193.65"/>
<text text-anchor="middle" x="475.26" y="-188.5" font-family="Helvetica,sans-Serif" font-size="10.00"> next</text>
</g>
<!-- Node9 -->
<g id="node9" class="node">
<title>Node9</title>
<g id="a_node9"><a xlink:title=" ">
<polygon fill="none" stroke="#bfbfbf" points="334.76,-260.5 334.76,-279.5 429.76,-279.5 429.76,-260.5 334.76,-260.5"/>
<text text-anchor="middle" x="382.26" y="-267.5" font-family="Helvetica,sans-Serif" font-size="10.00">void *(*)(void *)</text>
</a>
</g>
</g>
<!-- Node9&#45;&gt;Node8 -->
<g id="edge12" class="edge">
<title>Node9&#45;&gt;Node8</title>
<path fill="none" stroke="#9a32cd" stroke-dasharray="5,2" d="M387.94,-250.77C392.85,-235.02 399.74,-212.92 403.51,-200.81"/>
<polygon fill="#9a32cd" stroke="#9a32cd" points="384.55,-249.88 384.92,-260.47 391.23,-251.96 384.55,-249.88"/>
<text text-anchor="middle" x="413.26" y="-228.5" font-family="Helvetica,sans-Serif" font-size="10.00"> getdir</text>
</g>
<!-- Node10 -->
<g id="node10" class="node">
<title>Node10</title>
<g id="a_node10"><a xlink:title=" ">
<polygon fill="none" stroke="#bfbfbf" points="447.76,-260.5 447.76,-279.5 526.76,-279.5 526.76,-260.5 447.76,-260.5"/>
<text text-anchor="middle" x="487.26" y="-267.5" font-family="Helvetica,sans-Serif" font-size="10.00">int(*)(void *)</text>
</a>
</g>
</g>
<!-- Node10&#45;&gt;Node8 -->
<g id="edge14" class="edge">
<title>Node10&#45;&gt;Node8</title>
<path fill="none" stroke="#9a32cd" stroke-dasharray="5,2" d="M470.88,-253.43C454.22,-237.6 429,-213.62 415.52,-200.81"/>
<polygon fill="#9a32cd" stroke="#9a32cd" points="468.62,-256.11 478.28,-260.47 473.44,-251.04 468.62,-256.11"/>
<text text-anchor="middle" x="466.76" y="-228.5" font-family="Helvetica,sans-Serif" font-size="10.00"> rm</text>
</g>
<!-- Node11 -->
<g id="node11" class="node">
<title>Node11</title>
<g id="a_node11"><a xlink:title=" ">
<polygon fill="none" stroke="#bfbfbf" points="506.26,-181.5 506.26,-200.5 552.26,-200.5 552.26,-181.5 506.26,-181.5"/>
<text text-anchor="middle" x="529.26" y="-188.5" font-family="Helvetica,sans-Serif" font-size="10.00">void *</text>
</a>
</g>
</g>
<!-- Node11&#45;&gt;Node1 -->
<g id="edge20" class="edge">
<title>Node11&#45;&gt;Node1</title>
<path fill="none" stroke="#9a32cd" stroke-dasharray="5,2" d="M514.17,-173.84C503.03,-162.81 486.94,-148.66 470.26,-140 424.11,-116.04 364.11,-104.3 328.83,-99.1"/>
<polygon fill="#9a32cd" stroke="#9a32cd" points="511.87,-176.49 521.36,-181.21 516.88,-171.61 511.87,-176.49"/>
<text text-anchor="middle" x="520.26" y="-148.5" font-family="Helvetica,sans-Serif" font-size="10.00"> opaque</text>
</g>
</g>
</svg>
