<?xml version="1.0" encoding="UTF-8" standalone="no"?>
<!DOCTYPE svg PUBLIC "-//W3C//DTD SVG 1.1//EN"
 "http://www.w3.org/Graphics/SVG/1.1/DTD/svg11.dtd">
<!-- Generated by graphviz version 2.43.0 (0)
 -->
<!-- Title: dns_request_t Pages: 1 -->
<svg width="316pt" height="117pt"
 viewBox="0.00 0.00 316.00 117.00" xmlns="http://www.w3.org/2000/svg" xmlns:xlink="http://www.w3.org/1999/xlink">
<g id="graph0" class="graph" transform="scale(1 1) rotate(0) translate(4 113)">
<title>dns_request_t</title>
<!-- Node1 -->
<g id="node1" class="node">
<title>Node1</title>
<g id="a_node1"><a xlink:title=" ">
<polygon fill="#bfbfbf" stroke="black" points="85.5,-0.5 85.5,-19.5 170.5,-19.5 170.5,-0.5 85.5,-0.5"/>
<text text-anchor="middle" x="128" y="-7.5" font-family="Helvetica,sans-Serif" font-size="10.00">dns_request_t</text>
</a>
</g>
</g>
<!-- Node2 -->
<g id="node2" class="node">
<title>Node2</title>
<g id="a_node2"><a xlink:title=" ">
<polygon fill="none" stroke="#bfbfbf" points="0,-89.5 0,-108.5 38,-108.5 38,-89.5 0,-89.5"/>
<text text-anchor="middle" x="19" y="-96.5" font-family="Helvetica,sans-Serif" font-size="10.00">char</text>
</a>
</g>
</g>
<!-- Node2&#45;&gt;Node1 -->
<g id="edge1" class="edge">
<title>Node2&#45;&gt;Node1</title>
<path fill="none" stroke="#9a32cd" stroke-dasharray="5,2" d="M20.07,-79.04C21.8,-65.87 26.16,-48.81 37,-38 49.84,-25.2 68.44,-18.42 85.49,-14.84"/>
<polygon fill="#9a32cd" stroke="#9a32cd" points="16.55,-79.09 19.13,-89.36 23.52,-79.72 16.55,-79.09"/>
<text text-anchor="middle" x="68.5" y="-63" font-family="Helvetica,sans-Serif" font-size="10.00"> callback_ptr</text>
<text text-anchor="middle" x="68.5" y="-52" font-family="Helvetica,sans-Serif" font-size="10.00">orig</text>
<text text-anchor="middle" x="68.5" y="-41" font-family="Helvetica,sans-Serif" font-size="10.00">result</text>
</g>
<!-- Node3 -->
<g id="node3" class="node">
<title>Node3</title>
<g id="a_node3"><a xlink:title=" ">
<polygon fill="none" stroke="#bfbfbf" points="66,-89.5 66,-108.5 122,-108.5 122,-89.5 66,-89.5"/>
<text text-anchor="middle" x="94" y="-96.5" font-family="Helvetica,sans-Serif" font-size="10.00">uint16_t</text>
</a>
</g>
</g>
<!-- Node3&#45;&gt;Node1 -->
<g id="edge2" class="edge">
<title>Node3&#45;&gt;Node1</title>
<path fill="none" stroke="#9a32cd" stroke-dasharray="5,2" d="M101.05,-79.97C108.26,-61.51 119.17,-33.61 124.63,-19.62"/>
<polygon fill="#9a32cd" stroke="#9a32cd" points="97.76,-78.75 97.38,-89.34 104.28,-81.3 97.76,-78.75"/>
<text text-anchor="middle" x="128" y="-57.5" font-family="Helvetica,sans-Serif" font-size="10.00"> id</text>
<text text-anchor="middle" x="128" y="-46.5" font-family="Helvetica,sans-Serif" font-size="10.00">type</text>
</g>
<!-- Node4 -->
<g id="node4" class="node">
<title>Node4</title>
<g id="a_node4"><a xlink:title=" ">
<polygon fill="none" stroke="#bfbfbf" points="140,-89.5 140,-108.5 196,-108.5 196,-89.5 140,-89.5"/>
<text text-anchor="middle" x="168" y="-96.5" font-family="Helvetica,sans-Serif" font-size="10.00">uint32_t</text>
</a>
</g>
</g>
<!-- Node4&#45;&gt;Node1 -->
<g id="edge3" class="edge">
<title>Node4&#45;&gt;Node1</title>
<path fill="none" stroke="#9a32cd" stroke-dasharray="5,2" d="M160.6,-80.03C155.56,-68.04 148.63,-51.96 142,-38 139.1,-31.9 135.6,-25.15 132.82,-19.92"/>
<polygon fill="#9a32cd" stroke="#9a32cd" points="157.41,-81.48 164.48,-89.37 163.87,-78.79 157.41,-81.48"/>
<text text-anchor="middle" x="183.5" y="-63" font-family="Helvetica,sans-Serif" font-size="10.00"> callback_a</text>
<text text-anchor="middle" x="183.5" y="-52" font-family="Helvetica,sans-Serif" font-size="10.00">rr_class</text>
<text text-anchor="middle" x="183.5" y="-41" font-family="Helvetica,sans-Serif" font-size="10.00">ttl</text>
</g>
<!-- Node5 -->
<g id="node5" class="node">
<title>Node5</title>
<g id="a_node5"><a xlink:title=" ">
<polygon fill="none" stroke="#bfbfbf" points="217,-89.5 217,-108.5 267,-108.5 267,-89.5 217,-89.5"/>
<text text-anchor="middle" x="242" y="-96.5" font-family="Helvetica,sans-Serif" font-size="10.00">uint8_t</text>
</a>
</g>
</g>
<!-- Node5&#45;&gt;Node1 -->
<g id="edge4" class="edge">
<title>Node5&#45;&gt;Node1</title>
<path fill="none" stroke="#9a32cd" stroke-dasharray="5,2" d="M237.95,-79.35C234.14,-66.08 227.16,-48.76 215,-38 202.68,-27.1 186.02,-20.6 170.56,-16.72"/>
<polygon fill="#9a32cd" stroke="#9a32cd" points="234.62,-80.46 240.44,-89.31 241.41,-78.76 234.62,-80.46"/>
<text text-anchor="middle" x="271.5" y="-57.5" font-family="Helvetica,sans-Serif" font-size="10.00"> callback_aaaa</text>
<text text-anchor="middle" x="271.5" y="-46.5" font-family="Helvetica,sans-Serif" font-size="10.00">result_length</text>
</g>
</g>
</svg>
