<?xml version="1.0" encoding="UTF-8" standalone="no"?>
<!DOCTYPE svg PUBLIC "-//W3C//DTD SVG 1.1//EN"
 "http://www.w3.org/Graphics/SVG/1.1/DTD/svg11.dtd">
<!-- Generated by graphviz version 2.43.0 (0)
 -->
<!-- Title: tcp_segment Pages: 1 -->
<svg width="356pt" height="318pt"
 viewBox="0.00 0.00 355.50 318.00" xmlns="http://www.w3.org/2000/svg" xmlns:xlink="http://www.w3.org/1999/xlink">
<g id="graph0" class="graph" transform="scale(1 1) rotate(0) translate(4 314)">
<title>tcp_segment</title>
<!-- Node1 -->
<g id="node1" class="node">
<title>Node1</title>
<g id="a_node1"><a xlink:title=" ">
<polygon fill="#bfbfbf" stroke="black" points="103,-0.5 103,-19.5 183,-19.5 183,-0.5 103,-0.5"/>
<text text-anchor="middle" x="143" y="-7.5" font-family="Helvetica,sans-Serif" font-size="10.00">tcp_segment</text>
</a>
</g>
</g>
<!-- Node2 -->
<g id="node2" class="node">
<title>Node2</title>
<g id="a_node2"><a xlink:title=" ">
<polygon fill="none" stroke="black" points="0,-112.5 0,-131.5 56,-131.5 56,-112.5 0,-112.5"/>
<text text-anchor="middle" x="28" y="-119.5" font-family="Helvetica,sans-Serif" font-size="10.00">uint16_t</text>
</a>
</g>
</g>
<!-- Node2&#45;&gt;Node1 -->
<g id="edge1" class="edge">
<title>Node2&#45;&gt;Node1</title>
<path fill="none" stroke="#9a32cd" stroke-dasharray="5,2" d="M28.18,-102.16C29.39,-83.44 34.14,-55.11 51,-38 64.55,-24.24 84.71,-17.41 102.71,-14.05"/>
<polygon fill="#9a32cd" stroke="#9a32cd" points="24.67,-102.27 27.81,-112.39 31.67,-102.52 24.67,-102.27"/>
<text text-anchor="middle" x="82.5" y="-85" font-family="Helvetica,sans-Serif" font-size="10.00"> checksum</text>
<text text-anchor="middle" x="82.5" y="-74" font-family="Helvetica,sans-Serif" font-size="10.00">dst_port</text>
<text text-anchor="middle" x="82.5" y="-63" font-family="Helvetica,sans-Serif" font-size="10.00">src_port</text>
<text text-anchor="middle" x="82.5" y="-52" font-family="Helvetica,sans-Serif" font-size="10.00">urgent</text>
<text text-anchor="middle" x="82.5" y="-41" font-family="Helvetica,sans-Serif" font-size="10.00">window_size</text>
</g>
<!-- Node3 -->
<g id="node3" class="node">
<title>Node3</title>
<g id="a_node3"><a xlink:title=" ">
<polygon fill="none" stroke="black" points="80,-112.5 80,-131.5 136,-131.5 136,-112.5 80,-112.5"/>
<text text-anchor="middle" x="108" y="-119.5" font-family="Helvetica,sans-Serif" font-size="10.00">uint32_t</text>
</a>
</g>
</g>
<!-- Node3&#45;&gt;Node1 -->
<g id="edge2" class="edge">
<title>Node3&#45;&gt;Node1</title>
<path fill="none" stroke="#9a32cd" stroke-dasharray="5,2" d="M113.83,-102.67C121.48,-78.62 134.6,-37.39 140.27,-19.59"/>
<polygon fill="#9a32cd" stroke="#9a32cd" points="110.44,-101.78 110.75,-112.37 117.11,-103.9 110.44,-101.78"/>
<text text-anchor="middle" x="144.5" y="-68.5" font-family="Helvetica,sans-Serif" font-size="10.00"> ack</text>
<text text-anchor="middle" x="144.5" y="-57.5" font-family="Helvetica,sans-Serif" font-size="10.00">seq</text>
</g>
<!-- Node4 -->
<g id="node4" class="node">
<title>Node4</title>
<g id="a_node4"><a xlink:href="uniontcp__segment__flags__t.html" target="_top" xlink:title=" ">
<polygon fill="none" stroke="black" points="230.5,-112.5 230.5,-131.5 347.5,-131.5 347.5,-112.5 230.5,-112.5"/>
<text text-anchor="middle" x="289" y="-119.5" font-family="Helvetica,sans-Serif" font-size="10.00">tcp_segment_flags_t</text>
</a>
</g>
</g>
<!-- Node4&#45;&gt;Node1 -->
<g id="edge3" class="edge">
<title>Node4&#45;&gt;Node1</title>
<path fill="none" stroke="#9a32cd" stroke-dasharray="5,2" d="M271.36,-105.72C251.24,-88.55 217.09,-60.17 186,-38 176.81,-31.45 166.06,-24.7 157.61,-19.59"/>
<polygon fill="#9a32cd" stroke="#9a32cd" points="269.21,-108.49 279.08,-112.35 273.77,-103.18 269.21,-108.49"/>
<text text-anchor="middle" x="269.5" y="-63" font-family="Helvetica,sans-Serif" font-size="10.00"> flags</text>
</g>
<!-- Node5 -->
<g id="node5" class="node">
<title>Node5</title>
<g id="a_node5"><a xlink:title=" ">
<polygon fill="none" stroke="black" points="160,-290.5 160,-309.5 210,-309.5 210,-290.5 160,-290.5"/>
<text text-anchor="middle" x="185" y="-297.5" font-family="Helvetica,sans-Serif" font-size="10.00">uint8_t</text>
</a>
</g>
</g>
<!-- Node5&#45;&gt;Node1 -->
<g id="edge6" class="edge">
<title>Node5&#45;&gt;Node1</title>
<path fill="none" stroke="#9a32cd" stroke-dasharray="5,2" d="M185.6,-280.15C186.46,-236.46 185.51,-125.35 158,-38 155.94,-31.45 152.19,-24.7 148.95,-19.59"/>
<polygon fill="#9a32cd" stroke="#9a32cd" points="182.11,-280.1 185.35,-290.18 189.1,-280.28 182.11,-280.1"/>
<text text-anchor="middle" x="198" y="-125" font-family="Helvetica,sans-Serif" font-size="10.00"> options</text>
<text text-anchor="middle" x="198" y="-114" font-family="Helvetica,sans-Serif" font-size="10.00">payload</text>
</g>
<!-- Node5&#45;&gt;Node4 -->
<g id="edge4" class="edge">
<title>Node5&#45;&gt;Node4</title>
<path fill="none" stroke="#9a32cd" stroke-dasharray="5,2" d="M188.11,-280.31C193.97,-250.1 209.1,-190.01 242,-151 248.98,-142.72 259.06,-136.26 268.1,-131.65"/>
<polygon fill="#9a32cd" stroke="#9a32cd" points="184.64,-279.85 186.31,-290.31 191.53,-281.1 184.64,-279.85"/>
<text text-anchor="middle" x="263.5" y="-264" font-family="Helvetica,sans-Serif" font-size="10.00"> ack</text>
<text text-anchor="middle" x="263.5" y="-253" font-family="Helvetica,sans-Serif" font-size="10.00">bits1</text>
<text text-anchor="middle" x="263.5" y="-242" font-family="Helvetica,sans-Serif" font-size="10.00">bits2</text>
<text text-anchor="middle" x="263.5" y="-231" font-family="Helvetica,sans-Serif" font-size="10.00">cwr</text>
<text text-anchor="middle" x="263.5" y="-220" font-family="Helvetica,sans-Serif" font-size="10.00">ece</text>
<text text-anchor="middle" x="263.5" y="-209" font-family="Helvetica,sans-Serif" font-size="10.00">fin</text>
<text text-anchor="middle" x="263.5" y="-198" font-family="Helvetica,sans-Serif" font-size="10.00">off</text>
<text text-anchor="middle" x="263.5" y="-187" font-family="Helvetica,sans-Serif" font-size="10.00">psh</text>
<text text-anchor="middle" x="263.5" y="-176" font-family="Helvetica,sans-Serif" font-size="10.00">reserved</text>
<text text-anchor="middle" x="263.5" y="-165" font-family="Helvetica,sans-Serif" font-size="10.00">rst</text>
<text text-anchor="middle" x="263.5" y="-154" font-family="Helvetica,sans-Serif" font-size="10.00">...</text>
</g>
<!-- Node6 -->
<g id="node6" class="node">
<title>Node6</title>
<g id="a_node6"><a xlink:title=" ">
<polygon fill="none" stroke="black" points="240,-290.5 240,-309.5 338,-309.5 338,-290.5 240,-290.5"/>
<text text-anchor="middle" x="289" y="-297.5" font-family="Helvetica,sans-Serif" font-size="10.00">anonymous:@11</text>
</a>
</g>
</g>
<!-- Node6&#45;&gt;Node4 -->
<g id="edge5" class="edge">
<title>Node6&#45;&gt;Node4</title>
<path fill="none" stroke="#9a32cd" stroke-dasharray="5,2" d="M289,-279.84C289,-241.97 289,-158.86 289,-131.74"/>
<polygon fill="#9a32cd" stroke="#9a32cd" points="285.5,-280.03 289,-290.03 292.5,-280.03 285.5,-280.03"/>
<text text-anchor="middle" x="301.5" y="-209" font-family="Helvetica,sans-Serif" font-size="10.00"> @11</text>
</g>
</g>
</svg>
