<?xml version="1.0" encoding="UTF-8" standalone="no"?>
<!DOCTYPE svg PUBLIC "-//W3C//DTD SVG 1.1//EN"
 "http://www.w3.org/Graphics/SVG/1.1/DTD/svg11.dtd">
<!-- Generated by graphviz version 2.43.0 (0)
 -->
<!-- Title: devfs_node_t Pages: 1 -->
<!--zoomable 243 -->
<svg id="main" version="1.1" xmlns="http://www.w3.org/2000/svg" xmlns:xlink="http://www.w3.org/1999/xlink" xml:space="preserve" onload="init(evt)">
<style type="text/css"><![CDATA[
.edge:hover path { stroke: red; }
.edge:hover polygon { stroke: red; fill: red; }
]]></style>
<script type="text/javascript"><![CDATA[
var edges = document.getElementsByTagName('g');
if (edges && edges.length) {
  for (var i=0;i<edges.length;i++) {
    if (edges[i].id.substr(0,4)=='edge') {
      edges[i].setAttribute('class','edge');
    }
  }
}
]]></script>
        <defs>
                <circle id="rim" cx="0" cy="0" r="7"/>
                <circle id="rim2" cx="0" cy="0" r="3.5"/>
                <g id="zoomPlus">
                        <use xlink:href="#rim" fill="#404040">
                                <set attributeName="fill" to="#808080" begin="zoomplus.mouseover" end="zoomplus.mouseout"/>
                        </use>
                        <path d="M-4,0h8M0,-4v8" fill="none" stroke="white" stroke-width="1.5" pointer-events="none"/>
                </g>
                <g id="zoomMin">
                        <use xlink:href="#rim" fill="#404040">
                                <set attributeName="fill" to="#808080" begin="zoomminus.mouseover" end="zoomminus.mouseout"/>
                        </use>
                        <path d="M-4,0h8" fill="none" stroke="white" stroke-width="1.5" pointer-events="none"/>
                </g>
                <g id="dirArrow">
                        <path fill="none" stroke="white" stroke-width="1.5" d="M0,-3.0v7 M-2.5,-0.5L0,-3.0L2.5,-0.5"/>
                </g>
               <g id="resetDef">
                       <use xlink:href="#rim2" fill="#404040">
                               <set attributeName="fill" to="#808080" begin="reset.mouseover" end="reset.mouseout"/>
                       </use>
               </g>
        </defs>

<script type="text/javascript">
var viewWidth = 938;
var viewHeight = 243;
var sectionId = 'dynsection-0';
</script>
<script xlink:href="svgpan.js"/>
<svg id="graph" class="graph">
<g id="viewport">
<title>devfs_node_t</title>
<!-- Node1 -->
<g id="node1" class="node">
<title>Node1</title>
<g id="a_node1"><a xlink:title="Linked list node representing a registered devfs entry.">
<polygon fill="#bfbfbf" stroke="black" points="767,-7 767,-26 849,-26 849,-7 767,-7"/>
<text text-anchor="middle" x="808" y="-14" font-family="Helvetica,sans-Serif" font-size="10.00">devfs_node_t</text>
</a>
</g>
</g>
<!-- Node2 -->
<g id="node2" class="node">
<title>Node2</title>
<g id="a_node2"><a xlink:href="structfs__directory__entry__t.html" target="_top" xlink:title="A VFS directory entry. Files AND directories have these, but internally there is also a tree of fs_tr...">
<polygon fill="none" stroke="black" points="197,-98 197,-117 311,-117 311,-98 197,-98"/>
<text text-anchor="middle" x="254" y="-105" font-family="Helvetica,sans-Serif" font-size="10.00">fs_directory_entry_t</text>
</a>
</g>
</g>
<!-- Node2&#45;&gt;Node1 -->
<g id="edge1" class="edge">
<title>Node2&#45;&gt;Node1</title>
<path fill="none" stroke="#9a32cd" stroke-dasharray="5,2" d="M283.9,-94.19C316.87,-81.18 371.78,-61.16 421,-51 545.17,-25.36 695.67,-19.31 766.87,-17.91"/>
<polygon fill="#9a32cd" stroke="#9a32cd" points="282.39,-91.02 274.4,-97.98 284.98,-97.52 282.39,-91.02"/>
<text text-anchor="middle" x="446.5" y="-65" font-family="Helvetica,sans-Serif" font-size="10.00"> ent</text>
<text text-anchor="middle" x="446.5" y="-54" font-family="Helvetica,sans-Serif" font-size="10.00">update_cb</text>
</g>
<!-- Node2&#45;&gt;Node2 -->
<g id="edge2" class="edge">
<title>Node2&#45;&gt;Node2</title>
<path fill="none" stroke="#9a32cd" stroke-dasharray="5,2" d="M321.08,-113.61C325.99,-112.23 329,-110.2 329,-107.5 329,-103.29 321.67,-100.69 311.23,-99.7"/>
<polygon fill="#9a32cd" stroke="#9a32cd" points="320.49,-110.16 311.23,-115.3 321.67,-117.06 320.49,-110.16"/>
<text text-anchor="middle" x="341.5" y="-105" font-family="Helvetica,sans-Serif" font-size="10.00"> next</text>
</g>
<!-- Node4 -->
<g id="node4" class="node">
<title>Node4</title>
<g id="a_node4"><a xlink:href="structfs__tree__t.html" target="_top" xlink:title="Used internally by filesystem.c to cache directories to RAM.">
<polygon fill="none" stroke="black" points="360.5,-7 360.5,-26 419.5,-26 419.5,-7 360.5,-7"/>
<text text-anchor="middle" x="390" y="-14" font-family="Helvetica,sans-Serif" font-size="10.00">fs_tree_t</text>
</a>
</g>
</g>
<!-- Node2&#45;&gt;Node4 -->
<g id="edge6" class="edge">
<title>Node2&#45;&gt;Node4</title>
<path fill="none" stroke="#9a32cd" stroke-dasharray="5,2" d="M257.82,-87.68C261.2,-75.62 267.31,-60.5 278,-51 300.91,-30.64 335.76,-22.64 360.49,-19.51"/>
<polygon fill="#9a32cd" stroke="#9a32cd" points="254.36,-87.1 255.44,-97.64 261.17,-88.73 254.36,-87.1"/>
<text text-anchor="middle" x="290" y="-59.5" font-family="Helvetica,sans-Serif" font-size="10.00"> files</text>
</g>
<!-- Node3 -->
<g id="node3" class="node">
<title>Node3</title>
<g id="a_node3"><a xlink:title=" ">
<polygon fill="none" stroke="#bfbfbf" points="343,-215.5 343,-234.5 399,-234.5 399,-215.5 343,-215.5"/>
<text text-anchor="middle" x="371" y="-222.5" font-family="Helvetica,sans-Serif" font-size="10.00">uint64_t</text>
</a>
</g>
</g>
<!-- Node3&#45;&gt;Node2 -->
<g id="edge3" class="edge">
<title>Node3&#45;&gt;Node2</title>
<path fill="none" stroke="#9a32cd" stroke-dasharray="5,2" d="M341.03,-210.51C334.08,-206.67 326.97,-202.12 321,-197 292.48,-172.53 268.53,-133.99 258.74,-117.01"/>
<polygon fill="#9a32cd" stroke="#9a32cd" points="339.8,-213.82 350.29,-215.29 343.01,-207.6 339.8,-213.82"/>
<text text-anchor="middle" x="339" y="-172.5" font-family="Helvetica,sans-Serif" font-size="10.00"> lbapos</text>
<text text-anchor="middle" x="339" y="-161.5" font-family="Helvetica,sans-Serif" font-size="10.00">size</text>
</g>
<!-- Node3&#45;&gt;Node4 -->
<g id="edge5" class="edge">
<title>Node3&#45;&gt;Node4</title>
<path fill="none" stroke="#9a32cd" stroke-dasharray="5,2" d="M372.73,-205.16C376.71,-161.93 386.37,-56.97 389.2,-26.15"/>
<polygon fill="#9a32cd" stroke="#9a32cd" points="369.22,-205.11 371.79,-215.39 376.19,-205.75 369.22,-205.11"/>
<text text-anchor="middle" x="402" y="-116" font-family="Helvetica,sans-Serif" font-size="10.00"> device</text>
<text text-anchor="middle" x="402" y="-105" font-family="Helvetica,sans-Serif" font-size="10.00">lbapos</text>
<text text-anchor="middle" x="402" y="-94" font-family="Helvetica,sans-Serif" font-size="10.00">size</text>
</g>
<!-- Node5 -->
<g id="node5" class="node">
<title>Node5</title>
<g id="a_node5"><a xlink:href="structfilesystem__t.html" target="_top" xlink:title="Defines a filesystem driver.">
<polygon fill="none" stroke="black" points="613.5,-98 613.5,-117 690.5,-117 690.5,-98 613.5,-98"/>
<text text-anchor="middle" x="652" y="-105" font-family="Helvetica,sans-Serif" font-size="10.00">filesystem_t</text>
</a>
</g>
</g>
<!-- Node3&#45;&gt;Node5 -->
<g id="edge9" class="edge">
<title>Node3&#45;&gt;Node5</title>
<path fill="none" stroke="#9a32cd" stroke-dasharray="5,2" d="M378.4,-205.82C388.2,-181.82 404.31,-142.51 405,-142 440.77,-115.7 560.49,-132.88 604,-124 612.24,-122.32 621.05,-119.72 628.84,-117.13"/>
<polygon fill="#9a32cd" stroke="#9a32cd" points="375.07,-204.72 374.54,-215.3 381.56,-207.36 375.07,-204.72"/>
<text text-anchor="middle" x="429.5" y="-178" font-family="Helvetica,sans-Serif" font-size="10.00"> createdir</text>
<text text-anchor="middle" x="429.5" y="-167" font-family="Helvetica,sans-Serif" font-size="10.00">createfile</text>
<text text-anchor="middle" x="429.5" y="-156" font-family="Helvetica,sans-Serif" font-size="10.00">freespace</text>
</g>
<!-- Node4&#45;&gt;Node2 -->
<g id="edge4" class="edge">
<title>Node4&#45;&gt;Node2</title>
<path fill="none" stroke="#9a32cd" stroke-dasharray="5,2" d="M350.08,-19.08C302.07,-21.91 225.72,-29.72 208,-51 201.74,-58.51 203.57,-64.29 208,-73 213.65,-84.09 224.88,-92.38 234.83,-97.94"/>
<polygon fill="#9a32cd" stroke="#9a32cd" points="350.36,-22.57 360.16,-18.53 349.98,-15.58 350.36,-22.57"/>
<text text-anchor="middle" x="231.5" y="-59.5" font-family="Helvetica,sans-Serif" font-size="10.00"> directory</text>
</g>
<!-- Node4&#45;&gt;Node4 -->
<g id="edge7" class="edge">
<title>Node4&#45;&gt;Node4</title>
<path fill="none" stroke="#9a32cd" stroke-dasharray="5,2" d="M429.67,-23.59C434.41,-22.3 437.5,-19.94 437.5,-16.5 437.5,-11 429.58,-8.25 419.69,-8.25"/>
<polygon fill="#9a32cd" stroke="#9a32cd" points="429.22,-20.12 419.69,-24.75 430.02,-27.07 429.22,-20.12"/>
<text text-anchor="middle" x="462.5" y="-25" font-family="Helvetica,sans-Serif" font-size="10.00"> child_dirs</text>
<text text-anchor="middle" x="462.5" y="-14" font-family="Helvetica,sans-Serif" font-size="10.00">next</text>
<text text-anchor="middle" x="462.5" y="-3" font-family="Helvetica,sans-Serif" font-size="10.00">parent</text>
</g>
<!-- Node5&#45;&gt;Node4 -->
<g id="edge8" class="edge">
<title>Node5&#45;&gt;Node4</title>
<path fill="none" stroke="#9a32cd" stroke-dasharray="5,2" d="M632.33,-91.84C614.39,-79.17 586.67,-61.3 560,-51 512.86,-32.79 454.38,-24.05 419.74,-20.2"/>
<polygon fill="#9a32cd" stroke="#9a32cd" points="630.61,-94.92 640.77,-97.93 634.71,-89.24 630.61,-94.92"/>
<text text-anchor="middle" x="649" y="-59.5" font-family="Helvetica,sans-Serif" font-size="10.00"> responsible_driver</text>
</g>
<!-- Node5&#45;&gt;Node5 -->
<g id="edge11" class="edge">
<title>Node5&#45;&gt;Node5</title>
<path fill="none" stroke="#9a32cd" stroke-dasharray="5,2" d="M700.72,-114.2C705.48,-112.85 708.5,-110.62 708.5,-107.5 708.5,-102.52 700.77,-99.79 690.56,-99.32"/>
<polygon fill="#9a32cd" stroke="#9a32cd" points="699.95,-110.77 690.56,-115.68 700.95,-117.7 699.95,-110.77"/>
<text text-anchor="middle" x="721" y="-105" font-family="Helvetica,sans-Serif" font-size="10.00"> next</text>
</g>
<!-- Node6 -->
<g id="node6" class="node">
<title>Node6</title>
<g id="a_node6"><a xlink:title=" ">
<polygon fill="none" stroke="#bfbfbf" points="603.5,-215.5 603.5,-234.5 698.5,-234.5 698.5,-215.5 603.5,-215.5"/>
<text text-anchor="middle" x="651" y="-222.5" font-family="Helvetica,sans-Serif" font-size="10.00">void *(*)(void *)</text>
</a>
</g>
</g>
<!-- Node6&#45;&gt;Node5 -->
<g id="edge10" class="edge">
<title>Node6&#45;&gt;Node5</title>
<path fill="none" stroke="#9a32cd" stroke-dasharray="5,2" d="M651.16,-205.16C651.38,-179.87 651.76,-135.94 651.92,-117.28"/>
<polygon fill="#9a32cd" stroke="#9a32cd" points="647.66,-205.29 651.08,-215.32 654.66,-205.35 647.66,-205.29"/>
<text text-anchor="middle" x="667" y="-167" font-family="Helvetica,sans-Serif" font-size="10.00"> getdir</text>
</g>
<!-- Node7 -->
<g id="node7" class="node">
<title>Node7</title>
<g id="a_node7"><a xlink:title=" ">
<polygon fill="none" stroke="#bfbfbf" points="538,-215.5 538,-234.5 576,-234.5 576,-215.5 538,-215.5"/>
<text text-anchor="middle" x="557" y="-222.5" font-family="Helvetica,sans-Serif" font-size="10.00">char</text>
</a>
</g>
</g>
<!-- Node7&#45;&gt;Node2 -->
<g id="edge19" class="edge">
<title>Node7&#45;&gt;Node2</title>
<path fill="none" stroke="#9a32cd" stroke-dasharray="5,2" d="M528.08,-220.26C511.36,-216.75 490.94,-209.99 477,-197 457.62,-178.94 474.76,-158.46 454,-142 448.36,-137.53 368.35,-125.1 311.26,-116.71"/>
<polygon fill="#9a32cd" stroke="#9a32cd" points="527.45,-223.7 537.92,-222.05 528.7,-216.82 527.45,-223.7"/>
<text text-anchor="middle" x="510" y="-178" font-family="Helvetica,sans-Serif" font-size="10.00"> alt_filename</text>
<text text-anchor="middle" x="510" y="-167" font-family="Helvetica,sans-Serif" font-size="10.00">device_name</text>
<text text-anchor="middle" x="510" y="-156" font-family="Helvetica,sans-Serif" font-size="10.00">filename</text>
</g>
<!-- Node7&#45;&gt;Node4 -->
<g id="edge15" class="edge">
<title>Node7&#45;&gt;Node4</title>
<path fill="none" stroke="#9a32cd" stroke-dasharray="5,2" d="M559.2,-205.14C560.25,-186.68 558.69,-158.93 543,-142 520.58,-117.81 498.54,-142.15 471,-124 431.82,-98.18 404.04,-46.8 394.06,-26.27"/>
<polygon fill="#9a32cd" stroke="#9a32cd" points="555.7,-204.99 558.32,-215.26 562.67,-205.6 555.7,-204.99"/>
<text text-anchor="middle" x="505.5" y="-110.5" font-family="Helvetica,sans-Serif" font-size="10.00"> device_name</text>
<text text-anchor="middle" x="505.5" y="-99.5" font-family="Helvetica,sans-Serif" font-size="10.00">name</text>
</g>
<!-- Node7&#45;&gt;Node5 -->
<g id="edge12" class="edge">
<title>Node7&#45;&gt;Node5</title>
<path fill="none" stroke="#9a32cd" stroke-dasharray="5,2" d="M567.77,-207.04C578.96,-189.92 597.41,-163.09 616,-142 624.02,-132.91 634.22,-123.59 641.71,-117.1"/>
<polygon fill="#9a32cd" stroke="#9a32cd" points="564.83,-205.14 562.35,-215.44 570.71,-208.94 564.83,-205.14"/>
<text text-anchor="middle" x="631.5" y="-167" font-family="Helvetica,sans-Serif" font-size="10.00"> name</text>
</g>
<!-- Node8 -->
<g id="node8" class="node">
<title>Node8</title>
<g id="a_node8"><a xlink:title=" ">
<polygon fill="none" stroke="#bfbfbf" points="716.5,-215.5 716.5,-234.5 745.5,-234.5 745.5,-215.5 716.5,-215.5"/>
<text text-anchor="middle" x="731" y="-222.5" font-family="Helvetica,sans-Serif" font-size="10.00">int</text>
</a>
</g>
</g>
<!-- Node8&#45;&gt;Node5 -->
<g id="edge13" class="edge">
<title>Node8&#45;&gt;Node5</title>
<path fill="none" stroke="#9a32cd" stroke-dasharray="5,2" d="M723.29,-205.87C715.48,-188.58 702.38,-162.24 687,-142 679.87,-132.62 670.08,-123.48 662.66,-117.13"/>
<polygon fill="#9a32cd" stroke="#9a32cd" points="720.22,-207.58 727.44,-215.33 726.63,-204.77 720.22,-207.58"/>
<text text-anchor="middle" x="735.5" y="-167" font-family="Helvetica,sans-Serif" font-size="10.00"> mount</text>
</g>
<!-- Node9 -->
<g id="node9" class="node">
<title>Node9</title>
<g id="a_node9"><a xlink:title=" ">
<polygon fill="none" stroke="#bfbfbf" points="835,-215.5 835,-234.5 873,-234.5 873,-215.5 835,-215.5"/>
<text text-anchor="middle" x="854" y="-222.5" font-family="Helvetica,sans-Serif" font-size="10.00">bool</text>
</a>
</g>
</g>
<!-- Node9&#45;&gt;Node1 -->
<g id="edge23" class="edge">
<title>Node9&#45;&gt;Node1</title>
<path fill="none" stroke="#9a32cd" stroke-dasharray="5,2" d="M876.92,-209.09C880.6,-205.59 883.89,-201.54 886,-197 906,-153.96 895.21,-132.95 873,-91 858.81,-64.2 832.93,-39.14 818.47,-26.35"/>
<polygon fill="#9a32cd" stroke="#9a32cd" points="874.61,-206.45 869.06,-215.47 879.03,-211.88 874.61,-206.45"/>
<text text-anchor="middle" x="909" y="-105" font-family="Helvetica,sans-Serif" font-size="10.00"> read_cb</text>
</g>
<!-- Node9&#45;&gt;Node5 -->
<g id="edge14" class="edge">
<title>Node9&#45;&gt;Node5</title>
<path fill="none" stroke="#9a32cd" stroke-dasharray="5,2" d="M838.78,-207.74C820.82,-189.42 789.29,-159.87 757,-142 736.32,-130.56 711.16,-122.36 690.65,-116.94"/>
<polygon fill="#9a32cd" stroke="#9a32cd" points="836.58,-210.5 846.03,-215.29 841.63,-205.65 836.58,-210.5"/>
<text text-anchor="middle" x="854" y="-189" font-family="Helvetica,sans-Serif" font-size="10.00"> readfile</text>
<text text-anchor="middle" x="854" y="-178" font-family="Helvetica,sans-Serif" font-size="10.00">rm</text>
<text text-anchor="middle" x="854" y="-167" font-family="Helvetica,sans-Serif" font-size="10.00">rmdir</text>
<text text-anchor="middle" x="854" y="-156" font-family="Helvetica,sans-Serif" font-size="10.00">truncatefile</text>
<text text-anchor="middle" x="854" y="-145" font-family="Helvetica,sans-Serif" font-size="10.00">writefile</text>
</g>
<!-- Node10 -->
<g id="node10" class="node">
<title>Node10</title>
<g id="a_node10"><a xlink:title=" ">
<polygon fill="none" stroke="#bfbfbf" points="169,-215.5 169,-234.5 219,-234.5 219,-215.5 169,-215.5"/>
<text text-anchor="middle" x="194" y="-222.5" font-family="Helvetica,sans-Serif" font-size="10.00">uint8_t</text>
</a>
</g>
</g>
<!-- Node10&#45;&gt;Node2 -->
<g id="edge21" class="edge">
<title>Node10&#45;&gt;Node2</title>
<path fill="none" stroke="#9a32cd" stroke-dasharray="5,2" d="M203.26,-206.18C216.31,-181.06 239.62,-136.19 249.44,-117.28"/>
<polygon fill="#9a32cd" stroke="#9a32cd" points="200.01,-204.83 198.51,-215.32 206.23,-208.06 200.01,-204.83"/>
<text text-anchor="middle" x="253" y="-189" font-family="Helvetica,sans-Serif" font-size="10.00"> day</text>
<text text-anchor="middle" x="253" y="-178" font-family="Helvetica,sans-Serif" font-size="10.00">hour</text>
<text text-anchor="middle" x="253" y="-167" font-family="Helvetica,sans-Serif" font-size="10.00">min</text>
<text text-anchor="middle" x="253" y="-156" font-family="Helvetica,sans-Serif" font-size="10.00">month</text>
<text text-anchor="middle" x="253" y="-145" font-family="Helvetica,sans-Serif" font-size="10.00">sec</text>
</g>
<!-- Node10&#45;&gt;Node4 -->
<g id="edge16" class="edge">
<title>Node10&#45;&gt;Node4</title>
<path fill="none" stroke="#9a32cd" stroke-dasharray="5,2" d="M183.24,-206.67C168.63,-180.82 146.07,-130.9 162,-91 171.09,-68.23 178.4,-62.6 200,-51 251.64,-23.27 321.47,-17.8 360.48,-17.11"/>
<polygon fill="#9a32cd" stroke="#9a32cd" points="180.25,-208.5 188.35,-215.34 186.28,-204.95 180.25,-208.5"/>
<text text-anchor="middle" x="175" y="-105" font-family="Helvetica,sans-Serif" font-size="10.00"> dirty</text>
</g>
<!-- Node11 -->
<g id="node11" class="node">
<title>Node11</title>
<g id="a_node11"><a xlink:title=" ">
<polygon fill="none" stroke="#bfbfbf" points="549,-98 549,-117 595,-117 595,-98 549,-98"/>
<text text-anchor="middle" x="572" y="-105" font-family="Helvetica,sans-Serif" font-size="10.00">void *</text>
</a>
</g>
</g>
<!-- Node11&#45;&gt;Node4 -->
<g id="edge17" class="edge">
<title>Node11&#45;&gt;Node4</title>
<path fill="none" stroke="#9a32cd" stroke-dasharray="5,2" d="M550.12,-92.56C530.99,-80.69 502.25,-63.61 476,-51 455.92,-41.36 432.29,-32.31 414.89,-26.05"/>
<polygon fill="#9a32cd" stroke="#9a32cd" points="548.35,-95.58 558.68,-97.93 552.07,-89.65 548.35,-95.58"/>
<text text-anchor="middle" x="536" y="-59.5" font-family="Helvetica,sans-Serif" font-size="10.00"> opaque</text>
</g>
<!-- Node12 -->
<g id="node12" class="node">
<title>Node12</title>
<g id="a_node12"><a xlink:title=" ">
<polygon fill="none" stroke="#bfbfbf" points="0,-215.5 0,-234.5 56,-234.5 56,-215.5 0,-215.5"/>
<text text-anchor="middle" x="28" y="-222.5" font-family="Helvetica,sans-Serif" font-size="10.00">uint16_t</text>
</a>
</g>
</g>
<!-- Node12&#45;&gt;Node2 -->
<g id="edge18" class="edge">
<title>Node12&#45;&gt;Node2</title>
<path fill="none" stroke="#9a32cd" stroke-dasharray="5,2" d="M36.62,-206.3C46.86,-187.26 65.77,-157.62 91,-142 126.42,-120.06 142.2,-132.44 183,-124 193.63,-121.8 205.12,-119.33 215.71,-117.02"/>
<polygon fill="#9a32cd" stroke="#9a32cd" points="33.41,-204.9 31.96,-215.39 39.63,-208.09 33.41,-204.9"/>
<text text-anchor="middle" x="103.5" y="-167" font-family="Helvetica,sans-Serif" font-size="10.00"> year</text>
</g>
<!-- Node13 -->
<g id="node13" class="node">
<title>Node13</title>
<g id="a_node13"><a xlink:title=" ">
<polygon fill="none" stroke="#bfbfbf" points="74,-215.5 74,-234.5 130,-234.5 130,-215.5 74,-215.5"/>
<text text-anchor="middle" x="102" y="-222.5" font-family="Helvetica,sans-Serif" font-size="10.00">uint32_t</text>
</a>
</g>
</g>
<!-- Node13&#45;&gt;Node2 -->
<g id="edge20" class="edge">
<title>Node13&#45;&gt;Node2</title>
<path fill="none" stroke="#9a32cd" stroke-dasharray="5,2" d="M112.41,-206.56C124.13,-188.26 144.72,-159.72 169,-142 184.63,-130.59 204.67,-122.45 221.36,-117.05"/>
<polygon fill="#9a32cd" stroke="#9a32cd" points="109.42,-204.75 107.12,-215.09 115.37,-208.44 109.42,-204.75"/>
<text text-anchor="middle" x="187" y="-172.5" font-family="Helvetica,sans-Serif" font-size="10.00"> device</text>
<text text-anchor="middle" x="187" y="-161.5" font-family="Helvetica,sans-Serif" font-size="10.00">flags</text>
</g>
<!-- Node14 -->
<g id="node14" class="node">
<title>Node14</title>
<g id="a_node14"><a xlink:title=" ">
<polygon fill="none" stroke="#bfbfbf" points="752,-98 752,-117 864,-117 864,-98 752,-98"/>
<text text-anchor="middle" x="808" y="-105" font-family="Helvetica,sans-Serif" font-size="10.00">struct devfs_node *</text>
</a>
</g>
</g>
<!-- Node14&#45;&gt;Node1 -->
<g id="edge22" class="edge">
<title>Node14&#45;&gt;Node1</title>
<path fill="none" stroke="#9a32cd" stroke-dasharray="5,2" d="M808,-87.85C808,-68.88 808,-40.33 808,-26.14"/>
<polygon fill="#9a32cd" stroke="#9a32cd" points="804.5,-87.97 808,-97.97 811.5,-87.97 804.5,-87.97"/>
<text text-anchor="middle" x="820.5" y="-59.5" font-family="Helvetica,sans-Serif" font-size="10.00"> next</text>
</g>
</g>
</svg>
        <g id="navigator" transform="translate(0 0)" fill="#404254">
                <rect fill="#f2f5e9" fill-opacity="0.5" stroke="#606060" stroke-width=".5" x="0" y="0" width="60" height="60"/>
                <use id="zoomplus" xlink:href="#zoomPlus" x="17" y="9" onmousedown="handleZoom(evt,'in')"/>
                <use id="zoomminus" xlink:href="#zoomMin" x="42" y="9" onmousedown="handleZoom(evt,'out')"/>
                <use id="reset" xlink:href="#resetDef" x="30" y="36" onmousedown="handleReset()"/>
                <g id="arrowUp" xlink:href="#dirArrow" transform="translate(30 24)" onmousedown="handlePan(0,-1)">
                  <use xlink:href="#rim" fill="#404040">
                        <set attributeName="fill" to="#808080" begin="arrowUp.mouseover" end="arrowUp.mouseout"/>
                  </use>
                  <path fill="none" stroke="white" stroke-width="1.5" d="M0,-3.0v7 M-2.5,-0.5L0,-3.0L2.5,-0.5"/>
                </g>
                <g id="arrowRight" xlink:href="#dirArrow" transform="rotate(90) translate(36 -43)" onmousedown="handlePan(1,0)">
                  <use xlink:href="#rim" fill="#404040">
                        <set attributeName="fill" to="#808080" begin="arrowRight.mouseover" end="arrowRight.mouseout"/>
                  </use>
                  <path fill="none" stroke="white" stroke-width="1.5" d="M0,-3.0v7 M-2.5,-0.5L0,-3.0L2.5,-0.5"/>
                </g>
                <g id="arrowDown" xlink:href="#dirArrow" transform="rotate(180) translate(-30 -48)" onmousedown="handlePan(0,1)">
                  <use xlink:href="#rim" fill="#404040">
                        <set attributeName="fill" to="#808080" begin="arrowDown.mouseover" end="arrowDown.mouseout"/>
                  </use>
                  <path fill="none" stroke="white" stroke-width="1.5" d="M0,-3.0v7 M-2.5,-0.5L0,-3.0L2.5,-0.5"/>
                </g>
                <g id="arrowLeft" xlink:href="#dirArrow" transform="rotate(270) translate(-36 17)" onmousedown="handlePan(-1,0)">
                  <use xlink:href="#rim" fill="#404040">
                        <set attributeName="fill" to="#808080" begin="arrowLeft.mouseover" end="arrowLeft.mouseout"/>
                  </use>
                  <path fill="none" stroke="white" stroke-width="1.5" d="M0,-3.0v7 M-2.5,-0.5L0,-3.0L2.5,-0.5"/>
                </g>
        </g>
        <svg viewBox="0 0 15 15" width="100%" height="30px" preserveAspectRatio="xMaxYMin meet">
         <g id="arrow_out" transform="scale(0.3 0.3)">
          <a xlink:href="structdevfs__node__t__coll__graph_org.svg" target="_base">
           <rect id="button" ry="5" rx="5" y="6" x="6" height="38" width="38"
                fill="#f2f5e9" fill-opacity="0.5" stroke="#606060" stroke-width="1.0"/>
           <path id="arrow"
             d="M 11.500037,31.436501 C 11.940474,20.09759 22.043105,11.32322 32.158766,21.979434 L 37.068811,17.246167 C 37.068811,17.246167 37.088388,32 37.088388,32 L 22.160133,31.978069 C 22.160133,31.978069 26.997745,27.140456 26.997745,27.140456 C 18.528582,18.264221 13.291696,25.230495 11.500037,31.436501 z"
             style="fill:#404040;"/>
          </a>
         </g>
        </svg>
</svg>
