<?xml version="1.0" encoding="UTF-8" standalone="no"?>
<!DOCTYPE svg PUBLIC "-//W3C//DTD SVG 1.1//EN"
 "http://www.w3.org/Graphics/SVG/1.1/DTD/svg11.dtd">
<!-- Generated by graphviz version 2.43.0 (0)
 -->
<!-- Title: rfs_description_block_t Pages: 1 -->
<svg width="209pt" height="161pt"
 viewBox="0.00 0.00 208.50 161.00" xmlns="http://www.w3.org/2000/svg" xmlns:xlink="http://www.w3.org/1999/xlink">
<g id="graph0" class="graph" transform="scale(1 1) rotate(0) translate(4 157)">
<title>rfs_description_block_t</title>
<!-- Node1 -->
<g id="node1" class="node">
<title>Node1</title>
<g id="a_node1"><a xlink:title=" ">
<polygon fill="#bfbfbf" stroke="black" points="0,-0.5 0,-19.5 129,-19.5 129,-0.5 0,-0.5"/>
<text text-anchor="middle" x="64.5" y="-7.5" font-family="Helvetica,sans-Serif" font-size="10.00">rfs_description_block_t</text>
</a>
</g>
</g>
<!-- Node2 -->
<g id="node2" class="node">
<title>Node2</title>
<g id="a_node2"><a xlink:title=" ">
<polygon fill="none" stroke="#bfbfbf" points="36.5,-133.5 36.5,-152.5 92.5,-152.5 92.5,-133.5 36.5,-133.5"/>
<text text-anchor="middle" x="64.5" y="-140.5" font-family="Helvetica,sans-Serif" font-size="10.00">uint64_t</text>
</a>
</g>
</g>
<!-- Node2&#45;&gt;Node1 -->
<g id="edge1" class="edge">
<title>Node2&#45;&gt;Node1</title>
<path fill="none" stroke="#9a32cd" stroke-dasharray="5,2" d="M64.5,-123.09C64.5,-94.36 64.5,-40.82 64.5,-19.8"/>
<polygon fill="#9a32cd" stroke="#9a32cd" points="61,-123.4 64.5,-133.4 68,-123.4 61,-123.4"/>
<text text-anchor="middle" x="132.5" y="-107" font-family="Helvetica,sans-Serif" font-size="10.00"> creation_time</text>
<text text-anchor="middle" x="132.5" y="-96" font-family="Helvetica,sans-Serif" font-size="10.00">free_space_map_checksum</text>
<text text-anchor="middle" x="132.5" y="-85" font-family="Helvetica,sans-Serif" font-size="10.00">free_space_map_length</text>
<text text-anchor="middle" x="132.5" y="-74" font-family="Helvetica,sans-Serif" font-size="10.00">free_space_map_start</text>
<text text-anchor="middle" x="132.5" y="-63" font-family="Helvetica,sans-Serif" font-size="10.00">identifier</text>
<text text-anchor="middle" x="132.5" y="-52" font-family="Helvetica,sans-Serif" font-size="10.00">root_directory</text>
<text text-anchor="middle" x="132.5" y="-41" font-family="Helvetica,sans-Serif" font-size="10.00">sequence</text>
</g>
</g>
</svg>
