<?xml version="1.0" encoding="UTF-8" standalone="no"?>
<!DOCTYPE svg PUBLIC "-//W3C//DTD SVG 1.1//EN"
 "http://www.w3.org/Graphics/SVG/1.1/DTD/svg11.dtd">
<!-- Generated by graphviz version 2.43.0 (0)
 -->
<!-- Title: rfs_directory_entry_inner_t Pages: 1 -->
<svg width="214pt" height="150pt"
 viewBox="0.00 0.00 214.00 150.00" xmlns="http://www.w3.org/2000/svg" xmlns:xlink="http://www.w3.org/1999/xlink">
<g id="graph0" class="graph" transform="scale(1 1) rotate(0) translate(4 146)">
<title>rfs_directory_entry_inner_t</title>
<!-- Node1 -->
<g id="node1" class="node">
<title>Node1</title>
<g id="a_node1"><a xlink:title=" ">
<polygon fill="#bfbfbf" stroke="black" points="54.5,-0.5 54.5,-30.5 163.5,-30.5 163.5,-0.5 54.5,-0.5"/>
<text text-anchor="start" x="62.5" y="-18.5" font-family="Helvetica,sans-Serif" font-size="10.00">rfs_directory_entry</text>
<text text-anchor="middle" x="109" y="-7.5" font-family="Helvetica,sans-Serif" font-size="10.00">_inner_t</text>
</a>
</g>
</g>
<!-- Node2 -->
<g id="node2" class="node">
<title>Node2</title>
<g id="a_node2"><a xlink:title=" ">
<polygon fill="none" stroke="#bfbfbf" points="0,-122.5 0,-141.5 56,-141.5 56,-122.5 0,-122.5"/>
<text text-anchor="middle" x="28" y="-129.5" font-family="Helvetica,sans-Serif" font-size="10.00">uint64_t</text>
</a>
</g>
</g>
<!-- Node2&#45;&gt;Node1 -->
<g id="edge1" class="edge">
<title>Node2&#45;&gt;Node1</title>
<path fill="none" stroke="#9a32cd" stroke-dasharray="5,2" d="M28.01,-112.27C28.94,-94.31 32.86,-67.3 47,-49 52.94,-41.31 61.23,-35.25 69.81,-30.55"/>
<polygon fill="#9a32cd" stroke="#9a32cd" points="24.51,-112.26 27.75,-122.35 31.51,-112.44 24.51,-112.26"/>
<text text-anchor="middle" x="76" y="-96" font-family="Helvetica,sans-Serif" font-size="10.00"> created</text>
<text text-anchor="middle" x="76" y="-85" font-family="Helvetica,sans-Serif" font-size="10.00">length</text>
<text text-anchor="middle" x="76" y="-74" font-family="Helvetica,sans-Serif" font-size="10.00">modified</text>
<text text-anchor="middle" x="76" y="-63" font-family="Helvetica,sans-Serif" font-size="10.00">sector_start</text>
<text text-anchor="middle" x="76" y="-52" font-family="Helvetica,sans-Serif" font-size="10.00">sequence</text>
</g>
<!-- Node3 -->
<g id="node3" class="node">
<title>Node3</title>
<g id="a_node3"><a xlink:title=" ">
<polygon fill="none" stroke="#bfbfbf" points="90,-122.5 90,-141.5 128,-141.5 128,-122.5 90,-122.5"/>
<text text-anchor="middle" x="109" y="-129.5" font-family="Helvetica,sans-Serif" font-size="10.00">char</text>
</a>
</g>
</g>
<!-- Node3&#45;&gt;Node1 -->
<g id="edge2" class="edge">
<title>Node3&#45;&gt;Node1</title>
<path fill="none" stroke="#9a32cd" stroke-dasharray="5,2" d="M109,-112.29C109,-89.48 109,-51.41 109,-30.81"/>
<polygon fill="#9a32cd" stroke="#9a32cd" points="105.5,-112.39 109,-122.39 112.5,-112.39 105.5,-112.39"/>
<text text-anchor="middle" x="132" y="-79.5" font-family="Helvetica,sans-Serif" font-size="10.00"> filename</text>
<text text-anchor="middle" x="132" y="-68.5" font-family="Helvetica,sans-Serif" font-size="10.00">reserved</text>
</g>
<!-- Node4 -->
<g id="node4" class="node">
<title>Node4</title>
<g id="a_node4"><a xlink:title=" ">
<polygon fill="none" stroke="#bfbfbf" points="150,-122.5 150,-141.5 206,-141.5 206,-122.5 150,-122.5"/>
<text text-anchor="middle" x="178" y="-129.5" font-family="Helvetica,sans-Serif" font-size="10.00">uint32_t</text>
</a>
</g>
</g>
<!-- Node4&#45;&gt;Node1 -->
<g id="edge3" class="edge">
<title>Node4&#45;&gt;Node1</title>
<path fill="none" stroke="#9a32cd" stroke-dasharray="5,2" d="M176.64,-112.07C174.56,-94.36 169.3,-67.88 156,-49 150.86,-41.7 143.52,-35.52 136.17,-30.57"/>
<polygon fill="#9a32cd" stroke="#9a32cd" points="173.18,-112.65 177.6,-122.28 180.15,-111.99 173.18,-112.65"/>
<text text-anchor="middle" x="188.5" y="-74" font-family="Helvetica,sans-Serif" font-size="10.00"> flags</text>
</g>
</g>
</svg>
