<?xml version="1.0" encoding="UTF-8" standalone="no"?>
<!DOCTYPE svg PUBLIC "-//W3C//DTD SVG 1.1//EN"
 "http://www.w3.org/Graphics/SVG/1.1/DTD/svg11.dtd">
<!-- Generated by graphviz version 2.43.0 (0)
 -->
<!-- Title: ResourceRecord Pages: 1 -->
<svg width="132pt" height="117pt"
 viewBox="0.00 0.00 132.00 117.00" xmlns="http://www.w3.org/2000/svg" xmlns:xlink="http://www.w3.org/1999/xlink">
<g id="graph0" class="graph" transform="scale(1 1) rotate(0) translate(4 113)">
<title>ResourceRecord</title>
<!-- Node1 -->
<g id="node1" class="node">
<title>Node1</title>
<g id="a_node1"><a xlink:title=" ">
<polygon fill="#bfbfbf" stroke="black" points="15.5,-0.5 15.5,-19.5 110.5,-19.5 110.5,-0.5 15.5,-0.5"/>
<text text-anchor="middle" x="63" y="-7.5" font-family="Helvetica,sans-Serif" font-size="10.00">ResourceRecord</text>
</a>
</g>
</g>
<!-- Node2 -->
<g id="node2" class="node">
<title>Node2</title>
<g id="a_node2"><a xlink:title=" ">
<polygon fill="none" stroke="#bfbfbf" points="0,-89.5 0,-108.5 56,-108.5 56,-89.5 0,-89.5"/>
<text text-anchor="middle" x="28" y="-96.5" font-family="Helvetica,sans-Serif" font-size="10.00">uint32_t</text>
</a>
</g>
</g>
<!-- Node2&#45;&gt;Node1 -->
<g id="edge1" class="edge">
<title>Node2&#45;&gt;Node1</title>
<path fill="none" stroke="#9a32cd" stroke-dasharray="5,2" d="M26.1,-79.28C25.66,-66.94 26.67,-50.76 33,-38 36.67,-30.59 43.34,-24.28 49.45,-19.62"/>
<polygon fill="#9a32cd" stroke="#9a32cd" points="22.62,-79.59 26.81,-89.33 29.6,-79.11 22.62,-79.59"/>
<text text-anchor="middle" x="55" y="-63" font-family="Helvetica,sans-Serif" font-size="10.00"> rdlength</text>
<text text-anchor="middle" x="55" y="-52" font-family="Helvetica,sans-Serif" font-size="10.00">rr_class</text>
<text text-anchor="middle" x="55" y="-41" font-family="Helvetica,sans-Serif" font-size="10.00">ttl</text>
</g>
<!-- Node3 -->
<g id="node3" class="node">
<title>Node3</title>
<g id="a_node3"><a xlink:title=" ">
<polygon fill="none" stroke="#bfbfbf" points="74,-89.5 74,-108.5 124,-108.5 124,-89.5 74,-89.5"/>
<text text-anchor="middle" x="99" y="-96.5" font-family="Helvetica,sans-Serif" font-size="10.00">uint8_t</text>
</a>
</g>
</g>
<!-- Node3&#45;&gt;Node1 -->
<g id="edge2" class="edge">
<title>Node3&#45;&gt;Node1</title>
<path fill="none" stroke="#9a32cd" stroke-dasharray="5,2" d="M92.92,-79.58C88.8,-67.58 83.03,-51.68 77,-38 74.28,-31.81 70.78,-25.06 67.96,-19.86"/>
<polygon fill="#9a32cd" stroke="#9a32cd" points="89.7,-80.96 96.2,-89.32 96.33,-78.73 89.7,-80.96"/>
<text text-anchor="middle" x="101.5" y="-52" font-family="Helvetica,sans-Serif" font-size="10.00"> type</text>
</g>
</g>
</svg>
