<?xml version="1.0" encoding="UTF-8" standalone="no"?>
<!DOCTYPE svg PUBLIC "-//W3C//DTD SVG 1.1//EN"
 "http://www.w3.org/Graphics/SVG/1.1/DTD/svg11.dtd">
<!-- Generated by graphviz version 2.43.0 (0)
 -->
<!-- Title: dprintf_ring_t Pages: 1 -->
<svg width="166pt" height="117pt"
 viewBox="0.00 0.00 166.00 117.00" xmlns="http://www.w3.org/2000/svg" xmlns:xlink="http://www.w3.org/1999/xlink">
<g id="graph0" class="graph" transform="scale(1 1) rotate(0) translate(4 113)">
<title>dprintf_ring_t</title>
<!-- Node1 -->
<g id="node1" class="node">
<title>Node1</title>
<g id="a_node1"><a xlink:title=" ">
<polygon fill="#bfbfbf" stroke="black" points="38,-0.5 38,-19.5 120,-19.5 120,-0.5 38,-0.5"/>
<text text-anchor="middle" x="79" y="-7.5" font-family="Helvetica,sans-Serif" font-size="10.00">dprintf_ring_t</text>
</a>
</g>
</g>
<!-- Node2 -->
<g id="node2" class="node">
<title>Node2</title>
<g id="a_node2"><a xlink:title=" ">
<polygon fill="none" stroke="#bfbfbf" points="0,-89.5 0,-108.5 38,-108.5 38,-89.5 0,-89.5"/>
<text text-anchor="middle" x="19" y="-96.5" font-family="Helvetica,sans-Serif" font-size="10.00">char</text>
</a>
</g>
</g>
<!-- Node2&#45;&gt;Node1 -->
<g id="edge1" class="edge">
<title>Node2&#45;&gt;Node1</title>
<path fill="none" stroke="#9a32cd" stroke-dasharray="5,2" d="M28.87,-80.44C35.96,-68.23 46,-51.74 56,-38 60.64,-31.63 66.39,-24.88 70.98,-19.72"/>
<polygon fill="#9a32cd" stroke="#9a32cd" points="25.79,-78.77 23.87,-89.19 31.87,-82.24 25.79,-78.77"/>
<text text-anchor="middle" x="65.5" y="-52" font-family="Helvetica,sans-Serif" font-size="10.00"> buf</text>
</g>
<!-- Node3 -->
<g id="node3" class="node">
<title>Node3</title>
<g id="a_node3"><a xlink:title=" ">
<polygon fill="none" stroke="#bfbfbf" points="56.5,-89.5 56.5,-108.5 101.5,-108.5 101.5,-89.5 56.5,-89.5"/>
<text text-anchor="middle" x="79" y="-96.5" font-family="Helvetica,sans-Serif" font-size="10.00">size_t</text>
</a>
</g>
</g>
<!-- Node3&#45;&gt;Node1 -->
<g id="edge2" class="edge">
<title>Node3&#45;&gt;Node1</title>
<path fill="none" stroke="#9a32cd" stroke-dasharray="5,2" d="M79,-79.19C79,-60.74 79,-33.41 79,-19.62"/>
<polygon fill="#9a32cd" stroke="#9a32cd" points="75.5,-79.34 79,-89.34 82.5,-79.34 75.5,-79.34"/>
<text text-anchor="middle" x="91.5" y="-63" font-family="Helvetica,sans-Serif" font-size="10.00"> cap</text>
<text text-anchor="middle" x="91.5" y="-52" font-family="Helvetica,sans-Serif" font-size="10.00">head</text>
<text text-anchor="middle" x="91.5" y="-41" font-family="Helvetica,sans-Serif" font-size="10.00">tail</text>
</g>
<!-- Node4 -->
<g id="node4" class="node">
<title>Node4</title>
<g id="a_node4"><a xlink:title=" ">
<polygon fill="none" stroke="#bfbfbf" points="120,-89.5 120,-108.5 158,-108.5 158,-89.5 120,-89.5"/>
<text text-anchor="middle" x="139" y="-96.5" font-family="Helvetica,sans-Serif" font-size="10.00">bool</text>
</a>
</g>
</g>
<!-- Node4&#45;&gt;Node1 -->
<g id="edge3" class="edge">
<title>Node4&#45;&gt;Node1</title>
<path fill="none" stroke="#9a32cd" stroke-dasharray="5,2" d="M131.67,-80.01C126.15,-67.57 117.85,-50.99 108,-38 102.84,-31.2 95.88,-24.66 90.07,-19.71"/>
<polygon fill="#9a32cd" stroke="#9a32cd" points="128.5,-81.48 135.63,-89.31 134.94,-78.74 128.5,-81.48"/>
<text text-anchor="middle" x="136.5" y="-52" font-family="Helvetica,sans-Serif" font-size="10.00"> full</text>
</g>
</g>
</svg>
