<?xml version="1.0" encoding="UTF-8" standalone="no"?>
<!DOCTYPE svg PUBLIC "-//W3C//DTD SVG 1.1//EN"
 "http://www.w3.org/Graphics/SVG/1.1/DTD/svg11.dtd">
<!-- Generated by graphviz version 2.43.0 (0)
 -->
<!-- Title: ub_var_int_array Pages: 1 -->
<svg width="207pt" height="95pt"
 viewBox="0.00 0.00 207.00 95.00" xmlns="http://www.w3.org/2000/svg" xmlns:xlink="http://www.w3.org/1999/xlink">
<g id="graph0" class="graph" transform="scale(1 1) rotate(0) translate(4 91)">
<title>ub_var_int_array</title>
<!-- Node1 -->
<g id="node1" class="node">
<title>Node1</title>
<g id="a_node1"><a xlink:title="An array of integers.">
<polygon fill="#bfbfbf" stroke="black" points="55,-0.5 55,-19.5 153,-19.5 153,-0.5 55,-0.5"/>
<text text-anchor="middle" x="104" y="-7.5" font-family="Helvetica,sans-Serif" font-size="10.00">ub_var_int_array</text>
</a>
</g>
</g>
<!-- Node1&#45;&gt;Node1 -->
<g id="edge4" class="edge">
<title>Node1&#45;&gt;Node1</title>
<path fill="none" stroke="#9a32cd" stroke-dasharray="5,2" d="M163.32,-14.58C168.06,-13.58 171,-12.05 171,-10 171,-6.72 163.49,-4.78 153.08,-4.19"/>
<polygon fill="#9a32cd" stroke="#9a32cd" points="162.59,-11.14 153.08,-15.81 163.43,-18.09 162.59,-11.14"/>
<text text-anchor="middle" x="183.5" y="-7.5" font-family="Helvetica,sans-Serif" font-size="10.00"> next</text>
</g>
<!-- Node2 -->
<g id="node2" class="node">
<title>Node2</title>
<g id="a_node2"><a xlink:title=" ">
<polygon fill="none" stroke="black" points="0,-67.5 0,-86.5 56,-86.5 56,-67.5 0,-67.5"/>
<text text-anchor="middle" x="28" y="-74.5" font-family="Helvetica,sans-Serif" font-size="10.00">uint64_t</text>
</a>
</g>
</g>
<!-- Node2&#45;&gt;Node1 -->
<g id="edge1" class="edge">
<title>Node2&#45;&gt;Node1</title>
<path fill="none" stroke="#9a32cd" stroke-dasharray="5,2" d="M34.04,-58.07C37.08,-51.14 41.33,-43.55 47,-38 55.29,-29.88 66.49,-23.86 76.77,-19.58"/>
<polygon fill="#9a32cd" stroke="#9a32cd" points="30.76,-56.87 30.45,-67.46 37.29,-59.37 30.76,-56.87"/>
<text text-anchor="middle" x="73.5" y="-41" font-family="Helvetica,sans-Serif" font-size="10.00"> itemcount</text>
</g>
<!-- Node3 -->
<g id="node3" class="node">
<title>Node3</title>
<g id="a_node3"><a xlink:title=" ">
<polygon fill="none" stroke="black" points="85,-67.5 85,-86.5 123,-86.5 123,-67.5 85,-67.5"/>
<text text-anchor="middle" x="104" y="-74.5" font-family="Helvetica,sans-Serif" font-size="10.00">char</text>
</a>
</g>
</g>
<!-- Node3&#45;&gt;Node1 -->
<g id="edge2" class="edge">
<title>Node3&#45;&gt;Node1</title>
<path fill="none" stroke="#9a32cd" stroke-dasharray="5,2" d="M104,-57.04C104,-44.67 104,-29.12 104,-19.63"/>
<polygon fill="#9a32cd" stroke="#9a32cd" points="100.5,-57.23 104,-67.23 107.5,-57.23 100.5,-57.23"/>
<text text-anchor="middle" x="127.5" y="-41" font-family="Helvetica,sans-Serif" font-size="10.00"> varname</text>
</g>
<!-- Node4 -->
<g id="node4" class="node">
<title>Node4</title>
<g id="a_node4"><a xlink:title=" ">
<polygon fill="none" stroke="black" points="149,-67.5 149,-86.5 199,-86.5 199,-67.5 149,-67.5"/>
<text text-anchor="middle" x="174" y="-74.5" font-family="Helvetica,sans-Serif" font-size="10.00">int64_t</text>
</a>
</g>
</g>
<!-- Node4&#45;&gt;Node1 -->
<g id="edge3" class="edge">
<title>Node4&#45;&gt;Node1</title>
<path fill="none" stroke="#9a32cd" stroke-dasharray="5,2" d="M166.13,-58.03C162.52,-51.19 157.76,-43.69 152,-38 144.25,-30.34 133.88,-24.15 124.76,-19.64"/>
<polygon fill="#9a32cd" stroke="#9a32cd" points="163.08,-59.77 170.56,-67.28 169.4,-56.75 163.08,-59.77"/>
<text text-anchor="middle" x="178" y="-41" font-family="Helvetica,sans-Serif" font-size="10.00"> values</text>
</g>
</g>
</svg>
