<?xml version="1.0" encoding="UTF-8" standalone="no"?>
<!DOCTYPE svg PUBLIC "-//W3C//DTD SVG 1.1//EN"
 "http://www.w3.org/Graphics/SVG/1.1/DTD/svg11.dtd">
<!-- Generated by graphviz version 2.43.0 (0)
 -->
<!-- Title: idle_timer Pages: 1 -->
<svg width="124pt" height="95pt"
 viewBox="0.00 0.00 123.50 95.00" xmlns="http://www.w3.org/2000/svg" xmlns:xlink="http://www.w3.org/1999/xlink">
<g id="graph0" class="graph" transform="scale(1 1) rotate(0) translate(4 91)">
<title>idle_timer</title>
<!-- Node1 -->
<g id="node1" class="node">
<title>Node1</title>
<g id="a_node1"><a xlink:title=" ">
<polygon fill="#bfbfbf" stroke="black" points="6.5,-0.5 6.5,-19.5 72.5,-19.5 72.5,-0.5 6.5,-0.5"/>
<text text-anchor="middle" x="39.5" y="-7.5" font-family="Helvetica,sans-Serif" font-size="10.00">idle_timer</text>
</a>
</g>
</g>
<!-- Node1&#45;&gt;Node1 -->
<g id="edge1" class="edge">
<title>Node1&#45;&gt;Node1</title>
<path fill="none" stroke="#9a32cd" stroke-dasharray="5,2" d="M83.15,-14.95C87.63,-13.97 90.5,-12.32 90.5,-10 90.5,-6.19 82.78,-4.19 72.85,-4.01"/>
<polygon fill="#9a32cd" stroke="#9a32cd" points="82.45,-11.5 72.85,-15.99 83.16,-18.46 82.45,-11.5"/>
<text text-anchor="middle" x="103" y="-7.5" font-family="Helvetica,sans-Serif" font-size="10.00"> next</text>
</g>
<!-- Node2 -->
<g id="node2" class="node">
<title>Node2</title>
<g id="a_node2"><a xlink:title=" ">
<polygon fill="none" stroke="#bfbfbf" points="0,-67.5 0,-86.5 79,-86.5 79,-67.5 0,-67.5"/>
<text text-anchor="middle" x="39.5" y="-74.5" font-family="Helvetica,sans-Serif" font-size="10.00">void(*)(void)</text>
</a>
</g>
</g>
<!-- Node2&#45;&gt;Node1 -->
<g id="edge2" class="edge">
<title>Node2&#45;&gt;Node1</title>
<path fill="none" stroke="#9a32cd" stroke-dasharray="5,2" d="M39.5,-57.04C39.5,-44.67 39.5,-29.12 39.5,-19.63"/>
<polygon fill="#9a32cd" stroke="#9a32cd" points="36,-57.23 39.5,-67.23 43,-57.23 36,-57.23"/>
<text text-anchor="middle" x="52" y="-41" font-family="Helvetica,sans-Serif" font-size="10.00"> func</text>
</g>
</g>
</svg>
