<?xml version="1.0" encoding="UTF-8" standalone="no"?>
<!DOCTYPE svg PUBLIC "-//W3C//DTD SVG 1.1//EN"
 "http://www.w3.org/Graphics/SVG/1.1/DTD/svg11.dtd">
<!-- Generated by graphviz version 2.43.0 (0)
 -->
<!-- Title: dns_request_t Pages: 1 -->
<svg width="339pt" height="117pt"
 viewBox="0.00 0.00 339.00 117.00" xmlns="http://www.w3.org/2000/svg" xmlns:xlink="http://www.w3.org/1999/xlink">
<g id="graph0" class="graph" transform="scale(1 1) rotate(0) translate(4 113)">
<title>dns_request_t</title>
<!-- Node1 -->
<g id="node1" class="node">
<title>Node1</title>
<g id="a_node1"><a xlink:title=" ">
<polygon fill="#bfbfbf" stroke="black" points="98.5,-0.5 98.5,-19.5 183.5,-19.5 183.5,-0.5 98.5,-0.5"/>
<text text-anchor="middle" x="141" y="-7.5" font-family="Helvetica,sans-Serif" font-size="10.00">dns_request_t</text>
</a>
</g>
</g>
<!-- Node2 -->
<g id="node2" class="node">
<title>Node2</title>
<g id="a_node2"><a xlink:title=" ">
<polygon fill="none" stroke="black" points="0,-89.5 0,-108.5 56,-108.5 56,-89.5 0,-89.5"/>
<text text-anchor="middle" x="28" y="-96.5" font-family="Helvetica,sans-Serif" font-size="10.00">uint16_t</text>
</a>
</g>
</g>
<!-- Node2&#45;&gt;Node1 -->
<g id="edge1" class="edge">
<title>Node2&#45;&gt;Node1</title>
<path fill="none" stroke="#9a32cd" stroke-dasharray="5,2" d="M36.95,-80.36C44.46,-67.12 56.3,-49.37 71,-38 81.61,-29.79 95.01,-23.82 107.25,-19.61"/>
<polygon fill="#9a32cd" stroke="#9a32cd" points="33.72,-78.97 32.08,-89.44 39.89,-82.28 33.72,-78.97"/>
<text text-anchor="middle" x="82" y="-57.5" font-family="Helvetica,sans-Serif" font-size="10.00"> id</text>
<text text-anchor="middle" x="82" y="-46.5" font-family="Helvetica,sans-Serif" font-size="10.00">type</text>
</g>
<!-- Node3 -->
<g id="node3" class="node">
<title>Node3</title>
<g id="a_node3"><a xlink:title=" ">
<polygon fill="none" stroke="black" points="74,-89.5 74,-108.5 130,-108.5 130,-89.5 74,-89.5"/>
<text text-anchor="middle" x="102" y="-96.5" font-family="Helvetica,sans-Serif" font-size="10.00">uint32_t</text>
</a>
</g>
</g>
<!-- Node3&#45;&gt;Node1 -->
<g id="edge2" class="edge">
<title>Node3&#45;&gt;Node1</title>
<path fill="none" stroke="#9a32cd" stroke-dasharray="5,2" d="M98.11,-79.15C96.53,-66.75 96.38,-50.56 103,-38 107.15,-30.12 114.75,-24.03 122.07,-19.64"/>
<polygon fill="#9a32cd" stroke="#9a32cd" points="94.7,-79.98 99.81,-89.25 101.6,-78.81 94.7,-79.98"/>
<text text-anchor="middle" x="130.5" y="-63" font-family="Helvetica,sans-Serif" font-size="10.00"> callback_a</text>
<text text-anchor="middle" x="130.5" y="-52" font-family="Helvetica,sans-Serif" font-size="10.00">rr_class</text>
<text text-anchor="middle" x="130.5" y="-41" font-family="Helvetica,sans-Serif" font-size="10.00">ttl</text>
</g>
<!-- Node4 -->
<g id="node4" class="node">
<title>Node4</title>
<g id="a_node4"><a xlink:title=" ">
<polygon fill="none" stroke="black" points="161,-89.5 161,-108.5 199,-108.5 199,-89.5 161,-89.5"/>
<text text-anchor="middle" x="180" y="-96.5" font-family="Helvetica,sans-Serif" font-size="10.00">char</text>
</a>
</g>
</g>
<!-- Node4&#45;&gt;Node1 -->
<g id="edge3" class="edge">
<title>Node4&#45;&gt;Node1</title>
<path fill="none" stroke="#9a32cd" stroke-dasharray="5,2" d="M174.31,-79.4C170.34,-67.33 164.59,-51.42 158,-38 154.87,-31.64 150.62,-24.89 147.16,-19.73"/>
<polygon fill="#9a32cd" stroke="#9a32cd" points="171.06,-80.74 177.42,-89.22 177.73,-78.63 171.06,-80.74"/>
<text text-anchor="middle" x="202.5" y="-63" font-family="Helvetica,sans-Serif" font-size="10.00"> callback_ptr</text>
<text text-anchor="middle" x="202.5" y="-52" font-family="Helvetica,sans-Serif" font-size="10.00">orig</text>
<text text-anchor="middle" x="202.5" y="-41" font-family="Helvetica,sans-Serif" font-size="10.00">result</text>
</g>
<!-- Node5 -->
<g id="node5" class="node">
<title>Node5</title>
<g id="a_node5"><a xlink:title=" ">
<polygon fill="none" stroke="black" points="241,-89.5 241,-108.5 291,-108.5 291,-89.5 241,-89.5"/>
<text text-anchor="middle" x="266" y="-96.5" font-family="Helvetica,sans-Serif" font-size="10.00">uint8_t</text>
</a>
</g>
</g>
<!-- Node5&#45;&gt;Node1 -->
<g id="edge4" class="edge">
<title>Node5&#45;&gt;Node1</title>
<path fill="none" stroke="#9a32cd" stroke-dasharray="5,2" d="M261.71,-79.23C257.73,-65.9 250.47,-48.56 238,-38 222.93,-25.23 202.26,-18.48 183.88,-14.91"/>
<polygon fill="#9a32cd" stroke="#9a32cd" points="258.42,-80.46 264.34,-89.25 265.19,-78.69 258.42,-80.46"/>
<text text-anchor="middle" x="294.5" y="-57.5" font-family="Helvetica,sans-Serif" font-size="10.00"> callback_aaaa</text>
<text text-anchor="middle" x="294.5" y="-46.5" font-family="Helvetica,sans-Serif" font-size="10.00">result_length</text>
</g>
</g>
</svg>
