<?xml version="1.0" encoding="UTF-8" standalone="no"?>
<!DOCTYPE svg PUBLIC "-//W3C//DTD SVG 1.1//EN"
 "http://www.w3.org/Graphics/SVG/1.1/DTD/svg11.dtd">
<!-- Generated by graphviz version 2.43.0 (0)
 -->
<!-- Title: ubasic_ctx Pages: 1 -->
<svg width="725pt" height="905pt"
 viewBox="0.00 0.00 725.00 905.00" xmlns="http://www.w3.org/2000/svg" xmlns:xlink="http://www.w3.org/1999/xlink">
<g id="graph0" class="graph" transform="scale(1 1) rotate(0) translate(4 901)">
<title>ubasic_ctx</title>
<!-- Node1 -->
<g id="node1" class="node">
<title>Node1</title>
<g id="a_node1"><a xlink:title=" ">
<polygon fill="#bfbfbf" stroke="black" points="649,-453.5 649,-472.5 717,-472.5 717,-453.5 649,-453.5"/>
<text text-anchor="middle" x="683" y="-460.5" font-family="Helvetica,sans-Serif" font-size="10.00">ubasic_ctx</text>
</a>
</g>
</g>
<!-- Node2 -->
<g id="node2" class="node">
<title>Node2</title>
<g id="a_node2"><a xlink:href="structub__var__string__array.html" target="_top" xlink:title=" ">
<polygon fill="none" stroke="black" points="384,-728.5 384,-747.5 497,-747.5 497,-728.5 384,-728.5"/>
<text text-anchor="middle" x="440.5" y="-735.5" font-family="Helvetica,sans-Serif" font-size="10.00">ub_var_string_array</text>
</a>
</g>
</g>
<!-- Node2&#45;&gt;Node1 -->
<g id="edge1" class="edge">
<title>Node2&#45;&gt;Node1</title>
<path fill="none" stroke="#9a32cd" stroke-dasharray="5,2" d="M507.42,-738.33C548.38,-734.94 599.11,-723.63 631,-691 662.4,-658.87 677.64,-511.65 681.18,-472.56"/>
<polygon fill="#9a32cd" stroke="#9a32cd" points="506.97,-734.85 497.24,-739.03 507.45,-741.84 506.97,-734.85"/>
<text text-anchor="middle" x="575" y="-739" font-family="Helvetica,sans-Serif" font-size="10.00"> string_array_variables</text>
</g>
<!-- Node3 -->
<g id="node3" class="node">
<title>Node3</title>
<g id="a_node3"><a xlink:title=" ">
<polygon fill="none" stroke="#bfbfbf" points="182.5,-667.5 182.5,-686.5 238.5,-686.5 238.5,-667.5 182.5,-667.5"/>
<text text-anchor="middle" x="210.5" y="-674.5" font-family="Helvetica,sans-Serif" font-size="10.00">uint64_t</text>
</a>
</g>
</g>
<!-- Node3&#45;&gt;Node1 -->
<g id="edge13" class="edge">
<title>Node3&#45;&gt;Node1</title>
<path fill="none" stroke="#9a32cd" stroke-dasharray="5,2" d="M248.87,-676.83C340.8,-675.63 574.56,-667.65 631,-618 675.46,-578.89 681.32,-500.33 681.97,-472.8"/>
<polygon fill="#9a32cd" stroke="#9a32cd" points="248.6,-673.33 238.64,-676.94 248.68,-680.33 248.6,-673.33"/>
<text text-anchor="middle" x="440.5" y="-696" font-family="Helvetica,sans-Serif" font-size="10.00"> for_stack_ptr</text>
<text text-anchor="middle" x="440.5" y="-685" font-family="Helvetica,sans-Serif" font-size="10.00">gosub_stack</text>
<text text-anchor="middle" x="440.5" y="-674" font-family="Helvetica,sans-Serif" font-size="10.00">gosub_stack_ptr</text>
</g>
<!-- Node3&#45;&gt;Node2 -->
<g id="edge2" class="edge">
<title>Node3&#45;&gt;Node2</title>
<path fill="none" stroke="#9a32cd" stroke-dasharray="5,2" d="M248.48,-684.14C279.12,-690.34 323.71,-700.04 362,-711 379.67,-716.06 399.21,-722.87 414.25,-728.39"/>
<polygon fill="#9a32cd" stroke="#9a32cd" points="249.14,-680.7 238.65,-682.17 247.77,-687.56 249.14,-680.7"/>
<text text-anchor="middle" x="320.5" y="-714" font-family="Helvetica,sans-Serif" font-size="10.00"> itemcount</text>
</g>
<!-- Node17 -->
<g id="node17" class="node">
<title>Node17</title>
<g id="a_node17"><a xlink:href="structub__var__int__array.html" target="_top" xlink:title=" ">
<polygon fill="none" stroke="black" points="391.5,-562.5 391.5,-581.5 489.5,-581.5 489.5,-562.5 391.5,-562.5"/>
<text text-anchor="middle" x="440.5" y="-569.5" font-family="Helvetica,sans-Serif" font-size="10.00">ub_var_int_array</text>
</a>
</g>
</g>
<!-- Node3&#45;&gt;Node17 -->
<g id="edge30" class="edge">
<title>Node3&#45;&gt;Node17</title>
<path fill="none" stroke="#9a32cd" stroke-dasharray="5,2" d="M239.37,-662.92C272.57,-646.3 329.87,-618.13 380,-596 391.31,-591.01 404,-585.83 414.74,-581.57"/>
<polygon fill="#9a32cd" stroke="#9a32cd" points="237.63,-659.87 230.27,-667.49 240.77,-666.13 237.63,-659.87"/>
<text text-anchor="middle" x="320.5" y="-646" font-family="Helvetica,sans-Serif" font-size="10.00"> itemcount</text>
</g>
<!-- Node4 -->
<g id="node4" class="node">
<title>Node4</title>
<g id="a_node4"><a xlink:title=" ">
<polygon fill="none" stroke="#bfbfbf" points="9,-490.5 9,-509.5 47,-509.5 47,-490.5 9,-490.5"/>
<text text-anchor="middle" x="28" y="-497.5" font-family="Helvetica,sans-Serif" font-size="10.00">char</text>
</a>
</g>
</g>
<!-- Node4&#45;&gt;Node1 -->
<g id="edge14" class="edge">
<title>Node4&#45;&gt;Node1</title>
<path fill="none" stroke="#9a32cd" stroke-dasharray="5,2" d="M57.28,-496.37C115.38,-489.8 252.01,-478.99 362,-506 370.69,-508.13 371.29,-512.95 380,-515 432.34,-527.36 447.28,-517.47 501,-515 558.96,-512.33 577.09,-524.45 631,-503 647.73,-496.35 663.47,-482.38 672.92,-472.85"/>
<polygon fill="#9a32cd" stroke="#9a32cd" points="56.57,-492.93 47.05,-497.57 57.39,-499.88 56.57,-492.93"/>
<text text-anchor="middle" x="320.5" y="-553" font-family="Helvetica,sans-Serif" font-size="10.00"> item_begin</text>
<text text-anchor="middle" x="320.5" y="-542" font-family="Helvetica,sans-Serif" font-size="10.00">nextptr</text>
<text text-anchor="middle" x="320.5" y="-531" font-family="Helvetica,sans-Serif" font-size="10.00">program_ptr</text>
<text text-anchor="middle" x="320.5" y="-520" font-family="Helvetica,sans-Serif" font-size="10.00">ptr</text>
<text text-anchor="middle" x="320.5" y="-509" font-family="Helvetica,sans-Serif" font-size="10.00">string</text>
</g>
<!-- Node4&#45;&gt;Node2 -->
<g id="edge3" class="edge">
<title>Node4&#45;&gt;Node2</title>
<path fill="none" stroke="#9a32cd" stroke-dasharray="5,2" d="M34.17,-519.18C40.97,-542.26 54.38,-581.58 74,-611 103.82,-655.71 112.77,-670.36 160,-696 230.4,-734.22 324.67,-740.77 383.74,-740.5"/>
<polygon fill="#9a32cd" stroke="#9a32cd" points="37.54,-518.21 31.45,-509.54 30.8,-520.11 37.54,-518.21"/>
<text text-anchor="middle" x="210.5" y="-732" font-family="Helvetica,sans-Serif" font-size="10.00"> varname</text>
</g>
<!-- Node5 -->
<g id="node5" class="node">
<title>Node5</title>
<g id="a_node5"><a xlink:href="structub__var__string.html" target="_top" xlink:title=" ">
<polygon fill="none" stroke="black" points="169,-771.5 169,-790.5 252,-790.5 252,-771.5 169,-771.5"/>
<text text-anchor="middle" x="210.5" y="-778.5" font-family="Helvetica,sans-Serif" font-size="10.00">ub_var_string</text>
</a>
</g>
</g>
<!-- Node4&#45;&gt;Node5 -->
<g id="edge5" class="edge">
<title>Node4&#45;&gt;Node5</title>
<path fill="none" stroke="#9a32cd" stroke-dasharray="5,2" d="M30.58,-519.58C34.8,-567.41 47.87,-688.45 74,-718 95.14,-741.9 113.01,-727.68 142,-741 161.19,-749.81 181.88,-762.62 195.23,-771.35"/>
<polygon fill="#9a32cd" stroke="#9a32cd" points="34.06,-519.24 29.73,-509.57 27.08,-519.83 34.06,-519.24"/>
<text text-anchor="middle" x="108" y="-755" font-family="Helvetica,sans-Serif" font-size="10.00"> value</text>
<text text-anchor="middle" x="108" y="-744" font-family="Helvetica,sans-Serif" font-size="10.00">varname</text>
</g>
<!-- Node7 -->
<g id="node7" class="node">
<title>Node7</title>
<g id="a_node7"><a xlink:href="structub__var__int.html" target="_top" xlink:title=" ">
<polygon fill="none" stroke="black" points="176.5,-588.5 176.5,-607.5 244.5,-607.5 244.5,-588.5 176.5,-588.5"/>
<text text-anchor="middle" x="210.5" y="-595.5" font-family="Helvetica,sans-Serif" font-size="10.00">ub_var_int</text>
</a>
</g>
</g>
<!-- Node4&#45;&gt;Node7 -->
<g id="edge10" class="edge">
<title>Node4&#45;&gt;Node7</title>
<path fill="none" stroke="#9a32cd" stroke-dasharray="5,2" d="M35.61,-519.08C42.5,-535.99 54.98,-559.97 74,-573 104.3,-593.75 146.98,-598.6 176.3,-599.16"/>
<polygon fill="#9a32cd" stroke="#9a32cd" points="38.85,-517.74 32.04,-509.62 32.3,-520.21 38.85,-517.74"/>
<text text-anchor="middle" x="108" y="-599" font-family="Helvetica,sans-Serif" font-size="10.00"> varname</text>
</g>
<!-- Node9 -->
<g id="node9" class="node">
<title>Node9</title>
<g id="a_node9"><a xlink:href="structconsole.html" target="_top" xlink:title=" ">
<polygon fill="none" stroke="black" points="183.5,-64.5 183.5,-83.5 237.5,-83.5 237.5,-64.5 183.5,-64.5"/>
<text text-anchor="middle" x="210.5" y="-71.5" font-family="Helvetica,sans-Serif" font-size="10.00">console</text>
</a>
</g>
</g>
<!-- Node4&#45;&gt;Node9 -->
<g id="edge16" class="edge">
<title>Node4&#45;&gt;Node9</title>
<path fill="none" stroke="#9a32cd" stroke-dasharray="5,2" d="M30.51,-480.19C34.97,-425.53 49.29,-273.78 74,-231 93.58,-197.1 115.73,-204.03 142,-175 169.45,-144.66 194.06,-102.3 204.37,-83.56"/>
<polygon fill="#9a32cd" stroke="#9a32cd" points="27.01,-480.06 29.71,-490.31 33.99,-480.62 27.01,-480.06"/>
<text text-anchor="middle" x="108" y="-256" font-family="Helvetica,sans-Serif" font-size="10.00"> buffer</text>
<text text-anchor="middle" x="108" y="-245" font-family="Helvetica,sans-Serif" font-size="10.00">dirty</text>
<text text-anchor="middle" x="108" y="-234" font-family="Helvetica,sans-Serif" font-size="10.00">internalbuffer</text>
</g>
<!-- Node13 -->
<g id="node13" class="node">
<title>Node13</title>
<g id="a_node13"><a xlink:href="structub__var__double.html" target="_top" xlink:title=" ">
<polygon fill="none" stroke="black" points="166.5,-843.5 166.5,-862.5 254.5,-862.5 254.5,-843.5 166.5,-843.5"/>
<text text-anchor="middle" x="210.5" y="-850.5" font-family="Helvetica,sans-Serif" font-size="10.00">ub_var_double</text>
</a>
</g>
</g>
<!-- Node4&#45;&gt;Node13 -->
<g id="edge23" class="edge">
<title>Node4&#45;&gt;Node13</title>
<path fill="none" stroke="#9a32cd" stroke-dasharray="5,2" d="M29.78,-519.93C32.31,-574.84 42.12,-726.68 74,-763 94.87,-786.77 118.75,-762.56 142,-784 157.84,-798.6 145.32,-813.24 160,-829 165.66,-835.08 173.19,-839.8 180.67,-843.38"/>
<polygon fill="#9a32cd" stroke="#9a32cd" points="33.27,-519.6 29.34,-509.76 26.27,-519.9 33.27,-519.6"/>
<text text-anchor="middle" x="108" y="-787" font-family="Helvetica,sans-Serif" font-size="10.00"> varname</text>
</g>
<!-- Node4&#45;&gt;Node17 -->
<g id="edge31" class="edge">
<title>Node4&#45;&gt;Node17</title>
<path fill="none" stroke="#9a32cd" stroke-dasharray="5,2" d="M41.49,-517.64C49.55,-527.52 60.95,-539.02 74,-545 102.13,-557.89 298.5,-566.78 391.22,-570.3"/>
<polygon fill="#9a32cd" stroke="#9a32cd" points="44.17,-515.37 35.31,-509.56 38.61,-519.63 44.17,-515.37"/>
<text text-anchor="middle" x="210.5" y="-567" font-family="Helvetica,sans-Serif" font-size="10.00"> varname</text>
</g>
<!-- Node18 -->
<g id="node18" class="node">
<title>Node18</title>
<g id="a_node18"><a xlink:href="structub__proc__fn__def.html" target="_top" xlink:title=" ">
<polygon fill="none" stroke="black" points="395,-296.5 395,-315.5 486,-315.5 486,-296.5 395,-296.5"/>
<text text-anchor="middle" x="440.5" y="-303.5" font-family="Helvetica,sans-Serif" font-size="10.00">ub_proc_fn_def</text>
</a>
</g>
</g>
<!-- Node4&#45;&gt;Node18 -->
<g id="edge34" class="edge">
<title>Node4&#45;&gt;Node18</title>
<path fill="none" stroke="#9a32cd" stroke-dasharray="5,2" d="M41.25,-482.24C49.56,-471.12 61.31,-457.05 74,-447 179.99,-363.05 236.63,-399.64 362,-349 384.97,-339.72 409.7,-325.11 424.89,-315.54"/>
<polygon fill="#9a32cd" stroke="#9a32cd" points="38.39,-480.23 35.38,-490.39 44.07,-484.32 38.39,-480.23"/>
<text text-anchor="middle" x="210.5" y="-400" font-family="Helvetica,sans-Serif" font-size="10.00"> name</text>
</g>
<!-- Node20 -->
<g id="node20" class="node">
<title>Node20</title>
<g id="a_node20"><a xlink:href="structub__param.html" target="_top" xlink:title=" ">
<polygon fill="none" stroke="black" points="178,-423.5 178,-442.5 243,-442.5 243,-423.5 178,-423.5"/>
<text text-anchor="middle" x="210.5" y="-430.5" font-family="Helvetica,sans-Serif" font-size="10.00">ub_param</text>
</a>
</g>
</g>
<!-- Node4&#45;&gt;Node20 -->
<g id="edge38" class="edge">
<title>Node4&#45;&gt;Node20</title>
<path fill="none" stroke="#9a32cd" stroke-dasharray="5,2" d="M53.46,-485.21C60,-481.6 67.15,-477.93 74,-475 108.54,-460.24 150.01,-448.16 177.9,-440.81"/>
<polygon fill="#9a32cd" stroke="#9a32cd" points="51.36,-482.38 44.43,-490.39 54.84,-488.45 51.36,-482.38"/>
<text text-anchor="middle" x="108" y="-478" font-family="Helvetica,sans-Serif" font-size="10.00"> name</text>
</g>
<!-- Node21 -->
<g id="node21" class="node">
<title>Node21</title>
<g id="a_node21"><a xlink:href="structub__line__ref.html" target="_top" xlink:title=" ">
<polygon fill="none" stroke="black" points="175,-175.5 175,-194.5 246,-194.5 246,-175.5 175,-175.5"/>
<text text-anchor="middle" x="210.5" y="-182.5" font-family="Helvetica,sans-Serif" font-size="10.00">ub_line_ref</text>
</a>
</g>
</g>
<!-- Node4&#45;&gt;Node21 -->
<g id="edge42" class="edge">
<title>Node4&#45;&gt;Node21</title>
<path fill="none" stroke="#9a32cd" stroke-dasharray="5,2" d="M30.67,-480.39C35.05,-433.57 48.32,-317.09 74,-289 95.34,-265.66 115.78,-285.7 142,-268 149.66,-262.83 186.2,-215.54 202.09,-194.74"/>
<polygon fill="#9a32cd" stroke="#9a32cd" points="27.18,-480.19 29.77,-490.46 34.15,-480.81 27.18,-480.19"/>
<text text-anchor="middle" x="108" y="-292" font-family="Helvetica,sans-Serif" font-size="10.00"> ptr</text>
</g>
<!-- Node24 -->
<g id="node24" class="node">
<title>Node24</title>
<g id="a_node24"><a xlink:href="structfor__state.html" target="_top" xlink:title=" ">
<polygon fill="none" stroke="black" points="180.5,-300.5 180.5,-319.5 240.5,-319.5 240.5,-300.5 180.5,-300.5"/>
<text text-anchor="middle" x="210.5" y="-307.5" font-family="Helvetica,sans-Serif" font-size="10.00">for_state</text>
</a>
</g>
</g>
<!-- Node4&#45;&gt;Node24 -->
<g id="edge47" class="edge">
<title>Node4&#45;&gt;Node24</title>
<path fill="none" stroke="#9a32cd" stroke-dasharray="5,2" d="M31.67,-480.27C36.14,-454.41 47.4,-409.07 74,-381 96.72,-357.02 115.71,-371 142,-351 152.06,-343.35 149.76,-336.4 160,-329 166.12,-324.58 173.4,-321.04 180.46,-318.27"/>
<polygon fill="#9a32cd" stroke="#9a32cd" points="28.18,-479.93 30.11,-490.34 35.1,-481 28.18,-479.93"/>
<text text-anchor="middle" x="108" y="-384" font-family="Helvetica,sans-Serif" font-size="10.00"> for_variable</text>
</g>
<!-- Node5&#45;&gt;Node1 -->
<g id="edge40" class="edge">
<title>Node5&#45;&gt;Node1</title>
<path fill="none" stroke="#9a32cd" stroke-dasharray="5,2" d="M262.24,-784.96C362.1,-791.59 578.98,-799.78 631,-751 672.76,-711.84 680.52,-518.21 681.78,-472.62"/>
<polygon fill="#9a32cd" stroke="#9a32cd" points="262.31,-781.46 252.09,-784.27 261.83,-788.44 262.31,-781.46"/>
<text text-anchor="middle" x="440.5" y="-803" font-family="Helvetica,sans-Serif" font-size="10.00"> local_string_variables</text>
<text text-anchor="middle" x="440.5" y="-792" font-family="Helvetica,sans-Serif" font-size="10.00">str_variables</text>
</g>
<!-- Node5&#45;&gt;Node2 -->
<g id="edge4" class="edge">
<title>Node5&#45;&gt;Node2</title>
<path fill="none" stroke="#9a32cd" stroke-dasharray="5,2" d="M262.5,-771.38C300.14,-764.28 351.13,-754.67 388.72,-747.58"/>
<polygon fill="#9a32cd" stroke="#9a32cd" points="261.44,-768.02 252.26,-773.31 262.74,-774.9 261.44,-768.02"/>
<text text-anchor="middle" x="320.5" y="-770" font-family="Helvetica,sans-Serif" font-size="10.00"> values</text>
</g>
<!-- Node5&#45;&gt;Node5 -->
<g id="edge7" class="edge">
<title>Node5&#45;&gt;Node5</title>
<path fill="none" stroke="#9a32cd" stroke-dasharray="5,2" d="M191.61,-800.4C192.87,-805.31 199.17,-809 210.5,-809 228.63,-809 233.87,-799.57 226.22,-790.76"/>
<polygon fill="#9a32cd" stroke="#9a32cd" points="194.98,-801.35 194.78,-790.76 188.33,-799.17 194.98,-801.35"/>
<text text-anchor="middle" x="210.5" y="-812" font-family="Helvetica,sans-Serif" font-size="10.00"> next</text>
</g>
<!-- Node6 -->
<g id="node6" class="node">
<title>Node6</title>
<g id="a_node6"><a xlink:title=" ">
<polygon fill="none" stroke="#bfbfbf" points="9,-809.5 9,-828.5 47,-828.5 47,-809.5 9,-809.5"/>
<text text-anchor="middle" x="28" y="-816.5" font-family="Helvetica,sans-Serif" font-size="10.00">bool</text>
</a>
</g>
</g>
<!-- Node6&#45;&gt;Node5 -->
<g id="edge6" class="edge">
<title>Node6&#45;&gt;Node5</title>
<path fill="none" stroke="#9a32cd" stroke-dasharray="5,2" d="M57.1,-813.86C80.01,-809.58 113.16,-803.22 142,-797 151.18,-795.02 161.04,-792.76 170.3,-790.58"/>
<polygon fill="#9a32cd" stroke="#9a32cd" points="56.25,-810.45 47.05,-815.72 57.52,-817.34 56.25,-810.45"/>
<text text-anchor="middle" x="108" y="-813" font-family="Helvetica,sans-Serif" font-size="10.00"> global</text>
</g>
<!-- Node6&#45;&gt;Node7 -->
<g id="edge12" class="edge">
<title>Node6&#45;&gt;Node7</title>
<path fill="none" stroke="#9a32cd" stroke-dasharray="5,2" d="M33.54,-799.65C39.77,-776.06 52.68,-735.78 74,-707 107.61,-661.64 164.42,-624.39 192.6,-607.6"/>
<polygon fill="#9a32cd" stroke="#9a32cd" points="30.11,-798.94 31.08,-809.49 36.9,-800.64 30.11,-798.94"/>
<text text-anchor="middle" x="108" y="-710" font-family="Helvetica,sans-Serif" font-size="10.00"> global</text>
</g>
<!-- Node6&#45;&gt;Node13 -->
<g id="edge25" class="edge">
<title>Node6&#45;&gt;Node13</title>
<path fill="none" stroke="#9a32cd" stroke-dasharray="5,2" d="M56.98,-826.92C62.59,-828.38 68.47,-829.82 74,-831 104.65,-837.56 139.56,-843.18 166.27,-847.1"/>
<polygon fill="#9a32cd" stroke="#9a32cd" points="57.86,-823.53 47.29,-824.32 56.04,-830.3 57.86,-823.53"/>
<text text-anchor="middle" x="108" y="-846" font-family="Helvetica,sans-Serif" font-size="10.00"> global</text>
</g>
<!-- Node7&#45;&gt;Node1 -->
<g id="edge8" class="edge">
<title>Node7&#45;&gt;Node1</title>
<path fill="none" stroke="#9a32cd" stroke-dasharray="5,2" d="M254.76,-603.37C349.54,-614.21 571.77,-634.24 631,-592 671.39,-563.2 679.8,-497.22 681.55,-472.54"/>
<polygon fill="#9a32cd" stroke="#9a32cd" points="255,-599.88 244.66,-602.2 254.19,-606.83 255,-599.88"/>
<text text-anchor="middle" x="440.5" y="-631" font-family="Helvetica,sans-Serif" font-size="10.00"> int_variables</text>
<text text-anchor="middle" x="440.5" y="-620" font-family="Helvetica,sans-Serif" font-size="10.00">local_int_variables</text>
</g>
<!-- Node7&#45;&gt;Node7 -->
<g id="edge9" class="edge">
<title>Node7&#45;&gt;Node7</title>
<path fill="none" stroke="#9a32cd" stroke-dasharray="5,2" d="M191.61,-617.4C192.87,-622.31 199.17,-626 210.5,-626 228.63,-626 233.87,-616.57 226.22,-607.76"/>
<polygon fill="#9a32cd" stroke="#9a32cd" points="194.98,-618.35 194.78,-607.76 188.33,-616.17 194.98,-618.35"/>
<text text-anchor="middle" x="210.5" y="-629" font-family="Helvetica,sans-Serif" font-size="10.00"> next</text>
</g>
<!-- Node7&#45;&gt;Node17 -->
<g id="edge29" class="edge">
<title>Node7&#45;&gt;Node17</title>
<path fill="none" stroke="#9a32cd" stroke-dasharray="5,2" d="M254.62,-593.08C293.54,-588.64 350.73,-582.12 391.17,-577.51"/>
<polygon fill="#9a32cd" stroke="#9a32cd" points="254.19,-589.61 244.65,-594.22 254.99,-596.56 254.19,-589.61"/>
<text text-anchor="middle" x="320.5" y="-592" font-family="Helvetica,sans-Serif" font-size="10.00"> values</text>
</g>
<!-- Node8 -->
<g id="node8" class="node">
<title>Node8</title>
<g id="a_node8"><a xlink:title=" ">
<polygon fill="none" stroke="#bfbfbf" points="3,-253.5 3,-272.5 53,-272.5 53,-253.5 3,-253.5"/>
<text text-anchor="middle" x="28" y="-260.5" font-family="Helvetica,sans-Serif" font-size="10.00">int64_t</text>
</a>
</g>
</g>
<!-- Node8&#45;&gt;Node1 -->
<g id="edge19" class="edge">
<title>Node8&#45;&gt;Node1</title>
<path fill="none" stroke="#9a32cd" stroke-dasharray="5,2" d="M38.67,-244C46.55,-230.17 58.83,-211.86 74,-200 106.38,-174.69 119.83,-174.71 160,-166 262.64,-143.75 555.65,-131.84 631,-205 667.61,-240.54 679.17,-410.68 681.51,-453.3"/>
<polygon fill="#9a32cd" stroke="#9a32cd" points="35.42,-242.66 33.74,-253.12 41.57,-245.99 35.42,-242.66"/>
<text text-anchor="middle" x="320.5" y="-165" font-family="Helvetica,sans-Serif" font-size="10.00"> current_linenum</text>
<text text-anchor="middle" x="320.5" y="-154" font-family="Helvetica,sans-Serif" font-size="10.00">eval_linenum</text>
</g>
<!-- Node8&#45;&gt;Node7 -->
<g id="edge11" class="edge">
<title>Node8&#45;&gt;Node7</title>
<path fill="none" stroke="#9a32cd" stroke-dasharray="5,2" d="M29.07,-282.82C30.01,-323.97 36.39,-420.57 74,-490 77.18,-495.87 154.54,-570.16 160,-574 167.97,-579.6 177.45,-584.55 185.97,-588.47"/>
<polygon fill="#9a32cd" stroke="#9a32cd" points="32.57,-282.71 28.93,-272.76 25.57,-282.81 32.57,-282.71"/>
<text text-anchor="middle" x="108" y="-560" font-family="Helvetica,sans-Serif" font-size="10.00"> value</text>
</g>
<!-- Node8&#45;&gt;Node18 -->
<g id="edge35" class="edge">
<title>Node8&#45;&gt;Node18</title>
<path fill="none" stroke="#9a32cd" stroke-dasharray="5,2" d="M40.28,-244.92C48.22,-234.02 59.92,-221.1 74,-215 101.73,-202.99 115.59,-200.31 142,-215 155.26,-222.37 147.63,-235.23 160,-244 197.35,-270.49 325.72,-290.96 394.74,-300.36"/>
<polygon fill="#9a32cd" stroke="#9a32cd" points="37.24,-243.17 34.53,-253.41 43.04,-247.1 37.24,-243.17"/>
<text text-anchor="middle" x="210.5" y="-280" font-family="Helvetica,sans-Serif" font-size="10.00"> line</text>
</g>
<!-- Node8&#45;&gt;Node24 -->
<g id="edge48" class="edge">
<title>Node8&#45;&gt;Node24</title>
<path fill="none" stroke="#9a32cd" stroke-dasharray="5,2" d="M43.63,-280.11C51.68,-288.28 62.39,-297.27 74,-302 108.49,-316.04 152.02,-315.79 180.29,-313.55"/>
<polygon fill="#9a32cd" stroke="#9a32cd" points="46.14,-277.67 36.77,-272.71 41,-282.43 46.14,-277.67"/>
<text text-anchor="middle" x="108" y="-339" font-family="Helvetica,sans-Serif" font-size="10.00"> line_after_for</text>
<text text-anchor="middle" x="108" y="-328" font-family="Helvetica,sans-Serif" font-size="10.00">step</text>
<text text-anchor="middle" x="108" y="-317" font-family="Helvetica,sans-Serif" font-size="10.00">to</text>
</g>
<!-- Node9&#45;&gt;Node1 -->
<g id="edge15" class="edge">
<title>Node9&#45;&gt;Node1</title>
<path fill="none" stroke="#9a32cd" stroke-dasharray="5,2" d="M247.43,-61.74C328.01,-36.76 524.45,9.67 631,-90 685.77,-141.23 683.33,-400.38 682.23,-453.48"/>
<polygon fill="#9a32cd" stroke="#9a32cd" points="246.21,-58.45 237.74,-64.81 248.33,-65.12 246.21,-58.45"/>
<text text-anchor="middle" x="440.5" y="-36" font-family="Helvetica,sans-Serif" font-size="10.00"> cons</text>
</g>
<!-- Node10 -->
<g id="node10" class="node">
<title>Node10</title>
<g id="a_node10"><a xlink:title=" ">
<polygon fill="none" stroke="#bfbfbf" points="5.5,-67.5 5.5,-86.5 50.5,-86.5 50.5,-67.5 5.5,-67.5"/>
<text text-anchor="middle" x="28" y="-74.5" font-family="Helvetica,sans-Serif" font-size="10.00">size_t</text>
</a>
</g>
</g>
<!-- Node10&#45;&gt;Node9 -->
<g id="edge17" class="edge">
<title>Node10&#45;&gt;Node9</title>
<path fill="none" stroke="#9a32cd" stroke-dasharray="5,2" d="M60.88,-76.47C95.71,-75.89 150.85,-74.97 183.27,-74.44"/>
<polygon fill="#9a32cd" stroke="#9a32cd" points="60.71,-72.97 50.77,-76.64 60.83,-79.97 60.71,-72.97"/>
<text text-anchor="middle" x="108" y="-80" font-family="Helvetica,sans-Serif" font-size="10.00"> bufcnt</text>
</g>
<!-- Node11 -->
<g id="node11" class="node">
<title>Node11</title>
<g id="a_node11"><a xlink:title=" ">
<polygon fill="none" stroke="#bfbfbf" points="3,-0.5 3,-19.5 53,-19.5 53,-0.5 3,-0.5"/>
<text text-anchor="middle" x="28" y="-7.5" font-family="Helvetica,sans-Serif" font-size="10.00">uint8_t</text>
</a>
</g>
</g>
<!-- Node11&#45;&gt;Node9 -->
<g id="edge18" class="edge">
<title>Node11&#45;&gt;Node9</title>
<path fill="none" stroke="#9a32cd" stroke-dasharray="5,2" d="M63.46,-11.57C86.39,-13.54 116.82,-18 142,-28 163.88,-36.69 185.76,-53.45 198.45,-64.16"/>
<polygon fill="#9a32cd" stroke="#9a32cd" points="63.41,-8.05 53.18,-10.8 62.89,-15.03 63.41,-8.05"/>
<text text-anchor="middle" x="108" y="-64" font-family="Helvetica,sans-Serif" font-size="10.00"> attributes</text>
<text text-anchor="middle" x="108" y="-53" font-family="Helvetica,sans-Serif" font-size="10.00">last</text>
<text text-anchor="middle" x="108" y="-42" font-family="Helvetica,sans-Serif" font-size="10.00">x</text>
<text text-anchor="middle" x="108" y="-31" font-family="Helvetica,sans-Serif" font-size="10.00">y</text>
</g>
<!-- Node12 -->
<g id="node12" class="node">
<title>Node12</title>
<g id="a_node12"><a xlink:title=" ">
<polygon fill="none" stroke="#bfbfbf" points="415.5,-486.5 415.5,-505.5 465.5,-505.5 465.5,-486.5 415.5,-486.5"/>
<text text-anchor="middle" x="440.5" y="-493.5" font-family="Helvetica,sans-Serif" font-size="10.00">int32_t</text>
</a>
</g>
</g>
<!-- Node12&#45;&gt;Node1 -->
<g id="edge20" class="edge">
<title>Node12&#45;&gt;Node1</title>
<path fill="none" stroke="#9a32cd" stroke-dasharray="5,2" d="M475.57,-493.05C513.61,-489.52 576.94,-482.95 631,-474 636.81,-473.04 642.96,-471.86 648.89,-470.63"/>
<polygon fill="#9a32cd" stroke="#9a32cd" points="475.18,-489.57 465.54,-493.96 475.81,-496.54 475.18,-489.57"/>
<text text-anchor="middle" x="575" y="-491" font-family="Helvetica,sans-Serif" font-size="10.00"> graphics_colour</text>
</g>
<!-- Node13&#45;&gt;Node1 -->
<g id="edge21" class="edge">
<title>Node13&#45;&gt;Node1</title>
<path fill="none" stroke="#9a32cd" stroke-dasharray="5,2" d="M264.8,-862.23C355.15,-874.48 537.63,-883.87 631,-781 673.65,-734.01 680.76,-520.32 681.83,-472.51"/>
<polygon fill="#9a32cd" stroke="#9a32cd" points="265.17,-858.75 254.78,-860.81 264.19,-865.68 265.17,-858.75"/>
<text text-anchor="middle" x="440.5" y="-883" font-family="Helvetica,sans-Serif" font-size="10.00"> double_variables</text>
<text text-anchor="middle" x="440.5" y="-872" font-family="Helvetica,sans-Serif" font-size="10.00">local_double_variables</text>
</g>
<!-- Node13&#45;&gt;Node13 -->
<g id="edge24" class="edge">
<title>Node13&#45;&gt;Node13</title>
<path fill="none" stroke="#9a32cd" stroke-dasharray="5,2" d="M191.61,-872.4C192.87,-877.31 199.17,-881 210.5,-881 228.63,-881 233.87,-871.57 226.22,-862.76"/>
<polygon fill="#9a32cd" stroke="#9a32cd" points="194.98,-873.35 194.78,-862.76 188.33,-871.17 194.98,-873.35"/>
<text text-anchor="middle" x="210.5" y="-884" font-family="Helvetica,sans-Serif" font-size="10.00"> next</text>
</g>
<!-- Node14 -->
<g id="node14" class="node">
<title>Node14</title>
<g id="a_node14"><a xlink:title=" ">
<polygon fill="none" stroke="#bfbfbf" points="3,-877.5 3,-896.5 53,-896.5 53,-877.5 3,-877.5"/>
<text text-anchor="middle" x="28" y="-884.5" font-family="Helvetica,sans-Serif" font-size="10.00">double</text>
</a>
</g>
</g>
<!-- Node14&#45;&gt;Node13 -->
<g id="edge22" class="edge">
<title>Node14&#45;&gt;Node13</title>
<path fill="none" stroke="#9a32cd" stroke-dasharray="5,2" d="M63.48,-880.5C92.69,-875 134.73,-867.08 166.2,-861.16"/>
<polygon fill="#9a32cd" stroke="#9a32cd" points="62.52,-877.12 53.34,-882.41 63.82,-884 62.52,-877.12"/>
<text text-anchor="middle" x="108" y="-880" font-family="Helvetica,sans-Serif" font-size="10.00"> value</text>
</g>
<!-- Node15 -->
<g id="node15" class="node">
<title>Node15</title>
<g id="a_node15"><a xlink:title=" ">
<polygon fill="none" stroke="#bfbfbf" points="426,-401.5 426,-420.5 455,-420.5 455,-401.5 426,-401.5"/>
<text text-anchor="middle" x="440.5" y="-408.5" font-family="Helvetica,sans-Serif" font-size="10.00">int</text>
</a>
</g>
</g>
<!-- Node15&#45;&gt;Node1 -->
<g id="edge26" class="edge">
<title>Node15&#45;&gt;Node1</title>
<path fill="none" stroke="#9a32cd" stroke-dasharray="5,2" d="M465.17,-404.42C480.4,-400.52 500.71,-395.98 519,-394 568.49,-388.64 586.56,-371.58 631,-394 655.87,-406.54 671.62,-437.58 678.3,-453.4"/>
<polygon fill="#9a32cd" stroke="#9a32cd" points="463.84,-401.15 455.07,-407.09 465.63,-407.91 463.84,-401.15"/>
<text text-anchor="middle" x="575" y="-441" font-family="Helvetica,sans-Serif" font-size="10.00"> bracket_depth</text>
<text text-anchor="middle" x="575" y="-430" font-family="Helvetica,sans-Serif" font-size="10.00">current_token</text>
<text text-anchor="middle" x="575" y="-419" font-family="Helvetica,sans-Serif" font-size="10.00">ended</text>
<text text-anchor="middle" x="575" y="-408" font-family="Helvetica,sans-Serif" font-size="10.00">errored</text>
<text text-anchor="middle" x="575" y="-397" font-family="Helvetica,sans-Serif" font-size="10.00">oldlen</text>
</g>
<!-- Node16 -->
<g id="node16" class="node">
<title>Node16</title>
<g id="a_node16"><a xlink:title=" ">
<polygon fill="none" stroke="#bfbfbf" points="380,-363.5 380,-382.5 501,-382.5 501,-363.5 380,-363.5"/>
<text text-anchor="middle" x="440.5" y="-370.5" font-family="Helvetica,sans-Serif" font-size="10.00">enum ub_return_type</text>
</a>
</g>
</g>
<!-- Node16&#45;&gt;Node1 -->
<g id="edge27" class="edge">
<title>Node16&#45;&gt;Node1</title>
<path fill="none" stroke="#9a32cd" stroke-dasharray="5,2" d="M478.65,-360.66C519.17,-349.6 584.45,-339.02 631,-367 663.03,-386.25 676.02,-433.15 680.26,-453.41"/>
<polygon fill="#9a32cd" stroke="#9a32cd" points="477.56,-357.33 468.91,-363.46 479.49,-364.06 477.56,-357.33"/>
<text text-anchor="middle" x="575" y="-370" font-family="Helvetica,sans-Serif" font-size="10.00"> fn_type</text>
</g>
<!-- Node17&#45;&gt;Node1 -->
<g id="edge28" class="edge">
<title>Node17&#45;&gt;Node1</title>
<path fill="none" stroke="#9a32cd" stroke-dasharray="5,2" d="M499.96,-577.33C539.92,-578.1 592.42,-573.17 631,-548 658.82,-529.85 673.68,-490.75 679.31,-472.61"/>
<polygon fill="#9a32cd" stroke="#9a32cd" points="499.93,-573.83 489.82,-577.01 499.71,-580.82 499.93,-573.83"/>
<text text-anchor="middle" x="575" y="-580" font-family="Helvetica,sans-Serif" font-size="10.00"> int_array_variables</text>
</g>
<!-- Node18&#45;&gt;Node1 -->
<g id="edge32" class="edge">
<title>Node18&#45;&gt;Node1</title>
<path fill="none" stroke="#9a32cd" stroke-dasharray="5,2" d="M496.4,-300.32C537.65,-299.05 593.29,-304.09 631,-334 669.68,-364.68 679.12,-428.94 681.34,-453.33"/>
<polygon fill="#9a32cd" stroke="#9a32cd" points="496.08,-296.83 486.25,-300.77 496.39,-303.82 496.08,-296.83"/>
<text text-anchor="middle" x="575" y="-337" font-family="Helvetica,sans-Serif" font-size="10.00"> defs</text>
</g>
<!-- Node18&#45;&gt;Node18 -->
<g id="edge36" class="edge">
<title>Node18&#45;&gt;Node18</title>
<path fill="none" stroke="#9a32cd" stroke-dasharray="5,2" d="M418.18,-325.03C419.4,-330.13 426.84,-334 440.5,-334 461.83,-334 467.99,-324.57 459,-315.76"/>
<polygon fill="#9a32cd" stroke="#9a32cd" points="421.43,-326.34 422,-315.76 414.95,-323.67 421.43,-326.34"/>
<text text-anchor="middle" x="440.5" y="-337" font-family="Helvetica,sans-Serif" font-size="10.00"> next</text>
</g>
<!-- Node19 -->
<g id="node19" class="node">
<title>Node19</title>
<g id="a_node19"><a xlink:title=" ">
<polygon fill="none" stroke="#bfbfbf" points="160,-338.5 160,-357.5 261,-357.5 261,-338.5 160,-338.5"/>
<text text-anchor="middle" x="210.5" y="-345.5" font-family="Helvetica,sans-Serif" font-size="10.00">enum ub_fn_type</text>
</a>
</g>
</g>
<!-- Node19&#45;&gt;Node18 -->
<g id="edge33" class="edge">
<title>Node19&#45;&gt;Node18</title>
<path fill="none" stroke="#9a32cd" stroke-dasharray="5,2" d="M271.35,-336.97C310.06,-329.84 359.61,-320.72 394.87,-314.22"/>
<polygon fill="#9a32cd" stroke="#9a32cd" points="270.45,-333.58 261.25,-338.83 271.72,-340.47 270.45,-333.58"/>
<text text-anchor="middle" x="320.5" y="-337" font-family="Helvetica,sans-Serif" font-size="10.00"> type</text>
</g>
<!-- Node20&#45;&gt;Node1 -->
<g id="edge49" class="edge">
<title>Node20&#45;&gt;Node1</title>
<path fill="none" stroke="#9a32cd" stroke-dasharray="5,2" d="M253.18,-439.09C261.7,-440.19 270.63,-441.23 279,-442 415.91,-454.67 579.74,-460.26 648.76,-462.17"/>
<polygon fill="#9a32cd" stroke="#9a32cd" points="253.41,-435.59 243.03,-437.74 252.48,-442.53 253.41,-435.59"/>
<text text-anchor="middle" x="440.5" y="-459" font-family="Helvetica,sans-Serif" font-size="10.00"> param</text>
</g>
<!-- Node20&#45;&gt;Node18 -->
<g id="edge37" class="edge">
<title>Node20&#45;&gt;Node18</title>
<path fill="none" stroke="#9a32cd" stroke-dasharray="5,2" d="M253.18,-430.2C291.92,-426.79 345.98,-419.7 362,-406 380.59,-390.1 365.94,-374.01 380,-354 391.37,-337.82 409.66,-324.21 422.97,-315.67"/>
<polygon fill="#9a32cd" stroke="#9a32cd" points="252.88,-426.72 243.2,-431.03 253.45,-433.69 252.88,-426.72"/>
<text text-anchor="middle" x="320.5" y="-430" font-family="Helvetica,sans-Serif" font-size="10.00"> params</text>
</g>
<!-- Node20&#45;&gt;Node20 -->
<g id="edge39" class="edge">
<title>Node20&#45;&gt;Node20</title>
<path fill="none" stroke="#9a32cd" stroke-dasharray="5,2" d="M191.61,-452.4C192.87,-457.31 199.17,-461 210.5,-461 228.63,-461 233.87,-451.57 226.22,-442.76"/>
<polygon fill="#9a32cd" stroke="#9a32cd" points="194.98,-453.35 194.78,-442.76 188.33,-451.17 194.98,-453.35"/>
<text text-anchor="middle" x="210.5" y="-464" font-family="Helvetica,sans-Serif" font-size="10.00"> next</text>
</g>
<!-- Node21&#45;&gt;Node1 -->
<g id="edge41" class="edge">
<title>Node21&#45;&gt;Node1</title>
<path fill="none" stroke="#9a32cd" stroke-dasharray="5,2" d="M256.26,-185.71C352.97,-188.18 577.04,-199.26 631,-249 661.96,-277.54 677.42,-415.68 681.12,-453.44"/>
<polygon fill="#9a32cd" stroke="#9a32cd" points="256.29,-182.21 246.21,-185.47 256.13,-189.21 256.29,-182.21"/>
<text text-anchor="middle" x="440.5" y="-218" font-family="Helvetica,sans-Serif" font-size="10.00"> line_tail</text>
<text text-anchor="middle" x="440.5" y="-207" font-family="Helvetica,sans-Serif" font-size="10.00">lines</text>
</g>
<!-- Node21&#45;&gt;Node21 -->
<g id="edge44" class="edge">
<title>Node21&#45;&gt;Node21</title>
<path fill="none" stroke="#9a32cd" stroke-dasharray="5,2" d="M191.61,-204.4C192.87,-209.31 199.17,-213 210.5,-213 228.63,-213 233.87,-203.57 226.22,-194.76"/>
<polygon fill="#9a32cd" stroke="#9a32cd" points="194.98,-205.35 194.78,-194.76 188.33,-203.17 194.98,-205.35"/>
<text text-anchor="middle" x="210.5" y="-227" font-family="Helvetica,sans-Serif" font-size="10.00"> next</text>
<text text-anchor="middle" x="210.5" y="-216" font-family="Helvetica,sans-Serif" font-size="10.00">prev</text>
</g>
<!-- Node22 -->
<g id="node22" class="node">
<title>Node22</title>
<g id="a_node22"><a xlink:title=" ">
<polygon fill="none" stroke="#bfbfbf" points="0,-111.5 0,-130.5 56,-130.5 56,-111.5 0,-111.5"/>
<text text-anchor="middle" x="28" y="-118.5" font-family="Helvetica,sans-Serif" font-size="10.00">uint32_t</text>
</a>
</g>
</g>
<!-- Node22&#45;&gt;Node21 -->
<g id="edge43" class="edge">
<title>Node22&#45;&gt;Node21</title>
<path fill="none" stroke="#9a32cd" stroke-dasharray="5,2" d="M65.77,-134.04C100.44,-146.33 151.58,-164.46 182.59,-175.46"/>
<polygon fill="#9a32cd" stroke="#9a32cd" points="66.62,-130.62 56.02,-130.58 64.28,-137.22 66.62,-130.62"/>
<text text-anchor="middle" x="108" y="-163" font-family="Helvetica,sans-Serif" font-size="10.00"> line_number</text>
</g>
<!-- Node23 -->
<g id="node23" class="node">
<title>Node23</title>
<g id="a_node23"><a xlink:title=" ">
<polygon fill="none" stroke="#bfbfbf" points="417.5,-101.5 417.5,-120.5 463.5,-120.5 463.5,-101.5 417.5,-101.5"/>
<text text-anchor="middle" x="440.5" y="-108.5" font-family="Helvetica,sans-Serif" font-size="10.00">void *</text>
</a>
</g>
</g>
<!-- Node23&#45;&gt;Node1 -->
<g id="edge45" class="edge">
<title>Node23&#45;&gt;Node1</title>
<path fill="none" stroke="#9a32cd" stroke-dasharray="5,2" d="M473.56,-102.35C515.47,-93.18 588.54,-84.84 631,-124 680.88,-170 682.36,-402.96 682.09,-453.37"/>
<polygon fill="#9a32cd" stroke="#9a32cd" points="472.55,-99 463.61,-104.68 474.14,-105.81 472.55,-99"/>
<text text-anchor="middle" x="575" y="-127" font-family="Helvetica,sans-Serif" font-size="10.00"> fn_return</text>
</g>
<!-- Node24&#45;&gt;Node1 -->
<g id="edge46" class="edge">
<title>Node24&#45;&gt;Node1</title>
<path fill="none" stroke="#9a32cd" stroke-dasharray="5,2" d="M250.73,-299.78C284.67,-291.49 335.19,-280.48 380,-276 491.36,-264.88 546.39,-222.76 631,-296 679.36,-337.86 682.65,-424.17 682.31,-453.21"/>
<polygon fill="#9a32cd" stroke="#9a32cd" points="249.62,-296.44 240.76,-302.25 251.3,-303.24 249.62,-296.44"/>
<text text-anchor="middle" x="440.5" y="-279" font-family="Helvetica,sans-Serif" font-size="10.00"> for_stack</text>
</g>
</g>
</svg>
