<?xml version="1.0" encoding="UTF-8" standalone="no"?>
<!DOCTYPE svg PUBLIC "-//W3C//DTD SVG 1.1//EN"
 "http://www.w3.org/Graphics/SVG/1.1/DTD/svg11.dtd">
<!-- Generated by graphviz version 2.43.0 (0)
 -->
<!-- Title: ub_var_string_array Pages: 1 -->
<svg width="296pt" height="173pt"
 viewBox="0.00 0.00 295.50 173.00" xmlns="http://www.w3.org/2000/svg" xmlns:xlink="http://www.w3.org/1999/xlink">
<g id="graph0" class="graph" transform="scale(1 1) rotate(0) translate(4 169)">
<title>ub_var_string_array</title>
<!-- Node1 -->
<g id="node1" class="node">
<title>Node1</title>
<g id="a_node1"><a xlink:title=" ">
<polygon fill="#bfbfbf" stroke="black" points="39.5,-0.5 39.5,-19.5 152.5,-19.5 152.5,-0.5 39.5,-0.5"/>
<text text-anchor="middle" x="96" y="-7.5" font-family="Helvetica,sans-Serif" font-size="10.00">ub_var_string_array</text>
</a>
</g>
</g>
<!-- Node2 -->
<g id="node2" class="node">
<title>Node2</title>
<g id="a_node2"><a xlink:title=" ">
<polygon fill="none" stroke="#bfbfbf" points="0,-67.5 0,-86.5 56,-86.5 56,-67.5 0,-67.5"/>
<text text-anchor="middle" x="28" y="-74.5" font-family="Helvetica,sans-Serif" font-size="10.00">uint64_t</text>
</a>
</g>
</g>
<!-- Node2&#45;&gt;Node1 -->
<g id="edge1" class="edge">
<title>Node2&#45;&gt;Node1</title>
<path fill="none" stroke="#9a32cd" stroke-dasharray="5,2" d="M24.48,-57.14C24.24,-50.58 25.19,-43.49 29,-38 34.94,-29.45 44.07,-23.61 53.7,-19.61"/>
<polygon fill="#9a32cd" stroke="#9a32cd" points="21.03,-57.82 25.71,-67.32 27.98,-56.97 21.03,-57.82"/>
<text text-anchor="middle" x="55.5" y="-41" font-family="Helvetica,sans-Serif" font-size="10.00"> itemcount</text>
</g>
<!-- Node3 -->
<g id="node3" class="node">
<title>Node3</title>
<g id="a_node3"><a xlink:title=" ">
<polygon fill="none" stroke="#bfbfbf" points="94,-145.5 94,-164.5 132,-164.5 132,-145.5 94,-145.5"/>
<text text-anchor="middle" x="113" y="-152.5" font-family="Helvetica,sans-Serif" font-size="10.00">char</text>
</a>
</g>
</g>
<!-- Node3&#45;&gt;Node1 -->
<g id="edge2" class="edge">
<title>Node3&#45;&gt;Node1</title>
<path fill="none" stroke="#9a32cd" stroke-dasharray="5,2" d="M110.73,-135C109.12,-121.59 106.93,-103.19 105,-87 102.11,-62.72 98.73,-34.08 97.05,-19.89"/>
<polygon fill="#9a32cd" stroke="#9a32cd" points="107.3,-135.81 111.96,-145.33 114.25,-134.98 107.3,-135.81"/>
<text text-anchor="middle" x="128.5" y="-74.5" font-family="Helvetica,sans-Serif" font-size="10.00"> varname</text>
</g>
<!-- Node4 -->
<g id="node4" class="node">
<title>Node4</title>
<g id="a_node4"><a xlink:href="structub__var__string.html" target="_top" xlink:title=" ">
<polygon fill="none" stroke="black" points="161.5,-67.5 161.5,-86.5 244.5,-86.5 244.5,-67.5 161.5,-67.5"/>
<text text-anchor="middle" x="203" y="-74.5" font-family="Helvetica,sans-Serif" font-size="10.00">ub_var_string</text>
</a>
</g>
</g>
<!-- Node3&#45;&gt;Node4 -->
<g id="edge4" class="edge">
<title>Node3&#45;&gt;Node4</title>
<path fill="none" stroke="#9a32cd" stroke-dasharray="5,2" d="M125.06,-137.13C132.84,-127.02 143.61,-114.35 155,-105 163.87,-97.72 174.97,-91.33 184.26,-86.6"/>
<polygon fill="#9a32cd" stroke="#9a32cd" points="122.21,-135.1 119.05,-145.22 127.83,-139.28 122.21,-135.1"/>
<text text-anchor="middle" x="177" y="-119" font-family="Helvetica,sans-Serif" font-size="10.00"> value</text>
<text text-anchor="middle" x="177" y="-108" font-family="Helvetica,sans-Serif" font-size="10.00">varname</text>
</g>
<!-- Node4&#45;&gt;Node1 -->
<g id="edge3" class="edge">
<title>Node4&#45;&gt;Node1</title>
<path fill="none" stroke="#9a32cd" stroke-dasharray="5,2" d="M179.86,-61.94C158.67,-49.07 127.98,-30.43 110.2,-19.63"/>
<polygon fill="#9a32cd" stroke="#9a32cd" points="178.21,-65.03 188.57,-67.23 181.84,-59.05 178.21,-65.03"/>
<text text-anchor="middle" x="174" y="-41" font-family="Helvetica,sans-Serif" font-size="10.00"> values</text>
</g>
<!-- Node4&#45;&gt;Node4 -->
<g id="edge6" class="edge">
<title>Node4&#45;&gt;Node4</title>
<path fill="none" stroke="#9a32cd" stroke-dasharray="5,2" d="M254.82,-81.77C259.53,-80.78 262.5,-79.19 262.5,-77 262.5,-73.5 254.91,-71.53 244.71,-71.09"/>
<polygon fill="#9a32cd" stroke="#9a32cd" points="254.25,-78.31 244.71,-82.91 255.03,-85.27 254.25,-78.31"/>
<text text-anchor="middle" x="275" y="-74.5" font-family="Helvetica,sans-Serif" font-size="10.00"> next</text>
</g>
<!-- Node5 -->
<g id="node5" class="node">
<title>Node5</title>
<g id="a_node5"><a xlink:title=" ">
<polygon fill="none" stroke="#bfbfbf" points="184,-145.5 184,-164.5 222,-164.5 222,-145.5 184,-145.5"/>
<text text-anchor="middle" x="203" y="-152.5" font-family="Helvetica,sans-Serif" font-size="10.00">bool</text>
</a>
</g>
</g>
<!-- Node5&#45;&gt;Node4 -->
<g id="edge5" class="edge">
<title>Node5&#45;&gt;Node4</title>
<path fill="none" stroke="#9a32cd" stroke-dasharray="5,2" d="M203,-135.22C203,-119.7 203,-98.36 203,-86.62"/>
<polygon fill="#9a32cd" stroke="#9a32cd" points="199.5,-135.28 203,-145.28 206.5,-135.28 199.5,-135.28"/>
<text text-anchor="middle" x="220" y="-113.5" font-family="Helvetica,sans-Serif" font-size="10.00"> global</text>
</g>
</g>
</svg>
