<?xml version="1.0" encoding="UTF-8" standalone="no"?>
<!DOCTYPE svg PUBLIC "-//W3C//DTD SVG 1.1//EN"
 "http://www.w3.org/Graphics/SVG/1.1/DTD/svg11.dtd">
<!-- Generated by graphviz version 2.43.0 (0)
 -->
<!-- Title: storage_device_t Pages: 1 -->
<svg width="349pt" height="106pt"
 viewBox="0.00 0.00 349.00 106.00" xmlns="http://www.w3.org/2000/svg" xmlns:xlink="http://www.w3.org/1999/xlink">
<g id="graph0" class="graph" transform="scale(1 1) rotate(0) translate(4 102)">
<title>storage_device_t</title>
<!-- Node1 -->
<g id="node1" class="node">
<title>Node1</title>
<g id="a_node1"><a xlink:title="Represents a block storage device e.g. a hard disk, DVD&#45;ROM drive, etc.">
<polygon fill="#bfbfbf" stroke="black" points="103,-0.5 103,-19.5 203,-19.5 203,-0.5 103,-0.5"/>
<text text-anchor="middle" x="153" y="-7.5" font-family="Helvetica,sans-Serif" font-size="10.00">storage_device_t</text>
</a>
</g>
</g>
<!-- Node1&#45;&gt;Node1 -->
<g id="edge6" class="edge">
<title>Node1&#45;&gt;Node1</title>
<path fill="none" stroke="#9a32cd" stroke-dasharray="5,2" d="M213.35,-15.4C218.08,-14.21 221,-12.41 221,-10 221,-6.14 213.52,-3.85 203.11,-3.13"/>
<polygon fill="#9a32cd" stroke="#9a32cd" points="212.51,-11.98 203.11,-16.87 213.51,-18.91 212.51,-11.98"/>
<text text-anchor="middle" x="233.5" y="-7.5" font-family="Helvetica,sans-Serif" font-size="10.00"> next</text>
</g>
<!-- Node2 -->
<g id="node2" class="node">
<title>Node2</title>
<g id="a_node2"><a xlink:title=" ">
<polygon fill="none" stroke="black" points="0,-78.5 0,-97.5 38,-97.5 38,-78.5 0,-78.5"/>
<text text-anchor="middle" x="19" y="-85.5" font-family="Helvetica,sans-Serif" font-size="10.00">char</text>
</a>
</g>
</g>
<!-- Node2&#45;&gt;Node1 -->
<g id="edge1" class="edge">
<title>Node2&#45;&gt;Node1</title>
<path fill="none" stroke="#9a32cd" stroke-dasharray="5,2" d="M28.27,-69.51C34.72,-58.94 44.26,-45.99 56,-38 69.87,-28.56 86.98,-22.4 102.95,-18.39"/>
<polygon fill="#9a32cd" stroke="#9a32cd" points="25.14,-67.93 23.24,-78.35 31.23,-71.39 25.14,-67.93"/>
<text text-anchor="middle" x="71.5" y="-46.5" font-family="Helvetica,sans-Serif" font-size="10.00"> name</text>
</g>
<!-- Node3 -->
<g id="node3" class="node">
<title>Node3</title>
<g id="a_node3"><a xlink:title=" ">
<polygon fill="none" stroke="black" points="56,-78.5 56,-97.5 112,-97.5 112,-78.5 56,-78.5"/>
<text text-anchor="middle" x="84" y="-85.5" font-family="Helvetica,sans-Serif" font-size="10.00">uint64_t</text>
</a>
</g>
</g>
<!-- Node3&#45;&gt;Node1 -->
<g id="edge2" class="edge">
<title>Node3&#45;&gt;Node1</title>
<path fill="none" stroke="#9a32cd" stroke-dasharray="5,2" d="M87.82,-68.67C90.65,-58.69 95.38,-46.64 103,-38 110.11,-29.94 120.23,-23.84 129.51,-19.51"/>
<polygon fill="#9a32cd" stroke="#9a32cd" points="84.41,-67.89 85.44,-78.44 91.21,-69.55 84.41,-67.89"/>
<text text-anchor="middle" x="126" y="-52" font-family="Helvetica,sans-Serif" font-size="10.00"> opaque1</text>
<text text-anchor="middle" x="126" y="-41" font-family="Helvetica,sans-Serif" font-size="10.00">size</text>
</g>
<!-- Node4 -->
<g id="node4" class="node">
<title>Node4</title>
<g id="a_node4"><a xlink:title=" ">
<polygon fill="none" stroke="black" points="138.5,-78.5 138.5,-97.5 167.5,-97.5 167.5,-78.5 138.5,-78.5"/>
<text text-anchor="middle" x="153" y="-85.5" font-family="Helvetica,sans-Serif" font-size="10.00">int</text>
</a>
</g>
</g>
<!-- Node4&#45;&gt;Node1 -->
<g id="edge3" class="edge">
<title>Node4&#45;&gt;Node1</title>
<path fill="none" stroke="#9a32cd" stroke-dasharray="5,2" d="M153,-68.22C153,-52.7 153,-31.36 153,-19.62"/>
<polygon fill="#9a32cd" stroke="#9a32cd" points="149.5,-68.28 153,-78.28 156.5,-68.28 149.5,-68.28"/>
<text text-anchor="middle" x="179" y="-52" font-family="Helvetica,sans-Serif" font-size="10.00"> blockread</text>
<text text-anchor="middle" x="179" y="-41" font-family="Helvetica,sans-Serif" font-size="10.00">blockwrite</text>
</g>
<!-- Node5 -->
<g id="node5" class="node">
<title>Node5</title>
<g id="a_node5"><a xlink:title=" ">
<polygon fill="none" stroke="black" points="200,-78.5 200,-97.5 256,-97.5 256,-78.5 200,-78.5"/>
<text text-anchor="middle" x="228" y="-85.5" font-family="Helvetica,sans-Serif" font-size="10.00">uint32_t</text>
</a>
</g>
</g>
<!-- Node5&#45;&gt;Node1 -->
<g id="edge4" class="edge">
<title>Node5&#45;&gt;Node1</title>
<path fill="none" stroke="#9a32cd" stroke-dasharray="5,2" d="M223.04,-68.58C219.58,-58.57 214.12,-46.53 206,-38 198.31,-29.92 187.68,-23.85 177.95,-19.54"/>
<polygon fill="#9a32cd" stroke="#9a32cd" points="219.76,-69.84 226.02,-78.39 226.46,-67.8 219.76,-69.84"/>
<text text-anchor="middle" x="246.5" y="-46.5" font-family="Helvetica,sans-Serif" font-size="10.00"> block_size</text>
</g>
<!-- Node6 -->
<g id="node6" class="node">
<title>Node6</title>
<g id="a_node6"><a xlink:title=" ">
<polygon fill="none" stroke="black" points="283,-78.5 283,-97.5 329,-97.5 329,-78.5 283,-78.5"/>
<text text-anchor="middle" x="306" y="-85.5" font-family="Helvetica,sans-Serif" font-size="10.00">void *</text>
</a>
</g>
</g>
<!-- Node6&#45;&gt;Node1 -->
<g id="edge5" class="edge">
<title>Node6&#45;&gt;Node1</title>
<path fill="none" stroke="#9a32cd" stroke-dasharray="5,2" d="M299.85,-68.67C295.39,-58.14 288.32,-45.56 278,-38 256.51,-22.26 227.7,-15.34 203.15,-12.43"/>
<polygon fill="#9a32cd" stroke="#9a32cd" points="296.65,-70.12 303.46,-78.24 303.2,-67.65 296.65,-70.12"/>
<text text-anchor="middle" x="318" y="-46.5" font-family="Helvetica,sans-Serif" font-size="10.00"> opaque2</text>
</g>
</g>
</svg>
