<?xml version="1.0" encoding="UTF-8" standalone="no"?>
<!DOCTYPE svg PUBLIC "-//W3C//DTD SVG 1.1//EN"
 "http://www.w3.org/Graphics/SVG/1.1/DTD/svg11.dtd">
<!-- Generated by graphviz version 2.43.0 (0)
 -->
<!-- Title: achi_hba_fis_t Pages: 1 -->
<svg width="448pt" height="718pt"
 viewBox="0.00 0.00 448.00 718.00" xmlns="http://www.w3.org/2000/svg" xmlns:xlink="http://www.w3.org/1999/xlink">
<g id="graph0" class="graph" transform="scale(1 1) rotate(0) translate(4 714)">
<title>achi_hba_fis_t</title>
<!-- Node1 -->
<g id="node1" class="node">
<title>Node1</title>
<g id="a_node1"><a xlink:title=" ">
<polygon fill="#bfbfbf" stroke="black" points="354,-383.5 354,-402.5 440,-402.5 440,-383.5 354,-383.5"/>
<text text-anchor="middle" x="397" y="-390.5" font-family="Helvetica,sans-Serif" font-size="10.00">achi_hba_fis_t</text>
</a>
</g>
</g>
<!-- Node2 -->
<g id="node2" class="node">
<title>Node2</title>
<g id="a_node2"><a xlink:href="structahci__fis__dev__bits__t.html" target="_top" xlink:title=" ">
<polygon fill="none" stroke="black" points="170.5,-602.5 170.5,-621.5 279.5,-621.5 279.5,-602.5 170.5,-602.5"/>
<text text-anchor="middle" x="225" y="-609.5" font-family="Helvetica,sans-Serif" font-size="10.00">ahci_fis_dev_bits_t</text>
</a>
</g>
</g>
<!-- Node2&#45;&gt;Node1 -->
<g id="edge1" class="edge">
<title>Node2&#45;&gt;Node1</title>
<path fill="none" stroke="#9a32cd" stroke-dasharray="5,2" d="M265.27,-598.62C272.39,-595.55 279.58,-591.99 286,-588 311.38,-572.2 318.89,-567.52 336,-543 369.06,-495.62 387.77,-427.36 393.81,-402.51"/>
<polygon fill="#9a32cd" stroke="#9a32cd" points="263.64,-595.5 255.69,-602.5 266.27,-601.99 263.64,-595.5"/>
<text text-anchor="middle" x="320" y="-578" font-family="Helvetica,sans-Serif" font-size="10.00"> sdbfis</text>
</g>
<!-- Node3 -->
<g id="node3" class="node">
<title>Node3</title>
<g id="a_node3"><a xlink:title=" ">
<polygon fill="none" stroke="#bfbfbf" points="3,-383.5 3,-402.5 53,-402.5 53,-383.5 3,-383.5"/>
<text text-anchor="middle" x="28" y="-390.5" font-family="Helvetica,sans-Serif" font-size="10.00">uint8_t</text>
</a>
</g>
</g>
<!-- Node3&#45;&gt;Node1 -->
<g id="edge9" class="edge">
<title>Node3&#45;&gt;Node1</title>
<path fill="none" stroke="#9a32cd" stroke-dasharray="5,2" d="M29.76,-413.06C32.03,-441.29 40.79,-491.85 74,-515 100.25,-533.3 114.82,-522.2 146,-515 242.94,-492.61 345.75,-427.26 382.21,-402.58"/>
<polygon fill="#9a32cd" stroke="#9a32cd" points="33.23,-412.57 29.14,-402.8 26.24,-412.99 33.23,-412.57"/>
<text text-anchor="middle" x="225" y="-556" font-family="Helvetica,sans-Serif" font-size="10.00"> pad0</text>
<text text-anchor="middle" x="225" y="-545" font-family="Helvetica,sans-Serif" font-size="10.00">pad1</text>
<text text-anchor="middle" x="225" y="-534" font-family="Helvetica,sans-Serif" font-size="10.00">pad2</text>
<text text-anchor="middle" x="225" y="-523" font-family="Helvetica,sans-Serif" font-size="10.00">rsv</text>
<text text-anchor="middle" x="225" y="-512" font-family="Helvetica,sans-Serif" font-size="10.00">ufis</text>
</g>
<!-- Node3&#45;&gt;Node2 -->
<g id="edge2" class="edge">
<title>Node3&#45;&gt;Node2</title>
<path fill="none" stroke="#9a32cd" stroke-dasharray="5,2" d="M30.02,-412.65C32.6,-443.74 41.74,-504.64 74,-543 100.94,-575.03 145.94,-592.97 179.64,-602.47"/>
<polygon fill="#9a32cd" stroke="#9a32cd" points="33.51,-412.39 29.33,-402.65 26.53,-412.86 33.51,-412.39"/>
<text text-anchor="middle" x="110" y="-702" font-family="Helvetica,sans-Serif" font-size="10.00"> error</text>
<text text-anchor="middle" x="110" y="-691" font-family="Helvetica,sans-Serif" font-size="10.00">fis_type</text>
<text text-anchor="middle" x="110" y="-680" font-family="Helvetica,sans-Serif" font-size="10.00">i</text>
<text text-anchor="middle" x="110" y="-669" font-family="Helvetica,sans-Serif" font-size="10.00">n</text>
<text text-anchor="middle" x="110" y="-658" font-family="Helvetica,sans-Serif" font-size="10.00">pmport</text>
<text text-anchor="middle" x="110" y="-647" font-family="Helvetica,sans-Serif" font-size="10.00">rsvd</text>
<text text-anchor="middle" x="110" y="-636" font-family="Helvetica,sans-Serif" font-size="10.00">rsvd2</text>
<text text-anchor="middle" x="110" y="-625" font-family="Helvetica,sans-Serif" font-size="10.00">rsvd3</text>
<text text-anchor="middle" x="110" y="-614" font-family="Helvetica,sans-Serif" font-size="10.00">statush</text>
<text text-anchor="middle" x="110" y="-603" font-family="Helvetica,sans-Serif" font-size="10.00">statusl</text>
<text text-anchor="middle" x="110" y="-592" font-family="Helvetica,sans-Serif" font-size="10.00">...</text>
</g>
<!-- Node4 -->
<g id="node4" class="node">
<title>Node4</title>
<g id="a_node4"><a xlink:href="structahci__fis__reg__d2h__t.html" target="_top" xlink:title=" ">
<polygon fill="none" stroke="black" points="171.5,-383.5 171.5,-402.5 278.5,-402.5 278.5,-383.5 171.5,-383.5"/>
<text text-anchor="middle" x="225" y="-390.5" font-family="Helvetica,sans-Serif" font-size="10.00">ahci_fis_reg_d2h_t</text>
</a>
</g>
</g>
<!-- Node3&#45;&gt;Node4 -->
<g id="edge4" class="edge">
<title>Node3&#45;&gt;Node4</title>
<path fill="none" stroke="#9a32cd" stroke-dasharray="5,2" d="M63.66,-393C93.57,-393 137.24,-393 171.45,-393"/>
<polygon fill="#9a32cd" stroke="#9a32cd" points="63.3,-389.5 53.3,-393 63.3,-396.5 63.3,-389.5"/>
<text text-anchor="middle" x="110" y="-506" font-family="Helvetica,sans-Serif" font-size="10.00"> counth</text>
<text text-anchor="middle" x="110" y="-495" font-family="Helvetica,sans-Serif" font-size="10.00">countl</text>
<text text-anchor="middle" x="110" y="-484" font-family="Helvetica,sans-Serif" font-size="10.00">device</text>
<text text-anchor="middle" x="110" y="-473" font-family="Helvetica,sans-Serif" font-size="10.00">error</text>
<text text-anchor="middle" x="110" y="-462" font-family="Helvetica,sans-Serif" font-size="10.00">fis_type</text>
<text text-anchor="middle" x="110" y="-451" font-family="Helvetica,sans-Serif" font-size="10.00">i</text>
<text text-anchor="middle" x="110" y="-440" font-family="Helvetica,sans-Serif" font-size="10.00">lba0</text>
<text text-anchor="middle" x="110" y="-429" font-family="Helvetica,sans-Serif" font-size="10.00">lba1</text>
<text text-anchor="middle" x="110" y="-418" font-family="Helvetica,sans-Serif" font-size="10.00">lba2</text>
<text text-anchor="middle" x="110" y="-407" font-family="Helvetica,sans-Serif" font-size="10.00">lba3</text>
<text text-anchor="middle" x="110" y="-396" font-family="Helvetica,sans-Serif" font-size="10.00">...</text>
</g>
<!-- Node5 -->
<g id="node5" class="node">
<title>Node5</title>
<g id="a_node5"><a xlink:href="structahci__fis__dma__setup__t.html" target="_top" xlink:title=" ">
<polygon fill="none" stroke="black" points="164,-230.5 164,-249.5 286,-249.5 286,-230.5 164,-230.5"/>
<text text-anchor="middle" x="225" y="-237.5" font-family="Helvetica,sans-Serif" font-size="10.00">ahci_fis_dma_setup_t</text>
</a>
</g>
</g>
<!-- Node3&#45;&gt;Node5 -->
<g id="edge8" class="edge">
<title>Node3&#45;&gt;Node5</title>
<path fill="none" stroke="#9a32cd" stroke-dasharray="5,2" d="M35.72,-373.85C42.83,-355.91 55.6,-329.34 74,-312 93.34,-293.78 162.37,-264.55 199.67,-249.56"/>
<polygon fill="#9a32cd" stroke="#9a32cd" points="32.41,-372.69 32.18,-383.28 38.97,-375.15 32.41,-372.69"/>
<text text-anchor="middle" x="110" y="-381" font-family="Helvetica,sans-Serif" font-size="10.00"> a</text>
<text text-anchor="middle" x="110" y="-370" font-family="Helvetica,sans-Serif" font-size="10.00">d</text>
<text text-anchor="middle" x="110" y="-359" font-family="Helvetica,sans-Serif" font-size="10.00">fis_type</text>
<text text-anchor="middle" x="110" y="-348" font-family="Helvetica,sans-Serif" font-size="10.00">i</text>
<text text-anchor="middle" x="110" y="-337" font-family="Helvetica,sans-Serif" font-size="10.00">pmport</text>
<text text-anchor="middle" x="110" y="-326" font-family="Helvetica,sans-Serif" font-size="10.00">rsv0</text>
<text text-anchor="middle" x="110" y="-315" font-family="Helvetica,sans-Serif" font-size="10.00">rsved</text>
</g>
<!-- Node8 -->
<g id="node8" class="node">
<title>Node8</title>
<g id="a_node8"><a xlink:href="structahci__fis__pio__setup__t.html" target="_top" xlink:title=" ">
<polygon fill="none" stroke="black" points="167.5,-139.5 167.5,-158.5 282.5,-158.5 282.5,-139.5 167.5,-139.5"/>
<text text-anchor="middle" x="225" y="-146.5" font-family="Helvetica,sans-Serif" font-size="10.00">ahci_fis_pio_setup_t</text>
</a>
</g>
</g>
<!-- Node3&#45;&gt;Node8 -->
<g id="edge12" class="edge">
<title>Node3&#45;&gt;Node8</title>
<path fill="none" stroke="#9a32cd" stroke-dasharray="5,2" d="M29.51,-373.24C31.35,-320.2 39.48,-176.75 74,-148 108.42,-119.33 164.3,-129.64 197.26,-139.49"/>
<polygon fill="#9a32cd" stroke="#9a32cd" points="26.01,-373.27 29.2,-383.37 33.01,-373.49 26.01,-373.27"/>
<text text-anchor="middle" x="110" y="-261" font-family="Helvetica,sans-Serif" font-size="10.00"> counth</text>
<text text-anchor="middle" x="110" y="-250" font-family="Helvetica,sans-Serif" font-size="10.00">countl</text>
<text text-anchor="middle" x="110" y="-239" font-family="Helvetica,sans-Serif" font-size="10.00">d</text>
<text text-anchor="middle" x="110" y="-228" font-family="Helvetica,sans-Serif" font-size="10.00">device</text>
<text text-anchor="middle" x="110" y="-217" font-family="Helvetica,sans-Serif" font-size="10.00">e_status</text>
<text text-anchor="middle" x="110" y="-206" font-family="Helvetica,sans-Serif" font-size="10.00">error</text>
<text text-anchor="middle" x="110" y="-195" font-family="Helvetica,sans-Serif" font-size="10.00">fis_type</text>
<text text-anchor="middle" x="110" y="-184" font-family="Helvetica,sans-Serif" font-size="10.00">i</text>
<text text-anchor="middle" x="110" y="-173" font-family="Helvetica,sans-Serif" font-size="10.00">lba0</text>
<text text-anchor="middle" x="110" y="-162" font-family="Helvetica,sans-Serif" font-size="10.00">lba1</text>
<text text-anchor="middle" x="110" y="-151" font-family="Helvetica,sans-Serif" font-size="10.00">...</text>
</g>
<!-- Node4&#45;&gt;Node1 -->
<g id="edge3" class="edge">
<title>Node4&#45;&gt;Node1</title>
<path fill="none" stroke="#9a32cd" stroke-dasharray="5,2" d="M288.98,-393C310.65,-393 334.37,-393 353.96,-393"/>
<polygon fill="#9a32cd" stroke="#9a32cd" points="288.86,-389.5 278.86,-393 288.86,-396.5 288.86,-389.5"/>
<text text-anchor="middle" x="320" y="-396" font-family="Helvetica,sans-Serif" font-size="10.00"> rfis</text>
</g>
<!-- Node5&#45;&gt;Node1 -->
<g id="edge5" class="edge">
<title>Node5&#45;&gt;Node1</title>
<path fill="none" stroke="#9a32cd" stroke-dasharray="5,2" d="M244.33,-256.5C279.86,-288.48 357.11,-358 385.37,-383.43"/>
<polygon fill="#9a32cd" stroke="#9a32cd" points="246.41,-253.66 236.63,-249.57 241.73,-258.86 246.41,-253.66"/>
<text text-anchor="middle" x="320" y="-337" font-family="Helvetica,sans-Serif" font-size="10.00"> dsfis</text>
</g>
<!-- Node6 -->
<g id="node6" class="node">
<title>Node6</title>
<g id="a_node6"><a xlink:title=" ">
<polygon fill="none" stroke="#bfbfbf" points="0,-105.5 0,-124.5 56,-124.5 56,-105.5 0,-105.5"/>
<text text-anchor="middle" x="28" y="-112.5" font-family="Helvetica,sans-Serif" font-size="10.00">uint64_t</text>
</a>
</g>
</g>
<!-- Node6&#45;&gt;Node5 -->
<g id="edge6" class="edge">
<title>Node6&#45;&gt;Node5</title>
<path fill="none" stroke="#9a32cd" stroke-dasharray="5,2" d="M66.15,-105.01C91.02,-100.63 123.24,-99.64 146,-116 165.86,-130.27 151.98,-146.7 164,-168 177.92,-192.65 200.64,-217.06 213.76,-230.16"/>
<polygon fill="#9a32cd" stroke="#9a32cd" points="65.46,-101.58 56.34,-106.98 66.83,-108.45 65.46,-101.58"/>
<text text-anchor="middle" x="110" y="-119" font-family="Helvetica,sans-Serif" font-size="10.00"> DMAbufferID</text>
</g>
<!-- Node7 -->
<g id="node7" class="node">
<title>Node7</title>
<g id="a_node7"><a xlink:title=" ">
<polygon fill="none" stroke="#bfbfbf" points="0,-38.5 0,-57.5 56,-57.5 56,-38.5 0,-38.5"/>
<text text-anchor="middle" x="28" y="-45.5" font-family="Helvetica,sans-Serif" font-size="10.00">uint32_t</text>
</a>
</g>
</g>
<!-- Node7&#45;&gt;Node5 -->
<g id="edge7" class="edge">
<title>Node7&#45;&gt;Node5</title>
<path fill="none" stroke="#9a32cd" stroke-dasharray="5,2" d="M66.4,-38.83C91.95,-34.94 124.87,-34.99 146,-54 184.13,-88.31 142.82,-121.28 164,-168 175.56,-193.49 198.67,-217.23 212.59,-230.06"/>
<polygon fill="#9a32cd" stroke="#9a32cd" points="65.54,-35.42 56.31,-40.61 66.77,-42.32 65.54,-35.42"/>
<text text-anchor="middle" x="110" y="-90" font-family="Helvetica,sans-Serif" font-size="10.00"> DMAbufOffset</text>
<text text-anchor="middle" x="110" y="-79" font-family="Helvetica,sans-Serif" font-size="10.00">TransferCount</text>
<text text-anchor="middle" x="110" y="-68" font-family="Helvetica,sans-Serif" font-size="10.00">resvd</text>
<text text-anchor="middle" x="110" y="-57" font-family="Helvetica,sans-Serif" font-size="10.00">rsvd</text>
</g>
<!-- Node8&#45;&gt;Node1 -->
<g id="edge10" class="edge">
<title>Node8&#45;&gt;Node1</title>
<path fill="none" stroke="#9a32cd" stroke-dasharray="5,2" d="M241.13,-166.1C253.6,-180.43 271.51,-201.6 286,-221 330.11,-280.08 375.16,-356.7 390.5,-383.36"/>
<polygon fill="#9a32cd" stroke="#9a32cd" points="243.71,-163.73 234.49,-158.52 238.45,-168.34 243.71,-163.73"/>
<text text-anchor="middle" x="320" y="-293" font-family="Helvetica,sans-Serif" font-size="10.00"> psfis</text>
</g>
<!-- Node9 -->
<g id="node9" class="node">
<title>Node9</title>
<g id="a_node9"><a xlink:title=" ">
<polygon fill="none" stroke="#bfbfbf" points="0,-0.5 0,-19.5 56,-19.5 56,-0.5 0,-0.5"/>
<text text-anchor="middle" x="28" y="-7.5" font-family="Helvetica,sans-Serif" font-size="10.00">uint16_t</text>
</a>
</g>
</g>
<!-- Node9&#45;&gt;Node8 -->
<g id="edge11" class="edge">
<title>Node9&#45;&gt;Node8</title>
<path fill="none" stroke="#9a32cd" stroke-dasharray="5,2" d="M66.15,-2.87C90.56,-0.19 122.24,-0.66 146,-15 193.7,-43.8 215.26,-113.64 221.76,-139.32"/>
<polygon fill="#9a32cd" stroke="#9a32cd" points="65.64,0.59 56.18,-4.19 66.55,-6.35 65.64,0.59"/>
<text text-anchor="middle" x="110" y="-18" font-family="Helvetica,sans-Serif" font-size="10.00"> tc</text>
</g>
</g>
</svg>
