<?xml version="1.0" encoding="UTF-8" standalone="no"?>
<!DOCTYPE svg PUBLIC "-//W3C//DTD SVG 1.1//EN"
 "http://www.w3.org/Graphics/SVG/1.1/DTD/svg11.dtd">
<!-- Generated by graphviz version 2.43.0 (0)
 -->
<!-- Title: basic_double_fn Pages: 1 -->
<svg width="794pt" height="1286pt"
 viewBox="0.00 0.00 794.00 1285.51" xmlns="http://www.w3.org/2000/svg" xmlns:xlink="http://www.w3.org/1999/xlink">
<g id="graph0" class="graph" transform="scale(1 1) rotate(0) translate(4 1281.51)">
<title>basic_double_fn</title>
<!-- Node1 -->
<g id="node1" class="node">
<title>Node1</title>
<g id="a_node1"><a xlink:title="Builtin real (double) function.">
<polygon fill="#bfbfbf" stroke="black" points="691,-957.01 691,-976.01 786,-976.01 786,-957.01 691,-957.01"/>
<text text-anchor="middle" x="738.5" y="-964.01" font-family="Helvetica,sans-Serif" font-size="10.00">basic_double_fn</text>
</a>
</g>
</g>
<!-- Node2 -->
<g id="node2" class="node">
<title>Node2</title>
<g id="a_node2"><a xlink:href="structbasic__ctx.html" target="_top" xlink:title="BASIC program context. Every instance of a BASIC program has one of these,* also certain structures s...">
<polygon fill="none" stroke="black" points="553,-624.01 553,-643.01 615,-643.01 615,-624.01 553,-624.01"/>
<text text-anchor="middle" x="584" y="-631.01" font-family="Helvetica,sans-Serif" font-size="10.00">basic_ctx</text>
</a>
</g>
</g>
<!-- Node2&#45;&gt;Node1 -->
<g id="edge1" class="edge">
<title>Node2&#45;&gt;Node1</title>
<path fill="none" stroke="#9a32cd" stroke-dasharray="5,2" d="M593.7,-652.52C622.2,-714.75 712.08,-911.02 733.08,-956.87"/>
<polygon fill="#9a32cd" stroke="#9a32cd" points="596.75,-650.75 589.4,-643.12 590.38,-653.67 596.75,-650.75"/>
<text text-anchor="middle" x="653" y="-822.51" font-family="Helvetica,sans-Serif" font-size="10.00"> handler</text>
</g>
<!-- Node3 -->
<g id="node3" class="node">
<title>Node3</title>
<g id="a_node3"><a xlink:title=" ">
<polygon fill="none" stroke="black" points="0,-768.01 0,-787.01 38,-787.01 38,-768.01 0,-768.01"/>
<text text-anchor="middle" x="19" y="-775.01" font-family="Helvetica,sans-Serif" font-size="10.00">char</text>
</a>
</g>
</g>
<!-- Node3&#45;&gt;Node1 -->
<g id="edge58" class="edge">
<title>Node3&#45;&gt;Node1</title>
<path fill="none" stroke="#9a32cd" stroke-dasharray="5,2" d="M20.51,-797.43C23.4,-889.17 41.23,-1266.51 139.5,-1266.51 139.5,-1266.51 139.5,-1266.51 585,-1266.51 718.5,-1266.51 735.18,-1027.5 737.22,-976.16"/>
<polygon fill="#9a32cd" stroke="#9a32cd" points="24.01,-797.18 20.22,-787.28 17.01,-797.38 24.01,-797.18"/>
<text text-anchor="middle" x="339.5" y="-1269.51" font-family="Helvetica,sans-Serif" font-size="10.00"> name</text>
</g>
<!-- Node3&#45;&gt;Node2 -->
<g id="edge2" class="edge">
<title>Node3&#45;&gt;Node2</title>
<path fill="none" stroke="#9a32cd" stroke-dasharray="5,2" d="M21.09,-797.51C24.43,-854.9 35.57,-1019.11 56,-1068.51 69.55,-1101.29 73.13,-1115.93 105,-1131.51 137.3,-1147.31 219.67,-1153.96 399,-1120.51 461.59,-1108.84 494.98,-1125.03 535,-1075.51 563.2,-1040.62 579.77,-704.53 582.57,-643.12"/>
<polygon fill="#9a32cd" stroke="#9a32cd" points="24.57,-797.03 20.51,-787.25 17.58,-797.43 24.57,-797.03"/>
<text text-anchor="middle" x="228" y="-1190.51" font-family="Helvetica,sans-Serif" font-size="10.00"> item_begin</text>
<text text-anchor="middle" x="228" y="-1179.51" font-family="Helvetica,sans-Serif" font-size="10.00">nextptr</text>
<text text-anchor="middle" x="228" y="-1168.51" font-family="Helvetica,sans-Serif" font-size="10.00">program_ptr</text>
<text text-anchor="middle" x="228" y="-1157.51" font-family="Helvetica,sans-Serif" font-size="10.00">ptr</text>
<text text-anchor="middle" x="228" y="-1146.51" font-family="Helvetica,sans-Serif" font-size="10.00">string</text>
</g>
<!-- Node7 -->
<g id="node7" class="node">
<title>Node7</title>
<g id="a_node7"><a xlink:href="structub__var__int.html" target="_top" xlink:title="An integer variable.">
<polygon fill="none" stroke="black" points="305.5,-753.01 305.5,-772.01 373.5,-772.01 373.5,-753.01 305.5,-753.01"/>
<text text-anchor="middle" x="339.5" y="-760.01" font-family="Helvetica,sans-Serif" font-size="10.00">ub_var_int</text>
</a>
</g>
</g>
<!-- Node3&#45;&gt;Node7 -->
<g id="edge7" class="edge">
<title>Node3&#45;&gt;Node7</title>
<path fill="none" stroke="#9a32cd" stroke-dasharray="5,2" d="M48.3,-773.95C64.81,-772.01 86.05,-769.76 105,-768.51 176.22,-763.84 259.88,-762.75 305.21,-762.53"/>
<polygon fill="#9a32cd" stroke="#9a32cd" points="47.71,-770.49 38.2,-775.16 48.55,-777.44 47.71,-770.49"/>
<text text-anchor="middle" x="140.5" y="-771.51" font-family="Helvetica,sans-Serif" font-size="10.00"> varname</text>
</g>
<!-- Node8 -->
<g id="node8" class="node">
<title>Node8</title>
<g id="a_node8"><a xlink:href="structub__var__string.html" target="_top" xlink:title="A string variable.">
<polygon fill="none" stroke="black" points="298,-459.01 298,-478.01 381,-478.01 381,-459.01 298,-459.01"/>
<text text-anchor="middle" x="339.5" y="-466.01" font-family="Helvetica,sans-Serif" font-size="10.00">ub_var_string</text>
</a>
</g>
</g>
<!-- Node3&#45;&gt;Node8 -->
<g id="edge12" class="edge">
<title>Node3&#45;&gt;Node8</title>
<path fill="none" stroke="#9a32cd" stroke-dasharray="5,2" d="M19.85,-757.65C20.58,-706.16 29.79,-567.15 105,-491.51 155.55,-440.68 246.96,-448.87 299.15,-458.95"/>
<polygon fill="#9a32cd" stroke="#9a32cd" points="16.35,-757.75 19.81,-767.76 23.35,-757.78 16.35,-757.75"/>
<text text-anchor="middle" x="140.5" y="-505.51" font-family="Helvetica,sans-Serif" font-size="10.00"> value</text>
<text text-anchor="middle" x="140.5" y="-494.51" font-family="Helvetica,sans-Serif" font-size="10.00">varname</text>
</g>
<!-- Node9 -->
<g id="node9" class="node">
<title>Node9</title>
<g id="a_node9"><a xlink:href="structub__var__double.html" target="_top" xlink:title="A real (double) variable.">
<polygon fill="none" stroke="black" points="295.5,-325.01 295.5,-344.01 383.5,-344.01 383.5,-325.01 295.5,-325.01"/>
<text text-anchor="middle" x="339.5" y="-332.01" font-family="Helvetica,sans-Serif" font-size="10.00">ub_var_double</text>
</a>
</g>
</g>
<!-- Node3&#45;&gt;Node9 -->
<g id="edge16" class="edge">
<title>Node3&#45;&gt;Node9</title>
<path fill="none" stroke="#9a32cd" stroke-dasharray="5,2" d="M20.47,-757.48C22.77,-679.22 35.86,-396.16 105,-349.51 161.74,-311.23 244.95,-316.84 295.2,-325.16"/>
<polygon fill="#9a32cd" stroke="#9a32cd" points="16.96,-757.76 20.19,-767.85 23.95,-757.95 16.96,-757.76"/>
<text text-anchor="middle" x="140.5" y="-352.51" font-family="Helvetica,sans-Serif" font-size="10.00"> varname</text>
</g>
<!-- Node13 -->
<g id="node13" class="node">
<title>Node13</title>
<g id="a_node13"><a xlink:href="structfor__state.html" target="_top" xlink:title="State for a FOR...NEXT loop.">
<polygon fill="none" stroke="black" points="309.5,-956.01 309.5,-975.01 369.5,-975.01 369.5,-956.01 309.5,-956.01"/>
<text text-anchor="middle" x="339.5" y="-963.01" font-family="Helvetica,sans-Serif" font-size="10.00">for_state</text>
</a>
</g>
</g>
<!-- Node3&#45;&gt;Node13 -->
<g id="edge24" class="edge">
<title>Node3&#45;&gt;Node13</title>
<path fill="none" stroke="#9a32cd" stroke-dasharray="5,2" d="M29.01,-796.5C50.44,-838.93 109.03,-940.34 194,-973.51 231.8,-988.27 279.41,-981.23 309.42,-974.01"/>
<polygon fill="#9a32cd" stroke="#9a32cd" points="32.03,-794.7 24.48,-787.27 25.75,-797.79 32.03,-794.7"/>
<text text-anchor="middle" x="140.5" y="-966.51" font-family="Helvetica,sans-Serif" font-size="10.00"> for_variable</text>
</g>
<!-- Node14 -->
<g id="node14" class="node">
<title>Node14</title>
<g id="a_node14"><a xlink:href="structub__proc__fn__def.html" target="_top" xlink:title="Procedure or function definition Each has a name, a type, a starting line and a parameter list.">
<polygon fill="none" stroke="black" points="294,-1003.01 294,-1022.01 385,-1022.01 385,-1003.01 294,-1003.01"/>
<text text-anchor="middle" x="339.5" y="-1010.01" font-family="Helvetica,sans-Serif" font-size="10.00">ub_proc_fn_def</text>
</a>
</g>
</g>
<!-- Node3&#45;&gt;Node14 -->
<g id="edge26" class="edge">
<title>Node3&#45;&gt;Node14</title>
<path fill="none" stroke="#9a32cd" stroke-dasharray="5,2" d="M21.81,-797.36C26.75,-838.84 44.47,-934.56 105,-978.51 160.52,-1018.83 243.35,-1020.95 293.98,-1017.59"/>
<polygon fill="#9a32cd" stroke="#9a32cd" points="25.26,-796.75 20.73,-787.18 18.3,-797.49 25.26,-796.75"/>
<text text-anchor="middle" x="140.5" y="-1011.51" font-family="Helvetica,sans-Serif" font-size="10.00"> name</text>
</g>
<!-- Node16 -->
<g id="node16" class="node">
<title>Node16</title>
<g id="a_node16"><a xlink:href="structub__param.html" target="_top" xlink:title="FN/PROC parameter.">
<polygon fill="none" stroke="black" points="108,-1074.01 108,-1093.01 173,-1093.01 173,-1074.01 108,-1074.01"/>
<text text-anchor="middle" x="140.5" y="-1081.01" font-family="Helvetica,sans-Serif" font-size="10.00">ub_param</text>
</a>
</g>
</g>
<!-- Node3&#45;&gt;Node16 -->
<g id="edge30" class="edge">
<title>Node3&#45;&gt;Node16</title>
<path fill="none" stroke="#9a32cd" stroke-dasharray="5,2" d="M21.21,-797.3C24.57,-848.11 35.21,-981.83 56,-1020.51 69.58,-1045.79 98.21,-1063.86 118.13,-1074"/>
<polygon fill="#9a32cd" stroke="#9a32cd" points="24.68,-796.78 20.55,-787.03 17.69,-797.23 24.68,-796.78"/>
<text text-anchor="middle" x="71.5" y="-1056.51" font-family="Helvetica,sans-Serif" font-size="10.00"> name</text>
</g>
<!-- Node17 -->
<g id="node17" class="node">
<title>Node17</title>
<g id="a_node17"><a xlink:href="structub__var__int__array.html" target="_top" xlink:title="An array of integers.">
<polygon fill="none" stroke="black" points="290.5,-820.01 290.5,-839.01 388.5,-839.01 388.5,-820.01 290.5,-820.01"/>
<text text-anchor="middle" x="339.5" y="-827.01" font-family="Helvetica,sans-Serif" font-size="10.00">ub_var_int_array</text>
</a>
</g>
</g>
<!-- Node3&#45;&gt;Node17 -->
<g id="edge35" class="edge">
<title>Node3&#45;&gt;Node17</title>
<path fill="none" stroke="#9a32cd" stroke-dasharray="5,2" d="M48.19,-783.41C50.82,-783.83 53.46,-784.21 56,-784.51 101.5,-789.9 219.8,-775.66 262,-793.51 272.13,-797.8 270.54,-804.9 280,-810.51 286.34,-814.27 293.51,-817.39 300.6,-819.93"/>
<polygon fill="#9a32cd" stroke="#9a32cd" points="48.7,-779.94 38.23,-781.6 47.45,-786.83 48.7,-779.94"/>
<text text-anchor="middle" x="140.5" y="-788.51" font-family="Helvetica,sans-Serif" font-size="10.00"> varname</text>
</g>
<!-- Node18 -->
<g id="node18" class="node">
<title>Node18</title>
<g id="a_node18"><a xlink:href="structub__var__string__array.html" target="_top" xlink:title="An array of strings.">
<polygon fill="none" stroke="black" points="283,-686.01 283,-705.01 396,-705.01 396,-686.01 283,-686.01"/>
<text text-anchor="middle" x="339.5" y="-693.01" font-family="Helvetica,sans-Serif" font-size="10.00">ub_var_string_array</text>
</a>
</g>
</g>
<!-- Node3&#45;&gt;Node18 -->
<g id="edge40" class="edge">
<title>Node3&#45;&gt;Node18</title>
<path fill="none" stroke="#9a32cd" stroke-dasharray="5,2" d="M46.01,-763.22C62.47,-754.79 84.44,-744.6 105,-738.51 172.62,-718.49 192.89,-729.56 262,-715.51 276.26,-712.61 291.83,-708.69 305.17,-705.08"/>
<polygon fill="#9a32cd" stroke="#9a32cd" points="44.25,-760.2 37.02,-767.94 47.5,-766.4 44.25,-760.2"/>
<text text-anchor="middle" x="140.5" y="-752.51" font-family="Helvetica,sans-Serif" font-size="10.00"> values</text>
<text text-anchor="middle" x="140.5" y="-741.51" font-family="Helvetica,sans-Serif" font-size="10.00">varname</text>
</g>
<!-- Node19 -->
<g id="node19" class="node">
<title>Node19</title>
<g id="a_node19"><a xlink:href="structub__var__double__array.html" target="_top" xlink:title="An array of real (double)">
<polygon fill="none" stroke="black" points="280,-392.01 280,-411.01 399,-411.01 399,-392.01 280,-392.01"/>
<text text-anchor="middle" x="339.5" y="-399.01" font-family="Helvetica,sans-Serif" font-size="10.00">ub_var_double_array</text>
</a>
</g>
</g>
<!-- Node3&#45;&gt;Node19 -->
<g id="edge44" class="edge">
<title>Node3&#45;&gt;Node19</title>
<path fill="none" stroke="#9a32cd" stroke-dasharray="5,2" d="M19.55,-757.73C19.17,-712.46 21.98,-598.56 56,-511.51 69.83,-476.14 72.92,-461.84 105,-441.51 133.36,-423.54 220.5,-412.23 279.93,-406.38"/>
<polygon fill="#9a32cd" stroke="#9a32cd" points="16.05,-757.98 19.7,-767.92 23.05,-757.87 16.05,-757.98"/>
<text text-anchor="middle" x="140.5" y="-444.51" font-family="Helvetica,sans-Serif" font-size="10.00"> varname</text>
</g>
<!-- Node20 -->
<g id="node20" class="node">
<title>Node20</title>
<g id="a_node20"><a xlink:href="structconsole.html" target="_top" xlink:title=" ">
<polygon fill="none" stroke="black" points="312.5,-266.01 312.5,-285.01 366.5,-285.01 366.5,-266.01 312.5,-266.01"/>
<text text-anchor="middle" x="339.5" y="-273.01" font-family="Helvetica,sans-Serif" font-size="10.00">console</text>
</a>
</g>
</g>
<!-- Node3&#45;&gt;Node20 -->
<g id="edge48" class="edge">
<title>Node3&#45;&gt;Node20</title>
<path fill="none" stroke="#9a32cd" stroke-dasharray="5,2" d="M20.56,-757.39C22.76,-685.45 31.88,-441.34 56,-367.51 69.07,-327.52 68.62,-307.64 105,-286.51 112.55,-282.13 253.29,-283.02 262,-282.51 278.78,-281.53 297.57,-279.82 312.33,-278.34"/>
<polygon fill="#9a32cd" stroke="#9a32cd" points="17.05,-757.65 20.26,-767.75 24.05,-757.86 17.05,-757.65"/>
<text text-anchor="middle" x="140.5" y="-311.51" font-family="Helvetica,sans-Serif" font-size="10.00"> buffer</text>
<text text-anchor="middle" x="140.5" y="-300.51" font-family="Helvetica,sans-Serif" font-size="10.00">dirty</text>
<text text-anchor="middle" x="140.5" y="-289.51" font-family="Helvetica,sans-Serif" font-size="10.00">internalbuffer</text>
</g>
<!-- Node4 -->
<g id="node4" class="node">
<title>Node4</title>
<g id="a_node4"><a xlink:title=" ">
<polygon fill="none" stroke="black" points="126,-111.01 126,-130.01 155,-130.01 155,-111.01 126,-111.01"/>
<text text-anchor="middle" x="140.5" y="-118.01" font-family="Helvetica,sans-Serif" font-size="10.00">int</text>
</a>
</g>
</g>
<!-- Node4&#45;&gt;Node2 -->
<g id="edge3" class="edge">
<title>Node4&#45;&gt;Node2</title>
<path fill="none" stroke="#9a32cd" stroke-dasharray="5,2" d="M165.05,-126.04C174.06,-128.01 184.47,-130.08 194,-131.51 270.2,-142.99 486.34,-134.76 535,-194.51 563.14,-229.07 579.76,-562.96 582.57,-623.97"/>
<polygon fill="#9a32cd" stroke="#9a32cd" points="165.76,-122.62 155.24,-123.84 164.23,-129.45 165.76,-122.62"/>
<text text-anchor="middle" x="339.5" y="-161.51" font-family="Helvetica,sans-Serif" font-size="10.00"> bracket_depth</text>
<text text-anchor="middle" x="339.5" y="-150.51" font-family="Helvetica,sans-Serif" font-size="10.00">current_token</text>
</g>
<!-- Node25 -->
<g id="node25" class="node">
<title>Node25</title>
<g id="a_node25"><a xlink:href="structcpuid__result__t.html" target="_top" xlink:title="CPUID instruction result.">
<polygon fill="none" stroke="black" points="297,-90.01 297,-109.01 382,-109.01 382,-90.01 297,-90.01"/>
<text text-anchor="middle" x="339.5" y="-97.01" font-family="Helvetica,sans-Serif" font-size="10.00">cpuid_result_t</text>
</a>
</g>
</g>
<!-- Node4&#45;&gt;Node25 -->
<g id="edge56" class="edge">
<title>Node4&#45;&gt;Node25</title>
<path fill="none" stroke="#9a32cd" stroke-dasharray="5,2" d="M160.86,-104.66C170.26,-97.97 182.08,-90.95 194,-87.51 230.89,-76.88 275.1,-83.18 304.83,-90"/>
<polygon fill="#9a32cd" stroke="#9a32cd" points="158.54,-102.03 152.67,-110.84 162.76,-107.61 158.54,-102.03"/>
<text text-anchor="middle" x="228" y="-123.51" font-family="Helvetica,sans-Serif" font-size="10.00"> eax</text>
<text text-anchor="middle" x="228" y="-112.51" font-family="Helvetica,sans-Serif" font-size="10.00">ebx</text>
<text text-anchor="middle" x="228" y="-101.51" font-family="Helvetica,sans-Serif" font-size="10.00">ecx</text>
<text text-anchor="middle" x="228" y="-90.51" font-family="Helvetica,sans-Serif" font-size="10.00">edx</text>
</g>
<!-- Node5 -->
<g id="node5" class="node">
<title>Node5</title>
<g id="a_node5"><a xlink:title=" ">
<polygon fill="none" stroke="black" points="115.5,-863.01 115.5,-882.01 165.5,-882.01 165.5,-863.01 115.5,-863.01"/>
<text text-anchor="middle" x="140.5" y="-870.01" font-family="Helvetica,sans-Serif" font-size="10.00">int64_t</text>
</a>
</g>
</g>
<!-- Node5&#45;&gt;Node2 -->
<g id="edge4" class="edge">
<title>Node5&#45;&gt;Node2</title>
<path fill="none" stroke="#9a32cd" stroke-dasharray="5,2" d="M175.59,-874.09C203.62,-875.3 244.38,-876.87 280,-877.51 394.99,-879.59 456.88,-917.92 535,-833.51 561.56,-804.82 577.8,-678.85 581.95,-643.04"/>
<polygon fill="#9a32cd" stroke="#9a32cd" points="175.66,-870.59 165.51,-873.64 175.35,-877.58 175.66,-870.59"/>
<text text-anchor="middle" x="339.5" y="-911.51" font-family="Helvetica,sans-Serif" font-size="10.00"> current_linenum</text>
<text text-anchor="middle" x="339.5" y="-900.51" font-family="Helvetica,sans-Serif" font-size="10.00">eval_linenum</text>
<text text-anchor="middle" x="339.5" y="-889.51" font-family="Helvetica,sans-Serif" font-size="10.00">highest_line</text>
</g>
<!-- Node5&#45;&gt;Node7 -->
<g id="edge8" class="edge">
<title>Node5&#45;&gt;Node7</title>
<path fill="none" stroke="#9a32cd" stroke-dasharray="5,2" d="M155.71,-854.75C165.51,-843.45 179.35,-829.17 194,-819.51 229.01,-796.43 274.8,-780.36 305.36,-771.3"/>
<polygon fill="#9a32cd" stroke="#9a32cd" points="152.8,-852.78 149.07,-862.69 158.17,-857.27 152.8,-852.78"/>
<text text-anchor="middle" x="228" y="-822.51" font-family="Helvetica,sans-Serif" font-size="10.00"> value</text>
</g>
<!-- Node5&#45;&gt;Node13 -->
<g id="edge23" class="edge">
<title>Node5&#45;&gt;Node13</title>
<path fill="none" stroke="#9a32cd" stroke-dasharray="5,2" d="M175.42,-880.61C208.62,-888.77 255.18,-900.93 262,-906.51 275.54,-917.59 267.11,-929.69 280,-941.51 288.25,-949.08 299.21,-954.43 309.42,-958.13"/>
<polygon fill="#9a32cd" stroke="#9a32cd" points="176.15,-877.19 165.6,-878.22 174.49,-883.99 176.15,-877.19"/>
<text text-anchor="middle" x="228" y="-931.51" font-family="Helvetica,sans-Serif" font-size="10.00"> line_after_for</text>
<text text-anchor="middle" x="228" y="-920.51" font-family="Helvetica,sans-Serif" font-size="10.00">step</text>
<text text-anchor="middle" x="228" y="-909.51" font-family="Helvetica,sans-Serif" font-size="10.00">to</text>
</g>
<!-- Node5&#45;&gt;Node14 -->
<g id="edge28" class="edge">
<title>Node5&#45;&gt;Node14</title>
<path fill="none" stroke="#9a32cd" stroke-dasharray="5,2" d="M152.74,-890.86C162.34,-905.41 177.23,-925.55 194,-939.51 229.97,-969.45 280.28,-991.32 311.05,-1002.96"/>
<polygon fill="#9a32cd" stroke="#9a32cd" points="155.56,-888.77 147.23,-882.22 149.66,-892.54 155.56,-888.77"/>
<text text-anchor="middle" x="228" y="-983.51" font-family="Helvetica,sans-Serif" font-size="10.00"> line</text>
</g>
<!-- Node5&#45;&gt;Node17 -->
<g id="edge36" class="edge">
<title>Node5&#45;&gt;Node17</title>
<path fill="none" stroke="#9a32cd" stroke-dasharray="5,2" d="M166.9,-858.41C175.3,-854.29 184.85,-850.19 194,-847.51 225.3,-838.37 261.75,-833.87 290.21,-831.66"/>
<polygon fill="#9a32cd" stroke="#9a32cd" points="165.28,-855.3 157.98,-862.98 168.47,-861.53 165.28,-855.3"/>
<text text-anchor="middle" x="228" y="-850.51" font-family="Helvetica,sans-Serif" font-size="10.00"> values</text>
</g>
<!-- Node6 -->
<g id="node6" class="node">
<title>Node6</title>
<g id="a_node6"><a xlink:title=" ">
<polygon fill="none" stroke="black" points="121.5,-523.01 121.5,-542.01 159.5,-542.01 159.5,-523.01 121.5,-523.01"/>
<text text-anchor="middle" x="140.5" y="-530.01" font-family="Helvetica,sans-Serif" font-size="10.00">bool</text>
</a>
</g>
</g>
<!-- Node6&#45;&gt;Node2 -->
<g id="edge5" class="edge">
<title>Node6&#45;&gt;Node2</title>
<path fill="none" stroke="#9a32cd" stroke-dasharray="5,2" d="M169.88,-531.94C236.7,-531.63 407.87,-536.99 535,-594.51 550.46,-601.51 565.12,-614.72 574.08,-623.82"/>
<polygon fill="#9a32cd" stroke="#9a32cd" points="169.68,-528.44 159.72,-532.03 169.75,-535.44 169.68,-528.44"/>
<text text-anchor="middle" x="339.5" y="-566.51" font-family="Helvetica,sans-Serif" font-size="10.00"> ended</text>
<text text-anchor="middle" x="339.5" y="-555.51" font-family="Helvetica,sans-Serif" font-size="10.00">errored</text>
</g>
<!-- Node6&#45;&gt;Node7 -->
<g id="edge9" class="edge">
<title>Node6&#45;&gt;Node7</title>
<path fill="none" stroke="#9a32cd" stroke-dasharray="5,2" d="M169.1,-544.51C177.09,-547.86 185.85,-551.43 194,-554.51 223.84,-565.8 242.03,-552.63 262,-577.51 308.45,-635.39 233.2,-685.92 280,-743.51 286.33,-751.3 295.9,-755.93 305.47,-758.68"/>
<polygon fill="#9a32cd" stroke="#9a32cd" points="170.41,-541.26 159.84,-540.57 167.67,-547.71 170.41,-541.26"/>
<text text-anchor="middle" x="228" y="-580.51" font-family="Helvetica,sans-Serif" font-size="10.00"> global</text>
</g>
<!-- Node6&#45;&gt;Node8 -->
<g id="edge13" class="edge">
<title>Node6&#45;&gt;Node8</title>
<path fill="none" stroke="#9a32cd" stroke-dasharray="5,2" d="M169.24,-524.35C193.73,-517.06 230.36,-505.95 262,-495.51 278.85,-489.95 297.65,-483.33 312.39,-478.03"/>
<polygon fill="#9a32cd" stroke="#9a32cd" points="168.13,-521.03 159.54,-527.23 170.12,-527.74 168.13,-521.03"/>
<text text-anchor="middle" x="228" y="-519.51" font-family="Helvetica,sans-Serif" font-size="10.00"> global</text>
</g>
<!-- Node6&#45;&gt;Node9 -->
<g id="edge18" class="edge">
<title>Node6&#45;&gt;Node9</title>
<path fill="none" stroke="#9a32cd" stroke-dasharray="5,2" d="M159.04,-515.46C164.52,-510.08 170.54,-504.08 176,-498.51 214.93,-458.75 226.55,-450.41 262,-407.51 270.72,-396.96 270.63,-392.5 280,-382.51 293.85,-367.76 312.2,-353.39 324.63,-344.28"/>
<polygon fill="#9a32cd" stroke="#9a32cd" points="156.26,-513.29 151.56,-522.79 161.15,-518.29 156.26,-513.29"/>
<text text-anchor="middle" x="228" y="-483.51" font-family="Helvetica,sans-Serif" font-size="10.00"> global</text>
</g>
<!-- Node7&#45;&gt;Node2 -->
<g id="edge6" class="edge">
<title>Node7&#45;&gt;Node2</title>
<path fill="none" stroke="#9a32cd" stroke-dasharray="5,2" d="M381.71,-749.82C430.93,-734.19 509.8,-707.5 535,-689.51 553.13,-676.57 568.79,-655.35 576.96,-643.08"/>
<polygon fill="#9a32cd" stroke="#9a32cd" points="380.47,-746.55 371.98,-752.89 382.57,-753.22 380.47,-746.55"/>
<text text-anchor="middle" x="476" y="-751.51" font-family="Helvetica,sans-Serif" font-size="10.00"> int_variables</text>
<text text-anchor="middle" x="476" y="-740.51" font-family="Helvetica,sans-Serif" font-size="10.00">local_int_variables</text>
</g>
<!-- Node7&#45;&gt;Node7 -->
<g id="edge10" class="edge">
<title>Node7&#45;&gt;Node7</title>
<path fill="none" stroke="#9a32cd" stroke-dasharray="5,2" d="M319.13,-781.91C320.49,-786.83 327.28,-790.51 339.5,-790.51 359.05,-790.51 364.7,-781.08 356.45,-772.27"/>
<polygon fill="#9a32cd" stroke="#9a32cd" points="322.51,-782.87 322.55,-772.27 315.91,-780.53 322.51,-782.87"/>
<text text-anchor="middle" x="339.5" y="-793.51" font-family="Helvetica,sans-Serif" font-size="10.00"> next</text>
</g>
<!-- Node8&#45;&gt;Node2 -->
<g id="edge11" class="edge">
<title>Node8&#45;&gt;Node2</title>
<path fill="none" stroke="#9a32cd" stroke-dasharray="5,2" d="M391.35,-465.85C434.36,-466.34 495.17,-473.81 535,-507.51 571.45,-538.36 580.29,-600.06 582.38,-623.85"/>
<polygon fill="#9a32cd" stroke="#9a32cd" points="391.1,-462.35 381.1,-465.87 391.1,-469.35 391.1,-462.35"/>
<text text-anchor="middle" x="476" y="-521.51" font-family="Helvetica,sans-Serif" font-size="10.00"> local_string_variables</text>
<text text-anchor="middle" x="476" y="-510.51" font-family="Helvetica,sans-Serif" font-size="10.00">str_variables</text>
</g>
<!-- Node8&#45;&gt;Node8 -->
<g id="edge14" class="edge">
<title>Node8&#45;&gt;Node8</title>
<path fill="none" stroke="#9a32cd" stroke-dasharray="5,2" d="M319.13,-487.91C320.49,-492.83 327.28,-496.51 339.5,-496.51 359.05,-496.51 364.7,-487.08 356.45,-478.27"/>
<polygon fill="#9a32cd" stroke="#9a32cd" points="322.51,-488.87 322.55,-478.27 315.91,-486.53 322.51,-488.87"/>
<text text-anchor="middle" x="339.5" y="-499.51" font-family="Helvetica,sans-Serif" font-size="10.00"> next</text>
</g>
<!-- Node9&#45;&gt;Node2 -->
<g id="edge15" class="edge">
<title>Node9&#45;&gt;Node2</title>
<path fill="none" stroke="#9a32cd" stroke-dasharray="5,2" d="M394,-331.66C438.02,-332.4 498.85,-341.02 535,-378.51 569.94,-414.75 580.46,-582.08 582.57,-623.98"/>
<polygon fill="#9a32cd" stroke="#9a32cd" points="393.77,-328.16 383.76,-331.63 393.74,-335.16 393.77,-328.16"/>
<text text-anchor="middle" x="476" y="-392.51" font-family="Helvetica,sans-Serif" font-size="10.00"> double_variables</text>
<text text-anchor="middle" x="476" y="-381.51" font-family="Helvetica,sans-Serif" font-size="10.00">local_double_variables</text>
</g>
<!-- Node9&#45;&gt;Node9 -->
<g id="edge19" class="edge">
<title>Node9&#45;&gt;Node9</title>
<path fill="none" stroke="#9a32cd" stroke-dasharray="5,2" d="M319.13,-353.91C320.49,-358.83 327.28,-362.51 339.5,-362.51 359.05,-362.51 364.7,-353.08 356.45,-344.27"/>
<polygon fill="#9a32cd" stroke="#9a32cd" points="322.51,-354.87 322.55,-344.27 315.91,-352.53 322.51,-354.87"/>
<text text-anchor="middle" x="339.5" y="-365.51" font-family="Helvetica,sans-Serif" font-size="10.00"> next</text>
</g>
<!-- Node10 -->
<g id="node10" class="node">
<title>Node10</title>
<g id="a_node10"><a xlink:title=" ">
<polygon fill="none" stroke="black" points="115.5,-370.01 115.5,-389.01 165.5,-389.01 165.5,-370.01 115.5,-370.01"/>
<text text-anchor="middle" x="140.5" y="-377.01" font-family="Helvetica,sans-Serif" font-size="10.00">double</text>
</a>
</g>
</g>
<!-- Node10&#45;&gt;Node9 -->
<g id="edge17" class="edge">
<title>Node10&#45;&gt;Node9</title>
<path fill="none" stroke="#9a32cd" stroke-dasharray="5,2" d="M175.46,-371.76C209.03,-364.09 260.46,-352.34 296.56,-344.09"/>
<polygon fill="#9a32cd" stroke="#9a32cd" points="174.63,-368.36 165.66,-374 176.18,-375.18 174.63,-368.36"/>
<text text-anchor="middle" x="228" y="-370.51" font-family="Helvetica,sans-Serif" font-size="10.00"> value</text>
</g>
<!-- Node10&#45;&gt;Node19 -->
<g id="edge45" class="edge">
<title>Node10&#45;&gt;Node19</title>
<path fill="none" stroke="#9a32cd" stroke-dasharray="5,2" d="M175.97,-383.36C204.61,-386.56 246,-391.18 279.84,-394.96"/>
<polygon fill="#9a32cd" stroke="#9a32cd" points="175.98,-379.84 165.66,-382.21 175.21,-386.8 175.98,-379.84"/>
<text text-anchor="middle" x="228" y="-395.51" font-family="Helvetica,sans-Serif" font-size="10.00"> values</text>
</g>
<!-- Node11 -->
<g id="node11" class="node">
<title>Node11</title>
<g id="a_node11"><a xlink:title=" ">
<polygon fill="none" stroke="black" points="112.5,-634.01 112.5,-653.01 168.5,-653.01 168.5,-634.01 112.5,-634.01"/>
<text text-anchor="middle" x="140.5" y="-641.01" font-family="Helvetica,sans-Serif" font-size="10.00">uint64_t</text>
</a>
</g>
</g>
<!-- Node11&#45;&gt;Node2 -->
<g id="edge20" class="edge">
<title>Node11&#45;&gt;Node2</title>
<path fill="none" stroke="#9a32cd" stroke-dasharray="5,2" d="M178.96,-641.01C203.32,-638.41 235.38,-633.16 262,-622.51 270.93,-618.94 270.8,-613.3 280,-610.51 376.44,-581.31 497.64,-608.49 552.97,-624.17"/>
<polygon fill="#9a32cd" stroke="#9a32cd" points="178.32,-637.55 168.7,-641.99 178.99,-644.52 178.32,-637.55"/>
<text text-anchor="middle" x="339.5" y="-668.51" font-family="Helvetica,sans-Serif" font-size="10.00"> call_stack</text>
<text text-anchor="middle" x="339.5" y="-657.51" font-family="Helvetica,sans-Serif" font-size="10.00">call_stack_ptr</text>
<text text-anchor="middle" x="339.5" y="-646.51" font-family="Helvetica,sans-Serif" font-size="10.00">for_stack_ptr</text>
<text text-anchor="middle" x="339.5" y="-635.51" font-family="Helvetica,sans-Serif" font-size="10.00">if_nest_level</text>
<text text-anchor="middle" x="339.5" y="-624.51" font-family="Helvetica,sans-Serif" font-size="10.00">repeat_stack</text>
<text text-anchor="middle" x="339.5" y="-613.51" font-family="Helvetica,sans-Serif" font-size="10.00">repeat_stack_ptr</text>
</g>
<!-- Node11&#45;&gt;Node17 -->
<g id="edge34" class="edge">
<title>Node11&#45;&gt;Node17</title>
<path fill="none" stroke="#9a32cd" stroke-dasharray="5,2" d="M160.06,-660.09C165.24,-664.74 170.85,-669.81 176,-674.51 214.53,-709.74 233.99,-710.46 262,-754.51 276.03,-776.58 261.54,-792 280,-810.51 283.85,-814.37 288.48,-817.44 293.44,-819.89"/>
<polygon fill="#9a32cd" stroke="#9a32cd" points="162.2,-657.31 152.42,-653.24 157.53,-662.52 162.2,-657.31"/>
<text text-anchor="middle" x="228" y="-757.51" font-family="Helvetica,sans-Serif" font-size="10.00"> itemcount</text>
</g>
<!-- Node11&#45;&gt;Node18 -->
<g id="edge39" class="edge">
<title>Node11&#45;&gt;Node18</title>
<path fill="none" stroke="#9a32cd" stroke-dasharray="5,2" d="M179.03,-650.96C202.92,-655.94 234.45,-662.94 262,-670.51 278.57,-675.07 296.88,-681.02 311.43,-685.97"/>
<polygon fill="#9a32cd" stroke="#9a32cd" points="179.46,-647.48 168.96,-648.89 178.05,-654.33 179.46,-647.48"/>
<text text-anchor="middle" x="228" y="-673.51" font-family="Helvetica,sans-Serif" font-size="10.00"> itemcount</text>
</g>
<!-- Node11&#45;&gt;Node19 -->
<g id="edge43" class="edge">
<title>Node11&#45;&gt;Node19</title>
<path fill="none" stroke="#9a32cd" stroke-dasharray="5,2" d="M163.76,-628.44C172.88,-622.67 183.7,-616.32 194,-611.51 222.91,-598.02 241.77,-613.19 262,-588.51 301.49,-540.34 249.8,-503.99 280,-449.51 289.36,-432.62 307.26,-419.3 320.81,-411.02"/>
<polygon fill="#9a32cd" stroke="#9a32cd" points="161.77,-625.56 155.29,-633.94 165.58,-631.43 161.77,-625.56"/>
<text text-anchor="middle" x="228" y="-614.51" font-family="Helvetica,sans-Serif" font-size="10.00"> itemcount</text>
</g>
<!-- Node12 -->
<g id="node12" class="node">
<title>Node12</title>
<g id="a_node12"><a xlink:title=" ">
<polygon fill="none" stroke="black" points="118,-175.01 118,-194.01 163,-194.01 163,-175.01 118,-175.01"/>
<text text-anchor="middle" x="140.5" y="-182.01" font-family="Helvetica,sans-Serif" font-size="10.00">size_t</text>
</a>
</g>
</g>
<!-- Node12&#45;&gt;Node2 -->
<g id="edge21" class="edge">
<title>Node12&#45;&gt;Node2</title>
<path fill="none" stroke="#9a32cd" stroke-dasharray="5,2" d="M173.32,-180.05C249.51,-171.38 442.89,-161.64 535,-269.51 582.29,-324.9 583.4,-571.41 583.09,-623.73"/>
<polygon fill="#9a32cd" stroke="#9a32cd" points="172.88,-176.58 163.37,-181.26 173.72,-183.53 172.88,-176.58"/>
<text text-anchor="middle" x="339.5" y="-194.51" font-family="Helvetica,sans-Serif" font-size="10.00"> oldlen</text>
</g>
<!-- Node12&#45;&gt;Node20 -->
<g id="edge50" class="edge">
<title>Node12&#45;&gt;Node20</title>
<path fill="none" stroke="#9a32cd" stroke-dasharray="5,2" d="M173.49,-187.88C198.58,-191.46 233.86,-198.62 262,-212.51 289.77,-226.22 316.31,-251.8 329.62,-265.78"/>
<polygon fill="#9a32cd" stroke="#9a32cd" points="173.78,-184.39 163.4,-186.56 172.86,-191.33 173.78,-184.39"/>
<text text-anchor="middle" x="228" y="-215.51" font-family="Helvetica,sans-Serif" font-size="10.00"> bufcnt</text>
</g>
<!-- Node13&#45;&gt;Node2 -->
<g id="edge22" class="edge">
<title>Node13&#45;&gt;Node2</title>
<path fill="none" stroke="#9a32cd" stroke-dasharray="5,2" d="M379.61,-961.15C430.15,-954.69 514.17,-940.86 535,-918.51 573.49,-877.22 581.4,-688.36 582.75,-643.22"/>
<polygon fill="#9a32cd" stroke="#9a32cd" points="379.16,-957.68 369.67,-962.38 380.02,-964.63 379.16,-957.68"/>
<text text-anchor="middle" x="476" y="-957.51" font-family="Helvetica,sans-Serif" font-size="10.00"> for_stack</text>
</g>
<!-- Node14&#45;&gt;Node2 -->
<g id="edge25" class="edge">
<title>Node14&#45;&gt;Node2</title>
<path fill="none" stroke="#9a32cd" stroke-dasharray="5,2" d="M395.35,-1016.06C439.53,-1015.71 499.88,-1007.39 535,-969.51 580.57,-920.36 583.05,-693.22 583.04,-643.25"/>
<polygon fill="#9a32cd" stroke="#9a32cd" points="395.35,-1012.56 385.34,-1016.01 395.32,-1019.56 395.35,-1012.56"/>
<text text-anchor="middle" x="476" y="-1017.51" font-family="Helvetica,sans-Serif" font-size="10.00"> defs</text>
</g>
<!-- Node14&#45;&gt;Node14 -->
<g id="edge32" class="edge">
<title>Node14&#45;&gt;Node14</title>
<path fill="none" stroke="#9a32cd" stroke-dasharray="5,2" d="M319.13,-1031.91C320.49,-1036.83 327.28,-1040.51 339.5,-1040.51 359.05,-1040.51 364.7,-1031.08 356.45,-1022.27"/>
<polygon fill="#9a32cd" stroke="#9a32cd" points="322.51,-1032.87 322.55,-1022.27 315.91,-1030.53 322.51,-1032.87"/>
<text text-anchor="middle" x="339.5" y="-1043.51" font-family="Helvetica,sans-Serif" font-size="10.00"> next</text>
</g>
<!-- Node15 -->
<g id="node15" class="node">
<title>Node15</title>
<g id="a_node15"><a xlink:title=" ">
<polygon fill="none" stroke="black" points="105,-1036.01 105,-1055.01 176,-1055.01 176,-1036.01 105,-1036.01"/>
<text text-anchor="middle" x="140.5" y="-1043.01" font-family="Helvetica,sans-Serif" font-size="10.00">ub_fn_type</text>
</a>
</g>
</g>
<!-- Node15&#45;&gt;Node14 -->
<g id="edge27" class="edge">
<title>Node15&#45;&gt;Node14</title>
<path fill="none" stroke="#9a32cd" stroke-dasharray="5,2" d="M186.29,-1038.01C218.43,-1032.63 261.56,-1025.4 293.7,-1020.02"/>
<polygon fill="#9a32cd" stroke="#9a32cd" points="185.55,-1034.59 176.27,-1039.69 186.71,-1041.49 185.55,-1034.59"/>
<text text-anchor="middle" x="228" y="-1039.51" font-family="Helvetica,sans-Serif" font-size="10.00"> type</text>
</g>
<!-- Node16&#45;&gt;Node2 -->
<g id="edge53" class="edge">
<title>Node16&#45;&gt;Node2</title>
<path fill="none" stroke="#9a32cd" stroke-dasharray="5,2" d="M182.95,-1092.87C264.38,-1108.51 445.11,-1129.22 535,-1029.51 588.33,-970.36 584.58,-697.85 583.27,-643.11"/>
<polygon fill="#9a32cd" stroke="#9a32cd" points="183.55,-1089.42 173.06,-1090.9 182.19,-1096.28 183.55,-1089.42"/>
<text text-anchor="middle" x="339.5" y="-1108.51" font-family="Helvetica,sans-Serif" font-size="10.00"> param</text>
</g>
<!-- Node16&#45;&gt;Node14 -->
<g id="edge29" class="edge">
<title>Node16&#45;&gt;Node14</title>
<path fill="none" stroke="#9a32cd" stroke-dasharray="5,2" d="M183.04,-1074.78C206.59,-1069.26 236.38,-1061.32 262,-1051.51 283.58,-1043.25 307.07,-1030.7 322.25,-1022.08"/>
<polygon fill="#9a32cd" stroke="#9a32cd" points="182,-1071.43 173.03,-1077.07 183.56,-1078.25 182,-1071.43"/>
<text text-anchor="middle" x="228" y="-1074.51" font-family="Helvetica,sans-Serif" font-size="10.00"> params</text>
</g>
<!-- Node16&#45;&gt;Node16 -->
<g id="edge31" class="edge">
<title>Node16&#45;&gt;Node16</title>
<path fill="none" stroke="#9a32cd" stroke-dasharray="5,2" d="M127.98,-1103.28C128.96,-1108.01 133.14,-1111.51 140.5,-1111.51 152.59,-1111.51 156.08,-1102.08 150.98,-1093.27"/>
<polygon fill="#9a32cd" stroke="#9a32cd" points="131.45,-1103.77 130.02,-1093.27 124.59,-1102.37 131.45,-1103.77"/>
<text text-anchor="middle" x="140.5" y="-1114.51" font-family="Helvetica,sans-Serif" font-size="10.00"> next</text>
</g>
<!-- Node17&#45;&gt;Node2 -->
<g id="edge33" class="edge">
<title>Node17&#45;&gt;Node2</title>
<path fill="none" stroke="#9a32cd" stroke-dasharray="5,2" d="M398.58,-823.29C441.39,-815.82 498.32,-799.43 535,-763.51 570.07,-729.17 579.73,-667.01 582.2,-643.18"/>
<polygon fill="#9a32cd" stroke="#9a32cd" points="397.88,-819.86 388.57,-824.92 399.01,-826.77 397.88,-819.86"/>
<text text-anchor="middle" x="476" y="-821.51" font-family="Helvetica,sans-Serif" font-size="10.00"> int_array_variables</text>
</g>
<!-- Node17&#45;&gt;Node17 -->
<g id="edge37" class="edge">
<title>Node17&#45;&gt;Node17</title>
<path fill="none" stroke="#9a32cd" stroke-dasharray="5,2" d="M319.13,-848.91C320.49,-853.83 327.28,-857.51 339.5,-857.51 359.05,-857.51 364.7,-848.08 356.45,-839.27"/>
<polygon fill="#9a32cd" stroke="#9a32cd" points="322.51,-849.87 322.55,-839.27 315.91,-847.53 322.51,-849.87"/>
<text text-anchor="middle" x="339.5" y="-860.51" font-family="Helvetica,sans-Serif" font-size="10.00"> next</text>
</g>
<!-- Node18&#45;&gt;Node2 -->
<g id="edge38" class="edge">
<title>Node18&#45;&gt;Node2</title>
<path fill="none" stroke="#9a32cd" stroke-dasharray="5,2" d="M387.57,-683.48C436.45,-670.98 511.44,-651.81 552.88,-641.21"/>
<polygon fill="#9a32cd" stroke="#9a32cd" points="386.68,-680.09 377.86,-685.96 388.41,-686.88 386.68,-680.09"/>
<text text-anchor="middle" x="476" y="-677.51" font-family="Helvetica,sans-Serif" font-size="10.00"> string_array_variables</text>
</g>
<!-- Node18&#45;&gt;Node18 -->
<g id="edge41" class="edge">
<title>Node18&#45;&gt;Node18</title>
<path fill="none" stroke="#9a32cd" stroke-dasharray="5,2" d="M319.13,-714.91C320.49,-719.83 327.28,-723.51 339.5,-723.51 359.05,-723.51 364.7,-714.08 356.45,-705.27"/>
<polygon fill="#9a32cd" stroke="#9a32cd" points="322.51,-715.87 322.55,-705.27 315.91,-713.53 322.51,-715.87"/>
<text text-anchor="middle" x="339.5" y="-726.51" font-family="Helvetica,sans-Serif" font-size="10.00"> next</text>
</g>
<!-- Node19&#45;&gt;Node2 -->
<g id="edge42" class="edge">
<title>Node19&#45;&gt;Node2</title>
<path fill="none" stroke="#9a32cd" stroke-dasharray="5,2" d="M409.26,-402.81C450.89,-407.24 502.12,-419.72 535,-452.51 583.8,-501.18 584.69,-593.37 583.56,-623.62"/>
<polygon fill="#9a32cd" stroke="#9a32cd" points="409.45,-399.32 399.17,-401.87 408.8,-406.29 409.45,-399.32"/>
<text text-anchor="middle" x="476" y="-455.51" font-family="Helvetica,sans-Serif" font-size="10.00"> double_array_variables</text>
</g>
<!-- Node19&#45;&gt;Node19 -->
<g id="edge46" class="edge">
<title>Node19&#45;&gt;Node19</title>
<path fill="none" stroke="#9a32cd" stroke-dasharray="5,2" d="M319.13,-420.91C320.49,-425.83 327.28,-429.51 339.5,-429.51 359.05,-429.51 364.7,-420.08 356.45,-411.27"/>
<polygon fill="#9a32cd" stroke="#9a32cd" points="322.51,-421.87 322.55,-411.27 315.91,-419.53 322.51,-421.87"/>
<text text-anchor="middle" x="339.5" y="-432.51" font-family="Helvetica,sans-Serif" font-size="10.00"> next</text>
</g>
<!-- Node20&#45;&gt;Node2 -->
<g id="edge47" class="edge">
<title>Node20&#45;&gt;Node2</title>
<path fill="none" stroke="#9a32cd" stroke-dasharray="5,2" d="M376.66,-272.33C420.76,-270.61 494.42,-275.15 535,-318.51 577.81,-364.26 582.44,-575.64 582.94,-623.75"/>
<polygon fill="#9a32cd" stroke="#9a32cd" points="376.46,-268.83 366.66,-272.84 376.82,-275.82 376.46,-268.83"/>
<text text-anchor="middle" x="476" y="-321.51" font-family="Helvetica,sans-Serif" font-size="10.00"> cons</text>
</g>
<!-- Node21 -->
<g id="node21" class="node">
<title>Node21</title>
<g id="a_node21"><a xlink:title=" ">
<polygon fill="none" stroke="black" points="115.5,-216.01 115.5,-235.01 165.5,-235.01 165.5,-216.01 115.5,-216.01"/>
<text text-anchor="middle" x="140.5" y="-223.01" font-family="Helvetica,sans-Serif" font-size="10.00">uint8_t</text>
</a>
</g>
</g>
<!-- Node21&#45;&gt;Node20 -->
<g id="edge49" class="edge">
<title>Node21&#45;&gt;Node20</title>
<path fill="none" stroke="#9a32cd" stroke-dasharray="5,2" d="M175.73,-226.1C200.18,-227.26 233.63,-230.39 262,-238.51 284.13,-244.85 307.69,-257.2 322.73,-265.89"/>
<polygon fill="#9a32cd" stroke="#9a32cd" points="175.64,-222.59 165.51,-225.7 175.37,-229.59 175.64,-222.59"/>
<text text-anchor="middle" x="228" y="-274.51" font-family="Helvetica,sans-Serif" font-size="10.00"> attributes</text>
<text text-anchor="middle" x="228" y="-263.51" font-family="Helvetica,sans-Serif" font-size="10.00">last</text>
<text text-anchor="middle" x="228" y="-252.51" font-family="Helvetica,sans-Serif" font-size="10.00">x</text>
<text text-anchor="middle" x="228" y="-241.51" font-family="Helvetica,sans-Serif" font-size="10.00">y</text>
</g>
<!-- Node22 -->
<g id="node22" class="node">
<title>Node22</title>
<g id="a_node22"><a xlink:title=" ">
<polygon fill="none" stroke="black" points="294.5,-52.01 294.5,-71.01 384.5,-71.01 384.5,-52.01 294.5,-52.01"/>
<text text-anchor="middle" x="339.5" y="-59.01" font-family="Helvetica,sans-Serif" font-size="10.00">ub_return_type</text>
</a>
</g>
</g>
<!-- Node22&#45;&gt;Node2 -->
<g id="edge51" class="edge">
<title>Node22&#45;&gt;Node2</title>
<path fill="none" stroke="#9a32cd" stroke-dasharray="5,2" d="M381.82,-49.65C425.96,-39.76 494.97,-32.81 535,-71.51 576.36,-111.5 582.23,-551.65 582.92,-623.6"/>
<polygon fill="#9a32cd" stroke="#9a32cd" points="380.89,-46.27 371.98,-51.99 382.52,-53.08 380.89,-46.27"/>
<text text-anchor="middle" x="476" y="-74.51" font-family="Helvetica,sans-Serif" font-size="10.00"> fn_type</text>
</g>
<!-- Node23 -->
<g id="node23" class="node">
<title>Node23</title>
<g id="a_node23"><a xlink:title=" ">
<polygon fill="none" stroke="black" points="316.5,-14.01 316.5,-33.01 362.5,-33.01 362.5,-14.01 316.5,-14.01"/>
<text text-anchor="middle" x="339.5" y="-21.01" font-family="Helvetica,sans-Serif" font-size="10.00">void *</text>
</a>
</g>
</g>
<!-- Node23&#45;&gt;Node2 -->
<g id="edge52" class="edge">
<title>Node23&#45;&gt;Node2</title>
<path fill="none" stroke="#9a32cd" stroke-dasharray="5,2" d="M372.34,-12.67C415.33,-0.26 491.55,13.46 535,-27.51 580.3,-70.24 582.87,-549.2 583,-623.78"/>
<polygon fill="#9a32cd" stroke="#9a32cd" points="371.23,-9.34 362.67,-15.6 373.26,-16.04 371.23,-9.34"/>
<text text-anchor="middle" x="476" y="-30.51" font-family="Helvetica,sans-Serif" font-size="10.00"> fn_return</text>
</g>
<!-- Node24 -->
<g id="node24" class="node">
<title>Node24</title>
<g id="a_node24"><a xlink:title=" ">
<polygon fill="none" stroke="black" points="314.5,-1211.01 314.5,-1230.01 364.5,-1230.01 364.5,-1211.01 314.5,-1211.01"/>
<text text-anchor="middle" x="339.5" y="-1218.01" font-family="Helvetica,sans-Serif" font-size="10.00">int32_t</text>
</a>
</g>
</g>
<!-- Node24&#45;&gt;Node2 -->
<g id="edge54" class="edge">
<title>Node24&#45;&gt;Node2</title>
<path fill="none" stroke="#9a32cd" stroke-dasharray="5,2" d="M374.56,-1227.77C418.4,-1234.89 493.82,-1239.28 535,-1196.51 574.98,-1155 582.01,-715.28 582.89,-643.42"/>
<polygon fill="#9a32cd" stroke="#9a32cd" points="375.11,-1224.31 364.66,-1226.02 373.9,-1231.2 375.11,-1224.31"/>
<text text-anchor="middle" x="476" y="-1234.51" font-family="Helvetica,sans-Serif" font-size="10.00"> graphics_colour</text>
</g>
<!-- Node25&#45;&gt;Node2 -->
<g id="edge55" class="edge">
<title>Node25&#45;&gt;Node2</title>
<path fill="none" stroke="#9a32cd" stroke-dasharray="5,2" d="M392.24,-88.96C436.49,-83.24 498.61,-83.6 535,-120.51 571.74,-157.78 581.42,-555.53 582.81,-623.62"/>
<polygon fill="#9a32cd" stroke="#9a32cd" points="391.65,-85.51 382.25,-90.4 392.64,-92.44 391.65,-85.51"/>
<text text-anchor="middle" x="476" y="-123.51" font-family="Helvetica,sans-Serif" font-size="10.00"> last_cpuid_result</text>
</g>
<!-- Node26 -->
<g id="node26" class="node">
<title>Node26</title>
<g id="a_node26"><a xlink:title=" ">
<polygon fill="none" stroke="black" points="289,-1173.01 289,-1192.01 390,-1192.01 390,-1173.01 289,-1173.01"/>
<text text-anchor="middle" x="339.5" y="-1180.01" font-family="Helvetica,sans-Serif" font-size="10.00">struct hashmap *</text>
</a>
</g>
</g>
<!-- Node26&#45;&gt;Node2 -->
<g id="edge57" class="edge">
<title>Node26&#45;&gt;Node2</title>
<path fill="none" stroke="#9a32cd" stroke-dasharray="5,2" d="M400.4,-1183.07C450.58,-1182.16 516.84,-1177.26 535,-1158.51 572.34,-1119.98 581.55,-711.52 582.83,-643.18"/>
<polygon fill="#9a32cd" stroke="#9a32cd" points="400.23,-1179.57 390.28,-1183.21 400.33,-1186.57 400.23,-1179.57"/>
<text text-anchor="middle" x="476" y="-1184.51" font-family="Helvetica,sans-Serif" font-size="10.00"> lines</text>
</g>
</g>
</svg>
