<?xml version="1.0" encoding="UTF-8" standalone="no"?>
<!DOCTYPE svg PUBLIC "-//W3C//DTD SVG 1.1//EN"
 "http://www.w3.org/Graphics/SVG/1.1/DTD/svg11.dtd">
<!-- Generated by graphviz version 2.43.0 (0)
 -->
<!-- Title: parameter_block_t Pages: 1 -->
<svg width="464pt" height="205pt"
 viewBox="0.00 0.00 464.00 205.00" xmlns="http://www.w3.org/2000/svg" xmlns:xlink="http://www.w3.org/1999/xlink">
<g id="graph0" class="graph" transform="scale(1 1) rotate(0) translate(4 201)">
<title>parameter_block_t</title>
<!-- Node1 -->
<g id="node1" class="node">
<title>Node1</title>
<g id="a_node1"><a xlink:title="FAT32 BIOS parameter block (BPB), stored in the boot sector of the drive.">
<polygon fill="#bfbfbf" stroke="black" points="125,-0.5 125,-19.5 233,-19.5 233,-0.5 125,-0.5"/>
<text text-anchor="middle" x="179" y="-7.5" font-family="Helvetica,sans-Serif" font-size="10.00">parameter_block_t</text>
</a>
</g>
</g>
<!-- Node2 -->
<g id="node2" class="node">
<title>Node2</title>
<g id="a_node2"><a xlink:title=" ">
<polygon fill="none" stroke="black" points="0,-177.5 0,-196.5 50,-196.5 50,-177.5 0,-177.5"/>
<text text-anchor="middle" x="25" y="-184.5" font-family="Helvetica,sans-Serif" font-size="10.00">uint8_t</text>
</a>
</g>
</g>
<!-- Node2&#45;&gt;Node1 -->
<g id="edge1" class="edge">
<title>Node2&#45;&gt;Node1</title>
<path fill="none" stroke="#9a32cd" stroke-dasharray="5,2" d="M19.2,-167.47C10.8,-136.56 -0.55,-74.3 31,-38 43.21,-23.95 87.68,-17.18 124.72,-13.93"/>
<polygon fill="#9a32cd" stroke="#9a32cd" points="15.92,-168.71 22.08,-177.33 22.64,-166.75 15.92,-168.71"/>
<text text-anchor="middle" x="73.5" y="-140" font-family="Helvetica,sans-Serif" font-size="10.00"> code1</text>
<text text-anchor="middle" x="73.5" y="-129" font-family="Helvetica,sans-Serif" font-size="10.00">code2</text>
<text text-anchor="middle" x="73.5" y="-118" font-family="Helvetica,sans-Serif" font-size="10.00">code3</text>
<text text-anchor="middle" x="73.5" y="-107" font-family="Helvetica,sans-Serif" font-size="10.00">drivenumber</text>
<text text-anchor="middle" x="73.5" y="-96" font-family="Helvetica,sans-Serif" font-size="10.00">mediatype</text>
<text text-anchor="middle" x="73.5" y="-85" font-family="Helvetica,sans-Serif" font-size="10.00">ntflags</text>
<text text-anchor="middle" x="73.5" y="-74" font-family="Helvetica,sans-Serif" font-size="10.00">numberoffats</text>
<text text-anchor="middle" x="73.5" y="-63" font-family="Helvetica,sans-Serif" font-size="10.00">sectorspercluster</text>
<text text-anchor="middle" x="73.5" y="-52" font-family="Helvetica,sans-Serif" font-size="10.00">signature</text>
</g>
<!-- Node3 -->
<g id="node3" class="node">
<title>Node3</title>
<g id="a_node3"><a xlink:title=" ">
<polygon fill="none" stroke="black" points="114,-177.5 114,-196.5 152,-196.5 152,-177.5 114,-177.5"/>
<text text-anchor="middle" x="133" y="-184.5" font-family="Helvetica,sans-Serif" font-size="10.00">char</text>
</a>
</g>
</g>
<!-- Node3&#45;&gt;Node1 -->
<g id="edge2" class="edge">
<title>Node3&#45;&gt;Node1</title>
<path fill="none" stroke="#9a32cd" stroke-dasharray="5,2" d="M127.68,-167.42C120.35,-137.83 110.51,-79.16 134,-38 138.7,-29.77 147,-23.77 155.21,-19.55"/>
<polygon fill="#9a32cd" stroke="#9a32cd" points="124.34,-168.47 130.3,-177.24 131.11,-166.67 124.34,-168.47"/>
<text text-anchor="middle" x="168.5" y="-112.5" font-family="Helvetica,sans-Serif" font-size="10.00"> oemidentifier</text>
<text text-anchor="middle" x="168.5" y="-101.5" font-family="Helvetica,sans-Serif" font-size="10.00">reserved</text>
<text text-anchor="middle" x="168.5" y="-90.5" font-family="Helvetica,sans-Serif" font-size="10.00">systemid</text>
<text text-anchor="middle" x="168.5" y="-79.5" font-family="Helvetica,sans-Serif" font-size="10.00">volumelabel</text>
</g>
<!-- Node4 -->
<g id="node4" class="node">
<title>Node4</title>
<g id="a_node4"><a xlink:title=" ">
<polygon fill="none" stroke="black" points="197,-177.5 197,-196.5 253,-196.5 253,-177.5 197,-177.5"/>
<text text-anchor="middle" x="225" y="-184.5" font-family="Helvetica,sans-Serif" font-size="10.00">uint16_t</text>
</a>
</g>
</g>
<!-- Node4&#45;&gt;Node1 -->
<g id="edge3" class="edge">
<title>Node4&#45;&gt;Node1</title>
<path fill="none" stroke="#9a32cd" stroke-dasharray="5,2" d="M225.56,-167.14C225.71,-138.03 223.1,-81.01 203,-38 199.71,-30.95 193.97,-24.4 188.94,-19.51"/>
<polygon fill="#9a32cd" stroke="#9a32cd" points="222.06,-167.11 225.39,-177.16 229.06,-167.22 222.06,-167.11"/>
<text text-anchor="middle" x="286.5" y="-151" font-family="Helvetica,sans-Serif" font-size="10.00"> backupbootsectorcluster</text>
<text text-anchor="middle" x="286.5" y="-140" font-family="Helvetica,sans-Serif" font-size="10.00">bytespersector</text>
<text text-anchor="middle" x="286.5" y="-129" font-family="Helvetica,sans-Serif" font-size="10.00">fatversion</text>
<text text-anchor="middle" x="286.5" y="-118" font-family="Helvetica,sans-Serif" font-size="10.00">flags</text>
<text text-anchor="middle" x="286.5" y="-107" font-family="Helvetica,sans-Serif" font-size="10.00">fsinfocluster</text>
<text text-anchor="middle" x="286.5" y="-96" font-family="Helvetica,sans-Serif" font-size="10.00">numberofdirentries</text>
<text text-anchor="middle" x="286.5" y="-85" font-family="Helvetica,sans-Serif" font-size="10.00">numberofheads</text>
<text text-anchor="middle" x="286.5" y="-74" font-family="Helvetica,sans-Serif" font-size="10.00">reservedsectors</text>
<text text-anchor="middle" x="286.5" y="-63" font-family="Helvetica,sans-Serif" font-size="10.00">sectorspertrack</text>
<text text-anchor="middle" x="286.5" y="-52" font-family="Helvetica,sans-Serif" font-size="10.00">totalsectors</text>
<text text-anchor="middle" x="286.5" y="-41" font-family="Helvetica,sans-Serif" font-size="10.00">...</text>
</g>
<!-- Node5 -->
<g id="node5" class="node">
<title>Node5</title>
<g id="a_node5"><a xlink:title=" ">
<polygon fill="none" stroke="black" points="343,-177.5 343,-196.5 399,-196.5 399,-177.5 343,-177.5"/>
<text text-anchor="middle" x="371" y="-184.5" font-family="Helvetica,sans-Serif" font-size="10.00">uint32_t</text>
</a>
</g>
</g>
<!-- Node5&#45;&gt;Node1 -->
<g id="edge4" class="edge">
<title>Node5&#45;&gt;Node1</title>
<path fill="none" stroke="#9a32cd" stroke-dasharray="5,2" d="M374.45,-167.53C379.12,-136.2 383.35,-72.69 349,-38 333.13,-21.97 276.83,-15.45 233.32,-12.81"/>
<polygon fill="#9a32cd" stroke="#9a32cd" points="370.98,-167.06 372.77,-177.5 377.88,-168.22 370.98,-167.06"/>
<text text-anchor="middle" x="416.5" y="-118" font-family="Helvetica,sans-Serif" font-size="10.00"> hiddensectors</text>
<text text-anchor="middle" x="416.5" y="-107" font-family="Helvetica,sans-Serif" font-size="10.00">rootdircluster</text>
<text text-anchor="middle" x="416.5" y="-96" font-family="Helvetica,sans-Serif" font-size="10.00">sectorsonmedia</text>
<text text-anchor="middle" x="416.5" y="-85" font-family="Helvetica,sans-Serif" font-size="10.00">sectorsperfat</text>
<text text-anchor="middle" x="416.5" y="-74" font-family="Helvetica,sans-Serif" font-size="10.00">serialnumber</text>
</g>
</g>
</svg>
