<?xml version="1.0" encoding="UTF-8" standalone="no"?>
<!DOCTYPE svg PUBLIC "-//W3C//DTD SVG 1.1//EN"
 "http://www.w3.org/Graphics/SVG/1.1/DTD/svg11.dtd">
<!-- Generated by graphviz version 2.43.0 (0)
 -->
<!-- Title: ub_var_double Pages: 1 -->
<svg width="274pt" height="95pt"
 viewBox="0.00 0.00 274.00 95.00" xmlns="http://www.w3.org/2000/svg" xmlns:xlink="http://www.w3.org/1999/xlink">
<g id="graph0" class="graph" transform="scale(1 1) rotate(0) translate(4 91)">
<title>ub_var_double</title>
<!-- Node1 -->
<g id="node1" class="node">
<title>Node1</title>
<g id="a_node1"><a xlink:title="A real (double) variable.">
<polygon fill="#bfbfbf" stroke="black" points="78,-0.5 78,-19.5 166,-19.5 166,-0.5 78,-0.5"/>
<text text-anchor="middle" x="122" y="-7.5" font-family="Helvetica,sans-Serif" font-size="10.00">ub_var_double</text>
</a>
</g>
</g>
<!-- Node1&#45;&gt;Node1 -->
<g id="edge3" class="edge">
<title>Node1&#45;&gt;Node1</title>
<path fill="none" stroke="#9a32cd" stroke-dasharray="5,2" d="M176.26,-14.71C181.02,-13.72 184,-12.15 184,-10 184,-6.56 176.37,-4.6 166.02,-4.12"/>
<polygon fill="#9a32cd" stroke="#9a32cd" points="175.56,-11.27 166.02,-15.88 176.36,-18.23 175.56,-11.27"/>
<text text-anchor="middle" x="196.5" y="-7.5" font-family="Helvetica,sans-Serif" font-size="10.00"> next</text>
</g>
<!-- Node2 -->
<g id="node2" class="node">
<title>Node2</title>
<g id="a_node2"><a xlink:title=" ">
<polygon fill="none" stroke="#bfbfbf" points="0,-67.5 0,-86.5 50,-86.5 50,-67.5 0,-67.5"/>
<text text-anchor="middle" x="25" y="-74.5" font-family="Helvetica,sans-Serif" font-size="10.00">double</text>
</a>
</g>
</g>
<!-- Node2&#45;&gt;Node1 -->
<g id="edge1" class="edge">
<title>Node2&#45;&gt;Node1</title>
<path fill="none" stroke="#9a32cd" stroke-dasharray="5,2" d="M33.01,-58.29C36.96,-51.18 42.33,-43.4 49,-38 59.39,-29.58 72.67,-23.63 85.04,-19.51"/>
<polygon fill="#9a32cd" stroke="#9a32cd" points="29.85,-56.78 28.5,-67.29 36.11,-59.92 29.85,-56.78"/>
<text text-anchor="middle" x="64.5" y="-41" font-family="Helvetica,sans-Serif" font-size="10.00"> value</text>
</g>
<!-- Node3 -->
<g id="node3" class="node">
<title>Node3</title>
<g id="a_node3"><a xlink:title=" ">
<polygon fill="none" stroke="#bfbfbf" points="68,-67.5 68,-86.5 106,-86.5 106,-67.5 68,-67.5"/>
<text text-anchor="middle" x="87" y="-74.5" font-family="Helvetica,sans-Serif" font-size="10.00">char</text>
</a>
</g>
</g>
<!-- Node3&#45;&gt;Node1 -->
<g id="edge2" class="edge">
<title>Node3&#45;&gt;Node1</title>
<path fill="none" stroke="#9a32cd" stroke-dasharray="5,2" d="M84.37,-56.96C84.3,-50.64 85.13,-43.76 88,-38 91.84,-30.31 99,-24.12 105.76,-19.61"/>
<polygon fill="#9a32cd" stroke="#9a32cd" points="80.92,-57.68 85.23,-67.35 87.89,-57.1 80.92,-57.68"/>
<text text-anchor="middle" x="111.5" y="-41" font-family="Helvetica,sans-Serif" font-size="10.00"> varname</text>
</g>
<!-- Node4 -->
<g id="node4" class="node">
<title>Node4</title>
<g id="a_node4"><a xlink:title=" ">
<polygon fill="none" stroke="#bfbfbf" points="134.5,-67.5 134.5,-86.5 179.5,-86.5 179.5,-67.5 134.5,-67.5"/>
<text text-anchor="middle" x="157" y="-74.5" font-family="Helvetica,sans-Serif" font-size="10.00">size_t</text>
</a>
</g>
</g>
<!-- Node4&#45;&gt;Node1 -->
<g id="edge4" class="edge">
<title>Node4&#45;&gt;Node1</title>
<path fill="none" stroke="#9a32cd" stroke-dasharray="5,2" d="M147.4,-58.16C140.65,-45.63 131.91,-29.41 126.65,-19.63"/>
<polygon fill="#9a32cd" stroke="#9a32cd" points="144.46,-60.09 152.28,-67.23 150.62,-56.77 144.46,-60.09"/>
<text text-anchor="middle" x="174.5" y="-41" font-family="Helvetica,sans-Serif" font-size="10.00"> name_length</text>
</g>
<!-- Node5 -->
<g id="node5" class="node">
<title>Node5</title>
<g id="a_node5"><a xlink:title=" ">
<polygon fill="none" stroke="#bfbfbf" points="228,-67.5 228,-86.5 266,-86.5 266,-67.5 228,-67.5"/>
<text text-anchor="middle" x="247" y="-74.5" font-family="Helvetica,sans-Serif" font-size="10.00">bool</text>
</a>
</g>
</g>
<!-- Node5&#45;&gt;Node1 -->
<g id="edge5" class="edge">
<title>Node5&#45;&gt;Node1</title>
<path fill="none" stroke="#9a32cd" stroke-dasharray="5,2" d="M234.8,-59.09C228.7,-51.69 220.74,-43.47 212,-38 198.17,-29.35 181.41,-23.34 166.12,-19.22"/>
<polygon fill="#9a32cd" stroke="#9a32cd" points="232.17,-61.42 241.06,-67.19 237.71,-57.13 232.17,-61.42"/>
<text text-anchor="middle" x="242" y="-41" font-family="Helvetica,sans-Serif" font-size="10.00"> global</text>
</g>
</g>
</svg>
