<?xml version="1.0" encoding="UTF-8" standalone="no"?>
<!DOCTYPE svg PUBLIC "-//W3C//DTD SVG 1.1//EN"
 "http://www.w3.org/Graphics/SVG/1.1/DTD/svg11.dtd">
<!-- Generated by graphviz version 2.43.0 (0)
 -->
<!-- Title: packet_queue_item_t Pages: 1 -->
<svg width="356pt" height="106pt"
 viewBox="0.00 0.00 355.50 106.00" xmlns="http://www.w3.org/2000/svg" xmlns:xlink="http://www.w3.org/1999/xlink">
<g id="graph0" class="graph" transform="scale(1 1) rotate(0) translate(4 102)">
<title>packet_queue_item_t</title>
<!-- Node1 -->
<g id="node1" class="node">
<title>Node1</title>
<g id="a_node1"><a xlink:title=" ">
<polygon fill="#bfbfbf" stroke="black" points="88.5,-0.5 88.5,-19.5 209.5,-19.5 209.5,-0.5 88.5,-0.5"/>
<text text-anchor="middle" x="149" y="-7.5" font-family="Helvetica,sans-Serif" font-size="10.00">packet_queue_item_t</text>
</a>
</g>
</g>
<!-- Node2 -->
<g id="node2" class="node">
<title>Node2</title>
<g id="a_node2"><a xlink:title=" ">
<polygon fill="none" stroke="#bfbfbf" points="0,-73 0,-92 56,-92 56,-73 0,-73"/>
<text text-anchor="middle" x="28" y="-80" font-family="Helvetica,sans-Serif" font-size="10.00">uint64_t</text>
</a>
</g>
</g>
<!-- Node2&#45;&gt;Node1 -->
<g id="edge1" class="edge">
<title>Node2&#45;&gt;Node1</title>
<path fill="none" stroke="#9a32cd" stroke-dasharray="5,2" d="M43.44,-65.51C52.79,-56.51 65.33,-45.59 78,-38 90.9,-30.27 106.39,-24.08 119.6,-19.58"/>
<polygon fill="#9a32cd" stroke="#9a32cd" points="40.74,-63.26 36.12,-72.79 45.68,-68.22 40.74,-63.26"/>
<text text-anchor="middle" x="99.5" y="-41" font-family="Helvetica,sans-Serif" font-size="10.00"> last_arp</text>
</g>
<!-- Node3 -->
<g id="node3" class="node">
<title>Node3</title>
<g id="a_node3"><a xlink:title=" ">
<polygon fill="none" stroke="#bfbfbf" points="74,-73 74,-92 146,-92 146,-73 74,-73"/>
<text text-anchor="middle" x="110" y="-80" font-family="Helvetica,sans-Serif" font-size="10.00">ip_packet_t</text>
</a>
</g>
</g>
<!-- Node3&#45;&gt;Node1 -->
<g id="edge2" class="edge">
<title>Node3&#45;&gt;Node1</title>
<path fill="none" stroke="#9a32cd" stroke-dasharray="5,2" d="M117.85,-63.84C121.58,-55.82 126.26,-46.29 131,-38 134.58,-31.74 139.08,-24.99 142.68,-19.8"/>
<polygon fill="#9a32cd" stroke="#9a32cd" points="114.64,-62.43 113.69,-72.98 121.02,-65.33 114.64,-62.43"/>
<text text-anchor="middle" x="149" y="-41" font-family="Helvetica,sans-Serif" font-size="10.00"> packet</text>
</g>
<!-- Node4 -->
<g id="node4" class="node">
<title>Node4</title>
<g id="a_node4"><a xlink:title=" ">
<polygon fill="none" stroke="#bfbfbf" points="164,-73 164,-92 214,-92 214,-73 164,-73"/>
<text text-anchor="middle" x="189" y="-80" font-family="Helvetica,sans-Serif" font-size="10.00">uint8_t</text>
</a>
</g>
</g>
<!-- Node4&#45;&gt;Node1 -->
<g id="edge3" class="edge">
<title>Node4&#45;&gt;Node1</title>
<path fill="none" stroke="#9a32cd" stroke-dasharray="5,2" d="M180.53,-63.57C176.63,-55.62 171.8,-46.22 167,-38 163.37,-31.77 158.87,-25.02 155.27,-19.83"/>
<polygon fill="#9a32cd" stroke="#9a32cd" points="177.42,-65.18 184.92,-72.67 183.73,-62.14 177.42,-65.18"/>
<text text-anchor="middle" x="195" y="-41" font-family="Helvetica,sans-Serif" font-size="10.00"> arp_tries</text>
</g>
<!-- Node5 -->
<g id="node5" class="node">
<title>Node5</title>
<g id="a_node5"><a xlink:title=" ">
<polygon fill="none" stroke="#bfbfbf" points="232.5,-67.5 232.5,-97.5 347.5,-97.5 347.5,-67.5 232.5,-67.5"/>
<text text-anchor="start" x="240.5" y="-85.5" font-family="Helvetica,sans-Serif" font-size="10.00">struct packet_queue</text>
<text text-anchor="middle" x="290" y="-74.5" font-family="Helvetica,sans-Serif" font-size="10.00">_item *</text>
</a>
</g>
</g>
<!-- Node5&#45;&gt;Node1 -->
<g id="edge4" class="edge">
<title>Node5&#45;&gt;Node1</title>
<path fill="none" stroke="#9a32cd" stroke-dasharray="5,2" d="M261.81,-61.54C249.87,-53.6 235.6,-44.77 222,-38 207.36,-30.72 190.25,-24.29 176.28,-19.53"/>
<polygon fill="#9a32cd" stroke="#9a32cd" points="260.19,-64.67 270.43,-67.38 264.12,-58.87 260.19,-64.67"/>
<text text-anchor="middle" x="253.5" y="-41" font-family="Helvetica,sans-Serif" font-size="10.00"> next</text>
</g>
</g>
</svg>
