<?xml version="1.0" encoding="UTF-8" standalone="no"?>
<!DOCTYPE svg PUBLIC "-//W3C//DTD SVG 1.1//EN"
 "http://www.w3.org/Graphics/SVG/1.1/DTD/svg11.dtd">
<!-- Generated by graphviz version 2.43.0 (0)
 -->
<!-- Title: arp_packet Pages: 1 -->
<svg width="229pt" height="150pt"
 viewBox="0.00 0.00 229.00 150.00" xmlns="http://www.w3.org/2000/svg" xmlns:xlink="http://www.w3.org/1999/xlink">
<g id="graph0" class="graph" transform="scale(1 1) rotate(0) translate(4 146)">
<title>arp_packet</title>
<!-- Node1 -->
<g id="node1" class="node">
<title>Node1</title>
<g id="a_node1"><a xlink:title="Format of an ARP packet (per RFC 826)">
<polygon fill="#bfbfbf" stroke="black" points="42,-0.5 42,-19.5 112,-19.5 112,-0.5 42,-0.5"/>
<text text-anchor="middle" x="77" y="-7.5" font-family="Helvetica,sans-Serif" font-size="10.00">arp_packet</text>
</a>
</g>
</g>
<!-- Node2 -->
<g id="node2" class="node">
<title>Node2</title>
<g id="a_node2"><a xlink:title=" ">
<polygon fill="none" stroke="#bfbfbf" points="0,-122.5 0,-141.5 56,-141.5 56,-122.5 0,-122.5"/>
<text text-anchor="middle" x="28" y="-129.5" font-family="Helvetica,sans-Serif" font-size="10.00">uint16_t</text>
</a>
</g>
</g>
<!-- Node2&#45;&gt;Node1 -->
<g id="edge1" class="edge">
<title>Node2&#45;&gt;Node1</title>
<path fill="none" stroke="#9a32cd" stroke-dasharray="5,2" d="M23.05,-112.34C18.88,-92.46 15.53,-60.75 29,-38 33.92,-29.69 42.43,-23.73 50.93,-19.57"/>
<polygon fill="#9a32cd" stroke="#9a32cd" points="19.7,-113.37 25.41,-122.29 26.51,-111.75 19.7,-113.37"/>
<text text-anchor="middle" x="67" y="-79.5" font-family="Helvetica,sans-Serif" font-size="10.00"> hardware_type</text>
<text text-anchor="middle" x="67" y="-68.5" font-family="Helvetica,sans-Serif" font-size="10.00">opcode</text>
<text text-anchor="middle" x="67" y="-57.5" font-family="Helvetica,sans-Serif" font-size="10.00">protocol</text>
</g>
<!-- Node3 -->
<g id="node3" class="node">
<title>Node3</title>
<g id="a_node3"><a xlink:title=" ">
<polygon fill="none" stroke="#bfbfbf" points="102,-122.5 102,-141.5 152,-141.5 152,-122.5 102,-122.5"/>
<text text-anchor="middle" x="127" y="-129.5" font-family="Helvetica,sans-Serif" font-size="10.00">uint8_t</text>
</a>
</g>
</g>
<!-- Node3&#45;&gt;Node1 -->
<g id="edge2" class="edge">
<title>Node3&#45;&gt;Node1</title>
<path fill="none" stroke="#9a32cd" stroke-dasharray="5,2" d="M125.7,-112.4C123.65,-92.78 118.39,-61.5 105,-38 100.92,-30.84 94.37,-24.37 88.63,-19.56"/>
<polygon fill="#9a32cd" stroke="#9a32cd" points="122.22,-112.8 126.58,-122.46 129.2,-112.2 122.22,-112.8"/>
<text text-anchor="middle" x="172.5" y="-96" font-family="Helvetica,sans-Serif" font-size="10.00"> dst_hardware_addr</text>
<text text-anchor="middle" x="172.5" y="-85" font-family="Helvetica,sans-Serif" font-size="10.00">dst_protocol_addr</text>
<text text-anchor="middle" x="172.5" y="-74" font-family="Helvetica,sans-Serif" font-size="10.00">hardware_addr_len</text>
<text text-anchor="middle" x="172.5" y="-63" font-family="Helvetica,sans-Serif" font-size="10.00">protocol_addr_len</text>
<text text-anchor="middle" x="172.5" y="-52" font-family="Helvetica,sans-Serif" font-size="10.00">src_hardware_addr</text>
<text text-anchor="middle" x="172.5" y="-41" font-family="Helvetica,sans-Serif" font-size="10.00">src_protocol_addr</text>
</g>
</g>
</svg>
