<?xml version="1.0" encoding="UTF-8" standalone="no"?>
<!DOCTYPE svg PUBLIC "-//W3C//DTD SVG 1.1//EN"
 "http://www.w3.org/Graphics/SVG/1.1/DTD/svg11.dtd">
<!-- Generated by graphviz version 2.43.0 (0)
 -->
<!-- Title: netproto Pages: 1 -->
<svg width="280pt" height="184pt"
 viewBox="0.00 0.00 280.00 184.00" xmlns="http://www.w3.org/2000/svg" xmlns:xlink="http://www.w3.org/1999/xlink">
<g id="graph0" class="graph" transform="scale(1 1) rotate(0) translate(4 180)">
<title>netproto</title>
<!-- Node1 -->
<g id="node1" class="node">
<title>Node1</title>
<g id="a_node1"><a xlink:title="Represents a protocol, or group of related protocols, that can be attached to an interface and can ha...">
<polygon fill="#bfbfbf" stroke="black" points="118,-0.5 118,-19.5 176,-19.5 176,-0.5 118,-0.5"/>
<text text-anchor="middle" x="147" y="-7.5" font-family="Helvetica,sans-Serif" font-size="10.00">netproto</text>
</a>
</g>
</g>
<!-- Node2 -->
<g id="node2" class="node">
<title>Node2</title>
<g id="a_node2"><a xlink:title=" ">
<polygon fill="none" stroke="#bfbfbf" points="0,-78.5 0,-97.5 56,-97.5 56,-78.5 0,-78.5"/>
<text text-anchor="middle" x="28" y="-85.5" font-family="Helvetica,sans-Serif" font-size="10.00">uint16_t</text>
</a>
</g>
</g>
<!-- Node2&#45;&gt;Node1 -->
<g id="edge1" class="edge">
<title>Node2&#45;&gt;Node1</title>
<path fill="none" stroke="#9a32cd" stroke-dasharray="5,2" d="M23.29,-68.43C21.88,-58.37 22.22,-46.34 29,-38 40.04,-24.43 86.64,-17.09 117.87,-13.62"/>
<polygon fill="#9a32cd" stroke="#9a32cd" points="19.87,-69.19 25.27,-78.3 26.73,-67.81 19.87,-69.19"/>
<text text-anchor="middle" x="81" y="-52" font-family="Helvetica,sans-Serif" font-size="10.00"> ethernet_protocol_id</text>
<text text-anchor="middle" x="81" y="-41" font-family="Helvetica,sans-Serif" font-size="10.00">num_addresses</text>
</g>
<!-- Node3 -->
<g id="node3" class="node">
<title>Node3</title>
<g id="a_node3"><a xlink:title=" ">
<polygon fill="none" stroke="#bfbfbf" points="140,-156.5 140,-175.5 178,-175.5 178,-156.5 140,-156.5"/>
<text text-anchor="middle" x="159" y="-163.5" font-family="Helvetica,sans-Serif" font-size="10.00">char</text>
</a>
</g>
</g>
<!-- Node3&#45;&gt;Node1 -->
<g id="edge2" class="edge">
<title>Node3&#45;&gt;Node1</title>
<path fill="none" stroke="#9a32cd" stroke-dasharray="5,2" d="M157.52,-145.98C154.9,-112.37 149.55,-43.76 147.67,-19.63"/>
<polygon fill="#9a32cd" stroke="#9a32cd" points="154.05,-146.58 158.32,-156.28 161.03,-146.04 154.05,-146.58"/>
<text text-anchor="middle" x="168.5" y="-85.5" font-family="Helvetica,sans-Serif" font-size="10.00"> name</text>
</g>
<!-- Node4 -->
<g id="node4" class="node">
<title>Node4</title>
<g id="a_node4"><a xlink:href="structnet__address.html" target="_top" xlink:title="Represents an address that is bound to a protocol on an interface. This is kept as flexible as possib...">
<polygon fill="none" stroke="black" points="196,-78.5 196,-97.5 272,-97.5 272,-78.5 196,-78.5"/>
<text text-anchor="middle" x="234" y="-85.5" font-family="Helvetica,sans-Serif" font-size="10.00">net_address</text>
</a>
</g>
</g>
<!-- Node3&#45;&gt;Node4 -->
<g id="edge4" class="edge">
<title>Node3&#45;&gt;Node4</title>
<path fill="none" stroke="#9a32cd" stroke-dasharray="5,2" d="M171.33,-147.99C178.83,-138.17 188.88,-125.85 199,-116 205.93,-109.26 214.52,-102.61 221.45,-97.6"/>
<polygon fill="#9a32cd" stroke="#9a32cd" points="168.41,-146.06 165.24,-156.17 174.02,-150.24 168.41,-146.06"/>
<text text-anchor="middle" x="214.5" y="-124.5" font-family="Helvetica,sans-Serif" font-size="10.00"> name</text>
</g>
<!-- Node4&#45;&gt;Node1 -->
<g id="edge3" class="edge">
<title>Node4&#45;&gt;Node1</title>
<path fill="none" stroke="#9a32cd" stroke-dasharray="5,2" d="M216.03,-71.3C198.1,-55.64 171.22,-32.16 156.86,-19.62"/>
<polygon fill="#9a32cd" stroke="#9a32cd" points="214.19,-74.34 224.02,-78.28 218.79,-69.07 214.19,-74.34"/>
<text text-anchor="middle" x="226.5" y="-46.5" font-family="Helvetica,sans-Serif" font-size="10.00"> addresses</text>
</g>
<!-- Node5 -->
<g id="node5" class="node">
<title>Node5</title>
<g id="a_node5"><a xlink:title=" ">
<polygon fill="none" stroke="#bfbfbf" points="209,-156.5 209,-175.5 259,-175.5 259,-156.5 209,-156.5"/>
<text text-anchor="middle" x="234" y="-163.5" font-family="Helvetica,sans-Serif" font-size="10.00">uint8_t</text>
</a>
</g>
</g>
<!-- Node5&#45;&gt;Node4 -->
<g id="edge5" class="edge">
<title>Node5&#45;&gt;Node4</title>
<path fill="none" stroke="#9a32cd" stroke-dasharray="5,2" d="M234,-146.22C234,-130.7 234,-109.36 234,-97.62"/>
<polygon fill="#9a32cd" stroke="#9a32cd" points="230.5,-146.28 234,-156.28 237.5,-146.28 230.5,-146.28"/>
<text text-anchor="middle" x="249.5" y="-130" font-family="Helvetica,sans-Serif" font-size="10.00"> bytes</text>
<text text-anchor="middle" x="249.5" y="-119" font-family="Helvetica,sans-Serif" font-size="10.00">length</text>
</g>
</g>
</svg>
