<?xml version="1.0" encoding="UTF-8" standalone="no"?>
<!DOCTYPE svg PUBLIC "-//W3C//DTD SVG 1.1//EN"
 "http://www.w3.org/Graphics/SVG/1.1/DTD/svg11.dtd">
<!-- Generated by graphviz version 2.43.0 (0)
 -->
<!-- Title: for_state Pages: 1 -->
<svg width="178pt" height="117pt"
 viewBox="0.00 0.00 178.00 117.00" xmlns="http://www.w3.org/2000/svg" xmlns:xlink="http://www.w3.org/1999/xlink">
<g id="graph0" class="graph" transform="scale(1 1) rotate(0) translate(4 113)">
<title>for_state</title>
<!-- Node1 -->
<g id="node1" class="node">
<title>Node1</title>
<g id="a_node1"><a xlink:title="State for a FOR...NEXT loop.">
<polygon fill="#bfbfbf" stroke="black" points="40,-0.5 40,-19.5 100,-19.5 100,-0.5 40,-0.5"/>
<text text-anchor="middle" x="70" y="-7.5" font-family="Helvetica,sans-Serif" font-size="10.00">for_state</text>
</a>
</g>
</g>
<!-- Node2 -->
<g id="node2" class="node">
<title>Node2</title>
<g id="a_node2"><a xlink:title=" ">
<polygon fill="none" stroke="black" points="0,-89.5 0,-108.5 50,-108.5 50,-89.5 0,-89.5"/>
<text text-anchor="middle" x="25" y="-96.5" font-family="Helvetica,sans-Serif" font-size="10.00">int64_t</text>
</a>
</g>
</g>
<!-- Node2&#45;&gt;Node1 -->
<g id="edge1" class="edge">
<title>Node2&#45;&gt;Node1</title>
<path fill="none" stroke="#9a32cd" stroke-dasharray="5,2" d="M20.83,-79C19.14,-66.54 18.96,-50.33 26,-38 30.62,-29.9 38.75,-23.93 46.77,-19.69"/>
<polygon fill="#9a32cd" stroke="#9a32cd" points="17.45,-79.95 22.66,-89.17 24.34,-78.71 17.45,-79.95"/>
<text text-anchor="middle" x="60" y="-63" font-family="Helvetica,sans-Serif" font-size="10.00"> line_after_for</text>
<text text-anchor="middle" x="60" y="-52" font-family="Helvetica,sans-Serif" font-size="10.00">step</text>
<text text-anchor="middle" x="60" y="-41" font-family="Helvetica,sans-Serif" font-size="10.00">to</text>
</g>
<!-- Node3 -->
<g id="node3" class="node">
<title>Node3</title>
<g id="a_node3"><a xlink:title=" ">
<polygon fill="none" stroke="black" points="97,-89.5 97,-108.5 135,-108.5 135,-89.5 97,-89.5"/>
<text text-anchor="middle" x="116" y="-96.5" font-family="Helvetica,sans-Serif" font-size="10.00">char</text>
</a>
</g>
</g>
<!-- Node3&#45;&gt;Node1 -->
<g id="edge2" class="edge">
<title>Node3&#45;&gt;Node1</title>
<path fill="none" stroke="#9a32cd" stroke-dasharray="5,2" d="M111.16,-79.42C107.49,-67.14 101.76,-50.98 94,-38 90.01,-31.33 84.25,-24.78 79.38,-19.81"/>
<polygon fill="#9a32cd" stroke="#9a32cd" points="107.88,-80.71 113.94,-89.4 114.63,-78.83 107.88,-80.71"/>
<text text-anchor="middle" x="139" y="-52" font-family="Helvetica,sans-Serif" font-size="10.00"> for_variable</text>
</g>
</g>
</svg>
