<?xml version="1.0" encoding="UTF-8" standalone="no"?>
<!DOCTYPE svg PUBLIC "-//W3C//DTD SVG 1.1//EN"
 "http://www.w3.org/Graphics/SVG/1.1/DTD/svg11.dtd">
<!-- Generated by graphviz version 2.43.0 (0)
 -->
<!-- Title: ubasic_ctx Pages: 1 -->
<svg width="677pt" height="1081pt"
 viewBox="0.00 0.00 677.00 1081.06" xmlns="http://www.w3.org/2000/svg" xmlns:xlink="http://www.w3.org/1999/xlink">
<g id="graph0" class="graph" transform="scale(1 1) rotate(0) translate(4 1077.06)">
<title>ubasic_ctx</title>
<!-- Node1 -->
<g id="node1" class="node">
<title>Node1</title>
<g id="a_node1"><a xlink:title="BASIC program context Every instance of a BASIC program has one of these, also certain structures suc...">
<polygon fill="#bfbfbf" stroke="black" points="601,-493.56 601,-512.56 669,-512.56 669,-493.56 601,-493.56"/>
<text text-anchor="middle" x="635" y="-500.56" font-family="Helvetica,sans-Serif" font-size="10.00">ubasic_ctx</text>
</a>
</g>
</g>
<!-- Node2 -->
<g id="node2" class="node">
<title>Node2</title>
<g id="a_node2"><a xlink:title=" ">
<polygon fill="none" stroke="#bfbfbf" points="342.5,-1031.56 342.5,-1050.56 432.5,-1050.56 432.5,-1031.56 342.5,-1031.56"/>
<text text-anchor="middle" x="387.5" y="-1038.56" font-family="Helvetica,sans-Serif" font-size="10.00">ub_return_type</text>
</a>
</g>
</g>
<!-- Node2&#45;&gt;Node1 -->
<g id="edge1" class="edge">
<title>Node2&#45;&gt;Node1</title>
<path fill="none" stroke="#9a32cd" stroke-dasharray="5,2" d="M442.77,-1050.6C486.89,-1054.97 547.45,-1052.64 583,-1016.06 619.49,-978.51 631.88,-580.99 633.74,-512.94"/>
<polygon fill="#9a32cd" stroke="#9a32cd" points="443.11,-1047.12 432.78,-1049.48 442.32,-1054.08 443.11,-1047.12"/>
<text text-anchor="middle" x="524" y="-1055.06" font-family="Helvetica,sans-Serif" font-size="10.00"> fn_type</text>
</g>
<!-- Node3 -->
<g id="node3" class="node">
<title>Node3</title>
<g id="a_node3"><a xlink:href="structub__var__double__array.html" target="_top" xlink:title="An array of real (double)">
<polygon fill="none" stroke="black" points="328,-771.56 328,-790.56 447,-790.56 447,-771.56 328,-771.56"/>
<text text-anchor="middle" x="387.5" y="-778.56" font-family="Helvetica,sans-Serif" font-size="10.00">ub_var_double_array</text>
</a>
</g>
</g>
<!-- Node3&#45;&gt;Node1 -->
<g id="edge2" class="edge">
<title>Node3&#45;&gt;Node1</title>
<path fill="none" stroke="#9a32cd" stroke-dasharray="5,2" d="M457.33,-787.01C498.99,-786.7 550.23,-778.77 583,-747.06 617.6,-713.58 630.58,-553.98 633.39,-512.78"/>
<polygon fill="#9a32cd" stroke="#9a32cd" points="457.26,-783.51 447.24,-786.94 457.22,-790.51 457.26,-783.51"/>
<text text-anchor="middle" x="524" y="-789.06" font-family="Helvetica,sans-Serif" font-size="10.00"> double_array_variables</text>
</g>
<!-- Node3&#45;&gt;Node3 -->
<g id="edge3" class="edge">
<title>Node3&#45;&gt;Node3</title>
<path fill="none" stroke="#9a32cd" stroke-dasharray="5,2" d="M367.13,-800.46C368.49,-805.37 375.28,-809.06 387.5,-809.06 407.05,-809.06 412.7,-799.63 404.45,-790.82"/>
<polygon fill="#9a32cd" stroke="#9a32cd" points="370.51,-801.41 370.55,-790.82 363.91,-799.08 370.51,-801.41"/>
<text text-anchor="middle" x="387.5" y="-812.06" font-family="Helvetica,sans-Serif" font-size="10.00"> next</text>
</g>
<!-- Node4 -->
<g id="node4" class="node">
<title>Node4</title>
<g id="a_node4"><a xlink:title=" ">
<polygon fill="none" stroke="#bfbfbf" points="160.5,-848.56 160.5,-867.56 216.5,-867.56 216.5,-848.56 160.5,-848.56"/>
<text text-anchor="middle" x="188.5" y="-855.56" font-family="Helvetica,sans-Serif" font-size="10.00">uint64_t</text>
</a>
</g>
</g>
<!-- Node4&#45;&gt;Node1 -->
<g id="edge16" class="edge">
<title>Node4&#45;&gt;Node1</title>
<path fill="none" stroke="#9a32cd" stroke-dasharray="5,2" d="M219.36,-871.74C294.3,-903.8 490.86,-973.41 583,-868.06 631.12,-813.03 633.97,-565.44 634.03,-512.89"/>
<polygon fill="#9a32cd" stroke="#9a32cd" points="220.59,-868.46 210.03,-867.67 217.79,-874.87 220.59,-868.46"/>
<text text-anchor="middle" x="387.5" y="-949.06" font-family="Helvetica,sans-Serif" font-size="10.00"> for_stack_ptr</text>
<text text-anchor="middle" x="387.5" y="-938.06" font-family="Helvetica,sans-Serif" font-size="10.00">gosub_stack</text>
<text text-anchor="middle" x="387.5" y="-927.06" font-family="Helvetica,sans-Serif" font-size="10.00">gosub_stack_ptr</text>
</g>
<!-- Node4&#45;&gt;Node3 -->
<g id="edge4" class="edge">
<title>Node4&#45;&gt;Node3</title>
<path fill="none" stroke="#9a32cd" stroke-dasharray="5,2" d="M226.76,-849.34C256.31,-842.21 295.04,-832.31 310,-826.06 333.18,-816.38 357.85,-800.78 372.72,-790.73"/>
<polygon fill="#9a32cd" stroke="#9a32cd" points="225.66,-846 216.75,-851.74 227.29,-852.81 225.66,-846"/>
<text text-anchor="middle" x="276" y="-848.06" font-family="Helvetica,sans-Serif" font-size="10.00"> itemcount</text>
</g>
<!-- Node7 -->
<g id="node7" class="node">
<title>Node7</title>
<g id="a_node7"><a xlink:href="structub__var__string__array.html" target="_top" xlink:title="An array of strings.">
<polygon fill="none" stroke="black" points="331,-848.56 331,-867.56 444,-867.56 444,-848.56 331,-848.56"/>
<text text-anchor="middle" x="387.5" y="-855.56" font-family="Helvetica,sans-Serif" font-size="10.00">ub_var_string_array</text>
</a>
</g>
</g>
<!-- Node4&#45;&gt;Node7 -->
<g id="edge9" class="edge">
<title>Node4&#45;&gt;Node7</title>
<path fill="none" stroke="#9a32cd" stroke-dasharray="5,2" d="M226.94,-859.66C232,-859.83 237.13,-859.97 242,-860.06 272.22,-860.64 279.78,-860.46 310,-860.06 316.78,-859.97 323.89,-859.84 330.93,-859.68"/>
<polygon fill="#9a32cd" stroke="#9a32cd" points="226.86,-856.16 216.74,-859.3 226.61,-863.15 226.86,-856.16"/>
<text text-anchor="middle" x="276" y="-863.06" font-family="Helvetica,sans-Serif" font-size="10.00"> itemcount</text>
</g>
<!-- Node18 -->
<g id="node18" class="node">
<title>Node18</title>
<g id="a_node18"><a xlink:href="structub__var__int__array.html" target="_top" xlink:title="An array of integers.">
<polygon fill="none" stroke="black" points="338.5,-283.56 338.5,-302.56 436.5,-302.56 436.5,-283.56 338.5,-283.56"/>
<text text-anchor="middle" x="387.5" y="-290.56" font-family="Helvetica,sans-Serif" font-size="10.00">ub_var_int_array</text>
</a>
</g>
</g>
<!-- Node4&#45;&gt;Node18 -->
<g id="edge32" class="edge">
<title>Node4&#45;&gt;Node18</title>
<path fill="none" stroke="#9a32cd" stroke-dasharray="5,2" d="M210.26,-841.94C214.88,-838.16 219.68,-834.06 224,-830.06 232.53,-822.16 233.05,-818.49 242,-811.06 269.69,-788.05 292.13,-798.31 310,-767.06 357.03,-684.8 285.69,-425.84 328,-341.06 336.51,-324.02 354.15,-310.88 367.84,-302.69"/>
<polygon fill="#9a32cd" stroke="#9a32cd" points="207.9,-839.35 202.29,-848.33 212.28,-844.81 207.9,-839.35"/>
<text text-anchor="middle" x="276" y="-814.06" font-family="Helvetica,sans-Serif" font-size="10.00"> itemcount</text>
</g>
<!-- Node5 -->
<g id="node5" class="node">
<title>Node5</title>
<g id="a_node5"><a xlink:title=" ">
<polygon fill="none" stroke="#bfbfbf" points="163.5,-648.56 163.5,-667.56 213.5,-667.56 213.5,-648.56 163.5,-648.56"/>
<text text-anchor="middle" x="188.5" y="-655.56" font-family="Helvetica,sans-Serif" font-size="10.00">double</text>
</a>
</g>
</g>
<!-- Node5&#45;&gt;Node3 -->
<g id="edge5" class="edge">
<title>Node5&#45;&gt;Node3</title>
<path fill="none" stroke="#9a32cd" stroke-dasharray="5,2" d="M224.01,-656.23C249.82,-656.54 284.85,-660.69 310,-678.06 323.11,-687.12 318.95,-695.95 328,-709.06 344.1,-732.39 365.72,-757.67 377.65,-771.2"/>
<polygon fill="#9a32cd" stroke="#9a32cd" points="223.89,-652.73 213.92,-656.29 223.94,-659.73 223.89,-652.73"/>
<text text-anchor="middle" x="276" y="-681.06" font-family="Helvetica,sans-Serif" font-size="10.00"> values</text>
</g>
<!-- Node15 -->
<g id="node15" class="node">
<title>Node15</title>
<g id="a_node15"><a xlink:href="structub__var__double.html" target="_top" xlink:title="A real (double) variable.">
<polygon fill="none" stroke="black" points="343.5,-598.56 343.5,-617.56 431.5,-617.56 431.5,-598.56 343.5,-598.56"/>
<text text-anchor="middle" x="387.5" y="-605.56" font-family="Helvetica,sans-Serif" font-size="10.00">ub_var_double</text>
</a>
</g>
</g>
<!-- Node5&#45;&gt;Node15 -->
<g id="edge25" class="edge">
<title>Node5&#45;&gt;Node15</title>
<path fill="none" stroke="#9a32cd" stroke-dasharray="5,2" d="M223.55,-648.89C229.69,-647.27 236.03,-645.6 242,-644.06 277.67,-634.86 318.41,-624.75 347.51,-617.59"/>
<polygon fill="#9a32cd" stroke="#9a32cd" points="222.28,-645.61 213.52,-651.57 224.09,-652.37 222.28,-645.61"/>
<text text-anchor="middle" x="276" y="-647.06" font-family="Helvetica,sans-Serif" font-size="10.00"> value</text>
</g>
<!-- Node6 -->
<g id="node6" class="node">
<title>Node6</title>
<g id="a_node6"><a xlink:title=" ">
<polygon fill="none" stroke="#bfbfbf" points="6,-448.56 6,-467.56 44,-467.56 44,-448.56 6,-448.56"/>
<text text-anchor="middle" x="25" y="-455.56" font-family="Helvetica,sans-Serif" font-size="10.00">char</text>
</a>
</g>
</g>
<!-- Node6&#45;&gt;Node1 -->
<g id="edge17" class="edge">
<title>Node6&#45;&gt;Node1</title>
<path fill="none" stroke="#9a32cd" stroke-dasharray="5,2" d="M30.91,-477.26C43.17,-520.98 79.59,-627.94 153,-677.06 186.17,-699.26 202.29,-685 242,-689.06 393.61,-704.55 473.73,-759.29 583,-653.06 624.02,-613.18 632.05,-539.08 633.62,-512.7"/>
<polygon fill="#9a32cd" stroke="#9a32cd" points="34.28,-476.33 28.3,-467.58 27.52,-478.15 34.28,-476.33"/>
<text text-anchor="middle" x="276" y="-745.06" font-family="Helvetica,sans-Serif" font-size="10.00"> item_begin</text>
<text text-anchor="middle" x="276" y="-734.06" font-family="Helvetica,sans-Serif" font-size="10.00">nextptr</text>
<text text-anchor="middle" x="276" y="-723.06" font-family="Helvetica,sans-Serif" font-size="10.00">program_ptr</text>
<text text-anchor="middle" x="276" y="-712.06" font-family="Helvetica,sans-Serif" font-size="10.00">ptr</text>
<text text-anchor="middle" x="276" y="-701.06" font-family="Helvetica,sans-Serif" font-size="10.00">string</text>
</g>
<!-- Node6&#45;&gt;Node3 -->
<g id="edge6" class="edge">
<title>Node6&#45;&gt;Node3</title>
<path fill="none" stroke="#9a32cd" stroke-dasharray="5,2" d="M26.69,-477.73C28.99,-532.66 38.01,-686.22 68,-725.06 136.9,-814.29 198.19,-815.44 310,-801.06 325.79,-799.03 342.98,-794.73 357.06,-790.64"/>
<polygon fill="#9a32cd" stroke="#9a32cd" points="30.18,-477.44 26.3,-467.58 23.19,-477.71 30.18,-477.44"/>
<text text-anchor="middle" x="188.5" y="-810.06" font-family="Helvetica,sans-Serif" font-size="10.00"> varname</text>
</g>
<!-- Node6&#45;&gt;Node7 -->
<g id="edge10" class="edge">
<title>Node6&#45;&gt;Node7</title>
<path fill="none" stroke="#9a32cd" stroke-dasharray="5,2" d="M27.31,-477.88C31.48,-537.76 45.5,-715.92 68,-769.06 91.82,-825.31 98.05,-850.38 153,-877.06 222.88,-910.99 318.47,-883.71 362.5,-867.68"/>
<polygon fill="#9a32cd" stroke="#9a32cd" points="30.8,-477.58 26.63,-467.84 23.81,-478.06 30.8,-477.58"/>
<text text-anchor="middle" x="188.5" y="-907.06" font-family="Helvetica,sans-Serif" font-size="10.00"> values</text>
<text text-anchor="middle" x="188.5" y="-896.06" font-family="Helvetica,sans-Serif" font-size="10.00">varname</text>
</g>
<!-- Node8 -->
<g id="node8" class="node">
<title>Node8</title>
<g id="a_node8"><a xlink:href="structub__var__int.html" target="_top" xlink:title="An integer variable.">
<polygon fill="none" stroke="black" points="353.5,-426.56 353.5,-445.56 421.5,-445.56 421.5,-426.56 353.5,-426.56"/>
<text text-anchor="middle" x="387.5" y="-433.56" font-family="Helvetica,sans-Serif" font-size="10.00">ub_var_int</text>
</a>
</g>
</g>
<!-- Node6&#45;&gt;Node8 -->
<g id="edge13" class="edge">
<title>Node6&#45;&gt;Node8</title>
<path fill="none" stroke="#9a32cd" stroke-dasharray="5,2" d="M53.91,-448.32C79.35,-440.04 118.17,-428.91 153,-425.06 223.99,-417.22 307.74,-425.36 353.14,-431.21"/>
<polygon fill="#9a32cd" stroke="#9a32cd" points="52.58,-445.07 44.2,-451.55 54.79,-451.72 52.58,-445.07"/>
<text text-anchor="middle" x="188.5" y="-428.06" font-family="Helvetica,sans-Serif" font-size="10.00"> varname</text>
</g>
<!-- Node11 -->
<g id="node11" class="node">
<title>Node11</title>
<g id="a_node11"><a xlink:href="structconsole.html" target="_top" xlink:title=" ">
<polygon fill="none" stroke="black" points="161.5,-991.56 161.5,-1010.56 215.5,-1010.56 215.5,-991.56 161.5,-991.56"/>
<text text-anchor="middle" x="188.5" y="-998.56" font-family="Helvetica,sans-Serif" font-size="10.00">console</text>
</a>
</g>
</g>
<!-- Node6&#45;&gt;Node11 -->
<g id="edge19" class="edge">
<title>Node6&#45;&gt;Node11</title>
<path fill="none" stroke="#9a32cd" stroke-dasharray="5,2" d="M26.76,-477.77C30.12,-561.2 44.5,-882.8 68,-921.06 86.39,-951.01 105.86,-943.41 135,-963.06 148.81,-972.37 164.2,-983.62 174.72,-991.45"/>
<polygon fill="#9a32cd" stroke="#9a32cd" points="30.25,-477.48 26.36,-467.63 23.26,-477.76 30.25,-477.48"/>
<text text-anchor="middle" x="101.5" y="-988.06" font-family="Helvetica,sans-Serif" font-size="10.00"> buffer</text>
<text text-anchor="middle" x="101.5" y="-977.06" font-family="Helvetica,sans-Serif" font-size="10.00">dirty</text>
<text text-anchor="middle" x="101.5" y="-966.06" font-family="Helvetica,sans-Serif" font-size="10.00">internalbuffer</text>
</g>
<!-- Node6&#45;&gt;Node15 -->
<g id="edge26" class="edge">
<title>Node6&#45;&gt;Node15</title>
<path fill="none" stroke="#9a32cd" stroke-dasharray="5,2" d="M54.21,-465.26C124.11,-483.19 300.42,-529.08 310,-538.06 327.54,-554.5 310.79,-572.28 328,-589.06 332.36,-593.31 337.68,-596.61 343.31,-599.17"/>
<polygon fill="#9a32cd" stroke="#9a32cd" points="54.87,-461.82 44.32,-462.73 53.14,-468.6 54.87,-461.82"/>
<text text-anchor="middle" x="188.5" y="-512.06" font-family="Helvetica,sans-Serif" font-size="10.00"> varname</text>
</g>
<!-- Node6&#45;&gt;Node18 -->
<g id="edge33" class="edge">
<title>Node6&#45;&gt;Node18</title>
<path fill="none" stroke="#9a32cd" stroke-dasharray="5,2" d="M42.87,-441.33C50.12,-434.88 58.99,-427.91 68,-423.06 166.92,-369.81 209.67,-400.6 310,-350.06 335.74,-337.09 361.83,-315.42 375.9,-302.87"/>
<polygon fill="#9a32cd" stroke="#9a32cd" points="40.11,-439.12 35.19,-448.5 44.89,-444.23 40.11,-439.12"/>
<text text-anchor="middle" x="188.5" y="-394.06" font-family="Helvetica,sans-Serif" font-size="10.00"> varname</text>
</g>
<!-- Node19 -->
<g id="node19" class="node">
<title>Node19</title>
<g id="a_node19"><a xlink:href="structub__proc__fn__def.html" target="_top" xlink:title="Procedure or function definition Each has a name, a type, a starting line and a parameter list.">
<polygon fill="none" stroke="black" points="342,-120.56 342,-139.56 433,-139.56 433,-120.56 342,-120.56"/>
<text text-anchor="middle" x="387.5" y="-127.56" font-family="Helvetica,sans-Serif" font-size="10.00">ub_proc_fn_def</text>
</a>
</g>
</g>
<!-- Node6&#45;&gt;Node19 -->
<g id="edge39" class="edge">
<title>Node6&#45;&gt;Node19</title>
<path fill="none" stroke="#9a32cd" stroke-dasharray="5,2" d="M25.42,-438.12C24.83,-374.39 32.95,-175.79 153,-106.06 185.07,-87.44 289.56,-107.42 347.29,-120.53"/>
<polygon fill="#9a32cd" stroke="#9a32cd" points="21.93,-438.45 25.61,-448.38 28.93,-438.32 21.93,-438.45"/>
<text text-anchor="middle" x="188.5" y="-109.06" font-family="Helvetica,sans-Serif" font-size="10.00"> name</text>
</g>
<!-- Node21 -->
<g id="node21" class="node">
<title>Node21</title>
<g id="a_node21"><a xlink:href="structub__param.html" target="_top" xlink:title="FN/PROC parameter.">
<polygon fill="none" stroke="black" points="156,-12.56 156,-31.56 221,-31.56 221,-12.56 156,-12.56"/>
<text text-anchor="middle" x="188.5" y="-19.56" font-family="Helvetica,sans-Serif" font-size="10.00">ub_param</text>
</a>
</g>
</g>
<!-- Node6&#45;&gt;Node21 -->
<g id="edge43" class="edge">
<title>Node6&#45;&gt;Node21</title>
<path fill="none" stroke="#9a32cd" stroke-dasharray="5,2" d="M25.59,-438.38C24.49,-368.13 24.16,-130.77 68,-72.06 88.79,-44.22 128.01,-31.77 155.84,-26.28"/>
<polygon fill="#9a32cd" stroke="#9a32cd" points="22.09,-438.57 25.77,-448.5 29.09,-438.44 22.09,-438.57"/>
<text text-anchor="middle" x="101.5" y="-75.06" font-family="Helvetica,sans-Serif" font-size="10.00"> name</text>
</g>
<!-- Node22 -->
<g id="node22" class="node">
<title>Node22</title>
<g id="a_node22"><a xlink:href="structub__var__string.html" target="_top" xlink:title="A string variable.">
<polygon fill="none" stroke="black" points="346,-531.56 346,-550.56 429,-550.56 429,-531.56 346,-531.56"/>
<text text-anchor="middle" x="387.5" y="-538.56" font-family="Helvetica,sans-Serif" font-size="10.00">ub_var_string</text>
</a>
</g>
</g>
<!-- Node6&#45;&gt;Node22 -->
<g id="edge46" class="edge">
<title>Node6&#45;&gt;Node22</title>
<path fill="none" stroke="#9a32cd" stroke-dasharray="5,2" d="M54.24,-456.39C117.81,-453.21 269.78,-448.96 310,-478.06 327.12,-490.45 312.52,-507.69 328,-522.06 333.09,-526.78 339.36,-530.33 345.89,-533"/>
<polygon fill="#9a32cd" stroke="#9a32cd" points="53.93,-452.91 44.13,-456.93 54.3,-459.9 53.93,-452.91"/>
<text text-anchor="middle" x="188.5" y="-470.06" font-family="Helvetica,sans-Serif" font-size="10.00"> value</text>
<text text-anchor="middle" x="188.5" y="-459.06" font-family="Helvetica,sans-Serif" font-size="10.00">varname</text>
</g>
<!-- Node24 -->
<g id="node24" class="node">
<title>Node24</title>
<g id="a_node24"><a xlink:href="structfor__state.html" target="_top" xlink:title="State for a FOR...NEXT loop.">
<polygon fill="none" stroke="black" points="357.5,-187.56 357.5,-206.56 417.5,-206.56 417.5,-187.56 357.5,-187.56"/>
<text text-anchor="middle" x="387.5" y="-194.56" font-family="Helvetica,sans-Serif" font-size="10.00">for_state</text>
</a>
</g>
</g>
<!-- Node6&#45;&gt;Node24 -->
<g id="edge51" class="edge">
<title>Node6&#45;&gt;Node24</title>
<path fill="none" stroke="#9a32cd" stroke-dasharray="5,2" d="M32.42,-438.89C47.24,-397.33 87.66,-298.1 153,-241.06 211.11,-190.33 308.92,-190.24 357.42,-193.87"/>
<polygon fill="#9a32cd" stroke="#9a32cd" points="29.1,-437.77 29.13,-448.36 35.71,-440.06 29.1,-437.77"/>
<text text-anchor="middle" x="188.5" y="-244.06" font-family="Helvetica,sans-Serif" font-size="10.00"> for_variable</text>
</g>
<!-- Node7&#45;&gt;Node1 -->
<g id="edge7" class="edge">
<title>Node7&#45;&gt;Node1</title>
<path fill="none" stroke="#9a32cd" stroke-dasharray="5,2" d="M454.28,-855.95C497.12,-850.95 550.83,-837.19 583,-801.06 622.36,-756.87 631.95,-559.31 633.68,-512.86"/>
<polygon fill="#9a32cd" stroke="#9a32cd" points="453.79,-852.48 444.2,-856.99 454.51,-859.44 453.79,-852.48"/>
<text text-anchor="middle" x="524" y="-856.06" font-family="Helvetica,sans-Serif" font-size="10.00"> string_array_variables</text>
</g>
<!-- Node7&#45;&gt;Node7 -->
<g id="edge8" class="edge">
<title>Node7&#45;&gt;Node7</title>
<path fill="none" stroke="#9a32cd" stroke-dasharray="5,2" d="M367.13,-877.46C368.49,-882.37 375.28,-886.06 387.5,-886.06 407.05,-886.06 412.7,-876.63 404.45,-867.82"/>
<polygon fill="#9a32cd" stroke="#9a32cd" points="370.51,-878.41 370.55,-867.82 363.91,-876.08 370.51,-878.41"/>
<text text-anchor="middle" x="387.5" y="-889.06" font-family="Helvetica,sans-Serif" font-size="10.00"> next</text>
</g>
<!-- Node8&#45;&gt;Node1 -->
<g id="edge11" class="edge">
<title>Node8&#45;&gt;Node1</title>
<path fill="none" stroke="#9a32cd" stroke-dasharray="5,2" d="M431.52,-441.79C471.54,-447.9 532.41,-459.19 583,-477.06 595.18,-481.36 608.14,-488 617.95,-493.49"/>
<polygon fill="#9a32cd" stroke="#9a32cd" points="431.98,-438.32 421.57,-440.32 430.95,-445.25 431.98,-438.32"/>
<text text-anchor="middle" x="524" y="-491.06" font-family="Helvetica,sans-Serif" font-size="10.00"> int_variables</text>
<text text-anchor="middle" x="524" y="-480.06" font-family="Helvetica,sans-Serif" font-size="10.00">local_int_variables</text>
</g>
<!-- Node8&#45;&gt;Node8 -->
<g id="edge12" class="edge">
<title>Node8&#45;&gt;Node8</title>
<path fill="none" stroke="#9a32cd" stroke-dasharray="5,2" d="M367.13,-455.46C368.49,-460.37 375.28,-464.06 387.5,-464.06 407.05,-464.06 412.7,-454.63 404.45,-445.82"/>
<polygon fill="#9a32cd" stroke="#9a32cd" points="370.51,-456.41 370.55,-445.82 363.91,-454.08 370.51,-456.41"/>
<text text-anchor="middle" x="387.5" y="-467.06" font-family="Helvetica,sans-Serif" font-size="10.00"> next</text>
</g>
<!-- Node9 -->
<g id="node9" class="node">
<title>Node9</title>
<g id="a_node9"><a xlink:title=" ">
<polygon fill="none" stroke="#bfbfbf" points="163.5,-261.56 163.5,-280.56 213.5,-280.56 213.5,-261.56 163.5,-261.56"/>
<text text-anchor="middle" x="188.5" y="-268.56" font-family="Helvetica,sans-Serif" font-size="10.00">int64_t</text>
</a>
</g>
</g>
<!-- Node9&#45;&gt;Node1 -->
<g id="edge22" class="edge">
<title>Node9&#45;&gt;Node1</title>
<path fill="none" stroke="#9a32cd" stroke-dasharray="5,2" d="M223.8,-268.5C248.04,-266.35 281.19,-262.7 310,-257.06 318.15,-255.47 319.77,-253.18 328,-252.06 441.07,-236.65 501.92,-201.76 583,-282.06 613.92,-312.68 629.46,-455.13 633.13,-493.51"/>
<polygon fill="#9a32cd" stroke="#9a32cd" points="223.34,-265.03 213.68,-269.36 223.94,-272 223.34,-265.03"/>
<text text-anchor="middle" x="387.5" y="-266.06" font-family="Helvetica,sans-Serif" font-size="10.00"> current_linenum</text>
<text text-anchor="middle" x="387.5" y="-255.06" font-family="Helvetica,sans-Serif" font-size="10.00">eval_linenum</text>
</g>
<!-- Node9&#45;&gt;Node8 -->
<g id="edge14" class="edge">
<title>Node9&#45;&gt;Node8</title>
<path fill="none" stroke="#9a32cd" stroke-dasharray="5,2" d="M209.35,-286.95C234.69,-307.88 278.96,-346.68 310,-386.06 319.86,-398.57 315.61,-407.05 328,-417.06 335.31,-422.96 344.51,-427.05 353.43,-429.88"/>
<polygon fill="#9a32cd" stroke="#9a32cd" points="211.48,-284.18 201.52,-280.56 207.06,-289.6 211.48,-284.18"/>
<text text-anchor="middle" x="276" y="-389.06" font-family="Helvetica,sans-Serif" font-size="10.00"> value</text>
</g>
<!-- Node9&#45;&gt;Node18 -->
<g id="edge34" class="edge">
<title>Node9&#45;&gt;Node18</title>
<path fill="none" stroke="#9a32cd" stroke-dasharray="5,2" d="M223.64,-278.89C229.73,-280.09 236.03,-281.21 242,-282.06 274.01,-286.61 310.29,-289.37 338.49,-290.98"/>
<polygon fill="#9a32cd" stroke="#9a32cd" points="224.19,-275.43 213.69,-276.82 222.77,-282.28 224.19,-275.43"/>
<text text-anchor="middle" x="276" y="-291.06" font-family="Helvetica,sans-Serif" font-size="10.00"> values</text>
</g>
<!-- Node9&#45;&gt;Node19 -->
<g id="edge40" class="edge">
<title>Node9&#45;&gt;Node19</title>
<path fill="none" stroke="#9a32cd" stroke-dasharray="5,2" d="M197.22,-252.27C205.71,-233.68 220.99,-205.55 242,-188.06 271.6,-163.41 313.02,-148.24 343.93,-139.62"/>
<polygon fill="#9a32cd" stroke="#9a32cd" points="193.99,-250.92 193.2,-261.49 200.41,-253.72 193.99,-250.92"/>
<text text-anchor="middle" x="276" y="-191.06" font-family="Helvetica,sans-Serif" font-size="10.00"> line</text>
</g>
<!-- Node9&#45;&gt;Node24 -->
<g id="edge52" class="edge">
<title>Node9&#45;&gt;Node24</title>
<path fill="none" stroke="#9a32cd" stroke-dasharray="5,2" d="M204.2,-253.81C213.89,-243.57 227.45,-231.22 242,-224.06 279.09,-205.8 327.11,-199.84 357.36,-197.92"/>
<polygon fill="#9a32cd" stroke="#9a32cd" points="201.42,-251.67 197.31,-261.44 206.61,-256.36 201.42,-251.67"/>
<text text-anchor="middle" x="276" y="-249.06" font-family="Helvetica,sans-Serif" font-size="10.00"> line_after_for</text>
<text text-anchor="middle" x="276" y="-238.06" font-family="Helvetica,sans-Serif" font-size="10.00">step</text>
<text text-anchor="middle" x="276" y="-227.06" font-family="Helvetica,sans-Serif" font-size="10.00">to</text>
</g>
<!-- Node10 -->
<g id="node10" class="node">
<title>Node10</title>
<g id="a_node10"><a xlink:title=" ">
<polygon fill="none" stroke="#bfbfbf" points="169.5,-560.56 169.5,-579.56 207.5,-579.56 207.5,-560.56 169.5,-560.56"/>
<text text-anchor="middle" x="188.5" y="-567.56" font-family="Helvetica,sans-Serif" font-size="10.00">bool</text>
</a>
</g>
</g>
<!-- Node10&#45;&gt;Node1 -->
<g id="edge36" class="edge">
<title>Node10&#45;&gt;Node1</title>
<path fill="none" stroke="#9a32cd" stroke-dasharray="5,2" d="M216.81,-584.03C224.87,-588.03 233.74,-592.32 242,-596.06 271.77,-609.54 285.53,-602.4 310,-624.06 322.22,-634.88 313.91,-647.82 328,-656.06 373.65,-682.76 394.46,-662.16 447,-656.06 508.68,-648.9 535.57,-664.13 583,-624.06 618.35,-594.19 629.71,-535.61 632.89,-512.63"/>
<polygon fill="#9a32cd" stroke="#9a32cd" points="218.32,-580.88 207.82,-579.52 215.19,-587.13 218.32,-580.88"/>
<text text-anchor="middle" x="387.5" y="-683.06" font-family="Helvetica,sans-Serif" font-size="10.00"> ended</text>
<text text-anchor="middle" x="387.5" y="-672.06" font-family="Helvetica,sans-Serif" font-size="10.00">errored</text>
</g>
<!-- Node10&#45;&gt;Node8 -->
<g id="edge15" class="edge">
<title>Node10&#45;&gt;Node8</title>
<path fill="none" stroke="#9a32cd" stroke-dasharray="5,2" d="M208.33,-553.68C218.14,-545.4 230.46,-535.37 242,-527.06 286.51,-495.01 342.15,-461.76 369.59,-445.78"/>
<polygon fill="#9a32cd" stroke="#9a32cd" points="205.77,-551.26 200.45,-560.42 210.32,-556.58 205.77,-551.26"/>
<text text-anchor="middle" x="276" y="-530.06" font-family="Helvetica,sans-Serif" font-size="10.00"> global</text>
</g>
<!-- Node10&#45;&gt;Node15 -->
<g id="edge28" class="edge">
<title>Node10&#45;&gt;Node15</title>
<path fill="none" stroke="#9a32cd" stroke-dasharray="5,2" d="M217.69,-572.22C242.25,-574.42 278.73,-578.46 310,-585.06 326.42,-588.52 344.41,-593.85 358.81,-598.51"/>
<polygon fill="#9a32cd" stroke="#9a32cd" points="217.88,-568.72 207.62,-571.36 217.29,-575.7 217.88,-568.72"/>
<text text-anchor="middle" x="276" y="-588.06" font-family="Helvetica,sans-Serif" font-size="10.00"> global</text>
</g>
<!-- Node10&#45;&gt;Node22 -->
<g id="edge47" class="edge">
<title>Node10&#45;&gt;Node22</title>
<path fill="none" stroke="#9a32cd" stroke-dasharray="5,2" d="M217.09,-558.45C225.01,-555.57 233.73,-552.81 242,-551.06 276.57,-543.76 316.72,-541.46 345.91,-540.87"/>
<polygon fill="#9a32cd" stroke="#9a32cd" points="215.68,-555.24 207.6,-562.1 218.19,-561.78 215.68,-555.24"/>
<text text-anchor="middle" x="276" y="-554.06" font-family="Helvetica,sans-Serif" font-size="10.00"> global</text>
</g>
<!-- Node11&#45;&gt;Node1 -->
<g id="edge18" class="edge">
<title>Node11&#45;&gt;Node1</title>
<path fill="none" stroke="#9a32cd" stroke-dasharray="5,2" d="M225.58,-1005.65C305.35,-1013.52 496.48,-1019.33 583,-909.06 633.43,-844.79 634.41,-568.29 634.09,-512.78"/>
<polygon fill="#9a32cd" stroke="#9a32cd" points="225.84,-1002.16 215.53,-1004.59 225.1,-1009.12 225.84,-1002.16"/>
<text text-anchor="middle" x="387.5" y="-1011.06" font-family="Helvetica,sans-Serif" font-size="10.00"> cons</text>
</g>
<!-- Node12 -->
<g id="node12" class="node">
<title>Node12</title>
<g id="a_node12"><a xlink:title=" ">
<polygon fill="none" stroke="#bfbfbf" points="2.5,-990.56 2.5,-1009.56 47.5,-1009.56 47.5,-990.56 2.5,-990.56"/>
<text text-anchor="middle" x="25" y="-997.56" font-family="Helvetica,sans-Serif" font-size="10.00">size_t</text>
</a>
</g>
</g>
<!-- Node12&#45;&gt;Node11 -->
<g id="edge20" class="edge">
<title>Node12&#45;&gt;Node11</title>
<path fill="none" stroke="#9a32cd" stroke-dasharray="5,2" d="M57.81,-1000.26C88.06,-1000.44 133.01,-1000.72 161.26,-1000.9"/>
<polygon fill="#9a32cd" stroke="#9a32cd" points="57.8,-996.76 47.78,-1000.2 57.76,-1003.76 57.8,-996.76"/>
<text text-anchor="middle" x="101.5" y="-1003.06" font-family="Helvetica,sans-Serif" font-size="10.00"> bufcnt</text>
</g>
<!-- Node13 -->
<g id="node13" class="node">
<title>Node13</title>
<g id="a_node13"><a xlink:title=" ">
<polygon fill="none" stroke="#bfbfbf" points="0,-1028.56 0,-1047.56 50,-1047.56 50,-1028.56 0,-1028.56"/>
<text text-anchor="middle" x="25" y="-1035.56" font-family="Helvetica,sans-Serif" font-size="10.00">uint8_t</text>
</a>
</g>
</g>
<!-- Node13&#45;&gt;Node11 -->
<g id="edge21" class="edge">
<title>Node13&#45;&gt;Node11</title>
<path fill="none" stroke="#9a32cd" stroke-dasharray="5,2" d="M60.3,-1031.3C81.82,-1026.95 110.1,-1021 135,-1015.06 143.62,-1013 152.99,-1010.57 161.4,-1008.31"/>
<polygon fill="#9a32cd" stroke="#9a32cd" points="59.44,-1027.91 50.33,-1033.31 60.82,-1034.77 59.44,-1027.91"/>
<text text-anchor="middle" x="101.5" y="-1065.06" font-family="Helvetica,sans-Serif" font-size="10.00"> attributes</text>
<text text-anchor="middle" x="101.5" y="-1054.06" font-family="Helvetica,sans-Serif" font-size="10.00">last</text>
<text text-anchor="middle" x="101.5" y="-1043.06" font-family="Helvetica,sans-Serif" font-size="10.00">x</text>
<text text-anchor="middle" x="101.5" y="-1032.06" font-family="Helvetica,sans-Serif" font-size="10.00">y</text>
</g>
<!-- Node14 -->
<g id="node14" class="node">
<title>Node14</title>
<g id="a_node14"><a xlink:title=" ">
<polygon fill="none" stroke="#bfbfbf" points="362.5,-493.56 362.5,-512.56 412.5,-512.56 412.5,-493.56 362.5,-493.56"/>
<text text-anchor="middle" x="387.5" y="-500.56" font-family="Helvetica,sans-Serif" font-size="10.00">int32_t</text>
</a>
</g>
</g>
<!-- Node14&#45;&gt;Node1 -->
<g id="edge23" class="edge">
<title>Node14&#45;&gt;Node1</title>
<path fill="none" stroke="#9a32cd" stroke-dasharray="5,2" d="M422.97,-503.06C470.14,-503.06 554.22,-503.06 600.74,-503.06"/>
<polygon fill="#9a32cd" stroke="#9a32cd" points="422.94,-499.56 412.94,-503.06 422.94,-506.56 422.94,-499.56"/>
<text text-anchor="middle" x="524" y="-506.06" font-family="Helvetica,sans-Serif" font-size="10.00"> graphics_colour</text>
</g>
<!-- Node15&#45;&gt;Node1 -->
<g id="edge24" class="edge">
<title>Node15&#45;&gt;Node1</title>
<path fill="none" stroke="#9a32cd" stroke-dasharray="5,2" d="M441.89,-603.06C482.88,-597.3 539.62,-585.03 583,-559.06 602.86,-547.17 619.52,-525.16 627.99,-512.57"/>
<polygon fill="#9a32cd" stroke="#9a32cd" points="441.28,-599.61 431.83,-604.39 442.2,-606.55 441.28,-599.61"/>
<text text-anchor="middle" x="524" y="-612.06" font-family="Helvetica,sans-Serif" font-size="10.00"> double_variables</text>
<text text-anchor="middle" x="524" y="-601.06" font-family="Helvetica,sans-Serif" font-size="10.00">local_double_variables</text>
</g>
<!-- Node15&#45;&gt;Node15 -->
<g id="edge27" class="edge">
<title>Node15&#45;&gt;Node15</title>
<path fill="none" stroke="#9a32cd" stroke-dasharray="5,2" d="M367.13,-627.46C368.49,-632.37 375.28,-636.06 387.5,-636.06 407.05,-636.06 412.7,-626.63 404.45,-617.82"/>
<polygon fill="#9a32cd" stroke="#9a32cd" points="370.51,-628.41 370.55,-617.82 363.91,-626.08 370.51,-628.41"/>
<text text-anchor="middle" x="387.5" y="-639.06" font-family="Helvetica,sans-Serif" font-size="10.00"> next</text>
</g>
<!-- Node16 -->
<g id="node16" class="node">
<title>Node16</title>
<g id="a_node16"><a xlink:title=" ">
<polygon fill="none" stroke="#bfbfbf" points="337,-388.56 337,-407.56 438,-407.56 438,-388.56 337,-388.56"/>
<text text-anchor="middle" x="387.5" y="-395.56" font-family="Helvetica,sans-Serif" font-size="10.00">struct hashmap *</text>
</a>
</g>
</g>
<!-- Node16&#45;&gt;Node1 -->
<g id="edge29" class="edge">
<title>Node16&#45;&gt;Node1</title>
<path fill="none" stroke="#9a32cd" stroke-dasharray="5,2" d="M448.18,-397.01C488.97,-398.91 542.72,-406.78 583,-432.06 606.91,-447.07 623,-477.75 630.01,-493.4"/>
<polygon fill="#9a32cd" stroke="#9a32cd" points="448.23,-393.51 438.11,-396.65 447.98,-400.51 448.23,-393.51"/>
<text text-anchor="middle" x="524" y="-435.06" font-family="Helvetica,sans-Serif" font-size="10.00"> lines</text>
</g>
<!-- Node17 -->
<g id="node17" class="node">
<title>Node17</title>
<g id="a_node17"><a xlink:title=" ">
<polygon fill="none" stroke="#bfbfbf" points="373,-350.56 373,-369.56 402,-369.56 402,-350.56 373,-350.56"/>
<text text-anchor="middle" x="387.5" y="-357.56" font-family="Helvetica,sans-Serif" font-size="10.00">int</text>
</a>
</g>
</g>
<!-- Node17&#45;&gt;Node1 -->
<g id="edge30" class="edge">
<title>Node17&#45;&gt;Node1</title>
<path fill="none" stroke="#9a32cd" stroke-dasharray="5,2" d="M412.12,-352.27C451.54,-340.85 531.48,-324.62 583,-361.06 627.48,-392.52 633.35,-466.6 633.99,-493.27"/>
<polygon fill="#9a32cd" stroke="#9a32cd" points="410.9,-348.98 402.35,-355.24 412.94,-355.68 410.9,-348.98"/>
<text text-anchor="middle" x="524" y="-386.06" font-family="Helvetica,sans-Serif" font-size="10.00"> bracket_depth</text>
<text text-anchor="middle" x="524" y="-375.06" font-family="Helvetica,sans-Serif" font-size="10.00">current_token</text>
<text text-anchor="middle" x="524" y="-364.06" font-family="Helvetica,sans-Serif" font-size="10.00">oldlen</text>
</g>
<!-- Node18&#45;&gt;Node1 -->
<g id="edge31" class="edge">
<title>Node18&#45;&gt;Node1</title>
<path fill="none" stroke="#9a32cd" stroke-dasharray="5,2" d="M447.16,-286.53C489.84,-285.12 546.34,-290.66 583,-323.06 634.84,-368.88 635.72,-463.06 634.55,-493.41"/>
<polygon fill="#9a32cd" stroke="#9a32cd" points="446.73,-283.04 436.91,-287.01 447.06,-290.04 446.73,-283.04"/>
<text text-anchor="middle" x="524" y="-326.06" font-family="Helvetica,sans-Serif" font-size="10.00"> int_array_variables</text>
</g>
<!-- Node18&#45;&gt;Node18 -->
<g id="edge35" class="edge">
<title>Node18&#45;&gt;Node18</title>
<path fill="none" stroke="#9a32cd" stroke-dasharray="5,2" d="M367.13,-312.46C368.49,-317.37 375.28,-321.06 387.5,-321.06 407.05,-321.06 412.7,-311.63 404.45,-302.82"/>
<polygon fill="#9a32cd" stroke="#9a32cd" points="370.51,-313.41 370.55,-302.82 363.91,-311.08 370.51,-313.41"/>
<text text-anchor="middle" x="387.5" y="-324.06" font-family="Helvetica,sans-Serif" font-size="10.00"> next</text>
</g>
<!-- Node19&#45;&gt;Node1 -->
<g id="edge37" class="edge">
<title>Node19&#45;&gt;Node1</title>
<path fill="none" stroke="#9a32cd" stroke-dasharray="5,2" d="M443.42,-125.35C487.45,-124.82 547.55,-131.93 583,-169.06 629.07,-217.32 633.54,-443.58 633.96,-493.36"/>
<polygon fill="#9a32cd" stroke="#9a32cd" points="443.06,-121.86 433.16,-125.62 443.24,-128.86 443.06,-121.86"/>
<text text-anchor="middle" x="524" y="-172.06" font-family="Helvetica,sans-Serif" font-size="10.00"> defs</text>
</g>
<!-- Node19&#45;&gt;Node19 -->
<g id="edge41" class="edge">
<title>Node19&#45;&gt;Node19</title>
<path fill="none" stroke="#9a32cd" stroke-dasharray="5,2" d="M367.13,-149.46C368.49,-154.37 375.28,-158.06 387.5,-158.06 407.05,-158.06 412.7,-148.63 404.45,-139.82"/>
<polygon fill="#9a32cd" stroke="#9a32cd" points="370.51,-150.41 370.55,-139.82 363.91,-148.08 370.51,-150.41"/>
<text text-anchor="middle" x="387.5" y="-161.06" font-family="Helvetica,sans-Serif" font-size="10.00"> next</text>
</g>
<!-- Node20 -->
<g id="node20" class="node">
<title>Node20</title>
<g id="a_node20"><a xlink:title=" ">
<polygon fill="none" stroke="#bfbfbf" points="153,-126.56 153,-145.56 224,-145.56 224,-126.56 153,-126.56"/>
<text text-anchor="middle" x="188.5" y="-133.56" font-family="Helvetica,sans-Serif" font-size="10.00">ub_fn_type</text>
</a>
</g>
</g>
<!-- Node20&#45;&gt;Node19 -->
<g id="edge38" class="edge">
<title>Node20&#45;&gt;Node19</title>
<path fill="none" stroke="#9a32cd" stroke-dasharray="5,2" d="M234.28,-131.53C236.89,-131.35 239.48,-131.19 242,-131.06 275.45,-129.36 313.31,-129.16 341.88,-129.36"/>
<polygon fill="#9a32cd" stroke="#9a32cd" points="233.9,-128.05 224.2,-132.32 234.45,-135.03 233.9,-128.05"/>
<text text-anchor="middle" x="276" y="-134.06" font-family="Helvetica,sans-Serif" font-size="10.00"> type</text>
</g>
<!-- Node21&#45;&gt;Node1 -->
<g id="edge53" class="edge">
<title>Node21&#45;&gt;Node1</title>
<path fill="none" stroke="#9a32cd" stroke-dasharray="5,2" d="M231.27,-12.82C311.86,2.29 489.11,21.85 583,-73.06 613.66,-104.06 630.64,-432.03 633.55,-493.25"/>
<polygon fill="#9a32cd" stroke="#9a32cd" points="230.17,-9.47 221.02,-14.82 231.51,-16.34 230.17,-9.47"/>
<text text-anchor="middle" x="387.5" y="-10.06" font-family="Helvetica,sans-Serif" font-size="10.00"> param</text>
</g>
<!-- Node21&#45;&gt;Node19 -->
<g id="edge42" class="edge">
<title>Node21&#45;&gt;Node19</title>
<path fill="none" stroke="#9a32cd" stroke-dasharray="5,2" d="M224.76,-35.19C257.93,-47.78 303.46,-65.77 310,-72.06 323.76,-85.29 313.73,-98.38 328,-111.06 332.39,-114.96 337.6,-118.06 343.06,-120.53"/>
<polygon fill="#9a32cd" stroke="#9a32cd" points="225.94,-31.89 215.34,-31.63 223.46,-38.44 225.94,-31.89"/>
<text text-anchor="middle" x="276" y="-75.06" font-family="Helvetica,sans-Serif" font-size="10.00"> params</text>
</g>
<!-- Node21&#45;&gt;Node21 -->
<g id="edge44" class="edge">
<title>Node21&#45;&gt;Node21</title>
<path fill="none" stroke="#9a32cd" stroke-dasharray="5,2" d="M172.57,-41.46C173.64,-46.37 178.95,-50.06 188.5,-50.06 203.79,-50.06 208.2,-40.63 201.76,-31.82"/>
<polygon fill="#9a32cd" stroke="#9a32cd" points="175.95,-42.39 175.24,-31.82 169.2,-40.52 175.95,-42.39"/>
<text text-anchor="middle" x="188.5" y="-53.06" font-family="Helvetica,sans-Serif" font-size="10.00"> next</text>
</g>
<!-- Node22&#45;&gt;Node1 -->
<g id="edge45" class="edge">
<title>Node22&#45;&gt;Node1</title>
<path fill="none" stroke="#9a32cd" stroke-dasharray="5,2" d="M439.16,-536.84C478.6,-533.07 534.59,-526.64 583,-517.06 589.21,-515.83 595.78,-514.25 602.07,-512.59"/>
<polygon fill="#9a32cd" stroke="#9a32cd" points="438.63,-533.37 429,-537.79 439.28,-540.34 438.63,-533.37"/>
<text text-anchor="middle" x="524" y="-547.06" font-family="Helvetica,sans-Serif" font-size="10.00"> local_string_variables</text>
<text text-anchor="middle" x="524" y="-536.06" font-family="Helvetica,sans-Serif" font-size="10.00">str_variables</text>
</g>
<!-- Node22&#45;&gt;Node22 -->
<g id="edge48" class="edge">
<title>Node22&#45;&gt;Node22</title>
<path fill="none" stroke="#9a32cd" stroke-dasharray="5,2" d="M367.13,-560.46C368.49,-565.37 375.28,-569.06 387.5,-569.06 407.05,-569.06 412.7,-559.63 404.45,-550.82"/>
<polygon fill="#9a32cd" stroke="#9a32cd" points="370.51,-561.41 370.55,-550.82 363.91,-559.08 370.51,-561.41"/>
<text text-anchor="middle" x="387.5" y="-572.06" font-family="Helvetica,sans-Serif" font-size="10.00"> next</text>
</g>
<!-- Node23 -->
<g id="node23" class="node">
<title>Node23</title>
<g id="a_node23"><a xlink:title=" ">
<polygon fill="none" stroke="#bfbfbf" points="364.5,-82.56 364.5,-101.56 410.5,-101.56 410.5,-82.56 364.5,-82.56"/>
<text text-anchor="middle" x="387.5" y="-89.56" font-family="Helvetica,sans-Serif" font-size="10.00">void *</text>
</a>
</g>
</g>
<!-- Node23&#45;&gt;Node1 -->
<g id="edge49" class="edge">
<title>Node23&#45;&gt;Node1</title>
<path fill="none" stroke="#9a32cd" stroke-dasharray="5,2" d="M420.69,-84.17C463.82,-75.7 539.92,-68.53 583,-110.06 639.97,-164.97 635.74,-438.44 634.29,-493.42"/>
<polygon fill="#9a32cd" stroke="#9a32cd" points="419.8,-80.78 410.73,-86.26 421.24,-87.63 419.8,-80.78"/>
<text text-anchor="middle" x="524" y="-113.06" font-family="Helvetica,sans-Serif" font-size="10.00"> fn_return</text>
</g>
<!-- Node24&#45;&gt;Node1 -->
<g id="edge50" class="edge">
<title>Node24&#45;&gt;Node1</title>
<path fill="none" stroke="#9a32cd" stroke-dasharray="5,2" d="M427.56,-188.89C471.3,-182.23 541.5,-179.35 583,-218.06 624.44,-256.72 632.45,-448.41 633.77,-493.53"/>
<polygon fill="#9a32cd" stroke="#9a32cd" points="426.87,-185.46 417.58,-190.55 428.01,-192.37 426.87,-185.46"/>
<text text-anchor="middle" x="524" y="-221.06" font-family="Helvetica,sans-Serif" font-size="10.00"> for_stack</text>
</g>
</g>
</svg>
