<?xml version="1.0" encoding="UTF-8" standalone="no"?>
<!DOCTYPE svg PUBLIC "-//W3C//DTD SVG 1.1//EN"
 "http://www.w3.org/Graphics/SVG/1.1/DTD/svg11.dtd">
<!-- Generated by graphviz version 2.43.0 (0)
 -->
<!-- Title: fat32_t Pages: 1 -->
<svg width="555pt" height="241pt"
 viewBox="0.00 0.00 555.00 241.00" xmlns="http://www.w3.org/2000/svg" xmlns:xlink="http://www.w3.org/1999/xlink">
<g id="graph0" class="graph" transform="scale(1 1) rotate(0) translate(4 237)">
<title>fat32_t</title>
<!-- Node1 -->
<g id="node1" class="node">
<title>Node1</title>
<g id="a_node1"><a xlink:title="FAT32 filesystem information, used internally by the driver. This is a higher level version of FSINFO...">
<polygon fill="#bfbfbf" stroke="black" points="214.5,-0.5 214.5,-19.5 265.5,-19.5 265.5,-0.5 214.5,-0.5"/>
<text text-anchor="middle" x="240" y="-7.5" font-family="Helvetica,sans-Serif" font-size="10.00">fat32_t</text>
</a>
</g>
</g>
<!-- Node2 -->
<g id="node2" class="node">
<title>Node2</title>
<g id="a_node2"><a xlink:title=" ">
<polygon fill="none" stroke="#bfbfbf" points="0,-90.5 0,-109.5 56,-109.5 56,-90.5 0,-90.5"/>
<text text-anchor="middle" x="28" y="-97.5" font-family="Helvetica,sans-Serif" font-size="10.00">uint64_t</text>
</a>
</g>
</g>
<!-- Node2&#45;&gt;Node1 -->
<g id="edge1" class="edge">
<title>Node2&#45;&gt;Node1</title>
<path fill="none" stroke="#9a32cd" stroke-dasharray="5,2" d="M32.22,-80.28C36.37,-66.37 44.16,-48.1 58,-38 82.45,-20.16 170.43,-13.94 214.49,-11.91"/>
<polygon fill="#9a32cd" stroke="#9a32cd" points="28.75,-79.72 29.62,-90.28 35.52,-81.48 28.75,-79.72"/>
<text text-anchor="middle" x="75" y="-52" font-family="Helvetica,sans-Serif" font-size="10.00"> length</text>
<text text-anchor="middle" x="75" y="-41" font-family="Helvetica,sans-Serif" font-size="10.00">start</text>
</g>
<!-- Node3 -->
<g id="node3" class="node">
<title>Node3</title>
<g id="a_node3"><a xlink:title=" ">
<polygon fill="none" stroke="#bfbfbf" points="74,-90.5 74,-109.5 130,-109.5 130,-90.5 74,-90.5"/>
<text text-anchor="middle" x="102" y="-97.5" font-family="Helvetica,sans-Serif" font-size="10.00">uint16_t</text>
</a>
</g>
</g>
<!-- Node3&#45;&gt;Node1 -->
<g id="edge2" class="edge">
<title>Node3&#45;&gt;Node1</title>
<path fill="none" stroke="#9a32cd" stroke-dasharray="5,2" d="M96.69,-80.4C94.1,-67.09 93.34,-49.55 103,-38 116.95,-21.31 178.7,-14.75 214.35,-12.32"/>
<polygon fill="#9a32cd" stroke="#9a32cd" points="93.35,-81.47 99.1,-90.36 100.15,-79.82 93.35,-81.47"/>
<text text-anchor="middle" x="144" y="-46.5" font-family="Helvetica,sans-Serif" font-size="10.00"> reservedsectors</text>
</g>
<!-- Node4 -->
<g id="node4" class="node">
<title>Node4</title>
<g id="a_node4"><a xlink:title=" ">
<polygon fill="none" stroke="#bfbfbf" points="204,-213.5 204,-232.5 242,-232.5 242,-213.5 204,-213.5"/>
<text text-anchor="middle" x="223" y="-220.5" font-family="Helvetica,sans-Serif" font-size="10.00">char</text>
</a>
</g>
</g>
<!-- Node4&#45;&gt;Node1 -->
<g id="edge3" class="edge">
<title>Node4&#45;&gt;Node1</title>
<path fill="none" stroke="#9a32cd" stroke-dasharray="5,2" d="M217.59,-203.62C210.28,-176.03 199.22,-122.41 209,-78 213.9,-55.72 226.98,-32.03 234.49,-19.66"/>
<polygon fill="#9a32cd" stroke="#9a32cd" points="214.27,-204.76 220.33,-213.45 221.02,-202.88 214.27,-204.76"/>
<text text-anchor="middle" x="244" y="-103" font-family="Helvetica,sans-Serif" font-size="10.00"> device_name</text>
<text text-anchor="middle" x="244" y="-92" font-family="Helvetica,sans-Serif" font-size="10.00">volume_name</text>
</g>
<!-- Node5 -->
<g id="node5" class="node">
<title>Node5</title>
<g id="a_node5"><a xlink:href="structfat32__fs__info__t.html" target="_top" xlink:title="FAT32 FSINFO structure.">
<polygon fill="none" stroke="black" points="287.5,-90.5 287.5,-109.5 376.5,-109.5 376.5,-90.5 287.5,-90.5"/>
<text text-anchor="middle" x="332" y="-97.5" font-family="Helvetica,sans-Serif" font-size="10.00">fat32_fs_info_t</text>
</a>
</g>
</g>
<!-- Node4&#45;&gt;Node5 -->
<g id="edge5" class="edge">
<title>Node4&#45;&gt;Node5</title>
<path fill="none" stroke="#9a32cd" stroke-dasharray="5,2" d="M231.88,-204.17C241.23,-186.55 257.2,-159.46 276,-140 288.02,-127.56 304.54,-116.62 316.52,-109.52"/>
<polygon fill="#9a32cd" stroke="#9a32cd" points="228.63,-202.84 227.16,-213.33 234.85,-206.04 228.63,-202.84"/>
<text text-anchor="middle" x="302" y="-170.5" font-family="Helvetica,sans-Serif" font-size="10.00"> reserved1</text>
<text text-anchor="middle" x="302" y="-159.5" font-family="Helvetica,sans-Serif" font-size="10.00">reserved2</text>
</g>
<!-- Node5&#45;&gt;Node1 -->
<g id="edge4" class="edge">
<title>Node5&#45;&gt;Node1</title>
<path fill="none" stroke="#9a32cd" stroke-dasharray="5,2" d="M315.59,-83.31C296.19,-64.75 264.59,-34.52 249.12,-19.72"/>
<polygon fill="#9a32cd" stroke="#9a32cd" points="313.2,-85.86 322.84,-90.24 318.04,-80.8 313.2,-85.86"/>
<text text-anchor="middle" x="299" y="-46.5" font-family="Helvetica,sans-Serif" font-size="10.00"> info</text>
</g>
<!-- Node6 -->
<g id="node6" class="node">
<title>Node6</title>
<g id="a_node6"><a xlink:title=" ">
<polygon fill="none" stroke="#bfbfbf" points="348,-213.5 348,-232.5 404,-232.5 404,-213.5 348,-213.5"/>
<text text-anchor="middle" x="376" y="-220.5" font-family="Helvetica,sans-Serif" font-size="10.00">uint32_t</text>
</a>
</g>
</g>
<!-- Node6&#45;&gt;Node1 -->
<g id="edge7" class="edge">
<title>Node6&#45;&gt;Node1</title>
<path fill="none" stroke="#9a32cd" stroke-dasharray="5,2" d="M393.14,-205.42C395.54,-202.21 397.64,-198.68 399,-195 417.08,-145.9 417.04,-120.12 386,-78 356.96,-38.6 299.12,-21.73 265.62,-15.02"/>
<polygon fill="#9a32cd" stroke="#9a32cd" points="390.36,-203.28 386.42,-213.11 395.63,-207.88 390.36,-203.28"/>
<text text-anchor="middle" x="441" y="-114" font-family="Helvetica,sans-Serif" font-size="10.00"> clustersize</text>
<text text-anchor="middle" x="441" y="-103" font-family="Helvetica,sans-Serif" font-size="10.00">fatsize</text>
<text text-anchor="middle" x="441" y="-92" font-family="Helvetica,sans-Serif" font-size="10.00">fsinfocluster</text>
<text text-anchor="middle" x="441" y="-81" font-family="Helvetica,sans-Serif" font-size="10.00">rootdircluster</text>
</g>
<!-- Node6&#45;&gt;Node5 -->
<g id="edge6" class="edge">
<title>Node6&#45;&gt;Node5</title>
<path fill="none" stroke="#9a32cd" stroke-dasharray="5,2" d="M355.81,-206.59C352.4,-203.12 349.24,-199.21 347,-195 331.84,-166.56 331.07,-126.91 331.57,-109.62"/>
<polygon fill="#9a32cd" stroke="#9a32cd" points="353.64,-209.34 363.43,-213.4 358.31,-204.13 353.64,-209.34"/>
<text text-anchor="middle" x="373" y="-187" font-family="Helvetica,sans-Serif" font-size="10.00"> freecount</text>
<text text-anchor="middle" x="373" y="-176" font-family="Helvetica,sans-Serif" font-size="10.00">nextfree</text>
<text text-anchor="middle" x="373" y="-165" font-family="Helvetica,sans-Serif" font-size="10.00">signature1</text>
<text text-anchor="middle" x="373" y="-154" font-family="Helvetica,sans-Serif" font-size="10.00">structsig</text>
<text text-anchor="middle" x="373" y="-143" font-family="Helvetica,sans-Serif" font-size="10.00">trailsig</text>
</g>
<!-- Node7 -->
<g id="node7" class="node">
<title>Node7</title>
<g id="a_node7"><a xlink:title=" ">
<polygon fill="none" stroke="#bfbfbf" points="497,-90.5 497,-109.5 547,-109.5 547,-90.5 497,-90.5"/>
<text text-anchor="middle" x="522" y="-97.5" font-family="Helvetica,sans-Serif" font-size="10.00">uint8_t</text>
</a>
</g>
</g>
<!-- Node7&#45;&gt;Node1 -->
<g id="edge8" class="edge">
<title>Node7&#45;&gt;Node1</title>
<path fill="none" stroke="#9a32cd" stroke-dasharray="5,2" d="M503.99,-84.05C485.77,-69.78 456.2,-48.89 427,-38 371.99,-17.48 302.48,-12.45 265.65,-11.29"/>
<polygon fill="#9a32cd" stroke="#9a32cd" points="501.98,-86.93 511.97,-90.45 506.36,-81.46 501.98,-86.93"/>
<text text-anchor="middle" x="502.5" y="-52" font-family="Helvetica,sans-Serif" font-size="10.00"> numberoffats</text>
<text text-anchor="middle" x="502.5" y="-41" font-family="Helvetica,sans-Serif" font-size="10.00">partitionid</text>
</g>
</g>
</svg>
