<?xml version="1.0" encoding="UTF-8" standalone="no"?>
<!DOCTYPE svg PUBLIC "-//W3C//DTD SVG 1.1//EN"
 "http://www.w3.org/Graphics/SVG/1.1/DTD/svg11.dtd">
<!-- Generated by graphviz version 2.43.0 (0)
 -->
<!-- Title: pci_irq_route_t Pages: 1 -->
<svg width="356pt" height="106pt"
 viewBox="0.00 0.00 356.00 106.00" xmlns="http://www.w3.org/2000/svg" xmlns:xlink="http://www.w3.org/1999/xlink">
<g id="graph0" class="graph" transform="scale(1 1) rotate(0) translate(4 102)">
<title>pci_irq_route_t</title>
<!-- Node1 -->
<g id="node1" class="node">
<title>Node1</title>
<g id="a_node1"><a xlink:title="A mapping of PCI interrupt pin to global system interrupt (GSI).">
<polygon fill="#bfbfbf" stroke="black" points="122.5,-0.5 122.5,-19.5 211.5,-19.5 211.5,-0.5 122.5,-0.5"/>
<text text-anchor="middle" x="167" y="-7.5" font-family="Helvetica,sans-Serif" font-size="10.00">pci_irq_route_t</text>
</a>
</g>
</g>
<!-- Node2 -->
<g id="node2" class="node">
<title>Node2</title>
<g id="a_node2"><a xlink:title=" ">
<polygon fill="none" stroke="#bfbfbf" points="0,-78.5 0,-97.5 56,-97.5 56,-78.5 0,-78.5"/>
<text text-anchor="middle" x="28" y="-85.5" font-family="Helvetica,sans-Serif" font-size="10.00">uint32_t</text>
</a>
</g>
</g>
<!-- Node2&#45;&gt;Node1 -->
<g id="edge1" class="edge">
<title>Node2&#45;&gt;Node1</title>
<path fill="none" stroke="#9a32cd" stroke-dasharray="5,2" d="M42.4,-70.7C52.55,-60.09 66.96,-46.66 82,-38 96.22,-29.81 113.24,-23.78 128.3,-19.51"/>
<polygon fill="#9a32cd" stroke="#9a32cd" points="39.74,-68.42 35.53,-78.14 44.89,-73.17 39.74,-68.42"/>
<text text-anchor="middle" x="91" y="-46.5" font-family="Helvetica,sans-Serif" font-size="10.00"> gsi</text>
</g>
<!-- Node3 -->
<g id="node3" class="node">
<title>Node3</title>
<g id="a_node3"><a xlink:title=" ">
<polygon fill="none" stroke="#bfbfbf" points="74.5,-78.5 74.5,-97.5 103.5,-97.5 103.5,-78.5 74.5,-78.5"/>
<text text-anchor="middle" x="89" y="-85.5" font-family="Helvetica,sans-Serif" font-size="10.00">int</text>
</a>
</g>
</g>
<!-- Node3&#45;&gt;Node1 -->
<g id="edge2" class="edge">
<title>Node3&#45;&gt;Node1</title>
<path fill="none" stroke="#9a32cd" stroke-dasharray="5,2" d="M98.43,-69.16C104.29,-59.19 112.51,-47 122,-38 129.8,-30.6 139.97,-24.28 148.67,-19.63"/>
<polygon fill="#9a32cd" stroke="#9a32cd" points="95.21,-67.75 93.39,-78.19 101.32,-71.16 95.21,-67.75"/>
<text text-anchor="middle" x="142.5" y="-52" font-family="Helvetica,sans-Serif" font-size="10.00"> polarity</text>
<text text-anchor="middle" x="142.5" y="-41" font-family="Helvetica,sans-Serif" font-size="10.00">trigger</text>
</g>
<!-- Node4 -->
<g id="node4" class="node">
<title>Node4</title>
<g id="a_node4"><a xlink:title=" ">
<polygon fill="none" stroke="#bfbfbf" points="121.5,-78.5 121.5,-97.5 218.5,-97.5 218.5,-78.5 121.5,-78.5"/>
<text text-anchor="middle" x="170" y="-85.5" font-family="Helvetica,sans-Serif" font-size="10.00">detected_from_t</text>
</a>
</g>
</g>
<!-- Node4&#45;&gt;Node1 -->
<g id="edge3" class="edge">
<title>Node4&#45;&gt;Node1</title>
<path fill="none" stroke="#9a32cd" stroke-dasharray="5,2" d="M168.49,-68.38C168.3,-65.57 168.13,-62.71 168,-60 167.33,-45.89 167.11,-29.48 167.04,-19.68"/>
<polygon fill="#9a32cd" stroke="#9a32cd" points="165.01,-68.79 169.25,-78.49 171.99,-68.26 165.01,-68.79"/>
<text text-anchor="middle" x="205.5" y="-46.5" font-family="Helvetica,sans-Serif" font-size="10.00"> detected_from</text>
</g>
<!-- Node5 -->
<g id="node5" class="node">
<title>Node5</title>
<g id="a_node5"><a xlink:title=" ">
<polygon fill="none" stroke="#bfbfbf" points="240,-78.5 240,-97.5 290,-97.5 290,-78.5 240,-78.5"/>
<text text-anchor="middle" x="265" y="-85.5" font-family="Helvetica,sans-Serif" font-size="10.00">uint8_t</text>
</a>
</g>
</g>
<!-- Node5&#45;&gt;Node1 -->
<g id="edge4" class="edge">
<title>Node5&#45;&gt;Node1</title>
<path fill="none" stroke="#9a32cd" stroke-dasharray="5,2" d="M260.55,-68.49C257.24,-58.28 251.75,-46.07 243,-38 233.74,-29.46 221.59,-23.58 209.74,-19.56"/>
<polygon fill="#9a32cd" stroke="#9a32cd" points="257.19,-69.46 263.26,-78.15 263.93,-67.57 257.19,-69.46"/>
<text text-anchor="middle" x="275.5" y="-46.5" font-family="Helvetica,sans-Serif" font-size="10.00"> int_pin</text>
</g>
<!-- Node6 -->
<g id="node6" class="node">
<title>Node6</title>
<g id="a_node6"><a xlink:title=" ">
<polygon fill="none" stroke="#bfbfbf" points="308,-78.5 308,-97.5 346,-97.5 346,-78.5 308,-78.5"/>
<text text-anchor="middle" x="327" y="-85.5" font-family="Helvetica,sans-Serif" font-size="10.00">bool</text>
</a>
</g>
</g>
<!-- Node6&#45;&gt;Node1 -->
<g id="edge5" class="edge">
<title>Node6&#45;&gt;Node1</title>
<path fill="none" stroke="#9a32cd" stroke-dasharray="5,2" d="M320.5,-68.62C315.83,-58.08 308.5,-45.49 298,-38 272.96,-20.13 238.74,-13.52 211.56,-11.31"/>
<polygon fill="#9a32cd" stroke="#9a32cd" points="317.36,-70.2 324.29,-78.21 323.87,-67.63 317.36,-70.2"/>
<text text-anchor="middle" x="331.5" y="-46.5" font-family="Helvetica,sans-Serif" font-size="10.00"> exists</text>
</g>
</g>
</svg>
