<?xml version="1.0" encoding="UTF-8" standalone="no"?>
<!DOCTYPE svg PUBLIC "-//W3C//DTD SVG 1.1//EN"
 "http://www.w3.org/Graphics/SVG/1.1/DTD/svg11.dtd">
<!-- Generated by graphviz version 2.43.0 (0)
 -->
<!-- Title: ahci_hba_port_t Pages: 1 -->
<svg width="102pt" height="205pt"
 viewBox="0.00 0.00 102.00 205.00" xmlns="http://www.w3.org/2000/svg" xmlns:xlink="http://www.w3.org/1999/xlink">
<g id="graph0" class="graph" transform="scale(1 1) rotate(0) translate(4 201)">
<title>ahci_hba_port_t</title>
<!-- Node1 -->
<g id="node1" class="node">
<title>Node1</title>
<g id="a_node1"><a xlink:title=" ">
<polygon fill="#bfbfbf" stroke="black" points="0,-0.5 0,-19.5 94,-19.5 94,-0.5 0,-0.5"/>
<text text-anchor="middle" x="47" y="-7.5" font-family="Helvetica,sans-Serif" font-size="10.00">ahci_hba_port_t</text>
</a>
</g>
</g>
<!-- Node2 -->
<g id="node2" class="node">
<title>Node2</title>
<g id="a_node2"><a xlink:title=" ">
<polygon fill="none" stroke="#bfbfbf" points="19,-177.5 19,-196.5 75,-196.5 75,-177.5 19,-177.5"/>
<text text-anchor="middle" x="47" y="-184.5" font-family="Helvetica,sans-Serif" font-size="10.00">uint32_t</text>
</a>
</g>
</g>
<!-- Node2&#45;&gt;Node1 -->
<g id="edge1" class="edge">
<title>Node2&#45;&gt;Node1</title>
<path fill="none" stroke="#9a32cd" stroke-dasharray="5,2" d="M47,-166.95C47,-129.3 47,-46.65 47,-19.69"/>
<polygon fill="#9a32cd" stroke="#9a32cd" points="43.5,-167.08 47,-177.08 50.5,-167.08 43.5,-167.08"/>
<text text-anchor="middle" x="58" y="-151" font-family="Helvetica,sans-Serif" font-size="10.00"> ci</text>
<text text-anchor="middle" x="58" y="-140" font-family="Helvetica,sans-Serif" font-size="10.00">clb</text>
<text text-anchor="middle" x="58" y="-129" font-family="Helvetica,sans-Serif" font-size="10.00">clbu</text>
<text text-anchor="middle" x="58" y="-118" font-family="Helvetica,sans-Serif" font-size="10.00">cmd</text>
<text text-anchor="middle" x="58" y="-107" font-family="Helvetica,sans-Serif" font-size="10.00">fb</text>
<text text-anchor="middle" x="58" y="-96" font-family="Helvetica,sans-Serif" font-size="10.00">fbs</text>
<text text-anchor="middle" x="58" y="-85" font-family="Helvetica,sans-Serif" font-size="10.00">fbu</text>
<text text-anchor="middle" x="58" y="-74" font-family="Helvetica,sans-Serif" font-size="10.00">ie</text>
<text text-anchor="middle" x="58" y="-63" font-family="Helvetica,sans-Serif" font-size="10.00">is</text>
<text text-anchor="middle" x="58" y="-52" font-family="Helvetica,sans-Serif" font-size="10.00">rsv0</text>
<text text-anchor="middle" x="58" y="-41" font-family="Helvetica,sans-Serif" font-size="10.00">...</text>
</g>
</g>
</svg>
