<?xml version="1.0" encoding="UTF-8" standalone="no"?>
<!DOCTYPE svg PUBLIC "-//W3C//DTD SVG 1.1//EN"
 "http://www.w3.org/Graphics/SVG/1.1/DTD/svg11.dtd">
<!-- Generated by graphviz version 2.43.0 (0)
 -->
<!-- Title: ub_var_double_array Pages: 1 -->
<svg width="215pt" height="95pt"
 viewBox="0.00 0.00 214.50 95.00" xmlns="http://www.w3.org/2000/svg" xmlns:xlink="http://www.w3.org/1999/xlink">
<g id="graph0" class="graph" transform="scale(1 1) rotate(0) translate(4 91)">
<title>ub_var_double_array</title>
<!-- Node1 -->
<g id="node1" class="node">
<title>Node1</title>
<g id="a_node1"><a xlink:title="An array of real (double)">
<polygon fill="#bfbfbf" stroke="black" points="44.5,-0.5 44.5,-19.5 163.5,-19.5 163.5,-0.5 44.5,-0.5"/>
<text text-anchor="middle" x="104" y="-7.5" font-family="Helvetica,sans-Serif" font-size="10.00">ub_var_double_array</text>
</a>
</g>
</g>
<!-- Node1&#45;&gt;Node1 -->
<g id="edge1" class="edge">
<title>Node1&#45;&gt;Node1</title>
<path fill="none" stroke="#9a32cd" stroke-dasharray="5,2" d="M173.98,-14.31C178.66,-13.31 181.5,-11.88 181.5,-10 181.5,-7 174.23,-5.12 163.79,-4.38"/>
<polygon fill="#9a32cd" stroke="#9a32cd" points="173.26,-10.87 163.79,-15.62 174.16,-17.81 173.26,-10.87"/>
<text text-anchor="middle" x="194" y="-7.5" font-family="Helvetica,sans-Serif" font-size="10.00"> next</text>
</g>
<!-- Node2 -->
<g id="node2" class="node">
<title>Node2</title>
<g id="a_node2"><a xlink:title=" ">
<polygon fill="none" stroke="#bfbfbf" points="0,-67.5 0,-86.5 56,-86.5 56,-67.5 0,-67.5"/>
<text text-anchor="middle" x="28" y="-74.5" font-family="Helvetica,sans-Serif" font-size="10.00">uint64_t</text>
</a>
</g>
</g>
<!-- Node2&#45;&gt;Node1 -->
<g id="edge2" class="edge">
<title>Node2&#45;&gt;Node1</title>
<path fill="none" stroke="#9a32cd" stroke-dasharray="5,2" d="M34.04,-58.07C37.08,-51.14 41.33,-43.55 47,-38 55.29,-29.88 66.49,-23.86 76.77,-19.58"/>
<polygon fill="#9a32cd" stroke="#9a32cd" points="30.76,-56.87 30.45,-67.46 37.29,-59.37 30.76,-56.87"/>
<text text-anchor="middle" x="73.5" y="-41" font-family="Helvetica,sans-Serif" font-size="10.00"> itemcount</text>
</g>
<!-- Node3 -->
<g id="node3" class="node">
<title>Node3</title>
<g id="a_node3"><a xlink:title=" ">
<polygon fill="none" stroke="#bfbfbf" points="79,-67.5 79,-86.5 129,-86.5 129,-67.5 79,-67.5"/>
<text text-anchor="middle" x="104" y="-74.5" font-family="Helvetica,sans-Serif" font-size="10.00">double</text>
</a>
</g>
</g>
<!-- Node3&#45;&gt;Node1 -->
<g id="edge3" class="edge">
<title>Node3&#45;&gt;Node1</title>
<path fill="none" stroke="#9a32cd" stroke-dasharray="5,2" d="M104,-57.04C104,-44.67 104,-29.12 104,-19.63"/>
<polygon fill="#9a32cd" stroke="#9a32cd" points="100.5,-57.23 104,-67.23 107.5,-57.23 100.5,-57.23"/>
<text text-anchor="middle" x="122" y="-41" font-family="Helvetica,sans-Serif" font-size="10.00"> values</text>
</g>
<!-- Node4 -->
<g id="node4" class="node">
<title>Node4</title>
<g id="a_node4"><a xlink:title=" ">
<polygon fill="none" stroke="#bfbfbf" points="147,-67.5 147,-86.5 185,-86.5 185,-67.5 147,-67.5"/>
<text text-anchor="middle" x="166" y="-74.5" font-family="Helvetica,sans-Serif" font-size="10.00">char</text>
</a>
</g>
</g>
<!-- Node4&#45;&gt;Node1 -->
<g id="edge4" class="edge">
<title>Node4&#45;&gt;Node1</title>
<path fill="none" stroke="#9a32cd" stroke-dasharray="5,2" d="M157.89,-58.26C154.25,-51.46 149.52,-43.92 144,-38 137.14,-30.65 127.92,-24.26 120.06,-19.54"/>
<polygon fill="#9a32cd" stroke="#9a32cd" points="154.85,-60.01 162.41,-67.43 161.12,-56.91 154.85,-60.01"/>
<text text-anchor="middle" x="175.5" y="-41" font-family="Helvetica,sans-Serif" font-size="10.00"> varname</text>
</g>
</g>
</svg>
