<?xml version="1.0" encoding="UTF-8" standalone="no"?>
<!DOCTYPE svg PUBLIC "-//W3C//DTD SVG 1.1//EN"
 "http://www.w3.org/Graphics/SVG/1.1/DTD/svg11.dtd">
<!-- Generated by graphviz version 2.43.0 (0)
 -->
<!-- Title: tcp_ip_pseudo_header_t Pages: 1 -->
<svg width="206pt" height="117pt"
 viewBox="0.00 0.00 206.00 117.00" xmlns="http://www.w3.org/2000/svg" xmlns:xlink="http://www.w3.org/1999/xlink">
<g id="graph0" class="graph" transform="scale(1 1) rotate(0) translate(4 113)">
<title>tcp_ip_pseudo_header_t</title>
<!-- Node1 -->
<g id="node1" class="node">
<title>Node1</title>
<g id="a_node1"><a xlink:title=" ">
<polygon fill="#bfbfbf" stroke="black" points="32,-0.5 32,-19.5 166,-19.5 166,-0.5 32,-0.5"/>
<text text-anchor="middle" x="99" y="-7.5" font-family="Helvetica,sans-Serif" font-size="10.00">tcp_ip_pseudo_header_t</text>
</a>
</g>
</g>
<!-- Node2 -->
<g id="node2" class="node">
<title>Node2</title>
<g id="a_node2"><a xlink:title=" ">
<polygon fill="none" stroke="black" points="0,-89.5 0,-108.5 56,-108.5 56,-89.5 0,-89.5"/>
<text text-anchor="middle" x="28" y="-96.5" font-family="Helvetica,sans-Serif" font-size="10.00">uint32_t</text>
</a>
</g>
</g>
<!-- Node2&#45;&gt;Node1 -->
<g id="edge1" class="edge">
<title>Node2&#45;&gt;Node1</title>
<path fill="none" stroke="#9a32cd" stroke-dasharray="5,2" d="M40.98,-81.5C50.56,-69.38 63.97,-52.57 76,-38 81.02,-31.92 86.77,-25.17 91.26,-19.94"/>
<polygon fill="#9a32cd" stroke="#9a32cd" points="38.2,-79.37 34.75,-89.39 43.7,-83.71 38.2,-79.37"/>
<text text-anchor="middle" x="85.5" y="-57.5" font-family="Helvetica,sans-Serif" font-size="10.00"> dst</text>
<text text-anchor="middle" x="85.5" y="-46.5" font-family="Helvetica,sans-Serif" font-size="10.00">src</text>
</g>
<!-- Node3 -->
<g id="node3" class="node">
<title>Node3</title>
<g id="a_node3"><a xlink:title=" ">
<polygon fill="none" stroke="black" points="74,-89.5 74,-108.5 124,-108.5 124,-89.5 74,-89.5"/>
<text text-anchor="middle" x="99" y="-96.5" font-family="Helvetica,sans-Serif" font-size="10.00">uint8_t</text>
</a>
</g>
</g>
<!-- Node3&#45;&gt;Node1 -->
<g id="edge2" class="edge">
<title>Node3&#45;&gt;Node1</title>
<path fill="none" stroke="#9a32cd" stroke-dasharray="5,2" d="M99,-79.19C99,-60.74 99,-33.41 99,-19.62"/>
<polygon fill="#9a32cd" stroke="#9a32cd" points="95.5,-79.34 99,-89.34 102.5,-79.34 95.5,-79.34"/>
<text text-anchor="middle" x="120.5" y="-63" font-family="Helvetica,sans-Serif" font-size="10.00"> body</text>
<text text-anchor="middle" x="120.5" y="-52" font-family="Helvetica,sans-Serif" font-size="10.00">protocol</text>
<text text-anchor="middle" x="120.5" y="-41" font-family="Helvetica,sans-Serif" font-size="10.00">reserved</text>
</g>
<!-- Node4 -->
<g id="node4" class="node">
<title>Node4</title>
<g id="a_node4"><a xlink:title=" ">
<polygon fill="none" stroke="black" points="142,-89.5 142,-108.5 198,-108.5 198,-89.5 142,-89.5"/>
<text text-anchor="middle" x="170" y="-96.5" font-family="Helvetica,sans-Serif" font-size="10.00">uint16_t</text>
</a>
</g>
</g>
<!-- Node4&#45;&gt;Node1 -->
<g id="edge3" class="edge">
<title>Node4&#45;&gt;Node1</title>
<path fill="none" stroke="#9a32cd" stroke-dasharray="5,2" d="M165.97,-79.3C162.44,-66.51 156.24,-49.79 146,-38 139.21,-30.18 129.58,-24.1 120.8,-19.7"/>
<polygon fill="#9a32cd" stroke="#9a32cd" points="162.64,-80.42 168.41,-89.31 169.44,-78.76 162.64,-80.42"/>
<text text-anchor="middle" x="172.5" y="-52" font-family="Helvetica,sans-Serif" font-size="10.00"> len</text>
</g>
</g>
</svg>
