<?xml version="1.0" encoding="UTF-8" standalone="no"?>
<!DOCTYPE svg PUBLIC "-//W3C//DTD SVG 1.1//EN"
 "http://www.w3.org/Graphics/SVG/1.1/DTD/svg11.dtd">
<!-- Generated by graphviz version 2.43.0 (0)
 -->
<!-- Title: fs_tree_t Pages: 1 -->
<!--zoomable 343 -->
<svg id="main" version="1.1" xmlns="http://www.w3.org/2000/svg" xmlns:xlink="http://www.w3.org/1999/xlink" xml:space="preserve" onload="init(evt)">
<style type="text/css"><![CDATA[
.edge:hover path { stroke: red; }
.edge:hover polygon { stroke: red; fill: red; }
]]></style>
<script type="text/javascript"><![CDATA[
var edges = document.getElementsByTagName('g');
if (edges && edges.length) {
  for (var i=0;i<edges.length;i++) {
    if (edges[i].id.substr(0,4)=='edge') {
      edges[i].setAttribute('class','edge');
    }
  }
}
]]></script>
        <defs>
                <circle id="rim" cx="0" cy="0" r="7"/>
                <circle id="rim2" cx="0" cy="0" r="3.5"/>
                <g id="zoomPlus">
                        <use xlink:href="#rim" fill="#404040">
                                <set attributeName="fill" to="#808080" begin="zoomplus.mouseover" end="zoomplus.mouseout"/>
                        </use>
                        <path d="M-4,0h8M0,-4v8" fill="none" stroke="white" stroke-width="1.5" pointer-events="none"/>
                </g>
                <g id="zoomMin">
                        <use xlink:href="#rim" fill="#404040">
                                <set attributeName="fill" to="#808080" begin="zoomminus.mouseover" end="zoomminus.mouseout"/>
                        </use>
                        <path d="M-4,0h8" fill="none" stroke="white" stroke-width="1.5" pointer-events="none"/>
                </g>
                <g id="dirArrow">
                        <path fill="none" stroke="white" stroke-width="1.5" d="M0,-3.0v7 M-2.5,-0.5L0,-3.0L2.5,-0.5"/>
                </g>
               <g id="resetDef">
                       <use xlink:href="#rim2" fill="#404040">
                               <set attributeName="fill" to="#808080" begin="reset.mouseover" end="reset.mouseout"/>
                       </use>
               </g>
        </defs>

<script type="text/javascript">
var viewWidth = 583;
var viewHeight = 343;
var sectionId = 'dynsection-0';
</script>
<script xlink:href="svgpan.js"/>
<svg id="graph" class="graph">
<g id="viewport">
<title>fs_tree_t</title>
<!-- Node1 -->
<g id="node1" class="node">
<title>Node1</title>
<g id="a_node1"><a xlink:title="Used internally by filesystem.c to cache directories to RAM.">
<polygon fill="#bfbfbf" stroke="black" points="173.61,-96 173.61,-115 232.61,-115 232.61,-96 173.61,-96"/>
<text text-anchor="middle" x="203.11" y="-103" font-family="Helvetica,sans-Serif" font-size="10.00">fs_tree_t</text>
</a>
</g>
</g>
<!-- Node1&#45;&gt;Node1 -->
<g id="edge10" class="edge">
<title>Node1&#45;&gt;Node1</title>
<path fill="none" stroke="#9a32cd" stroke-dasharray="5,2" d="M233.6,-115.99C243.12,-115.81 250.61,-112.31 250.61,-105.5 250.61,-96.42 237.29,-93.23 223.61,-95.93"/>
<polygon fill="#9a32cd" stroke="#9a32cd" points="233.89,-112.5 223.61,-115.07 233.25,-119.47 233.89,-112.5"/>
<text text-anchor="middle" x="275.61" y="-114" font-family="Helvetica,sans-Serif" font-size="10.00"> child_dirs</text>
<text text-anchor="middle" x="275.61" y="-103" font-family="Helvetica,sans-Serif" font-size="10.00">next</text>
<text text-anchor="middle" x="275.61" y="-92" font-family="Helvetica,sans-Serif" font-size="10.00">parent</text>
</g>
<!-- Node3 -->
<g id="node3" class="node">
<title>Node3</title>
<g id="a_node3"><a xlink:href="structfs__directory__entry__t.html" target="_top" xlink:title="A VFS directory entry. Files AND directories have these, but internally there is also a tree of fs_tr...">
<polygon fill="none" stroke="black" points="118.11,-0.5 118.11,-19.5 232.11,-19.5 232.11,-0.5 118.11,-0.5"/>
<text text-anchor="middle" x="175.11" y="-7.5" font-family="Helvetica,sans-Serif" font-size="10.00">fs_directory_entry_t</text>
</a>
</g>
</g>
<!-- Node1&#45;&gt;Node3 -->
<g id="edge5" class="edge">
<title>Node1&#45;&gt;Node3</title>
<path fill="none" stroke="#9a32cd" stroke-dasharray="5,2" d="M205.61,-85.75C206.67,-71.99 206.45,-53.16 200.11,-38 197.1,-30.81 191.28,-24.34 186.01,-19.54"/>
<polygon fill="#9a32cd" stroke="#9a32cd" points="202.11,-85.59 204.53,-95.91 209.07,-86.33 202.11,-85.59"/>
<text text-anchor="middle" x="228.61" y="-46.5" font-family="Helvetica,sans-Serif" font-size="10.00"> directory</text>
</g>
<!-- Node2 -->
<g id="node2" class="node">
<title>Node2</title>
<g id="a_node2"><a xlink:title=" ">
<polygon fill="none" stroke="#bfbfbf" points="153.11,-315.5 153.11,-334.5 209.11,-334.5 209.11,-315.5 153.11,-315.5"/>
<text text-anchor="middle" x="181.11" y="-322.5" font-family="Helvetica,sans-Serif" font-size="10.00">uint64_t</text>
</a>
</g>
</g>
<!-- Node2&#45;&gt;Node1 -->
<g id="edge1" class="edge">
<title>Node2&#45;&gt;Node1</title>
<path fill="none" stroke="#9a32cd" stroke-dasharray="5,2" d="M182.99,-305.39C187.53,-260.47 198.97,-147.44 202.23,-115.2"/>
<polygon fill="#9a32cd" stroke="#9a32cd" points="179.49,-305.17 181.97,-315.47 186.46,-305.88 179.49,-305.17"/>
<text text-anchor="middle" x="211.11" y="-227" font-family="Helvetica,sans-Serif" font-size="10.00"> device</text>
<text text-anchor="middle" x="211.11" y="-216" font-family="Helvetica,sans-Serif" font-size="10.00">lbapos</text>
<text text-anchor="middle" x="211.11" y="-205" font-family="Helvetica,sans-Serif" font-size="10.00">size</text>
</g>
<!-- Node2&#45;&gt;Node3 -->
<g id="edge4" class="edge">
<title>Node2&#45;&gt;Node3</title>
<path fill="none" stroke="#9a32cd" stroke-dasharray="5,2" d="M143.91,-311.93C108.03,-298.5 54.52,-273.49 22.11,-235 6.62,-216.61 8.17,-207.69 4.11,-184 -7.88,-113.99 10.34,-77.9 69.11,-38 83.48,-28.24 101.12,-22.01 117.86,-18.03"/>
<polygon fill="#9a32cd" stroke="#9a32cd" points="142.94,-315.3 153.53,-315.42 145.32,-308.72 142.94,-315.3"/>
<text text-anchor="middle" x="22.11" y="-170.5" font-family="Helvetica,sans-Serif" font-size="10.00"> lbapos</text>
<text text-anchor="middle" x="22.11" y="-159.5" font-family="Helvetica,sans-Serif" font-size="10.00">size</text>
</g>
<!-- Node8 -->
<g id="node8" class="node">
<title>Node8</title>
<g id="a_node8"><a xlink:href="structfilesystem__t.html" target="_top" xlink:title="Defines a filesystem driver.">
<polygon fill="none" stroke="black" points="245.61,-209 245.61,-228 322.61,-228 322.61,-209 245.61,-209"/>
<text text-anchor="middle" x="284.11" y="-216" font-family="Helvetica,sans-Serif" font-size="10.00">filesystem_t</text>
</a>
</g>
</g>
<!-- Node2&#45;&gt;Node8 -->
<g id="edge12" class="edge">
<title>Node2&#45;&gt;Node8</title>
<path fill="none" stroke="#9a32cd" stroke-dasharray="5,2" d="M190.54,-306.32C199.33,-290.95 213.56,-268.76 230.11,-253 240.81,-242.8 255.11,-234.1 266.3,-228.13"/>
<polygon fill="#9a32cd" stroke="#9a32cd" points="187.35,-304.84 185.57,-315.29 193.47,-308.23 187.35,-304.84"/>
<text text-anchor="middle" x="253.61" y="-289" font-family="Helvetica,sans-Serif" font-size="10.00"> createdir</text>
<text text-anchor="middle" x="253.61" y="-278" font-family="Helvetica,sans-Serif" font-size="10.00">createfile</text>
<text text-anchor="middle" x="253.61" y="-267" font-family="Helvetica,sans-Serif" font-size="10.00">readfile</text>
<text text-anchor="middle" x="253.61" y="-256" font-family="Helvetica,sans-Serif" font-size="10.00">writefile</text>
</g>
<!-- Node3&#45;&gt;Node1 -->
<g id="edge2" class="edge">
<title>Node3&#45;&gt;Node1</title>
<path fill="none" stroke="#9a32cd" stroke-dasharray="5,2" d="M173.24,-29.62C172.86,-38.92 173.27,-50.24 176.11,-60 180.09,-73.71 189.44,-87.45 196.02,-95.96"/>
<polygon fill="#9a32cd" stroke="#9a32cd" points="176.74,-29.75 173.97,-19.52 169.75,-29.25 176.74,-29.75"/>
<text text-anchor="middle" x="188.11" y="-46.5" font-family="Helvetica,sans-Serif" font-size="10.00"> files</text>
</g>
<!-- Node3&#45;&gt;Node3 -->
<g id="edge3" class="edge">
<title>Node3&#45;&gt;Node3</title>
<path fill="none" stroke="#9a32cd" stroke-dasharray="5,2" d="M242.55,-15.19C247.25,-14 250.11,-12.27 250.11,-10 250.11,-6.36 242.78,-4.12 232.33,-3.27"/>
<polygon fill="#9a32cd" stroke="#9a32cd" points="241.7,-11.78 232.33,-16.73 242.74,-18.7 241.7,-11.78"/>
<text text-anchor="middle" x="262.61" y="-7.5" font-family="Helvetica,sans-Serif" font-size="10.00"> next</text>
</g>
<!-- Node4 -->
<g id="node4" class="node">
<title>Node4</title>
<g id="a_node4"><a xlink:title=" ">
<polygon fill="none" stroke="#bfbfbf" points="99.11,-96 99.11,-115 155.11,-115 155.11,-96 99.11,-96"/>
<text text-anchor="middle" x="127.11" y="-103" font-family="Helvetica,sans-Serif" font-size="10.00">uint16_t</text>
</a>
</g>
</g>
<!-- Node4&#45;&gt;Node3 -->
<g id="edge6" class="edge">
<title>Node4&#45;&gt;Node3</title>
<path fill="none" stroke="#9a32cd" stroke-dasharray="5,2" d="M128.87,-85.73C130.87,-71.72 135.13,-52.57 144.11,-38 148.6,-30.71 155.69,-24.32 161.96,-19.59"/>
<polygon fill="#9a32cd" stroke="#9a32cd" points="125.39,-85.33 127.7,-95.67 132.34,-86.15 125.39,-85.33"/>
<text text-anchor="middle" x="156.61" y="-46.5" font-family="Helvetica,sans-Serif" font-size="10.00"> year</text>
</g>
<!-- Node5 -->
<g id="node5" class="node">
<title>Node5</title>
<g id="a_node5"><a xlink:title=" ">
<polygon fill="none" stroke="#bfbfbf" points="452.11,-315.5 452.11,-334.5 490.11,-334.5 490.11,-315.5 452.11,-315.5"/>
<text text-anchor="middle" x="471.11" y="-322.5" font-family="Helvetica,sans-Serif" font-size="10.00">char</text>
</a>
</g>
</g>
<!-- Node5&#45;&gt;Node1 -->
<g id="edge17" class="edge">
<title>Node5&#45;&gt;Node1</title>
<path fill="none" stroke="#9a32cd" stroke-dasharray="5,2" d="M470.37,-305.09C469.11,-290.18 465.78,-269.25 457.11,-253 426.93,-196.43 410.26,-183.69 355.11,-151 334.41,-138.73 270.98,-122.44 232.91,-113.36"/>
<polygon fill="#9a32cd" stroke="#9a32cd" points="466.88,-305.38 470.99,-315.15 473.87,-304.95 466.88,-305.38"/>
<text text-anchor="middle" x="480.61" y="-221.5" font-family="Helvetica,sans-Serif" font-size="10.00"> device_name</text>
<text text-anchor="middle" x="480.61" y="-210.5" font-family="Helvetica,sans-Serif" font-size="10.00">name</text>
</g>
<!-- Node5&#45;&gt;Node3 -->
<g id="edge7" class="edge">
<title>Node5&#45;&gt;Node3</title>
<path fill="none" stroke="#9a32cd" stroke-dasharray="5,2" d="M485.96,-307.66C505.49,-284.09 535.5,-239.3 519.11,-202 474.38,-100.18 432.33,-81.82 330.11,-38 299.23,-24.76 262.24,-18.01 232.14,-14.57"/>
<polygon fill="#9a32cd" stroke="#9a32cd" points="483.23,-305.47 479.35,-315.33 488.53,-310.04 483.23,-305.47"/>
<text text-anchor="middle" x="542.11" y="-176" font-family="Helvetica,sans-Serif" font-size="10.00"> alt_filename</text>
<text text-anchor="middle" x="542.11" y="-165" font-family="Helvetica,sans-Serif" font-size="10.00">device_name</text>
<text text-anchor="middle" x="542.11" y="-154" font-family="Helvetica,sans-Serif" font-size="10.00">filename</text>
</g>
<!-- Node5&#45;&gt;Node8 -->
<g id="edge15" class="edge">
<title>Node5&#45;&gt;Node8</title>
<path fill="none" stroke="#9a32cd" stroke-dasharray="5,2" d="M442.65,-311.96C435.36,-307.95 427.93,-302.96 422.11,-297 406.68,-281.23 416.18,-266.98 399.11,-253 377.47,-235.28 346.82,-226.93 322.61,-223"/>
<polygon fill="#9a32cd" stroke="#9a32cd" points="441.19,-315.14 451.7,-316.51 444.34,-308.89 441.19,-315.14"/>
<text text-anchor="middle" x="439.61" y="-289" font-family="Helvetica,sans-Serif" font-size="10.00"> mount</text>
<text text-anchor="middle" x="439.61" y="-278" font-family="Helvetica,sans-Serif" font-size="10.00">name</text>
<text text-anchor="middle" x="439.61" y="-267" font-family="Helvetica,sans-Serif" font-size="10.00">rm</text>
<text text-anchor="middle" x="439.61" y="-256" font-family="Helvetica,sans-Serif" font-size="10.00">rmdir</text>
</g>
<!-- Node6 -->
<g id="node6" class="node">
<title>Node6</title>
<g id="a_node6"><a xlink:title=" ">
<polygon fill="none" stroke="#bfbfbf" points="319.11,-96 319.11,-115 375.11,-115 375.11,-96 319.11,-96"/>
<text text-anchor="middle" x="347.11" y="-103" font-family="Helvetica,sans-Serif" font-size="10.00">uint32_t</text>
</a>
</g>
</g>
<!-- Node6&#45;&gt;Node3 -->
<g id="edge8" class="edge">
<title>Node6&#45;&gt;Node3</title>
<path fill="none" stroke="#9a32cd" stroke-dasharray="5,2" d="M329.72,-89.23C312.16,-74.46 283.75,-52.27 256.11,-38 241.09,-30.25 223.39,-24.05 208.36,-19.55"/>
<polygon fill="#9a32cd" stroke="#9a32cd" points="327.54,-91.98 337.41,-95.82 332.09,-86.66 327.54,-91.98"/>
<text text-anchor="middle" x="308.11" y="-52" font-family="Helvetica,sans-Serif" font-size="10.00"> device</text>
<text text-anchor="middle" x="308.11" y="-41" font-family="Helvetica,sans-Serif" font-size="10.00">flags</text>
</g>
<!-- Node7 -->
<g id="node7" class="node">
<title>Node7</title>
<g id="a_node7"><a xlink:title=" ">
<polygon fill="none" stroke="#bfbfbf" points="31.11,-209 31.11,-228 81.11,-228 81.11,-209 31.11,-209"/>
<text text-anchor="middle" x="56.11" y="-216" font-family="Helvetica,sans-Serif" font-size="10.00">uint8_t</text>
</a>
</g>
</g>
<!-- Node7&#45;&gt;Node1 -->
<g id="edge18" class="edge">
<title>Node7&#45;&gt;Node1</title>
<path fill="none" stroke="#9a32cd" stroke-dasharray="5,2" d="M62.14,-198.86C67.97,-183.76 78.28,-163.07 94.11,-151 119.65,-131.52 134.83,-146.22 164.11,-133 174.4,-128.35 184.93,-121.01 192.45,-115.24"/>
<polygon fill="#9a32cd" stroke="#9a32cd" points="58.7,-198.07 58.67,-208.67 65.3,-200.41 58.7,-198.07"/>
<text text-anchor="middle" x="107.11" y="-165" font-family="Helvetica,sans-Serif" font-size="10.00"> dirty</text>
</g>
<!-- Node7&#45;&gt;Node3 -->
<g id="edge9" class="edge">
<title>Node7&#45;&gt;Node3</title>
<path fill="none" stroke="#9a32cd" stroke-dasharray="5,2" d="M50.98,-199.14C44.23,-170.91 35.63,-116.13 58.11,-78 76.47,-46.84 115.28,-28.89 143.17,-19.55"/>
<polygon fill="#9a32cd" stroke="#9a32cd" points="47.61,-200.07 53.5,-208.87 54.39,-198.31 47.61,-200.07"/>
<text text-anchor="middle" x="74.11" y="-125" font-family="Helvetica,sans-Serif" font-size="10.00"> day</text>
<text text-anchor="middle" x="74.11" y="-114" font-family="Helvetica,sans-Serif" font-size="10.00">hour</text>
<text text-anchor="middle" x="74.11" y="-103" font-family="Helvetica,sans-Serif" font-size="10.00">min</text>
<text text-anchor="middle" x="74.11" y="-92" font-family="Helvetica,sans-Serif" font-size="10.00">month</text>
<text text-anchor="middle" x="74.11" y="-81" font-family="Helvetica,sans-Serif" font-size="10.00">sec</text>
</g>
<!-- Node8&#45;&gt;Node1 -->
<g id="edge11" class="edge">
<title>Node8&#45;&gt;Node1</title>
<path fill="none" stroke="#9a32cd" stroke-dasharray="5,2" d="M271.79,-200.62C254.28,-176.63 222.83,-133.53 209.43,-115.17"/>
<polygon fill="#9a32cd" stroke="#9a32cd" points="269.03,-202.78 277.75,-208.79 274.68,-198.65 269.03,-202.78"/>
<text text-anchor="middle" x="304.11" y="-165" font-family="Helvetica,sans-Serif" font-size="10.00"> responsible_driver</text>
</g>
<!-- Node8&#45;&gt;Node8 -->
<g id="edge14" class="edge">
<title>Node8&#45;&gt;Node8</title>
<path fill="none" stroke="#9a32cd" stroke-dasharray="5,2" d="M332.83,-226.11C337.59,-224.58 340.61,-222.04 340.61,-218.5 340.61,-212.84 332.87,-209.74 322.66,-209.21"/>
<polygon fill="#9a32cd" stroke="#9a32cd" points="331.96,-222.71 322.66,-227.79 333.1,-229.61 331.96,-222.71"/>
<text text-anchor="middle" x="353.11" y="-216" font-family="Helvetica,sans-Serif" font-size="10.00"> next</text>
</g>
<!-- Node9 -->
<g id="node9" class="node">
<title>Node9</title>
<g id="a_node9"><a xlink:title=" ">
<polygon fill="none" stroke="#bfbfbf" points="232.61,-315.5 232.61,-334.5 327.61,-334.5 327.61,-315.5 232.61,-315.5"/>
<text text-anchor="middle" x="280.11" y="-322.5" font-family="Helvetica,sans-Serif" font-size="10.00">void *(*)(void *)</text>
</a>
</g>
</g>
<!-- Node9&#45;&gt;Node8 -->
<g id="edge13" class="edge">
<title>Node9&#45;&gt;Node8</title>
<path fill="none" stroke="#9a32cd" stroke-dasharray="5,2" d="M280.82,-305.34C281.69,-282.58 283.13,-245.03 283.78,-228.17"/>
<polygon fill="#9a32cd" stroke="#9a32cd" points="277.32,-305.32 280.43,-315.45 284.31,-305.59 277.32,-305.32"/>
<text text-anchor="middle" x="298.11" y="-272.5" font-family="Helvetica,sans-Serif" font-size="10.00"> getdir</text>
</g>
<!-- Node10 -->
<g id="node10" class="node">
<title>Node10</title>
<g id="a_node10"><a xlink:title=" ">
<polygon fill="none" stroke="#bfbfbf" points="345.61,-315.5 345.61,-334.5 390.61,-334.5 390.61,-315.5 345.61,-315.5"/>
<text text-anchor="middle" x="368.11" y="-322.5" font-family="Helvetica,sans-Serif" font-size="10.00">size_t</text>
</a>
</g>
</g>
<!-- Node10&#45;&gt;Node8 -->
<g id="edge16" class="edge">
<title>Node10&#45;&gt;Node8</title>
<path fill="none" stroke="#9a32cd" stroke-dasharray="5,2" d="M350.15,-308.36C346.59,-304.82 343.06,-300.94 340.11,-297 326.88,-279.34 330.1,-270.83 317.11,-253 310.38,-243.76 301.14,-234.61 294.15,-228.21"/>
<polygon fill="#9a32cd" stroke="#9a32cd" points="348.03,-311.18 357.72,-315.45 352.81,-306.06 348.03,-311.18"/>
<text text-anchor="middle" x="369.61" y="-272.5" font-family="Helvetica,sans-Serif" font-size="10.00"> truncatefile</text>
</g>
<!-- Node11 -->
<g id="node11" class="node">
<title>Node11</title>
<g id="a_node11"><a xlink:title=" ">
<polygon fill="none" stroke="#bfbfbf" points="104.11,-209 104.11,-228 150.11,-228 150.11,-209 104.11,-209"/>
<text text-anchor="middle" x="127.11" y="-216" font-family="Helvetica,sans-Serif" font-size="10.00">void *</text>
</a>
</g>
</g>
<!-- Node11&#45;&gt;Node1 -->
<g id="edge19" class="edge">
<title>Node11&#45;&gt;Node1</title>
<path fill="none" stroke="#9a32cd" stroke-dasharray="5,2" d="M124.03,-198.88C122.69,-184.67 123.08,-165.18 132.11,-151 140.87,-137.23 150.24,-141.59 164.11,-133 173.29,-127.31 183.38,-120.44 190.99,-115.12"/>
<polygon fill="#9a32cd" stroke="#9a32cd" points="120.58,-199.48 125.36,-208.94 127.52,-198.57 120.58,-199.48"/>
<text text-anchor="middle" x="152.11" y="-165" font-family="Helvetica,sans-Serif" font-size="10.00"> opaque</text>
</g>
</g>
</svg>
        <g id="navigator" transform="translate(0 0)" fill="#404254">
                <rect fill="#f2f5e9" fill-opacity="0.5" stroke="#606060" stroke-width=".5" x="0" y="0" width="60" height="60"/>
                <use id="zoomplus" xlink:href="#zoomPlus" x="17" y="9" onmousedown="handleZoom(evt,'in')"/>
                <use id="zoomminus" xlink:href="#zoomMin" x="42" y="9" onmousedown="handleZoom(evt,'out')"/>
                <use id="reset" xlink:href="#resetDef" x="30" y="36" onmousedown="handleReset()"/>
                <g id="arrowUp" xlink:href="#dirArrow" transform="translate(30 24)" onmousedown="handlePan(0,-1)">
                  <use xlink:href="#rim" fill="#404040">
                        <set attributeName="fill" to="#808080" begin="arrowUp.mouseover" end="arrowUp.mouseout"/>
                  </use>
                  <path fill="none" stroke="white" stroke-width="1.5" d="M0,-3.0v7 M-2.5,-0.5L0,-3.0L2.5,-0.5"/>
                </g>
                <g id="arrowRight" xlink:href="#dirArrow" transform="rotate(90) translate(36 -43)" onmousedown="handlePan(1,0)">
                  <use xlink:href="#rim" fill="#404040">
                        <set attributeName="fill" to="#808080" begin="arrowRight.mouseover" end="arrowRight.mouseout"/>
                  </use>
                  <path fill="none" stroke="white" stroke-width="1.5" d="M0,-3.0v7 M-2.5,-0.5L0,-3.0L2.5,-0.5"/>
                </g>
                <g id="arrowDown" xlink:href="#dirArrow" transform="rotate(180) translate(-30 -48)" onmousedown="handlePan(0,1)">
                  <use xlink:href="#rim" fill="#404040">
                        <set attributeName="fill" to="#808080" begin="arrowDown.mouseover" end="arrowDown.mouseout"/>
                  </use>
                  <path fill="none" stroke="white" stroke-width="1.5" d="M0,-3.0v7 M-2.5,-0.5L0,-3.0L2.5,-0.5"/>
                </g>
                <g id="arrowLeft" xlink:href="#dirArrow" transform="rotate(270) translate(-36 17)" onmousedown="handlePan(-1,0)">
                  <use xlink:href="#rim" fill="#404040">
                        <set attributeName="fill" to="#808080" begin="arrowLeft.mouseover" end="arrowLeft.mouseout"/>
                  </use>
                  <path fill="none" stroke="white" stroke-width="1.5" d="M0,-3.0v7 M-2.5,-0.5L0,-3.0L2.5,-0.5"/>
                </g>
        </g>
        <svg viewBox="0 0 15 15" width="100%" height="30px" preserveAspectRatio="xMaxYMin meet">
         <g id="arrow_out" transform="scale(0.3 0.3)">
          <a xlink:href="structfs__tree__t__coll__graph_org.svg" target="_base">
           <rect id="button" ry="5" rx="5" y="6" x="6" height="38" width="38"
                fill="#f2f5e9" fill-opacity="0.5" stroke="#606060" stroke-width="1.0"/>
           <path id="arrow"
             d="M 11.500037,31.436501 C 11.940474,20.09759 22.043105,11.32322 32.158766,21.979434 L 37.068811,17.246167 C 37.068811,17.246167 37.088388,32 37.088388,32 L 22.160133,31.978069 C 22.160133,31.978069 26.997745,27.140456 26.997745,27.140456 C 18.528582,18.264221 13.291696,25.230495 11.500037,31.436501 z"
             style="fill:#404040;"/>
          </a>
         </g>
        </svg>
</svg>
