<?xml version="1.0" encoding="UTF-8" standalone="no"?>
<!DOCTYPE svg PUBLIC "-//W3C//DTD SVG 1.1//EN"
 "http://www.w3.org/Graphics/SVG/1.1/DTD/svg11.dtd">
<!-- Generated by graphviz version 2.43.0 (0)
 -->
<!-- Title: sdt_header Pages: 1 -->
<svg width="269pt" height="128pt"
 viewBox="0.00 0.00 269.00 128.00" xmlns="http://www.w3.org/2000/svg" xmlns:xlink="http://www.w3.org/1999/xlink">
<g id="graph0" class="graph" transform="scale(1 1) rotate(0) translate(4 124)">
<title>sdt_header</title>
<!-- Node1 -->
<g id="node1" class="node">
<title>Node1</title>
<g id="a_node1"><a xlink:title=" ">
<polygon fill="#bfbfbf" stroke="black" points="73.5,-0.5 73.5,-19.5 144.5,-19.5 144.5,-0.5 73.5,-0.5"/>
<text text-anchor="middle" x="109" y="-7.5" font-family="Helvetica,sans-Serif" font-size="10.00">sdt_header</text>
</a>
</g>
</g>
<!-- Node2 -->
<g id="node2" class="node">
<title>Node2</title>
<g id="a_node2"><a xlink:title=" ">
<polygon fill="none" stroke="#bfbfbf" points="0,-100.5 0,-119.5 38,-119.5 38,-100.5 0,-100.5"/>
<text text-anchor="middle" x="19" y="-107.5" font-family="Helvetica,sans-Serif" font-size="10.00">char</text>
</a>
</g>
</g>
<!-- Node2&#45;&gt;Node1 -->
<g id="edge1" class="edge">
<title>Node2&#45;&gt;Node1</title>
<path fill="none" stroke="#9a32cd" stroke-dasharray="5,2" d="M19.44,-90.27C20.78,-74.52 25.06,-52.33 38,-38 47.19,-27.82 60.63,-21.46 73.35,-17.49"/>
<polygon fill="#9a32cd" stroke="#9a32cd" points="15.94,-90.23 18.91,-100.4 22.93,-90.6 15.94,-90.23"/>
<text text-anchor="middle" x="71.5" y="-68.5" font-family="Helvetica,sans-Serif" font-size="10.00"> oem_id</text>
<text text-anchor="middle" x="71.5" y="-57.5" font-family="Helvetica,sans-Serif" font-size="10.00">oem_table_id</text>
<text text-anchor="middle" x="71.5" y="-46.5" font-family="Helvetica,sans-Serif" font-size="10.00">signature</text>
</g>
<!-- Node3 -->
<g id="node3" class="node">
<title>Node3</title>
<g id="a_node3"><a xlink:title=" ">
<polygon fill="none" stroke="#bfbfbf" points="81,-100.5 81,-119.5 137,-119.5 137,-100.5 81,-100.5"/>
<text text-anchor="middle" x="109" y="-107.5" font-family="Helvetica,sans-Serif" font-size="10.00">uint32_t</text>
</a>
</g>
</g>
<!-- Node3&#45;&gt;Node1 -->
<g id="edge2" class="edge">
<title>Node3&#45;&gt;Node1</title>
<path fill="none" stroke="#9a32cd" stroke-dasharray="5,2" d="M109,-90.22C109,-68.95 109,-35.22 109,-19.54"/>
<polygon fill="#9a32cd" stroke="#9a32cd" points="105.5,-90.3 109,-100.3 112.5,-90.3 105.5,-90.3"/>
<text text-anchor="middle" x="148.5" y="-74" font-family="Helvetica,sans-Serif" font-size="10.00"> creator_id</text>
<text text-anchor="middle" x="148.5" y="-63" font-family="Helvetica,sans-Serif" font-size="10.00">creator_revision</text>
<text text-anchor="middle" x="148.5" y="-52" font-family="Helvetica,sans-Serif" font-size="10.00">length</text>
<text text-anchor="middle" x="148.5" y="-41" font-family="Helvetica,sans-Serif" font-size="10.00">oem_revision</text>
</g>
<!-- Node4 -->
<g id="node4" class="node">
<title>Node4</title>
<g id="a_node4"><a xlink:title=" ">
<polygon fill="none" stroke="#bfbfbf" points="186,-100.5 186,-119.5 236,-119.5 236,-100.5 186,-100.5"/>
<text text-anchor="middle" x="211" y="-107.5" font-family="Helvetica,sans-Serif" font-size="10.00">uint8_t</text>
</a>
</g>
</g>
<!-- Node4&#45;&gt;Node1 -->
<g id="edge3" class="edge">
<title>Node4&#45;&gt;Node1</title>
<path fill="none" stroke="#9a32cd" stroke-dasharray="5,2" d="M209.81,-90.09C207.83,-74.23 202.63,-51.98 189,-38 177.33,-26.04 160.19,-19.37 144.77,-15.66"/>
<polygon fill="#9a32cd" stroke="#9a32cd" points="206.35,-90.67 210.75,-100.31 213.32,-90.03 206.35,-90.67"/>
<text text-anchor="middle" x="234.5" y="-63" font-family="Helvetica,sans-Serif" font-size="10.00"> checksum</text>
<text text-anchor="middle" x="234.5" y="-52" font-family="Helvetica,sans-Serif" font-size="10.00">revision</text>
</g>
</g>
</svg>
