<?xml version="1.0" encoding="UTF-8" standalone="no"?>
<!DOCTYPE svg PUBLIC "-//W3C//DTD SVG 1.1//EN"
 "http://www.w3.org/Graphics/SVG/1.1/DTD/svg11.dtd">
<!-- Generated by graphviz version 2.43.0 (0)
 -->
<!-- Title: ip_fragmented_packet_parts_t Pages: 1 -->
<svg width="453pt" height="184pt"
 viewBox="0.00 0.00 453.00 184.00" xmlns="http://www.w3.org/2000/svg" xmlns:xlink="http://www.w3.org/1999/xlink">
<g id="graph0" class="graph" transform="scale(1 1) rotate(0) translate(4 180)">
<title>ip_fragmented_packet_parts_t</title>
<!-- Node1 -->
<g id="node1" class="node">
<title>Node1</title>
<g id="a_node1"><a xlink:title=" ">
<polygon fill="#bfbfbf" stroke="black" points="224.5,-0.5 224.5,-30.5 349.5,-30.5 349.5,-0.5 224.5,-0.5"/>
<text text-anchor="start" x="232.5" y="-18.5" font-family="Helvetica,sans-Serif" font-size="10.00">ip_fragmented_packet</text>
<text text-anchor="middle" x="287" y="-7.5" font-family="Helvetica,sans-Serif" font-size="10.00">_parts_t</text>
</a>
</g>
</g>
<!-- Node2 -->
<g id="node2" class="node">
<title>Node2</title>
<g id="a_node2"><a xlink:href="structip__packet__frag__t.html" target="_top" xlink:title=" ">
<polygon fill="none" stroke="black" points="116.5,-78.5 116.5,-97.5 213.5,-97.5 213.5,-78.5 116.5,-78.5"/>
<text text-anchor="middle" x="165" y="-85.5" font-family="Helvetica,sans-Serif" font-size="10.00">ip_packet_frag_t</text>
</a>
</g>
</g>
<!-- Node2&#45;&gt;Node1 -->
<g id="edge1" class="edge">
<title>Node2&#45;&gt;Node1</title>
<path fill="none" stroke="#9a32cd" stroke-dasharray="5,2" d="M171.18,-68.67C174.35,-61.67 178.86,-54.15 185,-49 196.25,-39.57 210.28,-32.87 224.29,-28.1"/>
<polygon fill="#9a32cd" stroke="#9a32cd" points="167.83,-67.62 167.47,-78.21 174.36,-70.16 167.83,-67.62"/>
<text text-anchor="middle" x="215.5" y="-52" font-family="Helvetica,sans-Serif" font-size="10.00"> ordered_list</text>
</g>
<!-- Node3 -->
<g id="node3" class="node">
<title>Node3</title>
<g id="a_node3"><a xlink:title=" ">
<polygon fill="none" stroke="#bfbfbf" points="0,-156.5 0,-175.5 72,-175.5 72,-156.5 0,-156.5"/>
<text text-anchor="middle" x="36" y="-163.5" font-family="Helvetica,sans-Serif" font-size="10.00">ip_packet_t</text>
</a>
</g>
</g>
<!-- Node3&#45;&gt;Node2 -->
<g id="edge2" class="edge">
<title>Node3&#45;&gt;Node2</title>
<path fill="none" stroke="#9a32cd" stroke-dasharray="5,2" d="M59.39,-151.17C76.01,-141.35 98.87,-127.85 119,-116 129.53,-109.8 141.43,-102.81 150.49,-97.5"/>
<polygon fill="#9a32cd" stroke="#9a32cd" points="57.22,-148.39 50.39,-156.49 60.78,-154.42 57.22,-148.39"/>
<text text-anchor="middle" x="137" y="-124.5" font-family="Helvetica,sans-Serif" font-size="10.00"> packet</text>
</g>
<!-- Node4 -->
<g id="node4" class="node">
<title>Node4</title>
<g id="a_node4"><a xlink:title=" ">
<polygon fill="none" stroke="#bfbfbf" points="236,-156.5 236,-175.5 292,-175.5 292,-156.5 236,-156.5"/>
<text text-anchor="middle" x="264" y="-163.5" font-family="Helvetica,sans-Serif" font-size="10.00">uint32_t</text>
</a>
</g>
</g>
<!-- Node4&#45;&gt;Node1 -->
<g id="edge7" class="edge">
<title>Node4&#45;&gt;Node1</title>
<path fill="none" stroke="#9a32cd" stroke-dasharray="5,2" d="M263.85,-146.14C264.01,-128.43 264.99,-101.24 269,-78 271.84,-61.56 277.53,-43.27 281.76,-30.94"/>
<polygon fill="#9a32cd" stroke="#9a32cd" points="260.35,-146.28 263.85,-156.28 267.35,-146.28 260.35,-146.28"/>
<text text-anchor="middle" x="280.5" y="-85.5" font-family="Helvetica,sans-Serif" font-size="10.00"> size</text>
</g>
<!-- Node4&#45;&gt;Node2 -->
<g id="edge3" class="edge">
<title>Node4&#45;&gt;Node2</title>
<path fill="none" stroke="#9a32cd" stroke-dasharray="5,2" d="M236.69,-151.66C229.39,-147.64 221.69,-142.97 215,-138 198.42,-125.67 181.81,-108.11 172.52,-97.7"/>
<polygon fill="#9a32cd" stroke="#9a32cd" points="235.12,-154.79 245.59,-156.36 238.39,-148.6 235.12,-154.79"/>
<text text-anchor="middle" x="230.5" y="-124.5" font-family="Helvetica,sans-Serif" font-size="10.00"> offset</text>
</g>
<!-- Node5 -->
<g id="node5" class="node">
<title>Node5</title>
<g id="a_node5"><a xlink:title=" ">
<polygon fill="none" stroke="#bfbfbf" points="90.5,-156.5 90.5,-175.5 217.5,-175.5 217.5,-156.5 90.5,-156.5"/>
<text text-anchor="middle" x="154" y="-163.5" font-family="Helvetica,sans-Serif" font-size="10.00">struct ip_packet_frag *</text>
</a>
</g>
</g>
<!-- Node5&#45;&gt;Node2 -->
<g id="edge4" class="edge">
<title>Node5&#45;&gt;Node2</title>
<path fill="none" stroke="#9a32cd" stroke-dasharray="5,2" d="M156.72,-146.22C158.96,-130.7 162.05,-109.36 163.75,-97.62"/>
<polygon fill="#9a32cd" stroke="#9a32cd" points="153.23,-145.88 155.26,-156.28 160.16,-146.89 153.23,-145.88"/>
<text text-anchor="middle" x="173.5" y="-130" font-family="Helvetica,sans-Serif" font-size="10.00"> next</text>
<text text-anchor="middle" x="173.5" y="-119" font-family="Helvetica,sans-Serif" font-size="10.00">prev</text>
</g>
<!-- Node6 -->
<g id="node6" class="node">
<title>Node6</title>
<g id="a_node6"><a xlink:title=" ">
<polygon fill="none" stroke="#bfbfbf" points="301,-78.5 301,-97.5 357,-97.5 357,-78.5 301,-78.5"/>
<text text-anchor="middle" x="329" y="-85.5" font-family="Helvetica,sans-Serif" font-size="10.00">uint64_t</text>
</a>
</g>
</g>
<!-- Node6&#45;&gt;Node1 -->
<g id="edge5" class="edge">
<title>Node6&#45;&gt;Node1</title>
<path fill="none" stroke="#9a32cd" stroke-dasharray="5,2" d="M318.68,-69.68C311.52,-57.65 302.09,-41.83 295.39,-30.58"/>
<polygon fill="#9a32cd" stroke="#9a32cd" points="315.73,-71.56 323.85,-78.36 321.74,-67.97 315.73,-71.56"/>
<text text-anchor="middle" x="350.5" y="-52" font-family="Helvetica,sans-Serif" font-size="10.00"> last_seen_ticks</text>
</g>
<!-- Node7 -->
<g id="node7" class="node">
<title>Node7</title>
<g id="a_node7"><a xlink:title=" ">
<polygon fill="none" stroke="#bfbfbf" points="389,-78.5 389,-97.5 445,-97.5 445,-78.5 389,-78.5"/>
<text text-anchor="middle" x="417" y="-85.5" font-family="Helvetica,sans-Serif" font-size="10.00">uint16_t</text>
</a>
</g>
</g>
<!-- Node7&#45;&gt;Node1 -->
<g id="edge6" class="edge">
<title>Node7&#45;&gt;Node1</title>
<path fill="none" stroke="#9a32cd" stroke-dasharray="5,2" d="M409.77,-69.37C406.02,-62.15 400.78,-54.27 394,-49 381.12,-38.99 365.18,-32.05 349.56,-27.25"/>
<polygon fill="#9a32cd" stroke="#9a32cd" points="406.6,-70.87 413.96,-78.49 412.96,-67.95 406.6,-70.87"/>
<text text-anchor="middle" x="409.5" y="-52" font-family="Helvetica,sans-Serif" font-size="10.00"> id</text>
</g>
</g>
</svg>
