<?xml version="1.0" encoding="UTF-8" standalone="no"?>
<!DOCTYPE svg PUBLIC "-//W3C//DTD SVG 1.1//EN"
 "http://www.w3.org/Graphics/SVG/1.1/DTD/svg11.dtd">
<!-- Generated by graphviz version 2.43.0 (0)
 -->
<!-- Title: iso9660 Pages: 1 -->
<!--zoomable 918 -->
<svg id="main" version="1.1" xmlns="http://www.w3.org/2000/svg" xmlns:xlink="http://www.w3.org/1999/xlink" xml:space="preserve" onload="init(evt)">
<style type="text/css"><![CDATA[
.edge:hover path { stroke: red; }
.edge:hover polygon { stroke: red; fill: red; }
]]></style>
<script type="text/javascript"><![CDATA[
var edges = document.getElementsByTagName('g');
if (edges && edges.length) {
  for (var i=0;i<edges.length;i++) {
    if (edges[i].id.substr(0,4)=='edge') {
      edges[i].setAttribute('class','edge');
    }
  }
}
]]></script>
        <defs>
                <circle id="rim" cx="0" cy="0" r="7"/>
                <circle id="rim2" cx="0" cy="0" r="3.5"/>
                <g id="zoomPlus">
                        <use xlink:href="#rim" fill="#404040">
                                <set attributeName="fill" to="#808080" begin="zoomplus.mouseover" end="zoomplus.mouseout"/>
                        </use>
                        <path d="M-4,0h8M0,-4v8" fill="none" stroke="white" stroke-width="1.5" pointer-events="none"/>
                </g>
                <g id="zoomMin">
                        <use xlink:href="#rim" fill="#404040">
                                <set attributeName="fill" to="#808080" begin="zoomminus.mouseover" end="zoomminus.mouseout"/>
                        </use>
                        <path d="M-4,0h8" fill="none" stroke="white" stroke-width="1.5" pointer-events="none"/>
                </g>
                <g id="dirArrow">
                        <path fill="none" stroke="white" stroke-width="1.5" d="M0,-3.0v7 M-2.5,-0.5L0,-3.0L2.5,-0.5"/>
                </g>
               <g id="resetDef">
                       <use xlink:href="#rim2" fill="#404040">
                               <set attributeName="fill" to="#808080" begin="reset.mouseover" end="reset.mouseout"/>
                       </use>
               </g>
        </defs>

<script type="text/javascript">
var viewWidth = 660;
var viewHeight = 918;
var sectionId = 'dynsection-0';
</script>
<script xlink:href="svgpan.js"/>
<svg id="graph" class="graph">
<g id="viewport">
<title>iso9660</title>
<!-- Node1 -->
<g id="node1" class="node">
<title>Node1</title>
<g id="a_node1"><a xlink:title="High&#45;level ISO9660 volume mapping.">
<polygon fill="#bfbfbf" stroke="black" points="595,-314.26 595,-333.26 650,-333.26 650,-314.26 595,-314.26"/>
<text text-anchor="middle" x="622.5" y="-321.26" font-family="Helvetica,sans-Serif" font-size="10.00">iso9660</text>
</a>
</g>
</g>
<!-- Node2 -->
<g id="node2" class="node">
<title>Node2</title>
<g id="a_node2"><a xlink:href="structfs__directory__entry__t.html" target="_top" xlink:title="A VFS directory entry. Files AND directories have these, but internally there is also a tree of fs_tr...">
<polygon fill="none" stroke="black" points="349,-692.26 349,-711.26 463,-711.26 463,-692.26 349,-692.26"/>
<text text-anchor="middle" x="406" y="-699.26" font-family="Helvetica,sans-Serif" font-size="10.00">fs_directory_entry_t</text>
</a>
</g>
</g>
<!-- Node2&#45;&gt;Node1 -->
<g id="edge1" class="edge">
<title>Node2&#45;&gt;Node1</title>
<path fill="none" stroke="#9a32cd" stroke-dasharray="5,2" d="M452.73,-687.17C456.61,-684.53 460.14,-681.42 463,-677.76 493.77,-638.38 464.22,-613.83 481,-566.76 490.14,-541.11 590.41,-375.03 615.72,-333.27"/>
<polygon fill="#9a32cd" stroke="#9a32cd" points="450.76,-684.26 443.78,-692.24 454.21,-690.36 450.76,-684.26"/>
<text text-anchor="middle" x="528" y="-569.76" font-family="Helvetica,sans-Serif" font-size="10.00"> root</text>
</g>
<!-- Node2&#45;&gt;Node2 -->
<g id="edge2" class="edge">
<title>Node2&#45;&gt;Node2</title>
<path fill="none" stroke="#9a32cd" stroke-dasharray="5,2" d="M385.63,-721.16C386.99,-726.07 393.78,-729.76 406,-729.76 425.55,-729.76 431.2,-720.32 422.95,-711.51"/>
<polygon fill="#9a32cd" stroke="#9a32cd" points="389.01,-722.11 389.05,-711.51 382.41,-719.77 389.01,-722.11"/>
<text text-anchor="middle" x="406" y="-732.76" font-family="Helvetica,sans-Serif" font-size="10.00"> next</text>
</g>
<!-- Node4 -->
<g id="node4" class="node">
<title>Node4</title>
<g id="a_node4"><a xlink:href="structfs__tree__t.html" target="_top" xlink:title="Used internally by filesystem.c to cache directories to RAM.">
<polygon fill="none" stroke="black" points="593,-653.26 593,-672.26 652,-672.26 652,-653.26 593,-653.26"/>
<text text-anchor="middle" x="622.5" y="-660.26" font-family="Helvetica,sans-Serif" font-size="10.00">fs_tree_t</text>
</a>
</g>
</g>
<!-- Node2&#45;&gt;Node4 -->
<g id="edge6" class="edge">
<title>Node2&#45;&gt;Node4</title>
<path fill="none" stroke="#9a32cd" stroke-dasharray="5,2" d="M473.42,-691.74C504.38,-686.8 541.66,-680.47 575,-673.76 580.69,-672.61 586.75,-671.27 592.54,-669.92"/>
<polygon fill="#9a32cd" stroke="#9a32cd" points="472.5,-688.34 463.17,-693.36 473.6,-695.25 472.5,-688.34"/>
<text text-anchor="middle" x="528" y="-692.76" font-family="Helvetica,sans-Serif" font-size="10.00"> files</text>
</g>
<!-- Node3 -->
<g id="node3" class="node">
<title>Node3</title>
<g id="a_node3"><a xlink:title=" ">
<polygon fill="none" stroke="#bfbfbf" points="154,-419.26 154,-438.26 210,-438.26 210,-419.26 154,-419.26"/>
<text text-anchor="middle" x="182" y="-426.26" font-family="Helvetica,sans-Serif" font-size="10.00">uint64_t</text>
</a>
</g>
</g>
<!-- Node3&#45;&gt;Node2 -->
<g id="edge3" class="edge">
<title>Node3&#45;&gt;Node2</title>
<path fill="none" stroke="#9a32cd" stroke-dasharray="5,2" d="M216.21,-443.06C225.13,-448.36 233.96,-455.22 240,-463.76 262.05,-494.93 235.82,-516.67 258,-547.76 280,-578.59 309.07,-560.87 331,-591.76 353.61,-623.6 324.26,-647.54 349,-677.76 354.16,-684.06 361.28,-688.74 368.72,-692.21"/>
<polygon fill="#9a32cd" stroke="#9a32cd" points="217.82,-439.95 207.36,-438.26 214.48,-446.1 217.82,-439.95"/>
<text text-anchor="middle" x="294.5" y="-605.76" font-family="Helvetica,sans-Serif" font-size="10.00"> lbapos</text>
<text text-anchor="middle" x="294.5" y="-594.76" font-family="Helvetica,sans-Serif" font-size="10.00">size</text>
</g>
<!-- Node3&#45;&gt;Node4 -->
<g id="edge5" class="edge">
<title>Node3&#45;&gt;Node4</title>
<path fill="none" stroke="#9a32cd" stroke-dasharray="5,2" d="M220.09,-424.63C307.53,-415.75 523.14,-399.16 575,-444.76 607.11,-472.99 618.44,-614.94 620.93,-653.23"/>
<polygon fill="#9a32cd" stroke="#9a32cd" points="219.66,-421.15 210.08,-425.67 220.38,-428.11 219.66,-421.15"/>
<text text-anchor="middle" x="406" y="-440.76" font-family="Helvetica,sans-Serif" font-size="10.00"> device</text>
<text text-anchor="middle" x="406" y="-429.76" font-family="Helvetica,sans-Serif" font-size="10.00">lbapos</text>
<text text-anchor="middle" x="406" y="-418.76" font-family="Helvetica,sans-Serif" font-size="10.00">size</text>
</g>
<!-- Node5 -->
<g id="node5" class="node">
<title>Node5</title>
<g id="a_node5"><a xlink:href="structfilesystem__t.html" target="_top" xlink:title="Defines a filesystem driver.">
<polygon fill="none" stroke="black" points="367.5,-528.26 367.5,-547.26 444.5,-547.26 444.5,-528.26 367.5,-528.26"/>
<text text-anchor="middle" x="406" y="-535.26" font-family="Helvetica,sans-Serif" font-size="10.00">filesystem_t</text>
</a>
</g>
</g>
<!-- Node3&#45;&gt;Node5 -->
<g id="edge9" class="edge">
<title>Node3&#45;&gt;Node5</title>
<path fill="none" stroke="#9a32cd" stroke-dasharray="5,2" d="M220.37,-425.04C251.83,-423.65 297,-425.86 331,-444.76 342.35,-451.06 340.95,-457.58 349,-467.76 366,-489.24 386.09,-514.27 396.99,-527.81"/>
<polygon fill="#9a32cd" stroke="#9a32cd" points="220.05,-421.55 210.27,-425.63 220.45,-428.54 220.05,-421.55"/>
<text text-anchor="middle" x="294.5" y="-469.76" font-family="Helvetica,sans-Serif" font-size="10.00"> createdir</text>
<text text-anchor="middle" x="294.5" y="-458.76" font-family="Helvetica,sans-Serif" font-size="10.00">createfile</text>
<text text-anchor="middle" x="294.5" y="-447.76" font-family="Helvetica,sans-Serif" font-size="10.00">freespace</text>
</g>
<!-- Node14 -->
<g id="node14" class="node">
<title>Node14</title>
<g id="a_node14"><a xlink:href="structstorage__device__t.html" target="_top" xlink:title="Represents a block storage device e.g. a hard disk, DVD&#45;ROM drive, etc.">
<polygon fill="none" stroke="black" points="356,-134.26 356,-153.26 456,-153.26 456,-134.26 356,-134.26"/>
<text text-anchor="middle" x="406" y="-141.26" font-family="Helvetica,sans-Serif" font-size="10.00">storage_device_t</text>
</a>
</g>
</g>
<!-- Node3&#45;&gt;Node14 -->
<g id="edge24" class="edge">
<title>Node3&#45;&gt;Node14</title>
<path fill="none" stroke="#9a32cd" stroke-dasharray="5,2" d="M202.76,-412.02C215.3,-400.32 230.85,-383.63 240,-365.76 257.4,-331.77 232.3,-309.99 258,-281.76 280.9,-256.6 304.73,-280.36 331,-258.76 343.9,-248.14 340.28,-240 349,-225.76 365.47,-198.85 387.01,-168.51 397.95,-153.39"/>
<polygon fill="#9a32cd" stroke="#9a32cd" points="200.14,-409.66 195.04,-418.95 204.82,-414.87 200.14,-409.66"/>
<text text-anchor="middle" x="294.5" y="-295.76" font-family="Helvetica,sans-Serif" font-size="10.00"> opaque1</text>
<text text-anchor="middle" x="294.5" y="-284.76" font-family="Helvetica,sans-Serif" font-size="10.00">size</text>
</g>
<!-- Node4&#45;&gt;Node2 -->
<g id="edge4" class="edge">
<title>Node4&#45;&gt;Node2</title>
<path fill="none" stroke="#9a32cd" stroke-dasharray="5,2" d="M608.87,-680.46C600.54,-690.54 588.67,-702.22 575,-707.76 532.25,-725.05 478.28,-718.71 443.22,-711.32"/>
<polygon fill="#9a32cd" stroke="#9a32cd" points="611.65,-682.59 615,-672.54 606.11,-678.31 611.65,-682.59"/>
<text text-anchor="middle" x="528" y="-721.76" font-family="Helvetica,sans-Serif" font-size="10.00"> directory</text>
</g>
<!-- Node4&#45;&gt;Node4 -->
<g id="edge7" class="edge">
<title>Node4&#45;&gt;Node4</title>
<path fill="none" stroke="#9a32cd" stroke-dasharray="5,2" d="M605.09,-682.16C606.26,-687.07 612.06,-690.76 622.5,-690.76 639.21,-690.76 644.04,-681.32 636.99,-672.51"/>
<polygon fill="#9a32cd" stroke="#9a32cd" points="608.47,-683.1 608.01,-672.51 601.77,-681.07 608.47,-683.1"/>
<text text-anchor="middle" x="622.5" y="-715.76" font-family="Helvetica,sans-Serif" font-size="10.00"> child_dirs</text>
<text text-anchor="middle" x="622.5" y="-704.76" font-family="Helvetica,sans-Serif" font-size="10.00">next</text>
<text text-anchor="middle" x="622.5" y="-693.76" font-family="Helvetica,sans-Serif" font-size="10.00">parent</text>
</g>
<!-- Node5&#45;&gt;Node4 -->
<g id="edge8" class="edge">
<title>Node5&#45;&gt;Node4</title>
<path fill="none" stroke="#9a32cd" stroke-dasharray="5,2" d="M432.21,-552.45C476.62,-578.33 567.64,-631.37 604.97,-653.12"/>
<polygon fill="#9a32cd" stroke="#9a32cd" points="433.88,-549.37 423.48,-547.36 430.35,-555.42 433.88,-549.37"/>
<text text-anchor="middle" x="528" y="-634.76" font-family="Helvetica,sans-Serif" font-size="10.00"> responsible_driver</text>
</g>
<!-- Node5&#45;&gt;Node5 -->
<g id="edge11" class="edge">
<title>Node5&#45;&gt;Node5</title>
<path fill="none" stroke="#9a32cd" stroke-dasharray="5,2" d="M385.63,-557.16C386.99,-562.07 393.78,-565.76 406,-565.76 425.55,-565.76 431.2,-556.32 422.95,-547.51"/>
<polygon fill="#9a32cd" stroke="#9a32cd" points="389.01,-558.11 389.05,-547.51 382.41,-555.77 389.01,-558.11"/>
<text text-anchor="middle" x="406" y="-568.76" font-family="Helvetica,sans-Serif" font-size="10.00"> next</text>
</g>
<!-- Node6 -->
<g id="node6" class="node">
<title>Node6</title>
<g id="a_node6"><a xlink:title=" ">
<polygon fill="none" stroke="#bfbfbf" points="134.5,-636.26 134.5,-655.26 229.5,-655.26 229.5,-636.26 134.5,-636.26"/>
<text text-anchor="middle" x="182" y="-643.26" font-family="Helvetica,sans-Serif" font-size="10.00">void *(*)(void *)</text>
</a>
</g>
</g>
<!-- Node6&#45;&gt;Node5 -->
<g id="edge10" class="edge">
<title>Node6&#45;&gt;Node5</title>
<path fill="none" stroke="#9a32cd" stroke-dasharray="5,2" d="M239.76,-638.75C274.6,-633.74 315.44,-626.37 331,-617.76 362.45,-600.34 387.98,-564.71 399.05,-547.49"/>
<polygon fill="#9a32cd" stroke="#9a32cd" points="239.07,-635.31 229.65,-640.17 240.04,-642.25 239.07,-635.31"/>
<text text-anchor="middle" x="294.5" y="-638.76" font-family="Helvetica,sans-Serif" font-size="10.00"> getdir</text>
</g>
<!-- Node7 -->
<g id="node7" class="node">
<title>Node7</title>
<g id="a_node7"><a xlink:title=" ">
<polygon fill="none" stroke="#bfbfbf" points="0,-486.26 0,-505.26 38,-505.26 38,-486.26 0,-486.26"/>
<text text-anchor="middle" x="19" y="-493.26" font-family="Helvetica,sans-Serif" font-size="10.00">char</text>
</a>
</g>
</g>
<!-- Node7&#45;&gt;Node1 -->
<g id="edge22" class="edge">
<title>Node7&#45;&gt;Node1</title>
<path fill="none" stroke="#9a32cd" stroke-dasharray="5,2" d="M34.75,-478.63C53.32,-458.36 87.25,-425.41 124,-409.76 263.53,-350.31 313.9,-398.5 463,-370.76 513.55,-361.35 526.05,-357.51 575,-341.76 582.75,-339.26 591.07,-336.17 598.51,-333.26"/>
<polygon fill="#9a32cd" stroke="#9a32cd" points="32.04,-476.41 27.99,-486.2 37.26,-481.07 32.04,-476.41"/>
<text text-anchor="middle" x="294.5" y="-381.76" font-family="Helvetica,sans-Serif" font-size="10.00"> volume_name</text>
</g>
<!-- Node7&#45;&gt;Node2 -->
<g id="edge19" class="edge">
<title>Node7&#45;&gt;Node2</title>
<path fill="none" stroke="#9a32cd" stroke-dasharray="5,2" d="M24.27,-515.26C34.32,-556.65 63.34,-653.9 124,-707.76 159.28,-739.07 286.09,-769.18 331,-754.76 357.48,-746.25 382.53,-724.39 395.59,-711.56"/>
<polygon fill="#9a32cd" stroke="#9a32cd" points="27.64,-514.31 21.97,-505.36 20.82,-515.89 27.64,-514.31"/>
<text text-anchor="middle" x="182" y="-775.76" font-family="Helvetica,sans-Serif" font-size="10.00"> alt_filename</text>
<text text-anchor="middle" x="182" y="-764.76" font-family="Helvetica,sans-Serif" font-size="10.00">device_name</text>
<text text-anchor="middle" x="182" y="-753.76" font-family="Helvetica,sans-Serif" font-size="10.00">filename</text>
</g>
<!-- Node7&#45;&gt;Node4 -->
<g id="edge15" class="edge">
<title>Node7&#45;&gt;Node4</title>
<path fill="none" stroke="#9a32cd" stroke-dasharray="5,2" d="M22.8,-515.25C32.79,-581.71 69.06,-797.32 124,-834.76 293.75,-950.42 413.81,-861.08 575,-733.76 596.28,-716.95 610.99,-687.62 617.58,-672.46"/>
<polygon fill="#9a32cd" stroke="#9a32cd" points="26.25,-514.66 21.33,-505.28 19.32,-515.68 26.25,-514.66"/>
<text text-anchor="middle" x="294.5" y="-901.76" font-family="Helvetica,sans-Serif" font-size="10.00"> device_name</text>
<text text-anchor="middle" x="294.5" y="-890.76" font-family="Helvetica,sans-Serif" font-size="10.00">name</text>
</g>
<!-- Node7&#45;&gt;Node5 -->
<g id="edge12" class="edge">
<title>Node7&#45;&gt;Node5</title>
<path fill="none" stroke="#9a32cd" stroke-dasharray="5,2" d="M45.04,-510.21C87.26,-533.59 176.06,-578.52 258,-592.76 289.97,-598.31 300.2,-602.95 331,-592.76 358.05,-583.8 383.26,-560.71 396.11,-547.47"/>
<polygon fill="#9a32cd" stroke="#9a32cd" points="46.71,-507.14 36.28,-505.3 43.29,-513.24 46.71,-507.14"/>
<text text-anchor="middle" x="182" y="-591.76" font-family="Helvetica,sans-Serif" font-size="10.00"> name</text>
</g>
<!-- Node7&#45;&gt;Node14 -->
<g id="edge29" class="edge">
<title>Node7&#45;&gt;Node14</title>
<path fill="none" stroke="#9a32cd" stroke-dasharray="5,2" d="M24.93,-476.32C31.37,-451.57 43.3,-407.6 56,-370.76 75.36,-314.57 85.33,-302.47 106,-246.76 114.65,-223.43 105.85,-210.77 124,-193.76 186.73,-134.97 293.5,-132.9 355.8,-137.67"/>
<polygon fill="#9a32cd" stroke="#9a32cd" points="21.48,-475.69 22.38,-486.24 28.26,-477.43 21.48,-475.69"/>
<text text-anchor="middle" x="182" y="-196.76" font-family="Helvetica,sans-Serif" font-size="10.00"> name</text>
</g>
<!-- Node16 -->
<g id="node16" class="node">
<title>Node16</title>
<g id="a_node16"><a xlink:href="structstorage__device__ui__t.html" target="_top" xlink:title=" ">
<polygon fill="none" stroke="black" points="125,-67.26 125,-86.26 239,-86.26 239,-67.26 125,-67.26"/>
<text text-anchor="middle" x="182" y="-74.26" font-family="Helvetica,sans-Serif" font-size="10.00">storage_device_ui_t</text>
</a>
</g>
</g>
<!-- Node7&#45;&gt;Node16 -->
<g id="edge27" class="edge">
<title>Node7&#45;&gt;Node16</title>
<path fill="none" stroke="#9a32cd" stroke-dasharray="5,2" d="M20.63,-475.86C22.5,-431.72 29.62,-322.61 56,-235.76 76.1,-169.57 72,-141.38 124,-95.76 128.39,-91.9 133.59,-88.83 139.03,-86.37"/>
<polygon fill="#9a32cd" stroke="#9a32cd" points="17.13,-475.95 20.25,-486.08 24.12,-476.22 17.13,-475.95"/>
<text text-anchor="middle" x="81" y="-238.76" font-family="Helvetica,sans-Serif" font-size="10.00"> label</text>
</g>
<!-- Node8 -->
<g id="node8" class="node">
<title>Node8</title>
<g id="a_node8"><a xlink:title=" ">
<polygon fill="none" stroke="#bfbfbf" points="167.5,-105.26 167.5,-124.26 196.5,-124.26 196.5,-105.26 167.5,-105.26"/>
<text text-anchor="middle" x="182" y="-112.26" font-family="Helvetica,sans-Serif" font-size="10.00">int</text>
</a>
</g>
</g>
<!-- Node8&#45;&gt;Node1 -->
<g id="edge36" class="edge">
<title>Node8&#45;&gt;Node1</title>
<path fill="none" stroke="#9a32cd" stroke-dasharray="5,2" d="M206.51,-112.03C218,-109.55 231.21,-104.81 240,-95.76 259.39,-75.77 235.66,-52.37 258,-35.76 284.03,-16.39 299.49,-28.04 331,-35.76 449.75,-64.81 497.56,-68.16 575,-162.76 613.52,-209.81 620.14,-287.34 621.27,-314.23"/>
<polygon fill="#9a32cd" stroke="#9a32cd" points="205.88,-108.59 196.62,-113.73 207.07,-115.49 205.88,-108.59"/>
<text text-anchor="middle" x="406" y="-74.76" font-family="Helvetica,sans-Serif" font-size="10.00"> joliet</text>
</g>
<!-- Node8&#45;&gt;Node5 -->
<g id="edge13" class="edge">
<title>Node8&#45;&gt;Node5</title>
<path fill="none" stroke="#9a32cd" stroke-dasharray="5,2" d="M206.56,-118.82C218.48,-122.14 232.06,-128.1 240,-138.76 284.08,-197.9 219.51,-240.82 258,-303.76 278.26,-336.88 310,-319.1 331,-351.76 359.22,-395.64 328,-420 349,-467.76 359.78,-492.26 381.35,-515.43 394.35,-528.01"/>
<polygon fill="#9a32cd" stroke="#9a32cd" points="207.24,-115.39 196.7,-116.54 205.66,-122.21 207.24,-115.39"/>
<text text-anchor="middle" x="294.5" y="-354.76" font-family="Helvetica,sans-Serif" font-size="10.00"> mount</text>
</g>
<!-- Node8&#45;&gt;Node14 -->
<g id="edge32" class="edge">
<title>Node8&#45;&gt;Node14</title>
<path fill="none" stroke="#9a32cd" stroke-dasharray="5,2" d="M206.87,-109.7C236.42,-104.33 288.1,-97.87 331,-107.76 353,-112.82 376.03,-125.35 390.44,-134.2"/>
<polygon fill="#9a32cd" stroke="#9a32cd" points="205.84,-106.33 196.69,-111.67 207.17,-113.21 205.84,-106.33"/>
<text text-anchor="middle" x="294.5" y="-121.76" font-family="Helvetica,sans-Serif" font-size="10.00"> blockread</text>
<text text-anchor="middle" x="294.5" y="-110.76" font-family="Helvetica,sans-Serif" font-size="10.00">blockwrite</text>
</g>
<!-- Node9 -->
<g id="node9" class="node">
<title>Node9</title>
<g id="a_node9"><a xlink:title=" ">
<polygon fill="none" stroke="#bfbfbf" points="0,-67.26 0,-86.26 38,-86.26 38,-67.26 0,-67.26"/>
<text text-anchor="middle" x="19" y="-74.26" font-family="Helvetica,sans-Serif" font-size="10.00">bool</text>
</a>
</g>
</g>
<!-- Node9&#45;&gt;Node5 -->
<g id="edge14" class="edge">
<title>Node9&#45;&gt;Node5</title>
<path fill="none" stroke="#9a32cd" stroke-dasharray="5,2" d="M34.71,-94.23C54.86,-119.29 90.31,-167.74 106,-215.76 122.06,-264.91 91.18,-407.79 124,-447.76 154.32,-484.67 285.97,-489.79 331,-505.76 349.6,-512.35 370.16,-521.39 384.88,-528.18"/>
<polygon fill="#9a32cd" stroke="#9a32cd" points="37.33,-91.89 28.28,-86.38 31.91,-96.33 37.33,-91.89"/>
<text text-anchor="middle" x="182" y="-533.76" font-family="Helvetica,sans-Serif" font-size="10.00"> readfile</text>
<text text-anchor="middle" x="182" y="-522.76" font-family="Helvetica,sans-Serif" font-size="10.00">rm</text>
<text text-anchor="middle" x="182" y="-511.76" font-family="Helvetica,sans-Serif" font-size="10.00">rmdir</text>
<text text-anchor="middle" x="182" y="-500.76" font-family="Helvetica,sans-Serif" font-size="10.00">truncatefile</text>
<text text-anchor="middle" x="182" y="-489.76" font-family="Helvetica,sans-Serif" font-size="10.00">writefile</text>
</g>
<!-- Node9&#45;&gt;Node14 -->
<g id="edge33" class="edge">
<title>Node9&#45;&gt;Node14</title>
<path fill="none" stroke="#9a32cd" stroke-dasharray="5,2" d="M37.9,-60.3C57.4,-43.59 90.32,-18.79 124,-8.76 173.41,5.96 188.98,-1.35 240,-8.76 281.75,-14.82 296.89,-10.93 331,-35.76 367.57,-62.38 392,-112.87 401.07,-134.04"/>
<polygon fill="#9a32cd" stroke="#9a32cd" points="35.36,-57.87 30.17,-67.11 39.98,-63.12 35.36,-57.87"/>
<text text-anchor="middle" x="182" y="-11.76" font-family="Helvetica,sans-Serif" font-size="10.00"> blockclear</text>
</g>
<!-- Node9&#45;&gt;Node16 -->
<g id="edge28" class="edge">
<title>Node9&#45;&gt;Node16</title>
<path fill="none" stroke="#9a32cd" stroke-dasharray="5,2" d="M48.35,-76.76C69.42,-76.76 98.86,-76.76 124.65,-76.76"/>
<polygon fill="#9a32cd" stroke="#9a32cd" points="48.16,-73.26 38.16,-76.76 48.16,-80.26 48.16,-73.26"/>
<text text-anchor="middle" x="81" y="-79.76" font-family="Helvetica,sans-Serif" font-size="10.00"> is_optical</text>
</g>
<!-- Node10 -->
<g id="node10" class="node">
<title>Node10</title>
<g id="a_node10"><a xlink:title=" ">
<polygon fill="none" stroke="#bfbfbf" points="157,-679.26 157,-698.26 207,-698.26 207,-679.26 157,-679.26"/>
<text text-anchor="middle" x="182" y="-686.26" font-family="Helvetica,sans-Serif" font-size="10.00">uint8_t</text>
</a>
</g>
</g>
<!-- Node10&#45;&gt;Node2 -->
<g id="edge21" class="edge">
<title>Node10&#45;&gt;Node2</title>
<path fill="none" stroke="#9a32cd" stroke-dasharray="5,2" d="M217.37,-690.77C252.4,-692.82 307.3,-696.03 348.68,-698.46"/>
<polygon fill="#9a32cd" stroke="#9a32cd" points="217.37,-687.26 207.18,-690.17 216.96,-694.25 217.37,-687.26"/>
<text text-anchor="middle" x="294.5" y="-743.76" font-family="Helvetica,sans-Serif" font-size="10.00"> day</text>
<text text-anchor="middle" x="294.5" y="-732.76" font-family="Helvetica,sans-Serif" font-size="10.00">hour</text>
<text text-anchor="middle" x="294.5" y="-721.76" font-family="Helvetica,sans-Serif" font-size="10.00">min</text>
<text text-anchor="middle" x="294.5" y="-710.76" font-family="Helvetica,sans-Serif" font-size="10.00">month</text>
<text text-anchor="middle" x="294.5" y="-699.76" font-family="Helvetica,sans-Serif" font-size="10.00">sec</text>
</g>
<!-- Node10&#45;&gt;Node4 -->
<g id="edge16" class="edge">
<title>Node10&#45;&gt;Node4</title>
<path fill="none" stroke="#9a32cd" stroke-dasharray="5,2" d="M217.33,-684.54C250.86,-680.59 303.36,-674.84 349,-671.76 437.79,-665.75 543.13,-663.71 592.83,-663.05"/>
<polygon fill="#9a32cd" stroke="#9a32cd" points="216.66,-681.1 207.15,-685.75 217.49,-688.05 216.66,-681.1"/>
<text text-anchor="middle" x="406" y="-674.76" font-family="Helvetica,sans-Serif" font-size="10.00"> dirty</text>
</g>
<!-- Node11 -->
<g id="node11" class="node">
<title>Node11</title>
<g id="a_node11"><a xlink:title=" ">
<polygon fill="none" stroke="#bfbfbf" points="159,-214.26 159,-233.26 205,-233.26 205,-214.26 159,-214.26"/>
<text text-anchor="middle" x="182" y="-221.26" font-family="Helvetica,sans-Serif" font-size="10.00">void *</text>
</a>
</g>
</g>
<!-- Node11&#45;&gt;Node4 -->
<g id="edge17" class="edge">
<title>Node11&#45;&gt;Node4</title>
<path fill="none" stroke="#9a32cd" stroke-dasharray="5,2" d="M215.53,-227.47C294.98,-238.53 498.05,-279.29 575,-412.76 622.85,-495.75 622.99,-617.67 621.92,-652.89"/>
<polygon fill="#9a32cd" stroke="#9a32cd" points="215.54,-223.94 205.16,-226.1 214.62,-230.88 215.54,-223.94"/>
<text text-anchor="middle" x="406" y="-306.76" font-family="Helvetica,sans-Serif" font-size="10.00"> opaque</text>
</g>
<!-- Node11&#45;&gt;Node14 -->
<g id="edge34" class="edge">
<title>Node11&#45;&gt;Node14</title>
<path fill="none" stroke="#9a32cd" stroke-dasharray="5,2" d="M204.11,-208.24C218.62,-198.24 238.69,-185.67 258,-177.76 289.39,-164.9 326.64,-156.35 355.79,-151.04"/>
<polygon fill="#9a32cd" stroke="#9a32cd" points="202,-205.44 195.85,-214.07 206.04,-211.16 202,-205.44"/>
<text text-anchor="middle" x="294.5" y="-191.76" font-family="Helvetica,sans-Serif" font-size="10.00"> opaque2</text>
<text text-anchor="middle" x="294.5" y="-180.76" font-family="Helvetica,sans-Serif" font-size="10.00">opaque3</text>
</g>
<!-- Node12 -->
<g id="node12" class="node">
<title>Node12</title>
<g id="a_node12"><a xlink:title=" ">
<polygon fill="none" stroke="#bfbfbf" points="154,-806.26 154,-825.26 210,-825.26 210,-806.26 154,-806.26"/>
<text text-anchor="middle" x="182" y="-813.26" font-family="Helvetica,sans-Serif" font-size="10.00">uint16_t</text>
</a>
</g>
</g>
<!-- Node12&#45;&gt;Node2 -->
<g id="edge18" class="edge">
<title>Node12&#45;&gt;Node2</title>
<path fill="none" stroke="#9a32cd" stroke-dasharray="5,2" d="M220.23,-813.68C251.6,-810.53 296.72,-802.61 331,-782.76 362.32,-764.62 387.91,-728.78 399.03,-711.51"/>
<polygon fill="#9a32cd" stroke="#9a32cd" points="219.8,-810.2 210.15,-814.57 220.42,-817.17 219.8,-810.2"/>
<text text-anchor="middle" x="294.5" y="-809.76" font-family="Helvetica,sans-Serif" font-size="10.00"> year</text>
</g>
<!-- Node13 -->
<g id="node13" class="node">
<title>Node13</title>
<g id="a_node13"><a xlink:title=" ">
<polygon fill="none" stroke="#bfbfbf" points="154,-337.26 154,-356.26 210,-356.26 210,-337.26 154,-337.26"/>
<text text-anchor="middle" x="182" y="-344.26" font-family="Helvetica,sans-Serif" font-size="10.00">uint32_t</text>
</a>
</g>
</g>
<!-- Node13&#45;&gt;Node1 -->
<g id="edge35" class="edge">
<title>Node13&#45;&gt;Node1</title>
<path fill="none" stroke="#9a32cd" stroke-dasharray="5,2" d="M220.31,-344.7C253.96,-342.86 304.79,-340.09 349,-337.76 439.12,-333 546.01,-327.57 594.81,-325.1"/>
<polygon fill="#9a32cd" stroke="#9a32cd" points="219.82,-341.22 210.03,-345.27 220.2,-348.21 219.82,-341.22"/>
<text text-anchor="middle" x="406" y="-362.76" font-family="Helvetica,sans-Serif" font-size="10.00"> pathtable_lba</text>
<text text-anchor="middle" x="406" y="-351.76" font-family="Helvetica,sans-Serif" font-size="10.00">rootextent_lba</text>
<text text-anchor="middle" x="406" y="-340.76" font-family="Helvetica,sans-Serif" font-size="10.00">rootextent_len</text>
</g>
<!-- Node13&#45;&gt;Node2 -->
<g id="edge20" class="edge">
<title>Node13&#45;&gt;Node2</title>
<path fill="none" stroke="#9a32cd" stroke-dasharray="5,2" d="M202.56,-363.6C215.02,-375.34 230.54,-392.04 240,-409.76 255.53,-438.86 237.85,-455.64 258,-481.76 280.6,-511.04 310.35,-491.06 331,-521.76 369.96,-579.66 307.3,-621.79 349,-677.76 353.68,-684.03 360.33,-688.68 367.42,-692.13"/>
<polygon fill="#9a32cd" stroke="#9a32cd" points="204.66,-360.77 194.91,-356.63 199.95,-365.95 204.66,-360.77"/>
<text text-anchor="middle" x="294.5" y="-535.76" font-family="Helvetica,sans-Serif" font-size="10.00"> device</text>
<text text-anchor="middle" x="294.5" y="-524.76" font-family="Helvetica,sans-Serif" font-size="10.00">flags</text>
</g>
<!-- Node13&#45;&gt;Node14 -->
<g id="edge31" class="edge">
<title>Node13&#45;&gt;Node14</title>
<path fill="none" stroke="#9a32cd" stroke-dasharray="5,2" d="M194.06,-328.56C207.45,-307.5 231.51,-272.54 258,-247.76 286.36,-221.23 299.28,-222.15 331,-199.76 353.24,-184.05 378.37,-164.68 392.88,-153.32"/>
<polygon fill="#9a32cd" stroke="#9a32cd" points="191.01,-326.84 188.69,-337.18 196.95,-330.54 191.01,-326.84"/>
<text text-anchor="middle" x="294.5" y="-250.76" font-family="Helvetica,sans-Serif" font-size="10.00"> block_size</text>
</g>
<!-- Node14&#45;&gt;Node1 -->
<g id="edge23" class="edge">
<title>Node14&#45;&gt;Node1</title>
<path fill="none" stroke="#9a32cd" stroke-dasharray="5,2" d="M454.85,-156.41C491.71,-168.28 541.8,-189.29 575,-222.76 601.65,-249.62 614.75,-294.55 619.43,-314.14"/>
<polygon fill="#9a32cd" stroke="#9a32cd" points="455.42,-152.92 444.84,-153.31 453.35,-159.61 455.42,-152.92"/>
<text text-anchor="middle" x="528" y="-225.76" font-family="Helvetica,sans-Serif" font-size="10.00"> device</text>
</g>
<!-- Node14&#45;&gt;Node14 -->
<g id="edge30" class="edge">
<title>Node14&#45;&gt;Node14</title>
<path fill="none" stroke="#9a32cd" stroke-dasharray="5,2" d="M385.63,-163.16C386.99,-168.07 393.78,-171.76 406,-171.76 425.55,-171.76 431.2,-162.32 422.95,-153.51"/>
<polygon fill="#9a32cd" stroke="#9a32cd" points="389.01,-164.11 389.05,-153.51 382.41,-161.77 389.01,-164.11"/>
<text text-anchor="middle" x="406" y="-174.76" font-family="Helvetica,sans-Serif" font-size="10.00"> next</text>
</g>
<!-- Node15 -->
<g id="node15" class="node">
<title>Node15</title>
<g id="a_node15"><a xlink:title=" ">
<polygon fill="none" stroke="#bfbfbf" points="124,-29.26 124,-48.26 240,-48.26 240,-29.26 124,-29.26"/>
<text text-anchor="middle" x="182" y="-36.26" font-family="Helvetica,sans-Serif" font-size="10.00">struct block_cache *</text>
</a>
</g>
</g>
<!-- Node15&#45;&gt;Node14 -->
<g id="edge25" class="edge">
<title>Node15&#45;&gt;Node14</title>
<path fill="none" stroke="#9a32cd" stroke-dasharray="5,2" d="M249.99,-38.4C276.53,-40.71 306.49,-46.53 331,-59.76 364.01,-77.57 389.31,-116.27 399.76,-134.23"/>
<polygon fill="#9a32cd" stroke="#9a32cd" points="250.23,-34.91 240.01,-37.68 249.73,-41.89 250.23,-34.91"/>
<text text-anchor="middle" x="294.5" y="-62.76" font-family="Helvetica,sans-Serif" font-size="10.00"> cache</text>
</g>
<!-- Node16&#45;&gt;Node14 -->
<g id="edge26" class="edge">
<title>Node16&#45;&gt;Node14</title>
<path fill="none" stroke="#9a32cd" stroke-dasharray="5,2" d="M249.29,-73.71C275.47,-74.54 305.36,-78.07 331,-87.76 357.83,-97.88 383.13,-121 396.05,-134.15"/>
<polygon fill="#9a32cd" stroke="#9a32cd" points="249.15,-70.21 239.08,-73.52 249.02,-77.21 249.15,-70.21"/>
<text text-anchor="middle" x="294.5" y="-90.76" font-family="Helvetica,sans-Serif" font-size="10.00"> ui</text>
</g>
</g>
</svg>
        <g id="navigator" transform="translate(0 0)" fill="#404254">
                <rect fill="#f2f5e9" fill-opacity="0.5" stroke="#606060" stroke-width=".5" x="0" y="0" width="60" height="60"/>
                <use id="zoomplus" xlink:href="#zoomPlus" x="17" y="9" onmousedown="handleZoom(evt,'in')"/>
                <use id="zoomminus" xlink:href="#zoomMin" x="42" y="9" onmousedown="handleZoom(evt,'out')"/>
                <use id="reset" xlink:href="#resetDef" x="30" y="36" onmousedown="handleReset()"/>
                <g id="arrowUp" xlink:href="#dirArrow" transform="translate(30 24)" onmousedown="handlePan(0,-1)">
                  <use xlink:href="#rim" fill="#404040">
                        <set attributeName="fill" to="#808080" begin="arrowUp.mouseover" end="arrowUp.mouseout"/>
                  </use>
                  <path fill="none" stroke="white" stroke-width="1.5" d="M0,-3.0v7 M-2.5,-0.5L0,-3.0L2.5,-0.5"/>
                </g>
                <g id="arrowRight" xlink:href="#dirArrow" transform="rotate(90) translate(36 -43)" onmousedown="handlePan(1,0)">
                  <use xlink:href="#rim" fill="#404040">
                        <set attributeName="fill" to="#808080" begin="arrowRight.mouseover" end="arrowRight.mouseout"/>
                  </use>
                  <path fill="none" stroke="white" stroke-width="1.5" d="M0,-3.0v7 M-2.5,-0.5L0,-3.0L2.5,-0.5"/>
                </g>
                <g id="arrowDown" xlink:href="#dirArrow" transform="rotate(180) translate(-30 -48)" onmousedown="handlePan(0,1)">
                  <use xlink:href="#rim" fill="#404040">
                        <set attributeName="fill" to="#808080" begin="arrowDown.mouseover" end="arrowDown.mouseout"/>
                  </use>
                  <path fill="none" stroke="white" stroke-width="1.5" d="M0,-3.0v7 M-2.5,-0.5L0,-3.0L2.5,-0.5"/>
                </g>
                <g id="arrowLeft" xlink:href="#dirArrow" transform="rotate(270) translate(-36 17)" onmousedown="handlePan(-1,0)">
                  <use xlink:href="#rim" fill="#404040">
                        <set attributeName="fill" to="#808080" begin="arrowLeft.mouseover" end="arrowLeft.mouseout"/>
                  </use>
                  <path fill="none" stroke="white" stroke-width="1.5" d="M0,-3.0v7 M-2.5,-0.5L0,-3.0L2.5,-0.5"/>
                </g>
        </g>
        <svg viewBox="0 0 15 15" width="100%" height="30px" preserveAspectRatio="xMaxYMin meet">
         <g id="arrow_out" transform="scale(0.3 0.3)">
          <a xlink:href="structiso9660__coll__graph_org.svg" target="_base">
           <rect id="button" ry="5" rx="5" y="6" x="6" height="38" width="38"
                fill="#f2f5e9" fill-opacity="0.5" stroke="#606060" stroke-width="1.0"/>
           <path id="arrow"
             d="M 11.500037,31.436501 C 11.940474,20.09759 22.043105,11.32322 32.158766,21.979434 L 37.068811,17.246167 C 37.068811,17.246167 37.088388,32 37.088388,32 L 22.160133,31.978069 C 22.160133,31.978069 26.997745,27.140456 26.997745,27.140456 C 18.528582,18.264221 13.291696,25.230495 11.500037,31.436501 z"
             style="fill:#404040;"/>
          </a>
         </g>
        </svg>
</svg>
