<?xml version="1.0" encoding="UTF-8" standalone="no"?>
<!DOCTYPE svg PUBLIC "-//W3C//DTD SVG 1.1//EN"
 "http://www.w3.org/Graphics/SVG/1.1/DTD/svg11.dtd">
<!-- Generated by graphviz version 2.43.0 (0)
 -->
<!-- Title: header Pages: 1 -->
<svg width="139pt" height="108pt"
 viewBox="0.00 0.00 139.00 108.00" xmlns="http://www.w3.org/2000/svg" xmlns:xlink="http://www.w3.org/1999/xlink">
<g id="graph0" class="graph" transform="scale(1 1) rotate(0) translate(4 104)">
<title>header</title>
<!-- Node1 -->
<g id="node1" class="node">
<title>Node1</title>
<g id="a_node1"><a xlink:title=" ">
<polygon fill="#bfbfbf" stroke="black" points="38,-1.5 38,-20.5 88,-20.5 88,-1.5 38,-1.5"/>
<text text-anchor="middle" x="63" y="-8.5" font-family="Helvetica,sans-Serif" font-size="10.00">header</text>
</a>
</g>
</g>
<!-- Node1&#45;&gt;Node1 -->
<g id="edge3" class="edge">
<title>Node1&#45;&gt;Node1</title>
<path fill="none" stroke="#9a32cd" stroke-dasharray="5,2" d="M98.45,-17.57C103,-16.43 106,-14.24 106,-11 106,-5.69 97.91,-3.2 88.18,-3.53"/>
<polygon fill="#9a32cd" stroke="#9a32cd" points="97.83,-14.11 88.18,-18.47 98.44,-21.08 97.83,-14.11"/>
<text text-anchor="middle" x="118.5" y="-14" font-family="Helvetica,sans-Serif" font-size="10.00"> next</text>
<text text-anchor="middle" x="118.5" y="-3" font-family="Helvetica,sans-Serif" font-size="10.00">prev</text>
</g>
<!-- Node2 -->
<g id="node2" class="node">
<title>Node2</title>
<g id="a_node2"><a xlink:title=" ">
<polygon fill="none" stroke="#bfbfbf" points="0,-80.5 0,-99.5 56,-99.5 56,-80.5 0,-80.5"/>
<text text-anchor="middle" x="28" y="-87.5" font-family="Helvetica,sans-Serif" font-size="10.00">uint64_t</text>
</a>
</g>
</g>
<!-- Node2&#45;&gt;Node1 -->
<g id="edge1" class="edge">
<title>Node2&#45;&gt;Node1</title>
<path fill="none" stroke="#9a32cd" stroke-dasharray="5,2" d="M32.15,-70.49C34.64,-61.08 38.24,-49.63 43,-40 46.39,-33.14 51.39,-26.14 55.54,-20.86"/>
<polygon fill="#9a32cd" stroke="#9a32cd" points="28.71,-69.82 29.75,-80.36 35.52,-71.47 28.71,-69.82"/>
<text text-anchor="middle" x="60" y="-54" font-family="Helvetica,sans-Serif" font-size="10.00"> magic</text>
<text text-anchor="middle" x="60" y="-43" font-family="Helvetica,sans-Serif" font-size="10.00">size</text>
</g>
<!-- Node3 -->
<g id="node3" class="node">
<title>Node3</title>
<g id="a_node3"><a xlink:title=" ">
<polygon fill="none" stroke="#bfbfbf" points="74,-80.5 74,-99.5 124,-99.5 124,-80.5 74,-80.5"/>
<text text-anchor="middle" x="99" y="-87.5" font-family="Helvetica,sans-Serif" font-size="10.00">uint8_t</text>
</a>
</g>
</g>
<!-- Node3&#45;&gt;Node1 -->
<g id="edge2" class="edge">
<title>Node3&#45;&gt;Node1</title>
<path fill="none" stroke="#9a32cd" stroke-dasharray="5,2" d="M91.09,-70.91C86.98,-61.63 81.82,-50.16 77,-40 73.93,-33.52 70.3,-26.28 67.51,-20.78"/>
<polygon fill="#9a32cd" stroke="#9a32cd" points="87.98,-72.53 95.21,-80.28 94.39,-69.71 87.98,-72.53"/>
<text text-anchor="middle" x="97.5" y="-48.5" font-family="Helvetica,sans-Serif" font-size="10.00"> free</text>
</g>
</g>
</svg>
