<?xml version="1.0" encoding="UTF-8" standalone="no"?>
<!DOCTYPE svg PUBLIC "-//W3C//DTD SVG 1.1//EN"
 "http://www.w3.org/Graphics/SVG/1.1/DTD/svg11.dtd">
<!-- Generated by graphviz version 2.43.0 (0)
 -->
<!-- Title: fs_directory_entry_t Pages: 1 -->
<svg width="746pt" height="232pt"
 viewBox="0.00 0.00 746.00 232.00" xmlns="http://www.w3.org/2000/svg" xmlns:xlink="http://www.w3.org/1999/xlink">
<g id="graph0" class="graph" transform="scale(1 1) rotate(0) translate(4 228)">
<title>fs_directory_entry_t</title>
<!-- Node1 -->
<g id="node1" class="node">
<title>Node1</title>
<g id="a_node1"><a xlink:title="A VFS directory entry. Files AND directories have these, but internally there is also a tree of fs_tr...">
<polygon fill="#bfbfbf" stroke="black" points="455,-87 455,-106 569,-106 569,-87 455,-87"/>
<text text-anchor="middle" x="512" y="-94" font-family="Helvetica,sans-Serif" font-size="10.00">fs_directory_entry_t</text>
</a>
</g>
</g>
<!-- Node1&#45;&gt;Node1 -->
<g id="edge1" class="edge">
<title>Node1&#45;&gt;Node1</title>
<path fill="none" stroke="#9a32cd" stroke-dasharray="5,2" d="M579.44,-101.96C584.14,-100.71 587,-98.89 587,-96.5 587,-92.67 579.67,-90.31 569.23,-89.41"/>
<polygon fill="#9a32cd" stroke="#9a32cd" points="578.55,-98.56 569.23,-103.59 579.65,-105.47 578.55,-98.56"/>
<text text-anchor="middle" x="599.5" y="-94" font-family="Helvetica,sans-Serif" font-size="10.00"> next</text>
</g>
<!-- Node3 -->
<g id="node3" class="node">
<title>Node3</title>
<g id="a_node3"><a xlink:href="structfs__tree__t.html" target="_top" xlink:title="Used internally by filesystem.c to cache directories to RAM.">
<polygon fill="none" stroke="black" points="412.5,-7 412.5,-26 471.5,-26 471.5,-7 412.5,-7"/>
<text text-anchor="middle" x="442" y="-14" font-family="Helvetica,sans-Serif" font-size="10.00">fs_tree_t</text>
</a>
</g>
</g>
<!-- Node1&#45;&gt;Node3 -->
<g id="edge5" class="edge">
<title>Node1&#45;&gt;Node3</title>
<path fill="none" stroke="#9a32cd" stroke-dasharray="5,2" d="M505.5,-77.37C501.82,-68.77 496.63,-58.71 490,-51 481.12,-40.68 468.39,-31.98 458.26,-26.04"/>
<polygon fill="#9a32cd" stroke="#9a32cd" points="502.31,-78.85 509.21,-86.89 508.83,-76.3 502.31,-78.85"/>
<text text-anchor="middle" x="510" y="-54" font-family="Helvetica,sans-Serif" font-size="10.00"> files</text>
</g>
<!-- Node2 -->
<g id="node2" class="node">
<title>Node2</title>
<g id="a_node2"><a xlink:title=" ">
<polygon fill="none" stroke="#bfbfbf" points="0,-204.5 0,-223.5 56,-223.5 56,-204.5 0,-204.5"/>
<text text-anchor="middle" x="28" y="-211.5" font-family="Helvetica,sans-Serif" font-size="10.00">uint64_t</text>
</a>
</g>
</g>
<!-- Node2&#45;&gt;Node1 -->
<g id="edge2" class="edge">
<title>Node2&#45;&gt;Node1</title>
<path fill="none" stroke="#9a32cd" stroke-dasharray="5,2" d="M66.19,-204.3C129.51,-197.27 251.96,-208.49 295,-186 322.99,-171.37 312.76,-146.99 340,-131 379.32,-107.92 396.27,-121.86 441,-113 451.77,-110.87 463.42,-108.39 474.1,-106.06"/>
<polygon fill="#9a32cd" stroke="#9a32cd" points="65.63,-200.84 56.19,-205.65 66.57,-207.78 65.63,-200.84"/>
<text text-anchor="middle" x="358" y="-161.5" font-family="Helvetica,sans-Serif" font-size="10.00"> lbapos</text>
<text text-anchor="middle" x="358" y="-150.5" font-family="Helvetica,sans-Serif" font-size="10.00">size</text>
</g>
<!-- Node2&#45;&gt;Node3 -->
<g id="edge4" class="edge">
<title>Node2&#45;&gt;Node3</title>
<path fill="none" stroke="#9a32cd" stroke-dasharray="5,2" d="M25.13,-194.3C23.37,-176.95 23.06,-150.88 33,-131 48.65,-99.7 61.55,-95.36 93,-80 201.96,-26.78 349.89,-18.46 412.29,-17.45"/>
<polygon fill="#9a32cd" stroke="#9a32cd" points="21.67,-194.82 26.41,-204.29 28.61,-193.93 21.67,-194.82"/>
<text text-anchor="middle" x="111" y="-105" font-family="Helvetica,sans-Serif" font-size="10.00"> device</text>
<text text-anchor="middle" x="111" y="-94" font-family="Helvetica,sans-Serif" font-size="10.00">lbapos</text>
<text text-anchor="middle" x="111" y="-83" font-family="Helvetica,sans-Serif" font-size="10.00">size</text>
</g>
<!-- Node4 -->
<g id="node4" class="node">
<title>Node4</title>
<g id="a_node4"><a xlink:href="structfilesystem__t.html" target="_top" xlink:title="Defines a filesystem driver.">
<polygon fill="none" stroke="black" points="138.5,-87 138.5,-106 215.5,-106 215.5,-87 138.5,-87"/>
<text text-anchor="middle" x="177" y="-94" font-family="Helvetica,sans-Serif" font-size="10.00">filesystem_t</text>
</a>
</g>
</g>
<!-- Node2&#45;&gt;Node4 -->
<g id="edge8" class="edge">
<title>Node2&#45;&gt;Node4</title>
<path fill="none" stroke="#9a32cd" stroke-dasharray="5,2" d="M33.04,-194.77C39.09,-176.17 51.01,-147.73 71,-131 90.02,-115.08 116.65,-106.7 138.46,-102.31"/>
<polygon fill="#9a32cd" stroke="#9a32cd" points="29.67,-193.84 30.14,-204.42 36.37,-195.85 29.67,-193.84"/>
<text text-anchor="middle" x="94.5" y="-172.5" font-family="Helvetica,sans-Serif" font-size="10.00"> createdir</text>
<text text-anchor="middle" x="94.5" y="-161.5" font-family="Helvetica,sans-Serif" font-size="10.00">createfile</text>
<text text-anchor="middle" x="94.5" y="-150.5" font-family="Helvetica,sans-Serif" font-size="10.00">readfile</text>
<text text-anchor="middle" x="94.5" y="-139.5" font-family="Helvetica,sans-Serif" font-size="10.00">writefile</text>
</g>
<!-- Node3&#45;&gt;Node1 -->
<g id="edge3" class="edge">
<title>Node3&#45;&gt;Node1</title>
<path fill="none" stroke="#9a32cd" stroke-dasharray="5,2" d="M438.21,-36.23C437.51,-44.71 438.18,-54.49 443,-62 450.77,-74.1 464.26,-81.96 477.27,-86.99"/>
<polygon fill="#9a32cd" stroke="#9a32cd" points="441.71,-36.54 439.71,-26.13 434.78,-35.51 441.71,-36.54"/>
<text text-anchor="middle" x="466.5" y="-54" font-family="Helvetica,sans-Serif" font-size="10.00"> directory</text>
</g>
<!-- Node3&#45;&gt;Node3 -->
<g id="edge6" class="edge">
<title>Node3&#45;&gt;Node3</title>
<path fill="none" stroke="#9a32cd" stroke-dasharray="5,2" d="M481.67,-22.95C486.41,-21.77 489.5,-19.62 489.5,-16.5 489.5,-11.5 481.58,-9 471.69,-9"/>
<polygon fill="#9a32cd" stroke="#9a32cd" points="481.26,-19.47 471.69,-24 482,-26.43 481.26,-19.47"/>
<text text-anchor="middle" x="514.5" y="-25" font-family="Helvetica,sans-Serif" font-size="10.00"> child_dirs</text>
<text text-anchor="middle" x="514.5" y="-14" font-family="Helvetica,sans-Serif" font-size="10.00">next</text>
<text text-anchor="middle" x="514.5" y="-3" font-family="Helvetica,sans-Serif" font-size="10.00">parent</text>
</g>
<!-- Node4&#45;&gt;Node3 -->
<g id="edge7" class="edge">
<title>Node4&#45;&gt;Node3</title>
<path fill="none" stroke="#9a32cd" stroke-dasharray="5,2" d="M198.65,-81.48C214.91,-71.55 238.07,-58.68 260,-51 311.85,-32.83 375.63,-23.99 412.28,-20.12"/>
<polygon fill="#9a32cd" stroke="#9a32cd" points="196.56,-78.66 189.93,-86.92 200.26,-84.59 196.56,-78.66"/>
<text text-anchor="middle" x="307" y="-54" font-family="Helvetica,sans-Serif" font-size="10.00"> responsible_driver</text>
</g>
<!-- Node4&#45;&gt;Node4 -->
<g id="edge10" class="edge">
<title>Node4&#45;&gt;Node4</title>
<path fill="none" stroke="#9a32cd" stroke-dasharray="5,2" d="M225.72,-102.59C230.48,-101.36 233.5,-99.33 233.5,-96.5 233.5,-91.97 225.77,-89.49 215.56,-89.07"/>
<polygon fill="#9a32cd" stroke="#9a32cd" points="225.01,-99.15 215.56,-103.93 225.93,-106.09 225.01,-99.15"/>
<text text-anchor="middle" x="246" y="-94" font-family="Helvetica,sans-Serif" font-size="10.00"> next</text>
</g>
<!-- Node5 -->
<g id="node5" class="node">
<title>Node5</title>
<g id="a_node5"><a xlink:title=" ">
<polygon fill="none" stroke="#bfbfbf" points="74.5,-204.5 74.5,-223.5 169.5,-223.5 169.5,-204.5 74.5,-204.5"/>
<text text-anchor="middle" x="122" y="-211.5" font-family="Helvetica,sans-Serif" font-size="10.00">void *(*)(void *)</text>
</a>
</g>
</g>
<!-- Node5&#45;&gt;Node4 -->
<g id="edge9" class="edge">
<title>Node5&#45;&gt;Node4</title>
<path fill="none" stroke="#9a32cd" stroke-dasharray="5,2" d="M121.22,-194.36C121.31,-176.86 123.63,-150.52 135,-131 141.1,-120.52 151.84,-112.05 160.93,-106.24"/>
<polygon fill="#9a32cd" stroke="#9a32cd" points="117.72,-194.49 121.41,-204.43 124.72,-194.36 117.72,-194.49"/>
<text text-anchor="middle" x="151" y="-156" font-family="Helvetica,sans-Serif" font-size="10.00"> getdir</text>
</g>
<!-- Node6 -->
<g id="node6" class="node">
<title>Node6</title>
<g id="a_node6"><a xlink:title=" ">
<polygon fill="none" stroke="#bfbfbf" points="349,-204.5 349,-223.5 387,-223.5 387,-204.5 349,-204.5"/>
<text text-anchor="middle" x="368" y="-211.5" font-family="Helvetica,sans-Serif" font-size="10.00">char</text>
</a>
</g>
</g>
<!-- Node6&#45;&gt;Node1 -->
<g id="edge17" class="edge">
<title>Node6&#45;&gt;Node1</title>
<path fill="none" stroke="#9a32cd" stroke-dasharray="5,2" d="M375.69,-195.16C385.19,-173.85 401.39,-139.95 412,-131 426.41,-118.84 445.42,-111.04 462.98,-106.06"/>
<polygon fill="#9a32cd" stroke="#9a32cd" points="372.43,-193.88 371.62,-204.44 378.84,-196.69 372.43,-193.88"/>
<text text-anchor="middle" x="445" y="-167" font-family="Helvetica,sans-Serif" font-size="10.00"> alt_filename</text>
<text text-anchor="middle" x="445" y="-156" font-family="Helvetica,sans-Serif" font-size="10.00">device_name</text>
<text text-anchor="middle" x="445" y="-145" font-family="Helvetica,sans-Serif" font-size="10.00">filename</text>
</g>
<!-- Node6&#45;&gt;Node3 -->
<g id="edge13" class="edge">
<title>Node6&#45;&gt;Node3</title>
<path fill="none" stroke="#9a32cd" stroke-dasharray="5,2" d="M365.18,-194.14C362.06,-167.37 359.54,-117.46 377,-80 388.11,-56.16 412.63,-36.7 428.18,-26.13"/>
<polygon fill="#9a32cd" stroke="#9a32cd" points="361.75,-194.94 366.54,-204.39 368.69,-194.01 361.75,-194.94"/>
<text text-anchor="middle" x="411.5" y="-99.5" font-family="Helvetica,sans-Serif" font-size="10.00"> device_name</text>
<text text-anchor="middle" x="411.5" y="-88.5" font-family="Helvetica,sans-Serif" font-size="10.00">name</text>
</g>
<!-- Node6&#45;&gt;Node4 -->
<g id="edge11" class="edge">
<title>Node6&#45;&gt;Node4</title>
<path fill="none" stroke="#9a32cd" stroke-dasharray="5,2" d="M338.69,-212.63C314.91,-210.85 281.86,-204.79 260,-186 239.9,-168.73 254.65,-150.76 237,-131 227.07,-119.88 212.53,-111.63 200.25,-106.1"/>
<polygon fill="#9a32cd" stroke="#9a32cd" points="338.72,-216.14 348.89,-213.18 339.09,-209.15 338.72,-216.14"/>
<text text-anchor="middle" x="277.5" y="-172.5" font-family="Helvetica,sans-Serif" font-size="10.00"> mount</text>
<text text-anchor="middle" x="277.5" y="-161.5" font-family="Helvetica,sans-Serif" font-size="10.00">name</text>
<text text-anchor="middle" x="277.5" y="-150.5" font-family="Helvetica,sans-Serif" font-size="10.00">rm</text>
<text text-anchor="middle" x="277.5" y="-139.5" font-family="Helvetica,sans-Serif" font-size="10.00">rmdir</text>
</g>
<!-- Node7 -->
<g id="node7" class="node">
<title>Node7</title>
<g id="a_node7"><a xlink:title=" ">
<polygon fill="none" stroke="#bfbfbf" points="187.5,-204.5 187.5,-223.5 232.5,-223.5 232.5,-204.5 187.5,-204.5"/>
<text text-anchor="middle" x="210" y="-211.5" font-family="Helvetica,sans-Serif" font-size="10.00">size_t</text>
</a>
</g>
</g>
<!-- Node7&#45;&gt;Node4 -->
<g id="edge12" class="edge">
<title>Node7&#45;&gt;Node4</title>
<path fill="none" stroke="#9a32cd" stroke-dasharray="5,2" d="M187.13,-198.07C183.44,-194.57 180.14,-190.53 178,-186 165.42,-159.32 171.15,-122.88 174.8,-106.32"/>
<polygon fill="#9a32cd" stroke="#9a32cd" points="185.01,-200.86 194.98,-204.45 189.43,-195.43 185.01,-200.86"/>
<text text-anchor="middle" x="207.5" y="-156" font-family="Helvetica,sans-Serif" font-size="10.00"> truncatefile</text>
</g>
<!-- Node8 -->
<g id="node8" class="node">
<title>Node8</title>
<g id="a_node8"><a xlink:title=" ">
<polygon fill="none" stroke="#bfbfbf" points="614,-204.5 614,-223.5 664,-223.5 664,-204.5 614,-204.5"/>
<text text-anchor="middle" x="639" y="-211.5" font-family="Helvetica,sans-Serif" font-size="10.00">uint8_t</text>
</a>
</g>
</g>
<!-- Node8&#45;&gt;Node1 -->
<g id="edge19" class="edge">
<title>Node8&#45;&gt;Node1</title>
<path fill="none" stroke="#9a32cd" stroke-dasharray="5,2" d="M614.97,-198.43C610.24,-194.8 605.63,-190.6 602,-186 585.58,-165.2 597.09,-150.36 579,-131 568.26,-119.5 552.7,-111.39 539.28,-106.03"/>
<polygon fill="#9a32cd" stroke="#9a32cd" points="613.21,-201.47 623.4,-204.34 617.22,-195.74 613.21,-201.47"/>
<text text-anchor="middle" x="618" y="-178" font-family="Helvetica,sans-Serif" font-size="10.00"> day</text>
<text text-anchor="middle" x="618" y="-167" font-family="Helvetica,sans-Serif" font-size="10.00">hour</text>
<text text-anchor="middle" x="618" y="-156" font-family="Helvetica,sans-Serif" font-size="10.00">min</text>
<text text-anchor="middle" x="618" y="-145" font-family="Helvetica,sans-Serif" font-size="10.00">month</text>
<text text-anchor="middle" x="618" y="-134" font-family="Helvetica,sans-Serif" font-size="10.00">sec</text>
</g>
<!-- Node8&#45;&gt;Node3 -->
<g id="edge14" class="edge">
<title>Node8&#45;&gt;Node3</title>
<path fill="none" stroke="#9a32cd" stroke-dasharray="5,2" d="M642.49,-194.3C646.64,-165.77 649.79,-111.39 621,-80 581.73,-37.18 511.52,-23.7 471.7,-19.45"/>
<polygon fill="#9a32cd" stroke="#9a32cd" points="638.98,-194.05 640.79,-204.49 645.89,-195.2 638.98,-194.05"/>
<text text-anchor="middle" x="651" y="-94" font-family="Helvetica,sans-Serif" font-size="10.00"> dirty</text>
</g>
<!-- Node9 -->
<g id="node9" class="node">
<title>Node9</title>
<g id="a_node9"><a xlink:title=" ">
<polygon fill="none" stroke="#bfbfbf" points="692,-87 692,-106 738,-106 738,-87 692,-87"/>
<text text-anchor="middle" x="715" y="-94" font-family="Helvetica,sans-Serif" font-size="10.00">void *</text>
</a>
</g>
</g>
<!-- Node9&#45;&gt;Node3 -->
<g id="edge15" class="edge">
<title>Node9&#45;&gt;Node3</title>
<path fill="none" stroke="#9a32cd" stroke-dasharray="5,2" d="M700.39,-79.36C690.53,-69.54 676.68,-57.64 662,-51 598.46,-22.26 515.15,-17.39 471.54,-17.02"/>
<polygon fill="#9a32cd" stroke="#9a32cd" points="697.93,-81.86 707.38,-86.66 702.98,-77.02 697.93,-81.86"/>
<text text-anchor="middle" x="699" y="-54" font-family="Helvetica,sans-Serif" font-size="10.00"> opaque</text>
</g>
<!-- Node10 -->
<g id="node10" class="node">
<title>Node10</title>
<g id="a_node10"><a xlink:title=" ">
<polygon fill="none" stroke="#bfbfbf" points="449,-204.5 449,-223.5 505,-223.5 505,-204.5 449,-204.5"/>
<text text-anchor="middle" x="477" y="-211.5" font-family="Helvetica,sans-Serif" font-size="10.00">uint16_t</text>
</a>
</g>
</g>
<!-- Node10&#45;&gt;Node1 -->
<g id="edge16" class="edge">
<title>Node10&#45;&gt;Node1</title>
<path fill="none" stroke="#9a32cd" stroke-dasharray="5,2" d="M479.77,-193.98C482.55,-177.11 487.52,-151.97 495,-131 498.16,-122.15 503.14,-112.66 506.9,-106.05"/>
<polygon fill="#9a32cd" stroke="#9a32cd" points="476.26,-193.76 478.19,-204.18 483.18,-194.83 476.26,-193.76"/>
<text text-anchor="middle" x="507.5" y="-156" font-family="Helvetica,sans-Serif" font-size="10.00"> year</text>
</g>
<!-- Node11 -->
<g id="node11" class="node">
<title>Node11</title>
<g id="a_node11"><a xlink:title=" ">
<polygon fill="none" stroke="#bfbfbf" points="523,-204.5 523,-223.5 579,-223.5 579,-204.5 523,-204.5"/>
<text text-anchor="middle" x="551" y="-211.5" font-family="Helvetica,sans-Serif" font-size="10.00">uint32_t</text>
</a>
</g>
</g>
<!-- Node11&#45;&gt;Node1 -->
<g id="edge18" class="edge">
<title>Node11&#45;&gt;Node1</title>
<path fill="none" stroke="#9a32cd" stroke-dasharray="5,2" d="M544.87,-194.84C536.37,-169.66 521.32,-125.1 514.97,-106.28"/>
<polygon fill="#9a32cd" stroke="#9a32cd" points="541.55,-195.96 548.07,-204.32 548.19,-193.72 541.55,-195.96"/>
<text text-anchor="middle" x="559" y="-161.5" font-family="Helvetica,sans-Serif" font-size="10.00"> device</text>
<text text-anchor="middle" x="559" y="-150.5" font-family="Helvetica,sans-Serif" font-size="10.00">flags</text>
</g>
</g>
</svg>
