<?xml version="1.0" encoding="UTF-8" standalone="no"?>
<!DOCTYPE svg PUBLIC "-//W3C//DTD SVG 1.1//EN"
 "http://www.w3.org/Graphics/SVG/1.1/DTD/svg11.dtd">
<!-- Generated by graphviz version 2.43.0 (0)
 -->
<!-- Title: tcp_conn_t Pages: 1 -->
<svg width="670pt" height="430pt"
 viewBox="0.00 0.00 670.00 430.00" xmlns="http://www.w3.org/2000/svg" xmlns:xlink="http://www.w3.org/1999/xlink">
<g id="graph0" class="graph" transform="scale(1 1) rotate(0) translate(4 426)">
<title>tcp_conn_t</title>
<!-- Node1 -->
<g id="node1" class="node">
<title>Node1</title>
<g id="a_node1"><a xlink:title=" ">
<polygon fill="#bfbfbf" stroke="black" points="334.5,-145.5 334.5,-164.5 403.5,-164.5 403.5,-145.5 334.5,-145.5"/>
<text text-anchor="middle" x="369" y="-152.5" font-family="Helvetica,sans-Serif" font-size="10.00">tcp_conn_t</text>
</a>
</g>
</g>
<!-- Node8 -->
<g id="node8" class="node">
<title>Node8</title>
<g id="a_node8"><a xlink:href="structpending__node__t.html" target="_top" xlink:title=" ">
<polygon fill="none" stroke="black" points="239,-78.5 239,-97.5 333,-97.5 333,-78.5 239,-78.5"/>
<text text-anchor="middle" x="286" y="-85.5" font-family="Helvetica,sans-Serif" font-size="10.00">pending_node_t</text>
</a>
</g>
</g>
<!-- Node1&#45;&gt;Node8 -->
<g id="edge9" class="edge">
<title>Node1&#45;&gt;Node8</title>
<path fill="none" stroke="#9a32cd" stroke-dasharray="5,2" d="M346.15,-139.84C340.12,-135.87 333.7,-131.42 328,-127 315.87,-117.61 302.93,-105.55 294.67,-97.57"/>
<polygon fill="#9a32cd" stroke="#9a32cd" points="344.28,-142.8 354.59,-145.27 348.07,-136.92 344.28,-142.8"/>
<text text-anchor="middle" x="341.5" y="-119" font-family="Helvetica,sans-Serif" font-size="10.00"> conn</text>
</g>
<!-- Node2 -->
<g id="node2" class="node">
<title>Node2</title>
<g id="a_node2"><a xlink:title=" ">
<polygon fill="none" stroke="#bfbfbf" points="0,-334.5 0,-353.5 56,-353.5 56,-334.5 0,-334.5"/>
<text text-anchor="middle" x="28" y="-341.5" font-family="Helvetica,sans-Serif" font-size="10.00">uint16_t</text>
</a>
</g>
</g>
<!-- Node2&#45;&gt;Node1 -->
<g id="edge1" class="edge">
<title>Node2&#45;&gt;Node1</title>
<path fill="none" stroke="#9a32cd" stroke-dasharray="5,2" d="M21.01,-324.47C9.82,-291.24 -7.38,-221.42 29,-183 51.66,-159.08 292.33,-169.31 325,-165 328.09,-164.59 331.29,-164.09 334.49,-163.54"/>
<polygon fill="#9a32cd" stroke="#9a32cd" points="17.84,-325.99 24.49,-334.23 24.43,-323.64 17.84,-325.99"/>
<text text-anchor="middle" x="59.5" y="-252" font-family="Helvetica,sans-Serif" font-size="10.00"> local_port</text>
<text text-anchor="middle" x="59.5" y="-241" font-family="Helvetica,sans-Serif" font-size="10.00">remote_port</text>
</g>
<!-- Node3 -->
<g id="node3" class="node">
<title>Node3</title>
<g id="a_node3"><a xlink:title=" ">
<polygon fill="none" stroke="#bfbfbf" points="111.5,-402.5 111.5,-421.5 156.5,-421.5 156.5,-402.5 111.5,-402.5"/>
<text text-anchor="middle" x="134" y="-409.5" font-family="Helvetica,sans-Serif" font-size="10.00">size_t</text>
</a>
</g>
</g>
<!-- Node3&#45;&gt;Node1 -->
<g id="edge2" class="edge">
<title>Node3&#45;&gt;Node1</title>
<path fill="none" stroke="#9a32cd" stroke-dasharray="5,2" d="M123.01,-393.35C114.5,-377.33 105.34,-353.2 113,-333 144.61,-249.7 169.16,-228.1 246,-183 247.95,-181.86 298.79,-170.91 334.48,-163.31"/>
<polygon fill="#9a32cd" stroke="#9a32cd" points="120.06,-395.23 128.07,-402.16 126.13,-391.75 120.06,-395.23"/>
<text text-anchor="middle" x="152.5" y="-347" font-family="Helvetica,sans-Serif" font-size="10.00"> recv_buffer_len</text>
<text text-anchor="middle" x="152.5" y="-336" font-family="Helvetica,sans-Serif" font-size="10.00">send_buffer_len</text>
</g>
<!-- Node10 -->
<g id="node10" class="node">
<title>Node10</title>
<g id="a_node10"><a xlink:href="structtcp__ordered__list__t.html" target="_top" xlink:title=" ">
<polygon fill="none" stroke="black" points="201,-334.5 201,-353.5 305,-353.5 305,-334.5 201,-334.5"/>
<text text-anchor="middle" x="253" y="-341.5" font-family="Helvetica,sans-Serif" font-size="10.00">tcp_ordered_list_t</text>
</a>
</g>
</g>
<!-- Node3&#45;&gt;Node10 -->
<g id="edge11" class="edge">
<title>Node3&#45;&gt;Node10</title>
<path fill="none" stroke="#9a32cd" stroke-dasharray="5,2" d="M158.31,-397.51C182,-384.38 217.3,-364.8 237.44,-353.63"/>
<polygon fill="#9a32cd" stroke="#9a32cd" points="156.6,-394.46 149.56,-402.37 160,-400.58 156.6,-394.46"/>
<text text-anchor="middle" x="209.5" y="-376" font-family="Helvetica,sans-Serif" font-size="10.00"> len</text>
</g>
<!-- Node4 -->
<g id="node4" class="node">
<title>Node4</title>
<g id="a_node4"><a xlink:title=" ">
<polygon fill="none" stroke="#bfbfbf" points="366,-334.5 366,-353.5 422,-353.5 422,-334.5 366,-334.5"/>
<text text-anchor="middle" x="394" y="-341.5" font-family="Helvetica,sans-Serif" font-size="10.00">uint32_t</text>
</a>
</g>
</g>
<!-- Node4&#45;&gt;Node1 -->
<g id="edge3" class="edge">
<title>Node4&#45;&gt;Node1</title>
<path fill="none" stroke="#9a32cd" stroke-dasharray="5,2" d="M376.86,-326.75C374.06,-323.17 371.56,-319.18 370,-315 349.81,-260.95 361.92,-189.18 367.05,-164.64"/>
<polygon fill="#9a32cd" stroke="#9a32cd" points="374.35,-329.2 383.65,-334.28 379.55,-324.51 374.35,-329.2"/>
<text text-anchor="middle" x="401.5" y="-307" font-family="Helvetica,sans-Serif" font-size="10.00"> irs</text>
<text text-anchor="middle" x="401.5" y="-296" font-family="Helvetica,sans-Serif" font-size="10.00">iss</text>
<text text-anchor="middle" x="401.5" y="-285" font-family="Helvetica,sans-Serif" font-size="10.00">local_addr</text>
<text text-anchor="middle" x="401.5" y="-274" font-family="Helvetica,sans-Serif" font-size="10.00">msl_time</text>
<text text-anchor="middle" x="401.5" y="-263" font-family="Helvetica,sans-Serif" font-size="10.00">rcv_lst</text>
<text text-anchor="middle" x="401.5" y="-252" font-family="Helvetica,sans-Serif" font-size="10.00">rcv_nxt</text>
<text text-anchor="middle" x="401.5" y="-241" font-family="Helvetica,sans-Serif" font-size="10.00">rcv_up</text>
<text text-anchor="middle" x="401.5" y="-230" font-family="Helvetica,sans-Serif" font-size="10.00">rcv_wnd</text>
<text text-anchor="start" x="370" y="-219" font-family="Helvetica,sans-Serif" font-size="10.00">recv_buffer</text>
<text text-anchor="middle" x="401.5" y="-208" font-family="Helvetica,sans-Serif" font-size="10.00">_spinlock</text>
<text text-anchor="middle" x="401.5" y="-197" font-family="Helvetica,sans-Serif" font-size="10.00">remote_addr</text>
<text text-anchor="middle" x="401.5" y="-186" font-family="Helvetica,sans-Serif" font-size="10.00">...</text>
</g>
<!-- Node5 -->
<g id="node5" class="node">
<title>Node5</title>
<g id="a_node5"><a xlink:title=" ">
<polygon fill="none" stroke="#bfbfbf" points="440.5,-334.5 440.5,-353.5 469.5,-353.5 469.5,-334.5 440.5,-334.5"/>
<text text-anchor="middle" x="455" y="-341.5" font-family="Helvetica,sans-Serif" font-size="10.00">int</text>
</a>
</g>
</g>
<!-- Node5&#45;&gt;Node1 -->
<g id="edge4" class="edge">
<title>Node5&#45;&gt;Node1</title>
<path fill="none" stroke="#9a32cd" stroke-dasharray="5,2" d="M454.69,-324.2C453.72,-286.8 449.7,-204.78 433,-183 425.81,-173.62 414.74,-167.47 403.83,-163.44"/>
<polygon fill="#9a32cd" stroke="#9a32cd" points="451.19,-324.34 454.91,-334.26 458.19,-324.19 451.19,-324.34"/>
<text text-anchor="middle" x="487.5" y="-263" font-family="Helvetica,sans-Serif" font-size="10.00"> backlog</text>
<text text-anchor="middle" x="487.5" y="-252" font-family="Helvetica,sans-Serif" font-size="10.00">fd</text>
<text text-anchor="middle" x="487.5" y="-241" font-family="Helvetica,sans-Serif" font-size="10.00">recv_eof_pos</text>
<text text-anchor="middle" x="487.5" y="-230" font-family="Helvetica,sans-Serif" font-size="10.00">send_eof_pos</text>
</g>
<!-- Node6 -->
<g id="node6" class="node">
<title>Node6</title>
<g id="a_node6"><a xlink:title=" ">
<polygon fill="none" stroke="#bfbfbf" points="520,-334.5 520,-353.5 570,-353.5 570,-334.5 520,-334.5"/>
<text text-anchor="middle" x="545" y="-341.5" font-family="Helvetica,sans-Serif" font-size="10.00">uint8_t</text>
</a>
</g>
</g>
<!-- Node6&#45;&gt;Node1 -->
<g id="edge5" class="edge">
<title>Node6&#45;&gt;Node1</title>
<path fill="none" stroke="#9a32cd" stroke-dasharray="5,2" d="M545.08,-323.87C544.83,-285.85 542.04,-202.76 523,-183 506.94,-166.34 443.96,-159.89 403.69,-157.45"/>
<polygon fill="#9a32cd" stroke="#9a32cd" points="541.58,-324.1 545.1,-334.1 548.58,-324.09 541.58,-324.1"/>
<text text-anchor="middle" x="573" y="-252" font-family="Helvetica,sans-Serif" font-size="10.00"> recv_buffer</text>
<text text-anchor="middle" x="573" y="-241" font-family="Helvetica,sans-Serif" font-size="10.00">send_buffer</text>
</g>
<!-- Node7 -->
<g id="node7" class="node">
<title>Node7</title>
<g id="a_node7"><a xlink:href="structqueue__t.html" target="_top" xlink:title=" ">
<polygon fill="none" stroke="black" points="299,-0.5 299,-19.5 355,-19.5 355,-0.5 299,-0.5"/>
<text text-anchor="middle" x="327" y="-7.5" font-family="Helvetica,sans-Serif" font-size="10.00">queue_t</text>
</a>
</g>
</g>
<!-- Node7&#45;&gt;Node1 -->
<g id="edge6" class="edge">
<title>Node7&#45;&gt;Node1</title>
<path fill="none" stroke="#9a32cd" stroke-dasharray="5,2" d="M338.33,-28.31C340.07,-31.45 341.71,-34.76 343,-38 358.22,-76.37 365.53,-125.59 368,-145.28"/>
<polygon fill="#9a32cd" stroke="#9a32cd" points="341.25,-26.37 333.07,-19.64 335.26,-30 341.25,-26.37"/>
<text text-anchor="middle" x="380.5" y="-85.5" font-family="Helvetica,sans-Serif" font-size="10.00"> pending</text>
</g>
<!-- Node8&#45;&gt;Node7 -->
<g id="edge7" class="edge">
<title>Node8&#45;&gt;Node7</title>
<path fill="none" stroke="#9a32cd" stroke-dasharray="5,2" d="M295.64,-69.12C304.06,-53.53 315.89,-31.59 322.35,-19.62"/>
<polygon fill="#9a32cd" stroke="#9a32cd" points="292.37,-67.82 290.7,-78.28 298.53,-71.14 292.37,-67.82"/>
<text text-anchor="middle" x="325" y="-52" font-family="Helvetica,sans-Serif" font-size="10.00"> head</text>
<text text-anchor="middle" x="325" y="-41" font-family="Helvetica,sans-Serif" font-size="10.00">tail</text>
</g>
<!-- Node9 -->
<g id="node9" class="node">
<title>Node9</title>
<g id="a_node9"><a xlink:title=" ">
<polygon fill="none" stroke="#bfbfbf" points="192,-145.5 192,-164.5 316,-164.5 316,-145.5 192,-145.5"/>
<text text-anchor="middle" x="254" y="-152.5" font-family="Helvetica,sans-Serif" font-size="10.00">struct pending_node *</text>
</a>
</g>
</g>
<!-- Node9&#45;&gt;Node8 -->
<g id="edge8" class="edge">
<title>Node9&#45;&gt;Node8</title>
<path fill="none" stroke="#9a32cd" stroke-dasharray="5,2" d="M259.8,-135.59C262.06,-129.24 264.86,-122.18 268,-116 271.27,-109.57 275.77,-102.82 279.45,-97.68"/>
<polygon fill="#9a32cd" stroke="#9a32cd" points="256.4,-134.71 256.56,-145.31 263.04,-136.93 256.4,-134.71"/>
<text text-anchor="middle" x="280.5" y="-119" font-family="Helvetica,sans-Serif" font-size="10.00"> next</text>
</g>
<!-- Node10&#45;&gt;Node1 -->
<g id="edge10" class="edge">
<title>Node10&#45;&gt;Node1</title>
<path fill="none" stroke="#9a32cd" stroke-dasharray="5,2" d="M251.42,-324.4C249.7,-291.59 251.04,-223.09 287,-183 293.55,-175.69 314.87,-168.79 334.13,-163.8"/>
<polygon fill="#9a32cd" stroke="#9a32cd" points="247.93,-324.68 252.11,-334.42 254.92,-324.2 247.93,-324.68"/>
<text text-anchor="middle" x="320.5" y="-246.5" font-family="Helvetica,sans-Serif" font-size="10.00"> segment_list</text>
</g>
<!-- Node10&#45;&gt;Node10 -->
<g id="edge13" class="edge">
<title>Node10&#45;&gt;Node10</title>
<path fill="none" stroke="#9a32cd" stroke-dasharray="5,2" d="M315.4,-348.77C320.11,-347.71 323,-346.12 323,-344 323,-340.61 315.59,-338.58 305.2,-337.89"/>
<polygon fill="#9a32cd" stroke="#9a32cd" points="314.66,-345.34 305.2,-350.11 315.57,-352.28 314.66,-345.34"/>
<text text-anchor="middle" x="335.5" y="-347" font-family="Helvetica,sans-Serif" font-size="10.00"> next</text>
<text text-anchor="middle" x="335.5" y="-336" font-family="Helvetica,sans-Serif" font-size="10.00">prev</text>
</g>
<!-- Node11 -->
<g id="node11" class="node">
<title>Node11</title>
<g id="a_node11"><a xlink:title=" ">
<polygon fill="none" stroke="#bfbfbf" points="204.5,-402.5 204.5,-421.5 301.5,-421.5 301.5,-402.5 204.5,-402.5"/>
<text text-anchor="middle" x="253" y="-409.5" font-family="Helvetica,sans-Serif" font-size="10.00">tcp_segment_t *</text>
</a>
</g>
</g>
<!-- Node11&#45;&gt;Node10 -->
<g id="edge12" class="edge">
<title>Node11&#45;&gt;Node10</title>
<path fill="none" stroke="#9a32cd" stroke-dasharray="5,2" d="M253,-392.04C253,-379.47 253,-363.56 253,-353.84"/>
<polygon fill="#9a32cd" stroke="#9a32cd" points="249.5,-392.37 253,-402.37 256.5,-392.37 249.5,-392.37"/>
<text text-anchor="middle" x="276" y="-376" font-family="Helvetica,sans-Serif" font-size="10.00"> segment</text>
</g>
<!-- Node12 -->
<g id="node12" class="node">
<title>Node12</title>
<g id="a_node12"><a xlink:title=" ">
<polygon fill="none" stroke="#bfbfbf" points="590.5,-334.5 590.5,-353.5 661.5,-353.5 661.5,-334.5 590.5,-334.5"/>
<text text-anchor="middle" x="626" y="-341.5" font-family="Helvetica,sans-Serif" font-size="10.00">tcp_state_t</text>
</a>
</g>
</g>
<!-- Node12&#45;&gt;Node1 -->
<g id="edge14" class="edge">
<title>Node12&#45;&gt;Node1</title>
<path fill="none" stroke="#9a32cd" stroke-dasharray="5,2" d="M629.92,-324.26C635.73,-290.69 642.18,-220.34 604,-183 589.94,-169.25 465.42,-160.96 403.56,-157.66"/>
<polygon fill="#9a32cd" stroke="#9a32cd" points="626.47,-323.65 628.04,-334.13 633.35,-324.96 626.47,-323.65"/>
<text text-anchor="middle" x="648" y="-246.5" font-family="Helvetica,sans-Serif" font-size="10.00"> state</text>
</g>
</g>
</svg>
