<?xml version="1.0" encoding="UTF-8" standalone="no"?>
<!DOCTYPE svg PUBLIC "-//W3C//DTD SVG 1.1//EN"
 "http://www.w3.org/Graphics/SVG/1.1/DTD/svg11.dtd">
<!-- Generated by graphviz version 2.43.0 (0)
 -->
<!-- Title: ub_proc_fn_def Pages: 1 -->
<svg width="372pt" height="162pt"
 viewBox="0.00 0.00 371.50 162.00" xmlns="http://www.w3.org/2000/svg" xmlns:xlink="http://www.w3.org/1999/xlink">
<g id="graph0" class="graph" transform="scale(1 1) rotate(0) translate(4 158)">
<title>ub_proc_fn_def</title>
<!-- Node1 -->
<g id="node1" class="node">
<title>Node1</title>
<g id="a_node1"><a xlink:title=" ">
<polygon fill="#bfbfbf" stroke="black" points="121,-0.5 121,-19.5 212,-19.5 212,-0.5 121,-0.5"/>
<text text-anchor="middle" x="166.5" y="-7.5" font-family="Helvetica,sans-Serif" font-size="10.00">ub_proc_fn_def</text>
</a>
</g>
</g>
<!-- Node1&#45;&gt;Node1 -->
<g id="edge4" class="edge">
<title>Node1&#45;&gt;Node1</title>
<path fill="none" stroke="#9a32cd" stroke-dasharray="5,2" d="M222.33,-14.66C227.06,-13.66 230,-12.11 230,-10 230,-6.62 222.47,-4.67 212.16,-4.15"/>
<polygon fill="#9a32cd" stroke="#9a32cd" points="221.69,-11.21 212.16,-15.85 222.5,-18.16 221.69,-11.21"/>
<text text-anchor="middle" x="242.5" y="-7.5" font-family="Helvetica,sans-Serif" font-size="10.00"> next</text>
</g>
<!-- Node2 -->
<g id="node2" class="node">
<title>Node2</title>
<g id="a_node2"><a xlink:title=" ">
<polygon fill="none" stroke="#bfbfbf" points="0,-67.5 0,-86.5 101,-86.5 101,-67.5 0,-67.5"/>
<text text-anchor="middle" x="50.5" y="-74.5" font-family="Helvetica,sans-Serif" font-size="10.00">enum ub_fn_type</text>
</a>
</g>
</g>
<!-- Node2&#45;&gt;Node1 -->
<g id="edge1" class="edge">
<title>Node2&#45;&gt;Node1</title>
<path fill="none" stroke="#9a32cd" stroke-dasharray="5,2" d="M67.45,-60.57C76.27,-53.09 87.48,-44.37 98.5,-38 111.48,-30.5 126.94,-24.18 139.84,-19.54"/>
<polygon fill="#9a32cd" stroke="#9a32cd" points="65.04,-58.03 59.82,-67.25 69.65,-63.3 65.04,-58.03"/>
<text text-anchor="middle" x="111" y="-41" font-family="Helvetica,sans-Serif" font-size="10.00"> type</text>
</g>
<!-- Node3 -->
<g id="node3" class="node">
<title>Node3</title>
<g id="a_node3"><a xlink:title=" ">
<polygon fill="none" stroke="#bfbfbf" points="134.5,-134.5 134.5,-153.5 172.5,-153.5 172.5,-134.5 134.5,-134.5"/>
<text text-anchor="middle" x="153.5" y="-141.5" font-family="Helvetica,sans-Serif" font-size="10.00">char</text>
</a>
</g>
</g>
<!-- Node3&#45;&gt;Node1 -->
<g id="edge2" class="edge">
<title>Node3&#45;&gt;Node1</title>
<path fill="none" stroke="#9a32cd" stroke-dasharray="5,2" d="M149.03,-124.17C146.02,-108.72 143.15,-86.33 146.5,-67 149.5,-49.71 157.33,-30.69 162.26,-19.86"/>
<polygon fill="#9a32cd" stroke="#9a32cd" points="145.63,-125.01 151.16,-134.05 152.47,-123.53 145.63,-125.01"/>
<text text-anchor="middle" x="162" y="-74.5" font-family="Helvetica,sans-Serif" font-size="10.00"> name</text>
</g>
<!-- Node5 -->
<g id="node5" class="node">
<title>Node5</title>
<g id="a_node5"><a xlink:href="structub__param.html" target="_top" xlink:title=" ">
<polygon fill="none" stroke="black" points="187,-67.5 187,-86.5 252,-86.5 252,-67.5 187,-67.5"/>
<text text-anchor="middle" x="219.5" y="-74.5" font-family="Helvetica,sans-Serif" font-size="10.00">ub_param</text>
</a>
</g>
</g>
<!-- Node3&#45;&gt;Node5 -->
<g id="edge6" class="edge">
<title>Node3&#45;&gt;Node5</title>
<path fill="none" stroke="#9a32cd" stroke-dasharray="5,2" d="M169.75,-127C182.69,-114.25 200.31,-96.89 210.74,-86.63"/>
<polygon fill="#9a32cd" stroke="#9a32cd" points="167.07,-124.72 162.4,-134.23 171.98,-129.71 167.07,-124.72"/>
<text text-anchor="middle" x="206" y="-108" font-family="Helvetica,sans-Serif" font-size="10.00"> name</text>
</g>
<!-- Node4 -->
<g id="node4" class="node">
<title>Node4</title>
<g id="a_node4"><a xlink:title=" ">
<polygon fill="none" stroke="#bfbfbf" points="313.5,-67.5 313.5,-86.5 363.5,-86.5 363.5,-67.5 313.5,-67.5"/>
<text text-anchor="middle" x="338.5" y="-74.5" font-family="Helvetica,sans-Serif" font-size="10.00">int64_t</text>
</a>
</g>
</g>
<!-- Node4&#45;&gt;Node1 -->
<g id="edge3" class="edge">
<title>Node4&#45;&gt;Node1</title>
<path fill="none" stroke="#9a32cd" stroke-dasharray="5,2" d="M307.29,-63.71C288.07,-56.19 262.9,-46.43 240.5,-38 223.73,-31.69 204.75,-24.77 190.21,-19.51"/>
<polygon fill="#9a32cd" stroke="#9a32cd" points="306.16,-67.03 316.75,-67.42 308.72,-60.51 306.16,-67.03"/>
<text text-anchor="middle" x="277.5" y="-41" font-family="Helvetica,sans-Serif" font-size="10.00"> line</text>
</g>
<!-- Node5&#45;&gt;Node1 -->
<g id="edge5" class="edge">
<title>Node5&#45;&gt;Node1</title>
<path fill="none" stroke="#9a32cd" stroke-dasharray="5,2" d="M205.86,-59.27C195.53,-46.6 181.75,-29.7 173.53,-19.63"/>
<polygon fill="#9a32cd" stroke="#9a32cd" points="203.32,-61.7 212.35,-67.23 208.75,-57.27 203.32,-61.7"/>
<text text-anchor="middle" x="216.5" y="-41" font-family="Helvetica,sans-Serif" font-size="10.00"> params</text>
</g>
<!-- Node5&#45;&gt;Node5 -->
<g id="edge7" class="edge">
<title>Node5&#45;&gt;Node5</title>
<path fill="none" stroke="#9a32cd" stroke-dasharray="5,2" d="M262.14,-82.07C266.91,-81.11 270,-79.42 270,-77 270,-73.12 262.1,-71.13 252.04,-71.01"/>
<polygon fill="#9a32cd" stroke="#9a32cd" points="261.68,-78.59 252.04,-82.99 262.32,-85.56 261.68,-78.59"/>
<text text-anchor="middle" x="282.5" y="-74.5" font-family="Helvetica,sans-Serif" font-size="10.00"> next</text>
</g>
</g>
</svg>
