<?xml version="1.0" encoding="UTF-8" standalone="no"?>
<!DOCTYPE svg PUBLIC "-//W3C//DTD SVG 1.1//EN"
 "http://www.w3.org/Graphics/SVG/1.1/DTD/svg11.dtd">
<!-- Generated by graphviz version 2.43.0 (0)
 -->
<!-- Title: buddy_region_t Pages: 1 -->
<svg width="427pt" height="164pt"
 viewBox="0.00 0.00 427.00 164.00" xmlns="http://www.w3.org/2000/svg" xmlns:xlink="http://www.w3.org/1999/xlink">
<g id="graph0" class="graph" transform="scale(1 1) rotate(0) translate(4 160)">
<title>buddy_region_t</title>
<!-- Node1 -->
<g id="node1" class="node">
<title>Node1</title>
<g id="a_node1"><a xlink:title="Buddy region structure (internal).">
<polygon fill="#bfbfbf" stroke="black" points="217,-0.5 217,-19.5 309,-19.5 309,-0.5 217,-0.5"/>
<text text-anchor="middle" x="263" y="-7.5" font-family="Helvetica,sans-Serif" font-size="10.00">buddy_region_t</text>
</a>
</g>
</g>
<!-- Node2 -->
<g id="node2" class="node">
<title>Node2</title>
<g id="a_node2"><a xlink:title=" ">
<polygon fill="none" stroke="#bfbfbf" points="0,-136.5 0,-155.5 122,-155.5 122,-136.5 0,-136.5"/>
<text text-anchor="middle" x="61" y="-143.5" font-family="Helvetica,sans-Serif" font-size="10.00">struct buddy_region *</text>
</a>
</g>
</g>
<!-- Node2&#45;&gt;Node1 -->
<g id="edge1" class="edge">
<title>Node2&#45;&gt;Node1</title>
<path fill="none" stroke="#9a32cd" stroke-dasharray="5,2" d="M71.48,-127.71C82.79,-110.31 102.27,-83.74 125,-67 156.86,-43.55 199.93,-28.13 229.43,-19.51"/>
<polygon fill="#9a32cd" stroke="#9a32cd" points="68.44,-125.98 66.07,-136.3 74.36,-129.71 68.44,-125.98"/>
<text text-anchor="middle" x="137.5" y="-75.5" font-family="Helvetica,sans-Serif" font-size="10.00"> next</text>
</g>
<!-- Node4 -->
<g id="node4" class="node">
<title>Node4</title>
<g id="a_node4"><a xlink:href="structbuddy__header__t.html" target="_top" xlink:title="Block header used for both free list nodes and allocated blocks.">
<polygon fill="none" stroke="black" points="159.5,-68.5 159.5,-87.5 254.5,-87.5 254.5,-68.5 159.5,-68.5"/>
<text text-anchor="middle" x="207" y="-75.5" font-family="Helvetica,sans-Serif" font-size="10.00">buddy_header_t</text>
</a>
</g>
</g>
<!-- Node2&#45;&gt;Node4 -->
<g id="edge4" class="edge">
<title>Node2&#45;&gt;Node4</title>
<path fill="none" stroke="#9a32cd" stroke-dasharray="5,2" d="M89.3,-132.21C118.35,-119.07 162.77,-99 187.91,-87.63"/>
<polygon fill="#9a32cd" stroke="#9a32cd" points="87.76,-129.06 80.09,-136.37 90.64,-135.44 87.76,-129.06"/>
<text text-anchor="middle" x="160" y="-110" font-family="Helvetica,sans-Serif" font-size="10.00"> region</text>
</g>
<!-- Node3 -->
<g id="node3" class="node">
<title>Node3</title>
<g id="a_node3"><a xlink:title=" ">
<polygon fill="none" stroke="#bfbfbf" points="283.5,-136.5 283.5,-155.5 312.5,-155.5 312.5,-136.5 283.5,-136.5"/>
<text text-anchor="middle" x="298" y="-143.5" font-family="Helvetica,sans-Serif" font-size="10.00">int</text>
</a>
</g>
</g>
<!-- Node3&#45;&gt;Node1 -->
<g id="edge2" class="edge">
<title>Node3&#45;&gt;Node1</title>
<path fill="none" stroke="#9a32cd" stroke-dasharray="5,2" d="M297.43,-126.13C296.23,-104.24 292.5,-67.4 281,-38 278.46,-31.49 274.15,-24.96 270.39,-19.94"/>
<polygon fill="#9a32cd" stroke="#9a32cd" points="293.94,-126.51 297.87,-136.35 300.94,-126.21 293.94,-126.51"/>
<text text-anchor="middle" x="321" y="-81" font-family="Helvetica,sans-Serif" font-size="10.00"> max_order</text>
<text text-anchor="middle" x="321" y="-70" font-family="Helvetica,sans-Serif" font-size="10.00">min_order</text>
</g>
<!-- Node3&#45;&gt;Node4 -->
<g id="edge6" class="edge">
<title>Node3&#45;&gt;Node4</title>
<path fill="none" stroke="#9a32cd" stroke-dasharray="5,2" d="M274.6,-132.37C267.19,-128.09 259.09,-123.09 252,-118 238.73,-108.48 224.7,-95.85 215.9,-87.58"/>
<polygon fill="#9a32cd" stroke="#9a32cd" points="273.05,-135.52 283.48,-137.38 276.49,-129.42 273.05,-135.52"/>
<text text-anchor="middle" x="266.5" y="-110" font-family="Helvetica,sans-Serif" font-size="10.00"> order</text>
</g>
<!-- Node4&#45;&gt;Node1 -->
<g id="edge3" class="edge">
<title>Node4&#45;&gt;Node1</title>
<path fill="none" stroke="#9a32cd" stroke-dasharray="5,2" d="M216.64,-59.68C220.93,-52.64 226.29,-44.61 232,-38 237.88,-31.19 245.48,-24.55 251.68,-19.55"/>
<polygon fill="#9a32cd" stroke="#9a32cd" points="213.54,-58.05 211.54,-68.46 219.59,-61.57 213.54,-58.05"/>
<text text-anchor="middle" x="256.5" y="-41" font-family="Helvetica,sans-Serif" font-size="10.00"> free_lists</text>
</g>
<!-- Node5 -->
<g id="node5" class="node">
<title>Node5</title>
<g id="a_node5"><a xlink:title=" ">
<polygon fill="none" stroke="#bfbfbf" points="140.5,-136.5 140.5,-155.5 265.5,-155.5 265.5,-136.5 140.5,-136.5"/>
<text text-anchor="middle" x="203" y="-143.5" font-family="Helvetica,sans-Serif" font-size="10.00">struct buddy_header *</text>
</a>
</g>
</g>
<!-- Node5&#45;&gt;Node4 -->
<g id="edge5" class="edge">
<title>Node5&#45;&gt;Node4</title>
<path fill="none" stroke="#9a32cd" stroke-dasharray="5,2" d="M203.19,-126.24C203.34,-120.1 203.58,-113.26 204,-107 204.43,-100.56 205.21,-93.32 205.87,-87.81"/>
<polygon fill="#9a32cd" stroke="#9a32cd" points="199.7,-126.18 203.03,-136.24 206.69,-126.3 199.7,-126.18"/>
<text text-anchor="middle" x="216.5" y="-110" font-family="Helvetica,sans-Serif" font-size="10.00"> next</text>
</g>
<!-- Node6 -->
<g id="node6" class="node">
<title>Node6</title>
<g id="a_node6"><a xlink:title=" ">
<polygon fill="none" stroke="#bfbfbf" points="369,-68.5 369,-87.5 419,-87.5 419,-68.5 369,-68.5"/>
<text text-anchor="middle" x="394" y="-75.5" font-family="Helvetica,sans-Serif" font-size="10.00">uint8_t</text>
</a>
</g>
</g>
<!-- Node6&#45;&gt;Node1 -->
<g id="edge7" class="edge">
<title>Node6&#45;&gt;Node1</title>
<path fill="none" stroke="#9a32cd" stroke-dasharray="5,2" d="M367.92,-63.86C341.85,-50.72 302.49,-30.9 280.13,-19.63"/>
<polygon fill="#9a32cd" stroke="#9a32cd" points="366.37,-67 376.87,-68.37 369.52,-60.75 366.37,-67"/>
<text text-anchor="middle" x="348.5" y="-41" font-family="Helvetica,sans-Serif" font-size="10.00"> pool</text>
</g>
</g>
</svg>
