<?xml version="1.0" encoding="UTF-8" standalone="no"?>
<!DOCTYPE svg PUBLIC "-//W3C//DTD SVG 1.1//EN"
 "http://www.w3.org/Graphics/SVG/1.1/DTD/svg11.dtd">
<!-- Generated by graphviz version 2.43.0 (0)
 -->
<!-- Title: rfs_t Pages: 1 -->
<svg width="891pt" height="285pt"
 viewBox="0.00 0.00 891.00 285.00" xmlns="http://www.w3.org/2000/svg" xmlns:xlink="http://www.w3.org/1999/xlink">
<g id="graph0" class="graph" transform="scale(1 1) rotate(0) translate(4 281)">
<title>rfs_t</title>
<!-- Node1 -->
<g id="node1" class="node">
<title>Node1</title>
<g id="a_node1"><a xlink:title="In&#45;memory RetroFS mount context.">
<polygon fill="#bfbfbf" stroke="black" points="474,-0.5 474,-19.5 512,-19.5 512,-0.5 474,-0.5"/>
<text text-anchor="middle" x="493" y="-7.5" font-family="Helvetica,sans-Serif" font-size="10.00">rfs_t</text>
</a>
</g>
</g>
<!-- Node2 -->
<g id="node2" class="node">
<title>Node2</title>
<g id="a_node2"><a xlink:href="structrfs__description__block__t.html" target="_top" xlink:title="On&#45;disk description block containing global filesystem metadata.">
<polygon fill="none" stroke="black" points="54.5,-118 54.5,-137 183.5,-137 183.5,-118 54.5,-118"/>
<text text-anchor="middle" x="119" y="-125" font-family="Helvetica,sans-Serif" font-size="10.00">rfs_description_block_t</text>
</a>
</g>
</g>
<!-- Node2&#45;&gt;Node1 -->
<g id="edge1" class="edge">
<title>Node2&#45;&gt;Node1</title>
<path fill="none" stroke="#9a32cd" stroke-dasharray="5,2" d="M133.87,-110.36C154.07,-89.61 192.36,-54.32 233,-38 276.8,-20.41 421.07,-13.58 473.63,-11.64"/>
<polygon fill="#9a32cd" stroke="#9a32cd" points="131.17,-108.12 126.81,-117.78 136.24,-112.94 131.17,-108.12"/>
<text text-anchor="middle" x="246" y="-57.5" font-family="Helvetica,sans-Serif" font-size="10.00"> desc</text>
</g>
<!-- Node3 -->
<g id="node3" class="node">
<title>Node3</title>
<g id="a_node3"><a xlink:title=" ">
<polygon fill="none" stroke="#bfbfbf" points="245,-257.5 245,-276.5 301,-276.5 301,-257.5 245,-257.5"/>
<text text-anchor="middle" x="273" y="-264.5" font-family="Helvetica,sans-Serif" font-size="10.00">uint64_t</text>
</a>
</g>
</g>
<!-- Node3&#45;&gt;Node1 -->
<g id="edge4" class="edge">
<title>Node3&#45;&gt;Node1</title>
<path fill="none" stroke="#9a32cd" stroke-dasharray="5,2" d="M270.71,-247.17C267.71,-214.39 265.95,-145.97 296,-100 336.76,-37.64 432.75,-18.48 473.82,-13.02"/>
<polygon fill="#9a32cd" stroke="#9a32cd" points="267.23,-247.6 271.77,-257.18 274.19,-246.87 267.23,-247.6"/>
<text text-anchor="middle" x="328" y="-147" font-family="Helvetica,sans-Serif" font-size="10.00"> l1_groups</text>
<text text-anchor="middle" x="328" y="-136" font-family="Helvetica,sans-Serif" font-size="10.00">l2_groups</text>
<text text-anchor="middle" x="328" y="-125" font-family="Helvetica,sans-Serif" font-size="10.00">length</text>
<text text-anchor="middle" x="328" y="-114" font-family="Helvetica,sans-Serif" font-size="10.00">start</text>
<text text-anchor="middle" x="328" y="-103" font-family="Helvetica,sans-Serif" font-size="10.00">total_sectors</text>
</g>
<!-- Node3&#45;&gt;Node2 -->
<g id="edge2" class="edge">
<title>Node3&#45;&gt;Node2</title>
<path fill="none" stroke="#9a32cd" stroke-dasharray="5,2" d="M234.63,-264.65C194.2,-262.33 134.43,-256.04 120,-239 94.96,-209.42 108.81,-157.72 115.77,-137.23"/>
<polygon fill="#9a32cd" stroke="#9a32cd" points="234.53,-268.15 244.7,-265.17 234.89,-261.16 234.53,-268.15"/>
<text text-anchor="middle" x="189.5" y="-231" font-family="Helvetica,sans-Serif" font-size="10.00"> free_space_map_checksum</text>
<text text-anchor="middle" x="189.5" y="-220" font-family="Helvetica,sans-Serif" font-size="10.00">free_space_map_length</text>
<text text-anchor="middle" x="189.5" y="-209" font-family="Helvetica,sans-Serif" font-size="10.00">free_space_map_start</text>
<text text-anchor="middle" x="189.5" y="-198" font-family="Helvetica,sans-Serif" font-size="10.00">identifier</text>
<text text-anchor="middle" x="189.5" y="-187" font-family="Helvetica,sans-Serif" font-size="10.00">root_directory</text>
<text text-anchor="middle" x="189.5" y="-176" font-family="Helvetica,sans-Serif" font-size="10.00">sequence</text>
</g>
<!-- Node6 -->
<g id="node6" class="node">
<title>Node6</title>
<g id="a_node6"><a xlink:href="structstorage__device__t.html" target="_top" xlink:title="Represents a block storage device e.g. a hard disk, DVD&#45;ROM drive, etc.">
<polygon fill="none" stroke="black" points="443,-118 443,-137 543,-137 543,-118 443,-118"/>
<text text-anchor="middle" x="493" y="-125" font-family="Helvetica,sans-Serif" font-size="10.00">storage_device_t</text>
</a>
</g>
</g>
<!-- Node3&#45;&gt;Node6 -->
<g id="edge7" class="edge">
<title>Node3&#45;&gt;Node6</title>
<path fill="none" stroke="#9a32cd" stroke-dasharray="5,2" d="M281.22,-247.99C293.09,-222.34 314.34,-177.82 321,-173 362.21,-143.2 385.27,-169.54 434,-155 449.06,-150.5 465.3,-143 476.92,-137.12"/>
<polygon fill="#9a32cd" stroke="#9a32cd" points="277.91,-246.82 276.91,-257.37 284.27,-249.75 277.91,-246.82"/>
<text text-anchor="middle" x="344" y="-209" font-family="Helvetica,sans-Serif" font-size="10.00"> opaque1</text>
<text text-anchor="middle" x="344" y="-198" font-family="Helvetica,sans-Serif" font-size="10.00">size</text>
</g>
<!-- Node4 -->
<g id="node4" class="node">
<title>Node4</title>
<g id="a_node4"><a xlink:title=" ">
<polygon fill="none" stroke="#bfbfbf" points="0,-257.5 0,-276.5 50,-276.5 50,-257.5 0,-257.5"/>
<text text-anchor="middle" x="25" y="-264.5" font-family="Helvetica,sans-Serif" font-size="10.00">int64_t</text>
</a>
</g>
</g>
<!-- Node4&#45;&gt;Node2 -->
<g id="edge3" class="edge">
<title>Node4&#45;&gt;Node2</title>
<path fill="none" stroke="#9a32cd" stroke-dasharray="5,2" d="M19.89,-247.75C15.42,-227.75 11.64,-195.52 26,-173 37.84,-154.44 59.77,-143.44 79.36,-137.02"/>
<polygon fill="#9a32cd" stroke="#9a32cd" points="16.5,-248.62 22.34,-257.47 23.29,-246.91 16.5,-248.62"/>
<text text-anchor="middle" x="61.5" y="-203.5" font-family="Helvetica,sans-Serif" font-size="10.00"> creation_time</text>
</g>
<!-- Node5 -->
<g id="node5" class="node">
<title>Node5</title>
<g id="a_node5"><a xlink:title=" ">
<polygon fill="none" stroke="#bfbfbf" points="369,-118 369,-137 425,-137 425,-118 369,-118"/>
<text text-anchor="middle" x="397" y="-125" font-family="Helvetica,sans-Serif" font-size="10.00">uint16_t</text>
</a>
</g>
</g>
<!-- Node5&#45;&gt;Node1 -->
<g id="edge5" class="edge">
<title>Node5&#45;&gt;Node1</title>
<path fill="none" stroke="#9a32cd" stroke-dasharray="5,2" d="M396.76,-107.85C397.5,-88.14 401.66,-57.29 419,-38 433.08,-22.34 457,-15.75 473.82,-12.98"/>
<polygon fill="#9a32cd" stroke="#9a32cd" points="393.26,-107.96 396.64,-118 400.26,-108.04 393.26,-107.96"/>
<text text-anchor="middle" x="454" y="-57.5" font-family="Helvetica,sans-Serif" font-size="10.00"> l1_free_count</text>
</g>
<!-- Node6&#45;&gt;Node1 -->
<g id="edge6" class="edge">
<title>Node6&#45;&gt;Node1</title>
<path fill="none" stroke="#9a32cd" stroke-dasharray="5,2" d="M493,-107.66C493,-82.37 493,-38.44 493,-19.78"/>
<polygon fill="#9a32cd" stroke="#9a32cd" points="489.5,-107.82 493,-117.82 496.5,-107.82 489.5,-107.82"/>
<text text-anchor="middle" x="504" y="-57.5" font-family="Helvetica,sans-Serif" font-size="10.00"> dev</text>
</g>
<!-- Node6&#45;&gt;Node6 -->
<g id="edge9" class="edge">
<title>Node6&#45;&gt;Node6</title>
<path fill="none" stroke="#9a32cd" stroke-dasharray="5,2" d="M524.14,-139.06C543.08,-141.73 561,-137.87 561,-127.5 561,-115.32 536.29,-112.13 514.24,-117.94"/>
<polygon fill="#9a32cd" stroke="#9a32cd" points="524.73,-135.6 514.24,-137.06 523.35,-142.47 524.73,-135.6"/>
<text text-anchor="middle" x="573.5" y="-125" font-family="Helvetica,sans-Serif" font-size="10.00"> next</text>
</g>
<!-- Node7 -->
<g id="node7" class="node">
<title>Node7</title>
<g id="a_node7"><a xlink:title=" ">
<polygon fill="none" stroke="#bfbfbf" points="350,-257.5 350,-276.5 388,-276.5 388,-257.5 350,-257.5"/>
<text text-anchor="middle" x="369" y="-264.5" font-family="Helvetica,sans-Serif" font-size="10.00">char</text>
</a>
</g>
</g>
<!-- Node7&#45;&gt;Node6 -->
<g id="edge8" class="edge">
<title>Node7&#45;&gt;Node6</title>
<path fill="none" stroke="#9a32cd" stroke-dasharray="5,2" d="M369.44,-247.23C370.87,-226.74 376.06,-194.06 394,-173 394.04,-172.95 445.17,-149.98 473.92,-137.07"/>
<polygon fill="#9a32cd" stroke="#9a32cd" points="365.93,-247.3 368.97,-257.45 372.92,-247.62 365.93,-247.3"/>
<text text-anchor="middle" x="409.5" y="-203.5" font-family="Helvetica,sans-Serif" font-size="10.00"> name</text>
</g>
<!-- Node8 -->
<g id="node8" class="node">
<title>Node8</title>
<g id="a_node8"><a xlink:title=" ">
<polygon fill="none" stroke="#bfbfbf" points="406,-257.5 406,-276.5 462,-276.5 462,-257.5 406,-257.5"/>
<text text-anchor="middle" x="434" y="-264.5" font-family="Helvetica,sans-Serif" font-size="10.00">uint32_t</text>
</a>
</g>
</g>
<!-- Node8&#45;&gt;Node6 -->
<g id="edge10" class="edge">
<title>Node8&#45;&gt;Node6</title>
<path fill="none" stroke="#9a32cd" stroke-dasharray="5,2" d="M430.51,-247.41C427.77,-227.8 426.15,-196.53 438,-173 446.12,-156.88 463.05,-144.6 476,-137.06"/>
<polygon fill="#9a32cd" stroke="#9a32cd" points="427.08,-248.17 432.16,-257.47 433.99,-247.03 427.08,-248.17"/>
<text text-anchor="middle" x="465.5" y="-203.5" font-family="Helvetica,sans-Serif" font-size="10.00"> block_size</text>
</g>
<!-- Node9 -->
<g id="node9" class="node">
<title>Node9</title>
<g id="a_node9"><a xlink:title=" ">
<polygon fill="none" stroke="#bfbfbf" points="492.5,-257.5 492.5,-276.5 521.5,-276.5 521.5,-257.5 492.5,-257.5"/>
<text text-anchor="middle" x="507" y="-264.5" font-family="Helvetica,sans-Serif" font-size="10.00">int</text>
</a>
</g>
</g>
<!-- Node9&#45;&gt;Node6 -->
<g id="edge11" class="edge">
<title>Node9&#45;&gt;Node6</title>
<path fill="none" stroke="#9a32cd" stroke-dasharray="5,2" d="M505.1,-247.36C502.03,-217.23 496.1,-158.99 493.88,-137.1"/>
<polygon fill="#9a32cd" stroke="#9a32cd" points="501.63,-247.8 506.12,-257.4 508.59,-247.1 501.63,-247.8"/>
<text text-anchor="middle" x="529" y="-209" font-family="Helvetica,sans-Serif" font-size="10.00"> blockread</text>
<text text-anchor="middle" x="529" y="-198" font-family="Helvetica,sans-Serif" font-size="10.00">blockwrite</text>
</g>
<!-- Node10 -->
<g id="node10" class="node">
<title>Node10</title>
<g id="a_node10"><a xlink:title=" ">
<polygon fill="none" stroke="#bfbfbf" points="589,-257.5 589,-276.5 635,-276.5 635,-257.5 589,-257.5"/>
<text text-anchor="middle" x="612" y="-264.5" font-family="Helvetica,sans-Serif" font-size="10.00">void *</text>
</a>
</g>
</g>
<!-- Node10&#45;&gt;Node1 -->
<g id="edge15" class="edge">
<title>Node10&#45;&gt;Node1</title>
<path fill="none" stroke="#9a32cd" stroke-dasharray="5,2" d="M624.85,-248.67C626.56,-245.58 628.05,-242.3 629,-239 646.63,-177.89 633.22,-150.84 595,-100 568.87,-65.25 527.24,-34.24 506.16,-19.72"/>
<polygon fill="#9a32cd" stroke="#9a32cd" points="621.87,-246.83 619.38,-257.13 627.75,-250.63 621.87,-246.83"/>
<text text-anchor="middle" x="661" y="-125" font-family="Helvetica,sans-Serif" font-size="10.00"> cache_block</text>
</g>
<!-- Node10&#45;&gt;Node6 -->
<g id="edge12" class="edge">
<title>Node10&#45;&gt;Node6</title>
<path fill="none" stroke="#9a32cd" stroke-dasharray="5,2" d="M592.61,-250.39C589.08,-246.91 585.68,-243.05 583,-239 565.77,-212.98 578.21,-197.6 559,-173 546.49,-156.99 526.59,-144.69 511.9,-137.13"/>
<polygon fill="#9a32cd" stroke="#9a32cd" points="590.52,-253.21 600.29,-257.3 595.2,-248.01 590.52,-253.21"/>
<text text-anchor="middle" x="606" y="-203.5" font-family="Helvetica,sans-Serif" font-size="10.00"> opaque2</text>
</g>
<!-- Node11 -->
<g id="node11" class="node">
<title>Node11</title>
<g id="a_node11"><a xlink:title=" ">
<polygon fill="none" stroke="#bfbfbf" points="725.5,-118 725.5,-137 770.5,-137 770.5,-118 725.5,-118"/>
<text text-anchor="middle" x="748" y="-125" font-family="Helvetica,sans-Serif" font-size="10.00">size_t</text>
</a>
</g>
</g>
<!-- Node11&#45;&gt;Node1 -->
<g id="edge13" class="edge">
<title>Node11&#45;&gt;Node1</title>
<path fill="none" stroke="#9a32cd" stroke-dasharray="5,2" d="M736.1,-109.85C720.45,-89.35 690.93,-55.12 657,-38 608.95,-13.76 543.87,-10.51 512.08,-10.53"/>
<polygon fill="#9a32cd" stroke="#9a32cd" points="733.34,-112.01 742.1,-117.96 738.96,-107.84 733.34,-112.01"/>
<text text-anchor="middle" x="754" y="-57.5" font-family="Helvetica,sans-Serif" font-size="10.00"> cache_block_size</text>
</g>
<!-- Node12 -->
<g id="node12" class="node">
<title>Node12</title>
<g id="a_node12"><a xlink:title=" ">
<polygon fill="none" stroke="#bfbfbf" points="811,-118 811,-137 861,-137 861,-118 811,-118"/>
<text text-anchor="middle" x="836" y="-125" font-family="Helvetica,sans-Serif" font-size="10.00">uint8_t</text>
</a>
</g>
</g>
<!-- Node12&#45;&gt;Node1 -->
<g id="edge14" class="edge">
<title>Node12&#45;&gt;Node1</title>
<path fill="none" stroke="#9a32cd" stroke-dasharray="5,2" d="M834.49,-107.87C831.74,-87.18 823.96,-54.54 802,-38 778.83,-20.54 575.7,-13.34 512.01,-11.5"/>
<polygon fill="#9a32cd" stroke="#9a32cd" points="831.03,-108.38 835.56,-117.95 837.99,-107.64 831.03,-108.38"/>
<text text-anchor="middle" x="855.5" y="-74" font-family="Helvetica,sans-Serif" font-size="10.00"> l1_all_free</text>
<text text-anchor="middle" x="855.5" y="-63" font-family="Helvetica,sans-Serif" font-size="10.00">l1_not_full</text>
<text text-anchor="middle" x="855.5" y="-52" font-family="Helvetica,sans-Serif" font-size="10.00">l2_all_free</text>
<text text-anchor="middle" x="855.5" y="-41" font-family="Helvetica,sans-Serif" font-size="10.00">l2_not_full</text>
</g>
</g>
</svg>
