<?xml version="1.0" encoding="UTF-8" standalone="no"?>
<!DOCTYPE svg PUBLIC "-//W3C//DTD SVG 1.1//EN"
 "http://www.w3.org/Graphics/SVG/1.1/DTD/svg11.dtd">
<!-- Generated by graphviz version 2.43.0 (0)
 -->
<!-- Title: proc_id_t Pages: 1 -->
<svg width="912pt" height="1287pt"
 viewBox="0.00 0.00 912.00 1286.98" xmlns="http://www.w3.org/2000/svg" xmlns:xlink="http://www.w3.org/1999/xlink">
<g id="graph0" class="graph" transform="scale(1 1) rotate(0) translate(4 1282.98)">
<title>proc_id_t</title>
<!-- Node1 -->
<g id="node1" class="node">
<title>Node1</title>
<g id="a_node1"><a xlink:title="Process identifier struct. Used to identify processes by ID in the hash map only, contains the id and...">
<polygon fill="#bfbfbf" stroke="black" points="843,-749.48 843,-768.48 904,-768.48 904,-749.48 843,-749.48"/>
<text text-anchor="middle" x="873.5" y="-756.48" font-family="Helvetica,sans-Serif" font-size="10.00">proc_id_t</text>
</a>
</g>
</g>
<!-- Node2 -->
<g id="node2" class="node">
<title>Node2</title>
<g id="a_node2"><a xlink:href="structprocess__t.html" target="_top" xlink:title=" ">
<polygon fill="none" stroke="black" points="719,-1100.48 719,-1119.48 782,-1119.48 782,-1100.48 719,-1100.48"/>
<text text-anchor="middle" x="750.5" y="-1107.48" font-family="Helvetica,sans-Serif" font-size="10.00">process_t</text>
</a>
</g>
</g>
<!-- Node2&#45;&gt;Node1 -->
<g id="edge1" class="edge">
<title>Node2&#45;&gt;Node1</title>
<path fill="none" stroke="#9a32cd" stroke-dasharray="5,2" d="M758.26,-1090.38C780.8,-1024.99 852.92,-815.77 869.21,-768.52"/>
<polygon fill="#9a32cd" stroke="#9a32cd" points="754.81,-1089.63 754.86,-1100.23 761.43,-1091.91 754.81,-1089.63"/>
<text text-anchor="middle" x="812.5" y="-967.98" font-family="Helvetica,sans-Serif" font-size="10.00"> proc</text>
</g>
<!-- Node2&#45;&gt;Node2 -->
<g id="edge2" class="edge">
<title>Node2&#45;&gt;Node2</title>
<path fill="none" stroke="#9a32cd" stroke-dasharray="5,2" d="M739.08,-1129.75C739.98,-1134.48 743.78,-1137.98 750.5,-1137.98 761.52,-1137.98 764.7,-1128.55 760.06,-1119.74"/>
<polygon fill="#9a32cd" stroke="#9a32cd" points="742.56,-1130.21 740.94,-1119.74 735.67,-1128.93 742.56,-1130.21"/>
<text text-anchor="middle" x="750.5" y="-1151.98" font-family="Helvetica,sans-Serif" font-size="10.00"> next</text>
<text text-anchor="middle" x="750.5" y="-1140.98" font-family="Helvetica,sans-Serif" font-size="10.00">prev</text>
</g>
<!-- Node3 -->
<g id="node3" class="node">
<title>Node3</title>
<g id="a_node3"><a xlink:title=" ">
<polygon fill="none" stroke="#bfbfbf" points="553,-1259.48 553,-1278.48 646,-1278.48 646,-1259.48 553,-1259.48"/>
<text text-anchor="middle" x="599.5" y="-1266.48" font-family="Helvetica,sans-Serif" font-size="10.00">process_state_t</text>
</a>
</g>
</g>
<!-- Node3&#45;&gt;Node2 -->
<g id="edge3" class="edge">
<title>Node3&#45;&gt;Node2</title>
<path fill="none" stroke="#9a32cd" stroke-dasharray="5,2" d="M656.08,-1265.64C672.15,-1262.23 688.66,-1256.03 701,-1244.98 739.22,-1210.76 747.34,-1144.2 749.05,-1119.5"/>
<polygon fill="#9a32cd" stroke="#9a32cd" points="655.39,-1262.21 646.17,-1267.43 656.63,-1269.1 655.39,-1262.21"/>
<text text-anchor="middle" x="682.5" y="-1265.98" font-family="Helvetica,sans-Serif" font-size="10.00"> state</text>
</g>
<!-- Node4 -->
<g id="node4" class="node">
<title>Node4</title>
<g id="a_node4"><a xlink:title=" ">
<polygon fill="none" stroke="#bfbfbf" points="112.5,-914.48 112.5,-933.48 168.5,-933.48 168.5,-914.48 112.5,-914.48"/>
<text text-anchor="middle" x="140.5" y="-921.48" font-family="Helvetica,sans-Serif" font-size="10.00">uint64_t</text>
</a>
</g>
</g>
<!-- Node4&#45;&gt;Node2 -->
<g id="edge4" class="edge">
<title>Node4&#45;&gt;Node2</title>
<path fill="none" stroke="#9a32cd" stroke-dasharray="5,2" d="M158.42,-941.23C193.67,-977.09 272.36,-1056.64 280,-1059.98 331.99,-1082.68 478.62,-1065.69 535,-1071.98 600.96,-1079.35 677.29,-1094.47 718.78,-1103.26"/>
<polygon fill="#9a32cd" stroke="#9a32cd" points="160.72,-938.58 151.21,-933.9 155.72,-943.49 160.72,-938.58"/>
<text text-anchor="middle" x="476" y="-1085.98" font-family="Helvetica,sans-Serif" font-size="10.00"> size</text>
<text text-anchor="middle" x="476" y="-1074.98" font-family="Helvetica,sans-Serif" font-size="10.00">start_time</text>
</g>
<!-- Node9 -->
<g id="node9" class="node">
<title>Node9</title>
<g id="a_node9"><a xlink:href="structbasic__ctx.html" target="_top" xlink:title="BASIC program context. Every instance of a BASIC program has one of these,* also certain structures s...">
<polygon fill="none" stroke="black" points="568.5,-613.48 568.5,-632.48 630.5,-632.48 630.5,-613.48 568.5,-613.48"/>
<text text-anchor="middle" x="599.5" y="-620.48" font-family="Helvetica,sans-Serif" font-size="10.00">basic_ctx</text>
</a>
</g>
</g>
<!-- Node4&#45;&gt;Node9 -->
<g id="edge26" class="edge">
<title>Node4&#45;&gt;Node9</title>
<path fill="none" stroke="#9a32cd" stroke-dasharray="5,2" d="M178.4,-935.57C206.06,-943.7 245.01,-953.98 280,-958.98 392.21,-975.02 447.82,-1036.43 535,-963.98 587.8,-920.11 596.92,-683.9 598.28,-632.75"/>
<polygon fill="#9a32cd" stroke="#9a32cd" points="179.33,-932.2 168.75,-932.69 177.33,-938.9 179.33,-932.2"/>
<text text-anchor="middle" x="339.5" y="-1047.98" font-family="Helvetica,sans-Serif" font-size="10.00"> call_stack</text>
<text text-anchor="middle" x="339.5" y="-1036.98" font-family="Helvetica,sans-Serif" font-size="10.00">call_stack_ptr</text>
<text text-anchor="middle" x="339.5" y="-1025.98" font-family="Helvetica,sans-Serif" font-size="10.00">for_stack_ptr</text>
<text text-anchor="middle" x="339.5" y="-1014.98" font-family="Helvetica,sans-Serif" font-size="10.00">if_nest_level</text>
<text text-anchor="middle" x="339.5" y="-1003.98" font-family="Helvetica,sans-Serif" font-size="10.00">repeat_stack</text>
<text text-anchor="middle" x="339.5" y="-992.98" font-family="Helvetica,sans-Serif" font-size="10.00">repeat_stack_ptr</text>
</g>
<!-- Node11 -->
<g id="node11" class="node">
<title>Node11</title>
<g id="a_node11"><a xlink:href="structub__var__double__array.html" target="_top" xlink:title="An array of real (double)">
<polygon fill="none" stroke="black" points="280,-673.48 280,-692.48 399,-692.48 399,-673.48 280,-673.48"/>
<text text-anchor="middle" x="339.5" y="-680.48" font-family="Helvetica,sans-Serif" font-size="10.00">ub_var_double_array</text>
</a>
</g>
</g>
<!-- Node4&#45;&gt;Node11 -->
<g id="edge15" class="edge">
<title>Node4&#45;&gt;Node11</title>
<path fill="none" stroke="#9a32cd" stroke-dasharray="5,2" d="M166.37,-908.39C169.78,-905.78 173.09,-902.94 176,-899.98 186.1,-889.68 183.89,-883.26 194,-872.98 219.76,-846.79 240.18,-855.54 262,-825.98 277.78,-804.61 268.41,-792.88 280,-768.98 294.42,-739.25 318.12,-708.08 330.46,-692.72"/>
<polygon fill="#9a32cd" stroke="#9a32cd" points="164.06,-905.74 157.93,-914.38 168.11,-911.45 164.06,-905.74"/>
<text text-anchor="middle" x="228" y="-875.98" font-family="Helvetica,sans-Serif" font-size="10.00"> itemcount</text>
</g>
<!-- Node13 -->
<g id="node13" class="node">
<title>Node13</title>
<g id="a_node13"><a xlink:href="structub__var__string__array.html" target="_top" xlink:title="An array of strings.">
<polygon fill="none" stroke="black" points="283,-778.48 283,-797.48 396,-797.48 396,-778.48 283,-778.48"/>
<text text-anchor="middle" x="339.5" y="-785.48" font-family="Helvetica,sans-Serif" font-size="10.00">ub_var_string_array</text>
</a>
</g>
</g>
<!-- Node4&#45;&gt;Node13 -->
<g id="edge19" class="edge">
<title>Node4&#45;&gt;Node13</title>
<path fill="none" stroke="#9a32cd" stroke-dasharray="5,2" d="M178.8,-921.41C205.04,-917.74 239.39,-908.95 262,-887.98 278.4,-872.77 267.37,-859.44 280,-840.98 292.08,-823.34 311.16,-807.52 324.22,-797.85"/>
<polygon fill="#9a32cd" stroke="#9a32cd" points="178.33,-917.94 168.82,-922.61 179.17,-924.89 178.33,-917.94"/>
<text text-anchor="middle" x="228" y="-920.98" font-family="Helvetica,sans-Serif" font-size="10.00"> itemcount</text>
</g>
<!-- Node21 -->
<g id="node21" class="node">
<title>Node21</title>
<g id="a_node21"><a xlink:href="structub__var__int__array.html" target="_top" xlink:title="An array of integers.">
<polygon fill="none" stroke="black" points="290.5,-606.48 290.5,-625.48 388.5,-625.48 388.5,-606.48 290.5,-606.48"/>
<text text-anchor="middle" x="339.5" y="-613.48" font-family="Helvetica,sans-Serif" font-size="10.00">ub_var_int_array</text>
</a>
</g>
</g>
<!-- Node4&#45;&gt;Node21 -->
<g id="edge40" class="edge">
<title>Node4&#45;&gt;Node21</title>
<path fill="none" stroke="#9a32cd" stroke-dasharray="5,2" d="M168.74,-908.21C171.5,-905.74 174.01,-903 176,-899.98 197.75,-867.03 167.44,-842.2 194,-812.98 215.27,-789.57 241.49,-816.06 262,-791.98 299.25,-748.25 251.87,-714.07 280,-663.98 289.46,-647.14 307.34,-633.82 320.86,-625.52"/>
<polygon fill="#9a32cd" stroke="#9a32cd" points="166.41,-905.59 160.56,-914.43 170.64,-911.16 166.41,-905.59"/>
<text text-anchor="middle" x="228" y="-815.98" font-family="Helvetica,sans-Serif" font-size="10.00"> itemcount</text>
</g>
<!-- Node5 -->
<g id="node5" class="node">
<title>Node5</title>
<g id="a_node5"><a xlink:title=" ">
<polygon fill="none" stroke="#bfbfbf" points="0,-591.48 0,-610.48 38,-610.48 38,-591.48 0,-591.48"/>
<text text-anchor="middle" x="19" y="-598.48" font-family="Helvetica,sans-Serif" font-size="10.00">char</text>
</a>
</g>
</g>
<!-- Node5&#45;&gt;Node2 -->
<g id="edge5" class="edge">
<title>Node5&#45;&gt;Node2</title>
<path fill="none" stroke="#9a32cd" stroke-dasharray="5,2" d="M20.71,-620.78C23.04,-678.71 31.7,-852.78 56,-994.98 70.98,-1082.64 64.92,-1109.6 105,-1188.98 115.89,-1210.55 115.34,-1230.98 139.5,-1230.98 139.5,-1230.98 139.5,-1230.98 600.5,-1230.98 670.81,-1230.98 726.44,-1148.78 743.82,-1119.88"/>
<polygon fill="#9a32cd" stroke="#9a32cd" points="24.2,-620.36 20.32,-610.51 17.21,-620.63 24.2,-620.36"/>
<text text-anchor="middle" x="339.5" y="-1255.98" font-family="Helvetica,sans-Serif" font-size="10.00"> csd</text>
<text text-anchor="middle" x="339.5" y="-1244.98" font-family="Helvetica,sans-Serif" font-size="10.00">directory</text>
<text text-anchor="middle" x="339.5" y="-1233.98" font-family="Helvetica,sans-Serif" font-size="10.00">name</text>
</g>
<!-- Node6 -->
<g id="node6" class="node">
<title>Node6</title>
<g id="a_node6"><a xlink:href="structconsole.html" target="_top" xlink:title=" ">
<polygon fill="none" stroke="black" points="312.5,-1110.48 312.5,-1129.48 366.5,-1129.48 366.5,-1110.48 312.5,-1110.48"/>
<text text-anchor="middle" x="339.5" y="-1117.48" font-family="Helvetica,sans-Serif" font-size="10.00">console</text>
</a>
</g>
</g>
<!-- Node5&#45;&gt;Node6 -->
<g id="edge7" class="edge">
<title>Node5&#45;&gt;Node6</title>
<path fill="none" stroke="#9a32cd" stroke-dasharray="5,2" d="M20.9,-620.57C24.92,-699.68 43.85,-994.49 105,-1059.98 133.28,-1090.27 257.5,-1109.6 312.33,-1116.8"/>
<polygon fill="#9a32cd" stroke="#9a32cd" points="24.39,-620.33 20.41,-610.52 17.4,-620.67 24.39,-620.33"/>
<text text-anchor="middle" x="140.5" y="-1115.98" font-family="Helvetica,sans-Serif" font-size="10.00"> buffer</text>
<text text-anchor="middle" x="140.5" y="-1104.98" font-family="Helvetica,sans-Serif" font-size="10.00">dirty</text>
<text text-anchor="middle" x="140.5" y="-1093.98" font-family="Helvetica,sans-Serif" font-size="10.00">internalbuffer</text>
</g>
<!-- Node5&#45;&gt;Node9 -->
<g id="edge27" class="edge">
<title>Node5&#45;&gt;Node9</title>
<path fill="none" stroke="#9a32cd" stroke-dasharray="5,2" d="M34.54,-618.58C50.13,-636.29 76.51,-663.04 105,-677.98 176.96,-715.74 199.61,-719.08 280,-730.98 394.51,-747.94 435.88,-737.76 535,-677.98 556.48,-665.03 577.76,-644.65 589.41,-632.68"/>
<polygon fill="#9a32cd" stroke="#9a32cd" points="36.95,-616.03 27.79,-610.71 31.64,-620.58 36.95,-616.03"/>
<text text-anchor="middle" x="228" y="-774.98" font-family="Helvetica,sans-Serif" font-size="10.00"> item_begin</text>
<text text-anchor="middle" x="228" y="-763.98" font-family="Helvetica,sans-Serif" font-size="10.00">nextptr</text>
<text text-anchor="middle" x="228" y="-752.98" font-family="Helvetica,sans-Serif" font-size="10.00">program_ptr</text>
<text text-anchor="middle" x="228" y="-741.98" font-family="Helvetica,sans-Serif" font-size="10.00">ptr</text>
<text text-anchor="middle" x="228" y="-730.98" font-family="Helvetica,sans-Serif" font-size="10.00">string</text>
</g>
<!-- Node5&#45;&gt;Node11 -->
<g id="edge16" class="edge">
<title>Node5&#45;&gt;Node11</title>
<path fill="none" stroke="#9a32cd" stroke-dasharray="5,2" d="M47.29,-614.19C50.21,-615.51 53.16,-616.8 56,-617.98 116.23,-643.05 130.42,-653.39 194,-667.98 221.9,-674.38 253.47,-678.06 279.96,-680.16"/>
<polygon fill="#9a32cd" stroke="#9a32cd" points="48.71,-611 38.17,-609.96 45.77,-617.35 48.71,-611"/>
<text text-anchor="middle" x="140.5" y="-665.98" font-family="Helvetica,sans-Serif" font-size="10.00"> varname</text>
</g>
<!-- Node5&#45;&gt;Node13 -->
<g id="edge20" class="edge">
<title>Node5&#45;&gt;Node13</title>
<path fill="none" stroke="#9a32cd" stroke-dasharray="5,2" d="M20.74,-620.57C22.7,-650.64 29.87,-708.99 56,-749.98 98.16,-816.12 119.96,-834.09 194,-859.98 222.53,-869.96 234.24,-871.92 262,-859.98 272.69,-855.39 271.68,-849.11 280,-840.98 296.07,-825.27 315.56,-807.94 327.49,-797.51"/>
<polygon fill="#9a32cd" stroke="#9a32cd" points="24.23,-620.33 20.21,-610.52 17.24,-620.69 24.23,-620.33"/>
<text text-anchor="middle" x="140.5" y="-866.98" font-family="Helvetica,sans-Serif" font-size="10.00"> values</text>
<text text-anchor="middle" x="140.5" y="-855.98" font-family="Helvetica,sans-Serif" font-size="10.00">varname</text>
</g>
<!-- Node14 -->
<g id="node14" class="node">
<title>Node14</title>
<g id="a_node14"><a xlink:href="structub__var__int.html" target="_top" xlink:title="An integer variable.">
<polygon fill="none" stroke="black" points="305.5,-44.48 305.5,-63.48 373.5,-63.48 373.5,-44.48 305.5,-44.48"/>
<text text-anchor="middle" x="339.5" y="-51.48" font-family="Helvetica,sans-Serif" font-size="10.00">ub_var_int</text>
</a>
</g>
</g>
<!-- Node5&#45;&gt;Node14 -->
<g id="edge23" class="edge">
<title>Node5&#45;&gt;Node14</title>
<path fill="none" stroke="#9a32cd" stroke-dasharray="5,2" d="M20.25,-581.15C21.41,-506.99 27.48,-246.22 56,-168.98 83.66,-94.09 116.51,-73.19 194,-53.98 231.26,-44.75 275.59,-46.55 305.24,-49.5"/>
<polygon fill="#9a32cd" stroke="#9a32cd" points="16.75,-581.35 20.11,-591.4 23.75,-581.45 16.75,-581.35"/>
<text text-anchor="middle" x="140.5" y="-93.98" font-family="Helvetica,sans-Serif" font-size="10.00"> varname</text>
</g>
<!-- Node18 -->
<g id="node18" class="node">
<title>Node18</title>
<g id="a_node18"><a xlink:href="structub__var__double.html" target="_top" xlink:title="A real (double) variable.">
<polygon fill="none" stroke="black" points="295.5,-387.48 295.5,-406.48 383.5,-406.48 383.5,-387.48 295.5,-387.48"/>
<text text-anchor="middle" x="339.5" y="-394.48" font-family="Helvetica,sans-Serif" font-size="10.00">ub_var_double</text>
</a>
</g>
</g>
<!-- Node5&#45;&gt;Node18 -->
<g id="edge34" class="edge">
<title>Node5&#45;&gt;Node18</title>
<path fill="none" stroke="#9a32cd" stroke-dasharray="5,2" d="M22.45,-581.11C28.56,-540.3 48.3,-446.68 105,-396.98 158.08,-350.45 192.23,-362.29 262,-372.98 266.88,-373.73 289.89,-381.03 309.41,-387.39"/>
<polygon fill="#9a32cd" stroke="#9a32cd" points="18.97,-580.76 21.07,-591.14 25.9,-581.72 18.97,-580.76"/>
<text text-anchor="middle" x="140.5" y="-399.98" font-family="Helvetica,sans-Serif" font-size="10.00"> varname</text>
</g>
<!-- Node5&#45;&gt;Node21 -->
<g id="edge41" class="edge">
<title>Node5&#45;&gt;Node21</title>
<path fill="none" stroke="#9a32cd" stroke-dasharray="5,2" d="M48.33,-602.32C102.87,-604.88 222.96,-610.54 290.3,-613.71"/>
<polygon fill="#9a32cd" stroke="#9a32cd" points="48.19,-598.81 38.04,-601.83 47.86,-605.8 48.19,-598.81"/>
<text text-anchor="middle" x="140.5" y="-611.98" font-family="Helvetica,sans-Serif" font-size="10.00"> varname</text>
</g>
<!-- Node22 -->
<g id="node22" class="node">
<title>Node22</title>
<g id="a_node22"><a xlink:href="structub__proc__fn__def.html" target="_top" xlink:title="Procedure or function definition Each has a name, a type, a starting line and a parameter list.">
<polygon fill="none" stroke="black" points="294,-454.48 294,-473.48 385,-473.48 385,-454.48 294,-454.48"/>
<text text-anchor="middle" x="339.5" y="-461.48" font-family="Helvetica,sans-Serif" font-size="10.00">ub_proc_fn_def</text>
</a>
</g>
</g>
<!-- Node5&#45;&gt;Node22 -->
<g id="edge47" class="edge">
<title>Node5&#45;&gt;Node22</title>
<path fill="none" stroke="#9a32cd" stroke-dasharray="5,2" d="M48.27,-596.29C94.95,-587.72 190.16,-566.74 262,-527.98 289.43,-513.18 316.11,-487.55 329.53,-473.64"/>
<polygon fill="#9a32cd" stroke="#9a32cd" points="47.5,-592.87 38.27,-598.07 48.73,-599.76 47.5,-592.87"/>
<text text-anchor="middle" x="140.5" y="-586.98" font-family="Helvetica,sans-Serif" font-size="10.00"> name</text>
</g>
<!-- Node24 -->
<g id="node24" class="node">
<title>Node24</title>
<g id="a_node24"><a xlink:href="structub__param.html" target="_top" xlink:title="FN/PROC parameter.">
<polygon fill="none" stroke="black" points="108,-455.48 108,-474.48 173,-474.48 173,-455.48 108,-455.48"/>
<text text-anchor="middle" x="140.5" y="-462.48" font-family="Helvetica,sans-Serif" font-size="10.00">ub_param</text>
</a>
</g>
</g>
<!-- Node5&#45;&gt;Node24 -->
<g id="edge51" class="edge">
<title>Node5&#45;&gt;Node24</title>
<path fill="none" stroke="#9a32cd" stroke-dasharray="5,2" d="M32.86,-582.82C39.52,-573.68 47.93,-562.53 56,-552.98 81.14,-523.21 113.55,-490.51 129.6,-474.66"/>
<polygon fill="#9a32cd" stroke="#9a32cd" points="29.85,-581 26.85,-591.17 35.53,-585.09 29.85,-581"/>
<text text-anchor="middle" x="71.5" y="-555.98" font-family="Helvetica,sans-Serif" font-size="10.00"> name</text>
</g>
<!-- Node25 -->
<g id="node25" class="node">
<title>Node25</title>
<g id="a_node25"><a xlink:href="structub__var__string.html" target="_top" xlink:title="A string variable.">
<polygon fill="none" stroke="black" points="298,-282.48 298,-301.48 381,-301.48 381,-282.48 298,-282.48"/>
<text text-anchor="middle" x="339.5" y="-289.48" font-family="Helvetica,sans-Serif" font-size="10.00">ub_var_string</text>
</a>
</g>
</g>
<!-- Node5&#45;&gt;Node25 -->
<g id="edge54" class="edge">
<title>Node5&#45;&gt;Node25</title>
<path fill="none" stroke="#9a32cd" stroke-dasharray="5,2" d="M21.23,-580.75C23.95,-545.34 32.24,-470.35 56,-411.98 70.87,-375.45 71.5,-358.81 105,-337.98 164.73,-300.84 193.47,-333.82 262,-317.98 279.9,-313.84 299.52,-307.13 314.4,-301.56"/>
<polygon fill="#9a32cd" stroke="#9a32cd" points="17.71,-580.94 20.51,-591.16 24.69,-581.43 17.71,-580.94"/>
<text text-anchor="middle" x="140.5" y="-351.98" font-family="Helvetica,sans-Serif" font-size="10.00"> value</text>
<text text-anchor="middle" x="140.5" y="-340.98" font-family="Helvetica,sans-Serif" font-size="10.00">varname</text>
</g>
<!-- Node27 -->
<g id="node27" class="node">
<title>Node27</title>
<g id="a_node27"><a xlink:href="structfor__state.html" target="_top" xlink:title="State for a FOR...NEXT loop.">
<polygon fill="none" stroke="black" points="309.5,-175.48 309.5,-194.48 369.5,-194.48 369.5,-175.48 309.5,-175.48"/>
<text text-anchor="middle" x="339.5" y="-182.48" font-family="Helvetica,sans-Serif" font-size="10.00">for_state</text>
</a>
</g>
</g>
<!-- Node5&#45;&gt;Node27 -->
<g id="edge59" class="edge">
<title>Node5&#45;&gt;Node27</title>
<path fill="none" stroke="#9a32cd" stroke-dasharray="5,2" d="M20.58,-581.24C23.37,-501.58 38.16,-205.23 105,-146.98 157.69,-101.06 197.05,-112.16 262,-137.98 272.23,-142.05 271.01,-148.63 280,-154.98 291.28,-162.95 304.96,-170.09 316.26,-175.4"/>
<polygon fill="#9a32cd" stroke="#9a32cd" points="17.08,-581.26 20.25,-591.37 24.08,-581.49 17.08,-581.26"/>
<text text-anchor="middle" x="140.5" y="-149.98" font-family="Helvetica,sans-Serif" font-size="10.00"> for_variable</text>
</g>
<!-- Node6&#45;&gt;Node2 -->
<g id="edge6" class="edge">
<title>Node6&#45;&gt;Node2</title>
<path fill="none" stroke="#9a32cd" stroke-dasharray="5,2" d="M376.77,-1126.85C389.45,-1128.94 403.81,-1130.95 417,-1131.98 528.03,-1140.64 660.09,-1123.84 718.77,-1114.97"/>
<polygon fill="#9a32cd" stroke="#9a32cd" points="377.03,-1123.35 366.58,-1125.1 375.84,-1130.25 377.03,-1123.35"/>
<text text-anchor="middle" x="599.5" y="-1134.98" font-family="Helvetica,sans-Serif" font-size="10.00"> cons</text>
</g>
<!-- Node6&#45;&gt;Node9 -->
<g id="edge28" class="edge">
<title>Node6&#45;&gt;Node9</title>
<path fill="none" stroke="#9a32cd" stroke-dasharray="5,2" d="M376.6,-1120.98C426.6,-1121.55 513.25,-1119.3 535,-1097.98 604.08,-1030.29 600.06,-693.76 598.74,-632.54"/>
<polygon fill="#9a32cd" stroke="#9a32cd" points="376.58,-1117.48 366.52,-1120.83 376.47,-1124.48 376.58,-1117.48"/>
<text text-anchor="middle" x="476" y="-1122.98" font-family="Helvetica,sans-Serif" font-size="10.00"> cons</text>
</g>
<!-- Node7 -->
<g id="node7" class="node">
<title>Node7</title>
<g id="a_node7"><a xlink:title=" ">
<polygon fill="none" stroke="#bfbfbf" points="118,-1031.48 118,-1050.48 163,-1050.48 163,-1031.48 118,-1031.48"/>
<text text-anchor="middle" x="140.5" y="-1038.48" font-family="Helvetica,sans-Serif" font-size="10.00">size_t</text>
</a>
</g>
</g>
<!-- Node7&#45;&gt;Node6 -->
<g id="edge8" class="edge">
<title>Node7&#45;&gt;Node6</title>
<path fill="none" stroke="#9a32cd" stroke-dasharray="5,2" d="M173.3,-1045.43C203.95,-1050.19 247.73,-1058.37 262,-1067.98 273.66,-1075.83 269.18,-1085.02 280,-1093.98 289.42,-1101.78 301.54,-1107.68 312.31,-1111.87"/>
<polygon fill="#9a32cd" stroke="#9a32cd" points="173.48,-1041.92 163.08,-1043.89 172.44,-1048.84 173.48,-1041.92"/>
<text text-anchor="middle" x="228" y="-1070.98" font-family="Helvetica,sans-Serif" font-size="10.00"> bufcnt</text>
</g>
<!-- Node7&#45;&gt;Node9 -->
<g id="edge31" class="edge">
<title>Node7&#45;&gt;Node9</title>
<path fill="none" stroke="#9a32cd" stroke-dasharray="5,2" d="M165.49,-1025.62C192.77,-1006.93 236.79,-972.88 262,-932.98 277.1,-909.09 259.53,-891.48 280,-871.98 364.45,-791.53 448.95,-888.71 535,-809.98 588.88,-760.69 597.06,-663.97 598.29,-632.86"/>
<polygon fill="#9a32cd" stroke="#9a32cd" points="163.29,-1022.88 156.93,-1031.35 167.18,-1028.69 163.29,-1022.88"/>
<text text-anchor="middle" x="339.5" y="-874.98" font-family="Helvetica,sans-Serif" font-size="10.00"> oldlen</text>
</g>
<!-- Node8 -->
<g id="node8" class="node">
<title>Node8</title>
<g id="a_node8"><a xlink:title=" ">
<polygon fill="none" stroke="#bfbfbf" points="115.5,-1160.48 115.5,-1179.48 165.5,-1179.48 165.5,-1160.48 115.5,-1160.48"/>
<text text-anchor="middle" x="140.5" y="-1167.48" font-family="Helvetica,sans-Serif" font-size="10.00">uint8_t</text>
</a>
</g>
</g>
<!-- Node8&#45;&gt;Node2 -->
<g id="edge63" class="edge">
<title>Node8&#45;&gt;Node2</title>
<path fill="none" stroke="#9a32cd" stroke-dasharray="5,2" d="M175.81,-1171.01C257.71,-1172.9 470.89,-1174.49 646,-1146.98 670.92,-1143.07 677.27,-1141.54 701,-1132.98 711.34,-1129.25 722.46,-1124.07 731.43,-1119.58"/>
<polygon fill="#9a32cd" stroke="#9a32cd" points="175.67,-1167.5 165.58,-1170.75 175.49,-1174.5 175.67,-1167.5"/>
<text text-anchor="middle" x="476" y="-1170.98" font-family="Helvetica,sans-Serif" font-size="10.00"> cpu</text>
</g>
<!-- Node8&#45;&gt;Node6 -->
<g id="edge9" class="edge">
<title>Node8&#45;&gt;Node6</title>
<path fill="none" stroke="#9a32cd" stroke-dasharray="5,2" d="M156.82,-1152.91C166.45,-1143.43 179.74,-1132.47 194,-1126.98 233.15,-1111.92 282.71,-1113.53 312.44,-1116.47"/>
<polygon fill="#9a32cd" stroke="#9a32cd" points="154.05,-1150.75 149.64,-1160.38 159.09,-1155.6 154.05,-1150.75"/>
<text text-anchor="middle" x="228" y="-1162.98" font-family="Helvetica,sans-Serif" font-size="10.00"> attributes</text>
<text text-anchor="middle" x="228" y="-1151.98" font-family="Helvetica,sans-Serif" font-size="10.00">last</text>
<text text-anchor="middle" x="228" y="-1140.98" font-family="Helvetica,sans-Serif" font-size="10.00">x</text>
<text text-anchor="middle" x="228" y="-1129.98" font-family="Helvetica,sans-Serif" font-size="10.00">y</text>
</g>
<!-- Node9&#45;&gt;Node2 -->
<g id="edge10" class="edge">
<title>Node9&#45;&gt;Node2</title>
<path fill="none" stroke="#9a32cd" stroke-dasharray="5,2" d="M603.94,-642.62C612.15,-688.12 634.42,-804.06 664,-897.98 689.28,-978.23 731.32,-1070.95 745.03,-1100.46"/>
<polygon fill="#9a32cd" stroke="#9a32cd" points="607.36,-641.86 602.16,-632.63 600.47,-643.08 607.36,-641.86"/>
<text text-anchor="middle" x="682.5" y="-999.98" font-family="Helvetica,sans-Serif" font-size="10.00"> code</text>
</g>
<!-- Node10 -->
<g id="node10" class="node">
<title>Node10</title>
<g id="a_node10"><a xlink:title=" ">
<polygon fill="none" stroke="#bfbfbf" points="294.5,-6.48 294.5,-25.48 384.5,-25.48 384.5,-6.48 294.5,-6.48"/>
<text text-anchor="middle" x="339.5" y="-13.48" font-family="Helvetica,sans-Serif" font-size="10.00">ub_return_type</text>
</a>
</g>
</g>
<!-- Node10&#45;&gt;Node9 -->
<g id="edge11" class="edge">
<title>Node10&#45;&gt;Node9</title>
<path fill="none" stroke="#9a32cd" stroke-dasharray="5,2" d="M388.68,-4.62C433.42,2.77 498.45,4.85 535,-33.98 578.43,-80.13 517.04,-551.81 553,-603.98 556.69,-609.34 562.2,-613.19 568.12,-615.96"/>
<polygon fill="#9a32cd" stroke="#9a32cd" points="387.84,-1.21 378.62,-6.42 389.08,-8.1 387.84,-1.21"/>
<text text-anchor="middle" x="476" y="-36.98" font-family="Helvetica,sans-Serif" font-size="10.00"> fn_type</text>
</g>
<!-- Node11&#45;&gt;Node9 -->
<g id="edge12" class="edge">
<title>Node11&#45;&gt;Node9</title>
<path fill="none" stroke="#9a32cd" stroke-dasharray="5,2" d="M391.21,-671.19C443.96,-658.92 524.79,-640.12 568.29,-630.01"/>
<polygon fill="#9a32cd" stroke="#9a32cd" points="390.33,-667.8 381.38,-673.47 391.91,-674.62 390.33,-667.8"/>
<text text-anchor="middle" x="476" y="-665.98" font-family="Helvetica,sans-Serif" font-size="10.00"> double_array_variables</text>
</g>
<!-- Node11&#45;&gt;Node11 -->
<g id="edge13" class="edge">
<title>Node11&#45;&gt;Node11</title>
<path fill="none" stroke="#9a32cd" stroke-dasharray="5,2" d="M319.13,-702.38C320.49,-707.3 327.28,-710.98 339.5,-710.98 359.05,-710.98 364.7,-701.55 356.45,-692.74"/>
<polygon fill="#9a32cd" stroke="#9a32cd" points="322.51,-703.33 322.55,-692.74 315.91,-701 322.51,-703.33"/>
<text text-anchor="middle" x="339.5" y="-713.98" font-family="Helvetica,sans-Serif" font-size="10.00"> next</text>
</g>
<!-- Node12 -->
<g id="node12" class="node">
<title>Node12</title>
<g id="a_node12"><a xlink:title=" ">
<polygon fill="none" stroke="#bfbfbf" points="115.5,-522.48 115.5,-541.48 165.5,-541.48 165.5,-522.48 115.5,-522.48"/>
<text text-anchor="middle" x="140.5" y="-529.48" font-family="Helvetica,sans-Serif" font-size="10.00">double</text>
</a>
</g>
</g>
<!-- Node12&#45;&gt;Node11 -->
<g id="edge14" class="edge">
<title>Node12&#45;&gt;Node11</title>
<path fill="none" stroke="#9a32cd" stroke-dasharray="5,2" d="M167.41,-547.76C170.52,-550.28 173.48,-553.04 176,-555.98 187.89,-569.88 182.69,-578.61 194,-592.98 224.65,-631.93 236.55,-640.13 280,-663.98 286.74,-667.68 294.32,-670.8 301.72,-673.38"/>
<polygon fill="#9a32cd" stroke="#9a32cd" points="169.18,-544.72 159.03,-541.68 165.07,-550.39 169.18,-544.72"/>
<text text-anchor="middle" x="228" y="-655.98" font-family="Helvetica,sans-Serif" font-size="10.00"> values</text>
</g>
<!-- Node12&#45;&gt;Node18 -->
<g id="edge33" class="edge">
<title>Node12&#45;&gt;Node18</title>
<path fill="none" stroke="#9a32cd" stroke-dasharray="5,2" d="M173.53,-516.04C174.42,-515.07 175.25,-514.06 176,-512.98 206.81,-468.72 153.14,-428.17 194,-392.98 227.28,-364.32 282.58,-376.71 314.25,-387.43"/>
<polygon fill="#9a32cd" stroke="#9a32cd" points="171.21,-513.42 165.69,-522.47 175.65,-518.83 171.21,-513.42"/>
<text text-anchor="middle" x="228" y="-395.98" font-family="Helvetica,sans-Serif" font-size="10.00"> value</text>
</g>
<!-- Node13&#45;&gt;Node9 -->
<g id="edge17" class="edge">
<title>Node13&#45;&gt;Node9</title>
<path fill="none" stroke="#9a32cd" stroke-dasharray="5,2" d="M406.21,-795.26C446.98,-796.31 498.39,-790.97 535,-763.98 579.95,-730.85 593.78,-658.47 597.38,-632.5"/>
<polygon fill="#9a32cd" stroke="#9a32cd" points="406.22,-791.76 396.09,-794.87 405.95,-798.76 406.22,-791.76"/>
<text text-anchor="middle" x="476" y="-797.98" font-family="Helvetica,sans-Serif" font-size="10.00"> string_array_variables</text>
</g>
<!-- Node13&#45;&gt;Node13 -->
<g id="edge18" class="edge">
<title>Node13&#45;&gt;Node13</title>
<path fill="none" stroke="#9a32cd" stroke-dasharray="5,2" d="M319.13,-807.38C320.49,-812.3 327.28,-815.98 339.5,-815.98 359.05,-815.98 364.7,-806.55 356.45,-797.74"/>
<polygon fill="#9a32cd" stroke="#9a32cd" points="322.51,-808.33 322.55,-797.74 315.91,-806 322.51,-808.33"/>
<text text-anchor="middle" x="339.5" y="-818.98" font-family="Helvetica,sans-Serif" font-size="10.00"> next</text>
</g>
<!-- Node14&#45;&gt;Node9 -->
<g id="edge21" class="edge">
<title>Node14&#45;&gt;Node9</title>
<path fill="none" stroke="#9a32cd" stroke-dasharray="5,2" d="M383.85,-48.78C429.12,-46.05 498.5,-50 535,-92.98 571.78,-136.29 520.68,-557.26 553,-603.98 556.7,-609.33 562.22,-613.18 568.14,-615.95"/>
<polygon fill="#9a32cd" stroke="#9a32cd" points="383.45,-45.3 373.74,-49.52 383.97,-52.28 383.45,-45.3"/>
<text text-anchor="middle" x="476" y="-106.98" font-family="Helvetica,sans-Serif" font-size="10.00"> int_variables</text>
<text text-anchor="middle" x="476" y="-95.98" font-family="Helvetica,sans-Serif" font-size="10.00">local_int_variables</text>
</g>
<!-- Node14&#45;&gt;Node14 -->
<g id="edge22" class="edge">
<title>Node14&#45;&gt;Node14</title>
<path fill="none" stroke="#9a32cd" stroke-dasharray="5,2" d="M319.13,-73.38C320.49,-78.3 327.28,-81.98 339.5,-81.98 359.05,-81.98 364.7,-72.55 356.45,-63.74"/>
<polygon fill="#9a32cd" stroke="#9a32cd" points="322.51,-74.33 322.55,-63.74 315.91,-72 322.51,-74.33"/>
<text text-anchor="middle" x="339.5" y="-84.98" font-family="Helvetica,sans-Serif" font-size="10.00"> next</text>
</g>
<!-- Node15 -->
<g id="node15" class="node">
<title>Node15</title>
<g id="a_node15"><a xlink:title=" ">
<polygon fill="none" stroke="#bfbfbf" points="115.5,-263.48 115.5,-282.48 165.5,-282.48 165.5,-263.48 115.5,-263.48"/>
<text text-anchor="middle" x="140.5" y="-270.48" font-family="Helvetica,sans-Serif" font-size="10.00">int64_t</text>
</a>
</g>
</g>
<!-- Node15&#45;&gt;Node9 -->
<g id="edge29" class="edge">
<title>Node15&#45;&gt;Node9</title>
<path fill="none" stroke="#9a32cd" stroke-dasharray="5,2" d="M176.13,-275.09C201.23,-275.2 235.3,-272.34 262,-258.98 272.4,-253.78 269.31,-244.58 280,-239.98 332.63,-217.34 499.12,-233.32 535,-277.98 580.44,-334.55 511.13,-544.73 553,-603.98 556.75,-609.29 562.29,-613.13 568.22,-615.89"/>
<polygon fill="#9a32cd" stroke="#9a32cd" points="176.04,-271.59 165.97,-274.88 175.89,-278.59 176.04,-271.59"/>
<text text-anchor="middle" x="339.5" y="-264.98" font-family="Helvetica,sans-Serif" font-size="10.00"> current_linenum</text>
<text text-anchor="middle" x="339.5" y="-253.98" font-family="Helvetica,sans-Serif" font-size="10.00">eval_linenum</text>
<text text-anchor="middle" x="339.5" y="-242.98" font-family="Helvetica,sans-Serif" font-size="10.00">highest_line</text>
</g>
<!-- Node15&#45;&gt;Node14 -->
<g id="edge24" class="edge">
<title>Node15&#45;&gt;Node14</title>
<path fill="none" stroke="#9a32cd" stroke-dasharray="5,2" d="M150.04,-253.92C164.85,-220.83 193.79,-156.24 194,-155.98 229.72,-112.61 288.21,-79.12 318.67,-63.55"/>
<polygon fill="#9a32cd" stroke="#9a32cd" points="146.67,-252.88 145.77,-263.43 153.06,-255.74 146.67,-252.88"/>
<text text-anchor="middle" x="228" y="-158.98" font-family="Helvetica,sans-Serif" font-size="10.00"> value</text>
</g>
<!-- Node15&#45;&gt;Node21 -->
<g id="edge42" class="edge">
<title>Node15&#45;&gt;Node21</title>
<path fill="none" stroke="#9a32cd" stroke-dasharray="5,2" d="M162.16,-289.59C167.49,-294.91 172.65,-301.19 176,-307.98 201.78,-360.3 156.23,-393.54 194,-437.98 214.48,-462.08 241.61,-434.8 262,-458.98 301.87,-506.27 240.47,-549.41 280,-596.98 283.21,-600.84 287.21,-603.93 291.6,-606.39"/>
<polygon fill="#9a32cd" stroke="#9a32cd" points="164.19,-286.7 154.44,-282.55 159.47,-291.87 164.19,-286.7"/>
<text text-anchor="middle" x="228" y="-461.98" font-family="Helvetica,sans-Serif" font-size="10.00"> values</text>
</g>
<!-- Node15&#45;&gt;Node22 -->
<g id="edge48" class="edge">
<title>Node15&#45;&gt;Node22</title>
<path fill="none" stroke="#9a32cd" stroke-dasharray="5,2" d="M161.95,-289.7C167.28,-295.02 172.49,-301.28 176,-307.98 196.11,-346.45 165.54,-371.2 194,-403.98 214.92,-428.07 234.9,-410.15 262,-426.98 271.61,-432.95 270.35,-439.07 280,-444.98 286.19,-448.78 293.22,-451.89 300.21,-454.43"/>
<polygon fill="#9a32cd" stroke="#9a32cd" points="164,-286.82 154.27,-282.64 159.26,-291.98 164,-286.82"/>
<text text-anchor="middle" x="228" y="-429.98" font-family="Helvetica,sans-Serif" font-size="10.00"> line</text>
</g>
<!-- Node15&#45;&gt;Node27 -->
<g id="edge60" class="edge">
<title>Node15&#45;&gt;Node27</title>
<path fill="none" stroke="#9a32cd" stroke-dasharray="5,2" d="M156.79,-255.83C166.55,-245.83 179.96,-233.71 194,-225.98 213.82,-215.07 273.14,-200.12 309.33,-191.61"/>
<polygon fill="#9a32cd" stroke="#9a32cd" points="154.1,-253.58 149.81,-263.27 159.2,-258.38 154.1,-253.58"/>
<text text-anchor="middle" x="228" y="-250.98" font-family="Helvetica,sans-Serif" font-size="10.00"> line_after_for</text>
<text text-anchor="middle" x="228" y="-239.98" font-family="Helvetica,sans-Serif" font-size="10.00">step</text>
<text text-anchor="middle" x="228" y="-228.98" font-family="Helvetica,sans-Serif" font-size="10.00">to</text>
</g>
<!-- Node16 -->
<g id="node16" class="node">
<title>Node16</title>
<g id="a_node16"><a xlink:title=" ">
<polygon fill="none" stroke="#bfbfbf" points="121.5,-167.48 121.5,-186.48 159.5,-186.48 159.5,-167.48 121.5,-167.48"/>
<text text-anchor="middle" x="140.5" y="-174.48" font-family="Helvetica,sans-Serif" font-size="10.00">bool</text>
</a>
</g>
</g>
<!-- Node16&#45;&gt;Node9 -->
<g id="edge44" class="edge">
<title>Node16&#45;&gt;Node9</title>
<path fill="none" stroke="#9a32cd" stroke-dasharray="5,2" d="M168.91,-167.67C171.51,-166.05 173.94,-164.16 176,-161.98 191.92,-145.11 174.98,-126.26 194,-112.98 215.13,-98.24 500.37,-127.42 535,-167.98 566.48,-204.86 525.29,-564.19 553,-603.98 556.72,-609.32 562.24,-613.16 568.16,-615.93"/>
<polygon fill="#9a32cd" stroke="#9a32cd" points="167.1,-164.65 159.68,-172.21 170.2,-170.93 167.1,-164.65"/>
<text text-anchor="middle" x="339.5" y="-139.98" font-family="Helvetica,sans-Serif" font-size="10.00"> ended</text>
<text text-anchor="middle" x="339.5" y="-128.98" font-family="Helvetica,sans-Serif" font-size="10.00">errored</text>
</g>
<!-- Node16&#45;&gt;Node14 -->
<g id="edge25" class="edge">
<title>Node16&#45;&gt;Node14</title>
<path fill="none" stroke="#9a32cd" stroke-dasharray="5,2" d="M159.81,-160.25C165.69,-154.06 171.77,-146.66 176,-138.98 190.47,-112.73 171.45,-93.73 194,-73.98 210.1,-59.89 267.92,-55.68 305.36,-54.46"/>
<polygon fill="#9a32cd" stroke="#9a32cd" points="157.26,-157.85 152.62,-167.38 162.19,-162.82 157.26,-157.85"/>
<text text-anchor="middle" x="228" y="-76.98" font-family="Helvetica,sans-Serif" font-size="10.00"> global</text>
</g>
<!-- Node16&#45;&gt;Node18 -->
<g id="edge36" class="edge">
<title>Node16&#45;&gt;Node18</title>
<path fill="none" stroke="#9a32cd" stroke-dasharray="5,2" d="M151.32,-195.59C161.14,-213.53 177.17,-241.11 194,-262.98 220.65,-297.61 238.2,-297.34 262,-333.98 273.51,-351.7 264.52,-363.61 280,-377.98 284.46,-382.12 289.84,-385.36 295.5,-387.9"/>
<polygon fill="#9a32cd" stroke="#9a32cd" points="154.36,-193.85 146.54,-186.71 148.2,-197.17 154.36,-193.85"/>
<text text-anchor="middle" x="228" y="-336.98" font-family="Helvetica,sans-Serif" font-size="10.00"> global</text>
</g>
<!-- Node16&#45;&gt;Node25 -->
<g id="edge55" class="edge">
<title>Node16&#45;&gt;Node25</title>
<path fill="none" stroke="#9a32cd" stroke-dasharray="5,2" d="M169.56,-171.6C196.6,-168.14 236.99,-167.79 262,-189.98 288.61,-213.59 256.97,-240.87 280,-267.98 285.33,-274.26 292.56,-278.92 300.11,-282.37"/>
<polygon fill="#9a32cd" stroke="#9a32cd" points="168.94,-168.15 159.56,-173.09 169.97,-175.07 168.94,-168.15"/>
<text text-anchor="middle" x="228" y="-192.98" font-family="Helvetica,sans-Serif" font-size="10.00"> global</text>
</g>
<!-- Node17 -->
<g id="node17" class="node">
<title>Node17</title>
<g id="a_node17"><a xlink:title=" ">
<polygon fill="none" stroke="#bfbfbf" points="314.5,-930.48 314.5,-949.48 364.5,-949.48 364.5,-930.48 314.5,-930.48"/>
<text text-anchor="middle" x="339.5" y="-937.48" font-family="Helvetica,sans-Serif" font-size="10.00">int32_t</text>
</a>
</g>
</g>
<!-- Node17&#45;&gt;Node9 -->
<g id="edge30" class="edge">
<title>Node17&#45;&gt;Node9</title>
<path fill="none" stroke="#9a32cd" stroke-dasharray="5,2" d="M374.73,-946.33C417.85,-952.21 491.54,-954.84 535,-914.98 578.11,-875.44 594.54,-678.99 597.85,-632.74"/>
<polygon fill="#9a32cd" stroke="#9a32cd" points="375.13,-942.86 364.72,-944.84 374.09,-949.78 375.13,-942.86"/>
<text text-anchor="middle" x="476" y="-951.98" font-family="Helvetica,sans-Serif" font-size="10.00"> graphics_colour</text>
</g>
<!-- Node18&#45;&gt;Node9 -->
<g id="edge32" class="edge">
<title>Node18&#45;&gt;Node9</title>
<path fill="none" stroke="#9a32cd" stroke-dasharray="5,2" d="M393.62,-393.13C438.17,-393.07 499.97,-400.94 535,-439.98 583.97,-494.56 509.08,-545.27 553,-603.98 556.9,-609.19 562.49,-612.98 568.43,-615.74"/>
<polygon fill="#9a32cd" stroke="#9a32cd" points="393.49,-389.63 383.54,-393.28 393.59,-396.63 393.49,-389.63"/>
<text text-anchor="middle" x="476" y="-453.98" font-family="Helvetica,sans-Serif" font-size="10.00"> double_variables</text>
<text text-anchor="middle" x="476" y="-442.98" font-family="Helvetica,sans-Serif" font-size="10.00">local_double_variables</text>
</g>
<!-- Node18&#45;&gt;Node18 -->
<g id="edge35" class="edge">
<title>Node18&#45;&gt;Node18</title>
<path fill="none" stroke="#9a32cd" stroke-dasharray="5,2" d="M319.13,-416.38C320.49,-421.3 327.28,-424.98 339.5,-424.98 359.05,-424.98 364.7,-415.55 356.45,-406.74"/>
<polygon fill="#9a32cd" stroke="#9a32cd" points="322.51,-417.33 322.55,-406.74 315.91,-415 322.51,-417.33"/>
<text text-anchor="middle" x="339.5" y="-427.98" font-family="Helvetica,sans-Serif" font-size="10.00"> next</text>
</g>
<!-- Node19 -->
<g id="node19" class="node">
<title>Node19</title>
<g id="a_node19"><a xlink:title=" ">
<polygon fill="none" stroke="#bfbfbf" points="289,-892.48 289,-911.48 390,-911.48 390,-892.48 289,-892.48"/>
<text text-anchor="middle" x="339.5" y="-899.48" font-family="Helvetica,sans-Serif" font-size="10.00">struct hashmap *</text>
</a>
</g>
</g>
<!-- Node19&#45;&gt;Node9 -->
<g id="edge37" class="edge">
<title>Node19&#45;&gt;Node9</title>
<path fill="none" stroke="#9a32cd" stroke-dasharray="5,2" d="M400.21,-901.5C449.9,-899.84 515.54,-894.28 535,-876.98 572.96,-843.23 593.04,-674.81 597.52,-632.59"/>
<polygon fill="#9a32cd" stroke="#9a32cd" points="400.08,-898 390.18,-901.79 400.28,-905 400.08,-898"/>
<text text-anchor="middle" x="476" y="-902.98" font-family="Helvetica,sans-Serif" font-size="10.00"> lines</text>
</g>
<!-- Node20 -->
<g id="node20" class="node">
<title>Node20</title>
<g id="a_node20"><a xlink:title=" ">
<polygon fill="none" stroke="#bfbfbf" points="325,-568.48 325,-587.48 354,-587.48 354,-568.48 325,-568.48"/>
<text text-anchor="middle" x="339.5" y="-575.48" font-family="Helvetica,sans-Serif" font-size="10.00">int</text>
</a>
</g>
</g>
<!-- Node20&#45;&gt;Node9 -->
<g id="edge38" class="edge">
<title>Node20&#45;&gt;Node9</title>
<path fill="none" stroke="#9a32cd" stroke-dasharray="5,2" d="M364.5,-576.3C401.93,-574.44 476.01,-573.91 535,-592.98 543.92,-595.87 544.65,-599.72 553,-603.98 559.56,-607.33 566.84,-610.57 573.63,-613.4"/>
<polygon fill="#9a32cd" stroke="#9a32cd" points="363.91,-572.82 354.12,-576.89 364.31,-579.81 363.91,-572.82"/>
<text text-anchor="middle" x="476" y="-606.98" font-family="Helvetica,sans-Serif" font-size="10.00"> bracket_depth</text>
<text text-anchor="middle" x="476" y="-595.98" font-family="Helvetica,sans-Serif" font-size="10.00">current_token</text>
</g>
<!-- Node21&#45;&gt;Node9 -->
<g id="edge39" class="edge">
<title>Node21&#45;&gt;Node9</title>
<path fill="none" stroke="#9a32cd" stroke-dasharray="5,2" d="M398.93,-617.57C451.56,-619 526.83,-621.04 568.26,-622.16"/>
<polygon fill="#9a32cd" stroke="#9a32cd" points="398.82,-614.06 388.73,-617.29 398.63,-621.06 398.82,-614.06"/>
<text text-anchor="middle" x="476" y="-624.98" font-family="Helvetica,sans-Serif" font-size="10.00"> int_array_variables</text>
</g>
<!-- Node21&#45;&gt;Node21 -->
<g id="edge43" class="edge">
<title>Node21&#45;&gt;Node21</title>
<path fill="none" stroke="#9a32cd" stroke-dasharray="5,2" d="M319.13,-635.38C320.49,-640.3 327.28,-643.98 339.5,-643.98 359.05,-643.98 364.7,-634.55 356.45,-625.74"/>
<polygon fill="#9a32cd" stroke="#9a32cd" points="322.51,-636.33 322.55,-625.74 315.91,-634 322.51,-636.33"/>
<text text-anchor="middle" x="339.5" y="-646.98" font-family="Helvetica,sans-Serif" font-size="10.00"> next</text>
</g>
<!-- Node22&#45;&gt;Node9 -->
<g id="edge45" class="edge">
<title>Node22&#45;&gt;Node9</title>
<path fill="none" stroke="#9a32cd" stroke-dasharray="5,2" d="M395.26,-463.12C439.21,-465.51 499.26,-476.25 535,-513.98 563.05,-543.6 527.15,-572.43 553,-603.98 557.01,-608.88 562.51,-612.54 568.29,-615.26"/>
<polygon fill="#9a32cd" stroke="#9a32cd" points="395.16,-459.61 385.03,-462.69 394.87,-466.6 395.16,-459.61"/>
<text text-anchor="middle" x="476" y="-516.98" font-family="Helvetica,sans-Serif" font-size="10.00"> defs</text>
</g>
<!-- Node22&#45;&gt;Node22 -->
<g id="edge49" class="edge">
<title>Node22&#45;&gt;Node22</title>
<path fill="none" stroke="#9a32cd" stroke-dasharray="5,2" d="M319.13,-483.38C320.49,-488.3 327.28,-491.98 339.5,-491.98 359.05,-491.98 364.7,-482.55 356.45,-473.74"/>
<polygon fill="#9a32cd" stroke="#9a32cd" points="322.51,-484.33 322.55,-473.74 315.91,-482 322.51,-484.33"/>
<text text-anchor="middle" x="339.5" y="-494.98" font-family="Helvetica,sans-Serif" font-size="10.00"> next</text>
</g>
<!-- Node23 -->
<g id="node23" class="node">
<title>Node23</title>
<g id="a_node23"><a xlink:title=" ">
<polygon fill="none" stroke="#bfbfbf" points="105,-417.48 105,-436.48 176,-436.48 176,-417.48 105,-417.48"/>
<text text-anchor="middle" x="140.5" y="-424.48" font-family="Helvetica,sans-Serif" font-size="10.00">ub_fn_type</text>
</a>
</g>
</g>
<!-- Node23&#45;&gt;Node22 -->
<g id="edge46" class="edge">
<title>Node23&#45;&gt;Node22</title>
<path fill="none" stroke="#9a32cd" stroke-dasharray="5,2" d="M171.26,-442.14C172.92,-443.36 174.52,-444.64 176,-445.98 186.43,-455.4 181.55,-465.46 194,-471.98 230.83,-491.28 280.43,-482.28 310.9,-473.51"/>
<polygon fill="#9a32cd" stroke="#9a32cd" points="172.91,-439.04 162.6,-436.58 169.12,-444.93 172.91,-439.04"/>
<text text-anchor="middle" x="228" y="-486.98" font-family="Helvetica,sans-Serif" font-size="10.00"> type</text>
</g>
<!-- Node24&#45;&gt;Node9 -->
<g id="edge61" class="edge">
<title>Node24&#45;&gt;Node9</title>
<path fill="none" stroke="#9a32cd" stroke-dasharray="5,2" d="M154.18,-483.1C166.25,-499.78 184.02,-522.7 194,-527.98 261.54,-563.71 472.66,-527.8 535,-571.98 548.31,-581.42 540.81,-593.14 553,-603.98 557.48,-607.96 562.91,-611.19 568.44,-613.77"/>
<polygon fill="#9a32cd" stroke="#9a32cd" points="156.79,-480.74 148.14,-474.63 151.09,-484.81 156.79,-480.74"/>
<text text-anchor="middle" x="339.5" y="-550.98" font-family="Helvetica,sans-Serif" font-size="10.00"> param</text>
</g>
<!-- Node24&#45;&gt;Node22 -->
<g id="edge50" class="edge">
<title>Node24&#45;&gt;Node22</title>
<path fill="none" stroke="#9a32cd" stroke-dasharray="5,2" d="M157.22,-481.84C166.85,-490.89 179.99,-501.16 194,-505.98 222.58,-515.82 232.73,-513.49 262,-505.98 286.36,-499.73 311.3,-483.93 325.82,-473.59"/>
<polygon fill="#9a32cd" stroke="#9a32cd" points="159.58,-479.24 150.02,-474.67 154.64,-484.21 159.58,-479.24"/>
<text text-anchor="middle" x="228" y="-515.98" font-family="Helvetica,sans-Serif" font-size="10.00"> params</text>
</g>
<!-- Node24&#45;&gt;Node24 -->
<g id="edge52" class="edge">
<title>Node24&#45;&gt;Node24</title>
<path fill="none" stroke="#9a32cd" stroke-dasharray="5,2" d="M127.98,-484.75C128.96,-489.48 133.14,-492.98 140.5,-492.98 152.59,-492.98 156.08,-483.55 150.98,-474.74"/>
<polygon fill="#9a32cd" stroke="#9a32cd" points="131.45,-485.24 130.02,-474.74 124.59,-483.84 131.45,-485.24"/>
<text text-anchor="middle" x="140.5" y="-495.98" font-family="Helvetica,sans-Serif" font-size="10.00"> next</text>
</g>
<!-- Node25&#45;&gt;Node9 -->
<g id="edge53" class="edge">
<title>Node25&#45;&gt;Node9</title>
<path fill="none" stroke="#9a32cd" stroke-dasharray="5,2" d="M391.15,-283.43C435.83,-279.08 499.25,-281.26 535,-319.98 577.9,-366.44 516.29,-552.49 553,-603.98 556.78,-609.28 562.32,-613.11 568.25,-615.87"/>
<polygon fill="#9a32cd" stroke="#9a32cd" points="390.62,-279.97 381.07,-284.55 391.39,-286.92 390.62,-279.97"/>
<text text-anchor="middle" x="476" y="-333.98" font-family="Helvetica,sans-Serif" font-size="10.00"> local_string_variables</text>
<text text-anchor="middle" x="476" y="-322.98" font-family="Helvetica,sans-Serif" font-size="10.00">str_variables</text>
</g>
<!-- Node25&#45;&gt;Node25 -->
<g id="edge56" class="edge">
<title>Node25&#45;&gt;Node25</title>
<path fill="none" stroke="#9a32cd" stroke-dasharray="5,2" d="M319.13,-311.38C320.49,-316.3 327.28,-319.98 339.5,-319.98 359.05,-319.98 364.7,-310.55 356.45,-301.74"/>
<polygon fill="#9a32cd" stroke="#9a32cd" points="322.51,-312.33 322.55,-301.74 315.91,-310 322.51,-312.33"/>
<text text-anchor="middle" x="339.5" y="-322.98" font-family="Helvetica,sans-Serif" font-size="10.00"> next</text>
</g>
<!-- Node26 -->
<g id="node26" class="node">
<title>Node26</title>
<g id="a_node26"><a xlink:title=" ">
<polygon fill="none" stroke="#bfbfbf" points="316.5,-349.48 316.5,-368.48 362.5,-368.48 362.5,-349.48 316.5,-349.48"/>
<text text-anchor="middle" x="339.5" y="-356.48" font-family="Helvetica,sans-Serif" font-size="10.00">void *</text>
</a>
</g>
</g>
<!-- Node26&#45;&gt;Node9 -->
<g id="edge57" class="edge">
<title>Node26&#45;&gt;Node9</title>
<path fill="none" stroke="#9a32cd" stroke-dasharray="5,2" d="M372.72,-351.43C416.22,-343.34 493.1,-336.92 535,-379.98 569.83,-415.77 523.67,-563.56 553,-603.98 556.82,-609.25 562.38,-613.06 568.32,-615.82"/>
<polygon fill="#9a32cd" stroke="#9a32cd" points="371.8,-348.04 362.68,-353.43 373.17,-354.9 371.8,-348.04"/>
<text text-anchor="middle" x="476" y="-382.98" font-family="Helvetica,sans-Serif" font-size="10.00"> fn_return</text>
</g>
<!-- Node27&#45;&gt;Node9 -->
<g id="edge58" class="edge">
<title>Node27&#45;&gt;Node9</title>
<path fill="none" stroke="#9a32cd" stroke-dasharray="5,2" d="M379.49,-176.03C424.05,-168.37 495.84,-164.3 535,-205.98 565.31,-238.24 527.63,-567.7 553,-603.98 556.73,-609.31 562.25,-613.15 568.18,-615.92"/>
<polygon fill="#9a32cd" stroke="#9a32cd" points="378.8,-172.6 369.61,-177.87 380.08,-179.48 378.8,-172.6"/>
<text text-anchor="middle" x="476" y="-208.98" font-family="Helvetica,sans-Serif" font-size="10.00"> for_stack</text>
</g>
<!-- Node28 -->
<g id="node28" class="node">
<title>Node28</title>
<g id="a_node28"><a xlink:title=" ">
<polygon fill="none" stroke="#bfbfbf" points="571.5,-575.48 571.5,-594.48 627.5,-594.48 627.5,-575.48 571.5,-575.48"/>
<text text-anchor="middle" x="599.5" y="-582.48" font-family="Helvetica,sans-Serif" font-size="10.00">uint32_t</text>
</a>
</g>
</g>
<!-- Node28&#45;&gt;Node1 -->
<g id="edge64" class="edge">
<title>Node28&#45;&gt;Node1</title>
<path fill="none" stroke="#9a32cd" stroke-dasharray="5,2" d="M635.15,-598.57C638.86,-600.29 642.54,-602.1 646,-603.98 732.66,-651.08 827.27,-723.36 860.31,-749.3"/>
<polygon fill="#9a32cd" stroke="#9a32cd" points="636.53,-595.35 625.96,-594.54 633.71,-601.76 636.53,-595.35"/>
<text text-anchor="middle" x="750.5" y="-692.98" font-family="Helvetica,sans-Serif" font-size="10.00"> id</text>
</g>
<!-- Node28&#45;&gt;Node2 -->
<g id="edge62" class="edge">
<title>Node28&#45;&gt;Node2</title>
<path fill="none" stroke="#9a32cd" stroke-dasharray="5,2" d="M636.76,-596.15C640.22,-598.32 643.4,-600.91 646,-603.98 679.9,-644.01 738.3,-1033.63 748.09,-1100.3"/>
<polygon fill="#9a32cd" stroke="#9a32cd" points="638.25,-592.98 627.75,-591.56 635.07,-599.22 638.25,-592.98"/>
<text text-anchor="middle" x="682.5" y="-847.98" font-family="Helvetica,sans-Serif" font-size="10.00"> gid</text>
<text text-anchor="middle" x="682.5" y="-836.98" font-family="Helvetica,sans-Serif" font-size="10.00">pid</text>
<text text-anchor="middle" x="682.5" y="-825.98" font-family="Helvetica,sans-Serif" font-size="10.00">ppid</text>
<text text-anchor="middle" x="682.5" y="-814.98" font-family="Helvetica,sans-Serif" font-size="10.00">uid</text>
<text text-anchor="middle" x="682.5" y="-803.98" font-family="Helvetica,sans-Serif" font-size="10.00">waitpid</text>
</g>
</g>
</svg>
