<?xml version="1.0" encoding="UTF-8" standalone="no"?>
<!DOCTYPE svg PUBLIC "-//W3C//DTD SVG 1.1//EN"
 "http://www.w3.org/Graphics/SVG/1.1/DTD/svg11.dtd">
<!-- Generated by graphviz version 2.43.0 (0)
 -->
<!-- Title: elf_sym Pages: 1 -->
<svg width="276pt" height="106pt"
 viewBox="0.00 0.00 276.00 106.00" xmlns="http://www.w3.org/2000/svg" xmlns:xlink="http://www.w3.org/1999/xlink">
<g id="graph0" class="graph" transform="scale(1 1) rotate(0) translate(4 102)">
<title>elf_sym</title>
<!-- Node1 -->
<g id="node1" class="node">
<title>Node1</title>
<g id="a_node1"><a xlink:title="ELF symbol table entry (ELF64)">
<polygon fill="#bfbfbf" stroke="black" points="109,-0.5 109,-19.5 165,-19.5 165,-0.5 109,-0.5"/>
<text text-anchor="middle" x="137" y="-7.5" font-family="Helvetica,sans-Serif" font-size="10.00">elf_sym</text>
</a>
</g>
</g>
<!-- Node2 -->
<g id="node2" class="node">
<title>Node2</title>
<g id="a_node2"><a xlink:title=" ">
<polygon fill="none" stroke="#bfbfbf" points="0,-78.5 0,-97.5 56,-97.5 56,-78.5 0,-78.5"/>
<text text-anchor="middle" x="28" y="-85.5" font-family="Helvetica,sans-Serif" font-size="10.00">uint64_t</text>
</a>
</g>
</g>
<!-- Node2&#45;&gt;Node1 -->
<g id="edge1" class="edge">
<title>Node2&#45;&gt;Node1</title>
<path fill="none" stroke="#9a32cd" stroke-dasharray="5,2" d="M33.01,-68.71C36.71,-58.39 42.73,-45.99 52,-38 67.95,-24.25 90.94,-17.49 108.99,-14.17"/>
<polygon fill="#9a32cd" stroke="#9a32cd" points="29.61,-67.86 29.97,-78.45 36.29,-69.95 29.61,-67.86"/>
<text text-anchor="middle" x="73" y="-52" font-family="Helvetica,sans-Serif" font-size="10.00"> st_size</text>
<text text-anchor="middle" x="73" y="-41" font-family="Helvetica,sans-Serif" font-size="10.00">st_value</text>
</g>
<!-- Node3 -->
<g id="node3" class="node">
<title>Node3</title>
<g id="a_node3"><a xlink:title=" ">
<polygon fill="none" stroke="#bfbfbf" points="74,-78.5 74,-97.5 130,-97.5 130,-78.5 74,-78.5"/>
<text text-anchor="middle" x="102" y="-85.5" font-family="Helvetica,sans-Serif" font-size="10.00">uint16_t</text>
</a>
</g>
</g>
<!-- Node3&#45;&gt;Node1 -->
<g id="edge2" class="edge">
<title>Node3&#45;&gt;Node1</title>
<path fill="none" stroke="#9a32cd" stroke-dasharray="5,2" d="M98.72,-68.13C97.96,-58.63 98.44,-47.21 103,-38 106.82,-30.3 113.97,-24.1 120.74,-19.6"/>
<polygon fill="#9a32cd" stroke="#9a32cd" points="95.27,-68.68 100.02,-78.15 102.21,-67.78 95.27,-68.68"/>
<text text-anchor="middle" x="126.5" y="-46.5" font-family="Helvetica,sans-Serif" font-size="10.00"> st_shndx</text>
</g>
<!-- Node4 -->
<g id="node4" class="node">
<title>Node4</title>
<g id="a_node4"><a xlink:title=" ">
<polygon fill="none" stroke="#bfbfbf" points="153,-78.5 153,-97.5 191,-97.5 191,-78.5 153,-78.5"/>
<text text-anchor="middle" x="172" y="-85.5" font-family="Helvetica,sans-Serif" font-size="10.00">char</text>
</a>
</g>
</g>
<!-- Node4&#45;&gt;Node1 -->
<g id="edge3" class="edge">
<title>Node4&#45;&gt;Node1</title>
<path fill="none" stroke="#9a32cd" stroke-dasharray="5,2" d="M164.03,-68.94C159.9,-59.66 154.74,-48.2 150,-38 147.19,-31.96 143.94,-25.21 141.39,-19.97"/>
<polygon fill="#9a32cd" stroke="#9a32cd" points="160.92,-70.57 168.18,-78.29 167.32,-67.73 160.92,-70.57"/>
<text text-anchor="middle" x="179" y="-52" font-family="Helvetica,sans-Serif" font-size="10.00"> st_info</text>
<text text-anchor="middle" x="179" y="-41" font-family="Helvetica,sans-Serif" font-size="10.00">st_other</text>
</g>
<!-- Node5 -->
<g id="node5" class="node">
<title>Node5</title>
<g id="a_node5"><a xlink:title=" ">
<polygon fill="none" stroke="#bfbfbf" points="209,-78.5 209,-97.5 265,-97.5 265,-78.5 209,-78.5"/>
<text text-anchor="middle" x="237" y="-85.5" font-family="Helvetica,sans-Serif" font-size="10.00">uint32_t</text>
</a>
</g>
</g>
<!-- Node5&#45;&gt;Node1 -->
<g id="edge4" class="edge">
<title>Node5&#45;&gt;Node1</title>
<path fill="none" stroke="#9a32cd" stroke-dasharray="5,2" d="M228.07,-69.28C222.15,-58.99 213.53,-46.45 203,-38 191.99,-29.17 177.7,-22.85 165.23,-18.55"/>
<polygon fill="#9a32cd" stroke="#9a32cd" points="225.08,-71.1 232.91,-78.24 231.24,-67.77 225.08,-71.1"/>
<text text-anchor="middle" x="245" y="-46.5" font-family="Helvetica,sans-Serif" font-size="10.00"> st_name</text>
</g>
</g>
</svg>
