<?xml version="1.0" encoding="UTF-8" standalone="no"?>
<!DOCTYPE svg PUBLIC "-//W3C//DTD SVG 1.1//EN"
 "http://www.w3.org/Graphics/SVG/1.1/DTD/svg11.dtd">
<!-- Generated by graphviz version 2.43.0 (0)
 -->
<!-- Title: queued_udp_packet Pages: 1 -->
<svg width="207pt" height="108pt"
 viewBox="0.00 0.00 207.00 108.00" xmlns="http://www.w3.org/2000/svg" xmlns:xlink="http://www.w3.org/1999/xlink">
<g id="graph0" class="graph" transform="scale(1 1) rotate(0) translate(4 104)">
<title>queued_udp_packet</title>
<!-- Node1 -->
<g id="node1" class="node">
<title>Node1</title>
<g id="a_node1"><a xlink:title=" ">
<polygon fill="#bfbfbf" stroke="black" points="36.5,-1.5 36.5,-20.5 149.5,-20.5 149.5,-1.5 36.5,-1.5"/>
<text text-anchor="middle" x="93" y="-8.5" font-family="Helvetica,sans-Serif" font-size="10.00">queued_udp_packet</text>
</a>
</g>
</g>
<!-- Node1&#45;&gt;Node1 -->
<g id="edge4" class="edge">
<title>Node1&#45;&gt;Node1</title>
<path fill="none" stroke="#9a32cd" stroke-dasharray="5,2" d="M159.49,-16.59C164.45,-15.34 167.5,-13.48 167.5,-11 167.5,-7.13 160.07,-4.76 149.53,-3.88"/>
<polygon fill="#9a32cd" stroke="#9a32cd" points="158.88,-13.14 149.53,-18.12 159.94,-20.06 158.88,-13.14"/>
<text text-anchor="middle" x="180" y="-14" font-family="Helvetica,sans-Serif" font-size="10.00"> next</text>
<text text-anchor="middle" x="180" y="-3" font-family="Helvetica,sans-Serif" font-size="10.00">prev</text>
</g>
<!-- Node2 -->
<g id="node2" class="node">
<title>Node2</title>
<g id="a_node2"><a xlink:title=" ">
<polygon fill="none" stroke="#bfbfbf" points="0,-80.5 0,-99.5 56,-99.5 56,-80.5 0,-80.5"/>
<text text-anchor="middle" x="28" y="-87.5" font-family="Helvetica,sans-Serif" font-size="10.00">uint64_t</text>
</a>
</g>
</g>
<!-- Node2&#45;&gt;Node1 -->
<g id="edge1" class="edge">
<title>Node2&#45;&gt;Node1</title>
<path fill="none" stroke="#9a32cd" stroke-dasharray="5,2" d="M35.56,-71.09C40.25,-61.25 46.92,-49.22 55,-40 61.7,-32.36 70.82,-25.55 78.45,-20.56"/>
<polygon fill="#9a32cd" stroke="#9a32cd" points="32.31,-69.77 31.41,-80.33 38.7,-72.64 32.31,-69.77"/>
<text text-anchor="middle" x="72" y="-48.5" font-family="Helvetica,sans-Serif" font-size="10.00"> length</text>
</g>
<!-- Node3 -->
<g id="node3" class="node">
<title>Node3</title>
<g id="a_node3"><a xlink:title=" ">
<polygon fill="none" stroke="#bfbfbf" points="74,-80.5 74,-99.5 112,-99.5 112,-80.5 74,-80.5"/>
<text text-anchor="middle" x="93" y="-87.5" font-family="Helvetica,sans-Serif" font-size="10.00">char</text>
</a>
</g>
</g>
<!-- Node3&#45;&gt;Node1 -->
<g id="edge2" class="edge">
<title>Node3&#45;&gt;Node1</title>
<path fill="none" stroke="#9a32cd" stroke-dasharray="5,2" d="M93,-70.31C93,-54.59 93,-32.81 93,-20.81"/>
<polygon fill="#9a32cd" stroke="#9a32cd" points="89.5,-70.47 93,-80.47 96.5,-70.47 89.5,-70.47"/>
<text text-anchor="middle" x="105.5" y="-54" font-family="Helvetica,sans-Serif" font-size="10.00"> data</text>
<text text-anchor="middle" x="105.5" y="-43" font-family="Helvetica,sans-Serif" font-size="10.00">ip</text>
</g>
<!-- Node4 -->
<g id="node4" class="node">
<title>Node4</title>
<g id="a_node4"><a xlink:title=" ">
<polygon fill="none" stroke="#bfbfbf" points="130,-80.5 130,-99.5 186,-99.5 186,-80.5 130,-80.5"/>
<text text-anchor="middle" x="158" y="-87.5" font-family="Helvetica,sans-Serif" font-size="10.00">uint16_t</text>
</a>
</g>
</g>
<!-- Node4&#45;&gt;Node1 -->
<g id="edge3" class="edge">
<title>Node4&#45;&gt;Node1</title>
<path fill="none" stroke="#9a32cd" stroke-dasharray="5,2" d="M146.56,-71.97C139.8,-62.29 130.84,-50.12 122,-40 116.01,-33.15 108.63,-26.04 102.81,-20.69"/>
<polygon fill="#9a32cd" stroke="#9a32cd" points="143.76,-74.08 152.3,-80.34 149.53,-70.12 143.76,-74.08"/>
<text text-anchor="middle" x="168.5" y="-48.5" font-family="Helvetica,sans-Serif" font-size="10.00"> source_port</text>
</g>
</g>
</svg>
