<?xml version="1.0" encoding="UTF-8" standalone="no"?>
<!DOCTYPE svg PUBLIC "-//W3C//DTD SVG 1.1//EN"
 "http://www.w3.org/Graphics/SVG/1.1/DTD/svg11.dtd">
<!-- Generated by graphviz version 2.43.0 (0)
 -->
<!-- Title: fs_tree_t Pages: 1 -->
<svg width="621pt" height="354pt"
 viewBox="0.00 0.00 620.55 354.00" xmlns="http://www.w3.org/2000/svg" xmlns:xlink="http://www.w3.org/1999/xlink">
<g id="graph0" class="graph" transform="scale(1 1) rotate(0) translate(4 350)">
<title>fs_tree_t</title>
<!-- Node1 -->
<g id="node1" class="node">
<title>Node1</title>
<g id="a_node1"><a xlink:title="Used internally by filesystem.c to cache directories to RAM.">
<polygon fill="#bfbfbf" stroke="black" points="174.05,-96 174.05,-115 233.05,-115 233.05,-96 174.05,-96"/>
<text text-anchor="middle" x="203.55" y="-103" font-family="Helvetica,sans-Serif" font-size="10.00">fs_tree_t</text>
</a>
</g>
</g>
<!-- Node1&#45;&gt;Node1 -->
<g id="edge10" class="edge">
<title>Node1&#45;&gt;Node1</title>
<path fill="none" stroke="#9a32cd" stroke-dasharray="5,2" d="M234.05,-115.99C243.56,-115.81 251.05,-112.31 251.05,-105.5 251.05,-96.42 237.74,-93.23 224.06,-95.93"/>
<polygon fill="#9a32cd" stroke="#9a32cd" points="234.33,-112.5 224.06,-115.07 233.69,-119.47 234.33,-112.5"/>
<text text-anchor="middle" x="276.05" y="-114" font-family="Helvetica,sans-Serif" font-size="10.00"> child_dirs</text>
<text text-anchor="middle" x="276.05" y="-103" font-family="Helvetica,sans-Serif" font-size="10.00">next</text>
<text text-anchor="middle" x="276.05" y="-92" font-family="Helvetica,sans-Serif" font-size="10.00">parent</text>
</g>
<!-- Node3 -->
<g id="node3" class="node">
<title>Node3</title>
<g id="a_node3"><a xlink:href="structfs__directory__entry__t.html" target="_top" xlink:title="A VFS directory entry. Files AND directories have these, but internally there is also a tree of fs_tr...">
<polygon fill="none" stroke="black" points="118.55,-0.5 118.55,-19.5 232.55,-19.5 232.55,-0.5 118.55,-0.5"/>
<text text-anchor="middle" x="175.55" y="-7.5" font-family="Helvetica,sans-Serif" font-size="10.00">fs_directory_entry_t</text>
</a>
</g>
</g>
<!-- Node1&#45;&gt;Node3 -->
<g id="edge5" class="edge">
<title>Node1&#45;&gt;Node3</title>
<path fill="none" stroke="#9a32cd" stroke-dasharray="5,2" d="M206.06,-85.75C207.11,-71.99 206.89,-53.16 200.55,-38 197.54,-30.81 191.73,-24.34 186.46,-19.54"/>
<polygon fill="#9a32cd" stroke="#9a32cd" points="202.55,-85.59 204.98,-95.91 209.51,-86.33 202.55,-85.59"/>
<text text-anchor="middle" x="229.05" y="-46.5" font-family="Helvetica,sans-Serif" font-size="10.00"> directory</text>
</g>
<!-- Node2 -->
<g id="node2" class="node">
<title>Node2</title>
<g id="a_node2"><a xlink:title=" ">
<polygon fill="none" stroke="#bfbfbf" points="131.55,-326.5 131.55,-345.5 187.55,-345.5 187.55,-326.5 131.55,-326.5"/>
<text text-anchor="middle" x="159.55" y="-333.5" font-family="Helvetica,sans-Serif" font-size="10.00">uint64_t</text>
</a>
</g>
</g>
<!-- Node2&#45;&gt;Node1 -->
<g id="edge1" class="edge">
<title>Node2&#45;&gt;Node1</title>
<path fill="none" stroke="#9a32cd" stroke-dasharray="5,2" d="M163.14,-316.36C172.15,-269.59 195.44,-148.64 201.88,-115.19"/>
<polygon fill="#9a32cd" stroke="#9a32cd" points="159.68,-315.84 161.22,-326.32 166.55,-317.16 159.68,-315.84"/>
<text text-anchor="middle" x="201.55" y="-227" font-family="Helvetica,sans-Serif" font-size="10.00"> device</text>
<text text-anchor="middle" x="201.55" y="-216" font-family="Helvetica,sans-Serif" font-size="10.00">lbapos</text>
<text text-anchor="middle" x="201.55" y="-205" font-family="Helvetica,sans-Serif" font-size="10.00">size</text>
</g>
<!-- Node2&#45;&gt;Node3 -->
<g id="edge4" class="edge">
<title>Node2&#45;&gt;Node3</title>
<path fill="none" stroke="#9a32cd" stroke-dasharray="5,2" d="M132.4,-321.64C101.65,-305.23 52.02,-274.61 22.55,-235 -0.24,-204.37 -4.12,-188.18 4.55,-151 17.71,-94.58 21.62,-70.54 69.55,-38 83.93,-28.24 101.57,-22.01 118.3,-18.03"/>
<polygon fill="#9a32cd" stroke="#9a32cd" points="130.8,-324.76 141.29,-326.28 134.04,-318.55 130.8,-324.76"/>
<text text-anchor="middle" x="22.55" y="-170.5" font-family="Helvetica,sans-Serif" font-size="10.00"> lbapos</text>
<text text-anchor="middle" x="22.55" y="-159.5" font-family="Helvetica,sans-Serif" font-size="10.00">size</text>
</g>
<!-- Node8 -->
<g id="node8" class="node">
<title>Node8</title>
<g id="a_node8"><a xlink:href="structfilesystem__t.html" target="_top" xlink:title="Defines a filesystem driver.">
<polygon fill="none" stroke="black" points="273.05,-209 273.05,-228 350.05,-228 350.05,-209 273.05,-209"/>
<text text-anchor="middle" x="311.55" y="-216" font-family="Helvetica,sans-Serif" font-size="10.00">filesystem_t</text>
</a>
</g>
</g>
<!-- Node2&#45;&gt;Node8 -->
<g id="edge12" class="edge">
<title>Node2&#45;&gt;Node8</title>
<path fill="none" stroke="#9a32cd" stroke-dasharray="5,2" d="M173.39,-318.22C175.89,-314.91 178.39,-311.41 180.55,-308 195.26,-284.85 187.7,-270.82 208.55,-253 226.56,-237.61 251.79,-229.25 272.78,-224.73"/>
<polygon fill="#9a32cd" stroke="#9a32cd" points="170.45,-316.3 166.99,-326.31 175.94,-320.64 170.45,-316.3"/>
<text text-anchor="middle" x="232.05" y="-283.5" font-family="Helvetica,sans-Serif" font-size="10.00"> createdir</text>
<text text-anchor="middle" x="232.05" y="-272.5" font-family="Helvetica,sans-Serif" font-size="10.00">createfile</text>
</g>
<!-- Node3&#45;&gt;Node1 -->
<g id="edge2" class="edge">
<title>Node3&#45;&gt;Node1</title>
<path fill="none" stroke="#9a32cd" stroke-dasharray="5,2" d="M173.68,-29.62C173.31,-38.92 173.71,-50.24 176.55,-60 180.54,-73.71 189.89,-87.45 196.46,-95.96"/>
<polygon fill="#9a32cd" stroke="#9a32cd" points="177.18,-29.75 174.41,-19.52 170.2,-29.25 177.18,-29.75"/>
<text text-anchor="middle" x="188.55" y="-46.5" font-family="Helvetica,sans-Serif" font-size="10.00"> files</text>
</g>
<!-- Node3&#45;&gt;Node3 -->
<g id="edge3" class="edge">
<title>Node3&#45;&gt;Node3</title>
<path fill="none" stroke="#9a32cd" stroke-dasharray="5,2" d="M242.99,-15.19C247.69,-14 250.55,-12.27 250.55,-10 250.55,-6.36 243.22,-4.12 232.78,-3.27"/>
<polygon fill="#9a32cd" stroke="#9a32cd" points="242.14,-11.78 232.78,-16.73 243.19,-18.7 242.14,-11.78"/>
<text text-anchor="middle" x="263.05" y="-7.5" font-family="Helvetica,sans-Serif" font-size="10.00"> next</text>
</g>
<!-- Node4 -->
<g id="node4" class="node">
<title>Node4</title>
<g id="a_node4"><a xlink:title=" ">
<polygon fill="none" stroke="#bfbfbf" points="99.55,-96 99.55,-115 155.55,-115 155.55,-96 99.55,-96"/>
<text text-anchor="middle" x="127.55" y="-103" font-family="Helvetica,sans-Serif" font-size="10.00">uint16_t</text>
</a>
</g>
</g>
<!-- Node4&#45;&gt;Node3 -->
<g id="edge6" class="edge">
<title>Node4&#45;&gt;Node3</title>
<path fill="none" stroke="#9a32cd" stroke-dasharray="5,2" d="M129.31,-85.73C131.32,-71.72 135.57,-52.57 144.55,-38 149.04,-30.71 156.14,-24.32 162.4,-19.59"/>
<polygon fill="#9a32cd" stroke="#9a32cd" points="125.83,-85.33 128.14,-95.67 132.79,-86.15 125.83,-85.33"/>
<text text-anchor="middle" x="157.05" y="-46.5" font-family="Helvetica,sans-Serif" font-size="10.00"> year</text>
</g>
<!-- Node5 -->
<g id="node5" class="node">
<title>Node5</title>
<g id="a_node5"><a xlink:title=" ">
<polygon fill="none" stroke="#bfbfbf" points="491.55,-326.5 491.55,-345.5 529.55,-345.5 529.55,-326.5 491.55,-326.5"/>
<text text-anchor="middle" x="510.55" y="-333.5" font-family="Helvetica,sans-Serif" font-size="10.00">char</text>
</a>
</g>
</g>
<!-- Node5&#45;&gt;Node1 -->
<g id="edge18" class="edge">
<title>Node5&#45;&gt;Node1</title>
<path fill="none" stroke="#9a32cd" stroke-dasharray="5,2" d="M510.96,-316.41C510.55,-298.94 507.83,-272.62 496.55,-253 461.32,-191.73 437.39,-183.35 374.55,-151 368.19,-147.73 280.34,-125.6 233.11,-113.83"/>
<polygon fill="#9a32cd" stroke="#9a32cd" points="507.46,-316.45 510.96,-326.45 514.46,-316.45 507.46,-316.45"/>
<text text-anchor="middle" x="519.05" y="-221.5" font-family="Helvetica,sans-Serif" font-size="10.00"> device_name</text>
<text text-anchor="middle" x="519.05" y="-210.5" font-family="Helvetica,sans-Serif" font-size="10.00">name</text>
</g>
<!-- Node5&#45;&gt;Node3 -->
<g id="edge7" class="edge">
<title>Node5&#45;&gt;Node3</title>
<path fill="none" stroke="#9a32cd" stroke-dasharray="5,2" d="M524.98,-318.24C545.35,-292.43 577.89,-241.79 557.55,-202 500.9,-91.18 445.24,-86.36 330.55,-38 299.72,-25 262.9,-18.26 232.89,-14.76"/>
<polygon fill="#9a32cd" stroke="#9a32cd" points="522.03,-316.32 518.4,-326.27 527.44,-320.76 522.03,-316.32"/>
<text text-anchor="middle" x="579.55" y="-176" font-family="Helvetica,sans-Serif" font-size="10.00"> alt_filename</text>
<text text-anchor="middle" x="579.55" y="-165" font-family="Helvetica,sans-Serif" font-size="10.00">device_name</text>
<text text-anchor="middle" x="579.55" y="-154" font-family="Helvetica,sans-Serif" font-size="10.00">filename</text>
</g>
<!-- Node5&#45;&gt;Node8 -->
<g id="edge15" class="edge">
<title>Node5&#45;&gt;Node8</title>
<path fill="none" stroke="#9a32cd" stroke-dasharray="5,2" d="M482.27,-321.78C476.18,-317.97 470.2,-313.37 465.55,-308 448.21,-287.96 462.6,-270.32 442.55,-253 416.97,-230.9 378.72,-223.06 350.14,-220.44"/>
<polygon fill="#9a32cd" stroke="#9a32cd" points="480.67,-324.9 491.1,-326.78 484.12,-318.81 480.67,-324.9"/>
<text text-anchor="middle" x="481.05" y="-278" font-family="Helvetica,sans-Serif" font-size="10.00"> name</text>
</g>
<!-- Node6 -->
<g id="node6" class="node">
<title>Node6</title>
<g id="a_node6"><a xlink:title=" ">
<polygon fill="none" stroke="#bfbfbf" points="319.55,-96 319.55,-115 375.55,-115 375.55,-96 319.55,-96"/>
<text text-anchor="middle" x="347.55" y="-103" font-family="Helvetica,sans-Serif" font-size="10.00">uint32_t</text>
</a>
</g>
</g>
<!-- Node6&#45;&gt;Node3 -->
<g id="edge8" class="edge">
<title>Node6&#45;&gt;Node3</title>
<path fill="none" stroke="#9a32cd" stroke-dasharray="5,2" d="M330.16,-89.23C312.6,-74.46 284.2,-52.27 256.55,-38 241.53,-30.25 223.83,-24.05 208.81,-19.55"/>
<polygon fill="#9a32cd" stroke="#9a32cd" points="327.98,-91.98 337.86,-95.82 332.54,-86.66 327.98,-91.98"/>
<text text-anchor="middle" x="308.55" y="-52" font-family="Helvetica,sans-Serif" font-size="10.00"> device</text>
<text text-anchor="middle" x="308.55" y="-41" font-family="Helvetica,sans-Serif" font-size="10.00">flags</text>
</g>
<!-- Node7 -->
<g id="node7" class="node">
<title>Node7</title>
<g id="a_node7"><a xlink:title=" ">
<polygon fill="none" stroke="#bfbfbf" points="31.55,-209 31.55,-228 81.55,-228 81.55,-209 31.55,-209"/>
<text text-anchor="middle" x="56.55" y="-216" font-family="Helvetica,sans-Serif" font-size="10.00">uint8_t</text>
</a>
</g>
</g>
<!-- Node7&#45;&gt;Node1 -->
<g id="edge19" class="edge">
<title>Node7&#45;&gt;Node1</title>
<path fill="none" stroke="#9a32cd" stroke-dasharray="5,2" d="M62.58,-198.86C68.42,-183.76 78.73,-163.07 94.55,-151 120.09,-131.52 135.28,-146.22 164.55,-133 174.85,-128.35 185.37,-121.01 192.89,-115.24"/>
<polygon fill="#9a32cd" stroke="#9a32cd" points="59.15,-198.07 59.11,-208.67 65.75,-200.41 59.15,-198.07"/>
<text text-anchor="middle" x="107.55" y="-165" font-family="Helvetica,sans-Serif" font-size="10.00"> dirty</text>
</g>
<!-- Node7&#45;&gt;Node3 -->
<g id="edge9" class="edge">
<title>Node7&#45;&gt;Node3</title>
<path fill="none" stroke="#9a32cd" stroke-dasharray="5,2" d="M51.43,-199.14C44.67,-170.91 36.08,-116.13 58.55,-78 76.91,-46.84 115.73,-28.89 143.62,-19.55"/>
<polygon fill="#9a32cd" stroke="#9a32cd" points="48.05,-200.07 53.94,-208.87 54.83,-198.31 48.05,-200.07"/>
<text text-anchor="middle" x="74.55" y="-125" font-family="Helvetica,sans-Serif" font-size="10.00"> day</text>
<text text-anchor="middle" x="74.55" y="-114" font-family="Helvetica,sans-Serif" font-size="10.00">hour</text>
<text text-anchor="middle" x="74.55" y="-103" font-family="Helvetica,sans-Serif" font-size="10.00">min</text>
<text text-anchor="middle" x="74.55" y="-92" font-family="Helvetica,sans-Serif" font-size="10.00">month</text>
<text text-anchor="middle" x="74.55" y="-81" font-family="Helvetica,sans-Serif" font-size="10.00">sec</text>
</g>
<!-- Node8&#45;&gt;Node1 -->
<g id="edge11" class="edge">
<title>Node8&#45;&gt;Node1</title>
<path fill="none" stroke="#9a32cd" stroke-dasharray="5,2" d="M296.04,-201.56C272.89,-177.77 230.09,-133.78 211.99,-115.17"/>
<polygon fill="#9a32cd" stroke="#9a32cd" points="293.59,-204.06 303.08,-208.79 298.61,-199.18 293.59,-204.06"/>
<text text-anchor="middle" x="323.55" y="-165" font-family="Helvetica,sans-Serif" font-size="10.00"> responsible_driver</text>
</g>
<!-- Node8&#45;&gt;Node8 -->
<g id="edge14" class="edge">
<title>Node8&#45;&gt;Node8</title>
<path fill="none" stroke="#9a32cd" stroke-dasharray="5,2" d="M360.27,-226.11C365.03,-224.58 368.05,-222.04 368.05,-218.5 368.05,-212.84 360.32,-209.74 350.11,-209.21"/>
<polygon fill="#9a32cd" stroke="#9a32cd" points="359.4,-222.71 350.11,-227.79 360.54,-229.61 359.4,-222.71"/>
<text text-anchor="middle" x="380.55" y="-216" font-family="Helvetica,sans-Serif" font-size="10.00"> next</text>
</g>
<!-- Node9 -->
<g id="node9" class="node">
<title>Node9</title>
<g id="a_node9"><a xlink:title=" ">
<polygon fill="none" stroke="#bfbfbf" points="206.05,-326.5 206.05,-345.5 301.05,-345.5 301.05,-326.5 206.05,-326.5"/>
<text text-anchor="middle" x="253.55" y="-333.5" font-family="Helvetica,sans-Serif" font-size="10.00">void *(*)(void *)</text>
</a>
</g>
</g>
<!-- Node9&#45;&gt;Node8 -->
<g id="edge13" class="edge">
<title>Node9&#45;&gt;Node8</title>
<path fill="none" stroke="#9a32cd" stroke-dasharray="5,2" d="M257.61,-316.46C261.9,-299.22 269.7,-273.23 281.55,-253 287.07,-243.57 295.53,-234.43 302.06,-228.09"/>
<polygon fill="#9a32cd" stroke="#9a32cd" points="254.16,-315.84 255.29,-326.38 260.98,-317.44 254.16,-315.84"/>
<text text-anchor="middle" x="297.55" y="-278" font-family="Helvetica,sans-Serif" font-size="10.00"> getdir</text>
</g>
<!-- Node10 -->
<g id="node10" class="node">
<title>Node10</title>
<g id="a_node10"><a xlink:title=" ">
<polygon fill="none" stroke="#bfbfbf" points="319.05,-326.5 319.05,-345.5 348.05,-345.5 348.05,-326.5 319.05,-326.5"/>
<text text-anchor="middle" x="333.55" y="-333.5" font-family="Helvetica,sans-Serif" font-size="10.00">int</text>
</a>
</g>
</g>
<!-- Node10&#45;&gt;Node8 -->
<g id="edge16" class="edge">
<title>Node10&#45;&gt;Node8</title>
<path fill="none" stroke="#9a32cd" stroke-dasharray="5,2" d="M329.96,-316.16C325.14,-290.87 316.78,-246.94 313.22,-228.28"/>
<polygon fill="#9a32cd" stroke="#9a32cd" points="326.59,-317.15 331.9,-326.32 333.46,-315.84 326.59,-317.15"/>
<text text-anchor="middle" x="345.05" y="-278" font-family="Helvetica,sans-Serif" font-size="10.00"> mount</text>
</g>
<!-- Node11 -->
<g id="node11" class="node">
<title>Node11</title>
<g id="a_node11"><a xlink:title=" ">
<polygon fill="none" stroke="#bfbfbf" points="366.55,-326.5 366.55,-345.5 404.55,-345.5 404.55,-326.5 366.55,-326.5"/>
<text text-anchor="middle" x="385.55" y="-333.5" font-family="Helvetica,sans-Serif" font-size="10.00">bool</text>
</a>
</g>
</g>
<!-- Node11&#45;&gt;Node8 -->
<g id="edge17" class="edge">
<title>Node11&#45;&gt;Node8</title>
<path fill="none" stroke="#9a32cd" stroke-dasharray="5,2" d="M384.39,-316.51C382.46,-298.72 377.3,-271.84 363.55,-253 355.51,-241.98 342.65,-233.65 331.73,-228.05"/>
<polygon fill="#9a32cd" stroke="#9a32cd" points="380.9,-316.81 385.24,-326.47 387.88,-316.21 380.9,-316.81"/>
<text text-anchor="middle" x="410.55" y="-300" font-family="Helvetica,sans-Serif" font-size="10.00"> readfile</text>
<text text-anchor="middle" x="410.55" y="-289" font-family="Helvetica,sans-Serif" font-size="10.00">rm</text>
<text text-anchor="middle" x="410.55" y="-278" font-family="Helvetica,sans-Serif" font-size="10.00">rmdir</text>
<text text-anchor="middle" x="410.55" y="-267" font-family="Helvetica,sans-Serif" font-size="10.00">truncatefile</text>
<text text-anchor="middle" x="410.55" y="-256" font-family="Helvetica,sans-Serif" font-size="10.00">writefile</text>
</g>
<!-- Node12 -->
<g id="node12" class="node">
<title>Node12</title>
<g id="a_node12"><a xlink:title=" ">
<polygon fill="none" stroke="#bfbfbf" points="104.55,-209 104.55,-228 150.55,-228 150.55,-209 104.55,-209"/>
<text text-anchor="middle" x="127.55" y="-216" font-family="Helvetica,sans-Serif" font-size="10.00">void *</text>
</a>
</g>
</g>
<!-- Node12&#45;&gt;Node1 -->
<g id="edge20" class="edge">
<title>Node12&#45;&gt;Node1</title>
<path fill="none" stroke="#9a32cd" stroke-dasharray="5,2" d="M124.48,-198.88C123.13,-184.67 123.53,-165.18 132.55,-151 141.31,-137.23 150.68,-141.59 164.55,-133 173.74,-127.31 183.82,-120.44 191.43,-115.12"/>
<polygon fill="#9a32cd" stroke="#9a32cd" points="121.03,-199.48 125.8,-208.94 127.97,-198.57 121.03,-199.48"/>
<text text-anchor="middle" x="152.55" y="-165" font-family="Helvetica,sans-Serif" font-size="10.00"> opaque</text>
</g>
</g>
</svg>
