<?xml version="1.0" encoding="UTF-8" standalone="no"?>
<!DOCTYPE svg PUBLIC "-//W3C//DTD SVG 1.1//EN"
 "http://www.w3.org/Graphics/SVG/1.1/DTD/svg11.dtd">
<!-- Generated by graphviz version 2.43.0 (0)
 -->
<!-- Title: partition_table_t Pages: 1 -->
<svg width="219pt" height="195pt"
 viewBox="0.00 0.00 219.00 195.00" xmlns="http://www.w3.org/2000/svg" xmlns:xlink="http://www.w3.org/1999/xlink">
<g id="graph0" class="graph" transform="scale(1 1) rotate(0) translate(4 191)">
<title>partition_table_t</title>
<!-- Node1 -->
<g id="node1" class="node">
<title>Node1</title>
<g id="a_node1"><a xlink:title="A disk partition table consisiting of four partition_t.">
<polygon fill="#bfbfbf" stroke="black" points="47.5,-0.5 47.5,-19.5 144.5,-19.5 144.5,-0.5 47.5,-0.5"/>
<text text-anchor="middle" x="96" y="-7.5" font-family="Helvetica,sans-Serif" font-size="10.00">partition_table_t</text>
</a>
</g>
</g>
<!-- Node2 -->
<g id="node2" class="node">
<title>Node2</title>
<g id="a_node2"><a xlink:href="structpartition__t.html" target="_top" xlink:title="A disk partition on a storage device.">
<polygon fill="none" stroke="black" points="62.5,-67.5 62.5,-86.5 129.5,-86.5 129.5,-67.5 62.5,-67.5"/>
<text text-anchor="middle" x="96" y="-74.5" font-family="Helvetica,sans-Serif" font-size="10.00">partition_t</text>
</a>
</g>
</g>
<!-- Node2&#45;&gt;Node1 -->
<g id="edge1" class="edge">
<title>Node2&#45;&gt;Node1</title>
<path fill="none" stroke="#9a32cd" stroke-dasharray="5,2" d="M96,-57.04C96,-44.67 96,-29.12 96,-19.63"/>
<polygon fill="#9a32cd" stroke="#9a32cd" points="92.5,-57.23 96,-67.23 99.5,-57.23 92.5,-57.23"/>
<text text-anchor="middle" x="116" y="-41" font-family="Helvetica,sans-Serif" font-size="10.00"> p_entry</text>
</g>
<!-- Node3 -->
<g id="node3" class="node">
<title>Node3</title>
<g id="a_node3"><a xlink:title=" ">
<polygon fill="none" stroke="black" points="0,-167.5 0,-186.5 50,-186.5 50,-167.5 0,-167.5"/>
<text text-anchor="middle" x="25" y="-174.5" font-family="Helvetica,sans-Serif" font-size="10.00">uint8_t</text>
</a>
</g>
</g>
<!-- Node3&#45;&gt;Node2 -->
<g id="edge2" class="edge">
<title>Node3&#45;&gt;Node2</title>
<path fill="none" stroke="#9a32cd" stroke-dasharray="5,2" d="M26.25,-157.15C28.16,-141.66 32.96,-119.91 45,-105 51.61,-96.82 61.38,-90.8 70.6,-86.56"/>
<polygon fill="#9a32cd" stroke="#9a32cd" points="22.77,-156.85 25.31,-167.13 29.73,-157.51 22.77,-156.85"/>
<text text-anchor="middle" x="68.5" y="-141" font-family="Helvetica,sans-Serif" font-size="10.00"> bootable</text>
<text text-anchor="middle" x="68.5" y="-130" font-family="Helvetica,sans-Serif" font-size="10.00">endhead</text>
<text text-anchor="middle" x="68.5" y="-119" font-family="Helvetica,sans-Serif" font-size="10.00">starthead</text>
<text text-anchor="middle" x="68.5" y="-108" font-family="Helvetica,sans-Serif" font-size="10.00">systemid</text>
</g>
<!-- Node4 -->
<g id="node4" class="node">
<title>Node4</title>
<g id="a_node4"><a xlink:title=" ">
<polygon fill="none" stroke="black" points="68,-167.5 68,-186.5 124,-186.5 124,-167.5 68,-167.5"/>
<text text-anchor="middle" x="96" y="-174.5" font-family="Helvetica,sans-Serif" font-size="10.00">uint16_t</text>
</a>
</g>
</g>
<!-- Node4&#45;&gt;Node2 -->
<g id="edge3" class="edge">
<title>Node4&#45;&gt;Node2</title>
<path fill="none" stroke="#9a32cd" stroke-dasharray="5,2" d="M96,-157.22C96,-135.95 96,-102.22 96,-86.54"/>
<polygon fill="#9a32cd" stroke="#9a32cd" points="92.5,-157.3 96,-167.3 99.5,-157.3 92.5,-157.3"/>
<text text-anchor="middle" x="125" y="-130" font-family="Helvetica,sans-Serif" font-size="10.00"> endcylsect</text>
<text text-anchor="middle" x="125" y="-119" font-family="Helvetica,sans-Serif" font-size="10.00">startcylsect</text>
</g>
<!-- Node5 -->
<g id="node5" class="node">
<title>Node5</title>
<g id="a_node5"><a xlink:title=" ">
<polygon fill="none" stroke="black" points="149,-167.5 149,-186.5 205,-186.5 205,-167.5 149,-167.5"/>
<text text-anchor="middle" x="177" y="-174.5" font-family="Helvetica,sans-Serif" font-size="10.00">uint32_t</text>
</a>
</g>
</g>
<!-- Node5&#45;&gt;Node2 -->
<g id="edge4" class="edge">
<title>Node5&#45;&gt;Node2</title>
<path fill="none" stroke="#9a32cd" stroke-dasharray="5,2" d="M175.44,-157.44C173.23,-141.79 167.89,-119.66 155,-105 147.64,-96.62 137.15,-90.69 127.05,-86.56"/>
<polygon fill="#9a32cd" stroke="#9a32cd" points="171.97,-157.94 176.56,-167.49 178.93,-157.16 171.97,-157.94"/>
<text text-anchor="middle" x="192" y="-130" font-family="Helvetica,sans-Serif" font-size="10.00"> length</text>
<text text-anchor="middle" x="192" y="-119" font-family="Helvetica,sans-Serif" font-size="10.00">startlba</text>
</g>
</g>
</svg>
