<?xml version="1.0" encoding="UTF-8" standalone="no"?>
<!DOCTYPE svg PUBLIC "-//W3C//DTD SVG 1.1//EN"
 "http://www.w3.org/Graphics/SVG/1.1/DTD/svg11.dtd">
<!-- Generated by graphviz version 2.43.0 (0)
 -->
<!-- Title: tcp_conn_t Pages: 1 -->
<svg width="670pt" height="285pt"
 viewBox="0.00 0.00 670.00 285.00" xmlns="http://www.w3.org/2000/svg" xmlns:xlink="http://www.w3.org/1999/xlink">
<g id="graph0" class="graph" transform="scale(1 1) rotate(0) translate(4 281)">
<title>tcp_conn_t</title>
<!-- Node1 -->
<g id="node1" class="node">
<title>Node1</title>
<g id="a_node1"><a xlink:title=" ">
<polygon fill="#bfbfbf" stroke="black" points="334.5,-0.5 334.5,-19.5 403.5,-19.5 403.5,-0.5 334.5,-0.5"/>
<text text-anchor="middle" x="369" y="-7.5" font-family="Helvetica,sans-Serif" font-size="10.00">tcp_conn_t</text>
</a>
</g>
</g>
<!-- Node2 -->
<g id="node2" class="node">
<title>Node2</title>
<g id="a_node2"><a xlink:title=" ">
<polygon fill="none" stroke="#bfbfbf" points="0,-189.5 0,-208.5 56,-208.5 56,-189.5 0,-189.5"/>
<text text-anchor="middle" x="28" y="-196.5" font-family="Helvetica,sans-Serif" font-size="10.00">uint16_t</text>
</a>
</g>
</g>
<!-- Node2&#45;&gt;Node1 -->
<g id="edge1" class="edge">
<title>Node2&#45;&gt;Node1</title>
<path fill="none" stroke="#9a32cd" stroke-dasharray="5,2" d="M21.08,-179.53C10,-146.41 -7.02,-76.75 29,-38 49.48,-15.96 251.76,-11.9 334.25,-11.16"/>
<polygon fill="#9a32cd" stroke="#9a32cd" points="17.89,-181.01 24.53,-189.27 24.49,-178.67 17.89,-181.01"/>
<text text-anchor="middle" x="59.5" y="-107" font-family="Helvetica,sans-Serif" font-size="10.00"> local_port</text>
<text text-anchor="middle" x="59.5" y="-96" font-family="Helvetica,sans-Serif" font-size="10.00">remote_port</text>
</g>
<!-- Node3 -->
<g id="node3" class="node">
<title>Node3</title>
<g id="a_node3"><a xlink:title=" ">
<polygon fill="none" stroke="#bfbfbf" points="111.5,-257.5 111.5,-276.5 156.5,-276.5 156.5,-257.5 111.5,-257.5"/>
<text text-anchor="middle" x="134" y="-264.5" font-family="Helvetica,sans-Serif" font-size="10.00">size_t</text>
</a>
</g>
</g>
<!-- Node3&#45;&gt;Node1 -->
<g id="edge2" class="edge">
<title>Node3&#45;&gt;Node1</title>
<path fill="none" stroke="#9a32cd" stroke-dasharray="5,2" d="M123.01,-248.35C114.5,-232.33 105.34,-208.2 113,-188 144.61,-104.7 169.16,-83.1 246,-38 273.06,-22.12 308.43,-15.56 334.29,-12.86"/>
<polygon fill="#9a32cd" stroke="#9a32cd" points="120.06,-250.23 128.07,-257.16 126.13,-246.75 120.06,-250.23"/>
<text text-anchor="middle" x="152.5" y="-202" font-family="Helvetica,sans-Serif" font-size="10.00"> recv_buffer_len</text>
<text text-anchor="middle" x="152.5" y="-191" font-family="Helvetica,sans-Serif" font-size="10.00">send_buffer_len</text>
</g>
<!-- Node7 -->
<g id="node7" class="node">
<title>Node7</title>
<g id="a_node7"><a xlink:href="structtcp__ordered__list__t.html" target="_top" xlink:title=" ">
<polygon fill="none" stroke="black" points="201,-189.5 201,-208.5 305,-208.5 305,-189.5 201,-189.5"/>
<text text-anchor="middle" x="253" y="-196.5" font-family="Helvetica,sans-Serif" font-size="10.00">tcp_ordered_list_t</text>
</a>
</g>
</g>
<!-- Node3&#45;&gt;Node7 -->
<g id="edge7" class="edge">
<title>Node3&#45;&gt;Node7</title>
<path fill="none" stroke="#9a32cd" stroke-dasharray="5,2" d="M158.31,-252.51C182,-239.38 217.3,-219.8 237.44,-208.63"/>
<polygon fill="#9a32cd" stroke="#9a32cd" points="156.6,-249.46 149.56,-257.37 160,-255.58 156.6,-249.46"/>
<text text-anchor="middle" x="209.5" y="-231" font-family="Helvetica,sans-Serif" font-size="10.00"> len</text>
</g>
<!-- Node4 -->
<g id="node4" class="node">
<title>Node4</title>
<g id="a_node4"><a xlink:title=" ">
<polygon fill="none" stroke="#bfbfbf" points="366,-189.5 366,-208.5 422,-208.5 422,-189.5 366,-189.5"/>
<text text-anchor="middle" x="394" y="-196.5" font-family="Helvetica,sans-Serif" font-size="10.00">uint32_t</text>
</a>
</g>
</g>
<!-- Node4&#45;&gt;Node1 -->
<g id="edge3" class="edge">
<title>Node4&#45;&gt;Node1</title>
<path fill="none" stroke="#9a32cd" stroke-dasharray="5,2" d="M376.86,-181.75C374.06,-178.17 371.56,-174.18 370,-170 349.81,-115.95 361.92,-44.18 367.05,-19.64"/>
<polygon fill="#9a32cd" stroke="#9a32cd" points="374.35,-184.2 383.65,-189.28 379.55,-179.51 374.35,-184.2"/>
<text text-anchor="middle" x="401.5" y="-162" font-family="Helvetica,sans-Serif" font-size="10.00"> irs</text>
<text text-anchor="middle" x="401.5" y="-151" font-family="Helvetica,sans-Serif" font-size="10.00">iss</text>
<text text-anchor="middle" x="401.5" y="-140" font-family="Helvetica,sans-Serif" font-size="10.00">local_addr</text>
<text text-anchor="middle" x="401.5" y="-129" font-family="Helvetica,sans-Serif" font-size="10.00">msl_time</text>
<text text-anchor="middle" x="401.5" y="-118" font-family="Helvetica,sans-Serif" font-size="10.00">rcv_lst</text>
<text text-anchor="middle" x="401.5" y="-107" font-family="Helvetica,sans-Serif" font-size="10.00">rcv_nxt</text>
<text text-anchor="middle" x="401.5" y="-96" font-family="Helvetica,sans-Serif" font-size="10.00">rcv_up</text>
<text text-anchor="middle" x="401.5" y="-85" font-family="Helvetica,sans-Serif" font-size="10.00">rcv_wnd</text>
<text text-anchor="start" x="370" y="-74" font-family="Helvetica,sans-Serif" font-size="10.00">recv_buffer</text>
<text text-anchor="middle" x="401.5" y="-63" font-family="Helvetica,sans-Serif" font-size="10.00">_spinlock</text>
<text text-anchor="middle" x="401.5" y="-52" font-family="Helvetica,sans-Serif" font-size="10.00">remote_addr</text>
<text text-anchor="middle" x="401.5" y="-41" font-family="Helvetica,sans-Serif" font-size="10.00">...</text>
</g>
<!-- Node5 -->
<g id="node5" class="node">
<title>Node5</title>
<g id="a_node5"><a xlink:title=" ">
<polygon fill="none" stroke="#bfbfbf" points="440.5,-189.5 440.5,-208.5 469.5,-208.5 469.5,-189.5 440.5,-189.5"/>
<text text-anchor="middle" x="455" y="-196.5" font-family="Helvetica,sans-Serif" font-size="10.00">int</text>
</a>
</g>
</g>
<!-- Node5&#45;&gt;Node1 -->
<g id="edge4" class="edge">
<title>Node5&#45;&gt;Node1</title>
<path fill="none" stroke="#9a32cd" stroke-dasharray="5,2" d="M454.69,-179.2C453.72,-141.8 449.7,-59.78 433,-38 425.81,-28.62 414.74,-22.47 403.83,-18.44"/>
<polygon fill="#9a32cd" stroke="#9a32cd" points="451.19,-179.34 454.91,-189.26 458.19,-179.19 451.19,-179.34"/>
<text text-anchor="middle" x="487.5" y="-112.5" font-family="Helvetica,sans-Serif" font-size="10.00"> fd</text>
<text text-anchor="middle" x="487.5" y="-101.5" font-family="Helvetica,sans-Serif" font-size="10.00">recv_eof_pos</text>
<text text-anchor="middle" x="487.5" y="-90.5" font-family="Helvetica,sans-Serif" font-size="10.00">send_eof_pos</text>
</g>
<!-- Node6 -->
<g id="node6" class="node">
<title>Node6</title>
<g id="a_node6"><a xlink:title=" ">
<polygon fill="none" stroke="#bfbfbf" points="520,-189.5 520,-208.5 570,-208.5 570,-189.5 520,-189.5"/>
<text text-anchor="middle" x="545" y="-196.5" font-family="Helvetica,sans-Serif" font-size="10.00">uint8_t</text>
</a>
</g>
</g>
<!-- Node6&#45;&gt;Node1 -->
<g id="edge5" class="edge">
<title>Node6&#45;&gt;Node1</title>
<path fill="none" stroke="#9a32cd" stroke-dasharray="5,2" d="M545.08,-178.87C544.83,-140.85 542.04,-57.76 523,-38 506.94,-21.34 443.96,-14.89 403.69,-12.45"/>
<polygon fill="#9a32cd" stroke="#9a32cd" points="541.58,-179.1 545.1,-189.1 548.58,-179.09 541.58,-179.1"/>
<text text-anchor="middle" x="573" y="-107" font-family="Helvetica,sans-Serif" font-size="10.00"> recv_buffer</text>
<text text-anchor="middle" x="573" y="-96" font-family="Helvetica,sans-Serif" font-size="10.00">send_buffer</text>
</g>
<!-- Node7&#45;&gt;Node1 -->
<g id="edge6" class="edge">
<title>Node7&#45;&gt;Node1</title>
<path fill="none" stroke="#9a32cd" stroke-dasharray="5,2" d="M251.42,-179.4C249.7,-146.59 251.04,-78.09 287,-38 299.01,-24.61 317.78,-17.84 334.33,-14.43"/>
<polygon fill="#9a32cd" stroke="#9a32cd" points="247.93,-179.68 252.11,-189.42 254.92,-179.2 247.93,-179.68"/>
<text text-anchor="middle" x="320.5" y="-101.5" font-family="Helvetica,sans-Serif" font-size="10.00"> segment_list</text>
</g>
<!-- Node7&#45;&gt;Node7 -->
<g id="edge9" class="edge">
<title>Node7&#45;&gt;Node7</title>
<path fill="none" stroke="#9a32cd" stroke-dasharray="5,2" d="M315.4,-203.77C320.11,-202.71 323,-201.12 323,-199 323,-195.61 315.59,-193.58 305.2,-192.89"/>
<polygon fill="#9a32cd" stroke="#9a32cd" points="314.66,-200.34 305.2,-205.11 315.57,-207.28 314.66,-200.34"/>
<text text-anchor="middle" x="335.5" y="-202" font-family="Helvetica,sans-Serif" font-size="10.00"> next</text>
<text text-anchor="middle" x="335.5" y="-191" font-family="Helvetica,sans-Serif" font-size="10.00">prev</text>
</g>
<!-- Node8 -->
<g id="node8" class="node">
<title>Node8</title>
<g id="a_node8"><a xlink:title=" ">
<polygon fill="none" stroke="#bfbfbf" points="204.5,-257.5 204.5,-276.5 301.5,-276.5 301.5,-257.5 204.5,-257.5"/>
<text text-anchor="middle" x="253" y="-264.5" font-family="Helvetica,sans-Serif" font-size="10.00">tcp_segment_t *</text>
</a>
</g>
</g>
<!-- Node8&#45;&gt;Node7 -->
<g id="edge8" class="edge">
<title>Node8&#45;&gt;Node7</title>
<path fill="none" stroke="#9a32cd" stroke-dasharray="5,2" d="M253,-247.04C253,-234.47 253,-218.56 253,-208.84"/>
<polygon fill="#9a32cd" stroke="#9a32cd" points="249.5,-247.37 253,-257.37 256.5,-247.37 249.5,-247.37"/>
<text text-anchor="middle" x="276" y="-231" font-family="Helvetica,sans-Serif" font-size="10.00"> segment</text>
</g>
<!-- Node9 -->
<g id="node9" class="node">
<title>Node9</title>
<g id="a_node9"><a xlink:title=" ">
<polygon fill="none" stroke="#bfbfbf" points="590.5,-189.5 590.5,-208.5 661.5,-208.5 661.5,-189.5 590.5,-189.5"/>
<text text-anchor="middle" x="626" y="-196.5" font-family="Helvetica,sans-Serif" font-size="10.00">tcp_state_t</text>
</a>
</g>
</g>
<!-- Node9&#45;&gt;Node1 -->
<g id="edge10" class="edge">
<title>Node9&#45;&gt;Node1</title>
<path fill="none" stroke="#9a32cd" stroke-dasharray="5,2" d="M629.92,-179.26C635.73,-145.69 642.18,-75.34 604,-38 589.94,-24.25 465.42,-15.96 403.56,-12.66"/>
<polygon fill="#9a32cd" stroke="#9a32cd" points="626.47,-178.65 628.04,-189.13 633.35,-179.96 626.47,-178.65"/>
<text text-anchor="middle" x="648" y="-101.5" font-family="Helvetica,sans-Serif" font-size="10.00"> state</text>
</g>
</g>
</svg>
