<?xml version="1.0" encoding="UTF-8" standalone="no"?>
<!DOCTYPE svg PUBLIC "-//W3C//DTD SVG 1.1//EN"
 "http://www.w3.org/Graphics/SVG/1.1/DTD/svg11.dtd">
<!-- Generated by graphviz version 2.43.0 (0)
 -->
<!-- Title: ip_packet Pages: 1 -->
<svg width="460pt" height="172pt"
 viewBox="0.00 0.00 460.00 172.00" xmlns="http://www.w3.org/2000/svg" xmlns:xlink="http://www.w3.org/1999/xlink">
<g id="graph0" class="graph" transform="scale(1 1) rotate(0) translate(4 168)">
<title>ip_packet</title>
<!-- Node1 -->
<g id="node1" class="node">
<title>Node1</title>
<g id="a_node1"><a xlink:title="Structure for an IP packet.">
<polygon fill="#bfbfbf" stroke="black" points="189,-0.5 189,-19.5 252,-19.5 252,-0.5 189,-0.5"/>
<text text-anchor="middle" x="220.5" y="-7.5" font-family="Helvetica,sans-Serif" font-size="10.00">ip_packet</text>
</a>
</g>
</g>
<!-- Node2 -->
<g id="node2" class="node">
<title>Node2</title>
<g id="a_node2"><a xlink:title=" ">
<polygon fill="none" stroke="#bfbfbf" points="0,-144.5 0,-163.5 59,-163.5 59,-144.5 0,-144.5"/>
<text text-anchor="middle" x="29.5" y="-151.5" font-family="Helvetica,sans-Serif" font-size="10.00">ip_frag_t</text>
</a>
</g>
</g>
<!-- Node2&#45;&gt;Node1 -->
<g id="edge1" class="edge">
<title>Node2&#45;&gt;Node1</title>
<path fill="none" stroke="#9a32cd" stroke-dasharray="5,2" d="M31.43,-134.49C35.16,-108.69 45.82,-62.36 75.5,-38 92.42,-24.11 151.44,-16.73 188.76,-13.36"/>
<polygon fill="#9a32cd" stroke="#9a32cd" points="27.95,-134.1 30.19,-144.46 34.9,-134.96 27.95,-134.1"/>
<text text-anchor="middle" x="87" y="-79.5" font-family="Helvetica,sans-Serif" font-size="10.00"> frag</text>
</g>
<!-- Node3 -->
<g id="node3" class="node">
<title>Node3</title>
<g id="a_node3"><a xlink:title=" ">
<polygon fill="none" stroke="#bfbfbf" points="77.5,-144.5 77.5,-163.5 133.5,-163.5 133.5,-144.5 77.5,-144.5"/>
<text text-anchor="middle" x="105.5" y="-151.5" font-family="Helvetica,sans-Serif" font-size="10.00">uint16_t</text>
</a>
</g>
</g>
<!-- Node3&#45;&gt;Node1 -->
<g id="edge2" class="edge">
<title>Node3&#45;&gt;Node1</title>
<path fill="none" stroke="#9a32cd" stroke-dasharray="5,2" d="M102.95,-134.12C100.67,-108.96 100.74,-64.54 124.5,-38 140.55,-20.07 167.47,-13.65 188.73,-11.53"/>
<polygon fill="#9a32cd" stroke="#9a32cd" points="99.49,-134.64 104.08,-144.19 106.44,-133.86 99.49,-134.64"/>
<text text-anchor="middle" x="170.5" y="-90.5" font-family="Helvetica,sans-Serif" font-size="10.00"> header_checksum</text>
<text text-anchor="middle" x="170.5" y="-79.5" font-family="Helvetica,sans-Serif" font-size="10.00">id</text>
<text text-anchor="middle" x="170.5" y="-68.5" font-family="Helvetica,sans-Serif" font-size="10.00">length</text>
</g>
<!-- Node4 -->
<g id="node4" class="node">
<title>Node4</title>
<g id="a_node4"><a xlink:title=" ">
<polygon fill="none" stroke="#bfbfbf" points="201.5,-144.5 201.5,-163.5 239.5,-163.5 239.5,-144.5 201.5,-144.5"/>
<text text-anchor="middle" x="220.5" y="-151.5" font-family="Helvetica,sans-Serif" font-size="10.00">char</text>
</a>
</g>
</g>
<!-- Node4&#45;&gt;Node1 -->
<g id="edge3" class="edge">
<title>Node4&#45;&gt;Node1</title>
<path fill="none" stroke="#9a32cd" stroke-dasharray="5,2" d="M220.5,-134.11C220.5,-102.93 220.5,-41.93 220.5,-19.52"/>
<polygon fill="#9a32cd" stroke="#9a32cd" points="217,-134.12 220.5,-144.12 224,-134.12 217,-134.12"/>
<text text-anchor="middle" x="268.5" y="-85" font-family="Helvetica,sans-Serif" font-size="10.00"> flags_fragment_ptr</text>
<text text-anchor="middle" x="268.5" y="-74" font-family="Helvetica,sans-Serif" font-size="10.00">version_ihl_ptr</text>
</g>
<!-- Node5 -->
<g id="node5" class="node">
<title>Node5</title>
<g id="a_node5"><a xlink:title=" ">
<polygon fill="none" stroke="#bfbfbf" points="314.5,-144.5 314.5,-163.5 364.5,-163.5 364.5,-144.5 314.5,-144.5"/>
<text text-anchor="middle" x="339.5" y="-151.5" font-family="Helvetica,sans-Serif" font-size="10.00">uint8_t</text>
</a>
</g>
</g>
<!-- Node5&#45;&gt;Node1 -->
<g id="edge4" class="edge">
<title>Node5&#45;&gt;Node1</title>
<path fill="none" stroke="#9a32cd" stroke-dasharray="5,2" d="M341.47,-134.43C343.06,-109.26 341.86,-64.45 317.5,-38 301.04,-20.13 273.86,-13.7 252.45,-11.56"/>
<polygon fill="#9a32cd" stroke="#9a32cd" points="337.98,-134.21 340.62,-144.47 344.95,-134.8 337.98,-134.21"/>
<text text-anchor="middle" x="361.5" y="-118" font-family="Helvetica,sans-Serif" font-size="10.00"> data</text>
<text text-anchor="middle" x="361.5" y="-107" font-family="Helvetica,sans-Serif" font-size="10.00">dst_ip</text>
<text text-anchor="middle" x="361.5" y="-96" font-family="Helvetica,sans-Serif" font-size="10.00">ihl</text>
<text text-anchor="middle" x="361.5" y="-85" font-family="Helvetica,sans-Serif" font-size="10.00">options</text>
<text text-anchor="middle" x="361.5" y="-74" font-family="Helvetica,sans-Serif" font-size="10.00">protocol</text>
<text text-anchor="middle" x="361.5" y="-63" font-family="Helvetica,sans-Serif" font-size="10.00">src_ip</text>
<text text-anchor="middle" x="361.5" y="-52" font-family="Helvetica,sans-Serif" font-size="10.00">ttl</text>
<text text-anchor="middle" x="361.5" y="-41" font-family="Helvetica,sans-Serif" font-size="10.00">version</text>
</g>
<!-- Node6 -->
<g id="node6" class="node">
<title>Node6</title>
<g id="a_node6"><a xlink:title=" ">
<polygon fill="none" stroke="#bfbfbf" points="383,-144.5 383,-163.5 452,-163.5 452,-144.5 383,-144.5"/>
<text text-anchor="middle" x="417.5" y="-151.5" font-family="Helvetica,sans-Serif" font-size="10.00">tos_flags_t</text>
</a>
</g>
</g>
<!-- Node6&#45;&gt;Node1 -->
<g id="edge5" class="edge">
<title>Node6&#45;&gt;Node1</title>
<path fill="none" stroke="#9a32cd" stroke-dasharray="5,2" d="M418.04,-133.86C417.65,-108.04 412.8,-62.47 385.5,-38 366.32,-20.81 294.41,-14.47 252.12,-12.21"/>
<polygon fill="#9a32cd" stroke="#9a32cd" points="414.54,-134.16 417.97,-144.19 421.54,-134.21 414.54,-134.16"/>
<text text-anchor="middle" x="427" y="-79.5" font-family="Helvetica,sans-Serif" font-size="10.00"> tos</text>
</g>
</g>
</svg>
