<?xml version="1.0" encoding="UTF-8" standalone="no"?>
<!DOCTYPE svg PUBLIC "-//W3C//DTD SVG 1.1//EN"
 "http://www.w3.org/Graphics/SVG/1.1/DTD/svg11.dtd">
<!-- Generated by graphviz version 2.43.0 (0)
 -->
<!-- Title: basic_double_fn Pages: 1 -->
<!--zoomable 1262 -->
<svg id="main" version="1.1" xmlns="http://www.w3.org/2000/svg" xmlns:xlink="http://www.w3.org/1999/xlink" xml:space="preserve" onload="init(evt)">
<style type="text/css"><![CDATA[
.edge:hover path { stroke: red; }
.edge:hover polygon { stroke: red; fill: red; }
]]></style>
<script type="text/javascript"><![CDATA[
var edges = document.getElementsByTagName('g');
if (edges && edges.length) {
  for (var i=0;i<edges.length;i++) {
    if (edges[i].id.substr(0,4)=='edge') {
      edges[i].setAttribute('class','edge');
    }
  }
}
]]></script>
        <defs>
                <circle id="rim" cx="0" cy="0" r="7"/>
                <circle id="rim2" cx="0" cy="0" r="3.5"/>
                <g id="zoomPlus">
                        <use xlink:href="#rim" fill="#404040">
                                <set attributeName="fill" to="#808080" begin="zoomplus.mouseover" end="zoomplus.mouseout"/>
                        </use>
                        <path d="M-4,0h8M0,-4v8" fill="none" stroke="white" stroke-width="1.5" pointer-events="none"/>
                </g>
                <g id="zoomMin">
                        <use xlink:href="#rim" fill="#404040">
                                <set attributeName="fill" to="#808080" begin="zoomminus.mouseover" end="zoomminus.mouseout"/>
                        </use>
                        <path d="M-4,0h8" fill="none" stroke="white" stroke-width="1.5" pointer-events="none"/>
                </g>
                <g id="dirArrow">
                        <path fill="none" stroke="white" stroke-width="1.5" d="M0,-3.0v7 M-2.5,-0.5L0,-3.0L2.5,-0.5"/>
                </g>
               <g id="resetDef">
                       <use xlink:href="#rim2" fill="#404040">
                               <set attributeName="fill" to="#808080" begin="reset.mouseover" end="reset.mouseout"/>
                       </use>
               </g>
        </defs>

<script type="text/javascript">
var viewWidth = 794;
var viewHeight = 1262;
var sectionId = 'dynsection-0';
</script>
<script xlink:href="svgpan.js"/>
<svg id="graph" class="graph">
<g id="viewport">
<title>basic_double_fn</title>
<!-- Node1 -->
<g id="node1" class="node">
<title>Node1</title>
<g id="a_node1"><a xlink:title="Builtin real (double) function.">
<polygon fill="#bfbfbf" stroke="black" points="691,-905.38 691,-924.38 786,-924.38 786,-905.38 691,-905.38"/>
<text text-anchor="middle" x="738.5" y="-912.38" font-family="Helvetica,sans-Serif" font-size="10.00">basic_double_fn</text>
</a>
</g>
</g>
<!-- Node2 -->
<g id="node2" class="node">
<title>Node2</title>
<g id="a_node2"><a xlink:title=" ">
<polygon fill="none" stroke="#bfbfbf" points="0,-810.38 0,-829.38 38,-829.38 38,-810.38 0,-810.38"/>
<text text-anchor="middle" x="19" y="-817.38" font-family="Helvetica,sans-Serif" font-size="10.00">char</text>
</a>
</g>
</g>
<!-- Node2&#45;&gt;Node1 -->
<g id="edge1" class="edge">
<title>Node2&#45;&gt;Node1</title>
<path fill="none" stroke="#9a32cd" stroke-dasharray="5,2" d="M21.14,-839.74C24.68,-898.23 36.47,-1068.92 56,-1120.88 79.12,-1182.38 73.79,-1242.88 139.5,-1242.88 139.5,-1242.88 139.5,-1242.88 585,-1242.88 729.12,-1242.88 737.4,-979.27 737.57,-924.69"/>
<polygon fill="#9a32cd" stroke="#9a32cd" points="24.62,-839.39 20.54,-829.61 17.64,-839.8 24.62,-839.39"/>
<text text-anchor="middle" x="339.5" y="-1245.88" font-family="Helvetica,sans-Serif" font-size="10.00"> name</text>
</g>
<!-- Node3 -->
<g id="node3" class="node">
<title>Node3</title>
<g id="a_node3"><a xlink:href="structbasic__ctx.html" target="_top" xlink:title="BASIC program context. Every instance of a BASIC program has one of these,* also certain structures s...">
<polygon fill="none" stroke="black" points="553,-559.38 553,-578.38 615,-578.38 615,-559.38 553,-559.38"/>
<text text-anchor="middle" x="584" y="-566.38" font-family="Helvetica,sans-Serif" font-size="10.00">basic_ctx</text>
</a>
</g>
</g>
<!-- Node2&#45;&gt;Node3 -->
<g id="edge19" class="edge">
<title>Node2&#45;&gt;Node3</title>
<path fill="none" stroke="#9a32cd" stroke-dasharray="5,2" d="M19.3,-839.49C18.42,-884.33 20.25,-997.03 56,-1081.88 69.77,-1114.57 73.13,-1129.29 105,-1144.88 191.97,-1187.41 476.65,-1152.13 535,-1074.88 566.11,-1033.69 580.45,-645.03 582.69,-578.53"/>
<polygon fill="#9a32cd" stroke="#9a32cd" points="22.8,-839.48 19.58,-829.39 15.81,-839.29 22.8,-839.48"/>
<text text-anchor="middle" x="228" y="-1209.88" font-family="Helvetica,sans-Serif" font-size="10.00"> item_begin</text>
<text text-anchor="middle" x="228" y="-1198.88" font-family="Helvetica,sans-Serif" font-size="10.00">nextptr</text>
<text text-anchor="middle" x="228" y="-1187.88" font-family="Helvetica,sans-Serif" font-size="10.00">program_ptr</text>
<text text-anchor="middle" x="228" y="-1176.88" font-family="Helvetica,sans-Serif" font-size="10.00">ptr</text>
<text text-anchor="middle" x="228" y="-1165.88" font-family="Helvetica,sans-Serif" font-size="10.00">string</text>
</g>
<!-- Node5 -->
<g id="node5" class="node">
<title>Node5</title>
<g id="a_node5"><a xlink:href="structub__var__double__array.html" target="_top" xlink:title="An array of real (double)">
<polygon fill="none" stroke="black" points="280,-918.38 280,-937.38 399,-937.38 399,-918.38 280,-918.38"/>
<text text-anchor="middle" x="339.5" y="-925.38" font-family="Helvetica,sans-Serif" font-size="10.00">ub_var_double_array</text>
</a>
</g>
</g>
<!-- Node2&#45;&gt;Node5 -->
<g id="edge8" class="edge">
<title>Node2&#45;&gt;Node5</title>
<path fill="none" stroke="#9a32cd" stroke-dasharray="5,2" d="M30.38,-838.66C44.7,-863.29 72.44,-906.78 105,-935.88 138.99,-966.26 149.94,-975.15 194,-986.88 223.21,-994.65 233.39,-996.63 262,-986.88 290.58,-977.14 316.79,-951.93 329.83,-937.82"/>
<polygon fill="#9a32cd" stroke="#9a32cd" points="33.24,-836.61 25.26,-829.65 27.16,-840.07 33.24,-836.61"/>
<text text-anchor="middle" x="140.5" y="-983.88" font-family="Helvetica,sans-Serif" font-size="10.00"> varname</text>
</g>
<!-- Node8 -->
<g id="node8" class="node">
<title>Node8</title>
<g id="a_node8"><a xlink:href="structub__var__string__array.html" target="_top" xlink:title="An array of strings.">
<polygon fill="none" stroke="black" points="283,-579.38 283,-598.38 396,-598.38 396,-579.38 283,-579.38"/>
<text text-anchor="middle" x="339.5" y="-586.38" font-family="Helvetica,sans-Serif" font-size="10.00">ub_var_string_array</text>
</a>
</g>
</g>
<!-- Node2&#45;&gt;Node8 -->
<g id="edge12" class="edge">
<title>Node2&#45;&gt;Node8</title>
<path fill="none" stroke="#9a32cd" stroke-dasharray="5,2" d="M23.11,-800.19C30.15,-763.06 51.08,-683.35 105,-648.88 164.53,-610.82 194.36,-644.32 262,-623.88 283.11,-617.5 305.93,-606.47 321.1,-598.49"/>
<polygon fill="#9a32cd" stroke="#9a32cd" points="19.63,-799.79 21.35,-810.24 26.52,-801 19.63,-799.79"/>
<text text-anchor="middle" x="140.5" y="-662.88" font-family="Helvetica,sans-Serif" font-size="10.00"> values</text>
<text text-anchor="middle" x="140.5" y="-651.88" font-family="Helvetica,sans-Serif" font-size="10.00">varname</text>
</g>
<!-- Node9 -->
<g id="node9" class="node">
<title>Node9</title>
<g id="a_node9"><a xlink:href="structub__var__int.html" target="_top" xlink:title="An integer variable.">
<polygon fill="none" stroke="black" points="305.5,-646.38 305.5,-665.38 373.5,-665.38 373.5,-646.38 305.5,-646.38"/>
<text text-anchor="middle" x="339.5" y="-653.38" font-family="Helvetica,sans-Serif" font-size="10.00">ub_var_int</text>
</a>
</g>
</g>
<!-- Node2&#45;&gt;Node9 -->
<g id="edge15" class="edge">
<title>Node2&#45;&gt;Node9</title>
<path fill="none" stroke="#9a32cd" stroke-dasharray="5,2" d="M29.95,-801.28C43.78,-777.07 70.99,-734.88 105,-709.88 165.51,-665.39 256.77,-656.79 305.34,-655.59"/>
<polygon fill="#9a32cd" stroke="#9a32cd" points="26.8,-799.74 25.01,-810.18 32.92,-803.13 26.8,-799.74"/>
<text text-anchor="middle" x="140.5" y="-712.88" font-family="Helvetica,sans-Serif" font-size="10.00"> varname</text>
</g>
<!-- Node12 -->
<g id="node12" class="node">
<title>Node12</title>
<g id="a_node12"><a xlink:href="structconsole.html" target="_top" xlink:title=" ">
<polygon fill="none" stroke="black" points="312.5,-227.38 312.5,-246.38 366.5,-246.38 366.5,-227.38 312.5,-227.38"/>
<text text-anchor="middle" x="339.5" y="-234.38" font-family="Helvetica,sans-Serif" font-size="10.00">console</text>
</a>
</g>
</g>
<!-- Node2&#45;&gt;Node12 -->
<g id="edge21" class="edge">
<title>Node2&#45;&gt;Node12</title>
<path fill="none" stroke="#9a32cd" stroke-dasharray="5,2" d="M19.61,-799.91C18.28,-707.55 18.09,-323.39 105,-252.88 120.78,-240.08 254.42,-237.51 312.13,-237"/>
<polygon fill="#9a32cd" stroke="#9a32cd" points="16.11,-800.17 19.78,-810.11 23.11,-800.05 16.11,-800.17"/>
<text text-anchor="middle" x="140.5" y="-277.88" font-family="Helvetica,sans-Serif" font-size="10.00"> buffer</text>
<text text-anchor="middle" x="140.5" y="-266.88" font-family="Helvetica,sans-Serif" font-size="10.00">dirty</text>
<text text-anchor="middle" x="140.5" y="-255.88" font-family="Helvetica,sans-Serif" font-size="10.00">internalbuffer</text>
</g>
<!-- Node16 -->
<g id="node16" class="node">
<title>Node16</title>
<g id="a_node16"><a xlink:href="structub__var__double.html" target="_top" xlink:title="A real (double) variable.">
<polygon fill="none" stroke="black" points="295.5,-838.38 295.5,-857.38 383.5,-857.38 383.5,-838.38 295.5,-838.38"/>
<text text-anchor="middle" x="339.5" y="-845.38" font-family="Helvetica,sans-Serif" font-size="10.00">ub_var_double</text>
</a>
</g>
</g>
<!-- Node2&#45;&gt;Node16 -->
<g id="edge29" class="edge">
<title>Node2&#45;&gt;Node16</title>
<path fill="none" stroke="#9a32cd" stroke-dasharray="5,2" d="M48.25,-822.36C104.09,-827.27 228.94,-838.25 295.23,-844.07"/>
<polygon fill="#9a32cd" stroke="#9a32cd" points="48.3,-818.85 38.04,-821.46 47.69,-825.83 48.3,-818.85"/>
<text text-anchor="middle" x="140.5" y="-835.88" font-family="Helvetica,sans-Serif" font-size="10.00"> varname</text>
</g>
<!-- Node19 -->
<g id="node19" class="node">
<title>Node19</title>
<g id="a_node19"><a xlink:href="structub__var__int__array.html" target="_top" xlink:title="An array of integers.">
<polygon fill="none" stroke="black" points="290.5,-367.38 290.5,-386.38 388.5,-386.38 388.5,-367.38 290.5,-367.38"/>
<text text-anchor="middle" x="339.5" y="-374.38" font-family="Helvetica,sans-Serif" font-size="10.00">ub_var_int_array</text>
</a>
</g>
</g>
<!-- Node2&#45;&gt;Node19 -->
<g id="edge36" class="edge">
<title>Node2&#45;&gt;Node19</title>
<path fill="none" stroke="#9a32cd" stroke-dasharray="5,2" d="M21.17,-800.02C26.01,-724.79 47.04,-458.72 105,-401.88 155.07,-352.78 243.26,-358.37 295.75,-367.33"/>
<polygon fill="#9a32cd" stroke="#9a32cd" points="17.67,-799.84 20.55,-810.04 24.66,-800.28 17.67,-799.84"/>
<text text-anchor="middle" x="140.5" y="-404.88" font-family="Helvetica,sans-Serif" font-size="10.00"> varname</text>
</g>
<!-- Node20 -->
<g id="node20" class="node">
<title>Node20</title>
<g id="a_node20"><a xlink:href="structub__proc__fn__def.html" target="_top" xlink:title="Procedure or function definition Each has a name, a type, a starting line and a parameter list.">
<polygon fill="none" stroke="black" points="294,-1016.38 294,-1035.38 385,-1035.38 385,-1016.38 294,-1016.38"/>
<text text-anchor="middle" x="339.5" y="-1023.38" font-family="Helvetica,sans-Serif" font-size="10.00">ub_proc_fn_def</text>
</a>
</g>
</g>
<!-- Node2&#45;&gt;Node20 -->
<g id="edge42" class="edge">
<title>Node2&#45;&gt;Node20</title>
<path fill="none" stroke="#9a32cd" stroke-dasharray="5,2" d="M22.99,-840.02C29.81,-878.01 50.4,-959.7 105,-995.88 161.73,-1033.47 243.44,-1034.85 293.64,-1031.23"/>
<polygon fill="#9a32cd" stroke="#9a32cd" points="26.37,-839.02 21.29,-829.73 19.46,-840.16 26.37,-839.02"/>
<text text-anchor="middle" x="140.5" y="-1025.88" font-family="Helvetica,sans-Serif" font-size="10.00"> name</text>
</g>
<!-- Node22 -->
<g id="node22" class="node">
<title>Node22</title>
<g id="a_node22"><a xlink:href="structub__param.html" target="_top" xlink:title="FN/PROC parameter.">
<polygon fill="none" stroke="black" points="108,-1087.38 108,-1106.38 173,-1106.38 173,-1087.38 108,-1087.38"/>
<text text-anchor="middle" x="140.5" y="-1094.38" font-family="Helvetica,sans-Serif" font-size="10.00">ub_param</text>
</a>
</g>
</g>
<!-- Node2&#45;&gt;Node22 -->
<g id="edge46" class="edge">
<title>Node2&#45;&gt;Node22</title>
<path fill="none" stroke="#9a32cd" stroke-dasharray="5,2" d="M21.66,-839.73C25.81,-886.17 37.63,-1000.48 56,-1033.88 69.83,-1059.02 98.39,-1077.12 118.24,-1087.3"/>
<polygon fill="#9a32cd" stroke="#9a32cd" points="25.12,-839.14 20.77,-829.48 18.15,-839.74 25.12,-839.14"/>
<text text-anchor="middle" x="71.5" y="-1069.88" font-family="Helvetica,sans-Serif" font-size="10.00"> name</text>
</g>
<!-- Node23 -->
<g id="node23" class="node">
<title>Node23</title>
<g id="a_node23"><a xlink:href="structub__var__string.html" target="_top" xlink:title="A string variable.">
<polygon fill="none" stroke="black" points="298,-771.38 298,-790.38 381,-790.38 381,-771.38 298,-771.38"/>
<text text-anchor="middle" x="339.5" y="-778.38" font-family="Helvetica,sans-Serif" font-size="10.00">ub_var_string</text>
</a>
</g>
</g>
<!-- Node2&#45;&gt;Node23 -->
<g id="edge49" class="edge">
<title>Node2&#45;&gt;Node23</title>
<path fill="none" stroke="#9a32cd" stroke-dasharray="5,2" d="M48.08,-811.97C64.52,-807.75 85.77,-803 105,-800.88 174.36,-793.22 192.79,-809.78 262,-800.88 277.79,-798.85 294.98,-794.55 309.06,-790.46"/>
<polygon fill="#9a32cd" stroke="#9a32cd" points="46.81,-808.68 38.04,-814.63 48.61,-815.45 46.81,-808.68"/>
<text text-anchor="middle" x="140.5" y="-814.88" font-family="Helvetica,sans-Serif" font-size="10.00"> value</text>
<text text-anchor="middle" x="140.5" y="-803.88" font-family="Helvetica,sans-Serif" font-size="10.00">varname</text>
</g>
<!-- Node25 -->
<g id="node25" class="node">
<title>Node25</title>
<g id="a_node25"><a xlink:href="structfor__state.html" target="_top" xlink:title="State for a FOR...NEXT loop.">
<polygon fill="none" stroke="black" points="309.5,-541.38 309.5,-560.38 369.5,-560.38 369.5,-541.38 309.5,-541.38"/>
<text text-anchor="middle" x="339.5" y="-548.38" font-family="Helvetica,sans-Serif" font-size="10.00">for_state</text>
</a>
</g>
</g>
<!-- Node2&#45;&gt;Node25 -->
<g id="edge54" class="edge">
<title>Node2&#45;&gt;Node25</title>
<path fill="none" stroke="#9a32cd" stroke-dasharray="5,2" d="M20.7,-799.97C22.61,-768.29 29.71,-705.31 56,-659.88 70.81,-634.29 79.13,-629.19 105,-614.88 140.5,-595.25 255.19,-568.84 309.49,-557.03"/>
<polygon fill="#9a32cd" stroke="#9a32cd" points="17.2,-799.98 20.21,-810.14 24.19,-800.33 17.2,-799.98"/>
<text text-anchor="middle" x="140.5" y="-617.88" font-family="Helvetica,sans-Serif" font-size="10.00"> for_variable</text>
</g>
<!-- Node3&#45;&gt;Node1 -->
<g id="edge2" class="edge">
<title>Node3&#45;&gt;Node1</title>
<path fill="none" stroke="#9a32cd" stroke-dasharray="5,2" d="M593.33,-587.78C621.46,-651.61 712.36,-857.84 733.21,-905.15"/>
<polygon fill="#9a32cd" stroke="#9a32cd" points="596.47,-586.23 589.24,-578.49 590.07,-589.06 596.47,-586.23"/>
<text text-anchor="middle" x="653" y="-764.88" font-family="Helvetica,sans-Serif" font-size="10.00"> handler</text>
</g>
<!-- Node4 -->
<g id="node4" class="node">
<title>Node4</title>
<g id="a_node4"><a xlink:title=" ">
<polygon fill="none" stroke="#bfbfbf" points="294.5,-434.38 294.5,-453.38 384.5,-453.38 384.5,-434.38 294.5,-434.38"/>
<text text-anchor="middle" x="339.5" y="-441.38" font-family="Helvetica,sans-Serif" font-size="10.00">ub_return_type</text>
</a>
</g>
</g>
<!-- Node4&#45;&gt;Node3 -->
<g id="edge3" class="edge">
<title>Node4&#45;&gt;Node3</title>
<path fill="none" stroke="#9a32cd" stroke-dasharray="5,2" d="M394.7,-436.18C436.79,-433.17 494.61,-435.86 535,-464.88 567.14,-487.97 578.32,-538 581.7,-559.14"/>
<polygon fill="#9a32cd" stroke="#9a32cd" points="394.29,-432.7 384.62,-437.03 394.88,-439.68 394.29,-432.7"/>
<text text-anchor="middle" x="476" y="-467.88" font-family="Helvetica,sans-Serif" font-size="10.00"> fn_type</text>
</g>
<!-- Node5&#45;&gt;Node3 -->
<g id="edge4" class="edge">
<title>Node5&#45;&gt;Node3</title>
<path fill="none" stroke="#9a32cd" stroke-dasharray="5,2" d="M409.58,-928.21C451.83,-924.55 503.62,-912.47 535,-877.88 576.3,-832.34 582.09,-625.49 582.88,-578.43"/>
<polygon fill="#9a32cd" stroke="#9a32cd" points="409.06,-924.74 399.33,-928.95 409.56,-931.72 409.06,-924.74"/>
<text text-anchor="middle" x="476" y="-929.88" font-family="Helvetica,sans-Serif" font-size="10.00"> double_array_variables</text>
</g>
<!-- Node5&#45;&gt;Node5 -->
<g id="edge5" class="edge">
<title>Node5&#45;&gt;Node5</title>
<path fill="none" stroke="#9a32cd" stroke-dasharray="5,2" d="M319.13,-947.28C320.49,-952.19 327.28,-955.88 339.5,-955.88 359.05,-955.88 364.7,-946.44 356.45,-937.64"/>
<polygon fill="#9a32cd" stroke="#9a32cd" points="322.51,-948.23 322.55,-937.64 315.91,-945.89 322.51,-948.23"/>
<text text-anchor="middle" x="339.5" y="-958.88" font-family="Helvetica,sans-Serif" font-size="10.00"> next</text>
</g>
<!-- Node6 -->
<g id="node6" class="node">
<title>Node6</title>
<g id="a_node6"><a xlink:title=" ">
<polygon fill="none" stroke="#bfbfbf" points="115.5,-907.38 115.5,-926.38 165.5,-926.38 165.5,-907.38 115.5,-907.38"/>
<text text-anchor="middle" x="140.5" y="-914.38" font-family="Helvetica,sans-Serif" font-size="10.00">double</text>
</a>
</g>
</g>
<!-- Node6&#45;&gt;Node5 -->
<g id="edge6" class="edge">
<title>Node6&#45;&gt;Node5</title>
<path fill="none" stroke="#9a32cd" stroke-dasharray="5,2" d="M175.97,-918.8C204.61,-920.4 246,-922.71 279.84,-924.6"/>
<polygon fill="#9a32cd" stroke="#9a32cd" points="175.84,-915.29 165.66,-918.23 175.45,-922.28 175.84,-915.29"/>
<text text-anchor="middle" x="228" y="-925.88" font-family="Helvetica,sans-Serif" font-size="10.00"> values</text>
</g>
<!-- Node6&#45;&gt;Node16 -->
<g id="edge28" class="edge">
<title>Node6&#45;&gt;Node16</title>
<path fill="none" stroke="#9a32cd" stroke-dasharray="5,2" d="M175.8,-909.61C200.21,-903.99 233.59,-895.41 262,-884.88 282.89,-877.13 305.75,-865.65 320.99,-857.54"/>
<polygon fill="#9a32cd" stroke="#9a32cd" points="174.92,-906.22 165.93,-911.83 176.45,-913.05 174.92,-906.22"/>
<text text-anchor="middle" x="228" y="-907.88" font-family="Helvetica,sans-Serif" font-size="10.00"> value</text>
</g>
<!-- Node7 -->
<g id="node7" class="node">
<title>Node7</title>
<g id="a_node7"><a xlink:title=" ">
<polygon fill="none" stroke="#bfbfbf" points="112.5,-422.38 112.5,-441.38 168.5,-441.38 168.5,-422.38 112.5,-422.38"/>
<text text-anchor="middle" x="140.5" y="-429.38" font-family="Helvetica,sans-Serif" font-size="10.00">uint64_t</text>
</a>
</g>
</g>
<!-- Node7&#45;&gt;Node3 -->
<g id="edge18" class="edge">
<title>Node7&#45;&gt;Node3</title>
<path fill="none" stroke="#9a32cd" stroke-dasharray="5,2" d="M159.05,-415.4C169.08,-406.18 182.01,-394.61 194,-384.88 223.12,-361.23 238.8,-364.36 262,-334.88 274.81,-318.6 262.75,-303.36 280,-291.88 324.03,-262.58 348.05,-277.71 399,-291.88 467,-310.79 493.14,-317.05 535,-373.88 579.04,-433.67 583.02,-528.96 583.12,-559.28"/>
<polygon fill="#9a32cd" stroke="#9a32cd" points="156.65,-412.85 151.7,-422.21 161.41,-417.98 156.65,-412.85"/>
<text text-anchor="middle" x="339.5" y="-349.88" font-family="Helvetica,sans-Serif" font-size="10.00"> call_stack</text>
<text text-anchor="middle" x="339.5" y="-338.88" font-family="Helvetica,sans-Serif" font-size="10.00">call_stack_ptr</text>
<text text-anchor="middle" x="339.5" y="-327.88" font-family="Helvetica,sans-Serif" font-size="10.00">for_stack_ptr</text>
<text text-anchor="middle" x="339.5" y="-316.88" font-family="Helvetica,sans-Serif" font-size="10.00">if_nest_level</text>
<text text-anchor="middle" x="339.5" y="-305.88" font-family="Helvetica,sans-Serif" font-size="10.00">repeat_stack</text>
<text text-anchor="middle" x="339.5" y="-294.88" font-family="Helvetica,sans-Serif" font-size="10.00">repeat_stack_ptr</text>
</g>
<!-- Node7&#45;&gt;Node5 -->
<g id="edge7" class="edge">
<title>Node7&#45;&gt;Node5</title>
<path fill="none" stroke="#9a32cd" stroke-dasharray="5,2" d="M158.21,-449.01C165.01,-457.1 172.17,-467.29 176,-477.88 202.66,-551.53 154.11,-762.47 194,-829.88 212.09,-860.45 235.78,-847.92 262,-871.88 271.84,-880.87 269.92,-887.15 280,-895.88 290.67,-905.13 304.46,-912.83 315.97,-918.36"/>
<polygon fill="#9a32cd" stroke="#9a32cd" points="160.68,-446.53 151.4,-441.42 155.47,-451.2 160.68,-446.53"/>
<text text-anchor="middle" x="228" y="-874.88" font-family="Helvetica,sans-Serif" font-size="10.00"> itemcount</text>
</g>
<!-- Node7&#45;&gt;Node8 -->
<g id="edge11" class="edge">
<title>Node7&#45;&gt;Node8</title>
<path fill="none" stroke="#9a32cd" stroke-dasharray="5,2" d="M156.62,-449.28C163.23,-457.54 170.68,-467.79 176,-477.88 187.61,-499.88 177.3,-512.44 194,-530.88 217.42,-556.72 253.92,-571.24 284.39,-579.3"/>
<polygon fill="#9a32cd" stroke="#9a32cd" points="159.23,-446.95 150.15,-441.49 153.84,-451.42 159.23,-446.95"/>
<text text-anchor="middle" x="228" y="-575.88" font-family="Helvetica,sans-Serif" font-size="10.00"> itemcount</text>
</g>
<!-- Node7&#45;&gt;Node19 -->
<g id="edge35" class="edge">
<title>Node7&#45;&gt;Node19</title>
<path fill="none" stroke="#9a32cd" stroke-dasharray="5,2" d="M166.52,-417.18C175.01,-412.69 184.71,-408.09 194,-404.88 225.27,-394.05 261.88,-387.02 290.43,-382.7"/>
<polygon fill="#9a32cd" stroke="#9a32cd" points="164.6,-414.24 157.52,-422.13 167.97,-420.37 164.6,-414.24"/>
<text text-anchor="middle" x="228" y="-407.88" font-family="Helvetica,sans-Serif" font-size="10.00"> itemcount</text>
</g>
<!-- Node8&#45;&gt;Node3 -->
<g id="edge9" class="edge">
<title>Node8&#45;&gt;Node3</title>
<path fill="none" stroke="#9a32cd" stroke-dasharray="5,2" d="M406.38,-583.44C454.07,-579.51 516.31,-574.38 552.74,-571.37"/>
<polygon fill="#9a32cd" stroke="#9a32cd" points="405.81,-579.98 396.13,-584.29 406.39,-586.96 405.81,-579.98"/>
<text text-anchor="middle" x="476" y="-585.88" font-family="Helvetica,sans-Serif" font-size="10.00"> string_array_variables</text>
</g>
<!-- Node8&#45;&gt;Node8 -->
<g id="edge10" class="edge">
<title>Node8&#45;&gt;Node8</title>
<path fill="none" stroke="#9a32cd" stroke-dasharray="5,2" d="M319.13,-608.28C320.49,-613.19 327.28,-616.88 339.5,-616.88 359.05,-616.88 364.7,-607.44 356.45,-598.64"/>
<polygon fill="#9a32cd" stroke="#9a32cd" points="322.51,-609.23 322.55,-598.64 315.91,-606.89 322.51,-609.23"/>
<text text-anchor="middle" x="339.5" y="-619.88" font-family="Helvetica,sans-Serif" font-size="10.00"> next</text>
</g>
<!-- Node9&#45;&gt;Node3 -->
<g id="edge13" class="edge">
<title>Node9&#45;&gt;Node3</title>
<path fill="none" stroke="#9a32cd" stroke-dasharray="5,2" d="M383.5,-646.39C423.66,-636.75 484.8,-620.09 535,-597.88 547.11,-592.52 559.9,-584.67 569.23,-578.49"/>
<polygon fill="#9a32cd" stroke="#9a32cd" points="382.68,-642.98 373.75,-648.69 384.29,-649.8 382.68,-642.98"/>
<text text-anchor="middle" x="476" y="-649.88" font-family="Helvetica,sans-Serif" font-size="10.00"> int_variables</text>
<text text-anchor="middle" x="476" y="-638.88" font-family="Helvetica,sans-Serif" font-size="10.00">local_int_variables</text>
</g>
<!-- Node9&#45;&gt;Node9 -->
<g id="edge14" class="edge">
<title>Node9&#45;&gt;Node9</title>
<path fill="none" stroke="#9a32cd" stroke-dasharray="5,2" d="M319.13,-675.28C320.49,-680.19 327.28,-683.88 339.5,-683.88 359.05,-683.88 364.7,-674.44 356.45,-665.64"/>
<polygon fill="#9a32cd" stroke="#9a32cd" points="322.51,-676.23 322.55,-665.64 315.91,-673.89 322.51,-676.23"/>
<text text-anchor="middle" x="339.5" y="-686.88" font-family="Helvetica,sans-Serif" font-size="10.00"> next</text>
</g>
<!-- Node10 -->
<g id="node10" class="node">
<title>Node10</title>
<g id="a_node10"><a xlink:title=" ">
<polygon fill="none" stroke="#bfbfbf" points="115.5,-487.38 115.5,-506.38 165.5,-506.38 165.5,-487.38 115.5,-487.38"/>
<text text-anchor="middle" x="140.5" y="-494.38" font-family="Helvetica,sans-Serif" font-size="10.00">int64_t</text>
</a>
</g>
</g>
<!-- Node10&#45;&gt;Node3 -->
<g id="edge24" class="edge">
<title>Node10&#45;&gt;Node3</title>
<path fill="none" stroke="#9a32cd" stroke-dasharray="5,2" d="M175.5,-486.44C181.6,-484.96 187.95,-483.67 194,-482.88 223.97,-478.95 231.83,-481.12 262,-482.88 386.12,-490.1 420.48,-495.48 535,-543.88 545.56,-548.34 556.96,-554.23 565.99,-559.17"/>
<polygon fill="#9a32cd" stroke="#9a32cd" points="174.32,-483.13 165.54,-489.06 176.1,-489.9 174.32,-483.13"/>
<text text-anchor="middle" x="339.5" y="-521.88" font-family="Helvetica,sans-Serif" font-size="10.00"> current_linenum</text>
<text text-anchor="middle" x="339.5" y="-510.88" font-family="Helvetica,sans-Serif" font-size="10.00">eval_linenum</text>
<text text-anchor="middle" x="339.5" y="-499.88" font-family="Helvetica,sans-Serif" font-size="10.00">highest_line</text>
</g>
<!-- Node10&#45;&gt;Node9 -->
<g id="edge16" class="edge">
<title>Node10&#45;&gt;Node9</title>
<path fill="none" stroke="#9a32cd" stroke-dasharray="5,2" d="M152.11,-515.34C167.34,-541.83 193.63,-587.51 194,-587.88 225.26,-618.97 273.43,-637.67 305.45,-647.38"/>
<polygon fill="#9a32cd" stroke="#9a32cd" points="155.09,-513.49 147.07,-506.57 149.02,-516.98 155.09,-513.49"/>
<text text-anchor="middle" x="228" y="-633.88" font-family="Helvetica,sans-Serif" font-size="10.00"> value</text>
</g>
<!-- Node10&#45;&gt;Node19 -->
<g id="edge37" class="edge">
<title>Node10&#45;&gt;Node19</title>
<path fill="none" stroke="#9a32cd" stroke-dasharray="5,2" d="M153.94,-478.81C163.56,-466.06 177.92,-449.43 194,-438.88 220.68,-421.38 232.6,-428.27 262,-415.88 283.02,-407.02 306.24,-394.82 321.52,-386.44"/>
<polygon fill="#9a32cd" stroke="#9a32cd" points="150.85,-477.11 147.82,-487.27 156.52,-481.22 150.85,-477.11"/>
<text text-anchor="middle" x="228" y="-441.88" font-family="Helvetica,sans-Serif" font-size="10.00"> values</text>
</g>
<!-- Node10&#45;&gt;Node20 -->
<g id="edge43" class="edge">
<title>Node10&#45;&gt;Node20</title>
<path fill="none" stroke="#9a32cd" stroke-dasharray="5,2" d="M154.71,-514.61C162.44,-526.05 171.53,-541.59 176,-556.88 187.9,-597.55 172.37,-901.43 194,-937.88 218.81,-979.68 271.93,-1004.22 306.39,-1016.33"/>
<polygon fill="#9a32cd" stroke="#9a32cd" points="157.54,-512.56 148.92,-506.4 151.82,-516.59 157.54,-512.56"/>
<text text-anchor="middle" x="228" y="-998.88" font-family="Helvetica,sans-Serif" font-size="10.00"> line</text>
</g>
<!-- Node10&#45;&gt;Node25 -->
<g id="edge55" class="edge">
<title>Node10&#45;&gt;Node25</title>
<path fill="none" stroke="#9a32cd" stroke-dasharray="5,2" d="M175.82,-488.75C201.25,-484.64 235.87,-483.2 262,-497.88 275.23,-505.31 268.42,-517.08 280,-526.88 288.46,-534.04 299.35,-539.29 309.44,-543.01"/>
<polygon fill="#9a32cd" stroke="#9a32cd" points="175.09,-485.32 165.88,-490.57 176.35,-492.21 175.09,-485.32"/>
<text text-anchor="middle" x="228" y="-522.88" font-family="Helvetica,sans-Serif" font-size="10.00"> line_after_for</text>
<text text-anchor="middle" x="228" y="-511.88" font-family="Helvetica,sans-Serif" font-size="10.00">step</text>
<text text-anchor="middle" x="228" y="-500.88" font-family="Helvetica,sans-Serif" font-size="10.00">to</text>
</g>
<!-- Node11 -->
<g id="node11" class="node">
<title>Node11</title>
<g id="a_node11"><a xlink:title=" ">
<polygon fill="none" stroke="#bfbfbf" points="121.5,-730.38 121.5,-749.38 159.5,-749.38 159.5,-730.38 121.5,-730.38"/>
<text text-anchor="middle" x="140.5" y="-737.38" font-family="Helvetica,sans-Serif" font-size="10.00">bool</text>
</a>
</g>
</g>
<!-- Node11&#45;&gt;Node3 -->
<g id="edge39" class="edge">
<title>Node11&#45;&gt;Node3</title>
<path fill="none" stroke="#9a32cd" stroke-dasharray="5,2" d="M170.03,-737.74C250.84,-731.16 479.02,-708.74 535,-661.88 562.03,-639.25 575.66,-597.51 580.67,-578.62"/>
<polygon fill="#9a32cd" stroke="#9a32cd" points="169.33,-734.28 159.64,-738.57 169.89,-741.26 169.33,-734.28"/>
<text text-anchor="middle" x="339.5" y="-739.88" font-family="Helvetica,sans-Serif" font-size="10.00"> ended</text>
<text text-anchor="middle" x="339.5" y="-728.88" font-family="Helvetica,sans-Serif" font-size="10.00">errored</text>
</g>
<!-- Node11&#45;&gt;Node9 -->
<g id="edge17" class="edge">
<title>Node11&#45;&gt;Node9</title>
<path fill="none" stroke="#9a32cd" stroke-dasharray="5,2" d="M160.87,-723.71C175.03,-711.93 192.08,-697.88 194,-696.88 213.3,-686.8 268.91,-672.42 305.25,-663.64"/>
<polygon fill="#9a32cd" stroke="#9a32cd" points="158.45,-721.17 153,-730.26 162.93,-726.55 158.45,-721.17"/>
<text text-anchor="middle" x="228" y="-699.88" font-family="Helvetica,sans-Serif" font-size="10.00"> global</text>
</g>
<!-- Node11&#45;&gt;Node16 -->
<g id="edge31" class="edge">
<title>Node11&#45;&gt;Node16</title>
<path fill="none" stroke="#9a32cd" stroke-dasharray="5,2" d="M166.99,-754.69C191.73,-769.31 230.1,-792.63 262,-814.88 270.31,-820.67 271.05,-824.13 280,-828.88 286.98,-832.58 294.81,-835.73 302.42,-838.34"/>
<polygon fill="#9a32cd" stroke="#9a32cd" points="168.62,-751.59 158.22,-749.54 165.07,-757.62 168.62,-751.59"/>
<text text-anchor="middle" x="228" y="-817.88" font-family="Helvetica,sans-Serif" font-size="10.00"> global</text>
</g>
<!-- Node11&#45;&gt;Node23 -->
<g id="edge50" class="edge">
<title>Node11&#45;&gt;Node23</title>
<path fill="none" stroke="#9a32cd" stroke-dasharray="5,2" d="M169.73,-742.15C194.31,-744.47 230.81,-748.77 262,-755.88 279.44,-759.85 298.56,-766.1 313.33,-771.36"/>
<polygon fill="#9a32cd" stroke="#9a32cd" points="169.92,-738.65 159.65,-741.24 169.3,-745.62 169.92,-738.65"/>
<text text-anchor="middle" x="228" y="-758.88" font-family="Helvetica,sans-Serif" font-size="10.00"> global</text>
</g>
<!-- Node12&#45;&gt;Node3 -->
<g id="edge20" class="edge">
<title>Node12&#45;&gt;Node3</title>
<path fill="none" stroke="#9a32cd" stroke-dasharray="5,2" d="M376.49,-229.05C420.1,-221.88 492.94,-217.69 535,-257.88 579.74,-300.62 582.88,-511.18 583.02,-559.14"/>
<polygon fill="#9a32cd" stroke="#9a32cd" points="375.83,-225.61 366.6,-230.81 377.06,-232.5 375.83,-225.61"/>
<text text-anchor="middle" x="476" y="-260.88" font-family="Helvetica,sans-Serif" font-size="10.00"> cons</text>
</g>
<!-- Node13 -->
<g id="node13" class="node">
<title>Node13</title>
<g id="a_node13"><a xlink:title=" ">
<polygon fill="none" stroke="#bfbfbf" points="118,-185.38 118,-204.38 163,-204.38 163,-185.38 118,-185.38"/>
<text text-anchor="middle" x="140.5" y="-192.38" font-family="Helvetica,sans-Serif" font-size="10.00">size_t</text>
</a>
</g>
</g>
<!-- Node13&#45;&gt;Node3 -->
<g id="edge26" class="edge">
<title>Node13&#45;&gt;Node3</title>
<path fill="none" stroke="#9a32cd" stroke-dasharray="5,2" d="M173.16,-192C257.38,-185.08 483.94,-171.55 535,-220.88 585.11,-269.29 584.01,-508.53 583.19,-559.37"/>
<polygon fill="#9a32cd" stroke="#9a32cd" points="172.83,-188.51 163.16,-192.84 173.42,-195.49 172.83,-188.51"/>
<text text-anchor="middle" x="339.5" y="-189.88" font-family="Helvetica,sans-Serif" font-size="10.00"> oldlen</text>
</g>
<!-- Node13&#45;&gt;Node12 -->
<g id="edge22" class="edge">
<title>Node13&#45;&gt;Node12</title>
<path fill="none" stroke="#9a32cd" stroke-dasharray="5,2" d="M173.5,-201.7C212.12,-209.93 276.32,-223.62 312.19,-231.27"/>
<polygon fill="#9a32cd" stroke="#9a32cd" points="173.85,-198.2 163.34,-199.53 172.39,-205.04 173.85,-198.2"/>
<text text-anchor="middle" x="228" y="-222.88" font-family="Helvetica,sans-Serif" font-size="10.00"> bufcnt</text>
</g>
<!-- Node14 -->
<g id="node14" class="node">
<title>Node14</title>
<g id="a_node14"><a xlink:title=" ">
<polygon fill="none" stroke="#bfbfbf" points="115.5,-295.38 115.5,-314.38 165.5,-314.38 165.5,-295.38 115.5,-295.38"/>
<text text-anchor="middle" x="140.5" y="-302.38" font-family="Helvetica,sans-Serif" font-size="10.00">uint8_t</text>
</a>
</g>
</g>
<!-- Node14&#45;&gt;Node12 -->
<g id="edge23" class="edge">
<title>Node14&#45;&gt;Node12</title>
<path fill="none" stroke="#9a32cd" stroke-dasharray="5,2" d="M175.3,-293.49C199.47,-285.32 232.77,-274.01 262,-263.88 278.77,-258.07 297.56,-251.44 312.33,-246.2"/>
<polygon fill="#9a32cd" stroke="#9a32cd" points="173.89,-290.27 165.53,-296.79 176.13,-296.91 173.89,-290.27"/>
<text text-anchor="middle" x="228" y="-322.88" font-family="Helvetica,sans-Serif" font-size="10.00"> attributes</text>
<text text-anchor="middle" x="228" y="-311.88" font-family="Helvetica,sans-Serif" font-size="10.00">last</text>
<text text-anchor="middle" x="228" y="-300.88" font-family="Helvetica,sans-Serif" font-size="10.00">x</text>
<text text-anchor="middle" x="228" y="-289.88" font-family="Helvetica,sans-Serif" font-size="10.00">y</text>
</g>
<!-- Node15 -->
<g id="node15" class="node">
<title>Node15</title>
<g id="a_node15"><a xlink:title=" ">
<polygon fill="none" stroke="#bfbfbf" points="314.5,-142.38 314.5,-161.38 364.5,-161.38 364.5,-142.38 314.5,-142.38"/>
<text text-anchor="middle" x="339.5" y="-149.38" font-family="Helvetica,sans-Serif" font-size="10.00">int32_t</text>
</a>
</g>
</g>
<!-- Node15&#45;&gt;Node3 -->
<g id="edge25" class="edge">
<title>Node15&#45;&gt;Node3</title>
<path fill="none" stroke="#9a32cd" stroke-dasharray="5,2" d="M374.6,-144.19C418.16,-136.58 492.93,-131.35 535,-172.88 563.46,-200.97 579.64,-500.8 582.53,-559.09"/>
<polygon fill="#9a32cd" stroke="#9a32cd" points="373.94,-140.75 364.76,-146.04 375.23,-147.63 373.94,-140.75"/>
<text text-anchor="middle" x="476" y="-175.88" font-family="Helvetica,sans-Serif" font-size="10.00"> graphics_colour</text>
</g>
<!-- Node16&#45;&gt;Node3 -->
<g id="edge27" class="edge">
<title>Node16&#45;&gt;Node3</title>
<path fill="none" stroke="#9a32cd" stroke-dasharray="5,2" d="M393.74,-852.46C437.59,-853.13 498.33,-846.41 535,-809.88 568.62,-776.38 580.06,-619.06 582.48,-578.46"/>
<polygon fill="#9a32cd" stroke="#9a32cd" points="393.63,-848.95 383.53,-852.17 393.43,-855.95 393.63,-848.95"/>
<text text-anchor="middle" x="476" y="-865.88" font-family="Helvetica,sans-Serif" font-size="10.00"> double_variables</text>
<text text-anchor="middle" x="476" y="-854.88" font-family="Helvetica,sans-Serif" font-size="10.00">local_double_variables</text>
</g>
<!-- Node16&#45;&gt;Node16 -->
<g id="edge30" class="edge">
<title>Node16&#45;&gt;Node16</title>
<path fill="none" stroke="#9a32cd" stroke-dasharray="5,2" d="M319.13,-867.28C320.49,-872.19 327.28,-875.88 339.5,-875.88 359.05,-875.88 364.7,-866.44 356.45,-857.64"/>
<polygon fill="#9a32cd" stroke="#9a32cd" points="322.51,-868.23 322.55,-857.64 315.91,-865.89 322.51,-868.23"/>
<text text-anchor="middle" x="339.5" y="-878.88" font-family="Helvetica,sans-Serif" font-size="10.00"> next</text>
</g>
<!-- Node17 -->
<g id="node17" class="node">
<title>Node17</title>
<g id="a_node17"><a xlink:title=" ">
<polygon fill="none" stroke="#bfbfbf" points="289,-104.38 289,-123.38 390,-123.38 390,-104.38 289,-104.38"/>
<text text-anchor="middle" x="339.5" y="-111.38" font-family="Helvetica,sans-Serif" font-size="10.00">struct hashmap *</text>
</a>
</g>
</g>
<!-- Node17&#45;&gt;Node3 -->
<g id="edge32" class="edge">
<title>Node17&#45;&gt;Node3</title>
<path fill="none" stroke="#9a32cd" stroke-dasharray="5,2" d="M383.18,-102.11C427.26,-92.82 495.08,-86.95 535,-124.88 567.67,-155.92 580.59,-496.8 582.69,-559.13"/>
<polygon fill="#9a32cd" stroke="#9a32cd" points="382.32,-98.72 373.34,-104.33 383.86,-105.55 382.32,-98.72"/>
<text text-anchor="middle" x="476" y="-127.88" font-family="Helvetica,sans-Serif" font-size="10.00"> lines</text>
</g>
<!-- Node18 -->
<g id="node18" class="node">
<title>Node18</title>
<g id="a_node18"><a xlink:title=" ">
<polygon fill="none" stroke="#bfbfbf" points="126,-25.38 126,-44.38 155,-44.38 155,-25.38 126,-25.38"/>
<text text-anchor="middle" x="140.5" y="-32.38" font-family="Helvetica,sans-Serif" font-size="10.00">int</text>
</a>
</g>
</g>
<!-- Node18&#45;&gt;Node3 -->
<g id="edge33" class="edge">
<title>Node18&#45;&gt;Node3</title>
<path fill="none" stroke="#9a32cd" stroke-dasharray="5,2" d="M164.95,-42.48C173.95,-45.16 184.37,-47.98 194,-49.88 268.9,-64.67 482.06,-36.86 535,-91.88 568.69,-126.89 580.85,-494.87 582.73,-559.28"/>
<polygon fill="#9a32cd" stroke="#9a32cd" points="165.75,-39.07 155.16,-39.46 163.69,-45.75 165.75,-39.07"/>
<text text-anchor="middle" x="339.5" y="-70.88" font-family="Helvetica,sans-Serif" font-size="10.00"> bracket_depth</text>
<text text-anchor="middle" x="339.5" y="-59.88" font-family="Helvetica,sans-Serif" font-size="10.00">current_token</text>
</g>
<!-- Node26 -->
<g id="node26" class="node">
<title>Node26</title>
<g id="a_node26"><a xlink:href="structcpuid__result__t.html" target="_top" xlink:title="CPUID instruction result.">
<polygon fill="none" stroke="black" points="297,-2.38 297,-21.38 382,-21.38 382,-2.38 297,-2.38"/>
<text text-anchor="middle" x="339.5" y="-9.38" font-family="Helvetica,sans-Serif" font-size="10.00">cpuid_result_t</text>
</a>
</g>
</g>
<!-- Node18&#45;&gt;Node26 -->
<g id="edge57" class="edge">
<title>Node18&#45;&gt;Node26</title>
<path fill="none" stroke="#9a32cd" stroke-dasharray="5,2" d="M162.93,-19.82C172.07,-14.29 183.11,-8.69 194,-5.88 227.8,2.84 267.49,0.32 296.72,-3.8"/>
<polygon fill="#9a32cd" stroke="#9a32cd" points="161.04,-16.88 154.52,-25.23 164.82,-22.77 161.04,-16.88"/>
<text text-anchor="middle" x="228" y="-41.88" font-family="Helvetica,sans-Serif" font-size="10.00"> eax</text>
<text text-anchor="middle" x="228" y="-30.88" font-family="Helvetica,sans-Serif" font-size="10.00">ebx</text>
<text text-anchor="middle" x="228" y="-19.88" font-family="Helvetica,sans-Serif" font-size="10.00">ecx</text>
<text text-anchor="middle" x="228" y="-8.88" font-family="Helvetica,sans-Serif" font-size="10.00">edx</text>
</g>
<!-- Node19&#45;&gt;Node3 -->
<g id="edge34" class="edge">
<title>Node19&#45;&gt;Node3</title>
<path fill="none" stroke="#9a32cd" stroke-dasharray="5,2" d="M398.5,-375.48C441.27,-377.55 498.19,-387.28 535,-420.88 576.5,-458.76 582.25,-532.79 582.95,-559.21"/>
<polygon fill="#9a32cd" stroke="#9a32cd" points="398.63,-371.98 388.51,-375.12 398.38,-378.97 398.63,-371.98"/>
<text text-anchor="middle" x="476" y="-423.88" font-family="Helvetica,sans-Serif" font-size="10.00"> int_array_variables</text>
</g>
<!-- Node19&#45;&gt;Node19 -->
<g id="edge38" class="edge">
<title>Node19&#45;&gt;Node19</title>
<path fill="none" stroke="#9a32cd" stroke-dasharray="5,2" d="M319.13,-396.28C320.49,-401.19 327.28,-404.88 339.5,-404.88 359.05,-404.88 364.7,-395.44 356.45,-386.64"/>
<polygon fill="#9a32cd" stroke="#9a32cd" points="322.51,-397.23 322.55,-386.64 315.91,-394.89 322.51,-397.23"/>
<text text-anchor="middle" x="339.5" y="-407.88" font-family="Helvetica,sans-Serif" font-size="10.00"> next</text>
</g>
<!-- Node20&#45;&gt;Node3 -->
<g id="edge40" class="edge">
<title>Node20&#45;&gt;Node3</title>
<path fill="none" stroke="#9a32cd" stroke-dasharray="5,2" d="M395.31,-1017.39C440.24,-1007.39 501.67,-986.13 535,-941.88 579.98,-882.16 582.9,-630.81 583.01,-578.46"/>
<polygon fill="#9a32cd" stroke="#9a32cd" points="394.48,-1013.99 385.41,-1019.47 395.92,-1020.84 394.48,-1013.99"/>
<text text-anchor="middle" x="476" y="-1012.88" font-family="Helvetica,sans-Serif" font-size="10.00"> defs</text>
</g>
<!-- Node20&#45;&gt;Node20 -->
<g id="edge44" class="edge">
<title>Node20&#45;&gt;Node20</title>
<path fill="none" stroke="#9a32cd" stroke-dasharray="5,2" d="M319.13,-1045.28C320.49,-1050.19 327.28,-1053.88 339.5,-1053.88 359.05,-1053.88 364.7,-1044.44 356.45,-1035.64"/>
<polygon fill="#9a32cd" stroke="#9a32cd" points="322.51,-1046.23 322.55,-1035.64 315.91,-1043.89 322.51,-1046.23"/>
<text text-anchor="middle" x="339.5" y="-1056.88" font-family="Helvetica,sans-Serif" font-size="10.00"> next</text>
</g>
<!-- Node21 -->
<g id="node21" class="node">
<title>Node21</title>
<g id="a_node21"><a xlink:title=" ">
<polygon fill="none" stroke="#bfbfbf" points="105,-1049.38 105,-1068.38 176,-1068.38 176,-1049.38 105,-1049.38"/>
<text text-anchor="middle" x="140.5" y="-1056.38" font-family="Helvetica,sans-Serif" font-size="10.00">ub_fn_type</text>
</a>
</g>
</g>
<!-- Node21&#45;&gt;Node20 -->
<g id="edge41" class="edge">
<title>Node21&#45;&gt;Node20</title>
<path fill="none" stroke="#9a32cd" stroke-dasharray="5,2" d="M186.29,-1051.38C218.43,-1045.99 261.56,-1038.77 293.7,-1033.38"/>
<polygon fill="#9a32cd" stroke="#9a32cd" points="185.55,-1047.95 176.27,-1053.05 186.71,-1054.85 185.55,-1047.95"/>
<text text-anchor="middle" x="228" y="-1052.88" font-family="Helvetica,sans-Serif" font-size="10.00"> type</text>
</g>
<!-- Node22&#45;&gt;Node3 -->
<g id="edge58" class="edge">
<title>Node22&#45;&gt;Node3</title>
<path fill="none" stroke="#9a32cd" stroke-dasharray="5,2" d="M183.14,-1104.64C266.12,-1117.39 451.27,-1131.67 535,-1024.88 563.55,-988.47 579.83,-642.07 582.58,-578.78"/>
<polygon fill="#9a32cd" stroke="#9a32cd" points="183.5,-1101.15 173.07,-1103.02 182.39,-1108.06 183.5,-1101.15"/>
<text text-anchor="middle" x="339.5" y="-1115.88" font-family="Helvetica,sans-Serif" font-size="10.00"> param</text>
</g>
<!-- Node22&#45;&gt;Node20 -->
<g id="edge45" class="edge">
<title>Node22&#45;&gt;Node20</title>
<path fill="none" stroke="#9a32cd" stroke-dasharray="5,2" d="M183.04,-1088.14C206.59,-1082.62 236.38,-1074.68 262,-1064.88 283.58,-1056.62 307.07,-1044.06 322.25,-1035.44"/>
<polygon fill="#9a32cd" stroke="#9a32cd" points="182,-1084.79 173.03,-1090.43 183.56,-1091.61 182,-1084.79"/>
<text text-anchor="middle" x="228" y="-1087.88" font-family="Helvetica,sans-Serif" font-size="10.00"> params</text>
</g>
<!-- Node22&#45;&gt;Node22 -->
<g id="edge47" class="edge">
<title>Node22&#45;&gt;Node22</title>
<path fill="none" stroke="#9a32cd" stroke-dasharray="5,2" d="M127.98,-1116.64C128.96,-1121.37 133.14,-1124.88 140.5,-1124.88 152.59,-1124.88 156.08,-1115.44 150.98,-1106.64"/>
<polygon fill="#9a32cd" stroke="#9a32cd" points="131.45,-1117.13 130.02,-1106.64 124.59,-1115.73 131.45,-1117.13"/>
<text text-anchor="middle" x="140.5" y="-1127.88" font-family="Helvetica,sans-Serif" font-size="10.00"> next</text>
</g>
<!-- Node23&#45;&gt;Node3 -->
<g id="edge48" class="edge">
<title>Node23&#45;&gt;Node3</title>
<path fill="none" stroke="#9a32cd" stroke-dasharray="5,2" d="M391.45,-785.37C434.99,-786.31 496.51,-780.29 535,-744.88 584.41,-699.42 584.9,-608.55 583.61,-578.66"/>
<polygon fill="#9a32cd" stroke="#9a32cd" points="391.46,-781.87 381.35,-785.03 391.22,-788.87 391.46,-781.87"/>
<text text-anchor="middle" x="476" y="-798.88" font-family="Helvetica,sans-Serif" font-size="10.00"> local_string_variables</text>
<text text-anchor="middle" x="476" y="-787.88" font-family="Helvetica,sans-Serif" font-size="10.00">str_variables</text>
</g>
<!-- Node23&#45;&gt;Node23 -->
<g id="edge51" class="edge">
<title>Node23&#45;&gt;Node23</title>
<path fill="none" stroke="#9a32cd" stroke-dasharray="5,2" d="M319.13,-800.28C320.49,-805.19 327.28,-808.88 339.5,-808.88 359.05,-808.88 364.7,-799.44 356.45,-790.64"/>
<polygon fill="#9a32cd" stroke="#9a32cd" points="322.51,-801.23 322.55,-790.64 315.91,-798.89 322.51,-801.23"/>
<text text-anchor="middle" x="339.5" y="-811.88" font-family="Helvetica,sans-Serif" font-size="10.00"> next</text>
</g>
<!-- Node24 -->
<g id="node24" class="node">
<title>Node24</title>
<g id="a_node24"><a xlink:title=" ">
<polygon fill="none" stroke="#bfbfbf" points="316.5,-1187.38 316.5,-1206.38 362.5,-1206.38 362.5,-1187.38 316.5,-1187.38"/>
<text text-anchor="middle" x="339.5" y="-1194.38" font-family="Helvetica,sans-Serif" font-size="10.00">void *</text>
</a>
</g>
</g>
<!-- Node24&#45;&gt;Node3 -->
<g id="edge52" class="edge">
<title>Node24&#45;&gt;Node3</title>
<path fill="none" stroke="#9a32cd" stroke-dasharray="5,2" d="M372.8,-1203.87C416.39,-1211.2 493.37,-1216.36 535,-1172.88 577.92,-1128.05 582.5,-652.56 582.95,-578.54"/>
<polygon fill="#9a32cd" stroke="#9a32cd" points="373.2,-1200.39 362.74,-1202.04 371.95,-1207.27 373.2,-1200.39"/>
<text text-anchor="middle" x="476" y="-1210.88" font-family="Helvetica,sans-Serif" font-size="10.00"> fn_return</text>
</g>
<!-- Node25&#45;&gt;Node3 -->
<g id="edge53" class="edge">
<title>Node25&#45;&gt;Node3</title>
<path fill="none" stroke="#9a32cd" stroke-dasharray="5,2" d="M379.74,-548.2C419.22,-546.28 481.74,-545.33 535,-553.88 542.33,-555.05 550.08,-557.1 557.17,-559.32"/>
<polygon fill="#9a32cd" stroke="#9a32cd" points="379.52,-544.71 369.72,-548.74 379.9,-551.7 379.52,-544.71"/>
<text text-anchor="middle" x="476" y="-556.88" font-family="Helvetica,sans-Serif" font-size="10.00"> for_stack</text>
</g>
<!-- Node26&#45;&gt;Node3 -->
<g id="edge56" class="edge">
<title>Node26&#45;&gt;Node3</title>
<path fill="none" stroke="#9a32cd" stroke-dasharray="5,2" d="M392.07,-3.15C436.5,1.15 498.99,-1.11 535,-38.88 572.38,-78.08 581.55,-490.18 582.83,-559.12"/>
<polygon fill="#9a32cd" stroke="#9a32cd" points="391.6,0.32 382.04,-4.26 392.37,-6.64 391.6,0.32"/>
<text text-anchor="middle" x="476" y="-41.88" font-family="Helvetica,sans-Serif" font-size="10.00"> last_cpuid_result</text>
</g>
</g>
</svg>
        <g id="navigator" transform="translate(0 0)" fill="#404254">
                <rect fill="#f2f5e9" fill-opacity="0.5" stroke="#606060" stroke-width=".5" x="0" y="0" width="60" height="60"/>
                <use id="zoomplus" xlink:href="#zoomPlus" x="17" y="9" onmousedown="handleZoom(evt,'in')"/>
                <use id="zoomminus" xlink:href="#zoomMin" x="42" y="9" onmousedown="handleZoom(evt,'out')"/>
                <use id="reset" xlink:href="#resetDef" x="30" y="36" onmousedown="handleReset()"/>
                <g id="arrowUp" xlink:href="#dirArrow" transform="translate(30 24)" onmousedown="handlePan(0,-1)">
                  <use xlink:href="#rim" fill="#404040">
                        <set attributeName="fill" to="#808080" begin="arrowUp.mouseover" end="arrowUp.mouseout"/>
                  </use>
                  <path fill="none" stroke="white" stroke-width="1.5" d="M0,-3.0v7 M-2.5,-0.5L0,-3.0L2.5,-0.5"/>
                </g>
                <g id="arrowRight" xlink:href="#dirArrow" transform="rotate(90) translate(36 -43)" onmousedown="handlePan(1,0)">
                  <use xlink:href="#rim" fill="#404040">
                        <set attributeName="fill" to="#808080" begin="arrowRight.mouseover" end="arrowRight.mouseout"/>
                  </use>
                  <path fill="none" stroke="white" stroke-width="1.5" d="M0,-3.0v7 M-2.5,-0.5L0,-3.0L2.5,-0.5"/>
                </g>
                <g id="arrowDown" xlink:href="#dirArrow" transform="rotate(180) translate(-30 -48)" onmousedown="handlePan(0,1)">
                  <use xlink:href="#rim" fill="#404040">
                        <set attributeName="fill" to="#808080" begin="arrowDown.mouseover" end="arrowDown.mouseout"/>
                  </use>
                  <path fill="none" stroke="white" stroke-width="1.5" d="M0,-3.0v7 M-2.5,-0.5L0,-3.0L2.5,-0.5"/>
                </g>
                <g id="arrowLeft" xlink:href="#dirArrow" transform="rotate(270) translate(-36 17)" onmousedown="handlePan(-1,0)">
                  <use xlink:href="#rim" fill="#404040">
                        <set attributeName="fill" to="#808080" begin="arrowLeft.mouseover" end="arrowLeft.mouseout"/>
                  </use>
                  <path fill="none" stroke="white" stroke-width="1.5" d="M0,-3.0v7 M-2.5,-0.5L0,-3.0L2.5,-0.5"/>
                </g>
        </g>
        <svg viewBox="0 0 15 15" width="100%" height="30px" preserveAspectRatio="xMaxYMin meet">
         <g id="arrow_out" transform="scale(0.3 0.3)">
          <a xlink:href="structbasic__double__fn__coll__graph_org.svg" target="_base">
           <rect id="button" ry="5" rx="5" y="6" x="6" height="38" width="38"
                fill="#f2f5e9" fill-opacity="0.5" stroke="#606060" stroke-width="1.0"/>
           <path id="arrow"
             d="M 11.500037,31.436501 C 11.940474,20.09759 22.043105,11.32322 32.158766,21.979434 L 37.068811,17.246167 C 37.068811,17.246167 37.088388,32 37.088388,32 L 22.160133,31.978069 C 22.160133,31.978069 26.997745,27.140456 26.997745,27.140456 C 18.528582,18.264221 13.291696,25.230495 11.500037,31.436501 z"
             style="fill:#404040;"/>
          </a>
         </g>
        </svg>
</svg>
