<?xml version="1.0" encoding="UTF-8" standalone="no"?>
<!DOCTYPE svg PUBLIC "-//W3C//DTD SVG 1.1//EN"
 "http://www.w3.org/Graphics/SVG/1.1/DTD/svg11.dtd">
<!-- Generated by graphviz version 2.43.0 (0)
 -->
<!-- Title: flanterm_fb_queue_item Pages: 1 -->
<svg width="193pt" height="195pt"
 viewBox="0.00 0.00 192.50 195.00" xmlns="http://www.w3.org/2000/svg" xmlns:xlink="http://www.w3.org/1999/xlink">
<g id="graph0" class="graph" transform="scale(1 1) rotate(0) translate(4 191)">
<title>flanterm_fb_queue_item</title>
<!-- Node1 -->
<g id="node1" class="node">
<title>Node1</title>
<g id="a_node1"><a xlink:title=" ">
<polygon fill="#bfbfbf" stroke="black" points="48.5,-0.5 48.5,-19.5 184.5,-19.5 184.5,-0.5 48.5,-0.5"/>
<text text-anchor="middle" x="116.5" y="-7.5" font-family="Helvetica,sans-Serif" font-size="10.00">flanterm_fb_queue_item</text>
</a>
</g>
</g>
<!-- Node2 -->
<g id="node2" class="node">
<title>Node2</title>
<g id="a_node2"><a xlink:href="structflanterm__fb__char.html" target="_top" xlink:title=" ">
<polygon fill="none" stroke="black" points="0,-78.5 0,-97.5 99,-97.5 99,-78.5 0,-78.5"/>
<text text-anchor="middle" x="49.5" y="-85.5" font-family="Helvetica,sans-Serif" font-size="10.00">flanterm_fb_char</text>
</a>
</g>
</g>
<!-- Node2&#45;&gt;Node1 -->
<g id="edge1" class="edge">
<title>Node2&#45;&gt;Node1</title>
<path fill="none" stroke="#9a32cd" stroke-dasharray="5,2" d="M64.1,-70.44C77.89,-54.79 98.05,-31.93 108.9,-19.62"/>
<polygon fill="#9a32cd" stroke="#9a32cd" points="61.17,-68.47 57.19,-78.28 66.42,-73.1 61.17,-68.47"/>
<text text-anchor="middle" x="96" y="-46.5" font-family="Helvetica,sans-Serif" font-size="10.00"> c</text>
</g>
<!-- Node3 -->
<g id="node3" class="node">
<title>Node3</title>
<g id="a_node3"><a xlink:title=" ">
<polygon fill="none" stroke="#bfbfbf" points="21.5,-167.5 21.5,-186.5 77.5,-186.5 77.5,-167.5 21.5,-167.5"/>
<text text-anchor="middle" x="49.5" y="-174.5" font-family="Helvetica,sans-Serif" font-size="10.00">uint32_t</text>
</a>
</g>
</g>
<!-- Node3&#45;&gt;Node2 -->
<g id="edge2" class="edge">
<title>Node3&#45;&gt;Node2</title>
<path fill="none" stroke="#9a32cd" stroke-dasharray="5,2" d="M49.5,-157.19C49.5,-138.74 49.5,-111.41 49.5,-97.62"/>
<polygon fill="#9a32cd" stroke="#9a32cd" points="46,-157.34 49.5,-167.34 53,-157.34 46,-157.34"/>
<text text-anchor="middle" x="57.5" y="-141" font-family="Helvetica,sans-Serif" font-size="10.00"> bg</text>
<text text-anchor="middle" x="57.5" y="-130" font-family="Helvetica,sans-Serif" font-size="10.00">c</text>
<text text-anchor="middle" x="57.5" y="-119" font-family="Helvetica,sans-Serif" font-size="10.00">fg</text>
</g>
<!-- Node4 -->
<g id="node4" class="node">
<title>Node4</title>
<g id="a_node4"><a xlink:title=" ">
<polygon fill="none" stroke="#bfbfbf" points="117,-78.5 117,-97.5 162,-97.5 162,-78.5 117,-78.5"/>
<text text-anchor="middle" x="139.5" y="-85.5" font-family="Helvetica,sans-Serif" font-size="10.00">size_t</text>
</a>
</g>
</g>
<!-- Node4&#45;&gt;Node1 -->
<g id="edge3" class="edge">
<title>Node4&#45;&gt;Node1</title>
<path fill="none" stroke="#9a32cd" stroke-dasharray="5,2" d="M133.95,-68.67C129.24,-53.11 122.7,-31.47 119.11,-19.62"/>
<polygon fill="#9a32cd" stroke="#9a32cd" points="130.62,-69.72 136.86,-78.28 137.31,-67.7 130.62,-69.72"/>
<text text-anchor="middle" x="135.5" y="-52" font-family="Helvetica,sans-Serif" font-size="10.00"> x</text>
<text text-anchor="middle" x="135.5" y="-41" font-family="Helvetica,sans-Serif" font-size="10.00">y</text>
</g>
</g>
</svg>
