<?xml version="1.0" encoding="UTF-8" standalone="no"?>
<!DOCTYPE svg PUBLIC "-//W3C//DTD SVG 1.1//EN"
 "http://www.w3.org/Graphics/SVG/1.1/DTD/svg11.dtd">
<!-- Generated by graphviz version 2.43.0 (0)
 -->
<!-- Title: ahci_hba_mem_t Pages: 1 -->
<svg width="317pt" height="417pt"
 viewBox="0.00 0.00 317.48 417.00" xmlns="http://www.w3.org/2000/svg" xmlns:xlink="http://www.w3.org/1999/xlink">
<g id="graph0" class="graph" transform="scale(1 1) rotate(0) translate(4 413)">
<title>ahci_hba_mem_t</title>
<!-- Node1 -->
<g id="node1" class="node">
<title>Node1</title>
<g id="a_node1"><a xlink:title="AHCI Host Bus Adapter (HBA) memory&#45;mapped register space.">
<polygon fill="#bfbfbf" stroke="black" points="144.48,-0.5 144.48,-19.5 244.48,-19.5 244.48,-0.5 144.48,-0.5"/>
<text text-anchor="middle" x="194.48" y="-7.5" font-family="Helvetica,sans-Serif" font-size="10.00">ahci_hba_mem_t</text>
</a>
</g>
</g>
<!-- Node2 -->
<g id="node2" class="node">
<title>Node2</title>
<g id="a_node2"><a xlink:href="structahci__hba__port__t.html" target="_top" xlink:title="AHCI Port register block (Px*).">
<polygon fill="none" stroke="black" points="147.48,-134.5 147.48,-153.5 241.48,-153.5 241.48,-134.5 147.48,-134.5"/>
<text text-anchor="middle" x="194.48" y="-141.5" font-family="Helvetica,sans-Serif" font-size="10.00">ahci_hba_port_t</text>
</a>
</g>
</g>
<!-- Node2&#45;&gt;Node1 -->
<g id="edge1" class="edge">
<title>Node2&#45;&gt;Node1</title>
<path fill="none" stroke="#9a32cd" stroke-dasharray="5,2" d="M194.48,-124.28C194.48,-95.25 194.48,-40.54 194.48,-19.52"/>
<polygon fill="#9a32cd" stroke="#9a32cd" points="190.98,-124.34 194.48,-134.34 197.98,-124.34 190.98,-124.34"/>
<text text-anchor="middle" x="208.48" y="-46.5" font-family="Helvetica,sans-Serif" font-size="10.00"> ports</text>
</g>
<!-- Node3 -->
<g id="node3" class="node">
<title>Node3</title>
<g id="a_node3"><a xlink:title=" ">
<polygon fill="none" stroke="#bfbfbf" points="12.48,-389.5 12.48,-408.5 68.48,-408.5 68.48,-389.5 12.48,-389.5"/>
<text text-anchor="middle" x="40.48" y="-396.5" font-family="Helvetica,sans-Serif" font-size="10.00">uint32_t</text>
</a>
</g>
</g>
<!-- Node3&#45;&gt;Node1 -->
<g id="edge3" class="edge">
<title>Node3&#45;&gt;Node1</title>
<path fill="none" stroke="#9a32cd" stroke-dasharray="5,2" d="M33.5,-379.82C14.74,-327.63 -31.15,-174.89 33.48,-78 58,-41.23 106.92,-24.61 144.43,-17.11"/>
<polygon fill="#9a32cd" stroke="#9a32cd" points="30.28,-381.21 37.04,-389.37 36.85,-378.78 30.28,-381.21"/>
<text text-anchor="middle" x="85.98" y="-202" font-family="Helvetica,sans-Serif" font-size="10.00"> bios_handoff_control</text>
<text text-anchor="middle" x="85.98" y="-191" font-family="Helvetica,sans-Serif" font-size="10.00">ccc_ctl</text>
<text text-anchor="middle" x="85.98" y="-180" font-family="Helvetica,sans-Serif" font-size="10.00">ccc_pts</text>
<text text-anchor="middle" x="85.98" y="-169" font-family="Helvetica,sans-Serif" font-size="10.00">em_ctl</text>
<text text-anchor="middle" x="85.98" y="-158" font-family="Helvetica,sans-Serif" font-size="10.00">em_loc</text>
<text text-anchor="start" x="33.48" y="-147" font-family="Helvetica,sans-Serif" font-size="10.00">extended_host</text>
<text text-anchor="middle" x="85.98" y="-136" font-family="Helvetica,sans-Serif" font-size="10.00">_capabilities</text>
<text text-anchor="middle" x="85.98" y="-125" font-family="Helvetica,sans-Serif" font-size="10.00">global_host_control</text>
<text text-anchor="middle" x="85.98" y="-114" font-family="Helvetica,sans-Serif" font-size="10.00">host_capabilities</text>
<text text-anchor="middle" x="85.98" y="-103" font-family="Helvetica,sans-Serif" font-size="10.00">interrupt_status</text>
<text text-anchor="middle" x="85.98" y="-92" font-family="Helvetica,sans-Serif" font-size="10.00">ports_implemented</text>
<text text-anchor="middle" x="85.98" y="-81" font-family="Helvetica,sans-Serif" font-size="10.00">...</text>
</g>
<!-- Node3&#45;&gt;Node2 -->
<g id="edge2" class="edge">
<title>Node3&#45;&gt;Node2</title>
<path fill="none" stroke="#9a32cd" stroke-dasharray="5,2" d="M51.03,-380.66C81.2,-331.1 167.03,-190.1 189.2,-153.67"/>
<polygon fill="#9a32cd" stroke="#9a32cd" points="47.99,-378.93 45.78,-389.29 53.97,-382.57 47.99,-378.93"/>
<text text-anchor="middle" x="190.48" y="-363" font-family="Helvetica,sans-Serif" font-size="10.00"> cmd</text>
<text text-anchor="middle" x="190.48" y="-352" font-family="Helvetica,sans-Serif" font-size="10.00">command_issue</text>
<text text-anchor="start" x="140.48" y="-341" font-family="Helvetica,sans-Serif" font-size="10.00">command_list_base</text>
<text text-anchor="middle" x="190.48" y="-330" font-family="Helvetica,sans-Serif" font-size="10.00">_addr_lower</text>
<text text-anchor="start" x="140.48" y="-319" font-family="Helvetica,sans-Serif" font-size="10.00">command_list_base</text>
<text text-anchor="middle" x="190.48" y="-308" font-family="Helvetica,sans-Serif" font-size="10.00">_addr_upper</text>
<text text-anchor="middle" x="190.48" y="-297" font-family="Helvetica,sans-Serif" font-size="10.00">fis_base_addr_lower</text>
<text text-anchor="middle" x="190.48" y="-286" font-family="Helvetica,sans-Serif" font-size="10.00">fis_base_addr_upper</text>
<text text-anchor="middle" x="190.48" y="-275" font-family="Helvetica,sans-Serif" font-size="10.00">fis_switch_control</text>
<text text-anchor="middle" x="190.48" y="-264" font-family="Helvetica,sans-Serif" font-size="10.00">interrupt_enable</text>
<text text-anchor="middle" x="190.48" y="-253" font-family="Helvetica,sans-Serif" font-size="10.00">interrupt_status</text>
<text text-anchor="middle" x="190.48" y="-242" font-family="Helvetica,sans-Serif" font-size="10.00">rsv0</text>
<text text-anchor="middle" x="190.48" y="-231" font-family="Helvetica,sans-Serif" font-size="10.00">...</text>
</g>
<!-- Node4 -->
<g id="node4" class="node">
<title>Node4</title>
<g id="a_node4"><a xlink:title=" ">
<polygon fill="none" stroke="#bfbfbf" points="259.48,-134.5 259.48,-153.5 309.48,-153.5 309.48,-134.5 259.48,-134.5"/>
<text text-anchor="middle" x="284.48" y="-141.5" font-family="Helvetica,sans-Serif" font-size="10.00">uint8_t</text>
</a>
</g>
</g>
<!-- Node4&#45;&gt;Node1 -->
<g id="edge4" class="edge">
<title>Node4&#45;&gt;Node1</title>
<path fill="none" stroke="#9a32cd" stroke-dasharray="5,2" d="M277.18,-124.93C267.69,-102.86 249.56,-65.12 226.48,-38 220.63,-31.14 212.94,-24.59 206.57,-19.66"/>
<polygon fill="#9a32cd" stroke="#9a32cd" points="274.04,-126.52 281.13,-134.4 280.5,-123.82 274.04,-126.52"/>
<text text-anchor="middle" x="258.48" y="-52" font-family="Helvetica,sans-Serif" font-size="10.00"> rsv</text>
<text text-anchor="middle" x="258.48" y="-41" font-family="Helvetica,sans-Serif" font-size="10.00">vendor</text>
</g>
</g>
</svg>
