<?xml version="1.0" encoding="UTF-8" standalone="no"?>
<!DOCTYPE svg PUBLIC "-//W3C//DTD SVG 1.1//EN"
 "http://www.w3.org/Graphics/SVG/1.1/DTD/svg11.dtd">
<!-- Generated by graphviz version 2.43.0 (0)
 -->
<!-- Title: tcp_segment Pages: 1 -->
<svg width="364pt" height="318pt"
 viewBox="0.00 0.00 364.00 318.00" xmlns="http://www.w3.org/2000/svg" xmlns:xlink="http://www.w3.org/1999/xlink">
<g id="graph0" class="graph" transform="scale(1 1) rotate(0) translate(4 314)">
<title>tcp_segment</title>
<!-- Node1 -->
<g id="node1" class="node">
<title>Node1</title>
<g id="a_node1"><a xlink:title=" ">
<polygon fill="#bfbfbf" stroke="black" points="103,-0.5 103,-19.5 183,-19.5 183,-0.5 103,-0.5"/>
<text text-anchor="middle" x="143" y="-7.5" font-family="Helvetica,sans-Serif" font-size="10.00">tcp_segment</text>
</a>
</g>
</g>
<!-- Node2 -->
<g id="node2" class="node">
<title>Node2</title>
<g id="a_node2"><a xlink:title=" ">
<polygon fill="none" stroke="#bfbfbf" points="0,-112.5 0,-131.5 56,-131.5 56,-112.5 0,-112.5"/>
<text text-anchor="middle" x="28" y="-119.5" font-family="Helvetica,sans-Serif" font-size="10.00">uint16_t</text>
</a>
</g>
</g>
<!-- Node2&#45;&gt;Node1 -->
<g id="edge1" class="edge">
<title>Node2&#45;&gt;Node1</title>
<path fill="none" stroke="#9a32cd" stroke-dasharray="5,2" d="M22.22,-102.25C17.79,-83.83 14.61,-55.97 29,-38 38.25,-26.45 73.81,-19.31 102.79,-15.29"/>
<polygon fill="#9a32cd" stroke="#9a32cd" points="18.89,-103.36 24.91,-112.08 25.64,-101.51 18.89,-103.36"/>
<text text-anchor="middle" x="60.5" y="-85" font-family="Helvetica,sans-Serif" font-size="10.00"> checksum</text>
<text text-anchor="middle" x="60.5" y="-74" font-family="Helvetica,sans-Serif" font-size="10.00">dst_port</text>
<text text-anchor="middle" x="60.5" y="-63" font-family="Helvetica,sans-Serif" font-size="10.00">src_port</text>
<text text-anchor="middle" x="60.5" y="-52" font-family="Helvetica,sans-Serif" font-size="10.00">urgent</text>
<text text-anchor="middle" x="60.5" y="-41" font-family="Helvetica,sans-Serif" font-size="10.00">window_size</text>
</g>
<!-- Node3 -->
<g id="node3" class="node">
<title>Node3</title>
<g id="a_node3"><a xlink:href="uniontcp__segment__flags__t.html" target="_top" xlink:title=" ">
<polygon fill="none" stroke="black" points="164.5,-112.5 164.5,-131.5 281.5,-131.5 281.5,-112.5 164.5,-112.5"/>
<text text-anchor="middle" x="223" y="-119.5" font-family="Helvetica,sans-Serif" font-size="10.00">tcp_segment_flags_t</text>
</a>
</g>
</g>
<!-- Node3&#45;&gt;Node1 -->
<g id="edge2" class="edge">
<title>Node3&#45;&gt;Node1</title>
<path fill="none" stroke="#9a32cd" stroke-dasharray="5,2" d="M210.83,-104.27C193.54,-80.49 162.48,-37.79 149.25,-19.59"/>
<polygon fill="#9a32cd" stroke="#9a32cd" points="208.01,-106.34 216.72,-112.37 213.67,-102.22 208.01,-106.34"/>
<text text-anchor="middle" x="214.5" y="-63" font-family="Helvetica,sans-Serif" font-size="10.00"> flags</text>
</g>
<!-- Node4 -->
<g id="node4" class="node">
<title>Node4</title>
<g id="a_node4"><a xlink:title=" ">
<polygon fill="none" stroke="#bfbfbf" points="94,-290.5 94,-309.5 144,-309.5 144,-290.5 94,-290.5"/>
<text text-anchor="middle" x="119" y="-297.5" font-family="Helvetica,sans-Serif" font-size="10.00">uint8_t</text>
</a>
</g>
</g>
<!-- Node4&#45;&gt;Node1 -->
<g id="edge6" class="edge">
<title>Node4&#45;&gt;Node1</title>
<path fill="none" stroke="#9a32cd" stroke-dasharray="5,2" d="M116.63,-280.02C112.83,-245.96 106.58,-172.33 115,-111 119.76,-76.35 133.39,-36.79 139.71,-19.66"/>
<polygon fill="#9a32cd" stroke="#9a32cd" points="113.2,-280.8 117.85,-290.32 120.16,-279.98 113.2,-280.8"/>
<text text-anchor="middle" x="135" y="-125" font-family="Helvetica,sans-Serif" font-size="10.00"> options</text>
<text text-anchor="middle" x="135" y="-114" font-family="Helvetica,sans-Serif" font-size="10.00">payload</text>
</g>
<!-- Node4&#45;&gt;Node3 -->
<g id="edge3" class="edge">
<title>Node4&#45;&gt;Node3</title>
<path fill="none" stroke="#9a32cd" stroke-dasharray="5,2" d="M122.11,-280.31C127.97,-250.1 143.1,-190.01 176,-151 182.98,-142.72 193.06,-136.26 202.1,-131.65"/>
<polygon fill="#9a32cd" stroke="#9a32cd" points="118.64,-279.85 120.31,-290.31 125.53,-281.1 118.64,-279.85"/>
<text text-anchor="middle" x="197.5" y="-264" font-family="Helvetica,sans-Serif" font-size="10.00"> ack</text>
<text text-anchor="middle" x="197.5" y="-253" font-family="Helvetica,sans-Serif" font-size="10.00">bits1</text>
<text text-anchor="middle" x="197.5" y="-242" font-family="Helvetica,sans-Serif" font-size="10.00">bits2</text>
<text text-anchor="middle" x="197.5" y="-231" font-family="Helvetica,sans-Serif" font-size="10.00">cwr</text>
<text text-anchor="middle" x="197.5" y="-220" font-family="Helvetica,sans-Serif" font-size="10.00">ece</text>
<text text-anchor="middle" x="197.5" y="-209" font-family="Helvetica,sans-Serif" font-size="10.00">fin</text>
<text text-anchor="middle" x="197.5" y="-198" font-family="Helvetica,sans-Serif" font-size="10.00">off</text>
<text text-anchor="middle" x="197.5" y="-187" font-family="Helvetica,sans-Serif" font-size="10.00">psh</text>
<text text-anchor="middle" x="197.5" y="-176" font-family="Helvetica,sans-Serif" font-size="10.00">reserved</text>
<text text-anchor="middle" x="197.5" y="-165" font-family="Helvetica,sans-Serif" font-size="10.00">rst</text>
<text text-anchor="middle" x="197.5" y="-154" font-family="Helvetica,sans-Serif" font-size="10.00">...</text>
</g>
<!-- Node5 -->
<g id="node5" class="node">
<title>Node5</title>
<g id="a_node5"><a xlink:title=" ">
<polygon fill="none" stroke="#bfbfbf" points="174,-290.5 174,-309.5 272,-309.5 272,-290.5 174,-290.5"/>
<text text-anchor="middle" x="223" y="-297.5" font-family="Helvetica,sans-Serif" font-size="10.00">anonymous:@14</text>
</a>
</g>
</g>
<!-- Node5&#45;&gt;Node3 -->
<g id="edge4" class="edge">
<title>Node5&#45;&gt;Node3</title>
<path fill="none" stroke="#9a32cd" stroke-dasharray="5,2" d="M223,-279.84C223,-241.97 223,-158.86 223,-131.74"/>
<polygon fill="#9a32cd" stroke="#9a32cd" points="219.5,-280.03 223,-290.03 226.5,-280.03 219.5,-280.03"/>
<text text-anchor="middle" x="235.5" y="-209" font-family="Helvetica,sans-Serif" font-size="10.00"> @14</text>
</g>
<!-- Node6 -->
<g id="node6" class="node">
<title>Node6</title>
<g id="a_node6"><a xlink:title=" ">
<polygon fill="none" stroke="#bfbfbf" points="300,-112.5 300,-131.5 356,-131.5 356,-112.5 300,-112.5"/>
<text text-anchor="middle" x="328" y="-119.5" font-family="Helvetica,sans-Serif" font-size="10.00">uint32_t</text>
</a>
</g>
</g>
<!-- Node6&#45;&gt;Node1 -->
<g id="edge5" class="edge">
<title>Node6&#45;&gt;Node1</title>
<path fill="none" stroke="#9a32cd" stroke-dasharray="5,2" d="M313.57,-104.98C296,-86.38 264.61,-55.97 232,-38 217.01,-29.74 199.18,-23.69 183.42,-19.44"/>
<polygon fill="#9a32cd" stroke="#9a32cd" points="311.06,-107.42 320.42,-112.38 316.2,-102.67 311.06,-107.42"/>
<text text-anchor="middle" x="310.5" y="-68.5" font-family="Helvetica,sans-Serif" font-size="10.00"> ack</text>
<text text-anchor="middle" x="310.5" y="-57.5" font-family="Helvetica,sans-Serif" font-size="10.00">seq</text>
</g>
</g>
</svg>
