<?xml version="1.0" encoding="UTF-8" standalone="no"?>
<!DOCTYPE svg PUBLIC "-//W3C//DTD SVG 1.1//EN"
 "http://www.w3.org/Graphics/SVG/1.1/DTD/svg11.dtd">
<!-- Generated by graphviz version 2.43.0 (0)
 -->
<!-- Title: rfs_directory_entry_inner_t Pages: 1 -->
<svg width="294pt" height="139pt"
 viewBox="0.00 0.00 294.00 139.00" xmlns="http://www.w3.org/2000/svg" xmlns:xlink="http://www.w3.org/1999/xlink">
<g id="graph0" class="graph" transform="scale(1 1) rotate(0) translate(4 135)">
<title>rfs_directory_entry_inner_t</title>
<!-- Node1 -->
<g id="node1" class="node">
<title>Node1</title>
<g id="a_node1"><a xlink:title="On&#45;disk file entry structure for non&#45;directory entries.">
<polygon fill="#bfbfbf" stroke="black" points="97.5,-0.5 97.5,-30.5 206.5,-30.5 206.5,-0.5 97.5,-0.5"/>
<text text-anchor="start" x="105.5" y="-18.5" font-family="Helvetica,sans-Serif" font-size="10.00">rfs_directory_entry</text>
<text text-anchor="middle" x="152" y="-7.5" font-family="Helvetica,sans-Serif" font-size="10.00">_inner_t</text>
</a>
</g>
</g>
<!-- Node2 -->
<g id="node2" class="node">
<title>Node2</title>
<g id="a_node2"><a xlink:title=" ">
<polygon fill="none" stroke="#bfbfbf" points="0,-111.5 0,-130.5 56,-130.5 56,-111.5 0,-111.5"/>
<text text-anchor="middle" x="28" y="-118.5" font-family="Helvetica,sans-Serif" font-size="10.00">uint64_t</text>
</a>
</g>
</g>
<!-- Node2&#45;&gt;Node1 -->
<g id="edge1" class="edge">
<title>Node2&#45;&gt;Node1</title>
<path fill="none" stroke="#9a32cd" stroke-dasharray="5,2" d="M26.68,-101.13C26.64,-85.29 29.2,-63.05 42,-49 56.15,-33.47 77.32,-25.22 97.32,-20.89"/>
<polygon fill="#9a32cd" stroke="#9a32cd" points="23.19,-101.47 27.07,-111.33 30.19,-101.2 23.19,-101.47"/>
<text text-anchor="middle" x="75.5" y="-85" font-family="Helvetica,sans-Serif" font-size="10.00"> length</text>
<text text-anchor="middle" x="75.5" y="-74" font-family="Helvetica,sans-Serif" font-size="10.00">sector_length</text>
<text text-anchor="middle" x="75.5" y="-63" font-family="Helvetica,sans-Serif" font-size="10.00">sector_start</text>
<text text-anchor="middle" x="75.5" y="-52" font-family="Helvetica,sans-Serif" font-size="10.00">sequence</text>
</g>
<!-- Node3 -->
<g id="node3" class="node">
<title>Node3</title>
<g id="a_node3"><a xlink:title=" ">
<polygon fill="none" stroke="#bfbfbf" points="99,-111.5 99,-130.5 137,-130.5 137,-111.5 99,-111.5"/>
<text text-anchor="middle" x="118" y="-118.5" font-family="Helvetica,sans-Serif" font-size="10.00">char</text>
</a>
</g>
</g>
<!-- Node3&#45;&gt;Node1 -->
<g id="edge2" class="edge">
<title>Node3&#45;&gt;Node1</title>
<path fill="none" stroke="#9a32cd" stroke-dasharray="5,2" d="M114.5,-101.3C112.61,-86.5 111.9,-65.62 119,-49 121.97,-42.05 127.21,-35.82 132.65,-30.72"/>
<polygon fill="#9a32cd" stroke="#9a32cd" points="111.06,-101.93 116.08,-111.26 117.98,-100.84 111.06,-101.93"/>
<text text-anchor="middle" x="142" y="-74" font-family="Helvetica,sans-Serif" font-size="10.00"> filename</text>
<text text-anchor="middle" x="142" y="-63" font-family="Helvetica,sans-Serif" font-size="10.00">reserved</text>
</g>
<!-- Node4 -->
<g id="node4" class="node">
<title>Node4</title>
<g id="a_node4"><a xlink:title=" ">
<polygon fill="none" stroke="#bfbfbf" points="162,-111.5 162,-130.5 212,-130.5 212,-111.5 162,-111.5"/>
<text text-anchor="middle" x="187" y="-118.5" font-family="Helvetica,sans-Serif" font-size="10.00">int64_t</text>
</a>
</g>
</g>
<!-- Node4&#45;&gt;Node1 -->
<g id="edge3" class="edge">
<title>Node4&#45;&gt;Node1</title>
<path fill="none" stroke="#9a32cd" stroke-dasharray="5,2" d="M181.71,-101.49C177.48,-87.08 171.25,-66.64 165,-49 162.85,-42.93 160.25,-36.31 157.94,-30.64"/>
<polygon fill="#9a32cd" stroke="#9a32cd" points="178.37,-102.55 184.51,-111.18 185.09,-100.6 178.37,-102.55"/>
<text text-anchor="middle" x="200.5" y="-74" font-family="Helvetica,sans-Serif" font-size="10.00"> created</text>
<text text-anchor="middle" x="200.5" y="-63" font-family="Helvetica,sans-Serif" font-size="10.00">modified</text>
</g>
<!-- Node5 -->
<g id="node5" class="node">
<title>Node5</title>
<g id="a_node5"><a xlink:title=" ">
<polygon fill="none" stroke="#bfbfbf" points="230,-111.5 230,-130.5 286,-130.5 286,-111.5 230,-111.5"/>
<text text-anchor="middle" x="258" y="-118.5" font-family="Helvetica,sans-Serif" font-size="10.00">uint32_t</text>
</a>
</g>
</g>
<!-- Node5&#45;&gt;Node1 -->
<g id="edge4" class="edge">
<title>Node5&#45;&gt;Node1</title>
<path fill="none" stroke="#9a32cd" stroke-dasharray="5,2" d="M253.61,-101.3C249.06,-85.57 240.53,-63.39 226,-49 218.22,-41.3 208.32,-35.27 198.3,-30.62"/>
<polygon fill="#9a32cd" stroke="#9a32cd" points="250.34,-102.63 256.25,-111.42 257.11,-100.86 250.34,-102.63"/>
<text text-anchor="middle" x="263.5" y="-68.5" font-family="Helvetica,sans-Serif" font-size="10.00"> flags</text>
</g>
</g>
</svg>
