<?xml version="1.0" encoding="UTF-8" standalone="no"?>
<!DOCTYPE svg PUBLIC "-//W3C//DTD SVG 1.1//EN"
 "http://www.w3.org/Graphics/SVG/1.1/DTD/svg11.dtd">
<!-- Generated by graphviz version 2.43.0 (0)
 -->
<!-- Title: footer_t Pages: 1 -->
<svg width="240pt" height="173pt"
 viewBox="0.00 0.00 240.00 173.00" xmlns="http://www.w3.org/2000/svg" xmlns:xlink="http://www.w3.org/1999/xlink">
<g id="graph0" class="graph" transform="scale(1 1) rotate(0) translate(4 169)">
<title>footer_t</title>
<!-- Node1 -->
<g id="node1" class="node">
<title>Node1</title>
<g id="a_node1"><a xlink:title=" ">
<polygon fill="#bfbfbf" stroke="black" points="30.5,-0.5 30.5,-19.5 85.5,-19.5 85.5,-0.5 30.5,-0.5"/>
<text text-anchor="middle" x="58" y="-7.5" font-family="Helvetica,sans-Serif" font-size="10.00">footer_t</text>
</a>
</g>
</g>
<!-- Node2 -->
<g id="node2" class="node">
<title>Node2</title>
<g id="a_node2"><a xlink:href="structheader__t.html" target="_top" xlink:title=" ">
<polygon fill="none" stroke="black" points="85.5,-67.5 85.5,-86.5 144.5,-86.5 144.5,-67.5 85.5,-67.5"/>
<text text-anchor="middle" x="115" y="-74.5" font-family="Helvetica,sans-Serif" font-size="10.00">header_t</text>
</a>
</g>
</g>
<!-- Node2&#45;&gt;Node1 -->
<g id="edge1" class="edge">
<title>Node2&#45;&gt;Node1</title>
<path fill="none" stroke="#9a32cd" stroke-dasharray="5,2" d="M100.65,-59.63C89.5,-46.92 74.48,-29.8 65.57,-19.63"/>
<polygon fill="#9a32cd" stroke="#9a32cd" points="98.09,-62.02 107.31,-67.23 103.35,-57.41 98.09,-62.02"/>
<text text-anchor="middle" x="108.5" y="-41" font-family="Helvetica,sans-Serif" font-size="10.00"> header</text>
</g>
<!-- Node3 -->
<g id="node3" class="node">
<title>Node3</title>
<g id="a_node3"><a xlink:title=" ">
<polygon fill="none" stroke="#bfbfbf" points="0,-145.5 0,-164.5 56,-164.5 56,-145.5 0,-145.5"/>
<text text-anchor="middle" x="28" y="-152.5" font-family="Helvetica,sans-Serif" font-size="10.00">uint64_t</text>
</a>
</g>
</g>
<!-- Node3&#45;&gt;Node1 -->
<g id="edge5" class="edge">
<title>Node3&#45;&gt;Node1</title>
<path fill="none" stroke="#9a32cd" stroke-dasharray="5,2" d="M30.37,-135.16C32.76,-117.46 36.82,-90.27 42,-67 45.78,-50.02 51.7,-30.58 55.18,-19.65"/>
<polygon fill="#9a32cd" stroke="#9a32cd" points="26.88,-134.92 29.05,-145.29 33.82,-135.83 26.88,-134.92"/>
<text text-anchor="middle" x="59" y="-74.5" font-family="Helvetica,sans-Serif" font-size="10.00"> magic</text>
</g>
<!-- Node3&#45;&gt;Node2 -->
<g id="edge2" class="edge">
<title>Node3&#45;&gt;Node2</title>
<path fill="none" stroke="#9a32cd" stroke-dasharray="5,2" d="M43.49,-138.16C53.36,-128.3 66.6,-115.54 79,-105 86.62,-98.52 95.62,-91.77 102.71,-86.64"/>
<polygon fill="#9a32cd" stroke="#9a32cd" points="40.92,-135.78 36.36,-145.35 45.89,-140.71 40.92,-135.78"/>
<text text-anchor="middle" x="96" y="-119" font-family="Helvetica,sans-Serif" font-size="10.00"> magic</text>
<text text-anchor="middle" x="96" y="-108" font-family="Helvetica,sans-Serif" font-size="10.00">size</text>
</g>
<!-- Node4 -->
<g id="node4" class="node">
<title>Node4</title>
<g id="a_node4"><a xlink:title=" ">
<polygon fill="none" stroke="#bfbfbf" points="74.5,-145.5 74.5,-164.5 163.5,-164.5 163.5,-145.5 74.5,-145.5"/>
<text text-anchor="middle" x="119" y="-152.5" font-family="Helvetica,sans-Serif" font-size="10.00">struct header *</text>
</a>
</g>
</g>
<!-- Node4&#45;&gt;Node2 -->
<g id="edge3" class="edge">
<title>Node4&#45;&gt;Node2</title>
<path fill="none" stroke="#9a32cd" stroke-dasharray="5,2" d="M118.01,-135.22C117.19,-119.7 116.07,-98.36 115.45,-86.62"/>
<polygon fill="#9a32cd" stroke="#9a32cd" points="114.52,-135.48 118.54,-145.28 121.51,-135.11 114.52,-135.48"/>
<text text-anchor="middle" x="130.5" y="-119" font-family="Helvetica,sans-Serif" font-size="10.00"> next</text>
<text text-anchor="middle" x="130.5" y="-108" font-family="Helvetica,sans-Serif" font-size="10.00">prev</text>
</g>
<!-- Node5 -->
<g id="node5" class="node">
<title>Node5</title>
<g id="a_node5"><a xlink:title=" ">
<polygon fill="none" stroke="#bfbfbf" points="182,-145.5 182,-164.5 232,-164.5 232,-145.5 182,-145.5"/>
<text text-anchor="middle" x="207" y="-152.5" font-family="Helvetica,sans-Serif" font-size="10.00">uint8_t</text>
</a>
</g>
</g>
<!-- Node5&#45;&gt;Node2 -->
<g id="edge4" class="edge">
<title>Node5&#45;&gt;Node2</title>
<path fill="none" stroke="#9a32cd" stroke-dasharray="5,2" d="M188.51,-138.73C169.56,-123.07 140.75,-99.27 125.43,-86.62"/>
<polygon fill="#9a32cd" stroke="#9a32cd" points="186.51,-141.61 196.45,-145.28 190.97,-136.21 186.51,-141.61"/>
<text text-anchor="middle" x="182.5" y="-113.5" font-family="Helvetica,sans-Serif" font-size="10.00"> free</text>
</g>
</g>
</svg>
