<?xml version="1.0" encoding="UTF-8" standalone="no"?>
<!DOCTYPE svg PUBLIC "-//W3C//DTD SVG 1.1//EN"
 "http://www.w3.org/Graphics/SVG/1.1/DTD/svg11.dtd">
<!-- Generated by graphviz version 2.43.0 (0)
 -->
<!-- Title: buddy_allocator_t Pages: 1 -->
<svg width="425pt" height="264pt"
 viewBox="0.00 0.00 425.13 264.00" xmlns="http://www.w3.org/2000/svg" xmlns:xlink="http://www.w3.org/1999/xlink">
<g id="graph0" class="graph" transform="scale(1 1) rotate(0) translate(4 260)">
<title>buddy_allocator_t</title>
<!-- Node1 -->
<g id="node1" class="node">
<title>Node1</title>
<g id="a_node1"><a xlink:title="Growable buddy allocator instance.">
<polygon fill="#bfbfbf" stroke="black" points="67.13,-0.5 67.13,-19.5 171.13,-19.5 171.13,-0.5 67.13,-0.5"/>
<text text-anchor="middle" x="119.13" y="-7.5" font-family="Helvetica,sans-Serif" font-size="10.00">buddy_allocator_t</text>
</a>
</g>
</g>
<!-- Node2 -->
<g id="node2" class="node">
<title>Node2</title>
<g id="a_node2"><a xlink:href="structbuddy__region__t.html" target="_top" xlink:title="Buddy region structure (internal).">
<polygon fill="none" stroke="black" points="76.13,-78.5 76.13,-97.5 168.13,-97.5 168.13,-78.5 76.13,-78.5"/>
<text text-anchor="middle" x="122.13" y="-85.5" font-family="Helvetica,sans-Serif" font-size="10.00">buddy_region_t</text>
</a>
</g>
</g>
<!-- Node2&#45;&gt;Node1 -->
<g id="edge1" class="edge">
<title>Node2&#45;&gt;Node1</title>
<path fill="none" stroke="#9a32cd" stroke-dasharray="5,2" d="M120.62,-68.38C120.43,-65.57 120.26,-62.71 120.13,-60 119.46,-45.89 119.24,-29.48 119.16,-19.68"/>
<polygon fill="#9a32cd" stroke="#9a32cd" points="117.14,-68.79 121.38,-78.49 124.12,-68.26 117.14,-68.79"/>
<text text-anchor="middle" x="155.13" y="-52" font-family="Helvetica,sans-Serif" font-size="10.00"> active_region</text>
<text text-anchor="middle" x="155.13" y="-41" font-family="Helvetica,sans-Serif" font-size="10.00">regions</text>
</g>
<!-- Node3 -->
<g id="node3" class="node">
<title>Node3</title>
<g id="a_node3"><a xlink:title=" ">
<polygon fill="none" stroke="#bfbfbf" points="295.13,-236.5 295.13,-255.5 417.13,-255.5 417.13,-236.5 295.13,-236.5"/>
<text text-anchor="middle" x="356.13" y="-243.5" font-family="Helvetica,sans-Serif" font-size="10.00">struct buddy_region *</text>
</a>
</g>
</g>
<!-- Node3&#45;&gt;Node2 -->
<g id="edge2" class="edge">
<title>Node3&#45;&gt;Node2</title>
<path fill="none" stroke="#9a32cd" stroke-dasharray="5,2" d="M347.97,-226.93C333.94,-198.12 302.3,-142.36 257.13,-116 249.39,-111.48 204.37,-102.99 168.41,-96.73"/>
<polygon fill="#9a32cd" stroke="#9a32cd" points="344.92,-228.66 352.34,-236.22 351.25,-225.68 344.92,-228.66"/>
<text text-anchor="middle" x="338.63" y="-175.5" font-family="Helvetica,sans-Serif" font-size="10.00"> next</text>
</g>
<!-- Node5 -->
<g id="node5" class="node">
<title>Node5</title>
<g id="a_node5"><a xlink:href="structbuddy__header__t.html" target="_top" xlink:title="Block header used for both free list nodes and allocated blocks.">
<polygon fill="none" stroke="black" points="196.63,-168.5 196.63,-187.5 291.63,-187.5 291.63,-168.5 196.63,-168.5"/>
<text text-anchor="middle" x="244.13" y="-175.5" font-family="Helvetica,sans-Serif" font-size="10.00">buddy_header_t</text>
</a>
</g>
</g>
<!-- Node3&#45;&gt;Node5 -->
<g id="edge5" class="edge">
<title>Node3&#45;&gt;Node5</title>
<path fill="none" stroke="#9a32cd" stroke-dasharray="5,2" d="M323.42,-232.58C313.74,-228.42 303.28,-223.45 294.13,-218 278.99,-209 263.24,-196.01 253.56,-187.54"/>
<polygon fill="#9a32cd" stroke="#9a32cd" points="322.19,-235.86 332.77,-236.45 324.87,-229.39 322.19,-235.86"/>
<text text-anchor="middle" x="311.13" y="-210" font-family="Helvetica,sans-Serif" font-size="10.00"> region</text>
</g>
<!-- Node4 -->
<g id="node4" class="node">
<title>Node4</title>
<g id="a_node4"><a xlink:title=" ">
<polygon fill="none" stroke="#bfbfbf" points="104.63,-236.5 104.63,-255.5 133.63,-255.5 133.63,-236.5 104.63,-236.5"/>
<text text-anchor="middle" x="119.13" y="-243.5" font-family="Helvetica,sans-Serif" font-size="10.00">int</text>
</a>
</g>
</g>
<!-- Node4&#45;&gt;Node1 -->
<g id="edge10" class="edge">
<title>Node4&#45;&gt;Node1</title>
<path fill="none" stroke="#9a32cd" stroke-dasharray="5,2" d="M95.24,-234.9C75.08,-225.42 46.48,-209.62 27.13,-189 4.02,-164.38 -7.36,-146.95 6.13,-116 26.24,-69.85 77.76,-34.85 103.7,-19.52"/>
<polygon fill="#9a32cd" stroke="#9a32cd" points="93.83,-238.11 104.39,-239.04 96.72,-231.73 93.83,-238.11"/>
<text text-anchor="middle" x="35.13" y="-141" font-family="Helvetica,sans-Serif" font-size="10.00"> grow_order</text>
<text text-anchor="middle" x="35.13" y="-130" font-family="Helvetica,sans-Serif" font-size="10.00">max_order</text>
<text text-anchor="middle" x="35.13" y="-119" font-family="Helvetica,sans-Serif" font-size="10.00">min_order</text>
</g>
<!-- Node4&#45;&gt;Node2 -->
<g id="edge3" class="edge">
<title>Node4&#45;&gt;Node2</title>
<path fill="none" stroke="#9a32cd" stroke-dasharray="5,2" d="M119.5,-225.73C120.15,-191.69 121.49,-122.18 121.96,-97.74"/>
<polygon fill="#9a32cd" stroke="#9a32cd" points="115.99,-226.1 119.3,-236.17 122.99,-226.23 115.99,-226.1"/>
<text text-anchor="middle" x="148.13" y="-181" font-family="Helvetica,sans-Serif" font-size="10.00"> max_order</text>
<text text-anchor="middle" x="148.13" y="-170" font-family="Helvetica,sans-Serif" font-size="10.00">min_order</text>
</g>
<!-- Node4&#45;&gt;Node5 -->
<g id="edge7" class="edge">
<title>Node4&#45;&gt;Node5</title>
<path fill="none" stroke="#9a32cd" stroke-dasharray="5,2" d="M143.08,-232.35C167.93,-219.23 206.12,-199.07 227.73,-187.66"/>
<polygon fill="#9a32cd" stroke="#9a32cd" points="141.17,-229.41 133.96,-237.17 144.43,-235.6 141.17,-229.41"/>
<text text-anchor="middle" x="202.63" y="-210" font-family="Helvetica,sans-Serif" font-size="10.00"> order</text>
</g>
<!-- Node5&#45;&gt;Node2 -->
<g id="edge4" class="edge">
<title>Node5&#45;&gt;Node2</title>
<path fill="none" stroke="#9a32cd" stroke-dasharray="5,2" d="M223.73,-162.28C198.14,-143.83 155.11,-112.79 134.22,-97.72"/>
<polygon fill="#9a32cd" stroke="#9a32cd" points="221.83,-165.23 231.98,-168.24 225.92,-159.55 221.83,-165.23"/>
<text text-anchor="middle" x="228.63" y="-130" font-family="Helvetica,sans-Serif" font-size="10.00"> free_lists</text>
</g>
<!-- Node6 -->
<g id="node6" class="node">
<title>Node6</title>
<g id="a_node6"><a xlink:title=" ">
<polygon fill="none" stroke="#bfbfbf" points="151.63,-236.5 151.63,-255.5 276.63,-255.5 276.63,-236.5 151.63,-236.5"/>
<text text-anchor="middle" x="214.13" y="-243.5" font-family="Helvetica,sans-Serif" font-size="10.00">struct buddy_header *</text>
</a>
</g>
</g>
<!-- Node6&#45;&gt;Node5 -->
<g id="edge6" class="edge">
<title>Node6&#45;&gt;Node5</title>
<path fill="none" stroke="#9a32cd" stroke-dasharray="5,2" d="M222.22,-227.19C228.01,-214.45 235.55,-197.86 240.11,-187.84"/>
<polygon fill="#9a32cd" stroke="#9a32cd" points="219,-225.82 218.05,-236.37 225.37,-228.72 219,-225.82"/>
<text text-anchor="middle" x="242.63" y="-210" font-family="Helvetica,sans-Serif" font-size="10.00"> next</text>
</g>
<!-- Node7 -->
<g id="node7" class="node">
<title>Node7</title>
<g id="a_node7"><a xlink:title=" ">
<polygon fill="none" stroke="#bfbfbf" points="36.13,-168.5 36.13,-187.5 86.13,-187.5 86.13,-168.5 36.13,-168.5"/>
<text text-anchor="middle" x="61.13" y="-175.5" font-family="Helvetica,sans-Serif" font-size="10.00">uint8_t</text>
</a>
</g>
</g>
<!-- Node7&#45;&gt;Node2 -->
<g id="edge8" class="edge">
<title>Node7&#45;&gt;Node2</title>
<path fill="none" stroke="#9a32cd" stroke-dasharray="5,2" d="M64.72,-158.26C67.9,-145.37 73.57,-128.42 83.13,-116 88.95,-108.43 97.51,-102.17 105.12,-97.6"/>
<polygon fill="#9a32cd" stroke="#9a32cd" points="61.24,-157.79 62.53,-168.31 68.08,-159.29 61.24,-157.79"/>
<text text-anchor="middle" x="95.63" y="-130" font-family="Helvetica,sans-Serif" font-size="10.00"> pool</text>
</g>
<!-- Node8 -->
<g id="node8" class="node">
<title>Node8</title>
<g id="a_node8"><a xlink:title=" ">
<polygon fill="none" stroke="#bfbfbf" points="189.63,-78.5 189.63,-97.5 234.63,-97.5 234.63,-78.5 189.63,-78.5"/>
<text text-anchor="middle" x="212.13" y="-85.5" font-family="Helvetica,sans-Serif" font-size="10.00">size_t</text>
</a>
</g>
</g>
<!-- Node8&#45;&gt;Node1 -->
<g id="edge9" class="edge">
<title>Node8&#45;&gt;Node1</title>
<path fill="none" stroke="#9a32cd" stroke-dasharray="5,2" d="M207.61,-68.56C204.28,-58.37 198.79,-46.17 190.13,-38 181.11,-29.5 169.14,-23.6 157.6,-19.53"/>
<polygon fill="#9a32cd" stroke="#9a32cd" points="204.25,-69.52 210.34,-78.19 210.98,-67.61 204.25,-69.52"/>
<text text-anchor="middle" x="239.13" y="-52" font-family="Helvetica,sans-Serif" font-size="10.00"> current_bytes</text>
<text text-anchor="middle" x="239.13" y="-41" font-family="Helvetica,sans-Serif" font-size="10.00">peak_bytes</text>
</g>
</g>
</svg>
