<?xml version="1.0" encoding="UTF-8" standalone="no"?>
<!DOCTYPE svg PUBLIC "-//W3C//DTD SVG 1.1//EN"
 "http://www.w3.org/Graphics/SVG/1.1/DTD/svg11.dtd">
<!-- Generated by graphviz version 2.43.0 (0)
 -->
<!-- Title: icmp_timestamp_packet Pages: 1 -->
<svg width="280pt" height="117pt"
 viewBox="0.00 0.00 280.00 117.00" xmlns="http://www.w3.org/2000/svg" xmlns:xlink="http://www.w3.org/1999/xlink">
<g id="graph0" class="graph" transform="scale(1 1) rotate(0) translate(4 113)">
<title>icmp_timestamp_packet</title>
<!-- Node1 -->
<g id="node1" class="node">
<title>Node1</title>
<g id="a_node1"><a xlink:title=" ">
<polygon fill="#bfbfbf" stroke="black" points="27.5,-0.5 27.5,-19.5 164.5,-19.5 164.5,-0.5 27.5,-0.5"/>
<text text-anchor="middle" x="96" y="-7.5" font-family="Helvetica,sans-Serif" font-size="10.00">icmp_timestamp_packet</text>
</a>
</g>
</g>
<!-- Node2 -->
<g id="node2" class="node">
<title>Node2</title>
<g id="a_node2"><a xlink:title=" ">
<polygon fill="none" stroke="black" points="0,-89.5 0,-108.5 50,-108.5 50,-89.5 0,-89.5"/>
<text text-anchor="middle" x="25" y="-96.5" font-family="Helvetica,sans-Serif" font-size="10.00">uint8_t</text>
</a>
</g>
</g>
<!-- Node2&#45;&gt;Node1 -->
<g id="edge1" class="edge">
<title>Node2&#45;&gt;Node1</title>
<path fill="none" stroke="#9a32cd" stroke-dasharray="5,2" d="M35,-80.44C42.48,-67.98 53.39,-51.21 65,-38 70.94,-31.25 78.54,-24.6 84.73,-19.59"/>
<polygon fill="#9a32cd" stroke="#9a32cd" points="31.81,-78.95 29.78,-89.35 37.85,-82.48 31.81,-78.95"/>
<text text-anchor="middle" x="78.5" y="-57.5" font-family="Helvetica,sans-Serif" font-size="10.00"> code</text>
<text text-anchor="middle" x="78.5" y="-46.5" font-family="Helvetica,sans-Serif" font-size="10.00">type</text>
</g>
<!-- Node3 -->
<g id="node3" class="node">
<title>Node3</title>
<g id="a_node3"><a xlink:title=" ">
<polygon fill="none" stroke="black" points="68,-89.5 68,-108.5 124,-108.5 124,-89.5 68,-89.5"/>
<text text-anchor="middle" x="96" y="-96.5" font-family="Helvetica,sans-Serif" font-size="10.00">uint16_t</text>
</a>
</g>
</g>
<!-- Node3&#45;&gt;Node1 -->
<g id="edge2" class="edge">
<title>Node3&#45;&gt;Node1</title>
<path fill="none" stroke="#9a32cd" stroke-dasharray="5,2" d="M96,-79.19C96,-60.74 96,-33.41 96,-19.62"/>
<polygon fill="#9a32cd" stroke="#9a32cd" points="92.5,-79.34 96,-89.34 99.5,-79.34 92.5,-79.34"/>
<text text-anchor="middle" x="122.5" y="-63" font-family="Helvetica,sans-Serif" font-size="10.00"> checksum</text>
<text text-anchor="middle" x="122.5" y="-52" font-family="Helvetica,sans-Serif" font-size="10.00">id</text>
<text text-anchor="middle" x="122.5" y="-41" font-family="Helvetica,sans-Serif" font-size="10.00">seq</text>
</g>
<!-- Node4 -->
<g id="node4" class="node">
<title>Node4</title>
<g id="a_node4"><a xlink:title=" ">
<polygon fill="none" stroke="black" points="144,-89.5 144,-108.5 200,-108.5 200,-89.5 144,-89.5"/>
<text text-anchor="middle" x="172" y="-96.5" font-family="Helvetica,sans-Serif" font-size="10.00">uint32_t</text>
</a>
</g>
</g>
<!-- Node4&#45;&gt;Node1 -->
<g id="edge3" class="edge">
<title>Node4&#45;&gt;Node1</title>
<path fill="none" stroke="#9a32cd" stroke-dasharray="5,2" d="M168.87,-79.12C165.9,-66.25 160.29,-49.52 150,-38 142.67,-29.79 132.26,-23.78 122.54,-19.53"/>
<polygon fill="#9a32cd" stroke="#9a32cd" points="165.49,-80.08 170.85,-89.21 172.36,-78.73 165.49,-80.08"/>
<text text-anchor="middle" x="219" y="-63" font-family="Helvetica,sans-Serif" font-size="10.00"> originate_timestamp</text>
<text text-anchor="middle" x="219" y="-52" font-family="Helvetica,sans-Serif" font-size="10.00">receive_timestamp</text>
<text text-anchor="middle" x="219" y="-41" font-family="Helvetica,sans-Serif" font-size="10.00">transmit_timestamp</text>
</g>
</g>
</svg>
