<?xml version="1.0" encoding="UTF-8" standalone="no"?>
<!DOCTYPE svg PUBLIC "-//W3C//DTD SVG 1.1//EN"
 "http://www.w3.org/Graphics/SVG/1.1/DTD/svg11.dtd">
<!-- Generated by graphviz version 2.43.0 (0)
 -->
<!-- Title: ahci_trim_range Pages: 1 -->
<svg width="138pt" height="95pt"
 viewBox="0.00 0.00 138.00 95.00" xmlns="http://www.w3.org/2000/svg" xmlns:xlink="http://www.w3.org/1999/xlink">
<g id="graph0" class="graph" transform="scale(1 1) rotate(0) translate(4 91)">
<title>ahci_trim_range</title>
<!-- Node1 -->
<g id="node1" class="node">
<title>Node1</title>
<g id="a_node1"><a xlink:title=" ">
<polygon fill="#bfbfbf" stroke="black" points="17.5,-0.5 17.5,-19.5 112.5,-19.5 112.5,-0.5 17.5,-0.5"/>
<text text-anchor="middle" x="65" y="-7.5" font-family="Helvetica,sans-Serif" font-size="10.00">ahci_trim_range</text>
</a>
</g>
</g>
<!-- Node2 -->
<g id="node2" class="node">
<title>Node2</title>
<g id="a_node2"><a xlink:title=" ">
<polygon fill="none" stroke="#bfbfbf" points="0,-67.5 0,-86.5 56,-86.5 56,-67.5 0,-67.5"/>
<text text-anchor="middle" x="28" y="-74.5" font-family="Helvetica,sans-Serif" font-size="10.00">uint64_t</text>
</a>
</g>
</g>
<!-- Node2&#45;&gt;Node1 -->
<g id="edge1" class="edge">
<title>Node2&#45;&gt;Node1</title>
<path fill="none" stroke="#9a32cd" stroke-dasharray="5,2" d="M37.94,-58.53C45.11,-45.95 54.47,-29.51 60.09,-19.63"/>
<polygon fill="#9a32cd" stroke="#9a32cd" points="34.9,-56.81 32.99,-67.23 40.98,-60.27 34.9,-56.81"/>
<text text-anchor="middle" x="58.5" y="-41" font-family="Helvetica,sans-Serif" font-size="10.00"> lba</text>
</g>
<!-- Node3 -->
<g id="node3" class="node">
<title>Node3</title>
<g id="a_node3"><a xlink:title=" ">
<polygon fill="none" stroke="#bfbfbf" points="74,-67.5 74,-86.5 130,-86.5 130,-67.5 74,-67.5"/>
<text text-anchor="middle" x="102" y="-74.5" font-family="Helvetica,sans-Serif" font-size="10.00">uint32_t</text>
</a>
</g>
</g>
<!-- Node3&#45;&gt;Node1 -->
<g id="edge2" class="edge">
<title>Node3&#45;&gt;Node1</title>
<path fill="none" stroke="#9a32cd" stroke-dasharray="5,2" d="M92.06,-58.53C84.89,-45.95 75.53,-29.51 69.91,-19.63"/>
<polygon fill="#9a32cd" stroke="#9a32cd" points="89.02,-60.27 97.01,-67.23 95.1,-56.81 89.02,-60.27"/>
<text text-anchor="middle" x="104.5" y="-41" font-family="Helvetica,sans-Serif" font-size="10.00"> sectors</text>
</g>
</g>
</svg>
