<?xml version="1.0" encoding="UTF-8" standalone="no"?>
<!DOCTYPE svg PUBLIC "-//W3C//DTD SVG 1.1//EN"
 "http://www.w3.org/Graphics/SVG/1.1/DTD/svg11.dtd">
<!-- Generated by graphviz version 2.43.0 (0)
 -->
<!-- Title: fs_tree_t Pages: 1 -->
<!--zoomable 354 -->
<svg id="main" version="1.1" xmlns="http://www.w3.org/2000/svg" xmlns:xlink="http://www.w3.org/1999/xlink" xml:space="preserve" onload="init(evt)">
<style type="text/css"><![CDATA[
.edge:hover path { stroke: red; }
.edge:hover polygon { stroke: red; fill: red; }
]]></style>
<script type="text/javascript"><![CDATA[
var edges = document.getElementsByTagName('g');
if (edges && edges.length) {
  for (var i=0;i<edges.length;i++) {
    if (edges[i].id.substr(0,4)=='edge') {
      edges[i].setAttribute('class','edge');
    }
  }
}
]]></script>
        <defs>
                <circle id="rim" cx="0" cy="0" r="7"/>
                <circle id="rim2" cx="0" cy="0" r="3.5"/>
                <g id="zoomPlus">
                        <use xlink:href="#rim" fill="#404040">
                                <set attributeName="fill" to="#808080" begin="zoomplus.mouseover" end="zoomplus.mouseout"/>
                        </use>
                        <path d="M-4,0h8M0,-4v8" fill="none" stroke="white" stroke-width="1.5" pointer-events="none"/>
                </g>
                <g id="zoomMin">
                        <use xlink:href="#rim" fill="#404040">
                                <set attributeName="fill" to="#808080" begin="zoomminus.mouseover" end="zoomminus.mouseout"/>
                        </use>
                        <path d="M-4,0h8" fill="none" stroke="white" stroke-width="1.5" pointer-events="none"/>
                </g>
                <g id="dirArrow">
                        <path fill="none" stroke="white" stroke-width="1.5" d="M0,-3.0v7 M-2.5,-0.5L0,-3.0L2.5,-0.5"/>
                </g>
               <g id="resetDef">
                       <use xlink:href="#rim2" fill="#404040">
                               <set attributeName="fill" to="#808080" begin="reset.mouseover" end="reset.mouseout"/>
                       </use>
               </g>
        </defs>

<script type="text/javascript">
var viewWidth = 623;
var viewHeight = 354;
var sectionId = 'dynsection-0';
</script>
<script xlink:href="svgpan.js"/>
<svg id="graph" class="graph">
<g id="viewport">
<title>fs_tree_t</title>
<!-- Node1 -->
<g id="node1" class="node">
<title>Node1</title>
<g id="a_node1"><a xlink:title="Used internally by filesystem.c to cache directories to RAM.">
<polygon fill="#bfbfbf" stroke="black" points="174.07,-96 174.07,-115 233.07,-115 233.07,-96 174.07,-96"/>
<text text-anchor="middle" x="203.57" y="-103" font-family="Helvetica,sans-Serif" font-size="10.00">fs_tree_t</text>
</a>
</g>
</g>
<!-- Node1&#45;&gt;Node1 -->
<g id="edge10" class="edge">
<title>Node1&#45;&gt;Node1</title>
<path fill="none" stroke="#9a32cd" stroke-dasharray="5,2" d="M234.07,-115.99C243.58,-115.81 251.07,-112.31 251.07,-105.5 251.07,-96.42 237.76,-93.23 224.08,-95.93"/>
<polygon fill="#9a32cd" stroke="#9a32cd" points="234.36,-112.5 224.08,-115.07 233.72,-119.47 234.36,-112.5"/>
<text text-anchor="middle" x="276.07" y="-114" font-family="Helvetica,sans-Serif" font-size="10.00"> child_dirs</text>
<text text-anchor="middle" x="276.07" y="-103" font-family="Helvetica,sans-Serif" font-size="10.00">next</text>
<text text-anchor="middle" x="276.07" y="-92" font-family="Helvetica,sans-Serif" font-size="10.00">parent</text>
</g>
<!-- Node3 -->
<g id="node3" class="node">
<title>Node3</title>
<g id="a_node3"><a xlink:href="structfs__directory__entry__t.html" target="_top" xlink:title="A VFS directory entry. Files AND directories have these, but internally there is also a tree of fs_tr...">
<polygon fill="none" stroke="black" points="118.57,-0.5 118.57,-19.5 232.57,-19.5 232.57,-0.5 118.57,-0.5"/>
<text text-anchor="middle" x="175.57" y="-7.5" font-family="Helvetica,sans-Serif" font-size="10.00">fs_directory_entry_t</text>
</a>
</g>
</g>
<!-- Node1&#45;&gt;Node3 -->
<g id="edge5" class="edge">
<title>Node1&#45;&gt;Node3</title>
<path fill="none" stroke="#9a32cd" stroke-dasharray="5,2" d="M206.08,-85.75C207.14,-71.99 206.91,-53.16 200.57,-38 197.57,-30.81 191.75,-24.34 186.48,-19.54"/>
<polygon fill="#9a32cd" stroke="#9a32cd" points="202.58,-85.59 205,-95.91 209.54,-86.33 202.58,-85.59"/>
<text text-anchor="middle" x="229.07" y="-46.5" font-family="Helvetica,sans-Serif" font-size="10.00"> directory</text>
</g>
<!-- Node2 -->
<g id="node2" class="node">
<title>Node2</title>
<g id="a_node2"><a xlink:title=" ">
<polygon fill="none" stroke="#bfbfbf" points="133.57,-326.5 133.57,-345.5 189.57,-345.5 189.57,-326.5 133.57,-326.5"/>
<text text-anchor="middle" x="161.57" y="-333.5" font-family="Helvetica,sans-Serif" font-size="10.00">uint64_t</text>
</a>
</g>
</g>
<!-- Node2&#45;&gt;Node1 -->
<g id="edge1" class="edge">
<title>Node2&#45;&gt;Node1</title>
<path fill="none" stroke="#9a32cd" stroke-dasharray="5,2" d="M165,-316.36C173.6,-269.59 195.83,-148.64 201.98,-115.19"/>
<polygon fill="#9a32cd" stroke="#9a32cd" points="161.53,-315.85 163.17,-326.32 168.42,-317.12 161.53,-315.85"/>
<text text-anchor="middle" x="202.57" y="-227" font-family="Helvetica,sans-Serif" font-size="10.00"> device</text>
<text text-anchor="middle" x="202.57" y="-216" font-family="Helvetica,sans-Serif" font-size="10.00">lbapos</text>
<text text-anchor="middle" x="202.57" y="-205" font-family="Helvetica,sans-Serif" font-size="10.00">size</text>
</g>
<!-- Node2&#45;&gt;Node3 -->
<g id="edge4" class="edge">
<title>Node2&#45;&gt;Node3</title>
<path fill="none" stroke="#9a32cd" stroke-dasharray="5,2" d="M134.02,-321.74C102.82,-305.42 52.47,-274.88 22.57,-235 -0.33,-204.45 -4.1,-188.18 4.57,-151 17.73,-94.58 21.64,-70.54 69.57,-38 83.95,-28.24 101.59,-22.01 118.33,-18.03"/>
<polygon fill="#9a32cd" stroke="#9a32cd" points="132.54,-324.92 143.04,-326.35 135.72,-318.68 132.54,-324.92"/>
<text text-anchor="middle" x="22.57" y="-170.5" font-family="Helvetica,sans-Serif" font-size="10.00"> lbapos</text>
<text text-anchor="middle" x="22.57" y="-159.5" font-family="Helvetica,sans-Serif" font-size="10.00">size</text>
</g>
<!-- Node8 -->
<g id="node8" class="node">
<title>Node8</title>
<g id="a_node8"><a xlink:href="structfilesystem__t.html" target="_top" xlink:title="Defines a filesystem driver.">
<polygon fill="none" stroke="black" points="274.07,-209 274.07,-228 351.07,-228 351.07,-209 274.07,-209"/>
<text text-anchor="middle" x="312.57" y="-216" font-family="Helvetica,sans-Serif" font-size="10.00">filesystem_t</text>
</a>
</g>
</g>
<!-- Node2&#45;&gt;Node8 -->
<g id="edge12" class="edge">
<title>Node2&#45;&gt;Node8</title>
<path fill="none" stroke="#9a32cd" stroke-dasharray="5,2" d="M174.21,-317.81C176.41,-314.61 178.62,-311.24 180.57,-308 194.72,-284.5 187.7,-270.79 208.57,-253 226.91,-237.37 252.65,-229.01 273.93,-224.54"/>
<polygon fill="#9a32cd" stroke="#9a32cd" points="171.18,-316.04 168.23,-326.21 176.88,-320.09 171.18,-316.04"/>
<text text-anchor="middle" x="233.07" y="-289" font-family="Helvetica,sans-Serif" font-size="10.00"> createdir</text>
<text text-anchor="middle" x="233.07" y="-278" font-family="Helvetica,sans-Serif" font-size="10.00">createfile</text>
<text text-anchor="middle" x="233.07" y="-267" font-family="Helvetica,sans-Serif" font-size="10.00">freespace</text>
</g>
<!-- Node3&#45;&gt;Node1 -->
<g id="edge2" class="edge">
<title>Node3&#45;&gt;Node1</title>
<path fill="none" stroke="#9a32cd" stroke-dasharray="5,2" d="M173.7,-29.62C173.33,-38.92 173.74,-50.24 176.57,-60 180.56,-73.71 189.91,-87.45 196.48,-95.96"/>
<polygon fill="#9a32cd" stroke="#9a32cd" points="177.2,-29.75 174.43,-19.52 170.22,-29.25 177.2,-29.75"/>
<text text-anchor="middle" x="188.57" y="-46.5" font-family="Helvetica,sans-Serif" font-size="10.00"> files</text>
</g>
<!-- Node3&#45;&gt;Node3 -->
<g id="edge3" class="edge">
<title>Node3&#45;&gt;Node3</title>
<path fill="none" stroke="#9a32cd" stroke-dasharray="5,2" d="M243.01,-15.19C247.71,-14 250.57,-12.27 250.57,-10 250.57,-6.36 243.25,-4.12 232.8,-3.27"/>
<polygon fill="#9a32cd" stroke="#9a32cd" points="242.16,-11.78 232.8,-16.73 243.21,-18.7 242.16,-11.78"/>
<text text-anchor="middle" x="263.07" y="-7.5" font-family="Helvetica,sans-Serif" font-size="10.00"> next</text>
</g>
<!-- Node4 -->
<g id="node4" class="node">
<title>Node4</title>
<g id="a_node4"><a xlink:title=" ">
<polygon fill="none" stroke="#bfbfbf" points="99.57,-96 99.57,-115 155.57,-115 155.57,-96 99.57,-96"/>
<text text-anchor="middle" x="127.57" y="-103" font-family="Helvetica,sans-Serif" font-size="10.00">uint16_t</text>
</a>
</g>
</g>
<!-- Node4&#45;&gt;Node3 -->
<g id="edge6" class="edge">
<title>Node4&#45;&gt;Node3</title>
<path fill="none" stroke="#9a32cd" stroke-dasharray="5,2" d="M129.34,-85.73C131.34,-71.72 135.6,-52.57 144.57,-38 149.07,-30.71 156.16,-24.32 162.43,-19.59"/>
<polygon fill="#9a32cd" stroke="#9a32cd" points="125.86,-85.33 128.16,-95.67 132.81,-86.15 125.86,-85.33"/>
<text text-anchor="middle" x="157.07" y="-46.5" font-family="Helvetica,sans-Serif" font-size="10.00"> year</text>
</g>
<!-- Node5 -->
<g id="node5" class="node">
<title>Node5</title>
<g id="a_node5"><a xlink:title=" ">
<polygon fill="none" stroke="#bfbfbf" points="493.57,-326.5 493.57,-345.5 531.57,-345.5 531.57,-326.5 493.57,-326.5"/>
<text text-anchor="middle" x="512.57" y="-333.5" font-family="Helvetica,sans-Serif" font-size="10.00">char</text>
</a>
</g>
</g>
<!-- Node5&#45;&gt;Node1 -->
<g id="edge18" class="edge">
<title>Node5&#45;&gt;Node1</title>
<path fill="none" stroke="#9a32cd" stroke-dasharray="5,2" d="M513.01,-316.39C512.63,-298.9 509.93,-272.57 498.57,-253 462.76,-191.28 438.15,-183.41 374.57,-151 368.2,-147.75 280.36,-125.62 233.13,-113.84"/>
<polygon fill="#9a32cd" stroke="#9a32cd" points="509.51,-316.44 513,-326.44 516.51,-316.44 509.51,-316.44"/>
<text text-anchor="middle" x="521.07" y="-221.5" font-family="Helvetica,sans-Serif" font-size="10.00"> device_name</text>
<text text-anchor="middle" x="521.07" y="-210.5" font-family="Helvetica,sans-Serif" font-size="10.00">name</text>
</g>
<!-- Node5&#45;&gt;Node3 -->
<g id="edge7" class="edge">
<title>Node5&#45;&gt;Node3</title>
<path fill="none" stroke="#9a32cd" stroke-dasharray="5,2" d="M527.03,-318.23C547.42,-292.41 580,-241.75 559.57,-202 502.36,-90.65 446.02,-86.4 330.57,-38 299.71,-25.06 262.9,-18.32 232.89,-14.82"/>
<polygon fill="#9a32cd" stroke="#9a32cd" points="524.07,-316.32 520.43,-326.27 529.48,-320.76 524.07,-316.32"/>
<text text-anchor="middle" x="581.57" y="-176" font-family="Helvetica,sans-Serif" font-size="10.00"> alt_filename</text>
<text text-anchor="middle" x="581.57" y="-165" font-family="Helvetica,sans-Serif" font-size="10.00">device_name</text>
<text text-anchor="middle" x="581.57" y="-154" font-family="Helvetica,sans-Serif" font-size="10.00">filename</text>
</g>
<!-- Node5&#45;&gt;Node8 -->
<g id="edge15" class="edge">
<title>Node5&#45;&gt;Node8</title>
<path fill="none" stroke="#9a32cd" stroke-dasharray="5,2" d="M484.29,-321.78C478.21,-317.97 472.22,-313.37 467.57,-308 450.24,-287.96 464.64,-270.3 444.57,-253 418.7,-230.69 379.98,-222.89 351.16,-220.33"/>
<polygon fill="#9a32cd" stroke="#9a32cd" points="482.7,-324.9 493.12,-326.78 486.14,-318.81 482.7,-324.9"/>
<text text-anchor="middle" x="483.07" y="-278" font-family="Helvetica,sans-Serif" font-size="10.00"> name</text>
</g>
<!-- Node6 -->
<g id="node6" class="node">
<title>Node6</title>
<g id="a_node6"><a xlink:title=" ">
<polygon fill="none" stroke="#bfbfbf" points="319.57,-96 319.57,-115 375.57,-115 375.57,-96 319.57,-96"/>
<text text-anchor="middle" x="347.57" y="-103" font-family="Helvetica,sans-Serif" font-size="10.00">uint32_t</text>
</a>
</g>
</g>
<!-- Node6&#45;&gt;Node3 -->
<g id="edge8" class="edge">
<title>Node6&#45;&gt;Node3</title>
<path fill="none" stroke="#9a32cd" stroke-dasharray="5,2" d="M330.18,-89.23C312.62,-74.46 284.22,-52.27 256.57,-38 241.56,-30.25 223.85,-24.05 208.83,-19.55"/>
<polygon fill="#9a32cd" stroke="#9a32cd" points="328.01,-91.98 337.88,-95.82 332.56,-86.66 328.01,-91.98"/>
<text text-anchor="middle" x="308.57" y="-52" font-family="Helvetica,sans-Serif" font-size="10.00"> device</text>
<text text-anchor="middle" x="308.57" y="-41" font-family="Helvetica,sans-Serif" font-size="10.00">flags</text>
</g>
<!-- Node7 -->
<g id="node7" class="node">
<title>Node7</title>
<g id="a_node7"><a xlink:title=" ">
<polygon fill="none" stroke="#bfbfbf" points="31.57,-209 31.57,-228 81.57,-228 81.57,-209 31.57,-209"/>
<text text-anchor="middle" x="56.57" y="-216" font-family="Helvetica,sans-Serif" font-size="10.00">uint8_t</text>
</a>
</g>
</g>
<!-- Node7&#45;&gt;Node1 -->
<g id="edge19" class="edge">
<title>Node7&#45;&gt;Node1</title>
<path fill="none" stroke="#9a32cd" stroke-dasharray="5,2" d="M62.6,-198.86C68.44,-183.76 78.75,-163.07 94.57,-151 120.11,-131.52 135.3,-146.22 164.57,-133 174.87,-128.35 185.4,-121.01 192.92,-115.24"/>
<polygon fill="#9a32cd" stroke="#9a32cd" points="59.17,-198.07 59.13,-208.67 65.77,-200.41 59.17,-198.07"/>
<text text-anchor="middle" x="107.57" y="-165" font-family="Helvetica,sans-Serif" font-size="10.00"> dirty</text>
</g>
<!-- Node7&#45;&gt;Node3 -->
<g id="edge9" class="edge">
<title>Node7&#45;&gt;Node3</title>
<path fill="none" stroke="#9a32cd" stroke-dasharray="5,2" d="M51.45,-199.14C44.69,-170.91 36.1,-116.13 58.57,-78 76.93,-46.84 115.75,-28.89 143.64,-19.55"/>
<polygon fill="#9a32cd" stroke="#9a32cd" points="48.08,-200.07 53.97,-208.87 54.85,-198.31 48.08,-200.07"/>
<text text-anchor="middle" x="74.57" y="-125" font-family="Helvetica,sans-Serif" font-size="10.00"> day</text>
<text text-anchor="middle" x="74.57" y="-114" font-family="Helvetica,sans-Serif" font-size="10.00">hour</text>
<text text-anchor="middle" x="74.57" y="-103" font-family="Helvetica,sans-Serif" font-size="10.00">min</text>
<text text-anchor="middle" x="74.57" y="-92" font-family="Helvetica,sans-Serif" font-size="10.00">month</text>
<text text-anchor="middle" x="74.57" y="-81" font-family="Helvetica,sans-Serif" font-size="10.00">sec</text>
</g>
<!-- Node8&#45;&gt;Node1 -->
<g id="edge11" class="edge">
<title>Node8&#45;&gt;Node1</title>
<path fill="none" stroke="#9a32cd" stroke-dasharray="5,2" d="M296.92,-201.56C273.56,-177.77 230.36,-133.78 212.09,-115.17"/>
<polygon fill="#9a32cd" stroke="#9a32cd" points="294.52,-204.11 304.02,-208.79 299.51,-199.2 294.52,-204.11"/>
<text text-anchor="middle" x="323.57" y="-165" font-family="Helvetica,sans-Serif" font-size="10.00"> responsible_driver</text>
</g>
<!-- Node8&#45;&gt;Node8 -->
<g id="edge14" class="edge">
<title>Node8&#45;&gt;Node8</title>
<path fill="none" stroke="#9a32cd" stroke-dasharray="5,2" d="M361.29,-226.11C366.05,-224.58 369.07,-222.04 369.07,-218.5 369.07,-212.84 361.34,-209.74 351.13,-209.21"/>
<polygon fill="#9a32cd" stroke="#9a32cd" points="360.42,-222.71 351.13,-227.79 361.57,-229.61 360.42,-222.71"/>
<text text-anchor="middle" x="381.57" y="-216" font-family="Helvetica,sans-Serif" font-size="10.00"> next</text>
</g>
<!-- Node9 -->
<g id="node9" class="node">
<title>Node9</title>
<g id="a_node9"><a xlink:title=" ">
<polygon fill="none" stroke="#bfbfbf" points="208.07,-326.5 208.07,-345.5 303.07,-345.5 303.07,-326.5 208.07,-326.5"/>
<text text-anchor="middle" x="255.57" y="-333.5" font-family="Helvetica,sans-Serif" font-size="10.00">void *(*)(void *)</text>
</a>
</g>
</g>
<!-- Node9&#45;&gt;Node8 -->
<g id="edge13" class="edge">
<title>Node9&#45;&gt;Node8</title>
<path fill="none" stroke="#9a32cd" stroke-dasharray="5,2" d="M259.37,-316.46C263.42,-299.22 270.88,-273.22 282.57,-253 288.04,-243.54 296.5,-234.41 303.05,-228.07"/>
<polygon fill="#9a32cd" stroke="#9a32cd" points="255.92,-315.86 257.19,-326.38 262.75,-317.36 255.92,-315.86"/>
<text text-anchor="middle" x="298.57" y="-278" font-family="Helvetica,sans-Serif" font-size="10.00"> getdir</text>
</g>
<!-- Node10 -->
<g id="node10" class="node">
<title>Node10</title>
<g id="a_node10"><a xlink:title=" ">
<polygon fill="none" stroke="#bfbfbf" points="321.07,-326.5 321.07,-345.5 350.07,-345.5 350.07,-326.5 321.07,-326.5"/>
<text text-anchor="middle" x="335.57" y="-333.5" font-family="Helvetica,sans-Serif" font-size="10.00">int</text>
</a>
</g>
</g>
<!-- Node10&#45;&gt;Node8 -->
<g id="edge16" class="edge">
<title>Node10&#45;&gt;Node8</title>
<path fill="none" stroke="#9a32cd" stroke-dasharray="5,2" d="M331.89,-316.5C326.86,-291.26 318.05,-247.02 314.32,-228.28"/>
<polygon fill="#9a32cd" stroke="#9a32cd" points="328.46,-317.19 333.84,-326.32 335.32,-315.83 328.46,-317.19"/>
<text text-anchor="middle" x="347.07" y="-278" font-family="Helvetica,sans-Serif" font-size="10.00"> mount</text>
</g>
<!-- Node11 -->
<g id="node11" class="node">
<title>Node11</title>
<g id="a_node11"><a xlink:title=" ">
<polygon fill="none" stroke="#bfbfbf" points="368.57,-326.5 368.57,-345.5 406.57,-345.5 406.57,-326.5 368.57,-326.5"/>
<text text-anchor="middle" x="387.57" y="-333.5" font-family="Helvetica,sans-Serif" font-size="10.00">bool</text>
</a>
</g>
</g>
<!-- Node11&#45;&gt;Node8 -->
<g id="edge17" class="edge">
<title>Node11&#45;&gt;Node8</title>
<path fill="none" stroke="#9a32cd" stroke-dasharray="5,2" d="M386.45,-316.48C384.54,-298.68 379.4,-271.78 365.57,-253 357.44,-241.95 344.48,-233.67 333.4,-228.1"/>
<polygon fill="#9a32cd" stroke="#9a32cd" points="382.96,-316.79 387.28,-326.46 389.94,-316.2 382.96,-316.79"/>
<text text-anchor="middle" x="412.57" y="-300" font-family="Helvetica,sans-Serif" font-size="10.00"> readfile</text>
<text text-anchor="middle" x="412.57" y="-289" font-family="Helvetica,sans-Serif" font-size="10.00">rm</text>
<text text-anchor="middle" x="412.57" y="-278" font-family="Helvetica,sans-Serif" font-size="10.00">rmdir</text>
<text text-anchor="middle" x="412.57" y="-267" font-family="Helvetica,sans-Serif" font-size="10.00">truncatefile</text>
<text text-anchor="middle" x="412.57" y="-256" font-family="Helvetica,sans-Serif" font-size="10.00">writefile</text>
</g>
<!-- Node12 -->
<g id="node12" class="node">
<title>Node12</title>
<g id="a_node12"><a xlink:title=" ">
<polygon fill="none" stroke="#bfbfbf" points="104.57,-209 104.57,-228 150.57,-228 150.57,-209 104.57,-209"/>
<text text-anchor="middle" x="127.57" y="-216" font-family="Helvetica,sans-Serif" font-size="10.00">void *</text>
</a>
</g>
</g>
<!-- Node12&#45;&gt;Node1 -->
<g id="edge20" class="edge">
<title>Node12&#45;&gt;Node1</title>
<path fill="none" stroke="#9a32cd" stroke-dasharray="5,2" d="M124.5,-198.88C123.15,-184.67 123.55,-165.18 132.57,-151 141.33,-137.23 150.7,-141.59 164.57,-133 173.76,-127.31 183.84,-120.44 191.45,-115.12"/>
<polygon fill="#9a32cd" stroke="#9a32cd" points="121.05,-199.48 125.82,-208.94 127.99,-198.57 121.05,-199.48"/>
<text text-anchor="middle" x="152.57" y="-165" font-family="Helvetica,sans-Serif" font-size="10.00"> opaque</text>
</g>
</g>
</svg>
        <g id="navigator" transform="translate(0 0)" fill="#404254">
                <rect fill="#f2f5e9" fill-opacity="0.5" stroke="#606060" stroke-width=".5" x="0" y="0" width="60" height="60"/>
                <use id="zoomplus" xlink:href="#zoomPlus" x="17" y="9" onmousedown="handleZoom(evt,'in')"/>
                <use id="zoomminus" xlink:href="#zoomMin" x="42" y="9" onmousedown="handleZoom(evt,'out')"/>
                <use id="reset" xlink:href="#resetDef" x="30" y="36" onmousedown="handleReset()"/>
                <g id="arrowUp" xlink:href="#dirArrow" transform="translate(30 24)" onmousedown="handlePan(0,-1)">
                  <use xlink:href="#rim" fill="#404040">
                        <set attributeName="fill" to="#808080" begin="arrowUp.mouseover" end="arrowUp.mouseout"/>
                  </use>
                  <path fill="none" stroke="white" stroke-width="1.5" d="M0,-3.0v7 M-2.5,-0.5L0,-3.0L2.5,-0.5"/>
                </g>
                <g id="arrowRight" xlink:href="#dirArrow" transform="rotate(90) translate(36 -43)" onmousedown="handlePan(1,0)">
                  <use xlink:href="#rim" fill="#404040">
                        <set attributeName="fill" to="#808080" begin="arrowRight.mouseover" end="arrowRight.mouseout"/>
                  </use>
                  <path fill="none" stroke="white" stroke-width="1.5" d="M0,-3.0v7 M-2.5,-0.5L0,-3.0L2.5,-0.5"/>
                </g>
                <g id="arrowDown" xlink:href="#dirArrow" transform="rotate(180) translate(-30 -48)" onmousedown="handlePan(0,1)">
                  <use xlink:href="#rim" fill="#404040">
                        <set attributeName="fill" to="#808080" begin="arrowDown.mouseover" end="arrowDown.mouseout"/>
                  </use>
                  <path fill="none" stroke="white" stroke-width="1.5" d="M0,-3.0v7 M-2.5,-0.5L0,-3.0L2.5,-0.5"/>
                </g>
                <g id="arrowLeft" xlink:href="#dirArrow" transform="rotate(270) translate(-36 17)" onmousedown="handlePan(-1,0)">
                  <use xlink:href="#rim" fill="#404040">
                        <set attributeName="fill" to="#808080" begin="arrowLeft.mouseover" end="arrowLeft.mouseout"/>
                  </use>
                  <path fill="none" stroke="white" stroke-width="1.5" d="M0,-3.0v7 M-2.5,-0.5L0,-3.0L2.5,-0.5"/>
                </g>
        </g>
        <svg viewBox="0 0 15 15" width="100%" height="30px" preserveAspectRatio="xMaxYMin meet">
         <g id="arrow_out" transform="scale(0.3 0.3)">
          <a xlink:href="structfs__tree__t__coll__graph_org.svg" target="_base">
           <rect id="button" ry="5" rx="5" y="6" x="6" height="38" width="38"
                fill="#f2f5e9" fill-opacity="0.5" stroke="#606060" stroke-width="1.0"/>
           <path id="arrow"
             d="M 11.500037,31.436501 C 11.940474,20.09759 22.043105,11.32322 32.158766,21.979434 L 37.068811,17.246167 C 37.068811,17.246167 37.088388,32 37.088388,32 L 22.160133,31.978069 C 22.160133,31.978069 26.997745,27.140456 26.997745,27.140456 C 18.528582,18.264221 13.291696,25.230495 11.500037,31.436501 z"
             style="fill:#404040;"/>
          </a>
         </g>
        </svg>
</svg>
