<?xml version="1.0" encoding="UTF-8" standalone="no"?>
<!DOCTYPE svg PUBLIC "-//W3C//DTD SVG 1.1//EN"
 "http://www.w3.org/Graphics/SVG/1.1/DTD/svg11.dtd">
<!-- Generated by graphviz version 2.43.0 (0)
 -->
<!-- Title: ahci_hba_fis_t Pages: 1 -->
<!--zoomable 724 -->
<svg id="main" version="1.1" xmlns="http://www.w3.org/2000/svg" xmlns:xlink="http://www.w3.org/1999/xlink" xml:space="preserve" onload="init(evt)">
<style type="text/css"><![CDATA[
.edge:hover path { stroke: red; }
.edge:hover polygon { stroke: red; fill: red; }
]]></style>
<script type="text/javascript"><![CDATA[
var edges = document.getElementsByTagName('g');
if (edges && edges.length) {
  for (var i=0;i<edges.length;i++) {
    if (edges[i].id.substr(0,4)=='edge') {
      edges[i].setAttribute('class','edge');
    }
  }
}
]]></script>
        <defs>
                <circle id="rim" cx="0" cy="0" r="7"/>
                <circle id="rim2" cx="0" cy="0" r="3.5"/>
                <g id="zoomPlus">
                        <use xlink:href="#rim" fill="#404040">
                                <set attributeName="fill" to="#808080" begin="zoomplus.mouseover" end="zoomplus.mouseout"/>
                        </use>
                        <path d="M-4,0h8M0,-4v8" fill="none" stroke="white" stroke-width="1.5" pointer-events="none"/>
                </g>
                <g id="zoomMin">
                        <use xlink:href="#rim" fill="#404040">
                                <set attributeName="fill" to="#808080" begin="zoomminus.mouseover" end="zoomminus.mouseout"/>
                        </use>
                        <path d="M-4,0h8" fill="none" stroke="white" stroke-width="1.5" pointer-events="none"/>
                </g>
                <g id="dirArrow">
                        <path fill="none" stroke="white" stroke-width="1.5" d="M0,-3.0v7 M-2.5,-0.5L0,-3.0L2.5,-0.5"/>
                </g>
               <g id="resetDef">
                       <use xlink:href="#rim2" fill="#404040">
                               <set attributeName="fill" to="#808080" begin="reset.mouseover" end="reset.mouseout"/>
                       </use>
               </g>
        </defs>

<script type="text/javascript">
var viewWidth = 527;
var viewHeight = 724;
var sectionId = 'dynsection-0';
</script>
<script xlink:href="svgpan.js"/>
<svg id="graph" class="graph">
<g id="viewport">
<title>ahci_hba_fis_t</title>
<!-- Node1 -->
<g id="node1" class="node">
<title>Node1</title>
<g id="a_node1"><a xlink:title="Received FIS area layout in system memory (per&#45;port).">
<polygon fill="#bfbfbf" stroke="black" points="433,-384 433,-403 519,-403 519,-384 433,-384"/>
<text text-anchor="middle" x="476" y="-391" font-family="Helvetica,sans-Serif" font-size="10.00">ahci_hba_fis_t</text>
</a>
</g>
</g>
<!-- Node2 -->
<g id="node2" class="node">
<title>Node2</title>
<g id="a_node2"><a xlink:href="structahci__fis__dev__bits__t.html" target="_top" xlink:title="Set Device Bits (SDB) FIS (device&#45;&gt;host asynchronous notification).">
<polygon fill="none" stroke="black" points="190.5,-603 190.5,-622 299.5,-622 299.5,-603 190.5,-603"/>
<text text-anchor="middle" x="245" y="-610" font-family="Helvetica,sans-Serif" font-size="10.00">ahci_fis_dev_bits_t</text>
</a>
</g>
</g>
<!-- Node2&#45;&gt;Node1 -->
<g id="edge1" class="edge">
<title>Node2&#45;&gt;Node1</title>
<path fill="none" stroke="#9a32cd" stroke-dasharray="5,2" d="M306.51,-600.36C342.12,-590.44 385.77,-573.06 415,-543.5 455.83,-502.22 469.86,-429.63 473.73,-403.35"/>
<polygon fill="#9a32cd" stroke="#9a32cd" points="305.47,-597.02 296.7,-602.97 307.26,-603.79 305.47,-597.02"/>
<text text-anchor="middle" x="369.5" y="-596.5" font-family="Helvetica,sans-Serif" font-size="10.00"> set_device_bit_fis</text>
</g>
<!-- Node3 -->
<g id="node3" class="node">
<title>Node3</title>
<g id="a_node3"><a xlink:title=" ">
<polygon fill="none" stroke="#bfbfbf" points="3,-384 3,-403 53,-403 53,-384 3,-384"/>
<text text-anchor="middle" x="28" y="-391" font-family="Helvetica,sans-Serif" font-size="10.00">uint8_t</text>
</a>
</g>
</g>
<!-- Node3&#45;&gt;Node1 -->
<g id="edge9" class="edge">
<title>Node3&#45;&gt;Node1</title>
<path fill="none" stroke="#9a32cd" stroke-dasharray="5,2" d="M29.76,-413.56C32.03,-441.79 40.79,-492.36 74,-515.5 107.54,-538.88 125.83,-523.14 166,-515.5 282.72,-493.29 411.68,-427.83 457.6,-403.1"/>
<polygon fill="#9a32cd" stroke="#9a32cd" points="33.23,-413.07 29.14,-403.3 26.24,-413.49 33.23,-413.07"/>
<text text-anchor="middle" x="245" y="-557.5" font-family="Helvetica,sans-Serif" font-size="10.00"> pad0</text>
<text text-anchor="middle" x="245" y="-546.5" font-family="Helvetica,sans-Serif" font-size="10.00">pad1</text>
<text text-anchor="middle" x="245" y="-535.5" font-family="Helvetica,sans-Serif" font-size="10.00">pad2</text>
<text text-anchor="middle" x="245" y="-524.5" font-family="Helvetica,sans-Serif" font-size="10.00">rsv</text>
<text text-anchor="middle" x="245" y="-513.5" font-family="Helvetica,sans-Serif" font-size="10.00">ufis</text>
</g>
<!-- Node3&#45;&gt;Node2 -->
<g id="edge2" class="edge">
<title>Node3&#45;&gt;Node2</title>
<path fill="none" stroke="#9a32cd" stroke-dasharray="5,2" d="M29.69,-413.45C31.81,-444.93 40.31,-506.38 74,-543.5 104.18,-576.76 152.69,-594.31 190.18,-603.37"/>
<polygon fill="#9a32cd" stroke="#9a32cd" points="33.17,-413.11 29.16,-403.3 26.18,-413.47 33.17,-413.11"/>
<text text-anchor="middle" x="120" y="-707.5" font-family="Helvetica,sans-Serif" font-size="10.00"> error</text>
<text text-anchor="middle" x="120" y="-696.5" font-family="Helvetica,sans-Serif" font-size="10.00">fis_type</text>
<text text-anchor="middle" x="120" y="-685.5" font-family="Helvetica,sans-Serif" font-size="10.00">interrupt</text>
<text text-anchor="middle" x="120" y="-674.5" font-family="Helvetica,sans-Serif" font-size="10.00">notification</text>
<text text-anchor="middle" x="120" y="-663.5" font-family="Helvetica,sans-Serif" font-size="10.00">pmport</text>
<text text-anchor="middle" x="120" y="-652.5" font-family="Helvetica,sans-Serif" font-size="10.00">rsvd</text>
<text text-anchor="middle" x="120" y="-641.5" font-family="Helvetica,sans-Serif" font-size="10.00">rsvd2</text>
<text text-anchor="middle" x="120" y="-630.5" font-family="Helvetica,sans-Serif" font-size="10.00">rsvd3</text>
<text text-anchor="middle" x="120" y="-619.5" font-family="Helvetica,sans-Serif" font-size="10.00">status_high</text>
<text text-anchor="middle" x="120" y="-608.5" font-family="Helvetica,sans-Serif" font-size="10.00">status_low</text>
<text text-anchor="middle" x="120" y="-597.5" font-family="Helvetica,sans-Serif" font-size="10.00">...</text>
</g>
<!-- Node4 -->
<g id="node4" class="node">
<title>Node4</title>
<g id="a_node4"><a xlink:href="structahci__fis__reg__d2h__t.html" target="_top" xlink:title="Register FIS: Device to Host (D2H).">
<polygon fill="none" stroke="black" points="191.5,-384 191.5,-403 298.5,-403 298.5,-384 191.5,-384"/>
<text text-anchor="middle" x="245" y="-391" font-family="Helvetica,sans-Serif" font-size="10.00">ahci_fis_reg_d2h_t</text>
</a>
</g>
</g>
<!-- Node3&#45;&gt;Node4 -->
<g id="edge4" class="edge">
<title>Node3&#45;&gt;Node4</title>
<path fill="none" stroke="#9a32cd" stroke-dasharray="5,2" d="M63.29,-393.5C97.75,-393.5 151.34,-393.5 191.23,-393.5"/>
<polygon fill="#9a32cd" stroke="#9a32cd" points="63.25,-390 53.25,-393.5 63.25,-397 63.25,-390"/>
<text text-anchor="middle" x="120" y="-506.5" font-family="Helvetica,sans-Serif" font-size="10.00"> count_high</text>
<text text-anchor="middle" x="120" y="-495.5" font-family="Helvetica,sans-Serif" font-size="10.00">count_low</text>
<text text-anchor="middle" x="120" y="-484.5" font-family="Helvetica,sans-Serif" font-size="10.00">device</text>
<text text-anchor="middle" x="120" y="-473.5" font-family="Helvetica,sans-Serif" font-size="10.00">error</text>
<text text-anchor="middle" x="120" y="-462.5" font-family="Helvetica,sans-Serif" font-size="10.00">fis_type</text>
<text text-anchor="middle" x="120" y="-451.5" font-family="Helvetica,sans-Serif" font-size="10.00">interrupt</text>
<text text-anchor="middle" x="120" y="-440.5" font-family="Helvetica,sans-Serif" font-size="10.00">lba0</text>
<text text-anchor="middle" x="120" y="-429.5" font-family="Helvetica,sans-Serif" font-size="10.00">lba1</text>
<text text-anchor="middle" x="120" y="-418.5" font-family="Helvetica,sans-Serif" font-size="10.00">lba2</text>
<text text-anchor="middle" x="120" y="-407.5" font-family="Helvetica,sans-Serif" font-size="10.00">lba3</text>
<text text-anchor="middle" x="120" y="-396.5" font-family="Helvetica,sans-Serif" font-size="10.00">...</text>
</g>
<!-- Node5 -->
<g id="node5" class="node">
<title>Node5</title>
<g id="a_node5"><a xlink:href="structahci__fis__dma__setup__t.html" target="_top" xlink:title="DMA Setup FIS (bidirectional).">
<polygon fill="none" stroke="black" points="184,-231 184,-250 306,-250 306,-231 184,-231"/>
<text text-anchor="middle" x="245" y="-238" font-family="Helvetica,sans-Serif" font-size="10.00">ahci_fis_dma_setup_t</text>
</a>
</g>
</g>
<!-- Node3&#45;&gt;Node5 -->
<g id="edge8" class="edge">
<title>Node3&#45;&gt;Node5</title>
<path fill="none" stroke="#9a32cd" stroke-dasharray="5,2" d="M35.42,-374.45C42.39,-356.36 55.1,-329.49 74,-312.5 79.8,-307.29 174.92,-268.44 220.28,-250.07"/>
<polygon fill="#9a32cd" stroke="#9a32cd" points="32.1,-373.34 31.99,-383.94 38.68,-375.73 32.1,-373.34"/>
<text text-anchor="middle" x="120" y="-381.5" font-family="Helvetica,sans-Serif" font-size="10.00"> activate</text>
<text text-anchor="middle" x="120" y="-370.5" font-family="Helvetica,sans-Serif" font-size="10.00">direction</text>
<text text-anchor="middle" x="120" y="-359.5" font-family="Helvetica,sans-Serif" font-size="10.00">fis_type</text>
<text text-anchor="middle" x="120" y="-348.5" font-family="Helvetica,sans-Serif" font-size="10.00">interrupt</text>
<text text-anchor="middle" x="120" y="-337.5" font-family="Helvetica,sans-Serif" font-size="10.00">pmport</text>
<text text-anchor="middle" x="120" y="-326.5" font-family="Helvetica,sans-Serif" font-size="10.00">rsv0</text>
<text text-anchor="middle" x="120" y="-315.5" font-family="Helvetica,sans-Serif" font-size="10.00">rsved</text>
</g>
<!-- Node8 -->
<g id="node8" class="node">
<title>Node8</title>
<g id="a_node8"><a xlink:href="structahci__fis__pio__setup__t.html" target="_top" xlink:title="PIO Setup FIS (device to host).">
<polygon fill="none" stroke="black" points="187.5,-140 187.5,-159 302.5,-159 302.5,-140 187.5,-140"/>
<text text-anchor="middle" x="245" y="-147" font-family="Helvetica,sans-Serif" font-size="10.00">ahci_fis_pio_setup_t</text>
</a>
</g>
</g>
<!-- Node3&#45;&gt;Node8 -->
<g id="edge12" class="edge">
<title>Node3&#45;&gt;Node8</title>
<path fill="none" stroke="#9a32cd" stroke-dasharray="5,2" d="M29.51,-373.74C31.35,-320.7 39.48,-177.25 74,-148.5 90.72,-134.57 144.61,-137.02 187.29,-141.61"/>
<polygon fill="#9a32cd" stroke="#9a32cd" points="26.01,-373.77 29.2,-383.88 33.01,-373.99 26.01,-373.77"/>
<text text-anchor="middle" x="120" y="-261.5" font-family="Helvetica,sans-Serif" font-size="10.00"> count_high</text>
<text text-anchor="middle" x="120" y="-250.5" font-family="Helvetica,sans-Serif" font-size="10.00">count_low</text>
<text text-anchor="middle" x="120" y="-239.5" font-family="Helvetica,sans-Serif" font-size="10.00">device</text>
<text text-anchor="middle" x="120" y="-228.5" font-family="Helvetica,sans-Serif" font-size="10.00">direction</text>
<text text-anchor="middle" x="120" y="-217.5" font-family="Helvetica,sans-Serif" font-size="10.00">e_status</text>
<text text-anchor="middle" x="120" y="-206.5" font-family="Helvetica,sans-Serif" font-size="10.00">error</text>
<text text-anchor="middle" x="120" y="-195.5" font-family="Helvetica,sans-Serif" font-size="10.00">fis_type</text>
<text text-anchor="middle" x="120" y="-184.5" font-family="Helvetica,sans-Serif" font-size="10.00">interrupt</text>
<text text-anchor="middle" x="120" y="-173.5" font-family="Helvetica,sans-Serif" font-size="10.00">lba0</text>
<text text-anchor="middle" x="120" y="-162.5" font-family="Helvetica,sans-Serif" font-size="10.00">lba1</text>
<text text-anchor="middle" x="120" y="-151.5" font-family="Helvetica,sans-Serif" font-size="10.00">...</text>
</g>
<!-- Node4&#45;&gt;Node1 -->
<g id="edge3" class="edge">
<title>Node4&#45;&gt;Node1</title>
<path fill="none" stroke="#9a32cd" stroke-dasharray="5,2" d="M308.58,-393.5C348,-393.5 397.84,-393.5 432.65,-393.5"/>
<polygon fill="#9a32cd" stroke="#9a32cd" points="308.54,-390 298.54,-393.5 308.54,-397 308.54,-390"/>
<text text-anchor="middle" x="369.5" y="-396.5" font-family="Helvetica,sans-Serif" font-size="10.00"> register_fis</text>
</g>
<!-- Node5&#45;&gt;Node1 -->
<g id="edge5" class="edge">
<title>Node5&#45;&gt;Node1</title>
<path fill="none" stroke="#9a32cd" stroke-dasharray="5,2" d="M268.9,-255.8C315.91,-287.21 422.13,-358.18 460.68,-383.93"/>
<polygon fill="#9a32cd" stroke="#9a32cd" points="270.58,-252.72 260.32,-250.07 266.7,-258.54 270.58,-252.72"/>
<text text-anchor="middle" x="369.5" y="-354.5" font-family="Helvetica,sans-Serif" font-size="10.00"> dma_setup_fis</text>
</g>
<!-- Node6 -->
<g id="node6" class="node">
<title>Node6</title>
<g id="a_node6"><a xlink:title=" ">
<polygon fill="none" stroke="#bfbfbf" points="0,-106 0,-125 56,-125 56,-106 0,-106"/>
<text text-anchor="middle" x="28" y="-113" font-family="Helvetica,sans-Serif" font-size="10.00">uint64_t</text>
</a>
</g>
</g>
<!-- Node6&#45;&gt;Node5 -->
<g id="edge6" class="edge">
<title>Node6&#45;&gt;Node5</title>
<path fill="none" stroke="#9a32cd" stroke-dasharray="5,2" d="M66.28,-104.93C96.05,-98.85 137.39,-95.97 166,-116.5 185.87,-130.76 171.98,-147.2 184,-168.5 197.92,-193.15 220.64,-217.56 233.76,-230.66"/>
<polygon fill="#9a32cd" stroke="#9a32cd" points="65.26,-101.57 56.27,-107.18 66.79,-108.4 65.26,-101.57"/>
<text text-anchor="middle" x="120" y="-119.5" font-family="Helvetica,sans-Serif" font-size="10.00"> dma_buffer_id</text>
</g>
<!-- Node7 -->
<g id="node7" class="node">
<title>Node7</title>
<g id="a_node7"><a xlink:title=" ">
<polygon fill="none" stroke="#bfbfbf" points="0,-39 0,-58 56,-58 56,-39 0,-39"/>
<text text-anchor="middle" x="28" y="-46" font-family="Helvetica,sans-Serif" font-size="10.00">uint32_t</text>
</a>
</g>
</g>
<!-- Node7&#45;&gt;Node5 -->
<g id="edge7" class="edge">
<title>Node7&#45;&gt;Node5</title>
<path fill="none" stroke="#9a32cd" stroke-dasharray="5,2" d="M65.92,-37.58C96.47,-31 139.08,-27.89 166,-51.5 205.55,-86.19 162.37,-120.54 184,-168.5 195.51,-194.01 218.64,-217.75 232.58,-230.57"/>
<polygon fill="#9a32cd" stroke="#9a32cd" points="64.99,-34.2 56.06,-39.91 66.59,-41.02 64.99,-34.2"/>
<text text-anchor="middle" x="120" y="-87.5" font-family="Helvetica,sans-Serif" font-size="10.00"> dma_buffer_offset</text>
<text text-anchor="middle" x="120" y="-76.5" font-family="Helvetica,sans-Serif" font-size="10.00">resvd</text>
<text text-anchor="middle" x="120" y="-65.5" font-family="Helvetica,sans-Serif" font-size="10.00">rsvd</text>
<text text-anchor="middle" x="120" y="-54.5" font-family="Helvetica,sans-Serif" font-size="10.00">transfer_count</text>
</g>
<!-- Node8&#45;&gt;Node1 -->
<g id="edge10" class="edge">
<title>Node8&#45;&gt;Node1</title>
<path fill="none" stroke="#9a32cd" stroke-dasharray="5,2" d="M271.95,-164.27C307.78,-185.69 372.77,-228.35 415,-278.5 443.72,-312.61 463.91,-362.75 471.58,-383.72"/>
<polygon fill="#9a32cd" stroke="#9a32cd" points="273.47,-161.1 263.07,-159.04 269.92,-167.13 273.47,-161.1"/>
<text text-anchor="middle" x="369.5" y="-281.5" font-family="Helvetica,sans-Serif" font-size="10.00"> pio_setup_fis</text>
</g>
<!-- Node9 -->
<g id="node9" class="node">
<title>Node9</title>
<g id="a_node9"><a xlink:title=" ">
<polygon fill="none" stroke="#bfbfbf" points="0,-1 0,-20 56,-20 56,-1 0,-1"/>
<text text-anchor="middle" x="28" y="-8" font-family="Helvetica,sans-Serif" font-size="10.00">uint16_t</text>
</a>
</g>
</g>
<!-- Node9&#45;&gt;Node8 -->
<g id="edge11" class="edge">
<title>Node9&#45;&gt;Node8</title>
<path fill="none" stroke="#9a32cd" stroke-dasharray="5,2" d="M66.33,-2.62C95.55,1.47 136.09,2.43 166,-15.5 213.79,-44.15 235.29,-114.08 241.77,-139.8"/>
<polygon fill="#9a32cd" stroke="#9a32cd" points="65.45,0.78 56.12,-4.25 66.55,-6.13 65.45,0.78"/>
<text text-anchor="middle" x="120" y="-18.5" font-family="Helvetica,sans-Serif" font-size="10.00"> transfer_count</text>
</g>
</g>
</svg>
        <g id="navigator" transform="translate(0 0)" fill="#404254">
                <rect fill="#f2f5e9" fill-opacity="0.5" stroke="#606060" stroke-width=".5" x="0" y="0" width="60" height="60"/>
                <use id="zoomplus" xlink:href="#zoomPlus" x="17" y="9" onmousedown="handleZoom(evt,'in')"/>
                <use id="zoomminus" xlink:href="#zoomMin" x="42" y="9" onmousedown="handleZoom(evt,'out')"/>
                <use id="reset" xlink:href="#resetDef" x="30" y="36" onmousedown="handleReset()"/>
                <g id="arrowUp" xlink:href="#dirArrow" transform="translate(30 24)" onmousedown="handlePan(0,-1)">
                  <use xlink:href="#rim" fill="#404040">
                        <set attributeName="fill" to="#808080" begin="arrowUp.mouseover" end="arrowUp.mouseout"/>
                  </use>
                  <path fill="none" stroke="white" stroke-width="1.5" d="M0,-3.0v7 M-2.5,-0.5L0,-3.0L2.5,-0.5"/>
                </g>
                <g id="arrowRight" xlink:href="#dirArrow" transform="rotate(90) translate(36 -43)" onmousedown="handlePan(1,0)">
                  <use xlink:href="#rim" fill="#404040">
                        <set attributeName="fill" to="#808080" begin="arrowRight.mouseover" end="arrowRight.mouseout"/>
                  </use>
                  <path fill="none" stroke="white" stroke-width="1.5" d="M0,-3.0v7 M-2.5,-0.5L0,-3.0L2.5,-0.5"/>
                </g>
                <g id="arrowDown" xlink:href="#dirArrow" transform="rotate(180) translate(-30 -48)" onmousedown="handlePan(0,1)">
                  <use xlink:href="#rim" fill="#404040">
                        <set attributeName="fill" to="#808080" begin="arrowDown.mouseover" end="arrowDown.mouseout"/>
                  </use>
                  <path fill="none" stroke="white" stroke-width="1.5" d="M0,-3.0v7 M-2.5,-0.5L0,-3.0L2.5,-0.5"/>
                </g>
                <g id="arrowLeft" xlink:href="#dirArrow" transform="rotate(270) translate(-36 17)" onmousedown="handlePan(-1,0)">
                  <use xlink:href="#rim" fill="#404040">
                        <set attributeName="fill" to="#808080" begin="arrowLeft.mouseover" end="arrowLeft.mouseout"/>
                  </use>
                  <path fill="none" stroke="white" stroke-width="1.5" d="M0,-3.0v7 M-2.5,-0.5L0,-3.0L2.5,-0.5"/>
                </g>
        </g>
        <svg viewBox="0 0 15 15" width="100%" height="30px" preserveAspectRatio="xMaxYMin meet">
         <g id="arrow_out" transform="scale(0.3 0.3)">
          <a xlink:href="structahci__hba__fis__t__coll__graph_org.svg" target="_base">
           <rect id="button" ry="5" rx="5" y="6" x="6" height="38" width="38"
                fill="#f2f5e9" fill-opacity="0.5" stroke="#606060" stroke-width="1.0"/>
           <path id="arrow"
             d="M 11.500037,31.436501 C 11.940474,20.09759 22.043105,11.32322 32.158766,21.979434 L 37.068811,17.246167 C 37.068811,17.246167 37.088388,32 37.088388,32 L 22.160133,31.978069 C 22.160133,31.978069 26.997745,27.140456 26.997745,27.140456 C 18.528582,18.264221 13.291696,25.230495 11.500037,31.436501 z"
             style="fill:#404040;"/>
          </a>
         </g>
        </svg>
</svg>
