<?xml version="1.0" encoding="UTF-8" standalone="no"?>
<!DOCTYPE svg PUBLIC "-//W3C//DTD SVG 1.1//EN"
 "http://www.w3.org/Graphics/SVG/1.1/DTD/svg11.dtd">
<!-- Generated by graphviz version 2.43.0 (0)
 -->
<!-- Title: shared_interrupt_t Pages: 1 -->
<svg width="245pt" height="239pt"
 viewBox="0.00 0.00 245.00 239.00" xmlns="http://www.w3.org/2000/svg" xmlns:xlink="http://www.w3.org/1999/xlink">
<g id="graph0" class="graph" transform="scale(1 1) rotate(0) translate(4 235)">
<title>shared_interrupt_t</title>
<!-- Node1 -->
<g id="node1" class="node">
<title>Node1</title>
<g id="a_node1"><a xlink:title="An entry in a linked list of handlers attached to an ISR.">
<polygon fill="#bfbfbf" stroke="black" points="83,-0.5 83,-19.5 189,-19.5 189,-0.5 83,-0.5"/>
<text text-anchor="middle" x="136" y="-7.5" font-family="Helvetica,sans-Serif" font-size="10.00">shared_interrupt_t</text>
</a>
</g>
</g>
<!-- Node1&#45;&gt;Node1 -->
<g id="edge1" class="edge">
<title>Node1&#45;&gt;Node1</title>
<path fill="none" stroke="#9a32cd" stroke-dasharray="5,2" d="M199.43,-14.46C204.12,-13.46 207,-11.97 207,-10 207,-6.84 199.63,-4.93 189.26,-4.27"/>
<polygon fill="#9a32cd" stroke="#9a32cd" points="198.74,-11.02 189.26,-15.73 199.61,-17.96 198.74,-11.02"/>
<text text-anchor="middle" x="219.5" y="-7.5" font-family="Helvetica,sans-Serif" font-size="10.00"> next</text>
</g>
<!-- Node2 -->
<g id="node2" class="node">
<title>Node2</title>
<g id="a_node2"><a xlink:title=" ">
<polygon fill="none" stroke="#bfbfbf" points="0,-67.5 0,-86.5 50,-86.5 50,-67.5 0,-67.5"/>
<text text-anchor="middle" x="25" y="-74.5" font-family="Helvetica,sans-Serif" font-size="10.00">uint8_t</text>
</a>
</g>
</g>
<!-- Node2&#45;&gt;Node1 -->
<g id="edge2" class="edge">
<title>Node2&#45;&gt;Node1</title>
<path fill="none" stroke="#9a32cd" stroke-dasharray="5,2" d="M29.26,-57.13C31.67,-50.27 35.37,-42.98 41,-38 52.55,-27.77 67.73,-21.4 82.54,-17.43"/>
<polygon fill="#9a32cd" stroke="#9a32cd" points="25.77,-56.61 26.44,-67.18 32.51,-58.49 25.77,-56.61"/>
<text text-anchor="middle" x="85" y="-41" font-family="Helvetica,sans-Serif" font-size="10.00"> interrupt_handler</text>
</g>
<!-- Node3 -->
<g id="node3" class="node">
<title>Node3</title>
<g id="a_node3"><a xlink:href="unionpci__dev.html" target="_top" xlink:title=" ">
<polygon fill="none" stroke="black" points="104,-67.5 104,-86.5 158,-86.5 158,-67.5 104,-67.5"/>
<text text-anchor="middle" x="131" y="-74.5" font-family="Helvetica,sans-Serif" font-size="10.00">pci_dev</text>
</a>
</g>
</g>
<!-- Node3&#45;&gt;Node1 -->
<g id="edge3" class="edge">
<title>Node3&#45;&gt;Node1</title>
<path fill="none" stroke="#9a32cd" stroke-dasharray="5,2" d="M132.46,-57.04C133.41,-44.67 134.61,-29.12 135.34,-19.63"/>
<polygon fill="#9a32cd" stroke="#9a32cd" points="128.95,-56.99 131.67,-67.23 135.93,-57.53 128.95,-56.99"/>
<text text-anchor="middle" x="151" y="-41" font-family="Helvetica,sans-Serif" font-size="10.00"> device</text>
</g>
<!-- Node4 -->
<g id="node4" class="node">
<title>Node4</title>
<g id="a_node4"><a xlink:title=" ">
<polygon fill="none" stroke="#bfbfbf" points="39,-211.5 39,-230.5 131,-230.5 131,-211.5 39,-211.5"/>
<text text-anchor="middle" x="85" y="-218.5" font-family="Helvetica,sans-Serif" font-size="10.00">anonymous:@9</text>
</a>
</g>
</g>
<!-- Node4&#45;&gt;Node3 -->
<g id="edge4" class="edge">
<title>Node4&#45;&gt;Node3</title>
<path fill="none" stroke="#9a32cd" stroke-dasharray="5,2" d="M90.99,-201.52C101.05,-170.47 120.95,-109.02 128.24,-86.52"/>
<polygon fill="#9a32cd" stroke="#9a32cd" points="87.63,-200.53 87.88,-211.12 94.29,-202.68 87.63,-200.53"/>
<text text-anchor="middle" x="131.5" y="-146.5" font-family="Helvetica,sans-Serif" font-size="10.00"> @9</text>
</g>
<!-- Node5 -->
<g id="node5" class="node">
<title>Node5</title>
<g id="a_node5"><a xlink:title=" ">
<polygon fill="none" stroke="#bfbfbf" points="149,-211.5 149,-230.5 205,-230.5 205,-211.5 149,-211.5"/>
<text text-anchor="middle" x="177" y="-218.5" font-family="Helvetica,sans-Serif" font-size="10.00">uint32_t</text>
</a>
</g>
</g>
<!-- Node5&#45;&gt;Node3 -->
<g id="edge5" class="edge">
<title>Node5&#45;&gt;Node3</title>
<path fill="none" stroke="#9a32cd" stroke-dasharray="5,2" d="M173.13,-201.64C168,-178.62 158.04,-138.15 145,-105 142.53,-98.71 139.03,-91.96 136.14,-86.78"/>
<polygon fill="#9a32cd" stroke="#9a32cd" points="169.71,-202.41 175.25,-211.44 176.55,-200.92 169.71,-202.41"/>
<text text-anchor="middle" x="203.5" y="-185" font-family="Helvetica,sans-Serif" font-size="10.00"> always_zero</text>
<text text-anchor="middle" x="203.5" y="-174" font-family="Helvetica,sans-Serif" font-size="10.00">bits</text>
<text text-anchor="middle" x="203.5" y="-163" font-family="Helvetica,sans-Serif" font-size="10.00">bus_num</text>
<text text-anchor="middle" x="203.5" y="-152" font-family="Helvetica,sans-Serif" font-size="10.00">device_num</text>
<text text-anchor="middle" x="203.5" y="-141" font-family="Helvetica,sans-Serif" font-size="10.00">enable</text>
<text text-anchor="middle" x="203.5" y="-130" font-family="Helvetica,sans-Serif" font-size="10.00">field_num</text>
<text text-anchor="middle" x="203.5" y="-119" font-family="Helvetica,sans-Serif" font-size="10.00">function_num</text>
<text text-anchor="middle" x="203.5" y="-108" font-family="Helvetica,sans-Serif" font-size="10.00">reserved</text>
</g>
<!-- Node6 -->
<g id="node6" class="node">
<title>Node6</title>
<g id="a_node6"><a xlink:title=" ">
<polygon fill="none" stroke="#bfbfbf" points="176,-67.5 176,-86.5 222,-86.5 222,-67.5 176,-67.5"/>
<text text-anchor="middle" x="199" y="-74.5" font-family="Helvetica,sans-Serif" font-size="10.00">void *</text>
</a>
</g>
</g>
<!-- Node6&#45;&gt;Node1 -->
<g id="edge6" class="edge">
<title>Node6&#45;&gt;Node1</title>
<path fill="none" stroke="#9a32cd" stroke-dasharray="5,2" d="M188.91,-58.65C184.5,-51.82 178.97,-44.15 173,-38 166.24,-31.04 157.53,-24.58 150.25,-19.72"/>
<polygon fill="#9a32cd" stroke="#9a32cd" points="185.96,-60.54 194.17,-67.23 191.93,-56.88 185.96,-60.54"/>
<text text-anchor="middle" x="201" y="-41" font-family="Helvetica,sans-Serif" font-size="10.00"> opaque</text>
</g>
</g>
</svg>
