<?xml version="1.0" encoding="UTF-8" standalone="no"?>
<!DOCTYPE svg PUBLIC "-//W3C//DTD SVG 1.1//EN"
 "http://www.w3.org/Graphics/SVG/1.1/DTD/svg11.dtd">
<!-- Generated by graphviz version 2.43.0 (0)
 -->
<!-- Title: partition_table_t Pages: 1 -->
<svg width="228pt" height="195pt"
 viewBox="0.00 0.00 228.00 195.00" xmlns="http://www.w3.org/2000/svg" xmlns:xlink="http://www.w3.org/1999/xlink">
<g id="graph0" class="graph" transform="scale(1 1) rotate(0) translate(4 191)">
<title>partition_table_t</title>
<!-- Node1 -->
<g id="node1" class="node">
<title>Node1</title>
<g id="a_node1"><a xlink:title="A disk partition table consisting of four MBR partition entries.">
<polygon fill="#bfbfbf" stroke="black" points="60.5,-0.5 60.5,-19.5 157.5,-19.5 157.5,-0.5 60.5,-0.5"/>
<text text-anchor="middle" x="109" y="-7.5" font-family="Helvetica,sans-Serif" font-size="10.00">partition_table_t</text>
</a>
</g>
</g>
<!-- Node2 -->
<g id="node2" class="node">
<title>Node2</title>
<g id="a_node2"><a xlink:href="structpartition__t.html" target="_top" xlink:title="A disk partition entry within the MBR.">
<polygon fill="none" stroke="black" points="75.5,-67.5 75.5,-86.5 142.5,-86.5 142.5,-67.5 75.5,-67.5"/>
<text text-anchor="middle" x="109" y="-74.5" font-family="Helvetica,sans-Serif" font-size="10.00">partition_t</text>
</a>
</g>
</g>
<!-- Node2&#45;&gt;Node1 -->
<g id="edge1" class="edge">
<title>Node2&#45;&gt;Node1</title>
<path fill="none" stroke="#9a32cd" stroke-dasharray="5,2" d="M109,-57.04C109,-44.67 109,-29.12 109,-19.63"/>
<polygon fill="#9a32cd" stroke="#9a32cd" points="105.5,-57.23 109,-67.23 112.5,-57.23 105.5,-57.23"/>
<text text-anchor="middle" x="129" y="-41" font-family="Helvetica,sans-Serif" font-size="10.00"> p_entry</text>
</g>
<!-- Node3 -->
<g id="node3" class="node">
<title>Node3</title>
<g id="a_node3"><a xlink:title=" ">
<polygon fill="none" stroke="#bfbfbf" points="0,-167.5 0,-186.5 56,-186.5 56,-167.5 0,-167.5"/>
<text text-anchor="middle" x="28" y="-174.5" font-family="Helvetica,sans-Serif" font-size="10.00">uint16_t</text>
</a>
</g>
</g>
<!-- Node3&#45;&gt;Node2 -->
<g id="edge2" class="edge">
<title>Node3&#45;&gt;Node2</title>
<path fill="none" stroke="#9a32cd" stroke-dasharray="5,2" d="M28.61,-157.42C30.06,-141.76 34.41,-119.63 47,-105 54.35,-96.46 64.91,-90.53 75.23,-86.45"/>
<polygon fill="#9a32cd" stroke="#9a32cd" points="25.12,-157.29 28,-167.48 32.1,-157.71 25.12,-157.29"/>
<text text-anchor="middle" x="76" y="-130" font-family="Helvetica,sans-Serif" font-size="10.00"> endcylsect</text>
<text text-anchor="middle" x="76" y="-119" font-family="Helvetica,sans-Serif" font-size="10.00">startcylsect</text>
</g>
<!-- Node4 -->
<g id="node4" class="node">
<title>Node4</title>
<g id="a_node4"><a xlink:title=" ">
<polygon fill="none" stroke="#bfbfbf" points="81,-167.5 81,-186.5 137,-186.5 137,-167.5 81,-167.5"/>
<text text-anchor="middle" x="109" y="-174.5" font-family="Helvetica,sans-Serif" font-size="10.00">uint32_t</text>
</a>
</g>
</g>
<!-- Node4&#45;&gt;Node2 -->
<g id="edge3" class="edge">
<title>Node4&#45;&gt;Node2</title>
<path fill="none" stroke="#9a32cd" stroke-dasharray="5,2" d="M109,-157.22C109,-135.95 109,-102.22 109,-86.54"/>
<polygon fill="#9a32cd" stroke="#9a32cd" points="105.5,-157.3 109,-167.3 112.5,-157.3 105.5,-157.3"/>
<text text-anchor="middle" x="128" y="-130" font-family="Helvetica,sans-Serif" font-size="10.00"> length</text>
<text text-anchor="middle" x="128" y="-119" font-family="Helvetica,sans-Serif" font-size="10.00">startlba</text>
</g>
<!-- Node5 -->
<g id="node5" class="node">
<title>Node5</title>
<g id="a_node5"><a xlink:title=" ">
<polygon fill="none" stroke="#bfbfbf" points="155,-167.5 155,-186.5 205,-186.5 205,-167.5 155,-167.5"/>
<text text-anchor="middle" x="180" y="-174.5" font-family="Helvetica,sans-Serif" font-size="10.00">uint8_t</text>
</a>
</g>
</g>
<!-- Node5&#45;&gt;Node2 -->
<g id="edge4" class="edge">
<title>Node5&#45;&gt;Node2</title>
<path fill="none" stroke="#9a32cd" stroke-dasharray="5,2" d="M175.74,-157.36C171.5,-142 163.74,-120.32 151,-105 144.68,-97.4 135.66,-91.22 127.6,-86.69"/>
<polygon fill="#9a32cd" stroke="#9a32cd" points="172.4,-158.41 178.23,-167.25 179.18,-156.7 172.4,-158.41"/>
<text text-anchor="middle" x="196.5" y="-141" font-family="Helvetica,sans-Serif" font-size="10.00"> bootable</text>
<text text-anchor="middle" x="196.5" y="-130" font-family="Helvetica,sans-Serif" font-size="10.00">endhead</text>
<text text-anchor="middle" x="196.5" y="-119" font-family="Helvetica,sans-Serif" font-size="10.00">starthead</text>
<text text-anchor="middle" x="196.5" y="-108" font-family="Helvetica,sans-Serif" font-size="10.00">systemid</text>
</g>
</g>
</svg>
