<?xml version="1.0" encoding="UTF-8" standalone="no"?>
<!DOCTYPE svg PUBLIC "-//W3C//DTD SVG 1.1//EN"
 "http://www.w3.org/Graphics/SVG/1.1/DTD/svg11.dtd">
<!-- Generated by graphviz version 2.43.0 (0)
 -->
<!-- Title: block_cache_entry_t Pages: 1 -->
<svg width="134pt" height="106pt"
 viewBox="0.00 0.00 134.00 106.00" xmlns="http://www.w3.org/2000/svg" xmlns:xlink="http://www.w3.org/1999/xlink">
<g id="graph0" class="graph" transform="scale(1 1) rotate(0) translate(4 102)">
<title>block_cache_entry_t</title>
<!-- Node1 -->
<g id="node1" class="node">
<title>Node1</title>
<g id="a_node1"><a xlink:title="A single cached sector entry.">
<polygon fill="#bfbfbf" stroke="black" points="6,-0.5 6,-19.5 122,-19.5 122,-0.5 6,-0.5"/>
<text text-anchor="middle" x="64" y="-7.5" font-family="Helvetica,sans-Serif" font-size="10.00">block_cache_entry_t</text>
</a>
</g>
</g>
<!-- Node2 -->
<g id="node2" class="node">
<title>Node2</title>
<g id="a_node2"><a xlink:title=" ">
<polygon fill="none" stroke="#bfbfbf" points="0,-78.5 0,-97.5 56,-97.5 56,-78.5 0,-78.5"/>
<text text-anchor="middle" x="28" y="-85.5" font-family="Helvetica,sans-Serif" font-size="10.00">uint64_t</text>
</a>
</g>
</g>
<!-- Node2&#45;&gt;Node1 -->
<g id="edge1" class="edge">
<title>Node2&#45;&gt;Node1</title>
<path fill="none" stroke="#9a32cd" stroke-dasharray="5,2" d="M24.7,-68.44C23.88,-58.87 24.32,-47.28 29,-38 32.87,-30.33 40.05,-24.2 46.91,-19.73"/>
<polygon fill="#9a32cd" stroke="#9a32cd" points="21.25,-69.06 26.06,-78.5 28.19,-68.12 21.25,-69.06"/>
<text text-anchor="middle" x="54" y="-52" font-family="Helvetica,sans-Serif" font-size="10.00"> last_used</text>
<text text-anchor="middle" x="54" y="-41" font-family="Helvetica,sans-Serif" font-size="10.00">lba</text>
</g>
<!-- Node3 -->
<g id="node3" class="node">
<title>Node3</title>
<g id="a_node3"><a xlink:title=" ">
<polygon fill="none" stroke="#bfbfbf" points="76,-78.5 76,-97.5 126,-97.5 126,-78.5 76,-78.5"/>
<text text-anchor="middle" x="101" y="-85.5" font-family="Helvetica,sans-Serif" font-size="10.00">uint8_t</text>
</a>
</g>
</g>
<!-- Node3&#45;&gt;Node1 -->
<g id="edge2" class="edge">
<title>Node3&#45;&gt;Node1</title>
<path fill="none" stroke="#9a32cd" stroke-dasharray="5,2" d="M93.28,-68.82C89.21,-59.51 84.04,-48.05 79,-38 75.92,-31.86 72.17,-25.11 69.19,-19.9"/>
<polygon fill="#9a32cd" stroke="#9a32cd" points="90.16,-70.42 97.33,-78.22 96.59,-67.65 90.16,-70.42"/>
<text text-anchor="middle" x="98.5" y="-46.5" font-family="Helvetica,sans-Serif" font-size="10.00"> buf</text>
</g>
</g>
</svg>
