<?xml version="1.0" encoding="UTF-8" standalone="no"?>
<!DOCTYPE svg PUBLIC "-//W3C//DTD SVG 1.1//EN"
 "http://www.w3.org/Graphics/SVG/1.1/DTD/svg11.dtd">
<!-- Generated by graphviz version 2.43.0 (0)
 -->
<!-- Title: buddy_header_t Pages: 1 -->
<svg width="321pt" height="95pt"
 viewBox="0.00 0.00 320.50 95.00" xmlns="http://www.w3.org/2000/svg" xmlns:xlink="http://www.w3.org/1999/xlink">
<g id="graph0" class="graph" transform="scale(1 1) rotate(0) translate(4 91)">
<title>buddy_header_t</title>
<!-- Node1 -->
<g id="node1" class="node">
<title>Node1</title>
<g id="a_node1"><a xlink:title="Block header used for both free list nodes and allocated blocks.">
<polygon fill="#bfbfbf" stroke="black" points="155.5,-0.5 155.5,-19.5 250.5,-19.5 250.5,-0.5 155.5,-0.5"/>
<text text-anchor="middle" x="203" y="-7.5" font-family="Helvetica,sans-Serif" font-size="10.00">buddy_header_t</text>
</a>
</g>
</g>
<!-- Node2 -->
<g id="node2" class="node">
<title>Node2</title>
<g id="a_node2"><a xlink:title=" ">
<polygon fill="none" stroke="#bfbfbf" points="0,-67.5 0,-86.5 122,-86.5 122,-67.5 0,-67.5"/>
<text text-anchor="middle" x="61" y="-74.5" font-family="Helvetica,sans-Serif" font-size="10.00">struct buddy_region *</text>
</a>
</g>
</g>
<!-- Node2&#45;&gt;Node1 -->
<g id="edge1" class="edge">
<title>Node2&#45;&gt;Node1</title>
<path fill="none" stroke="#9a32cd" stroke-dasharray="5,2" d="M89.15,-63.11C117.28,-50.24 159.73,-30.81 184.07,-19.67"/>
<polygon fill="#9a32cd" stroke="#9a32cd" points="87.49,-60.02 79.86,-67.37 90.41,-66.39 87.49,-60.02"/>
<text text-anchor="middle" x="158" y="-41" font-family="Helvetica,sans-Serif" font-size="10.00"> region</text>
</g>
<!-- Node3 -->
<g id="node3" class="node">
<title>Node3</title>
<g id="a_node3"><a xlink:title=" ">
<polygon fill="none" stroke="#bfbfbf" points="140.5,-67.5 140.5,-86.5 265.5,-86.5 265.5,-67.5 140.5,-67.5"/>
<text text-anchor="middle" x="203" y="-74.5" font-family="Helvetica,sans-Serif" font-size="10.00">struct buddy_header *</text>
</a>
</g>
</g>
<!-- Node3&#45;&gt;Node1 -->
<g id="edge2" class="edge">
<title>Node3&#45;&gt;Node1</title>
<path fill="none" stroke="#9a32cd" stroke-dasharray="5,2" d="M203,-57.04C203,-44.67 203,-29.12 203,-19.63"/>
<polygon fill="#9a32cd" stroke="#9a32cd" points="199.5,-57.23 203,-67.23 206.5,-57.23 199.5,-57.23"/>
<text text-anchor="middle" x="215.5" y="-41" font-family="Helvetica,sans-Serif" font-size="10.00"> next</text>
</g>
<!-- Node4 -->
<g id="node4" class="node">
<title>Node4</title>
<g id="a_node4"><a xlink:title=" ">
<polygon fill="none" stroke="#bfbfbf" points="283.5,-67.5 283.5,-86.5 312.5,-86.5 312.5,-67.5 283.5,-67.5"/>
<text text-anchor="middle" x="298" y="-74.5" font-family="Helvetica,sans-Serif" font-size="10.00">int</text>
</a>
</g>
</g>
<!-- Node4&#45;&gt;Node1 -->
<g id="edge3" class="edge">
<title>Node4&#45;&gt;Node1</title>
<path fill="none" stroke="#9a32cd" stroke-dasharray="5,2" d="M276.69,-61.42C257.91,-48.57 231.18,-30.28 215.61,-19.63"/>
<polygon fill="#9a32cd" stroke="#9a32cd" points="274.96,-64.48 285.19,-67.23 278.91,-58.7 274.96,-64.48"/>
<text text-anchor="middle" x="270.5" y="-41" font-family="Helvetica,sans-Serif" font-size="10.00"> order</text>
</g>
</g>
</svg>
