<?xml version="1.0" encoding="UTF-8" standalone="no"?>
<!DOCTYPE svg PUBLIC "-//W3C//DTD SVG 1.1//EN"
 "http://www.w3.org/Graphics/SVG/1.1/DTD/svg11.dtd">
<!-- Generated by graphviz version 2.43.0 (0)
 -->
<!-- Title: netdev_t Pages: 1 -->
<svg width="740pt" height="264pt"
 viewBox="0.00 0.00 740.00 264.00" xmlns="http://www.w3.org/2000/svg" xmlns:xlink="http://www.w3.org/1999/xlink">
<g id="graph0" class="graph" transform="scale(1 1) rotate(0) translate(4 260)">
<title>netdev_t</title>
<!-- Node1 -->
<g id="node1" class="node">
<title>Node1</title>
<g id="a_node1"><a xlink:title="Represents a physical Ethernet network device.">
<polygon fill="#bfbfbf" stroke="black" points="405.5,-0.5 405.5,-19.5 464.5,-19.5 464.5,-0.5 405.5,-0.5"/>
<text text-anchor="middle" x="435" y="-7.5" font-family="Helvetica,sans-Serif" font-size="10.00">netdev_t</text>
</a>
</g>
</g>
<!-- Node2 -->
<g id="node2" class="node">
<title>Node2</title>
<g id="a_node2"><a xlink:href="structnetproto__t.html" target="_top" xlink:title="Represents a protocol, or group of related protocols, that can be attached to an interface and have a...">
<polygon fill="none" stroke="black" points="155.5,-68.5 155.5,-87.5 222.5,-87.5 222.5,-68.5 155.5,-68.5"/>
<text text-anchor="middle" x="189" y="-75.5" font-family="Helvetica,sans-Serif" font-size="10.00">netproto_t</text>
</a>
</g>
</g>
<!-- Node2&#45;&gt;Node1 -->
<g id="edge1" class="edge">
<title>Node2&#45;&gt;Node1</title>
<path fill="none" stroke="#9a32cd" stroke-dasharray="5,2" d="M211.49,-63.45C226.67,-54.89 247.43,-44.3 267,-38 313.96,-22.88 371.14,-16 405.23,-13.04"/>
<polygon fill="#9a32cd" stroke="#9a32cd" points="209.73,-60.43 202.82,-68.46 213.23,-66.49 209.73,-60.43"/>
<text text-anchor="middle" x="289.5" y="-41" font-family="Helvetica,sans-Serif" font-size="10.00"> netproto</text>
</g>
<!-- Node3 -->
<g id="node3" class="node">
<title>Node3</title>
<g id="a_node3"><a xlink:title=" ">
<polygon fill="none" stroke="#bfbfbf" points="0,-158.5 0,-177.5 56,-177.5 56,-158.5 0,-158.5"/>
<text text-anchor="middle" x="28" y="-165.5" font-family="Helvetica,sans-Serif" font-size="10.00">uint16_t</text>
</a>
</g>
</g>
<!-- Node3&#45;&gt;Node1 -->
<g id="edge7" class="edge">
<title>Node3&#45;&gt;Node1</title>
<path fill="none" stroke="#9a32cd" stroke-dasharray="5,2" d="M22.2,-148.53C19.38,-135.84 18.09,-119.17 26,-107 49.85,-70.3 74.54,-81.05 116,-67 218.78,-32.17 347.9,-18.03 405.22,-13.18"/>
<polygon fill="#9a32cd" stroke="#9a32cd" points="18.88,-149.69 24.87,-158.43 25.64,-147.87 18.88,-149.69"/>
<text text-anchor="middle" x="131" y="-81" font-family="Helvetica,sans-Serif" font-size="10.00"> mtu</text>
<text text-anchor="middle" x="131" y="-70" font-family="Helvetica,sans-Serif" font-size="10.00">speed</text>
</g>
<!-- Node3&#45;&gt;Node2 -->
<g id="edge2" class="edge">
<title>Node3&#45;&gt;Node2</title>
<path fill="none" stroke="#9a32cd" stroke-dasharray="5,2" d="M28.37,-148.15C29.68,-134.77 33.67,-117.42 45,-107 60.75,-92.52 117.84,-84.99 155.23,-81.52"/>
<polygon fill="#9a32cd" stroke="#9a32cd" points="24.87,-148.02 27.8,-158.2 31.86,-148.41 24.87,-148.02"/>
<text text-anchor="middle" x="97" y="-126.5" font-family="Helvetica,sans-Serif" font-size="10.00"> ethernet_protocol_id</text>
<text text-anchor="middle" x="97" y="-115.5" font-family="Helvetica,sans-Serif" font-size="10.00">num_addresses</text>
</g>
<!-- Node4 -->
<g id="node4" class="node">
<title>Node4</title>
<g id="a_node4"><a xlink:title=" ">
<polygon fill="none" stroke="#bfbfbf" points="207,-236.5 207,-255.5 245,-255.5 245,-236.5 207,-236.5"/>
<text text-anchor="middle" x="226" y="-243.5" font-family="Helvetica,sans-Serif" font-size="10.00">char</text>
</a>
</g>
</g>
<!-- Node4&#45;&gt;Node1 -->
<g id="edge8" class="edge">
<title>Node4&#45;&gt;Node1</title>
<path fill="none" stroke="#9a32cd" stroke-dasharray="5,2" d="M255.08,-243.74C274.25,-241.27 298.26,-234.74 312,-218 343.48,-179.64 300.97,-150.95 324,-107 345.76,-65.48 393.58,-34.05 418.76,-19.66"/>
<polygon fill="#9a32cd" stroke="#9a32cd" points="254.64,-240.27 245.03,-244.73 255.33,-247.23 254.64,-240.27"/>
<text text-anchor="middle" x="353" y="-126.5" font-family="Helvetica,sans-Serif" font-size="10.00"> description</text>
<text text-anchor="middle" x="353" y="-115.5" font-family="Helvetica,sans-Serif" font-size="10.00">name</text>
</g>
<!-- Node4&#45;&gt;Node2 -->
<g id="edge3" class="edge">
<title>Node4&#45;&gt;Node2</title>
<path fill="none" stroke="#9a32cd" stroke-dasharray="5,2" d="M208.17,-229.42C195.37,-216.97 179.16,-198.3 172,-178 160.69,-145.93 176.47,-105.28 184.64,-87.72"/>
<polygon fill="#9a32cd" stroke="#9a32cd" points="205.89,-232.08 215.59,-236.33 210.65,-226.95 205.89,-232.08"/>
<text text-anchor="middle" x="187.5" y="-165.5" font-family="Helvetica,sans-Serif" font-size="10.00"> name</text>
</g>
<!-- Node5 -->
<g id="node5" class="node">
<title>Node5</title>
<g id="a_node5"><a xlink:href="structnet__address__t.html" target="_top" xlink:title="Represents an address bound to a protocol on an interface.">
<polygon fill="none" stroke="black" points="212.5,-158.5 212.5,-177.5 297.5,-177.5 297.5,-158.5 212.5,-158.5"/>
<text text-anchor="middle" x="255" y="-165.5" font-family="Helvetica,sans-Serif" font-size="10.00">net_address_t</text>
</a>
</g>
</g>
<!-- Node4&#45;&gt;Node5 -->
<g id="edge5" class="edge">
<title>Node4&#45;&gt;Node5</title>
<path fill="none" stroke="#9a32cd" stroke-dasharray="5,2" d="M223.1,-226.3C222.43,-216.85 222.89,-205.41 227,-196 230.19,-188.7 236.39,-182.39 242.14,-177.71"/>
<polygon fill="#9a32cd" stroke="#9a32cd" points="219.62,-226.72 224.24,-236.25 226.58,-225.92 219.62,-226.72"/>
<text text-anchor="middle" x="242.5" y="-204.5" font-family="Helvetica,sans-Serif" font-size="10.00"> name</text>
</g>
<!-- Node5&#45;&gt;Node2 -->
<g id="edge4" class="edge">
<title>Node5&#45;&gt;Node2</title>
<path fill="none" stroke="#9a32cd" stroke-dasharray="5,2" d="M242.29,-150.05C228.31,-131.42 206.4,-102.2 195.54,-87.72"/>
<polygon fill="#9a32cd" stroke="#9a32cd" points="239.63,-152.34 248.43,-158.24 245.23,-148.14 239.63,-152.34"/>
<text text-anchor="middle" x="260.5" y="-121" font-family="Helvetica,sans-Serif" font-size="10.00"> addresses</text>
</g>
<!-- Node6 -->
<g id="node6" class="node">
<title>Node6</title>
<g id="a_node6"><a xlink:title=" ">
<polygon fill="none" stroke="#bfbfbf" points="322,-236.5 322,-255.5 372,-255.5 372,-236.5 322,-236.5"/>
<text text-anchor="middle" x="347" y="-243.5" font-family="Helvetica,sans-Serif" font-size="10.00">uint8_t</text>
</a>
</g>
</g>
<!-- Node6&#45;&gt;Node1 -->
<g id="edge12" class="edge">
<title>Node6&#45;&gt;Node1</title>
<path fill="none" stroke="#9a32cd" stroke-dasharray="5,2" d="M353.82,-226.88C371.55,-179.72 418.65,-54.48 431.64,-19.93"/>
<polygon fill="#9a32cd" stroke="#9a32cd" points="350.48,-225.8 350.24,-236.39 357.03,-228.27 350.48,-225.8"/>
<text text-anchor="middle" x="435" y="-132" font-family="Helvetica,sans-Serif" font-size="10.00"> flags</text>
<text text-anchor="middle" x="435" y="-121" font-family="Helvetica,sans-Serif" font-size="10.00">get_mac_addr</text>
<text text-anchor="middle" x="435" y="-110" font-family="Helvetica,sans-Serif" font-size="10.00">num_netprotos</text>
</g>
<!-- Node6&#45;&gt;Node5 -->
<g id="edge6" class="edge">
<title>Node6&#45;&gt;Node5</title>
<path fill="none" stroke="#9a32cd" stroke-dasharray="5,2" d="M328.51,-229.73C309.56,-214.07 280.75,-190.27 265.43,-177.62"/>
<polygon fill="#9a32cd" stroke="#9a32cd" points="326.51,-232.61 336.45,-236.28 330.97,-227.21 326.51,-232.61"/>
<text text-anchor="middle" x="327.5" y="-210" font-family="Helvetica,sans-Serif" font-size="10.00"> bytes</text>
<text text-anchor="middle" x="327.5" y="-199" font-family="Helvetica,sans-Serif" font-size="10.00">length</text>
</g>
<!-- Node7 -->
<g id="node7" class="node">
<title>Node7</title>
<g id="a_node7"><a xlink:title=" ">
<polygon fill="none" stroke="#bfbfbf" points="435,-68.5 435,-87.5 491,-87.5 491,-68.5 435,-68.5"/>
<text text-anchor="middle" x="463" y="-75.5" font-family="Helvetica,sans-Serif" font-size="10.00">uint32_t</text>
</a>
</g>
</g>
<!-- Node7&#45;&gt;Node1 -->
<g id="edge9" class="edge">
<title>Node7&#45;&gt;Node1</title>
<path fill="none" stroke="#9a32cd" stroke-dasharray="5,2" d="M455.28,-58.81C449.9,-46.12 442.96,-29.76 438.75,-19.84"/>
<polygon fill="#9a32cd" stroke="#9a32cd" points="452.21,-60.53 459.34,-68.37 458.66,-57.8 452.21,-60.53"/>
<text text-anchor="middle" x="472.5" y="-41" font-family="Helvetica,sans-Serif" font-size="10.00"> deviceid</text>
</g>
<!-- Node8 -->
<g id="node8" class="node">
<title>Node8</title>
<g id="a_node8"><a xlink:title=" ">
<polygon fill="none" stroke="#bfbfbf" points="509.5,-68.5 509.5,-87.5 598.5,-87.5 598.5,-68.5 509.5,-68.5"/>
<text text-anchor="middle" x="554" y="-75.5" font-family="Helvetica,sans-Serif" font-size="10.00">struct netdev *</text>
</a>
</g>
</g>
<!-- Node8&#45;&gt;Node1 -->
<g id="edge10" class="edge">
<title>Node8&#45;&gt;Node1</title>
<path fill="none" stroke="#9a32cd" stroke-dasharray="5,2" d="M534.87,-61.88C524.6,-54.16 511.5,-44.96 499,-38 486.15,-30.84 471.01,-24.38 458.68,-19.57"/>
<polygon fill="#9a32cd" stroke="#9a32cd" points="533.03,-64.87 543.1,-68.19 537.29,-59.32 533.03,-64.87"/>
<text text-anchor="middle" x="528.5" y="-41" font-family="Helvetica,sans-Serif" font-size="10.00"> next</text>
</g>
<!-- Node9 -->
<g id="node9" class="node">
<title>Node9</title>
<g id="a_node9"><a xlink:title=" ">
<polygon fill="none" stroke="#bfbfbf" points="617,-68.5 617,-87.5 655,-87.5 655,-68.5 617,-68.5"/>
<text text-anchor="middle" x="636" y="-75.5" font-family="Helvetica,sans-Serif" font-size="10.00">bool</text>
</a>
</g>
</g>
<!-- Node9&#45;&gt;Node1 -->
<g id="edge11" class="edge">
<title>Node9&#45;&gt;Node1</title>
<path fill="none" stroke="#9a32cd" stroke-dasharray="5,2" d="M608.98,-64.03C591.11,-55.8 567.01,-45.36 545,-38 518.33,-29.08 487.13,-21.7 464.79,-16.92"/>
<polygon fill="#9a32cd" stroke="#9a32cd" points="607.67,-67.28 618.21,-68.34 610.63,-60.94 607.67,-67.28"/>
<text text-anchor="middle" x="605" y="-41" font-family="Helvetica,sans-Serif" font-size="10.00"> send_packet</text>
</g>
<!-- Node10 -->
<g id="node10" class="node">
<title>Node10</title>
<g id="a_node10"><a xlink:title=" ">
<polygon fill="none" stroke="#bfbfbf" points="686,-68.5 686,-87.5 732,-87.5 732,-68.5 686,-68.5"/>
<text text-anchor="middle" x="709" y="-75.5" font-family="Helvetica,sans-Serif" font-size="10.00">void *</text>
</a>
</g>
</g>
<!-- Node10&#45;&gt;Node1 -->
<g id="edge13" class="edge">
<title>Node10&#45;&gt;Node1</title>
<path fill="none" stroke="#9a32cd" stroke-dasharray="5,2" d="M688.56,-62.45C675.56,-53.93 658.02,-43.74 641,-38 580.68,-17.64 505.61,-12.52 464.81,-11.3"/>
<polygon fill="#9a32cd" stroke="#9a32cd" points="686.92,-65.56 697.16,-68.28 690.84,-59.77 686.92,-65.56"/>
<text text-anchor="middle" x="684" y="-41" font-family="Helvetica,sans-Serif" font-size="10.00"> opaque</text>
</g>
</g>
</svg>
