<?xml version="1.0" encoding="UTF-8" standalone="no"?>
<!DOCTYPE svg PUBLIC "-//W3C//DTD SVG 1.1//EN"
 "http://www.w3.org/Graphics/SVG/1.1/DTD/svg11.dtd">
<!-- Generated by graphviz version 2.43.0 (0)
 -->
<!-- Title: ahci_hba_cmd_header_t Pages: 1 -->
<svg width="206pt" height="183pt"
 viewBox="0.00 0.00 206.00 183.00" xmlns="http://www.w3.org/2000/svg" xmlns:xlink="http://www.w3.org/1999/xlink">
<g id="graph0" class="graph" transform="scale(1 1) rotate(0) translate(4 179)">
<title>ahci_hba_cmd_header_t</title>
<!-- Node1 -->
<g id="node1" class="node">
<title>Node1</title>
<g id="a_node1"><a xlink:title=" ">
<polygon fill="#bfbfbf" stroke="black" points="29,-0.5 29,-19.5 163,-19.5 163,-0.5 29,-0.5"/>
<text text-anchor="middle" x="96" y="-7.5" font-family="Helvetica,sans-Serif" font-size="10.00">ahci_hba_cmd_header_t</text>
</a>
</g>
</g>
<!-- Node2 -->
<g id="node2" class="node">
<title>Node2</title>
<g id="a_node2"><a xlink:title=" ">
<polygon fill="none" stroke="black" points="0,-155.5 0,-174.5 50,-174.5 50,-155.5 0,-155.5"/>
<text text-anchor="middle" x="25" y="-162.5" font-family="Helvetica,sans-Serif" font-size="10.00">uint8_t</text>
</a>
</g>
</g>
<!-- Node2&#45;&gt;Node1 -->
<g id="edge1" class="edge">
<title>Node2&#45;&gt;Node1</title>
<path fill="none" stroke="#9a32cd" stroke-dasharray="5,2" d="M29.04,-145.32C35.15,-119.71 48.36,-72.91 70,-38 74.25,-31.14 80.48,-24.59 85.78,-19.66"/>
<polygon fill="#9a32cd" stroke="#9a32cd" points="25.6,-144.66 26.79,-155.19 32.43,-146.22 25.6,-144.66"/>
<text text-anchor="middle" x="81" y="-129" font-family="Helvetica,sans-Serif" font-size="10.00"> a</text>
<text text-anchor="middle" x="81" y="-118" font-family="Helvetica,sans-Serif" font-size="10.00">b</text>
<text text-anchor="middle" x="81" y="-107" font-family="Helvetica,sans-Serif" font-size="10.00">c</text>
<text text-anchor="middle" x="81" y="-96" font-family="Helvetica,sans-Serif" font-size="10.00">cfl</text>
<text text-anchor="middle" x="81" y="-85" font-family="Helvetica,sans-Serif" font-size="10.00">p</text>
<text text-anchor="middle" x="81" y="-74" font-family="Helvetica,sans-Serif" font-size="10.00">pmp</text>
<text text-anchor="middle" x="81" y="-63" font-family="Helvetica,sans-Serif" font-size="10.00">r</text>
<text text-anchor="middle" x="81" y="-52" font-family="Helvetica,sans-Serif" font-size="10.00">rsv0</text>
<text text-anchor="middle" x="81" y="-41" font-family="Helvetica,sans-Serif" font-size="10.00">w</text>
</g>
<!-- Node3 -->
<g id="node3" class="node">
<title>Node3</title>
<g id="a_node3"><a xlink:title=" ">
<polygon fill="none" stroke="black" points="68,-155.5 68,-174.5 124,-174.5 124,-155.5 68,-155.5"/>
<text text-anchor="middle" x="96" y="-162.5" font-family="Helvetica,sans-Serif" font-size="10.00">uint16_t</text>
</a>
</g>
</g>
<!-- Node3&#45;&gt;Node1 -->
<g id="edge2" class="edge">
<title>Node3&#45;&gt;Node1</title>
<path fill="none" stroke="#9a32cd" stroke-dasharray="5,2" d="M96,-145.11C96,-111.72 96,-43.54 96,-19.57"/>
<polygon fill="#9a32cd" stroke="#9a32cd" points="92.5,-145.34 96,-155.34 99.5,-145.34 92.5,-145.34"/>
<text text-anchor="middle" x="109" y="-85" font-family="Helvetica,sans-Serif" font-size="10.00"> prdtl</text>
</g>
<!-- Node4 -->
<g id="node4" class="node">
<title>Node4</title>
<g id="a_node4"><a xlink:title=" ">
<polygon fill="none" stroke="black" points="142,-155.5 142,-174.5 198,-174.5 198,-155.5 142,-155.5"/>
<text text-anchor="middle" x="170" y="-162.5" font-family="Helvetica,sans-Serif" font-size="10.00">uint32_t</text>
</a>
</g>
</g>
<!-- Node4&#45;&gt;Node1 -->
<g id="edge3" class="edge">
<title>Node4&#45;&gt;Node1</title>
<path fill="none" stroke="#9a32cd" stroke-dasharray="5,2" d="M166.57,-145.47C161.15,-119.68 148.8,-72.28 126,-38 121.27,-30.88 114.23,-24.42 108.16,-19.6"/>
<polygon fill="#9a32cd" stroke="#9a32cd" points="163.16,-146.26 168.53,-155.39 170.02,-144.9 163.16,-146.26"/>
<text text-anchor="middle" x="178" y="-101.5" font-family="Helvetica,sans-Serif" font-size="10.00"> ctba</text>
<text text-anchor="middle" x="178" y="-90.5" font-family="Helvetica,sans-Serif" font-size="10.00">ctbau</text>
<text text-anchor="middle" x="178" y="-79.5" font-family="Helvetica,sans-Serif" font-size="10.00">prdbc</text>
<text text-anchor="middle" x="178" y="-68.5" font-family="Helvetica,sans-Serif" font-size="10.00">rsv1</text>
</g>
</g>
</svg>
