<?xml version="1.0" encoding="UTF-8" standalone="no"?>
<!DOCTYPE svg PUBLIC "-//W3C//DTD SVG 1.1//EN"
 "http://www.w3.org/Graphics/SVG/1.1/DTD/svg11.dtd">
<!-- Generated by graphviz version 2.43.0 (0)
 -->
<!-- Title: ethernet_frame Pages: 1 -->
<svg width="153pt" height="117pt"
 viewBox="0.00 0.00 153.00 117.00" xmlns="http://www.w3.org/2000/svg" xmlns:xlink="http://www.w3.org/1999/xlink">
<g id="graph0" class="graph" transform="scale(1 1) rotate(0) translate(4 113)">
<title>ethernet_frame</title>
<!-- Node1 -->
<g id="node1" class="node">
<title>Node1</title>
<g id="a_node1"><a xlink:title="There is actually more to an ethernet frame than this (see the STD documents!) but we don&#39;t have acce...">
<polygon fill="#bfbfbf" stroke="black" points="25,-0.5 25,-19.5 117,-19.5 117,-0.5 25,-0.5"/>
<text text-anchor="middle" x="71" y="-7.5" font-family="Helvetica,sans-Serif" font-size="10.00">ethernet_frame</text>
</a>
</g>
</g>
<!-- Node2 -->
<g id="node2" class="node">
<title>Node2</title>
<g id="a_node2"><a xlink:title=" ">
<polygon fill="none" stroke="black" points="0,-89.5 0,-108.5 50,-108.5 50,-89.5 0,-89.5"/>
<text text-anchor="middle" x="25" y="-96.5" font-family="Helvetica,sans-Serif" font-size="10.00">uint8_t</text>
</a>
</g>
</g>
<!-- Node2&#45;&gt;Node1 -->
<g id="edge1" class="edge">
<title>Node2&#45;&gt;Node1</title>
<path fill="none" stroke="#9a32cd" stroke-dasharray="5,2" d="M20.79,-78.97C19.08,-66.5 18.9,-50.3 26,-38 30.74,-29.79 39.05,-23.8 47.26,-19.57"/>
<polygon fill="#9a32cd" stroke="#9a32cd" points="17.41,-79.94 22.64,-89.16 24.3,-78.69 17.41,-79.94"/>
<text text-anchor="middle" x="60.5" y="-63" font-family="Helvetica,sans-Serif" font-size="10.00"> data</text>
<text text-anchor="middle" x="60.5" y="-52" font-family="Helvetica,sans-Serif" font-size="10.00">dst_mac_addr</text>
<text text-anchor="middle" x="60.5" y="-41" font-family="Helvetica,sans-Serif" font-size="10.00">src_mac_addr</text>
</g>
<!-- Node3 -->
<g id="node3" class="node">
<title>Node3</title>
<g id="a_node3"><a xlink:title=" ">
<polygon fill="none" stroke="black" points="89,-89.5 89,-108.5 145,-108.5 145,-89.5 89,-89.5"/>
<text text-anchor="middle" x="117" y="-96.5" font-family="Helvetica,sans-Serif" font-size="10.00">uint16_t</text>
</a>
</g>
</g>
<!-- Node3&#45;&gt;Node1 -->
<g id="edge2" class="edge">
<title>Node3&#45;&gt;Node1</title>
<path fill="none" stroke="#9a32cd" stroke-dasharray="5,2" d="M112.16,-79.42C108.49,-67.14 102.76,-50.98 95,-38 91.01,-31.33 85.25,-24.78 80.38,-19.81"/>
<polygon fill="#9a32cd" stroke="#9a32cd" points="108.88,-80.71 114.94,-89.4 115.63,-78.83 108.88,-80.71"/>
<text text-anchor="middle" x="121.5" y="-52" font-family="Helvetica,sans-Serif" font-size="10.00"> type</text>
</g>
</g>
</svg>
