<?xml version="1.0" encoding="UTF-8" standalone="no"?>
<!DOCTYPE svg PUBLIC "-//W3C//DTD SVG 1.1//EN"
 "http://www.w3.org/Graphics/SVG/1.1/DTD/svg11.dtd">
<!-- Generated by graphviz version 2.43.0 (0)
 -->
<!-- Title: fs_handle_t Pages: 1 -->
<svg width="1043pt" height="232pt"
 viewBox="0.00 0.00 1043.00 232.00" xmlns="http://www.w3.org/2000/svg" xmlns:xlink="http://www.w3.org/1999/xlink">
<g id="graph0" class="graph" transform="scale(1 1) rotate(0) translate(4 228)">
<title>fs_handle_t</title>
<!-- Node1 -->
<g id="node1" class="node">
<title>Node1</title>
<g id="a_node1"><a xlink:title=" ">
<polygon fill="#bfbfbf" stroke="black" points="149,-7 149,-26 222,-26 222,-7 149,-7"/>
<text text-anchor="middle" x="185.5" y="-14" font-family="Helvetica,sans-Serif" font-size="10.00">fs_handle_t</text>
</a>
</g>
</g>
<!-- Node2 -->
<g id="node2" class="node">
<title>Node2</title>
<g id="a_node2"><a xlink:href="structfs__directory__entry__t.html" target="_top" xlink:title=" ">
<polygon fill="none" stroke="black" points="415.5,-87 415.5,-106 529.5,-106 529.5,-87 415.5,-87"/>
<text text-anchor="middle" x="472.5" y="-94" font-family="Helvetica,sans-Serif" font-size="10.00">fs_directory_entry_t</text>
</a>
</g>
</g>
<!-- Node2&#45;&gt;Node1 -->
<g id="edge1" class="edge">
<title>Node2&#45;&gt;Node1</title>
<path fill="none" stroke="#9a32cd" stroke-dasharray="5,2" d="M431.04,-84.23C373.11,-68.49 269.18,-40.24 217.08,-26.08"/>
<polygon fill="#9a32cd" stroke="#9a32cd" points="430.39,-87.68 440.96,-86.93 432.23,-80.93 430.39,-87.68"/>
<text text-anchor="middle" x="355" y="-54" font-family="Helvetica,sans-Serif" font-size="10.00"> file</text>
</g>
<!-- Node2&#45;&gt;Node2 -->
<g id="edge2" class="edge">
<title>Node2&#45;&gt;Node2</title>
<path fill="none" stroke="#9a32cd" stroke-dasharray="5,2" d="M539.94,-101.96C544.63,-100.71 547.5,-98.89 547.5,-96.5 547.5,-92.67 540.17,-90.31 529.72,-89.41"/>
<polygon fill="#9a32cd" stroke="#9a32cd" points="539.05,-98.56 529.72,-103.59 540.15,-105.47 539.05,-98.56"/>
<text text-anchor="middle" x="560" y="-94" font-family="Helvetica,sans-Serif" font-size="10.00"> next</text>
</g>
<!-- Node4 -->
<g id="node4" class="node">
<title>Node4</title>
<g id="a_node4"><a xlink:href="structfs__tree__t.html" target="_top" xlink:title=" ">
<polygon fill="none" stroke="black" points="608,-7 608,-26 667,-26 667,-7 608,-7"/>
<text text-anchor="middle" x="637.5" y="-14" font-family="Helvetica,sans-Serif" font-size="10.00">fs_tree_t</text>
</a>
</g>
</g>
<!-- Node2&#45;&gt;Node4 -->
<g id="edge6" class="edge">
<title>Node2&#45;&gt;Node4</title>
<path fill="none" stroke="#9a32cd" stroke-dasharray="5,2" d="M479.33,-77.67C483.75,-68.41 490.39,-57.66 499.5,-51 531.53,-27.56 577.85,-20.35 607.82,-18.23"/>
<polygon fill="#9a32cd" stroke="#9a32cd" points="476.1,-76.31 475.39,-86.88 482.54,-79.06 476.1,-76.31"/>
<text text-anchor="middle" x="511.5" y="-54" font-family="Helvetica,sans-Serif" font-size="10.00"> files</text>
</g>
<!-- Node3 -->
<g id="node3" class="node">
<title>Node3</title>
<g id="a_node3"><a xlink:title=" ">
<polygon fill="none" stroke="#bfbfbf" points="444.5,-204.5 444.5,-223.5 500.5,-223.5 500.5,-204.5 444.5,-204.5"/>
<text text-anchor="middle" x="472.5" y="-211.5" font-family="Helvetica,sans-Serif" font-size="10.00">uint64_t</text>
</a>
</g>
</g>
<!-- Node3&#45;&gt;Node1 -->
<g id="edge22" class="edge">
<title>Node3&#45;&gt;Node1</title>
<path fill="none" stroke="#9a32cd" stroke-dasharray="5,2" d="M459.24,-196.58C444.22,-178.74 418.33,-150.24 391.5,-131 376.63,-120.34 369.94,-122.79 354.5,-113 334.74,-100.47 333.24,-92.54 313.5,-80 277.8,-57.32 232.68,-37.06 206.65,-26.1"/>
<polygon fill="#9a32cd" stroke="#9a32cd" points="456.62,-198.91 465.69,-204.39 462.02,-194.45 456.62,-198.91"/>
<text text-anchor="middle" x="380.5" y="-105" font-family="Helvetica,sans-Serif" font-size="10.00"> inbufsize</text>
<text text-anchor="middle" x="380.5" y="-94" font-family="Helvetica,sans-Serif" font-size="10.00">outbufsize</text>
<text text-anchor="middle" x="380.5" y="-83" font-family="Helvetica,sans-Serif" font-size="10.00">seekpos</text>
</g>
<!-- Node3&#45;&gt;Node2 -->
<g id="edge3" class="edge">
<title>Node3&#45;&gt;Node2</title>
<path fill="none" stroke="#9a32cd" stroke-dasharray="5,2" d="M472.5,-194.16C472.5,-168.87 472.5,-124.94 472.5,-106.28"/>
<polygon fill="#9a32cd" stroke="#9a32cd" points="469,-194.32 472.5,-204.32 476,-194.32 469,-194.32"/>
<text text-anchor="middle" x="490.5" y="-161.5" font-family="Helvetica,sans-Serif" font-size="10.00"> lbapos</text>
<text text-anchor="middle" x="490.5" y="-150.5" font-family="Helvetica,sans-Serif" font-size="10.00">size</text>
</g>
<!-- Node3&#45;&gt;Node4 -->
<g id="edge5" class="edge">
<title>Node3&#45;&gt;Node4</title>
<path fill="none" stroke="#9a32cd" stroke-dasharray="5,2" d="M510.71,-209.16C542.05,-205.21 583.05,-197.91 594.5,-186 627.65,-151.48 600.64,-126.1 613.5,-80 618.99,-60.3 628.27,-38.14 633.54,-26.22"/>
<polygon fill="#9a32cd" stroke="#9a32cd" points="510.02,-205.72 500.51,-210.38 510.85,-212.67 510.02,-205.72"/>
<text text-anchor="middle" x="625" y="-94" font-family="Helvetica,sans-Serif" font-size="10.00"> size</text>
</g>
<!-- Node4&#45;&gt;Node2 -->
<g id="edge4" class="edge">
<title>Node4&#45;&gt;Node2</title>
<path fill="none" stroke="#9a32cd" stroke-dasharray="5,2" d="M600.73,-29.5C584.18,-35.34 564.56,-42.84 547.5,-51 524.82,-61.84 500.02,-77.33 485.38,-86.89"/>
<polygon fill="#9a32cd" stroke="#9a32cd" points="602.28,-32.67 610.59,-26.1 600,-26.06 602.28,-32.67"/>
<text text-anchor="middle" x="571" y="-54" font-family="Helvetica,sans-Serif" font-size="10.00"> directory</text>
</g>
<!-- Node4&#45;&gt;Node4 -->
<g id="edge7" class="edge">
<title>Node4&#45;&gt;Node4</title>
<path fill="none" stroke="#9a32cd" stroke-dasharray="5,2" d="M677.17,-22.95C681.9,-21.77 685,-19.62 685,-16.5 685,-11.5 677.08,-9 667.18,-9"/>
<polygon fill="#9a32cd" stroke="#9a32cd" points="676.76,-19.47 667.18,-24 677.5,-26.43 676.76,-19.47"/>
<text text-anchor="middle" x="710" y="-25" font-family="Helvetica,sans-Serif" font-size="10.00"> child_dirs</text>
<text text-anchor="middle" x="710" y="-14" font-family="Helvetica,sans-Serif" font-size="10.00">next</text>
<text text-anchor="middle" x="710" y="-3" font-family="Helvetica,sans-Serif" font-size="10.00">parent</text>
</g>
<!-- Node5 -->
<g id="node5" class="node">
<title>Node5</title>
<g id="a_node5"><a xlink:href="structfilesystem__t.html" target="_top" xlink:title=" ">
<polygon fill="none" stroke="black" points="848,-87 848,-106 925,-106 925,-87 848,-87"/>
<text text-anchor="middle" x="886.5" y="-94" font-family="Helvetica,sans-Serif" font-size="10.00">filesystem_t</text>
</a>
</g>
</g>
<!-- Node5&#45;&gt;Node4 -->
<g id="edge8" class="edge">
<title>Node5&#45;&gt;Node4</title>
<path fill="none" stroke="#9a32cd" stroke-dasharray="5,2" d="M865.38,-81.55C849.52,-71.66 826.92,-58.81 805.5,-51 758.69,-33.94 701.21,-24.86 667.07,-20.63"/>
<polygon fill="#9a32cd" stroke="#9a32cd" points="863.58,-84.55 873.89,-86.97 867.34,-78.65 863.58,-84.55"/>
<text text-anchor="middle" x="875.5" y="-54" font-family="Helvetica,sans-Serif" font-size="10.00"> responsible_driver</text>
</g>
<!-- Node5&#45;&gt;Node5 -->
<g id="edge10" class="edge">
<title>Node5&#45;&gt;Node5</title>
<path fill="none" stroke="#9a32cd" stroke-dasharray="5,2" d="M935.22,-102.59C939.97,-101.36 943,-99.33 943,-96.5 943,-91.97 935.26,-89.49 925.05,-89.07"/>
<polygon fill="#9a32cd" stroke="#9a32cd" points="934.51,-99.15 925.05,-103.93 935.42,-106.09 934.51,-99.15"/>
<text text-anchor="middle" x="955.5" y="-94" font-family="Helvetica,sans-Serif" font-size="10.00"> next</text>
</g>
<!-- Node6 -->
<g id="node6" class="node">
<title>Node6</title>
<g id="a_node6"><a xlink:title=" ">
<polygon fill="none" stroke="#bfbfbf" points="940,-204.5 940,-223.5 1035,-223.5 1035,-204.5 940,-204.5"/>
<text text-anchor="middle" x="987.5" y="-211.5" font-family="Helvetica,sans-Serif" font-size="10.00">void *(*)(void *)</text>
</a>
</g>
</g>
<!-- Node6&#45;&gt;Node5 -->
<g id="edge9" class="edge">
<title>Node6&#45;&gt;Node5</title>
<path fill="none" stroke="#9a32cd" stroke-dasharray="5,2" d="M973.07,-196.5C951.35,-171.66 911,-125.52 894.17,-106.28"/>
<polygon fill="#9a32cd" stroke="#9a32cd" points="970.69,-199.09 979.9,-204.32 975.96,-194.49 970.69,-199.09"/>
<text text-anchor="middle" x="978.5" y="-156" font-family="Helvetica,sans-Serif" font-size="10.00"> getdir</text>
</g>
<!-- Node7 -->
<g id="node7" class="node">
<title>Node7</title>
<g id="a_node7"><a xlink:title=" ">
<polygon fill="none" stroke="#bfbfbf" points="843,-204.5 843,-223.5 922,-223.5 922,-204.5 843,-204.5"/>
<text text-anchor="middle" x="882.5" y="-211.5" font-family="Helvetica,sans-Serif" font-size="10.00">int(*)(void *)</text>
</a>
</g>
</g>
<!-- Node7&#45;&gt;Node5 -->
<g id="edge11" class="edge">
<title>Node7&#45;&gt;Node5</title>
<path fill="none" stroke="#9a32cd" stroke-dasharray="5,2" d="M883.15,-194.16C884.02,-168.87 885.55,-124.94 886.19,-106.28"/>
<polygon fill="#9a32cd" stroke="#9a32cd" points="879.64,-194.2 882.8,-204.32 886.64,-194.45 879.64,-194.2"/>
<text text-anchor="middle" x="893" y="-156" font-family="Helvetica,sans-Serif" font-size="10.00"> rm</text>
</g>
<!-- Node8 -->
<g id="node8" class="node">
<title>Node8</title>
<g id="a_node8"><a xlink:title=" ">
<polygon fill="none" stroke="#bfbfbf" points="238.5,-204.5 238.5,-223.5 276.5,-223.5 276.5,-204.5 238.5,-204.5"/>
<text text-anchor="middle" x="257.5" y="-211.5" font-family="Helvetica,sans-Serif" font-size="10.00">char</text>
</a>
</g>
</g>
<!-- Node8&#45;&gt;Node1 -->
<g id="edge23" class="edge">
<title>Node8&#45;&gt;Node1</title>
<path fill="none" stroke="#9a32cd" stroke-dasharray="5,2" d="M228.43,-211.36C174.07,-206.54 57.99,-187.58 7.5,-113 -29.86,-57.82 86.28,-31.94 148.65,-22.27"/>
<polygon fill="#9a32cd" stroke="#9a32cd" points="228.19,-214.85 238.44,-212.15 228.74,-207.87 228.19,-214.85"/>
<text text-anchor="middle" x="23.5" y="-99.5" font-family="Helvetica,sans-Serif" font-size="10.00"> inbuf</text>
<text text-anchor="middle" x="23.5" y="-88.5" font-family="Helvetica,sans-Serif" font-size="10.00">outbuf</text>
</g>
<!-- Node8&#45;&gt;Node2 -->
<g id="edge19" class="edge">
<title>Node8&#45;&gt;Node2</title>
<path fill="none" stroke="#9a32cd" stroke-dasharray="5,2" d="M265.54,-195.38C275.14,-176.42 293.03,-146.86 317.5,-131 349.53,-110.23 364.18,-121.07 401.5,-113 411.85,-110.76 423.06,-108.32 433.44,-106.05"/>
<polygon fill="#9a32cd" stroke="#9a32cd" points="262.37,-193.91 261.18,-204.44 268.67,-196.95 262.37,-193.91"/>
<text text-anchor="middle" x="352" y="-161.5" font-family="Helvetica,sans-Serif" font-size="10.00"> device_name</text>
<text text-anchor="middle" x="352" y="-150.5" font-family="Helvetica,sans-Serif" font-size="10.00">filename</text>
</g>
<!-- Node8&#45;&gt;Node4 -->
<g id="edge14" class="edge">
<title>Node8&#45;&gt;Node4</title>
<path fill="none" stroke="#9a32cd" stroke-dasharray="5,2" d="M247.95,-194.97C234.81,-167.41 215.46,-114.37 240.5,-80 283.63,-20.78 523.14,-16.66 607.83,-17.09"/>
<polygon fill="#9a32cd" stroke="#9a32cd" points="244.96,-196.83 252.57,-204.2 251.22,-193.69 244.96,-196.83"/>
<text text-anchor="middle" x="275" y="-99.5" font-family="Helvetica,sans-Serif" font-size="10.00"> device_name</text>
<text text-anchor="middle" x="275" y="-88.5" font-family="Helvetica,sans-Serif" font-size="10.00">name</text>
</g>
<!-- Node8&#45;&gt;Node5 -->
<g id="edge12" class="edge">
<title>Node8&#45;&gt;Node5</title>
<path fill="none" stroke="#9a32cd" stroke-dasharray="5,2" d="M286.82,-208.76C299.6,-207.05 314.76,-205.2 328.5,-204 370.05,-200.37 665.76,-203.79 703.5,-186 733.38,-171.91 724.84,-147.44 753.5,-131 786.99,-111.78 801.18,-122.95 838.5,-113 846.11,-110.97 854.3,-108.45 861.73,-106.04"/>
<polygon fill="#9a32cd" stroke="#9a32cd" points="286.17,-205.32 276.74,-210.15 287.12,-212.25 286.17,-205.32"/>
<text text-anchor="middle" x="771" y="-161.5" font-family="Helvetica,sans-Serif" font-size="10.00"> mount</text>
<text text-anchor="middle" x="771" y="-150.5" font-family="Helvetica,sans-Serif" font-size="10.00">name</text>
</g>
<!-- Node9 -->
<g id="node9" class="node">
<title>Node9</title>
<g id="a_node9"><a xlink:title=" ">
<polygon fill="none" stroke="#bfbfbf" points="747.5,-204.5 747.5,-223.5 803.5,-223.5 803.5,-204.5 747.5,-204.5"/>
<text text-anchor="middle" x="775.5" y="-211.5" font-family="Helvetica,sans-Serif" font-size="10.00">uint32_t</text>
</a>
</g>
</g>
<!-- Node9&#45;&gt;Node2 -->
<g id="edge20" class="edge">
<title>Node9&#45;&gt;Node2</title>
<path fill="none" stroke="#9a32cd" stroke-dasharray="5,2" d="M737.23,-207.68C715.89,-203.69 689.31,-196.97 667.5,-186 633.08,-168.68 634.81,-148.51 600.5,-131 577.17,-119.1 549.23,-111.16 525.42,-106"/>
<polygon fill="#9a32cd" stroke="#9a32cd" points="736.78,-211.16 747.23,-209.43 737.98,-204.26 736.78,-211.16"/>
<text text-anchor="middle" x="685.5" y="-161.5" font-family="Helvetica,sans-Serif" font-size="10.00"> device</text>
<text text-anchor="middle" x="685.5" y="-150.5" font-family="Helvetica,sans-Serif" font-size="10.00">flags</text>
</g>
<!-- Node9&#45;&gt;Node4 -->
<g id="edge15" class="edge">
<title>Node9&#45;&gt;Node4</title>
<path fill="none" stroke="#9a32cd" stroke-dasharray="5,2" d="M776.04,-194.32C775.74,-176.79 773.09,-150.43 761.5,-131 754.84,-119.85 748.33,-121.47 738.5,-113 703.01,-82.46 663.31,-43.36 646.15,-26.22"/>
<polygon fill="#9a32cd" stroke="#9a32cd" points="772.54,-194.38 775.98,-204.41 779.54,-194.43 772.54,-194.38"/>
<text text-anchor="middle" x="756.5" y="-99.5" font-family="Helvetica,sans-Serif" font-size="10.00"> device</text>
<text text-anchor="middle" x="756.5" y="-88.5" font-family="Helvetica,sans-Serif" font-size="10.00">lbapos</text>
</g>
<!-- Node9&#45;&gt;Node5 -->
<g id="edge13" class="edge">
<title>Node9&#45;&gt;Node5</title>
<path fill="none" stroke="#9a32cd" stroke-dasharray="5,2" d="M786.42,-195.8C798.03,-178.3 817.57,-150.98 838.5,-131 848.64,-121.31 861.79,-112.34 871.77,-106.12"/>
<polygon fill="#9a32cd" stroke="#9a32cd" points="783.34,-194.11 780.82,-204.41 789.21,-197.93 783.34,-194.11"/>
<text text-anchor="middle" x="858.5" y="-161.5" font-family="Helvetica,sans-Serif" font-size="10.00"> readfile</text>
<text text-anchor="middle" x="858.5" y="-150.5" font-family="Helvetica,sans-Serif" font-size="10.00">writefile</text>
</g>
<!-- Node10 -->
<g id="node10" class="node">
<title>Node10</title>
<g id="a_node10"><a xlink:title=" ">
<polygon fill="none" stroke="#bfbfbf" points="565.5,-204.5 565.5,-223.5 615.5,-223.5 615.5,-204.5 565.5,-204.5"/>
<text text-anchor="middle" x="590.5" y="-211.5" font-family="Helvetica,sans-Serif" font-size="10.00">uint8_t</text>
</a>
</g>
</g>
<!-- Node10&#45;&gt;Node2 -->
<g id="edge21" class="edge">
<title>Node10&#45;&gt;Node2</title>
<path fill="none" stroke="#9a32cd" stroke-dasharray="5,2" d="M575.51,-196.16C560.18,-179.2 535.43,-152.53 512.5,-131 503.12,-122.2 491.84,-112.85 483.65,-106.28"/>
<polygon fill="#9a32cd" stroke="#9a32cd" points="573.32,-198.96 582.61,-204.07 578.53,-194.29 573.32,-198.96"/>
<text text-anchor="middle" x="580.5" y="-178" font-family="Helvetica,sans-Serif" font-size="10.00"> day</text>
<text text-anchor="middle" x="580.5" y="-167" font-family="Helvetica,sans-Serif" font-size="10.00">hour</text>
<text text-anchor="middle" x="580.5" y="-156" font-family="Helvetica,sans-Serif" font-size="10.00">min</text>
<text text-anchor="middle" x="580.5" y="-145" font-family="Helvetica,sans-Serif" font-size="10.00">month</text>
<text text-anchor="middle" x="580.5" y="-134" font-family="Helvetica,sans-Serif" font-size="10.00">sec</text>
</g>
<!-- Node10&#45;&gt;Node4 -->
<g id="edge16" class="edge">
<title>Node10&#45;&gt;Node4</title>
<path fill="none" stroke="#9a32cd" stroke-dasharray="5,2" d="M610.49,-197.48C613.92,-194.03 617.13,-190.15 619.5,-186 650.26,-132.08 642.54,-52.58 638.87,-26.29"/>
<polygon fill="#9a32cd" stroke="#9a32cd" points="607.99,-195.02 602.89,-204.31 612.67,-200.23 607.99,-195.02"/>
<text text-anchor="middle" x="654.5" y="-94" font-family="Helvetica,sans-Serif" font-size="10.00"> dirty</text>
</g>
<!-- Node11 -->
<g id="node11" class="node">
<title>Node11</title>
<g id="a_node11"><a xlink:title=" ">
<polygon fill="none" stroke="#bfbfbf" points="783.5,-87 783.5,-106 829.5,-106 829.5,-87 783.5,-87"/>
<text text-anchor="middle" x="806.5" y="-94" font-family="Helvetica,sans-Serif" font-size="10.00">void *</text>
</a>
</g>
</g>
<!-- Node11&#45;&gt;Node4 -->
<g id="edge17" class="edge">
<title>Node11&#45;&gt;Node4</title>
<path fill="none" stroke="#9a32cd" stroke-dasharray="5,2" d="M788.48,-80.5C776.37,-71 759.71,-59.05 743.5,-51 718.94,-38.82 689.02,-29.84 667.23,-24.27"/>
<polygon fill="#9a32cd" stroke="#9a32cd" points="786.44,-83.35 796.42,-86.88 790.82,-77.89 786.44,-83.35"/>
<text text-anchor="middle" x="781.5" y="-54" font-family="Helvetica,sans-Serif" font-size="10.00"> opaque</text>
</g>
<!-- Node12 -->
<g id="node12" class="node">
<title>Node12</title>
<g id="a_node12"><a xlink:title=" ">
<polygon fill="none" stroke="#bfbfbf" points="337.5,-204.5 337.5,-223.5 393.5,-223.5 393.5,-204.5 337.5,-204.5"/>
<text text-anchor="middle" x="365.5" y="-211.5" font-family="Helvetica,sans-Serif" font-size="10.00">uint16_t</text>
</a>
</g>
</g>
<!-- Node12&#45;&gt;Node2 -->
<g id="edge18" class="edge">
<title>Node12&#45;&gt;Node2</title>
<path fill="none" stroke="#9a32cd" stroke-dasharray="5,2" d="M380.48,-196.82C403.42,-172.06 446.46,-125.61 464.36,-106.28"/>
<polygon fill="#9a32cd" stroke="#9a32cd" points="377.77,-194.6 373.54,-204.32 382.9,-199.36 377.77,-194.6"/>
<text text-anchor="middle" x="453" y="-156" font-family="Helvetica,sans-Serif" font-size="10.00"> year</text>
</g>
<!-- Node13 -->
<g id="node13" class="node">
<title>Node13</title>
<g id="a_node13"><a xlink:title=" ">
<polygon fill="none" stroke="#bfbfbf" points="166.5,-87 166.5,-106 204.5,-106 204.5,-87 166.5,-87"/>
<text text-anchor="middle" x="185.5" y="-94" font-family="Helvetica,sans-Serif" font-size="10.00">bool</text>
</a>
</g>
</g>
<!-- Node13&#45;&gt;Node1 -->
<g id="edge24" class="edge">
<title>Node13&#45;&gt;Node1</title>
<path fill="none" stroke="#9a32cd" stroke-dasharray="5,2" d="M185.5,-76.57C185.5,-60.64 185.5,-38.58 185.5,-26.42"/>
<polygon fill="#9a32cd" stroke="#9a32cd" points="182,-76.85 185.5,-86.85 189,-76.85 182,-76.85"/>
<text text-anchor="middle" x="204.5" y="-54" font-family="Helvetica,sans-Serif" font-size="10.00"> cached</text>
</g>
<!-- Node14 -->
<g id="node14" class="node">
<title>Node14</title>
<g id="a_node14"><a xlink:title=" ">
<polygon fill="none" stroke="#bfbfbf" points="48.5,-87 48.5,-106 148.5,-106 148.5,-87 48.5,-87"/>
<text text-anchor="middle" x="98.5" y="-94" font-family="Helvetica,sans-Serif" font-size="10.00">fs_handle_type_t</text>
</a>
</g>
</g>
<!-- Node14&#45;&gt;Node1 -->
<g id="edge25" class="edge">
<title>Node14&#45;&gt;Node1</title>
<path fill="none" stroke="#9a32cd" stroke-dasharray="5,2" d="M115.64,-80.13C133.64,-63.99 161.28,-39.21 175.81,-26.18"/>
<polygon fill="#9a32cd" stroke="#9a32cd" points="113.25,-77.57 108.14,-86.85 117.92,-82.79 113.25,-77.57"/>
<text text-anchor="middle" x="159" y="-54" font-family="Helvetica,sans-Serif" font-size="10.00"> type</text>
</g>
</g>
</svg>
