<?xml version="1.0" encoding="UTF-8" standalone="no"?>
<!DOCTYPE svg PUBLIC "-//W3C//DTD SVG 1.1//EN"
 "http://www.w3.org/Graphics/SVG/1.1/DTD/svg11.dtd">
<!-- Generated by graphviz version 2.43.0 (0)
 -->
<!-- Title: tz_header Pages: 1 -->
<svg width="138pt" height="150pt"
 viewBox="0.00 0.00 138.00 150.00" xmlns="http://www.w3.org/2000/svg" xmlns:xlink="http://www.w3.org/1999/xlink">
<g id="graph0" class="graph" transform="scale(1 1) rotate(0) translate(4 146)">
<title>tz_header</title>
<!-- Node1 -->
<g id="node1" class="node">
<title>Node1</title>
<g id="a_node1"><a xlink:title="On&#45;disk header structure for an IANA tzdb file.">
<polygon fill="#bfbfbf" stroke="black" points="19.5,-0.5 19.5,-19.5 84.5,-19.5 84.5,-0.5 19.5,-0.5"/>
<text text-anchor="middle" x="52" y="-7.5" font-family="Helvetica,sans-Serif" font-size="10.00">tz_header</text>
</a>
</g>
</g>
<!-- Node2 -->
<g id="node2" class="node">
<title>Node2</title>
<g id="a_node2"><a xlink:title=" ">
<polygon fill="none" stroke="#bfbfbf" points="0,-122.5 0,-141.5 38,-141.5 38,-122.5 0,-122.5"/>
<text text-anchor="middle" x="19" y="-129.5" font-family="Helvetica,sans-Serif" font-size="10.00">char</text>
</a>
</g>
</g>
<!-- Node2&#45;&gt;Node1 -->
<g id="edge1" class="edge">
<title>Node2&#45;&gt;Node1</title>
<path fill="none" stroke="#9a32cd" stroke-dasharray="5,2" d="M14.81,-112.22C11.42,-92.68 8.84,-61.69 20,-38 23.59,-30.37 30.5,-24.11 36.98,-19.55"/>
<polygon fill="#9a32cd" stroke="#9a32cd" points="11.42,-113.14 16.8,-122.26 18.29,-111.77 11.42,-113.14"/>
<text text-anchor="middle" x="41.5" y="-79.5" font-family="Helvetica,sans-Serif" font-size="10.00"> magic</text>
<text text-anchor="middle" x="41.5" y="-68.5" font-family="Helvetica,sans-Serif" font-size="10.00">reserved</text>
<text text-anchor="middle" x="41.5" y="-57.5" font-family="Helvetica,sans-Serif" font-size="10.00">version</text>
</g>
<!-- Node3 -->
<g id="node3" class="node">
<title>Node3</title>
<g id="a_node3"><a xlink:title=" ">
<polygon fill="none" stroke="#bfbfbf" points="57,-122.5 57,-141.5 113,-141.5 113,-122.5 57,-122.5"/>
<text text-anchor="middle" x="85" y="-129.5" font-family="Helvetica,sans-Serif" font-size="10.00">uint32_t</text>
</a>
</g>
</g>
<!-- Node3&#45;&gt;Node1 -->
<g id="edge2" class="edge">
<title>Node3&#45;&gt;Node1</title>
<path fill="none" stroke="#9a32cd" stroke-dasharray="5,2" d="M81.49,-112.45C77.71,-93.51 71.12,-63.38 63,-38 61.03,-31.83 58.28,-25.08 56.02,-19.87"/>
<polygon fill="#9a32cd" stroke="#9a32cd" points="78.09,-113.27 83.43,-122.42 84.96,-111.93 78.09,-113.27"/>
<text text-anchor="middle" x="104.5" y="-96" font-family="Helvetica,sans-Serif" font-size="10.00"> charcnt</text>
<text text-anchor="middle" x="104.5" y="-85" font-family="Helvetica,sans-Serif" font-size="10.00">leapcnt</text>
<text text-anchor="middle" x="104.5" y="-74" font-family="Helvetica,sans-Serif" font-size="10.00">timecnt</text>
<text text-anchor="middle" x="104.5" y="-63" font-family="Helvetica,sans-Serif" font-size="10.00">ttisgmtcnt</text>
<text text-anchor="middle" x="104.5" y="-52" font-family="Helvetica,sans-Serif" font-size="10.00">ttisstdcnt</text>
<text text-anchor="middle" x="104.5" y="-41" font-family="Helvetica,sans-Serif" font-size="10.00">typecnt</text>
</g>
</g>
</svg>
