<?xml version="1.0" encoding="UTF-8" standalone="no"?>
<!DOCTYPE svg PUBLIC "-//W3C//DTD SVG 1.1//EN"
 "http://www.w3.org/Graphics/SVG/1.1/DTD/svg11.dtd">
<!-- Generated by graphviz version 2.43.0 (0)
 -->
<!-- Title: flanterm_context Pages: 1 -->
<!--zoomable 1055 -->
<svg id="main" version="1.1" xmlns="http://www.w3.org/2000/svg" xmlns:xlink="http://www.w3.org/1999/xlink" xml:space="preserve" onload="init(evt)">
<style type="text/css"><![CDATA[
.edge:hover path { stroke: red; }
.edge:hover polygon { stroke: red; fill: red; }
]]></style>
<script type="text/javascript"><![CDATA[
var edges = document.getElementsByTagName('g');
if (edges && edges.length) {
  for (var i=0;i<edges.length;i++) {
    if (edges[i].id.substr(0,4)=='edge') {
      edges[i].setAttribute('class','edge');
    }
  }
}
]]></script>
        <defs>
                <circle id="rim" cx="0" cy="0" r="7"/>
                <circle id="rim2" cx="0" cy="0" r="3.5"/>
                <g id="zoomPlus">
                        <use xlink:href="#rim" fill="#404040">
                                <set attributeName="fill" to="#808080" begin="zoomplus.mouseover" end="zoomplus.mouseout"/>
                        </use>
                        <path d="M-4,0h8M0,-4v8" fill="none" stroke="white" stroke-width="1.5" pointer-events="none"/>
                </g>
                <g id="zoomMin">
                        <use xlink:href="#rim" fill="#404040">
                                <set attributeName="fill" to="#808080" begin="zoomminus.mouseover" end="zoomminus.mouseout"/>
                        </use>
                        <path d="M-4,0h8" fill="none" stroke="white" stroke-width="1.5" pointer-events="none"/>
                </g>
                <g id="dirArrow">
                        <path fill="none" stroke="white" stroke-width="1.5" d="M0,-3.0v7 M-2.5,-0.5L0,-3.0L2.5,-0.5"/>
                </g>
               <g id="resetDef">
                       <use xlink:href="#rim2" fill="#404040">
                               <set attributeName="fill" to="#808080" begin="reset.mouseover" end="reset.mouseout"/>
                       </use>
               </g>
        </defs>

<script type="text/javascript">
var viewWidth = 399;
var viewHeight = 1055;
var sectionId = 'dynsection-0';
</script>
<script xlink:href="svgpan.js"/>
<svg id="graph" class="graph">
<g id="viewport">
<title>flanterm_context</title>
<!-- Node1 -->
<g id="node1" class="node">
<title>Node1</title>
<g id="a_node1"><a xlink:title=" ">
<polygon fill="#bfbfbf" stroke="black" points="291,-549.68 291,-568.68 391,-568.68 391,-549.68 291,-549.68"/>
<text text-anchor="middle" x="341" y="-556.68" font-family="Helvetica,sans-Serif" font-size="10.00">flanterm_context</text>
</a>
</g>
</g>
<!-- Node2 -->
<g id="node2" class="node">
<title>Node2</title>
<g id="a_node2"><a xlink:title=" ">
<polygon fill="none" stroke="#bfbfbf" points="14.5,-1005.68 14.5,-1046.68 140.5,-1046.68 140.5,-1005.68 14.5,-1005.68"/>
<text text-anchor="start" x="22.5" y="-1034.68" font-family="Helvetica,sans-Serif" font-size="10.00">void(*)(struct flanterm</text>
<text text-anchor="start" x="22.5" y="-1023.68" font-family="Helvetica,sans-Serif" font-size="10.00">_context *, size_t *x,</text>
<text text-anchor="middle" x="77.5" y="-1012.68" font-family="Helvetica,sans-Serif" font-size="10.00"> size_t *y)</text>
</a>
</g>
</g>
<!-- Node2&#45;&gt;Node1 -->
<g id="edge1" class="edge">
<title>Node2&#45;&gt;Node1</title>
<path fill="none" stroke="#9a32cd" stroke-dasharray="5,2" d="M150.66,-1036.46C191.85,-1038.06 241.4,-1032.07 273,-1001.18 337.24,-938.37 340.09,-627.71 340.04,-568.82"/>
<polygon fill="#9a32cd" stroke="#9a32cd" points="150.84,-1032.97 140.66,-1035.92 150.46,-1039.96 150.84,-1032.97"/>
<text text-anchor="middle" x="223" y="-1039.18" font-family="Helvetica,sans-Serif" font-size="10.00"> get_cursor_pos</text>
</g>
<!-- Node3 -->
<g id="node3" class="node">
<title>Node3</title>
<g id="a_node3"><a xlink:title=" ">
<polygon fill="none" stroke="#bfbfbf" points="14.5,-956.18 14.5,-986.18 140.5,-986.18 140.5,-956.18 14.5,-956.18"/>
<text text-anchor="start" x="22.5" y="-974.18" font-family="Helvetica,sans-Serif" font-size="10.00">void(*)(struct flanterm</text>
<text text-anchor="middle" x="77.5" y="-963.18" font-family="Helvetica,sans-Serif" font-size="10.00">_context *, size_t fg)</text>
</a>
</g>
</g>
<!-- Node3&#45;&gt;Node1 -->
<g id="edge2" class="edge">
<title>Node3&#45;&gt;Node1</title>
<path fill="none" stroke="#9a32cd" stroke-dasharray="5,2" d="M150.74,-977.44C191.94,-976.9 241.5,-968.6 273,-937.18 327.14,-883.16 338.06,-622.2 339.74,-568.75"/>
<polygon fill="#9a32cd" stroke="#9a32cd" points="150.73,-973.94 140.73,-977.43 150.72,-980.94 150.73,-973.94"/>
<text text-anchor="middle" x="223" y="-989.18" font-family="Helvetica,sans-Serif" font-size="10.00"> set_text_fg</text>
<text text-anchor="middle" x="223" y="-978.18" font-family="Helvetica,sans-Serif" font-size="10.00">set_text_fg_bright</text>
</g>
<!-- Node4 -->
<g id="node4" class="node">
<title>Node4</title>
<g id="a_node4"><a xlink:title=" ">
<polygon fill="none" stroke="#bfbfbf" points="14.5,-895.68 14.5,-936.68 140.5,-936.68 140.5,-895.68 14.5,-895.68"/>
<text text-anchor="start" x="22.5" y="-924.68" font-family="Helvetica,sans-Serif" font-size="10.00">void(*)(struct flanterm</text>
<text text-anchor="start" x="22.5" y="-913.68" font-family="Helvetica,sans-Serif" font-size="10.00">_context *, size_t x,</text>
<text text-anchor="middle" x="77.5" y="-902.68" font-family="Helvetica,sans-Serif" font-size="10.00"> size_t y)</text>
</a>
</g>
</g>
<!-- Node4&#45;&gt;Node1 -->
<g id="edge3" class="edge">
<title>Node4&#45;&gt;Node1</title>
<path fill="none" stroke="#9a32cd" stroke-dasharray="5,2" d="M150.98,-923.79C191.89,-923.95 241.06,-916.58 273,-886.18 320.74,-840.72 336.54,-617.81 339.47,-568.74"/>
<polygon fill="#9a32cd" stroke="#9a32cd" points="150.84,-920.29 140.78,-923.6 150.71,-927.29 150.84,-920.29"/>
<text text-anchor="middle" x="223" y="-925.18" font-family="Helvetica,sans-Serif" font-size="10.00"> set_cursor_pos</text>
</g>
<!-- Node5 -->
<g id="node5" class="node">
<title>Node5</title>
<g id="a_node5"><a xlink:title=" ">
<polygon fill="none" stroke="#bfbfbf" points="13.5,-846.18 13.5,-876.18 141.5,-876.18 141.5,-846.18 13.5,-846.18"/>
<text text-anchor="start" x="21.5" y="-864.18" font-family="Helvetica,sans-Serif" font-size="10.00">void(*)(struct flanterm</text>
<text text-anchor="middle" x="77.5" y="-853.18" font-family="Helvetica,sans-Serif" font-size="10.00">_context *, bool move)</text>
</a>
</g>
</g>
<!-- Node5&#45;&gt;Node1 -->
<g id="edge4" class="edge">
<title>Node5&#45;&gt;Node1</title>
<path fill="none" stroke="#9a32cd" stroke-dasharray="5,2" d="M151.62,-871.8C192.04,-873.47 240.5,-867.92 273,-839.18 315.12,-801.92 334.96,-613.86 339.14,-568.86"/>
<polygon fill="#9a32cd" stroke="#9a32cd" points="151.71,-868.3 141.53,-871.24 151.32,-875.29 151.71,-868.3"/>
<text text-anchor="middle" x="223" y="-874.18" font-family="Helvetica,sans-Serif" font-size="10.00"> clear</text>
</g>
<!-- Node6 -->
<g id="node6" class="node">
<title>Node6</title>
<g id="a_node6"><a xlink:title=" ">
<polygon fill="none" stroke="#bfbfbf" points="49.5,-807.68 49.5,-826.68 105.5,-826.68 105.5,-807.68 49.5,-807.68"/>
<text text-anchor="middle" x="77.5" y="-814.68" font-family="Helvetica,sans-Serif" font-size="10.00">uint64_t</text>
</a>
</g>
</g>
<!-- Node6&#45;&gt;Node1 -->
<g id="edge5" class="edge">
<title>Node6&#45;&gt;Node1</title>
<path fill="none" stroke="#9a32cd" stroke-dasharray="5,2" d="M115.79,-816.7C165.57,-815.29 250.13,-809.96 273,-790.18 341.84,-730.62 342.02,-604.98 340.56,-569"/>
<polygon fill="#9a32cd" stroke="#9a32cd" points="115.65,-813.2 105.73,-816.94 115.82,-820.2 115.65,-813.2"/>
<text text-anchor="middle" x="223" y="-827.18" font-family="Helvetica,sans-Serif" font-size="10.00"> code_point</text>
<text text-anchor="middle" x="223" y="-816.18" font-family="Helvetica,sans-Serif" font-size="10.00">oob_output</text>
</g>
<!-- Node7 -->
<g id="node7" class="node">
<title>Node7</title>
<g id="a_node7"><a xlink:title=" ">
<polygon fill="none" stroke="#bfbfbf" points="12,-758.18 12,-788.18 143,-788.18 143,-758.18 12,-758.18"/>
<text text-anchor="start" x="20" y="-776.18" font-family="Helvetica,sans-Serif" font-size="10.00">void(*)(struct flanterm</text>
<text text-anchor="middle" x="77.5" y="-765.18" font-family="Helvetica,sans-Serif" font-size="10.00">_context *, uint32_t bg)</text>
</a>
</g>
</g>
<!-- Node7&#45;&gt;Node1 -->
<g id="edge6" class="edge">
<title>Node7&#45;&gt;Node1</title>
<path fill="none" stroke="#9a32cd" stroke-dasharray="5,2" d="M153.21,-776.12C199.93,-776.42 254.62,-773.43 273,-759.18 335.5,-710.7 340.23,-601.64 340.18,-568.75"/>
<polygon fill="#9a32cd" stroke="#9a32cd" points="153.11,-772.62 143.07,-776.01 153.03,-779.62 153.11,-772.62"/>
<text text-anchor="middle" x="223" y="-778.18" font-family="Helvetica,sans-Serif" font-size="10.00"> set_text_bg_rgb</text>
</g>
<!-- Node8 -->
<g id="node8" class="node">
<title>Node8</title>
<g id="a_node8"><a xlink:title=" ">
<polygon fill="none" stroke="#bfbfbf" points="0,-697.68 0,-738.68 155,-738.68 155,-697.68 0,-697.68"/>
<text text-anchor="start" x="8" y="-726.68" font-family="Helvetica,sans-Serif" font-size="10.00">void(*)(struct flanterm</text>
<text text-anchor="start" x="8" y="-715.68" font-family="Helvetica,sans-Serif" font-size="10.00">_context *, uint64_t,</text>
<text text-anchor="middle" x="77.5" y="-704.68" font-family="Helvetica,sans-Serif" font-size="10.00"> uint64_t, uint64_t, uint64_t)</text>
</a>
</g>
</g>
<!-- Node8&#45;&gt;Node1 -->
<g id="edge7" class="edge">
<title>Node8&#45;&gt;Node1</title>
<path fill="none" stroke="#9a32cd" stroke-dasharray="5,2" d="M156.14,-740.59C194.34,-746.91 239.3,-746.86 273,-724.18 327.37,-687.57 337.64,-598.44 339.56,-568.88"/>
<polygon fill="#9a32cd" stroke="#9a32cd" points="156.54,-737.1 146.07,-738.75 155.28,-743.99 156.54,-737.1"/>
<text text-anchor="middle" x="223" y="-747.18" font-family="Helvetica,sans-Serif" font-size="10.00"> callback</text>
</g>
<!-- Node9 -->
<g id="node9" class="node">
<title>Node9</title>
<g id="a_node9"><a xlink:title=" ">
<polygon fill="none" stroke="#bfbfbf" points="55,-597.68 55,-616.68 100,-616.68 100,-597.68 55,-597.68"/>
<text text-anchor="middle" x="77.5" y="-604.68" font-family="Helvetica,sans-Serif" font-size="10.00">size_t</text>
</a>
</g>
</g>
<!-- Node9&#45;&gt;Node1 -->
<g id="edge8" class="edge">
<title>Node9&#45;&gt;Node1</title>
<path fill="none" stroke="#9a32cd" stroke-dasharray="5,2" d="M110.42,-601.32C155.45,-593.05 238.04,-577.89 290.91,-568.19"/>
<polygon fill="#9a32cd" stroke="#9a32cd" points="109.55,-597.92 100.35,-603.17 110.81,-604.8 109.55,-597.92"/>
<text text-anchor="middle" x="223" y="-712.18" font-family="Helvetica,sans-Serif" font-size="10.00"> cols</text>
<text text-anchor="middle" x="223" y="-701.18" font-family="Helvetica,sans-Serif" font-size="10.00">current_bg</text>
<text text-anchor="middle" x="223" y="-690.18" font-family="Helvetica,sans-Serif" font-size="10.00">current_charset</text>
<text text-anchor="middle" x="223" y="-679.18" font-family="Helvetica,sans-Serif" font-size="10.00">current_primary</text>
<text text-anchor="middle" x="223" y="-668.18" font-family="Helvetica,sans-Serif" font-size="10.00">esc_values_i</text>
<text text-anchor="middle" x="223" y="-657.18" font-family="Helvetica,sans-Serif" font-size="10.00">escape_offset</text>
<text text-anchor="middle" x="223" y="-646.18" font-family="Helvetica,sans-Serif" font-size="10.00">rows</text>
<text text-anchor="middle" x="223" y="-635.18" font-family="Helvetica,sans-Serif" font-size="10.00">saved_cursor_x</text>
<text text-anchor="middle" x="223" y="-624.18" font-family="Helvetica,sans-Serif" font-size="10.00">saved_cursor_y</text>
<text text-anchor="start" x="173" y="-613.18" font-family="Helvetica,sans-Serif" font-size="10.00">saved_state_current</text>
<text text-anchor="middle" x="223" y="-602.18" font-family="Helvetica,sans-Serif" font-size="10.00">_bg</text>
<text text-anchor="middle" x="223" y="-591.18" font-family="Helvetica,sans-Serif" font-size="10.00">...</text>
</g>
<!-- Node10 -->
<g id="node10" class="node">
<title>Node10</title>
<g id="a_node10"><a xlink:title=" ">
<polygon fill="none" stroke="#bfbfbf" points="49.5,-559.68 49.5,-578.68 105.5,-578.68 105.5,-559.68 49.5,-559.68"/>
<text text-anchor="middle" x="77.5" y="-566.68" font-family="Helvetica,sans-Serif" font-size="10.00">uint32_t</text>
</a>
</g>
</g>
<!-- Node10&#45;&gt;Node1 -->
<g id="edge9" class="edge">
<title>Node10&#45;&gt;Node1</title>
<path fill="none" stroke="#9a32cd" stroke-dasharray="5,2" d="M116.02,-564.83C133.34,-563.02 154.19,-561.13 173,-560.18 212.53,-558.18 257.38,-558.03 290.64,-558.32"/>
<polygon fill="#9a32cd" stroke="#9a32cd" points="115.32,-561.38 105.75,-565.93 116.06,-568.34 115.32,-561.38"/>
<text text-anchor="middle" x="223" y="-563.18" font-family="Helvetica,sans-Serif" font-size="10.00"> esc_values</text>
</g>
<!-- Node11 -->
<g id="node11" class="node">
<title>Node11</title>
<g id="a_node11"><a xlink:title=" ">
<polygon fill="none" stroke="#bfbfbf" points="13,-510.18 13,-540.18 142,-540.18 142,-510.18 13,-510.18"/>
<text text-anchor="start" x="21" y="-528.18" font-family="Helvetica,sans-Serif" font-size="10.00">void(*)(struct flanterm</text>
<text text-anchor="middle" x="77.5" y="-517.18" font-family="Helvetica,sans-Serif" font-size="10.00">_context *, uint32_t fg)</text>
</a>
</g>
</g>
<!-- Node11&#45;&gt;Node1 -->
<g id="edge10" class="edge">
<title>Node11&#45;&gt;Node1</title>
<path fill="none" stroke="#9a32cd" stroke-dasharray="5,2" d="M152.36,-529.53C188.83,-532.31 233.39,-536.65 273,-543.18 283.27,-544.87 294.29,-547.26 304.38,-549.68"/>
<polygon fill="#9a32cd" stroke="#9a32cd" points="152.53,-526.03 142.3,-528.79 152.01,-533.01 152.53,-526.03"/>
<text text-anchor="middle" x="223" y="-546.18" font-family="Helvetica,sans-Serif" font-size="10.00"> set_text_fg_rgb</text>
</g>
<!-- Node12 -->
<g id="node12" class="node">
<title>Node12</title>
<g id="a_node12"><a xlink:title=" ">
<polygon fill="none" stroke="#bfbfbf" points="14.5,-461.18 14.5,-491.18 140.5,-491.18 140.5,-461.18 14.5,-461.18"/>
<text text-anchor="start" x="22.5" y="-479.18" font-family="Helvetica,sans-Serif" font-size="10.00">void(*)(struct flanterm</text>
<text text-anchor="middle" x="77.5" y="-468.18" font-family="Helvetica,sans-Serif" font-size="10.00">_context *, uint8_t c)</text>
</a>
</g>
</g>
<!-- Node12&#45;&gt;Node1 -->
<g id="edge11" class="edge">
<title>Node12&#45;&gt;Node1</title>
<path fill="none" stroke="#9a32cd" stroke-dasharray="5,2" d="M150.96,-484.61C188.37,-490.55 234.18,-500.37 273,-516.18 293.74,-524.62 315.06,-539.6 327.92,-549.46"/>
<polygon fill="#9a32cd" stroke="#9a32cd" points="151.06,-481.08 140.65,-483.03 150,-488 151.06,-481.08"/>
<text text-anchor="middle" x="223" y="-519.18" font-family="Helvetica,sans-Serif" font-size="10.00"> raw_putchar</text>
</g>
<!-- Node13 -->
<g id="node13" class="node">
<title>Node13</title>
<g id="a_node13"><a xlink:title=" ">
<polygon fill="none" stroke="#bfbfbf" points="52.5,-422.68 52.5,-441.68 102.5,-441.68 102.5,-422.68 52.5,-422.68"/>
<text text-anchor="middle" x="77.5" y="-429.68" font-family="Helvetica,sans-Serif" font-size="10.00">uint8_t</text>
</a>
</g>
</g>
<!-- Node13&#45;&gt;Node1 -->
<g id="edge12" class="edge">
<title>Node13&#45;&gt;Node1</title>
<path fill="none" stroke="#9a32cd" stroke-dasharray="5,2" d="M112.8,-429.62C154.01,-428.22 223.73,-431.3 273,-462.18 307.17,-483.58 328.43,-529.48 336.41,-549.5"/>
<polygon fill="#9a32cd" stroke="#9a32cd" points="112.56,-426.13 102.72,-430.07 112.87,-433.12 112.56,-426.13"/>
<text text-anchor="middle" x="223" y="-476.18" font-family="Helvetica,sans-Serif" font-size="10.00"> charsets</text>
<text text-anchor="middle" x="223" y="-465.18" font-family="Helvetica,sans-Serif" font-size="10.00">g_select</text>
</g>
<!-- Node14 -->
<g id="node14" class="node">
<title>Node14</title>
<g id="a_node14"><a xlink:title=" ">
<polygon fill="none" stroke="#bfbfbf" points="58.5,-313.68 58.5,-332.68 96.5,-332.68 96.5,-313.68 58.5,-313.68"/>
<text text-anchor="middle" x="77.5" y="-320.68" font-family="Helvetica,sans-Serif" font-size="10.00">bool</text>
</a>
</g>
</g>
<!-- Node14&#45;&gt;Node1 -->
<g id="edge13" class="edge">
<title>Node14&#45;&gt;Node1</title>
<path fill="none" stroke="#9a32cd" stroke-dasharray="5,2" d="M106.48,-316.23C153.97,-305.16 247.65,-286.67 273,-306.18 313.24,-337.14 334.28,-506.88 338.98,-549.48"/>
<polygon fill="#9a32cd" stroke="#9a32cd" points="105.47,-312.87 96.55,-318.59 107.09,-319.68 105.47,-312.87"/>
<text text-anchor="middle" x="223" y="-419.18" font-family="Helvetica,sans-Serif" font-size="10.00"> autoflush</text>
<text text-anchor="middle" x="223" y="-408.18" font-family="Helvetica,sans-Serif" font-size="10.00">bg_bold</text>
<text text-anchor="middle" x="223" y="-397.18" font-family="Helvetica,sans-Serif" font-size="10.00">bold</text>
<text text-anchor="middle" x="223" y="-386.18" font-family="Helvetica,sans-Serif" font-size="10.00">control_sequence</text>
<text text-anchor="middle" x="223" y="-375.18" font-family="Helvetica,sans-Serif" font-size="10.00">cursor_enabled</text>
<text text-anchor="middle" x="223" y="-364.18" font-family="Helvetica,sans-Serif" font-size="10.00">dec_private</text>
<text text-anchor="middle" x="223" y="-353.18" font-family="Helvetica,sans-Serif" font-size="10.00">discard_next</text>
<text text-anchor="middle" x="223" y="-342.18" font-family="Helvetica,sans-Serif" font-size="10.00">escape</text>
<text text-anchor="middle" x="223" y="-331.18" font-family="Helvetica,sans-Serif" font-size="10.00">insert_mode</text>
<text text-anchor="middle" x="223" y="-320.18" font-family="Helvetica,sans-Serif" font-size="10.00">osc</text>
<text text-anchor="middle" x="223" y="-309.18" font-family="Helvetica,sans-Serif" font-size="10.00">...</text>
</g>
<!-- Node15 -->
<g id="node15" class="node">
<title>Node15</title>
<g id="a_node15"><a xlink:title=" ">
<polygon fill="none" stroke="#bfbfbf" points="14.5,-242.18 14.5,-294.18 140.5,-294.18 140.5,-242.18 14.5,-242.18"/>
<text text-anchor="start" x="22.5" y="-282.18" font-family="Helvetica,sans-Serif" font-size="10.00">void(*)(struct flanterm</text>
<text text-anchor="start" x="22.5" y="-271.18" font-family="Helvetica,sans-Serif" font-size="10.00">_context *, size_t new</text>
<text text-anchor="start" x="22.5" y="-260.18" font-family="Helvetica,sans-Serif" font-size="10.00">_x, size_t new_y, size</text>
<text text-anchor="middle" x="77.5" y="-249.18" font-family="Helvetica,sans-Serif" font-size="10.00">_t old_x, size_t old_y)</text>
</a>
</g>
</g>
<!-- Node15&#45;&gt;Node1 -->
<g id="edge14" class="edge">
<title>Node15&#45;&gt;Node1</title>
<path fill="none" stroke="#9a32cd" stroke-dasharray="5,2" d="M150.82,-254.18C191.2,-250.66 239.89,-254.14 273,-282.18 315.48,-318.15 335.04,-504.86 339.16,-549.56"/>
<polygon fill="#9a32cd" stroke="#9a32cd" points="150.33,-250.71 140.74,-255.22 151.05,-257.68 150.33,-250.71"/>
<text text-anchor="middle" x="223" y="-285.18" font-family="Helvetica,sans-Serif" font-size="10.00"> move_character</text>
</g>
<!-- Node16 -->
<g id="node16" class="node">
<title>Node16</title>
<g id="a_node16"><a xlink:title=" ">
<polygon fill="none" stroke="#bfbfbf" points="12,-181.68 12,-222.68 143,-222.68 143,-181.68 12,-181.68"/>
<text text-anchor="start" x="20" y="-210.68" font-family="Helvetica,sans-Serif" font-size="10.00">void(*)(struct flanterm</text>
<text text-anchor="start" x="20" y="-199.68" font-family="Helvetica,sans-Serif" font-size="10.00">_context *, void(*)(void</text>
<text text-anchor="middle" x="77.5" y="-188.68" font-family="Helvetica,sans-Serif" font-size="10.00"> *, size_t))</text>
</a>
</g>
</g>
<!-- Node16&#45;&gt;Node1 -->
<g id="edge15" class="edge">
<title>Node16&#45;&gt;Node1</title>
<path fill="none" stroke="#9a32cd" stroke-dasharray="5,2" d="M153.13,-211.55C204.19,-218.64 264.18,-228.59 273,-237.18 319.44,-282.38 336.2,-500.6 339.4,-549.46"/>
<polygon fill="#9a32cd" stroke="#9a32cd" points="153.44,-208.06 143.05,-210.17 152.49,-214.99 153.44,-208.06"/>
<text text-anchor="middle" x="223" y="-240.18" font-family="Helvetica,sans-Serif" font-size="10.00"> deinit</text>
</g>
<!-- Node17 -->
<g id="node17" class="node">
<title>Node17</title>
<g id="a_node17"><a xlink:title=" ">
<polygon fill="none" stroke="#bfbfbf" points="14.5,-53.18 14.5,-83.18 140.5,-83.18 140.5,-53.18 14.5,-53.18"/>
<text text-anchor="start" x="22.5" y="-71.18" font-family="Helvetica,sans-Serif" font-size="10.00">void(*)(struct flanterm</text>
<text text-anchor="middle" x="77.5" y="-60.18" font-family="Helvetica,sans-Serif" font-size="10.00">_context *)</text>
</a>
</g>
</g>
<!-- Node17&#45;&gt;Node1 -->
<g id="edge16" class="edge">
<title>Node17&#45;&gt;Node1</title>
<path fill="none" stroke="#9a32cd" stroke-dasharray="5,2" d="M150.63,-58.22C198.28,-53.4 255.13,-51.57 273,-67.18 310.99,-100.34 335.51,-483.95 339.44,-549.63"/>
<polygon fill="#9a32cd" stroke="#9a32cd" points="150.19,-54.75 140.62,-59.29 150.93,-61.71 150.19,-54.75"/>
<text text-anchor="middle" x="223" y="-202.18" font-family="Helvetica,sans-Serif" font-size="10.00"> double_buffer_flush</text>
<text text-anchor="middle" x="223" y="-191.18" font-family="Helvetica,sans-Serif" font-size="10.00">full_refresh</text>
<text text-anchor="middle" x="223" y="-180.18" font-family="Helvetica,sans-Serif" font-size="10.00">restore_state</text>
<text text-anchor="middle" x="223" y="-169.18" font-family="Helvetica,sans-Serif" font-size="10.00">revscroll</text>
<text text-anchor="middle" x="223" y="-158.18" font-family="Helvetica,sans-Serif" font-size="10.00">save_state</text>
<text text-anchor="middle" x="223" y="-147.18" font-family="Helvetica,sans-Serif" font-size="10.00">scroll</text>
<text text-anchor="middle" x="223" y="-136.18" font-family="Helvetica,sans-Serif" font-size="10.00">set_text_bg_default</text>
<text text-anchor="start" x="173.5" y="-125.18" font-family="Helvetica,sans-Serif" font-size="10.00">set_text_bg_default</text>
<text text-anchor="middle" x="223" y="-114.18" font-family="Helvetica,sans-Serif" font-size="10.00">_bright</text>
<text text-anchor="middle" x="223" y="-103.18" font-family="Helvetica,sans-Serif" font-size="10.00">set_text_fg_default</text>
<text text-anchor="start" x="173.5" y="-92.18" font-family="Helvetica,sans-Serif" font-size="10.00">set_text_fg_default</text>
<text text-anchor="middle" x="223" y="-81.18" font-family="Helvetica,sans-Serif" font-size="10.00">_bright</text>
<text text-anchor="middle" x="223" y="-70.18" font-family="Helvetica,sans-Serif" font-size="10.00">...</text>
</g>
<!-- Node18 -->
<g id="node18" class="node">
<title>Node18</title>
<g id="a_node18"><a xlink:title=" ">
<polygon fill="none" stroke="#bfbfbf" points="14.5,-4.18 14.5,-34.18 140.5,-34.18 140.5,-4.18 14.5,-4.18"/>
<text text-anchor="start" x="22.5" y="-22.18" font-family="Helvetica,sans-Serif" font-size="10.00">void(*)(struct flanterm</text>
<text text-anchor="middle" x="77.5" y="-11.18" font-family="Helvetica,sans-Serif" font-size="10.00">_context *, size_t bg)</text>
</a>
</g>
</g>
<!-- Node18&#45;&gt;Node1 -->
<g id="edge17" class="edge">
<title>Node18&#45;&gt;Node1</title>
<path fill="none" stroke="#9a32cd" stroke-dasharray="5,2" d="M147.63,-2.64C189.16,2.91 240.15,1.32 273,-29.18 312.85,-66.17 335.91,-480.1 339.5,-549.37"/>
<polygon fill="#9a32cd" stroke="#9a32cd" points="146.94,0.8 137.57,-4.15 147.98,-6.13 146.94,0.8"/>
<text text-anchor="middle" x="223" y="-43.18" font-family="Helvetica,sans-Serif" font-size="10.00"> set_text_bg</text>
<text text-anchor="middle" x="223" y="-32.18" font-family="Helvetica,sans-Serif" font-size="10.00">set_text_bg_bright</text>
</g>
</g>
</svg>
        <g id="navigator" transform="translate(0 0)" fill="#404254">
                <rect fill="#f2f5e9" fill-opacity="0.5" stroke="#606060" stroke-width=".5" x="0" y="0" width="60" height="60"/>
                <use id="zoomplus" xlink:href="#zoomPlus" x="17" y="9" onmousedown="handleZoom(evt,'in')"/>
                <use id="zoomminus" xlink:href="#zoomMin" x="42" y="9" onmousedown="handleZoom(evt,'out')"/>
                <use id="reset" xlink:href="#resetDef" x="30" y="36" onmousedown="handleReset()"/>
                <g id="arrowUp" xlink:href="#dirArrow" transform="translate(30 24)" onmousedown="handlePan(0,-1)">
                  <use xlink:href="#rim" fill="#404040">
                        <set attributeName="fill" to="#808080" begin="arrowUp.mouseover" end="arrowUp.mouseout"/>
                  </use>
                  <path fill="none" stroke="white" stroke-width="1.5" d="M0,-3.0v7 M-2.5,-0.5L0,-3.0L2.5,-0.5"/>
                </g>
                <g id="arrowRight" xlink:href="#dirArrow" transform="rotate(90) translate(36 -43)" onmousedown="handlePan(1,0)">
                  <use xlink:href="#rim" fill="#404040">
                        <set attributeName="fill" to="#808080" begin="arrowRight.mouseover" end="arrowRight.mouseout"/>
                  </use>
                  <path fill="none" stroke="white" stroke-width="1.5" d="M0,-3.0v7 M-2.5,-0.5L0,-3.0L2.5,-0.5"/>
                </g>
                <g id="arrowDown" xlink:href="#dirArrow" transform="rotate(180) translate(-30 -48)" onmousedown="handlePan(0,1)">
                  <use xlink:href="#rim" fill="#404040">
                        <set attributeName="fill" to="#808080" begin="arrowDown.mouseover" end="arrowDown.mouseout"/>
                  </use>
                  <path fill="none" stroke="white" stroke-width="1.5" d="M0,-3.0v7 M-2.5,-0.5L0,-3.0L2.5,-0.5"/>
                </g>
                <g id="arrowLeft" xlink:href="#dirArrow" transform="rotate(270) translate(-36 17)" onmousedown="handlePan(-1,0)">
                  <use xlink:href="#rim" fill="#404040">
                        <set attributeName="fill" to="#808080" begin="arrowLeft.mouseover" end="arrowLeft.mouseout"/>
                  </use>
                  <path fill="none" stroke="white" stroke-width="1.5" d="M0,-3.0v7 M-2.5,-0.5L0,-3.0L2.5,-0.5"/>
                </g>
        </g>
        <svg viewBox="0 0 15 15" width="100%" height="30px" preserveAspectRatio="xMaxYMin meet">
         <g id="arrow_out" transform="scale(0.3 0.3)">
          <a xlink:href="structflanterm__context__coll__graph_org.svg" target="_base">
           <rect id="button" ry="5" rx="5" y="6" x="6" height="38" width="38"
                fill="#f2f5e9" fill-opacity="0.5" stroke="#606060" stroke-width="1.0"/>
           <path id="arrow"
             d="M 11.500037,31.436501 C 11.940474,20.09759 22.043105,11.32322 32.158766,21.979434 L 37.068811,17.246167 C 37.068811,17.246167 37.088388,32 37.088388,32 L 22.160133,31.978069 C 22.160133,31.978069 26.997745,27.140456 26.997745,27.140456 C 18.528582,18.264221 13.291696,25.230495 11.500037,31.436501 z"
             style="fill:#404040;"/>
          </a>
         </g>
        </svg>
</svg>
