<?xml version="1.0" encoding="UTF-8" standalone="no"?>
<!DOCTYPE svg PUBLIC "-//W3C//DTD SVG 1.1//EN"
 "http://www.w3.org/Graphics/SVG/1.1/DTD/svg11.dtd">
<!-- Generated by graphviz version 2.43.0 (0)
 -->
<!-- Title: directory_entry_t Pages: 1 -->
<svg width="330pt" height="161pt"
 viewBox="0.00 0.00 330.00 161.00" xmlns="http://www.w3.org/2000/svg" xmlns:xlink="http://www.w3.org/1999/xlink">
<g id="graph0" class="graph" transform="scale(1 1) rotate(0) translate(4 157)">
<title>directory_entry_t</title>
<!-- Node1 -->
<g id="node1" class="node">
<title>Node1</title>
<g id="a_node1"><a xlink:title="A directory entry, e.g. file, volume label, directory, long filename entry.">
<polygon fill="#bfbfbf" stroke="black" points="90,-0.5 90,-19.5 190,-19.5 190,-0.5 90,-0.5"/>
<text text-anchor="middle" x="140" y="-7.5" font-family="Helvetica,sans-Serif" font-size="10.00">directory_entry_t</text>
</a>
</g>
</g>
<!-- Node2 -->
<g id="node2" class="node">
<title>Node2</title>
<g id="a_node2"><a xlink:title=" ">
<polygon fill="none" stroke="black" points="0,-133.5 0,-152.5 38,-152.5 38,-133.5 0,-133.5"/>
<text text-anchor="middle" x="19" y="-140.5" font-family="Helvetica,sans-Serif" font-size="10.00">char</text>
</a>
</g>
</g>
<!-- Node2&#45;&gt;Node1 -->
<g id="edge1" class="edge">
<title>Node2&#45;&gt;Node1</title>
<path fill="none" stroke="#9a32cd" stroke-dasharray="5,2" d="M16.44,-123.25C14.41,-100.18 14.8,-61.24 36,-38 49.64,-23.05 70.4,-15.92 89.79,-12.67"/>
<polygon fill="#9a32cd" stroke="#9a32cd" points="12.99,-123.88 17.59,-133.42 19.94,-123.09 12.99,-123.88"/>
<text text-anchor="middle" x="51.5" y="-74" font-family="Helvetica,sans-Serif" font-size="10.00"> name</text>
</g>
<!-- Node3 -->
<g id="node3" class="node">
<title>Node3</title>
<g id="a_node3"><a xlink:title=" ">
<polygon fill="none" stroke="black" points="56,-133.5 56,-152.5 106,-152.5 106,-133.5 56,-133.5"/>
<text text-anchor="middle" x="81" y="-140.5" font-family="Helvetica,sans-Serif" font-size="10.00">uint8_t</text>
</a>
</g>
</g>
<!-- Node3&#45;&gt;Node1 -->
<g id="edge2" class="edge">
<title>Node3&#45;&gt;Node1</title>
<path fill="none" stroke="#9a32cd" stroke-dasharray="5,2" d="M75.66,-123.5C70.4,-101.3 65.35,-63.84 82,-38 87.47,-29.5 96.39,-23.64 105.6,-19.6"/>
<polygon fill="#9a32cd" stroke="#9a32cd" points="72.31,-124.54 78.23,-133.32 79.08,-122.76 72.31,-124.54"/>
<text text-anchor="middle" x="129.5" y="-85" font-family="Helvetica,sans-Serif" font-size="10.00"> attr</text>
<text text-anchor="middle" x="129.5" y="-74" font-family="Helvetica,sans-Serif" font-size="10.00">create_time_tenths</text>
<text text-anchor="middle" x="129.5" y="-63" font-family="Helvetica,sans-Serif" font-size="10.00">nt</text>
</g>
<!-- Node4 -->
<g id="node4" class="node">
<title>Node4</title>
<g id="a_node4"><a xlink:title=" ">
<polygon fill="none" stroke="black" points="171,-133.5 171,-152.5 227,-152.5 227,-133.5 171,-133.5"/>
<text text-anchor="middle" x="199" y="-140.5" font-family="Helvetica,sans-Serif" font-size="10.00">uint16_t</text>
</a>
</g>
</g>
<!-- Node4&#45;&gt;Node1 -->
<g id="edge3" class="edge">
<title>Node4&#45;&gt;Node1</title>
<path fill="none" stroke="#9a32cd" stroke-dasharray="5,2" d="M198.98,-123.38C198.13,-101.32 193.99,-64.25 177,-38 172.07,-30.39 164.2,-24.2 156.98,-19.68"/>
<polygon fill="#9a32cd" stroke="#9a32cd" points="195.48,-123.48 199.18,-133.41 202.48,-123.35 195.48,-123.48"/>
<text text-anchor="middle" x="234" y="-107" font-family="Helvetica,sans-Serif" font-size="10.00"> access_date</text>
<text text-anchor="middle" x="234" y="-96" font-family="Helvetica,sans-Serif" font-size="10.00">create_date</text>
<text text-anchor="middle" x="234" y="-85" font-family="Helvetica,sans-Serif" font-size="10.00">create_time</text>
<text text-anchor="middle" x="234" y="-74" font-family="Helvetica,sans-Serif" font-size="10.00">first_cluster_hi</text>
<text text-anchor="middle" x="234" y="-63" font-family="Helvetica,sans-Serif" font-size="10.00">first_cluster_lo</text>
<text text-anchor="middle" x="234" y="-52" font-family="Helvetica,sans-Serif" font-size="10.00">write_date</text>
<text text-anchor="middle" x="234" y="-41" font-family="Helvetica,sans-Serif" font-size="10.00">write_time</text>
</g>
<!-- Node5 -->
<g id="node5" class="node">
<title>Node5</title>
<g id="a_node5"><a xlink:title=" ">
<polygon fill="none" stroke="black" points="266,-133.5 266,-152.5 322,-152.5 322,-133.5 266,-133.5"/>
<text text-anchor="middle" x="294" y="-140.5" font-family="Helvetica,sans-Serif" font-size="10.00">uint32_t</text>
</a>
</g>
</g>
<!-- Node5&#45;&gt;Node1 -->
<g id="edge4" class="edge">
<title>Node5&#45;&gt;Node1</title>
<path fill="none" stroke="#9a32cd" stroke-dasharray="5,2" d="M295.71,-123.28C296.73,-99.96 294.62,-60.47 272,-38 260.47,-26.54 222.54,-19.57 190.29,-15.58"/>
<polygon fill="#9a32cd" stroke="#9a32cd" points="292.22,-123.07 295.03,-133.28 299.2,-123.54 292.22,-123.07"/>
<text text-anchor="middle" x="306.5" y="-74" font-family="Helvetica,sans-Serif" font-size="10.00"> size</text>
</g>
</g>
</svg>
