<?xml version="1.0" encoding="UTF-8" standalone="no"?>
<!DOCTYPE svg PUBLIC "-//W3C//DTD SVG 1.1//EN"
 "http://www.w3.org/Graphics/SVG/1.1/DTD/svg11.dtd">
<!-- Generated by graphviz version 2.43.0 (0)
 -->
<!-- Title: ip_fragmented_packet_parts_t Pages: 1 -->
<svg width="371pt" height="184pt"
 viewBox="0.00 0.00 370.50 184.00" xmlns="http://www.w3.org/2000/svg" xmlns:xlink="http://www.w3.org/1999/xlink">
<g id="graph0" class="graph" transform="scale(1 1) rotate(0) translate(4 180)">
<title>ip_fragmented_packet_parts_t</title>
<!-- Node1 -->
<g id="node1" class="node">
<title>Node1</title>
<g id="a_node1"><a xlink:title=" ">
<polygon fill="#bfbfbf" stroke="black" points="29.5,-0.5 29.5,-30.5 154.5,-30.5 154.5,-0.5 29.5,-0.5"/>
<text text-anchor="start" x="37.5" y="-18.5" font-family="Helvetica,sans-Serif" font-size="10.00">ip_fragmented_packet</text>
<text text-anchor="middle" x="92" y="-7.5" font-family="Helvetica,sans-Serif" font-size="10.00">_parts_t</text>
</a>
</g>
</g>
<!-- Node2 -->
<g id="node2" class="node">
<title>Node2</title>
<g id="a_node2"><a xlink:title=" ">
<polygon fill="none" stroke="black" points="0,-78.5 0,-97.5 56,-97.5 56,-78.5 0,-78.5"/>
<text text-anchor="middle" x="28" y="-85.5" font-family="Helvetica,sans-Serif" font-size="10.00">uint16_t</text>
</a>
</g>
</g>
<!-- Node2&#45;&gt;Node1 -->
<g id="edge1" class="edge">
<title>Node2&#45;&gt;Node1</title>
<path fill="none" stroke="#9a32cd" stroke-dasharray="5,2" d="M42.76,-70.74C53.78,-58.6 68.7,-42.16 79.22,-30.58"/>
<polygon fill="#9a32cd" stroke="#9a32cd" points="39.98,-68.6 35.85,-78.36 45.16,-73.3 39.98,-68.6"/>
<text text-anchor="middle" x="68.5" y="-52" font-family="Helvetica,sans-Serif" font-size="10.00"> id</text>
</g>
<!-- Node3 -->
<g id="node3" class="node">
<title>Node3</title>
<g id="a_node3"><a xlink:title=" ">
<polygon fill="none" stroke="black" points="68,-156.5 68,-175.5 124,-175.5 124,-156.5 68,-156.5"/>
<text text-anchor="middle" x="96" y="-163.5" font-family="Helvetica,sans-Serif" font-size="10.00">uint32_t</text>
</a>
</g>
</g>
<!-- Node3&#45;&gt;Node1 -->
<g id="edge2" class="edge">
<title>Node3&#45;&gt;Node1</title>
<path fill="none" stroke="#9a32cd" stroke-dasharray="5,2" d="M95.49,-146.13C94.68,-116.07 93.12,-57.96 92.39,-30.95"/>
<polygon fill="#9a32cd" stroke="#9a32cd" points="91.99,-146.25 95.76,-156.16 98.99,-146.06 91.99,-146.25"/>
<text text-anchor="middle" x="106.5" y="-85.5" font-family="Helvetica,sans-Serif" font-size="10.00"> size</text>
</g>
<!-- Node4 -->
<g id="node4" class="node">
<title>Node4</title>
<g id="a_node4"><a xlink:href="structip__packet__frag__t.html" target="_top" xlink:title=" ">
<polygon fill="none" stroke="black" points="133.5,-78.5 133.5,-97.5 230.5,-97.5 230.5,-78.5 133.5,-78.5"/>
<text text-anchor="middle" x="182" y="-85.5" font-family="Helvetica,sans-Serif" font-size="10.00">ip_packet_frag_t</text>
</a>
</g>
</g>
<!-- Node3&#45;&gt;Node4 -->
<g id="edge4" class="edge">
<title>Node3&#45;&gt;Node4</title>
<path fill="none" stroke="#9a32cd" stroke-dasharray="5,2" d="M111.54,-149.22C121.43,-139.39 134.67,-126.63 147,-116 154.44,-109.59 163.19,-102.84 170.08,-97.69"/>
<polygon fill="#9a32cd" stroke="#9a32cd" points="108.98,-146.83 104.4,-156.38 113.93,-151.77 108.98,-146.83"/>
<text text-anchor="middle" x="162.5" y="-124.5" font-family="Helvetica,sans-Serif" font-size="10.00"> offset</text>
</g>
<!-- Node4&#45;&gt;Node1 -->
<g id="edge3" class="edge">
<title>Node4&#45;&gt;Node1</title>
<path fill="none" stroke="#9a32cd" stroke-dasharray="5,2" d="M163.01,-72.13C147.37,-59.87 125.33,-42.61 109.97,-30.58"/>
<polygon fill="#9a32cd" stroke="#9a32cd" points="160.93,-74.94 170.96,-78.36 165.25,-69.43 160.93,-74.94"/>
<text text-anchor="middle" x="176.5" y="-52" font-family="Helvetica,sans-Serif" font-size="10.00"> ordered_list</text>
</g>
<!-- Node5 -->
<g id="node5" class="node">
<title>Node5</title>
<g id="a_node5"><a xlink:title=" ">
<polygon fill="none" stroke="black" points="145,-156.5 145,-175.5 217,-175.5 217,-156.5 145,-156.5"/>
<text text-anchor="middle" x="181" y="-163.5" font-family="Helvetica,sans-Serif" font-size="10.00">ip_packet_t</text>
</a>
</g>
</g>
<!-- Node5&#45;&gt;Node4 -->
<g id="edge5" class="edge">
<title>Node5&#45;&gt;Node4</title>
<path fill="none" stroke="#9a32cd" stroke-dasharray="5,2" d="M181.25,-146.22C181.45,-130.7 181.73,-109.36 181.89,-97.62"/>
<polygon fill="#9a32cd" stroke="#9a32cd" points="177.75,-146.24 181.11,-156.28 184.75,-146.33 177.75,-146.24"/>
<text text-anchor="middle" x="200" y="-124.5" font-family="Helvetica,sans-Serif" font-size="10.00"> packet</text>
</g>
<!-- Node6 -->
<g id="node6" class="node">
<title>Node6</title>
<g id="a_node6"><a xlink:title=" ">
<polygon fill="none" stroke="black" points="235.5,-156.5 235.5,-175.5 362.5,-175.5 362.5,-156.5 235.5,-156.5"/>
<text text-anchor="middle" x="299" y="-163.5" font-family="Helvetica,sans-Serif" font-size="10.00">struct ip_packet_frag *</text>
</a>
</g>
</g>
<!-- Node6&#45;&gt;Node4 -->
<g id="edge6" class="edge">
<title>Node6&#45;&gt;Node4</title>
<path fill="none" stroke="#9a32cd" stroke-dasharray="5,2" d="M277.1,-150.77C253.04,-135.15 215.18,-110.56 195.26,-97.62"/>
<polygon fill="#9a32cd" stroke="#9a32cd" points="275.29,-153.77 285.58,-156.28 279.1,-147.9 275.29,-153.77"/>
<text text-anchor="middle" x="266.5" y="-130" font-family="Helvetica,sans-Serif" font-size="10.00"> next</text>
<text text-anchor="middle" x="266.5" y="-119" font-family="Helvetica,sans-Serif" font-size="10.00">prev</text>
</g>
</g>
</svg>
