<?xml version="1.0" encoding="UTF-8" standalone="no"?>
<!DOCTYPE svg PUBLIC "-//W3C//DTD SVG 1.1//EN"
 "http://www.w3.org/Graphics/SVG/1.1/DTD/svg11.dtd">
<!-- Generated by graphviz version 2.43.0 (0)
 -->
<!-- Title: ub_var_int_array Pages: 1 -->
<svg width="262pt" height="162pt"
 viewBox="0.00 0.00 262.00 162.00" xmlns="http://www.w3.org/2000/svg" xmlns:xlink="http://www.w3.org/1999/xlink">
<g id="graph0" class="graph" transform="scale(1 1) rotate(0) translate(4 158)">
<title>ub_var_int_array</title>
<!-- Node1 -->
<g id="node1" class="node">
<title>Node1</title>
<g id="a_node1"><a xlink:title=" ">
<polygon fill="#bfbfbf" stroke="black" points="54,-0.5 54,-19.5 152,-19.5 152,-0.5 54,-0.5"/>
<text text-anchor="middle" x="103" y="-7.5" font-family="Helvetica,sans-Serif" font-size="10.00">ub_var_int_array</text>
</a>
</g>
</g>
<!-- Node2 -->
<g id="node2" class="node">
<title>Node2</title>
<g id="a_node2"><a xlink:href="structub__var__int.html" target="_top" xlink:title=" ">
<polygon fill="none" stroke="black" points="69,-67.5 69,-86.5 137,-86.5 137,-67.5 69,-67.5"/>
<text text-anchor="middle" x="103" y="-74.5" font-family="Helvetica,sans-Serif" font-size="10.00">ub_var_int</text>
</a>
</g>
</g>
<!-- Node2&#45;&gt;Node1 -->
<g id="edge1" class="edge">
<title>Node2&#45;&gt;Node1</title>
<path fill="none" stroke="#9a32cd" stroke-dasharray="5,2" d="M103,-57.04C103,-44.67 103,-29.12 103,-19.63"/>
<polygon fill="#9a32cd" stroke="#9a32cd" points="99.5,-57.23 103,-67.23 106.5,-57.23 99.5,-57.23"/>
<text text-anchor="middle" x="121" y="-41" font-family="Helvetica,sans-Serif" font-size="10.00"> values</text>
</g>
<!-- Node2&#45;&gt;Node2 -->
<g id="edge2" class="edge">
<title>Node2&#45;&gt;Node2</title>
<path fill="none" stroke="#9a32cd" stroke-dasharray="5,2" d="M147.15,-82.02C151.92,-81.06 155,-79.38 155,-77 155,-73.19 147.13,-71.19 137.01,-71.01"/>
<polygon fill="#9a32cd" stroke="#9a32cd" points="146.63,-78.55 137.01,-82.99 147.3,-85.52 146.63,-78.55"/>
<text text-anchor="middle" x="167.5" y="-74.5" font-family="Helvetica,sans-Serif" font-size="10.00"> next</text>
</g>
<!-- Node3 -->
<g id="node3" class="node">
<title>Node3</title>
<g id="a_node3"><a xlink:title=" ">
<polygon fill="none" stroke="#bfbfbf" points="0,-134.5 0,-153.5 38,-153.5 38,-134.5 0,-134.5"/>
<text text-anchor="middle" x="19" y="-141.5" font-family="Helvetica,sans-Serif" font-size="10.00">char</text>
</a>
</g>
</g>
<!-- Node3&#45;&gt;Node1 -->
<g id="edge7" class="edge">
<title>Node3&#45;&gt;Node1</title>
<path fill="none" stroke="#9a32cd" stroke-dasharray="5,2" d="M12.07,-124.51C7.22,-108.31 3.18,-84.67 13,-67 26.32,-43.03 54.62,-27.99 75.95,-19.61"/>
<polygon fill="#9a32cd" stroke="#9a32cd" points="8.88,-126.01 15.4,-134.37 15.51,-123.77 8.88,-126.01"/>
<text text-anchor="middle" x="36.5" y="-74.5" font-family="Helvetica,sans-Serif" font-size="10.00"> varname</text>
</g>
<!-- Node3&#45;&gt;Node2 -->
<g id="edge3" class="edge">
<title>Node3&#45;&gt;Node2</title>
<path fill="none" stroke="#9a32cd" stroke-dasharray="5,2" d="M31.93,-126.11C37.86,-119.05 45.28,-111.09 53,-105 62.29,-97.67 73.86,-91.28 83.53,-86.56"/>
<polygon fill="#9a32cd" stroke="#9a32cd" points="28.83,-124.38 25.31,-134.37 34.29,-128.76 28.83,-124.38"/>
<text text-anchor="middle" x="76.5" y="-108" font-family="Helvetica,sans-Serif" font-size="10.00"> varname</text>
</g>
<!-- Node4 -->
<g id="node4" class="node">
<title>Node4</title>
<g id="a_node4"><a xlink:title=" ">
<polygon fill="none" stroke="#bfbfbf" points="80,-134.5 80,-153.5 130,-153.5 130,-134.5 80,-134.5"/>
<text text-anchor="middle" x="105" y="-141.5" font-family="Helvetica,sans-Serif" font-size="10.00">int64_t</text>
</a>
</g>
</g>
<!-- Node4&#45;&gt;Node2 -->
<g id="edge4" class="edge">
<title>Node4&#45;&gt;Node2</title>
<path fill="none" stroke="#9a32cd" stroke-dasharray="5,2" d="M104.42,-124.04C104.04,-111.67 103.56,-96.12 103.27,-86.63"/>
<polygon fill="#9a32cd" stroke="#9a32cd" points="100.92,-124.35 104.73,-134.23 107.92,-124.13 100.92,-124.35"/>
<text text-anchor="middle" x="120.5" y="-108" font-family="Helvetica,sans-Serif" font-size="10.00"> value</text>
</g>
<!-- Node5 -->
<g id="node5" class="node">
<title>Node5</title>
<g id="a_node5"><a xlink:title=" ">
<polygon fill="none" stroke="#bfbfbf" points="148,-134.5 148,-153.5 186,-153.5 186,-134.5 148,-134.5"/>
<text text-anchor="middle" x="167" y="-141.5" font-family="Helvetica,sans-Serif" font-size="10.00">bool</text>
</a>
</g>
</g>
<!-- Node5&#45;&gt;Node2 -->
<g id="edge5" class="edge">
<title>Node5&#45;&gt;Node2</title>
<path fill="none" stroke="#9a32cd" stroke-dasharray="5,2" d="M156.42,-125.68C151.83,-118.85 146.1,-111.18 140,-105 133.07,-97.98 124.17,-91.43 116.84,-86.54"/>
<polygon fill="#9a32cd" stroke="#9a32cd" points="153.58,-127.72 161.92,-134.25 159.47,-123.94 153.58,-127.72"/>
<text text-anchor="middle" x="166" y="-108" font-family="Helvetica,sans-Serif" font-size="10.00"> global</text>
</g>
<!-- Node6 -->
<g id="node6" class="node">
<title>Node6</title>
<g id="a_node6"><a xlink:title=" ">
<polygon fill="none" stroke="#bfbfbf" points="198,-67.5 198,-86.5 254,-86.5 254,-67.5 198,-67.5"/>
<text text-anchor="middle" x="226" y="-74.5" font-family="Helvetica,sans-Serif" font-size="10.00">uint64_t</text>
</a>
</g>
</g>
<!-- Node6&#45;&gt;Node1 -->
<g id="edge6" class="edge">
<title>Node6&#45;&gt;Node1</title>
<path fill="none" stroke="#9a32cd" stroke-dasharray="5,2" d="M200.65,-62.6C176.29,-49.73 140.2,-30.66 119.4,-19.67"/>
<polygon fill="#9a32cd" stroke="#9a32cd" points="199.19,-65.79 209.67,-67.37 202.46,-59.6 199.19,-65.79"/>
<text text-anchor="middle" x="197.5" y="-41" font-family="Helvetica,sans-Serif" font-size="10.00"> itemcount</text>
</g>
</g>
</svg>
