<?xml version="1.0" encoding="UTF-8" standalone="no"?>
<!DOCTYPE svg PUBLIC "-//W3C//DTD SVG 1.1//EN"
 "http://www.w3.org/Graphics/SVG/1.1/DTD/svg11.dtd">
<!-- Generated by graphviz version 2.43.0 (0)
 -->
<!-- Title: ta_header Pages: 1 -->
<svg width="136pt" height="95pt"
 viewBox="0.00 0.00 136.00 95.00" xmlns="http://www.w3.org/2000/svg" xmlns:xlink="http://www.w3.org/1999/xlink">
<g id="graph0" class="graph" transform="scale(1 1) rotate(0) translate(4 91)">
<title>ta_header</title>
<!-- Node1 -->
<g id="node1" class="node">
<title>Node1</title>
<g id="a_node1"><a xlink:title=" ">
<polygon fill="#bfbfbf" stroke="black" points="20,-0.5 20,-19.5 85,-19.5 85,-0.5 20,-0.5"/>
<text text-anchor="middle" x="52.5" y="-7.5" font-family="Helvetica,sans-Serif" font-size="10.00">ta_header</text>
</a>
</g>
</g>
<!-- Node1&#45;&gt;Node1 -->
<g id="edge2" class="edge">
<title>Node1&#45;&gt;Node1</title>
<path fill="none" stroke="#9a32cd" stroke-dasharray="5,2" d="M95.14,-15.07C99.91,-14.11 103,-12.42 103,-10 103,-6.12 95.1,-4.13 85.04,-4.01"/>
<polygon fill="#9a32cd" stroke="#9a32cd" points="94.68,-11.59 85.04,-15.99 95.32,-18.56 94.68,-11.59"/>
<text text-anchor="middle" x="115.5" y="-7.5" font-family="Helvetica,sans-Serif" font-size="10.00"> next</text>
</g>
<!-- Node2 -->
<g id="node2" class="node">
<title>Node2</title>
<g id="a_node2"><a xlink:title=" ">
<polygon fill="none" stroke="#bfbfbf" points="0,-67.5 0,-86.5 45,-86.5 45,-67.5 0,-67.5"/>
<text text-anchor="middle" x="22.5" y="-74.5" font-family="Helvetica,sans-Serif" font-size="10.00">size_t</text>
</a>
</g>
</g>
<!-- Node2&#45;&gt;Node1 -->
<g id="edge1" class="edge">
<title>Node2&#45;&gt;Node1</title>
<path fill="none" stroke="#9a32cd" stroke-dasharray="5,2" d="M29.15,-57.75C31.6,-51.42 34.51,-44.33 37.5,-38 40.43,-31.79 44.18,-25.04 47.2,-19.85"/>
<polygon fill="#9a32cd" stroke="#9a32cd" points="25.76,-56.82 25.52,-67.41 32.31,-59.28 25.76,-56.82"/>
<text text-anchor="middle" x="49" y="-41" font-family="Helvetica,sans-Serif" font-size="10.00"> size</text>
</g>
<!-- Node3 -->
<g id="node3" class="node">
<title>Node3</title>
<g id="a_node3"><a xlink:title=" ">
<polygon fill="none" stroke="#bfbfbf" points="63.5,-67.5 63.5,-86.5 101.5,-86.5 101.5,-67.5 63.5,-67.5"/>
<text text-anchor="middle" x="82.5" y="-74.5" font-family="Helvetica,sans-Serif" font-size="10.00">bool</text>
</a>
</g>
</g>
<!-- Node3&#45;&gt;Node1 -->
<g id="edge3" class="edge">
<title>Node3&#45;&gt;Node1</title>
<path fill="none" stroke="#9a32cd" stroke-dasharray="5,2" d="M74.1,-57.79C68.33,-45.31 60.95,-29.31 56.48,-19.63"/>
<polygon fill="#9a32cd" stroke="#9a32cd" points="71.09,-59.62 78.45,-67.23 77.44,-56.69 71.09,-59.62"/>
<text text-anchor="middle" x="80" y="-41" font-family="Helvetica,sans-Serif" font-size="10.00"> free</text>
</g>
</g>
</svg>
