<?xml version="1.0" encoding="UTF-8" standalone="no"?>
<!DOCTYPE svg PUBLIC "-//W3C//DTD SVG 1.1//EN"
 "http://www.w3.org/Graphics/SVG/1.1/DTD/svg11.dtd">
<!-- Generated by graphviz version 2.43.0 (0)
 -->
<!-- Title: fs_directory_entry_t Pages: 1 -->
<svg width="834pt" height="232pt"
 viewBox="0.00 0.00 834.00 232.00" xmlns="http://www.w3.org/2000/svg" xmlns:xlink="http://www.w3.org/1999/xlink">
<g id="graph0" class="graph" transform="scale(1 1) rotate(0) translate(4 228)">
<title>fs_directory_entry_t</title>
<!-- Node1 -->
<g id="node1" class="node">
<title>Node1</title>
<g id="a_node1"><a xlink:title="A VFS directory entry. Files AND directories have these, but internally there is also a tree of fs_tr...">
<polygon fill="#bfbfbf" stroke="black" points="521,-87 521,-106 635,-106 635,-87 521,-87"/>
<text text-anchor="middle" x="578" y="-94" font-family="Helvetica,sans-Serif" font-size="10.00">fs_directory_entry_t</text>
</a>
</g>
</g>
<!-- Node1&#45;&gt;Node1 -->
<g id="edge1" class="edge">
<title>Node1&#45;&gt;Node1</title>
<path fill="none" stroke="#9a32cd" stroke-dasharray="5,2" d="M645.44,-101.96C650.14,-100.71 653,-98.89 653,-96.5 653,-92.67 645.67,-90.31 635.23,-89.41"/>
<polygon fill="#9a32cd" stroke="#9a32cd" points="644.55,-98.56 635.23,-103.59 645.65,-105.47 644.55,-98.56"/>
<text text-anchor="middle" x="665.5" y="-94" font-family="Helvetica,sans-Serif" font-size="10.00"> next</text>
</g>
<!-- Node3 -->
<g id="node3" class="node">
<title>Node3</title>
<g id="a_node3"><a xlink:href="structfs__tree__t.html" target="_top" xlink:title="Used internally by filesystem.c to cache directories to RAM.">
<polygon fill="none" stroke="black" points="501.5,-7 501.5,-26 560.5,-26 560.5,-7 501.5,-7"/>
<text text-anchor="middle" x="531" y="-14" font-family="Helvetica,sans-Serif" font-size="10.00">fs_tree_t</text>
</a>
</g>
</g>
<!-- Node1&#45;&gt;Node3 -->
<g id="edge5" class="edge">
<title>Node1&#45;&gt;Node3</title>
<path fill="none" stroke="#9a32cd" stroke-dasharray="5,2" d="M547.61,-81.87C539.82,-76.81 532.4,-70.24 528,-62 522.02,-50.8 524.93,-35.68 527.8,-26.27"/>
<polygon fill="#9a32cd" stroke="#9a32cd" points="546.02,-84.99 556.44,-86.95 549.52,-78.93 546.02,-84.99"/>
<text text-anchor="middle" x="540" y="-54" font-family="Helvetica,sans-Serif" font-size="10.00"> files</text>
</g>
<!-- Node2 -->
<g id="node2" class="node">
<title>Node2</title>
<g id="a_node2"><a xlink:title=" ">
<polygon fill="none" stroke="#bfbfbf" points="315,-204.5 315,-223.5 371,-223.5 371,-204.5 315,-204.5"/>
<text text-anchor="middle" x="343" y="-211.5" font-family="Helvetica,sans-Serif" font-size="10.00">uint64_t</text>
</a>
</g>
</g>
<!-- Node2&#45;&gt;Node1 -->
<g id="edge2" class="edge">
<title>Node2&#45;&gt;Node1</title>
<path fill="none" stroke="#9a32cd" stroke-dasharray="5,2" d="M355.96,-196.53C371.67,-177.73 399.93,-147.45 431,-131 447.65,-122.18 492.08,-112.68 527.77,-106.06"/>
<polygon fill="#9a32cd" stroke="#9a32cd" points="353.07,-194.53 349.48,-204.5 358.5,-198.95 353.07,-194.53"/>
<text text-anchor="middle" x="449" y="-161.5" font-family="Helvetica,sans-Serif" font-size="10.00"> lbapos</text>
<text text-anchor="middle" x="449" y="-150.5" font-family="Helvetica,sans-Serif" font-size="10.00">size</text>
</g>
<!-- Node2&#45;&gt;Node3 -->
<g id="edge4" class="edge">
<title>Node2&#45;&gt;Node3</title>
<path fill="none" stroke="#9a32cd" stroke-dasharray="5,2" d="M343.58,-194.24C345.42,-166.06 352.82,-112.64 382,-80 413.41,-44.86 467.76,-28.93 501.42,-22.12"/>
<polygon fill="#9a32cd" stroke="#9a32cd" points="340.08,-194.17 343.09,-204.33 347.07,-194.51 340.08,-194.17"/>
<text text-anchor="middle" x="400" y="-105" font-family="Helvetica,sans-Serif" font-size="10.00"> device</text>
<text text-anchor="middle" x="400" y="-94" font-family="Helvetica,sans-Serif" font-size="10.00">lbapos</text>
<text text-anchor="middle" x="400" y="-83" font-family="Helvetica,sans-Serif" font-size="10.00">size</text>
</g>
<!-- Node4 -->
<g id="node4" class="node">
<title>Node4</title>
<g id="a_node4"><a xlink:href="structfilesystem__t.html" target="_top" xlink:title="Defines a filesystem driver.">
<polygon fill="none" stroke="black" points="161.5,-87 161.5,-106 238.5,-106 238.5,-87 161.5,-87"/>
<text text-anchor="middle" x="200" y="-94" font-family="Helvetica,sans-Serif" font-size="10.00">filesystem_t</text>
</a>
</g>
</g>
<!-- Node2&#45;&gt;Node4 -->
<g id="edge8" class="edge">
<title>Node2&#45;&gt;Node4</title>
<path fill="none" stroke="#9a32cd" stroke-dasharray="5,2" d="M304.63,-212.9C280.45,-210.85 250.13,-204.35 230,-186 217.89,-174.96 206.21,-126.24 201.83,-106.18"/>
<polygon fill="#9a32cd" stroke="#9a32cd" points="304.7,-216.41 314.9,-213.54 305.14,-209.43 304.7,-216.41"/>
<text text-anchor="middle" x="254.5" y="-167" font-family="Helvetica,sans-Serif" font-size="10.00"> createdir</text>
<text text-anchor="middle" x="254.5" y="-156" font-family="Helvetica,sans-Serif" font-size="10.00">createfile</text>
<text text-anchor="middle" x="254.5" y="-145" font-family="Helvetica,sans-Serif" font-size="10.00">freespace</text>
</g>
<!-- Node3&#45;&gt;Node1 -->
<g id="edge3" class="edge">
<title>Node3&#45;&gt;Node1</title>
<path fill="none" stroke="#9a32cd" stroke-dasharray="5,2" d="M544.3,-34.08C548.28,-39.35 552.5,-45.29 556,-51 563.3,-62.9 570.17,-77.56 574.23,-86.72"/>
<polygon fill="#9a32cd" stroke="#9a32cd" points="546.93,-31.76 538.03,-26.01 541.41,-36.05 546.93,-31.76"/>
<text text-anchor="middle" x="585.5" y="-54" font-family="Helvetica,sans-Serif" font-size="10.00"> directory</text>
</g>
<!-- Node3&#45;&gt;Node3 -->
<g id="edge6" class="edge">
<title>Node3&#45;&gt;Node3</title>
<path fill="none" stroke="#9a32cd" stroke-dasharray="5,2" d="M570.67,-22.95C575.41,-21.77 578.5,-19.62 578.5,-16.5 578.5,-11.5 570.58,-9 560.69,-9"/>
<polygon fill="#9a32cd" stroke="#9a32cd" points="570.26,-19.47 560.69,-24 571,-26.43 570.26,-19.47"/>
<text text-anchor="middle" x="603.5" y="-25" font-family="Helvetica,sans-Serif" font-size="10.00"> child_dirs</text>
<text text-anchor="middle" x="603.5" y="-14" font-family="Helvetica,sans-Serif" font-size="10.00">next</text>
<text text-anchor="middle" x="603.5" y="-3" font-family="Helvetica,sans-Serif" font-size="10.00">parent</text>
</g>
<!-- Node4&#45;&gt;Node3 -->
<g id="edge7" class="edge">
<title>Node4&#45;&gt;Node3</title>
<path fill="none" stroke="#9a32cd" stroke-dasharray="5,2" d="M210.39,-78.35C217.25,-68.64 227.14,-57.22 239,-51 284.08,-27.37 436.23,-20.23 501.2,-18.22"/>
<polygon fill="#9a32cd" stroke="#9a32cd" points="207.33,-76.64 204.79,-86.92 213.19,-80.47 207.33,-76.64"/>
<text text-anchor="middle" x="286" y="-54" font-family="Helvetica,sans-Serif" font-size="10.00"> responsible_driver</text>
</g>
<!-- Node4&#45;&gt;Node4 -->
<g id="edge10" class="edge">
<title>Node4&#45;&gt;Node4</title>
<path fill="none" stroke="#9a32cd" stroke-dasharray="5,2" d="M248.72,-102.59C253.48,-101.36 256.5,-99.33 256.5,-96.5 256.5,-91.97 248.77,-89.49 238.56,-89.07"/>
<polygon fill="#9a32cd" stroke="#9a32cd" points="248.01,-99.15 238.56,-103.93 248.93,-106.09 248.01,-99.15"/>
<text text-anchor="middle" x="269" y="-94" font-family="Helvetica,sans-Serif" font-size="10.00"> next</text>
</g>
<!-- Node5 -->
<g id="node5" class="node">
<title>Node5</title>
<g id="a_node5"><a xlink:title=" ">
<polygon fill="none" stroke="#bfbfbf" points="56.5,-204.5 56.5,-223.5 151.5,-223.5 151.5,-204.5 56.5,-204.5"/>
<text text-anchor="middle" x="104" y="-211.5" font-family="Helvetica,sans-Serif" font-size="10.00">void *(*)(void *)</text>
</a>
</g>
</g>
<!-- Node5&#45;&gt;Node4 -->
<g id="edge9" class="edge">
<title>Node5&#45;&gt;Node4</title>
<path fill="none" stroke="#9a32cd" stroke-dasharray="5,2" d="M105.97,-194.07C108.76,-175.97 115.39,-148.86 131,-131 141.26,-119.27 156.55,-111.27 170.13,-106.03"/>
<polygon fill="#9a32cd" stroke="#9a32cd" points="102.47,-193.88 104.67,-204.25 109.41,-194.78 102.47,-193.88"/>
<text text-anchor="middle" x="147" y="-156" font-family="Helvetica,sans-Serif" font-size="10.00"> getdir</text>
</g>
<!-- Node6 -->
<g id="node6" class="node">
<title>Node6</title>
<g id="a_node6"><a xlink:title=" ">
<polygon fill="none" stroke="#bfbfbf" points="389,-204.5 389,-223.5 427,-223.5 427,-204.5 389,-204.5"/>
<text text-anchor="middle" x="408" y="-211.5" font-family="Helvetica,sans-Serif" font-size="10.00">char</text>
</a>
</g>
</g>
<!-- Node6&#45;&gt;Node1 -->
<g id="edge18" class="edge">
<title>Node6&#45;&gt;Node1</title>
<path fill="none" stroke="#9a32cd" stroke-dasharray="5,2" d="M436.78,-204.96C448.34,-200.7 461.22,-194.53 471,-186 492.48,-167.25 482.71,-149.96 504,-131 516.85,-119.56 534.26,-111.41 548.96,-106.02"/>
<polygon fill="#9a32cd" stroke="#9a32cd" points="435.43,-201.72 427.07,-208.23 437.66,-208.36 435.43,-201.72"/>
<text text-anchor="middle" x="537" y="-167" font-family="Helvetica,sans-Serif" font-size="10.00"> alt_filename</text>
<text text-anchor="middle" x="537" y="-156" font-family="Helvetica,sans-Serif" font-size="10.00">device_name</text>
<text text-anchor="middle" x="537" y="-145" font-family="Helvetica,sans-Serif" font-size="10.00">filename</text>
</g>
<!-- Node6&#45;&gt;Node3 -->
<g id="edge14" class="edge">
<title>Node6&#45;&gt;Node3</title>
<path fill="none" stroke="#9a32cd" stroke-dasharray="5,2" d="M407.42,-193.94C407.41,-177.05 408.68,-151.89 415,-131 422.48,-106.25 425.8,-99.31 443,-80 464.06,-56.35 495.67,-36.69 514.72,-26.06"/>
<polygon fill="#9a32cd" stroke="#9a32cd" points="403.92,-194.21 407.57,-204.16 410.92,-194.11 403.92,-194.21"/>
<text text-anchor="middle" x="477.5" y="-99.5" font-family="Helvetica,sans-Serif" font-size="10.00"> device_name</text>
<text text-anchor="middle" x="477.5" y="-88.5" font-family="Helvetica,sans-Serif" font-size="10.00">name</text>
</g>
<!-- Node6&#45;&gt;Node4 -->
<g id="edge11" class="edge">
<title>Node6&#45;&gt;Node4</title>
<path fill="none" stroke="#9a32cd" stroke-dasharray="5,2" d="M380.76,-199.77C372.66,-195.6 363.86,-190.81 356,-186 320.14,-164.03 315.69,-151.55 279,-131 261.19,-121.02 239.82,-112.13 223.8,-106.02"/>
<polygon fill="#9a32cd" stroke="#9a32cd" points="379.34,-202.98 389.85,-204.36 382.5,-196.73 379.34,-202.98"/>
<text text-anchor="middle" x="371.5" y="-156" font-family="Helvetica,sans-Serif" font-size="10.00"> name</text>
</g>
<!-- Node7 -->
<g id="node7" class="node">
<title>Node7</title>
<g id="a_node7"><a xlink:title=" ">
<polygon fill="none" stroke="#bfbfbf" points="169.5,-204.5 169.5,-223.5 198.5,-223.5 198.5,-204.5 169.5,-204.5"/>
<text text-anchor="middle" x="184" y="-211.5" font-family="Helvetica,sans-Serif" font-size="10.00">int</text>
</a>
</g>
</g>
<!-- Node7&#45;&gt;Node4 -->
<g id="edge12" class="edge">
<title>Node7&#45;&gt;Node4</title>
<path fill="none" stroke="#9a32cd" stroke-dasharray="5,2" d="M174.79,-195.05C173.64,-192.09 172.64,-189.01 172,-186 166.93,-162.09 163.66,-153.98 172,-131 175.57,-121.17 183.43,-112.2 189.91,-106.02"/>
<polygon fill="#9a32cd" stroke="#9a32cd" points="171.69,-196.67 179.02,-204.32 178.05,-193.77 171.69,-196.67"/>
<text text-anchor="middle" x="189.5" y="-156" font-family="Helvetica,sans-Serif" font-size="10.00"> mount</text>
</g>
<!-- Node8 -->
<g id="node8" class="node">
<title>Node8</title>
<g id="a_node8"><a xlink:title=" ">
<polygon fill="none" stroke="#bfbfbf" points="0,-204.5 0,-223.5 38,-223.5 38,-204.5 0,-204.5"/>
<text text-anchor="middle" x="19" y="-211.5" font-family="Helvetica,sans-Serif" font-size="10.00">bool</text>
</a>
</g>
</g>
<!-- Node8&#45;&gt;Node4 -->
<g id="edge13" class="edge">
<title>Node8&#45;&gt;Node4</title>
<path fill="none" stroke="#9a32cd" stroke-dasharray="5,2" d="M20.47,-194.3C22.98,-175.53 29.74,-147.14 48,-131 64.55,-116.37 121.96,-106.76 161.29,-101.73"/>
<polygon fill="#9a32cd" stroke="#9a32cd" points="16.98,-194 19.42,-204.31 23.95,-194.74 16.98,-194"/>
<text text-anchor="middle" x="76" y="-178" font-family="Helvetica,sans-Serif" font-size="10.00"> readfile</text>
<text text-anchor="middle" x="76" y="-167" font-family="Helvetica,sans-Serif" font-size="10.00">rm</text>
<text text-anchor="middle" x="76" y="-156" font-family="Helvetica,sans-Serif" font-size="10.00">rmdir</text>
<text text-anchor="middle" x="76" y="-145" font-family="Helvetica,sans-Serif" font-size="10.00">truncatefile</text>
<text text-anchor="middle" x="76" y="-134" font-family="Helvetica,sans-Serif" font-size="10.00">writefile</text>
</g>
<!-- Node9 -->
<g id="node9" class="node">
<title>Node9</title>
<g id="a_node9"><a xlink:title=" ">
<polygon fill="none" stroke="#bfbfbf" points="705,-204.5 705,-223.5 755,-223.5 755,-204.5 705,-204.5"/>
<text text-anchor="middle" x="730" y="-211.5" font-family="Helvetica,sans-Serif" font-size="10.00">uint8_t</text>
</a>
</g>
</g>
<!-- Node9&#45;&gt;Node1 -->
<g id="edge20" class="edge">
<title>Node9&#45;&gt;Node1</title>
<path fill="none" stroke="#9a32cd" stroke-dasharray="5,2" d="M704.12,-198.78C698.97,-195.11 693.95,-190.82 690,-186 673.2,-165.51 686.07,-149.39 667,-131 654.4,-118.85 636.98,-111.02 620.89,-106.01"/>
<polygon fill="#9a32cd" stroke="#9a32cd" points="702.43,-201.86 712.72,-204.35 706.23,-195.98 702.43,-201.86"/>
<text text-anchor="middle" x="706" y="-178" font-family="Helvetica,sans-Serif" font-size="10.00"> day</text>
<text text-anchor="middle" x="706" y="-167" font-family="Helvetica,sans-Serif" font-size="10.00">hour</text>
<text text-anchor="middle" x="706" y="-156" font-family="Helvetica,sans-Serif" font-size="10.00">min</text>
<text text-anchor="middle" x="706" y="-145" font-family="Helvetica,sans-Serif" font-size="10.00">month</text>
<text text-anchor="middle" x="706" y="-134" font-family="Helvetica,sans-Serif" font-size="10.00">sec</text>
</g>
<!-- Node9&#45;&gt;Node3 -->
<g id="edge15" class="edge">
<title>Node9&#45;&gt;Node3</title>
<path fill="none" stroke="#9a32cd" stroke-dasharray="5,2" d="M730.8,-193.76C730.88,-176.75 729.48,-151.53 722,-131 712.59,-105.17 708.46,-97.18 687,-80 648.97,-49.54 594.17,-32.23 560.66,-23.87"/>
<polygon fill="#9a32cd" stroke="#9a32cd" points="727.29,-193.99 730.55,-204.06 734.29,-194.15 727.29,-193.99"/>
<text text-anchor="middle" x="727" y="-94" font-family="Helvetica,sans-Serif" font-size="10.00"> dirty</text>
</g>
<!-- Node10 -->
<g id="node10" class="node">
<title>Node10</title>
<g id="a_node10"><a xlink:title=" ">
<polygon fill="none" stroke="#bfbfbf" points="780,-87 780,-106 826,-106 826,-87 780,-87"/>
<text text-anchor="middle" x="803" y="-94" font-family="Helvetica,sans-Serif" font-size="10.00">void *</text>
</a>
</g>
</g>
<!-- Node10&#45;&gt;Node3 -->
<g id="edge16" class="edge">
<title>Node10&#45;&gt;Node3</title>
<path fill="none" stroke="#9a32cd" stroke-dasharray="5,2" d="M788.39,-79.37C778.53,-69.55 764.68,-57.65 750,-51 686.93,-22.45 604.28,-17.48 560.77,-17.05"/>
<polygon fill="#9a32cd" stroke="#9a32cd" points="785.93,-81.86 795.37,-86.66 790.98,-77.02 785.93,-81.86"/>
<text text-anchor="middle" x="787" y="-54" font-family="Helvetica,sans-Serif" font-size="10.00"> opaque</text>
</g>
<!-- Node11 -->
<g id="node11" class="node">
<title>Node11</title>
<g id="a_node11"><a xlink:title=" ">
<polygon fill="none" stroke="#bfbfbf" points="619,-204.5 619,-223.5 675,-223.5 675,-204.5 619,-204.5"/>
<text text-anchor="middle" x="647" y="-211.5" font-family="Helvetica,sans-Serif" font-size="10.00">uint16_t</text>
</a>
</g>
</g>
<!-- Node11&#45;&gt;Node1 -->
<g id="edge17" class="edge">
<title>Node11&#45;&gt;Node1</title>
<path fill="none" stroke="#9a32cd" stroke-dasharray="5,2" d="M642.75,-194.41C638.13,-176.94 629.56,-150.62 616,-131 609.2,-121.16 598.9,-112.32 590.74,-106.2"/>
<polygon fill="#9a32cd" stroke="#9a32cd" points="639.43,-195.58 645.22,-204.45 646.23,-193.9 639.43,-195.58"/>
<text text-anchor="middle" x="652.5" y="-156" font-family="Helvetica,sans-Serif" font-size="10.00"> year</text>
</g>
<!-- Node12 -->
<g id="node12" class="node">
<title>Node12</title>
<g id="a_node12"><a xlink:title=" ">
<polygon fill="none" stroke="#bfbfbf" points="545,-204.5 545,-223.5 601,-223.5 601,-204.5 545,-204.5"/>
<text text-anchor="middle" x="573" y="-211.5" font-family="Helvetica,sans-Serif" font-size="10.00">uint32_t</text>
</a>
</g>
</g>
<!-- Node12&#45;&gt;Node1 -->
<g id="edge19" class="edge">
<title>Node12&#45;&gt;Node1</title>
<path fill="none" stroke="#9a32cd" stroke-dasharray="5,2" d="M573.82,-194.16C574.91,-168.87 576.81,-124.94 577.62,-106.28"/>
<polygon fill="#9a32cd" stroke="#9a32cd" points="570.31,-194.18 573.38,-204.32 577.31,-194.48 570.31,-194.18"/>
<text text-anchor="middle" x="594" y="-161.5" font-family="Helvetica,sans-Serif" font-size="10.00"> device</text>
<text text-anchor="middle" x="594" y="-150.5" font-family="Helvetica,sans-Serif" font-size="10.00">flags</text>
</g>
</g>
</svg>
