<?xml version="1.0" encoding="UTF-8" standalone="no"?>
<!DOCTYPE svg PUBLIC "-//W3C//DTD SVG 1.1//EN"
 "http://www.w3.org/Graphics/SVG/1.1/DTD/svg11.dtd">
<!-- Generated by graphviz version 2.43.0 (0)
 -->
<!-- Title: icmp_redirect_packet Pages: 1 -->
<svg width="334pt" height="106pt"
 viewBox="0.00 0.00 334.00 106.00" xmlns="http://www.w3.org/2000/svg" xmlns:xlink="http://www.w3.org/1999/xlink">
<g id="graph0" class="graph" transform="scale(1 1) rotate(0) translate(4 102)">
<title>icmp_redirect_packet</title>
<!-- Node1 -->
<g id="node1" class="node">
<title>Node1</title>
<g id="a_node1"><a xlink:title=" ">
<polygon fill="#bfbfbf" stroke="black" points="73.5,-0.5 73.5,-19.5 194.5,-19.5 194.5,-0.5 73.5,-0.5"/>
<text text-anchor="middle" x="134" y="-7.5" font-family="Helvetica,sans-Serif" font-size="10.00">icmp_redirect_packet</text>
</a>
</g>
</g>
<!-- Node2 -->
<g id="node2" class="node">
<title>Node2</title>
<g id="a_node2"><a xlink:title=" ">
<polygon fill="none" stroke="black" points="0,-78.5 0,-97.5 50,-97.5 50,-78.5 0,-78.5"/>
<text text-anchor="middle" x="25" y="-85.5" font-family="Helvetica,sans-Serif" font-size="10.00">uint8_t</text>
</a>
</g>
</g>
<!-- Node2&#45;&gt;Node1 -->
<g id="edge1" class="edge">
<title>Node2&#45;&gt;Node1</title>
<path fill="none" stroke="#9a32cd" stroke-dasharray="5,2" d="M34.37,-69.48C40.69,-59.09 49.9,-46.37 61,-38 72.01,-29.71 85.83,-23.73 98.48,-19.55"/>
<polygon fill="#9a32cd" stroke="#9a32cd" points="31.33,-67.75 29.4,-78.16 37.4,-71.22 31.33,-67.75"/>
<text text-anchor="middle" x="74.5" y="-52" font-family="Helvetica,sans-Serif" font-size="10.00"> code</text>
<text text-anchor="middle" x="74.5" y="-41" font-family="Helvetica,sans-Serif" font-size="10.00">type</text>
</g>
<!-- Node3 -->
<g id="node3" class="node">
<title>Node3</title>
<g id="a_node3"><a xlink:title=" ">
<polygon fill="none" stroke="black" points="68,-78.5 68,-97.5 124,-97.5 124,-78.5 68,-78.5"/>
<text text-anchor="middle" x="96" y="-85.5" font-family="Helvetica,sans-Serif" font-size="10.00">uint16_t</text>
</a>
</g>
</g>
<!-- Node3&#45;&gt;Node1 -->
<g id="edge2" class="edge">
<title>Node3&#45;&gt;Node1</title>
<path fill="none" stroke="#9a32cd" stroke-dasharray="5,2" d="M92.6,-68.39C91.75,-58.8 92.2,-47.22 97,-38 101.12,-30.1 108.71,-23.95 115.96,-19.52"/>
<polygon fill="#9a32cd" stroke="#9a32cd" points="89.15,-69.05 94,-78.47 96.09,-68.08 89.15,-69.05"/>
<text text-anchor="middle" x="123.5" y="-46.5" font-family="Helvetica,sans-Serif" font-size="10.00"> checksum</text>
</g>
<!-- Node4 -->
<g id="node4" class="node">
<title>Node4</title>
<g id="a_node4"><a xlink:title=" ">
<polygon fill="none" stroke="black" points="144,-78.5 144,-97.5 200,-97.5 200,-78.5 144,-78.5"/>
<text text-anchor="middle" x="172" y="-85.5" font-family="Helvetica,sans-Serif" font-size="10.00">uint32_t</text>
</a>
</g>
</g>
<!-- Node4&#45;&gt;Node1 -->
<g id="edge3" class="edge">
<title>Node4&#45;&gt;Node1</title>
<path fill="none" stroke="#9a32cd" stroke-dasharray="5,2" d="M164.39,-68.76C160.36,-59.44 155.18,-47.98 150,-38 146.79,-31.81 142.79,-25.06 139.59,-19.86"/>
<polygon fill="#9a32cd" stroke="#9a32cd" points="161.27,-70.35 168.4,-78.18 167.71,-67.61 161.27,-70.35"/>
<text text-anchor="middle" x="183" y="-46.5" font-family="Helvetica,sans-Serif" font-size="10.00"> gateway</text>
</g>
<!-- Node5 -->
<g id="node5" class="node">
<title>Node5</title>
<g id="a_node5"><a xlink:title=" ">
<polygon fill="none" stroke="black" points="218,-78.5 218,-97.5 290,-97.5 290,-78.5 218,-78.5"/>
<text text-anchor="middle" x="254" y="-85.5" font-family="Helvetica,sans-Serif" font-size="10.00">ip_packet_t</text>
</a>
</g>
</g>
<!-- Node5&#45;&gt;Node1 -->
<g id="edge4" class="edge">
<title>Node5&#45;&gt;Node1</title>
<path fill="none" stroke="#9a32cd" stroke-dasharray="5,2" d="M242.04,-69.8C234.02,-59.36 222.64,-46.47 210,-38 197.79,-29.82 182.8,-23.8 169.38,-19.56"/>
<polygon fill="#9a32cd" stroke="#9a32cd" points="239.44,-72.17 248.17,-78.17 245.09,-68.04 239.44,-72.17"/>
<text text-anchor="middle" x="279.5" y="-46.5" font-family="Helvetica,sans-Serif" font-size="10.00"> original_datagram</text>
</g>
</g>
</svg>
