<?xml version="1.0" encoding="UTF-8" standalone="no"?>
<!DOCTYPE svg PUBLIC "-//W3C//DTD SVG 1.1//EN"
 "http://www.w3.org/Graphics/SVG/1.1/DTD/svg11.dtd">
<!-- Generated by graphviz version 2.43.0 (0)
 -->
<!-- Title: ubasic_ctx Pages: 1 -->
<!--zoomable 1122 -->
<svg id="main" version="1.1" xmlns="http://www.w3.org/2000/svg" xmlns:xlink="http://www.w3.org/1999/xlink" xml:space="preserve" onload="init(evt)">
<style type="text/css"><![CDATA[
.edge:hover path { stroke: red; }
.edge:hover polygon { stroke: red; fill: red; }
]]></style>
<script type="text/javascript"><![CDATA[
var edges = document.getElementsByTagName('g');
if (edges && edges.length) {
  for (var i=0;i<edges.length;i++) {
    if (edges[i].id.substr(0,4)=='edge') {
      edges[i].setAttribute('class','edge');
    }
  }
}
]]></script>
        <defs>
                <circle id="rim" cx="0" cy="0" r="7"/>
                <circle id="rim2" cx="0" cy="0" r="3.5"/>
                <g id="zoomPlus">
                        <use xlink:href="#rim" fill="#404040">
                                <set attributeName="fill" to="#808080" begin="zoomplus.mouseover" end="zoomplus.mouseout"/>
                        </use>
                        <path d="M-4,0h8M0,-4v8" fill="none" stroke="white" stroke-width="1.5" pointer-events="none"/>
                </g>
                <g id="zoomMin">
                        <use xlink:href="#rim" fill="#404040">
                                <set attributeName="fill" to="#808080" begin="zoomminus.mouseover" end="zoomminus.mouseout"/>
                        </use>
                        <path d="M-4,0h8" fill="none" stroke="white" stroke-width="1.5" pointer-events="none"/>
                </g>
                <g id="dirArrow">
                        <path fill="none" stroke="white" stroke-width="1.5" d="M0,-3.0v7 M-2.5,-0.5L0,-3.0L2.5,-0.5"/>
                </g>
               <g id="resetDef">
                       <use xlink:href="#rim2" fill="#404040">
                               <set attributeName="fill" to="#808080" begin="reset.mouseover" end="reset.mouseout"/>
                       </use>
               </g>
        </defs>

<script type="text/javascript">
var viewWidth = 629;
var viewHeight = 1122;
var sectionId = 'dynsection-0';
</script>
<script xlink:href="svgpan.js"/>
<svg id="graph" class="graph">
<g id="viewport">
<title>ubasic_ctx</title>
<!-- Node1 -->
<g id="node1" class="node">
<title>Node1</title>
<g id="a_node1"><a xlink:title="BASIC program context. Every instance of a BASIC program has one of these,* also certain structures s...">
<polygon fill="#bfbfbf" stroke="black" points="553,-475 553,-494 621,-494 621,-475 553,-475"/>
<text text-anchor="middle" x="587" y="-482" font-family="Helvetica,sans-Serif" font-size="10.00">ubasic_ctx</text>
</a>
</g>
</g>
<!-- Node2 -->
<g id="node2" class="node">
<title>Node2</title>
<g id="a_node2"><a xlink:title=" ">
<polygon fill="none" stroke="#bfbfbf" points="294.5,-1082 294.5,-1101 384.5,-1101 384.5,-1082 294.5,-1082"/>
<text text-anchor="middle" x="339.5" y="-1089" font-family="Helvetica,sans-Serif" font-size="10.00">ub_return_type</text>
</a>
</g>
</g>
<!-- Node2&#45;&gt;Node1 -->
<g id="edge1" class="edge">
<title>Node2&#45;&gt;Node1</title>
<path fill="none" stroke="#9a32cd" stroke-dasharray="5,2" d="M394.85,-1101.47C439.01,-1106.15 499.6,-1104.18 535,-1067.5 576.54,-1024.46 584.81,-567.24 585.87,-494.29"/>
<polygon fill="#9a32cd" stroke="#9a32cd" points="395.19,-1097.99 384.84,-1100.27 394.36,-1104.94 395.19,-1097.99"/>
<text text-anchor="middle" x="476" y="-1105.5" font-family="Helvetica,sans-Serif" font-size="10.00"> fn_type</text>
</g>
<!-- Node3 -->
<g id="node3" class="node">
<title>Node3</title>
<g id="a_node3"><a xlink:href="structub__var__double__array.html" target="_top" xlink:title="An array of real (double)">
<polygon fill="none" stroke="black" points="280,-977 280,-996 399,-996 399,-977 280,-977"/>
<text text-anchor="middle" x="339.5" y="-984" font-family="Helvetica,sans-Serif" font-size="10.00">ub_var_double_array</text>
</a>
</g>
</g>
<!-- Node3&#45;&gt;Node1 -->
<g id="edge2" class="edge">
<title>Node3&#45;&gt;Node1</title>
<path fill="none" stroke="#9a32cd" stroke-dasharray="5,2" d="M409.33,-987.72C451.91,-984.54 504.14,-972.83 535,-937.5 565.27,-902.86 582.62,-557.49 585.55,-494.38"/>
<polygon fill="#9a32cd" stroke="#9a32cd" points="409.07,-984.23 399.3,-988.32 409.49,-991.21 409.07,-984.23"/>
<text text-anchor="middle" x="476" y="-989.5" font-family="Helvetica,sans-Serif" font-size="10.00"> double_array_variables</text>
</g>
<!-- Node3&#45;&gt;Node3 -->
<g id="edge3" class="edge">
<title>Node3&#45;&gt;Node3</title>
<path fill="none" stroke="#9a32cd" stroke-dasharray="5,2" d="M319.13,-1005.9C320.49,-1010.82 327.28,-1014.5 339.5,-1014.5 359.05,-1014.5 364.7,-1005.07 356.45,-996.26"/>
<polygon fill="#9a32cd" stroke="#9a32cd" points="322.51,-1006.85 322.55,-996.26 315.91,-1004.52 322.51,-1006.85"/>
<text text-anchor="middle" x="339.5" y="-1017.5" font-family="Helvetica,sans-Serif" font-size="10.00"> next</text>
</g>
<!-- Node4 -->
<g id="node4" class="node">
<title>Node4</title>
<g id="a_node4"><a xlink:title=" ">
<polygon fill="none" stroke="#bfbfbf" points="115.5,-953 115.5,-972 165.5,-972 165.5,-953 115.5,-953"/>
<text text-anchor="middle" x="140.5" y="-960" font-family="Helvetica,sans-Serif" font-size="10.00">double</text>
</a>
</g>
</g>
<!-- Node4&#45;&gt;Node3 -->
<g id="edge4" class="edge">
<title>Node4&#45;&gt;Node3</title>
<path fill="none" stroke="#9a32cd" stroke-dasharray="5,2" d="M175.59,-966.66C204.24,-970.15 245.85,-975.22 279.84,-979.36"/>
<polygon fill="#9a32cd" stroke="#9a32cd" points="176.01,-963.18 165.66,-965.45 175.16,-970.13 176.01,-963.18"/>
<text text-anchor="middle" x="228" y="-979.5" font-family="Helvetica,sans-Serif" font-size="10.00"> values</text>
</g>
<!-- Node15 -->
<g id="node15" class="node">
<title>Node15</title>
<g id="a_node15"><a xlink:href="structub__var__double.html" target="_top" xlink:title="A real (double) variable.">
<polygon fill="none" stroke="black" points="295.5,-910 295.5,-929 383.5,-929 383.5,-910 295.5,-910"/>
<text text-anchor="middle" x="339.5" y="-917" font-family="Helvetica,sans-Serif" font-size="10.00">ub_var_double</text>
</a>
</g>
</g>
<!-- Node4&#45;&gt;Node15 -->
<g id="edge26" class="edge">
<title>Node4&#45;&gt;Node15</title>
<path fill="none" stroke="#9a32cd" stroke-dasharray="5,2" d="M175.8,-955.02C209.02,-947.77 259.5,-936.75 295.42,-928.91"/>
<polygon fill="#9a32cd" stroke="#9a32cd" points="174.68,-951.68 165.66,-957.23 176.17,-958.52 174.68,-951.68"/>
<text text-anchor="middle" x="228" y="-953.5" font-family="Helvetica,sans-Serif" font-size="10.00"> value</text>
</g>
<!-- Node5 -->
<g id="node5" class="node">
<title>Node5</title>
<g id="a_node5"><a xlink:title=" ">
<polygon fill="none" stroke="#bfbfbf" points="112.5,-781 112.5,-800 168.5,-800 168.5,-781 112.5,-781"/>
<text text-anchor="middle" x="140.5" y="-788" font-family="Helvetica,sans-Serif" font-size="10.00">uint64_t</text>
</a>
</g>
</g>
<!-- Node5&#45;&gt;Node1 -->
<g id="edge16" class="edge">
<title>Node5&#45;&gt;Node1</title>
<path fill="none" stroke="#9a32cd" stroke-dasharray="5,2" d="M178.83,-783.65C274.55,-765.95 522.17,-719.14 535,-706.5 566.14,-675.84 581.52,-532.67 585.15,-494.1"/>
<polygon fill="#9a32cd" stroke="#9a32cd" points="177.92,-780.26 168.72,-785.52 179.19,-787.15 177.92,-780.26"/>
<text text-anchor="middle" x="339.5" y="-821.5" font-family="Helvetica,sans-Serif" font-size="10.00"> call_stack</text>
<text text-anchor="middle" x="339.5" y="-810.5" font-family="Helvetica,sans-Serif" font-size="10.00">call_stack_ptr</text>
<text text-anchor="middle" x="339.5" y="-799.5" font-family="Helvetica,sans-Serif" font-size="10.00">for_stack_ptr</text>
<text text-anchor="middle" x="339.5" y="-788.5" font-family="Helvetica,sans-Serif" font-size="10.00">if_nest_level</text>
<text text-anchor="middle" x="339.5" y="-777.5" font-family="Helvetica,sans-Serif" font-size="10.00">repeat_stack</text>
<text text-anchor="middle" x="339.5" y="-766.5" font-family="Helvetica,sans-Serif" font-size="10.00">repeat_stack_ptr</text>
</g>
<!-- Node5&#45;&gt;Node3 -->
<g id="edge5" class="edge">
<title>Node5&#45;&gt;Node3</title>
<path fill="none" stroke="#9a32cd" stroke-dasharray="5,2" d="M157.62,-808C190.39,-843.59 261.75,-921.1 262,-921.5 273.63,-940.12 264.03,-952.44 280,-967.5 284.12,-971.38 289.04,-974.47 294.25,-976.93"/>
<polygon fill="#9a32cd" stroke="#9a32cd" points="159.88,-805.3 150.53,-800.31 154.73,-810.04 159.88,-805.3"/>
<text text-anchor="middle" x="228" y="-924.5" font-family="Helvetica,sans-Serif" font-size="10.00"> itemcount</text>
</g>
<!-- Node7 -->
<g id="node7" class="node">
<title>Node7</title>
<g id="a_node7"><a xlink:href="structub__var__string__array.html" target="_top" xlink:title="An array of strings.">
<polygon fill="none" stroke="black" points="283,-843 283,-862 396,-862 396,-843 283,-843"/>
<text text-anchor="middle" x="339.5" y="-850" font-family="Helvetica,sans-Serif" font-size="10.00">ub_var_string_array</text>
</a>
</g>
</g>
<!-- Node5&#45;&gt;Node7 -->
<g id="edge9" class="edge">
<title>Node5&#45;&gt;Node7</title>
<path fill="none" stroke="#9a32cd" stroke-dasharray="5,2" d="M171.87,-804C179.06,-806.98 186.75,-809.99 194,-812.5 228.93,-824.6 269.57,-835.58 298.83,-842.97"/>
<polygon fill="#9a32cd" stroke="#9a32cd" points="173.04,-800.69 162.47,-800.01 170.3,-807.13 173.04,-800.69"/>
<text text-anchor="middle" x="228" y="-835.5" font-family="Helvetica,sans-Serif" font-size="10.00"> itemcount</text>
</g>
<!-- Node18 -->
<g id="node18" class="node">
<title>Node18</title>
<g id="a_node18"><a xlink:href="structub__var__int__array.html" target="_top" xlink:title="An array of integers.">
<polygon fill="none" stroke="black" points="290.5,-674 290.5,-693 388.5,-693 388.5,-674 290.5,-674"/>
<text text-anchor="middle" x="339.5" y="-681" font-family="Helvetica,sans-Serif" font-size="10.00">ub_var_int_array</text>
</a>
</g>
</g>
<!-- Node5&#45;&gt;Node18 -->
<g id="edge33" class="edge">
<title>Node5&#45;&gt;Node18</title>
<path fill="none" stroke="#9a32cd" stroke-dasharray="5,2" d="M156.87,-773.23C166.65,-763.1 180.07,-750.73 194,-742.5 221.47,-726.28 232.41,-731.43 262,-719.5 282.01,-711.44 304.27,-700.77 319.59,-693.14"/>
<polygon fill="#9a32cd" stroke="#9a32cd" points="154.12,-771.04 149.86,-780.74 159.24,-775.81 154.12,-771.04"/>
<text text-anchor="middle" x="228" y="-745.5" font-family="Helvetica,sans-Serif" font-size="10.00"> itemcount</text>
</g>
<!-- Node6 -->
<g id="node6" class="node">
<title>Node6</title>
<g id="a_node6"><a xlink:title=" ">
<polygon fill="none" stroke="#bfbfbf" points="0,-624 0,-643 38,-643 38,-624 0,-624"/>
<text text-anchor="middle" x="19" y="-631" font-family="Helvetica,sans-Serif" font-size="10.00">char</text>
</a>
</g>
</g>
<!-- Node6&#45;&gt;Node1 -->
<g id="edge17" class="edge">
<title>Node6&#45;&gt;Node1</title>
<path fill="none" stroke="#9a32cd" stroke-dasharray="5,2" d="M20.03,-653.49C20.61,-701.83 25.2,-828.51 56,-928.5 69.99,-973.91 65.23,-997.52 105,-1023.5 185.1,-1075.83 472.23,-1073.72 535,-1001.5 569.61,-961.68 583.56,-562.7 585.7,-494.42"/>
<polygon fill="#9a32cd" stroke="#9a32cd" points="23.53,-653.16 19.95,-643.18 16.53,-653.21 23.53,-653.16"/>
<text text-anchor="middle" x="228" y="-1105.5" font-family="Helvetica,sans-Serif" font-size="10.00"> item_begin</text>
<text text-anchor="middle" x="228" y="-1094.5" font-family="Helvetica,sans-Serif" font-size="10.00">nextptr</text>
<text text-anchor="middle" x="228" y="-1083.5" font-family="Helvetica,sans-Serif" font-size="10.00">program_ptr</text>
<text text-anchor="middle" x="228" y="-1072.5" font-family="Helvetica,sans-Serif" font-size="10.00">ptr</text>
<text text-anchor="middle" x="228" y="-1061.5" font-family="Helvetica,sans-Serif" font-size="10.00">string</text>
</g>
<!-- Node6&#45;&gt;Node3 -->
<g id="edge6" class="edge">
<title>Node6&#45;&gt;Node3</title>
<path fill="none" stroke="#9a32cd" stroke-dasharray="5,2" d="M21.73,-653.27C28.06,-720.68 52.43,-939.69 105,-981.5 164.18,-1028.57 261.06,-1009.71 309.3,-996.01"/>
<polygon fill="#9a32cd" stroke="#9a32cd" points="25.2,-652.8 20.81,-643.16 18.23,-653.43 25.2,-652.8"/>
<text text-anchor="middle" x="140.5" y="-1011.5" font-family="Helvetica,sans-Serif" font-size="10.00"> varname</text>
</g>
<!-- Node6&#45;&gt;Node7 -->
<g id="edge10" class="edge">
<title>Node6&#45;&gt;Node7</title>
<path fill="none" stroke="#9a32cd" stroke-dasharray="5,2" d="M24.64,-653.51C33.92,-689.4 58.06,-765.11 105,-809.5 152.32,-854.25 230.18,-860.14 282.85,-858.09"/>
<polygon fill="#9a32cd" stroke="#9a32cd" points="27.92,-652.22 22.13,-643.35 21.13,-653.89 27.92,-652.22"/>
<text text-anchor="middle" x="140.5" y="-860.5" font-family="Helvetica,sans-Serif" font-size="10.00"> values</text>
<text text-anchor="middle" x="140.5" y="-849.5" font-family="Helvetica,sans-Serif" font-size="10.00">varname</text>
</g>
<!-- Node8 -->
<g id="node8" class="node">
<title>Node8</title>
<g id="a_node8"><a xlink:href="structub__var__int.html" target="_top" xlink:title="An integer variable.">
<polygon fill="none" stroke="black" points="305.5,-373 305.5,-392 373.5,-392 373.5,-373 305.5,-373"/>
<text text-anchor="middle" x="339.5" y="-380" font-family="Helvetica,sans-Serif" font-size="10.00">ub_var_int</text>
</a>
</g>
</g>
<!-- Node6&#45;&gt;Node8 -->
<g id="edge13" class="edge">
<title>Node6&#45;&gt;Node8</title>
<path fill="none" stroke="#9a32cd" stroke-dasharray="5,2" d="M21.15,-613.48C24.84,-569.84 40.33,-466.42 105,-420.5 165.45,-377.58 256.73,-376.3 305.32,-379.27"/>
<polygon fill="#9a32cd" stroke="#9a32cd" points="17.64,-613.44 20.41,-623.66 24.62,-613.94 17.64,-613.44"/>
<text text-anchor="middle" x="140.5" y="-423.5" font-family="Helvetica,sans-Serif" font-size="10.00"> varname</text>
</g>
<!-- Node11 -->
<g id="node11" class="node">
<title>Node11</title>
<g id="a_node11"><a xlink:href="structconsole.html" target="_top" xlink:title=" ">
<polygon fill="none" stroke="black" points="312.5,-162 312.5,-181 366.5,-181 366.5,-162 312.5,-162"/>
<text text-anchor="middle" x="339.5" y="-169" font-family="Helvetica,sans-Serif" font-size="10.00">console</text>
</a>
</g>
</g>
<!-- Node6&#45;&gt;Node11 -->
<g id="edge19" class="edge">
<title>Node6&#45;&gt;Node11</title>
<path fill="none" stroke="#9a32cd" stroke-dasharray="5,2" d="M20.02,-613.9C20.61,-530.81 27.89,-209.55 105,-156.5 137.96,-133.82 258.47,-154.93 312.26,-165.87"/>
<polygon fill="#9a32cd" stroke="#9a32cd" points="16.52,-613.97 19.98,-623.99 23.52,-614 16.52,-613.97"/>
<text text-anchor="middle" x="140.5" y="-181.5" font-family="Helvetica,sans-Serif" font-size="10.00"> buffer</text>
<text text-anchor="middle" x="140.5" y="-170.5" font-family="Helvetica,sans-Serif" font-size="10.00">dirty</text>
<text text-anchor="middle" x="140.5" y="-159.5" font-family="Helvetica,sans-Serif" font-size="10.00">internalbuffer</text>
</g>
<!-- Node6&#45;&gt;Node15 -->
<g id="edge27" class="edge">
<title>Node6&#45;&gt;Node15</title>
<path fill="none" stroke="#9a32cd" stroke-dasharray="5,2" d="M20.87,-653.12C24,-698.94 38.44,-813.55 105,-872.5 157.78,-919.25 243.83,-924.57 295.42,-922.92"/>
<polygon fill="#9a32cd" stroke="#9a32cd" points="24.35,-652.81 20.29,-643.03 17.37,-653.21 24.35,-652.81"/>
<text text-anchor="middle" x="140.5" y="-911.5" font-family="Helvetica,sans-Serif" font-size="10.00"> varname</text>
</g>
<!-- Node6&#45;&gt;Node18 -->
<g id="edge34" class="edge">
<title>Node6&#45;&gt;Node18</title>
<path fill="none" stroke="#9a32cd" stroke-dasharray="5,2" d="M41.8,-648.81C58.37,-659.68 82.13,-673.68 105,-681.5 166.18,-702.43 241.77,-698.05 290.06,-691.78"/>
<polygon fill="#9a32cd" stroke="#9a32cd" points="43.64,-645.83 33.39,-643.15 39.73,-651.64 43.64,-645.83"/>
<text text-anchor="middle" x="140.5" y="-697.5" font-family="Helvetica,sans-Serif" font-size="10.00"> varname</text>
</g>
<!-- Node19 -->
<g id="node19" class="node">
<title>Node19</title>
<g id="a_node19"><a xlink:href="structub__proc__fn__def.html" target="_top" xlink:title="Procedure or function definition Each has a name, a type, a starting line and a parameter list.">
<polygon fill="none" stroke="black" points="294,-555 294,-574 385,-574 385,-555 294,-555"/>
<text text-anchor="middle" x="339.5" y="-562" font-family="Helvetica,sans-Serif" font-size="10.00">ub_proc_fn_def</text>
</a>
</g>
</g>
<!-- Node6&#45;&gt;Node19 -->
<g id="edge40" class="edge">
<title>Node6&#45;&gt;Node19</title>
<path fill="none" stroke="#9a32cd" stroke-dasharray="5,2" d="M47.81,-622.31C64.23,-616.05 85.55,-608.52 105,-603.5 169.67,-586.82 246.32,-575.61 293.69,-569.64"/>
<polygon fill="#9a32cd" stroke="#9a32cd" points="46.34,-619.12 38.28,-626.01 48.87,-625.65 46.34,-619.12"/>
<text text-anchor="middle" x="140.5" y="-606.5" font-family="Helvetica,sans-Serif" font-size="10.00"> name</text>
</g>
<!-- Node21 -->
<g id="node21" class="node">
<title>Node21</title>
<g id="a_node21"><a xlink:href="structub__param.html" target="_top" xlink:title="FN/PROC parameter.">
<polygon fill="none" stroke="black" points="108,-624 108,-643 173,-643 173,-624 108,-624"/>
<text text-anchor="middle" x="140.5" y="-631" font-family="Helvetica,sans-Serif" font-size="10.00">ub_param</text>
</a>
</g>
</g>
<!-- Node6&#45;&gt;Node21 -->
<g id="edge44" class="edge">
<title>Node6&#45;&gt;Node21</title>
<path fill="none" stroke="#9a32cd" stroke-dasharray="5,2" d="M48.23,-633.5C66.07,-633.5 89.17,-633.5 107.67,-633.5"/>
<polygon fill="#9a32cd" stroke="#9a32cd" points="48.15,-630 38.15,-633.5 48.15,-637 48.15,-630"/>
<text text-anchor="middle" x="71.5" y="-636.5" font-family="Helvetica,sans-Serif" font-size="10.00"> name</text>
</g>
<!-- Node22 -->
<g id="node22" class="node">
<title>Node22</title>
<g id="a_node22"><a xlink:href="structub__var__string.html" target="_top" xlink:title="A string variable.">
<polygon fill="none" stroke="black" points="298,-305 298,-324 381,-324 381,-305 298,-305"/>
<text text-anchor="middle" x="339.5" y="-312" font-family="Helvetica,sans-Serif" font-size="10.00">ub_var_string</text>
</a>
</g>
</g>
<!-- Node6&#45;&gt;Node22 -->
<g id="edge47" class="edge">
<title>Node6&#45;&gt;Node22</title>
<path fill="none" stroke="#9a32cd" stroke-dasharray="5,2" d="M21.33,-613.89C26.54,-544.02 48.09,-309.11 105,-266.5 138.05,-241.76 261.39,-284.73 314.23,-304.9"/>
<polygon fill="#9a32cd" stroke="#9a32cd" points="17.84,-613.74 20.61,-623.96 24.82,-614.24 17.84,-613.74"/>
<text text-anchor="middle" x="140.5" y="-280.5" font-family="Helvetica,sans-Serif" font-size="10.00"> value</text>
<text text-anchor="middle" x="140.5" y="-269.5" font-family="Helvetica,sans-Serif" font-size="10.00">varname</text>
</g>
<!-- Node24 -->
<g id="node24" class="node">
<title>Node24</title>
<g id="a_node24"><a xlink:href="structfor__state.html" target="_top" xlink:title="State for a FOR...NEXT loop.">
<polygon fill="none" stroke="black" points="309.5,-440 309.5,-459 369.5,-459 369.5,-440 309.5,-440"/>
<text text-anchor="middle" x="339.5" y="-447" font-family="Helvetica,sans-Serif" font-size="10.00">for_state</text>
</a>
</g>
</g>
<!-- Node6&#45;&gt;Node24 -->
<g id="edge52" class="edge">
<title>Node6&#45;&gt;Node24</title>
<path fill="none" stroke="#9a32cd" stroke-dasharray="5,2" d="M24.9,-613.92C34.49,-579.51 58.93,-508.02 105,-467.5 162.09,-417.29 260.37,-430.83 309.2,-441.78"/>
<polygon fill="#9a32cd" stroke="#9a32cd" points="21.49,-613.14 22.3,-623.7 28.25,-614.93 21.49,-613.14"/>
<text text-anchor="middle" x="140.5" y="-470.5" font-family="Helvetica,sans-Serif" font-size="10.00"> for_variable</text>
</g>
<!-- Node7&#45;&gt;Node1 -->
<g id="edge7" class="edge">
<title>Node7&#45;&gt;Node1</title>
<path fill="none" stroke="#9a32cd" stroke-dasharray="5,2" d="M406.02,-842.25C449.17,-832 503.35,-811.82 535,-772.5 570.82,-728 583.07,-539.25 585.51,-494.19"/>
<polygon fill="#9a32cd" stroke="#9a32cd" points="405.14,-838.86 396.15,-844.47 406.68,-845.69 405.14,-838.86"/>
<text text-anchor="middle" x="476" y="-840.5" font-family="Helvetica,sans-Serif" font-size="10.00"> string_array_variables</text>
</g>
<!-- Node7&#45;&gt;Node7 -->
<g id="edge8" class="edge">
<title>Node7&#45;&gt;Node7</title>
<path fill="none" stroke="#9a32cd" stroke-dasharray="5,2" d="M319.13,-871.9C320.49,-876.82 327.28,-880.5 339.5,-880.5 359.05,-880.5 364.7,-871.07 356.45,-862.26"/>
<polygon fill="#9a32cd" stroke="#9a32cd" points="322.51,-872.85 322.55,-862.26 315.91,-870.52 322.51,-872.85"/>
<text text-anchor="middle" x="339.5" y="-883.5" font-family="Helvetica,sans-Serif" font-size="10.00"> next</text>
</g>
<!-- Node8&#45;&gt;Node1 -->
<g id="edge11" class="edge">
<title>Node8&#45;&gt;Node1</title>
<path fill="none" stroke="#9a32cd" stroke-dasharray="5,2" d="M383.6,-386.08C424.85,-391.08 487.64,-402.88 535,-430.5 554.38,-441.81 570.98,-462.69 579.62,-474.91"/>
<polygon fill="#9a32cd" stroke="#9a32cd" points="383.93,-382.6 373.6,-384.95 383.14,-389.55 383.93,-382.6"/>
<text text-anchor="middle" x="476" y="-444.5" font-family="Helvetica,sans-Serif" font-size="10.00"> int_variables</text>
<text text-anchor="middle" x="476" y="-433.5" font-family="Helvetica,sans-Serif" font-size="10.00">local_int_variables</text>
</g>
<!-- Node8&#45;&gt;Node8 -->
<g id="edge12" class="edge">
<title>Node8&#45;&gt;Node8</title>
<path fill="none" stroke="#9a32cd" stroke-dasharray="5,2" d="M319.13,-401.9C320.49,-406.82 327.28,-410.5 339.5,-410.5 359.05,-410.5 364.7,-401.07 356.45,-392.26"/>
<polygon fill="#9a32cd" stroke="#9a32cd" points="322.51,-402.85 322.55,-392.26 315.91,-400.52 322.51,-402.85"/>
<text text-anchor="middle" x="339.5" y="-413.5" font-family="Helvetica,sans-Serif" font-size="10.00"> next</text>
</g>
<!-- Node9 -->
<g id="node9" class="node">
<title>Node9</title>
<g id="a_node9"><a xlink:title=" ">
<polygon fill="none" stroke="#bfbfbf" points="115.5,-488 115.5,-507 165.5,-507 165.5,-488 115.5,-488"/>
<text text-anchor="middle" x="140.5" y="-495" font-family="Helvetica,sans-Serif" font-size="10.00">int64_t</text>
</a>
</g>
</g>
<!-- Node9&#45;&gt;Node1 -->
<g id="edge22" class="edge">
<title>Node9&#45;&gt;Node1</title>
<path fill="none" stroke="#9a32cd" stroke-dasharray="5,2" d="M175.9,-496.5C259.14,-494.06 470.61,-487.88 552.71,-485.48"/>
<polygon fill="#9a32cd" stroke="#9a32cd" points="175.61,-493 165.71,-496.79 175.81,-500 175.61,-493"/>
<text text-anchor="middle" x="339.5" y="-506.5" font-family="Helvetica,sans-Serif" font-size="10.00"> current_linenum</text>
<text text-anchor="middle" x="339.5" y="-495.5" font-family="Helvetica,sans-Serif" font-size="10.00">eval_linenum</text>
</g>
<!-- Node9&#45;&gt;Node8 -->
<g id="edge14" class="edge">
<title>Node9&#45;&gt;Node8</title>
<path fill="none" stroke="#9a32cd" stroke-dasharray="5,2" d="M150.51,-478.59C159.35,-461.98 174.36,-438.38 194,-424.5 227.5,-400.83 274.26,-390.4 305.41,-385.87"/>
<polygon fill="#9a32cd" stroke="#9a32cd" points="147.2,-477.37 145.81,-487.87 153.45,-480.53 147.2,-477.37"/>
<text text-anchor="middle" x="228" y="-427.5" font-family="Helvetica,sans-Serif" font-size="10.00"> value</text>
</g>
<!-- Node9&#45;&gt;Node18 -->
<g id="edge35" class="edge">
<title>Node9&#45;&gt;Node18</title>
<path fill="none" stroke="#9a32cd" stroke-dasharray="5,2" d="M164.7,-513.56C168.83,-517.15 172.82,-521.19 176,-525.5 188.77,-542.85 180.98,-553.34 194,-570.5 217,-600.81 237.92,-593.05 262,-622.5 273.57,-636.66 266.67,-646.99 280,-659.5 286.64,-665.74 295.13,-670.45 303.56,-673.98"/>
<polygon fill="#9a32cd" stroke="#9a32cd" points="166.76,-510.73 156.76,-507.25 162.41,-516.22 166.76,-510.73"/>
<text text-anchor="middle" x="228" y="-625.5" font-family="Helvetica,sans-Serif" font-size="10.00"> values</text>
</g>
<!-- Node9&#45;&gt;Node19 -->
<g id="edge41" class="edge">
<title>Node9&#45;&gt;Node19</title>
<path fill="none" stroke="#9a32cd" stroke-dasharray="5,2" d="M175.48,-507.19C199.75,-514.29 233.07,-524.41 262,-534.5 280.18,-540.85 300.46,-548.84 315.57,-554.99"/>
<polygon fill="#9a32cd" stroke="#9a32cd" points="176.26,-503.77 165.68,-504.34 174.31,-510.49 176.26,-503.77"/>
<text text-anchor="middle" x="228" y="-537.5" font-family="Helvetica,sans-Serif" font-size="10.00"> line</text>
</g>
<!-- Node9&#45;&gt;Node24 -->
<g id="edge53" class="edge">
<title>Node9&#45;&gt;Node24</title>
<path fill="none" stroke="#9a32cd" stroke-dasharray="5,2" d="M155.17,-480.03C164.74,-469.29 178.54,-456.47 194,-450.5 231.8,-435.91 279.41,-439.33 309.42,-443.84"/>
<polygon fill="#9a32cd" stroke="#9a32cd" points="152.49,-477.79 148.73,-487.69 157.84,-482.29 152.49,-477.79"/>
<text text-anchor="middle" x="228" y="-475.5" font-family="Helvetica,sans-Serif" font-size="10.00"> line_after_for</text>
<text text-anchor="middle" x="228" y="-464.5" font-family="Helvetica,sans-Serif" font-size="10.00">step</text>
<text text-anchor="middle" x="228" y="-453.5" font-family="Helvetica,sans-Serif" font-size="10.00">to</text>
</g>
<!-- Node10 -->
<g id="node10" class="node">
<title>Node10</title>
<g id="a_node10"><a xlink:title=" ">
<polygon fill="none" stroke="#bfbfbf" points="121.5,-298 121.5,-317 159.5,-317 159.5,-298 121.5,-298"/>
<text text-anchor="middle" x="140.5" y="-305" font-family="Helvetica,sans-Serif" font-size="10.00">bool</text>
</a>
</g>
</g>
<!-- Node10&#45;&gt;Node1 -->
<g id="edge37" class="edge">
<title>Node10&#45;&gt;Node1</title>
<path fill="none" stroke="#9a32cd" stroke-dasharray="5,2" d="M169.39,-296.68C241.49,-270.75 435.35,-214.23 535,-313.5 581.31,-359.64 585.93,-445.89 586.12,-474.79"/>
<polygon fill="#9a32cd" stroke="#9a32cd" points="167.84,-293.53 159.66,-300.27 170.25,-300.1 167.84,-293.53"/>
<text text-anchor="middle" x="339.5" y="-279.5" font-family="Helvetica,sans-Serif" font-size="10.00"> ended</text>
<text text-anchor="middle" x="339.5" y="-268.5" font-family="Helvetica,sans-Serif" font-size="10.00">errored</text>
</g>
<!-- Node10&#45;&gt;Node8 -->
<g id="edge15" class="edge">
<title>Node10&#45;&gt;Node8</title>
<path fill="none" stroke="#9a32cd" stroke-dasharray="5,2" d="M170.13,-310.77C200.95,-314.74 247.51,-322.21 262,-332.5 274.68,-341.51 267.91,-352.73 280,-362.5 287.35,-368.44 296.55,-372.66 305.48,-375.64"/>
<polygon fill="#9a32cd" stroke="#9a32cd" points="170.32,-307.26 159.97,-309.51 169.46,-314.21 170.32,-307.26"/>
<text text-anchor="middle" x="228" y="-335.5" font-family="Helvetica,sans-Serif" font-size="10.00"> global</text>
</g>
<!-- Node10&#45;&gt;Node15 -->
<g id="edge29" class="edge">
<title>Node10&#45;&gt;Node15</title>
<path fill="none" stroke="#9a32cd" stroke-dasharray="5,2" d="M166.64,-323.47C170.38,-326.97 173.74,-331 176,-335.5 218.16,-419.36 146.54,-676.52 194,-757.5 211.96,-788.15 242.03,-770.12 262,-799.5 287.63,-837.21 250.05,-866.12 280,-900.5 284.14,-905.25 289.48,-908.82 295.24,-911.51"/>
<polygon fill="#9a32cd" stroke="#9a32cd" points="168.63,-320.58 158.65,-317.04 164.24,-326.03 168.63,-320.58"/>
<text text-anchor="middle" x="228" y="-802.5" font-family="Helvetica,sans-Serif" font-size="10.00"> global</text>
</g>
<!-- Node10&#45;&gt;Node22 -->
<g id="edge48" class="edge">
<title>Node10&#45;&gt;Node22</title>
<path fill="none" stroke="#9a32cd" stroke-dasharray="5,2" d="M169.93,-301.72C177.7,-300.39 186.14,-299.17 194,-298.5 224.11,-295.94 231.94,-295.39 262,-298.5 274.69,-299.82 288.37,-302.32 300.61,-304.97"/>
<polygon fill="#9a32cd" stroke="#9a32cd" points="169.07,-298.32 159.87,-303.57 170.33,-305.21 169.07,-298.32"/>
<text text-anchor="middle" x="228" y="-301.5" font-family="Helvetica,sans-Serif" font-size="10.00"> global</text>
</g>
<!-- Node11&#45;&gt;Node1 -->
<g id="edge18" class="edge">
<title>Node11&#45;&gt;Node1</title>
<path fill="none" stroke="#9a32cd" stroke-dasharray="5,2" d="M376.36,-163.81C419.84,-156.78 492.55,-152.74 535,-192.5 577.35,-232.17 584.66,-428.52 585.8,-474.74"/>
<polygon fill="#9a32cd" stroke="#9a32cd" points="375.75,-160.37 366.5,-165.54 376.96,-167.26 375.75,-160.37"/>
<text text-anchor="middle" x="476" y="-195.5" font-family="Helvetica,sans-Serif" font-size="10.00"> cons</text>
</g>
<!-- Node12 -->
<g id="node12" class="node">
<title>Node12</title>
<g id="a_node12"><a xlink:title=" ">
<polygon fill="none" stroke="#bfbfbf" points="118,-199 118,-218 163,-218 163,-199 118,-199"/>
<text text-anchor="middle" x="140.5" y="-206" font-family="Helvetica,sans-Serif" font-size="10.00">size_t</text>
</a>
</g>
</g>
<!-- Node12&#45;&gt;Node1 -->
<g id="edge24" class="edge">
<title>Node12&#45;&gt;Node1</title>
<path fill="none" stroke="#9a32cd" stroke-dasharray="5,2" d="M173.22,-207.76C257.14,-206.49 482.14,-207.7 535,-255.5 568.46,-285.76 582.2,-435.09 585.29,-474.8"/>
<polygon fill="#9a32cd" stroke="#9a32cd" points="172.96,-204.27 163.02,-207.94 173.08,-211.27 172.96,-204.27"/>
<text text-anchor="middle" x="339.5" y="-218.5" font-family="Helvetica,sans-Serif" font-size="10.00"> oldlen</text>
</g>
<!-- Node12&#45;&gt;Node11 -->
<g id="edge20" class="edge">
<title>Node12&#45;&gt;Node11</title>
<path fill="none" stroke="#9a32cd" stroke-dasharray="5,2" d="M172.83,-195.88C179.71,-193.46 187.03,-191.17 194,-189.5 234.68,-179.74 283.16,-175.07 312.35,-173"/>
<polygon fill="#9a32cd" stroke="#9a32cd" points="171.31,-192.7 163.13,-199.44 173.73,-199.27 171.31,-192.7"/>
<text text-anchor="middle" x="228" y="-192.5" font-family="Helvetica,sans-Serif" font-size="10.00"> bufcnt</text>
</g>
<!-- Node13 -->
<g id="node13" class="node">
<title>Node13</title>
<g id="a_node13"><a xlink:title=" ">
<polygon fill="none" stroke="#bfbfbf" points="115.5,-79 115.5,-98 165.5,-98 165.5,-79 115.5,-79"/>
<text text-anchor="middle" x="140.5" y="-86" font-family="Helvetica,sans-Serif" font-size="10.00">uint8_t</text>
</a>
</g>
</g>
<!-- Node13&#45;&gt;Node11 -->
<g id="edge21" class="edge">
<title>Node13&#45;&gt;Node11</title>
<path fill="none" stroke="#9a32cd" stroke-dasharray="5,2" d="M175.84,-78.62C202.08,-73.27 237.75,-71.05 262,-89.5 285.18,-107.14 259.78,-131.55 280,-152.5 288.45,-161.26 300.98,-165.99 312.27,-168.54"/>
<polygon fill="#9a32cd" stroke="#9a32cd" points="174.91,-75.24 165.94,-80.87 176.47,-82.06 174.91,-75.24"/>
<text text-anchor="middle" x="228" y="-125.5" font-family="Helvetica,sans-Serif" font-size="10.00"> attributes</text>
<text text-anchor="middle" x="228" y="-114.5" font-family="Helvetica,sans-Serif" font-size="10.00">last</text>
<text text-anchor="middle" x="228" y="-103.5" font-family="Helvetica,sans-Serif" font-size="10.00">x</text>
<text text-anchor="middle" x="228" y="-92.5" font-family="Helvetica,sans-Serif" font-size="10.00">y</text>
</g>
<!-- Node14 -->
<g id="node14" class="node">
<title>Node14</title>
<g id="a_node14"><a xlink:title=" ">
<polygon fill="none" stroke="#bfbfbf" points="314.5,-124 314.5,-143 364.5,-143 364.5,-124 314.5,-124"/>
<text text-anchor="middle" x="339.5" y="-131" font-family="Helvetica,sans-Serif" font-size="10.00">int32_t</text>
</a>
</g>
</g>
<!-- Node14&#45;&gt;Node1 -->
<g id="edge23" class="edge">
<title>Node14&#45;&gt;Node1</title>
<path fill="none" stroke="#9a32cd" stroke-dasharray="5,2" d="M374.48,-123.68C417.59,-113.51 491.53,-104.06 535,-143.5 585.54,-189.36 586.51,-424.02 586.12,-474.8"/>
<polygon fill="#9a32cd" stroke="#9a32cd" points="373.59,-120.3 364.74,-126.12 375.29,-127.09 373.59,-120.3"/>
<text text-anchor="middle" x="476" y="-146.5" font-family="Helvetica,sans-Serif" font-size="10.00"> graphics_colour</text>
</g>
<!-- Node15&#45;&gt;Node1 -->
<g id="edge25" class="edge">
<title>Node15&#45;&gt;Node1</title>
<path fill="none" stroke="#9a32cd" stroke-dasharray="5,2" d="M394,-916.1C438.8,-910.23 500.74,-894.47 535,-852.5 581.7,-795.29 585.66,-545.97 585.98,-494.01"/>
<polygon fill="#9a32cd" stroke="#9a32cd" points="393.39,-912.65 383.87,-917.3 394.21,-919.6 393.39,-912.65"/>
<text text-anchor="middle" x="476" y="-925.5" font-family="Helvetica,sans-Serif" font-size="10.00"> double_variables</text>
<text text-anchor="middle" x="476" y="-914.5" font-family="Helvetica,sans-Serif" font-size="10.00">local_double_variables</text>
</g>
<!-- Node15&#45;&gt;Node15 -->
<g id="edge28" class="edge">
<title>Node15&#45;&gt;Node15</title>
<path fill="none" stroke="#9a32cd" stroke-dasharray="5,2" d="M319.13,-938.9C320.49,-943.82 327.28,-947.5 339.5,-947.5 359.05,-947.5 364.7,-938.07 356.45,-929.26"/>
<polygon fill="#9a32cd" stroke="#9a32cd" points="322.51,-939.85 322.55,-929.26 315.91,-937.52 322.51,-939.85"/>
<text text-anchor="middle" x="339.5" y="-950.5" font-family="Helvetica,sans-Serif" font-size="10.00"> next</text>
</g>
<!-- Node16 -->
<g id="node16" class="node">
<title>Node16</title>
<g id="a_node16"><a xlink:title=" ">
<polygon fill="none" stroke="#bfbfbf" points="289,-86 289,-105 390,-105 390,-86 289,-86"/>
<text text-anchor="middle" x="339.5" y="-93" font-family="Helvetica,sans-Serif" font-size="10.00">struct hashmap *</text>
</a>
</g>
</g>
<!-- Node16&#45;&gt;Node1 -->
<g id="edge30" class="edge">
<title>Node16&#45;&gt;Node1</title>
<path fill="none" stroke="#9a32cd" stroke-dasharray="5,2" d="M400.33,-88.89C450.09,-84.81 515.79,-83.23 535,-100.5 563.88,-126.47 582.17,-418.24 585.46,-474.97"/>
<polygon fill="#9a32cd" stroke="#9a32cd" points="399.95,-85.41 390.29,-89.76 400.55,-92.38 399.95,-85.41"/>
<text text-anchor="middle" x="476" y="-103.5" font-family="Helvetica,sans-Serif" font-size="10.00"> lines</text>
</g>
<!-- Node17 -->
<g id="node17" class="node">
<title>Node17</title>
<g id="a_node17"><a xlink:title=" ">
<polygon fill="none" stroke="#bfbfbf" points="325,-47 325,-66 354,-66 354,-47 325,-47"/>
<text text-anchor="middle" x="339.5" y="-54" font-family="Helvetica,sans-Serif" font-size="10.00">int</text>
</a>
</g>
</g>
<!-- Node17&#45;&gt;Node1 -->
<g id="edge31" class="edge">
<title>Node17&#45;&gt;Node1</title>
<path fill="none" stroke="#9a32cd" stroke-dasharray="5,2" d="M364.29,-53.17C410.62,-47.25 510.55,-37.48 535,-59.5 567.02,-88.35 582.89,-413.96 585.58,-474.76"/>
<polygon fill="#9a32cd" stroke="#9a32cd" points="363.7,-49.71 354.25,-54.5 364.62,-56.65 363.7,-49.71"/>
<text text-anchor="middle" x="476" y="-73.5" font-family="Helvetica,sans-Serif" font-size="10.00"> bracket_depth</text>
<text text-anchor="middle" x="476" y="-62.5" font-family="Helvetica,sans-Serif" font-size="10.00">current_token</text>
</g>
<!-- Node18&#45;&gt;Node1 -->
<g id="edge32" class="edge">
<title>Node18&#45;&gt;Node1</title>
<path fill="none" stroke="#9a32cd" stroke-dasharray="5,2" d="M398.92,-691.66C441.47,-694.22 497.93,-690.16 535,-658.5 585.75,-615.17 587.42,-524.28 586.5,-494.32"/>
<polygon fill="#9a32cd" stroke="#9a32cd" points="398.93,-688.15 388.7,-690.9 398.41,-695.13 398.93,-688.15"/>
<text text-anchor="middle" x="476" y="-694.5" font-family="Helvetica,sans-Serif" font-size="10.00"> int_array_variables</text>
</g>
<!-- Node18&#45;&gt;Node18 -->
<g id="edge36" class="edge">
<title>Node18&#45;&gt;Node18</title>
<path fill="none" stroke="#9a32cd" stroke-dasharray="5,2" d="M319.13,-702.9C320.49,-707.82 327.28,-711.5 339.5,-711.5 359.05,-711.5 364.7,-702.07 356.45,-693.26"/>
<polygon fill="#9a32cd" stroke="#9a32cd" points="322.51,-703.85 322.55,-693.26 315.91,-701.52 322.51,-703.85"/>
<text text-anchor="middle" x="339.5" y="-714.5" font-family="Helvetica,sans-Serif" font-size="10.00"> next</text>
</g>
<!-- Node19&#45;&gt;Node1 -->
<g id="edge38" class="edge">
<title>Node19&#45;&gt;Node1</title>
<path fill="none" stroke="#9a32cd" stroke-dasharray="5,2" d="M395.03,-553.05C434.6,-543.92 489.04,-529.67 535,-511.5 547.11,-506.71 560.07,-499.83 569.9,-494.21"/>
<polygon fill="#9a32cd" stroke="#9a32cd" points="394.02,-549.69 385.05,-555.32 395.57,-556.51 394.02,-549.69"/>
<text text-anchor="middle" x="476" y="-549.5" font-family="Helvetica,sans-Serif" font-size="10.00"> defs</text>
</g>
<!-- Node19&#45;&gt;Node19 -->
<g id="edge42" class="edge">
<title>Node19&#45;&gt;Node19</title>
<path fill="none" stroke="#9a32cd" stroke-dasharray="5,2" d="M319.13,-583.9C320.49,-588.82 327.28,-592.5 339.5,-592.5 359.05,-592.5 364.7,-583.07 356.45,-574.26"/>
<polygon fill="#9a32cd" stroke="#9a32cd" points="322.51,-584.85 322.55,-574.26 315.91,-582.52 322.51,-584.85"/>
<text text-anchor="middle" x="339.5" y="-595.5" font-family="Helvetica,sans-Serif" font-size="10.00"> next</text>
</g>
<!-- Node20 -->
<g id="node20" class="node">
<title>Node20</title>
<g id="a_node20"><a xlink:title=" ">
<polygon fill="none" stroke="#bfbfbf" points="105,-535 105,-554 176,-554 176,-535 105,-535"/>
<text text-anchor="middle" x="140.5" y="-542" font-family="Helvetica,sans-Serif" font-size="10.00">ub_fn_type</text>
</a>
</g>
</g>
<!-- Node20&#45;&gt;Node19 -->
<g id="edge39" class="edge">
<title>Node20&#45;&gt;Node19</title>
<path fill="none" stroke="#9a32cd" stroke-dasharray="5,2" d="M186.29,-549.05C218.43,-552.31 261.56,-556.69 293.7,-559.95"/>
<polygon fill="#9a32cd" stroke="#9a32cd" points="186.57,-545.56 176.27,-548.03 185.86,-552.52 186.57,-545.56"/>
<text text-anchor="middle" x="228" y="-558.5" font-family="Helvetica,sans-Serif" font-size="10.00"> type</text>
</g>
<!-- Node21&#45;&gt;Node1 -->
<g id="edge54" class="edge">
<title>Node21&#45;&gt;Node1</title>
<path fill="none" stroke="#9a32cd" stroke-dasharray="5,2" d="M165.95,-647.91C174.52,-652.2 184.41,-656.34 194,-658.5 223.48,-665.16 232.17,-663.38 262,-658.5 277.88,-655.91 522.41,-571.53 535,-561.5 558.46,-542.83 574.86,-510.35 582,-494.2"/>
<polygon fill="#9a32cd" stroke="#9a32cd" points="167.39,-644.71 156.92,-643.09 164.09,-650.89 167.39,-644.71"/>
<text text-anchor="middle" x="339.5" y="-655.5" font-family="Helvetica,sans-Serif" font-size="10.00"> param</text>
</g>
<!-- Node21&#45;&gt;Node19 -->
<g id="edge43" class="edge">
<title>Node21&#45;&gt;Node19</title>
<path fill="none" stroke="#9a32cd" stroke-dasharray="5,2" d="M183.27,-641.87C207.13,-644.79 237.15,-645.26 262,-635.5 270.22,-632.27 310.31,-592.77 328.94,-574.13"/>
<polygon fill="#9a32cd" stroke="#9a32cd" points="183.51,-638.37 173.12,-640.43 182.53,-645.3 183.51,-638.37"/>
<text text-anchor="middle" x="228" y="-646.5" font-family="Helvetica,sans-Serif" font-size="10.00"> params</text>
</g>
<!-- Node21&#45;&gt;Node21 -->
<g id="edge45" class="edge">
<title>Node21&#45;&gt;Node21</title>
<path fill="none" stroke="#9a32cd" stroke-dasharray="5,2" d="M127.98,-653.27C128.96,-658 133.14,-661.5 140.5,-661.5 152.59,-661.5 156.08,-652.07 150.98,-643.26"/>
<polygon fill="#9a32cd" stroke="#9a32cd" points="131.45,-653.76 130.02,-643.26 124.59,-652.36 131.45,-653.76"/>
<text text-anchor="middle" x="140.5" y="-664.5" font-family="Helvetica,sans-Serif" font-size="10.00"> next</text>
</g>
<!-- Node22&#45;&gt;Node1 -->
<g id="edge46" class="edge">
<title>Node22&#45;&gt;Node1</title>
<path fill="none" stroke="#9a32cd" stroke-dasharray="5,2" d="M391.24,-315.48C434.18,-318.87 494.95,-330.06 535,-364.5 569.67,-394.32 581.38,-451.8 584.78,-474.72"/>
<polygon fill="#9a32cd" stroke="#9a32cd" points="391.22,-311.97 381.01,-314.79 390.75,-318.95 391.22,-311.97"/>
<text text-anchor="middle" x="476" y="-378.5" font-family="Helvetica,sans-Serif" font-size="10.00"> local_string_variables</text>
<text text-anchor="middle" x="476" y="-367.5" font-family="Helvetica,sans-Serif" font-size="10.00">str_variables</text>
</g>
<!-- Node22&#45;&gt;Node22 -->
<g id="edge49" class="edge">
<title>Node22&#45;&gt;Node22</title>
<path fill="none" stroke="#9a32cd" stroke-dasharray="5,2" d="M319.13,-333.9C320.49,-338.82 327.28,-342.5 339.5,-342.5 359.05,-342.5 364.7,-333.07 356.45,-324.26"/>
<polygon fill="#9a32cd" stroke="#9a32cd" points="322.51,-334.85 322.55,-324.26 315.91,-332.52 322.51,-334.85"/>
<text text-anchor="middle" x="339.5" y="-345.5" font-family="Helvetica,sans-Serif" font-size="10.00"> next</text>
</g>
<!-- Node23 -->
<g id="node23" class="node">
<title>Node23</title>
<g id="a_node23"><a xlink:title=" ">
<polygon fill="none" stroke="#bfbfbf" points="316.5,-9 316.5,-28 362.5,-28 362.5,-9 316.5,-9"/>
<text text-anchor="middle" x="339.5" y="-16" font-family="Helvetica,sans-Serif" font-size="10.00">void *</text>
</a>
</g>
</g>
<!-- Node23&#45;&gt;Node1 -->
<g id="edge50" class="edge">
<title>Node23&#45;&gt;Node1</title>
<path fill="none" stroke="#9a32cd" stroke-dasharray="5,2" d="M372.64,-9.34C415.71,0.76 491.74,10.64 535,-30.5 568.48,-62.34 583.26,-412.31 585.65,-474.94"/>
<polygon fill="#9a32cd" stroke="#9a32cd" points="371.55,-6.01 362.69,-11.82 373.24,-12.8 371.55,-6.01"/>
<text text-anchor="middle" x="476" y="-33.5" font-family="Helvetica,sans-Serif" font-size="10.00"> fn_return</text>
</g>
<!-- Node24&#45;&gt;Node1 -->
<g id="edge51" class="edge">
<title>Node24&#45;&gt;Node1</title>
<path fill="none" stroke="#9a32cd" stroke-dasharray="5,2" d="M379.64,-452.82C419.05,-456.46 481.51,-463.08 535,-472.5 540.82,-473.53 546.98,-474.81 552.92,-476.14"/>
<polygon fill="#9a32cd" stroke="#9a32cd" points="379.92,-449.33 369.65,-451.91 379.29,-456.3 379.92,-449.33"/>
<text text-anchor="middle" x="476" y="-475.5" font-family="Helvetica,sans-Serif" font-size="10.00"> for_stack</text>
</g>
</g>
</svg>
        <g id="navigator" transform="translate(0 0)" fill="#404254">
                <rect fill="#f2f5e9" fill-opacity="0.5" stroke="#606060" stroke-width=".5" x="0" y="0" width="60" height="60"/>
                <use id="zoomplus" xlink:href="#zoomPlus" x="17" y="9" onmousedown="handleZoom(evt,'in')"/>
                <use id="zoomminus" xlink:href="#zoomMin" x="42" y="9" onmousedown="handleZoom(evt,'out')"/>
                <use id="reset" xlink:href="#resetDef" x="30" y="36" onmousedown="handleReset()"/>
                <g id="arrowUp" xlink:href="#dirArrow" transform="translate(30 24)" onmousedown="handlePan(0,-1)">
                  <use xlink:href="#rim" fill="#404040">
                        <set attributeName="fill" to="#808080" begin="arrowUp.mouseover" end="arrowUp.mouseout"/>
                  </use>
                  <path fill="none" stroke="white" stroke-width="1.5" d="M0,-3.0v7 M-2.5,-0.5L0,-3.0L2.5,-0.5"/>
                </g>
                <g id="arrowRight" xlink:href="#dirArrow" transform="rotate(90) translate(36 -43)" onmousedown="handlePan(1,0)">
                  <use xlink:href="#rim" fill="#404040">
                        <set attributeName="fill" to="#808080" begin="arrowRight.mouseover" end="arrowRight.mouseout"/>
                  </use>
                  <path fill="none" stroke="white" stroke-width="1.5" d="M0,-3.0v7 M-2.5,-0.5L0,-3.0L2.5,-0.5"/>
                </g>
                <g id="arrowDown" xlink:href="#dirArrow" transform="rotate(180) translate(-30 -48)" onmousedown="handlePan(0,1)">
                  <use xlink:href="#rim" fill="#404040">
                        <set attributeName="fill" to="#808080" begin="arrowDown.mouseover" end="arrowDown.mouseout"/>
                  </use>
                  <path fill="none" stroke="white" stroke-width="1.5" d="M0,-3.0v7 M-2.5,-0.5L0,-3.0L2.5,-0.5"/>
                </g>
                <g id="arrowLeft" xlink:href="#dirArrow" transform="rotate(270) translate(-36 17)" onmousedown="handlePan(-1,0)">
                  <use xlink:href="#rim" fill="#404040">
                        <set attributeName="fill" to="#808080" begin="arrowLeft.mouseover" end="arrowLeft.mouseout"/>
                  </use>
                  <path fill="none" stroke="white" stroke-width="1.5" d="M0,-3.0v7 M-2.5,-0.5L0,-3.0L2.5,-0.5"/>
                </g>
        </g>
        <svg viewBox="0 0 15 15" width="100%" height="30px" preserveAspectRatio="xMaxYMin meet">
         <g id="arrow_out" transform="scale(0.3 0.3)">
          <a xlink:href="structubasic__ctx__coll__graph_org.svg" target="_base">
           <rect id="button" ry="5" rx="5" y="6" x="6" height="38" width="38"
                fill="#f2f5e9" fill-opacity="0.5" stroke="#606060" stroke-width="1.0"/>
           <path id="arrow"
             d="M 11.500037,31.436501 C 11.940474,20.09759 22.043105,11.32322 32.158766,21.979434 L 37.068811,17.246167 C 37.068811,17.246167 37.088388,32 37.088388,32 L 22.160133,31.978069 C 22.160133,31.978069 26.997745,27.140456 26.997745,27.140456 C 18.528582,18.264221 13.291696,25.230495 11.500037,31.436501 z"
             style="fill:#404040;"/>
          </a>
         </g>
        </svg>
</svg>
