<?xml version="1.0" encoding="UTF-8" standalone="no"?>
<!DOCTYPE svg PUBLIC "-//W3C//DTD SVG 1.1//EN"
 "http://www.w3.org/Graphics/SVG/1.1/DTD/svg11.dtd">
<!-- Generated by graphviz version 2.43.0 (0)
 -->
<!-- Title: process Pages: 1 -->
<!--zoomable 939 -->
<svg id="main" version="1.1" xmlns="http://www.w3.org/2000/svg" xmlns:xlink="http://www.w3.org/1999/xlink" xml:space="preserve" onload="init(evt)">
<style type="text/css"><![CDATA[
.edge:hover path { stroke: red; }
.edge:hover polygon { stroke: red; fill: red; }
]]></style>
<script type="text/javascript"><![CDATA[
var edges = document.getElementsByTagName('g');
if (edges && edges.length) {
  for (var i=0;i<edges.length;i++) {
    if (edges[i].id.substr(0,4)=='edge') {
      edges[i].setAttribute('class','edge');
    }
  }
}
]]></script>
        <defs>
                <circle id="rim" cx="0" cy="0" r="7"/>
                <circle id="rim2" cx="0" cy="0" r="3.5"/>
                <g id="zoomPlus">
                        <use xlink:href="#rim" fill="#404040">
                                <set attributeName="fill" to="#808080" begin="zoomplus.mouseover" end="zoomplus.mouseout"/>
                        </use>
                        <path d="M-4,0h8M0,-4v8" fill="none" stroke="white" stroke-width="1.5" pointer-events="none"/>
                </g>
                <g id="zoomMin">
                        <use xlink:href="#rim" fill="#404040">
                                <set attributeName="fill" to="#808080" begin="zoomminus.mouseover" end="zoomminus.mouseout"/>
                        </use>
                        <path d="M-4,0h8" fill="none" stroke="white" stroke-width="1.5" pointer-events="none"/>
                </g>
                <g id="dirArrow">
                        <path fill="none" stroke="white" stroke-width="1.5" d="M0,-3.0v7 M-2.5,-0.5L0,-3.0L2.5,-0.5"/>
                </g>
               <g id="resetDef">
                       <use xlink:href="#rim2" fill="#404040">
                               <set attributeName="fill" to="#808080" begin="reset.mouseover" end="reset.mouseout"/>
                       </use>
               </g>
        </defs>

<script type="text/javascript">
var viewWidth = 860;
var viewHeight = 939;
var sectionId = 'dynsection-0';
</script>
<script xlink:href="svgpan.js"/>
<svg id="graph" class="graph">
<g id="viewport">
<title>process</title>
<!-- Node1 -->
<g id="node1" class="node">
<title>Node1</title>
<g id="a_node1"><a xlink:title=" ">
<polygon fill="#bfbfbf" stroke="black" points="798,-180.5 798,-199.5 852,-199.5 852,-180.5 798,-180.5"/>
<text text-anchor="middle" x="825" y="-187.5" font-family="Helvetica,sans-Serif" font-size="10.00">process</text>
</a>
</g>
</g>
<!-- Node1&#45;&gt;Node1 -->
<g id="edge51" class="edge">
<title>Node1&#45;&gt;Node1</title>
<path fill="none" stroke="#9a32cd" stroke-dasharray="5,2" d="M812.11,-209.77C813.12,-214.5 817.42,-218 825,-218 837.44,-218 841.04,-208.57 835.79,-199.76"/>
<polygon fill="#9a32cd" stroke="#9a32cd" points="815.58,-210.26 814.21,-199.76 808.73,-208.82 815.58,-210.26"/>
<text text-anchor="middle" x="825" y="-232" font-family="Helvetica,sans-Serif" font-size="10.00"> next</text>
<text text-anchor="middle" x="825" y="-221" font-family="Helvetica,sans-Serif" font-size="10.00">prev</text>
</g>
<!-- Node2 -->
<g id="node2" class="node">
<title>Node2</title>
<g id="a_node2"><a xlink:href="structubasic__ctx.html" target="_top" xlink:title=" ">
<polygon fill="none" stroke="black" points="643,-521.5 643,-540.5 711,-540.5 711,-521.5 643,-521.5"/>
<text text-anchor="middle" x="677" y="-528.5" font-family="Helvetica,sans-Serif" font-size="10.00">ubasic_ctx</text>
</a>
</g>
</g>
<!-- Node2&#45;&gt;Node1 -->
<g id="edge1" class="edge">
<title>Node2&#45;&gt;Node1</title>
<path fill="none" stroke="#9a32cd" stroke-dasharray="5,2" d="M686.17,-511.91C713.34,-448.45 800.03,-245.98 819.91,-199.55"/>
<polygon fill="#9a32cd" stroke="#9a32cd" points="682.93,-510.59 682.21,-521.16 689.37,-513.35 682.93,-510.59"/>
<text text-anchor="middle" x="754.5" y="-413" font-family="Helvetica,sans-Serif" font-size="10.00"> code</text>
</g>
<!-- Node3 -->
<g id="node3" class="node">
<title>Node3</title>
<g id="a_node3"><a xlink:href="structub__var__string__array.html" target="_top" xlink:title=" ">
<polygon fill="none" stroke="black" points="378,-276.5 378,-295.5 491,-295.5 491,-276.5 378,-276.5"/>
<text text-anchor="middle" x="434.5" y="-283.5" font-family="Helvetica,sans-Serif" font-size="10.00">ub_var_string_array</text>
</a>
</g>
</g>
<!-- Node3&#45;&gt;Node2 -->
<g id="edge2" class="edge">
<title>Node3&#45;&gt;Node2</title>
<path fill="none" stroke="#9a32cd" stroke-dasharray="5,2" d="M501.22,-280.08C541.84,-280.12 592.3,-287.44 625,-318 655.56,-346.56 671.26,-483.34 675.07,-521.24"/>
<polygon fill="#9a32cd" stroke="#9a32cd" points="501.07,-276.58 491.11,-280.21 501.16,-283.58 501.07,-276.58"/>
<text text-anchor="middle" x="569" y="-321" font-family="Helvetica,sans-Serif" font-size="10.00"> string_array_variables</text>
</g>
<!-- Node4 -->
<g id="node4" class="node">
<title>Node4</title>
<g id="a_node4"><a xlink:title=" ">
<polygon fill="none" stroke="#bfbfbf" points="176.5,-491.5 176.5,-510.5 232.5,-510.5 232.5,-491.5 176.5,-491.5"/>
<text text-anchor="middle" x="204.5" y="-498.5" font-family="Helvetica,sans-Serif" font-size="10.00">uint64_t</text>
</a>
</g>
</g>
<!-- Node4&#45;&gt;Node2 -->
<g id="edge14" class="edge">
<title>Node4&#45;&gt;Node2</title>
<path fill="none" stroke="#9a32cd" stroke-dasharray="5,2" d="M242.68,-501.15C297.83,-501.61 404.54,-503.36 495,-510 546.74,-513.8 606.47,-521.35 642.72,-526.28"/>
<polygon fill="#9a32cd" stroke="#9a32cd" points="242.71,-497.65 232.68,-501.08 242.65,-504.65 242.71,-497.65"/>
<text text-anchor="middle" x="434.5" y="-524" font-family="Helvetica,sans-Serif" font-size="10.00"> for_stack_ptr</text>
<text text-anchor="middle" x="434.5" y="-513" font-family="Helvetica,sans-Serif" font-size="10.00">gosub_stack_ptr</text>
</g>
<!-- Node4&#45;&gt;Node3 -->
<g id="edge3" class="edge">
<title>Node4&#45;&gt;Node3</title>
<path fill="none" stroke="#9a32cd" stroke-dasharray="5,2" d="M218.71,-483.27C230.28,-466.75 246.55,-440.98 255,-416 265.27,-385.66 248.98,-294.19 273,-273 290.3,-257.74 351.97,-267.55 393.63,-276.46"/>
<polygon fill="#9a32cd" stroke="#9a32cd" points="215.83,-481.27 212.84,-491.43 221.52,-485.35 215.83,-481.27"/>
<text text-anchor="middle" x="314.5" y="-276" font-family="Helvetica,sans-Serif" font-size="10.00"> itemcount</text>
</g>
<!-- Node18 -->
<g id="node18" class="node">
<title>Node18</title>
<g id="a_node18"><a xlink:href="structub__var__int__array.html" target="_top" xlink:title=" ">
<polygon fill="none" stroke="black" points="385.5,-575.5 385.5,-594.5 483.5,-594.5 483.5,-575.5 385.5,-575.5"/>
<text text-anchor="middle" x="434.5" y="-582.5" font-family="Helvetica,sans-Serif" font-size="10.00">ub_var_int_array</text>
</a>
</g>
</g>
<!-- Node4&#45;&gt;Node18 -->
<g id="edge31" class="edge">
<title>Node4&#45;&gt;Node18</title>
<path fill="none" stroke="#9a32cd" stroke-dasharray="5,2" d="M241.66,-514.13C272.17,-525.22 316.97,-541.57 356,-556 373.38,-562.43 392.92,-569.74 408.04,-575.42"/>
<polygon fill="#9a32cd" stroke="#9a32cd" points="242.49,-510.7 231.89,-510.58 240.1,-517.28 242.49,-510.7"/>
<text text-anchor="middle" x="314.5" y="-559" font-family="Helvetica,sans-Serif" font-size="10.00"> itemcount</text>
</g>
<!-- Node5 -->
<g id="node5" class="node">
<title>Node5</title>
<g id="a_node5"><a xlink:title=" ">
<polygon fill="none" stroke="#bfbfbf" points="6,-425.5 6,-444.5 44,-444.5 44,-425.5 6,-425.5"/>
<text text-anchor="middle" x="25" y="-432.5" font-family="Helvetica,sans-Serif" font-size="10.00">char</text>
</a>
</g>
</g>
<!-- Node5&#45;&gt;Node1 -->
<g id="edge47" class="edge">
<title>Node5&#45;&gt;Node1</title>
<path fill="none" stroke="#9a32cd" stroke-dasharray="5,2" d="M26.9,-415.24C29.68,-362.77 39.65,-221.51 68,-186 88.39,-160.46 106.55,-172.18 136,-158 144.25,-154.03 145.29,-150.82 154,-148 221.93,-126.03 242.11,-129 313.5,-129 313.5,-129 313.5,-129 678,-129 730.74,-129 786.5,-163.31 811.08,-180.47"/>
<polygon fill="#9a32cd" stroke="#9a32cd" points="23.41,-415.12 26.41,-425.28 30.4,-415.47 23.41,-415.12"/>
<text text-anchor="middle" x="434.5" y="-154" font-family="Helvetica,sans-Serif" font-size="10.00"> directory</text>
<text text-anchor="middle" x="434.5" y="-143" font-family="Helvetica,sans-Serif" font-size="10.00">name</text>
<text text-anchor="middle" x="434.5" y="-132" font-family="Helvetica,sans-Serif" font-size="10.00">text</text>
</g>
<!-- Node5&#45;&gt;Node2 -->
<g id="edge15" class="edge">
<title>Node5&#45;&gt;Node2</title>
<path fill="none" stroke="#9a32cd" stroke-dasharray="5,2" d="M54.46,-433.55C111.81,-431.08 245.22,-427.61 356,-442 477.97,-457.84 508.98,-466.16 625,-507 636.26,-510.96 648.37,-516.6 657.96,-521.42"/>
<polygon fill="#9a32cd" stroke="#9a32cd" points="54.18,-430.06 44.35,-434.01 54.5,-437.05 54.18,-430.06"/>
<text text-anchor="middle" x="314.5" y="-489" font-family="Helvetica,sans-Serif" font-size="10.00"> item_begin</text>
<text text-anchor="middle" x="314.5" y="-478" font-family="Helvetica,sans-Serif" font-size="10.00">nextptr</text>
<text text-anchor="middle" x="314.5" y="-467" font-family="Helvetica,sans-Serif" font-size="10.00">program_ptr</text>
<text text-anchor="middle" x="314.5" y="-456" font-family="Helvetica,sans-Serif" font-size="10.00">ptr</text>
<text text-anchor="middle" x="314.5" y="-445" font-family="Helvetica,sans-Serif" font-size="10.00">string</text>
</g>
<!-- Node5&#45;&gt;Node3 -->
<g id="edge4" class="edge">
<title>Node5&#45;&gt;Node3</title>
<path fill="none" stroke="#9a32cd" stroke-dasharray="5,2" d="M32.27,-415.6C46.4,-375.76 84.98,-285.96 154,-256 243.09,-217.33 362.56,-256.91 411.35,-276.45"/>
<polygon fill="#9a32cd" stroke="#9a32cd" points="28.91,-414.62 29,-425.21 35.54,-416.88 28.91,-414.62"/>
<text text-anchor="middle" x="204.5" y="-259" font-family="Helvetica,sans-Serif" font-size="10.00"> varname</text>
</g>
<!-- Node6 -->
<g id="node6" class="node">
<title>Node6</title>
<g id="a_node6"><a xlink:href="structub__var__string.html" target="_top" xlink:title=" ">
<polygon fill="none" stroke="black" points="163,-157.5 163,-176.5 246,-176.5 246,-157.5 163,-157.5"/>
<text text-anchor="middle" x="204.5" y="-164.5" font-family="Helvetica,sans-Serif" font-size="10.00">ub_var_string</text>
</a>
</g>
</g>
<!-- Node5&#45;&gt;Node6 -->
<g id="edge6" class="edge">
<title>Node5&#45;&gt;Node6</title>
<path fill="none" stroke="#9a32cd" stroke-dasharray="5,2" d="M27,-415.37C29.94,-365.7 40.12,-236.78 68,-206 74.53,-198.79 125.22,-185.49 162.69,-176.45"/>
<polygon fill="#9a32cd" stroke="#9a32cd" points="23.5,-415.27 26.45,-425.45 30.49,-415.66 23.5,-415.27"/>
<text text-anchor="middle" x="102" y="-220" font-family="Helvetica,sans-Serif" font-size="10.00"> value</text>
<text text-anchor="middle" x="102" y="-209" font-family="Helvetica,sans-Serif" font-size="10.00">varname</text>
</g>
<!-- Node8 -->
<g id="node8" class="node">
<title>Node8</title>
<g id="a_node8"><a xlink:href="structub__var__int.html" target="_top" xlink:title=" ">
<polygon fill="none" stroke="black" points="170.5,-534.5 170.5,-553.5 238.5,-553.5 238.5,-534.5 170.5,-534.5"/>
<text text-anchor="middle" x="204.5" y="-541.5" font-family="Helvetica,sans-Serif" font-size="10.00">ub_var_int</text>
</a>
</g>
</g>
<!-- Node5&#45;&gt;Node8 -->
<g id="edge11" class="edge">
<title>Node5&#45;&gt;Node8</title>
<path fill="none" stroke="#9a32cd" stroke-dasharray="5,2" d="M47.43,-450.53C72.41,-468.31 115.21,-497.85 154,-520 162.96,-525.11 173.17,-530.19 181.98,-534.34"/>
<polygon fill="#9a32cd" stroke="#9a32cd" points="49.24,-447.52 39.08,-444.54 45.17,-453.21 49.24,-447.52"/>
<text text-anchor="middle" x="102" y="-510" font-family="Helvetica,sans-Serif" font-size="10.00"> varname</text>
</g>
<!-- Node10 -->
<g id="node10" class="node">
<title>Node10</title>
<g id="a_node10"><a xlink:href="structconsole.html" target="_top" xlink:title=" ">
<polygon fill="none" stroke="black" points="407.5,-376.5 407.5,-395.5 461.5,-395.5 461.5,-376.5 407.5,-376.5"/>
<text text-anchor="middle" x="434.5" y="-383.5" font-family="Helvetica,sans-Serif" font-size="10.00">console</text>
</a>
</g>
</g>
<!-- Node5&#45;&gt;Node10 -->
<g id="edge17" class="edge">
<title>Node5&#45;&gt;Node10</title>
<path fill="none" stroke="#9a32cd" stroke-dasharray="5,2" d="M42.54,-418.15C65.28,-396.32 108.56,-359.38 154,-345 196.8,-331.46 210.52,-338.94 255,-345 263.23,-346.12 264.95,-347.98 273,-350 320.09,-361.81 375.41,-373.81 407.27,-380.54"/>
<polygon fill="#9a32cd" stroke="#9a32cd" points="39.81,-415.93 35.13,-425.43 44.72,-420.92 39.81,-415.93"/>
<text text-anchor="middle" x="204.5" y="-370" font-family="Helvetica,sans-Serif" font-size="10.00"> buffer</text>
<text text-anchor="middle" x="204.5" y="-359" font-family="Helvetica,sans-Serif" font-size="10.00">dirty</text>
<text text-anchor="middle" x="204.5" y="-348" font-family="Helvetica,sans-Serif" font-size="10.00">internalbuffer</text>
</g>
<!-- Node14 -->
<g id="node14" class="node">
<title>Node14</title>
<g id="a_node14"><a xlink:href="structub__var__double.html" target="_top" xlink:title=" ">
<polygon fill="none" stroke="black" points="160.5,-41.5 160.5,-60.5 248.5,-60.5 248.5,-41.5 160.5,-41.5"/>
<text text-anchor="middle" x="204.5" y="-48.5" font-family="Helvetica,sans-Serif" font-size="10.00">ub_var_double</text>
</a>
</g>
</g>
<!-- Node5&#45;&gt;Node14 -->
<g id="edge24" class="edge">
<title>Node5&#45;&gt;Node14</title>
<path fill="none" stroke="#9a32cd" stroke-dasharray="5,2" d="M25.93,-415.34C26.11,-352.77 29.79,-159.57 68,-113 88.24,-88.34 106.93,-103.16 136,-90 154.99,-81.41 175.56,-69.04 188.93,-60.55"/>
<polygon fill="#9a32cd" stroke="#9a32cd" points="22.43,-415.44 25.93,-425.44 29.43,-415.44 22.43,-415.44"/>
<text text-anchor="middle" x="102" y="-116" font-family="Helvetica,sans-Serif" font-size="10.00"> varname</text>
</g>
<!-- Node5&#45;&gt;Node18 -->
<g id="edge32" class="edge">
<title>Node5&#45;&gt;Node18</title>
<path fill="none" stroke="#9a32cd" stroke-dasharray="5,2" d="M32.43,-454.09C39.31,-472.68 51.5,-501.11 68,-522 98.55,-560.67 107.92,-574.52 154,-592 235.92,-623.08 341.27,-606.85 396.28,-594.58"/>
<polygon fill="#9a32cd" stroke="#9a32cd" points="35.73,-452.9 29.09,-444.65 29.13,-455.24 35.73,-452.9"/>
<text text-anchor="middle" x="204.5" y="-612" font-family="Helvetica,sans-Serif" font-size="10.00"> varname</text>
</g>
<!-- Node19 -->
<g id="node19" class="node">
<title>Node19</title>
<g id="a_node19"><a xlink:href="structub__proc__fn__def.html" target="_top" xlink:title=" ">
<polygon fill="none" stroke="black" points="389,-859.5 389,-878.5 480,-878.5 480,-859.5 389,-859.5"/>
<text text-anchor="middle" x="434.5" y="-866.5" font-family="Helvetica,sans-Serif" font-size="10.00">ub_proc_fn_def</text>
</a>
</g>
</g>
<!-- Node5&#45;&gt;Node19 -->
<g id="edge35" class="edge">
<title>Node5&#45;&gt;Node19</title>
<path fill="none" stroke="#9a32cd" stroke-dasharray="5,2" d="M25.55,-454.76C24.44,-522.23 24.27,-742.22 68,-794 108.85,-842.38 300.47,-860.61 388.75,-866.52"/>
<polygon fill="#9a32cd" stroke="#9a32cd" points="29.05,-454.71 25.75,-444.64 22.06,-454.57 29.05,-454.71"/>
<text text-anchor="middle" x="204.5" y="-855" font-family="Helvetica,sans-Serif" font-size="10.00"> name</text>
</g>
<!-- Node21 -->
<g id="node21" class="node">
<title>Node21</title>
<g id="a_node21"><a xlink:href="structub__param.html" target="_top" xlink:title=" ">
<polygon fill="none" stroke="black" points="172,-723.5 172,-742.5 237,-742.5 237,-723.5 172,-723.5"/>
<text text-anchor="middle" x="204.5" y="-730.5" font-family="Helvetica,sans-Serif" font-size="10.00">ub_param</text>
</a>
</g>
</g>
<!-- Node5&#45;&gt;Node21 -->
<g id="edge39" class="edge">
<title>Node5&#45;&gt;Node21</title>
<path fill="none" stroke="#9a32cd" stroke-dasharray="5,2" d="M26.41,-454.71C27.97,-509.72 35.23,-663.21 68,-699 75.06,-706.71 134.13,-719.47 171.91,-726.97"/>
<polygon fill="#9a32cd" stroke="#9a32cd" points="29.91,-454.46 26.16,-444.55 22.91,-454.63 29.91,-454.46"/>
<text text-anchor="middle" x="102" y="-722" font-family="Helvetica,sans-Serif" font-size="10.00"> name</text>
</g>
<!-- Node23 -->
<g id="node23" class="node">
<title>Node23</title>
<g id="a_node23"><a xlink:href="structfor__state.html" target="_top" xlink:title=" ">
<polygon fill="none" stroke="black" points="174.5,-685.5 174.5,-704.5 234.5,-704.5 234.5,-685.5 174.5,-685.5"/>
<text text-anchor="middle" x="204.5" y="-692.5" font-family="Helvetica,sans-Serif" font-size="10.00">for_state</text>
</a>
</g>
</g>
<!-- Node5&#45;&gt;Node23 -->
<g id="edge44" class="edge">
<title>Node5&#45;&gt;Node23</title>
<path fill="none" stroke="#9a32cd" stroke-dasharray="5,2" d="M27.74,-454.98C32.02,-499.57 44.44,-605.26 68,-631 89.36,-654.33 107.29,-638.72 136,-652 156.18,-661.34 177.5,-675.8 190.65,-685.33"/>
<polygon fill="#9a32cd" stroke="#9a32cd" points="31.21,-454.46 26.81,-444.82 24.24,-455.1 31.21,-454.46"/>
<text text-anchor="middle" x="102" y="-655" font-family="Helvetica,sans-Serif" font-size="10.00"> for_variable</text>
</g>
<!-- Node6&#45;&gt;Node2 -->
<g id="edge41" class="edge">
<title>Node6&#45;&gt;Node2</title>
<path fill="none" stroke="#9a32cd" stroke-dasharray="5,2" d="M256.21,-163.57C285.62,-162.68 323.22,-163.44 356,-170 419,-182.62 583.78,-226.71 625,-276 657.29,-314.62 672.02,-479.45 675.29,-521.31"/>
<polygon fill="#9a32cd" stroke="#9a32cd" points="256.03,-160.08 246.16,-163.95 256.29,-167.07 256.03,-160.08"/>
<text text-anchor="middle" x="434.5" y="-220" font-family="Helvetica,sans-Serif" font-size="10.00"> local_string_variables</text>
<text text-anchor="middle" x="434.5" y="-209" font-family="Helvetica,sans-Serif" font-size="10.00">str_variables</text>
</g>
<!-- Node6&#45;&gt;Node3 -->
<g id="edge5" class="edge">
<title>Node6&#45;&gt;Node3</title>
<path fill="none" stroke="#9a32cd" stroke-dasharray="5,2" d="M256.37,-171.09C288.61,-176.19 329.14,-187.59 356,-213 372.85,-228.94 357.85,-245.34 374,-262 380.05,-268.24 387.93,-272.9 395.97,-276.38"/>
<polygon fill="#9a32cd" stroke="#9a32cd" points="256.62,-167.59 246.23,-169.64 255.64,-174.52 256.62,-167.59"/>
<text text-anchor="middle" x="314.5" y="-216" font-family="Helvetica,sans-Serif" font-size="10.00"> values</text>
</g>
<!-- Node6&#45;&gt;Node6 -->
<g id="edge8" class="edge">
<title>Node6&#45;&gt;Node6</title>
<path fill="none" stroke="#9a32cd" stroke-dasharray="5,2" d="M185.61,-186.4C186.87,-191.31 193.17,-195 204.5,-195 222.63,-195 227.87,-185.57 220.22,-176.76"/>
<polygon fill="#9a32cd" stroke="#9a32cd" points="188.98,-187.35 188.78,-176.76 182.33,-185.17 188.98,-187.35"/>
<text text-anchor="middle" x="204.5" y="-198" font-family="Helvetica,sans-Serif" font-size="10.00"> next</text>
</g>
<!-- Node7 -->
<g id="node7" class="node">
<title>Node7</title>
<g id="a_node7"><a xlink:title=" ">
<polygon fill="none" stroke="#bfbfbf" points="6,-68.5 6,-87.5 44,-87.5 44,-68.5 6,-68.5"/>
<text text-anchor="middle" x="25" y="-75.5" font-family="Helvetica,sans-Serif" font-size="10.00">bool</text>
</a>
</g>
</g>
<!-- Node7&#45;&gt;Node6 -->
<g id="edge7" class="edge">
<title>Node7&#45;&gt;Node6</title>
<path fill="none" stroke="#9a32cd" stroke-dasharray="5,2" d="M54.17,-71.73C77.38,-68.05 110.51,-66.28 136,-79 140.35,-81.17 179.86,-134.71 196.34,-157.2"/>
<polygon fill="#9a32cd" stroke="#9a32cd" points="53.48,-68.3 44.26,-73.52 54.73,-75.19 53.48,-68.3"/>
<text text-anchor="middle" x="102" y="-82" font-family="Helvetica,sans-Serif" font-size="10.00"> global</text>
</g>
<!-- Node7&#45;&gt;Node8 -->
<g id="edge13" class="edge">
<title>Node7&#45;&gt;Node8</title>
<path fill="none" stroke="#9a32cd" stroke-dasharray="5,2" d="M40.34,-95.78C48.04,-104.76 57.99,-115.53 68,-124 95.47,-147.26 118,-136.83 136,-168 175.18,-235.82 110.74,-454.71 154,-520 158.17,-526.29 164.48,-530.98 171.21,-534.47"/>
<polygon fill="#9a32cd" stroke="#9a32cd" points="42.81,-93.27 33.72,-87.84 37.44,-97.76 42.81,-93.27"/>
<text text-anchor="middle" x="102" y="-171" font-family="Helvetica,sans-Serif" font-size="10.00"> global</text>
</g>
<!-- Node7&#45;&gt;Node14 -->
<g id="edge26" class="edge">
<title>Node7&#45;&gt;Node14</title>
<path fill="none" stroke="#9a32cd" stroke-dasharray="5,2" d="M42.14,-61.16C49.37,-54.81 58.43,-48.31 68,-45 98.49,-34.46 135.15,-36.92 162.65,-41.48"/>
<polygon fill="#9a32cd" stroke="#9a32cd" points="39.4,-58.94 34.57,-68.37 44.23,-64.01 39.4,-58.94"/>
<text text-anchor="middle" x="102" y="-48" font-family="Helvetica,sans-Serif" font-size="10.00"> global</text>
</g>
<!-- Node8&#45;&gt;Node2 -->
<g id="edge9" class="edge">
<title>Node8&#45;&gt;Node2</title>
<path fill="none" stroke="#9a32cd" stroke-dasharray="5,2" d="M249.05,-545.48C257.02,-545.7 265.26,-545.89 273,-546 309.88,-546.55 319.17,-548.04 356,-546 364.04,-545.55 365.97,-544.62 374,-544 471.58,-536.49 587.27,-533.02 642.89,-531.69"/>
<polygon fill="#9a32cd" stroke="#9a32cd" points="248.9,-541.97 238.8,-545.18 248.69,-548.97 248.9,-541.97"/>
<text text-anchor="middle" x="434.5" y="-558" font-family="Helvetica,sans-Serif" font-size="10.00"> int_variables</text>
<text text-anchor="middle" x="434.5" y="-547" font-family="Helvetica,sans-Serif" font-size="10.00">local_int_variables</text>
</g>
<!-- Node8&#45;&gt;Node8 -->
<g id="edge10" class="edge">
<title>Node8&#45;&gt;Node8</title>
<path fill="none" stroke="#9a32cd" stroke-dasharray="5,2" d="M185.61,-563.4C186.87,-568.31 193.17,-572 204.5,-572 222.63,-572 227.87,-562.57 220.22,-553.76"/>
<polygon fill="#9a32cd" stroke="#9a32cd" points="188.98,-564.35 188.78,-553.76 182.33,-562.17 188.98,-564.35"/>
<text text-anchor="middle" x="204.5" y="-575" font-family="Helvetica,sans-Serif" font-size="10.00"> next</text>
</g>
<!-- Node8&#45;&gt;Node18 -->
<g id="edge30" class="edge">
<title>Node8&#45;&gt;Node18</title>
<path fill="none" stroke="#9a32cd" stroke-dasharray="5,2" d="M234.38,-557.72C246.11,-562.71 259.95,-567.89 273,-571 310.01,-579.81 352.99,-583.21 385.16,-584.46"/>
<polygon fill="#9a32cd" stroke="#9a32cd" points="235.64,-554.45 225.08,-553.62 232.82,-560.86 235.64,-554.45"/>
<text text-anchor="middle" x="314.5" y="-585" font-family="Helvetica,sans-Serif" font-size="10.00"> values</text>
</g>
<!-- Node9 -->
<g id="node9" class="node">
<title>Node9</title>
<g id="a_node9"><a xlink:title=" ">
<polygon fill="none" stroke="#bfbfbf" points="0,-789.5 0,-808.5 50,-808.5 50,-789.5 0,-789.5"/>
<text text-anchor="middle" x="25" y="-796.5" font-family="Helvetica,sans-Serif" font-size="10.00">int64_t</text>
</a>
</g>
</g>
<!-- Node9&#45;&gt;Node2 -->
<g id="edge20" class="edge">
<title>Node9&#45;&gt;Node2</title>
<path fill="none" stroke="#9a32cd" stroke-dasharray="5,2" d="M59.7,-810.83C85.22,-819.08 121.33,-829.25 154,-833 305.77,-850.42 616.88,-801.45 625,-794 663.39,-758.79 673.65,-583.84 675.61,-540.65"/>
<polygon fill="#9a32cd" stroke="#9a32cd" points="60.72,-807.48 50.13,-807.67 58.53,-814.13 60.72,-807.48"/>
<text text-anchor="middle" x="314.5" y="-849" font-family="Helvetica,sans-Serif" font-size="10.00"> current_linenum</text>
<text text-anchor="middle" x="314.5" y="-838" font-family="Helvetica,sans-Serif" font-size="10.00">eval_linenum</text>
</g>
<!-- Node9&#45;&gt;Node8 -->
<g id="edge12" class="edge">
<title>Node9&#45;&gt;Node8</title>
<path fill="none" stroke="#9a32cd" stroke-dasharray="5,2" d="M28.26,-779.55C32.14,-754.95 42.29,-712.82 68,-688 90.96,-665.85 114.21,-688.31 136,-665 157.35,-642.16 138.87,-624.36 154,-597 163.62,-579.59 180.22,-563.48 191.52,-553.7"/>
<polygon fill="#9a32cd" stroke="#9a32cd" points="24.79,-779.11 26.89,-789.5 31.73,-780.07 24.79,-779.11"/>
<text text-anchor="middle" x="102" y="-691" font-family="Helvetica,sans-Serif" font-size="10.00"> value</text>
</g>
<!-- Node9&#45;&gt;Node19 -->
<g id="edge36" class="edge">
<title>Node9&#45;&gt;Node19</title>
<path fill="none" stroke="#9a32cd" stroke-dasharray="5,2" d="M35.72,-818.04C43.19,-831.3 54.51,-848.73 68,-861 100.23,-890.3 111.8,-897.22 154,-908 241.05,-930.24 268.51,-920.46 356,-900 376.6,-895.18 398.91,-885.78 414.28,-878.58"/>
<polygon fill="#9a32cd" stroke="#9a32cd" points="38.6,-816.02 30.78,-808.87 32.44,-819.33 38.6,-816.02"/>
<text text-anchor="middle" x="204.5" y="-923" font-family="Helvetica,sans-Serif" font-size="10.00"> line</text>
</g>
<!-- Node9&#45;&gt;Node23 -->
<g id="edge45" class="edge">
<title>Node9&#45;&gt;Node23</title>
<path fill="none" stroke="#9a32cd" stroke-dasharray="5,2" d="M54.24,-784.82C77.31,-772.61 110.2,-753.71 136,-733 145.07,-725.72 144.33,-720.47 154,-714 160.2,-709.86 167.43,-706.43 174.42,-703.69"/>
<polygon fill="#9a32cd" stroke="#9a32cd" points="52.56,-781.75 45.31,-789.48 55.79,-787.96 52.56,-781.75"/>
<text text-anchor="middle" x="102" y="-801" font-family="Helvetica,sans-Serif" font-size="10.00"> line_after_for</text>
<text text-anchor="middle" x="102" y="-790" font-family="Helvetica,sans-Serif" font-size="10.00">step</text>
<text text-anchor="middle" x="102" y="-779" font-family="Helvetica,sans-Serif" font-size="10.00">to</text>
</g>
<!-- Node10&#45;&gt;Node1 -->
<g id="edge48" class="edge">
<title>Node10&#45;&gt;Node1</title>
<path fill="none" stroke="#9a32cd" stroke-dasharray="5,2" d="M471.46,-381.1C480.24,-378.28 488.86,-373.88 495,-367 522.45,-336.24 484.86,-306.13 513,-276 596.9,-186.18 662.08,-238.64 780,-204 785.69,-202.33 791.77,-200.45 797.53,-198.63"/>
<polygon fill="#9a32cd" stroke="#9a32cd" points="470.41,-377.76 461.61,-383.65 472.16,-384.53 470.41,-377.76"/>
<text text-anchor="middle" x="677" y="-221" font-family="Helvetica,sans-Serif" font-size="10.00"> cons</text>
</g>
<!-- Node10&#45;&gt;Node2 -->
<g id="edge16" class="edge">
<title>Node10&#45;&gt;Node2</title>
<path fill="none" stroke="#9a32cd" stroke-dasharray="5,2" d="M471.69,-379.61C513.02,-374.43 580.62,-372.66 625,-406 663.23,-434.72 672.92,-497.04 675.27,-521.18"/>
<polygon fill="#9a32cd" stroke="#9a32cd" points="471.21,-376.14 461.78,-380.98 472.17,-383.08 471.21,-376.14"/>
<text text-anchor="middle" x="569" y="-409" font-family="Helvetica,sans-Serif" font-size="10.00"> cons</text>
</g>
<!-- Node11 -->
<g id="node11" class="node">
<title>Node11</title>
<g id="a_node11"><a xlink:title=" ">
<polygon fill="none" stroke="#bfbfbf" points="182,-387.5 182,-406.5 227,-406.5 227,-387.5 182,-387.5"/>
<text text-anchor="middle" x="204.5" y="-394.5" font-family="Helvetica,sans-Serif" font-size="10.00">size_t</text>
</a>
</g>
</g>
<!-- Node11&#45;&gt;Node10 -->
<g id="edge18" class="edge">
<title>Node11&#45;&gt;Node10</title>
<path fill="none" stroke="#9a32cd" stroke-dasharray="5,2" d="M237.53,-395.45C282.93,-393.26 365.14,-389.3 407.19,-387.27"/>
<polygon fill="#9a32cd" stroke="#9a32cd" points="237.18,-391.97 227.36,-395.95 237.52,-398.96 237.18,-391.97"/>
<text text-anchor="middle" x="314.5" y="-396" font-family="Helvetica,sans-Serif" font-size="10.00"> bufcnt</text>
</g>
<!-- Node12 -->
<g id="node12" class="node">
<title>Node12</title>
<g id="a_node12"><a xlink:title=" ">
<polygon fill="none" stroke="#bfbfbf" points="179.5,-276.5 179.5,-295.5 229.5,-295.5 229.5,-276.5 179.5,-276.5"/>
<text text-anchor="middle" x="204.5" y="-283.5" font-family="Helvetica,sans-Serif" font-size="10.00">uint8_t</text>
</a>
</g>
</g>
<!-- Node12&#45;&gt;Node1 -->
<g id="edge50" class="edge">
<title>Node12&#45;&gt;Node1</title>
<path fill="none" stroke="#9a32cd" stroke-dasharray="5,2" d="M239.48,-276.78C244.74,-275.05 250.07,-273.11 255,-271 261.98,-268.02 366.69,-206.04 374,-204 529.85,-160.54 727.88,-178.21 797.98,-186.57"/>
<polygon fill="#9a32cd" stroke="#9a32cd" points="238.06,-273.56 229.54,-279.86 240.13,-280.24 238.06,-273.56"/>
<text text-anchor="middle" x="569" y="-183" font-family="Helvetica,sans-Serif" font-size="10.00"> cpu</text>
</g>
<!-- Node12&#45;&gt;Node10 -->
<g id="edge19" class="edge">
<title>Node12&#45;&gt;Node10</title>
<path fill="none" stroke="#9a32cd" stroke-dasharray="5,2" d="M239.9,-286.34C278.84,-287.43 339.07,-291.51 356,-306 377.47,-324.38 354.23,-346.79 374,-367 382.8,-375.99 395.84,-380.74 407.47,-383.24"/>
<polygon fill="#9a32cd" stroke="#9a32cd" points="239.61,-282.83 229.53,-286.1 239.45,-289.83 239.61,-282.83"/>
<text text-anchor="middle" x="314.5" y="-342" font-family="Helvetica,sans-Serif" font-size="10.00"> attributes</text>
<text text-anchor="middle" x="314.5" y="-331" font-family="Helvetica,sans-Serif" font-size="10.00">last</text>
<text text-anchor="middle" x="314.5" y="-320" font-family="Helvetica,sans-Serif" font-size="10.00">x</text>
<text text-anchor="middle" x="314.5" y="-309" font-family="Helvetica,sans-Serif" font-size="10.00">y</text>
</g>
<!-- Node13 -->
<g id="node13" class="node">
<title>Node13</title>
<g id="a_node13"><a xlink:title=" ">
<polygon fill="none" stroke="#bfbfbf" points="409.5,-736.5 409.5,-755.5 459.5,-755.5 459.5,-736.5 409.5,-736.5"/>
<text text-anchor="middle" x="434.5" y="-743.5" font-family="Helvetica,sans-Serif" font-size="10.00">int32_t</text>
</a>
</g>
</g>
<!-- Node13&#45;&gt;Node2 -->
<g id="edge21" class="edge">
<title>Node13&#45;&gt;Node2</title>
<path fill="none" stroke="#9a32cd" stroke-dasharray="5,2" d="M469.8,-752.55C511.64,-758.43 582.08,-761.19 625,-724 653.55,-699.26 670.46,-576.7 674.85,-540.86"/>
<polygon fill="#9a32cd" stroke="#9a32cd" points="470.23,-749.08 459.81,-751.01 469.16,-756 470.23,-749.08"/>
<text text-anchor="middle" x="569" y="-759" font-family="Helvetica,sans-Serif" font-size="10.00"> graphics_colour</text>
</g>
<!-- Node14&#45;&gt;Node2 -->
<g id="edge22" class="edge">
<title>Node14&#45;&gt;Node2</title>
<path fill="none" stroke="#9a32cd" stroke-dasharray="5,2" d="M258.75,-46.25C353.14,-41.21 547.2,-46.91 625,-168 644.78,-198.79 670.18,-467.26 675.14,-521.48"/>
<polygon fill="#9a32cd" stroke="#9a32cd" points="258.34,-42.77 248.56,-46.86 258.75,-49.75 258.34,-42.77"/>
<text text-anchor="middle" x="434.5" y="-86" font-family="Helvetica,sans-Serif" font-size="10.00"> double_variables</text>
<text text-anchor="middle" x="434.5" y="-75" font-family="Helvetica,sans-Serif" font-size="10.00">local_double_variables</text>
</g>
<!-- Node14&#45;&gt;Node14 -->
<g id="edge25" class="edge">
<title>Node14&#45;&gt;Node14</title>
<path fill="none" stroke="#9a32cd" stroke-dasharray="5,2" d="M185.61,-70.4C186.87,-75.31 193.17,-79 204.5,-79 222.63,-79 227.87,-69.57 220.22,-60.76"/>
<polygon fill="#9a32cd" stroke="#9a32cd" points="188.98,-71.35 188.78,-60.76 182.33,-69.17 188.98,-71.35"/>
<text text-anchor="middle" x="204.5" y="-82" font-family="Helvetica,sans-Serif" font-size="10.00"> next</text>
</g>
<!-- Node15 -->
<g id="node15" class="node">
<title>Node15</title>
<g id="a_node15"><a xlink:title=" ">
<polygon fill="none" stroke="#bfbfbf" points="0,-0.5 0,-19.5 50,-19.5 50,-0.5 0,-0.5"/>
<text text-anchor="middle" x="25" y="-7.5" font-family="Helvetica,sans-Serif" font-size="10.00">double</text>
</a>
</g>
</g>
<!-- Node15&#45;&gt;Node14 -->
<g id="edge23" class="edge">
<title>Node15&#45;&gt;Node14</title>
<path fill="none" stroke="#9a32cd" stroke-dasharray="5,2" d="M60.54,-11.64C82.44,-13.27 111.22,-16.53 136,-23 152.94,-27.42 171.23,-35.21 184.49,-41.46"/>
<polygon fill="#9a32cd" stroke="#9a32cd" points="60.6,-8.13 50.39,-10.96 60.13,-15.12 60.6,-8.13"/>
<text text-anchor="middle" x="102" y="-26" font-family="Helvetica,sans-Serif" font-size="10.00"> value</text>
</g>
<!-- Node16 -->
<g id="node16" class="node">
<title>Node16</title>
<g id="a_node16"><a xlink:title=" ">
<polygon fill="none" stroke="#bfbfbf" points="420,-651.5 420,-670.5 449,-670.5 449,-651.5 420,-651.5"/>
<text text-anchor="middle" x="434.5" y="-658.5" font-family="Helvetica,sans-Serif" font-size="10.00">int</text>
</a>
</g>
</g>
<!-- Node16&#45;&gt;Node2 -->
<g id="edge27" class="edge">
<title>Node16&#45;&gt;Node2</title>
<path fill="none" stroke="#9a32cd" stroke-dasharray="5,2" d="M459.2,-654.35C470.23,-651.02 483.43,-646.71 495,-642 503.28,-638.63 504.55,-635.92 513,-633 561.02,-616.38 583.06,-638.69 625,-610 650.6,-592.49 666.29,-557.45 672.68,-540.55"/>
<polygon fill="#9a32cd" stroke="#9a32cd" points="458.03,-651.05 449.42,-657.22 460,-657.76 458.03,-651.05"/>
<text text-anchor="middle" x="569" y="-691" font-family="Helvetica,sans-Serif" font-size="10.00"> bracket_depth</text>
<text text-anchor="middle" x="569" y="-680" font-family="Helvetica,sans-Serif" font-size="10.00">current_token</text>
<text text-anchor="middle" x="569" y="-669" font-family="Helvetica,sans-Serif" font-size="10.00">ended</text>
<text text-anchor="middle" x="569" y="-658" font-family="Helvetica,sans-Serif" font-size="10.00">errored</text>
<text text-anchor="middle" x="569" y="-647" font-family="Helvetica,sans-Serif" font-size="10.00">gosub_stack</text>
<text text-anchor="middle" x="569" y="-636" font-family="Helvetica,sans-Serif" font-size="10.00">oldlen</text>
</g>
<!-- Node17 -->
<g id="node17" class="node">
<title>Node17</title>
<g id="a_node17"><a xlink:title=" ">
<polygon fill="none" stroke="#bfbfbf" points="374,-613.5 374,-632.5 495,-632.5 495,-613.5 374,-613.5"/>
<text text-anchor="middle" x="434.5" y="-620.5" font-family="Helvetica,sans-Serif" font-size="10.00">enum ub_return_type</text>
</a>
</g>
</g>
<!-- Node17&#45;&gt;Node2 -->
<g id="edge28" class="edge">
<title>Node17&#45;&gt;Node2</title>
<path fill="none" stroke="#9a32cd" stroke-dasharray="5,2" d="M475.08,-610.36C490.15,-605.62 505.5,-600.93 513,-599 562.22,-586.36 579.53,-598.69 625,-576 642.54,-567.25 658.78,-550.93 668.03,-540.53"/>
<polygon fill="#9a32cd" stroke="#9a32cd" points="473.78,-607.1 465.3,-613.44 475.89,-613.77 473.78,-607.1"/>
<text text-anchor="middle" x="569" y="-602" font-family="Helvetica,sans-Serif" font-size="10.00"> fn_type</text>
</g>
<!-- Node18&#45;&gt;Node2 -->
<g id="edge29" class="edge">
<title>Node18&#45;&gt;Node2</title>
<path fill="none" stroke="#9a32cd" stroke-dasharray="5,2" d="M480.77,-572.91C491.33,-570.21 502.54,-567.42 513,-565 562.51,-553.54 575.27,-552.47 625,-542 630.76,-540.79 636.88,-539.48 642.82,-538.21"/>
<polygon fill="#9a32cd" stroke="#9a32cd" points="479.71,-569.57 470.9,-575.47 481.46,-576.35 479.71,-569.57"/>
<text text-anchor="middle" x="569" y="-568" font-family="Helvetica,sans-Serif" font-size="10.00"> int_array_variables</text>
</g>
<!-- Node19&#45;&gt;Node2 -->
<g id="edge33" class="edge">
<title>Node19&#45;&gt;Node2</title>
<path fill="none" stroke="#9a32cd" stroke-dasharray="5,2" d="M490.36,-877.74C532.79,-881.16 590.01,-877.94 625,-844 669.75,-800.58 675.24,-588.97 675.91,-540.78"/>
<polygon fill="#9a32cd" stroke="#9a32cd" points="490.48,-874.24 480.19,-876.78 489.81,-881.21 490.48,-874.24"/>
<text text-anchor="middle" x="569" y="-881" font-family="Helvetica,sans-Serif" font-size="10.00"> defs</text>
</g>
<!-- Node19&#45;&gt;Node19 -->
<g id="edge37" class="edge">
<title>Node19&#45;&gt;Node19</title>
<path fill="none" stroke="#9a32cd" stroke-dasharray="5,2" d="M412.18,-888.03C413.4,-893.13 420.84,-897 434.5,-897 455.83,-897 461.99,-887.57 453,-878.76"/>
<polygon fill="#9a32cd" stroke="#9a32cd" points="415.43,-889.34 416,-878.76 408.95,-886.67 415.43,-889.34"/>
<text text-anchor="middle" x="434.5" y="-900" font-family="Helvetica,sans-Serif" font-size="10.00"> next</text>
</g>
<!-- Node20 -->
<g id="node20" class="node">
<title>Node20</title>
<g id="a_node20"><a xlink:title=" ">
<polygon fill="none" stroke="#bfbfbf" points="154,-879.5 154,-898.5 255,-898.5 255,-879.5 154,-879.5"/>
<text text-anchor="middle" x="204.5" y="-886.5" font-family="Helvetica,sans-Serif" font-size="10.00">enum ub_fn_type</text>
</a>
</g>
</g>
<!-- Node20&#45;&gt;Node19 -->
<g id="edge34" class="edge">
<title>Node20&#45;&gt;Node19</title>
<path fill="none" stroke="#9a32cd" stroke-dasharray="5,2" d="M265.34,-885.88C292.97,-884.22 326.19,-881.91 356,-879 366.67,-877.96 378.13,-876.61 388.88,-875.24"/>
<polygon fill="#9a32cd" stroke="#9a32cd" points="264.82,-882.4 255.05,-886.48 265.23,-889.39 264.82,-882.4"/>
<text text-anchor="middle" x="314.5" y="-888" font-family="Helvetica,sans-Serif" font-size="10.00"> type</text>
</g>
<!-- Node21&#45;&gt;Node2 -->
<g id="edge46" class="edge">
<title>Node21&#45;&gt;Node2</title>
<path fill="none" stroke="#9a32cd" stroke-dasharray="5,2" d="M246.78,-743.77C340.92,-767.24 567.77,-817.35 625,-771 661.83,-741.18 673.16,-581.9 675.5,-540.72"/>
<polygon fill="#9a32cd" stroke="#9a32cd" points="247.59,-740.36 237.03,-741.31 245.88,-747.15 247.59,-740.36"/>
<text text-anchor="middle" x="434.5" y="-790" font-family="Helvetica,sans-Serif" font-size="10.00"> param</text>
</g>
<!-- Node21&#45;&gt;Node19 -->
<g id="edge38" class="edge">
<title>Node21&#45;&gt;Node19</title>
<path fill="none" stroke="#9a32cd" stroke-dasharray="5,2" d="M226.89,-748.52C239.75,-757.28 256.73,-767.86 273,-775 308.05,-790.38 322.52,-779.45 356,-798 385.37,-814.27 412.56,-843.83 425.53,-859.17"/>
<polygon fill="#9a32cd" stroke="#9a32cd" points="228.53,-745.4 218.33,-742.55 224.52,-751.14 228.53,-745.4"/>
<text text-anchor="middle" x="314.5" y="-801" font-family="Helvetica,sans-Serif" font-size="10.00"> params</text>
</g>
<!-- Node21&#45;&gt;Node21 -->
<g id="edge40" class="edge">
<title>Node21&#45;&gt;Node21</title>
<path fill="none" stroke="#9a32cd" stroke-dasharray="5,2" d="M185.61,-752.4C186.87,-757.31 193.17,-761 204.5,-761 222.63,-761 227.87,-751.57 220.22,-742.76"/>
<polygon fill="#9a32cd" stroke="#9a32cd" points="188.98,-753.35 188.78,-742.76 182.33,-751.17 188.98,-753.35"/>
<text text-anchor="middle" x="204.5" y="-764" font-family="Helvetica,sans-Serif" font-size="10.00"> next</text>
</g>
<!-- Node22 -->
<g id="node22" class="node">
<title>Node22</title>
<g id="a_node22"><a xlink:title=" ">
<polygon fill="none" stroke="#bfbfbf" points="411.5,-338.5 411.5,-357.5 457.5,-357.5 457.5,-338.5 411.5,-338.5"/>
<text text-anchor="middle" x="434.5" y="-345.5" font-family="Helvetica,sans-Serif" font-size="10.00">void *</text>
</a>
</g>
</g>
<!-- Node22&#45;&gt;Node2 -->
<g id="edge42" class="edge">
<title>Node22&#45;&gt;Node2</title>
<path fill="none" stroke="#9a32cd" stroke-dasharray="5,2" d="M467.67,-340.11C508.84,-332.04 580.2,-325.22 625,-361 676.04,-401.77 677.52,-491.6 676.52,-521.27"/>
<polygon fill="#9a32cd" stroke="#9a32cd" points="466.71,-336.73 457.64,-342.21 468.14,-343.58 466.71,-336.73"/>
<text text-anchor="middle" x="569" y="-364" font-family="Helvetica,sans-Serif" font-size="10.00"> fn_return</text>
</g>
<!-- Node23&#45;&gt;Node2 -->
<g id="edge43" class="edge">
<title>Node23&#45;&gt;Node2</title>
<path fill="none" stroke="#9a32cd" stroke-dasharray="5,2" d="M244.85,-698.03C343.39,-705.25 594.98,-721.26 625,-699 676.91,-660.51 677.82,-570.56 676.6,-540.77"/>
<polygon fill="#9a32cd" stroke="#9a32cd" points="244.94,-694.53 234.71,-697.28 244.42,-701.51 244.94,-694.53"/>
<text text-anchor="middle" x="434.5" y="-713" font-family="Helvetica,sans-Serif" font-size="10.00"> for_stack</text>
</g>
<!-- Node24 -->
<g id="node24" class="node">
<title>Node24</title>
<g id="a_node24"><a xlink:title=" ">
<polygon fill="none" stroke="#bfbfbf" points="649,-16.5 649,-35.5 705,-35.5 705,-16.5 649,-16.5"/>
<text text-anchor="middle" x="677" y="-23.5" font-family="Helvetica,sans-Serif" font-size="10.00">uint32_t</text>
</a>
</g>
</g>
<!-- Node24&#45;&gt;Node1 -->
<g id="edge49" class="edge">
<title>Node24&#45;&gt;Node1</title>
<path fill="none" stroke="#9a32cd" stroke-dasharray="5,2" d="M715.11,-16.17C736.21,-12.88 761.94,-13.03 780,-27 804.92,-46.28 819.02,-148.15 822.89,-180.28"/>
<polygon fill="#9a32cd" stroke="#9a32cd" points="714.37,-12.74 705.17,-18.01 715.65,-19.63 714.37,-12.74"/>
<text text-anchor="middle" x="754.5" y="-107" font-family="Helvetica,sans-Serif" font-size="10.00"> gid</text>
<text text-anchor="middle" x="754.5" y="-96" font-family="Helvetica,sans-Serif" font-size="10.00">pid</text>
<text text-anchor="middle" x="754.5" y="-85" font-family="Helvetica,sans-Serif" font-size="10.00">ppid</text>
<text text-anchor="middle" x="754.5" y="-74" font-family="Helvetica,sans-Serif" font-size="10.00">size</text>
<text text-anchor="middle" x="754.5" y="-63" font-family="Helvetica,sans-Serif" font-size="10.00">start_time</text>
<text text-anchor="middle" x="754.5" y="-52" font-family="Helvetica,sans-Serif" font-size="10.00">state</text>
<text text-anchor="middle" x="754.5" y="-41" font-family="Helvetica,sans-Serif" font-size="10.00">uid</text>
<text text-anchor="middle" x="754.5" y="-30" font-family="Helvetica,sans-Serif" font-size="10.00">waitpid</text>
</g>
</g>
</svg>
        <g id="navigator" transform="translate(0 0)" fill="#404254">
                <rect fill="#f2f5e9" fill-opacity="0.5" stroke="#606060" stroke-width=".5" x="0" y="0" width="60" height="60"/>
                <use id="zoomplus" xlink:href="#zoomPlus" x="17" y="9" onmousedown="handleZoom(evt,'in')"/>
                <use id="zoomminus" xlink:href="#zoomMin" x="42" y="9" onmousedown="handleZoom(evt,'out')"/>
                <use id="reset" xlink:href="#resetDef" x="30" y="36" onmousedown="handleReset()"/>
                <g id="arrowUp" xlink:href="#dirArrow" transform="translate(30 24)" onmousedown="handlePan(0,-1)">
                  <use xlink:href="#rim" fill="#404040">
                        <set attributeName="fill" to="#808080" begin="arrowUp.mouseover" end="arrowUp.mouseout"/>
                  </use>
                  <path fill="none" stroke="white" stroke-width="1.5" d="M0,-3.0v7 M-2.5,-0.5L0,-3.0L2.5,-0.5"/>
                </g>
                <g id="arrowRight" xlink:href="#dirArrow" transform="rotate(90) translate(36 -43)" onmousedown="handlePan(1,0)">
                  <use xlink:href="#rim" fill="#404040">
                        <set attributeName="fill" to="#808080" begin="arrowRight.mouseover" end="arrowRight.mouseout"/>
                  </use>
                  <path fill="none" stroke="white" stroke-width="1.5" d="M0,-3.0v7 M-2.5,-0.5L0,-3.0L2.5,-0.5"/>
                </g>
                <g id="arrowDown" xlink:href="#dirArrow" transform="rotate(180) translate(-30 -48)" onmousedown="handlePan(0,1)">
                  <use xlink:href="#rim" fill="#404040">
                        <set attributeName="fill" to="#808080" begin="arrowDown.mouseover" end="arrowDown.mouseout"/>
                  </use>
                  <path fill="none" stroke="white" stroke-width="1.5" d="M0,-3.0v7 M-2.5,-0.5L0,-3.0L2.5,-0.5"/>
                </g>
                <g id="arrowLeft" xlink:href="#dirArrow" transform="rotate(270) translate(-36 17)" onmousedown="handlePan(-1,0)">
                  <use xlink:href="#rim" fill="#404040">
                        <set attributeName="fill" to="#808080" begin="arrowLeft.mouseover" end="arrowLeft.mouseout"/>
                  </use>
                  <path fill="none" stroke="white" stroke-width="1.5" d="M0,-3.0v7 M-2.5,-0.5L0,-3.0L2.5,-0.5"/>
                </g>
        </g>
        <svg viewBox="0 0 15 15" width="100%" height="30px" preserveAspectRatio="xMaxYMin meet">
         <g id="arrow_out" transform="scale(0.3 0.3)">
          <a xlink:href="structprocess__coll__graph_org.svg" target="_base">
           <rect id="button" ry="5" rx="5" y="6" x="6" height="38" width="38"
                fill="#f2f5e9" fill-opacity="0.5" stroke="#606060" stroke-width="1.0"/>
           <path id="arrow"
             d="M 11.500037,31.436501 C 11.940474,20.09759 22.043105,11.32322 32.158766,21.979434 L 37.068811,17.246167 C 37.068811,17.246167 37.088388,32 37.088388,32 L 22.160133,31.978069 C 22.160133,31.978069 26.997745,27.140456 26.997745,27.140456 C 18.528582,18.264221 13.291696,25.230495 11.500037,31.436501 z"
             style="fill:#404040;"/>
          </a>
         </g>
        </svg>
</svg>
