<?xml version="1.0" encoding="UTF-8" standalone="no"?>
<!DOCTYPE svg PUBLIC "-//W3C//DTD SVG 1.1//EN"
 "http://www.w3.org/Graphics/SVG/1.1/DTD/svg11.dtd">
<!-- Generated by graphviz version 2.43.0 (0)
 -->
<!-- Title: tcp_segment Pages: 1 -->
<svg width="350pt" height="318pt"
 viewBox="0.00 0.00 350.00 318.00" xmlns="http://www.w3.org/2000/svg" xmlns:xlink="http://www.w3.org/1999/xlink">
<g id="graph0" class="graph" transform="scale(1 1) rotate(0) translate(4 314)">
<title>tcp_segment</title>
<!-- Node1 -->
<g id="node1" class="node">
<title>Node1</title>
<g id="a_node1"><a xlink:title=" ">
<polygon fill="#bfbfbf" stroke="black" points="164,-0.5 164,-19.5 244,-19.5 244,-0.5 164,-0.5"/>
<text text-anchor="middle" x="204" y="-7.5" font-family="Helvetica,sans-Serif" font-size="10.00">tcp_segment</text>
</a>
</g>
</g>
<!-- Node2 -->
<g id="node2" class="node">
<title>Node2</title>
<g id="a_node2"><a xlink:title=" ">
<polygon fill="none" stroke="#bfbfbf" points="0,-112.5 0,-131.5 56,-131.5 56,-112.5 0,-112.5"/>
<text text-anchor="middle" x="28" y="-119.5" font-family="Helvetica,sans-Serif" font-size="10.00">uint16_t</text>
</a>
</g>
</g>
<!-- Node2&#45;&gt;Node1 -->
<g id="edge1" class="edge">
<title>Node2&#45;&gt;Node1</title>
<path fill="none" stroke="#9a32cd" stroke-dasharray="5,2" d="M35.51,-102.97C44.45,-83.82 61.2,-54.15 85,-38 108.23,-22.24 139.29,-15.56 163.85,-12.79"/>
<polygon fill="#9a32cd" stroke="#9a32cd" points="32.2,-101.81 31.36,-112.37 38.6,-104.64 32.2,-101.81"/>
<text text-anchor="middle" x="116.5" y="-85" font-family="Helvetica,sans-Serif" font-size="10.00"> checksum</text>
<text text-anchor="middle" x="116.5" y="-74" font-family="Helvetica,sans-Serif" font-size="10.00">dst_port</text>
<text text-anchor="middle" x="116.5" y="-63" font-family="Helvetica,sans-Serif" font-size="10.00">src_port</text>
<text text-anchor="middle" x="116.5" y="-52" font-family="Helvetica,sans-Serif" font-size="10.00">urgent</text>
<text text-anchor="middle" x="116.5" y="-41" font-family="Helvetica,sans-Serif" font-size="10.00">window_size</text>
</g>
<!-- Node3 -->
<g id="node3" class="node">
<title>Node3</title>
<g id="a_node3"><a xlink:href="uniontcp__segment__flags__t.html" target="_top" xlink:title=" ">
<polygon fill="none" stroke="black" points="74.5,-112.5 74.5,-131.5 191.5,-131.5 191.5,-112.5 74.5,-112.5"/>
<text text-anchor="middle" x="133" y="-119.5" font-family="Helvetica,sans-Serif" font-size="10.00">tcp_segment_flags_t</text>
</a>
</g>
</g>
<!-- Node3&#45;&gt;Node1 -->
<g id="edge2" class="edge">
<title>Node3&#45;&gt;Node1</title>
<path fill="none" stroke="#9a32cd" stroke-dasharray="5,2" d="M144,-103.96C159.39,-80.12 186.76,-37.71 198.45,-19.59"/>
<polygon fill="#9a32cd" stroke="#9a32cd" points="141.05,-102.07 138.57,-112.37 146.93,-105.86 141.05,-102.07"/>
<text text-anchor="middle" x="197.5" y="-63" font-family="Helvetica,sans-Serif" font-size="10.00"> flags</text>
</g>
<!-- Node4 -->
<g id="node4" class="node">
<title>Node4</title>
<g id="a_node4"><a xlink:title=" ">
<polygon fill="none" stroke="#bfbfbf" points="73,-290.5 73,-309.5 171,-309.5 171,-290.5 73,-290.5"/>
<text text-anchor="middle" x="122" y="-297.5" font-family="Helvetica,sans-Serif" font-size="10.00">anonymous:@12</text>
</a>
</g>
</g>
<!-- Node4&#45;&gt;Node3 -->
<g id="edge3" class="edge">
<title>Node4&#45;&gt;Node3</title>
<path fill="none" stroke="#9a32cd" stroke-dasharray="5,2" d="M120.13,-280.15C117.76,-251.85 114.91,-196.81 123,-151 124.19,-144.29 126.81,-137.06 129.07,-131.62"/>
<polygon fill="#9a32cd" stroke="#9a32cd" points="116.65,-280.59 121.05,-290.23 123.62,-279.96 116.65,-280.59"/>
<text text-anchor="middle" x="135.5" y="-209" font-family="Helvetica,sans-Serif" font-size="10.00"> @12</text>
</g>
<!-- Node5 -->
<g id="node5" class="node">
<title>Node5</title>
<g id="a_node5"><a xlink:title=" ">
<polygon fill="none" stroke="#bfbfbf" points="196,-290.5 196,-309.5 246,-309.5 246,-290.5 196,-290.5"/>
<text text-anchor="middle" x="221" y="-297.5" font-family="Helvetica,sans-Serif" font-size="10.00">uint8_t</text>
</a>
</g>
</g>
<!-- Node5&#45;&gt;Node1 -->
<g id="edge6" class="edge">
<title>Node5&#45;&gt;Node1</title>
<path fill="none" stroke="#9a32cd" stroke-dasharray="5,2" d="M222.58,-280.17C225.76,-236.91 231.24,-127.28 214,-38 212.79,-31.72 210.29,-24.97 208.09,-19.79"/>
<polygon fill="#9a32cd" stroke="#9a32cd" points="219.08,-280.08 221.78,-290.33 226.05,-280.63 219.08,-280.08"/>
<text text-anchor="middle" x="244" y="-125" font-family="Helvetica,sans-Serif" font-size="10.00"> options</text>
<text text-anchor="middle" x="244" y="-114" font-family="Helvetica,sans-Serif" font-size="10.00">payload</text>
</g>
<!-- Node5&#45;&gt;Node3 -->
<g id="edge4" class="edge">
<title>Node5&#45;&gt;Node3</title>
<path fill="none" stroke="#9a32cd" stroke-dasharray="5,2" d="M186.94,-285.97C180.86,-282.27 175.15,-277.67 171,-272 138.67,-227.82 166.25,-202.61 148,-151 145.57,-144.14 141.66,-136.91 138.44,-131.51"/>
<polygon fill="#9a32cd" stroke="#9a32cd" points="185.5,-289.17 195.98,-290.75 188.77,-282.98 185.5,-289.17"/>
<text text-anchor="middle" x="192.5" y="-264" font-family="Helvetica,sans-Serif" font-size="10.00"> ack</text>
<text text-anchor="middle" x="192.5" y="-253" font-family="Helvetica,sans-Serif" font-size="10.00">bits1</text>
<text text-anchor="middle" x="192.5" y="-242" font-family="Helvetica,sans-Serif" font-size="10.00">bits2</text>
<text text-anchor="middle" x="192.5" y="-231" font-family="Helvetica,sans-Serif" font-size="10.00">cwr</text>
<text text-anchor="middle" x="192.5" y="-220" font-family="Helvetica,sans-Serif" font-size="10.00">ece</text>
<text text-anchor="middle" x="192.5" y="-209" font-family="Helvetica,sans-Serif" font-size="10.00">fin</text>
<text text-anchor="middle" x="192.5" y="-198" font-family="Helvetica,sans-Serif" font-size="10.00">off</text>
<text text-anchor="middle" x="192.5" y="-187" font-family="Helvetica,sans-Serif" font-size="10.00">psh</text>
<text text-anchor="middle" x="192.5" y="-176" font-family="Helvetica,sans-Serif" font-size="10.00">reserved</text>
<text text-anchor="middle" x="192.5" y="-165" font-family="Helvetica,sans-Serif" font-size="10.00">rst</text>
<text text-anchor="middle" x="192.5" y="-154" font-family="Helvetica,sans-Serif" font-size="10.00">...</text>
</g>
<!-- Node6 -->
<g id="node6" class="node">
<title>Node6</title>
<g id="a_node6"><a xlink:title=" ">
<polygon fill="none" stroke="#bfbfbf" points="286,-112.5 286,-131.5 342,-131.5 342,-112.5 286,-112.5"/>
<text text-anchor="middle" x="314" y="-119.5" font-family="Helvetica,sans-Serif" font-size="10.00">uint32_t</text>
</a>
</g>
</g>
<!-- Node6&#45;&gt;Node1 -->
<g id="edge5" class="edge">
<title>Node6&#45;&gt;Node1</title>
<path fill="none" stroke="#9a32cd" stroke-dasharray="5,2" d="M301.43,-104.26C287.82,-86.71 264.97,-58.85 242,-38 234.45,-31.15 225.13,-24.5 217.6,-19.51"/>
<polygon fill="#9a32cd" stroke="#9a32cd" points="298.8,-106.58 307.65,-112.4 304.36,-102.33 298.8,-106.58"/>
<text text-anchor="middle" x="301.5" y="-68.5" font-family="Helvetica,sans-Serif" font-size="10.00"> ack</text>
<text text-anchor="middle" x="301.5" y="-57.5" font-family="Helvetica,sans-Serif" font-size="10.00">seq</text>
</g>
</g>
</svg>
