<?xml version="1.0" encoding="UTF-8" standalone="no"?>
<!DOCTYPE svg PUBLIC "-//W3C//DTD SVG 1.1//EN"
 "http://www.w3.org/Graphics/SVG/1.1/DTD/svg11.dtd">
<!-- Generated by graphviz version 2.43.0 (0)
 -->
<!-- Title: arp_table_entry_t Pages: 1 -->
<svg width="139pt" height="95pt"
 viewBox="0.00 0.00 139.00 95.00" xmlns="http://www.w3.org/2000/svg" xmlns:xlink="http://www.w3.org/1999/xlink">
<g id="graph0" class="graph" transform="scale(1 1) rotate(0) translate(4 91)">
<title>arp_table_entry_t</title>
<!-- Node1 -->
<g id="node1" class="node">
<title>Node1</title>
<g id="a_node1"><a xlink:title=" ">
<polygon fill="#bfbfbf" stroke="black" points="14,-0.5 14,-19.5 116,-19.5 116,-0.5 14,-0.5"/>
<text text-anchor="middle" x="65" y="-7.5" font-family="Helvetica,sans-Serif" font-size="10.00">arp_table_entry_t</text>
</a>
</g>
</g>
<!-- Node2 -->
<g id="node2" class="node">
<title>Node2</title>
<g id="a_node2"><a xlink:title=" ">
<polygon fill="none" stroke="#bfbfbf" points="0,-67.5 0,-86.5 56,-86.5 56,-67.5 0,-67.5"/>
<text text-anchor="middle" x="28" y="-74.5" font-family="Helvetica,sans-Serif" font-size="10.00">uint64_t</text>
</a>
</g>
</g>
<!-- Node2&#45;&gt;Node1 -->
<g id="edge1" class="edge">
<title>Node2&#45;&gt;Node1</title>
<path fill="none" stroke="#9a32cd" stroke-dasharray="5,2" d="M25.28,-56.91C25.2,-50.59 26.05,-43.72 29,-38 33.02,-30.23 40.41,-24.09 47.45,-19.64"/>
<polygon fill="#9a32cd" stroke="#9a32cd" points="21.83,-57.66 26.18,-67.32 28.8,-57.06 21.83,-57.66"/>
<text text-anchor="middle" x="55" y="-41" font-family="Helvetica,sans-Serif" font-size="10.00"> mac_addr</text>
</g>
<!-- Node3 -->
<g id="node3" class="node">
<title>Node3</title>
<g id="a_node3"><a xlink:title=" ">
<polygon fill="none" stroke="#bfbfbf" points="75,-67.5 75,-86.5 131,-86.5 131,-67.5 75,-67.5"/>
<text text-anchor="middle" x="103" y="-74.5" font-family="Helvetica,sans-Serif" font-size="10.00">uint32_t</text>
</a>
</g>
</g>
<!-- Node3&#45;&gt;Node1 -->
<g id="edge2" class="edge">
<title>Node3&#45;&gt;Node1</title>
<path fill="none" stroke="#9a32cd" stroke-dasharray="5,2" d="M92.71,-58.14C89.03,-51.78 84.84,-44.56 81,-38 77.47,-31.98 73.47,-25.23 70.36,-19.99"/>
<polygon fill="#9a32cd" stroke="#9a32cd" points="89.93,-60.32 97.96,-67.23 95.99,-56.82 89.93,-60.32"/>
<text text-anchor="middle" x="107" y="-41" font-family="Helvetica,sans-Serif" font-size="10.00"> ip_addr</text>
</g>
</g>
</svg>
