<?xml version="1.0" encoding="UTF-8" standalone="no"?>
<!DOCTYPE svg PUBLIC "-//W3C//DTD SVG 1.1//EN"
 "http://www.w3.org/Graphics/SVG/1.1/DTD/svg11.dtd">
<!-- Generated by graphviz version 2.43.0 (0)
 -->
<!-- Title: ahci_hba_cmd_header_t Pages: 1 -->
<svg width="206pt" height="183pt"
 viewBox="0.00 0.00 206.00 183.00" xmlns="http://www.w3.org/2000/svg" xmlns:xlink="http://www.w3.org/1999/xlink">
<g id="graph0" class="graph" transform="scale(1 1) rotate(0) translate(4 179)">
<title>ahci_hba_cmd_header_t</title>
<!-- Node1 -->
<g id="node1" class="node">
<title>Node1</title>
<g id="a_node1"><a xlink:title=" ">
<polygon fill="#bfbfbf" stroke="black" points="35,-0.5 35,-19.5 169,-19.5 169,-0.5 35,-0.5"/>
<text text-anchor="middle" x="102" y="-7.5" font-family="Helvetica,sans-Serif" font-size="10.00">ahci_hba_cmd_header_t</text>
</a>
</g>
</g>
<!-- Node2 -->
<g id="node2" class="node">
<title>Node2</title>
<g id="a_node2"><a xlink:title=" ">
<polygon fill="none" stroke="#bfbfbf" points="0,-155.5 0,-174.5 56,-174.5 56,-155.5 0,-155.5"/>
<text text-anchor="middle" x="28" y="-162.5" font-family="Helvetica,sans-Serif" font-size="10.00">uint16_t</text>
</a>
</g>
</g>
<!-- Node2&#45;&gt;Node1 -->
<g id="edge1" class="edge">
<title>Node2&#45;&gt;Node1</title>
<path fill="none" stroke="#9a32cd" stroke-dasharray="5,2" d="M31.43,-145.47C36.85,-119.68 49.2,-72.28 72,-38 76.73,-30.88 83.77,-24.42 89.84,-19.6"/>
<polygon fill="#9a32cd" stroke="#9a32cd" points="27.98,-144.9 29.47,-155.39 34.84,-146.26 27.98,-144.9"/>
<text text-anchor="middle" x="85" y="-85" font-family="Helvetica,sans-Serif" font-size="10.00"> prdtl</text>
</g>
<!-- Node3 -->
<g id="node3" class="node">
<title>Node3</title>
<g id="a_node3"><a xlink:title=" ">
<polygon fill="none" stroke="#bfbfbf" points="74,-155.5 74,-174.5 130,-174.5 130,-155.5 74,-155.5"/>
<text text-anchor="middle" x="102" y="-162.5" font-family="Helvetica,sans-Serif" font-size="10.00">uint32_t</text>
</a>
</g>
</g>
<!-- Node3&#45;&gt;Node1 -->
<g id="edge2" class="edge">
<title>Node3&#45;&gt;Node1</title>
<path fill="none" stroke="#9a32cd" stroke-dasharray="5,2" d="M102,-145.11C102,-111.72 102,-43.54 102,-19.57"/>
<polygon fill="#9a32cd" stroke="#9a32cd" points="98.5,-145.34 102,-155.34 105.5,-145.34 98.5,-145.34"/>
<text text-anchor="middle" x="116" y="-101.5" font-family="Helvetica,sans-Serif" font-size="10.00"> ctba</text>
<text text-anchor="middle" x="116" y="-90.5" font-family="Helvetica,sans-Serif" font-size="10.00">ctbau</text>
<text text-anchor="middle" x="116" y="-79.5" font-family="Helvetica,sans-Serif" font-size="10.00">prdbc</text>
<text text-anchor="middle" x="116" y="-68.5" font-family="Helvetica,sans-Serif" font-size="10.00">rsv1</text>
</g>
<!-- Node4 -->
<g id="node4" class="node">
<title>Node4</title>
<g id="a_node4"><a xlink:title=" ">
<polygon fill="none" stroke="#bfbfbf" points="148,-155.5 148,-174.5 198,-174.5 198,-155.5 148,-155.5"/>
<text text-anchor="middle" x="173" y="-162.5" font-family="Helvetica,sans-Serif" font-size="10.00">uint8_t</text>
</a>
</g>
</g>
<!-- Node4&#45;&gt;Node1 -->
<g id="edge3" class="edge">
<title>Node4&#45;&gt;Node1</title>
<path fill="none" stroke="#9a32cd" stroke-dasharray="5,2" d="M170.59,-145.37C166.54,-119.46 156.47,-71.92 134,-38 129.18,-30.73 121.85,-24.34 115.42,-19.61"/>
<polygon fill="#9a32cd" stroke="#9a32cd" points="167.14,-145.93 172.02,-155.34 174.07,-144.94 167.14,-145.93"/>
<text text-anchor="middle" x="180" y="-129" font-family="Helvetica,sans-Serif" font-size="10.00"> a</text>
<text text-anchor="middle" x="180" y="-118" font-family="Helvetica,sans-Serif" font-size="10.00">b</text>
<text text-anchor="middle" x="180" y="-107" font-family="Helvetica,sans-Serif" font-size="10.00">c</text>
<text text-anchor="middle" x="180" y="-96" font-family="Helvetica,sans-Serif" font-size="10.00">cfl</text>
<text text-anchor="middle" x="180" y="-85" font-family="Helvetica,sans-Serif" font-size="10.00">p</text>
<text text-anchor="middle" x="180" y="-74" font-family="Helvetica,sans-Serif" font-size="10.00">pmp</text>
<text text-anchor="middle" x="180" y="-63" font-family="Helvetica,sans-Serif" font-size="10.00">r</text>
<text text-anchor="middle" x="180" y="-52" font-family="Helvetica,sans-Serif" font-size="10.00">rsv0</text>
<text text-anchor="middle" x="180" y="-41" font-family="Helvetica,sans-Serif" font-size="10.00">w</text>
</g>
</g>
</svg>
