<?xml version="1.0" encoding="UTF-8" standalone="no"?>
<!DOCTYPE svg PUBLIC "-//W3C//DTD SVG 1.1//EN"
 "http://www.w3.org/Graphics/SVG/1.1/DTD/svg11.dtd">
<!-- Generated by graphviz version 2.43.0 (0)
 -->
<!-- Title: idle_timer_t Pages: 1 -->
<svg width="285pt" height="106pt"
 viewBox="0.00 0.00 284.50 106.00" xmlns="http://www.w3.org/2000/svg" xmlns:xlink="http://www.w3.org/1999/xlink">
<g id="graph0" class="graph" transform="scale(1 1) rotate(0) translate(4 102)">
<title>idle_timer_t</title>
<!-- Node1 -->
<g id="node1" class="node">
<title>Node1</title>
<g id="a_node1"><a xlink:title="Represents an idle timer callback.">
<polygon fill="#bfbfbf" stroke="black" points="89.5,-0.5 89.5,-19.5 164.5,-19.5 164.5,-0.5 89.5,-0.5"/>
<text text-anchor="middle" x="127" y="-7.5" font-family="Helvetica,sans-Serif" font-size="10.00">idle_timer_t</text>
</a>
</g>
</g>
<!-- Node2 -->
<g id="node2" class="node">
<title>Node2</title>
<g id="a_node2"><a xlink:title=" ">
<polygon fill="none" stroke="#bfbfbf" points="0,-78.5 0,-97.5 56,-97.5 56,-78.5 0,-78.5"/>
<text text-anchor="middle" x="28" y="-85.5" font-family="Helvetica,sans-Serif" font-size="10.00">uint64_t</text>
</a>
</g>
</g>
<!-- Node2&#45;&gt;Node1 -->
<g id="edge1" class="edge">
<title>Node2&#45;&gt;Node1</title>
<path fill="none" stroke="#9a32cd" stroke-dasharray="5,2" d="M39.94,-70.25C47.87,-59.98 59.01,-47.11 71,-38 80.97,-30.42 93.4,-24.17 104.02,-19.6"/>
<polygon fill="#9a32cd" stroke="#9a32cd" points="37,-68.33 33.84,-78.44 42.62,-72.5 37,-68.33"/>
<text text-anchor="middle" x="97" y="-52" font-family="Helvetica,sans-Serif" font-size="10.00"> frequency</text>
<text text-anchor="middle" x="97" y="-41" font-family="Helvetica,sans-Serif" font-size="10.00">next_tick</text>
</g>
<!-- Node3 -->
<g id="node3" class="node">
<title>Node3</title>
<g id="a_node3"><a xlink:title=" ">
<polygon fill="none" stroke="#bfbfbf" points="74.5,-78.5 74.5,-97.5 179.5,-97.5 179.5,-78.5 74.5,-78.5"/>
<text text-anchor="middle" x="127" y="-85.5" font-family="Helvetica,sans-Serif" font-size="10.00">struct idle_timer *</text>
</a>
</g>
</g>
<!-- Node3&#45;&gt;Node1 -->
<g id="edge2" class="edge">
<title>Node3&#45;&gt;Node1</title>
<path fill="none" stroke="#9a32cd" stroke-dasharray="5,2" d="M127,-68.22C127,-52.7 127,-31.36 127,-19.62"/>
<polygon fill="#9a32cd" stroke="#9a32cd" points="123.5,-68.28 127,-78.28 130.5,-68.28 123.5,-68.28"/>
<text text-anchor="middle" x="139.5" y="-46.5" font-family="Helvetica,sans-Serif" font-size="10.00"> next</text>
</g>
<!-- Node4 -->
<g id="node4" class="node">
<title>Node4</title>
<g id="a_node4"><a xlink:title=" ">
<polygon fill="none" stroke="#bfbfbf" points="197.5,-78.5 197.5,-97.5 276.5,-97.5 276.5,-78.5 197.5,-78.5"/>
<text text-anchor="middle" x="237" y="-85.5" font-family="Helvetica,sans-Serif" font-size="10.00">void(*)(void)</text>
</a>
</g>
</g>
<!-- Node4&#45;&gt;Node1 -->
<g id="edge3" class="edge">
<title>Node4&#45;&gt;Node1</title>
<path fill="none" stroke="#9a32cd" stroke-dasharray="5,2" d="M216.11,-72.57C193.48,-56.93 158.12,-32.5 139.47,-19.62"/>
<polygon fill="#9a32cd" stroke="#9a32cd" points="214.16,-75.48 224.38,-78.28 218.14,-69.72 214.16,-75.48"/>
<text text-anchor="middle" x="207.5" y="-46.5" font-family="Helvetica,sans-Serif" font-size="10.00"> func</text>
</g>
</g>
</svg>
