<?xml version="1.0" encoding="UTF-8" standalone="no"?>
<!DOCTYPE svg PUBLIC "-//W3C//DTD SVG 1.1//EN"
 "http://www.w3.org/Graphics/SVG/1.1/DTD/svg11.dtd">
<!-- Generated by graphviz version 2.43.0 (0)
 -->
<!-- Title: iso9660 Pages: 1 -->
<svg width="1126pt" height="232pt"
 viewBox="0.00 0.00 1125.50 232.00" xmlns="http://www.w3.org/2000/svg" xmlns:xlink="http://www.w3.org/1999/xlink">
<g id="graph0" class="graph" transform="scale(1 1) rotate(0) translate(4 228)">
<title>iso9660</title>
<!-- Node1 -->
<g id="node1" class="node">
<title>Node1</title>
<g id="a_node1"><a xlink:title=" ">
<polygon fill="#bfbfbf" stroke="black" points="287,-7 287,-26 342,-26 342,-7 287,-7"/>
<text text-anchor="middle" x="314.5" y="-14" font-family="Helvetica,sans-Serif" font-size="10.00">iso9660</text>
</a>
</g>
</g>
<!-- Node2 -->
<g id="node2" class="node">
<title>Node2</title>
<g id="a_node2"><a xlink:href="structfs__directory__entry__t.html" target="_top" xlink:title=" ">
<polygon fill="none" stroke="black" points="908.5,-87 908.5,-106 1022.5,-106 1022.5,-87 908.5,-87"/>
<text text-anchor="middle" x="965.5" y="-94" font-family="Helvetica,sans-Serif" font-size="10.00">fs_directory_entry_t</text>
</a>
</g>
</g>
<!-- Node2&#45;&gt;Node1 -->
<g id="edge1" class="edge">
<title>Node2&#45;&gt;Node1</title>
<path fill="none" stroke="#9a32cd" stroke-dasharray="5,2" d="M918.72,-84.83C910.66,-83.12 902.35,-81.45 894.5,-80 809.19,-64.3 787.64,-61.19 701.5,-51 567.22,-35.12 405.89,-23.56 342.25,-19.3"/>
<polygon fill="#9a32cd" stroke="#9a32cd" points="918.23,-88.31 928.74,-86.99 919.71,-81.46 918.23,-88.31"/>
<text text-anchor="middle" x="797" y="-54" font-family="Helvetica,sans-Serif" font-size="10.00"> root</text>
</g>
<!-- Node2&#45;&gt;Node2 -->
<g id="edge2" class="edge">
<title>Node2&#45;&gt;Node2</title>
<path fill="none" stroke="#9a32cd" stroke-dasharray="5,2" d="M1032.94,-101.96C1037.64,-100.71 1040.5,-98.89 1040.5,-96.5 1040.5,-92.67 1033.17,-90.31 1022.73,-89.41"/>
<polygon fill="#9a32cd" stroke="#9a32cd" points="1032.05,-98.56 1022.73,-103.59 1033.15,-105.47 1032.05,-98.56"/>
<text text-anchor="middle" x="1053" y="-94" font-family="Helvetica,sans-Serif" font-size="10.00"> next</text>
</g>
<!-- Node4 -->
<g id="node4" class="node">
<title>Node4</title>
<g id="a_node4"><a xlink:href="structfs__tree__t.html" target="_top" xlink:title=" ">
<polygon fill="none" stroke="black" points="802,-7 802,-26 861,-26 861,-7 802,-7"/>
<text text-anchor="middle" x="831.5" y="-14" font-family="Helvetica,sans-Serif" font-size="10.00">fs_tree_t</text>
</a>
</g>
</g>
<!-- Node2&#45;&gt;Node4 -->
<g id="edge6" class="edge">
<title>Node2&#45;&gt;Node4</title>
<path fill="none" stroke="#9a32cd" stroke-dasharray="5,2" d="M982.68,-79.23C989.97,-70.36 995.37,-59.49 988.5,-51 972.81,-31.61 902.3,-22.96 861.31,-19.51"/>
<polygon fill="#9a32cd" stroke="#9a32cd" points="979.99,-76.98 975.75,-86.69 985.12,-81.74 979.99,-76.98"/>
<text text-anchor="middle" x="1004.5" y="-54" font-family="Helvetica,sans-Serif" font-size="10.00"> files</text>
</g>
<!-- Node3 -->
<g id="node3" class="node">
<title>Node3</title>
<g id="a_node3"><a xlink:title=" ">
<polygon fill="none" stroke="#bfbfbf" points="889.5,-204.5 889.5,-223.5 945.5,-223.5 945.5,-204.5 889.5,-204.5"/>
<text text-anchor="middle" x="917.5" y="-211.5" font-family="Helvetica,sans-Serif" font-size="10.00">uint64_t</text>
</a>
</g>
</g>
<!-- Node3&#45;&gt;Node2 -->
<g id="edge3" class="edge">
<title>Node3&#45;&gt;Node2</title>
<path fill="none" stroke="#9a32cd" stroke-dasharray="5,2" d="M925.09,-194.75C926.26,-191.84 927.43,-188.84 928.5,-186 937.6,-161.79 937.12,-154.69 947.5,-131 951.31,-122.29 956.53,-112.78 960.37,-106.13"/>
<polygon fill="#9a32cd" stroke="#9a32cd" points="921.83,-193.47 921.29,-204.05 928.31,-196.12 921.83,-193.47"/>
<text text-anchor="middle" x="965.5" y="-161.5" font-family="Helvetica,sans-Serif" font-size="10.00"> lbapos</text>
<text text-anchor="middle" x="965.5" y="-150.5" font-family="Helvetica,sans-Serif" font-size="10.00">size</text>
</g>
<!-- Node3&#45;&gt;Node4 -->
<g id="edge5" class="edge">
<title>Node3&#45;&gt;Node4</title>
<path fill="none" stroke="#9a32cd" stroke-dasharray="5,2" d="M918.38,-194.12C918.31,-176.44 915.82,-149.98 903.5,-131 895.65,-118.9 885.92,-123.92 876.5,-113 852.92,-85.65 838.98,-43.84 833.81,-26.02"/>
<polygon fill="#9a32cd" stroke="#9a32cd" points="914.88,-194.23 918.16,-204.3 921.87,-194.38 914.88,-194.23"/>
<text text-anchor="middle" x="888" y="-94" font-family="Helvetica,sans-Serif" font-size="10.00"> size</text>
</g>
<!-- Node13 -->
<g id="node13" class="node">
<title>Node13</title>
<g id="a_node13"><a xlink:href="structstorage__device__t.html" target="_top" xlink:title=" ">
<polygon fill="none" stroke="black" points="264.5,-87 264.5,-106 364.5,-106 364.5,-87 264.5,-87"/>
<text text-anchor="middle" x="314.5" y="-94" font-family="Helvetica,sans-Serif" font-size="10.00">storage_device_t</text>
</a>
</g>
</g>
<!-- Node3&#45;&gt;Node13 -->
<g id="edge24" class="edge">
<title>Node3&#45;&gt;Node13</title>
<path fill="none" stroke="#9a32cd" stroke-dasharray="5,2" d="M880.2,-201.43C871.96,-197.54 863.81,-192.48 857.5,-186 839.02,-167.02 856.23,-146.16 834.5,-131 796.83,-104.72 467.23,-117.3 421.5,-113 402.91,-111.25 382.6,-108.52 364.73,-105.84"/>
<polygon fill="#9a32cd" stroke="#9a32cd" points="878.89,-204.67 889.46,-205.34 881.61,-198.22 878.89,-204.67"/>
<text text-anchor="middle" x="880.5" y="-161.5" font-family="Helvetica,sans-Serif" font-size="10.00"> opaque1</text>
<text text-anchor="middle" x="880.5" y="-150.5" font-family="Helvetica,sans-Serif" font-size="10.00">size</text>
</g>
<!-- Node4&#45;&gt;Node2 -->
<g id="edge4" class="edge">
<title>Node4&#45;&gt;Node2</title>
<path fill="none" stroke="#9a32cd" stroke-dasharray="5,2" d="M871.08,-27.16C888.38,-32.51 908.36,-40.29 924.5,-51 939.2,-60.76 952.27,-76.87 959.51,-86.8"/>
<polygon fill="#9a32cd" stroke="#9a32cd" points="871.83,-23.74 861.25,-24.29 869.87,-30.45 871.83,-23.74"/>
<text text-anchor="middle" x="961" y="-54" font-family="Helvetica,sans-Serif" font-size="10.00"> directory</text>
</g>
<!-- Node4&#45;&gt;Node4 -->
<g id="edge7" class="edge">
<title>Node4&#45;&gt;Node4</title>
<path fill="none" stroke="#9a32cd" stroke-dasharray="5,2" d="M871.17,-22.95C875.91,-21.77 879,-19.62 879,-16.5 879,-11.5 871.08,-9 861.19,-9"/>
<polygon fill="#9a32cd" stroke="#9a32cd" points="870.76,-19.47 861.19,-24 871.5,-26.43 870.76,-19.47"/>
<text text-anchor="middle" x="904" y="-25" font-family="Helvetica,sans-Serif" font-size="10.00"> child_dirs</text>
<text text-anchor="middle" x="904" y="-14" font-family="Helvetica,sans-Serif" font-size="10.00">next</text>
<text text-anchor="middle" x="904" y="-3" font-family="Helvetica,sans-Serif" font-size="10.00">parent</text>
</g>
<!-- Node5 -->
<g id="node5" class="node">
<title>Node5</title>
<g id="a_node5"><a xlink:href="structfilesystem__t.html" target="_top" xlink:title=" ">
<polygon fill="none" stroke="black" points="531,-87 531,-106 608,-106 608,-87 531,-87"/>
<text text-anchor="middle" x="569.5" y="-94" font-family="Helvetica,sans-Serif" font-size="10.00">filesystem_t</text>
</a>
</g>
</g>
<!-- Node5&#45;&gt;Node4 -->
<g id="edge8" class="edge">
<title>Node5&#45;&gt;Node4</title>
<path fill="none" stroke="#9a32cd" stroke-dasharray="5,2" d="M599.13,-83.08C622.77,-73.47 656.89,-60.29 687.5,-51 726.55,-39.15 772.64,-29.1 801.97,-23.18"/>
<polygon fill="#9a32cd" stroke="#9a32cd" points="597.61,-79.92 589.68,-86.95 600.26,-86.4 597.61,-79.92"/>
<text text-anchor="middle" x="734.5" y="-54" font-family="Helvetica,sans-Serif" font-size="10.00"> responsible_driver</text>
</g>
<!-- Node5&#45;&gt;Node5 -->
<g id="edge10" class="edge">
<title>Node5&#45;&gt;Node5</title>
<path fill="none" stroke="#9a32cd" stroke-dasharray="5,2" d="M618.22,-102.59C622.98,-101.36 626,-99.33 626,-96.5 626,-91.97 618.27,-89.49 608.06,-89.07"/>
<polygon fill="#9a32cd" stroke="#9a32cd" points="617.51,-99.15 608.06,-103.93 618.43,-106.09 617.51,-99.15"/>
<text text-anchor="middle" x="638.5" y="-94" font-family="Helvetica,sans-Serif" font-size="10.00"> next</text>
</g>
<!-- Node6 -->
<g id="node6" class="node">
<title>Node6</title>
<g id="a_node6"><a xlink:title=" ">
<polygon fill="none" stroke="#bfbfbf" points="439,-204.5 439,-223.5 534,-223.5 534,-204.5 439,-204.5"/>
<text text-anchor="middle" x="486.5" y="-211.5" font-family="Helvetica,sans-Serif" font-size="10.00">void *(*)(void *)</text>
</a>
</g>
</g>
<!-- Node6&#45;&gt;Node5 -->
<g id="edge9" class="edge">
<title>Node6&#45;&gt;Node5</title>
<path fill="none" stroke="#9a32cd" stroke-dasharray="5,2" d="M492.65,-194.75C499.17,-177.18 510.72,-150.46 526.5,-131 534.61,-121 546.24,-112.17 555.36,-106.09"/>
<polygon fill="#9a32cd" stroke="#9a32cd" points="489.28,-193.78 489.24,-204.37 495.88,-196.11 489.28,-193.78"/>
<text text-anchor="middle" x="542.5" y="-156" font-family="Helvetica,sans-Serif" font-size="10.00"> getdir</text>
</g>
<!-- Node7 -->
<g id="node7" class="node">
<title>Node7</title>
<g id="a_node7"><a xlink:title=" ">
<polygon fill="none" stroke="#bfbfbf" points="552,-204.5 552,-223.5 631,-223.5 631,-204.5 552,-204.5"/>
<text text-anchor="middle" x="591.5" y="-211.5" font-family="Helvetica,sans-Serif" font-size="10.00">int(*)(void *)</text>
</a>
</g>
</g>
<!-- Node7&#45;&gt;Node5 -->
<g id="edge11" class="edge">
<title>Node7&#45;&gt;Node5</title>
<path fill="none" stroke="#9a32cd" stroke-dasharray="5,2" d="M573.98,-196.96C571.33,-193.62 568.99,-189.91 567.5,-186 557.01,-158.42 563.38,-122.43 567.22,-106.16"/>
<polygon fill="#9a32cd" stroke="#9a32cd" points="571.53,-199.47 580.89,-204.43 576.67,-194.71 571.53,-199.47"/>
<text text-anchor="middle" x="576" y="-156" font-family="Helvetica,sans-Serif" font-size="10.00"> rm</text>
</g>
<!-- Node8 -->
<g id="node8" class="node">
<title>Node8</title>
<g id="a_node8"><a xlink:title=" ">
<polygon fill="none" stroke="#bfbfbf" points="309.5,-204.5 309.5,-223.5 347.5,-223.5 347.5,-204.5 309.5,-204.5"/>
<text text-anchor="middle" x="328.5" y="-211.5" font-family="Helvetica,sans-Serif" font-size="10.00">char</text>
</a>
</g>
</g>
<!-- Node8&#45;&gt;Node1 -->
<g id="edge22" class="edge">
<title>Node8&#45;&gt;Node1</title>
<path fill="none" stroke="#9a32cd" stroke-dasharray="5,2" d="M299.58,-203.4C263.95,-189.76 205.35,-160.96 182.5,-113 176.19,-99.76 174.66,-92.39 182.5,-80 205.35,-43.9 255.31,-28.24 286.79,-21.76"/>
<polygon fill="#9a32cd" stroke="#9a32cd" points="298.8,-206.84 309.4,-206.99 301.21,-200.27 298.8,-206.84"/>
<text text-anchor="middle" x="219" y="-94" font-family="Helvetica,sans-Serif" font-size="10.00"> volume_name</text>
</g>
<!-- Node8&#45;&gt;Node2 -->
<g id="edge19" class="edge">
<title>Node8&#45;&gt;Node2</title>
<path fill="none" stroke="#9a32cd" stroke-dasharray="5,2" d="M357.38,-206.95C370.89,-202.9 386.41,-196.35 397.5,-186 417.26,-167.55 400.94,-145.9 423.5,-131 467.2,-102.14 842.55,-119.61 894.5,-113 906.89,-111.42 920.32,-108.75 932.12,-106.06"/>
<polygon fill="#9a32cd" stroke="#9a32cd" points="356.31,-203.61 347.55,-209.58 358.11,-210.37 356.31,-203.61"/>
<text text-anchor="middle" x="458" y="-161.5" font-family="Helvetica,sans-Serif" font-size="10.00"> device_name</text>
<text text-anchor="middle" x="458" y="-150.5" font-family="Helvetica,sans-Serif" font-size="10.00">filename</text>
</g>
<!-- Node8&#45;&gt;Node4 -->
<g id="edge14" class="edge">
<title>Node8&#45;&gt;Node4</title>
<path fill="none" stroke="#9a32cd" stroke-dasharray="5,2" d="M326.28,-194.12C325.21,-175.64 326.76,-147.88 342.5,-131 365.59,-106.25 386.64,-128.94 416.5,-113 435.65,-102.78 432.98,-89.49 452.5,-80 572.29,-21.74 735.89,-16.34 802,-16.79"/>
<polygon fill="#9a32cd" stroke="#9a32cd" points="322.8,-194.6 327.17,-204.25 329.78,-193.98 322.8,-194.6"/>
<text text-anchor="middle" x="487" y="-99.5" font-family="Helvetica,sans-Serif" font-size="10.00"> device_name</text>
<text text-anchor="middle" x="487" y="-88.5" font-family="Helvetica,sans-Serif" font-size="10.00">name</text>
</g>
<!-- Node8&#45;&gt;Node5 -->
<g id="edge12" class="edge">
<title>Node8&#45;&gt;Node5</title>
<path fill="none" stroke="#9a32cd" stroke-dasharray="5,2" d="M335.9,-194.83C345.7,-170.83 361.82,-131.52 362.5,-131 389.99,-110.23 482.73,-119.86 516.5,-113 525.43,-111.19 535.02,-108.58 543.57,-106.03"/>
<polygon fill="#9a32cd" stroke="#9a32cd" points="332.58,-193.72 332.04,-204.3 339.06,-196.36 332.58,-193.72"/>
<text text-anchor="middle" x="380" y="-161.5" font-family="Helvetica,sans-Serif" font-size="10.00"> mount</text>
<text text-anchor="middle" x="380" y="-150.5" font-family="Helvetica,sans-Serif" font-size="10.00">name</text>
</g>
<!-- Node8&#45;&gt;Node13 -->
<g id="edge25" class="edge">
<title>Node8&#45;&gt;Node13</title>
<path fill="none" stroke="#9a32cd" stroke-dasharray="5,2" d="M300.25,-202.01C293.6,-198.01 287.33,-192.76 283.5,-186 271.46,-164.73 274.58,-153.76 283.5,-131 287.43,-120.97 295.93,-112.14 303.04,-106.07"/>
<polygon fill="#9a32cd" stroke="#9a32cd" points="298.89,-205.24 309.39,-206.71 302.1,-199.02 298.89,-205.24"/>
<text text-anchor="middle" x="299" y="-156" font-family="Helvetica,sans-Serif" font-size="10.00"> name</text>
</g>
<!-- Node9 -->
<g id="node9" class="node">
<title>Node9</title>
<g id="a_node9"><a xlink:title=" ">
<polygon fill="none" stroke="#bfbfbf" points="711.5,-204.5 711.5,-223.5 767.5,-223.5 767.5,-204.5 711.5,-204.5"/>
<text text-anchor="middle" x="739.5" y="-211.5" font-family="Helvetica,sans-Serif" font-size="10.00">uint32_t</text>
</a>
</g>
</g>
<!-- Node9&#45;&gt;Node1 -->
<g id="edge30" class="edge">
<title>Node9&#45;&gt;Node1</title>
<path fill="none" stroke="#9a32cd" stroke-dasharray="5,2" d="M738.88,-194.14C737.73,-177.02 734.49,-151.4 725.5,-131 721.41,-121.73 717.27,-121.33 711.5,-113 693.11,-86.43 700.93,-68.09 673.5,-51 618.31,-16.63 416.27,-15.98 342.07,-16.96"/>
<polygon fill="#9a32cd" stroke="#9a32cd" points="735.4,-194.65 739.39,-204.47 742.4,-194.31 735.4,-194.65"/>
<text text-anchor="middle" x="747.5" y="-105" font-family="Helvetica,sans-Serif" font-size="10.00"> pathtable_lba</text>
<text text-anchor="middle" x="747.5" y="-94" font-family="Helvetica,sans-Serif" font-size="10.00">rootextent_lba</text>
<text text-anchor="middle" x="747.5" y="-83" font-family="Helvetica,sans-Serif" font-size="10.00">rootextent_len</text>
</g>
<!-- Node9&#45;&gt;Node2 -->
<g id="edge20" class="edge">
<title>Node9&#45;&gt;Node2</title>
<path fill="none" stroke="#9a32cd" stroke-dasharray="5,2" d="M762.64,-198.53C767.32,-194.85 771.9,-190.62 775.5,-186 791.78,-165.1 777.9,-147.66 798.5,-131 832.25,-103.7 851.96,-121.63 894.5,-113 905.13,-110.84 916.64,-108.39 927.22,-106.07"/>
<polygon fill="#9a32cd" stroke="#9a32cd" points="760.4,-195.83 754.31,-204.5 764.48,-201.52 760.4,-195.83"/>
<text text-anchor="middle" x="816.5" y="-161.5" font-family="Helvetica,sans-Serif" font-size="10.00"> device</text>
<text text-anchor="middle" x="816.5" y="-150.5" font-family="Helvetica,sans-Serif" font-size="10.00">flags</text>
</g>
<!-- Node9&#45;&gt;Node4 -->
<g id="edge15" class="edge">
<title>Node9&#45;&gt;Node4</title>
<path fill="none" stroke="#9a32cd" stroke-dasharray="5,2" d="M747.93,-195.09C767.13,-154.29 813.54,-55.67 827.48,-26.05"/>
<polygon fill="#9a32cd" stroke="#9a32cd" points="744.66,-193.81 743.57,-204.35 751,-196.79 744.66,-193.81"/>
<text text-anchor="middle" x="820.5" y="-99.5" font-family="Helvetica,sans-Serif" font-size="10.00"> device</text>
<text text-anchor="middle" x="820.5" y="-88.5" font-family="Helvetica,sans-Serif" font-size="10.00">lbapos</text>
</g>
<!-- Node9&#45;&gt;Node5 -->
<g id="edge13" class="edge">
<title>Node9&#45;&gt;Node5</title>
<path fill="none" stroke="#9a32cd" stroke-dasharray="5,2" d="M704.14,-199.88C697.34,-196.17 690.72,-191.58 685.5,-186 667.41,-166.64 681.7,-149.26 662.5,-131 647.7,-116.93 626.56,-108.7 608.18,-103.92"/>
<polygon fill="#9a32cd" stroke="#9a32cd" points="702.9,-203.17 713.42,-204.41 705.97,-196.88 702.9,-203.17"/>
<text text-anchor="middle" x="705.5" y="-161.5" font-family="Helvetica,sans-Serif" font-size="10.00"> readfile</text>
<text text-anchor="middle" x="705.5" y="-150.5" font-family="Helvetica,sans-Serif" font-size="10.00">writefile</text>
</g>
<!-- Node9&#45;&gt;Node13 -->
<g id="edge27" class="edge">
<title>Node9&#45;&gt;Node13</title>
<path fill="none" stroke="#9a32cd" stroke-dasharray="5,2" d="M701.06,-209.63C666.09,-205.82 617.81,-198.47 603.5,-186 584.01,-169 604.71,-147.14 584.5,-131 556.03,-108.25 457.65,-117.61 421.5,-113 402.88,-110.62 382.48,-107.74 364.53,-105.11"/>
<polygon fill="#9a32cd" stroke="#9a32cd" points="701.13,-213.16 711.44,-210.7 701.85,-206.19 701.13,-213.16"/>
<text text-anchor="middle" x="631" y="-156" font-family="Helvetica,sans-Serif" font-size="10.00"> block_size</text>
</g>
<!-- Node10 -->
<g id="node10" class="node">
<title>Node10</title>
<g id="a_node10"><a xlink:title=" ">
<polygon fill="none" stroke="#bfbfbf" points="1067.5,-204.5 1067.5,-223.5 1117.5,-223.5 1117.5,-204.5 1067.5,-204.5"/>
<text text-anchor="middle" x="1092.5" y="-211.5" font-family="Helvetica,sans-Serif" font-size="10.00">uint8_t</text>
</a>
</g>
</g>
<!-- Node10&#45;&gt;Node2 -->
<g id="edge21" class="edge">
<title>Node10&#45;&gt;Node2</title>
<path fill="none" stroke="#9a32cd" stroke-dasharray="5,2" d="M1070.43,-198C1066.12,-194.41 1061.89,-190.34 1058.5,-186 1041.97,-164.84 1052.19,-150.28 1033.5,-131 1022.42,-119.57 1006.62,-111.46 993.04,-106.08"/>
<polygon fill="#9a32cd" stroke="#9a32cd" points="1068.55,-200.97 1078.62,-204.27 1072.81,-195.41 1068.55,-200.97"/>
<text text-anchor="middle" x="1074.5" y="-178" font-family="Helvetica,sans-Serif" font-size="10.00"> day</text>
<text text-anchor="middle" x="1074.5" y="-167" font-family="Helvetica,sans-Serif" font-size="10.00">hour</text>
<text text-anchor="middle" x="1074.5" y="-156" font-family="Helvetica,sans-Serif" font-size="10.00">min</text>
<text text-anchor="middle" x="1074.5" y="-145" font-family="Helvetica,sans-Serif" font-size="10.00">month</text>
<text text-anchor="middle" x="1074.5" y="-134" font-family="Helvetica,sans-Serif" font-size="10.00">sec</text>
</g>
<!-- Node10&#45;&gt;Node4 -->
<g id="edge16" class="edge">
<title>Node10&#45;&gt;Node4</title>
<path fill="none" stroke="#9a32cd" stroke-dasharray="5,2" d="M1095.64,-194.25C1099.22,-166.08 1101.52,-112.67 1074.5,-80 1057.14,-59.01 1046.24,-59.93 1020.5,-51 966.04,-32.09 898.87,-23.44 861.04,-19.82"/>
<polygon fill="#9a32cd" stroke="#9a32cd" points="1092.15,-193.93 1094.15,-204.33 1099.07,-194.95 1092.15,-193.93"/>
<text text-anchor="middle" x="1104.5" y="-94" font-family="Helvetica,sans-Serif" font-size="10.00"> dirty</text>
</g>
<!-- Node11 -->
<g id="node11" class="node">
<title>Node11</title>
<g id="a_node11"><a xlink:title=" ">
<polygon fill="none" stroke="#bfbfbf" points="90.5,-204.5 90.5,-223.5 136.5,-223.5 136.5,-204.5 90.5,-204.5"/>
<text text-anchor="middle" x="113.5" y="-211.5" font-family="Helvetica,sans-Serif" font-size="10.00">void *</text>
</a>
</g>
</g>
<!-- Node11&#45;&gt;Node4 -->
<g id="edge17" class="edge">
<title>Node11&#45;&gt;Node4</title>
<path fill="none" stroke="#9a32cd" stroke-dasharray="5,2" d="M110.17,-194.44C106.18,-165.68 103.38,-110.52 133.5,-80 181.09,-31.78 674.32,-20.15 801.64,-17.95"/>
<polygon fill="#9a32cd" stroke="#9a32cd" points="106.72,-195.04 111.75,-204.37 113.64,-193.95 106.72,-195.04"/>
<text text-anchor="middle" x="153.5" y="-94" font-family="Helvetica,sans-Serif" font-size="10.00"> opaque</text>
</g>
<!-- Node11&#45;&gt;Node13 -->
<g id="edge29" class="edge">
<title>Node11&#45;&gt;Node13</title>
<path fill="none" stroke="#9a32cd" stroke-dasharray="5,2" d="M131.39,-197.7C152.87,-179.89 190.52,-150.46 226.5,-131 245.62,-120.66 268.63,-112.02 286.32,-106.11"/>
<polygon fill="#9a32cd" stroke="#9a32cd" points="128.89,-195.23 123.48,-204.34 133.39,-200.59 128.89,-195.23"/>
<text text-anchor="middle" x="249.5" y="-156" font-family="Helvetica,sans-Serif" font-size="10.00"> opaque2</text>
</g>
<!-- Node12 -->
<g id="node12" class="node">
<title>Node12</title>
<g id="a_node12"><a xlink:title=" ">
<polygon fill="none" stroke="#bfbfbf" points="981.5,-204.5 981.5,-223.5 1037.5,-223.5 1037.5,-204.5 981.5,-204.5"/>
<text text-anchor="middle" x="1009.5" y="-211.5" font-family="Helvetica,sans-Serif" font-size="10.00">uint16_t</text>
</a>
</g>
</g>
<!-- Node12&#45;&gt;Node2 -->
<g id="edge18" class="edge">
<title>Node12&#45;&gt;Node2</title>
<path fill="none" stroke="#9a32cd" stroke-dasharray="5,2" d="M1006.15,-193.77C1002.76,-176.77 996.71,-151.54 987.5,-131 983.46,-121.98 977.13,-112.66 972.3,-106.15"/>
<polygon fill="#9a32cd" stroke="#9a32cd" points="1002.79,-194.88 1008.07,-204.07 1009.68,-193.6 1002.79,-194.88"/>
<text text-anchor="middle" x="1017" y="-156" font-family="Helvetica,sans-Serif" font-size="10.00"> year</text>
</g>
<!-- Node13&#45;&gt;Node1 -->
<g id="edge23" class="edge">
<title>Node13&#45;&gt;Node1</title>
<path fill="none" stroke="#9a32cd" stroke-dasharray="5,2" d="M314.5,-76.57C314.5,-60.64 314.5,-38.58 314.5,-26.42"/>
<polygon fill="#9a32cd" stroke="#9a32cd" points="311,-76.85 314.5,-86.85 318,-76.85 311,-76.85"/>
<text text-anchor="middle" x="332.5" y="-54" font-family="Helvetica,sans-Serif" font-size="10.00"> device</text>
</g>
<!-- Node13&#45;&gt;Node13 -->
<g id="edge26" class="edge">
<title>Node13&#45;&gt;Node13</title>
<path fill="none" stroke="#9a32cd" stroke-dasharray="5,2" d="M374.85,-102.18C379.58,-100.93 382.5,-99.04 382.5,-96.5 382.5,-92.44 375.02,-90.03 364.61,-89.26"/>
<polygon fill="#9a32cd" stroke="#9a32cd" points="373.98,-98.78 364.61,-103.74 375.03,-105.7 373.98,-98.78"/>
<text text-anchor="middle" x="395" y="-94" font-family="Helvetica,sans-Serif" font-size="10.00"> next</text>
</g>
<!-- Node14 -->
<g id="node14" class="node">
<title>Node14</title>
<g id="a_node14"><a xlink:title=" ">
<polygon fill="none" stroke="#bfbfbf" points="0,-204.5 0,-223.5 29,-223.5 29,-204.5 0,-204.5"/>
<text text-anchor="middle" x="14.5" y="-211.5" font-family="Helvetica,sans-Serif" font-size="10.00">int</text>
</a>
</g>
</g>
<!-- Node14&#45;&gt;Node1 -->
<g id="edge31" class="edge">
<title>Node14&#45;&gt;Node1</title>
<path fill="none" stroke="#9a32cd" stroke-dasharray="5,2" d="M14.95,-194.15C16.48,-166.65 22.72,-115 47.5,-80 59.37,-63.23 64.67,-59.21 83.5,-51 152.22,-21.04 242.26,-16.89 286.91,-16.89"/>
<polygon fill="#9a32cd" stroke="#9a32cd" points="11.45,-194.21 14.54,-204.34 18.44,-194.49 11.45,-194.21"/>
<text text-anchor="middle" x="61.5" y="-94" font-family="Helvetica,sans-Serif" font-size="10.00"> joliet</text>
</g>
<!-- Node14&#45;&gt;Node13 -->
<g id="edge28" class="edge">
<title>Node14&#45;&gt;Node13</title>
<path fill="none" stroke="#9a32cd" stroke-dasharray="5,2" d="M25.04,-195.96C38.05,-176.58 62.1,-145.74 91.5,-131 155.07,-99.12 180.47,-125.39 250.5,-113 261.08,-111.13 272.52,-108.54 282.76,-106.02"/>
<polygon fill="#9a32cd" stroke="#9a32cd" points="22.06,-194.13 19.57,-204.43 27.94,-197.93 22.06,-194.13"/>
<text text-anchor="middle" x="117.5" y="-161.5" font-family="Helvetica,sans-Serif" font-size="10.00"> blockread</text>
<text text-anchor="middle" x="117.5" y="-150.5" font-family="Helvetica,sans-Serif" font-size="10.00">blockwrite</text>
</g>
</g>
</svg>
