<?xml version="1.0" encoding="UTF-8" standalone="no"?>
<!DOCTYPE svg PUBLIC "-//W3C//DTD SVG 1.1//EN"
 "http://www.w3.org/Graphics/SVG/1.1/DTD/svg11.dtd">
<!-- Generated by graphviz version 2.43.0 (0)
 -->
<!-- Title: map_soa Pages: 1 -->
<svg width="148pt" height="228pt"
 viewBox="0.00 0.00 148.00 228.00" xmlns="http://www.w3.org/2000/svg" xmlns:xlink="http://www.w3.org/1999/xlink">
<g id="graph0" class="graph" transform="scale(1 1) rotate(0) translate(4 224)">
<title>map_soa</title>
<!-- Node1 -->
<g id="node1" class="node">
<title>Node1</title>
<g id="a_node1"><a xlink:title=" ">
<polygon fill="#bfbfbf" stroke="black" points="39.5,-0.5 39.5,-19.5 100.5,-19.5 100.5,-0.5 39.5,-0.5"/>
<text text-anchor="middle" x="70" y="-7.5" font-family="Helvetica,sans-Serif" font-size="10.00">map_soa</text>
</a>
</g>
</g>
<!-- Node2 -->
<g id="node2" class="node">
<title>Node2</title>
<g id="a_node2"><a xlink:href="structvector.html" target="_top" xlink:title="Contiguous dynamic array of uintptr_t.">
<polygon fill="none" stroke="black" points="46.5,-122.5 46.5,-141.5 93.5,-141.5 93.5,-122.5 46.5,-122.5"/>
<text text-anchor="middle" x="70" y="-129.5" font-family="Helvetica,sans-Serif" font-size="10.00">vector</text>
</a>
</g>
</g>
<!-- Node2&#45;&gt;Node1 -->
<g id="edge1" class="edge">
<title>Node2&#45;&gt;Node1</title>
<path fill="none" stroke="#9a32cd" stroke-dasharray="5,2" d="M70,-112.15C70,-85.72 70,-38.76 70,-19.55"/>
<polygon fill="#9a32cd" stroke="#9a32cd" points="66.5,-112.37 70,-122.37 73.5,-112.37 66.5,-112.37"/>
<text text-anchor="middle" x="87" y="-96" font-family="Helvetica,sans-Serif" font-size="10.00"> colour</text>
<text text-anchor="middle" x="87" y="-85" font-family="Helvetica,sans-Serif" font-size="10.00">keys</text>
<text text-anchor="middle" x="87" y="-74" font-family="Helvetica,sans-Serif" font-size="10.00">left</text>
<text text-anchor="middle" x="87" y="-63" font-family="Helvetica,sans-Serif" font-size="10.00">parent</text>
<text text-anchor="middle" x="87" y="-52" font-family="Helvetica,sans-Serif" font-size="10.00">right</text>
<text text-anchor="middle" x="87" y="-41" font-family="Helvetica,sans-Serif" font-size="10.00">vals</text>
</g>
<!-- Node3 -->
<g id="node3" class="node">
<title>Node3</title>
<g id="a_node3"><a xlink:title=" ">
<polygon fill="none" stroke="#bfbfbf" points="0,-200.5 0,-219.5 66,-219.5 66,-200.5 0,-200.5"/>
<text text-anchor="middle" x="33" y="-207.5" font-family="Helvetica,sans-Serif" font-size="10.00">uintptr_t *</text>
</a>
</g>
</g>
<!-- Node3&#45;&gt;Node2 -->
<g id="edge2" class="edge">
<title>Node3&#45;&gt;Node2</title>
<path fill="none" stroke="#9a32cd" stroke-dasharray="5,2" d="M41.7,-191.12C49.29,-175.53 59.98,-153.59 65.81,-141.62"/>
<polygon fill="#9a32cd" stroke="#9a32cd" points="38.47,-189.76 37.24,-200.28 44.77,-192.82 38.47,-189.76"/>
<text text-anchor="middle" x="68.5" y="-168.5" font-family="Helvetica,sans-Serif" font-size="10.00"> data</text>
</g>
<!-- Node4 -->
<g id="node4" class="node">
<title>Node4</title>
<g id="a_node4"><a xlink:title=" ">
<polygon fill="none" stroke="#bfbfbf" points="84.5,-200.5 84.5,-219.5 129.5,-219.5 129.5,-200.5 84.5,-200.5"/>
<text text-anchor="middle" x="107" y="-207.5" font-family="Helvetica,sans-Serif" font-size="10.00">size_t</text>
</a>
</g>
</g>
<!-- Node4&#45;&gt;Node2 -->
<g id="edge3" class="edge">
<title>Node4&#45;&gt;Node2</title>
<path fill="none" stroke="#9a32cd" stroke-dasharray="5,2" d="M99.28,-190.82C95.21,-181.51 90.04,-170.05 85,-160 81.92,-153.86 78.17,-147.11 75.19,-141.9"/>
<polygon fill="#9a32cd" stroke="#9a32cd" points="96.16,-192.42 103.33,-200.22 102.59,-189.65 96.16,-192.42"/>
<text text-anchor="middle" x="117.5" y="-174" font-family="Helvetica,sans-Serif" font-size="10.00"> capacity</text>
<text text-anchor="middle" x="117.5" y="-163" font-family="Helvetica,sans-Serif" font-size="10.00">count</text>
</g>
</g>
</svg>
