<?xml version="1.0" encoding="UTF-8" standalone="no"?>
<!DOCTYPE svg PUBLIC "-//W3C//DTD SVG 1.1//EN"
 "http://www.w3.org/Graphics/SVG/1.1/DTD/svg11.dtd">
<!-- Generated by graphviz version 2.43.0 (0)
 -->
<!-- Title: rsdp_t Pages: 1 -->
<svg width="371pt" height="128pt"
 viewBox="0.00 0.00 371.00 128.00" xmlns="http://www.w3.org/2000/svg" xmlns:xlink="http://www.w3.org/1999/xlink">
<g id="graph0" class="graph" transform="scale(1 1) rotate(0) translate(4 124)">
<title>rsdp_t</title>
<!-- Node1 -->
<g id="node1" class="node">
<title>Node1</title>
<g id="a_node1"><a xlink:title="ACPI Root System Description Pointer (RSDP)">
<polygon fill="#bfbfbf" stroke="black" points="126.5,-0.5 126.5,-19.5 173.5,-19.5 173.5,-0.5 126.5,-0.5"/>
<text text-anchor="middle" x="150" y="-7.5" font-family="Helvetica,sans-Serif" font-size="10.00">rsdp_t</text>
</a>
</g>
</g>
<!-- Node2 -->
<g id="node2" class="node">
<title>Node2</title>
<g id="a_node2"><a xlink:title=" ">
<polygon fill="none" stroke="black" points="0,-100.5 0,-119.5 38,-119.5 38,-100.5 0,-100.5"/>
<text text-anchor="middle" x="19" y="-107.5" font-family="Helvetica,sans-Serif" font-size="10.00">char</text>
</a>
</g>
</g>
<!-- Node2&#45;&gt;Node1 -->
<g id="edge1" class="edge">
<title>Node2&#45;&gt;Node1</title>
<path fill="none" stroke="#9a32cd" stroke-dasharray="5,2" d="M16.86,-89.98C16.18,-74.03 18,-51.74 31,-38 43.85,-24.42 95.55,-16.73 126.42,-13.26"/>
<polygon fill="#9a32cd" stroke="#9a32cd" points="13.39,-90.55 17.67,-100.25 20.37,-90 13.39,-90.55"/>
<text text-anchor="middle" x="54" y="-63" font-family="Helvetica,sans-Serif" font-size="10.00"> oem_id</text>
<text text-anchor="middle" x="54" y="-52" font-family="Helvetica,sans-Serif" font-size="10.00">signature</text>
</g>
<!-- Node3 -->
<g id="node3" class="node">
<title>Node3</title>
<g id="a_node3"><a xlink:title=" ">
<polygon fill="none" stroke="black" points="63,-100.5 63,-119.5 113,-119.5 113,-100.5 63,-100.5"/>
<text text-anchor="middle" x="88" y="-107.5" font-family="Helvetica,sans-Serif" font-size="10.00">uint8_t</text>
</a>
</g>
</g>
<!-- Node3&#45;&gt;Node1 -->
<g id="edge2" class="edge">
<title>Node3&#45;&gt;Node1</title>
<path fill="none" stroke="#9a32cd" stroke-dasharray="5,2" d="M83.11,-90.4C80.21,-75.06 78.83,-53.39 89,-38 97.3,-25.44 112.9,-18.67 126.25,-15.06"/>
<polygon fill="#9a32cd" stroke="#9a32cd" points="79.72,-91.29 85.35,-100.27 86.55,-89.74 79.72,-91.29"/>
<text text-anchor="middle" x="139.5" y="-74" font-family="Helvetica,sans-Serif" font-size="10.00"> checksum</text>
<text text-anchor="middle" x="139.5" y="-63" font-family="Helvetica,sans-Serif" font-size="10.00">extended_checksum</text>
<text text-anchor="middle" x="139.5" y="-52" font-family="Helvetica,sans-Serif" font-size="10.00">reserved</text>
<text text-anchor="middle" x="139.5" y="-41" font-family="Helvetica,sans-Serif" font-size="10.00">revision</text>
</g>
<!-- Node4 -->
<g id="node4" class="node">
<title>Node4</title>
<g id="a_node4"><a xlink:title=" ">
<polygon fill="none" stroke="black" points="184,-100.5 184,-119.5 240,-119.5 240,-100.5 184,-100.5"/>
<text text-anchor="middle" x="212" y="-107.5" font-family="Helvetica,sans-Serif" font-size="10.00">uint32_t</text>
</a>
</g>
</g>
<!-- Node4&#45;&gt;Node1 -->
<g id="edge3" class="edge">
<title>Node4&#45;&gt;Node1</title>
<path fill="none" stroke="#9a32cd" stroke-dasharray="5,2" d="M209.65,-90.01C206.98,-74.73 201.4,-53.36 190,-38 184.31,-30.33 175.75,-24.14 168.01,-19.63"/>
<polygon fill="#9a32cd" stroke="#9a32cd" points="206.25,-90.92 211.17,-100.3 213.17,-89.89 206.25,-90.92"/>
<text text-anchor="middle" x="239.5" y="-63" font-family="Helvetica,sans-Serif" font-size="10.00"> length</text>
<text text-anchor="middle" x="239.5" y="-52" font-family="Helvetica,sans-Serif" font-size="10.00">rsdt_address</text>
</g>
<!-- Node5 -->
<g id="node5" class="node">
<title>Node5</title>
<g id="a_node5"><a xlink:title=" ">
<polygon fill="none" stroke="black" points="270,-100.5 270,-119.5 326,-119.5 326,-100.5 270,-100.5"/>
<text text-anchor="middle" x="298" y="-107.5" font-family="Helvetica,sans-Serif" font-size="10.00">uint64_t</text>
</a>
</g>
</g>
<!-- Node5&#45;&gt;Node1 -->
<g id="edge4" class="edge">
<title>Node5&#45;&gt;Node1</title>
<path fill="none" stroke="#9a32cd" stroke-dasharray="5,2" d="M296.9,-89.68C294.93,-73.55 289.54,-51.15 275,-38 260.34,-24.75 205.64,-16.87 173.66,-13.3"/>
<polygon fill="#9a32cd" stroke="#9a32cd" points="293.45,-90.44 297.82,-100.09 300.43,-89.82 293.45,-90.44"/>
<text text-anchor="middle" x="329" y="-57.5" font-family="Helvetica,sans-Serif" font-size="10.00"> xsdt_address</text>
</g>
</g>
</svg>
