<?xml version="1.0" encoding="UTF-8" standalone="no"?>
<!DOCTYPE svg PUBLIC "-//W3C//DTD SVG 1.1//EN"
 "http://www.w3.org/Graphics/SVG/1.1/DTD/svg11.dtd">
<!-- Generated by graphviz version 2.43.0 (0)
 -->
<!-- Title: ahci_fis_dma_setup_t Pages: 1 -->
<svg width="260pt" height="161pt"
 viewBox="0.00 0.00 260.00 161.00" xmlns="http://www.w3.org/2000/svg" xmlns:xlink="http://www.w3.org/1999/xlink">
<g id="graph0" class="graph" transform="scale(1 1) rotate(0) translate(4 157)">
<title>ahci_fis_dma_setup_t</title>
<!-- Node1 -->
<g id="node1" class="node">
<title>Node1</title>
<g id="a_node1"><a xlink:title=" ">
<polygon fill="#bfbfbf" stroke="black" points="56,-0.5 56,-19.5 178,-19.5 178,-0.5 56,-0.5"/>
<text text-anchor="middle" x="117" y="-7.5" font-family="Helvetica,sans-Serif" font-size="10.00">ahci_fis_dma_setup_t</text>
</a>
</g>
</g>
<!-- Node2 -->
<g id="node2" class="node">
<title>Node2</title>
<g id="a_node2"><a xlink:title=" ">
<polygon fill="none" stroke="#bfbfbf" points="0,-133.5 0,-152.5 56,-152.5 56,-133.5 0,-133.5"/>
<text text-anchor="middle" x="28" y="-140.5" font-family="Helvetica,sans-Serif" font-size="10.00">uint64_t</text>
</a>
</g>
</g>
<!-- Node2&#45;&gt;Node1 -->
<g id="edge1" class="edge">
<title>Node2&#45;&gt;Node1</title>
<path fill="none" stroke="#9a32cd" stroke-dasharray="5,2" d="M26.27,-123.25C25.23,-100.5 26.97,-62.19 47,-38 54.06,-29.47 64.15,-23.63 74.48,-19.63"/>
<polygon fill="#9a32cd" stroke="#9a32cd" points="22.79,-123.57 26.97,-133.31 29.77,-123.09 22.79,-123.57"/>
<text text-anchor="middle" x="80" y="-74" font-family="Helvetica,sans-Serif" font-size="10.00"> DMAbufferID</text>
</g>
<!-- Node3 -->
<g id="node3" class="node">
<title>Node3</title>
<g id="a_node3"><a xlink:title=" ">
<polygon fill="none" stroke="#bfbfbf" points="89,-133.5 89,-152.5 145,-152.5 145,-133.5 89,-133.5"/>
<text text-anchor="middle" x="117" y="-140.5" font-family="Helvetica,sans-Serif" font-size="10.00">uint32_t</text>
</a>
</g>
</g>
<!-- Node3&#45;&gt;Node1 -->
<g id="edge2" class="edge">
<title>Node3&#45;&gt;Node1</title>
<path fill="none" stroke="#9a32cd" stroke-dasharray="5,2" d="M117,-123.09C117,-94.36 117,-40.82 117,-19.8"/>
<polygon fill="#9a32cd" stroke="#9a32cd" points="113.5,-123.4 117,-133.4 120.5,-123.4 113.5,-123.4"/>
<text text-anchor="middle" x="153" y="-90.5" font-family="Helvetica,sans-Serif" font-size="10.00"> DMAbufOffset</text>
<text text-anchor="middle" x="153" y="-79.5" font-family="Helvetica,sans-Serif" font-size="10.00">TransferCount</text>
<text text-anchor="middle" x="153" y="-68.5" font-family="Helvetica,sans-Serif" font-size="10.00">resvd</text>
<text text-anchor="middle" x="153" y="-57.5" font-family="Helvetica,sans-Serif" font-size="10.00">rsvd</text>
</g>
<!-- Node4 -->
<g id="node4" class="node">
<title>Node4</title>
<g id="a_node4"><a xlink:title=" ">
<polygon fill="none" stroke="#bfbfbf" points="187,-133.5 187,-152.5 237,-152.5 237,-133.5 187,-133.5"/>
<text text-anchor="middle" x="212" y="-140.5" font-family="Helvetica,sans-Serif" font-size="10.00">uint8_t</text>
</a>
</g>
</g>
<!-- Node4&#45;&gt;Node1 -->
<g id="edge3" class="edge">
<title>Node4&#45;&gt;Node1</title>
<path fill="none" stroke="#9a32cd" stroke-dasharray="5,2" d="M213.16,-123.15C213.52,-100.3 210.64,-61.89 190,-38 182.58,-29.41 172.17,-23.55 161.53,-19.55"/>
<polygon fill="#9a32cd" stroke="#9a32cd" points="209.66,-123.13 212.77,-133.26 216.65,-123.4 209.66,-123.13"/>
<text text-anchor="middle" x="232.5" y="-107" font-family="Helvetica,sans-Serif" font-size="10.00"> a</text>
<text text-anchor="middle" x="232.5" y="-96" font-family="Helvetica,sans-Serif" font-size="10.00">d</text>
<text text-anchor="middle" x="232.5" y="-85" font-family="Helvetica,sans-Serif" font-size="10.00">fis_type</text>
<text text-anchor="middle" x="232.5" y="-74" font-family="Helvetica,sans-Serif" font-size="10.00">i</text>
<text text-anchor="middle" x="232.5" y="-63" font-family="Helvetica,sans-Serif" font-size="10.00">pmport</text>
<text text-anchor="middle" x="232.5" y="-52" font-family="Helvetica,sans-Serif" font-size="10.00">rsv0</text>
<text text-anchor="middle" x="232.5" y="-41" font-family="Helvetica,sans-Serif" font-size="10.00">rsved</text>
</g>
</g>
</svg>
