<?xml version="1.0" encoding="UTF-8" standalone="no"?>
<!DOCTYPE svg PUBLIC "-//W3C//DTD SVG 1.1//EN"
 "http://www.w3.org/Graphics/SVG/1.1/DTD/svg11.dtd">
<!-- Generated by graphviz version 2.43.0 (0)
 -->
<!-- Title: fat32_t Pages: 1 -->
<!--zoomable 276 -->
<svg id="main" version="1.1" xmlns="http://www.w3.org/2000/svg" xmlns:xlink="http://www.w3.org/1999/xlink" xml:space="preserve" onload="init(evt)">
<style type="text/css"><![CDATA[
.edge:hover path { stroke: red; }
.edge:hover polygon { stroke: red; fill: red; }
]]></style>
<script type="text/javascript"><![CDATA[
var edges = document.getElementsByTagName('g');
if (edges && edges.length) {
  for (var i=0;i<edges.length;i++) {
    if (edges[i].id.substr(0,4)=='edge') {
      edges[i].setAttribute('class','edge');
    }
  }
}
]]></script>
        <defs>
                <circle id="rim" cx="0" cy="0" r="7"/>
                <circle id="rim2" cx="0" cy="0" r="3.5"/>
                <g id="zoomPlus">
                        <use xlink:href="#rim" fill="#404040">
                                <set attributeName="fill" to="#808080" begin="zoomplus.mouseover" end="zoomplus.mouseout"/>
                        </use>
                        <path d="M-4,0h8M0,-4v8" fill="none" stroke="white" stroke-width="1.5" pointer-events="none"/>
                </g>
                <g id="zoomMin">
                        <use xlink:href="#rim" fill="#404040">
                                <set attributeName="fill" to="#808080" begin="zoomminus.mouseover" end="zoomminus.mouseout"/>
                        </use>
                        <path d="M-4,0h8" fill="none" stroke="white" stroke-width="1.5" pointer-events="none"/>
                </g>
                <g id="dirArrow">
                        <path fill="none" stroke="white" stroke-width="1.5" d="M0,-3.0v7 M-2.5,-0.5L0,-3.0L2.5,-0.5"/>
                </g>
               <g id="resetDef">
                       <use xlink:href="#rim2" fill="#404040">
                               <set attributeName="fill" to="#808080" begin="reset.mouseover" end="reset.mouseout"/>
                       </use>
               </g>
        </defs>

<script type="text/javascript">
var viewWidth = 1314;
var viewHeight = 276;
var sectionId = 'dynsection-0';
</script>
<script xlink:href="svgpan.js"/>
<svg id="graph" class="graph">
<g id="viewport">
<title>fat32_t</title>
<!-- Node1 -->
<g id="node1" class="node">
<title>Node1</title>
<g id="a_node1"><a xlink:title="FAT32 filesystem information, used internally by the driver. This is a higher level version of FSINFO...">
<polygon fill="#bfbfbf" stroke="black" points="627,-7 627,-26 678,-26 678,-7 627,-7"/>
<text text-anchor="middle" x="652.5" y="-14" font-family="Helvetica,sans-Serif" font-size="10.00">fat32_t</text>
</a>
</g>
</g>
<!-- Node2 -->
<g id="node2" class="node">
<title>Node2</title>
<g id="a_node2"><a xlink:href="structfs__directory__entry__t.html" target="_top" xlink:title=" ">
<polygon fill="none" stroke="black" points="921.5,-109 921.5,-128 1035.5,-128 1035.5,-109 921.5,-109"/>
<text text-anchor="middle" x="978.5" y="-116" font-family="Helvetica,sans-Serif" font-size="10.00">fs_directory_entry_t</text>
</a>
</g>
</g>
<!-- Node2&#45;&gt;Node1 -->
<g id="edge1" class="edge">
<title>Node2&#45;&gt;Node1</title>
<path fill="none" stroke="#9a32cd" stroke-dasharray="5,2" d="M966.36,-100.48C954.16,-84.81 933.85,-62.33 910.5,-51 869.86,-31.29 735.25,-21.93 678.3,-18.78"/>
<polygon fill="#9a32cd" stroke="#9a32cd" points="963.78,-102.87 972.57,-108.78 969.38,-98.68 963.78,-102.87"/>
<text text-anchor="middle" x="940" y="-54" font-family="Helvetica,sans-Serif" font-size="10.00"> root</text>
</g>
<!-- Node2&#45;&gt;Node2 -->
<g id="edge2" class="edge">
<title>Node2&#45;&gt;Node2</title>
<path fill="none" stroke="#9a32cd" stroke-dasharray="5,2" d="M1014.61,-129.55C1034.84,-131.65 1053.5,-127.97 1053.5,-118.5 1053.5,-107.48 1028.23,-104.3 1004.63,-108.94"/>
<polygon fill="#9a32cd" stroke="#9a32cd" points="1015.04,-126.08 1004.63,-128.06 1014.01,-133 1015.04,-126.08"/>
<text text-anchor="middle" x="1066" y="-116" font-family="Helvetica,sans-Serif" font-size="10.00"> next</text>
</g>
<!-- Node4 -->
<g id="node4" class="node">
<title>Node4</title>
<g id="a_node4"><a xlink:href="structfs__tree__t.html" target="_top" xlink:title=" ">
<polygon fill="none" stroke="black" points="894,-7 894,-26 953,-26 953,-7 894,-7"/>
<text text-anchor="middle" x="923.5" y="-14" font-family="Helvetica,sans-Serif" font-size="10.00">fs_tree_t</text>
</a>
</g>
</g>
<!-- Node2&#45;&gt;Node4 -->
<g id="edge6" class="edge">
<title>Node2&#45;&gt;Node4</title>
<path fill="none" stroke="#9a32cd" stroke-dasharray="5,2" d="M974.77,-98.92C971.42,-85.01 965.61,-65.9 956.5,-51 950.62,-41.39 941.49,-32.4 934.33,-26.16"/>
<polygon fill="#9a32cd" stroke="#9a32cd" points="971.37,-99.76 976.94,-108.78 978.21,-98.26 971.37,-99.76"/>
<text text-anchor="middle" x="974.5" y="-54" font-family="Helvetica,sans-Serif" font-size="10.00"> files</text>
</g>
<!-- Node3 -->
<g id="node3" class="node">
<title>Node3</title>
<g id="a_node3"><a xlink:title=" ">
<polygon fill="none" stroke="#bfbfbf" points="1249.5,-248.5 1249.5,-267.5 1305.5,-267.5 1305.5,-248.5 1249.5,-248.5"/>
<text text-anchor="middle" x="1277.5" y="-255.5" font-family="Helvetica,sans-Serif" font-size="10.00">uint64_t</text>
</a>
</g>
</g>
<!-- Node3&#45;&gt;Node2 -->
<g id="edge3" class="edge">
<title>Node3&#45;&gt;Node2</title>
<path fill="none" stroke="#9a32cd" stroke-dasharray="5,2" d="M1250.65,-243.99C1216.73,-227.62 1156.5,-198.77 1104.5,-175 1067.33,-158.01 1023.59,-138.95 998.65,-128.17"/>
<polygon fill="#9a32cd" stroke="#9a32cd" points="1249.37,-247.26 1259.89,-248.46 1252.41,-240.95 1249.37,-247.26"/>
<text text-anchor="middle" x="1237.5" y="-205.5" font-family="Helvetica,sans-Serif" font-size="10.00"> lbapos</text>
<text text-anchor="middle" x="1237.5" y="-194.5" font-family="Helvetica,sans-Serif" font-size="10.00">size</text>
</g>
<!-- Node3&#45;&gt;Node4 -->
<g id="edge5" class="edge">
<title>Node3&#45;&gt;Node4</title>
<path fill="none" stroke="#9a32cd" stroke-dasharray="5,2" d="M1277.32,-238.09C1276,-202.7 1268.26,-125.91 1227.5,-80 1191.28,-39.2 1022.15,-23.84 953.04,-19.2"/>
<polygon fill="#9a32cd" stroke="#9a32cd" points="1273.83,-238.48 1277.57,-248.4 1280.83,-238.32 1273.83,-238.48"/>
<text text-anchor="middle" x="1276" y="-116" font-family="Helvetica,sans-Serif" font-size="10.00"> size</text>
</g>
<!-- Node4&#45;&gt;Node2 -->
<g id="edge4" class="edge">
<title>Node4&#45;&gt;Node2</title>
<path fill="none" stroke="#9a32cd" stroke-dasharray="5,2" d="M962.96,-24.31C978.29,-29.1 994.33,-37.22 1003.5,-51 1015.94,-69.69 998.05,-95.42 986.68,-108.73"/>
<polygon fill="#9a32cd" stroke="#9a32cd" points="963.64,-20.87 953.07,-21.63 961.81,-27.63 963.64,-20.87"/>
<text text-anchor="middle" x="1030" y="-54" font-family="Helvetica,sans-Serif" font-size="10.00"> directory</text>
</g>
<!-- Node4&#45;&gt;Node4 -->
<g id="edge7" class="edge">
<title>Node4&#45;&gt;Node4</title>
<path fill="none" stroke="#9a32cd" stroke-dasharray="5,2" d="M963.17,-22.95C967.91,-21.77 971,-19.62 971,-16.5 971,-11.5 963.08,-9 953.19,-9"/>
<polygon fill="#9a32cd" stroke="#9a32cd" points="962.76,-19.47 953.19,-24 963.5,-26.43 962.76,-19.47"/>
<text text-anchor="middle" x="996" y="-25" font-family="Helvetica,sans-Serif" font-size="10.00"> child_dirs</text>
<text text-anchor="middle" x="996" y="-14" font-family="Helvetica,sans-Serif" font-size="10.00">next</text>
<text text-anchor="middle" x="996" y="-3" font-family="Helvetica,sans-Serif" font-size="10.00">parent</text>
</g>
<!-- Node5 -->
<g id="node5" class="node">
<title>Node5</title>
<g id="a_node5"><a xlink:href="structfilesystem__t.html" target="_top" xlink:title=" ">
<polygon fill="none" stroke="black" points="108,-109 108,-128 185,-128 185,-109 108,-109"/>
<text text-anchor="middle" x="146.5" y="-116" font-family="Helvetica,sans-Serif" font-size="10.00">filesystem_t</text>
</a>
</g>
</g>
<!-- Node5&#45;&gt;Node4 -->
<g id="edge8" class="edge">
<title>Node5&#45;&gt;Node4</title>
<path fill="none" stroke="#9a32cd" stroke-dasharray="5,2" d="M143.45,-98.18C142.27,-82.98 143.58,-62.51 156.5,-51 178.5,-31.4 657.07,-34.46 686.5,-33 761.25,-29.29 849.14,-23.05 893.96,-19.73"/>
<polygon fill="#9a32cd" stroke="#9a32cd" points="140.03,-99.03 144.7,-108.54 146.98,-98.2 140.03,-99.03"/>
<text text-anchor="middle" x="203.5" y="-54" font-family="Helvetica,sans-Serif" font-size="10.00"> responsible_driver</text>
</g>
<!-- Node5&#45;&gt;Node5 -->
<g id="edge10" class="edge">
<title>Node5&#45;&gt;Node5</title>
<path fill="none" stroke="#9a32cd" stroke-dasharray="5,2" d="M176.19,-129.84C190.43,-131.23 203,-127.45 203,-118.5 203,-107.48 183.96,-104.3 166.19,-108.94"/>
<polygon fill="#9a32cd" stroke="#9a32cd" points="176.65,-126.37 166.19,-128.06 175.42,-133.26 176.65,-126.37"/>
<text text-anchor="middle" x="215.5" y="-116" font-family="Helvetica,sans-Serif" font-size="10.00"> next</text>
</g>
<!-- Node6 -->
<g id="node6" class="node">
<title>Node6</title>
<g id="a_node6"><a xlink:title=" ">
<polygon fill="none" stroke="#bfbfbf" points="0,-248.5 0,-267.5 95,-267.5 95,-248.5 0,-248.5"/>
<text text-anchor="middle" x="47.5" y="-255.5" font-family="Helvetica,sans-Serif" font-size="10.00">void *(*)(void *)</text>
</a>
</g>
</g>
<!-- Node6&#45;&gt;Node5 -->
<g id="edge9" class="edge">
<title>Node6&#45;&gt;Node5</title>
<path fill="none" stroke="#9a32cd" stroke-dasharray="5,2" d="M59.79,-239.93C81.13,-210.3 124.27,-150.38 140.31,-128.1"/>
<polygon fill="#9a32cd" stroke="#9a32cd" points="56.7,-238.24 53.69,-248.4 62.38,-242.33 56.7,-238.24"/>
<text text-anchor="middle" x="122.5" y="-200" font-family="Helvetica,sans-Serif" font-size="10.00"> getdir</text>
</g>
<!-- Node7 -->
<g id="node7" class="node">
<title>Node7</title>
<g id="a_node7"><a xlink:title=" ">
<polygon fill="none" stroke="#bfbfbf" points="113,-248.5 113,-267.5 192,-267.5 192,-248.5 113,-248.5"/>
<text text-anchor="middle" x="152.5" y="-255.5" font-family="Helvetica,sans-Serif" font-size="10.00">int(*)(void *)</text>
</a>
</g>
</g>
<!-- Node7&#45;&gt;Node5 -->
<g id="edge11" class="edge">
<title>Node7&#45;&gt;Node5</title>
<path fill="none" stroke="#9a32cd" stroke-dasharray="5,2" d="M151.69,-238.36C150.37,-208.23 147.83,-149.99 146.88,-128.1"/>
<polygon fill="#9a32cd" stroke="#9a32cd" points="148.19,-238.56 152.12,-248.4 155.19,-238.26 148.19,-238.56"/>
<text text-anchor="middle" x="160" y="-200" font-family="Helvetica,sans-Serif" font-size="10.00"> rm</text>
</g>
<!-- Node8 -->
<g id="node8" class="node">
<title>Node8</title>
<g id="a_node8"><a xlink:title=" ">
<polygon fill="none" stroke="#bfbfbf" points="585.5,-248.5 585.5,-267.5 623.5,-267.5 623.5,-248.5 585.5,-248.5"/>
<text text-anchor="middle" x="604.5" y="-255.5" font-family="Helvetica,sans-Serif" font-size="10.00">char</text>
</a>
</g>
</g>
<!-- Node8&#45;&gt;Node1 -->
<g id="edge23" class="edge">
<title>Node8&#45;&gt;Node1</title>
<path fill="none" stroke="#9a32cd" stroke-dasharray="5,2" d="M605.58,-238.26C605.68,-220.49 603.34,-193.78 590.5,-175 581.72,-162.16 568.16,-170.53 560.5,-157 543.64,-127.22 544.48,-110.24 560.5,-80 574.78,-53.04 606.48,-35.55 628.65,-26.11"/>
<polygon fill="#9a32cd" stroke="#9a32cd" points="602.07,-238.37 605.25,-248.48 609.07,-238.6 602.07,-238.37"/>
<text text-anchor="middle" x="595.5" y="-121.5" font-family="Helvetica,sans-Serif" font-size="10.00"> device_name</text>
<text text-anchor="middle" x="595.5" y="-110.5" font-family="Helvetica,sans-Serif" font-size="10.00">volume_name</text>
</g>
<!-- Node8&#45;&gt;Node2 -->
<g id="edge19" class="edge">
<title>Node8&#45;&gt;Node2</title>
<path fill="none" stroke="#9a32cd" stroke-dasharray="5,2" d="M631.15,-243.89C676.06,-221.88 763.39,-179.46 778.5,-175 836.13,-157.99 855.56,-176.19 912.5,-157 932.73,-150.18 953.79,-136.98 966.52,-128.2"/>
<polygon fill="#9a32cd" stroke="#9a32cd" points="629.43,-240.83 622,-248.38 632.52,-247.12 629.43,-240.83"/>
<text text-anchor="middle" x="813" y="-205.5" font-family="Helvetica,sans-Serif" font-size="10.00"> device_name</text>
<text text-anchor="middle" x="813" y="-194.5" font-family="Helvetica,sans-Serif" font-size="10.00">filename</text>
</g>
<!-- Node8&#45;&gt;Node4 -->
<g id="edge14" class="edge">
<title>Node8&#45;&gt;Node4</title>
<path fill="none" stroke="#9a32cd" stroke-dasharray="5,2" d="M610.08,-238.43C610.9,-235.61 611.73,-232.73 612.5,-230 613.67,-225.85 649.4,-83 652.5,-80 686.96,-46.69 830.91,-27.46 893.84,-20.5"/>
<polygon fill="#9a32cd" stroke="#9a32cd" points="606.72,-237.44 607.23,-248.02 613.43,-239.43 606.72,-237.44"/>
<text text-anchor="middle" x="687" y="-121.5" font-family="Helvetica,sans-Serif" font-size="10.00"> device_name</text>
<text text-anchor="middle" x="687" y="-110.5" font-family="Helvetica,sans-Serif" font-size="10.00">name</text>
</g>
<!-- Node8&#45;&gt;Node5 -->
<g id="edge12" class="edge">
<title>Node8&#45;&gt;Node5</title>
<path fill="none" stroke="#9a32cd" stroke-dasharray="5,2" d="M575.3,-254.18C542.18,-250.41 490.91,-242.71 476.5,-230 457.11,-212.89 477.92,-190.87 457.5,-175 419.65,-145.57 289.2,-167.84 242.5,-157 214.09,-150.41 182.94,-137.01 164.05,-128.14"/>
<polygon fill="#9a32cd" stroke="#9a32cd" points="575.02,-257.67 585.34,-255.26 575.77,-250.71 575.02,-257.67"/>
<text text-anchor="middle" x="494" y="-205.5" font-family="Helvetica,sans-Serif" font-size="10.00"> mount</text>
<text text-anchor="middle" x="494" y="-194.5" font-family="Helvetica,sans-Serif" font-size="10.00">name</text>
</g>
<!-- Node13 -->
<g id="node13" class="node">
<title>Node13</title>
<g id="a_node13"><a xlink:href="structfat32__fs__info__t.html" target="_top" xlink:title="FAT32 FSINFO structure.">
<polygon fill="none" stroke="black" points="421,-109 421,-128 510,-128 510,-109 421,-109"/>
<text text-anchor="middle" x="465.5" y="-116" font-family="Helvetica,sans-Serif" font-size="10.00">fat32_fs_info_t</text>
</a>
</g>
</g>
<!-- Node8&#45;&gt;Node13 -->
<g id="edge25" class="edge">
<title>Node8&#45;&gt;Node13</title>
<path fill="none" stroke="#9a32cd" stroke-dasharray="5,2" d="M575.49,-250.51C562.81,-246.43 548.55,-239.98 538.5,-230 519.69,-211.34 529.68,-197.38 515.5,-175 503.84,-156.59 485.95,-138.44 475.03,-128.14"/>
<polygon fill="#9a32cd" stroke="#9a32cd" points="574.65,-253.91 585.22,-253.3 576.58,-247.18 574.65,-253.91"/>
<text text-anchor="middle" x="564.5" y="-205.5" font-family="Helvetica,sans-Serif" font-size="10.00"> reserved1</text>
<text text-anchor="middle" x="564.5" y="-194.5" font-family="Helvetica,sans-Serif" font-size="10.00">reserved2</text>
</g>
<!-- Node9 -->
<g id="node9" class="node">
<title>Node9</title>
<g id="a_node9"><a xlink:title=" ">
<polygon fill="none" stroke="#bfbfbf" points="284.5,-248.5 284.5,-267.5 340.5,-267.5 340.5,-248.5 284.5,-248.5"/>
<text text-anchor="middle" x="312.5" y="-255.5" font-family="Helvetica,sans-Serif" font-size="10.00">uint32_t</text>
</a>
</g>
</g>
<!-- Node9&#45;&gt;Node1 -->
<g id="edge27" class="edge">
<title>Node9&#45;&gt;Node1</title>
<path fill="none" stroke="#9a32cd" stroke-dasharray="5,2" d="M309.84,-238.44C305.81,-202.46 302.69,-122.95 345.5,-80 385.14,-40.22 560.59,-23.95 626.95,-19.14"/>
<polygon fill="#9a32cd" stroke="#9a32cd" points="306.38,-239.02 311.12,-248.5 313.33,-238.14 306.38,-239.02"/>
<text text-anchor="middle" x="378.5" y="-149" font-family="Helvetica,sans-Serif" font-size="10.00"> clustersize</text>
<text text-anchor="middle" x="378.5" y="-138" font-family="Helvetica,sans-Serif" font-size="10.00">fat</text>
<text text-anchor="middle" x="378.5" y="-127" font-family="Helvetica,sans-Serif" font-size="10.00">fatsize</text>
<text text-anchor="middle" x="378.5" y="-116" font-family="Helvetica,sans-Serif" font-size="10.00">fsinfocluster</text>
<text text-anchor="middle" x="378.5" y="-105" font-family="Helvetica,sans-Serif" font-size="10.00">length</text>
<text text-anchor="middle" x="378.5" y="-94" font-family="Helvetica,sans-Serif" font-size="10.00">rootdircluster</text>
<text text-anchor="middle" x="378.5" y="-83" font-family="Helvetica,sans-Serif" font-size="10.00">start</text>
</g>
<!-- Node9&#45;&gt;Node2 -->
<g id="edge20" class="edge">
<title>Node9&#45;&gt;Node2</title>
<path fill="none" stroke="#9a32cd" stroke-dasharray="5,2" d="M350.6,-252.8C367.16,-249.18 385.68,-242.46 398.5,-230 417.05,-211.97 396.71,-190.39 417.5,-175 461.73,-142.25 859.55,-172.03 912.5,-157 933.29,-151.1 954.53,-137.37 967.11,-128.26"/>
<polygon fill="#9a32cd" stroke="#9a32cd" points="349.78,-249.39 340.6,-254.67 351.07,-256.27 349.78,-249.39"/>
<text text-anchor="middle" x="435.5" y="-205.5" font-family="Helvetica,sans-Serif" font-size="10.00"> device</text>
<text text-anchor="middle" x="435.5" y="-194.5" font-family="Helvetica,sans-Serif" font-size="10.00">flags</text>
</g>
<!-- Node9&#45;&gt;Node4 -->
<g id="edge15" class="edge">
<title>Node9&#45;&gt;Node4</title>
<path fill="none" stroke="#9a32cd" stroke-dasharray="5,2" d="M299.93,-239.83C276.22,-205.21 230.77,-126.35 271.5,-80 337.77,-4.6 395.65,-61.36 495.5,-51 644.88,-35.49 824.27,-23.64 893.88,-19.3"/>
<polygon fill="#9a32cd" stroke="#9a32cd" points="297.33,-242.21 305.95,-248.36 303.05,-238.18 297.33,-242.21"/>
<text text-anchor="middle" x="289.5" y="-121.5" font-family="Helvetica,sans-Serif" font-size="10.00"> device</text>
<text text-anchor="middle" x="289.5" y="-110.5" font-family="Helvetica,sans-Serif" font-size="10.00">lbapos</text>
</g>
<!-- Node9&#45;&gt;Node5 -->
<g id="edge13" class="edge">
<title>Node9&#45;&gt;Node5</title>
<path fill="none" stroke="#9a32cd" stroke-dasharray="5,2" d="M274.37,-254C253.74,-250.74 228.81,-243.98 210.5,-230 192.18,-216 161.38,-151.8 150.47,-128.22"/>
<polygon fill="#9a32cd" stroke="#9a32cd" points="274.03,-257.49 284.41,-255.37 274.98,-250.55 274.03,-257.49"/>
<text text-anchor="middle" x="230.5" y="-205.5" font-family="Helvetica,sans-Serif" font-size="10.00"> readfile</text>
<text text-anchor="middle" x="230.5" y="-194.5" font-family="Helvetica,sans-Serif" font-size="10.00">writefile</text>
</g>
<!-- Node9&#45;&gt;Node13 -->
<g id="edge26" class="edge">
<title>Node9&#45;&gt;Node13</title>
<path fill="none" stroke="#9a32cd" stroke-dasharray="5,2" d="M319.92,-238.84C329.73,-214.86 345.86,-175.57 346.5,-175 367.16,-156.34 381.18,-168.58 406.5,-157 423.94,-149.03 442.33,-136.61 453.85,-128.27"/>
<polygon fill="#9a32cd" stroke="#9a32cd" points="316.59,-237.73 316.05,-248.31 323.07,-240.37 316.59,-237.73"/>
<text text-anchor="middle" x="372.5" y="-222" font-family="Helvetica,sans-Serif" font-size="10.00"> freecount</text>
<text text-anchor="middle" x="372.5" y="-211" font-family="Helvetica,sans-Serif" font-size="10.00">nextfree</text>
<text text-anchor="middle" x="372.5" y="-200" font-family="Helvetica,sans-Serif" font-size="10.00">signature1</text>
<text text-anchor="middle" x="372.5" y="-189" font-family="Helvetica,sans-Serif" font-size="10.00">structsig</text>
<text text-anchor="middle" x="372.5" y="-178" font-family="Helvetica,sans-Serif" font-size="10.00">trailsig</text>
</g>
<!-- Node10 -->
<g id="node10" class="node">
<title>Node10</title>
<g id="a_node10"><a xlink:title=" ">
<polygon fill="none" stroke="#bfbfbf" points="1089.5,-248.5 1089.5,-267.5 1139.5,-267.5 1139.5,-248.5 1089.5,-248.5"/>
<text text-anchor="middle" x="1114.5" y="-255.5" font-family="Helvetica,sans-Serif" font-size="10.00">uint8_t</text>
</a>
</g>
</g>
<!-- Node10&#45;&gt;Node1 -->
<g id="edge28" class="edge">
<title>Node10&#45;&gt;Node1</title>
<path fill="none" stroke="#9a32cd" stroke-dasharray="5,2" d="M1115.45,-238.04C1116.34,-204.28 1114.56,-132.37 1087.5,-80 1078.99,-63.52 1074.39,-58.65 1057.5,-51 1040.17,-43.15 764.39,-24.74 678.1,-19.14"/>
<polygon fill="#9a32cd" stroke="#9a32cd" points="1111.94,-238.17 1115.06,-248.3 1118.94,-238.44 1111.94,-238.17"/>
<text text-anchor="middle" x="1144" y="-121.5" font-family="Helvetica,sans-Serif" font-size="10.00"> numberoffats</text>
<text text-anchor="middle" x="1144" y="-110.5" font-family="Helvetica,sans-Serif" font-size="10.00">partitionid</text>
</g>
<!-- Node10&#45;&gt;Node2 -->
<g id="edge21" class="edge">
<title>Node10&#45;&gt;Node2</title>
<path fill="none" stroke="#9a32cd" stroke-dasharray="5,2" d="M1087.74,-243.46C1081.14,-239.55 1074.3,-234.97 1068.5,-230 1030.75,-197.62 996.8,-147.97 983.95,-128.13"/>
<polygon fill="#9a32cd" stroke="#9a32cd" points="1086.05,-246.52 1096.49,-248.36 1089.48,-240.42 1086.05,-246.52"/>
<text text-anchor="middle" x="1084.5" y="-222" font-family="Helvetica,sans-Serif" font-size="10.00"> day</text>
<text text-anchor="middle" x="1084.5" y="-211" font-family="Helvetica,sans-Serif" font-size="10.00">hour</text>
<text text-anchor="middle" x="1084.5" y="-200" font-family="Helvetica,sans-Serif" font-size="10.00">min</text>
<text text-anchor="middle" x="1084.5" y="-189" font-family="Helvetica,sans-Serif" font-size="10.00">month</text>
<text text-anchor="middle" x="1084.5" y="-178" font-family="Helvetica,sans-Serif" font-size="10.00">sec</text>
</g>
<!-- Node10&#45;&gt;Node4 -->
<g id="edge16" class="edge">
<title>Node10&#45;&gt;Node4</title>
<path fill="none" stroke="#9a32cd" stroke-dasharray="5,2" d="M1130.59,-241.23C1161.2,-209.25 1221.84,-135.14 1187.5,-80 1162.73,-40.22 1016.94,-24.52 953.25,-19.5"/>
<polygon fill="#9a32cd" stroke="#9a32cd" points="1128.04,-238.83 1123.53,-248.41 1133.03,-243.73 1128.04,-238.83"/>
<text text-anchor="middle" x="1210.5" y="-116" font-family="Helvetica,sans-Serif" font-size="10.00"> dirty</text>
</g>
<!-- Node11 -->
<g id="node11" class="node">
<title>Node11</title>
<g id="a_node11"><a xlink:title=" ">
<polygon fill="none" stroke="#bfbfbf" points="857.5,-109 857.5,-128 903.5,-128 903.5,-109 857.5,-109"/>
<text text-anchor="middle" x="880.5" y="-116" font-family="Helvetica,sans-Serif" font-size="10.00">void *</text>
</a>
</g>
</g>
<!-- Node11&#45;&gt;Node4 -->
<g id="edge17" class="edge">
<title>Node11&#45;&gt;Node4</title>
<path fill="none" stroke="#9a32cd" stroke-dasharray="5,2" d="M871.89,-99.21C866.63,-85.2 862.33,-65.83 870.5,-51 876.8,-39.56 888.84,-31.48 899.86,-26.13"/>
<polygon fill="#9a32cd" stroke="#9a32cd" points="868.79,-100.86 875.91,-108.71 875.23,-98.13 868.79,-100.86"/>
<text text-anchor="middle" x="890.5" y="-54" font-family="Helvetica,sans-Serif" font-size="10.00"> opaque</text>
</g>
<!-- Node12 -->
<g id="node12" class="node">
<title>Node12</title>
<g id="a_node12"><a xlink:title=" ">
<polygon fill="none" stroke="#bfbfbf" points="787.5,-248.5 787.5,-267.5 843.5,-267.5 843.5,-248.5 787.5,-248.5"/>
<text text-anchor="middle" x="815.5" y="-255.5" font-family="Helvetica,sans-Serif" font-size="10.00">uint16_t</text>
</a>
</g>
</g>
<!-- Node12&#45;&gt;Node1 -->
<g id="edge22" class="edge">
<title>Node12&#45;&gt;Node1</title>
<path fill="none" stroke="#9a32cd" stroke-dasharray="5,2" d="M806.73,-239.3C785.18,-195.84 730.95,-86.93 725.5,-80 707.86,-57.58 681.21,-37.22 665.47,-26.18"/>
<polygon fill="#9a32cd" stroke="#9a32cd" points="803.67,-240.99 811.24,-248.4 809.94,-237.88 803.67,-240.99"/>
<text text-anchor="middle" x="805.5" y="-116" font-family="Helvetica,sans-Serif" font-size="10.00"> reservedsectors</text>
</g>
<!-- Node12&#45;&gt;Node2 -->
<g id="edge18" class="edge">
<title>Node12&#45;&gt;Node2</title>
<path fill="none" stroke="#9a32cd" stroke-dasharray="5,2" d="M833.51,-241.81C867.77,-212.91 941.33,-150.86 968.31,-128.1"/>
<polygon fill="#9a32cd" stroke="#9a32cd" points="831.08,-239.28 825.7,-248.4 835.6,-244.63 831.08,-239.28"/>
<text text-anchor="middle" x="925" y="-200" font-family="Helvetica,sans-Serif" font-size="10.00"> year</text>
</g>
<!-- Node13&#45;&gt;Node1 -->
<g id="edge24" class="edge">
<title>Node13&#45;&gt;Node1</title>
<path fill="none" stroke="#9a32cd" stroke-dasharray="5,2" d="M473.24,-99.18C480.61,-83.97 493.16,-62.96 510.5,-51 545.84,-26.62 596.64,-19.84 626.92,-18.04"/>
<polygon fill="#9a32cd" stroke="#9a32cd" points="469.91,-98.05 468.97,-108.6 476.28,-100.94 469.91,-98.05"/>
<text text-anchor="middle" x="521.5" y="-54" font-family="Helvetica,sans-Serif" font-size="10.00"> info</text>
</g>
</g>
</svg>
        <g id="navigator" transform="translate(0 0)" fill="#404254">
                <rect fill="#f2f5e9" fill-opacity="0.5" stroke="#606060" stroke-width=".5" x="0" y="0" width="60" height="60"/>
                <use id="zoomplus" xlink:href="#zoomPlus" x="17" y="9" onmousedown="handleZoom(evt,'in')"/>
                <use id="zoomminus" xlink:href="#zoomMin" x="42" y="9" onmousedown="handleZoom(evt,'out')"/>
                <use id="reset" xlink:href="#resetDef" x="30" y="36" onmousedown="handleReset()"/>
                <g id="arrowUp" xlink:href="#dirArrow" transform="translate(30 24)" onmousedown="handlePan(0,-1)">
                  <use xlink:href="#rim" fill="#404040">
                        <set attributeName="fill" to="#808080" begin="arrowUp.mouseover" end="arrowUp.mouseout"/>
                  </use>
                  <path fill="none" stroke="white" stroke-width="1.5" d="M0,-3.0v7 M-2.5,-0.5L0,-3.0L2.5,-0.5"/>
                </g>
                <g id="arrowRight" xlink:href="#dirArrow" transform="rotate(90) translate(36 -43)" onmousedown="handlePan(1,0)">
                  <use xlink:href="#rim" fill="#404040">
                        <set attributeName="fill" to="#808080" begin="arrowRight.mouseover" end="arrowRight.mouseout"/>
                  </use>
                  <path fill="none" stroke="white" stroke-width="1.5" d="M0,-3.0v7 M-2.5,-0.5L0,-3.0L2.5,-0.5"/>
                </g>
                <g id="arrowDown" xlink:href="#dirArrow" transform="rotate(180) translate(-30 -48)" onmousedown="handlePan(0,1)">
                  <use xlink:href="#rim" fill="#404040">
                        <set attributeName="fill" to="#808080" begin="arrowDown.mouseover" end="arrowDown.mouseout"/>
                  </use>
                  <path fill="none" stroke="white" stroke-width="1.5" d="M0,-3.0v7 M-2.5,-0.5L0,-3.0L2.5,-0.5"/>
                </g>
                <g id="arrowLeft" xlink:href="#dirArrow" transform="rotate(270) translate(-36 17)" onmousedown="handlePan(-1,0)">
                  <use xlink:href="#rim" fill="#404040">
                        <set attributeName="fill" to="#808080" begin="arrowLeft.mouseover" end="arrowLeft.mouseout"/>
                  </use>
                  <path fill="none" stroke="white" stroke-width="1.5" d="M0,-3.0v7 M-2.5,-0.5L0,-3.0L2.5,-0.5"/>
                </g>
        </g>
        <svg viewBox="0 0 15 15" width="100%" height="30px" preserveAspectRatio="xMaxYMin meet">
         <g id="arrow_out" transform="scale(0.3 0.3)">
          <a xlink:href="structfat32__t__coll__graph_org.svg" target="_base">
           <rect id="button" ry="5" rx="5" y="6" x="6" height="38" width="38"
                fill="#f2f5e9" fill-opacity="0.5" stroke="#606060" stroke-width="1.0"/>
           <path id="arrow"
             d="M 11.500037,31.436501 C 11.940474,20.09759 22.043105,11.32322 32.158766,21.979434 L 37.068811,17.246167 C 37.068811,17.246167 37.088388,32 37.088388,32 L 22.160133,31.978069 C 22.160133,31.978069 26.997745,27.140456 26.997745,27.140456 C 18.528582,18.264221 13.291696,25.230495 11.500037,31.436501 z"
             style="fill:#404040;"/>
          </a>
         </g>
        </svg>
</svg>
