<?xml version="1.0" encoding="UTF-8" standalone="no"?>
<!DOCTYPE svg PUBLIC "-//W3C//DTD SVG 1.1//EN"
 "http://www.w3.org/Graphics/SVG/1.1/DTD/svg11.dtd">
<!-- Generated by graphviz version 2.43.0 (0)
 -->
<!-- Title: ide_device Pages: 1 -->
<svg width="328pt" height="128pt"
 viewBox="0.00 0.00 328.00 128.00" xmlns="http://www.w3.org/2000/svg" xmlns:xlink="http://www.w3.org/1999/xlink">
<g id="graph0" class="graph" transform="scale(1 1) rotate(0) translate(4 124)">
<title>ide_device</title>
<!-- Node1 -->
<g id="node1" class="node">
<title>Node1</title>
<g id="a_node1"><a xlink:title=" ">
<polygon fill="#bfbfbf" stroke="black" points="108.5,-0.5 108.5,-19.5 177.5,-19.5 177.5,-0.5 108.5,-0.5"/>
<text text-anchor="middle" x="143" y="-7.5" font-family="Helvetica,sans-Serif" font-size="10.00">ide_device</text>
</a>
</g>
</g>
<!-- Node2 -->
<g id="node2" class="node">
<title>Node2</title>
<g id="a_node2"><a xlink:title=" ">
<polygon fill="none" stroke="#bfbfbf" points="0,-100.5 0,-119.5 56,-119.5 56,-100.5 0,-100.5"/>
<text text-anchor="middle" x="28" y="-107.5" font-family="Helvetica,sans-Serif" font-size="10.00">uint64_t</text>
</a>
</g>
</g>
<!-- Node2&#45;&gt;Node1 -->
<g id="edge1" class="edge">
<title>Node2&#45;&gt;Node1</title>
<path fill="none" stroke="#9a32cd" stroke-dasharray="5,2" d="M34.5,-90.49C40.97,-74.56 52.35,-51.98 69,-38 80.21,-28.59 94.97,-22.33 108.36,-18.23"/>
<polygon fill="#9a32cd" stroke="#9a32cd" points="31.07,-89.68 30.8,-100.28 37.61,-92.16 31.07,-89.68"/>
<text text-anchor="middle" x="80.5" y="-57.5" font-family="Helvetica,sans-Serif" font-size="10.00"> size</text>
</g>
<!-- Node3 -->
<g id="node3" class="node">
<title>Node3</title>
<g id="a_node3"><a xlink:title=" ">
<polygon fill="none" stroke="#bfbfbf" points="74,-100.5 74,-119.5 130,-119.5 130,-100.5 74,-100.5"/>
<text text-anchor="middle" x="102" y="-107.5" font-family="Helvetica,sans-Serif" font-size="10.00">uint16_t</text>
</a>
</g>
</g>
<!-- Node3&#45;&gt;Node1 -->
<g id="edge2" class="edge">
<title>Node3&#45;&gt;Node1</title>
<path fill="none" stroke="#9a32cd" stroke-dasharray="5,2" d="M97.68,-89.9C95.33,-74.88 94.4,-53.9 103,-38 107.3,-30.04 115.09,-23.99 122.67,-19.66"/>
<polygon fill="#9a32cd" stroke="#9a32cd" points="94.31,-90.89 99.63,-100.05 101.18,-89.56 94.31,-90.89"/>
<text text-anchor="middle" x="133" y="-68.5" font-family="Helvetica,sans-Serif" font-size="10.00"> capabilities</text>
<text text-anchor="middle" x="133" y="-57.5" font-family="Helvetica,sans-Serif" font-size="10.00">sign</text>
<text text-anchor="middle" x="133" y="-46.5" font-family="Helvetica,sans-Serif" font-size="10.00">type</text>
</g>
<!-- Node4 -->
<g id="node4" class="node">
<title>Node4</title>
<g id="a_node4"><a xlink:title=" ">
<polygon fill="none" stroke="#bfbfbf" points="157,-100.5 157,-119.5 213,-119.5 213,-100.5 157,-100.5"/>
<text text-anchor="middle" x="185" y="-107.5" font-family="Helvetica,sans-Serif" font-size="10.00">uint32_t</text>
</a>
</g>
</g>
<!-- Node4&#45;&gt;Node1 -->
<g id="edge3" class="edge">
<title>Node4&#45;&gt;Node1</title>
<path fill="none" stroke="#9a32cd" stroke-dasharray="5,2" d="M181.07,-90.44C177.53,-75.71 171.55,-54.88 163,-38 159.62,-31.34 154.62,-24.59 150.47,-19.5"/>
<polygon fill="#9a32cd" stroke="#9a32cd" points="177.69,-91.35 183.31,-100.34 184.51,-89.81 177.69,-91.35"/>
<text text-anchor="middle" x="214.5" y="-57.5" font-family="Helvetica,sans-Serif" font-size="10.00"> commandsets</text>
</g>
<!-- Node5 -->
<g id="node5" class="node">
<title>Node5</title>
<g id="a_node5"><a xlink:title=" ">
<polygon fill="none" stroke="#bfbfbf" points="256,-100.5 256,-119.5 306,-119.5 306,-100.5 256,-100.5"/>
<text text-anchor="middle" x="281" y="-107.5" font-family="Helvetica,sans-Serif" font-size="10.00">uint8_t</text>
</a>
</g>
</g>
<!-- Node5&#45;&gt;Node1 -->
<g id="edge4" class="edge">
<title>Node5&#45;&gt;Node1</title>
<path fill="none" stroke="#9a32cd" stroke-dasharray="5,2" d="M279.03,-90.18C276.33,-74.04 269.97,-51.34 255,-38 233.95,-19.23 202.11,-12.95 177.75,-11.09"/>
<polygon fill="#9a32cd" stroke="#9a32cd" points="275.56,-90.67 280.37,-100.11 282.5,-89.73 275.56,-90.67"/>
<text text-anchor="middle" x="298.5" y="-74" font-family="Helvetica,sans-Serif" font-size="10.00"> channel</text>
<text text-anchor="middle" x="298.5" y="-63" font-family="Helvetica,sans-Serif" font-size="10.00">drive</text>
<text text-anchor="middle" x="298.5" y="-52" font-family="Helvetica,sans-Serif" font-size="10.00">model</text>
<text text-anchor="middle" x="298.5" y="-41" font-family="Helvetica,sans-Serif" font-size="10.00">reserved</text>
</g>
</g>
</svg>
