<?xml version="1.0" encoding="UTF-8" standalone="no"?>
<!DOCTYPE svg PUBLIC "-//W3C//DTD SVG 1.1//EN"
 "http://www.w3.org/Graphics/SVG/1.1/DTD/svg11.dtd">
<!-- Generated by graphviz version 2.43.0 (0)
 -->
<!-- Title: ubasic_ctx Pages: 1 -->
<svg width="719pt" height="920pt"
 viewBox="0.00 0.00 719.00 919.89" xmlns="http://www.w3.org/2000/svg" xmlns:xlink="http://www.w3.org/1999/xlink">
<g id="graph0" class="graph" transform="scale(1 1) rotate(0) translate(4 915.89)">
<title>ubasic_ctx</title>
<!-- Node1 -->
<g id="node1" class="node">
<title>Node1</title>
<g id="a_node1"><a xlink:title=" ">
<polygon fill="#bfbfbf" stroke="black" points="643,-434.39 643,-453.39 711,-453.39 711,-434.39 643,-434.39"/>
<text text-anchor="middle" x="677" y="-441.39" font-family="Helvetica,sans-Serif" font-size="10.00">ubasic_ctx</text>
</a>
</g>
</g>
<!-- Node2 -->
<g id="node2" class="node">
<title>Node2</title>
<g id="a_node2"><a xlink:href="structub__var__string__array.html" target="_top" xlink:title=" ">
<polygon fill="none" stroke="black" points="378,-754.39 378,-773.39 491,-773.39 491,-754.39 378,-754.39"/>
<text text-anchor="middle" x="434.5" y="-761.39" font-family="Helvetica,sans-Serif" font-size="10.00">ub_var_string_array</text>
</a>
</g>
</g>
<!-- Node2&#45;&gt;Node1 -->
<g id="edge1" class="edge">
<title>Node2&#45;&gt;Node1</title>
<path fill="none" stroke="#9a32cd" stroke-dasharray="5,2" d="M500.91,-752.34C542.45,-741.6 594.05,-721.36 625,-683.89 655.11,-647.43 671.35,-493.72 675.13,-453.54"/>
<polygon fill="#9a32cd" stroke="#9a32cd" points="500,-748.96 491.13,-754.74 501.67,-755.76 500,-748.96"/>
<text text-anchor="middle" x="569" y="-751.89" font-family="Helvetica,sans-Serif" font-size="10.00"> string_array_variables</text>
</g>
<!-- Node3 -->
<g id="node3" class="node">
<title>Node3</title>
<g id="a_node3"><a xlink:title=" ">
<polygon fill="none" stroke="#bfbfbf" points="176.5,-797.39 176.5,-816.39 232.5,-816.39 232.5,-797.39 176.5,-797.39"/>
<text text-anchor="middle" x="204.5" y="-804.39" font-family="Helvetica,sans-Serif" font-size="10.00">uint64_t</text>
</a>
</g>
</g>
<!-- Node3&#45;&gt;Node1 -->
<g id="edge13" class="edge">
<title>Node3&#45;&gt;Node1</title>
<path fill="none" stroke="#9a32cd" stroke-dasharray="5,2" d="M242.6,-816.73C324.74,-836.03 522.76,-868.41 625,-763.89 669.65,-718.24 675.22,-501.94 675.9,-453.52"/>
<polygon fill="#9a32cd" stroke="#9a32cd" points="243.26,-813.29 232.71,-814.34 241.61,-820.09 243.26,-813.29"/>
<text text-anchor="middle" x="434.5" y="-850.89" font-family="Helvetica,sans-Serif" font-size="10.00"> for_stack_ptr</text>
<text text-anchor="middle" x="434.5" y="-839.89" font-family="Helvetica,sans-Serif" font-size="10.00">gosub_stack_ptr</text>
</g>
<!-- Node3&#45;&gt;Node2 -->
<g id="edge2" class="edge">
<title>Node3&#45;&gt;Node2</title>
<path fill="none" stroke="#9a32cd" stroke-dasharray="5,2" d="M242.8,-802.7C273.39,-798.96 317.72,-792.84 356,-784.89 371.15,-781.74 387.73,-777.38 401.66,-773.44"/>
<polygon fill="#9a32cd" stroke="#9a32cd" points="242.1,-799.25 232.59,-803.92 242.93,-806.21 242.1,-799.25"/>
<text text-anchor="middle" x="314.5" y="-800.89" font-family="Helvetica,sans-Serif" font-size="10.00"> itemcount</text>
</g>
<!-- Node17 -->
<g id="node17" class="node">
<title>Node17</title>
<g id="a_node17"><a xlink:href="structub__var__int__array.html" target="_top" xlink:title=" ">
<polygon fill="none" stroke="black" points="385.5,-620.39 385.5,-639.39 483.5,-639.39 483.5,-620.39 385.5,-620.39"/>
<text text-anchor="middle" x="434.5" y="-627.39" font-family="Helvetica,sans-Serif" font-size="10.00">ub_var_int_array</text>
</a>
</g>
</g>
<!-- Node3&#45;&gt;Node17 -->
<g id="edge30" class="edge">
<title>Node3&#45;&gt;Node17</title>
<path fill="none" stroke="#9a32cd" stroke-dasharray="5,2" d="M233.07,-792.59C245.3,-786.25 259.87,-778.7 273,-771.89 309.89,-752.77 324.02,-755.41 356,-728.89 388.76,-701.72 416.58,-658.5 427.98,-639.45"/>
<polygon fill="#9a32cd" stroke="#9a32cd" points="231.1,-789.67 223.83,-797.38 234.32,-795.88 231.1,-789.67"/>
<text text-anchor="middle" x="314.5" y="-774.89" font-family="Helvetica,sans-Serif" font-size="10.00"> itemcount</text>
</g>
<!-- Node4 -->
<g id="node4" class="node">
<title>Node4</title>
<g id="a_node4"><a xlink:title=" ">
<polygon fill="none" stroke="#bfbfbf" points="6,-541.39 6,-560.39 44,-560.39 44,-541.39 6,-541.39"/>
<text text-anchor="middle" x="25" y="-548.39" font-family="Helvetica,sans-Serif" font-size="10.00">char</text>
</a>
</g>
</g>
<!-- Node4&#45;&gt;Node1 -->
<g id="edge14" class="edge">
<title>Node4&#45;&gt;Node1</title>
<path fill="none" stroke="#9a32cd" stroke-dasharray="5,2" d="M27.54,-570.76C30.65,-595.67 39.98,-637.57 68,-657.89 118.62,-694.6 576.33,-682.81 625,-642.89 655.2,-618.12 671.05,-490.1 675,-453.61"/>
<polygon fill="#9a32cd" stroke="#9a32cd" points="31.01,-570.24 26.51,-560.65 24.05,-570.95 31.01,-570.24"/>
<text text-anchor="middle" x="314.5" y="-726.89" font-family="Helvetica,sans-Serif" font-size="10.00"> item_begin</text>
<text text-anchor="middle" x="314.5" y="-715.89" font-family="Helvetica,sans-Serif" font-size="10.00">nextptr</text>
<text text-anchor="middle" x="314.5" y="-704.89" font-family="Helvetica,sans-Serif" font-size="10.00">program_ptr</text>
<text text-anchor="middle" x="314.5" y="-693.89" font-family="Helvetica,sans-Serif" font-size="10.00">ptr</text>
<text text-anchor="middle" x="314.5" y="-682.89" font-family="Helvetica,sans-Serif" font-size="10.00">string</text>
</g>
<!-- Node4&#45;&gt;Node2 -->
<g id="edge3" class="edge">
<title>Node4&#45;&gt;Node2</title>
<path fill="none" stroke="#9a32cd" stroke-dasharray="5,2" d="M28.62,-570.88C34.02,-608.93 47.63,-689.63 68,-707.89 73.74,-713.04 276.99,-742.04 377.86,-756.16"/>
<polygon fill="#9a32cd" stroke="#9a32cd" points="32.03,-569.99 27.21,-560.55 25.09,-570.94 32.03,-569.99"/>
<text text-anchor="middle" x="204.5" y="-740.89" font-family="Helvetica,sans-Serif" font-size="10.00"> varname</text>
</g>
<!-- Node5 -->
<g id="node5" class="node">
<title>Node5</title>
<g id="a_node5"><a xlink:href="structub__var__string.html" target="_top" xlink:title=" ">
<polygon fill="none" stroke="black" points="163,-849.39 163,-868.39 246,-868.39 246,-849.39 163,-849.39"/>
<text text-anchor="middle" x="204.5" y="-856.39" font-family="Helvetica,sans-Serif" font-size="10.00">ub_var_string</text>
</a>
</g>
</g>
<!-- Node4&#45;&gt;Node5 -->
<g id="edge5" class="edge">
<title>Node4&#45;&gt;Node5</title>
<path fill="none" stroke="#9a32cd" stroke-dasharray="5,2" d="M27.55,-570.41C31.53,-615.45 43.52,-724.75 68,-750.89 89.45,-773.79 113.39,-748.13 136,-769.89 154.84,-788.02 138.24,-805.03 154,-825.89 161.47,-835.78 172.81,-843.65 182.76,-849.22"/>
<polygon fill="#9a32cd" stroke="#9a32cd" points="31.04,-570.11 26.71,-560.44 24.07,-570.7 31.04,-570.11"/>
<text text-anchor="middle" x="102" y="-783.89" font-family="Helvetica,sans-Serif" font-size="10.00"> value</text>
<text text-anchor="middle" x="102" y="-772.89" font-family="Helvetica,sans-Serif" font-size="10.00">varname</text>
</g>
<!-- Node7 -->
<g id="node7" class="node">
<title>Node7</title>
<g id="a_node7"><a xlink:href="structub__var__int.html" target="_top" xlink:title=" ">
<polygon fill="none" stroke="black" points="170.5,-570.39 170.5,-589.39 238.5,-589.39 238.5,-570.39 170.5,-570.39"/>
<text text-anchor="middle" x="204.5" y="-577.39" font-family="Helvetica,sans-Serif" font-size="10.00">ub_var_int</text>
</a>
</g>
</g>
<!-- Node4&#45;&gt;Node7 -->
<g id="edge10" class="edge">
<title>Node4&#45;&gt;Node7</title>
<path fill="none" stroke="#9a32cd" stroke-dasharray="5,2" d="M54.03,-559.54C58.67,-560.79 63.45,-561.96 68,-562.89 102.61,-569.96 142.83,-574.56 170.41,-577.17"/>
<polygon fill="#9a32cd" stroke="#9a32cd" points="54.82,-556.13 44.25,-556.76 52.91,-562.86 54.82,-556.13"/>
<text text-anchor="middle" x="102" y="-575.89" font-family="Helvetica,sans-Serif" font-size="10.00"> varname</text>
</g>
<!-- Node9 -->
<g id="node9" class="node">
<title>Node9</title>
<g id="a_node9"><a xlink:href="structconsole.html" target="_top" xlink:title=" ">
<polygon fill="none" stroke="black" points="177.5,-165.39 177.5,-184.39 231.5,-184.39 231.5,-165.39 177.5,-165.39"/>
<text text-anchor="middle" x="204.5" y="-172.39" font-family="Helvetica,sans-Serif" font-size="10.00">console</text>
</a>
</g>
</g>
<!-- Node4&#45;&gt;Node9 -->
<g id="edge16" class="edge">
<title>Node4&#45;&gt;Node9</title>
<path fill="none" stroke="#9a32cd" stroke-dasharray="5,2" d="M32.57,-531.64C38.02,-514.97 45.57,-490.09 50,-467.89 56.96,-433.02 45.49,-336.42 68,-308.89 88.1,-284.3 111.13,-306.66 136,-286.89 148.17,-277.21 145.98,-270.21 154,-256.89 169.78,-230.67 188.45,-199.78 197.7,-184.48"/>
<polygon fill="#9a32cd" stroke="#9a32cd" points="29.19,-530.72 29.34,-541.31 35.83,-532.93 29.19,-530.72"/>
<text text-anchor="middle" x="102" y="-333.89" font-family="Helvetica,sans-Serif" font-size="10.00"> buffer</text>
<text text-anchor="middle" x="102" y="-322.89" font-family="Helvetica,sans-Serif" font-size="10.00">dirty</text>
<text text-anchor="middle" x="102" y="-311.89" font-family="Helvetica,sans-Serif" font-size="10.00">internalbuffer</text>
</g>
<!-- Node13 -->
<g id="node13" class="node">
<title>Node13</title>
<g id="a_node13"><a xlink:href="structub__var__double.html" target="_top" xlink:title=" ">
<polygon fill="none" stroke="black" points="160.5,-503.39 160.5,-522.39 248.5,-522.39 248.5,-503.39 160.5,-503.39"/>
<text text-anchor="middle" x="204.5" y="-510.39" font-family="Helvetica,sans-Serif" font-size="10.00">ub_var_double</text>
</a>
</g>
</g>
<!-- Node4&#45;&gt;Node13 -->
<g id="edge23" class="edge">
<title>Node4&#45;&gt;Node13</title>
<path fill="none" stroke="#9a32cd" stroke-dasharray="5,2" d="M42.2,-534.23C49.45,-527.9 58.49,-521.38 68,-517.89 97.51,-507.07 133.09,-506.18 160.38,-507.8"/>
<polygon fill="#9a32cd" stroke="#9a32cd" points="39.49,-531.98 34.61,-541.38 44.29,-537.07 39.49,-531.98"/>
<text text-anchor="middle" x="102" y="-520.89" font-family="Helvetica,sans-Serif" font-size="10.00"> varname</text>
</g>
<!-- Node4&#45;&gt;Node17 -->
<g id="edge31" class="edge">
<title>Node4&#45;&gt;Node17</title>
<path fill="none" stroke="#9a32cd" stroke-dasharray="5,2" d="M28.9,-570.39C33.25,-591.87 43.73,-625.43 68,-640.89 94.07,-657.49 292,-642.47 385.22,-634.33"/>
<polygon fill="#9a32cd" stroke="#9a32cd" points="32.32,-569.65 27.14,-560.41 25.43,-570.87 32.32,-569.65"/>
<text text-anchor="middle" x="204.5" y="-650.89" font-family="Helvetica,sans-Serif" font-size="10.00"> varname</text>
</g>
<!-- Node18 -->
<g id="node18" class="node">
<title>Node18</title>
<g id="a_node18"><a xlink:href="structub__proc__fn__def.html" target="_top" xlink:title=" ">
<polygon fill="none" stroke="black" points="389,-378.39 389,-397.39 480,-397.39 480,-378.39 389,-378.39"/>
<text text-anchor="middle" x="434.5" y="-385.39" font-family="Helvetica,sans-Serif" font-size="10.00">ub_proc_fn_def</text>
</a>
</g>
</g>
<!-- Node4&#45;&gt;Node18 -->
<g id="edge34" class="edge">
<title>Node4&#45;&gt;Node18</title>
<path fill="none" stroke="#9a32cd" stroke-dasharray="5,2" d="M31.06,-530.99C38.92,-501.35 54.57,-447.52 68,-432.89 90.46,-408.42 110.12,-422.71 136,-401.89 146.39,-393.53 142.07,-383.85 154,-377.89 237.17,-336.31 352.31,-362.53 405.05,-378.39"/>
<polygon fill="#9a32cd" stroke="#9a32cd" points="27.58,-530.47 28.45,-541.03 34.35,-532.24 27.58,-530.47"/>
<text text-anchor="middle" x="204.5" y="-380.89" font-family="Helvetica,sans-Serif" font-size="10.00"> name</text>
</g>
<!-- Node20 -->
<g id="node20" class="node">
<title>Node20</title>
<g id="a_node20"><a xlink:href="structub__param.html" target="_top" xlink:title=" ">
<polygon fill="none" stroke="black" points="172,-436.39 172,-455.39 237,-455.39 237,-436.39 172,-436.39"/>
<text text-anchor="middle" x="204.5" y="-443.39" font-family="Helvetica,sans-Serif" font-size="10.00">ub_param</text>
</a>
</g>
</g>
<!-- Node4&#45;&gt;Node20 -->
<g id="edge38" class="edge">
<title>Node4&#45;&gt;Node20</title>
<path fill="none" stroke="#9a32cd" stroke-dasharray="5,2" d="M35.32,-532.07C42.6,-519.12 53.85,-502.42 68,-491.89 84.64,-479.51 137.23,-463.7 171.79,-454.21"/>
<polygon fill="#9a32cd" stroke="#9a32cd" points="32.13,-530.6 30.54,-541.08 38.32,-533.88 32.13,-530.6"/>
<text text-anchor="middle" x="102" y="-494.89" font-family="Helvetica,sans-Serif" font-size="10.00"> name</text>
</g>
<!-- Node22 -->
<g id="node22" class="node">
<title>Node22</title>
<g id="a_node22"><a xlink:href="structfor__state.html" target="_top" xlink:title=" ">
<polygon fill="none" stroke="black" points="174.5,-266.39 174.5,-285.39 234.5,-285.39 234.5,-266.39 174.5,-266.39"/>
<text text-anchor="middle" x="204.5" y="-273.39" font-family="Helvetica,sans-Serif" font-size="10.00">for_state</text>
</a>
</g>
</g>
<!-- Node4&#45;&gt;Node22 -->
<g id="edge43" class="edge">
<title>Node4&#45;&gt;Node22</title>
<path fill="none" stroke="#9a32cd" stroke-dasharray="5,2" d="M31.92,-531.49C36.96,-514.72 44.28,-489.8 50,-467.89 58.88,-433.89 47.93,-419.74 68,-390.89 88.7,-361.14 113.22,-374.08 136,-345.89 149.8,-328.81 139.1,-316.01 154,-299.89 159.64,-293.79 167.16,-289.06 174.64,-285.48"/>
<polygon fill="#9a32cd" stroke="#9a32cd" points="28.52,-530.64 28.97,-541.22 35.22,-532.67 28.52,-530.64"/>
<text text-anchor="middle" x="102" y="-393.89" font-family="Helvetica,sans-Serif" font-size="10.00"> for_variable</text>
</g>
<!-- Node5&#45;&gt;Node1 -->
<g id="edge40" class="edge">
<title>Node5&#45;&gt;Node1</title>
<path fill="none" stroke="#9a32cd" stroke-dasharray="5,2" d="M250.12,-870.76C339.13,-891.41 537.66,-921.63 625,-807.89 669.4,-750.07 675.17,-505.47 675.9,-453.59"/>
<polygon fill="#9a32cd" stroke="#9a32cd" points="250.87,-867.34 240.33,-868.43 249.25,-874.15 250.87,-867.34"/>
<text text-anchor="middle" x="434.5" y="-903.89" font-family="Helvetica,sans-Serif" font-size="10.00"> local_string_variables</text>
<text text-anchor="middle" x="434.5" y="-892.89" font-family="Helvetica,sans-Serif" font-size="10.00">str_variables</text>
</g>
<!-- Node5&#45;&gt;Node2 -->
<g id="edge4" class="edge">
<title>Node5&#45;&gt;Node2</title>
<path fill="none" stroke="#9a32cd" stroke-dasharray="5,2" d="M255.96,-847.08C285.78,-839.22 323.87,-827.63 356,-812.89 380.16,-801.8 405.78,-784.33 420.67,-773.52"/>
<polygon fill="#9a32cd" stroke="#9a32cd" points="254.99,-843.72 246.18,-849.6 256.74,-850.49 254.99,-843.72"/>
<text text-anchor="middle" x="314.5" y="-843.89" font-family="Helvetica,sans-Serif" font-size="10.00"> values</text>
</g>
<!-- Node5&#45;&gt;Node5 -->
<g id="edge7" class="edge">
<title>Node5&#45;&gt;Node5</title>
<path fill="none" stroke="#9a32cd" stroke-dasharray="5,2" d="M185.61,-878.29C186.87,-883.2 193.17,-886.89 204.5,-886.89 222.63,-886.89 227.87,-877.46 220.22,-868.65"/>
<polygon fill="#9a32cd" stroke="#9a32cd" points="188.98,-879.24 188.78,-868.65 182.33,-877.06 188.98,-879.24"/>
<text text-anchor="middle" x="204.5" y="-889.89" font-family="Helvetica,sans-Serif" font-size="10.00"> next</text>
</g>
<!-- Node6 -->
<g id="node6" class="node">
<title>Node6</title>
<g id="a_node6"><a xlink:title=" ">
<polygon fill="none" stroke="#bfbfbf" points="6,-808.39 6,-827.39 44,-827.39 44,-808.39 6,-808.39"/>
<text text-anchor="middle" x="25" y="-815.39" font-family="Helvetica,sans-Serif" font-size="10.00">bool</text>
</a>
</g>
</g>
<!-- Node6&#45;&gt;Node5 -->
<g id="edge6" class="edge">
<title>Node6&#45;&gt;Node5</title>
<path fill="none" stroke="#9a32cd" stroke-dasharray="5,2" d="M53.99,-828.56C58.63,-830.13 63.42,-831.64 68,-832.89 99.43,-841.46 135.71,-848.27 162.81,-852.76"/>
<polygon fill="#9a32cd" stroke="#9a32cd" points="54.8,-825.13 44.21,-825.08 52.46,-831.73 54.8,-825.13"/>
<text text-anchor="middle" x="102" y="-849.89" font-family="Helvetica,sans-Serif" font-size="10.00"> global</text>
</g>
<!-- Node6&#45;&gt;Node7 -->
<g id="edge12" class="edge">
<title>Node6&#45;&gt;Node7</title>
<path fill="none" stroke="#9a32cd" stroke-dasharray="5,2" d="M54.68,-815.93C83.53,-813.32 125.27,-807.6 136,-795.89 160.62,-769.02 138.79,-666.01 154,-632.89 162.2,-615.04 178.79,-599.27 190.49,-589.66"/>
<polygon fill="#9a32cd" stroke="#9a32cd" points="54.02,-812.47 44.34,-816.78 54.59,-819.45 54.02,-812.47"/>
<text text-anchor="middle" x="102" y="-816.89" font-family="Helvetica,sans-Serif" font-size="10.00"> global</text>
</g>
<!-- Node6&#45;&gt;Node13 -->
<g id="edge25" class="edge">
<title>Node6&#45;&gt;Node13</title>
<path fill="none" stroke="#9a32cd" stroke-dasharray="5,2" d="M34.53,-798.71C57.92,-746.46 123.38,-602.77 154,-560.89 164.88,-546.01 180.58,-531.66 191.37,-522.59"/>
<polygon fill="#9a32cd" stroke="#9a32cd" points="31.2,-797.58 30.32,-808.14 37.59,-800.43 31.2,-797.58"/>
<text text-anchor="middle" x="102" y="-724.89" font-family="Helvetica,sans-Serif" font-size="10.00"> global</text>
</g>
<!-- Node7&#45;&gt;Node1 -->
<g id="edge8" class="edge">
<title>Node7&#45;&gt;Node1</title>
<path fill="none" stroke="#9a32cd" stroke-dasharray="5,2" d="M248.78,-577C327.7,-570.24 498.51,-548.61 625,-482.89 640.43,-474.87 655.99,-462.14 665.8,-453.42"/>
<polygon fill="#9a32cd" stroke="#9a32cd" points="248.4,-573.52 238.72,-577.83 248.97,-580.5 248.4,-573.52"/>
<text text-anchor="middle" x="434.5" y="-573.89" font-family="Helvetica,sans-Serif" font-size="10.00"> int_variables</text>
<text text-anchor="middle" x="434.5" y="-562.89" font-family="Helvetica,sans-Serif" font-size="10.00">local_int_variables</text>
</g>
<!-- Node7&#45;&gt;Node7 -->
<g id="edge9" class="edge">
<title>Node7&#45;&gt;Node7</title>
<path fill="none" stroke="#9a32cd" stroke-dasharray="5,2" d="M185.61,-599.29C186.87,-604.2 193.17,-607.89 204.5,-607.89 222.63,-607.89 227.87,-598.46 220.22,-589.65"/>
<polygon fill="#9a32cd" stroke="#9a32cd" points="188.98,-600.24 188.78,-589.65 182.33,-598.06 188.98,-600.24"/>
<text text-anchor="middle" x="204.5" y="-610.89" font-family="Helvetica,sans-Serif" font-size="10.00"> next</text>
</g>
<!-- Node7&#45;&gt;Node17 -->
<g id="edge29" class="edge">
<title>Node7&#45;&gt;Node17</title>
<path fill="none" stroke="#9a32cd" stroke-dasharray="5,2" d="M248.88,-588.89C278.97,-595.19 319.96,-603.87 356,-611.89 368,-614.56 381.02,-617.55 392.91,-620.31"/>
<polygon fill="#9a32cd" stroke="#9a32cd" points="249.22,-585.39 238.72,-586.77 247.79,-592.24 249.22,-585.39"/>
<text text-anchor="middle" x="314.5" y="-614.89" font-family="Helvetica,sans-Serif" font-size="10.00"> values</text>
</g>
<!-- Node8 -->
<g id="node8" class="node">
<title>Node8</title>
<g id="a_node8"><a xlink:title=" ">
<polygon fill="none" stroke="#bfbfbf" points="0,-295.39 0,-314.39 50,-314.39 50,-295.39 0,-295.39"/>
<text text-anchor="middle" x="25" y="-302.39" font-family="Helvetica,sans-Serif" font-size="10.00">int64_t</text>
</a>
</g>
</g>
<!-- Node8&#45;&gt;Node1 -->
<g id="edge19" class="edge">
<title>Node8&#45;&gt;Node1</title>
<path fill="none" stroke="#9a32cd" stroke-dasharray="5,2" d="M32.98,-285.58C39.51,-270.66 50.86,-251.06 68,-241.89 103.89,-222.68 182.87,-226.45 356,-260.89 479.24,-285.4 528.97,-266.85 625,-347.89 653.12,-371.63 667.99,-414.9 673.48,-434.18"/>
<polygon fill="#9a32cd" stroke="#9a32cd" points="29.68,-284.39 29.21,-294.97 36.18,-286.99 29.68,-284.39"/>
<text text-anchor="middle" x="314.5" y="-274.89" font-family="Helvetica,sans-Serif" font-size="10.00"> current_linenum</text>
<text text-anchor="middle" x="314.5" y="-263.89" font-family="Helvetica,sans-Serif" font-size="10.00">eval_linenum</text>
</g>
<!-- Node8&#45;&gt;Node7 -->
<g id="edge11" class="edge">
<title>Node8&#45;&gt;Node7</title>
<path fill="none" stroke="#9a32cd" stroke-dasharray="5,2" d="M29.83,-324.49C34.61,-349.1 43.03,-392.59 50,-429.89 58.22,-473.85 38.32,-495.43 68,-528.89 88.99,-552.55 107.17,-536.88 136,-549.89 144.55,-553.75 145.59,-556.75 154,-560.89 160.94,-564.31 168.65,-567.53 175.89,-570.31"/>
<polygon fill="#9a32cd" stroke="#9a32cd" points="33.25,-323.75 27.9,-314.61 26.38,-325.09 33.25,-323.75"/>
<text text-anchor="middle" x="102" y="-552.89" font-family="Helvetica,sans-Serif" font-size="10.00"> value</text>
</g>
<!-- Node8&#45;&gt;Node18 -->
<g id="edge35" class="edge">
<title>Node8&#45;&gt;Node18</title>
<path fill="none" stroke="#9a32cd" stroke-dasharray="5,2" d="M40.11,-322.58C47.49,-330.39 57.22,-338.74 68,-342.89 96.2,-353.75 106.3,-348.46 136,-342.89 144.44,-341.31 145.56,-337.47 154,-335.89 242.63,-319.26 269.7,-328.74 356,-354.89 376.43,-361.08 398.77,-370.94 414.19,-378.28"/>
<polygon fill="#9a32cd" stroke="#9a32cd" points="42.3,-319.77 33.1,-314.53 37.03,-324.37 42.3,-319.77"/>
<text text-anchor="middle" x="204.5" y="-338.89" font-family="Helvetica,sans-Serif" font-size="10.00"> line</text>
</g>
<!-- Node8&#45;&gt;Node22 -->
<g id="edge44" class="edge">
<title>Node8&#45;&gt;Node22</title>
<path fill="none" stroke="#9a32cd" stroke-dasharray="5,2" d="M35.74,-286.15C42.93,-274.51 53.9,-260.54 68,-253.89 106.8,-235.58 158.02,-253.9 185.02,-266.38"/>
<polygon fill="#9a32cd" stroke="#9a32cd" points="32.52,-284.74 30.61,-295.17 38.6,-288.21 32.52,-284.74"/>
<text text-anchor="middle" x="102" y="-278.89" font-family="Helvetica,sans-Serif" font-size="10.00"> line_after_for</text>
<text text-anchor="middle" x="102" y="-267.89" font-family="Helvetica,sans-Serif" font-size="10.00">step</text>
<text text-anchor="middle" x="102" y="-256.89" font-family="Helvetica,sans-Serif" font-size="10.00">to</text>
</g>
<!-- Node9&#45;&gt;Node1 -->
<g id="edge15" class="edge">
<title>Node9&#45;&gt;Node1</title>
<path fill="none" stroke="#9a32cd" stroke-dasharray="5,2" d="M241.96,-177.96C338.76,-186.43 596.75,-211.2 625,-236.89 655.12,-264.28 671.14,-397.47 675.04,-434.39"/>
<polygon fill="#9a32cd" stroke="#9a32cd" points="242.04,-174.45 231.78,-177.08 241.44,-181.43 242.04,-174.45"/>
<text text-anchor="middle" x="434.5" y="-207.89" font-family="Helvetica,sans-Serif" font-size="10.00"> cons</text>
</g>
<!-- Node10 -->
<g id="node10" class="node">
<title>Node10</title>
<g id="a_node10"><a xlink:title=" ">
<polygon fill="none" stroke="#bfbfbf" points="2.5,-113.39 2.5,-132.39 47.5,-132.39 47.5,-113.39 2.5,-113.39"/>
<text text-anchor="middle" x="25" y="-120.39" font-family="Helvetica,sans-Serif" font-size="10.00">size_t</text>
</a>
</g>
</g>
<!-- Node10&#45;&gt;Node9 -->
<g id="edge17" class="edge">
<title>Node10&#45;&gt;Node9</title>
<path fill="none" stroke="#9a32cd" stroke-dasharray="5,2" d="M57.8,-126.88C80.05,-130.17 110.26,-135.66 136,-143.89 153.56,-149.51 172.57,-158.52 185.92,-165.39"/>
<polygon fill="#9a32cd" stroke="#9a32cd" points="58.28,-123.41 47.88,-125.48 57.3,-130.34 58.28,-123.41"/>
<text text-anchor="middle" x="102" y="-146.89" font-family="Helvetica,sans-Serif" font-size="10.00"> bufcnt</text>
</g>
<!-- Node11 -->
<g id="node11" class="node">
<title>Node11</title>
<g id="a_node11"><a xlink:title=" ">
<polygon fill="none" stroke="#bfbfbf" points="0,-151.39 0,-170.39 50,-170.39 50,-151.39 0,-151.39"/>
<text text-anchor="middle" x="25" y="-158.39" font-family="Helvetica,sans-Serif" font-size="10.00">uint8_t</text>
</a>
</g>
</g>
<!-- Node11&#45;&gt;Node9 -->
<g id="edge18" class="edge">
<title>Node11&#45;&gt;Node9</title>
<path fill="none" stroke="#9a32cd" stroke-dasharray="5,2" d="M60.18,-159.61C81.93,-159.19 110.69,-159.36 136,-161.89 149.77,-163.27 164.93,-166.07 177.38,-168.71"/>
<polygon fill="#9a32cd" stroke="#9a32cd" points="60.01,-156.12 50.1,-159.86 60.18,-163.11 60.01,-156.12"/>
<text text-anchor="middle" x="102" y="-197.89" font-family="Helvetica,sans-Serif" font-size="10.00"> attributes</text>
<text text-anchor="middle" x="102" y="-186.89" font-family="Helvetica,sans-Serif" font-size="10.00">last</text>
<text text-anchor="middle" x="102" y="-175.89" font-family="Helvetica,sans-Serif" font-size="10.00">x</text>
<text text-anchor="middle" x="102" y="-164.89" font-family="Helvetica,sans-Serif" font-size="10.00">y</text>
</g>
<!-- Node12 -->
<g id="node12" class="node">
<title>Node12</title>
<g id="a_node12"><a xlink:title=" ">
<polygon fill="none" stroke="#bfbfbf" points="409.5,-156.39 409.5,-175.39 459.5,-175.39 459.5,-156.39 409.5,-156.39"/>
<text text-anchor="middle" x="434.5" y="-163.39" font-family="Helvetica,sans-Serif" font-size="10.00">int32_t</text>
</a>
</g>
</g>
<!-- Node12&#45;&gt;Node1 -->
<g id="edge20" class="edge">
<title>Node12&#45;&gt;Node1</title>
<path fill="none" stroke="#9a32cd" stroke-dasharray="5,2" d="M469.67,-165.02C518.03,-164.54 603.02,-166.71 625,-186.89 662.45,-221.26 673.38,-391.51 675.55,-434.18"/>
<polygon fill="#9a32cd" stroke="#9a32cd" points="469.6,-161.52 459.65,-165.16 469.7,-168.52 469.6,-161.52"/>
<text text-anchor="middle" x="569" y="-189.89" font-family="Helvetica,sans-Serif" font-size="10.00"> graphics_colour</text>
</g>
<!-- Node13&#45;&gt;Node1 -->
<g id="edge21" class="edge">
<title>Node13&#45;&gt;Node1</title>
<path fill="none" stroke="#9a32cd" stroke-dasharray="5,2" d="M258.84,-509.21C339.03,-503 495.1,-488.23 625,-459.89 632.8,-458.19 641.11,-455.82 648.71,-453.44"/>
<polygon fill="#9a32cd" stroke="#9a32cd" points="258.21,-505.75 248.5,-510 258.74,-512.73 258.21,-505.75"/>
<text text-anchor="middle" x="434.5" y="-511.89" font-family="Helvetica,sans-Serif" font-size="10.00"> double_variables</text>
<text text-anchor="middle" x="434.5" y="-500.89" font-family="Helvetica,sans-Serif" font-size="10.00">local_double_variables</text>
</g>
<!-- Node13&#45;&gt;Node13 -->
<g id="edge24" class="edge">
<title>Node13&#45;&gt;Node13</title>
<path fill="none" stroke="#9a32cd" stroke-dasharray="5,2" d="M185.61,-532.29C186.87,-537.2 193.17,-540.89 204.5,-540.89 222.63,-540.89 227.87,-531.46 220.22,-522.65"/>
<polygon fill="#9a32cd" stroke="#9a32cd" points="188.98,-533.24 188.78,-522.65 182.33,-531.06 188.98,-533.24"/>
<text text-anchor="middle" x="204.5" y="-543.89" font-family="Helvetica,sans-Serif" font-size="10.00"> next</text>
</g>
<!-- Node14 -->
<g id="node14" class="node">
<title>Node14</title>
<g id="a_node14"><a xlink:title=" ">
<polygon fill="none" stroke="#bfbfbf" points="0,-439.39 0,-458.39 50,-458.39 50,-439.39 0,-439.39"/>
<text text-anchor="middle" x="25" y="-446.39" font-family="Helvetica,sans-Serif" font-size="10.00">double</text>
</a>
</g>
</g>
<!-- Node14&#45;&gt;Node13 -->
<g id="edge22" class="edge">
<title>Node14&#45;&gt;Node13</title>
<path fill="none" stroke="#9a32cd" stroke-dasharray="5,2" d="M59.97,-440.02C83.32,-435.98 113.97,-434.95 136,-449.89 153.49,-461.75 138.9,-479.11 154,-493.89 157.95,-497.75 162.76,-500.85 167.83,-503.32"/>
<polygon fill="#9a32cd" stroke="#9a32cd" points="59.26,-436.6 50.13,-441.97 60.62,-443.46 59.26,-436.6"/>
<text text-anchor="middle" x="102" y="-452.89" font-family="Helvetica,sans-Serif" font-size="10.00"> value</text>
</g>
<!-- Node15 -->
<g id="node15" class="node">
<title>Node15</title>
<g id="a_node15"><a xlink:title=" ">
<polygon fill="none" stroke="#bfbfbf" points="420,-89.39 420,-108.39 449,-108.39 449,-89.39 420,-89.39"/>
<text text-anchor="middle" x="434.5" y="-96.39" font-family="Helvetica,sans-Serif" font-size="10.00">int</text>
</a>
</g>
</g>
<!-- Node15&#45;&gt;Node1 -->
<g id="edge26" class="edge">
<title>Node15&#45;&gt;Node1</title>
<path fill="none" stroke="#9a32cd" stroke-dasharray="5,2" d="M459.21,-94.63C504.47,-87.08 600.85,-74.01 625,-94.89 677.92,-140.64 677,-382.77 676.19,-434.26"/>
<polygon fill="#9a32cd" stroke="#9a32cd" points="458.39,-91.22 449.12,-96.36 459.57,-98.12 458.39,-91.22"/>
<text text-anchor="middle" x="569" y="-152.89" font-family="Helvetica,sans-Serif" font-size="10.00"> bracket_depth</text>
<text text-anchor="middle" x="569" y="-141.89" font-family="Helvetica,sans-Serif" font-size="10.00">current_token</text>
<text text-anchor="middle" x="569" y="-130.89" font-family="Helvetica,sans-Serif" font-size="10.00">ended</text>
<text text-anchor="middle" x="569" y="-119.89" font-family="Helvetica,sans-Serif" font-size="10.00">errored</text>
<text text-anchor="middle" x="569" y="-108.89" font-family="Helvetica,sans-Serif" font-size="10.00">gosub_stack</text>
<text text-anchor="middle" x="569" y="-97.89" font-family="Helvetica,sans-Serif" font-size="10.00">oldlen</text>
</g>
<!-- Node16 -->
<g id="node16" class="node">
<title>Node16</title>
<g id="a_node16"><a xlink:title=" ">
<polygon fill="none" stroke="#bfbfbf" points="374,-51.39 374,-70.39 495,-70.39 495,-51.39 374,-51.39"/>
<text text-anchor="middle" x="434.5" y="-58.39" font-family="Helvetica,sans-Serif" font-size="10.00">enum ub_return_type</text>
</a>
</g>
</g>
<!-- Node16&#45;&gt;Node1 -->
<g id="edge27" class="edge">
<title>Node16&#45;&gt;Node1</title>
<path fill="none" stroke="#9a32cd" stroke-dasharray="5,2" d="M475.58,-48.96C518.21,-38.98 584.92,-31.55 625,-67.89 681,-118.66 677.58,-380.59 676.27,-434.27"/>
<polygon fill="#9a32cd" stroke="#9a32cd" points="474.67,-45.58 465.82,-51.39 476.36,-52.37 474.67,-45.58"/>
<text text-anchor="middle" x="569" y="-70.89" font-family="Helvetica,sans-Serif" font-size="10.00"> fn_type</text>
</g>
<!-- Node17&#45;&gt;Node1 -->
<g id="edge28" class="edge">
<title>Node17&#45;&gt;Node1</title>
<path fill="none" stroke="#9a32cd" stroke-dasharray="5,2" d="M493.88,-630.42C535.16,-627.75 589.29,-617.66 625,-585.89 665.51,-549.85 673.85,-479.25 675.56,-453.54"/>
<polygon fill="#9a32cd" stroke="#9a32cd" points="493.49,-626.94 483.68,-630.95 493.85,-633.93 493.49,-626.94"/>
<text text-anchor="middle" x="569" y="-630.89" font-family="Helvetica,sans-Serif" font-size="10.00"> int_array_variables</text>
</g>
<!-- Node18&#45;&gt;Node1 -->
<g id="edge32" class="edge">
<title>Node18&#45;&gt;Node1</title>
<path fill="none" stroke="#9a32cd" stroke-dasharray="5,2" d="M486.59,-399.79C533.76,-410.77 602.44,-426.76 642.84,-436.17"/>
<polygon fill="#9a32cd" stroke="#9a32cd" points="487.1,-396.31 476.57,-397.45 485.52,-403.13 487.1,-396.31"/>
<text text-anchor="middle" x="569" y="-433.89" font-family="Helvetica,sans-Serif" font-size="10.00"> defs</text>
</g>
<!-- Node18&#45;&gt;Node18 -->
<g id="edge36" class="edge">
<title>Node18&#45;&gt;Node18</title>
<path fill="none" stroke="#9a32cd" stroke-dasharray="5,2" d="M412.18,-406.92C413.4,-412.02 420.84,-415.89 434.5,-415.89 455.83,-415.89 461.99,-406.46 453,-397.65"/>
<polygon fill="#9a32cd" stroke="#9a32cd" points="415.43,-408.23 416,-397.65 408.95,-405.56 415.43,-408.23"/>
<text text-anchor="middle" x="434.5" y="-418.89" font-family="Helvetica,sans-Serif" font-size="10.00"> next</text>
</g>
<!-- Node19 -->
<g id="node19" class="node">
<title>Node19</title>
<g id="a_node19"><a xlink:title=" ">
<polygon fill="none" stroke="#bfbfbf" points="154,-398.39 154,-417.39 255,-417.39 255,-398.39 154,-398.39"/>
<text text-anchor="middle" x="204.5" y="-405.39" font-family="Helvetica,sans-Serif" font-size="10.00">enum ub_fn_type</text>
</a>
</g>
</g>
<!-- Node19&#45;&gt;Node18 -->
<g id="edge33" class="edge">
<title>Node19&#45;&gt;Node18</title>
<path fill="none" stroke="#9a32cd" stroke-dasharray="5,2" d="M265.35,-402.64C304.06,-399.24 353.61,-394.9 388.87,-391.8"/>
<polygon fill="#9a32cd" stroke="#9a32cd" points="264.91,-399.17 255.25,-403.53 265.52,-406.14 264.91,-399.17"/>
<text text-anchor="middle" x="314.5" y="-403.89" font-family="Helvetica,sans-Serif" font-size="10.00"> type</text>
</g>
<!-- Node20&#45;&gt;Node1 -->
<g id="edge45" class="edge">
<title>Node20&#45;&gt;Node1</title>
<path fill="none" stroke="#9a32cd" stroke-dasharray="5,2" d="M247.23,-447.32C255.76,-447.56 264.67,-447.77 273,-447.89 362.96,-449.22 565.93,-447.27 625,-445.89 630.76,-445.76 636.88,-445.56 642.81,-445.34"/>
<polygon fill="#9a32cd" stroke="#9a32cd" points="247.19,-443.82 237.09,-447.02 246.98,-450.81 247.19,-443.82"/>
<text text-anchor="middle" x="434.5" y="-450.89" font-family="Helvetica,sans-Serif" font-size="10.00"> param</text>
</g>
<!-- Node20&#45;&gt;Node18 -->
<g id="edge37" class="edge">
<title>Node20&#45;&gt;Node18</title>
<path fill="none" stroke="#9a32cd" stroke-dasharray="5,2" d="M247.45,-438.79C277.83,-433.27 319.77,-424.89 356,-414.89 373.86,-409.96 393.56,-403.08 408.63,-397.49"/>
<polygon fill="#9a32cd" stroke="#9a32cd" points="246.44,-435.41 237.21,-440.62 247.67,-442.3 246.44,-435.41"/>
<text text-anchor="middle" x="314.5" y="-435.89" font-family="Helvetica,sans-Serif" font-size="10.00"> params</text>
</g>
<!-- Node20&#45;&gt;Node20 -->
<g id="edge39" class="edge">
<title>Node20&#45;&gt;Node20</title>
<path fill="none" stroke="#9a32cd" stroke-dasharray="5,2" d="M185.61,-465.29C186.87,-470.2 193.17,-473.89 204.5,-473.89 222.63,-473.89 227.87,-464.46 220.22,-455.65"/>
<polygon fill="#9a32cd" stroke="#9a32cd" points="188.98,-466.24 188.78,-455.65 182.33,-464.06 188.98,-466.24"/>
<text text-anchor="middle" x="204.5" y="-476.89" font-family="Helvetica,sans-Serif" font-size="10.00"> next</text>
</g>
<!-- Node21 -->
<g id="node21" class="node">
<title>Node21</title>
<g id="a_node21"><a xlink:title=" ">
<polygon fill="none" stroke="#bfbfbf" points="411.5,-13.39 411.5,-32.39 457.5,-32.39 457.5,-13.39 411.5,-13.39"/>
<text text-anchor="middle" x="434.5" y="-20.39" font-family="Helvetica,sans-Serif" font-size="10.00">void *</text>
</a>
</g>
</g>
<!-- Node21&#45;&gt;Node1 -->
<g id="edge41" class="edge">
<title>Node21&#45;&gt;Node1</title>
<path fill="none" stroke="#9a32cd" stroke-dasharray="5,2" d="M467.17,-12.14C508.92,-0.2 582.06,12.74 625,-25.89 656.52,-54.25 672.8,-374.51 675.57,-434.31"/>
<polygon fill="#9a32cd" stroke="#9a32cd" points="466.09,-8.81 457.52,-15.05 468.11,-15.52 466.09,-8.81"/>
<text text-anchor="middle" x="569" y="-28.89" font-family="Helvetica,sans-Serif" font-size="10.00"> fn_return</text>
</g>
<!-- Node22&#45;&gt;Node1 -->
<g id="edge42" class="edge">
<title>Node22&#45;&gt;Node1</title>
<path fill="none" stroke="#9a32cd" stroke-dasharray="5,2" d="M244.85,-281.89C321.86,-294.84 496.16,-330.22 625,-401.89 641.04,-410.81 656.95,-424.99 666.63,-434.36"/>
<polygon fill="#9a32cd" stroke="#9a32cd" points="245.09,-278.38 234.65,-280.21 243.95,-285.28 245.09,-278.38"/>
<text text-anchor="middle" x="434.5" y="-345.89" font-family="Helvetica,sans-Serif" font-size="10.00"> for_stack</text>
</g>
</g>
</svg>
