<?xml version="1.0" encoding="UTF-8" standalone="no"?>
<!DOCTYPE svg PUBLIC "-//W3C//DTD SVG 1.1//EN"
 "http://www.w3.org/Graphics/SVG/1.1/DTD/svg11.dtd">
<!-- Generated by graphviz version 2.43.0 (0)
 -->
<!-- Title: map Pages: 1 -->
<svg width="275pt" height="295pt"
 viewBox="0.00 0.00 274.97 295.00" xmlns="http://www.w3.org/2000/svg" xmlns:xlink="http://www.w3.org/1999/xlink">
<g id="graph0" class="graph" transform="scale(1 1) rotate(0) translate(4 291)">
<title>map</title>
<!-- Node1 -->
<g id="node1" class="node">
<title>Node1</title>
<g id="a_node1"><a xlink:title="Ordered key→value container (red–black tree).">
<polygon fill="#bfbfbf" stroke="black" points="125.97,-0.5 125.97,-19.5 163.97,-19.5 163.97,-0.5 125.97,-0.5"/>
<text text-anchor="middle" x="144.97" y="-7.5" font-family="Helvetica,sans-Serif" font-size="10.00">map</text>
</a>
</g>
</g>
<!-- Node2 -->
<g id="node2" class="node">
<title>Node2</title>
<g id="a_node2"><a xlink:href="structvector.html" target="_top" xlink:title="Contiguous dynamic array of uintptr_t.">
<polygon fill="none" stroke="black" points="25.47,-189.5 25.47,-208.5 72.47,-208.5 72.47,-189.5 25.47,-189.5"/>
<text text-anchor="middle" x="48.97" y="-196.5" font-family="Helvetica,sans-Serif" font-size="10.00">vector</text>
</a>
</g>
</g>
<!-- Node2&#45;&gt;Node1 -->
<g id="edge1" class="edge">
<title>Node2&#45;&gt;Node1</title>
<path fill="none" stroke="#9a32cd" stroke-dasharray="5,2" d="M35.29,-181.1C15.73,-154.78 -15.29,-103.23 8.97,-67 35.4,-27.54 95.22,-15.86 125.96,-12.42"/>
<polygon fill="#9a32cd" stroke="#9a32cd" points="32.73,-183.52 41.61,-189.3 38.27,-179.24 32.73,-183.52"/>
<text text-anchor="middle" x="27.47" y="-74.5" font-family="Helvetica,sans-Serif" font-size="10.00"> free_ix</text>
</g>
<!-- Node5 -->
<g id="node5" class="node">
<title>Node5</title>
<g id="a_node5"><a xlink:href="structmap__soa.html" target="_top" xlink:title=" ">
<polygon fill="none" stroke="black" points="55.47,-67.5 55.47,-86.5 116.47,-86.5 116.47,-67.5 55.47,-67.5"/>
<text text-anchor="middle" x="85.97" y="-74.5" font-family="Helvetica,sans-Serif" font-size="10.00">map_soa</text>
</a>
</g>
</g>
<!-- Node2&#45;&gt;Node5 -->
<g id="edge5" class="edge">
<title>Node2&#45;&gt;Node5</title>
<path fill="none" stroke="#9a32cd" stroke-dasharray="5,2" d="M54.68,-179.5C62.8,-153.14 77.39,-105.85 83.34,-86.55"/>
<polygon fill="#9a32cd" stroke="#9a32cd" points="51.24,-178.78 51.64,-189.37 57.93,-180.85 51.24,-178.78"/>
<text text-anchor="middle" x="94.97" y="-163" font-family="Helvetica,sans-Serif" font-size="10.00"> colour</text>
<text text-anchor="middle" x="94.97" y="-152" font-family="Helvetica,sans-Serif" font-size="10.00">keys</text>
<text text-anchor="middle" x="94.97" y="-141" font-family="Helvetica,sans-Serif" font-size="10.00">left</text>
<text text-anchor="middle" x="94.97" y="-130" font-family="Helvetica,sans-Serif" font-size="10.00">parent</text>
<text text-anchor="middle" x="94.97" y="-119" font-family="Helvetica,sans-Serif" font-size="10.00">right</text>
<text text-anchor="middle" x="94.97" y="-108" font-family="Helvetica,sans-Serif" font-size="10.00">vals</text>
</g>
<!-- Node3 -->
<g id="node3" class="node">
<title>Node3</title>
<g id="a_node3"><a xlink:title=" ">
<polygon fill="none" stroke="#bfbfbf" points="3.97,-267.5 3.97,-286.5 69.97,-286.5 69.97,-267.5 3.97,-267.5"/>
<text text-anchor="middle" x="36.97" y="-274.5" font-family="Helvetica,sans-Serif" font-size="10.00">uintptr_t *</text>
</a>
</g>
</g>
<!-- Node3&#45;&gt;Node2 -->
<g id="edge2" class="edge">
<title>Node3&#45;&gt;Node2</title>
<path fill="none" stroke="#9a32cd" stroke-dasharray="5,2" d="M35.76,-257.21C35.57,-248.01 35.94,-236.83 37.97,-227 39.28,-220.66 42.03,-213.91 44.46,-208.74"/>
<polygon fill="#9a32cd" stroke="#9a32cd" points="32.27,-257.38 36.2,-267.22 39.26,-257.08 32.27,-257.38"/>
<text text-anchor="middle" x="50.47" y="-235.5" font-family="Helvetica,sans-Serif" font-size="10.00"> data</text>
</g>
<!-- Node4 -->
<g id="node4" class="node">
<title>Node4</title>
<g id="a_node4"><a xlink:title=" ">
<polygon fill="none" stroke="#bfbfbf" points="105.47,-267.5 105.47,-286.5 150.47,-286.5 150.47,-267.5 105.47,-267.5"/>
<text text-anchor="middle" x="127.97" y="-274.5" font-family="Helvetica,sans-Serif" font-size="10.00">size_t</text>
</a>
</g>
</g>
<!-- Node4&#45;&gt;Node1 -->
<g id="edge6" class="edge">
<title>Node4&#45;&gt;Node1</title>
<path fill="none" stroke="#9a32cd" stroke-dasharray="5,2" d="M130.17,-257.38C130.46,-254.58 130.74,-251.71 130.97,-249 138.57,-159.5 143.35,-50.72 144.63,-19.66"/>
<polygon fill="#9a32cd" stroke="#9a32cd" points="126.67,-257.17 129.03,-267.5 133.63,-257.95 126.67,-257.17"/>
<text text-anchor="middle" x="155.47" y="-141" font-family="Helvetica,sans-Serif" font-size="10.00"> count</text>
<text text-anchor="middle" x="155.47" y="-130" font-family="Helvetica,sans-Serif" font-size="10.00">root</text>
</g>
<!-- Node4&#45;&gt;Node2 -->
<g id="edge3" class="edge">
<title>Node4&#45;&gt;Node2</title>
<path fill="none" stroke="#9a32cd" stroke-dasharray="5,2" d="M102.94,-261.96C97.08,-258.13 91.06,-253.72 85.97,-249 72.69,-236.68 60.73,-219.11 54.2,-208.7"/>
<polygon fill="#9a32cd" stroke="#9a32cd" points="101.52,-265.2 111.87,-267.46 105.2,-259.24 101.52,-265.2"/>
<text text-anchor="middle" x="108.47" y="-241" font-family="Helvetica,sans-Serif" font-size="10.00"> capacity</text>
<text text-anchor="middle" x="108.47" y="-230" font-family="Helvetica,sans-Serif" font-size="10.00">count</text>
</g>
<!-- Node5&#45;&gt;Node1 -->
<g id="edge4" class="edge">
<title>Node5&#45;&gt;Node1</title>
<path fill="none" stroke="#9a32cd" stroke-dasharray="5,2" d="M100.83,-59.63C112.37,-46.92 127.91,-29.8 137.14,-19.63"/>
<polygon fill="#9a32cd" stroke="#9a32cd" points="98.06,-57.48 93.93,-67.23 103.24,-62.18 98.06,-57.48"/>
<text text-anchor="middle" x="123.97" y="-41" font-family="Helvetica,sans-Serif" font-size="10.00"> a</text>
</g>
<!-- Node6 -->
<g id="node6" class="node">
<title>Node6</title>
<g id="a_node6"><a xlink:title=" ">
<polygon fill="none" stroke="#bfbfbf" points="173.47,-67.5 173.47,-86.5 202.47,-86.5 202.47,-67.5 173.47,-67.5"/>
<text text-anchor="middle" x="187.97" y="-74.5" font-family="Helvetica,sans-Serif" font-size="10.00">int</text>
</a>
</g>
</g>
<!-- Node6&#45;&gt;Node1 -->
<g id="edge7" class="edge">
<title>Node6&#45;&gt;Node1</title>
<path fill="none" stroke="#9a32cd" stroke-dasharray="5,2" d="M176.42,-58.53C168.09,-45.95 157.22,-29.51 150.68,-19.63"/>
<polygon fill="#9a32cd" stroke="#9a32cd" points="173.74,-60.82 182.18,-67.23 179.58,-56.96 173.74,-60.82"/>
<text text-anchor="middle" x="181.47" y="-41" font-family="Helvetica,sans-Serif" font-size="10.00"> cmp</text>
</g>
<!-- Node7 -->
<g id="node7" class="node">
<title>Node7</title>
<g id="a_node7"><a xlink:title=" ">
<polygon fill="none" stroke="#bfbfbf" points="220.97,-67.5 220.97,-86.5 266.97,-86.5 266.97,-67.5 220.97,-67.5"/>
<text text-anchor="middle" x="243.97" y="-74.5" font-family="Helvetica,sans-Serif" font-size="10.00">void *</text>
</a>
</g>
</g>
<!-- Node7&#45;&gt;Node1 -->
<g id="edge8" class="edge">
<title>Node7&#45;&gt;Node1</title>
<path fill="none" stroke="#9a32cd" stroke-dasharray="5,2" d="M226.98,-60.44C218.59,-53.16 208.11,-44.65 197.97,-38 187.27,-30.97 174.5,-24.42 164.18,-19.53"/>
<polygon fill="#9a32cd" stroke="#9a32cd" points="224.78,-63.17 234.59,-67.19 229.43,-57.94 224.78,-63.17"/>
<text text-anchor="middle" x="231.97" y="-41" font-family="Helvetica,sans-Serif" font-size="10.00"> opaque</text>
</g>
</g>
</svg>
