<?xml version="1.0" encoding="UTF-8" standalone="no"?>
<!DOCTYPE svg PUBLIC "-//W3C//DTD SVG 1.1//EN"
 "http://www.w3.org/Graphics/SVG/1.1/DTD/svg11.dtd">
<!-- Generated by graphviz version 2.43.0 (0)
 -->
<!-- Title: ip_packet_frag_t Pages: 1 -->
<svg width="300pt" height="106pt"
 viewBox="0.00 0.00 299.50 106.00" xmlns="http://www.w3.org/2000/svg" xmlns:xlink="http://www.w3.org/1999/xlink">
<g id="graph0" class="graph" transform="scale(1 1) rotate(0) translate(4 102)">
<title>ip_packet_frag_t</title>
<!-- Node1 -->
<g id="node1" class="node">
<title>Node1</title>
<g id="a_node1"><a xlink:title=" ">
<polygon fill="#bfbfbf" stroke="black" points="61.5,-0.5 61.5,-19.5 158.5,-19.5 158.5,-0.5 61.5,-0.5"/>
<text text-anchor="middle" x="110" y="-7.5" font-family="Helvetica,sans-Serif" font-size="10.00">ip_packet_frag_t</text>
</a>
</g>
</g>
<!-- Node2 -->
<g id="node2" class="node">
<title>Node2</title>
<g id="a_node2"><a xlink:title=" ">
<polygon fill="none" stroke="black" points="0,-78.5 0,-97.5 56,-97.5 56,-78.5 0,-78.5"/>
<text text-anchor="middle" x="28" y="-85.5" font-family="Helvetica,sans-Serif" font-size="10.00">uint32_t</text>
</a>
</g>
</g>
<!-- Node2&#45;&gt;Node1 -->
<g id="edge1" class="edge">
<title>Node2&#45;&gt;Node1</title>
<path fill="none" stroke="#9a32cd" stroke-dasharray="5,2" d="M42.4,-70.8C51.43,-60.95 63.49,-48.34 75,-38 82.31,-31.44 91.06,-24.69 97.98,-19.58"/>
<polygon fill="#9a32cd" stroke="#9a32cd" points="39.73,-68.54 35.62,-78.3 44.92,-73.23 39.73,-68.54"/>
<text text-anchor="middle" x="90.5" y="-46.5" font-family="Helvetica,sans-Serif" font-size="10.00"> offset</text>
</g>
<!-- Node3 -->
<g id="node3" class="node">
<title>Node3</title>
<g id="a_node3"><a xlink:title=" ">
<polygon fill="none" stroke="black" points="74,-78.5 74,-97.5 146,-97.5 146,-78.5 74,-78.5"/>
<text text-anchor="middle" x="110" y="-85.5" font-family="Helvetica,sans-Serif" font-size="10.00">ip_packet_t</text>
</a>
</g>
</g>
<!-- Node3&#45;&gt;Node1 -->
<g id="edge2" class="edge">
<title>Node3&#45;&gt;Node1</title>
<path fill="none" stroke="#9a32cd" stroke-dasharray="5,2" d="M110,-68.22C110,-52.7 110,-31.36 110,-19.62"/>
<polygon fill="#9a32cd" stroke="#9a32cd" points="106.5,-68.28 110,-78.28 113.5,-68.28 106.5,-68.28"/>
<text text-anchor="middle" x="128" y="-46.5" font-family="Helvetica,sans-Serif" font-size="10.00"> packet</text>
</g>
<!-- Node4 -->
<g id="node4" class="node">
<title>Node4</title>
<g id="a_node4"><a xlink:title=" ">
<polygon fill="none" stroke="black" points="164.5,-78.5 164.5,-97.5 291.5,-97.5 291.5,-78.5 164.5,-78.5"/>
<text text-anchor="middle" x="228" y="-85.5" font-family="Helvetica,sans-Serif" font-size="10.00">struct ip_packet_frag *</text>
</a>
</g>
</g>
<!-- Node4&#45;&gt;Node1 -->
<g id="edge3" class="edge">
<title>Node4&#45;&gt;Node1</title>
<path fill="none" stroke="#9a32cd" stroke-dasharray="5,2" d="M205.91,-72.77C181.65,-57.15 143.47,-32.56 123.38,-19.62"/>
<polygon fill="#9a32cd" stroke="#9a32cd" points="204.16,-75.81 214.46,-78.28 207.95,-69.92 204.16,-75.81"/>
<text text-anchor="middle" x="195.5" y="-52" font-family="Helvetica,sans-Serif" font-size="10.00"> next</text>
<text text-anchor="middle" x="195.5" y="-41" font-family="Helvetica,sans-Serif" font-size="10.00">prev</text>
</g>
</g>
</svg>
