<?xml version="1.0" encoding="UTF-8" standalone="no"?>
<!DOCTYPE svg PUBLIC "-//W3C//DTD SVG 1.1//EN"
 "http://www.w3.org/Graphics/SVG/1.1/DTD/svg11.dtd">
<!-- Generated by graphviz version 2.43.0 (0)
 -->
<!-- Title: filesystem_t Pages: 1 -->
<svg width="362pt" height="140pt"
 viewBox="0.00 0.00 362.00 139.55" xmlns="http://www.w3.org/2000/svg" xmlns:xlink="http://www.w3.org/1999/xlink">
<g id="graph0" class="graph" transform="scale(1 1) rotate(0) translate(4 135.55)">
<title>filesystem_t</title>
<!-- Node1 -->
<g id="node1" class="node">
<title>Node1</title>
<g id="a_node1"><a xlink:title="Defines a filesystem driver.">
<polygon fill="#bfbfbf" stroke="black" points="113.5,-1.05 113.5,-20.05 190.5,-20.05 190.5,-1.05 113.5,-1.05"/>
<text text-anchor="middle" x="152" y="-8.05" font-family="Helvetica,sans-Serif" font-size="10.00">filesystem_t</text>
</a>
</g>
</g>
<!-- Node1&#45;&gt;Node1 -->
<g id="edge6" class="edge">
<title>Node1&#45;&gt;Node1</title>
<path fill="none" stroke="#9a32cd" stroke-dasharray="5,2" d="M188.69,-20.66C199.81,-20.4 208.5,-17.03 208.5,-10.55 208.5,-2.16 193.97,1.02 178.45,-1.02"/>
<polygon fill="#9a32cd" stroke="#9a32cd" points="188.63,-17.15 178.45,-20.08 188.23,-24.14 188.63,-17.15"/>
<text text-anchor="middle" x="221" y="-8.05" font-family="Helvetica,sans-Serif" font-size="10.00"> next</text>
</g>
<!-- Node2 -->
<g id="node2" class="node">
<title>Node2</title>
<g id="a_node2"><a xlink:title=" ">
<polygon fill="none" stroke="black" points="0,-112.05 0,-131.05 38,-131.05 38,-112.05 0,-112.05"/>
<text text-anchor="middle" x="19" y="-119.05" font-family="Helvetica,sans-Serif" font-size="10.00">char</text>
</a>
</g>
</g>
<!-- Node2&#45;&gt;Node1 -->
<g id="edge1" class="edge">
<title>Node2&#45;&gt;Node1</title>
<path fill="none" stroke="#9a32cd" stroke-dasharray="5,2" d="M20.12,-101.73C22.26,-83.08 28.4,-54.98 46,-38.55 64.05,-21.7 91.1,-15 113.36,-12.49"/>
<polygon fill="#9a32cd" stroke="#9a32cd" points="16.61,-101.68 19.24,-111.94 23.59,-102.28 16.61,-101.68"/>
<text text-anchor="middle" x="61.5" y="-63.55" font-family="Helvetica,sans-Serif" font-size="10.00"> name</text>
</g>
<!-- Node3 -->
<g id="node3" class="node">
<title>Node3</title>
<g id="a_node3"><a xlink:title=" ">
<polygon fill="none" stroke="black" points="57.5,-112.05 57.5,-131.05 86.5,-131.05 86.5,-112.05 57.5,-112.05"/>
<text text-anchor="middle" x="72" y="-119.05" font-family="Helvetica,sans-Serif" font-size="10.00">int</text>
</a>
</g>
</g>
<!-- Node3&#45;&gt;Node1 -->
<g id="edge2" class="edge">
<title>Node3&#45;&gt;Node1</title>
<path fill="none" stroke="#9a32cd" stroke-dasharray="5,2" d="M78.16,-102.11C84.74,-84.39 96.51,-57.57 113,-38.55 119.37,-31.21 128.15,-24.9 135.77,-20.23"/>
<polygon fill="#9a32cd" stroke="#9a32cd" points="74.76,-101.22 74.74,-111.81 81.36,-103.55 74.76,-101.22"/>
<text text-anchor="middle" x="130.5" y="-63.55" font-family="Helvetica,sans-Serif" font-size="10.00"> mount</text>
</g>
<!-- Node4 -->
<g id="node4" class="node">
<title>Node4</title>
<g id="a_node4"><a xlink:title=" ">
<polygon fill="none" stroke="black" points="104.5,-112.05 104.5,-131.05 199.5,-131.05 199.5,-112.05 104.5,-112.05"/>
<text text-anchor="middle" x="152" y="-119.05" font-family="Helvetica,sans-Serif" font-size="10.00">void *(*)(void *)</text>
</a>
</g>
</g>
<!-- Node4&#45;&gt;Node1 -->
<g id="edge3" class="edge">
<title>Node4&#45;&gt;Node1</title>
<path fill="none" stroke="#9a32cd" stroke-dasharray="5,2" d="M152,-101.74C152,-77.82 152,-37.54 152,-20.06"/>
<polygon fill="#9a32cd" stroke="#9a32cd" points="148.5,-101.99 152,-111.99 155.5,-101.99 148.5,-101.99"/>
<text text-anchor="middle" x="168" y="-63.55" font-family="Helvetica,sans-Serif" font-size="10.00"> getdir</text>
</g>
<!-- Node5 -->
<g id="node5" class="node">
<title>Node5</title>
<g id="a_node5"><a xlink:title=" ">
<polygon fill="none" stroke="black" points="218,-112.05 218,-131.05 256,-131.05 256,-112.05 218,-112.05"/>
<text text-anchor="middle" x="237" y="-119.05" font-family="Helvetica,sans-Serif" font-size="10.00">bool</text>
</a>
</g>
</g>
<!-- Node5&#45;&gt;Node1 -->
<g id="edge4" class="edge">
<title>Node5&#45;&gt;Node1</title>
<path fill="none" stroke="#9a32cd" stroke-dasharray="5,2" d="M228.93,-102.81C220.39,-85.25 205.72,-58.23 188,-38.55 181.62,-31.46 173.15,-25 166.02,-20.17"/>
<polygon fill="#9a32cd" stroke="#9a32cd" points="225.8,-104.37 233.23,-111.92 232.13,-101.39 225.8,-104.37"/>
<text text-anchor="middle" x="252" y="-85.55" font-family="Helvetica,sans-Serif" font-size="10.00"> readfile</text>
<text text-anchor="middle" x="252" y="-74.55" font-family="Helvetica,sans-Serif" font-size="10.00">rm</text>
<text text-anchor="middle" x="252" y="-63.55" font-family="Helvetica,sans-Serif" font-size="10.00">rmdir</text>
<text text-anchor="middle" x="252" y="-52.55" font-family="Helvetica,sans-Serif" font-size="10.00">truncatefile</text>
<text text-anchor="middle" x="252" y="-41.55" font-family="Helvetica,sans-Serif" font-size="10.00">writefile</text>
</g>
<!-- Node6 -->
<g id="node6" class="node">
<title>Node6</title>
<g id="a_node6"><a xlink:title=" ">
<polygon fill="none" stroke="black" points="281,-112.05 281,-131.05 337,-131.05 337,-112.05 281,-112.05"/>
<text text-anchor="middle" x="309" y="-119.05" font-family="Helvetica,sans-Serif" font-size="10.00">uint64_t</text>
</a>
</g>
</g>
<!-- Node6&#45;&gt;Node1 -->
<g id="edge5" class="edge">
<title>Node6&#45;&gt;Node1</title>
<path fill="none" stroke="#9a32cd" stroke-dasharray="5,2" d="M308.56,-101.86C307.07,-83.09 301.77,-54.72 284,-38.55 270.51,-26.27 224.44,-18.93 190.51,-15.07"/>
<polygon fill="#9a32cd" stroke="#9a32cd" points="305.07,-102.06 309.07,-111.87 312.06,-101.7 305.07,-102.06"/>
<text text-anchor="middle" x="330.5" y="-69.05" font-family="Helvetica,sans-Serif" font-size="10.00"> createdir</text>
<text text-anchor="middle" x="330.5" y="-58.05" font-family="Helvetica,sans-Serif" font-size="10.00">createfile</text>
</g>
</g>
</svg>
