<?xml version="1.0" encoding="UTF-8" standalone="no"?>
<!DOCTYPE svg PUBLIC "-//W3C//DTD SVG 1.1//EN"
 "http://www.w3.org/Graphics/SVG/1.1/DTD/svg11.dtd">
<!-- Generated by graphviz version 2.43.0 (0)
 -->
<!-- Title: basic_ctx Pages: 1 -->
<!--zoomable 1122 -->
<svg id="main" version="1.1" xmlns="http://www.w3.org/2000/svg" xmlns:xlink="http://www.w3.org/1999/xlink" xml:space="preserve" onload="init(evt)">
<style type="text/css"><![CDATA[
.edge:hover path { stroke: red; }
.edge:hover polygon { stroke: red; fill: red; }
]]></style>
<script type="text/javascript"><![CDATA[
var edges = document.getElementsByTagName('g');
if (edges && edges.length) {
  for (var i=0;i<edges.length;i++) {
    if (edges[i].id.substr(0,4)=='edge') {
      edges[i].setAttribute('class','edge');
    }
  }
}
]]></script>
        <defs>
                <circle id="rim" cx="0" cy="0" r="7"/>
                <circle id="rim2" cx="0" cy="0" r="3.5"/>
                <g id="zoomPlus">
                        <use xlink:href="#rim" fill="#404040">
                                <set attributeName="fill" to="#808080" begin="zoomplus.mouseover" end="zoomplus.mouseout"/>
                        </use>
                        <path d="M-4,0h8M0,-4v8" fill="none" stroke="white" stroke-width="1.5" pointer-events="none"/>
                </g>
                <g id="zoomMin">
                        <use xlink:href="#rim" fill="#404040">
                                <set attributeName="fill" to="#808080" begin="zoomminus.mouseover" end="zoomminus.mouseout"/>
                        </use>
                        <path d="M-4,0h8" fill="none" stroke="white" stroke-width="1.5" pointer-events="none"/>
                </g>
                <g id="dirArrow">
                        <path fill="none" stroke="white" stroke-width="1.5" d="M0,-3.0v7 M-2.5,-0.5L0,-3.0L2.5,-0.5"/>
                </g>
               <g id="resetDef">
                       <use xlink:href="#rim2" fill="#404040">
                               <set attributeName="fill" to="#808080" begin="reset.mouseover" end="reset.mouseout"/>
                       </use>
               </g>
        </defs>

<script type="text/javascript">
var viewWidth = 623;
var viewHeight = 1122;
var sectionId = 'dynsection-0';
</script>
<script xlink:href="svgpan.js"/>
<svg id="graph" class="graph">
<g id="viewport">
<title>basic_ctx</title>
<!-- Node1 -->
<g id="node1" class="node">
<title>Node1</title>
<g id="a_node1"><a xlink:title="BASIC program context. Every instance of a BASIC program has one of these,* also certain structures s...">
<polygon fill="#bfbfbf" stroke="black" points="553,-475.09 553,-494.09 615,-494.09 615,-475.09 553,-475.09"/>
<text text-anchor="middle" x="584" y="-482.09" font-family="Helvetica,sans-Serif" font-size="10.00">basic_ctx</text>
</a>
</g>
</g>
<!-- Node2 -->
<g id="node2" class="node">
<title>Node2</title>
<g id="a_node2"><a xlink:title=" ">
<polygon fill="none" stroke="#bfbfbf" points="294.5,-1082.09 294.5,-1101.09 384.5,-1101.09 384.5,-1082.09 294.5,-1082.09"/>
<text text-anchor="middle" x="339.5" y="-1089.09" font-family="Helvetica,sans-Serif" font-size="10.00">ub_return_type</text>
</a>
</g>
</g>
<!-- Node2&#45;&gt;Node1 -->
<g id="edge1" class="edge">
<title>Node2&#45;&gt;Node1</title>
<path fill="none" stroke="#9a32cd" stroke-dasharray="5,2" d="M394.9,-1101.61C439.09,-1106.31 499.69,-1104.36 535,-1067.59 576.41,-1024.46 582.25,-567.32 582.92,-494.38"/>
<polygon fill="#9a32cd" stroke="#9a32cd" points="395.23,-1098.12 384.89,-1100.4 394.39,-1105.07 395.23,-1098.12"/>
<text text-anchor="middle" x="476" y="-1105.59" font-family="Helvetica,sans-Serif" font-size="10.00"> fn_type</text>
</g>
<!-- Node3 -->
<g id="node3" class="node">
<title>Node3</title>
<g id="a_node3"><a xlink:href="structub__var__double__array.html" target="_top" xlink:title="An array of real (double)">
<polygon fill="none" stroke="black" points="280,-977.09 280,-996.09 399,-996.09 399,-977.09 280,-977.09"/>
<text text-anchor="middle" x="339.5" y="-984.09" font-family="Helvetica,sans-Serif" font-size="10.00">ub_var_double_array</text>
</a>
</g>
</g>
<!-- Node3&#45;&gt;Node1 -->
<g id="edge2" class="edge">
<title>Node3&#45;&gt;Node1</title>
<path fill="none" stroke="#9a32cd" stroke-dasharray="5,2" d="M409.41,-987.87C452.02,-984.73 504.26,-973.02 535,-937.59 565.13,-902.88 580.12,-557.57 582.62,-494.47"/>
<polygon fill="#9a32cd" stroke="#9a32cd" points="409.14,-984.38 399.37,-988.47 409.56,-991.37 409.14,-984.38"/>
<text text-anchor="middle" x="476" y="-989.59" font-family="Helvetica,sans-Serif" font-size="10.00"> double_array_variables</text>
</g>
<!-- Node3&#45;&gt;Node3 -->
<g id="edge3" class="edge">
<title>Node3&#45;&gt;Node3</title>
<path fill="none" stroke="#9a32cd" stroke-dasharray="5,2" d="M319.13,-1005.99C320.49,-1010.91 327.28,-1014.59 339.5,-1014.59 359.05,-1014.59 364.7,-1005.16 356.45,-996.35"/>
<polygon fill="#9a32cd" stroke="#9a32cd" points="322.51,-1006.94 322.55,-996.35 315.91,-1004.61 322.51,-1006.94"/>
<text text-anchor="middle" x="339.5" y="-1017.59" font-family="Helvetica,sans-Serif" font-size="10.00"> next</text>
</g>
<!-- Node4 -->
<g id="node4" class="node">
<title>Node4</title>
<g id="a_node4"><a xlink:title=" ">
<polygon fill="none" stroke="#bfbfbf" points="115.5,-953.09 115.5,-972.09 165.5,-972.09 165.5,-953.09 115.5,-953.09"/>
<text text-anchor="middle" x="140.5" y="-960.09" font-family="Helvetica,sans-Serif" font-size="10.00">double</text>
</a>
</g>
</g>
<!-- Node4&#45;&gt;Node3 -->
<g id="edge4" class="edge">
<title>Node4&#45;&gt;Node3</title>
<path fill="none" stroke="#9a32cd" stroke-dasharray="5,2" d="M175.59,-966.75C204.24,-970.24 245.85,-975.31 279.84,-979.45"/>
<polygon fill="#9a32cd" stroke="#9a32cd" points="176.01,-963.27 165.66,-965.54 175.16,-970.22 176.01,-963.27"/>
<text text-anchor="middle" x="228" y="-979.59" font-family="Helvetica,sans-Serif" font-size="10.00"> values</text>
</g>
<!-- Node15 -->
<g id="node15" class="node">
<title>Node15</title>
<g id="a_node15"><a xlink:href="structub__var__double.html" target="_top" xlink:title="A real (double) variable.">
<polygon fill="none" stroke="black" points="295.5,-910.09 295.5,-929.09 383.5,-929.09 383.5,-910.09 295.5,-910.09"/>
<text text-anchor="middle" x="339.5" y="-917.09" font-family="Helvetica,sans-Serif" font-size="10.00">ub_var_double</text>
</a>
</g>
</g>
<!-- Node4&#45;&gt;Node15 -->
<g id="edge26" class="edge">
<title>Node4&#45;&gt;Node15</title>
<path fill="none" stroke="#9a32cd" stroke-dasharray="5,2" d="M175.8,-955.11C209.02,-947.86 259.5,-936.84 295.42,-929"/>
<polygon fill="#9a32cd" stroke="#9a32cd" points="174.68,-951.77 165.66,-957.32 176.17,-958.61 174.68,-951.77"/>
<text text-anchor="middle" x="228" y="-953.59" font-family="Helvetica,sans-Serif" font-size="10.00"> value</text>
</g>
<!-- Node5 -->
<g id="node5" class="node">
<title>Node5</title>
<g id="a_node5"><a xlink:title=" ">
<polygon fill="none" stroke="#bfbfbf" points="112.5,-781.09 112.5,-800.09 168.5,-800.09 168.5,-781.09 112.5,-781.09"/>
<text text-anchor="middle" x="140.5" y="-788.09" font-family="Helvetica,sans-Serif" font-size="10.00">uint64_t</text>
</a>
</g>
</g>
<!-- Node5&#45;&gt;Node1 -->
<g id="edge16" class="edge">
<title>Node5&#45;&gt;Node1</title>
<path fill="none" stroke="#9a32cd" stroke-dasharray="5,2" d="M178.84,-783.75C274.58,-766.07 522.25,-719.31 535,-706.59 565.85,-675.82 579.21,-532.73 582.28,-494.18"/>
<polygon fill="#9a32cd" stroke="#9a32cd" points="177.93,-780.36 168.73,-785.62 179.2,-787.25 177.93,-780.36"/>
<text text-anchor="middle" x="339.5" y="-821.59" font-family="Helvetica,sans-Serif" font-size="10.00"> call_stack</text>
<text text-anchor="middle" x="339.5" y="-810.59" font-family="Helvetica,sans-Serif" font-size="10.00">call_stack_ptr</text>
<text text-anchor="middle" x="339.5" y="-799.59" font-family="Helvetica,sans-Serif" font-size="10.00">for_stack_ptr</text>
<text text-anchor="middle" x="339.5" y="-788.59" font-family="Helvetica,sans-Serif" font-size="10.00">if_nest_level</text>
<text text-anchor="middle" x="339.5" y="-777.59" font-family="Helvetica,sans-Serif" font-size="10.00">repeat_stack</text>
<text text-anchor="middle" x="339.5" y="-766.59" font-family="Helvetica,sans-Serif" font-size="10.00">repeat_stack_ptr</text>
</g>
<!-- Node5&#45;&gt;Node3 -->
<g id="edge5" class="edge">
<title>Node5&#45;&gt;Node3</title>
<path fill="none" stroke="#9a32cd" stroke-dasharray="5,2" d="M157.62,-808.09C190.39,-843.68 261.75,-921.19 262,-921.59 273.63,-940.21 264.03,-952.53 280,-967.59 284.12,-971.47 289.04,-974.56 294.25,-977.02"/>
<polygon fill="#9a32cd" stroke="#9a32cd" points="159.88,-805.39 150.53,-800.4 154.73,-810.13 159.88,-805.39"/>
<text text-anchor="middle" x="228" y="-924.59" font-family="Helvetica,sans-Serif" font-size="10.00"> itemcount</text>
</g>
<!-- Node7 -->
<g id="node7" class="node">
<title>Node7</title>
<g id="a_node7"><a xlink:href="structub__var__string__array.html" target="_top" xlink:title="An array of strings.">
<polygon fill="none" stroke="black" points="283,-843.09 283,-862.09 396,-862.09 396,-843.09 283,-843.09"/>
<text text-anchor="middle" x="339.5" y="-850.09" font-family="Helvetica,sans-Serif" font-size="10.00">ub_var_string_array</text>
</a>
</g>
</g>
<!-- Node5&#45;&gt;Node7 -->
<g id="edge9" class="edge">
<title>Node5&#45;&gt;Node7</title>
<path fill="none" stroke="#9a32cd" stroke-dasharray="5,2" d="M171.87,-804.09C179.06,-807.07 186.75,-810.08 194,-812.59 228.93,-824.69 269.57,-835.67 298.83,-843.06"/>
<polygon fill="#9a32cd" stroke="#9a32cd" points="173.04,-800.78 162.47,-800.1 170.3,-807.22 173.04,-800.78"/>
<text text-anchor="middle" x="228" y="-835.59" font-family="Helvetica,sans-Serif" font-size="10.00"> itemcount</text>
</g>
<!-- Node18 -->
<g id="node18" class="node">
<title>Node18</title>
<g id="a_node18"><a xlink:href="structub__var__int__array.html" target="_top" xlink:title="An array of integers.">
<polygon fill="none" stroke="black" points="290.5,-674.09 290.5,-693.09 388.5,-693.09 388.5,-674.09 290.5,-674.09"/>
<text text-anchor="middle" x="339.5" y="-681.09" font-family="Helvetica,sans-Serif" font-size="10.00">ub_var_int_array</text>
</a>
</g>
</g>
<!-- Node5&#45;&gt;Node18 -->
<g id="edge33" class="edge">
<title>Node5&#45;&gt;Node18</title>
<path fill="none" stroke="#9a32cd" stroke-dasharray="5,2" d="M156.87,-773.32C166.65,-763.19 180.07,-750.82 194,-742.59 221.47,-726.37 232.41,-731.52 262,-719.59 282.01,-711.53 304.27,-700.86 319.59,-693.23"/>
<polygon fill="#9a32cd" stroke="#9a32cd" points="154.12,-771.13 149.86,-780.83 159.24,-775.91 154.12,-771.13"/>
<text text-anchor="middle" x="228" y="-745.59" font-family="Helvetica,sans-Serif" font-size="10.00"> itemcount</text>
</g>
<!-- Node6 -->
<g id="node6" class="node">
<title>Node6</title>
<g id="a_node6"><a xlink:title=" ">
<polygon fill="none" stroke="#bfbfbf" points="0,-624.09 0,-643.09 38,-643.09 38,-624.09 0,-624.09"/>
<text text-anchor="middle" x="19" y="-631.09" font-family="Helvetica,sans-Serif" font-size="10.00">char</text>
</a>
</g>
</g>
<!-- Node6&#45;&gt;Node1 -->
<g id="edge17" class="edge">
<title>Node6&#45;&gt;Node1</title>
<path fill="none" stroke="#9a32cd" stroke-dasharray="5,2" d="M20.03,-653.58C20.61,-701.93 25.2,-828.6 56,-928.59 69.99,-974 65.23,-997.61 105,-1023.59 185.1,-1075.92 472.44,-1073.99 535,-1001.59 569.48,-961.69 581.03,-562.78 582.76,-494.51"/>
<polygon fill="#9a32cd" stroke="#9a32cd" points="23.53,-653.25 19.95,-643.27 16.53,-653.3 23.53,-653.25"/>
<text text-anchor="middle" x="228" y="-1105.59" font-family="Helvetica,sans-Serif" font-size="10.00"> item_begin</text>
<text text-anchor="middle" x="228" y="-1094.59" font-family="Helvetica,sans-Serif" font-size="10.00">nextptr</text>
<text text-anchor="middle" x="228" y="-1083.59" font-family="Helvetica,sans-Serif" font-size="10.00">program_ptr</text>
<text text-anchor="middle" x="228" y="-1072.59" font-family="Helvetica,sans-Serif" font-size="10.00">ptr</text>
<text text-anchor="middle" x="228" y="-1061.59" font-family="Helvetica,sans-Serif" font-size="10.00">string</text>
</g>
<!-- Node6&#45;&gt;Node3 -->
<g id="edge6" class="edge">
<title>Node6&#45;&gt;Node3</title>
<path fill="none" stroke="#9a32cd" stroke-dasharray="5,2" d="M21.73,-653.36C28.06,-720.77 52.43,-939.78 105,-981.59 164.18,-1028.66 261.06,-1009.8 309.3,-996.1"/>
<polygon fill="#9a32cd" stroke="#9a32cd" points="25.2,-652.89 20.81,-643.25 18.23,-653.52 25.2,-652.89"/>
<text text-anchor="middle" x="140.5" y="-1011.59" font-family="Helvetica,sans-Serif" font-size="10.00"> varname</text>
</g>
<!-- Node6&#45;&gt;Node7 -->
<g id="edge10" class="edge">
<title>Node6&#45;&gt;Node7</title>
<path fill="none" stroke="#9a32cd" stroke-dasharray="5,2" d="M24.64,-653.6C33.92,-689.49 58.06,-765.2 105,-809.59 152.32,-854.34 230.18,-860.23 282.85,-858.18"/>
<polygon fill="#9a32cd" stroke="#9a32cd" points="27.92,-652.31 22.13,-643.44 21.13,-653.98 27.92,-652.31"/>
<text text-anchor="middle" x="140.5" y="-860.59" font-family="Helvetica,sans-Serif" font-size="10.00"> values</text>
<text text-anchor="middle" x="140.5" y="-849.59" font-family="Helvetica,sans-Serif" font-size="10.00">varname</text>
</g>
<!-- Node8 -->
<g id="node8" class="node">
<title>Node8</title>
<g id="a_node8"><a xlink:href="structub__var__int.html" target="_top" xlink:title="An integer variable.">
<polygon fill="none" stroke="black" points="305.5,-373.09 305.5,-392.09 373.5,-392.09 373.5,-373.09 305.5,-373.09"/>
<text text-anchor="middle" x="339.5" y="-380.09" font-family="Helvetica,sans-Serif" font-size="10.00">ub_var_int</text>
</a>
</g>
</g>
<!-- Node6&#45;&gt;Node8 -->
<g id="edge13" class="edge">
<title>Node6&#45;&gt;Node8</title>
<path fill="none" stroke="#9a32cd" stroke-dasharray="5,2" d="M21.15,-613.57C24.84,-569.93 40.33,-466.51 105,-420.59 165.45,-377.67 256.73,-376.39 305.32,-379.36"/>
<polygon fill="#9a32cd" stroke="#9a32cd" points="17.64,-613.53 20.41,-623.75 24.62,-614.03 17.64,-613.53"/>
<text text-anchor="middle" x="140.5" y="-423.59" font-family="Helvetica,sans-Serif" font-size="10.00"> varname</text>
</g>
<!-- Node11 -->
<g id="node11" class="node">
<title>Node11</title>
<g id="a_node11"><a xlink:href="structconsole.html" target="_top" xlink:title=" ">
<polygon fill="none" stroke="black" points="312.5,-162.09 312.5,-181.09 366.5,-181.09 366.5,-162.09 312.5,-162.09"/>
<text text-anchor="middle" x="339.5" y="-169.09" font-family="Helvetica,sans-Serif" font-size="10.00">console</text>
</a>
</g>
</g>
<!-- Node6&#45;&gt;Node11 -->
<g id="edge19" class="edge">
<title>Node6&#45;&gt;Node11</title>
<path fill="none" stroke="#9a32cd" stroke-dasharray="5,2" d="M20.02,-613.99C20.61,-530.9 27.89,-209.64 105,-156.59 137.96,-133.91 258.47,-155.02 312.26,-165.96"/>
<polygon fill="#9a32cd" stroke="#9a32cd" points="16.52,-614.06 19.98,-624.08 23.52,-614.09 16.52,-614.06"/>
<text text-anchor="middle" x="140.5" y="-181.59" font-family="Helvetica,sans-Serif" font-size="10.00"> buffer</text>
<text text-anchor="middle" x="140.5" y="-170.59" font-family="Helvetica,sans-Serif" font-size="10.00">dirty</text>
<text text-anchor="middle" x="140.5" y="-159.59" font-family="Helvetica,sans-Serif" font-size="10.00">internalbuffer</text>
</g>
<!-- Node6&#45;&gt;Node15 -->
<g id="edge27" class="edge">
<title>Node6&#45;&gt;Node15</title>
<path fill="none" stroke="#9a32cd" stroke-dasharray="5,2" d="M20.87,-653.21C24,-699.03 38.44,-813.64 105,-872.59 157.78,-919.34 243.83,-924.66 295.42,-923.01"/>
<polygon fill="#9a32cd" stroke="#9a32cd" points="24.35,-652.9 20.29,-643.12 17.37,-653.3 24.35,-652.9"/>
<text text-anchor="middle" x="140.5" y="-911.59" font-family="Helvetica,sans-Serif" font-size="10.00"> varname</text>
</g>
<!-- Node6&#45;&gt;Node18 -->
<g id="edge34" class="edge">
<title>Node6&#45;&gt;Node18</title>
<path fill="none" stroke="#9a32cd" stroke-dasharray="5,2" d="M41.8,-648.9C58.37,-659.77 82.13,-673.77 105,-681.59 166.18,-702.52 241.77,-698.14 290.06,-691.87"/>
<polygon fill="#9a32cd" stroke="#9a32cd" points="43.64,-645.92 33.39,-643.24 39.73,-651.73 43.64,-645.92"/>
<text text-anchor="middle" x="140.5" y="-697.59" font-family="Helvetica,sans-Serif" font-size="10.00"> varname</text>
</g>
<!-- Node19 -->
<g id="node19" class="node">
<title>Node19</title>
<g id="a_node19"><a xlink:href="structub__proc__fn__def.html" target="_top" xlink:title="Procedure or function definition Each has a name, a type, a starting line and a parameter list.">
<polygon fill="none" stroke="black" points="294,-555.09 294,-574.09 385,-574.09 385,-555.09 294,-555.09"/>
<text text-anchor="middle" x="339.5" y="-562.09" font-family="Helvetica,sans-Serif" font-size="10.00">ub_proc_fn_def</text>
</a>
</g>
</g>
<!-- Node6&#45;&gt;Node19 -->
<g id="edge40" class="edge">
<title>Node6&#45;&gt;Node19</title>
<path fill="none" stroke="#9a32cd" stroke-dasharray="5,2" d="M47.81,-622.4C64.23,-616.14 85.55,-608.61 105,-603.59 169.67,-586.91 246.32,-575.7 293.69,-569.73"/>
<polygon fill="#9a32cd" stroke="#9a32cd" points="46.34,-619.21 38.28,-626.1 48.87,-625.74 46.34,-619.21"/>
<text text-anchor="middle" x="140.5" y="-606.59" font-family="Helvetica,sans-Serif" font-size="10.00"> name</text>
</g>
<!-- Node21 -->
<g id="node21" class="node">
<title>Node21</title>
<g id="a_node21"><a xlink:href="structub__param.html" target="_top" xlink:title="FN/PROC parameter.">
<polygon fill="none" stroke="black" points="108,-624.09 108,-643.09 173,-643.09 173,-624.09 108,-624.09"/>
<text text-anchor="middle" x="140.5" y="-631.09" font-family="Helvetica,sans-Serif" font-size="10.00">ub_param</text>
</a>
</g>
</g>
<!-- Node6&#45;&gt;Node21 -->
<g id="edge44" class="edge">
<title>Node6&#45;&gt;Node21</title>
<path fill="none" stroke="#9a32cd" stroke-dasharray="5,2" d="M48.23,-633.59C66.07,-633.59 89.17,-633.59 107.67,-633.59"/>
<polygon fill="#9a32cd" stroke="#9a32cd" points="48.15,-630.09 38.15,-633.59 48.15,-637.09 48.15,-630.09"/>
<text text-anchor="middle" x="71.5" y="-636.59" font-family="Helvetica,sans-Serif" font-size="10.00"> name</text>
</g>
<!-- Node22 -->
<g id="node22" class="node">
<title>Node22</title>
<g id="a_node22"><a xlink:href="structub__var__string.html" target="_top" xlink:title="A string variable.">
<polygon fill="none" stroke="black" points="298,-305.09 298,-324.09 381,-324.09 381,-305.09 298,-305.09"/>
<text text-anchor="middle" x="339.5" y="-312.09" font-family="Helvetica,sans-Serif" font-size="10.00">ub_var_string</text>
</a>
</g>
</g>
<!-- Node6&#45;&gt;Node22 -->
<g id="edge47" class="edge">
<title>Node6&#45;&gt;Node22</title>
<path fill="none" stroke="#9a32cd" stroke-dasharray="5,2" d="M21.33,-613.98C26.54,-544.11 48.09,-309.2 105,-266.59 138.05,-241.85 261.39,-284.82 314.23,-304.99"/>
<polygon fill="#9a32cd" stroke="#9a32cd" points="17.84,-613.83 20.61,-624.06 24.82,-614.33 17.84,-613.83"/>
<text text-anchor="middle" x="140.5" y="-280.59" font-family="Helvetica,sans-Serif" font-size="10.00"> value</text>
<text text-anchor="middle" x="140.5" y="-269.59" font-family="Helvetica,sans-Serif" font-size="10.00">varname</text>
</g>
<!-- Node24 -->
<g id="node24" class="node">
<title>Node24</title>
<g id="a_node24"><a xlink:href="structfor__state.html" target="_top" xlink:title="State for a FOR...NEXT loop.">
<polygon fill="none" stroke="black" points="309.5,-440.09 309.5,-459.09 369.5,-459.09 369.5,-440.09 309.5,-440.09"/>
<text text-anchor="middle" x="339.5" y="-447.09" font-family="Helvetica,sans-Serif" font-size="10.00">for_state</text>
</a>
</g>
</g>
<!-- Node6&#45;&gt;Node24 -->
<g id="edge52" class="edge">
<title>Node6&#45;&gt;Node24</title>
<path fill="none" stroke="#9a32cd" stroke-dasharray="5,2" d="M24.9,-614.01C34.49,-579.6 58.93,-508.11 105,-467.59 162.09,-417.38 260.37,-430.92 309.2,-441.87"/>
<polygon fill="#9a32cd" stroke="#9a32cd" points="21.49,-613.23 22.3,-623.79 28.25,-615.02 21.49,-613.23"/>
<text text-anchor="middle" x="140.5" y="-470.59" font-family="Helvetica,sans-Serif" font-size="10.00"> for_variable</text>
</g>
<!-- Node7&#45;&gt;Node1 -->
<g id="edge7" class="edge">
<title>Node7&#45;&gt;Node1</title>
<path fill="none" stroke="#9a32cd" stroke-dasharray="5,2" d="M406.15,-842.44C449.36,-832.24 503.55,-812.07 535,-772.59 570.53,-727.99 580.68,-539.32 582.62,-494.28"/>
<polygon fill="#9a32cd" stroke="#9a32cd" points="405.26,-839.05 396.27,-844.65 406.79,-845.88 405.26,-839.05"/>
<text text-anchor="middle" x="476" y="-841.59" font-family="Helvetica,sans-Serif" font-size="10.00"> string_array_variables</text>
</g>
<!-- Node7&#45;&gt;Node7 -->
<g id="edge8" class="edge">
<title>Node7&#45;&gt;Node7</title>
<path fill="none" stroke="#9a32cd" stroke-dasharray="5,2" d="M319.13,-871.99C320.49,-876.91 327.28,-880.59 339.5,-880.59 359.05,-880.59 364.7,-871.16 356.45,-862.35"/>
<polygon fill="#9a32cd" stroke="#9a32cd" points="322.51,-872.94 322.55,-862.35 315.91,-870.61 322.51,-872.94"/>
<text text-anchor="middle" x="339.5" y="-883.59" font-family="Helvetica,sans-Serif" font-size="10.00"> next</text>
</g>
<!-- Node8&#45;&gt;Node1 -->
<g id="edge11" class="edge">
<title>Node8&#45;&gt;Node1</title>
<path fill="none" stroke="#9a32cd" stroke-dasharray="5,2" d="M383.79,-385.86C425.18,-390.62 488.06,-402.26 535,-430.59 553.69,-441.87 569.15,-462.76 577.13,-474.99"/>
<polygon fill="#9a32cd" stroke="#9a32cd" points="384.06,-382.37 373.75,-384.79 383.32,-389.33 384.06,-382.37"/>
<text text-anchor="middle" x="476" y="-444.59" font-family="Helvetica,sans-Serif" font-size="10.00"> int_variables</text>
<text text-anchor="middle" x="476" y="-433.59" font-family="Helvetica,sans-Serif" font-size="10.00">local_int_variables</text>
</g>
<!-- Node8&#45;&gt;Node8 -->
<g id="edge12" class="edge">
<title>Node8&#45;&gt;Node8</title>
<path fill="none" stroke="#9a32cd" stroke-dasharray="5,2" d="M319.13,-401.99C320.49,-406.91 327.28,-410.59 339.5,-410.59 359.05,-410.59 364.7,-401.16 356.45,-392.35"/>
<polygon fill="#9a32cd" stroke="#9a32cd" points="322.51,-402.94 322.55,-392.35 315.91,-400.61 322.51,-402.94"/>
<text text-anchor="middle" x="339.5" y="-413.59" font-family="Helvetica,sans-Serif" font-size="10.00"> next</text>
</g>
<!-- Node9 -->
<g id="node9" class="node">
<title>Node9</title>
<g id="a_node9"><a xlink:title=" ">
<polygon fill="none" stroke="#bfbfbf" points="115.5,-488.09 115.5,-507.09 165.5,-507.09 165.5,-488.09 115.5,-488.09"/>
<text text-anchor="middle" x="140.5" y="-495.09" font-family="Helvetica,sans-Serif" font-size="10.00">int64_t</text>
</a>
</g>
</g>
<!-- Node9&#45;&gt;Node1 -->
<g id="edge22" class="edge">
<title>Node9&#45;&gt;Node1</title>
<path fill="none" stroke="#9a32cd" stroke-dasharray="5,2" d="M175.8,-496.58C259.62,-494.11 473.78,-487.81 552.97,-485.48"/>
<polygon fill="#9a32cd" stroke="#9a32cd" points="175.44,-493.09 165.55,-496.88 175.65,-500.09 175.44,-493.09"/>
<text text-anchor="middle" x="339.5" y="-517.59" font-family="Helvetica,sans-Serif" font-size="10.00"> current_linenum</text>
<text text-anchor="middle" x="339.5" y="-506.59" font-family="Helvetica,sans-Serif" font-size="10.00">eval_linenum</text>
<text text-anchor="middle" x="339.5" y="-495.59" font-family="Helvetica,sans-Serif" font-size="10.00">highest_line</text>
</g>
<!-- Node9&#45;&gt;Node8 -->
<g id="edge14" class="edge">
<title>Node9&#45;&gt;Node8</title>
<path fill="none" stroke="#9a32cd" stroke-dasharray="5,2" d="M150.51,-478.68C159.35,-462.07 174.36,-438.47 194,-424.59 227.5,-400.92 274.26,-390.49 305.41,-385.96"/>
<polygon fill="#9a32cd" stroke="#9a32cd" points="147.2,-477.46 145.81,-487.96 153.45,-480.62 147.2,-477.46"/>
<text text-anchor="middle" x="228" y="-427.59" font-family="Helvetica,sans-Serif" font-size="10.00"> value</text>
</g>
<!-- Node9&#45;&gt;Node18 -->
<g id="edge35" class="edge">
<title>Node9&#45;&gt;Node18</title>
<path fill="none" stroke="#9a32cd" stroke-dasharray="5,2" d="M164.7,-513.65C168.83,-517.24 172.82,-521.28 176,-525.59 188.77,-542.94 180.98,-553.43 194,-570.59 217,-600.9 237.92,-593.14 262,-622.59 273.57,-636.75 266.67,-647.08 280,-659.59 286.64,-665.83 295.13,-670.54 303.56,-674.07"/>
<polygon fill="#9a32cd" stroke="#9a32cd" points="166.76,-510.82 156.76,-507.34 162.41,-516.31 166.76,-510.82"/>
<text text-anchor="middle" x="228" y="-625.59" font-family="Helvetica,sans-Serif" font-size="10.00"> values</text>
</g>
<!-- Node9&#45;&gt;Node19 -->
<g id="edge41" class="edge">
<title>Node9&#45;&gt;Node19</title>
<path fill="none" stroke="#9a32cd" stroke-dasharray="5,2" d="M175.48,-507.28C199.75,-514.38 233.07,-524.5 262,-534.59 280.18,-540.94 300.46,-548.94 315.57,-555.08"/>
<polygon fill="#9a32cd" stroke="#9a32cd" points="176.26,-503.86 165.68,-504.43 174.31,-510.58 176.26,-503.86"/>
<text text-anchor="middle" x="228" y="-537.59" font-family="Helvetica,sans-Serif" font-size="10.00"> line</text>
</g>
<!-- Node9&#45;&gt;Node24 -->
<g id="edge53" class="edge">
<title>Node9&#45;&gt;Node24</title>
<path fill="none" stroke="#9a32cd" stroke-dasharray="5,2" d="M155.17,-480.12C164.74,-469.38 178.54,-456.56 194,-450.59 231.8,-436 279.41,-439.42 309.42,-443.93"/>
<polygon fill="#9a32cd" stroke="#9a32cd" points="152.49,-477.88 148.73,-487.78 157.84,-482.38 152.49,-477.88"/>
<text text-anchor="middle" x="228" y="-475.59" font-family="Helvetica,sans-Serif" font-size="10.00"> line_after_for</text>
<text text-anchor="middle" x="228" y="-464.59" font-family="Helvetica,sans-Serif" font-size="10.00">step</text>
<text text-anchor="middle" x="228" y="-453.59" font-family="Helvetica,sans-Serif" font-size="10.00">to</text>
</g>
<!-- Node10 -->
<g id="node10" class="node">
<title>Node10</title>
<g id="a_node10"><a xlink:title=" ">
<polygon fill="none" stroke="#bfbfbf" points="121.5,-298.09 121.5,-317.09 159.5,-317.09 159.5,-298.09 121.5,-298.09"/>
<text text-anchor="middle" x="140.5" y="-305.09" font-family="Helvetica,sans-Serif" font-size="10.00">bool</text>
</a>
</g>
</g>
<!-- Node10&#45;&gt;Node1 -->
<g id="edge37" class="edge">
<title>Node10&#45;&gt;Node1</title>
<path fill="none" stroke="#9a32cd" stroke-dasharray="5,2" d="M169.48,-296.68C241.8,-270.52 436.16,-213.52 535,-313.59 580.72,-359.88 583.68,-446.03 583.31,-474.89"/>
<polygon fill="#9a32cd" stroke="#9a32cd" points="167.89,-293.54 159.72,-300.3 170.32,-300.11 167.89,-293.54"/>
<text text-anchor="middle" x="339.5" y="-279.59" font-family="Helvetica,sans-Serif" font-size="10.00"> ended</text>
<text text-anchor="middle" x="339.5" y="-268.59" font-family="Helvetica,sans-Serif" font-size="10.00">errored</text>
</g>
<!-- Node10&#45;&gt;Node8 -->
<g id="edge15" class="edge">
<title>Node10&#45;&gt;Node8</title>
<path fill="none" stroke="#9a32cd" stroke-dasharray="5,2" d="M170.13,-310.86C200.95,-314.83 247.51,-322.3 262,-332.59 274.68,-341.6 267.91,-352.82 280,-362.59 287.35,-368.53 296.55,-372.75 305.48,-375.73"/>
<polygon fill="#9a32cd" stroke="#9a32cd" points="170.32,-307.35 159.97,-309.6 169.46,-314.3 170.32,-307.35"/>
<text text-anchor="middle" x="228" y="-335.59" font-family="Helvetica,sans-Serif" font-size="10.00"> global</text>
</g>
<!-- Node10&#45;&gt;Node15 -->
<g id="edge29" class="edge">
<title>Node10&#45;&gt;Node15</title>
<path fill="none" stroke="#9a32cd" stroke-dasharray="5,2" d="M166.64,-323.56C170.38,-327.06 173.74,-331.09 176,-335.59 218.16,-419.45 146.54,-676.61 194,-757.59 211.96,-788.24 242.03,-770.21 262,-799.59 287.63,-837.3 250.05,-866.21 280,-900.59 284.14,-905.34 289.48,-908.91 295.24,-911.6"/>
<polygon fill="#9a32cd" stroke="#9a32cd" points="168.63,-320.67 158.65,-317.13 164.24,-326.12 168.63,-320.67"/>
<text text-anchor="middle" x="228" y="-802.59" font-family="Helvetica,sans-Serif" font-size="10.00"> global</text>
</g>
<!-- Node10&#45;&gt;Node22 -->
<g id="edge48" class="edge">
<title>Node10&#45;&gt;Node22</title>
<path fill="none" stroke="#9a32cd" stroke-dasharray="5,2" d="M169.93,-301.81C177.7,-300.48 186.14,-299.26 194,-298.59 224.11,-296.03 231.94,-295.48 262,-298.59 274.69,-299.91 288.37,-302.41 300.61,-305.06"/>
<polygon fill="#9a32cd" stroke="#9a32cd" points="169.07,-298.41 159.87,-303.66 170.33,-305.3 169.07,-298.41"/>
<text text-anchor="middle" x="228" y="-301.59" font-family="Helvetica,sans-Serif" font-size="10.00"> global</text>
</g>
<!-- Node11&#45;&gt;Node1 -->
<g id="edge18" class="edge">
<title>Node11&#45;&gt;Node1</title>
<path fill="none" stroke="#9a32cd" stroke-dasharray="5,2" d="M376.43,-163.83C419.97,-156.73 492.75,-152.62 535,-192.59 577.08,-232.4 582.27,-428.65 582.91,-474.84"/>
<polygon fill="#9a32cd" stroke="#9a32cd" points="375.79,-160.39 366.55,-165.58 377.01,-167.29 375.79,-160.39"/>
<text text-anchor="middle" x="476" y="-195.59" font-family="Helvetica,sans-Serif" font-size="10.00"> cons</text>
</g>
<!-- Node12 -->
<g id="node12" class="node">
<title>Node12</title>
<g id="a_node12"><a xlink:title=" ">
<polygon fill="none" stroke="#bfbfbf" points="118,-199.09 118,-218.09 163,-218.09 163,-199.09 118,-199.09"/>
<text text-anchor="middle" x="140.5" y="-206.09" font-family="Helvetica,sans-Serif" font-size="10.00">size_t</text>
</a>
</g>
</g>
<!-- Node12&#45;&gt;Node1 -->
<g id="edge24" class="edge">
<title>Node12&#45;&gt;Node1</title>
<path fill="none" stroke="#9a32cd" stroke-dasharray="5,2" d="M173.25,-207.82C257.25,-206.45 482.44,-207.46 535,-255.59 568.18,-285.98 579.88,-435.22 582.43,-474.89"/>
<polygon fill="#9a32cd" stroke="#9a32cd" points="172.98,-204.32 163.05,-208.01 173.11,-211.32 172.98,-204.32"/>
<text text-anchor="middle" x="339.5" y="-218.59" font-family="Helvetica,sans-Serif" font-size="10.00"> oldlen</text>
</g>
<!-- Node12&#45;&gt;Node11 -->
<g id="edge20" class="edge">
<title>Node12&#45;&gt;Node11</title>
<path fill="none" stroke="#9a32cd" stroke-dasharray="5,2" d="M172.83,-195.97C179.71,-193.55 187.03,-191.26 194,-189.59 234.68,-179.83 283.16,-175.16 312.35,-173.09"/>
<polygon fill="#9a32cd" stroke="#9a32cd" points="171.31,-192.79 163.13,-199.53 173.73,-199.36 171.31,-192.79"/>
<text text-anchor="middle" x="228" y="-192.59" font-family="Helvetica,sans-Serif" font-size="10.00"> bufcnt</text>
</g>
<!-- Node13 -->
<g id="node13" class="node">
<title>Node13</title>
<g id="a_node13"><a xlink:title=" ">
<polygon fill="none" stroke="#bfbfbf" points="115.5,-79.09 115.5,-98.09 165.5,-98.09 165.5,-79.09 115.5,-79.09"/>
<text text-anchor="middle" x="140.5" y="-86.09" font-family="Helvetica,sans-Serif" font-size="10.00">uint8_t</text>
</a>
</g>
</g>
<!-- Node13&#45;&gt;Node11 -->
<g id="edge21" class="edge">
<title>Node13&#45;&gt;Node11</title>
<path fill="none" stroke="#9a32cd" stroke-dasharray="5,2" d="M175.84,-78.71C202.08,-73.36 237.75,-71.14 262,-89.59 285.18,-107.23 259.78,-131.64 280,-152.59 288.45,-161.35 300.98,-166.08 312.27,-168.63"/>
<polygon fill="#9a32cd" stroke="#9a32cd" points="174.91,-75.33 165.94,-80.96 176.47,-82.15 174.91,-75.33"/>
<text text-anchor="middle" x="228" y="-125.59" font-family="Helvetica,sans-Serif" font-size="10.00"> attributes</text>
<text text-anchor="middle" x="228" y="-114.59" font-family="Helvetica,sans-Serif" font-size="10.00">last</text>
<text text-anchor="middle" x="228" y="-103.59" font-family="Helvetica,sans-Serif" font-size="10.00">x</text>
<text text-anchor="middle" x="228" y="-92.59" font-family="Helvetica,sans-Serif" font-size="10.00">y</text>
</g>
<!-- Node14 -->
<g id="node14" class="node">
<title>Node14</title>
<g id="a_node14"><a xlink:title=" ">
<polygon fill="none" stroke="#bfbfbf" points="314.5,-124.09 314.5,-143.09 364.5,-143.09 364.5,-124.09 314.5,-124.09"/>
<text text-anchor="middle" x="339.5" y="-131.09" font-family="Helvetica,sans-Serif" font-size="10.00">int32_t</text>
</a>
</g>
</g>
<!-- Node14&#45;&gt;Node1 -->
<g id="edge23" class="edge">
<title>Node14&#45;&gt;Node1</title>
<path fill="none" stroke="#9a32cd" stroke-dasharray="5,2" d="M374.53,-123.71C417.7,-113.48 491.7,-103.97 535,-143.59 585.28,-189.61 584.07,-424.14 583.21,-474.9"/>
<polygon fill="#9a32cd" stroke="#9a32cd" points="373.63,-120.33 364.78,-126.16 375.33,-127.12 373.63,-120.33"/>
<text text-anchor="middle" x="476" y="-146.59" font-family="Helvetica,sans-Serif" font-size="10.00"> graphics_colour</text>
</g>
<!-- Node15&#45;&gt;Node1 -->
<g id="edge25" class="edge">
<title>Node15&#45;&gt;Node1</title>
<path fill="none" stroke="#9a32cd" stroke-dasharray="5,2" d="M394.05,-916.53C438.87,-910.94 500.83,-895.52 535,-853.59 581.72,-796.25 583.26,-546.23 583.07,-494.13"/>
<polygon fill="#9a32cd" stroke="#9a32cd" points="393.45,-913.08 383.91,-917.67 394.23,-920.04 393.45,-913.08"/>
<text text-anchor="middle" x="476" y="-925.59" font-family="Helvetica,sans-Serif" font-size="10.00"> double_variables</text>
<text text-anchor="middle" x="476" y="-914.59" font-family="Helvetica,sans-Serif" font-size="10.00">local_double_variables</text>
</g>
<!-- Node15&#45;&gt;Node15 -->
<g id="edge28" class="edge">
<title>Node15&#45;&gt;Node15</title>
<path fill="none" stroke="#9a32cd" stroke-dasharray="5,2" d="M319.13,-938.99C320.49,-943.91 327.28,-947.59 339.5,-947.59 359.05,-947.59 364.7,-938.16 356.45,-929.35"/>
<polygon fill="#9a32cd" stroke="#9a32cd" points="322.51,-939.94 322.55,-929.35 315.91,-937.61 322.51,-939.94"/>
<text text-anchor="middle" x="339.5" y="-950.59" font-family="Helvetica,sans-Serif" font-size="10.00"> next</text>
</g>
<!-- Node16 -->
<g id="node16" class="node">
<title>Node16</title>
<g id="a_node16"><a xlink:title=" ">
<polygon fill="none" stroke="#bfbfbf" points="289,-86.09 289,-105.09 390,-105.09 390,-86.09 289,-86.09"/>
<text text-anchor="middle" x="339.5" y="-93.09" font-family="Helvetica,sans-Serif" font-size="10.00">struct hashmap *</text>
</a>
</g>
</g>
<!-- Node16&#45;&gt;Node1 -->
<g id="edge30" class="edge">
<title>Node16&#45;&gt;Node1</title>
<path fill="none" stroke="#9a32cd" stroke-dasharray="5,2" d="M400.36,-88.94C450.15,-84.85 515.85,-83.25 535,-100.59 563.75,-126.64 579.7,-418.34 582.54,-475.07"/>
<polygon fill="#9a32cd" stroke="#9a32cd" points="399.97,-85.46 390.31,-89.82 400.58,-92.43 399.97,-85.46"/>
<text text-anchor="middle" x="476" y="-103.59" font-family="Helvetica,sans-Serif" font-size="10.00"> lines</text>
</g>
<!-- Node17 -->
<g id="node17" class="node">
<title>Node17</title>
<g id="a_node17"><a xlink:title=" ">
<polygon fill="none" stroke="#bfbfbf" points="325,-47.09 325,-66.09 354,-66.09 354,-47.09 325,-47.09"/>
<text text-anchor="middle" x="339.5" y="-54.09" font-family="Helvetica,sans-Serif" font-size="10.00">int</text>
</a>
</g>
</g>
<!-- Node17&#45;&gt;Node1 -->
<g id="edge31" class="edge">
<title>Node17&#45;&gt;Node1</title>
<path fill="none" stroke="#9a32cd" stroke-dasharray="5,2" d="M364.3,-53.24C410.65,-47.3 510.63,-37.48 535,-59.59 566.89,-88.53 580.4,-414.07 582.65,-474.85"/>
<polygon fill="#9a32cd" stroke="#9a32cd" points="363.7,-49.79 354.25,-54.58 364.63,-56.73 363.7,-49.79"/>
<text text-anchor="middle" x="476" y="-73.59" font-family="Helvetica,sans-Serif" font-size="10.00"> bracket_depth</text>
<text text-anchor="middle" x="476" y="-62.59" font-family="Helvetica,sans-Serif" font-size="10.00">current_token</text>
</g>
<!-- Node18&#45;&gt;Node1 -->
<g id="edge32" class="edge">
<title>Node18&#45;&gt;Node1</title>
<path fill="none" stroke="#9a32cd" stroke-dasharray="5,2" d="M398.8,-691.9C441.46,-694.59 498.1,-690.61 535,-658.59 560.56,-636.41 577.16,-527.79 581.72,-494.38"/>
<polygon fill="#9a32cd" stroke="#9a32cd" points="399.06,-688.41 388.82,-691.14 398.53,-695.39 399.06,-688.41"/>
<text text-anchor="middle" x="476" y="-694.59" font-family="Helvetica,sans-Serif" font-size="10.00"> int_array_variables</text>
</g>
<!-- Node18&#45;&gt;Node18 -->
<g id="edge36" class="edge">
<title>Node18&#45;&gt;Node18</title>
<path fill="none" stroke="#9a32cd" stroke-dasharray="5,2" d="M319.13,-702.99C320.49,-707.91 327.28,-711.59 339.5,-711.59 359.05,-711.59 364.7,-702.16 356.45,-693.35"/>
<polygon fill="#9a32cd" stroke="#9a32cd" points="322.51,-703.94 322.55,-693.35 315.91,-701.61 322.51,-703.94"/>
<text text-anchor="middle" x="339.5" y="-714.59" font-family="Helvetica,sans-Serif" font-size="10.00"> next</text>
</g>
<!-- Node19&#45;&gt;Node1 -->
<g id="edge38" class="edge">
<title>Node19&#45;&gt;Node1</title>
<path fill="none" stroke="#9a32cd" stroke-dasharray="5,2" d="M395.17,-553.49C434.82,-544.54 489.28,-530.35 535,-511.59 546.5,-506.88 558.7,-499.99 567.92,-494.35"/>
<polygon fill="#9a32cd" stroke="#9a32cd" points="394.17,-550.13 385.17,-555.71 395.69,-556.96 394.17,-550.13"/>
<text text-anchor="middle" x="476" y="-549.59" font-family="Helvetica,sans-Serif" font-size="10.00"> defs</text>
</g>
<!-- Node19&#45;&gt;Node19 -->
<g id="edge42" class="edge">
<title>Node19&#45;&gt;Node19</title>
<path fill="none" stroke="#9a32cd" stroke-dasharray="5,2" d="M319.13,-583.99C320.49,-588.91 327.28,-592.59 339.5,-592.59 359.05,-592.59 364.7,-583.16 356.45,-574.35"/>
<polygon fill="#9a32cd" stroke="#9a32cd" points="322.51,-584.94 322.55,-574.35 315.91,-582.61 322.51,-584.94"/>
<text text-anchor="middle" x="339.5" y="-595.59" font-family="Helvetica,sans-Serif" font-size="10.00"> next</text>
</g>
<!-- Node20 -->
<g id="node20" class="node">
<title>Node20</title>
<g id="a_node20"><a xlink:title=" ">
<polygon fill="none" stroke="#bfbfbf" points="105,-535.09 105,-554.09 176,-554.09 176,-535.09 105,-535.09"/>
<text text-anchor="middle" x="140.5" y="-542.09" font-family="Helvetica,sans-Serif" font-size="10.00">ub_fn_type</text>
</a>
</g>
</g>
<!-- Node20&#45;&gt;Node19 -->
<g id="edge39" class="edge">
<title>Node20&#45;&gt;Node19</title>
<path fill="none" stroke="#9a32cd" stroke-dasharray="5,2" d="M186.29,-549.14C218.43,-552.4 261.56,-556.78 293.7,-560.04"/>
<polygon fill="#9a32cd" stroke="#9a32cd" points="186.57,-545.65 176.27,-548.12 185.86,-552.61 186.57,-545.65"/>
<text text-anchor="middle" x="228" y="-558.59" font-family="Helvetica,sans-Serif" font-size="10.00"> type</text>
</g>
<!-- Node21&#45;&gt;Node1 -->
<g id="edge54" class="edge">
<title>Node21&#45;&gt;Node1</title>
<path fill="none" stroke="#9a32cd" stroke-dasharray="5,2" d="M165.95,-648C174.52,-652.29 184.41,-656.43 194,-658.59 223.48,-665.25 232.17,-663.47 262,-658.59 277.88,-656 522.55,-571.79 535,-561.59 557.79,-542.93 572.9,-510.45 579.39,-494.29"/>
<polygon fill="#9a32cd" stroke="#9a32cd" points="167.39,-644.8 156.92,-643.18 164.09,-650.98 167.39,-644.8"/>
<text text-anchor="middle" x="339.5" y="-655.59" font-family="Helvetica,sans-Serif" font-size="10.00"> param</text>
</g>
<!-- Node21&#45;&gt;Node19 -->
<g id="edge43" class="edge">
<title>Node21&#45;&gt;Node19</title>
<path fill="none" stroke="#9a32cd" stroke-dasharray="5,2" d="M183.27,-641.96C207.13,-644.88 237.15,-645.35 262,-635.59 270.22,-632.36 310.31,-592.86 328.94,-574.22"/>
<polygon fill="#9a32cd" stroke="#9a32cd" points="183.51,-638.46 173.12,-640.52 182.53,-645.39 183.51,-638.46"/>
<text text-anchor="middle" x="228" y="-646.59" font-family="Helvetica,sans-Serif" font-size="10.00"> params</text>
</g>
<!-- Node21&#45;&gt;Node21 -->
<g id="edge45" class="edge">
<title>Node21&#45;&gt;Node21</title>
<path fill="none" stroke="#9a32cd" stroke-dasharray="5,2" d="M127.98,-653.36C128.96,-658.09 133.14,-661.59 140.5,-661.59 152.59,-661.59 156.08,-652.16 150.98,-643.35"/>
<polygon fill="#9a32cd" stroke="#9a32cd" points="131.45,-653.85 130.02,-643.35 124.59,-652.45 131.45,-653.85"/>
<text text-anchor="middle" x="140.5" y="-664.59" font-family="Helvetica,sans-Serif" font-size="10.00"> next</text>
</g>
<!-- Node22&#45;&gt;Node1 -->
<g id="edge46" class="edge">
<title>Node22&#45;&gt;Node1</title>
<path fill="none" stroke="#9a32cd" stroke-dasharray="5,2" d="M391.16,-315.33C434.22,-318.57 495.24,-329.65 535,-364.59 569.05,-394.51 579.25,-451.93 582.04,-474.82"/>
<polygon fill="#9a32cd" stroke="#9a32cd" points="391.36,-311.84 381.16,-314.7 390.92,-318.83 391.36,-311.84"/>
<text text-anchor="middle" x="476" y="-378.59" font-family="Helvetica,sans-Serif" font-size="10.00"> local_string_variables</text>
<text text-anchor="middle" x="476" y="-367.59" font-family="Helvetica,sans-Serif" font-size="10.00">str_variables</text>
</g>
<!-- Node22&#45;&gt;Node22 -->
<g id="edge49" class="edge">
<title>Node22&#45;&gt;Node22</title>
<path fill="none" stroke="#9a32cd" stroke-dasharray="5,2" d="M319.13,-333.99C320.49,-338.91 327.28,-342.59 339.5,-342.59 359.05,-342.59 364.7,-333.16 356.45,-324.35"/>
<polygon fill="#9a32cd" stroke="#9a32cd" points="322.51,-334.94 322.55,-324.35 315.91,-332.61 322.51,-334.94"/>
<text text-anchor="middle" x="339.5" y="-345.59" font-family="Helvetica,sans-Serif" font-size="10.00"> next</text>
</g>
<!-- Node23 -->
<g id="node23" class="node">
<title>Node23</title>
<g id="a_node23"><a xlink:title=" ">
<polygon fill="none" stroke="#bfbfbf" points="316.5,-9.09 316.5,-28.09 362.5,-28.09 362.5,-9.09 316.5,-9.09"/>
<text text-anchor="middle" x="339.5" y="-16.09" font-family="Helvetica,sans-Serif" font-size="10.00">void *</text>
</a>
</g>
</g>
<!-- Node23&#45;&gt;Node1 -->
<g id="edge50" class="edge">
<title>Node23&#45;&gt;Node1</title>
<path fill="none" stroke="#9a32cd" stroke-dasharray="5,2" d="M372.68,-9.39C415.8,0.76 491.88,10.69 535,-30.59 568.35,-62.52 580.76,-412.42 582.71,-475.03"/>
<polygon fill="#9a32cd" stroke="#9a32cd" points="371.58,-6.06 362.72,-11.88 373.27,-12.85 371.58,-6.06"/>
<text text-anchor="middle" x="476" y="-33.59" font-family="Helvetica,sans-Serif" font-size="10.00"> fn_return</text>
</g>
<!-- Node24&#45;&gt;Node1 -->
<g id="edge51" class="edge">
<title>Node24&#45;&gt;Node1</title>
<path fill="none" stroke="#9a32cd" stroke-dasharray="5,2" d="M379.67,-452.75C419.1,-456.27 481.58,-462.8 535,-472.59 540.83,-473.66 547,-475.03 552.91,-476.45"/>
<polygon fill="#9a32cd" stroke="#9a32cd" points="379.94,-449.26 369.67,-451.88 379.33,-456.23 379.94,-449.26"/>
<text text-anchor="middle" x="476" y="-475.59" font-family="Helvetica,sans-Serif" font-size="10.00"> for_stack</text>
</g>
</g>
</svg>
        <g id="navigator" transform="translate(0 0)" fill="#404254">
                <rect fill="#f2f5e9" fill-opacity="0.5" stroke="#606060" stroke-width=".5" x="0" y="0" width="60" height="60"/>
                <use id="zoomplus" xlink:href="#zoomPlus" x="17" y="9" onmousedown="handleZoom(evt,'in')"/>
                <use id="zoomminus" xlink:href="#zoomMin" x="42" y="9" onmousedown="handleZoom(evt,'out')"/>
                <use id="reset" xlink:href="#resetDef" x="30" y="36" onmousedown="handleReset()"/>
                <g id="arrowUp" xlink:href="#dirArrow" transform="translate(30 24)" onmousedown="handlePan(0,-1)">
                  <use xlink:href="#rim" fill="#404040">
                        <set attributeName="fill" to="#808080" begin="arrowUp.mouseover" end="arrowUp.mouseout"/>
                  </use>
                  <path fill="none" stroke="white" stroke-width="1.5" d="M0,-3.0v7 M-2.5,-0.5L0,-3.0L2.5,-0.5"/>
                </g>
                <g id="arrowRight" xlink:href="#dirArrow" transform="rotate(90) translate(36 -43)" onmousedown="handlePan(1,0)">
                  <use xlink:href="#rim" fill="#404040">
                        <set attributeName="fill" to="#808080" begin="arrowRight.mouseover" end="arrowRight.mouseout"/>
                  </use>
                  <path fill="none" stroke="white" stroke-width="1.5" d="M0,-3.0v7 M-2.5,-0.5L0,-3.0L2.5,-0.5"/>
                </g>
                <g id="arrowDown" xlink:href="#dirArrow" transform="rotate(180) translate(-30 -48)" onmousedown="handlePan(0,1)">
                  <use xlink:href="#rim" fill="#404040">
                        <set attributeName="fill" to="#808080" begin="arrowDown.mouseover" end="arrowDown.mouseout"/>
                  </use>
                  <path fill="none" stroke="white" stroke-width="1.5" d="M0,-3.0v7 M-2.5,-0.5L0,-3.0L2.5,-0.5"/>
                </g>
                <g id="arrowLeft" xlink:href="#dirArrow" transform="rotate(270) translate(-36 17)" onmousedown="handlePan(-1,0)">
                  <use xlink:href="#rim" fill="#404040">
                        <set attributeName="fill" to="#808080" begin="arrowLeft.mouseover" end="arrowLeft.mouseout"/>
                  </use>
                  <path fill="none" stroke="white" stroke-width="1.5" d="M0,-3.0v7 M-2.5,-0.5L0,-3.0L2.5,-0.5"/>
                </g>
        </g>
        <svg viewBox="0 0 15 15" width="100%" height="30px" preserveAspectRatio="xMaxYMin meet">
         <g id="arrow_out" transform="scale(0.3 0.3)">
          <a xlink:href="structbasic__ctx__coll__graph_org.svg" target="_base">
           <rect id="button" ry="5" rx="5" y="6" x="6" height="38" width="38"
                fill="#f2f5e9" fill-opacity="0.5" stroke="#606060" stroke-width="1.0"/>
           <path id="arrow"
             d="M 11.500037,31.436501 C 11.940474,20.09759 22.043105,11.32322 32.158766,21.979434 L 37.068811,17.246167 C 37.068811,17.246167 37.088388,32 37.088388,32 L 22.160133,31.978069 C 22.160133,31.978069 26.997745,27.140456 26.997745,27.140456 C 18.528582,18.264221 13.291696,25.230495 11.500037,31.436501 z"
             style="fill:#404040;"/>
          </a>
         </g>
        </svg>
</svg>
