<?xml version="1.0" encoding="UTF-8" standalone="no"?>
<!DOCTYPE svg PUBLIC "-//W3C//DTD SVG 1.1//EN"
 "http://www.w3.org/Graphics/SVG/1.1/DTD/svg11.dtd">
<!-- Generated by graphviz version 2.43.0 (0)
 -->
<!-- Title: vfs_tree_t Pages: 1 -->
<!--zoomable 354 -->
<svg id="main" version="1.1" xmlns="http://www.w3.org/2000/svg" xmlns:xlink="http://www.w3.org/1999/xlink" xml:space="preserve" onload="init(evt)">
<style type="text/css"><![CDATA[
.edge:hover path { stroke: red; }
.edge:hover polygon { stroke: red; fill: red; }
]]></style>
<script type="text/javascript"><![CDATA[
var edges = document.getElementsByTagName('g');
if (edges && edges.length) {
  for (var i=0;i<edges.length;i++) {
    if (edges[i].id.substr(0,4)=='edge') {
      edges[i].setAttribute('class','edge');
    }
  }
}
]]></script>
        <defs>
                <circle id="rim" cx="0" cy="0" r="7"/>
                <circle id="rim2" cx="0" cy="0" r="3.5"/>
                <g id="zoomPlus">
                        <use xlink:href="#rim" fill="#404040">
                                <set attributeName="fill" to="#808080" begin="zoomplus.mouseover" end="zoomplus.mouseout"/>
                        </use>
                        <path d="M-4,0h8M0,-4v8" fill="none" stroke="white" stroke-width="1.5" pointer-events="none"/>
                </g>
                <g id="zoomMin">
                        <use xlink:href="#rim" fill="#404040">
                                <set attributeName="fill" to="#808080" begin="zoomminus.mouseover" end="zoomminus.mouseout"/>
                        </use>
                        <path d="M-4,0h8" fill="none" stroke="white" stroke-width="1.5" pointer-events="none"/>
                </g>
                <g id="dirArrow">
                        <path fill="none" stroke="white" stroke-width="1.5" d="M0,-3.0v7 M-2.5,-0.5L0,-3.0L2.5,-0.5"/>
                </g>
               <g id="resetDef">
                       <use xlink:href="#rim2" fill="#404040">
                               <set attributeName="fill" to="#808080" begin="reset.mouseover" end="reset.mouseout"/>
                       </use>
               </g>
        </defs>

<script type="text/javascript">
var viewWidth = 945;
var viewHeight = 354;
var sectionId = 'dynsection-0';
</script>
<script xlink:href="svgpan.js"/>
<svg id="graph" class="graph">
<g id="viewport">
<title>vfs_tree_t</title>
<!-- Node1 -->
<g id="node1" class="node">
<title>Node1</title>
<g id="a_node1"><a xlink:title=" ">
<polygon fill="#bfbfbf" stroke="black" points="693.5,-0.5 693.5,-19.5 758.5,-19.5 758.5,-0.5 693.5,-0.5"/>
<text text-anchor="middle" x="726" y="-7.5" font-family="Helvetica,sans-Serif" font-size="10.00">vfs_tree_t</text>
</a>
</g>
</g>
<!-- Node2 -->
<g id="node2" class="node">
<title>Node2</title>
<g id="a_node2"><a xlink:href="structfs__tree__t.html" target="_top" xlink:title="Used internally by filesystem.c to cache directories to RAM.">
<polygon fill="none" stroke="black" points="469.5,-96 469.5,-115 528.5,-115 528.5,-96 469.5,-96"/>
<text text-anchor="middle" x="499" y="-103" font-family="Helvetica,sans-Serif" font-size="10.00">fs_tree_t</text>
</a>
</g>
</g>
<!-- Node2&#45;&gt;Node1 -->
<g id="edge1" class="edge">
<title>Node2&#45;&gt;Node1</title>
<path fill="none" stroke="#9a32cd" stroke-dasharray="5,2" d="M529.27,-92.03C576.06,-72.76 664.77,-36.22 705.1,-19.61"/>
<polygon fill="#9a32cd" stroke="#9a32cd" points="527.86,-88.83 519.95,-95.87 530.53,-95.3 527.86,-88.83"/>
<text text-anchor="middle" x="672" y="-46.5" font-family="Helvetica,sans-Serif" font-size="10.00"> node</text>
</g>
<!-- Node2&#45;&gt;Node2 -->
<g id="edge11" class="edge">
<title>Node2&#45;&gt;Node2</title>
<path fill="none" stroke="#9a32cd" stroke-dasharray="5,2" d="M529.49,-115.99C539.01,-115.81 546.5,-112.31 546.5,-105.5 546.5,-96.42 533.19,-93.23 519.51,-95.93"/>
<polygon fill="#9a32cd" stroke="#9a32cd" points="529.78,-112.5 519.51,-115.07 529.14,-119.47 529.78,-112.5"/>
<text text-anchor="middle" x="571.5" y="-114" font-family="Helvetica,sans-Serif" font-size="10.00"> child_dirs</text>
<text text-anchor="middle" x="571.5" y="-103" font-family="Helvetica,sans-Serif" font-size="10.00">next</text>
<text text-anchor="middle" x="571.5" y="-92" font-family="Helvetica,sans-Serif" font-size="10.00">parent</text>
</g>
<!-- Node4 -->
<g id="node4" class="node">
<title>Node4</title>
<g id="a_node4"><a xlink:href="structfs__directory__entry__t.html" target="_top" xlink:title="A VFS directory entry. Files AND directories have these, but internally there is also a tree of fs_tr...">
<polygon fill="none" stroke="black" points="416,-0.5 416,-19.5 530,-19.5 530,-0.5 416,-0.5"/>
<text text-anchor="middle" x="473" y="-7.5" font-family="Helvetica,sans-Serif" font-size="10.00">fs_directory_entry_t</text>
</a>
</g>
</g>
<!-- Node2&#45;&gt;Node4 -->
<g id="edge6" class="edge">
<title>Node2&#45;&gt;Node4</title>
<path fill="none" stroke="#9a32cd" stroke-dasharray="5,2" d="M502.2,-85.79C503.74,-72.07 504.1,-53.24 498,-38 495.1,-30.77 489.29,-24.29 484,-19.5"/>
<polygon fill="#9a32cd" stroke="#9a32cd" points="498.7,-85.54 500.76,-95.93 505.63,-86.53 498.7,-85.54"/>
<text text-anchor="middle" x="526.5" y="-46.5" font-family="Helvetica,sans-Serif" font-size="10.00"> directory</text>
</g>
<!-- Node3 -->
<g id="node3" class="node">
<title>Node3</title>
<g id="a_node3"><a xlink:title=" ">
<polygon fill="none" stroke="#bfbfbf" points="265,-326.5 265,-345.5 321,-345.5 321,-326.5 265,-326.5"/>
<text text-anchor="middle" x="293" y="-333.5" font-family="Helvetica,sans-Serif" font-size="10.00">uint64_t</text>
</a>
</g>
</g>
<!-- Node3&#45;&gt;Node2 -->
<g id="edge2" class="edge">
<title>Node3&#45;&gt;Node2</title>
<path fill="none" stroke="#9a32cd" stroke-dasharray="5,2" d="M330.93,-323.82C371.9,-309.77 436.12,-281.67 472,-235 500.62,-197.77 500.66,-137.25 499.59,-115.03"/>
<polygon fill="#9a32cd" stroke="#9a32cd" points="329.69,-320.54 321.3,-327.01 331.89,-327.19 329.69,-320.54"/>
<text text-anchor="middle" x="508" y="-227" font-family="Helvetica,sans-Serif" font-size="10.00"> device</text>
<text text-anchor="middle" x="508" y="-216" font-family="Helvetica,sans-Serif" font-size="10.00">lbapos</text>
<text text-anchor="middle" x="508" y="-205" font-family="Helvetica,sans-Serif" font-size="10.00">size</text>
</g>
<!-- Node3&#45;&gt;Node4 -->
<g id="edge5" class="edge">
<title>Node3&#45;&gt;Node4</title>
<path fill="none" stroke="#9a32cd" stroke-dasharray="5,2" d="M289.15,-316.19C281.01,-271.38 266.36,-156.2 312,-78 333.14,-41.79 378.53,-25.15 415.74,-17.5"/>
<polygon fill="#9a32cd" stroke="#9a32cd" points="285.75,-317.07 291.08,-326.23 292.62,-315.74 285.75,-317.07"/>
<text text-anchor="middle" x="304" y="-170.5" font-family="Helvetica,sans-Serif" font-size="10.00"> lbapos</text>
<text text-anchor="middle" x="304" y="-159.5" font-family="Helvetica,sans-Serif" font-size="10.00">size</text>
</g>
<!-- Node9 -->
<g id="node9" class="node">
<title>Node9</title>
<g id="a_node9"><a xlink:href="structfilesystem__t.html" target="_top" xlink:title="Defines a filesystem driver.">
<polygon fill="none" stroke="black" points="133.5,-209 133.5,-228 210.5,-228 210.5,-209 133.5,-209"/>
<text text-anchor="middle" x="172" y="-216" font-family="Helvetica,sans-Serif" font-size="10.00">filesystem_t</text>
</a>
</g>
</g>
<!-- Node3&#45;&gt;Node9 -->
<g id="edge13" class="edge">
<title>Node3&#45;&gt;Node9</title>
<path fill="none" stroke="#9a32cd" stroke-dasharray="5,2" d="M255.38,-324.41C246.21,-320.43 237.03,-315.09 230,-308 211.35,-289.18 222,-274.84 207,-253 200.43,-243.43 190.77,-234.44 183.27,-228.19"/>
<polygon fill="#9a32cd" stroke="#9a32cd" points="254.26,-327.73 264.85,-328.08 256.79,-321.2 254.26,-327.73"/>
<text text-anchor="middle" x="254.5" y="-289" font-family="Helvetica,sans-Serif" font-size="10.00"> createdir</text>
<text text-anchor="middle" x="254.5" y="-278" font-family="Helvetica,sans-Serif" font-size="10.00">createfile</text>
<text text-anchor="middle" x="254.5" y="-267" font-family="Helvetica,sans-Serif" font-size="10.00">freespace</text>
</g>
<!-- Node4&#45;&gt;Node2 -->
<g id="edge3" class="edge">
<title>Node4&#45;&gt;Node2</title>
<path fill="none" stroke="#9a32cd" stroke-dasharray="5,2" d="M471.27,-29.58C470.93,-38.87 471.33,-50.2 474,-60 477.68,-73.51 486.34,-87.29 492.43,-95.87"/>
<polygon fill="#9a32cd" stroke="#9a32cd" points="474.77,-29.71 471.94,-19.5 467.78,-29.25 474.77,-29.71"/>
<text text-anchor="middle" x="486" y="-46.5" font-family="Helvetica,sans-Serif" font-size="10.00"> files</text>
</g>
<!-- Node4&#45;&gt;Node4 -->
<g id="edge4" class="edge">
<title>Node4&#45;&gt;Node4</title>
<path fill="none" stroke="#9a32cd" stroke-dasharray="5,2" d="M540.44,-15.19C545.14,-14 548,-12.27 548,-10 548,-6.36 540.67,-4.12 530.23,-3.27"/>
<polygon fill="#9a32cd" stroke="#9a32cd" points="539.59,-11.78 530.23,-16.73 540.64,-18.7 539.59,-11.78"/>
<text text-anchor="middle" x="560.5" y="-7.5" font-family="Helvetica,sans-Serif" font-size="10.00"> next</text>
</g>
<!-- Node5 -->
<g id="node5" class="node">
<title>Node5</title>
<g id="a_node5"><a xlink:title=" ">
<polygon fill="none" stroke="#bfbfbf" points="321,-96 321,-115 377,-115 377,-96 321,-96"/>
<text text-anchor="middle" x="349" y="-103" font-family="Helvetica,sans-Serif" font-size="10.00">uint16_t</text>
</a>
</g>
</g>
<!-- Node5&#45;&gt;Node4 -->
<g id="edge7" class="edge">
<title>Node5&#45;&gt;Node4</title>
<path fill="none" stroke="#9a32cd" stroke-dasharray="5,2" d="M357.33,-86.62C365.13,-71.69 378.1,-50.83 395,-38 406.07,-29.59 419.95,-23.68 432.92,-19.58"/>
<polygon fill="#9a32cd" stroke="#9a32cd" points="354.06,-85.33 352.77,-95.84 360.34,-88.43 354.06,-85.33"/>
<text text-anchor="middle" x="407.5" y="-46.5" font-family="Helvetica,sans-Serif" font-size="10.00"> year</text>
</g>
<!-- Node6 -->
<g id="node6" class="node">
<title>Node6</title>
<g id="a_node6"><a xlink:title=" ">
<polygon fill="none" stroke="#bfbfbf" points="727,-326.5 727,-345.5 765,-345.5 765,-326.5 727,-326.5"/>
<text text-anchor="middle" x="746" y="-333.5" font-family="Helvetica,sans-Serif" font-size="10.00">char</text>
</a>
</g>
</g>
<!-- Node6&#45;&gt;Node1 -->
<g id="edge22" class="edge">
<title>Node6&#45;&gt;Node1</title>
<path fill="none" stroke="#9a32cd" stroke-dasharray="5,2" d="M755.82,-317.31C781.51,-268.4 844.81,-128.96 786,-38 779.8,-28.41 769.29,-22.19 758.78,-18.17"/>
<polygon fill="#9a32cd" stroke="#9a32cd" points="752.62,-315.86 750.96,-326.32 758.79,-319.18 752.62,-315.86"/>
<text text-anchor="middle" x="830.5" y="-176" font-family="Helvetica,sans-Serif" font-size="10.00"> children</text>
<text text-anchor="middle" x="830.5" y="-165" font-family="Helvetica,sans-Serif" font-size="10.00">parent</text>
<text text-anchor="middle" x="830.5" y="-154" font-family="Helvetica,sans-Serif" font-size="10.00">path</text>
</g>
<!-- Node6&#45;&gt;Node2 -->
<g id="edge19" class="edge">
<title>Node6&#45;&gt;Node2</title>
<path fill="none" stroke="#9a32cd" stroke-dasharray="5,2" d="M775.16,-329.86C788.77,-326.02 804.11,-319.39 814,-308 860.58,-254.36 892.1,-203.28 844,-151 827.69,-133.28 651.84,-136.43 628,-133 593.6,-128.05 554.57,-119.64 528.54,-113.62"/>
<polygon fill="#9a32cd" stroke="#9a32cd" points="774.09,-326.51 765.2,-332.28 775.75,-333.32 774.09,-326.51"/>
<text text-anchor="middle" x="902.5" y="-221.5" font-family="Helvetica,sans-Serif" font-size="10.00"> device_name</text>
<text text-anchor="middle" x="902.5" y="-210.5" font-family="Helvetica,sans-Serif" font-size="10.00">name</text>
</g>
<!-- Node6&#45;&gt;Node4 -->
<g id="edge8" class="edge">
<title>Node6&#45;&gt;Node4</title>
<path fill="none" stroke="#9a32cd" stroke-dasharray="5,2" d="M743.51,-315.88C737.14,-271.67 717.52,-159.93 673,-78 661.72,-57.24 658.65,-49.47 638,-38 619.79,-27.89 570.15,-20.63 530.04,-16.2"/>
<polygon fill="#9a32cd" stroke="#9a32cd" points="740.07,-316.61 744.91,-326.04 747.01,-315.66 740.07,-316.61"/>
<text text-anchor="middle" x="747" y="-176" font-family="Helvetica,sans-Serif" font-size="10.00"> alt_filename</text>
<text text-anchor="middle" x="747" y="-165" font-family="Helvetica,sans-Serif" font-size="10.00">device_name</text>
<text text-anchor="middle" x="747" y="-154" font-family="Helvetica,sans-Serif" font-size="10.00">filename</text>
</g>
<!-- Node6&#45;&gt;Node9 -->
<g id="edge16" class="edge">
<title>Node6&#45;&gt;Node9</title>
<path fill="none" stroke="#9a32cd" stroke-dasharray="5,2" d="M716.81,-329.13C621.37,-309.92 318.45,-248.97 210.6,-227.27"/>
<polygon fill="#9a32cd" stroke="#9a32cd" points="716.41,-332.62 726.9,-331.16 717.79,-325.75 716.41,-332.62"/>
<text text-anchor="middle" x="622.5" y="-278" font-family="Helvetica,sans-Serif" font-size="10.00"> name</text>
</g>
<!-- Node7 -->
<g id="node7" class="node">
<title>Node7</title>
<g id="a_node7"><a xlink:title=" ">
<polygon fill="none" stroke="#bfbfbf" points="395,-96 395,-115 451,-115 451,-96 395,-96"/>
<text text-anchor="middle" x="423" y="-103" font-family="Helvetica,sans-Serif" font-size="10.00">uint32_t</text>
</a>
</g>
</g>
<!-- Node7&#45;&gt;Node4 -->
<g id="edge9" class="edge">
<title>Node7&#45;&gt;Node4</title>
<path fill="none" stroke="#9a32cd" stroke-dasharray="5,2" d="M421.54,-85.96C421.31,-71.78 422.99,-52.32 432,-38 436.99,-30.06 445.26,-23.96 453.08,-19.59"/>
<polygon fill="#9a32cd" stroke="#9a32cd" points="418.04,-86.17 422.03,-95.98 425.03,-85.83 418.04,-86.17"/>
<text text-anchor="middle" x="450" y="-52" font-family="Helvetica,sans-Serif" font-size="10.00"> device</text>
<text text-anchor="middle" x="450" y="-41" font-family="Helvetica,sans-Serif" font-size="10.00">flags</text>
</g>
<!-- Node8 -->
<g id="node8" class="node">
<title>Node8</title>
<g id="a_node8"><a xlink:title=" ">
<polygon fill="none" stroke="#bfbfbf" points="571,-209 571,-228 621,-228 621,-209 571,-209"/>
<text text-anchor="middle" x="596" y="-216" font-family="Helvetica,sans-Serif" font-size="10.00">uint8_t</text>
</a>
</g>
</g>
<!-- Node8&#45;&gt;Node2 -->
<g id="edge20" class="edge">
<title>Node8&#45;&gt;Node2</title>
<path fill="none" stroke="#9a32cd" stroke-dasharray="5,2" d="M581.8,-201.25C560.95,-177.39 522.76,-133.69 506.58,-115.17"/>
<polygon fill="#9a32cd" stroke="#9a32cd" points="579.17,-203.56 588.39,-208.79 584.44,-198.96 579.17,-203.56"/>
<text text-anchor="middle" x="577" y="-165" font-family="Helvetica,sans-Serif" font-size="10.00"> dirty</text>
</g>
<!-- Node8&#45;&gt;Node4 -->
<g id="edge10" class="edge">
<title>Node8&#45;&gt;Node4</title>
<path fill="none" stroke="#9a32cd" stroke-dasharray="5,2" d="M606.03,-199.68C624.41,-164.41 658.14,-85.04 619,-38 607.62,-24.33 566.09,-17.55 530.21,-14.21"/>
<polygon fill="#9a32cd" stroke="#9a32cd" points="602.8,-198.3 601.13,-208.76 608.96,-201.63 602.8,-198.3"/>
<text text-anchor="middle" x="653" y="-125" font-family="Helvetica,sans-Serif" font-size="10.00"> day</text>
<text text-anchor="middle" x="653" y="-114" font-family="Helvetica,sans-Serif" font-size="10.00">hour</text>
<text text-anchor="middle" x="653" y="-103" font-family="Helvetica,sans-Serif" font-size="10.00">min</text>
<text text-anchor="middle" x="653" y="-92" font-family="Helvetica,sans-Serif" font-size="10.00">month</text>
<text text-anchor="middle" x="653" y="-81" font-family="Helvetica,sans-Serif" font-size="10.00">sec</text>
</g>
<!-- Node9&#45;&gt;Node2 -->
<g id="edge12" class="edge">
<title>Node9&#45;&gt;Node2</title>
<path fill="none" stroke="#9a32cd" stroke-dasharray="5,2" d="M167.42,-198.48C165.05,-183.45 164.8,-163.06 177,-151 199.41,-128.85 430.19,-143.22 460,-133 471.15,-129.18 482.1,-121.27 489.54,-115.08"/>
<polygon fill="#9a32cd" stroke="#9a32cd" points="164.08,-199.59 169.48,-208.7 170.94,-198.2 164.08,-199.59"/>
<text text-anchor="middle" x="224" y="-165" font-family="Helvetica,sans-Serif" font-size="10.00"> responsible_driver</text>
</g>
<!-- Node9&#45;&gt;Node9 -->
<g id="edge15" class="edge">
<title>Node9&#45;&gt;Node9</title>
<path fill="none" stroke="#9a32cd" stroke-dasharray="5,2" d="M220.72,-226.11C225.48,-224.58 228.5,-222.04 228.5,-218.5 228.5,-212.84 220.77,-209.74 210.56,-209.21"/>
<polygon fill="#9a32cd" stroke="#9a32cd" points="219.85,-222.71 210.56,-227.79 220.99,-229.61 219.85,-222.71"/>
<text text-anchor="middle" x="241" y="-216" font-family="Helvetica,sans-Serif" font-size="10.00"> next</text>
</g>
<!-- Node10 -->
<g id="node10" class="node">
<title>Node10</title>
<g id="a_node10"><a xlink:title=" ">
<polygon fill="none" stroke="#bfbfbf" points="56.5,-326.5 56.5,-345.5 151.5,-345.5 151.5,-326.5 56.5,-326.5"/>
<text text-anchor="middle" x="104" y="-333.5" font-family="Helvetica,sans-Serif" font-size="10.00">void *(*)(void *)</text>
</a>
</g>
</g>
<!-- Node10&#45;&gt;Node9 -->
<g id="edge14" class="edge">
<title>Node10&#45;&gt;Node9</title>
<path fill="none" stroke="#9a32cd" stroke-dasharray="5,2" d="M107.67,-316.36C111.76,-298.86 119.63,-272.52 133,-253 139.86,-242.98 150.44,-234.16 158.85,-228.08"/>
<polygon fill="#9a32cd" stroke="#9a32cd" points="104.19,-315.92 105.51,-326.43 111.03,-317.39 104.19,-315.92"/>
<text text-anchor="middle" x="149" y="-278" font-family="Helvetica,sans-Serif" font-size="10.00"> getdir</text>
</g>
<!-- Node11 -->
<g id="node11" class="node">
<title>Node11</title>
<g id="a_node11"><a xlink:title=" ">
<polygon fill="none" stroke="#bfbfbf" points="169.5,-326.5 169.5,-345.5 198.5,-345.5 198.5,-326.5 169.5,-326.5"/>
<text text-anchor="middle" x="184" y="-333.5" font-family="Helvetica,sans-Serif" font-size="10.00">int</text>
</a>
</g>
</g>
<!-- Node11&#45;&gt;Node9 -->
<g id="edge17" class="edge">
<title>Node11&#45;&gt;Node9</title>
<path fill="none" stroke="#9a32cd" stroke-dasharray="5,2" d="M174.79,-317.05C173.64,-314.09 172.64,-311.01 172,-308 165.91,-279.29 168.91,-244.16 170.82,-228.17"/>
<polygon fill="#9a32cd" stroke="#9a32cd" points="171.69,-318.67 179.02,-326.32 178.05,-315.77 171.69,-318.67"/>
<text text-anchor="middle" x="189.5" y="-278" font-family="Helvetica,sans-Serif" font-size="10.00"> mount</text>
</g>
<!-- Node12 -->
<g id="node12" class="node">
<title>Node12</title>
<g id="a_node12"><a xlink:title=" ">
<polygon fill="none" stroke="#bfbfbf" points="0,-326.5 0,-345.5 38,-345.5 38,-326.5 0,-326.5"/>
<text text-anchor="middle" x="19" y="-333.5" font-family="Helvetica,sans-Serif" font-size="10.00">bool</text>
</a>
</g>
</g>
<!-- Node12&#45;&gt;Node9 -->
<g id="edge18" class="edge">
<title>Node12&#45;&gt;Node9</title>
<path fill="none" stroke="#9a32cd" stroke-dasharray="5,2" d="M21.13,-316.46C24.25,-297.82 31.84,-269.54 50,-253 72.65,-232.37 106.85,-224.28 133.27,-221.18"/>
<polygon fill="#9a32cd" stroke="#9a32cd" points="17.66,-316.01 19.73,-326.4 24.59,-316.98 17.66,-316.01"/>
<text text-anchor="middle" x="78" y="-300" font-family="Helvetica,sans-Serif" font-size="10.00"> readfile</text>
<text text-anchor="middle" x="78" y="-289" font-family="Helvetica,sans-Serif" font-size="10.00">rm</text>
<text text-anchor="middle" x="78" y="-278" font-family="Helvetica,sans-Serif" font-size="10.00">rmdir</text>
<text text-anchor="middle" x="78" y="-267" font-family="Helvetica,sans-Serif" font-size="10.00">truncatefile</text>
<text text-anchor="middle" x="78" y="-256" font-family="Helvetica,sans-Serif" font-size="10.00">writefile</text>
</g>
<!-- Node13 -->
<g id="node13" class="node">
<title>Node13</title>
<g id="a_node13"><a xlink:title=" ">
<polygon fill="none" stroke="#bfbfbf" points="417,-209 417,-228 463,-228 463,-209 417,-209"/>
<text text-anchor="middle" x="440" y="-216" font-family="Helvetica,sans-Serif" font-size="10.00">void *</text>
</a>
</g>
</g>
<!-- Node13&#45;&gt;Node2 -->
<g id="edge21" class="edge">
<title>Node13&#45;&gt;Node2</title>
<path fill="none" stroke="#9a32cd" stroke-dasharray="5,2" d="M437.59,-198.42C436.72,-184.51 437.42,-165.61 445,-151 449.75,-141.83 472.01,-125.22 486.42,-115.09"/>
<polygon fill="#9a32cd" stroke="#9a32cd" points="434.14,-199.11 438.58,-208.73 441.11,-198.44 434.14,-199.11"/>
<text text-anchor="middle" x="465" y="-165" font-family="Helvetica,sans-Serif" font-size="10.00"> opaque</text>
</g>
<!-- Node14 -->
<g id="node14" class="node">
<title>Node14</title>
<g id="a_node14"><a xlink:title=" ">
<polygon fill="none" stroke="#bfbfbf" points="721.5,-96 721.5,-115 766.5,-115 766.5,-96 721.5,-96"/>
<text text-anchor="middle" x="744" y="-103" font-family="Helvetica,sans-Serif" font-size="10.00">size_t</text>
</a>
</g>
</g>
<!-- Node14&#45;&gt;Node1 -->
<g id="edge23" class="edge">
<title>Node14&#45;&gt;Node1</title>
<path fill="none" stroke="#9a32cd" stroke-dasharray="5,2" d="M735.53,-86.57C732.2,-78.62 728.76,-69.03 727,-60 724.3,-46.14 724.68,-29.65 725.28,-19.77"/>
<polygon fill="#9a32cd" stroke="#9a32cd" points="732.42,-88.19 739.69,-95.9 738.82,-85.34 732.42,-88.19"/>
<text text-anchor="middle" x="756.5" y="-46.5" font-family="Helvetica,sans-Serif" font-size="10.00"> child_count</text>
</g>
</g>
</svg>
        <g id="navigator" transform="translate(0 0)" fill="#404254">
                <rect fill="#f2f5e9" fill-opacity="0.5" stroke="#606060" stroke-width=".5" x="0" y="0" width="60" height="60"/>
                <use id="zoomplus" xlink:href="#zoomPlus" x="17" y="9" onmousedown="handleZoom(evt,'in')"/>
                <use id="zoomminus" xlink:href="#zoomMin" x="42" y="9" onmousedown="handleZoom(evt,'out')"/>
                <use id="reset" xlink:href="#resetDef" x="30" y="36" onmousedown="handleReset()"/>
                <g id="arrowUp" xlink:href="#dirArrow" transform="translate(30 24)" onmousedown="handlePan(0,-1)">
                  <use xlink:href="#rim" fill="#404040">
                        <set attributeName="fill" to="#808080" begin="arrowUp.mouseover" end="arrowUp.mouseout"/>
                  </use>
                  <path fill="none" stroke="white" stroke-width="1.5" d="M0,-3.0v7 M-2.5,-0.5L0,-3.0L2.5,-0.5"/>
                </g>
                <g id="arrowRight" xlink:href="#dirArrow" transform="rotate(90) translate(36 -43)" onmousedown="handlePan(1,0)">
                  <use xlink:href="#rim" fill="#404040">
                        <set attributeName="fill" to="#808080" begin="arrowRight.mouseover" end="arrowRight.mouseout"/>
                  </use>
                  <path fill="none" stroke="white" stroke-width="1.5" d="M0,-3.0v7 M-2.5,-0.5L0,-3.0L2.5,-0.5"/>
                </g>
                <g id="arrowDown" xlink:href="#dirArrow" transform="rotate(180) translate(-30 -48)" onmousedown="handlePan(0,1)">
                  <use xlink:href="#rim" fill="#404040">
                        <set attributeName="fill" to="#808080" begin="arrowDown.mouseover" end="arrowDown.mouseout"/>
                  </use>
                  <path fill="none" stroke="white" stroke-width="1.5" d="M0,-3.0v7 M-2.5,-0.5L0,-3.0L2.5,-0.5"/>
                </g>
                <g id="arrowLeft" xlink:href="#dirArrow" transform="rotate(270) translate(-36 17)" onmousedown="handlePan(-1,0)">
                  <use xlink:href="#rim" fill="#404040">
                        <set attributeName="fill" to="#808080" begin="arrowLeft.mouseover" end="arrowLeft.mouseout"/>
                  </use>
                  <path fill="none" stroke="white" stroke-width="1.5" d="M0,-3.0v7 M-2.5,-0.5L0,-3.0L2.5,-0.5"/>
                </g>
        </g>
        <svg viewBox="0 0 15 15" width="100%" height="30px" preserveAspectRatio="xMaxYMin meet">
         <g id="arrow_out" transform="scale(0.3 0.3)">
          <a xlink:href="structvfs__tree__t__coll__graph_org.svg" target="_base">
           <rect id="button" ry="5" rx="5" y="6" x="6" height="38" width="38"
                fill="#f2f5e9" fill-opacity="0.5" stroke="#606060" stroke-width="1.0"/>
           <path id="arrow"
             d="M 11.500037,31.436501 C 11.940474,20.09759 22.043105,11.32322 32.158766,21.979434 L 37.068811,17.246167 C 37.068811,17.246167 37.088388,32 37.088388,32 L 22.160133,31.978069 C 22.160133,31.978069 26.997745,27.140456 26.997745,27.140456 C 18.528582,18.264221 13.291696,25.230495 11.500037,31.436501 z"
             style="fill:#404040;"/>
          </a>
         </g>
        </svg>
</svg>
