<?xml version="1.0" encoding="UTF-8" standalone="no"?>
<!DOCTYPE svg PUBLIC "-//W3C//DTD SVG 1.1//EN"
 "http://www.w3.org/Graphics/SVG/1.1/DTD/svg11.dtd">
<!-- Generated by graphviz version 2.43.0 (0)
 -->
<!-- Title: achi_hba_cmd_tbl_t Pages: 1 -->
<svg width="202pt" height="239pt"
 viewBox="0.00 0.00 201.50 239.00" xmlns="http://www.w3.org/2000/svg" xmlns:xlink="http://www.w3.org/1999/xlink">
<g id="graph0" class="graph" transform="scale(1 1) rotate(0) translate(4 235)">
<title>achi_hba_cmd_tbl_t</title>
<!-- Node1 -->
<g id="node1" class="node">
<title>Node1</title>
<g id="a_node1"><a xlink:title=" ">
<polygon fill="#bfbfbf" stroke="black" points="59,-0.5 59,-19.5 172,-19.5 172,-0.5 59,-0.5"/>
<text text-anchor="middle" x="115.5" y="-7.5" font-family="Helvetica,sans-Serif" font-size="10.00">achi_hba_cmd_tbl_t</text>
</a>
</g>
</g>
<!-- Node2 -->
<g id="node2" class="node">
<title>Node2</title>
<g id="a_node2"><a xlink:href="structahci__hba__prdt__entry__t.html" target="_top" xlink:title=" ">
<polygon fill="none" stroke="black" points="0,-89.5 0,-108.5 125,-108.5 125,-89.5 0,-89.5"/>
<text text-anchor="middle" x="62.5" y="-96.5" font-family="Helvetica,sans-Serif" font-size="10.00">ahci_hba_prdt_entry_t</text>
</a>
</g>
</g>
<!-- Node2&#45;&gt;Node1 -->
<g id="edge1" class="edge">
<title>Node2&#45;&gt;Node1</title>
<path fill="none" stroke="#9a32cd" stroke-dasharray="5,2" d="M70.13,-79.96C75.64,-67.71 83.65,-51.37 92.5,-38 96.85,-31.43 102.6,-24.68 107.26,-19.57"/>
<polygon fill="#9a32cd" stroke="#9a32cd" points="66.76,-78.93 65.97,-89.5 73.18,-81.73 66.76,-78.93"/>
<text text-anchor="middle" x="119.5" y="-52" font-family="Helvetica,sans-Serif" font-size="10.00"> prdt_entry</text>
</g>
<!-- Node3 -->
<g id="node3" class="node">
<title>Node3</title>
<g id="a_node3"><a xlink:title=" ">
<polygon fill="none" stroke="#bfbfbf" points="34.5,-211.5 34.5,-230.5 90.5,-230.5 90.5,-211.5 34.5,-211.5"/>
<text text-anchor="middle" x="62.5" y="-218.5" font-family="Helvetica,sans-Serif" font-size="10.00">uint32_t</text>
</a>
</g>
</g>
<!-- Node3&#45;&gt;Node2 -->
<g id="edge2" class="edge">
<title>Node3&#45;&gt;Node2</title>
<path fill="none" stroke="#9a32cd" stroke-dasharray="5,2" d="M62.5,-201.15C62.5,-174.72 62.5,-127.76 62.5,-108.55"/>
<polygon fill="#9a32cd" stroke="#9a32cd" points="59,-201.37 62.5,-211.37 66,-201.37 59,-201.37"/>
<text text-anchor="middle" x="75" y="-185" font-family="Helvetica,sans-Serif" font-size="10.00"> dba</text>
<text text-anchor="middle" x="75" y="-174" font-family="Helvetica,sans-Serif" font-size="10.00">dbau</text>
<text text-anchor="middle" x="75" y="-163" font-family="Helvetica,sans-Serif" font-size="10.00">dbc</text>
<text text-anchor="middle" x="75" y="-152" font-family="Helvetica,sans-Serif" font-size="10.00">i</text>
<text text-anchor="middle" x="75" y="-141" font-family="Helvetica,sans-Serif" font-size="10.00">rsv0</text>
<text text-anchor="middle" x="75" y="-130" font-family="Helvetica,sans-Serif" font-size="10.00">rsv1</text>
</g>
<!-- Node4 -->
<g id="node4" class="node">
<title>Node4</title>
<g id="a_node4"><a xlink:title=" ">
<polygon fill="none" stroke="#bfbfbf" points="143.5,-89.5 143.5,-108.5 193.5,-108.5 193.5,-89.5 143.5,-89.5"/>
<text text-anchor="middle" x="168.5" y="-96.5" font-family="Helvetica,sans-Serif" font-size="10.00">uint8_t</text>
</a>
</g>
</g>
<!-- Node4&#45;&gt;Node1 -->
<g id="edge3" class="edge">
<title>Node4&#45;&gt;Node1</title>
<path fill="none" stroke="#9a32cd" stroke-dasharray="5,2" d="M164.3,-79.46C160.87,-66.98 155.16,-50.58 146.5,-38 141.56,-30.83 134.29,-24.36 128.03,-19.55"/>
<polygon fill="#9a32cd" stroke="#9a32cd" points="160.91,-80.36 166.74,-89.21 167.7,-78.66 160.91,-80.36"/>
<text text-anchor="middle" x="177" y="-63" font-family="Helvetica,sans-Serif" font-size="10.00"> acmd</text>
<text text-anchor="middle" x="177" y="-52" font-family="Helvetica,sans-Serif" font-size="10.00">cfis</text>
<text text-anchor="middle" x="177" y="-41" font-family="Helvetica,sans-Serif" font-size="10.00">rsv</text>
</g>
</g>
</svg>
