<?xml version="1.0" encoding="UTF-8" standalone="no"?>
<!DOCTYPE svg PUBLIC "-//W3C//DTD SVG 1.1//EN"
 "http://www.w3.org/Graphics/SVG/1.1/DTD/svg11.dtd">
<!-- Generated by graphviz version 2.43.0 (0)
 -->
<!-- Title: iso9660 Pages: 1 -->
<svg width="1198pt" height="232pt"
 viewBox="0.00 0.00 1198.00 232.00" xmlns="http://www.w3.org/2000/svg" xmlns:xlink="http://www.w3.org/1999/xlink">
<g id="graph0" class="graph" transform="scale(1 1) rotate(0) translate(4 228)">
<title>iso9660</title>
<!-- Node1 -->
<g id="node1" class="node">
<title>Node1</title>
<g id="a_node1"><a xlink:title=" ">
<polygon fill="#bfbfbf" stroke="black" points="750.5,-7 750.5,-26 805.5,-26 805.5,-7 750.5,-7"/>
<text text-anchor="middle" x="778" y="-14" font-family="Helvetica,sans-Serif" font-size="10.00">iso9660</text>
</a>
</g>
</g>
<!-- Node2 -->
<g id="node2" class="node">
<title>Node2</title>
<g id="a_node2"><a xlink:href="structfs__directory__entry__t.html" target="_top" xlink:title="A VFS directory entry. Files AND directories have these, but internally there is also a tree of fs_tr...">
<polygon fill="none" stroke="black" points="213,-87 213,-106 327,-106 327,-87 213,-87"/>
<text text-anchor="middle" x="270" y="-94" font-family="Helvetica,sans-Serif" font-size="10.00">fs_directory_entry_t</text>
</a>
</g>
</g>
<!-- Node2&#45;&gt;Node1 -->
<g id="edge1" class="edge">
<title>Node2&#45;&gt;Node1</title>
<path fill="none" stroke="#9a32cd" stroke-dasharray="5,2" d="M299.06,-82.71C326.24,-70.96 364.99,-54.8 381,-51 516.62,-18.85 684.7,-16.56 750.12,-17.04"/>
<polygon fill="#9a32cd" stroke="#9a32cd" points="297.4,-79.61 289.63,-86.81 300.19,-86.03 297.4,-79.61"/>
<text text-anchor="middle" x="392.5" y="-54" font-family="Helvetica,sans-Serif" font-size="10.00"> root</text>
</g>
<!-- Node2&#45;&gt;Node2 -->
<g id="edge2" class="edge">
<title>Node2&#45;&gt;Node2</title>
<path fill="none" stroke="#9a32cd" stroke-dasharray="5,2" d="M337.44,-101.96C342.14,-100.71 345,-98.89 345,-96.5 345,-92.67 337.67,-90.31 327.23,-89.41"/>
<polygon fill="#9a32cd" stroke="#9a32cd" points="336.55,-98.56 327.23,-103.59 337.65,-105.47 336.55,-98.56"/>
<text text-anchor="middle" x="357.5" y="-94" font-family="Helvetica,sans-Serif" font-size="10.00"> next</text>
</g>
<!-- Node4 -->
<g id="node4" class="node">
<title>Node4</title>
<g id="a_node4"><a xlink:href="structfs__tree__t.html" target="_top" xlink:title="Used internally by filesystem.c to cache directories to RAM.">
<polygon fill="none" stroke="black" points="284.5,-7 284.5,-26 343.5,-26 343.5,-7 284.5,-7"/>
<text text-anchor="middle" x="314" y="-14" font-family="Helvetica,sans-Serif" font-size="10.00">fs_tree_t</text>
</a>
</g>
</g>
<!-- Node2&#45;&gt;Node4 -->
<g id="edge6" class="edge">
<title>Node2&#45;&gt;Node4</title>
<path fill="none" stroke="#9a32cd" stroke-dasharray="5,2" d="M262.72,-77.14C260.57,-68.75 259.77,-58.93 264,-51 270.05,-39.66 281.83,-31.49 292.44,-26.05"/>
<polygon fill="#9a32cd" stroke="#9a32cd" points="259.44,-78.36 265.9,-86.76 266.09,-76.17 259.44,-78.36"/>
<text text-anchor="middle" x="276" y="-54" font-family="Helvetica,sans-Serif" font-size="10.00"> files</text>
</g>
<!-- Node3 -->
<g id="node3" class="node">
<title>Node3</title>
<g id="a_node3"><a xlink:title=" ">
<polygon fill="none" stroke="#bfbfbf" points="179,-204.5 179,-223.5 235,-223.5 235,-204.5 179,-204.5"/>
<text text-anchor="middle" x="207" y="-211.5" font-family="Helvetica,sans-Serif" font-size="10.00">uint64_t</text>
</a>
</g>
</g>
<!-- Node3&#45;&gt;Node2 -->
<g id="edge3" class="edge">
<title>Node3&#45;&gt;Node2</title>
<path fill="none" stroke="#9a32cd" stroke-dasharray="5,2" d="M186.1,-197.68C182.81,-194.23 179.87,-190.3 178,-186 168.24,-163.59 163.98,-151.02 178,-131 186.58,-118.75 200.13,-110.96 214.22,-106.01"/>
<polygon fill="#9a32cd" stroke="#9a32cd" points="183.84,-200.35 193.63,-204.41 188.51,-195.13 183.84,-200.35"/>
<text text-anchor="middle" x="196" y="-161.5" font-family="Helvetica,sans-Serif" font-size="10.00"> lbapos</text>
<text text-anchor="middle" x="196" y="-150.5" font-family="Helvetica,sans-Serif" font-size="10.00">size</text>
</g>
<!-- Node3&#45;&gt;Node4 -->
<g id="edge5" class="edge">
<title>Node3&#45;&gt;Node4</title>
<path fill="none" stroke="#9a32cd" stroke-dasharray="5,2" d="M176.52,-198.8C171.89,-195.28 167.75,-191.04 165,-186 142.42,-144.63 140.9,-118.56 168,-80 194.87,-41.76 250.16,-26.76 284.46,-20.99"/>
<polygon fill="#9a32cd" stroke="#9a32cd" points="174.87,-201.9 185.17,-204.36 178.65,-196.01 174.87,-201.9"/>
<text text-anchor="middle" x="186" y="-105" font-family="Helvetica,sans-Serif" font-size="10.00"> device</text>
<text text-anchor="middle" x="186" y="-94" font-family="Helvetica,sans-Serif" font-size="10.00">lbapos</text>
<text text-anchor="middle" x="186" y="-83" font-family="Helvetica,sans-Serif" font-size="10.00">size</text>
</g>
<!-- Node5 -->
<g id="node5" class="node">
<title>Node5</title>
<g id="a_node5"><a xlink:href="structfilesystem__t.html" target="_top" xlink:title="Defines a filesystem driver.">
<polygon fill="none" stroke="black" points="391.5,-87 391.5,-106 468.5,-106 468.5,-87 391.5,-87"/>
<text text-anchor="middle" x="430" y="-94" font-family="Helvetica,sans-Serif" font-size="10.00">filesystem_t</text>
</a>
</g>
</g>
<!-- Node3&#45;&gt;Node5 -->
<g id="edge9" class="edge">
<title>Node3&#45;&gt;Node5</title>
<path fill="none" stroke="#9a32cd" stroke-dasharray="5,2" d="M212.63,-194.57C219.78,-171.68 231.83,-135.12 237,-131 261.87,-111.17 347.89,-119.65 379,-113 387.6,-111.16 396.84,-108.55 405.06,-106"/>
<polygon fill="#9a32cd" stroke="#9a32cd" points="209.25,-193.64 209.64,-204.23 215.94,-195.71 209.25,-193.64"/>
<text text-anchor="middle" x="260.5" y="-161.5" font-family="Helvetica,sans-Serif" font-size="10.00"> createdir</text>
<text text-anchor="middle" x="260.5" y="-150.5" font-family="Helvetica,sans-Serif" font-size="10.00">createfile</text>
</g>
<!-- Node14 -->
<g id="node14" class="node">
<title>Node14</title>
<g id="a_node14"><a xlink:href="structstorage__device__t.html" target="_top" xlink:title="Represents a block storage device e.g. a hard disk, DVD&#45;ROM drive, etc.">
<polygon fill="none" stroke="black" points="868,-87 868,-106 968,-106 968,-87 868,-87"/>
<text text-anchor="middle" x="918" y="-94" font-family="Helvetica,sans-Serif" font-size="10.00">storage_device_t</text>
</a>
</g>
</g>
<!-- Node3&#45;&gt;Node14 -->
<g id="edge24" class="edge">
<title>Node3&#45;&gt;Node14</title>
<path fill="none" stroke="#9a32cd" stroke-dasharray="5,2" d="M244.98,-205.44C258.37,-201.36 272.86,-195.2 284,-186 305.8,-167.99 291.72,-145.51 316,-131 367.34,-100.32 794.74,-121.08 854,-113 865.33,-111.46 877.57,-108.75 888.29,-106.03"/>
<polygon fill="#9a32cd" stroke="#9a32cd" points="243.74,-202.15 235.02,-208.16 245.59,-208.9 243.74,-202.15"/>
<text text-anchor="middle" x="339" y="-161.5" font-family="Helvetica,sans-Serif" font-size="10.00"> opaque1</text>
<text text-anchor="middle" x="339" y="-150.5" font-family="Helvetica,sans-Serif" font-size="10.00">size</text>
</g>
<!-- Node4&#45;&gt;Node2 -->
<g id="edge4" class="edge">
<title>Node4&#45;&gt;Node2</title>
<path fill="none" stroke="#9a32cd" stroke-dasharray="5,2" d="M305.83,-35.26C301.88,-43.52 296.93,-53.39 292,-62 287.02,-70.69 280.68,-80.21 276.09,-86.87"/>
<polygon fill="#9a32cd" stroke="#9a32cd" points="309.01,-36.73 310.09,-26.19 302.67,-33.76 309.01,-36.73"/>
<text text-anchor="middle" x="320.5" y="-54" font-family="Helvetica,sans-Serif" font-size="10.00"> directory</text>
</g>
<!-- Node4&#45;&gt;Node4 -->
<g id="edge7" class="edge">
<title>Node4&#45;&gt;Node4</title>
<path fill="none" stroke="#9a32cd" stroke-dasharray="5,2" d="M353.67,-22.95C358.41,-21.77 361.5,-19.62 361.5,-16.5 361.5,-11.5 353.58,-9 343.69,-9"/>
<polygon fill="#9a32cd" stroke="#9a32cd" points="353.26,-19.47 343.69,-24 354,-26.43 353.26,-19.47"/>
<text text-anchor="middle" x="386.5" y="-25" font-family="Helvetica,sans-Serif" font-size="10.00"> child_dirs</text>
<text text-anchor="middle" x="386.5" y="-14" font-family="Helvetica,sans-Serif" font-size="10.00">next</text>
<text text-anchor="middle" x="386.5" y="-3" font-family="Helvetica,sans-Serif" font-size="10.00">parent</text>
</g>
<!-- Node5&#45;&gt;Node4 -->
<g id="edge8" class="edge">
<title>Node5&#45;&gt;Node4</title>
<path fill="none" stroke="#9a32cd" stroke-dasharray="5,2" d="M424.58,-77.15C421.11,-68.21 415.78,-57.92 408,-51 390.01,-34.99 363.84,-26.49 343.68,-22.07"/>
<polygon fill="#9a32cd" stroke="#9a32cd" points="421.3,-78.4 427.82,-86.75 427.94,-76.16 421.3,-78.4"/>
<text text-anchor="middle" x="463" y="-54" font-family="Helvetica,sans-Serif" font-size="10.00"> responsible_driver</text>
</g>
<!-- Node5&#45;&gt;Node5 -->
<g id="edge11" class="edge">
<title>Node5&#45;&gt;Node5</title>
<path fill="none" stroke="#9a32cd" stroke-dasharray="5,2" d="M478.72,-102.59C483.48,-101.36 486.5,-99.33 486.5,-96.5 486.5,-91.97 478.77,-89.49 468.56,-89.07"/>
<polygon fill="#9a32cd" stroke="#9a32cd" points="478.01,-99.15 468.56,-103.93 478.93,-106.09 478.01,-99.15"/>
<text text-anchor="middle" x="499" y="-94" font-family="Helvetica,sans-Serif" font-size="10.00"> next</text>
</g>
<!-- Node6 -->
<g id="node6" class="node">
<title>Node6</title>
<g id="a_node6"><a xlink:title=" ">
<polygon fill="none" stroke="#bfbfbf" points="312.5,-204.5 312.5,-223.5 407.5,-223.5 407.5,-204.5 312.5,-204.5"/>
<text text-anchor="middle" x="360" y="-211.5" font-family="Helvetica,sans-Serif" font-size="10.00">void *(*)(void *)</text>
</a>
</g>
</g>
<!-- Node6&#45;&gt;Node5 -->
<g id="edge10" class="edge">
<title>Node6&#45;&gt;Node5</title>
<path fill="none" stroke="#9a32cd" stroke-dasharray="5,2" d="M363.88,-194.33C368.17,-176.8 376.35,-150.44 390,-131 397.08,-120.92 407.93,-112.09 416.54,-106.04"/>
<polygon fill="#9a32cd" stroke="#9a32cd" points="360.39,-193.88 361.6,-204.41 367.22,-195.43 360.39,-193.88"/>
<text text-anchor="middle" x="406" y="-156" font-family="Helvetica,sans-Serif" font-size="10.00"> getdir</text>
</g>
<!-- Node7 -->
<g id="node7" class="node">
<title>Node7</title>
<g id="a_node7"><a xlink:title=" ">
<polygon fill="none" stroke="#bfbfbf" points="625,-204.5 625,-223.5 663,-223.5 663,-204.5 625,-204.5"/>
<text text-anchor="middle" x="644" y="-211.5" font-family="Helvetica,sans-Serif" font-size="10.00">char</text>
</a>
</g>
</g>
<!-- Node7&#45;&gt;Node1 -->
<g id="edge22" class="edge">
<title>Node7&#45;&gt;Node1</title>
<path fill="none" stroke="#9a32cd" stroke-dasharray="5,2" d="M651.56,-195.07C665.98,-161.08 696.6,-89.8 704,-80 721.33,-57.05 748.52,-36.87 764.67,-26"/>
<polygon fill="#9a32cd" stroke="#9a32cd" points="648.33,-193.73 647.66,-204.31 654.78,-196.46 648.33,-193.73"/>
<text text-anchor="middle" x="740.5" y="-94" font-family="Helvetica,sans-Serif" font-size="10.00"> volume_name</text>
</g>
<!-- Node7&#45;&gt;Node2 -->
<g id="edge19" class="edge">
<title>Node7&#45;&gt;Node2</title>
<path fill="none" stroke="#9a32cd" stroke-dasharray="5,2" d="M614.69,-210.67C579.12,-207.28 521.9,-199.83 506,-186 486.48,-169.03 506.85,-147.57 487,-131 483.91,-128.42 390.33,-114.65 327.08,-105.58"/>
<polygon fill="#9a32cd" stroke="#9a32cd" points="614.69,-214.19 624.97,-211.6 615.32,-207.22 614.69,-214.19"/>
<text text-anchor="middle" x="539" y="-167" font-family="Helvetica,sans-Serif" font-size="10.00"> alt_filename</text>
<text text-anchor="middle" x="539" y="-156" font-family="Helvetica,sans-Serif" font-size="10.00">device_name</text>
<text text-anchor="middle" x="539" y="-145" font-family="Helvetica,sans-Serif" font-size="10.00">filename</text>
</g>
<!-- Node7&#45;&gt;Node4 -->
<g id="edge15" class="edge">
<title>Node7&#45;&gt;Node4</title>
<path fill="none" stroke="#9a32cd" stroke-dasharray="5,2" d="M644.81,-194.16C644.69,-176.52 642.17,-150.07 630,-131 613.15,-104.6 543.02,-62.76 514,-51 456.57,-27.74 383.57,-20.63 343.56,-18.45"/>
<polygon fill="#9a32cd" stroke="#9a32cd" points="641.31,-194.26 644.62,-204.32 648.31,-194.39 641.31,-194.26"/>
<text text-anchor="middle" x="647.5" y="-99.5" font-family="Helvetica,sans-Serif" font-size="10.00"> device_name</text>
<text text-anchor="middle" x="647.5" y="-88.5" font-family="Helvetica,sans-Serif" font-size="10.00">name</text>
</g>
<!-- Node7&#45;&gt;Node5 -->
<g id="edge12" class="edge">
<title>Node7&#45;&gt;Node5</title>
<path fill="none" stroke="#9a32cd" stroke-dasharray="5,2" d="M615.72,-199.78C609.63,-195.97 603.65,-191.37 599,-186 581.66,-165.96 596.26,-148.07 576,-131 559.99,-117.51 506.37,-107.74 468.78,-102.34"/>
<polygon fill="#9a32cd" stroke="#9a32cd" points="614.12,-202.9 624.55,-204.78 617.57,-196.81 614.12,-202.9"/>
<text text-anchor="middle" x="614.5" y="-156" font-family="Helvetica,sans-Serif" font-size="10.00"> name</text>
</g>
<!-- Node7&#45;&gt;Node14 -->
<g id="edge25" class="edge">
<title>Node7&#45;&gt;Node14</title>
<path fill="none" stroke="#9a32cd" stroke-dasharray="5,2" d="M667.14,-198.53C671.82,-194.85 676.4,-190.62 680,-186 696.28,-165.1 681.85,-146.96 703,-131 729.97,-110.64 820.74,-118.99 854,-113 864.46,-111.12 875.77,-108.56 885.93,-106.06"/>
<polygon fill="#9a32cd" stroke="#9a32cd" points="664.9,-195.83 658.81,-204.5 668.98,-201.52 664.9,-195.83"/>
<text text-anchor="middle" x="718.5" y="-156" font-family="Helvetica,sans-Serif" font-size="10.00"> name</text>
</g>
<!-- Node8 -->
<g id="node8" class="node">
<title>Node8</title>
<g id="a_node8"><a xlink:title=" ">
<polygon fill="none" stroke="#bfbfbf" points="1106.5,-204.5 1106.5,-223.5 1135.5,-223.5 1135.5,-204.5 1106.5,-204.5"/>
<text text-anchor="middle" x="1121" y="-211.5" font-family="Helvetica,sans-Serif" font-size="10.00">int</text>
</a>
</g>
</g>
<!-- Node8&#45;&gt;Node1 -->
<g id="edge31" class="edge">
<title>Node8&#45;&gt;Node1</title>
<path fill="none" stroke="#9a32cd" stroke-dasharray="5,2" d="M1145.41,-206.84C1156.13,-202.79 1167.7,-196.28 1174,-186 1186.77,-165.16 1185.23,-152.71 1174,-131 1145.73,-76.34 1118.44,-73.08 1061,-51 1014.7,-33.21 867.33,-22.74 805.61,-19.03"/>
<polygon fill="#9a32cd" stroke="#9a32cd" points="1144.02,-203.61 1135.58,-210.01 1146.17,-210.27 1144.02,-203.61"/>
<text text-anchor="middle" x="1176" y="-94" font-family="Helvetica,sans-Serif" font-size="10.00"> joliet</text>
</g>
<!-- Node8&#45;&gt;Node5 -->
<g id="edge13" class="edge">
<title>Node8&#45;&gt;Node5</title>
<path fill="none" stroke="#9a32cd" stroke-dasharray="5,2" d="M1096.7,-205.32C1084.89,-200.85 1070.93,-194.42 1060,-186 1035.2,-166.9 1043.95,-145.09 1016,-131 968.94,-107.27 594.5,-117.62 542,-113 517.46,-110.84 490.06,-107.07 468.51,-103.79"/>
<polygon fill="#9a32cd" stroke="#9a32cd" points="1095.8,-208.71 1106.39,-208.74 1098.13,-202.11 1095.8,-208.71"/>
<text text-anchor="middle" x="1077.5" y="-156" font-family="Helvetica,sans-Serif" font-size="10.00"> mount</text>
</g>
<!-- Node8&#45;&gt;Node14 -->
<g id="edge28" class="edge">
<title>Node8&#45;&gt;Node14</title>
<path fill="none" stroke="#9a32cd" stroke-dasharray="5,2" d="M1121.37,-194.3C1120.66,-175.53 1116.48,-147.14 1099,-131 1094.14,-126.51 1019.92,-113.83 968.05,-105.42"/>
<polygon fill="#9a32cd" stroke="#9a32cd" points="1117.87,-194.34 1121.45,-204.32 1124.87,-194.29 1117.87,-194.34"/>
<text text-anchor="middle" x="1146" y="-161.5" font-family="Helvetica,sans-Serif" font-size="10.00"> blockread</text>
<text text-anchor="middle" x="1146" y="-150.5" font-family="Helvetica,sans-Serif" font-size="10.00">blockwrite</text>
</g>
<!-- Node9 -->
<g id="node9" class="node">
<title>Node9</title>
<g id="a_node9"><a xlink:title=" ">
<polygon fill="none" stroke="#bfbfbf" points="426,-204.5 426,-223.5 464,-223.5 464,-204.5 426,-204.5"/>
<text text-anchor="middle" x="445" y="-211.5" font-family="Helvetica,sans-Serif" font-size="10.00">bool</text>
</a>
</g>
</g>
<!-- Node9&#45;&gt;Node5 -->
<g id="edge14" class="edge">
<title>Node9&#45;&gt;Node5</title>
<path fill="none" stroke="#9a32cd" stroke-dasharray="5,2" d="M434.43,-195.46C433.02,-192.4 431.79,-189.18 431,-186 423.89,-157.53 426.83,-122.28 428.78,-106.21"/>
<polygon fill="#9a32cd" stroke="#9a32cd" points="431.42,-197.25 439.23,-204.42 437.6,-193.95 431.42,-197.25"/>
<text text-anchor="middle" x="459" y="-178" font-family="Helvetica,sans-Serif" font-size="10.00"> readfile</text>
<text text-anchor="middle" x="459" y="-167" font-family="Helvetica,sans-Serif" font-size="10.00">rm</text>
<text text-anchor="middle" x="459" y="-156" font-family="Helvetica,sans-Serif" font-size="10.00">rmdir</text>
<text text-anchor="middle" x="459" y="-145" font-family="Helvetica,sans-Serif" font-size="10.00">truncatefile</text>
<text text-anchor="middle" x="459" y="-134" font-family="Helvetica,sans-Serif" font-size="10.00">writefile</text>
</g>
<!-- Node10 -->
<g id="node10" class="node">
<title>Node10</title>
<g id="a_node10"><a xlink:title=" ">
<polygon fill="none" stroke="#bfbfbf" points="0,-204.5 0,-223.5 50,-223.5 50,-204.5 0,-204.5"/>
<text text-anchor="middle" x="25" y="-211.5" font-family="Helvetica,sans-Serif" font-size="10.00">uint8_t</text>
</a>
</g>
</g>
<!-- Node10&#45;&gt;Node2 -->
<g id="edge21" class="edge">
<title>Node10&#45;&gt;Node2</title>
<path fill="none" stroke="#9a32cd" stroke-dasharray="5,2" d="M30.75,-194.69C37.76,-175.56 51.54,-146.27 74,-131 114.96,-103.14 135.18,-121.39 184,-113 196.86,-110.79 210.78,-108.31 223.61,-106"/>
<polygon fill="#9a32cd" stroke="#9a32cd" points="27.37,-193.75 27.47,-204.35 34,-196.01 27.37,-193.75"/>
<text text-anchor="middle" x="90" y="-178" font-family="Helvetica,sans-Serif" font-size="10.00"> day</text>
<text text-anchor="middle" x="90" y="-167" font-family="Helvetica,sans-Serif" font-size="10.00">hour</text>
<text text-anchor="middle" x="90" y="-156" font-family="Helvetica,sans-Serif" font-size="10.00">min</text>
<text text-anchor="middle" x="90" y="-145" font-family="Helvetica,sans-Serif" font-size="10.00">month</text>
<text text-anchor="middle" x="90" y="-134" font-family="Helvetica,sans-Serif" font-size="10.00">sec</text>
</g>
<!-- Node10&#45;&gt;Node4 -->
<g id="edge16" class="edge">
<title>Node10&#45;&gt;Node4</title>
<path fill="none" stroke="#9a32cd" stroke-dasharray="5,2" d="M21.64,-194.34C19.48,-176.63 18.98,-149.99 31,-131 86.62,-43.1 223.59,-23.27 284.26,-18.8"/>
<polygon fill="#9a32cd" stroke="#9a32cd" points="18.19,-194.92 23.14,-204.28 25.11,-193.87 18.19,-194.92"/>
<text text-anchor="middle" x="94" y="-94" font-family="Helvetica,sans-Serif" font-size="10.00"> dirty</text>
</g>
<!-- Node11 -->
<g id="node11" class="node">
<title>Node11</title>
<g id="a_node11"><a xlink:title=" ">
<polygon fill="none" stroke="#bfbfbf" points="959,-204.5 959,-223.5 1005,-223.5 1005,-204.5 959,-204.5"/>
<text text-anchor="middle" x="982" y="-211.5" font-family="Helvetica,sans-Serif" font-size="10.00">void *</text>
</a>
</g>
</g>
<!-- Node11&#45;&gt;Node4 -->
<g id="edge17" class="edge">
<title>Node11&#45;&gt;Node4</title>
<path fill="none" stroke="#9a32cd" stroke-dasharray="5,2" d="M1006.32,-198.02C1010.18,-194.56 1013.66,-190.53 1016,-186 1037.65,-144.12 1049.3,-116.94 1020,-80 984.83,-35.66 952.02,-59.1 896,-51 685.9,-20.62 429.38,-17.53 343.55,-17.41"/>
<polygon fill="#9a32cd" stroke="#9a32cd" points="1003.91,-195.46 998.14,-204.34 1008.19,-201 1003.91,-195.46"/>
<text text-anchor="middle" x="1056" y="-94" font-family="Helvetica,sans-Serif" font-size="10.00"> opaque</text>
</g>
<!-- Node11&#45;&gt;Node14 -->
<g id="edge29" class="edge">
<title>Node11&#45;&gt;Node14</title>
<path fill="none" stroke="#9a32cd" stroke-dasharray="5,2" d="M972.31,-195.51C958.43,-170.46 933.39,-125.27 922.87,-106.28"/>
<polygon fill="#9a32cd" stroke="#9a32cd" points="969.28,-197.27 977.19,-204.32 975.4,-193.88 969.28,-197.27"/>
<text text-anchor="middle" x="989" y="-156" font-family="Helvetica,sans-Serif" font-size="10.00"> opaque2</text>
</g>
<!-- Node12 -->
<g id="node12" class="node">
<title>Node12</title>
<g id="a_node12"><a xlink:title=" ">
<polygon fill="none" stroke="#bfbfbf" points="76,-204.5 76,-223.5 132,-223.5 132,-204.5 76,-204.5"/>
<text text-anchor="middle" x="104" y="-211.5" font-family="Helvetica,sans-Serif" font-size="10.00">uint16_t</text>
</a>
</g>
</g>
<!-- Node12&#45;&gt;Node2 -->
<g id="edge18" class="edge">
<title>Node12&#45;&gt;Node2</title>
<path fill="none" stroke="#9a32cd" stroke-dasharray="5,2" d="M107.28,-194.35C111.56,-175.61 120.88,-147.26 140,-131 151.99,-120.81 187.48,-112.05 218.36,-106.05"/>
<polygon fill="#9a32cd" stroke="#9a32cd" points="103.81,-193.84 105.27,-204.34 110.67,-195.23 103.81,-193.84"/>
<text text-anchor="middle" x="152.5" y="-156" font-family="Helvetica,sans-Serif" font-size="10.00"> year</text>
</g>
<!-- Node13 -->
<g id="node13" class="node">
<title>Node13</title>
<g id="a_node13"><a xlink:title=" ">
<polygon fill="none" stroke="#bfbfbf" points="779,-204.5 779,-223.5 835,-223.5 835,-204.5 779,-204.5"/>
<text text-anchor="middle" x="807" y="-211.5" font-family="Helvetica,sans-Serif" font-size="10.00">uint32_t</text>
</a>
</g>
</g>
<!-- Node13&#45;&gt;Node1 -->
<g id="edge30" class="edge">
<title>Node13&#45;&gt;Node1</title>
<path fill="none" stroke="#9a32cd" stroke-dasharray="5,2" d="M804.62,-194.19C802.31,-177.46 798.36,-152.4 793,-131 790.95,-122.82 788.74,-121.25 787,-113 780.33,-81.39 778.6,-42.84 778.15,-26.03"/>
<polygon fill="#9a32cd" stroke="#9a32cd" points="801.18,-194.84 805.96,-204.29 808.12,-193.92 801.18,-194.84"/>
<text text-anchor="middle" x="823" y="-105" font-family="Helvetica,sans-Serif" font-size="10.00"> pathtable_lba</text>
<text text-anchor="middle" x="823" y="-94" font-family="Helvetica,sans-Serif" font-size="10.00">rootextent_lba</text>
<text text-anchor="middle" x="823" y="-83" font-family="Helvetica,sans-Serif" font-size="10.00">rootextent_len</text>
</g>
<!-- Node13&#45;&gt;Node2 -->
<g id="edge20" class="edge">
<title>Node13&#45;&gt;Node2</title>
<path fill="none" stroke="#9a32cd" stroke-dasharray="5,2" d="M774.35,-199.55C768.02,-195.86 761.85,-191.36 757,-186 739.22,-166.36 755.67,-146.24 734,-131 702.06,-108.53 421.88,-116.66 383,-113 364.07,-111.22 343.45,-108.6 325.07,-106.01"/>
<polygon fill="#9a32cd" stroke="#9a32cd" points="773.13,-202.87 783.61,-204.4 776.38,-196.66 773.13,-202.87"/>
<text text-anchor="middle" x="775" y="-161.5" font-family="Helvetica,sans-Serif" font-size="10.00"> device</text>
<text text-anchor="middle" x="775" y="-150.5" font-family="Helvetica,sans-Serif" font-size="10.00">flags</text>
</g>
<!-- Node13&#45;&gt;Node14 -->
<g id="edge27" class="edge">
<title>Node13&#45;&gt;Node14</title>
<path fill="none" stroke="#9a32cd" stroke-dasharray="5,2" d="M819.67,-196.47C833.11,-179.34 855.36,-152.18 877,-131 886.33,-121.87 897.92,-112.56 906.4,-106.08"/>
<polygon fill="#9a32cd" stroke="#9a32cd" points="816.86,-194.37 813.49,-204.42 822.39,-198.67 816.86,-194.37"/>
<text text-anchor="middle" x="904.5" y="-156" font-family="Helvetica,sans-Serif" font-size="10.00"> block_size</text>
</g>
<!-- Node14&#45;&gt;Node1 -->
<g id="edge23" class="edge">
<title>Node14&#45;&gt;Node1</title>
<path fill="none" stroke="#9a32cd" stroke-dasharray="5,2" d="M893.47,-81.83C864.68,-65.8 817.81,-39.68 793.59,-26.18"/>
<polygon fill="#9a32cd" stroke="#9a32cd" points="892.04,-85.05 902.48,-86.85 895.45,-78.93 892.04,-85.05"/>
<text text-anchor="middle" x="874" y="-54" font-family="Helvetica,sans-Serif" font-size="10.00"> device</text>
</g>
<!-- Node14&#45;&gt;Node14 -->
<g id="edge26" class="edge">
<title>Node14&#45;&gt;Node14</title>
<path fill="none" stroke="#9a32cd" stroke-dasharray="5,2" d="M978.35,-102.18C983.08,-100.93 986,-99.04 986,-96.5 986,-92.44 978.52,-90.03 968.11,-89.26"/>
<polygon fill="#9a32cd" stroke="#9a32cd" points="977.48,-98.78 968.11,-103.74 978.53,-105.7 977.48,-98.78"/>
<text text-anchor="middle" x="998.5" y="-94" font-family="Helvetica,sans-Serif" font-size="10.00"> next</text>
</g>
</g>
</svg>
