<?xml version="1.0" encoding="UTF-8" standalone="no"?>
<!DOCTYPE svg PUBLIC "-//W3C//DTD SVG 1.1//EN"
 "http://www.w3.org/Graphics/SVG/1.1/DTD/svg11.dtd">
<!-- Generated by graphviz version 2.43.0 (0)
 -->
<!-- Title: ubasic_double_fn Pages: 1 -->
<!--zoomable 1173 -->
<svg id="main" version="1.1" xmlns="http://www.w3.org/2000/svg" xmlns:xlink="http://www.w3.org/1999/xlink" xml:space="preserve" onload="init(evt)">
<style type="text/css"><![CDATA[
.edge:hover path { stroke: red; }
.edge:hover polygon { stroke: red; fill: red; }
]]></style>
<script type="text/javascript"><![CDATA[
var edges = document.getElementsByTagName('g');
if (edges && edges.length) {
  for (var i=0;i<edges.length;i++) {
    if (edges[i].id.substr(0,4)=='edge') {
      edges[i].setAttribute('class','edge');
    }
  }
}
]]></script>
        <defs>
                <circle id="rim" cx="0" cy="0" r="7"/>
                <circle id="rim2" cx="0" cy="0" r="3.5"/>
                <g id="zoomPlus">
                        <use xlink:href="#rim" fill="#404040">
                                <set attributeName="fill" to="#808080" begin="zoomplus.mouseover" end="zoomplus.mouseout"/>
                        </use>
                        <path d="M-4,0h8M0,-4v8" fill="none" stroke="white" stroke-width="1.5" pointer-events="none"/>
                </g>
                <g id="zoomMin">
                        <use xlink:href="#rim" fill="#404040">
                                <set attributeName="fill" to="#808080" begin="zoomminus.mouseover" end="zoomminus.mouseout"/>
                        </use>
                        <path d="M-4,0h8" fill="none" stroke="white" stroke-width="1.5" pointer-events="none"/>
                </g>
                <g id="dirArrow">
                        <path fill="none" stroke="white" stroke-width="1.5" d="M0,-3.0v7 M-2.5,-0.5L0,-3.0L2.5,-0.5"/>
                </g>
               <g id="resetDef">
                       <use xlink:href="#rim2" fill="#404040">
                               <set attributeName="fill" to="#808080" begin="reset.mouseover" end="reset.mouseout"/>
                       </use>
               </g>
        </defs>

<script type="text/javascript">
var viewWidth = 854;
var viewHeight = 1173;
var sectionId = 'dynsection-0';
</script>
<script xlink:href="svgpan.js"/>
<svg id="graph" class="graph">
<g id="viewport">
<title>ubasic_double_fn</title>
<!-- Node1 -->
<g id="node1" class="node">
<title>Node1</title>
<g id="a_node1"><a xlink:title="Builtin real (double) function.">
<polygon fill="#bfbfbf" stroke="black" points="745,-909.5 745,-928.5 846,-928.5 846,-909.5 745,-909.5"/>
<text text-anchor="middle" x="795.5" y="-916.5" font-family="Helvetica,sans-Serif" font-size="10.00">ubasic_double_fn</text>
</a>
</g>
</g>
<!-- Node2 -->
<g id="node2" class="node">
<title>Node2</title>
<g id="a_node2"><a xlink:href="structubasic__ctx.html" target="_top" xlink:title="BASIC program context Every instance of a BASIC program has one of these, also certain structures suc...">
<polygon fill="none" stroke="black" points="601,-651.5 601,-670.5 669,-670.5 669,-651.5 601,-651.5"/>
<text text-anchor="middle" x="635" y="-658.5" font-family="Helvetica,sans-Serif" font-size="10.00">ubasic_ctx</text>
</a>
</g>
</g>
<!-- Node2&#45;&gt;Node1 -->
<g id="edge1" class="edge">
<title>Node2&#45;&gt;Node1</title>
<path fill="none" stroke="#9a32cd" stroke-dasharray="5,2" d="M647.34,-679.47C678.62,-730.37 765.29,-871.46 788.64,-909.47"/>
<polygon fill="#9a32cd" stroke="#9a32cd" points="650.24,-677.49 642.02,-670.8 644.27,-681.15 650.24,-677.49"/>
<text text-anchor="middle" x="707" y="-808" font-family="Helvetica,sans-Serif" font-size="10.00"> handler</text>
</g>
<!-- Node3 -->
<g id="node3" class="node">
<title>Node3</title>
<g id="a_node3"><a xlink:title=" ">
<polygon fill="none" stroke="#bfbfbf" points="342.5,-1018.5 342.5,-1037.5 432.5,-1037.5 432.5,-1018.5 342.5,-1018.5"/>
<text text-anchor="middle" x="387.5" y="-1025.5" font-family="Helvetica,sans-Serif" font-size="10.00">ub_return_type</text>
</a>
</g>
</g>
<!-- Node3&#45;&gt;Node2 -->
<g id="edge2" class="edge">
<title>Node3&#45;&gt;Node2</title>
<path fill="none" stroke="#9a32cd" stroke-dasharray="5,2" d="M442.95,-1023.77C496.98,-1019.04 573.12,-1010.77 583,-1001 631.38,-953.15 634.04,-720.84 634.04,-670.6"/>
<polygon fill="#9a32cd" stroke="#9a32cd" points="442.47,-1020.29 432.8,-1024.63 443.07,-1027.27 442.47,-1020.29"/>
<text text-anchor="middle" x="524" y="-1024" font-family="Helvetica,sans-Serif" font-size="10.00"> fn_type</text>
</g>
<!-- Node4 -->
<g id="node4" class="node">
<title>Node4</title>
<g id="a_node4"><a xlink:href="structub__var__double__array.html" target="_top" xlink:title="An array of real (double)">
<polygon fill="none" stroke="black" points="328,-739.5 328,-758.5 447,-758.5 447,-739.5 328,-739.5"/>
<text text-anchor="middle" x="387.5" y="-746.5" font-family="Helvetica,sans-Serif" font-size="10.00">ub_var_double_array</text>
</a>
</g>
</g>
<!-- Node4&#45;&gt;Node2 -->
<g id="edge3" class="edge">
<title>Node4&#45;&gt;Node2</title>
<path fill="none" stroke="#9a32cd" stroke-dasharray="5,2" d="M439.06,-736.97C478.97,-726.69 535.63,-710.35 583,-690 595.73,-684.53 609.33,-676.69 619.28,-670.54"/>
<polygon fill="#9a32cd" stroke="#9a32cd" points="438.12,-733.6 429.29,-739.45 439.84,-740.38 438.12,-733.6"/>
<text text-anchor="middle" x="524" y="-731" font-family="Helvetica,sans-Serif" font-size="10.00"> double_array_variables</text>
</g>
<!-- Node4&#45;&gt;Node4 -->
<g id="edge4" class="edge">
<title>Node4&#45;&gt;Node4</title>
<path fill="none" stroke="#9a32cd" stroke-dasharray="5,2" d="M367.13,-768.4C368.49,-773.31 375.28,-777 387.5,-777 407.05,-777 412.7,-767.57 404.45,-758.76"/>
<polygon fill="#9a32cd" stroke="#9a32cd" points="370.51,-769.35 370.55,-758.76 363.91,-767.01 370.51,-769.35"/>
<text text-anchor="middle" x="387.5" y="-780" font-family="Helvetica,sans-Serif" font-size="10.00"> next</text>
</g>
<!-- Node5 -->
<g id="node5" class="node">
<title>Node5</title>
<g id="a_node5"><a xlink:title=" ">
<polygon fill="none" stroke="#bfbfbf" points="160.5,-854.5 160.5,-873.5 216.5,-873.5 216.5,-854.5 160.5,-854.5"/>
<text text-anchor="middle" x="188.5" y="-861.5" font-family="Helvetica,sans-Serif" font-size="10.00">uint64_t</text>
</a>
</g>
</g>
<!-- Node5&#45;&gt;Node2 -->
<g id="edge17" class="edge">
<title>Node5&#45;&gt;Node2</title>
<path fill="none" stroke="#9a32cd" stroke-dasharray="5,2" d="M218.86,-877.95C291.13,-910.01 479.27,-979.3 583,-886 615.98,-856.34 630.07,-709.56 633.27,-670.54"/>
<polygon fill="#9a32cd" stroke="#9a32cd" points="220.01,-874.63 209.45,-873.7 217.12,-881.01 220.01,-874.63"/>
<text text-anchor="middle" x="387.5" y="-957" font-family="Helvetica,sans-Serif" font-size="10.00"> for_stack_ptr</text>
<text text-anchor="middle" x="387.5" y="-946" font-family="Helvetica,sans-Serif" font-size="10.00">gosub_stack</text>
<text text-anchor="middle" x="387.5" y="-935" font-family="Helvetica,sans-Serif" font-size="10.00">gosub_stack_ptr</text>
</g>
<!-- Node5&#45;&gt;Node4 -->
<g id="edge5" class="edge">
<title>Node5&#45;&gt;Node4</title>
<path fill="none" stroke="#9a32cd" stroke-dasharray="5,2" d="M226.5,-851.16C231.69,-849.4 236.98,-847.64 242,-846 272.08,-836.2 284.81,-844.13 310,-825 321.78,-816.05 318.16,-808.05 328,-797 341.45,-781.89 359.89,-767.59 372.45,-758.59"/>
<polygon fill="#9a32cd" stroke="#9a32cd" points="225.03,-847.96 216.7,-854.5 227.29,-854.58 225.03,-847.96"/>
<text text-anchor="middle" x="276" y="-849" font-family="Helvetica,sans-Serif" font-size="10.00"> itemcount</text>
</g>
<!-- Node8 -->
<g id="node8" class="node">
<title>Node8</title>
<g id="a_node8"><a xlink:href="structub__var__string__array.html" target="_top" xlink:title="An array of strings.">
<polygon fill="none" stroke="black" points="331,-806.5 331,-825.5 444,-825.5 444,-806.5 331,-806.5"/>
<text text-anchor="middle" x="387.5" y="-813.5" font-family="Helvetica,sans-Serif" font-size="10.00">ub_var_string_array</text>
</a>
</g>
</g>
<!-- Node5&#45;&gt;Node8 -->
<g id="edge10" class="edge">
<title>Node5&#45;&gt;Node8</title>
<path fill="none" stroke="#9a32cd" stroke-dasharray="5,2" d="M227.05,-866.9C251.19,-867.68 282.98,-866.68 310,-859 334.33,-852.09 359.27,-836.06 373.8,-825.64"/>
<polygon fill="#9a32cd" stroke="#9a32cd" points="227.02,-863.39 216.87,-866.45 226.71,-870.39 227.02,-863.39"/>
<text text-anchor="middle" x="276" y="-870" font-family="Helvetica,sans-Serif" font-size="10.00"> itemcount</text>
</g>
<!-- Node19 -->
<g id="node19" class="node">
<title>Node19</title>
<g id="a_node19"><a xlink:href="structub__var__int__array.html" target="_top" xlink:title="An array of integers.">
<polygon fill="none" stroke="black" points="338.5,-672.5 338.5,-691.5 436.5,-691.5 436.5,-672.5 338.5,-672.5"/>
<text text-anchor="middle" x="387.5" y="-679.5" font-family="Helvetica,sans-Serif" font-size="10.00">ub_var_int_array</text>
</a>
</g>
</g>
<!-- Node5&#45;&gt;Node19 -->
<g id="edge33" class="edge">
<title>Node5&#45;&gt;Node19</title>
<path fill="none" stroke="#9a32cd" stroke-dasharray="5,2" d="M206.28,-847.22C216.55,-836.99 229.98,-823.68 242,-812 279.87,-775.19 288.45,-765 328,-730 343.55,-716.25 362.19,-701.18 374.18,-691.67"/>
<polygon fill="#9a32cd" stroke="#9a32cd" points="203.73,-844.82 199.12,-854.36 208.67,-849.78 203.73,-844.82"/>
<text text-anchor="middle" x="276" y="-815" font-family="Helvetica,sans-Serif" font-size="10.00"> itemcount</text>
</g>
<!-- Node6 -->
<g id="node6" class="node">
<title>Node6</title>
<g id="a_node6"><a xlink:title=" ">
<polygon fill="none" stroke="#bfbfbf" points="163.5,-598.5 163.5,-617.5 213.5,-617.5 213.5,-598.5 163.5,-598.5"/>
<text text-anchor="middle" x="188.5" y="-605.5" font-family="Helvetica,sans-Serif" font-size="10.00">double</text>
</a>
</g>
</g>
<!-- Node6&#45;&gt;Node4 -->
<g id="edge6" class="edge">
<title>Node6&#45;&gt;Node4</title>
<path fill="none" stroke="#9a32cd" stroke-dasharray="5,2" d="M220.92,-623.7C222.02,-624.74 223.05,-625.84 224,-627 241.06,-647.92 224.72,-664.27 242,-685 266.42,-714.3 306.92,-730.65 338.84,-739.47"/>
<polygon fill="#9a32cd" stroke="#9a32cd" points="222.97,-620.87 212.88,-617.64 218.76,-626.46 222.97,-620.87"/>
<text text-anchor="middle" x="276" y="-732" font-family="Helvetica,sans-Serif" font-size="10.00"> values</text>
</g>
<!-- Node16 -->
<g id="node16" class="node">
<title>Node16</title>
<g id="a_node16"><a xlink:href="structub__var__double.html" target="_top" xlink:title="A real (double) variable.">
<polygon fill="none" stroke="black" points="343.5,-491.5 343.5,-510.5 431.5,-510.5 431.5,-491.5 343.5,-491.5"/>
<text text-anchor="middle" x="387.5" y="-498.5" font-family="Helvetica,sans-Serif" font-size="10.00">ub_var_double</text>
</a>
</g>
</g>
<!-- Node6&#45;&gt;Node16 -->
<g id="edge26" class="edge">
<title>Node6&#45;&gt;Node16</title>
<path fill="none" stroke="#9a32cd" stroke-dasharray="5,2" d="M223.41,-603.19C254.07,-598.31 296.42,-590.04 310,-580 322.81,-570.53 317.68,-561.14 328,-549 340.94,-533.79 359.14,-519.72 371.79,-510.8"/>
<polygon fill="#9a32cd" stroke="#9a32cd" points="222.87,-599.74 213.52,-604.72 223.93,-606.65 222.87,-599.74"/>
<text text-anchor="middle" x="276" y="-602" font-family="Helvetica,sans-Serif" font-size="10.00"> value</text>
</g>
<!-- Node7 -->
<g id="node7" class="node">
<title>Node7</title>
<g id="a_node7"><a xlink:title=" ">
<polygon fill="none" stroke="#bfbfbf" points="6,-578.5 6,-597.5 44,-597.5 44,-578.5 6,-578.5"/>
<text text-anchor="middle" x="25" y="-585.5" font-family="Helvetica,sans-Serif" font-size="10.00">char</text>
</a>
</g>
</g>
<!-- Node7&#45;&gt;Node1 -->
<g id="edge55" class="edge">
<title>Node7&#45;&gt;Node1</title>
<path fill="none" stroke="#9a32cd" stroke-dasharray="5,2" d="M27.26,-607.82C34.16,-708.02 71.4,-1154 187.5,-1154 187.5,-1154 187.5,-1154 636,-1154 746.72,-1154 785.25,-972.47 792.96,-928.5"/>
<polygon fill="#9a32cd" stroke="#9a32cd" points="30.75,-607.57 26.6,-597.82 23.77,-608.03 30.75,-607.57"/>
<text text-anchor="middle" x="387.5" y="-1157" font-family="Helvetica,sans-Serif" font-size="10.00"> name</text>
</g>
<!-- Node7&#45;&gt;Node2 -->
<g id="edge18" class="edge">
<title>Node7&#45;&gt;Node2</title>
<path fill="none" stroke="#9a32cd" stroke-dasharray="5,2" d="M27.63,-607.98C32.13,-659.86 45.88,-797.53 68,-837 131.35,-950.05 200.06,-948.35 328,-969 441.77,-987.36 507.4,-1008.98 583,-922 616.85,-883.06 630.47,-713.18 633.38,-670.67"/>
<polygon fill="#9a32cd" stroke="#9a32cd" points="31.1,-607.43 26.77,-597.76 24.12,-608.02 31.1,-607.43"/>
<text text-anchor="middle" x="276" y="-1012" font-family="Helvetica,sans-Serif" font-size="10.00"> item_begin</text>
<text text-anchor="middle" x="276" y="-1001" font-family="Helvetica,sans-Serif" font-size="10.00">nextptr</text>
<text text-anchor="middle" x="276" y="-990" font-family="Helvetica,sans-Serif" font-size="10.00">program_ptr</text>
<text text-anchor="middle" x="276" y="-979" font-family="Helvetica,sans-Serif" font-size="10.00">ptr</text>
<text text-anchor="middle" x="276" y="-968" font-family="Helvetica,sans-Serif" font-size="10.00">string</text>
</g>
<!-- Node7&#45;&gt;Node4 -->
<g id="edge7" class="edge">
<title>Node7&#45;&gt;Node4</title>
<path fill="none" stroke="#9a32cd" stroke-dasharray="5,2" d="M31.23,-607.36C37.33,-626.91 49.07,-657 68,-677 97.53,-708.2 112.86,-707.71 153,-723 209.8,-744.63 279.58,-749.89 327.99,-750.51"/>
<polygon fill="#9a32cd" stroke="#9a32cd" points="34.58,-606.33 28.41,-597.72 27.86,-608.3 34.58,-606.33"/>
<text text-anchor="middle" x="188.5" y="-744" font-family="Helvetica,sans-Serif" font-size="10.00"> varname</text>
</g>
<!-- Node7&#45;&gt;Node8 -->
<g id="edge11" class="edge">
<title>Node7&#45;&gt;Node8</title>
<path fill="none" stroke="#9a32cd" stroke-dasharray="5,2" d="M27.26,-607.85C32,-663.57 54.02,-821.35 153,-883 159.26,-886.9 302.82,-885.02 310,-882 320.43,-877.61 319.62,-871.6 328,-864 343.38,-850.06 362.06,-835.04 374.11,-825.59"/>
<polygon fill="#9a32cd" stroke="#9a32cd" points="30.73,-607.29 26.49,-597.58 23.75,-607.81 30.73,-607.29"/>
<text text-anchor="middle" x="188.5" y="-899" font-family="Helvetica,sans-Serif" font-size="10.00"> values</text>
<text text-anchor="middle" x="188.5" y="-888" font-family="Helvetica,sans-Serif" font-size="10.00">varname</text>
</g>
<!-- Node9 -->
<g id="node9" class="node">
<title>Node9</title>
<g id="a_node9"><a xlink:href="structub__var__int.html" target="_top" xlink:title="An integer variable.">
<polygon fill="none" stroke="black" points="353.5,-365.5 353.5,-384.5 421.5,-384.5 421.5,-365.5 353.5,-365.5"/>
<text text-anchor="middle" x="387.5" y="-372.5" font-family="Helvetica,sans-Serif" font-size="10.00">ub_var_int</text>
</a>
</g>
</g>
<!-- Node7&#45;&gt;Node9 -->
<g id="edge14" class="edge">
<title>Node7&#45;&gt;Node9</title>
<path fill="none" stroke="#9a32cd" stroke-dasharray="5,2" d="M33.36,-568.85C55.19,-515.34 125.45,-365.26 242,-321 270.25,-310.27 284.01,-305.57 310,-321 324.37,-329.53 315.31,-343.13 328,-354 335.21,-360.18 344.38,-364.59 353.31,-367.72"/>
<polygon fill="#9a32cd" stroke="#9a32cd" points="29.98,-567.88 29.54,-578.47 36.48,-570.47 29.98,-567.88"/>
<text text-anchor="middle" x="188.5" y="-384" font-family="Helvetica,sans-Serif" font-size="10.00"> varname</text>
</g>
<!-- Node12 -->
<g id="node12" class="node">
<title>Node12</title>
<g id="a_node12"><a xlink:href="structconsole.html" target="_top" xlink:title=" ">
<polygon fill="none" stroke="black" points="161.5,-84.5 161.5,-103.5 215.5,-103.5 215.5,-84.5 161.5,-84.5"/>
<text text-anchor="middle" x="188.5" y="-91.5" font-family="Helvetica,sans-Serif" font-size="10.00">console</text>
</a>
</g>
</g>
<!-- Node7&#45;&gt;Node12 -->
<g id="edge20" class="edge">
<title>Node7&#45;&gt;Node12</title>
<path fill="none" stroke="#9a32cd" stroke-dasharray="5,2" d="M26.33,-568.27C27.94,-482.6 36.28,-145.73 68,-112 80.36,-98.86 130.06,-95.25 161.34,-94.3"/>
<polygon fill="#9a32cd" stroke="#9a32cd" points="22.83,-568.37 26.15,-578.43 29.83,-568.5 22.83,-568.37"/>
<text text-anchor="middle" x="101.5" y="-137" font-family="Helvetica,sans-Serif" font-size="10.00"> buffer</text>
<text text-anchor="middle" x="101.5" y="-126" font-family="Helvetica,sans-Serif" font-size="10.00">dirty</text>
<text text-anchor="middle" x="101.5" y="-115" font-family="Helvetica,sans-Serif" font-size="10.00">internalbuffer</text>
</g>
<!-- Node7&#45;&gt;Node16 -->
<g id="edge27" class="edge">
<title>Node7&#45;&gt;Node16</title>
<path fill="none" stroke="#9a32cd" stroke-dasharray="5,2" d="M37.69,-570.16C45.22,-559.96 55.85,-547.71 68,-540 135.92,-496.86 162.32,-501.22 242,-490 275.88,-485.23 314.55,-488.63 343.35,-492.87"/>
<polygon fill="#9a32cd" stroke="#9a32cd" points="34.77,-568.22 31.91,-578.42 40.51,-572.23 34.77,-568.22"/>
<text text-anchor="middle" x="188.5" y="-505" font-family="Helvetica,sans-Serif" font-size="10.00"> varname</text>
</g>
<!-- Node7&#45;&gt;Node19 -->
<g id="edge34" class="edge">
<title>Node7&#45;&gt;Node19</title>
<path fill="none" stroke="#9a32cd" stroke-dasharray="5,2" d="M38.11,-605.78C45.89,-616.45 56.64,-629.86 68,-640 101.39,-669.8 110.47,-680.06 153,-694 219.36,-715.74 240.64,-708.05 310,-700 324.37,-698.33 339.95,-694.96 353.28,-691.58"/>
<polygon fill="#9a32cd" stroke="#9a32cd" points="40.95,-603.75 32.32,-597.61 35.24,-607.79 40.95,-603.75"/>
<text text-anchor="middle" x="188.5" y="-711" font-family="Helvetica,sans-Serif" font-size="10.00"> varname</text>
</g>
<!-- Node20 -->
<g id="node20" class="node">
<title>Node20</title>
<g id="a_node20"><a xlink:href="structub__proc__fn__def.html" target="_top" xlink:title="Procedure or function definition Each has a name, a type, a starting line and a parameter list.">
<polygon fill="none" stroke="black" points="342,-558.5 342,-577.5 433,-577.5 433,-558.5 342,-558.5"/>
<text text-anchor="middle" x="387.5" y="-565.5" font-family="Helvetica,sans-Serif" font-size="10.00">ub_proc_fn_def</text>
</a>
</g>
</g>
<!-- Node7&#45;&gt;Node20 -->
<g id="edge40" class="edge">
<title>Node7&#45;&gt;Node20</title>
<path fill="none" stroke="#9a32cd" stroke-dasharray="5,2" d="M53.6,-574.23C78.78,-562.49 117.38,-546.51 153,-540 225.09,-526.83 310.89,-545.9 355.72,-558.47"/>
<polygon fill="#9a32cd" stroke="#9a32cd" points="51.85,-571.19 44.32,-578.65 54.86,-577.51 51.85,-571.19"/>
<text text-anchor="middle" x="188.5" y="-543" font-family="Helvetica,sans-Serif" font-size="10.00"> name</text>
</g>
<!-- Node22 -->
<g id="node22" class="node">
<title>Node22</title>
<g id="a_node22"><a xlink:href="structub__param.html" target="_top" xlink:title="FN/PROC parameter.">
<polygon fill="none" stroke="black" points="156,-636.5 156,-655.5 221,-655.5 221,-636.5 156,-636.5"/>
<text text-anchor="middle" x="188.5" y="-643.5" font-family="Helvetica,sans-Serif" font-size="10.00">ub_param</text>
</a>
</g>
</g>
<!-- Node7&#45;&gt;Node22 -->
<g id="edge44" class="edge">
<title>Node7&#45;&gt;Node22</title>
<path fill="none" stroke="#9a32cd" stroke-dasharray="5,2" d="M53.66,-597.93C83.65,-608.7 131.18,-625.78 160.8,-636.41"/>
<polygon fill="#9a32cd" stroke="#9a32cd" points="54.81,-594.63 44.21,-594.54 52.44,-601.21 54.81,-594.63"/>
<text text-anchor="middle" x="101.5" y="-628" font-family="Helvetica,sans-Serif" font-size="10.00"> name</text>
</g>
<!-- Node23 -->
<g id="node23" class="node">
<title>Node23</title>
<g id="a_node23"><a xlink:href="structub__var__string.html" target="_top" xlink:title="A string variable.">
<polygon fill="none" stroke="black" points="346,-158.5 346,-177.5 429,-177.5 429,-158.5 346,-158.5"/>
<text text-anchor="middle" x="387.5" y="-165.5" font-family="Helvetica,sans-Serif" font-size="10.00">ub_var_string</text>
</a>
</g>
</g>
<!-- Node7&#45;&gt;Node23 -->
<g id="edge47" class="edge">
<title>Node7&#45;&gt;Node23</title>
<path fill="none" stroke="#9a32cd" stroke-dasharray="5,2" d="M26.16,-568.24C27.04,-502.58 32.6,-292.7 68,-237 125.81,-146.04 273.95,-152.24 345.97,-161.38"/>
<polygon fill="#9a32cd" stroke="#9a32cd" points="22.66,-568.4 26.05,-578.44 29.66,-568.48 22.66,-568.4"/>
<text text-anchor="middle" x="188.5" y="-187" font-family="Helvetica,sans-Serif" font-size="10.00"> value</text>
<text text-anchor="middle" x="188.5" y="-176" font-family="Helvetica,sans-Serif" font-size="10.00">varname</text>
</g>
<!-- Node25 -->
<g id="node25" class="node">
<title>Node25</title>
<g id="a_node25"><a xlink:href="structfor__state.html" target="_top" xlink:title="State for a FOR...NEXT loop.">
<polygon fill="none" stroke="black" points="357.5,-325.5 357.5,-344.5 417.5,-344.5 417.5,-325.5 357.5,-325.5"/>
<text text-anchor="middle" x="387.5" y="-332.5" font-family="Helvetica,sans-Serif" font-size="10.00">for_state</text>
</a>
</g>
</g>
<!-- Node7&#45;&gt;Node25 -->
<g id="edge52" class="edge">
<title>Node7&#45;&gt;Node25</title>
<path fill="none" stroke="#9a32cd" stroke-dasharray="5,2" d="M25.38,-567.82C24.65,-503.32 32.4,-301.92 153,-227 213.34,-189.51 250.01,-218.94 310,-257 340.11,-276.1 367.25,-309.21 379.55,-325.46"/>
<polygon fill="#9a32cd" stroke="#9a32cd" points="21.89,-568.29 25.59,-578.22 28.89,-568.15 21.89,-568.29"/>
<text text-anchor="middle" x="188.5" y="-230" font-family="Helvetica,sans-Serif" font-size="10.00"> for_variable</text>
</g>
<!-- Node8&#45;&gt;Node2 -->
<g id="edge8" class="edge">
<title>Node8&#45;&gt;Node2</title>
<path fill="none" stroke="#9a32cd" stroke-dasharray="5,2" d="M450.35,-804.03C491.54,-793.54 544.91,-774.84 583,-743 607.31,-722.68 623.52,-687.67 630.34,-670.73"/>
<polygon fill="#9a32cd" stroke="#9a32cd" points="449.3,-800.69 440.42,-806.46 450.97,-807.49 449.3,-800.69"/>
<text text-anchor="middle" x="524" y="-801" font-family="Helvetica,sans-Serif" font-size="10.00"> string_array_variables</text>
</g>
<!-- Node8&#45;&gt;Node8 -->
<g id="edge9" class="edge">
<title>Node8&#45;&gt;Node8</title>
<path fill="none" stroke="#9a32cd" stroke-dasharray="5,2" d="M367.13,-835.4C368.49,-840.31 375.28,-844 387.5,-844 407.05,-844 412.7,-834.57 404.45,-825.76"/>
<polygon fill="#9a32cd" stroke="#9a32cd" points="370.51,-836.35 370.55,-825.76 363.91,-834.01 370.51,-836.35"/>
<text text-anchor="middle" x="387.5" y="-847" font-family="Helvetica,sans-Serif" font-size="10.00"> next</text>
</g>
<!-- Node9&#45;&gt;Node2 -->
<g id="edge12" class="edge">
<title>Node9&#45;&gt;Node2</title>
<path fill="none" stroke="#9a32cd" stroke-dasharray="5,2" d="M431.92,-371.26C476.08,-370 543.48,-375.54 583,-415 617.34,-449.28 630.51,-609.8 633.37,-651.23"/>
<polygon fill="#9a32cd" stroke="#9a32cd" points="431.62,-367.77 421.77,-371.68 431.91,-374.76 431.62,-367.77"/>
<text text-anchor="middle" x="524" y="-429" font-family="Helvetica,sans-Serif" font-size="10.00"> int_variables</text>
<text text-anchor="middle" x="524" y="-418" font-family="Helvetica,sans-Serif" font-size="10.00">local_int_variables</text>
</g>
<!-- Node9&#45;&gt;Node9 -->
<g id="edge13" class="edge">
<title>Node9&#45;&gt;Node9</title>
<path fill="none" stroke="#9a32cd" stroke-dasharray="5,2" d="M367.13,-394.4C368.49,-399.31 375.28,-403 387.5,-403 407.05,-403 412.7,-393.57 404.45,-384.76"/>
<polygon fill="#9a32cd" stroke="#9a32cd" points="370.51,-395.35 370.55,-384.76 363.91,-393.01 370.51,-395.35"/>
<text text-anchor="middle" x="387.5" y="-406" font-family="Helvetica,sans-Serif" font-size="10.00"> next</text>
</g>
<!-- Node10 -->
<g id="node10" class="node">
<title>Node10</title>
<g id="a_node10"><a xlink:title=" ">
<polygon fill="none" stroke="#bfbfbf" points="163.5,-420.5 163.5,-439.5 213.5,-439.5 213.5,-420.5 163.5,-420.5"/>
<text text-anchor="middle" x="188.5" y="-427.5" font-family="Helvetica,sans-Serif" font-size="10.00">int64_t</text>
</a>
</g>
</g>
<!-- Node10&#45;&gt;Node2 -->
<g id="edge23" class="edge">
<title>Node10&#45;&gt;Node2</title>
<path fill="none" stroke="#9a32cd" stroke-dasharray="5,2" d="M223.56,-434.65C229.7,-435.45 236.04,-436.27 242,-437 395.22,-455.81 473.52,-394.17 583,-503 625.73,-545.47 632.68,-623.9 633.79,-651.27"/>
<polygon fill="#9a32cd" stroke="#9a32cd" points="223.91,-431.16 213.53,-433.31 222.98,-438.1 223.91,-431.16"/>
<text text-anchor="middle" x="387.5" y="-455" font-family="Helvetica,sans-Serif" font-size="10.00"> current_linenum</text>
<text text-anchor="middle" x="387.5" y="-444" font-family="Helvetica,sans-Serif" font-size="10.00">eval_linenum</text>
</g>
<!-- Node10&#45;&gt;Node9 -->
<g id="edge15" class="edge">
<title>Node10&#45;&gt;Node9</title>
<path fill="none" stroke="#9a32cd" stroke-dasharray="5,2" d="M207.03,-413.8C216.65,-405.88 229.19,-397 242,-392 278.24,-377.87 323.17,-374.59 353.22,-374.21"/>
<polygon fill="#9a32cd" stroke="#9a32cd" points="204.68,-411.21 199.41,-420.4 209.26,-416.5 204.68,-411.21"/>
<text text-anchor="middle" x="276" y="-395" font-family="Helvetica,sans-Serif" font-size="10.00"> value</text>
</g>
<!-- Node10&#45;&gt;Node19 -->
<g id="edge35" class="edge">
<title>Node10&#45;&gt;Node19</title>
<path fill="none" stroke="#9a32cd" stroke-dasharray="5,2" d="M217.49,-445.95C220.02,-448.35 222.27,-451.04 224,-454 245.8,-491.41 213.58,-615.34 242,-648 265.52,-675.02 306.1,-682.72 338.28,-684.12"/>
<polygon fill="#9a32cd" stroke="#9a32cd" points="219.34,-442.96 209.31,-439.55 215.03,-448.47 219.34,-442.96"/>
<text text-anchor="middle" x="276" y="-683" font-family="Helvetica,sans-Serif" font-size="10.00"> values</text>
</g>
<!-- Node10&#45;&gt;Node20 -->
<g id="edge41" class="edge">
<title>Node10&#45;&gt;Node20</title>
<path fill="none" stroke="#9a32cd" stroke-dasharray="5,2" d="M212.07,-445.07C221.34,-451.25 232.18,-458.48 242,-465 272.19,-485.05 286.4,-482.5 310,-510 322.43,-524.49 313.73,-536.32 328,-549 332.39,-552.9 337.6,-556 343.06,-558.47"/>
<polygon fill="#9a32cd" stroke="#9a32cd" points="214.01,-442.16 203.75,-439.52 210.13,-447.98 214.01,-442.16"/>
<text text-anchor="middle" x="276" y="-513" font-family="Helvetica,sans-Serif" font-size="10.00"> line</text>
</g>
<!-- Node10&#45;&gt;Node25 -->
<g id="edge53" class="edge">
<title>Node10&#45;&gt;Node25</title>
<path fill="none" stroke="#9a32cd" stroke-dasharray="5,2" d="M194.83,-410.72C201.82,-389.51 216.33,-356.38 242,-341 277.22,-319.91 326.39,-323.31 357.33,-328.52"/>
<polygon fill="#9a32cd" stroke="#9a32cd" points="191.47,-409.72 191.91,-420.31 198.17,-411.76 191.47,-409.72"/>
<text text-anchor="middle" x="276" y="-366" font-family="Helvetica,sans-Serif" font-size="10.00"> line_after_for</text>
<text text-anchor="middle" x="276" y="-355" font-family="Helvetica,sans-Serif" font-size="10.00">step</text>
<text text-anchor="middle" x="276" y="-344" font-family="Helvetica,sans-Serif" font-size="10.00">to</text>
</g>
<!-- Node11 -->
<g id="node11" class="node">
<title>Node11</title>
<g id="a_node11"><a xlink:title=" ">
<polygon fill="none" stroke="#bfbfbf" points="169.5,-247.5 169.5,-266.5 207.5,-266.5 207.5,-247.5 169.5,-247.5"/>
<text text-anchor="middle" x="188.5" y="-254.5" font-family="Helvetica,sans-Serif" font-size="10.00">bool</text>
</a>
</g>
</g>
<!-- Node11&#45;&gt;Node2 -->
<g id="edge37" class="edge">
<title>Node11&#45;&gt;Node2</title>
<path fill="none" stroke="#9a32cd" stroke-dasharray="5,2" d="M217.73,-251.27C290.64,-238.3 486.3,-215.42 583,-320 629.33,-370.11 633.59,-601.45 633.97,-651.45"/>
<polygon fill="#9a32cd" stroke="#9a32cd" points="217.08,-247.83 207.89,-253.1 218.36,-254.71 217.08,-247.83"/>
<text text-anchor="middle" x="387.5" y="-264" font-family="Helvetica,sans-Serif" font-size="10.00"> ended</text>
<text text-anchor="middle" x="387.5" y="-253" font-family="Helvetica,sans-Serif" font-size="10.00">errored</text>
</g>
<!-- Node11&#45;&gt;Node9 -->
<g id="edge16" class="edge">
<title>Node11&#45;&gt;Node9</title>
<path fill="none" stroke="#9a32cd" stroke-dasharray="5,2" d="M218.22,-258.17C249.58,-260.06 297.06,-264.87 310,-277 335.65,-301.03 304.62,-327.76 328,-354 334.6,-361.41 344.02,-366.21 353.37,-369.31"/>
<polygon fill="#9a32cd" stroke="#9a32cd" points="218.06,-254.66 207.89,-257.62 217.69,-261.65 218.06,-254.66"/>
<text text-anchor="middle" x="276" y="-280" font-family="Helvetica,sans-Serif" font-size="10.00"> global</text>
</g>
<!-- Node11&#45;&gt;Node16 -->
<g id="edge29" class="edge">
<title>Node11&#45;&gt;Node16</title>
<path fill="none" stroke="#9a32cd" stroke-dasharray="5,2" d="M215.87,-271.73C219.01,-274.45 221.86,-277.54 224,-281 252.87,-327.59 213.29,-356.31 242,-403 261.38,-434.51 283.96,-424.72 310,-451 319.89,-460.98 317.05,-468.19 328,-477 335.53,-483.05 344.79,-487.78 353.71,-491.38"/>
<polygon fill="#9a32cd" stroke="#9a32cd" points="217.81,-268.82 207.68,-265.74 213.68,-274.47 217.81,-268.82"/>
<text text-anchor="middle" x="276" y="-454" font-family="Helvetica,sans-Serif" font-size="10.00"> global</text>
</g>
<!-- Node11&#45;&gt;Node23 -->
<g id="edge48" class="edge">
<title>Node11&#45;&gt;Node23</title>
<path fill="none" stroke="#9a32cd" stroke-dasharray="5,2" d="M212.2,-241.62C216.18,-238.81 220.24,-235.86 224,-233 232.28,-226.69 232.93,-223.12 242,-218 275.29,-199.21 316.85,-185.74 346.84,-177.55"/>
<polygon fill="#9a32cd" stroke="#9a32cd" points="210.01,-238.88 203.8,-247.46 214.01,-244.63 210.01,-238.88"/>
<text text-anchor="middle" x="276" y="-221" font-family="Helvetica,sans-Serif" font-size="10.00"> global</text>
</g>
<!-- Node12&#45;&gt;Node2 -->
<g id="edge19" class="edge">
<title>Node12&#45;&gt;Node2</title>
<path fill="none" stroke="#9a32cd" stroke-dasharray="5,2" d="M225.8,-97.58C318.53,-107.08 558.6,-133.96 583,-160 617.98,-197.32 631.62,-585 633.71,-651.36"/>
<polygon fill="#9a32cd" stroke="#9a32cd" points="226.06,-94.09 215.75,-96.56 225.35,-101.06 226.06,-94.09"/>
<text text-anchor="middle" x="387.5" y="-128" font-family="Helvetica,sans-Serif" font-size="10.00"> cons</text>
</g>
<!-- Node13 -->
<g id="node13" class="node">
<title>Node13</title>
<g id="a_node13"><a xlink:title=" ">
<polygon fill="none" stroke="#bfbfbf" points="2.5,-67.5 2.5,-86.5 47.5,-86.5 47.5,-67.5 2.5,-67.5"/>
<text text-anchor="middle" x="25" y="-74.5" font-family="Helvetica,sans-Serif" font-size="10.00">size_t</text>
</a>
</g>
</g>
<!-- Node13&#45;&gt;Node12 -->
<g id="edge21" class="edge">
<title>Node13&#45;&gt;Node12</title>
<path fill="none" stroke="#9a32cd" stroke-dasharray="5,2" d="M57.91,-74.9C79.74,-74.05 109.28,-74.05 135,-78 143.76,-79.35 153.08,-81.83 161.4,-84.44"/>
<polygon fill="#9a32cd" stroke="#9a32cd" points="57.69,-71.41 47.86,-75.38 58.02,-78.4 57.69,-71.41"/>
<text text-anchor="middle" x="101.5" y="-81" font-family="Helvetica,sans-Serif" font-size="10.00"> bufcnt</text>
</g>
<!-- Node14 -->
<g id="node14" class="node">
<title>Node14</title>
<g id="a_node14"><a xlink:title=" ">
<polygon fill="none" stroke="#bfbfbf" points="0,-0.5 0,-19.5 50,-19.5 50,-0.5 0,-0.5"/>
<text text-anchor="middle" x="25" y="-7.5" font-family="Helvetica,sans-Serif" font-size="10.00">uint8_t</text>
</a>
</g>
</g>
<!-- Node14&#45;&gt;Node12 -->
<g id="edge22" class="edge">
<title>Node14&#45;&gt;Node12</title>
<path fill="none" stroke="#9a32cd" stroke-dasharray="5,2" d="M60.39,-9.01C83,-9.83 112.47,-13.78 135,-27 158.45,-40.76 175.31,-69.35 182.94,-84.35"/>
<polygon fill="#9a32cd" stroke="#9a32cd" points="60.27,-5.51 50.22,-8.84 60.15,-12.51 60.27,-5.51"/>
<text text-anchor="middle" x="101.5" y="-63" font-family="Helvetica,sans-Serif" font-size="10.00"> attributes</text>
<text text-anchor="middle" x="101.5" y="-52" font-family="Helvetica,sans-Serif" font-size="10.00">last</text>
<text text-anchor="middle" x="101.5" y="-41" font-family="Helvetica,sans-Serif" font-size="10.00">x</text>
<text text-anchor="middle" x="101.5" y="-30" font-family="Helvetica,sans-Serif" font-size="10.00">y</text>
</g>
<!-- Node15 -->
<g id="node15" class="node">
<title>Node15</title>
<g id="a_node15"><a xlink:title=" ">
<polygon fill="none" stroke="#bfbfbf" points="362.5,-73.5 362.5,-92.5 412.5,-92.5 412.5,-73.5 362.5,-73.5"/>
<text text-anchor="middle" x="387.5" y="-80.5" font-family="Helvetica,sans-Serif" font-size="10.00">int32_t</text>
</a>
</g>
</g>
<!-- Node15&#45;&gt;Node2 -->
<g id="edge24" class="edge">
<title>Node15&#45;&gt;Node2</title>
<path fill="none" stroke="#9a32cd" stroke-dasharray="5,2" d="M422.44,-75.19C466.15,-67.34 541.43,-61.75 583,-104 623.01,-144.67 632.54,-580.04 633.83,-651.19"/>
<polygon fill="#9a32cd" stroke="#9a32cd" points="421.73,-71.76 412.57,-77.09 423.05,-78.63 421.73,-71.76"/>
<text text-anchor="middle" x="524" y="-107" font-family="Helvetica,sans-Serif" font-size="10.00"> graphics_colour</text>
</g>
<!-- Node16&#45;&gt;Node2 -->
<g id="edge25" class="edge">
<title>Node16&#45;&gt;Node2</title>
<path fill="none" stroke="#9a32cd" stroke-dasharray="5,2" d="M441.7,-503.23C484.26,-507.61 543.21,-519.79 583,-553 614.68,-579.44 627.93,-630.03 632.25,-651.25"/>
<polygon fill="#9a32cd" stroke="#9a32cd" points="441.8,-499.73 431.52,-502.3 441.16,-506.7 441.8,-499.73"/>
<text text-anchor="middle" x="524" y="-567" font-family="Helvetica,sans-Serif" font-size="10.00"> double_variables</text>
<text text-anchor="middle" x="524" y="-556" font-family="Helvetica,sans-Serif" font-size="10.00">local_double_variables</text>
</g>
<!-- Node16&#45;&gt;Node16 -->
<g id="edge28" class="edge">
<title>Node16&#45;&gt;Node16</title>
<path fill="none" stroke="#9a32cd" stroke-dasharray="5,2" d="M367.13,-520.4C368.49,-525.31 375.28,-529 387.5,-529 407.05,-529 412.7,-519.57 404.45,-510.76"/>
<polygon fill="#9a32cd" stroke="#9a32cd" points="370.51,-521.35 370.55,-510.76 363.91,-519.01 370.51,-521.35"/>
<text text-anchor="middle" x="387.5" y="-532" font-family="Helvetica,sans-Serif" font-size="10.00"> next</text>
</g>
<!-- Node17 -->
<g id="node17" class="node">
<title>Node17</title>
<g id="a_node17"><a xlink:title=" ">
<polygon fill="none" stroke="#bfbfbf" points="337,-1098.5 337,-1117.5 438,-1117.5 438,-1098.5 337,-1098.5"/>
<text text-anchor="middle" x="387.5" y="-1105.5" font-family="Helvetica,sans-Serif" font-size="10.00">struct hashmap *</text>
</a>
</g>
</g>
<!-- Node17&#45;&gt;Node2 -->
<g id="edge30" class="edge">
<title>Node17&#45;&gt;Node2</title>
<path fill="none" stroke="#9a32cd" stroke-dasharray="5,2" d="M437.88,-1119.24C481.99,-1126.09 545.3,-1127.56 583,-1091 614.3,-1060.65 630.76,-732.15 633.56,-670.83"/>
<polygon fill="#9a32cd" stroke="#9a32cd" points="438.39,-1115.77 427.94,-1117.55 437.22,-1122.67 438.39,-1115.77"/>
<text text-anchor="middle" x="524" y="-1126" font-family="Helvetica,sans-Serif" font-size="10.00"> lines</text>
</g>
<!-- Node18 -->
<g id="node18" class="node">
<title>Node18</title>
<g id="a_node18"><a xlink:title=" ">
<polygon fill="none" stroke="#bfbfbf" points="373,-1056.5 373,-1075.5 402,-1075.5 402,-1056.5 373,-1056.5"/>
<text text-anchor="middle" x="387.5" y="-1063.5" font-family="Helvetica,sans-Serif" font-size="10.00">int</text>
</a>
</g>
</g>
<!-- Node18&#45;&gt;Node2 -->
<g id="edge31" class="edge">
<title>Node18&#45;&gt;Node2</title>
<path fill="none" stroke="#9a32cd" stroke-dasharray="5,2" d="M412.32,-1062.97C462.93,-1056.43 577.06,-1041.08 583,-1035 635.46,-981.35 634.87,-724.41 634.17,-670.81"/>
<polygon fill="#9a32cd" stroke="#9a32cd" points="411.75,-1059.51 402.27,-1064.26 412.64,-1066.46 411.75,-1059.51"/>
<text text-anchor="middle" x="524" y="-1080" font-family="Helvetica,sans-Serif" font-size="10.00"> bracket_depth</text>
<text text-anchor="middle" x="524" y="-1069" font-family="Helvetica,sans-Serif" font-size="10.00">current_token</text>
<text text-anchor="middle" x="524" y="-1058" font-family="Helvetica,sans-Serif" font-size="10.00">oldlen</text>
</g>
<!-- Node19&#45;&gt;Node2 -->
<g id="edge32" class="edge">
<title>Node19&#45;&gt;Node2</title>
<path fill="none" stroke="#9a32cd" stroke-dasharray="5,2" d="M446.68,-677.02C494.78,-672.91 561.37,-667.21 600.83,-663.84"/>
<polygon fill="#9a32cd" stroke="#9a32cd" points="446.38,-673.54 436.71,-677.88 446.97,-680.51 446.38,-673.54"/>
<text text-anchor="middle" x="524" y="-678" font-family="Helvetica,sans-Serif" font-size="10.00"> int_array_variables</text>
</g>
<!-- Node19&#45;&gt;Node19 -->
<g id="edge36" class="edge">
<title>Node19&#45;&gt;Node19</title>
<path fill="none" stroke="#9a32cd" stroke-dasharray="5,2" d="M367.13,-701.4C368.49,-706.31 375.28,-710 387.5,-710 407.05,-710 412.7,-700.57 404.45,-691.76"/>
<polygon fill="#9a32cd" stroke="#9a32cd" points="370.51,-702.35 370.55,-691.76 363.91,-700.01 370.51,-702.35"/>
<text text-anchor="middle" x="387.5" y="-713" font-family="Helvetica,sans-Serif" font-size="10.00"> next</text>
</g>
<!-- Node20&#45;&gt;Node2 -->
<g id="edge38" class="edge">
<title>Node20&#45;&gt;Node2</title>
<path fill="none" stroke="#9a32cd" stroke-dasharray="5,2" d="M442.92,-575.29C483.28,-582.25 538.72,-595.17 583,-618 599.68,-626.6 615.67,-641.53 625.17,-651.34"/>
<polygon fill="#9a32cd" stroke="#9a32cd" points="443.44,-571.82 433.01,-573.64 442.3,-578.73 443.44,-571.82"/>
<text text-anchor="middle" x="524" y="-621" font-family="Helvetica,sans-Serif" font-size="10.00"> defs</text>
</g>
<!-- Node20&#45;&gt;Node20 -->
<g id="edge42" class="edge">
<title>Node20&#45;&gt;Node20</title>
<path fill="none" stroke="#9a32cd" stroke-dasharray="5,2" d="M367.13,-587.4C368.49,-592.31 375.28,-596 387.5,-596 407.05,-596 412.7,-586.57 404.45,-577.76"/>
<polygon fill="#9a32cd" stroke="#9a32cd" points="370.51,-588.35 370.55,-577.76 363.91,-586.01 370.51,-588.35"/>
<text text-anchor="middle" x="387.5" y="-599" font-family="Helvetica,sans-Serif" font-size="10.00"> next</text>
</g>
<!-- Node21 -->
<g id="node21" class="node">
<title>Node21</title>
<g id="a_node21"><a xlink:title=" ">
<polygon fill="none" stroke="#bfbfbf" points="153,-560.5 153,-579.5 224,-579.5 224,-560.5 153,-560.5"/>
<text text-anchor="middle" x="188.5" y="-567.5" font-family="Helvetica,sans-Serif" font-size="10.00">ub_fn_type</text>
</a>
</g>
</g>
<!-- Node21&#45;&gt;Node20 -->
<g id="edge39" class="edge">
<title>Node21&#45;&gt;Node20</title>
<path fill="none" stroke="#9a32cd" stroke-dasharray="5,2" d="M234.3,-569.11C236.91,-569.07 239.49,-569.03 242,-569 275.49,-568.57 313.35,-568.31 341.91,-568.17"/>
<polygon fill="#9a32cd" stroke="#9a32cd" points="234.17,-565.61 224.23,-569.28 234.29,-572.61 234.17,-565.61"/>
<text text-anchor="middle" x="276" y="-572" font-family="Helvetica,sans-Serif" font-size="10.00"> type</text>
</g>
<!-- Node22&#45;&gt;Node2 -->
<g id="edge54" class="edge">
<title>Node22&#45;&gt;Node2</title>
<path fill="none" stroke="#9a32cd" stroke-dasharray="5,2" d="M207.25,-662.18C216.81,-669.79 229.23,-678.04 242,-682 270.87,-690.95 283.7,-696.89 310,-682 323.53,-674.34 314.47,-659.66 328,-652 373.73,-626.11 531.4,-645.59 600.78,-655.79"/>
<polygon fill="#9a32cd" stroke="#9a32cd" points="209.26,-659.29 199.36,-655.52 204.74,-664.64 209.26,-659.29"/>
<text text-anchor="middle" x="387.5" y="-655" font-family="Helvetica,sans-Serif" font-size="10.00"> param</text>
</g>
<!-- Node22&#45;&gt;Node20 -->
<g id="edge43" class="edge">
<title>Node22&#45;&gt;Node20</title>
<path fill="none" stroke="#9a32cd" stroke-dasharray="5,2" d="M231.07,-638C254.75,-632.7 284.65,-624.73 310,-614 333.55,-604.03 358.52,-587.8 373.3,-577.53"/>
<polygon fill="#9a32cd" stroke="#9a32cd" points="230.04,-634.64 221.01,-640.18 231.52,-641.48 230.04,-634.64"/>
<text text-anchor="middle" x="276" y="-638" font-family="Helvetica,sans-Serif" font-size="10.00"> params</text>
</g>
<!-- Node22&#45;&gt;Node22 -->
<g id="edge45" class="edge">
<title>Node22&#45;&gt;Node22</title>
<path fill="none" stroke="#9a32cd" stroke-dasharray="5,2" d="M172.57,-665.4C173.64,-670.31 178.95,-674 188.5,-674 203.79,-674 208.2,-664.57 201.76,-655.76"/>
<polygon fill="#9a32cd" stroke="#9a32cd" points="175.95,-666.33 175.24,-655.76 169.2,-664.46 175.95,-666.33"/>
<text text-anchor="middle" x="188.5" y="-677" font-family="Helvetica,sans-Serif" font-size="10.00"> next</text>
</g>
<!-- Node23&#45;&gt;Node2 -->
<g id="edge46" class="edge">
<title>Node23&#45;&gt;Node2</title>
<path fill="none" stroke="#9a32cd" stroke-dasharray="5,2" d="M439.45,-163.03C484.04,-161.74 547.14,-167.92 583,-207 614.23,-241.04 630.86,-589.2 633.6,-651.49"/>
<polygon fill="#9a32cd" stroke="#9a32cd" points="439.23,-159.53 429.38,-163.45 439.52,-166.53 439.23,-159.53"/>
<text text-anchor="middle" x="524" y="-221" font-family="Helvetica,sans-Serif" font-size="10.00"> local_string_variables</text>
<text text-anchor="middle" x="524" y="-210" font-family="Helvetica,sans-Serif" font-size="10.00">str_variables</text>
</g>
<!-- Node23&#45;&gt;Node23 -->
<g id="edge49" class="edge">
<title>Node23&#45;&gt;Node23</title>
<path fill="none" stroke="#9a32cd" stroke-dasharray="5,2" d="M367.13,-187.4C368.49,-192.31 375.28,-196 387.5,-196 407.05,-196 412.7,-186.57 404.45,-177.76"/>
<polygon fill="#9a32cd" stroke="#9a32cd" points="370.51,-188.35 370.55,-177.76 363.91,-186.01 370.51,-188.35"/>
<text text-anchor="middle" x="387.5" y="-199" font-family="Helvetica,sans-Serif" font-size="10.00"> next</text>
</g>
<!-- Node24 -->
<g id="node24" class="node">
<title>Node24</title>
<g id="a_node24"><a xlink:title=" ">
<polygon fill="none" stroke="#bfbfbf" points="364.5,-873.5 364.5,-892.5 410.5,-892.5 410.5,-873.5 364.5,-873.5"/>
<text text-anchor="middle" x="387.5" y="-880.5" font-family="Helvetica,sans-Serif" font-size="10.00">void *</text>
</a>
</g>
</g>
<!-- Node24&#45;&gt;Node2 -->
<g id="edge50" class="edge">
<title>Node24&#45;&gt;Node2</title>
<path fill="none" stroke="#9a32cd" stroke-dasharray="5,2" d="M420.7,-880.08C463.58,-874.5 539.11,-858.46 583,-813 623.22,-771.35 631.75,-697.04 633.53,-670.63"/>
<polygon fill="#9a32cd" stroke="#9a32cd" points="420.06,-876.64 410.54,-881.29 420.88,-883.59 420.06,-876.64"/>
<text text-anchor="middle" x="524" y="-874" font-family="Helvetica,sans-Serif" font-size="10.00"> fn_return</text>
</g>
<!-- Node25&#45;&gt;Node2 -->
<g id="edge51" class="edge">
<title>Node25&#45;&gt;Node2</title>
<path fill="none" stroke="#9a32cd" stroke-dasharray="5,2" d="M427.66,-326.98C471.5,-320.5 541.78,-317.94 583,-357 626.99,-398.69 633.06,-604.58 633.88,-651.48"/>
<polygon fill="#9a32cd" stroke="#9a32cd" points="426.97,-323.55 417.66,-328.6 428.09,-330.46 426.97,-323.55"/>
<text text-anchor="middle" x="524" y="-360" font-family="Helvetica,sans-Serif" font-size="10.00"> for_stack</text>
</g>
</g>
</svg>
        <g id="navigator" transform="translate(0 0)" fill="#404254">
                <rect fill="#f2f5e9" fill-opacity="0.5" stroke="#606060" stroke-width=".5" x="0" y="0" width="60" height="60"/>
                <use id="zoomplus" xlink:href="#zoomPlus" x="17" y="9" onmousedown="handleZoom(evt,'in')"/>
                <use id="zoomminus" xlink:href="#zoomMin" x="42" y="9" onmousedown="handleZoom(evt,'out')"/>
                <use id="reset" xlink:href="#resetDef" x="30" y="36" onmousedown="handleReset()"/>
                <g id="arrowUp" xlink:href="#dirArrow" transform="translate(30 24)" onmousedown="handlePan(0,-1)">
                  <use xlink:href="#rim" fill="#404040">
                        <set attributeName="fill" to="#808080" begin="arrowUp.mouseover" end="arrowUp.mouseout"/>
                  </use>
                  <path fill="none" stroke="white" stroke-width="1.5" d="M0,-3.0v7 M-2.5,-0.5L0,-3.0L2.5,-0.5"/>
                </g>
                <g id="arrowRight" xlink:href="#dirArrow" transform="rotate(90) translate(36 -43)" onmousedown="handlePan(1,0)">
                  <use xlink:href="#rim" fill="#404040">
                        <set attributeName="fill" to="#808080" begin="arrowRight.mouseover" end="arrowRight.mouseout"/>
                  </use>
                  <path fill="none" stroke="white" stroke-width="1.5" d="M0,-3.0v7 M-2.5,-0.5L0,-3.0L2.5,-0.5"/>
                </g>
                <g id="arrowDown" xlink:href="#dirArrow" transform="rotate(180) translate(-30 -48)" onmousedown="handlePan(0,1)">
                  <use xlink:href="#rim" fill="#404040">
                        <set attributeName="fill" to="#808080" begin="arrowDown.mouseover" end="arrowDown.mouseout"/>
                  </use>
                  <path fill="none" stroke="white" stroke-width="1.5" d="M0,-3.0v7 M-2.5,-0.5L0,-3.0L2.5,-0.5"/>
                </g>
                <g id="arrowLeft" xlink:href="#dirArrow" transform="rotate(270) translate(-36 17)" onmousedown="handlePan(-1,0)">
                  <use xlink:href="#rim" fill="#404040">
                        <set attributeName="fill" to="#808080" begin="arrowLeft.mouseover" end="arrowLeft.mouseout"/>
                  </use>
                  <path fill="none" stroke="white" stroke-width="1.5" d="M0,-3.0v7 M-2.5,-0.5L0,-3.0L2.5,-0.5"/>
                </g>
        </g>
        <svg viewBox="0 0 15 15" width="100%" height="30px" preserveAspectRatio="xMaxYMin meet">
         <g id="arrow_out" transform="scale(0.3 0.3)">
          <a xlink:href="structubasic__double__fn__coll__graph_org.svg" target="_base">
           <rect id="button" ry="5" rx="5" y="6" x="6" height="38" width="38"
                fill="#f2f5e9" fill-opacity="0.5" stroke="#606060" stroke-width="1.0"/>
           <path id="arrow"
             d="M 11.500037,31.436501 C 11.940474,20.09759 22.043105,11.32322 32.158766,21.979434 L 37.068811,17.246167 C 37.068811,17.246167 37.088388,32 37.088388,32 L 22.160133,31.978069 C 22.160133,31.978069 26.997745,27.140456 26.997745,27.140456 C 18.528582,18.264221 13.291696,25.230495 11.500037,31.436501 z"
             style="fill:#404040;"/>
          </a>
         </g>
        </svg>
</svg>
