<?xml version="1.0" encoding="UTF-8" standalone="no"?>
<!DOCTYPE svg PUBLIC "-//W3C//DTD SVG 1.1//EN"
 "http://www.w3.org/Graphics/SVG/1.1/DTD/svg11.dtd">
<!-- Generated by graphviz version 2.43.0 (0)
 -->
<!-- Title: ip_packet_frag_t Pages: 1 -->
<svg width="300pt" height="106pt"
 viewBox="0.00 0.00 299.50 106.00" xmlns="http://www.w3.org/2000/svg" xmlns:xlink="http://www.w3.org/1999/xlink">
<g id="graph0" class="graph" transform="scale(1 1) rotate(0) translate(4 102)">
<title>ip_packet_frag_t</title>
<!-- Node1 -->
<g id="node1" class="node">
<title>Node1</title>
<g id="a_node1"><a xlink:title=" ">
<polygon fill="#bfbfbf" stroke="black" points="69.5,-0.5 69.5,-19.5 166.5,-19.5 166.5,-0.5 69.5,-0.5"/>
<text text-anchor="middle" x="118" y="-7.5" font-family="Helvetica,sans-Serif" font-size="10.00">ip_packet_frag_t</text>
</a>
</g>
</g>
<!-- Node2 -->
<g id="node2" class="node">
<title>Node2</title>
<g id="a_node2"><a xlink:title=" ">
<polygon fill="none" stroke="#bfbfbf" points="0,-78.5 0,-97.5 72,-97.5 72,-78.5 0,-78.5"/>
<text text-anchor="middle" x="36" y="-85.5" font-family="Helvetica,sans-Serif" font-size="10.00">ip_packet_t</text>
</a>
</g>
</g>
<!-- Node2&#45;&gt;Node1 -->
<g id="edge1" class="edge">
<title>Node2&#45;&gt;Node1</title>
<path fill="none" stroke="#9a32cd" stroke-dasharray="5,2" d="M48.34,-70.46C56.22,-60.46 67,-47.8 78,-38 85.76,-31.09 95.38,-24.54 103.25,-19.62"/>
<polygon fill="#9a32cd" stroke="#9a32cd" points="45.54,-68.35 42.22,-78.42 51.09,-72.62 45.54,-68.35"/>
<text text-anchor="middle" x="96" y="-46.5" font-family="Helvetica,sans-Serif" font-size="10.00"> packet</text>
</g>
<!-- Node3 -->
<g id="node3" class="node">
<title>Node3</title>
<g id="a_node3"><a xlink:title=" ">
<polygon fill="none" stroke="#bfbfbf" points="90,-78.5 90,-97.5 146,-97.5 146,-78.5 90,-78.5"/>
<text text-anchor="middle" x="118" y="-85.5" font-family="Helvetica,sans-Serif" font-size="10.00">uint32_t</text>
</a>
</g>
</g>
<!-- Node3&#45;&gt;Node1 -->
<g id="edge2" class="edge">
<title>Node3&#45;&gt;Node1</title>
<path fill="none" stroke="#9a32cd" stroke-dasharray="5,2" d="M118,-68.22C118,-52.7 118,-31.36 118,-19.62"/>
<polygon fill="#9a32cd" stroke="#9a32cd" points="114.5,-68.28 118,-78.28 121.5,-68.28 114.5,-68.28"/>
<text text-anchor="middle" x="133.5" y="-46.5" font-family="Helvetica,sans-Serif" font-size="10.00"> offset</text>
</g>
<!-- Node4 -->
<g id="node4" class="node">
<title>Node4</title>
<g id="a_node4"><a xlink:title=" ">
<polygon fill="none" stroke="#bfbfbf" points="164.5,-78.5 164.5,-97.5 291.5,-97.5 291.5,-78.5 164.5,-78.5"/>
<text text-anchor="middle" x="228" y="-85.5" font-family="Helvetica,sans-Serif" font-size="10.00">struct ip_packet_frag *</text>
</a>
</g>
</g>
<!-- Node4&#45;&gt;Node1 -->
<g id="edge3" class="edge">
<title>Node4&#45;&gt;Node1</title>
<path fill="none" stroke="#9a32cd" stroke-dasharray="5,2" d="M207.11,-72.57C184.48,-56.93 149.12,-32.5 130.47,-19.62"/>
<polygon fill="#9a32cd" stroke="#9a32cd" points="205.16,-75.48 215.38,-78.28 209.14,-69.72 205.16,-75.48"/>
<text text-anchor="middle" x="198.5" y="-52" font-family="Helvetica,sans-Serif" font-size="10.00"> next</text>
<text text-anchor="middle" x="198.5" y="-41" font-family="Helvetica,sans-Serif" font-size="10.00">prev</text>
</g>
</g>
</svg>
