<?xml version="1.0" encoding="UTF-8" standalone="no"?>
<!DOCTYPE svg PUBLIC "-//W3C//DTD SVG 1.1//EN"
 "http://www.w3.org/Graphics/SVG/1.1/DTD/svg11.dtd">
<!-- Generated by graphviz version 2.43.0 (0)
 -->
<!-- Title: e1000_rx_desc Pages: 1 -->
<svg width="212pt" height="117pt"
 viewBox="0.00 0.00 212.00 117.00" xmlns="http://www.w3.org/2000/svg" xmlns:xlink="http://www.w3.org/1999/xlink">
<g id="graph0" class="graph" transform="scale(1 1) rotate(0) translate(4 113)">
<title>e1000_rx_desc</title>
<!-- Node1 -->
<g id="node1" class="node">
<title>Node1</title>
<g id="a_node1"><a xlink:title=" ">
<polygon fill="#bfbfbf" stroke="black" points="57.5,-0.5 57.5,-19.5 146.5,-19.5 146.5,-0.5 57.5,-0.5"/>
<text text-anchor="middle" x="102" y="-7.5" font-family="Helvetica,sans-Serif" font-size="10.00">e1000_rx_desc</text>
</a>
</g>
</g>
<!-- Node2 -->
<g id="node2" class="node">
<title>Node2</title>
<g id="a_node2"><a xlink:title=" ">
<polygon fill="none" stroke="black" points="0,-89.5 0,-108.5 56,-108.5 56,-89.5 0,-89.5"/>
<text text-anchor="middle" x="28" y="-96.5" font-family="Helvetica,sans-Serif" font-size="10.00">uint64_t</text>
</a>
</g>
</g>
<!-- Node2&#45;&gt;Node1 -->
<g id="edge1" class="edge">
<title>Node2&#45;&gt;Node1</title>
<path fill="none" stroke="#9a32cd" stroke-dasharray="5,2" d="M39.5,-81.04C48.17,-68.67 60.65,-51.73 73,-38 78.89,-31.45 86.14,-24.7 91.92,-19.59"/>
<polygon fill="#9a32cd" stroke="#9a32cd" points="36.47,-79.27 33.67,-89.48 42.23,-83.24 36.47,-79.27"/>
<text text-anchor="middle" x="85.5" y="-52" font-family="Helvetica,sans-Serif" font-size="10.00"> addr</text>
</g>
<!-- Node3 -->
<g id="node3" class="node">
<title>Node3</title>
<g id="a_node3"><a xlink:title=" ">
<polygon fill="none" stroke="black" points="74,-89.5 74,-108.5 130,-108.5 130,-89.5 74,-89.5"/>
<text text-anchor="middle" x="102" y="-96.5" font-family="Helvetica,sans-Serif" font-size="10.00">uint16_t</text>
</a>
</g>
</g>
<!-- Node3&#45;&gt;Node1 -->
<g id="edge2" class="edge">
<title>Node3&#45;&gt;Node1</title>
<path fill="none" stroke="#9a32cd" stroke-dasharray="5,2" d="M102,-79.19C102,-60.74 102,-33.41 102,-19.62"/>
<polygon fill="#9a32cd" stroke="#9a32cd" points="98.5,-79.34 102,-89.34 105.5,-79.34 98.5,-79.34"/>
<text text-anchor="middle" x="128.5" y="-63" font-family="Helvetica,sans-Serif" font-size="10.00"> checksum</text>
<text text-anchor="middle" x="128.5" y="-52" font-family="Helvetica,sans-Serif" font-size="10.00">length</text>
<text text-anchor="middle" x="128.5" y="-41" font-family="Helvetica,sans-Serif" font-size="10.00">special</text>
</g>
<!-- Node4 -->
<g id="node4" class="node">
<title>Node4</title>
<g id="a_node4"><a xlink:title=" ">
<polygon fill="none" stroke="black" points="153,-89.5 153,-108.5 203,-108.5 203,-89.5 153,-89.5"/>
<text text-anchor="middle" x="178" y="-96.5" font-family="Helvetica,sans-Serif" font-size="10.00">uint8_t</text>
</a>
</g>
</g>
<!-- Node4&#45;&gt;Node1 -->
<g id="edge3" class="edge">
<title>Node4&#45;&gt;Node1</title>
<path fill="none" stroke="#9a32cd" stroke-dasharray="5,2" d="M174.87,-79.12C171.9,-66.25 166.29,-49.52 156,-38 148.67,-29.79 138.26,-23.78 128.54,-19.53"/>
<polygon fill="#9a32cd" stroke="#9a32cd" points="171.49,-80.08 176.85,-89.21 178.36,-78.73 171.49,-80.08"/>
<text text-anchor="middle" x="188" y="-57.5" font-family="Helvetica,sans-Serif" font-size="10.00"> errors</text>
<text text-anchor="middle" x="188" y="-46.5" font-family="Helvetica,sans-Serif" font-size="10.00">status</text>
</g>
</g>
</svg>
