<?xml version="1.0" encoding="UTF-8" standalone="no"?>
<!DOCTYPE svg PUBLIC "-//W3C//DTD SVG 1.1//EN"
 "http://www.w3.org/Graphics/SVG/1.1/DTD/svg11.dtd">
<!-- Generated by graphviz version 2.43.0 (0)
 -->
<!-- Title: ub_line_ref Pages: 1 -->
<svg width="142pt" height="95pt"
 viewBox="0.00 0.00 142.00 95.00" xmlns="http://www.w3.org/2000/svg" xmlns:xlink="http://www.w3.org/1999/xlink">
<g id="graph0" class="graph" transform="scale(1 1) rotate(0) translate(4 91)">
<title>ub_line_ref</title>
<!-- Node1 -->
<g id="node1" class="node">
<title>Node1</title>
<g id="a_node1"><a xlink:title="Line reference in program. Each program has a hashmap of these so it can find a line number in O(1) t...">
<polygon fill="#bfbfbf" stroke="black" points="35.5,-0.5 35.5,-19.5 106.5,-19.5 106.5,-0.5 35.5,-0.5"/>
<text text-anchor="middle" x="71" y="-7.5" font-family="Helvetica,sans-Serif" font-size="10.00">ub_line_ref</text>
</a>
</g>
</g>
<!-- Node2 -->
<g id="node2" class="node">
<title>Node2</title>
<g id="a_node2"><a xlink:title=" ">
<polygon fill="none" stroke="black" points="0,-67.5 0,-86.5 56,-86.5 56,-67.5 0,-67.5"/>
<text text-anchor="middle" x="28" y="-74.5" font-family="Helvetica,sans-Serif" font-size="10.00">uint32_t</text>
</a>
</g>
</g>
<!-- Node2&#45;&gt;Node1 -->
<g id="edge1" class="edge">
<title>Node2&#45;&gt;Node1</title>
<path fill="none" stroke="#9a32cd" stroke-dasharray="5,2" d="M25.05,-57.26C24.9,-50.8 25.76,-43.75 29,-38 33.51,-29.99 41.48,-23.99 49.28,-19.7"/>
<polygon fill="#9a32cd" stroke="#9a32cd" points="21.57,-57.63 26.03,-67.24 28.54,-56.95 21.57,-57.63"/>
<text text-anchor="middle" x="61" y="-41" font-family="Helvetica,sans-Serif" font-size="10.00"> line_number</text>
</g>
<!-- Node3 -->
<g id="node3" class="node">
<title>Node3</title>
<g id="a_node3"><a xlink:title=" ">
<polygon fill="none" stroke="black" points="96,-67.5 96,-86.5 134,-86.5 134,-67.5 96,-67.5"/>
<text text-anchor="middle" x="115" y="-74.5" font-family="Helvetica,sans-Serif" font-size="10.00">char</text>
</a>
</g>
</g>
<!-- Node3&#45;&gt;Node1 -->
<g id="edge2" class="edge">
<title>Node3&#45;&gt;Node1</title>
<path fill="none" stroke="#9a32cd" stroke-dasharray="5,2" d="M105.65,-58.52C101.93,-51.94 97.48,-44.49 93,-38 88.6,-31.63 83.1,-24.88 78.7,-19.72"/>
<polygon fill="#9a32cd" stroke="#9a32cd" points="102.6,-60.23 110.48,-67.31 108.73,-56.86 102.6,-60.23"/>
<text text-anchor="middle" x="107.5" y="-41" font-family="Helvetica,sans-Serif" font-size="10.00"> ptr</text>
</g>
</g>
</svg>
