<?xml version="1.0" encoding="UTF-8" standalone="no"?>
<!DOCTYPE svg PUBLIC "-//W3C//DTD SVG 1.1//EN"
 "http://www.w3.org/Graphics/SVG/1.1/DTD/svg11.dtd">
<!-- Generated by graphviz version 2.43.0 (0)
 -->
<!-- Title: footer Pages: 1 -->
<svg width="172pt" height="175pt"
 viewBox="0.00 0.00 172.00 175.00" xmlns="http://www.w3.org/2000/svg" xmlns:xlink="http://www.w3.org/1999/xlink">
<g id="graph0" class="graph" transform="scale(1 1) rotate(0) translate(4 171)">
<title>footer</title>
<!-- Node1 -->
<g id="node1" class="node">
<title>Node1</title>
<g id="a_node1"><a xlink:title=" ">
<polygon fill="#bfbfbf" stroke="black" points="12,-0.5 12,-19.5 58,-19.5 58,-0.5 12,-0.5"/>
<text text-anchor="middle" x="35" y="-7.5" font-family="Helvetica,sans-Serif" font-size="10.00">footer</text>
</a>
</g>
</g>
<!-- Node2 -->
<g id="node2" class="node">
<title>Node2</title>
<g id="a_node2"><a xlink:title=" ">
<polygon fill="none" stroke="#bfbfbf" points="0,-147.5 0,-166.5 56,-166.5 56,-147.5 0,-147.5"/>
<text text-anchor="middle" x="28" y="-154.5" font-family="Helvetica,sans-Serif" font-size="10.00">uint64_t</text>
</a>
</g>
</g>
<!-- Node2&#45;&gt;Node1 -->
<g id="edge1" class="edge">
<title>Node2&#45;&gt;Node1</title>
<path fill="none" stroke="#9a32cd" stroke-dasharray="5,2" d="M27.33,-137.37C26.84,-119.35 26.49,-91.28 28,-67 29.05,-50.18 31.85,-30.68 33.57,-19.7"/>
<polygon fill="#9a32cd" stroke="#9a32cd" points="23.83,-137.51 27.65,-147.4 30.83,-137.29 23.83,-137.51"/>
<text text-anchor="middle" x="45" y="-75.5" font-family="Helvetica,sans-Serif" font-size="10.00"> magic</text>
</g>
<!-- Node3 -->
<g id="node3" class="node">
<title>Node3</title>
<g id="a_node3"><a xlink:href="structheader.html" target="_top" xlink:title=" ">
<polygon fill="none" stroke="black" points="71,-68.5 71,-87.5 121,-87.5 121,-68.5 71,-68.5"/>
<text text-anchor="middle" x="96" y="-75.5" font-family="Helvetica,sans-Serif" font-size="10.00">header</text>
</a>
</g>
</g>
<!-- Node2&#45;&gt;Node3 -->
<g id="edge3" class="edge">
<title>Node2&#45;&gt;Node3</title>
<path fill="none" stroke="#9a32cd" stroke-dasharray="5,2" d="M38.56,-138.35C44.79,-128.62 53.16,-116.6 62,-107 68.63,-99.8 77.13,-92.8 83.97,-87.6"/>
<polygon fill="#9a32cd" stroke="#9a32cd" points="35.4,-136.8 33.11,-147.15 41.35,-140.49 35.4,-136.8"/>
<text text-anchor="middle" x="79" y="-121" font-family="Helvetica,sans-Serif" font-size="10.00"> magic</text>
<text text-anchor="middle" x="79" y="-110" font-family="Helvetica,sans-Serif" font-size="10.00">size</text>
</g>
<!-- Node3&#45;&gt;Node1 -->
<g id="edge2" class="edge">
<title>Node3&#45;&gt;Node1</title>
<path fill="none" stroke="#9a32cd" stroke-dasharray="5,2" d="M80.92,-60.68C68.99,-47.78 52.8,-30.26 43.17,-19.84"/>
<polygon fill="#9a32cd" stroke="#9a32cd" points="78.67,-63.4 88.03,-68.37 83.81,-58.65 78.67,-63.4"/>
<text text-anchor="middle" x="87.5" y="-41" font-family="Helvetica,sans-Serif" font-size="10.00"> header</text>
</g>
<!-- Node3&#45;&gt;Node3 -->
<g id="edge5" class="edge">
<title>Node3&#45;&gt;Node3</title>
<path fill="none" stroke="#9a32cd" stroke-dasharray="5,2" d="M131.45,-83.58C136,-82.61 139,-80.75 139,-78 139,-73.48 130.91,-71.37 121.18,-71.65"/>
<polygon fill="#9a32cd" stroke="#9a32cd" points="130.89,-80.11 121.18,-84.35 131.41,-87.1 130.89,-80.11"/>
<text text-anchor="middle" x="151.5" y="-81" font-family="Helvetica,sans-Serif" font-size="10.00"> next</text>
<text text-anchor="middle" x="151.5" y="-70" font-family="Helvetica,sans-Serif" font-size="10.00">prev</text>
</g>
<!-- Node4 -->
<g id="node4" class="node">
<title>Node4</title>
<g id="a_node4"><a xlink:title=" ">
<polygon fill="none" stroke="#bfbfbf" points="84,-147.5 84,-166.5 134,-166.5 134,-147.5 84,-147.5"/>
<text text-anchor="middle" x="109" y="-154.5" font-family="Helvetica,sans-Serif" font-size="10.00">uint8_t</text>
</a>
</g>
</g>
<!-- Node4&#45;&gt;Node3 -->
<g id="edge4" class="edge">
<title>Node4&#45;&gt;Node3</title>
<path fill="none" stroke="#9a32cd" stroke-dasharray="5,2" d="M105.85,-137.31C103.19,-121.59 99.51,-99.81 97.49,-87.81"/>
<polygon fill="#9a32cd" stroke="#9a32cd" points="102.44,-138.19 107.56,-147.47 109.35,-137.02 102.44,-138.19"/>
<text text-anchor="middle" x="115.5" y="-115.5" font-family="Helvetica,sans-Serif" font-size="10.00"> free</text>
</g>
</g>
</svg>
