<?xml version="1.0" encoding="UTF-8" standalone="no"?>
<!DOCTYPE svg PUBLIC "-//W3C//DTD SVG 1.1//EN"
 "http://www.w3.org/Graphics/SVG/1.1/DTD/svg11.dtd">
<!-- Generated by graphviz version 2.43.0 (0)
 -->
<!-- Title: ahci_hba_cmd_header_t Pages: 1 -->
<svg width="396pt" height="183pt"
 viewBox="0.00 0.00 396.00 183.00" xmlns="http://www.w3.org/2000/svg" xmlns:xlink="http://www.w3.org/1999/xlink">
<g id="graph0" class="graph" transform="scale(1 1) rotate(0) translate(4 179)">
<title>ahci_hba_cmd_header_t</title>
<!-- Node1 -->
<g id="node1" class="node">
<title>Node1</title>
<g id="a_node1"><a xlink:title="Command Header (one per command slot).">
<polygon fill="#bfbfbf" stroke="black" points="82,-0.5 82,-19.5 216,-19.5 216,-0.5 82,-0.5"/>
<text text-anchor="middle" x="149" y="-7.5" font-family="Helvetica,sans-Serif" font-size="10.00">ahci_hba_cmd_header_t</text>
</a>
</g>
</g>
<!-- Node2 -->
<g id="node2" class="node">
<title>Node2</title>
<g id="a_node2"><a xlink:title=" ">
<polygon fill="none" stroke="#bfbfbf" points="0,-155.5 0,-174.5 56,-174.5 56,-155.5 0,-155.5"/>
<text text-anchor="middle" x="28" y="-162.5" font-family="Helvetica,sans-Serif" font-size="10.00">uint16_t</text>
</a>
</g>
</g>
<!-- Node2&#45;&gt;Node1 -->
<g id="edge1" class="edge">
<title>Node2&#45;&gt;Node1</title>
<path fill="none" stroke="#9a32cd" stroke-dasharray="5,2" d="M25.01,-145.23C21.83,-118.04 20.38,-67.69 47,-38 56.17,-27.77 68.72,-21.22 81.89,-17.06"/>
<polygon fill="#9a32cd" stroke="#9a32cd" points="21.58,-145.91 26.41,-155.34 28.51,-144.96 21.58,-145.91"/>
<text text-anchor="middle" x="96" y="-85" font-family="Helvetica,sans-Serif" font-size="10.00"> prdt_length_entries</text>
</g>
<!-- Node3 -->
<g id="node3" class="node">
<title>Node3</title>
<g id="a_node3"><a xlink:title=" ">
<polygon fill="none" stroke="#bfbfbf" points="121,-155.5 121,-174.5 177,-174.5 177,-155.5 121,-155.5"/>
<text text-anchor="middle" x="149" y="-162.5" font-family="Helvetica,sans-Serif" font-size="10.00">uint32_t</text>
</a>
</g>
</g>
<!-- Node3&#45;&gt;Node1 -->
<g id="edge2" class="edge">
<title>Node3&#45;&gt;Node1</title>
<path fill="none" stroke="#9a32cd" stroke-dasharray="5,2" d="M149,-145.11C149,-111.72 149,-43.54 149,-19.57"/>
<polygon fill="#9a32cd" stroke="#9a32cd" points="145.5,-145.34 149,-155.34 152.5,-145.34 145.5,-145.34"/>
<text text-anchor="start" x="149" y="-112.5" font-family="Helvetica,sans-Serif" font-size="10.00"> command_table_base</text>
<text text-anchor="middle" x="204.5" y="-101.5" font-family="Helvetica,sans-Serif" font-size="10.00">_lower</text>
<text text-anchor="start" x="149" y="-90.5" font-family="Helvetica,sans-Serif" font-size="10.00">command_table_base</text>
<text text-anchor="middle" x="204.5" y="-79.5" font-family="Helvetica,sans-Serif" font-size="10.00">_upper</text>
<text text-anchor="middle" x="204.5" y="-68.5" font-family="Helvetica,sans-Serif" font-size="10.00">prdbc</text>
<text text-anchor="middle" x="204.5" y="-57.5" font-family="Helvetica,sans-Serif" font-size="10.00">rsv1</text>
</g>
<!-- Node4 -->
<g id="node4" class="node">
<title>Node4</title>
<g id="a_node4"><a xlink:title=" ">
<polygon fill="none" stroke="#bfbfbf" points="258,-155.5 258,-174.5 308,-174.5 308,-155.5 258,-155.5"/>
<text text-anchor="middle" x="283" y="-162.5" font-family="Helvetica,sans-Serif" font-size="10.00">uint8_t</text>
</a>
</g>
</g>
<!-- Node4&#45;&gt;Node1 -->
<g id="edge3" class="edge">
<title>Node4&#45;&gt;Node1</title>
<path fill="none" stroke="#9a32cd" stroke-dasharray="5,2" d="M285.55,-145.1C288.11,-117.74 288.39,-67.19 261,-38 253.47,-29.98 231.74,-23.86 209.39,-19.5"/>
<polygon fill="#9a32cd" stroke="#9a32cd" points="282.05,-144.94 284.39,-155.28 289,-145.74 282.05,-144.94"/>
<text text-anchor="middle" x="337" y="-129" font-family="Helvetica,sans-Serif" font-size="10.00"> atapi</text>
<text text-anchor="middle" x="337" y="-118" font-family="Helvetica,sans-Serif" font-size="10.00">built_in_self_test</text>
<text text-anchor="middle" x="337" y="-107" font-family="Helvetica,sans-Serif" font-size="10.00">clear_busy_on_ok</text>
<text text-anchor="middle" x="337" y="-96" font-family="Helvetica,sans-Serif" font-size="10.00">command_fis_length</text>
<text text-anchor="middle" x="337" y="-85" font-family="Helvetica,sans-Serif" font-size="10.00">port_multiplier_port</text>
<text text-anchor="middle" x="337" y="-74" font-family="Helvetica,sans-Serif" font-size="10.00">prefetchable</text>
<text text-anchor="middle" x="337" y="-63" font-family="Helvetica,sans-Serif" font-size="10.00">reset</text>
<text text-anchor="middle" x="337" y="-52" font-family="Helvetica,sans-Serif" font-size="10.00">rsv0</text>
<text text-anchor="middle" x="337" y="-41" font-family="Helvetica,sans-Serif" font-size="10.00">write</text>
</g>
</g>
</svg>
