<?xml version="1.0" encoding="UTF-8" standalone="no"?>
<!DOCTYPE svg PUBLIC "-//W3C//DTD SVG 1.1//EN"
 "http://www.w3.org/Graphics/SVG/1.1/DTD/svg11.dtd">
<!-- Generated by graphviz version 2.43.0 (0)
 -->
<!-- Title: ub_proc_fn_def Pages: 1 -->
<svg width="326pt" height="162pt"
 viewBox="0.00 0.00 326.00 162.00" xmlns="http://www.w3.org/2000/svg" xmlns:xlink="http://www.w3.org/1999/xlink">
<g id="graph0" class="graph" transform="scale(1 1) rotate(0) translate(4 158)">
<title>ub_proc_fn_def</title>
<!-- Node1 -->
<g id="node1" class="node">
<title>Node1</title>
<g id="a_node1"><a xlink:title="Procedure or function definition Each has a name, a type, a starting line and a parameter list.">
<polygon fill="#bfbfbf" stroke="black" points="135.5,-0.5 135.5,-19.5 226.5,-19.5 226.5,-0.5 135.5,-0.5"/>
<text text-anchor="middle" x="181" y="-7.5" font-family="Helvetica,sans-Serif" font-size="10.00">ub_proc_fn_def</text>
</a>
</g>
</g>
<!-- Node1&#45;&gt;Node1 -->
<g id="edge7" class="edge">
<title>Node1&#45;&gt;Node1</title>
<path fill="none" stroke="#9a32cd" stroke-dasharray="5,2" d="M236.83,-14.66C241.56,-13.66 244.5,-12.11 244.5,-10 244.5,-6.62 236.97,-4.67 226.66,-4.15"/>
<polygon fill="#9a32cd" stroke="#9a32cd" points="236.19,-11.21 226.66,-15.85 237,-18.16 236.19,-11.21"/>
<text text-anchor="middle" x="257" y="-7.5" font-family="Helvetica,sans-Serif" font-size="10.00"> next</text>
</g>
<!-- Node2 -->
<g id="node2" class="node">
<title>Node2</title>
<g id="a_node2"><a xlink:title=" ">
<polygon fill="none" stroke="black" points="0,-134.5 0,-153.5 38,-153.5 38,-134.5 0,-134.5"/>
<text text-anchor="middle" x="19" y="-141.5" font-family="Helvetica,sans-Serif" font-size="10.00">char</text>
</a>
</g>
</g>
<!-- Node2&#45;&gt;Node1 -->
<g id="edge1" class="edge">
<title>Node2&#45;&gt;Node1</title>
<path fill="none" stroke="#9a32cd" stroke-dasharray="5,2" d="M10.89,-124.37C5.03,-107.75 0.04,-83.57 12,-67 39.87,-28.41 95.36,-15.98 135.16,-12.21"/>
<polygon fill="#9a32cd" stroke="#9a32cd" points="7.77,-126.01 14.69,-134.04 14.29,-123.45 7.77,-126.01"/>
<text text-anchor="middle" x="27.5" y="-74.5" font-family="Helvetica,sans-Serif" font-size="10.00"> name</text>
</g>
<!-- Node5 -->
<g id="node5" class="node">
<title>Node5</title>
<g id="a_node5"><a xlink:href="structub__param.html" target="_top" xlink:title="FN/PROC parameter.">
<polygon fill="none" stroke="black" points="52.5,-67.5 52.5,-86.5 117.5,-86.5 117.5,-67.5 52.5,-67.5"/>
<text text-anchor="middle" x="85" y="-74.5" font-family="Helvetica,sans-Serif" font-size="10.00">ub_param</text>
</a>
</g>
</g>
<!-- Node2&#45;&gt;Node5 -->
<g id="edge5" class="edge">
<title>Node2&#45;&gt;Node5</title>
<path fill="none" stroke="#9a32cd" stroke-dasharray="5,2" d="M35.25,-127C48.19,-114.25 65.81,-96.89 76.24,-86.63"/>
<polygon fill="#9a32cd" stroke="#9a32cd" points="32.57,-124.72 27.9,-134.23 37.48,-129.71 32.57,-124.72"/>
<text text-anchor="middle" x="71.5" y="-108" font-family="Helvetica,sans-Serif" font-size="10.00"> name</text>
</g>
<!-- Node3 -->
<g id="node3" class="node">
<title>Node3</title>
<g id="a_node3"><a xlink:title=" ">
<polygon fill="none" stroke="black" points="178.5,-67.5 178.5,-86.5 249.5,-86.5 249.5,-67.5 178.5,-67.5"/>
<text text-anchor="middle" x="214" y="-74.5" font-family="Helvetica,sans-Serif" font-size="10.00">ub_fn_type</text>
</a>
</g>
</g>
<!-- Node3&#45;&gt;Node1 -->
<g id="edge2" class="edge">
<title>Node3&#45;&gt;Node1</title>
<path fill="none" stroke="#9a32cd" stroke-dasharray="5,2" d="M204.94,-58.16C198.58,-45.63 190.35,-29.41 185.38,-19.63"/>
<polygon fill="#9a32cd" stroke="#9a32cd" points="201.9,-59.9 209.55,-67.23 208.14,-56.73 201.9,-59.9"/>
<text text-anchor="middle" x="211.5" y="-41" font-family="Helvetica,sans-Serif" font-size="10.00"> type</text>
</g>
<!-- Node4 -->
<g id="node4" class="node">
<title>Node4</title>
<g id="a_node4"><a xlink:title=" ">
<polygon fill="none" stroke="black" points="268,-67.5 268,-86.5 318,-86.5 318,-67.5 268,-67.5"/>
<text text-anchor="middle" x="293" y="-74.5" font-family="Helvetica,sans-Serif" font-size="10.00">int64_t</text>
</a>
</g>
</g>
<!-- Node4&#45;&gt;Node1 -->
<g id="edge3" class="edge">
<title>Node4&#45;&gt;Node1</title>
<path fill="none" stroke="#9a32cd" stroke-dasharray="5,2" d="M269.53,-62.22C257.19,-54.99 241.79,-45.99 228,-38 217.42,-31.87 205.46,-25 196.26,-19.73"/>
<polygon fill="#9a32cd" stroke="#9a32cd" points="267.91,-65.33 278.3,-67.37 271.45,-59.29 267.91,-65.33"/>
<text text-anchor="middle" x="256" y="-41" font-family="Helvetica,sans-Serif" font-size="10.00"> line</text>
</g>
<!-- Node5&#45;&gt;Node1 -->
<g id="edge4" class="edge">
<title>Node5&#45;&gt;Node1</title>
<path fill="none" stroke="#9a32cd" stroke-dasharray="5,2" d="M106.28,-61.59C125.27,-48.74 152.45,-30.33 168.26,-19.63"/>
<polygon fill="#9a32cd" stroke="#9a32cd" points="104.27,-58.73 97.95,-67.23 108.19,-64.53 104.27,-58.73"/>
<text text-anchor="middle" x="159" y="-41" font-family="Helvetica,sans-Serif" font-size="10.00"> params</text>
</g>
<!-- Node5&#45;&gt;Node5 -->
<g id="edge6" class="edge">
<title>Node5&#45;&gt;Node5</title>
<path fill="none" stroke="#9a32cd" stroke-dasharray="5,2" d="M127.64,-82.07C132.41,-81.11 135.5,-79.42 135.5,-77 135.5,-73.12 127.6,-71.13 117.54,-71.01"/>
<polygon fill="#9a32cd" stroke="#9a32cd" points="127.18,-78.59 117.54,-82.99 127.82,-85.56 127.18,-78.59"/>
<text text-anchor="middle" x="148" y="-74.5" font-family="Helvetica,sans-Serif" font-size="10.00"> next</text>
</g>
</g>
</svg>
