<?xml version="1.0" encoding="UTF-8" standalone="no"?>
<!DOCTYPE svg PUBLIC "-//W3C//DTD SVG 1.1//EN"
 "http://www.w3.org/Graphics/SVG/1.1/DTD/svg11.dtd">
<!-- Generated by graphviz version 2.43.0 (0)
 -->
<!-- Title: shared_interrupt_t Pages: 1 -->
<svg width="242pt" height="239pt"
 viewBox="0.00 0.00 242.00 239.00" xmlns="http://www.w3.org/2000/svg" xmlns:xlink="http://www.w3.org/1999/xlink">
<g id="graph0" class="graph" transform="scale(1 1) rotate(0) translate(4 235)">
<title>shared_interrupt_t</title>
<!-- Node1 -->
<g id="node1" class="node">
<title>Node1</title>
<g id="a_node1"><a xlink:title="Represents a single handler in a chain of handlers attached to a shared ISR.">
<polygon fill="#bfbfbf" stroke="black" points="83,-0.5 83,-19.5 189,-19.5 189,-0.5 83,-0.5"/>
<text text-anchor="middle" x="136" y="-7.5" font-family="Helvetica,sans-Serif" font-size="10.00">shared_interrupt_t</text>
</a>
</g>
</g>
<!-- Node1&#45;&gt;Node1 -->
<g id="edge1" class="edge">
<title>Node1&#45;&gt;Node1</title>
<path fill="none" stroke="#9a32cd" stroke-dasharray="5,2" d="M199.43,-14.46C204.12,-13.46 207,-11.97 207,-10 207,-6.84 199.63,-4.93 189.26,-4.27"/>
<polygon fill="#9a32cd" stroke="#9a32cd" points="198.74,-11.02 189.26,-15.73 199.61,-17.96 198.74,-11.02"/>
<text text-anchor="middle" x="219.5" y="-7.5" font-family="Helvetica,sans-Serif" font-size="10.00"> next</text>
</g>
<!-- Node2 -->
<g id="node2" class="node">
<title>Node2</title>
<g id="a_node2"><a xlink:title=" ">
<polygon fill="none" stroke="#bfbfbf" points="0,-67.5 0,-86.5 50,-86.5 50,-67.5 0,-67.5"/>
<text text-anchor="middle" x="25" y="-74.5" font-family="Helvetica,sans-Serif" font-size="10.00">uint8_t</text>
</a>
</g>
</g>
<!-- Node2&#45;&gt;Node1 -->
<g id="edge2" class="edge">
<title>Node2&#45;&gt;Node1</title>
<path fill="none" stroke="#9a32cd" stroke-dasharray="5,2" d="M28.73,-57.14C30.96,-50.28 34.47,-42.99 40,-38 51.82,-27.32 67.54,-20.84 82.84,-16.9"/>
<polygon fill="#9a32cd" stroke="#9a32cd" points="25.25,-56.63 26.19,-67.19 32.04,-58.35 25.25,-56.63"/>
<text text-anchor="middle" x="84" y="-41" font-family="Helvetica,sans-Serif" font-size="10.00"> interrupt_handler</text>
</g>
<!-- Node3 -->
<g id="node3" class="node">
<title>Node3</title>
<g id="a_node3"><a xlink:href="unionpci__dev__t.html" target="_top" xlink:title=" ">
<polygon fill="none" stroke="black" points="97.5,-67.5 97.5,-86.5 160.5,-86.5 160.5,-67.5 97.5,-67.5"/>
<text text-anchor="middle" x="129" y="-74.5" font-family="Helvetica,sans-Serif" font-size="10.00">pci_dev_t</text>
</a>
</g>
</g>
<!-- Node3&#45;&gt;Node1 -->
<g id="edge3" class="edge">
<title>Node3&#45;&gt;Node1</title>
<path fill="none" stroke="#9a32cd" stroke-dasharray="5,2" d="M131.04,-57.04C132.37,-44.67 134.05,-29.12 135.07,-19.63"/>
<polygon fill="#9a32cd" stroke="#9a32cd" points="127.53,-56.92 129.94,-67.23 134.49,-57.67 127.53,-56.92"/>
<text text-anchor="middle" x="150" y="-41" font-family="Helvetica,sans-Serif" font-size="10.00"> device</text>
</g>
<!-- Node4 -->
<g id="node4" class="node">
<title>Node4</title>
<g id="a_node4"><a xlink:title=" ">
<polygon fill="none" stroke="#bfbfbf" points="32,-211.5 32,-230.5 130,-230.5 130,-211.5 32,-211.5"/>
<text text-anchor="middle" x="81" y="-218.5" font-family="Helvetica,sans-Serif" font-size="10.00">anonymous:@11</text>
</a>
</g>
</g>
<!-- Node4&#45;&gt;Node3 -->
<g id="edge4" class="edge">
<title>Node4&#45;&gt;Node3</title>
<path fill="none" stroke="#9a32cd" stroke-dasharray="5,2" d="M82.91,-201.21C85.84,-177.74 92.8,-136.8 108,-105 111.18,-98.36 116.2,-91.81 120.54,-86.83"/>
<polygon fill="#9a32cd" stroke="#9a32cd" points="79.42,-200.88 81.77,-211.21 86.38,-201.67 79.42,-200.88"/>
<text text-anchor="middle" x="120.5" y="-146.5" font-family="Helvetica,sans-Serif" font-size="10.00"> @11</text>
</g>
<!-- Node5 -->
<g id="node5" class="node">
<title>Node5</title>
<g id="a_node5"><a xlink:title=" ">
<polygon fill="none" stroke="#bfbfbf" points="148,-211.5 148,-230.5 204,-230.5 204,-211.5 148,-211.5"/>
<text text-anchor="middle" x="176" y="-218.5" font-family="Helvetica,sans-Serif" font-size="10.00">uint32_t</text>
</a>
</g>
</g>
<!-- Node5&#45;&gt;Node3 -->
<g id="edge5" class="edge">
<title>Node5&#45;&gt;Node3</title>
<path fill="none" stroke="#9a32cd" stroke-dasharray="5,2" d="M169.88,-201.52C159.6,-170.47 139.27,-109.02 131.82,-86.52"/>
<polygon fill="#9a32cd" stroke="#9a32cd" points="166.59,-202.72 173.06,-211.12 173.24,-200.52 166.59,-202.72"/>
<text text-anchor="middle" x="200.5" y="-185" font-family="Helvetica,sans-Serif" font-size="10.00"> always_zero</text>
<text text-anchor="middle" x="200.5" y="-174" font-family="Helvetica,sans-Serif" font-size="10.00">bits</text>
<text text-anchor="middle" x="200.5" y="-163" font-family="Helvetica,sans-Serif" font-size="10.00">bus_num</text>
<text text-anchor="middle" x="200.5" y="-152" font-family="Helvetica,sans-Serif" font-size="10.00">device_num</text>
<text text-anchor="middle" x="200.5" y="-141" font-family="Helvetica,sans-Serif" font-size="10.00">enable</text>
<text text-anchor="middle" x="200.5" y="-130" font-family="Helvetica,sans-Serif" font-size="10.00">field_num</text>
<text text-anchor="middle" x="200.5" y="-119" font-family="Helvetica,sans-Serif" font-size="10.00">function_num</text>
<text text-anchor="middle" x="200.5" y="-108" font-family="Helvetica,sans-Serif" font-size="10.00">reserved</text>
</g>
<!-- Node6 -->
<g id="node6" class="node">
<title>Node6</title>
<g id="a_node6"><a xlink:title=" ">
<polygon fill="none" stroke="#bfbfbf" points="179,-67.5 179,-86.5 225,-86.5 225,-67.5 179,-67.5"/>
<text text-anchor="middle" x="202" y="-74.5" font-family="Helvetica,sans-Serif" font-size="10.00">void *</text>
</a>
</g>
</g>
<!-- Node6&#45;&gt;Node1 -->
<g id="edge6" class="edge">
<title>Node6&#45;&gt;Node1</title>
<path fill="none" stroke="#9a32cd" stroke-dasharray="5,2" d="M189.92,-58.8C184.76,-51.98 178.45,-44.29 172,-38 165.07,-31.24 156.4,-24.69 149.31,-19.74"/>
<polygon fill="#9a32cd" stroke="#9a32cd" points="187.42,-61.31 196.14,-67.33 193.08,-57.18 187.42,-61.31"/>
<text text-anchor="middle" x="201" y="-41" font-family="Helvetica,sans-Serif" font-size="10.00"> opaque</text>
</g>
</g>
</svg>
