<?xml version="1.0" encoding="UTF-8" standalone="no"?>
<!DOCTYPE svg PUBLIC "-//W3C//DTD SVG 1.1//EN"
 "http://www.w3.org/Graphics/SVG/1.1/DTD/svg11.dtd">
<!-- Generated by graphviz version 2.43.0 (0)
 -->
<!-- Title: ahci_fis_reg_h2d_t Pages: 1 -->
<svg width="115pt" height="205pt"
 viewBox="0.00 0.00 115.00 205.00" xmlns="http://www.w3.org/2000/svg" xmlns:xlink="http://www.w3.org/1999/xlink">
<g id="graph0" class="graph" transform="scale(1 1) rotate(0) translate(4 201)">
<title>ahci_fis_reg_h2d_t</title>
<!-- Node1 -->
<g id="node1" class="node">
<title>Node1</title>
<g id="a_node1"><a xlink:title=" ">
<polygon fill="#bfbfbf" stroke="black" points="0,-0.5 0,-19.5 107,-19.5 107,-0.5 0,-0.5"/>
<text text-anchor="middle" x="53.5" y="-7.5" font-family="Helvetica,sans-Serif" font-size="10.00">ahci_fis_reg_h2d_t</text>
</a>
</g>
</g>
<!-- Node2 -->
<g id="node2" class="node">
<title>Node2</title>
<g id="a_node2"><a xlink:title=" ">
<polygon fill="none" stroke="black" points="28.5,-177.5 28.5,-196.5 78.5,-196.5 78.5,-177.5 28.5,-177.5"/>
<text text-anchor="middle" x="53.5" y="-184.5" font-family="Helvetica,sans-Serif" font-size="10.00">uint8_t</text>
</a>
</g>
</g>
<!-- Node2&#45;&gt;Node1 -->
<g id="edge1" class="edge">
<title>Node2&#45;&gt;Node1</title>
<path fill="none" stroke="#9a32cd" stroke-dasharray="5,2" d="M53.5,-166.95C53.5,-129.3 53.5,-46.65 53.5,-19.69"/>
<polygon fill="#9a32cd" stroke="#9a32cd" points="50,-167.08 53.5,-177.08 57,-167.08 50,-167.08"/>
<text text-anchor="middle" x="78" y="-151" font-family="Helvetica,sans-Serif" font-size="10.00"> c</text>
<text text-anchor="middle" x="78" y="-140" font-family="Helvetica,sans-Serif" font-size="10.00">command</text>
<text text-anchor="middle" x="78" y="-129" font-family="Helvetica,sans-Serif" font-size="10.00">control</text>
<text text-anchor="middle" x="78" y="-118" font-family="Helvetica,sans-Serif" font-size="10.00">counth</text>
<text text-anchor="middle" x="78" y="-107" font-family="Helvetica,sans-Serif" font-size="10.00">countl</text>
<text text-anchor="middle" x="78" y="-96" font-family="Helvetica,sans-Serif" font-size="10.00">device</text>
<text text-anchor="middle" x="78" y="-85" font-family="Helvetica,sans-Serif" font-size="10.00">featureh</text>
<text text-anchor="middle" x="78" y="-74" font-family="Helvetica,sans-Serif" font-size="10.00">featurel</text>
<text text-anchor="middle" x="78" y="-63" font-family="Helvetica,sans-Serif" font-size="10.00">fis_type</text>
<text text-anchor="middle" x="78" y="-52" font-family="Helvetica,sans-Serif" font-size="10.00">icc</text>
<text text-anchor="middle" x="78" y="-41" font-family="Helvetica,sans-Serif" font-size="10.00">...</text>
</g>
</g>
</svg>
