<?xml version="1.0" encoding="UTF-8" standalone="no"?>
<!DOCTYPE svg PUBLIC "-//W3C//DTD SVG 1.1//EN"
 "http://www.w3.org/Graphics/SVG/1.1/DTD/svg11.dtd">
<!-- Generated by graphviz version 2.43.0 (0)
 -->
<!-- Title: fs_tree_t Pages: 1 -->
<svg width="569pt" height="354pt"
 viewBox="0.00 0.00 568.97 354.00" xmlns="http://www.w3.org/2000/svg" xmlns:xlink="http://www.w3.org/1999/xlink">
<g id="graph0" class="graph" transform="scale(1 1) rotate(0) translate(4 350)">
<title>fs_tree_t</title>
<!-- Node1 -->
<g id="node1" class="node">
<title>Node1</title>
<g id="a_node1"><a xlink:title="Used internally by filesystem.c to cache directories to RAM.">
<polygon fill="#bfbfbf" stroke="black" points="168.47,-96 168.47,-115 227.47,-115 227.47,-96 168.47,-96"/>
<text text-anchor="middle" x="197.97" y="-103" font-family="Helvetica,sans-Serif" font-size="10.00">fs_tree_t</text>
</a>
</g>
</g>
<!-- Node1&#45;&gt;Node1 -->
<g id="edge3" class="edge">
<title>Node1&#45;&gt;Node1</title>
<path fill="none" stroke="#9a32cd" stroke-dasharray="5,2" d="M228.47,-115.99C237.98,-115.81 245.47,-112.31 245.47,-105.5 245.47,-96.42 232.16,-93.23 218.48,-95.93"/>
<polygon fill="#9a32cd" stroke="#9a32cd" points="228.76,-112.5 218.48,-115.07 228.11,-119.47 228.76,-112.5"/>
<text text-anchor="middle" x="270.47" y="-114" font-family="Helvetica,sans-Serif" font-size="10.00"> child_dirs</text>
<text text-anchor="middle" x="270.47" y="-103" font-family="Helvetica,sans-Serif" font-size="10.00">next</text>
<text text-anchor="middle" x="270.47" y="-92" font-family="Helvetica,sans-Serif" font-size="10.00">parent</text>
</g>
<!-- Node4 -->
<g id="node4" class="node">
<title>Node4</title>
<g id="a_node4"><a xlink:href="structfs__directory__entry__t.html" target="_top" xlink:title="A VFS directory entry. Files AND directories have these, but internally there is also a tree of fs_tr...">
<polygon fill="none" stroke="black" points="210.97,-0.5 210.97,-19.5 324.97,-19.5 324.97,-0.5 210.97,-0.5"/>
<text text-anchor="middle" x="267.97" y="-7.5" font-family="Helvetica,sans-Serif" font-size="10.00">fs_directory_entry_t</text>
</a>
</g>
</g>
<!-- Node1&#45;&gt;Node4 -->
<g id="edge10" class="edge">
<title>Node1&#45;&gt;Node4</title>
<path fill="none" stroke="#9a32cd" stroke-dasharray="5,2" d="M191.49,-86.07C187.68,-71.7 185.29,-51.91 194.97,-38 200.92,-29.46 209.89,-23.62 219.53,-19.62"/>
<polygon fill="#9a32cd" stroke="#9a32cd" points="188.21,-87.3 194.51,-95.82 194.9,-85.23 188.21,-87.3"/>
<text text-anchor="middle" x="218.47" y="-46.5" font-family="Helvetica,sans-Serif" font-size="10.00"> directory</text>
</g>
<!-- Node2 -->
<g id="node2" class="node">
<title>Node2</title>
<g id="a_node2"><a xlink:title=" ">
<polygon fill="none" stroke="black" points="18.97,-209 18.97,-228 68.97,-228 68.97,-209 18.97,-209"/>
<text text-anchor="middle" x="43.97" y="-216" font-family="Helvetica,sans-Serif" font-size="10.00">uint8_t</text>
</a>
</g>
</g>
<!-- Node2&#45;&gt;Node1 -->
<g id="edge1" class="edge">
<title>Node2&#45;&gt;Node1</title>
<path fill="none" stroke="#9a32cd" stroke-dasharray="5,2" d="M48.73,-198.84C53.39,-184.03 61.9,-163.75 75.97,-151 101.95,-127.46 141.38,-116.1 168.34,-110.81"/>
<polygon fill="#9a32cd" stroke="#9a32cd" points="45.24,-198.32 45.88,-208.89 51.97,-200.23 45.24,-198.32"/>
<text text-anchor="middle" x="88.97" y="-165" font-family="Helvetica,sans-Serif" font-size="10.00"> dirty</text>
</g>
<!-- Node2&#45;&gt;Node4 -->
<g id="edge7" class="edge">
<title>Node2&#45;&gt;Node4</title>
<path fill="none" stroke="#9a32cd" stroke-dasharray="5,2" d="M44.45,-198.55C45.49,-184.7 48.34,-165.83 55.97,-151 76.67,-110.75 92.52,-107.35 126.97,-78 150.53,-57.93 156.26,-51.78 183.97,-38 199.61,-30.22 217.97,-24.02 233.54,-19.53"/>
<polygon fill="#9a32cd" stroke="#9a32cd" points="40.94,-198.64 43.95,-208.8 47.94,-198.99 40.94,-198.64"/>
<text text-anchor="middle" x="142.97" y="-125" font-family="Helvetica,sans-Serif" font-size="10.00"> day</text>
<text text-anchor="middle" x="142.97" y="-114" font-family="Helvetica,sans-Serif" font-size="10.00">hour</text>
<text text-anchor="middle" x="142.97" y="-103" font-family="Helvetica,sans-Serif" font-size="10.00">min</text>
<text text-anchor="middle" x="142.97" y="-92" font-family="Helvetica,sans-Serif" font-size="10.00">month</text>
<text text-anchor="middle" x="142.97" y="-81" font-family="Helvetica,sans-Serif" font-size="10.00">sec</text>
</g>
<!-- Node3 -->
<g id="node3" class="node">
<title>Node3</title>
<g id="a_node3"><a xlink:title=" ">
<polygon fill="none" stroke="black" points="360.97,-326.5 360.97,-345.5 398.97,-345.5 398.97,-326.5 360.97,-326.5"/>
<text text-anchor="middle" x="379.97" y="-333.5" font-family="Helvetica,sans-Serif" font-size="10.00">char</text>
</a>
</g>
</g>
<!-- Node3&#45;&gt;Node1 -->
<g id="edge2" class="edge">
<title>Node3&#45;&gt;Node1</title>
<path fill="none" stroke="#9a32cd" stroke-dasharray="5,2" d="M383.75,-316.18C389.92,-279.59 397.73,-198.32 356.97,-151 352.67,-146.01 272.41,-125.2 227.61,-113.89"/>
<polygon fill="#9a32cd" stroke="#9a32cd" points="380.24,-315.92 381.87,-326.39 387.12,-317.19 380.24,-315.92"/>
<text text-anchor="middle" x="421.47" y="-221.5" font-family="Helvetica,sans-Serif" font-size="10.00"> device_name</text>
<text text-anchor="middle" x="421.47" y="-210.5" font-family="Helvetica,sans-Serif" font-size="10.00">name</text>
</g>
<!-- Node3&#45;&gt;Node4 -->
<g id="edge5" class="edge">
<title>Node3&#45;&gt;Node4</title>
<path fill="none" stroke="#9a32cd" stroke-dasharray="5,2" d="M399.6,-319.93C427.55,-296.48 473.97,-249.04 459.97,-202 433.75,-113.9 411.97,-86.63 333.97,-38 321.78,-30.4 307.09,-24.15 294.66,-19.58"/>
<polygon fill="#9a32cd" stroke="#9a32cd" points="397.17,-317.39 391.6,-326.41 401.57,-322.83 397.17,-317.39"/>
<text text-anchor="middle" x="485.97" y="-176" font-family="Helvetica,sans-Serif" font-size="10.00"> alt_filename</text>
<text text-anchor="middle" x="485.97" y="-165" font-family="Helvetica,sans-Serif" font-size="10.00">device_name</text>
<text text-anchor="middle" x="485.97" y="-154" font-family="Helvetica,sans-Serif" font-size="10.00">filename</text>
</g>
<!-- Node8 -->
<g id="node8" class="node">
<title>Node8</title>
<g id="a_node8"><a xlink:href="structfilesystem__t.html" target="_top" xlink:title="Defines a filesystem driver.">
<polygon fill="none" stroke="black" points="159.47,-209 159.47,-228 236.47,-228 236.47,-209 159.47,-209"/>
<text text-anchor="middle" x="197.97" y="-216" font-family="Helvetica,sans-Serif" font-size="10.00">filesystem_t</text>
</a>
</g>
</g>
<!-- Node3&#45;&gt;Node8 -->
<g id="edge13" class="edge">
<title>Node3&#45;&gt;Node8</title>
<path fill="none" stroke="#9a32cd" stroke-dasharray="5,2" d="M351.69,-321.78C345.6,-317.97 339.62,-313.37 334.97,-308 317.64,-287.96 331.71,-270.67 311.97,-253 291.3,-234.49 260.88,-226.18 236.66,-222.47"/>
<polygon fill="#9a32cd" stroke="#9a32cd" points="350.09,-324.9 360.52,-326.78 353.54,-318.81 350.09,-324.9"/>
<text text-anchor="middle" x="350.47" y="-278" font-family="Helvetica,sans-Serif" font-size="10.00"> name</text>
</g>
<!-- Node4&#45;&gt;Node1 -->
<g id="edge4" class="edge">
<title>Node4&#45;&gt;Node1</title>
<path fill="none" stroke="#9a32cd" stroke-dasharray="5,2" d="M261.91,-28.96C258.16,-38.66 252.76,-50.54 245.97,-60 235.77,-74.22 220.47,-87.43 209.9,-95.71"/>
<polygon fill="#9a32cd" stroke="#9a32cd" points="265.22,-30.11 265.32,-19.51 258.63,-27.73 265.22,-30.11"/>
<text text-anchor="middle" x="269.97" y="-46.5" font-family="Helvetica,sans-Serif" font-size="10.00"> files</text>
</g>
<!-- Node4&#45;&gt;Node4 -->
<g id="edge11" class="edge">
<title>Node4&#45;&gt;Node4</title>
<path fill="none" stroke="#9a32cd" stroke-dasharray="5,2" d="M335.41,-15.19C340.11,-14 342.97,-12.27 342.97,-10 342.97,-6.36 335.64,-4.12 325.2,-3.27"/>
<polygon fill="#9a32cd" stroke="#9a32cd" points="334.56,-11.78 325.2,-16.73 335.61,-18.7 334.56,-11.78"/>
<text text-anchor="middle" x="355.47" y="-7.5" font-family="Helvetica,sans-Serif" font-size="10.00"> next</text>
</g>
<!-- Node5 -->
<g id="node5" class="node">
<title>Node5</title>
<g id="a_node5"><a xlink:title=" ">
<polygon fill="none" stroke="black" points="313.97,-96 313.97,-115 369.97,-115 369.97,-96 313.97,-96"/>
<text text-anchor="middle" x="341.97" y="-103" font-family="Helvetica,sans-Serif" font-size="10.00">uint16_t</text>
</a>
</g>
</g>
<!-- Node5&#45;&gt;Node4 -->
<g id="edge6" class="edge">
<title>Node5&#45;&gt;Node4</title>
<path fill="none" stroke="#9a32cd" stroke-dasharray="5,2" d="M328.87,-87.94C313.05,-67.96 287.05,-35.11 274.78,-19.61"/>
<polygon fill="#9a32cd" stroke="#9a32cd" points="326.19,-90.2 335.14,-95.87 331.68,-85.86 326.19,-90.2"/>
<text text-anchor="middle" x="317.47" y="-46.5" font-family="Helvetica,sans-Serif" font-size="10.00"> year</text>
</g>
<!-- Node6 -->
<g id="node6" class="node">
<title>Node6</title>
<g id="a_node6"><a xlink:title=" ">
<polygon fill="none" stroke="black" points="10.97,-326.5 10.97,-345.5 66.97,-345.5 66.97,-326.5 10.97,-326.5"/>
<text text-anchor="middle" x="38.97" y="-333.5" font-family="Helvetica,sans-Serif" font-size="10.00">uint64_t</text>
</a>
</g>
</g>
<!-- Node6&#45;&gt;Node1 -->
<g id="edge19" class="edge">
<title>Node6&#45;&gt;Node1</title>
<path fill="none" stroke="#9a32cd" stroke-dasharray="5,2" d="M38.25,-316.22C38.43,-298.61 40.99,-272.2 52.97,-253 60.22,-241.38 67.69,-244.05 77.97,-235 124.71,-193.86 173.16,-136.69 190.91,-115.16"/>
<polygon fill="#9a32cd" stroke="#9a32cd" points="34.75,-316.4 38.4,-326.35 41.75,-316.3 34.75,-316.4"/>
<text text-anchor="middle" x="129.97" y="-227" font-family="Helvetica,sans-Serif" font-size="10.00"> device</text>
<text text-anchor="middle" x="129.97" y="-216" font-family="Helvetica,sans-Serif" font-size="10.00">lbapos</text>
<text text-anchor="middle" x="129.97" y="-205" font-family="Helvetica,sans-Serif" font-size="10.00">size</text>
</g>
<!-- Node6&#45;&gt;Node4 -->
<g id="edge8" class="edge">
<title>Node6&#45;&gt;Node4</title>
<path fill="none" stroke="#9a32cd" stroke-dasharray="5,2" d="M30.05,-316.94C14.76,-283.43 -12.96,-209.74 6.97,-151 32.45,-75.93 70.1,-64.06 144.97,-38 167.79,-30.06 193.82,-23.94 216.05,-19.56"/>
<polygon fill="#9a32cd" stroke="#9a32cd" points="27.06,-318.79 34.5,-326.33 33.38,-315.79 27.06,-318.79"/>
<text text-anchor="middle" x="24.97" y="-170.5" font-family="Helvetica,sans-Serif" font-size="10.00"> lbapos</text>
<text text-anchor="middle" x="24.97" y="-159.5" font-family="Helvetica,sans-Serif" font-size="10.00">size</text>
</g>
<!-- Node6&#45;&gt;Node8 -->
<g id="edge17" class="edge">
<title>Node6&#45;&gt;Node8</title>
<path fill="none" stroke="#9a32cd" stroke-dasharray="5,2" d="M46.82,-316.96C56.87,-294.19 73.63,-257.42 78.97,-253 102.39,-233.61 115.71,-243.27 144.97,-235 152.81,-232.78 161.29,-230.33 169.12,-228.04"/>
<polygon fill="#9a32cd" stroke="#9a32cd" points="43.54,-315.71 42.74,-326.27 49.96,-318.52 43.54,-315.71"/>
<text text-anchor="middle" x="102.47" y="-283.5" font-family="Helvetica,sans-Serif" font-size="10.00"> createdir</text>
<text text-anchor="middle" x="102.47" y="-272.5" font-family="Helvetica,sans-Serif" font-size="10.00">createfile</text>
</g>
<!-- Node7 -->
<g id="node7" class="node">
<title>Node7</title>
<g id="a_node7"><a xlink:title=" ">
<polygon fill="none" stroke="black" points="504.97,-96 504.97,-115 560.97,-115 560.97,-96 504.97,-96"/>
<text text-anchor="middle" x="532.97" y="-103" font-family="Helvetica,sans-Serif" font-size="10.00">uint32_t</text>
</a>
</g>
</g>
<!-- Node7&#45;&gt;Node4 -->
<g id="edge9" class="edge">
<title>Node7&#45;&gt;Node4</title>
<path fill="none" stroke="#9a32cd" stroke-dasharray="5,2" d="M526.59,-86.21C520.14,-70.67 508.6,-49.15 490.97,-38 464.23,-21.09 381.81,-14.77 325.03,-12.41"/>
<polygon fill="#9a32cd" stroke="#9a32cd" points="523.42,-87.72 530.25,-95.82 529.96,-85.23 523.42,-87.72"/>
<text text-anchor="middle" x="528.97" y="-52" font-family="Helvetica,sans-Serif" font-size="10.00"> device</text>
<text text-anchor="middle" x="528.97" y="-41" font-family="Helvetica,sans-Serif" font-size="10.00">flags</text>
</g>
<!-- Node8&#45;&gt;Node1 -->
<g id="edge12" class="edge">
<title>Node8&#45;&gt;Node1</title>
<path fill="none" stroke="#9a32cd" stroke-dasharray="5,2" d="M197.97,-198.68C197.97,-174.37 197.97,-133.05 197.97,-115.17"/>
<polygon fill="#9a32cd" stroke="#9a32cd" points="194.47,-198.79 197.97,-208.79 201.47,-198.79 194.47,-198.79"/>
<text text-anchor="middle" x="244.97" y="-165" font-family="Helvetica,sans-Serif" font-size="10.00"> responsible_driver</text>
</g>
<!-- Node8&#45;&gt;Node8 -->
<g id="edge18" class="edge">
<title>Node8&#45;&gt;Node8</title>
<path fill="none" stroke="#9a32cd" stroke-dasharray="5,2" d="M246.69,-226.11C251.45,-224.58 254.47,-222.04 254.47,-218.5 254.47,-212.84 246.74,-209.74 236.53,-209.21"/>
<polygon fill="#9a32cd" stroke="#9a32cd" points="245.82,-222.71 236.53,-227.79 246.96,-229.61 245.82,-222.71"/>
<text text-anchor="middle" x="266.97" y="-216" font-family="Helvetica,sans-Serif" font-size="10.00"> next</text>
</g>
<!-- Node9 -->
<g id="node9" class="node">
<title>Node9</title>
<g id="a_node9"><a xlink:title=" ">
<polygon fill="none" stroke="black" points="105.47,-326.5 105.47,-345.5 134.47,-345.5 134.47,-326.5 105.47,-326.5"/>
<text text-anchor="middle" x="119.97" y="-333.5" font-family="Helvetica,sans-Serif" font-size="10.00">int</text>
</a>
</g>
</g>
<!-- Node9&#45;&gt;Node8 -->
<g id="edge14" class="edge">
<title>Node9&#45;&gt;Node8</title>
<path fill="none" stroke="#9a32cd" stroke-dasharray="5,2" d="M126.07,-316.91C132.51,-299.45 143.83,-272.81 158.97,-253 166.45,-243.21 177.2,-234.24 185.52,-228.05"/>
<polygon fill="#9a32cd" stroke="#9a32cd" points="122.73,-315.86 122.7,-326.45 129.33,-318.19 122.73,-315.86"/>
<text text-anchor="middle" x="176.47" y="-278" font-family="Helvetica,sans-Serif" font-size="10.00"> mount</text>
</g>
<!-- Node10 -->
<g id="node10" class="node">
<title>Node10</title>
<g id="a_node10"><a xlink:title=" ">
<polygon fill="none" stroke="black" points="152.47,-326.5 152.47,-345.5 247.47,-345.5 247.47,-326.5 152.47,-326.5"/>
<text text-anchor="middle" x="199.97" y="-333.5" font-family="Helvetica,sans-Serif" font-size="10.00">void *(*)(void *)</text>
</a>
</g>
</g>
<!-- Node10&#45;&gt;Node8 -->
<g id="edge15" class="edge">
<title>Node10&#45;&gt;Node8</title>
<path fill="none" stroke="#9a32cd" stroke-dasharray="5,2" d="M199.64,-316.16C199.21,-290.87 198.45,-246.94 198.12,-228.28"/>
<polygon fill="#9a32cd" stroke="#9a32cd" points="196.15,-316.38 199.82,-326.32 203.15,-316.26 196.15,-316.38"/>
<text text-anchor="middle" x="214.97" y="-278" font-family="Helvetica,sans-Serif" font-size="10.00"> getdir</text>
</g>
<!-- Node11 -->
<g id="node11" class="node">
<title>Node11</title>
<g id="a_node11"><a xlink:title=" ">
<polygon fill="none" stroke="black" points="265.97,-326.5 265.97,-345.5 303.97,-345.5 303.97,-326.5 265.97,-326.5"/>
<text text-anchor="middle" x="284.97" y="-333.5" font-family="Helvetica,sans-Serif" font-size="10.00">bool</text>
</a>
</g>
</g>
<!-- Node11&#45;&gt;Node8 -->
<g id="edge16" class="edge">
<title>Node11&#45;&gt;Node8</title>
<path fill="none" stroke="#9a32cd" stroke-dasharray="5,2" d="M266.2,-319.74C262.49,-316.15 258.87,-312.16 255.97,-308 240.82,-286.26 247.97,-274.84 232.97,-253 226.4,-243.43 216.74,-234.44 209.24,-228.19"/>
<polygon fill="#9a32cd" stroke="#9a32cd" points="263.9,-322.38 273.68,-326.45 268.57,-317.17 263.9,-322.38"/>
<text text-anchor="middle" x="283.97" y="-300" font-family="Helvetica,sans-Serif" font-size="10.00"> readfile</text>
<text text-anchor="middle" x="283.97" y="-289" font-family="Helvetica,sans-Serif" font-size="10.00">rm</text>
<text text-anchor="middle" x="283.97" y="-278" font-family="Helvetica,sans-Serif" font-size="10.00">rmdir</text>
<text text-anchor="middle" x="283.97" y="-267" font-family="Helvetica,sans-Serif" font-size="10.00">truncatefile</text>
<text text-anchor="middle" x="283.97" y="-256" font-family="Helvetica,sans-Serif" font-size="10.00">writefile</text>
</g>
<!-- Node12 -->
<g id="node12" class="node">
<title>Node12</title>
<g id="a_node12"><a xlink:title=" ">
<polygon fill="none" stroke="black" points="297.97,-209 297.97,-228 343.97,-228 343.97,-209 297.97,-209"/>
<text text-anchor="middle" x="320.97" y="-216" font-family="Helvetica,sans-Serif" font-size="10.00">void *</text>
</a>
</g>
</g>
<!-- Node12&#45;&gt;Node1 -->
<g id="edge20" class="edge">
<title>Node12&#45;&gt;Node1</title>
<path fill="none" stroke="#9a32cd" stroke-dasharray="5,2" d="M317.95,-198.69C314.73,-184.1 308.33,-164.21 295.97,-151 277.72,-131.49 249.28,-119.89 227.73,-113.45"/>
<polygon fill="#9a32cd" stroke="#9a32cd" points="314.53,-199.44 319.83,-208.61 321.4,-198.13 314.53,-199.44"/>
<text text-anchor="middle" x="332.97" y="-165" font-family="Helvetica,sans-Serif" font-size="10.00"> opaque</text>
</g>
</g>
</svg>
