<?xml version="1.0" encoding="UTF-8" standalone="no"?>
<!DOCTYPE svg PUBLIC "-//W3C//DTD SVG 1.1//EN"
 "http://www.w3.org/Graphics/SVG/1.1/DTD/svg11.dtd">
<!-- Generated by graphviz version 2.43.0 (0)
 -->
<!-- Title: rfs_description_block_t Pages: 1 -->
<svg width="268pt" height="150pt"
 viewBox="0.00 0.00 268.00 150.00" xmlns="http://www.w3.org/2000/svg" xmlns:xlink="http://www.w3.org/1999/xlink">
<g id="graph0" class="graph" transform="scale(1 1) rotate(0) translate(4 146)">
<title>rfs_description_block_t</title>
<!-- Node1 -->
<g id="node1" class="node">
<title>Node1</title>
<g id="a_node1"><a xlink:title="On&#45;disk description block containing global filesystem metadata.">
<polygon fill="#bfbfbf" stroke="black" points="44.5,-0.5 44.5,-19.5 173.5,-19.5 173.5,-0.5 44.5,-0.5"/>
<text text-anchor="middle" x="109" y="-7.5" font-family="Helvetica,sans-Serif" font-size="10.00">rfs_description_block_t</text>
</a>
</g>
</g>
<!-- Node2 -->
<g id="node2" class="node">
<title>Node2</title>
<g id="a_node2"><a xlink:title=" ">
<polygon fill="none" stroke="#bfbfbf" points="0,-122.5 0,-141.5 56,-141.5 56,-122.5 0,-122.5"/>
<text text-anchor="middle" x="28" y="-129.5" font-family="Helvetica,sans-Serif" font-size="10.00">uint64_t</text>
</a>
</g>
</g>
<!-- Node2&#45;&gt;Node1 -->
<g id="edge1" class="edge">
<title>Node2&#45;&gt;Node1</title>
<path fill="none" stroke="#9a32cd" stroke-dasharray="5,2" d="M22.39,-112.41C17.47,-92.11 13.31,-59.61 29,-38 35.2,-29.46 44.24,-23.59 54.04,-19.56"/>
<polygon fill="#9a32cd" stroke="#9a32cd" points="19.07,-113.56 25.07,-122.29 25.83,-111.72 19.07,-113.56"/>
<text text-anchor="middle" x="98.5" y="-96" font-family="Helvetica,sans-Serif" font-size="10.00"> free_space_map_checksum</text>
<text text-anchor="middle" x="98.5" y="-85" font-family="Helvetica,sans-Serif" font-size="10.00">free_space_map_length</text>
<text text-anchor="middle" x="98.5" y="-74" font-family="Helvetica,sans-Serif" font-size="10.00">free_space_map_start</text>
<text text-anchor="middle" x="98.5" y="-63" font-family="Helvetica,sans-Serif" font-size="10.00">identifier</text>
<text text-anchor="middle" x="98.5" y="-52" font-family="Helvetica,sans-Serif" font-size="10.00">root_directory</text>
<text text-anchor="middle" x="98.5" y="-41" font-family="Helvetica,sans-Serif" font-size="10.00">sequence</text>
</g>
<!-- Node3 -->
<g id="node3" class="node">
<title>Node3</title>
<g id="a_node3"><a xlink:title=" ">
<polygon fill="none" stroke="#bfbfbf" points="165,-122.5 165,-141.5 215,-141.5 215,-122.5 165,-122.5"/>
<text text-anchor="middle" x="190" y="-129.5" font-family="Helvetica,sans-Serif" font-size="10.00">int64_t</text>
</a>
</g>
</g>
<!-- Node3&#45;&gt;Node1 -->
<g id="edge2" class="edge">
<title>Node3&#45;&gt;Node1</title>
<path fill="none" stroke="#9a32cd" stroke-dasharray="5,2" d="M190.22,-112.29C189.5,-91.86 185.41,-59.22 168,-38 161.07,-29.55 150.92,-23.63 140.99,-19.53"/>
<polygon fill="#9a32cd" stroke="#9a32cd" points="186.73,-112.52 190.34,-122.48 193.73,-112.45 186.73,-112.52"/>
<text text-anchor="middle" x="224.5" y="-68.5" font-family="Helvetica,sans-Serif" font-size="10.00"> creation_time</text>
</g>
</g>
</svg>
