<?xml version="1.0" encoding="UTF-8" standalone="no"?>
<!DOCTYPE svg PUBLIC "-//W3C//DTD SVG 1.1//EN"
 "http://www.w3.org/Graphics/SVG/1.1/DTD/svg11.dtd">
<!-- Generated by graphviz version 2.43.0 (0)
 -->
<!-- Title: iso9660 Pages: 1 -->
<svg width="1000pt" height="432pt"
 viewBox="0.00 0.00 1000.00 432.00" xmlns="http://www.w3.org/2000/svg" xmlns:xlink="http://www.w3.org/1999/xlink">
<g id="graph0" class="graph" transform="scale(1 1) rotate(0) translate(4 428)">
<title>iso9660</title>
<!-- Node1 -->
<g id="node1" class="node">
<title>Node1</title>
<g id="a_node1"><a xlink:title=" ">
<polygon fill="#bfbfbf" stroke="black" points="178.5,-0.5 178.5,-19.5 233.5,-19.5 233.5,-0.5 178.5,-0.5"/>
<text text-anchor="middle" x="206" y="-7.5" font-family="Helvetica,sans-Serif" font-size="10.00">iso9660</text>
</a>
</g>
</g>
<!-- Node2 -->
<g id="node2" class="node">
<title>Node2</title>
<g id="a_node2"><a xlink:title=" ">
<polygon fill="none" stroke="black" points="108.5,-404.5 108.5,-423.5 137.5,-423.5 137.5,-404.5 108.5,-404.5"/>
<text text-anchor="middle" x="123" y="-411.5" font-family="Helvetica,sans-Serif" font-size="10.00">int</text>
</a>
</g>
</g>
<!-- Node2&#45;&gt;Node1 -->
<g id="edge1" class="edge">
<title>Node2&#45;&gt;Node1</title>
<path fill="none" stroke="#9a32cd" stroke-dasharray="5,2" d="M99.12,-403.45C63.35,-387.38 0,-351.32 0,-297.5 0,-297.5 0,-297.5 0,-76 0,-39.06 121.99,-20.48 178.22,-13.88"/>
<polygon fill="#9a32cd" stroke="#9a32cd" points="97.84,-406.71 108.41,-407.45 100.61,-400.28 97.84,-406.71"/>
<text text-anchor="middle" x="14" y="-181" font-family="Helvetica,sans-Serif" font-size="10.00"> joliet</text>
</g>
<!-- Node10 -->
<g id="node10" class="node">
<title>Node10</title>
<g id="a_node10"><a xlink:href="structfilesystem__t.html" target="_top" xlink:title="Defines a filesystem driver.">
<polygon fill="none" stroke="black" points="449.5,-287 449.5,-306 526.5,-306 526.5,-287 449.5,-287"/>
<text text-anchor="middle" x="488" y="-294" font-family="Helvetica,sans-Serif" font-size="10.00">filesystem_t</text>
</a>
</g>
</g>
<!-- Node2&#45;&gt;Node10 -->
<g id="edge17" class="edge">
<title>Node2&#45;&gt;Node10</title>
<path fill="none" stroke="#9a32cd" stroke-dasharray="5,2" d="M147,-403.6C189.07,-387.35 279.08,-353.57 357,-331 391.17,-321.1 400.58,-322 435,-313 443.16,-310.87 451.98,-308.37 460.03,-306.01"/>
<polygon fill="#9a32cd" stroke="#9a32cd" points="145.66,-400.37 137.6,-407.25 148.19,-406.89 145.66,-400.37"/>
<text text-anchor="middle" x="374.5" y="-356" font-family="Helvetica,sans-Serif" font-size="10.00"> mount</text>
</g>
<!-- Node14 -->
<g id="node14" class="node">
<title>Node14</title>
<g id="a_node14"><a xlink:href="structstorage__device__t.html" target="_top" xlink:title="Represents a block storage device e.g. a hard disk, DVD&#45;ROM drive, etc.">
<polygon fill="none" stroke="black" points="156,-174 156,-193 256,-193 256,-174 156,-174"/>
<text text-anchor="middle" x="206" y="-181" font-family="Helvetica,sans-Serif" font-size="10.00">storage_device_t</text>
</a>
</g>
</g>
<!-- Node2&#45;&gt;Node14 -->
<g id="edge28" class="edge">
<title>Node2&#45;&gt;Node14</title>
<path fill="none" stroke="#9a32cd" stroke-dasharray="5,2" d="M119.8,-394.06C116.19,-366.46 113.56,-314.67 137,-280 146.57,-265.83 159.29,-274.46 171,-262 190.2,-241.55 200.18,-208.77 204.05,-193.22"/>
<polygon fill="#9a32cd" stroke="#9a32cd" points="116.39,-394.92 121.33,-404.3 123.31,-393.89 116.39,-394.92"/>
<text text-anchor="middle" x="163" y="-299.5" font-family="Helvetica,sans-Serif" font-size="10.00"> blockread</text>
<text text-anchor="middle" x="163" y="-288.5" font-family="Helvetica,sans-Serif" font-size="10.00">blockwrite</text>
</g>
<!-- Node3 -->
<g id="node3" class="node">
<title>Node3</title>
<g id="a_node3"><a xlink:title=" ">
<polygon fill="none" stroke="black" points="674,-404.5 674,-423.5 712,-423.5 712,-404.5 674,-404.5"/>
<text text-anchor="middle" x="693" y="-411.5" font-family="Helvetica,sans-Serif" font-size="10.00">char</text>
</a>
</g>
</g>
<!-- Node3&#45;&gt;Node1 -->
<g id="edge2" class="edge">
<title>Node3&#45;&gt;Node1</title>
<path fill="none" stroke="#9a32cd" stroke-dasharray="5,2" d="M722.45,-411.34C783.66,-406.15 919,-384.79 919,-297.5 919,-297.5 919,-297.5 919,-76 919,-40.92 364.55,-17.16 233.51,-12.04"/>
<polygon fill="#9a32cd" stroke="#9a32cd" points="721.98,-407.87 712.27,-412.12 722.5,-414.85 721.98,-407.87"/>
<text text-anchor="middle" x="955.5" y="-181" font-family="Helvetica,sans-Serif" font-size="10.00"> volume_name</text>
</g>
<!-- Node5 -->
<g id="node5" class="node">
<title>Node5</title>
<g id="a_node5"><a xlink:href="structfs__directory__entry__t.html" target="_top" xlink:title="A VFS directory entry. Files AND directories have these, but internally there is also a tree of fs_tr...">
<polygon fill="none" stroke="black" points="360,-67.5 360,-86.5 474,-86.5 474,-67.5 360,-67.5"/>
<text text-anchor="middle" x="417" y="-74.5" font-family="Helvetica,sans-Serif" font-size="10.00">fs_directory_entry_t</text>
</a>
</g>
</g>
<!-- Node3&#45;&gt;Node5 -->
<g id="edge5" class="edge">
<title>Node3&#45;&gt;Node5</title>
<path fill="none" stroke="#9a32cd" stroke-dasharray="5,2" d="M721.78,-399.84C752.34,-384.09 798.94,-354.53 819,-313 843.73,-261.8 803.51,-184.86 772,-156 729.02,-116.63 563.18,-93.46 474.2,-83.61"/>
<polygon fill="#9a32cd" stroke="#9a32cd" points="719.87,-396.88 712.47,-404.47 722.98,-403.15 719.87,-396.88"/>
<text text-anchor="middle" x="858" y="-254" font-family="Helvetica,sans-Serif" font-size="10.00"> alt_filename</text>
<text text-anchor="middle" x="858" y="-243" font-family="Helvetica,sans-Serif" font-size="10.00">device_name</text>
<text text-anchor="middle" x="858" y="-232" font-family="Helvetica,sans-Serif" font-size="10.00">filename</text>
</g>
<!-- Node9 -->
<g id="node9" class="node">
<title>Node9</title>
<g id="a_node9"><a xlink:href="structfs__tree__t.html" target="_top" xlink:title="Used internally by filesystem.c to cache directories to RAM.">
<polygon fill="none" stroke="black" points="451.5,-174 451.5,-193 510.5,-193 510.5,-174 451.5,-174"/>
<text text-anchor="middle" x="481" y="-181" font-family="Helvetica,sans-Serif" font-size="10.00">fs_tree_t</text>
</a>
</g>
</g>
<!-- Node3&#45;&gt;Node9 -->
<g id="edge12" class="edge">
<title>Node3&#45;&gt;Node9</title>
<path fill="none" stroke="#9a32cd" stroke-dasharray="5,2" d="M692.28,-394.18C691.06,-377.09 687.78,-351.49 679,-331 667.87,-305.02 660.07,-300.86 641,-280 618.06,-254.91 612.64,-247.31 584,-229 559.55,-213.37 528.67,-200.86 507.12,-193.13"/>
<polygon fill="#9a32cd" stroke="#9a32cd" points="688.81,-394.69 692.84,-404.49 695.8,-394.31 688.81,-394.69"/>
<text text-anchor="middle" x="703.5" y="-299.5" font-family="Helvetica,sans-Serif" font-size="10.00"> device_name</text>
<text text-anchor="middle" x="703.5" y="-288.5" font-family="Helvetica,sans-Serif" font-size="10.00">name</text>
</g>
<!-- Node3&#45;&gt;Node10 -->
<g id="edge16" class="edge">
<title>Node3&#45;&gt;Node10</title>
<path fill="none" stroke="#9a32cd" stroke-dasharray="5,2" d="M663.77,-407.34C649.95,-403.37 634.09,-396.78 623,-386 604,-367.53 619.7,-348.72 600,-331 579.86,-312.88 550.27,-304.55 526.56,-300.72"/>
<polygon fill="#9a32cd" stroke="#9a32cd" points="663.27,-410.82 673.83,-409.88 664.99,-404.04 663.27,-410.82"/>
<text text-anchor="middle" x="638.5" y="-356" font-family="Helvetica,sans-Serif" font-size="10.00"> name</text>
</g>
<!-- Node3&#45;&gt;Node14 -->
<g id="edge26" class="edge">
<title>Node3&#45;&gt;Node14</title>
<path fill="none" stroke="#9a32cd" stroke-dasharray="5,2" d="M685.31,-395.03C675.47,-372.34 659.09,-335.67 654,-331 637.22,-315.59 624.64,-326.11 606,-313 590.27,-301.93 595.16,-288.68 578,-280 475.03,-227.92 421.97,-314.08 319,-262 301.84,-253.32 306.02,-241.02 291,-229 271.49,-213.39 245.66,-200.8 227.62,-193.04"/>
<polygon fill="#9a32cd" stroke="#9a32cd" points="682.14,-396.51 689.31,-404.31 688.57,-393.74 682.14,-396.51"/>
<text text-anchor="middle" x="621.5" y="-294" font-family="Helvetica,sans-Serif" font-size="10.00"> name</text>
</g>
<!-- Node4 -->
<g id="node4" class="node">
<title>Node4</title>
<g id="a_node4"><a xlink:title=" ">
<polygon fill="none" stroke="black" points="31,-287 31,-306 87,-306 87,-287 31,-287"/>
<text text-anchor="middle" x="59" y="-294" font-family="Helvetica,sans-Serif" font-size="10.00">uint32_t</text>
</a>
</g>
</g>
<!-- Node4&#45;&gt;Node1 -->
<g id="edge3" class="edge">
<title>Node4&#45;&gt;Node1</title>
<path fill="none" stroke="#9a32cd" stroke-dasharray="5,2" d="M54.85,-276.75C47.94,-240.8 37.73,-160.78 69,-105 93.97,-60.46 149.9,-32.58 182.05,-19.61"/>
<polygon fill="#9a32cd" stroke="#9a32cd" points="51.47,-277.7 56.92,-286.79 58.33,-276.29 51.47,-277.7"/>
<text text-anchor="middle" x="105" y="-130" font-family="Helvetica,sans-Serif" font-size="10.00"> pathtable_lba</text>
<text text-anchor="middle" x="105" y="-119" font-family="Helvetica,sans-Serif" font-size="10.00">rootextent_lba</text>
<text text-anchor="middle" x="105" y="-108" font-family="Helvetica,sans-Serif" font-size="10.00">rootextent_len</text>
</g>
<!-- Node4&#45;&gt;Node5 -->
<g id="edge9" class="edge">
<title>Node4&#45;&gt;Node5</title>
<path fill="none" stroke="#9a32cd" stroke-dasharray="5,2" d="M64.88,-276.86C76.4,-240.83 101.63,-164.41 111,-156 147.4,-123.3 281.81,-98.28 359.86,-86.13"/>
<polygon fill="#9a32cd" stroke="#9a32cd" points="61.47,-276.04 61.78,-286.63 68.14,-278.16 61.47,-276.04"/>
<text text-anchor="middle" x="129" y="-186.5" font-family="Helvetica,sans-Serif" font-size="10.00"> device</text>
<text text-anchor="middle" x="129" y="-175.5" font-family="Helvetica,sans-Serif" font-size="10.00">flags</text>
</g>
<!-- Node4&#45;&gt;Node14 -->
<g id="edge29" class="edge">
<title>Node4&#45;&gt;Node14</title>
<path fill="none" stroke="#9a32cd" stroke-dasharray="5,2" d="M76.33,-279.62C81.88,-274.23 87.9,-268.04 93,-262 104.53,-248.34 102.45,-240.66 116,-229 135.16,-212.51 161.49,-200.43 180.72,-193.04"/>
<polygon fill="#9a32cd" stroke="#9a32cd" points="73.57,-277.42 68.71,-286.84 78.38,-282.51 73.57,-277.42"/>
<text text-anchor="middle" x="143.5" y="-243" font-family="Helvetica,sans-Serif" font-size="10.00"> block_size</text>
</g>
<!-- Node5&#45;&gt;Node1 -->
<g id="edge4" class="edge">
<title>Node5&#45;&gt;Node1</title>
<path fill="none" stroke="#9a32cd" stroke-dasharray="5,2" d="M379.17,-64.35C337.38,-51.47 271.07,-31.05 233.8,-19.56"/>
<polygon fill="#9a32cd" stroke="#9a32cd" points="378.39,-67.77 388.98,-67.37 380.45,-61.08 378.39,-67.77"/>
<text text-anchor="middle" x="336.5" y="-41" font-family="Helvetica,sans-Serif" font-size="10.00"> root</text>
</g>
<!-- Node5&#45;&gt;Node5 -->
<g id="edge24" class="edge">
<title>Node5&#45;&gt;Node5</title>
<path fill="none" stroke="#9a32cd" stroke-dasharray="5,2" d="M484.44,-81.37C489.14,-80.37 492,-78.91 492,-77 492,-73.94 484.67,-72.05 474.23,-71.33"/>
<polygon fill="#9a32cd" stroke="#9a32cd" points="483.7,-77.93 474.23,-82.67 484.59,-84.88 483.7,-77.93"/>
<text text-anchor="middle" x="504.5" y="-74.5" font-family="Helvetica,sans-Serif" font-size="10.00"> next</text>
</g>
<!-- Node5&#45;&gt;Node9 -->
<g id="edge14" class="edge">
<title>Node5&#45;&gt;Node9</title>
<path fill="none" stroke="#9a32cd" stroke-dasharray="5,2" d="M418.43,-96.87C420.06,-109.28 423.55,-125.47 431,-138 440.03,-153.18 455.96,-166.02 467.42,-173.95"/>
<polygon fill="#9a32cd" stroke="#9a32cd" points="421.9,-96.35 417.4,-86.76 414.94,-97.06 421.9,-96.35"/>
<text text-anchor="middle" x="443" y="-119" font-family="Helvetica,sans-Serif" font-size="10.00"> files</text>
</g>
<!-- Node6 -->
<g id="node6" class="node">
<title>Node6</title>
<g id="a_node6"><a xlink:title=" ">
<polygon fill="none" stroke="black" points="317,-174 317,-193 373,-193 373,-174 317,-174"/>
<text text-anchor="middle" x="345" y="-181" font-family="Helvetica,sans-Serif" font-size="10.00">uint16_t</text>
</a>
</g>
</g>
<!-- Node6&#45;&gt;Node5 -->
<g id="edge6" class="edge">
<title>Node6&#45;&gt;Node5</title>
<path fill="none" stroke="#9a32cd" stroke-dasharray="5,2" d="M344.71,-163.47C345.4,-146.47 348.88,-121.73 362,-105 368.57,-96.63 378.39,-90.68 387.93,-86.54"/>
<polygon fill="#9a32cd" stroke="#9a32cd" points="341.2,-163.77 344.59,-173.81 348.2,-163.85 341.2,-163.77"/>
<text text-anchor="middle" x="374.5" y="-119" font-family="Helvetica,sans-Serif" font-size="10.00"> year</text>
</g>
<!-- Node7 -->
<g id="node7" class="node">
<title>Node7</title>
<g id="a_node7"><a xlink:title=" ">
<polygon fill="none" stroke="black" points="760,-287 760,-306 810,-306 810,-287 760,-287"/>
<text text-anchor="middle" x="785" y="-294" font-family="Helvetica,sans-Serif" font-size="10.00">uint8_t</text>
</a>
</g>
</g>
<!-- Node7&#45;&gt;Node5 -->
<g id="edge7" class="edge">
<title>Node7&#45;&gt;Node5</title>
<path fill="none" stroke="#9a32cd" stroke-dasharray="5,2" d="M780.5,-276.89C776.21,-262.42 768.52,-242.58 756,-229 675.87,-142.07 536.44,-102.18 463.89,-86.56"/>
<polygon fill="#9a32cd" stroke="#9a32cd" points="777.16,-277.97 783.14,-286.72 783.92,-276.16 777.16,-277.97"/>
<text text-anchor="middle" x="752" y="-203" font-family="Helvetica,sans-Serif" font-size="10.00"> day</text>
<text text-anchor="middle" x="752" y="-192" font-family="Helvetica,sans-Serif" font-size="10.00">hour</text>
<text text-anchor="middle" x="752" y="-181" font-family="Helvetica,sans-Serif" font-size="10.00">min</text>
<text text-anchor="middle" x="752" y="-170" font-family="Helvetica,sans-Serif" font-size="10.00">month</text>
<text text-anchor="middle" x="752" y="-159" font-family="Helvetica,sans-Serif" font-size="10.00">sec</text>
</g>
<!-- Node7&#45;&gt;Node9 -->
<g id="edge11" class="edge">
<title>Node7&#45;&gt;Node9</title>
<path fill="none" stroke="#9a32cd" stroke-dasharray="5,2" d="M760.99,-281.64C751.22,-275.8 739.92,-268.8 730,-262 710.13,-248.38 708.86,-239.12 687,-229 628.07,-201.71 551.82,-190.87 510.61,-186.79"/>
<polygon fill="#9a32cd" stroke="#9a32cd" points="759.39,-284.76 769.78,-286.83 762.95,-278.73 759.39,-284.76"/>
<text text-anchor="middle" x="743" y="-243" font-family="Helvetica,sans-Serif" font-size="10.00"> dirty</text>
</g>
<!-- Node8 -->
<g id="node8" class="node">
<title>Node8</title>
<g id="a_node8"><a xlink:title=" ">
<polygon fill="none" stroke="black" points="316,-404.5 316,-423.5 372,-423.5 372,-404.5 316,-404.5"/>
<text text-anchor="middle" x="344" y="-411.5" font-family="Helvetica,sans-Serif" font-size="10.00">uint64_t</text>
</a>
</g>
</g>
<!-- Node8&#45;&gt;Node5 -->
<g id="edge8" class="edge">
<title>Node8&#45;&gt;Node5</title>
<path fill="none" stroke="#9a32cd" stroke-dasharray="5,2" d="M323.56,-397.29C320.48,-393.93 317.75,-390.13 316,-386 306.44,-363.5 307.16,-353.79 316,-331 319.75,-321.32 374.28,-271.25 379,-262 410.58,-200.11 415.91,-113.83 416.82,-86.59"/>
<polygon fill="#9a32cd" stroke="#9a32cd" points="321.38,-400.05 331.08,-404.31 326.16,-394.93 321.38,-400.05"/>
<text text-anchor="middle" x="411" y="-248.5" font-family="Helvetica,sans-Serif" font-size="10.00"> lbapos</text>
<text text-anchor="middle" x="411" y="-237.5" font-family="Helvetica,sans-Serif" font-size="10.00">size</text>
</g>
<!-- Node8&#45;&gt;Node9 -->
<g id="edge22" class="edge">
<title>Node8&#45;&gt;Node9</title>
<path fill="none" stroke="#9a32cd" stroke-dasharray="5,2" d="M362.01,-397.49C365.34,-393.97 368.54,-390.07 371,-386 396.52,-343.77 372.48,-317.96 404,-280 414.92,-266.84 425.79,-273.97 438,-262 458.87,-241.53 472.45,-208.76 478.06,-193.22"/>
<polygon fill="#9a32cd" stroke="#9a32cd" points="359.53,-395.03 354.74,-404.48 364.38,-400.07 359.53,-395.03"/>
<text text-anchor="middle" x="422" y="-305" font-family="Helvetica,sans-Serif" font-size="10.00"> device</text>
<text text-anchor="middle" x="422" y="-294" font-family="Helvetica,sans-Serif" font-size="10.00">lbapos</text>
<text text-anchor="middle" x="422" y="-283" font-family="Helvetica,sans-Serif" font-size="10.00">size</text>
</g>
<!-- Node8&#45;&gt;Node10 -->
<g id="edge20" class="edge">
<title>Node8&#45;&gt;Node10</title>
<path fill="none" stroke="#9a32cd" stroke-dasharray="5,2" d="M375,-399.96C382.32,-396.08 389.8,-391.4 396,-386 418.6,-366.32 413.26,-351.62 435,-331 445.58,-320.96 459.61,-312.26 470.57,-306.23"/>
<polygon fill="#9a32cd" stroke="#9a32cd" points="373.34,-396.88 365.92,-404.44 376.44,-403.16 373.34,-396.88"/>
<text text-anchor="middle" x="458.5" y="-361.5" font-family="Helvetica,sans-Serif" font-size="10.00"> createdir</text>
<text text-anchor="middle" x="458.5" y="-350.5" font-family="Helvetica,sans-Serif" font-size="10.00">createfile</text>
</g>
<!-- Node8&#45;&gt;Node14 -->
<g id="edge27" class="edge">
<title>Node8&#45;&gt;Node14</title>
<path fill="none" stroke="#9a32cd" stroke-dasharray="5,2" d="M312.04,-400.11C303.86,-396.14 295.31,-391.38 288,-386 252.3,-359.7 238.45,-353.32 220,-313 200.95,-271.37 203.37,-214.49 205.14,-193.1"/>
<polygon fill="#9a32cd" stroke="#9a32cd" points="310.84,-403.41 321.39,-404.39 313.76,-397.04 310.84,-403.41"/>
<text text-anchor="middle" x="243" y="-299.5" font-family="Helvetica,sans-Serif" font-size="10.00"> opaque1</text>
<text text-anchor="middle" x="243" y="-288.5" font-family="Helvetica,sans-Serif" font-size="10.00">size</text>
</g>
<!-- Node9&#45;&gt;Node5 -->
<g id="edge10" class="edge">
<title>Node9&#45;&gt;Node5</title>
<path fill="none" stroke="#9a32cd" stroke-dasharray="5,2" d="M479.43,-163.76C477.21,-146.95 471.86,-122.34 459,-105 453.22,-97.2 444.46,-91.06 436.43,-86.62"/>
<polygon fill="#9a32cd" stroke="#9a32cd" points="475.98,-164.39 480.52,-173.96 482.94,-163.64 475.98,-164.39"/>
<text text-anchor="middle" x="497.5" y="-119" font-family="Helvetica,sans-Serif" font-size="10.00"> directory</text>
</g>
<!-- Node9&#45;&gt;Node9 -->
<g id="edge13" class="edge">
<title>Node9&#45;&gt;Node9</title>
<path fill="none" stroke="#9a32cd" stroke-dasharray="5,2" d="M507.67,-195.01C518.93,-195.86 528.5,-192.02 528.5,-183.5 528.5,-172.48 512.49,-169.3 497.55,-173.94"/>
<polygon fill="#9a32cd" stroke="#9a32cd" points="508.03,-191.51 497.55,-193.06 506.71,-198.39 508.03,-191.51"/>
<text text-anchor="middle" x="553.5" y="-192" font-family="Helvetica,sans-Serif" font-size="10.00"> child_dirs</text>
<text text-anchor="middle" x="553.5" y="-181" font-family="Helvetica,sans-Serif" font-size="10.00">next</text>
<text text-anchor="middle" x="553.5" y="-170" font-family="Helvetica,sans-Serif" font-size="10.00">parent</text>
</g>
<!-- Node10&#45;&gt;Node9 -->
<g id="edge15" class="edge">
<title>Node10&#45;&gt;Node9</title>
<path fill="none" stroke="#9a32cd" stroke-dasharray="5,2" d="M486.81,-276.68C485.28,-252.37 482.67,-211.05 481.55,-193.17"/>
<polygon fill="#9a32cd" stroke="#9a32cd" points="483.33,-277.03 487.45,-286.79 490.31,-276.59 483.33,-277.03"/>
<text text-anchor="middle" x="533" y="-243" font-family="Helvetica,sans-Serif" font-size="10.00"> responsible_driver</text>
</g>
<!-- Node10&#45;&gt;Node10 -->
<g id="edge21" class="edge">
<title>Node10&#45;&gt;Node10</title>
<path fill="none" stroke="#9a32cd" stroke-dasharray="5,2" d="M536.72,-304.11C541.48,-302.58 544.5,-300.04 544.5,-296.5 544.5,-290.84 536.77,-287.74 526.56,-287.21"/>
<polygon fill="#9a32cd" stroke="#9a32cd" points="535.85,-300.71 526.56,-305.79 536.99,-307.61 535.85,-300.71"/>
<text text-anchor="middle" x="557" y="-294" font-family="Helvetica,sans-Serif" font-size="10.00"> next</text>
</g>
<!-- Node11 -->
<g id="node11" class="node">
<title>Node11</title>
<g id="a_node11"><a xlink:title=" ">
<polygon fill="none" stroke="black" points="522.5,-404.5 522.5,-423.5 617.5,-423.5 617.5,-404.5 522.5,-404.5"/>
<text text-anchor="middle" x="570" y="-411.5" font-family="Helvetica,sans-Serif" font-size="10.00">void *(*)(void *)</text>
</a>
</g>
</g>
<!-- Node11&#45;&gt;Node10 -->
<g id="edge18" class="edge">
<title>Node11&#45;&gt;Node10</title>
<path fill="none" stroke="#9a32cd" stroke-dasharray="5,2" d="M568.23,-394.35C565.69,-376.46 559.58,-349.49 545,-331 536.19,-319.82 522.54,-311.61 510.81,-306.12"/>
<polygon fill="#9a32cd" stroke="#9a32cd" points="564.76,-394.87 569.41,-404.39 571.72,-394.05 564.76,-394.87"/>
<text text-anchor="middle" x="583" y="-356" font-family="Helvetica,sans-Serif" font-size="10.00"> getdir</text>
</g>
<!-- Node12 -->
<g id="node12" class="node">
<title>Node12</title>
<g id="a_node12"><a xlink:title=" ">
<polygon fill="none" stroke="black" points="466,-404.5 466,-423.5 504,-423.5 504,-404.5 466,-404.5"/>
<text text-anchor="middle" x="485" y="-411.5" font-family="Helvetica,sans-Serif" font-size="10.00">bool</text>
</a>
</g>
</g>
<!-- Node12&#45;&gt;Node10 -->
<g id="edge19" class="edge">
<title>Node12&#45;&gt;Node10</title>
<path fill="none" stroke="#9a32cd" stroke-dasharray="5,2" d="M485.49,-394.16C486.15,-368.87 487.29,-324.94 487.77,-306.28"/>
<polygon fill="#9a32cd" stroke="#9a32cd" points="481.99,-394.23 485.23,-404.32 488.98,-394.41 481.99,-394.23"/>
<text text-anchor="middle" x="516" y="-378" font-family="Helvetica,sans-Serif" font-size="10.00"> readfile</text>
<text text-anchor="middle" x="516" y="-367" font-family="Helvetica,sans-Serif" font-size="10.00">rm</text>
<text text-anchor="middle" x="516" y="-356" font-family="Helvetica,sans-Serif" font-size="10.00">rmdir</text>
<text text-anchor="middle" x="516" y="-345" font-family="Helvetica,sans-Serif" font-size="10.00">truncatefile</text>
<text text-anchor="middle" x="516" y="-334" font-family="Helvetica,sans-Serif" font-size="10.00">writefile</text>
</g>
<!-- Node13 -->
<g id="node13" class="node">
<title>Node13</title>
<g id="a_node13"><a xlink:title=" ">
<polygon fill="none" stroke="black" points="275,-287 275,-306 321,-306 321,-287 275,-287"/>
<text text-anchor="middle" x="298" y="-294" font-family="Helvetica,sans-Serif" font-size="10.00">void *</text>
</a>
</g>
</g>
<!-- Node13&#45;&gt;Node9 -->
<g id="edge23" class="edge">
<title>Node13&#45;&gt;Node9</title>
<path fill="none" stroke="#9a32cd" stroke-dasharray="5,2" d="M304.86,-277.5C311.45,-262.48 322.82,-241.58 339,-229 348.02,-221.98 412.45,-203.4 451.36,-192.59"/>
<polygon fill="#9a32cd" stroke="#9a32cd" points="301.61,-276.2 301.05,-286.78 308.09,-278.85 301.61,-276.2"/>
<text text-anchor="middle" x="359" y="-243" font-family="Helvetica,sans-Serif" font-size="10.00"> opaque</text>
</g>
<!-- Node13&#45;&gt;Node14 -->
<g id="edge30" class="edge">
<title>Node13&#45;&gt;Node14</title>
<path fill="none" stroke="#9a32cd" stroke-dasharray="5,2" d="M270.33,-281.87C261.46,-276.56 252.11,-269.84 245,-262 225.77,-240.8 213.6,-208.38 208.61,-193.07"/>
<polygon fill="#9a32cd" stroke="#9a32cd" points="268.85,-285.05 279.28,-286.89 272.27,-278.95 268.85,-285.05"/>
<text text-anchor="middle" x="268" y="-243" font-family="Helvetica,sans-Serif" font-size="10.00"> opaque2</text>
</g>
<!-- Node14&#45;&gt;Node1 -->
<g id="edge25" class="edge">
<title>Node14&#45;&gt;Node1</title>
<path fill="none" stroke="#9a32cd" stroke-dasharray="5,2" d="M206,-163.35C206,-126.23 206,-45.83 206,-19.52"/>
<polygon fill="#9a32cd" stroke="#9a32cd" points="202.5,-163.76 206,-173.76 209.5,-163.76 202.5,-163.76"/>
<text text-anchor="middle" x="224" y="-74.5" font-family="Helvetica,sans-Serif" font-size="10.00"> device</text>
</g>
<!-- Node14&#45;&gt;Node14 -->
<g id="edge31" class="edge">
<title>Node14&#45;&gt;Node14</title>
<path fill="none" stroke="#9a32cd" stroke-dasharray="5,2" d="M239.74,-194.66C257.69,-196.52 274,-192.8 274,-183.5 274,-172.48 251.09,-169.3 229.7,-173.94"/>
<polygon fill="#9a32cd" stroke="#9a32cd" points="240.12,-191.18 229.7,-193.06 239.02,-198.09 240.12,-191.18"/>
<text text-anchor="middle" x="286.5" y="-181" font-family="Helvetica,sans-Serif" font-size="10.00"> next</text>
</g>
</g>
</svg>
