<?xml version="1.0" encoding="UTF-8" standalone="no"?>
<!DOCTYPE svg PUBLIC "-//W3C//DTD SVG 1.1//EN"
 "http://www.w3.org/Graphics/SVG/1.1/DTD/svg11.dtd">
<!-- Generated by graphviz version 2.43.0 (0)
 -->
<!-- Title: pending_node_t Pages: 1 -->
<svg width="809pt" height="363pt"
 viewBox="0.00 0.00 809.00 363.00" xmlns="http://www.w3.org/2000/svg" xmlns:xlink="http://www.w3.org/1999/xlink">
<g id="graph0" class="graph" transform="scale(1 1) rotate(0) translate(4 359)">
<title>pending_node_t</title>
<!-- Node1 -->
<g id="node1" class="node">
<title>Node1</title>
<g id="a_node1"><a xlink:title=" ">
<polygon fill="#bfbfbf" stroke="black" points="692,-268.5 692,-287.5 786,-287.5 786,-268.5 692,-268.5"/>
<text text-anchor="middle" x="739" y="-275.5" font-family="Helvetica,sans-Serif" font-size="10.00">pending_node_t</text>
</a>
</g>
</g>
<!-- Node9 -->
<g id="node9" class="node">
<title>Node9</title>
<g id="a_node9"><a xlink:href="structqueue__t.html" target="_top" xlink:title=" ">
<polygon fill="none" stroke="black" points="679,-189.5 679,-208.5 735,-208.5 735,-189.5 679,-189.5"/>
<text text-anchor="middle" x="707" y="-196.5" font-family="Helvetica,sans-Serif" font-size="10.00">queue_t</text>
</a>
</g>
</g>
<!-- Node1&#45;&gt;Node9 -->
<g id="edge9" class="edge">
<title>Node1&#45;&gt;Node9</title>
<path fill="none" stroke="#9a32cd" stroke-dasharray="5,2" d="M731.61,-259.22C725.05,-243.44 715.74,-221.04 710.66,-208.81"/>
<polygon fill="#9a32cd" stroke="#9a32cd" points="728.38,-260.57 735.45,-268.47 734.85,-257.89 728.38,-260.57"/>
<text text-anchor="middle" x="742" y="-242" font-family="Helvetica,sans-Serif" font-size="10.00"> head</text>
<text text-anchor="middle" x="742" y="-231" font-family="Helvetica,sans-Serif" font-size="10.00">tail</text>
</g>
<!-- Node2 -->
<g id="node2" class="node">
<title>Node2</title>
<g id="a_node2"><a xlink:title=" ">
<polygon fill="none" stroke="#bfbfbf" points="677,-335.5 677,-354.5 801,-354.5 801,-335.5 677,-335.5"/>
<text text-anchor="middle" x="739" y="-342.5" font-family="Helvetica,sans-Serif" font-size="10.00">struct pending_node *</text>
</a>
</g>
</g>
<!-- Node2&#45;&gt;Node1 -->
<g id="edge1" class="edge">
<title>Node2&#45;&gt;Node1</title>
<path fill="none" stroke="#9a32cd" stroke-dasharray="5,2" d="M739,-325.04C739,-312.67 739,-297.12 739,-287.63"/>
<polygon fill="#9a32cd" stroke="#9a32cd" points="735.5,-325.23 739,-335.23 742.5,-325.23 735.5,-325.23"/>
<text text-anchor="middle" x="751.5" y="-309" font-family="Helvetica,sans-Serif" font-size="10.00"> next</text>
</g>
<!-- Node3 -->
<g id="node3" class="node">
<title>Node3</title>
<g id="a_node3"><a xlink:href="structtcp__conn__t.html" target="_top" xlink:title=" ">
<polygon fill="none" stroke="black" points="420.5,-0.5 420.5,-19.5 489.5,-19.5 489.5,-0.5 420.5,-0.5"/>
<text text-anchor="middle" x="455" y="-7.5" font-family="Helvetica,sans-Serif" font-size="10.00">tcp_conn_t</text>
</a>
</g>
</g>
<!-- Node3&#45;&gt;Node1 -->
<g id="edge2" class="edge">
<title>Node3&#45;&gt;Node1</title>
<path fill="none" stroke="#9a32cd" stroke-dasharray="5,2" d="M499.87,-11.77C579.56,-13.59 739.03,-19.54 756,-38 813.15,-100.17 756.78,-143.55 757,-228 757.03,-237.78 759.83,-240.64 757,-250 754.98,-256.69 750.69,-263.23 746.81,-268.2"/>
<polygon fill="#9a32cd" stroke="#9a32cd" points="499.72,-8.26 489.64,-11.54 499.56,-15.26 499.72,-8.26"/>
<text text-anchor="middle" x="774.5" y="-196.5" font-family="Helvetica,sans-Serif" font-size="10.00"> conn</text>
</g>
<!-- Node4 -->
<g id="node4" class="node">
<title>Node4</title>
<g id="a_node4"><a xlink:title=" ">
<polygon fill="none" stroke="#bfbfbf" points="0,-189.5 0,-208.5 56,-208.5 56,-189.5 0,-189.5"/>
<text text-anchor="middle" x="28" y="-196.5" font-family="Helvetica,sans-Serif" font-size="10.00">uint16_t</text>
</a>
</g>
</g>
<!-- Node4&#45;&gt;Node3 -->
<g id="edge3" class="edge">
<title>Node4&#45;&gt;Node3</title>
<path fill="none" stroke="#9a32cd" stroke-dasharray="5,2" d="M21.02,-179.48C9.85,-146.26 -7.33,-76.46 29,-38 55.62,-9.82 323.34,-9.67 420.23,-10.55"/>
<polygon fill="#9a32cd" stroke="#9a32cd" points="17.85,-180.99 24.49,-189.24 24.44,-178.64 17.85,-180.99"/>
<text text-anchor="middle" x="59.5" y="-107" font-family="Helvetica,sans-Serif" font-size="10.00"> local_port</text>
<text text-anchor="middle" x="59.5" y="-96" font-family="Helvetica,sans-Serif" font-size="10.00">remote_port</text>
</g>
<!-- Node5 -->
<g id="node5" class="node">
<title>Node5</title>
<g id="a_node5"><a xlink:title=" ">
<polygon fill="none" stroke="#bfbfbf" points="111.5,-268.5 111.5,-287.5 156.5,-287.5 156.5,-268.5 111.5,-268.5"/>
<text text-anchor="middle" x="134" y="-275.5" font-family="Helvetica,sans-Serif" font-size="10.00">size_t</text>
</a>
</g>
</g>
<!-- Node5&#45;&gt;Node3 -->
<g id="edge4" class="edge">
<title>Node5&#45;&gt;Node3</title>
<path fill="none" stroke="#9a32cd" stroke-dasharray="5,2" d="M123.82,-259.51C114.58,-241.25 103.7,-211.98 113,-188 145.66,-103.82 169.95,-79.76 250,-38 278.88,-22.93 369.86,-15.66 420.36,-12.7"/>
<polygon fill="#9a32cd" stroke="#9a32cd" points="120.81,-261.3 128.65,-268.42 126.96,-257.96 120.81,-261.3"/>
<text text-anchor="middle" x="152.5" y="-202" font-family="Helvetica,sans-Serif" font-size="10.00"> recv_buffer_len</text>
<text text-anchor="middle" x="152.5" y="-191" font-family="Helvetica,sans-Serif" font-size="10.00">send_buffer_len</text>
</g>
<!-- Node10 -->
<g id="node10" class="node">
<title>Node10</title>
<g id="a_node10"><a xlink:href="structtcp__ordered__list__t.html" target="_top" xlink:title=" ">
<polygon fill="none" stroke="black" points="201,-189.5 201,-208.5 305,-208.5 305,-189.5 201,-189.5"/>
<text text-anchor="middle" x="253" y="-196.5" font-family="Helvetica,sans-Serif" font-size="10.00">tcp_ordered_list_t</text>
</a>
</g>
</g>
<!-- Node5&#45;&gt;Node10 -->
<g id="edge11" class="edge">
<title>Node5&#45;&gt;Node10</title>
<path fill="none" stroke="#9a32cd" stroke-dasharray="5,2" d="M155.81,-262.89C180.35,-247.01 219.43,-221.72 239.75,-208.57"/>
<polygon fill="#9a32cd" stroke="#9a32cd" points="153.68,-260.09 147.19,-268.47 157.49,-265.97 153.68,-260.09"/>
<text text-anchor="middle" x="217.5" y="-236.5" font-family="Helvetica,sans-Serif" font-size="10.00"> len</text>
</g>
<!-- Node6 -->
<g id="node6" class="node">
<title>Node6</title>
<g id="a_node6"><a xlink:title=" ">
<polygon fill="none" stroke="#bfbfbf" points="366,-189.5 366,-208.5 422,-208.5 422,-189.5 366,-189.5"/>
<text text-anchor="middle" x="394" y="-196.5" font-family="Helvetica,sans-Serif" font-size="10.00">uint32_t</text>
</a>
</g>
</g>
<!-- Node6&#45;&gt;Node3 -->
<g id="edge5" class="edge">
<title>Node6&#45;&gt;Node3</title>
<path fill="none" stroke="#9a32cd" stroke-dasharray="5,2" d="M386.9,-179.68C375.84,-147.82 358.64,-81.48 388,-38 395.37,-27.09 407.96,-20.58 420.26,-16.71"/>
<polygon fill="#9a32cd" stroke="#9a32cd" points="383.74,-181.23 390.47,-189.41 390.31,-178.82 383.74,-181.23"/>
<text text-anchor="middle" x="419.5" y="-162" font-family="Helvetica,sans-Serif" font-size="10.00"> irs</text>
<text text-anchor="middle" x="419.5" y="-151" font-family="Helvetica,sans-Serif" font-size="10.00">iss</text>
<text text-anchor="middle" x="419.5" y="-140" font-family="Helvetica,sans-Serif" font-size="10.00">local_addr</text>
<text text-anchor="middle" x="419.5" y="-129" font-family="Helvetica,sans-Serif" font-size="10.00">msl_time</text>
<text text-anchor="middle" x="419.5" y="-118" font-family="Helvetica,sans-Serif" font-size="10.00">rcv_lst</text>
<text text-anchor="middle" x="419.5" y="-107" font-family="Helvetica,sans-Serif" font-size="10.00">rcv_nxt</text>
<text text-anchor="middle" x="419.5" y="-96" font-family="Helvetica,sans-Serif" font-size="10.00">rcv_up</text>
<text text-anchor="middle" x="419.5" y="-85" font-family="Helvetica,sans-Serif" font-size="10.00">rcv_wnd</text>
<text text-anchor="start" x="388" y="-74" font-family="Helvetica,sans-Serif" font-size="10.00">recv_buffer</text>
<text text-anchor="middle" x="419.5" y="-63" font-family="Helvetica,sans-Serif" font-size="10.00">_spinlock</text>
<text text-anchor="middle" x="419.5" y="-52" font-family="Helvetica,sans-Serif" font-size="10.00">remote_addr</text>
<text text-anchor="middle" x="419.5" y="-41" font-family="Helvetica,sans-Serif" font-size="10.00">...</text>
</g>
<!-- Node7 -->
<g id="node7" class="node">
<title>Node7</title>
<g id="a_node7"><a xlink:title=" ">
<polygon fill="none" stroke="#bfbfbf" points="440.5,-189.5 440.5,-208.5 469.5,-208.5 469.5,-189.5 440.5,-189.5"/>
<text text-anchor="middle" x="455" y="-196.5" font-family="Helvetica,sans-Serif" font-size="10.00">int</text>
</a>
</g>
</g>
<!-- Node7&#45;&gt;Node3 -->
<g id="edge6" class="edge">
<title>Node7&#45;&gt;Node3</title>
<path fill="none" stroke="#9a32cd" stroke-dasharray="5,2" d="M455,-179.34C455,-139.62 455,-48 455,-19.57"/>
<polygon fill="#9a32cd" stroke="#9a32cd" points="451.5,-179.48 455,-189.48 458.5,-179.48 451.5,-179.48"/>
<text text-anchor="middle" x="488.5" y="-118" font-family="Helvetica,sans-Serif" font-size="10.00"> backlog</text>
<text text-anchor="middle" x="488.5" y="-107" font-family="Helvetica,sans-Serif" font-size="10.00">fd</text>
<text text-anchor="middle" x="488.5" y="-96" font-family="Helvetica,sans-Serif" font-size="10.00">recv_eof_pos</text>
<text text-anchor="middle" x="488.5" y="-85" font-family="Helvetica,sans-Serif" font-size="10.00">send_eof_pos</text>
</g>
<!-- Node8 -->
<g id="node8" class="node">
<title>Node8</title>
<g id="a_node8"><a xlink:title=" ">
<polygon fill="none" stroke="#bfbfbf" points="520,-189.5 520,-208.5 570,-208.5 570,-189.5 520,-189.5"/>
<text text-anchor="middle" x="545" y="-196.5" font-family="Helvetica,sans-Serif" font-size="10.00">uint8_t</text>
</a>
</g>
</g>
<!-- Node8&#45;&gt;Node3 -->
<g id="edge7" class="edge">
<title>Node8&#45;&gt;Node3</title>
<path fill="none" stroke="#9a32cd" stroke-dasharray="5,2" d="M544.73,-179.17C543.83,-141.72 539.93,-59.6 523,-38 514.85,-27.6 502.1,-21.2 489.83,-17.26"/>
<polygon fill="#9a32cd" stroke="#9a32cd" points="541.23,-179.32 544.92,-189.25 548.23,-179.18 541.23,-179.32"/>
<text text-anchor="middle" x="574" y="-107" font-family="Helvetica,sans-Serif" font-size="10.00"> recv_buffer</text>
<text text-anchor="middle" x="574" y="-96" font-family="Helvetica,sans-Serif" font-size="10.00">send_buffer</text>
</g>
<!-- Node9&#45;&gt;Node3 -->
<g id="edge8" class="edge">
<title>Node9&#45;&gt;Node3</title>
<path fill="none" stroke="#9a32cd" stroke-dasharray="5,2" d="M708.36,-179.06C709.65,-145.13 706.95,-74.17 666,-38 640.54,-15.5 542.67,-11.4 489.64,-10.87"/>
<polygon fill="#9a32cd" stroke="#9a32cd" points="704.85,-179.22 707.79,-189.4 711.84,-179.6 704.85,-179.22"/>
<text text-anchor="middle" x="730.5" y="-101.5" font-family="Helvetica,sans-Serif" font-size="10.00"> pending</text>
</g>
<!-- Node10&#45;&gt;Node3 -->
<g id="edge10" class="edge">
<title>Node10&#45;&gt;Node3</title>
<path fill="none" stroke="#9a32cd" stroke-dasharray="5,2" d="M252.71,-179.16C253.28,-145.4 259.69,-74.7 301,-38 318.25,-22.67 380.5,-15.8 420.38,-12.91"/>
<polygon fill="#9a32cd" stroke="#9a32cd" points="249.21,-179.44 252.7,-189.45 256.21,-179.45 249.21,-179.44"/>
<text text-anchor="middle" x="334.5" y="-101.5" font-family="Helvetica,sans-Serif" font-size="10.00"> segment_list</text>
</g>
<!-- Node10&#45;&gt;Node10 -->
<g id="edge13" class="edge">
<title>Node10&#45;&gt;Node10</title>
<path fill="none" stroke="#9a32cd" stroke-dasharray="5,2" d="M315.4,-204.61C320.11,-203.36 323,-201.49 323,-199 323,-195.02 315.59,-192.62 305.2,-191.81"/>
<polygon fill="#9a32cd" stroke="#9a32cd" points="314.55,-201.2 305.2,-206.19 315.62,-208.12 314.55,-201.2"/>
<text text-anchor="middle" x="335.5" y="-202" font-family="Helvetica,sans-Serif" font-size="10.00"> next</text>
<text text-anchor="middle" x="335.5" y="-191" font-family="Helvetica,sans-Serif" font-size="10.00">prev</text>
</g>
<!-- Node11 -->
<g id="node11" class="node">
<title>Node11</title>
<g id="a_node11"><a xlink:title=" ">
<polygon fill="none" stroke="#bfbfbf" points="204.5,-268.5 204.5,-287.5 301.5,-287.5 301.5,-268.5 204.5,-268.5"/>
<text text-anchor="middle" x="253" y="-275.5" font-family="Helvetica,sans-Serif" font-size="10.00">tcp_segment_t *</text>
</a>
</g>
</g>
<!-- Node11&#45;&gt;Node10 -->
<g id="edge12" class="edge">
<title>Node11&#45;&gt;Node10</title>
<path fill="none" stroke="#9a32cd" stroke-dasharray="5,2" d="M253,-258.31C253,-242.59 253,-220.81 253,-208.81"/>
<polygon fill="#9a32cd" stroke="#9a32cd" points="249.5,-258.47 253,-268.47 256.5,-258.47 249.5,-258.47"/>
<text text-anchor="middle" x="276" y="-236.5" font-family="Helvetica,sans-Serif" font-size="10.00"> segment</text>
</g>
<!-- Node12 -->
<g id="node12" class="node">
<title>Node12</title>
<g id="a_node12"><a xlink:title=" ">
<polygon fill="none" stroke="#bfbfbf" points="589.5,-189.5 589.5,-208.5 660.5,-208.5 660.5,-189.5 589.5,-189.5"/>
<text text-anchor="middle" x="625" y="-196.5" font-family="Helvetica,sans-Serif" font-size="10.00">tcp_state_t</text>
</a>
</g>
</g>
<!-- Node12&#45;&gt;Node3 -->
<g id="edge14" class="edge">
<title>Node12&#45;&gt;Node3</title>
<path fill="none" stroke="#9a32cd" stroke-dasharray="5,2" d="M628.88,-179.08C634.52,-145.75 640.64,-76.47 604,-38 588.68,-21.91 528.65,-15.3 489.62,-12.66"/>
<polygon fill="#9a32cd" stroke="#9a32cd" points="625.38,-178.78 626.98,-189.26 632.26,-180.07 625.38,-178.78"/>
<text text-anchor="middle" x="648" y="-101.5" font-family="Helvetica,sans-Serif" font-size="10.00"> state</text>
</g>
</g>
</svg>
