<?xml version="1.0" encoding="UTF-8" standalone="no"?>
<!DOCTYPE svg PUBLIC "-//W3C//DTD SVG 1.1//EN"
 "http://www.w3.org/Graphics/SVG/1.1/DTD/svg11.dtd">
<!-- Generated by graphviz version 2.43.0 (0)
 -->
<!-- Title: fs_handle_t Pages: 1 -->
<svg width="941pt" height="254pt"
 viewBox="0.00 0.00 940.52 254.00" xmlns="http://www.w3.org/2000/svg" xmlns:xlink="http://www.w3.org/1999/xlink">
<g id="graph0" class="graph" transform="scale(1 1) rotate(0) translate(4 250)">
<title>fs_handle_t</title>
<!-- Node1 -->
<g id="node1" class="node">
<title>Node1</title>
<g id="a_node1"><a xlink:title="The data for an open file descriptor.">
<polygon fill="#bfbfbf" stroke="black" points="302.02,-7 302.02,-26 375.02,-26 375.02,-7 302.02,-7"/>
<text text-anchor="middle" x="338.52" y="-14" font-family="Helvetica,sans-Serif" font-size="10.00">fs_handle_t</text>
</a>
</g>
</g>
<!-- Node2 -->
<g id="node2" class="node">
<title>Node2</title>
<g id="a_node2"><a xlink:href="structfs__directory__entry__t.html" target="_top" xlink:title="A VFS directory entry. Files AND directories have these, but internally there is also a tree of fs_tr...">
<polygon fill="none" stroke="black" points="717.52,-98 717.52,-117 831.52,-117 831.52,-98 717.52,-98"/>
<text text-anchor="middle" x="774.52" y="-105" font-family="Helvetica,sans-Serif" font-size="10.00">fs_directory_entry_t</text>
</a>
</g>
</g>
<!-- Node2&#45;&gt;Node1 -->
<g id="edge1" class="edge">
<title>Node2&#45;&gt;Node1</title>
<path fill="none" stroke="#9a32cd" stroke-dasharray="5,2" d="M742.18,-94.26C730.07,-89.73 716.19,-84.58 703.52,-80 666.77,-66.72 658.6,-59.8 620.52,-51 534.06,-31.01 429.77,-22.57 375.47,-19.32"/>
<polygon fill="#9a32cd" stroke="#9a32cd" points="741.27,-97.66 751.87,-97.9 743.74,-91.11 741.27,-97.66"/>
<text text-anchor="middle" x="666.02" y="-54" font-family="Helvetica,sans-Serif" font-size="10.00"> file</text>
</g>
<!-- Node2&#45;&gt;Node2 -->
<g id="edge2" class="edge">
<title>Node2&#45;&gt;Node2</title>
<path fill="none" stroke="#9a32cd" stroke-dasharray="5,2" d="M841.61,-114.44C846.52,-112.88 849.52,-110.57 849.52,-107.5 849.52,-102.71 842.2,-99.76 831.75,-98.64"/>
<polygon fill="#9a32cd" stroke="#9a32cd" points="840.9,-111.01 831.75,-116.36 842.23,-117.89 840.9,-111.01"/>
<text text-anchor="middle" x="862.02" y="-105" font-family="Helvetica,sans-Serif" font-size="10.00"> next</text>
</g>
<!-- Node4 -->
<g id="node4" class="node">
<title>Node4</title>
<g id="a_node4"><a xlink:href="structfs__tree__t.html" target="_top" xlink:title="Used internally by filesystem.c to cache directories to RAM.">
<polygon fill="none" stroke="black" points="601.02,-7 601.02,-26 660.02,-26 660.02,-7 601.02,-7"/>
<text text-anchor="middle" x="630.52" y="-14" font-family="Helvetica,sans-Serif" font-size="10.00">fs_tree_t</text>
</a>
</g>
</g>
<!-- Node2&#45;&gt;Node4 -->
<g id="edge6" class="edge">
<title>Node2&#45;&gt;Node4</title>
<path fill="none" stroke="#9a32cd" stroke-dasharray="5,2" d="M771.86,-87.63C769.19,-75.56 763.92,-60.44 753.52,-51 727.89,-27.71 687.63,-20.38 660.2,-18.19"/>
<polygon fill="#9a32cd" stroke="#9a32cd" points="768.44,-88.39 773.64,-97.62 775.33,-87.16 768.44,-88.39"/>
<text text-anchor="middle" x="773.52" y="-54" font-family="Helvetica,sans-Serif" font-size="10.00"> files</text>
</g>
<!-- Node3 -->
<g id="node3" class="node">
<title>Node3</title>
<g id="a_node3"><a xlink:title=" ">
<polygon fill="none" stroke="#bfbfbf" points="332.52,-226.5 332.52,-245.5 388.52,-245.5 388.52,-226.5 332.52,-226.5"/>
<text text-anchor="middle" x="360.52" y="-233.5" font-family="Helvetica,sans-Serif" font-size="10.00">uint64_t</text>
</a>
</g>
</g>
<!-- Node3&#45;&gt;Node1 -->
<g id="edge22" class="edge">
<title>Node3&#45;&gt;Node1</title>
<path fill="none" stroke="#9a32cd" stroke-dasharray="5,2" d="M358.64,-216.39C354.1,-171.47 342.66,-58.44 339.4,-26.2"/>
<polygon fill="#9a32cd" stroke="#9a32cd" points="355.17,-216.88 359.66,-226.47 362.14,-216.17 355.17,-216.88"/>
<text text-anchor="middle" x="375.52" y="-127" font-family="Helvetica,sans-Serif" font-size="10.00"> inbufpos</text>
<text text-anchor="middle" x="375.52" y="-116" font-family="Helvetica,sans-Serif" font-size="10.00">inbufsize</text>
<text text-anchor="middle" x="375.52" y="-105" font-family="Helvetica,sans-Serif" font-size="10.00">outbufpos</text>
<text text-anchor="middle" x="375.52" y="-94" font-family="Helvetica,sans-Serif" font-size="10.00">outbufsize</text>
<text text-anchor="middle" x="375.52" y="-83" font-family="Helvetica,sans-Serif" font-size="10.00">seekpos</text>
</g>
<!-- Node3&#45;&gt;Node2 -->
<g id="edge3" class="edge">
<title>Node3&#45;&gt;Node2</title>
<path fill="none" stroke="#9a32cd" stroke-dasharray="5,2" d="M397.4,-221.92C404.1,-218.23 410.54,-213.65 415.52,-208 432.64,-188.62 413.97,-168.7 434.52,-153 458.33,-134.81 674.24,-141.3 703.52,-135 721.92,-131.04 741.92,-123.24 755.99,-117.12"/>
<polygon fill="#9a32cd" stroke="#9a32cd" points="395.66,-218.87 388.2,-226.39 398.73,-225.16 395.66,-218.87"/>
<text text-anchor="middle" x="452.52" y="-183.5" font-family="Helvetica,sans-Serif" font-size="10.00"> lbapos</text>
<text text-anchor="middle" x="452.52" y="-172.5" font-family="Helvetica,sans-Serif" font-size="10.00">size</text>
</g>
<!-- Node3&#45;&gt;Node4 -->
<g id="edge5" class="edge">
<title>Node3&#45;&gt;Node4</title>
<path fill="none" stroke="#9a32cd" stroke-dasharray="5,2" d="M368.61,-217.12C377.58,-197.17 392.39,-163.91 404.52,-135 414.72,-110.73 407.15,-97.83 426.52,-80 475.86,-34.6 557.41,-22.16 600.96,-18.76"/>
<polygon fill="#9a32cd" stroke="#9a32cd" points="365.31,-215.93 364.39,-226.48 371.69,-218.8 365.31,-215.93"/>
<text text-anchor="middle" x="444.52" y="-116" font-family="Helvetica,sans-Serif" font-size="10.00"> device</text>
<text text-anchor="middle" x="444.52" y="-105" font-family="Helvetica,sans-Serif" font-size="10.00">lbapos</text>
<text text-anchor="middle" x="444.52" y="-94" font-family="Helvetica,sans-Serif" font-size="10.00">size</text>
</g>
<!-- Node5 -->
<g id="node5" class="node">
<title>Node5</title>
<g id="a_node5"><a xlink:href="structfilesystem__t.html" target="_top" xlink:title="Defines a filesystem driver.">
<polygon fill="none" stroke="black" points="182.02,-98 182.02,-117 259.02,-117 259.02,-98 182.02,-98"/>
<text text-anchor="middle" x="220.52" y="-105" font-family="Helvetica,sans-Serif" font-size="10.00">filesystem_t</text>
</a>
</g>
</g>
<!-- Node3&#45;&gt;Node5 -->
<g id="edge9" class="edge">
<title>Node3&#45;&gt;Node5</title>
<path fill="none" stroke="#9a32cd" stroke-dasharray="5,2" d="M322.05,-230.05C306.05,-226.29 288.27,-219.66 275.52,-208 255.98,-190.11 265.45,-176.13 252.52,-153 245.19,-139.88 234.72,-126 227.78,-117.3"/>
<polygon fill="#9a32cd" stroke="#9a32cd" points="321.74,-233.56 332.24,-232.14 323.15,-226.7 321.74,-233.56"/>
<text text-anchor="middle" x="300.02" y="-189" font-family="Helvetica,sans-Serif" font-size="10.00"> createdir</text>
<text text-anchor="middle" x="300.02" y="-178" font-family="Helvetica,sans-Serif" font-size="10.00">createfile</text>
<text text-anchor="middle" x="300.02" y="-167" font-family="Helvetica,sans-Serif" font-size="10.00">freespace</text>
</g>
<!-- Node4&#45;&gt;Node2 -->
<g id="edge4" class="edge">
<title>Node4&#45;&gt;Node2</title>
<path fill="none" stroke="#9a32cd" stroke-dasharray="5,2" d="M653.09,-31.45C683.27,-50.1 735.84,-82.59 760.72,-97.97"/>
<polygon fill="#9a32cd" stroke="#9a32cd" points="654.85,-28.42 644.5,-26.14 651.17,-34.37 654.85,-28.42"/>
<text text-anchor="middle" x="726.02" y="-54" font-family="Helvetica,sans-Serif" font-size="10.00"> directory</text>
</g>
<!-- Node4&#45;&gt;Node4 -->
<g id="edge7" class="edge">
<title>Node4&#45;&gt;Node4</title>
<path fill="none" stroke="#9a32cd" stroke-dasharray="5,2" d="M670.2,-22.95C674.93,-21.77 678.02,-19.62 678.02,-16.5 678.02,-11.5 670.11,-9 660.21,-9"/>
<polygon fill="#9a32cd" stroke="#9a32cd" points="669.79,-19.47 660.21,-24 670.52,-26.43 669.79,-19.47"/>
<text text-anchor="middle" x="703.02" y="-25" font-family="Helvetica,sans-Serif" font-size="10.00"> child_dirs</text>
<text text-anchor="middle" x="703.02" y="-14" font-family="Helvetica,sans-Serif" font-size="10.00">next</text>
<text text-anchor="middle" x="703.02" y="-3" font-family="Helvetica,sans-Serif" font-size="10.00">parent</text>
</g>
<!-- Node5&#45;&gt;Node4 -->
<g id="edge8" class="edge">
<title>Node5&#45;&gt;Node4</title>
<path fill="none" stroke="#9a32cd" stroke-dasharray="5,2" d="M240.26,-92.09C259.29,-79 289.41,-60.36 318.52,-51 418.36,-18.9 544.47,-16.13 600.88,-16.74"/>
<polygon fill="#9a32cd" stroke="#9a32cd" points="238.02,-89.38 231.86,-98 242.05,-95.1 238.02,-89.38"/>
<text text-anchor="middle" x="365.52" y="-54" font-family="Helvetica,sans-Serif" font-size="10.00"> responsible_driver</text>
</g>
<!-- Node5&#45;&gt;Node5 -->
<g id="edge11" class="edge">
<title>Node5&#45;&gt;Node5</title>
<path fill="none" stroke="#9a32cd" stroke-dasharray="5,2" d="M269.24,-115.11C274,-113.58 277.02,-111.04 277.02,-107.5 277.02,-101.84 269.29,-98.74 259.08,-98.21"/>
<polygon fill="#9a32cd" stroke="#9a32cd" points="268.37,-111.71 259.08,-116.79 269.52,-118.61 268.37,-111.71"/>
<text text-anchor="middle" x="289.52" y="-105" font-family="Helvetica,sans-Serif" font-size="10.00"> next</text>
</g>
<!-- Node6 -->
<g id="node6" class="node">
<title>Node6</title>
<g id="a_node6"><a xlink:title=" ">
<polygon fill="none" stroke="#bfbfbf" points="89.02,-226.5 89.02,-245.5 184.02,-245.5 184.02,-226.5 89.02,-226.5"/>
<text text-anchor="middle" x="136.52" y="-233.5" font-family="Helvetica,sans-Serif" font-size="10.00">void *(*)(void *)</text>
</a>
</g>
</g>
<!-- Node6&#45;&gt;Node5 -->
<g id="edge10" class="edge">
<title>Node6&#45;&gt;Node5</title>
<path fill="none" stroke="#9a32cd" stroke-dasharray="5,2" d="M144.27,-217.06C152.05,-199.91 164.96,-173.68 179.52,-153 189.08,-139.43 202.46,-125.66 211.3,-117.11"/>
<polygon fill="#9a32cd" stroke="#9a32cd" points="140.97,-215.88 140.12,-226.44 147.37,-218.71 140.97,-215.88"/>
<text text-anchor="middle" x="195.52" y="-178" font-family="Helvetica,sans-Serif" font-size="10.00"> getdir</text>
</g>
<!-- Node7 -->
<g id="node7" class="node">
<title>Node7</title>
<g id="a_node7"><a xlink:title=" ">
<polygon fill="none" stroke="#bfbfbf" points="578.52,-226.5 578.52,-245.5 616.52,-245.5 616.52,-226.5 578.52,-226.5"/>
<text text-anchor="middle" x="597.52" y="-233.5" font-family="Helvetica,sans-Serif" font-size="10.00">char</text>
</a>
</g>
</g>
<!-- Node7&#45;&gt;Node1 -->
<g id="edge23" class="edge">
<title>Node7&#45;&gt;Node1</title>
<path fill="none" stroke="#9a32cd" stroke-dasharray="5,2" d="M584.98,-218.55C571.68,-201.49 549.71,-174.38 528.52,-153 519.87,-144.27 515.91,-143.98 507.52,-135 486.71,-112.72 489.99,-99.46 466.52,-80 435.49,-54.27 392.08,-35.97 364.64,-26.07"/>
<polygon fill="#9a32cd" stroke="#9a32cd" points="582.21,-220.69 591.09,-226.47 587.75,-216.41 582.21,-220.69"/>
<text text-anchor="middle" x="523.52" y="-110.5" font-family="Helvetica,sans-Serif" font-size="10.00"> inbuf</text>
<text text-anchor="middle" x="523.52" y="-99.5" font-family="Helvetica,sans-Serif" font-size="10.00">outbuf</text>
</g>
<!-- Node7&#45;&gt;Node2 -->
<g id="edge19" class="edge">
<title>Node7&#45;&gt;Node2</title>
<path fill="none" stroke="#9a32cd" stroke-dasharray="5,2" d="M625.1,-220.97C630.93,-217.25 636.76,-212.88 641.52,-208 661.29,-187.77 652.44,-171.85 673.52,-153 685.45,-142.34 724.8,-126.65 750.71,-117.03"/>
<polygon fill="#9a32cd" stroke="#9a32cd" points="622.93,-218.19 616.09,-226.28 626.48,-224.22 622.93,-218.19"/>
<text text-anchor="middle" x="706.52" y="-189" font-family="Helvetica,sans-Serif" font-size="10.00"> alt_filename</text>
<text text-anchor="middle" x="706.52" y="-178" font-family="Helvetica,sans-Serif" font-size="10.00">device_name</text>
<text text-anchor="middle" x="706.52" y="-167" font-family="Helvetica,sans-Serif" font-size="10.00">filename</text>
</g>
<!-- Node7&#45;&gt;Node4 -->
<g id="edge15" class="edge">
<title>Node7&#45;&gt;Node4</title>
<path fill="none" stroke="#9a32cd" stroke-dasharray="5,2" d="M600.35,-216.39C607.16,-171.47 624.31,-58.44 629.2,-26.2"/>
<polygon fill="#9a32cd" stroke="#9a32cd" points="596.86,-216.06 598.82,-226.47 603.78,-217.11 596.86,-216.06"/>
<text text-anchor="middle" x="655.02" y="-110.5" font-family="Helvetica,sans-Serif" font-size="10.00"> device_name</text>
<text text-anchor="middle" x="655.02" y="-99.5" font-family="Helvetica,sans-Serif" font-size="10.00">name</text>
</g>
<!-- Node7&#45;&gt;Node5 -->
<g id="edge12" class="edge">
<title>Node7&#45;&gt;Node5</title>
<path fill="none" stroke="#9a32cd" stroke-dasharray="5,2" d="M568.21,-233.83C546.36,-231.5 517.06,-225.1 497.52,-208 477.59,-190.54 495.71,-168.91 474.52,-153 446.26,-131.78 351.22,-141.72 316.52,-135 292.76,-130.4 266.28,-122.9 247.16,-117.06"/>
<polygon fill="#9a32cd" stroke="#9a32cd" points="568,-237.33 578.26,-234.68 568.58,-230.35 568,-237.33"/>
<text text-anchor="middle" x="513.02" y="-178" font-family="Helvetica,sans-Serif" font-size="10.00"> name</text>
</g>
<!-- Node8 -->
<g id="node8" class="node">
<title>Node8</title>
<g id="a_node8"><a xlink:title=" ">
<polygon fill="none" stroke="#bfbfbf" points="202.02,-226.5 202.02,-245.5 231.02,-245.5 231.02,-226.5 202.02,-226.5"/>
<text text-anchor="middle" x="216.52" y="-233.5" font-family="Helvetica,sans-Serif" font-size="10.00">int</text>
</a>
</g>
</g>
<!-- Node8&#45;&gt;Node5 -->
<g id="edge13" class="edge">
<title>Node8&#45;&gt;Node5</title>
<path fill="none" stroke="#9a32cd" stroke-dasharray="5,2" d="M216.46,-216.35C216.47,-199.72 216.66,-174.73 217.52,-153 218.02,-140.47 219.09,-125.98 219.81,-117.02"/>
<polygon fill="#9a32cd" stroke="#9a32cd" points="212.96,-216.38 216.47,-226.38 219.96,-216.37 212.96,-216.38"/>
<text text-anchor="middle" x="235.02" y="-178" font-family="Helvetica,sans-Serif" font-size="10.00"> mount</text>
</g>
<!-- Node9 -->
<g id="node9" class="node">
<title>Node9</title>
<g id="a_node9"><a xlink:title=" ">
<polygon fill="none" stroke="#bfbfbf" points="10.52,-226.5 10.52,-245.5 48.52,-245.5 48.52,-226.5 10.52,-226.5"/>
<text text-anchor="middle" x="29.52" y="-233.5" font-family="Helvetica,sans-Serif" font-size="10.00">bool</text>
</a>
</g>
</g>
<!-- Node9&#45;&gt;Node1 -->
<g id="edge24" class="edge">
<title>Node9&#45;&gt;Node1</title>
<path fill="none" stroke="#9a32cd" stroke-dasharray="5,2" d="M20.82,-217.13C6.88,-185.6 -15.8,-119.7 16.52,-80 52.12,-36.28 225.27,-22.8 301.91,-18.94"/>
<polygon fill="#9a32cd" stroke="#9a32cd" points="17.75,-218.81 25.12,-226.41 24.1,-215.87 17.75,-218.81"/>
<text text-anchor="middle" x="35.52" y="-105" font-family="Helvetica,sans-Serif" font-size="10.00"> cached</text>
</g>
<!-- Node9&#45;&gt;Node5 -->
<g id="edge14" class="edge">
<title>Node9&#45;&gt;Node5</title>
<path fill="none" stroke="#9a32cd" stroke-dasharray="5,2" d="M37.36,-217.39C46.73,-198.43 64.26,-168.86 88.52,-153 120.48,-132.1 136.76,-148.37 172.52,-135 185.01,-130.33 198.19,-122.85 207.58,-117.02"/>
<polygon fill="#9a32cd" stroke="#9a32cd" points="34.19,-215.9 33.1,-226.44 40.52,-218.88 34.19,-215.9"/>
<text text-anchor="middle" x="116.52" y="-200" font-family="Helvetica,sans-Serif" font-size="10.00"> readfile</text>
<text text-anchor="middle" x="116.52" y="-189" font-family="Helvetica,sans-Serif" font-size="10.00">rm</text>
<text text-anchor="middle" x="116.52" y="-178" font-family="Helvetica,sans-Serif" font-size="10.00">rmdir</text>
<text text-anchor="middle" x="116.52" y="-167" font-family="Helvetica,sans-Serif" font-size="10.00">truncatefile</text>
<text text-anchor="middle" x="116.52" y="-156" font-family="Helvetica,sans-Serif" font-size="10.00">writefile</text>
</g>
<!-- Node10 -->
<g id="node10" class="node">
<title>Node10</title>
<g id="a_node10"><a xlink:title=" ">
<polygon fill="none" stroke="#bfbfbf" points="876.52,-226.5 876.52,-245.5 926.52,-245.5 926.52,-226.5 876.52,-226.5"/>
<text text-anchor="middle" x="901.52" y="-233.5" font-family="Helvetica,sans-Serif" font-size="10.00">uint8_t</text>
</a>
</g>
</g>
<!-- Node10&#45;&gt;Node2 -->
<g id="edge21" class="edge">
<title>Node10&#45;&gt;Node2</title>
<path fill="none" stroke="#9a32cd" stroke-dasharray="5,2" d="M877.49,-220.43C872.77,-216.8 868.16,-212.6 864.52,-208 848.11,-187.2 858.4,-173.43 841.52,-153 828.36,-137.07 808.03,-124.68 793.21,-117.07"/>
<polygon fill="#9a32cd" stroke="#9a32cd" points="875.73,-223.47 885.93,-226.34 879.75,-217.74 875.73,-223.47"/>
<text text-anchor="middle" x="880.52" y="-200" font-family="Helvetica,sans-Serif" font-size="10.00"> day</text>
<text text-anchor="middle" x="880.52" y="-189" font-family="Helvetica,sans-Serif" font-size="10.00">hour</text>
<text text-anchor="middle" x="880.52" y="-178" font-family="Helvetica,sans-Serif" font-size="10.00">min</text>
<text text-anchor="middle" x="880.52" y="-167" font-family="Helvetica,sans-Serif" font-size="10.00">month</text>
<text text-anchor="middle" x="880.52" y="-156" font-family="Helvetica,sans-Serif" font-size="10.00">sec</text>
</g>
<!-- Node10&#45;&gt;Node4 -->
<g id="edge16" class="edge">
<title>Node10&#45;&gt;Node4</title>
<path fill="none" stroke="#9a32cd" stroke-dasharray="5,2" d="M905.46,-216.46C911.1,-184.39 917.39,-118.31 883.52,-80 854.08,-46.69 720.78,-27.69 660.4,-20.66"/>
<polygon fill="#9a32cd" stroke="#9a32cd" points="902.02,-215.8 903.56,-226.29 908.9,-217.13 902.02,-215.8"/>
<text text-anchor="middle" x="919.52" y="-105" font-family="Helvetica,sans-Serif" font-size="10.00"> dirty</text>
</g>
<!-- Node11 -->
<g id="node11" class="node">
<title>Node11</title>
<g id="a_node11"><a xlink:title=" ">
<polygon fill="none" stroke="#bfbfbf" points="548.52,-98 548.52,-117 594.52,-117 594.52,-98 548.52,-98"/>
<text text-anchor="middle" x="571.52" y="-105" font-family="Helvetica,sans-Serif" font-size="10.00">void *</text>
</a>
</g>
</g>
<!-- Node11&#45;&gt;Node4 -->
<g id="edge17" class="edge">
<title>Node11&#45;&gt;Node4</title>
<path fill="none" stroke="#9a32cd" stroke-dasharray="5,2" d="M569.19,-87.7C568.7,-76.29 569.82,-61.87 576.52,-51 583.59,-39.54 596.18,-31.4 607.43,-26.01"/>
<polygon fill="#9a32cd" stroke="#9a32cd" points="565.72,-88.21 570.06,-97.87 572.69,-87.61 565.72,-88.21"/>
<text text-anchor="middle" x="596.52" y="-54" font-family="Helvetica,sans-Serif" font-size="10.00"> opaque</text>
</g>
<!-- Node12 -->
<g id="node12" class="node">
<title>Node12</title>
<g id="a_node12"><a xlink:title=" ">
<polygon fill="none" stroke="#bfbfbf" points="711.52,-226.5 711.52,-245.5 767.52,-245.5 767.52,-226.5 711.52,-226.5"/>
<text text-anchor="middle" x="739.52" y="-233.5" font-family="Helvetica,sans-Serif" font-size="10.00">uint16_t</text>
</a>
</g>
</g>
<!-- Node12&#45;&gt;Node2 -->
<g id="edge18" class="edge">
<title>Node12&#45;&gt;Node2</title>
<path fill="none" stroke="#9a32cd" stroke-dasharray="5,2" d="M742.83,-216.15C745.97,-199.4 751.15,-174.33 757.52,-153 761.31,-140.32 767.01,-126.11 770.74,-117.23"/>
<polygon fill="#9a32cd" stroke="#9a32cd" points="739.34,-215.81 741,-226.27 746.23,-217.06 739.34,-215.81"/>
<text text-anchor="middle" x="770.02" y="-178" font-family="Helvetica,sans-Serif" font-size="10.00"> year</text>
</g>
<!-- Node13 -->
<g id="node13" class="node">
<title>Node13</title>
<g id="a_node13"><a xlink:title=" ">
<polygon fill="none" stroke="#bfbfbf" points="785.52,-226.5 785.52,-245.5 841.52,-245.5 841.52,-226.5 785.52,-226.5"/>
<text text-anchor="middle" x="813.52" y="-233.5" font-family="Helvetica,sans-Serif" font-size="10.00">uint32_t</text>
</a>
</g>
</g>
<!-- Node13&#45;&gt;Node2 -->
<g id="edge20" class="edge">
<title>Node13&#45;&gt;Node2</title>
<path fill="none" stroke="#9a32cd" stroke-dasharray="5,2" d="M807.87,-216.67C799.35,-189.03 783.53,-137.72 777.22,-117.26"/>
<polygon fill="#9a32cd" stroke="#9a32cd" points="804.55,-217.78 810.84,-226.31 811.24,-215.72 804.55,-217.78"/>
<text text-anchor="middle" x="822.52" y="-183.5" font-family="Helvetica,sans-Serif" font-size="10.00"> device</text>
<text text-anchor="middle" x="822.52" y="-172.5" font-family="Helvetica,sans-Serif" font-size="10.00">flags</text>
</g>
<!-- Node14 -->
<g id="node14" class="node">
<title>Node14</title>
<g id="a_node14"><a xlink:title=" ">
<polygon fill="none" stroke="#bfbfbf" points="63.52,-98 63.52,-117 163.52,-117 163.52,-98 63.52,-98"/>
<text text-anchor="middle" x="113.52" y="-105" font-family="Helvetica,sans-Serif" font-size="10.00">fs_handle_type_t</text>
</a>
</g>
</g>
<!-- Node14&#45;&gt;Node1 -->
<g id="edge25" class="edge">
<title>Node14&#45;&gt;Node1</title>
<path fill="none" stroke="#9a32cd" stroke-dasharray="5,2" d="M128.03,-90.28C140.25,-77.64 158.86,-60.66 178.52,-51 218.01,-31.61 268.33,-23.42 301.9,-19.97"/>
<polygon fill="#9a32cd" stroke="#9a32cd" points="125.24,-88.15 120.97,-97.84 130.35,-92.92 125.24,-88.15"/>
<text text-anchor="middle" x="191.02" y="-54" font-family="Helvetica,sans-Serif" font-size="10.00"> type</text>
</g>
</g>
</svg>
