<?xml version="1.0" encoding="UTF-8" standalone="no"?>
<!DOCTYPE svg PUBLIC "-//W3C//DTD SVG 1.1//EN"
 "http://www.w3.org/Graphics/SVG/1.1/DTD/svg11.dtd">
<!-- Generated by graphviz version 2.43.0 (0)
 -->
<!-- Title: ahci_hba_mem_t Pages: 1 -->
<svg width="240pt" height="384pt"
 viewBox="0.00 0.00 240.24 384.00" xmlns="http://www.w3.org/2000/svg" xmlns:xlink="http://www.w3.org/1999/xlink">
<g id="graph0" class="graph" transform="scale(1 1) rotate(0) translate(4 380)">
<title>ahci_hba_mem_t</title>
<!-- Node1 -->
<g id="node1" class="node">
<title>Node1</title>
<g id="a_node1"><a xlink:title=" ">
<polygon fill="#bfbfbf" stroke="black" points="67.24,-0.5 67.24,-19.5 167.24,-19.5 167.24,-0.5 67.24,-0.5"/>
<text text-anchor="middle" x="117.24" y="-7.5" font-family="Helvetica,sans-Serif" font-size="10.00">ahci_hba_mem_t</text>
</a>
</g>
</g>
<!-- Node2 -->
<g id="node2" class="node">
<title>Node2</title>
<g id="a_node2"><a xlink:href="structahci__hba__port__t.html" target="_top" xlink:title=" ">
<polygon fill="none" stroke="black" points="70.24,-129 70.24,-148 164.24,-148 164.24,-129 70.24,-129"/>
<text text-anchor="middle" x="117.24" y="-136" font-family="Helvetica,sans-Serif" font-size="10.00">ahci_hba_port_t</text>
</a>
</g>
</g>
<!-- Node2&#45;&gt;Node1 -->
<g id="edge1" class="edge">
<title>Node2&#45;&gt;Node1</title>
<path fill="none" stroke="#9a32cd" stroke-dasharray="5,2" d="M117.24,-118.44C117.24,-90.62 117.24,-40.04 117.24,-19.76"/>
<polygon fill="#9a32cd" stroke="#9a32cd" points="113.74,-118.81 117.24,-128.81 120.74,-118.81 113.74,-118.81"/>
<text text-anchor="middle" x="131.24" y="-46.5" font-family="Helvetica,sans-Serif" font-size="10.00"> ports</text>
</g>
<!-- Node3 -->
<g id="node3" class="node">
<title>Node3</title>
<g id="a_node3"><a xlink:title=" ">
<polygon fill="none" stroke="#bfbfbf" points="3.24,-356.5 3.24,-375.5 59.24,-375.5 59.24,-356.5 3.24,-356.5"/>
<text text-anchor="middle" x="31.24" y="-363.5" font-family="Helvetica,sans-Serif" font-size="10.00">uint32_t</text>
</a>
</g>
</g>
<!-- Node3&#45;&gt;Node1 -->
<g id="edge3" class="edge">
<title>Node3&#45;&gt;Node1</title>
<path fill="none" stroke="#9a32cd" stroke-dasharray="5,2" d="M25.08,-346.56C10.34,-298.94 -22.45,-169.18 24.24,-78 39.02,-49.13 72.68,-29.86 95.19,-19.67"/>
<polygon fill="#9a32cd" stroke="#9a32cd" points="21.84,-347.92 28.23,-356.37 28.51,-345.78 21.84,-347.92"/>
<text text-anchor="middle" x="42.74" y="-191" font-family="Helvetica,sans-Serif" font-size="10.00"> bohc</text>
<text text-anchor="middle" x="42.74" y="-180" font-family="Helvetica,sans-Serif" font-size="10.00">cap</text>
<text text-anchor="middle" x="42.74" y="-169" font-family="Helvetica,sans-Serif" font-size="10.00">cap2</text>
<text text-anchor="middle" x="42.74" y="-158" font-family="Helvetica,sans-Serif" font-size="10.00">ccc_ctl</text>
<text text-anchor="middle" x="42.74" y="-147" font-family="Helvetica,sans-Serif" font-size="10.00">ccc_pts</text>
<text text-anchor="middle" x="42.74" y="-136" font-family="Helvetica,sans-Serif" font-size="10.00">em_ctl</text>
<text text-anchor="middle" x="42.74" y="-125" font-family="Helvetica,sans-Serif" font-size="10.00">em_loc</text>
<text text-anchor="middle" x="42.74" y="-114" font-family="Helvetica,sans-Serif" font-size="10.00">ghc</text>
<text text-anchor="middle" x="42.74" y="-103" font-family="Helvetica,sans-Serif" font-size="10.00">is</text>
<text text-anchor="middle" x="42.74" y="-92" font-family="Helvetica,sans-Serif" font-size="10.00">pi</text>
<text text-anchor="middle" x="42.74" y="-81" font-family="Helvetica,sans-Serif" font-size="10.00">...</text>
</g>
<!-- Node3&#45;&gt;Node2 -->
<g id="edge2" class="edge">
<title>Node3&#45;&gt;Node2</title>
<path fill="none" stroke="#9a32cd" stroke-dasharray="5,2" d="M38.14,-346.89C55.66,-300.95 101.35,-181.16 113.97,-148.07"/>
<polygon fill="#9a32cd" stroke="#9a32cd" points="34.8,-345.84 34.5,-356.44 41.34,-348.34 34.8,-345.84"/>
<text text-anchor="middle" x="98.24" y="-330" font-family="Helvetica,sans-Serif" font-size="10.00"> ci</text>
<text text-anchor="middle" x="98.24" y="-319" font-family="Helvetica,sans-Serif" font-size="10.00">clb</text>
<text text-anchor="middle" x="98.24" y="-308" font-family="Helvetica,sans-Serif" font-size="10.00">clbu</text>
<text text-anchor="middle" x="98.24" y="-297" font-family="Helvetica,sans-Serif" font-size="10.00">cmd</text>
<text text-anchor="middle" x="98.24" y="-286" font-family="Helvetica,sans-Serif" font-size="10.00">fb</text>
<text text-anchor="middle" x="98.24" y="-275" font-family="Helvetica,sans-Serif" font-size="10.00">fbs</text>
<text text-anchor="middle" x="98.24" y="-264" font-family="Helvetica,sans-Serif" font-size="10.00">fbu</text>
<text text-anchor="middle" x="98.24" y="-253" font-family="Helvetica,sans-Serif" font-size="10.00">ie</text>
<text text-anchor="middle" x="98.24" y="-242" font-family="Helvetica,sans-Serif" font-size="10.00">is</text>
<text text-anchor="middle" x="98.24" y="-231" font-family="Helvetica,sans-Serif" font-size="10.00">rsv0</text>
<text text-anchor="middle" x="98.24" y="-220" font-family="Helvetica,sans-Serif" font-size="10.00">...</text>
</g>
<!-- Node4 -->
<g id="node4" class="node">
<title>Node4</title>
<g id="a_node4"><a xlink:title=" ">
<polygon fill="none" stroke="#bfbfbf" points="182.24,-129 182.24,-148 232.24,-148 232.24,-129 182.24,-129"/>
<text text-anchor="middle" x="207.24" y="-136" font-family="Helvetica,sans-Serif" font-size="10.00">uint8_t</text>
</a>
</g>
</g>
<!-- Node4&#45;&gt;Node1 -->
<g id="edge4" class="edge">
<title>Node4&#45;&gt;Node1</title>
<path fill="none" stroke="#9a32cd" stroke-dasharray="5,2" d="M199.2,-119.58C189.3,-98.66 171.08,-63.66 149.24,-38 143.39,-31.14 135.7,-24.59 129.33,-19.66"/>
<polygon fill="#9a32cd" stroke="#9a32cd" points="196.12,-121.25 203.48,-128.86 202.47,-118.31 196.12,-121.25"/>
<text text-anchor="middle" x="181.24" y="-52" font-family="Helvetica,sans-Serif" font-size="10.00"> rsv</text>
<text text-anchor="middle" x="181.24" y="-41" font-family="Helvetica,sans-Serif" font-size="10.00">vendor</text>
</g>
</g>
</svg>
