<?xml version="1.0" encoding="UTF-8" standalone="no"?>
<!DOCTYPE svg PUBLIC "-//W3C//DTD SVG 1.1//EN"
 "http://www.w3.org/Graphics/SVG/1.1/DTD/svg11.dtd">
<!-- Generated by graphviz version 2.43.0 (0)
 -->
<!-- Title: achi_hba_fis_t Pages: 1 -->
<!--zoomable 685 -->
<svg id="main" version="1.1" xmlns="http://www.w3.org/2000/svg" xmlns:xlink="http://www.w3.org/1999/xlink" xml:space="preserve" onload="init(evt)">
<style type="text/css"><![CDATA[
.edge:hover path { stroke: red; }
.edge:hover polygon { stroke: red; fill: red; }
]]></style>
<script type="text/javascript"><![CDATA[
var edges = document.getElementsByTagName('g');
if (edges && edges.length) {
  for (var i=0;i<edges.length;i++) {
    if (edges[i].id.substr(0,4)=='edge') {
      edges[i].setAttribute('class','edge');
    }
  }
}
]]></script>
        <defs>
                <circle id="rim" cx="0" cy="0" r="7"/>
                <circle id="rim2" cx="0" cy="0" r="3.5"/>
                <g id="zoomPlus">
                        <use xlink:href="#rim" fill="#404040">
                                <set attributeName="fill" to="#808080" begin="zoomplus.mouseover" end="zoomplus.mouseout"/>
                        </use>
                        <path d="M-4,0h8M0,-4v8" fill="none" stroke="white" stroke-width="1.5" pointer-events="none"/>
                </g>
                <g id="zoomMin">
                        <use xlink:href="#rim" fill="#404040">
                                <set attributeName="fill" to="#808080" begin="zoomminus.mouseover" end="zoomminus.mouseout"/>
                        </use>
                        <path d="M-4,0h8" fill="none" stroke="white" stroke-width="1.5" pointer-events="none"/>
                </g>
                <g id="dirArrow">
                        <path fill="none" stroke="white" stroke-width="1.5" d="M0,-3.0v7 M-2.5,-0.5L0,-3.0L2.5,-0.5"/>
                </g>
               <g id="resetDef">
                       <use xlink:href="#rim2" fill="#404040">
                               <set attributeName="fill" to="#808080" begin="reset.mouseover" end="reset.mouseout"/>
                       </use>
               </g>
        </defs>

<script type="text/javascript">
var viewWidth = 448;
var viewHeight = 685;
var sectionId = 'dynsection-0';
</script>
<script xlink:href="svgpan.js"/>
<svg id="graph" class="graph">
<g id="viewport">
<title>achi_hba_fis_t</title>
<!-- Node1 -->
<g id="node1" class="node">
<title>Node1</title>
<g id="a_node1"><a xlink:title=" ">
<polygon fill="#bfbfbf" stroke="black" points="354,-326.93 354,-345.93 440,-345.93 440,-326.93 354,-326.93"/>
<text text-anchor="middle" x="397" y="-333.93" font-family="Helvetica,sans-Serif" font-size="10.00">achi_hba_fis_t</text>
</a>
</g>
</g>
<!-- Node2 -->
<g id="node2" class="node">
<title>Node2</title>
<g id="a_node2"><a xlink:href="structahci__fis__dma__setup__t.html" target="_top" xlink:title=" ">
<polygon fill="none" stroke="black" points="164,-570.93 164,-589.93 286,-589.93 286,-570.93 164,-570.93"/>
<text text-anchor="middle" x="225" y="-577.93" font-family="Helvetica,sans-Serif" font-size="10.00">ahci_fis_dma_setup_t</text>
</a>
</g>
</g>
<!-- Node2&#45;&gt;Node1 -->
<g id="edge1" class="edge">
<title>Node2&#45;&gt;Node1</title>
<path fill="none" stroke="#9a32cd" stroke-dasharray="5,2" d="M250.14,-565.24C274.8,-548.61 312.7,-519.82 336,-486.43 369.06,-439.04 387.77,-370.79 393.81,-345.93"/>
<polygon fill="#9a32cd" stroke="#9a32cd" points="248.12,-562.38 241.7,-570.8 251.98,-568.22 248.12,-562.38"/>
<text text-anchor="middle" x="320" y="-525.43" font-family="Helvetica,sans-Serif" font-size="10.00"> dsfis</text>
</g>
<!-- Node3 -->
<g id="node3" class="node">
<title>Node3</title>
<g id="a_node3"><a xlink:title=" ">
<polygon fill="none" stroke="black" points="3,-326.93 3,-345.93 53,-345.93 53,-326.93 3,-326.93"/>
<text text-anchor="middle" x="28" y="-333.93" font-family="Helvetica,sans-Serif" font-size="10.00">uint8_t</text>
</a>
</g>
</g>
<!-- Node3&#45;&gt;Node1 -->
<g id="edge5" class="edge">
<title>Node3&#45;&gt;Node1</title>
<path fill="none" stroke="#9a32cd" stroke-dasharray="5,2" d="M29.76,-356.49C32.03,-384.71 40.79,-435.28 74,-458.43 100.25,-476.72 114.82,-465.63 146,-458.43 242.94,-436.03 345.75,-370.68 382.21,-346.01"/>
<polygon fill="#9a32cd" stroke="#9a32cd" points="33.23,-355.99 29.14,-346.22 26.24,-356.41 33.23,-355.99"/>
<text text-anchor="middle" x="225" y="-500.43" font-family="Helvetica,sans-Serif" font-size="10.00"> pad0</text>
<text text-anchor="middle" x="225" y="-489.43" font-family="Helvetica,sans-Serif" font-size="10.00">pad1</text>
<text text-anchor="middle" x="225" y="-478.43" font-family="Helvetica,sans-Serif" font-size="10.00">pad2</text>
<text text-anchor="middle" x="225" y="-467.43" font-family="Helvetica,sans-Serif" font-size="10.00">rsv</text>
<text text-anchor="middle" x="225" y="-456.43" font-family="Helvetica,sans-Serif" font-size="10.00">ufis</text>
</g>
<!-- Node3&#45;&gt;Node2 -->
<g id="edge2" class="edge">
<title>Node3&#45;&gt;Node2</title>
<path fill="none" stroke="#9a32cd" stroke-dasharray="5,2" d="M29.63,-356.14C31.68,-387.24 40.08,-447.78 74,-483.43 97.46,-508.07 118.23,-489.77 146,-509.43 156.31,-516.72 155.06,-522.5 164,-531.43 178.84,-546.25 197.88,-561.21 210.48,-570.62"/>
<polygon fill="#9a32cd" stroke="#9a32cd" points="33.12,-355.93 29.13,-346.12 26.13,-356.28 33.12,-355.93"/>
<text text-anchor="middle" x="110" y="-578.43" font-family="Helvetica,sans-Serif" font-size="10.00"> a</text>
<text text-anchor="middle" x="110" y="-567.43" font-family="Helvetica,sans-Serif" font-size="10.00">d</text>
<text text-anchor="middle" x="110" y="-556.43" font-family="Helvetica,sans-Serif" font-size="10.00">fis_type</text>
<text text-anchor="middle" x="110" y="-545.43" font-family="Helvetica,sans-Serif" font-size="10.00">i</text>
<text text-anchor="middle" x="110" y="-534.43" font-family="Helvetica,sans-Serif" font-size="10.00">pmport</text>
<text text-anchor="middle" x="110" y="-523.43" font-family="Helvetica,sans-Serif" font-size="10.00">rsv0</text>
<text text-anchor="middle" x="110" y="-512.43" font-family="Helvetica,sans-Serif" font-size="10.00">rsved</text>
</g>
<!-- Node6 -->
<g id="node6" class="node">
<title>Node6</title>
<g id="a_node6"><a xlink:href="structahci__fis__pio__setup__t.html" target="_top" xlink:title=" ">
<polygon fill="none" stroke="black" points="167.5,-182.93 167.5,-201.93 282.5,-201.93 282.5,-182.93 167.5,-182.93"/>
<text text-anchor="middle" x="225" y="-189.93" font-family="Helvetica,sans-Serif" font-size="10.00">ahci_fis_pio_setup_t</text>
</a>
</g>
</g>
<!-- Node3&#45;&gt;Node6 -->
<g id="edge7" class="edge">
<title>Node3&#45;&gt;Node6</title>
<path fill="none" stroke="#9a32cd" stroke-dasharray="5,2" d="M30.01,-316.45C32.59,-288.24 41.73,-237.29 74,-211.43 99.81,-190.74 136.55,-185.82 167.21,-186.15"/>
<polygon fill="#9a32cd" stroke="#9a32cd" points="26.5,-316.46 29.27,-326.69 33.48,-316.97 26.5,-316.46"/>
<text text-anchor="middle" x="110" y="-324.43" font-family="Helvetica,sans-Serif" font-size="10.00"> counth</text>
<text text-anchor="middle" x="110" y="-313.43" font-family="Helvetica,sans-Serif" font-size="10.00">countl</text>
<text text-anchor="middle" x="110" y="-302.43" font-family="Helvetica,sans-Serif" font-size="10.00">d</text>
<text text-anchor="middle" x="110" y="-291.43" font-family="Helvetica,sans-Serif" font-size="10.00">device</text>
<text text-anchor="middle" x="110" y="-280.43" font-family="Helvetica,sans-Serif" font-size="10.00">e_status</text>
<text text-anchor="middle" x="110" y="-269.43" font-family="Helvetica,sans-Serif" font-size="10.00">error</text>
<text text-anchor="middle" x="110" y="-258.43" font-family="Helvetica,sans-Serif" font-size="10.00">fis_type</text>
<text text-anchor="middle" x="110" y="-247.43" font-family="Helvetica,sans-Serif" font-size="10.00">i</text>
<text text-anchor="middle" x="110" y="-236.43" font-family="Helvetica,sans-Serif" font-size="10.00">lba0</text>
<text text-anchor="middle" x="110" y="-225.43" font-family="Helvetica,sans-Serif" font-size="10.00">lba1</text>
<text text-anchor="middle" x="110" y="-214.43" font-family="Helvetica,sans-Serif" font-size="10.00">...</text>
</g>
<!-- Node8 -->
<g id="node8" class="node">
<title>Node8</title>
<g id="a_node8"><a xlink:href="structahci__fis__reg__d2h__t.html" target="_top" xlink:title=" ">
<polygon fill="none" stroke="black" points="171.5,-326.93 171.5,-345.93 278.5,-345.93 278.5,-326.93 171.5,-326.93"/>
<text text-anchor="middle" x="225" y="-333.93" font-family="Helvetica,sans-Serif" font-size="10.00">ahci_fis_reg_d2h_t</text>
</a>
</g>
</g>
<!-- Node3&#45;&gt;Node8 -->
<g id="edge10" class="edge">
<title>Node3&#45;&gt;Node8</title>
<path fill="none" stroke="#9a32cd" stroke-dasharray="5,2" d="M63.66,-336.43C93.57,-336.43 137.24,-336.43 171.45,-336.43"/>
<polygon fill="#9a32cd" stroke="#9a32cd" points="63.3,-332.93 53.3,-336.43 63.3,-339.93 63.3,-332.93"/>
<text text-anchor="middle" x="110" y="-449.43" font-family="Helvetica,sans-Serif" font-size="10.00"> counth</text>
<text text-anchor="middle" x="110" y="-438.43" font-family="Helvetica,sans-Serif" font-size="10.00">countl</text>
<text text-anchor="middle" x="110" y="-427.43" font-family="Helvetica,sans-Serif" font-size="10.00">device</text>
<text text-anchor="middle" x="110" y="-416.43" font-family="Helvetica,sans-Serif" font-size="10.00">error</text>
<text text-anchor="middle" x="110" y="-405.43" font-family="Helvetica,sans-Serif" font-size="10.00">fis_type</text>
<text text-anchor="middle" x="110" y="-394.43" font-family="Helvetica,sans-Serif" font-size="10.00">i</text>
<text text-anchor="middle" x="110" y="-383.43" font-family="Helvetica,sans-Serif" font-size="10.00">lba0</text>
<text text-anchor="middle" x="110" y="-372.43" font-family="Helvetica,sans-Serif" font-size="10.00">lba1</text>
<text text-anchor="middle" x="110" y="-361.43" font-family="Helvetica,sans-Serif" font-size="10.00">lba2</text>
<text text-anchor="middle" x="110" y="-350.43" font-family="Helvetica,sans-Serif" font-size="10.00">lba3</text>
<text text-anchor="middle" x="110" y="-339.43" font-family="Helvetica,sans-Serif" font-size="10.00">...</text>
</g>
<!-- Node9 -->
<g id="node9" class="node">
<title>Node9</title>
<g id="a_node9"><a xlink:href="structahci__fis__dev__bits__t.html" target="_top" xlink:title=" ">
<polygon fill="none" stroke="black" points="170.5,-91.93 170.5,-110.93 279.5,-110.93 279.5,-91.93 170.5,-91.93"/>
<text text-anchor="middle" x="225" y="-98.93" font-family="Helvetica,sans-Serif" font-size="10.00">ahci_fis_dev_bits_t</text>
</a>
</g>
</g>
<!-- Node3&#45;&gt;Node9 -->
<g id="edge12" class="edge">
<title>Node3&#45;&gt;Node9</title>
<path fill="none" stroke="#9a32cd" stroke-dasharray="5,2" d="M29.09,-316.65C29.83,-259.35 35.33,-95.27 74,-62.43 115.02,-27.59 183.5,-70.99 211.5,-91.64"/>
<polygon fill="#9a32cd" stroke="#9a32cd" points="25.59,-316.86 29,-326.89 32.59,-316.92 25.59,-316.86"/>
<text text-anchor="middle" x="110" y="-175.43" font-family="Helvetica,sans-Serif" font-size="10.00"> error</text>
<text text-anchor="middle" x="110" y="-164.43" font-family="Helvetica,sans-Serif" font-size="10.00">fis_type</text>
<text text-anchor="middle" x="110" y="-153.43" font-family="Helvetica,sans-Serif" font-size="10.00">i</text>
<text text-anchor="middle" x="110" y="-142.43" font-family="Helvetica,sans-Serif" font-size="10.00">n</text>
<text text-anchor="middle" x="110" y="-131.43" font-family="Helvetica,sans-Serif" font-size="10.00">pmport</text>
<text text-anchor="middle" x="110" y="-120.43" font-family="Helvetica,sans-Serif" font-size="10.00">rsvd</text>
<text text-anchor="middle" x="110" y="-109.43" font-family="Helvetica,sans-Serif" font-size="10.00">rsvd2</text>
<text text-anchor="middle" x="110" y="-98.43" font-family="Helvetica,sans-Serif" font-size="10.00">rsvd3</text>
<text text-anchor="middle" x="110" y="-87.43" font-family="Helvetica,sans-Serif" font-size="10.00">statush</text>
<text text-anchor="middle" x="110" y="-76.43" font-family="Helvetica,sans-Serif" font-size="10.00">statusl</text>
<text text-anchor="middle" x="110" y="-65.43" font-family="Helvetica,sans-Serif" font-size="10.00">...</text>
</g>
<!-- Node4 -->
<g id="node4" class="node">
<title>Node4</title>
<g id="a_node4"><a xlink:title=" ">
<polygon fill="none" stroke="black" points="0,-595.93 0,-614.93 56,-614.93 56,-595.93 0,-595.93"/>
<text text-anchor="middle" x="28" y="-602.93" font-family="Helvetica,sans-Serif" font-size="10.00">uint64_t</text>
</a>
</g>
</g>
<!-- Node4&#45;&gt;Node2 -->
<g id="edge3" class="edge">
<title>Node4&#45;&gt;Node2</title>
<path fill="none" stroke="#9a32cd" stroke-dasharray="5,2" d="M66.13,-600.67C93.71,-597.13 131.92,-592.23 163.84,-588.14"/>
<polygon fill="#9a32cd" stroke="#9a32cd" points="65.59,-597.21 56.11,-601.95 66.48,-604.15 65.59,-597.21"/>
<text text-anchor="middle" x="110" y="-601.43" font-family="Helvetica,sans-Serif" font-size="10.00"> DMAbufferID</text>
</g>
<!-- Node5 -->
<g id="node5" class="node">
<title>Node5</title>
<g id="a_node5"><a xlink:title=" ">
<polygon fill="none" stroke="black" points="0,-633.93 0,-652.93 56,-652.93 56,-633.93 0,-633.93"/>
<text text-anchor="middle" x="28" y="-640.93" font-family="Helvetica,sans-Serif" font-size="10.00">uint32_t</text>
</a>
</g>
</g>
<!-- Node5&#45;&gt;Node2 -->
<g id="edge4" class="edge">
<title>Node5&#45;&gt;Node2</title>
<path fill="none" stroke="#9a32cd" stroke-dasharray="5,2" d="M66.09,-635.41C89.3,-630.03 119.69,-622.31 146,-613.43 166.06,-606.65 188.23,-597.06 203.79,-589.96"/>
<polygon fill="#9a32cd" stroke="#9a32cd" points="65.26,-632.01 56.29,-637.64 66.82,-638.83 65.26,-632.01"/>
<text text-anchor="middle" x="110" y="-669.43" font-family="Helvetica,sans-Serif" font-size="10.00"> DMAbufOffset</text>
<text text-anchor="middle" x="110" y="-658.43" font-family="Helvetica,sans-Serif" font-size="10.00">TransferCount</text>
<text text-anchor="middle" x="110" y="-647.43" font-family="Helvetica,sans-Serif" font-size="10.00">resvd</text>
<text text-anchor="middle" x="110" y="-636.43" font-family="Helvetica,sans-Serif" font-size="10.00">rsvd</text>
</g>
<!-- Node6&#45;&gt;Node1 -->
<g id="edge6" class="edge">
<title>Node6&#45;&gt;Node1</title>
<path fill="none" stroke="#9a32cd" stroke-dasharray="5,2" d="M245.17,-208.66C280.75,-238.81 356.01,-302.56 384.63,-326.8"/>
<polygon fill="#9a32cd" stroke="#9a32cd" points="247.31,-205.89 237.42,-202.1 242.79,-211.23 247.31,-205.89"/>
<text text-anchor="middle" x="320" y="-285.43" font-family="Helvetica,sans-Serif" font-size="10.00"> psfis</text>
</g>
<!-- Node7 -->
<g id="node7" class="node">
<title>Node7</title>
<g id="a_node7"><a xlink:title=" ">
<polygon fill="none" stroke="black" points="0,-4.93 0,-23.93 56,-23.93 56,-4.93 0,-4.93"/>
<text text-anchor="middle" x="28" y="-11.93" font-family="Helvetica,sans-Serif" font-size="10.00">uint16_t</text>
</a>
</g>
</g>
<!-- Node7&#45;&gt;Node6 -->
<g id="edge8" class="edge">
<title>Node7&#45;&gt;Node6</title>
<path fill="none" stroke="#9a32cd" stroke-dasharray="5,2" d="M66.09,-3.48C91.5,1.58 124.38,2.97 146,-15.43 182.07,-46.1 144.17,-77.43 164,-120.43 175.86,-146.13 199.32,-170.16 213.13,-182.91"/>
<polygon fill="#9a32cd" stroke="#9a32cd" points="65.05,-0.12 56.07,-5.73 66.59,-6.95 65.05,-0.12"/>
<text text-anchor="middle" x="110" y="-18.43" font-family="Helvetica,sans-Serif" font-size="10.00"> tc</text>
</g>
<!-- Node8&#45;&gt;Node1 -->
<g id="edge9" class="edge">
<title>Node8&#45;&gt;Node1</title>
<path fill="none" stroke="#9a32cd" stroke-dasharray="5,2" d="M288.98,-336.43C310.65,-336.43 334.37,-336.43 353.96,-336.43"/>
<polygon fill="#9a32cd" stroke="#9a32cd" points="288.86,-332.93 278.86,-336.43 288.86,-339.93 288.86,-332.93"/>
<text text-anchor="middle" x="320" y="-339.43" font-family="Helvetica,sans-Serif" font-size="10.00"> rfis</text>
</g>
<!-- Node9&#45;&gt;Node1 -->
<g id="edge11" class="edge">
<title>Node9&#45;&gt;Node1</title>
<path fill="none" stroke="#9a32cd" stroke-dasharray="5,2" d="M241.04,-118.6C253.44,-132.97 271.33,-154.16 286,-173.43 328.61,-229.38 373.87,-300.83 389.93,-326.6"/>
<polygon fill="#9a32cd" stroke="#9a32cd" points="243.63,-116.24 234.43,-110.99 238.34,-120.83 243.63,-116.24"/>
<text text-anchor="middle" x="320" y="-242.43" font-family="Helvetica,sans-Serif" font-size="10.00"> sdbfis</text>
</g>
</g>
</svg>
        <g id="navigator" transform="translate(0 0)" fill="#404254">
                <rect fill="#f2f5e9" fill-opacity="0.5" stroke="#606060" stroke-width=".5" x="0" y="0" width="60" height="60"/>
                <use id="zoomplus" xlink:href="#zoomPlus" x="17" y="9" onmousedown="handleZoom(evt,'in')"/>
                <use id="zoomminus" xlink:href="#zoomMin" x="42" y="9" onmousedown="handleZoom(evt,'out')"/>
                <use id="reset" xlink:href="#resetDef" x="30" y="36" onmousedown="handleReset()"/>
                <g id="arrowUp" xlink:href="#dirArrow" transform="translate(30 24)" onmousedown="handlePan(0,-1)">
                  <use xlink:href="#rim" fill="#404040">
                        <set attributeName="fill" to="#808080" begin="arrowUp.mouseover" end="arrowUp.mouseout"/>
                  </use>
                  <path fill="none" stroke="white" stroke-width="1.5" d="M0,-3.0v7 M-2.5,-0.5L0,-3.0L2.5,-0.5"/>
                </g>
                <g id="arrowRight" xlink:href="#dirArrow" transform="rotate(90) translate(36 -43)" onmousedown="handlePan(1,0)">
                  <use xlink:href="#rim" fill="#404040">
                        <set attributeName="fill" to="#808080" begin="arrowRight.mouseover" end="arrowRight.mouseout"/>
                  </use>
                  <path fill="none" stroke="white" stroke-width="1.5" d="M0,-3.0v7 M-2.5,-0.5L0,-3.0L2.5,-0.5"/>
                </g>
                <g id="arrowDown" xlink:href="#dirArrow" transform="rotate(180) translate(-30 -48)" onmousedown="handlePan(0,1)">
                  <use xlink:href="#rim" fill="#404040">
                        <set attributeName="fill" to="#808080" begin="arrowDown.mouseover" end="arrowDown.mouseout"/>
                  </use>
                  <path fill="none" stroke="white" stroke-width="1.5" d="M0,-3.0v7 M-2.5,-0.5L0,-3.0L2.5,-0.5"/>
                </g>
                <g id="arrowLeft" xlink:href="#dirArrow" transform="rotate(270) translate(-36 17)" onmousedown="handlePan(-1,0)">
                  <use xlink:href="#rim" fill="#404040">
                        <set attributeName="fill" to="#808080" begin="arrowLeft.mouseover" end="arrowLeft.mouseout"/>
                  </use>
                  <path fill="none" stroke="white" stroke-width="1.5" d="M0,-3.0v7 M-2.5,-0.5L0,-3.0L2.5,-0.5"/>
                </g>
        </g>
        <svg viewBox="0 0 15 15" width="100%" height="30px" preserveAspectRatio="xMaxYMin meet">
         <g id="arrow_out" transform="scale(0.3 0.3)">
          <a xlink:href="structachi__hba__fis__t__coll__graph_org.svg" target="_base">
           <rect id="button" ry="5" rx="5" y="6" x="6" height="38" width="38"
                fill="#f2f5e9" fill-opacity="0.5" stroke="#606060" stroke-width="1.0"/>
           <path id="arrow"
             d="M 11.500037,31.436501 C 11.940474,20.09759 22.043105,11.32322 32.158766,21.979434 L 37.068811,17.246167 C 37.068811,17.246167 37.088388,32 37.088388,32 L 22.160133,31.978069 C 22.160133,31.978069 26.997745,27.140456 26.997745,27.140456 C 18.528582,18.264221 13.291696,25.230495 11.500037,31.436501 z"
             style="fill:#404040;"/>
          </a>
         </g>
        </svg>
</svg>
