<?xml version="1.0" encoding="UTF-8" standalone="no"?>
<!DOCTYPE svg PUBLIC "-//W3C//DTD SVG 1.1//EN"
 "http://www.w3.org/Graphics/SVG/1.1/DTD/svg11.dtd">
<!-- Generated by graphviz version 2.43.0 (0)
 -->
<!-- Title: elf_rela Pages: 1 -->
<svg width="143pt" height="106pt"
 viewBox="0.00 0.00 143.00 106.00" xmlns="http://www.w3.org/2000/svg" xmlns:xlink="http://www.w3.org/1999/xlink">
<g id="graph0" class="graph" transform="scale(1 1) rotate(0) translate(4 102)">
<title>elf_rela</title>
<!-- Node1 -->
<g id="node1" class="node">
<title>Node1</title>
<g id="a_node1"><a xlink:title="ELF relocation with addend (ELF64)">
<polygon fill="#bfbfbf" stroke="black" points="36.5,-0.5 36.5,-19.5 89.5,-19.5 89.5,-0.5 36.5,-0.5"/>
<text text-anchor="middle" x="63" y="-7.5" font-family="Helvetica,sans-Serif" font-size="10.00">elf_rela</text>
</a>
</g>
</g>
<!-- Node2 -->
<g id="node2" class="node">
<title>Node2</title>
<g id="a_node2"><a xlink:title=" ">
<polygon fill="none" stroke="#bfbfbf" points="0,-78.5 0,-97.5 56,-97.5 56,-78.5 0,-78.5"/>
<text text-anchor="middle" x="28" y="-85.5" font-family="Helvetica,sans-Serif" font-size="10.00">uint64_t</text>
</a>
</g>
</g>
<!-- Node2&#45;&gt;Node1 -->
<g id="edge1" class="edge">
<title>Node2&#45;&gt;Node1</title>
<path fill="none" stroke="#9a32cd" stroke-dasharray="5,2" d="M30.48,-68.3C32.24,-58.85 35.18,-47.42 40,-38 43.48,-31.2 48.98,-24.66 53.73,-19.71"/>
<polygon fill="#9a32cd" stroke="#9a32cd" points="27.01,-67.83 28.9,-78.25 33.92,-68.92 27.01,-67.83"/>
<text text-anchor="middle" x="58.5" y="-52" font-family="Helvetica,sans-Serif" font-size="10.00"> r_info</text>
<text text-anchor="middle" x="58.5" y="-41" font-family="Helvetica,sans-Serif" font-size="10.00">r_offset</text>
</g>
<!-- Node3 -->
<g id="node3" class="node">
<title>Node3</title>
<g id="a_node3"><a xlink:title=" ">
<polygon fill="none" stroke="#bfbfbf" points="74,-78.5 74,-97.5 124,-97.5 124,-78.5 74,-78.5"/>
<text text-anchor="middle" x="99" y="-85.5" font-family="Helvetica,sans-Serif" font-size="10.00">int64_t</text>
</a>
</g>
</g>
<!-- Node3&#45;&gt;Node1 -->
<g id="edge2" class="edge">
<title>Node3&#45;&gt;Node1</title>
<path fill="none" stroke="#9a32cd" stroke-dasharray="5,2" d="M91.15,-68.88C87.06,-59.59 81.89,-48.13 77,-38 74.06,-31.91 70.56,-25.16 67.79,-19.94"/>
<polygon fill="#9a32cd" stroke="#9a32cd" points="88.04,-70.49 95.25,-78.26 94.46,-67.69 88.04,-70.49"/>
<text text-anchor="middle" x="110.5" y="-46.5" font-family="Helvetica,sans-Serif" font-size="10.00"> r_addend</text>
</g>
</g>
</svg>
