<?xml version="1.0" encoding="UTF-8" standalone="no"?>
<!DOCTYPE svg PUBLIC "-//W3C//DTD SVG 1.1//EN"
 "http://www.w3.org/Graphics/SVG/1.1/DTD/svg11.dtd">
<!-- Generated by graphviz version 2.43.0 (0)
 -->
<!-- Title: ub_var_string_array Pages: 1 -->
<svg width="174pt" height="106pt"
 viewBox="0.00 0.00 173.50 106.00" xmlns="http://www.w3.org/2000/svg" xmlns:xlink="http://www.w3.org/1999/xlink">
<g id="graph0" class="graph" transform="scale(1 1) rotate(0) translate(4 102)">
<title>ub_var_string_array</title>
<!-- Node1 -->
<g id="node1" class="node">
<title>Node1</title>
<g id="a_node1"><a xlink:title="An array of strings.">
<polygon fill="#bfbfbf" stroke="black" points="9.5,-0.5 9.5,-19.5 122.5,-19.5 122.5,-0.5 9.5,-0.5"/>
<text text-anchor="middle" x="66" y="-7.5" font-family="Helvetica,sans-Serif" font-size="10.00">ub_var_string_array</text>
</a>
</g>
</g>
<!-- Node1&#45;&gt;Node1 -->
<g id="edge3" class="edge">
<title>Node1&#45;&gt;Node1</title>
<path fill="none" stroke="#9a32cd" stroke-dasharray="5,2" d="M132.49,-15.31C137.45,-14.12 140.5,-12.35 140.5,-10 140.5,-6.33 133.07,-4.07 122.53,-3.24"/>
<polygon fill="#9a32cd" stroke="#9a32cd" points="131.92,-11.86 122.53,-16.76 132.92,-18.78 131.92,-11.86"/>
<text text-anchor="middle" x="153" y="-7.5" font-family="Helvetica,sans-Serif" font-size="10.00"> next</text>
</g>
<!-- Node2 -->
<g id="node2" class="node">
<title>Node2</title>
<g id="a_node2"><a xlink:title=" ">
<polygon fill="none" stroke="black" points="0,-78.5 0,-97.5 56,-97.5 56,-78.5 0,-78.5"/>
<text text-anchor="middle" x="28" y="-85.5" font-family="Helvetica,sans-Serif" font-size="10.00">uint64_t</text>
</a>
</g>
</g>
<!-- Node2&#45;&gt;Node1 -->
<g id="edge1" class="edge">
<title>Node2&#45;&gt;Node1</title>
<path fill="none" stroke="#9a32cd" stroke-dasharray="5,2" d="M24.6,-68.39C23.75,-58.8 24.2,-47.22 29,-38 33.12,-30.1 40.71,-23.95 47.96,-19.52"/>
<polygon fill="#9a32cd" stroke="#9a32cd" points="21.15,-69.05 26,-78.47 28.09,-68.08 21.15,-69.05"/>
<text text-anchor="middle" x="55.5" y="-46.5" font-family="Helvetica,sans-Serif" font-size="10.00"> itemcount</text>
</g>
<!-- Node3 -->
<g id="node3" class="node">
<title>Node3</title>
<g id="a_node3"><a xlink:title=" ">
<polygon fill="none" stroke="black" points="85,-78.5 85,-97.5 123,-97.5 123,-78.5 85,-78.5"/>
<text text-anchor="middle" x="104" y="-85.5" font-family="Helvetica,sans-Serif" font-size="10.00">char</text>
</a>
</g>
</g>
<!-- Node3&#45;&gt;Node1 -->
<g id="edge2" class="edge">
<title>Node3&#45;&gt;Node1</title>
<path fill="none" stroke="#9a32cd" stroke-dasharray="5,2" d="M96.39,-68.76C92.36,-59.44 87.18,-47.98 82,-38 78.79,-31.81 74.79,-25.06 71.59,-19.86"/>
<polygon fill="#9a32cd" stroke="#9a32cd" points="93.27,-70.35 100.4,-78.18 99.71,-67.61 93.27,-70.35"/>
<text text-anchor="middle" x="114" y="-52" font-family="Helvetica,sans-Serif" font-size="10.00"> values</text>
<text text-anchor="middle" x="114" y="-41" font-family="Helvetica,sans-Serif" font-size="10.00">varname</text>
</g>
</g>
</svg>
