<?xml version="1.0" encoding="UTF-8" standalone="no"?>
<!DOCTYPE svg PUBLIC "-//W3C//DTD SVG 1.1//EN"
 "http://www.w3.org/Graphics/SVG/1.1/DTD/svg11.dtd">
<!-- Generated by graphviz version 2.43.0 (0)
 -->
<!-- Title: netproto_t Pages: 1 -->
<svg width="282pt" height="184pt"
 viewBox="0.00 0.00 282.00 184.00" xmlns="http://www.w3.org/2000/svg" xmlns:xlink="http://www.w3.org/1999/xlink">
<g id="graph0" class="graph" transform="scale(1 1) rotate(0) translate(4 180)">
<title>netproto_t</title>
<!-- Node1 -->
<g id="node1" class="node">
<title>Node1</title>
<g id="a_node1"><a xlink:title="Represents a protocol, or group of related protocols, that can be attached to an interface and can ha...">
<polygon fill="#bfbfbf" stroke="black" points="62.5,-0.5 62.5,-19.5 129.5,-19.5 129.5,-0.5 62.5,-0.5"/>
<text text-anchor="middle" x="96" y="-7.5" font-family="Helvetica,sans-Serif" font-size="10.00">netproto_t</text>
</a>
</g>
</g>
<!-- Node2 -->
<g id="node2" class="node">
<title>Node2</title>
<g id="a_node2"><a xlink:title=" ">
<polygon fill="none" stroke="black" points="0,-156.5 0,-175.5 38,-175.5 38,-156.5 0,-156.5"/>
<text text-anchor="middle" x="19" y="-163.5" font-family="Helvetica,sans-Serif" font-size="10.00">char</text>
</a>
</g>
</g>
<!-- Node2&#45;&gt;Node1 -->
<g id="edge1" class="edge">
<title>Node2&#45;&gt;Node1</title>
<path fill="none" stroke="#9a32cd" stroke-dasharray="5,2" d="M12.67,-146.61C7.49,-128.29 2.57,-99.82 13,-78 26.34,-50.1 57.59,-30.09 77.72,-19.55"/>
<polygon fill="#9a32cd" stroke="#9a32cd" points="9.38,-147.83 15.71,-156.32 16.06,-145.73 9.38,-147.83"/>
<text text-anchor="middle" x="28.5" y="-85.5" font-family="Helvetica,sans-Serif" font-size="10.00"> name</text>
</g>
<!-- Node4 -->
<g id="node4" class="node">
<title>Node4</title>
<g id="a_node4"><a xlink:href="structnet__address__t.html" target="_top" xlink:title="Represents an address that is bound to a protocol on an interface. This is kept as flexible as possib...">
<polygon fill="none" stroke="black" points="53.5,-78.5 53.5,-97.5 138.5,-97.5 138.5,-78.5 53.5,-78.5"/>
<text text-anchor="middle" x="96" y="-85.5" font-family="Helvetica,sans-Serif" font-size="10.00">net_address_t</text>
</a>
</g>
</g>
<!-- Node2&#45;&gt;Node4 -->
<g id="edge4" class="edge">
<title>Node2&#45;&gt;Node4</title>
<path fill="none" stroke="#9a32cd" stroke-dasharray="5,2" d="M31.84,-148.35C39.78,-138.5 50.44,-126.03 61,-116 68.01,-109.34 76.6,-102.7 83.51,-97.66"/>
<polygon fill="#9a32cd" stroke="#9a32cd" points="29.09,-146.19 25.64,-156.21 34.58,-150.53 29.09,-146.19"/>
<text text-anchor="middle" x="76.5" y="-124.5" font-family="Helvetica,sans-Serif" font-size="10.00"> name</text>
</g>
<!-- Node3 -->
<g id="node3" class="node">
<title>Node3</title>
<g id="a_node3"><a xlink:title=" ">
<polygon fill="none" stroke="black" points="157,-78.5 157,-97.5 213,-97.5 213,-78.5 157,-78.5"/>
<text text-anchor="middle" x="185" y="-85.5" font-family="Helvetica,sans-Serif" font-size="10.00">uint16_t</text>
</a>
</g>
</g>
<!-- Node3&#45;&gt;Node1 -->
<g id="edge2" class="edge">
<title>Node3&#45;&gt;Node1</title>
<path fill="none" stroke="#9a32cd" stroke-dasharray="5,2" d="M176.48,-69.15C170.93,-58.99 162.88,-46.62 153,-38 143.92,-30.08 132.12,-23.98 121.62,-19.6"/>
<polygon fill="#9a32cd" stroke="#9a32cd" points="173.51,-71.03 181.18,-78.35 179.75,-67.85 173.51,-71.03"/>
<text text-anchor="middle" x="222" y="-52" font-family="Helvetica,sans-Serif" font-size="10.00"> ethernet_protocol_id</text>
<text text-anchor="middle" x="222" y="-41" font-family="Helvetica,sans-Serif" font-size="10.00">num_addresses</text>
</g>
<!-- Node4&#45;&gt;Node1 -->
<g id="edge3" class="edge">
<title>Node4&#45;&gt;Node1</title>
<path fill="none" stroke="#9a32cd" stroke-dasharray="5,2" d="M96,-68.22C96,-52.7 96,-31.36 96,-19.62"/>
<polygon fill="#9a32cd" stroke="#9a32cd" points="92.5,-68.28 96,-78.28 99.5,-68.28 92.5,-68.28"/>
<text text-anchor="middle" x="122.5" y="-46.5" font-family="Helvetica,sans-Serif" font-size="10.00"> addresses</text>
</g>
<!-- Node5 -->
<g id="node5" class="node">
<title>Node5</title>
<g id="a_node5"><a xlink:title=" ">
<polygon fill="none" stroke="black" points="71,-156.5 71,-175.5 121,-175.5 121,-156.5 71,-156.5"/>
<text text-anchor="middle" x="96" y="-163.5" font-family="Helvetica,sans-Serif" font-size="10.00">uint8_t</text>
</a>
</g>
</g>
<!-- Node5&#45;&gt;Node4 -->
<g id="edge5" class="edge">
<title>Node5&#45;&gt;Node4</title>
<path fill="none" stroke="#9a32cd" stroke-dasharray="5,2" d="M96,-146.22C96,-130.7 96,-109.36 96,-97.62"/>
<polygon fill="#9a32cd" stroke="#9a32cd" points="92.5,-146.28 96,-156.28 99.5,-146.28 92.5,-146.28"/>
<text text-anchor="middle" x="111.5" y="-130" font-family="Helvetica,sans-Serif" font-size="10.00"> bytes</text>
<text text-anchor="middle" x="111.5" y="-119" font-family="Helvetica,sans-Serif" font-size="10.00">length</text>
</g>
</g>
</svg>
