<?xml version="1.0" encoding="UTF-8" standalone="no"?>
<!DOCTYPE svg PUBLIC "-//W3C//DTD SVG 1.1//EN"
 "http://www.w3.org/Graphics/SVG/1.1/DTD/svg11.dtd">
<!-- Generated by graphviz version 2.43.0 (0)
 -->
<!-- Title: rfs_description_block_padded_t Pages: 1 -->
<svg width="268pt" height="228pt"
 viewBox="0.00 0.00 268.00 228.00" xmlns="http://www.w3.org/2000/svg" xmlns:xlink="http://www.w3.org/1999/xlink">
<g id="graph0" class="graph" transform="scale(1 1) rotate(0) translate(4 224)">
<title>rfs_description_block_padded_t</title>
<!-- Node1 -->
<g id="node1" class="node">
<title>Node1</title>
<g id="a_node1"><a xlink:title="Padded variant of the description block to exactly fill one sector.">
<polygon fill="#bfbfbf" stroke="black" points="100,-0.5 100,-30.5 220,-30.5 220,-0.5 100,-0.5"/>
<text text-anchor="start" x="108" y="-18.5" font-family="Helvetica,sans-Serif" font-size="10.00">rfs_description_block</text>
<text text-anchor="middle" x="160" y="-7.5" font-family="Helvetica,sans-Serif" font-size="10.00">_padded_t</text>
</a>
</g>
</g>
<!-- Node2 -->
<g id="node2" class="node">
<title>Node2</title>
<g id="a_node2"><a xlink:href="structrfs__description__block__t.html" target="_top" xlink:title="On&#45;disk description block containing global filesystem metadata.">
<polygon fill="none" stroke="black" points="44.5,-78.5 44.5,-97.5 173.5,-97.5 173.5,-78.5 44.5,-78.5"/>
<text text-anchor="middle" x="109" y="-85.5" font-family="Helvetica,sans-Serif" font-size="10.00">rfs_description_block_t</text>
</a>
</g>
</g>
<!-- Node2&#45;&gt;Node1 -->
<g id="edge1" class="edge">
<title>Node2&#45;&gt;Node1</title>
<path fill="none" stroke="#9a32cd" stroke-dasharray="5,2" d="M121.27,-70.04C130,-57.97 141.6,-41.94 149.82,-30.58"/>
<polygon fill="#9a32cd" stroke="#9a32cd" points="118.28,-68.2 115.25,-78.36 123.95,-72.3 118.28,-68.2"/>
<text text-anchor="middle" x="150" y="-52" font-family="Helvetica,sans-Serif" font-size="10.00"> desc</text>
</g>
<!-- Node3 -->
<g id="node3" class="node">
<title>Node3</title>
<g id="a_node3"><a xlink:title=" ">
<polygon fill="none" stroke="#bfbfbf" points="0,-200.5 0,-219.5 56,-219.5 56,-200.5 0,-200.5"/>
<text text-anchor="middle" x="28" y="-207.5" font-family="Helvetica,sans-Serif" font-size="10.00">uint64_t</text>
</a>
</g>
</g>
<!-- Node3&#45;&gt;Node2 -->
<g id="edge2" class="edge">
<title>Node3&#45;&gt;Node2</title>
<path fill="none" stroke="#9a32cd" stroke-dasharray="5,2" d="M22.39,-190.41C17.47,-170.11 13.31,-137.61 29,-116 35.2,-107.46 44.24,-101.59 54.04,-97.56"/>
<polygon fill="#9a32cd" stroke="#9a32cd" points="19.07,-191.56 25.07,-200.29 25.83,-189.72 19.07,-191.56"/>
<text text-anchor="middle" x="98.5" y="-174" font-family="Helvetica,sans-Serif" font-size="10.00"> free_space_map_checksum</text>
<text text-anchor="middle" x="98.5" y="-163" font-family="Helvetica,sans-Serif" font-size="10.00">free_space_map_length</text>
<text text-anchor="middle" x="98.5" y="-152" font-family="Helvetica,sans-Serif" font-size="10.00">free_space_map_start</text>
<text text-anchor="middle" x="98.5" y="-141" font-family="Helvetica,sans-Serif" font-size="10.00">identifier</text>
<text text-anchor="middle" x="98.5" y="-130" font-family="Helvetica,sans-Serif" font-size="10.00">root_directory</text>
<text text-anchor="middle" x="98.5" y="-119" font-family="Helvetica,sans-Serif" font-size="10.00">sequence</text>
</g>
<!-- Node4 -->
<g id="node4" class="node">
<title>Node4</title>
<g id="a_node4"><a xlink:title=" ">
<polygon fill="none" stroke="#bfbfbf" points="165,-200.5 165,-219.5 215,-219.5 215,-200.5 165,-200.5"/>
<text text-anchor="middle" x="190" y="-207.5" font-family="Helvetica,sans-Serif" font-size="10.00">int64_t</text>
</a>
</g>
</g>
<!-- Node4&#45;&gt;Node2 -->
<g id="edge3" class="edge">
<title>Node4&#45;&gt;Node2</title>
<path fill="none" stroke="#9a32cd" stroke-dasharray="5,2" d="M190.22,-190.29C189.5,-169.86 185.41,-137.22 168,-116 161.07,-107.55 150.92,-101.63 140.99,-97.53"/>
<polygon fill="#9a32cd" stroke="#9a32cd" points="186.73,-190.52 190.34,-200.48 193.73,-190.45 186.73,-190.52"/>
<text text-anchor="middle" x="224.5" y="-146.5" font-family="Helvetica,sans-Serif" font-size="10.00"> creation_time</text>
</g>
<!-- Node5 -->
<g id="node5" class="node">
<title>Node5</title>
<g id="a_node5"><a xlink:title=" ">
<polygon fill="none" stroke="#bfbfbf" points="192,-78.5 192,-97.5 230,-97.5 230,-78.5 192,-78.5"/>
<text text-anchor="middle" x="211" y="-85.5" font-family="Helvetica,sans-Serif" font-size="10.00">char</text>
</a>
</g>
</g>
<!-- Node5&#45;&gt;Node1 -->
<g id="edge4" class="edge">
<title>Node5&#45;&gt;Node1</title>
<path fill="none" stroke="#9a32cd" stroke-dasharray="5,2" d="M198.73,-70.04C190,-57.97 178.4,-41.94 170.18,-30.58"/>
<polygon fill="#9a32cd" stroke="#9a32cd" points="196.05,-72.3 204.75,-78.36 201.72,-68.2 196.05,-72.3"/>
<text text-anchor="middle" x="201" y="-52" font-family="Helvetica,sans-Serif" font-size="10.00"> raw</text>
</g>
</g>
</svg>
