<?xml version="1.0" encoding="UTF-8" standalone="no"?>
<!DOCTYPE svg PUBLIC "-//W3C//DTD SVG 1.1//EN"
 "http://www.w3.org/Graphics/SVG/1.1/DTD/svg11.dtd">
<!-- Generated by graphviz version 2.43.0 (0)
 -->
<!-- Title: rfs_directory_entry_t Pages: 1 -->
<svg width="407pt" height="217pt"
 viewBox="0.00 0.00 407.50 217.00" xmlns="http://www.w3.org/2000/svg" xmlns:xlink="http://www.w3.org/1999/xlink">
<g id="graph0" class="graph" transform="scale(1 1) rotate(0) translate(4 213)">
<title>rfs_directory_entry_t</title>
<!-- Node1 -->
<g id="node1" class="node">
<title>Node1</title>
<g id="a_node1"><a xlink:title=" ">
<polygon fill="#bfbfbf" stroke="black" points="39.5,-0.5 39.5,-19.5 157.5,-19.5 157.5,-0.5 39.5,-0.5"/>
<text text-anchor="middle" x="98.5" y="-7.5" font-family="Helvetica,sans-Serif" font-size="10.00">rfs_directory_entry_t</text>
</a>
</g>
</g>
<!-- Node2 -->
<g id="node2" class="node">
<title>Node2</title>
<g id="a_node2"><a xlink:title=" ">
<polygon fill="none" stroke="#bfbfbf" points="10.5,-189.5 10.5,-208.5 48.5,-208.5 48.5,-189.5 10.5,-189.5"/>
<text text-anchor="middle" x="29.5" y="-196.5" font-family="Helvetica,sans-Serif" font-size="10.00">char</text>
</a>
</g>
</g>
<!-- Node2&#45;&gt;Node1 -->
<g id="edge1" class="edge">
<title>Node2&#45;&gt;Node1</title>
<path fill="none" stroke="#9a32cd" stroke-dasharray="5,2" d="M20.16,-180.23C7.69,-153.83 -10.63,-103.45 9.5,-67 22.73,-43.03 51.02,-27.92 72.17,-19.52"/>
<polygon fill="#9a32cd" stroke="#9a32cd" points="17.13,-181.99 24.72,-189.39 23.4,-178.88 17.13,-181.99"/>
<text text-anchor="middle" x="20.5" y="-80" font-family="Helvetica,sans-Serif" font-size="10.00"> raw</text>
</g>
<!-- Node3 -->
<g id="node3" class="node">
<title>Node3</title>
<g id="a_node3"><a xlink:href="structrfs__directory__start__t.html" target="_top" xlink:title=" ">
<polygon fill="none" stroke="black" points="41,-73 41,-92 156,-92 156,-73 41,-73"/>
<text text-anchor="middle" x="98.5" y="-80" font-family="Helvetica,sans-Serif" font-size="10.00">rfs_directory_start_t</text>
</a>
</g>
</g>
<!-- Node2&#45;&gt;Node3 -->
<g id="edge4" class="edge">
<title>Node2&#45;&gt;Node3</title>
<path fill="none" stroke="#9a32cd" stroke-dasharray="5,2" d="M24.46,-179.29C20.82,-161.55 18.43,-134.89 30.5,-116 37.82,-104.53 50.42,-97.02 62.8,-92.14"/>
<polygon fill="#9a32cd" stroke="#9a32cd" points="21.11,-180.34 26.83,-189.26 27.92,-178.72 21.11,-180.34"/>
<text text-anchor="middle" x="53.5" y="-146.5" font-family="Helvetica,sans-Serif" font-size="10.00"> reserved</text>
<text text-anchor="middle" x="53.5" y="-135.5" font-family="Helvetica,sans-Serif" font-size="10.00">title</text>
</g>
<!-- Node6 -->
<g id="node6" class="node">
<title>Node6</title>
<g id="a_node6"><a xlink:href="structrfs__directory__entry__inner__t.html" target="_top" xlink:title=" ">
<polygon fill="none" stroke="black" points="187,-67.5 187,-97.5 296,-97.5 296,-67.5 187,-67.5"/>
<text text-anchor="start" x="195" y="-85.5" font-family="Helvetica,sans-Serif" font-size="10.00">rfs_directory_entry</text>
<text text-anchor="middle" x="241.5" y="-74.5" font-family="Helvetica,sans-Serif" font-size="10.00">_inner_t</text>
</a>
</g>
</g>
<!-- Node2&#45;&gt;Node6 -->
<g id="edge8" class="edge">
<title>Node2&#45;&gt;Node6</title>
<path fill="none" stroke="#9a32cd" stroke-dasharray="5,2" d="M58.51,-195.51C93.09,-191.98 148.16,-184.41 163.5,-171 182.97,-153.98 165.84,-135.78 182.5,-116 188.82,-108.49 197.35,-102.4 205.95,-97.62"/>
<polygon fill="#9a32cd" stroke="#9a32cd" points="58.12,-192.03 48.5,-196.48 58.79,-199 58.12,-192.03"/>
<text text-anchor="middle" x="205.5" y="-146.5" font-family="Helvetica,sans-Serif" font-size="10.00"> filename</text>
<text text-anchor="middle" x="205.5" y="-135.5" font-family="Helvetica,sans-Serif" font-size="10.00">reserved</text>
</g>
<!-- Node3&#45;&gt;Node1 -->
<g id="edge2" class="edge">
<title>Node3&#45;&gt;Node1</title>
<path fill="none" stroke="#9a32cd" stroke-dasharray="5,2" d="M98.5,-62.44C98.5,-48.53 98.5,-30.32 98.5,-19.72"/>
<polygon fill="#9a32cd" stroke="#9a32cd" points="95,-62.86 98.5,-72.86 102,-62.86 95,-62.86"/>
<text text-anchor="middle" x="111.5" y="-41" font-family="Helvetica,sans-Serif" font-size="10.00"> start</text>
</g>
<!-- Node4 -->
<g id="node4" class="node">
<title>Node4</title>
<g id="a_node4"><a xlink:title=" ">
<polygon fill="none" stroke="#bfbfbf" points="148.5,-189.5 148.5,-208.5 204.5,-208.5 204.5,-189.5 148.5,-189.5"/>
<text text-anchor="middle" x="176.5" y="-196.5" font-family="Helvetica,sans-Serif" font-size="10.00">uint64_t</text>
</a>
</g>
</g>
<!-- Node4&#45;&gt;Node3 -->
<g id="edge3" class="edge">
<title>Node4&#45;&gt;Node3</title>
<path fill="none" stroke="#9a32cd" stroke-dasharray="5,2" d="M138.34,-193.91C123.76,-190.29 108.49,-183.53 99.5,-171 82.31,-147.06 90.6,-109.15 95.62,-92.2"/>
<polygon fill="#9a32cd" stroke="#9a32cd" points="137.74,-197.36 148.24,-195.96 139.16,-190.51 137.74,-197.36"/>
<text text-anchor="middle" x="131.5" y="-152" font-family="Helvetica,sans-Serif" font-size="10.00"> continuation</text>
<text text-anchor="middle" x="131.5" y="-141" font-family="Helvetica,sans-Serif" font-size="10.00">parent</text>
<text text-anchor="middle" x="131.5" y="-130" font-family="Helvetica,sans-Serif" font-size="10.00">sectors</text>
</g>
<!-- Node4&#45;&gt;Node6 -->
<g id="edge7" class="edge">
<title>Node4&#45;&gt;Node6</title>
<path fill="none" stroke="#9a32cd" stroke-dasharray="5,2" d="M213.85,-186.57C221.07,-182.72 227.83,-177.65 232.5,-171 247.85,-149.13 246.42,-116.27 243.97,-97.67"/>
<polygon fill="#9a32cd" stroke="#9a32cd" points="212.22,-183.47 204.58,-190.81 215.13,-189.83 212.22,-183.47"/>
<text text-anchor="middle" x="273.5" y="-163" font-family="Helvetica,sans-Serif" font-size="10.00"> created</text>
<text text-anchor="middle" x="273.5" y="-152" font-family="Helvetica,sans-Serif" font-size="10.00">length</text>
<text text-anchor="middle" x="273.5" y="-141" font-family="Helvetica,sans-Serif" font-size="10.00">modified</text>
<text text-anchor="middle" x="273.5" y="-130" font-family="Helvetica,sans-Serif" font-size="10.00">sector_start</text>
<text text-anchor="middle" x="273.5" y="-119" font-family="Helvetica,sans-Serif" font-size="10.00">sequence</text>
</g>
<!-- Node5 -->
<g id="node5" class="node">
<title>Node5</title>
<g id="a_node5"><a xlink:title=" ">
<polygon fill="none" stroke="#bfbfbf" points="332.5,-189.5 332.5,-208.5 388.5,-208.5 388.5,-189.5 332.5,-189.5"/>
<text text-anchor="middle" x="360.5" y="-196.5" font-family="Helvetica,sans-Serif" font-size="10.00">uint32_t</text>
</a>
</g>
</g>
<!-- Node5&#45;&gt;Node3 -->
<g id="edge5" class="edge">
<title>Node5&#45;&gt;Node3</title>
<path fill="none" stroke="#9a32cd" stroke-dasharray="5,2" d="M342.24,-182.28C338.76,-178.78 335.32,-174.93 332.5,-171 316.73,-149.03 328.27,-132.03 306.5,-116 283.36,-98.97 206.86,-102.56 178.5,-98 167.21,-96.18 155.05,-94.07 143.71,-92.02"/>
<polygon fill="#9a32cd" stroke="#9a32cd" points="340.04,-185.02 349.74,-189.29 344.83,-179.9 340.04,-185.02"/>
<text text-anchor="middle" x="346" y="-141" font-family="Helvetica,sans-Serif" font-size="10.00"> flags</text>
</g>
<!-- Node5&#45;&gt;Node6 -->
<g id="edge9" class="edge">
<title>Node5&#45;&gt;Node6</title>
<path fill="none" stroke="#9a32cd" stroke-dasharray="5,2" d="M367.33,-179.59C372.76,-161.5 377.36,-134.04 363.5,-116 354.95,-104.88 324.45,-96.75 296.09,-91.41"/>
<polygon fill="#9a32cd" stroke="#9a32cd" points="363.95,-178.66 364.09,-189.25 370.59,-180.89 363.95,-178.66"/>
<text text-anchor="middle" x="386" y="-141" font-family="Helvetica,sans-Serif" font-size="10.00"> flags</text>
</g>
<!-- Node6&#45;&gt;Node1 -->
<g id="edge6" class="edge">
<title>Node6&#45;&gt;Node1</title>
<path fill="none" stroke="#9a32cd" stroke-dasharray="5,2" d="M203.63,-62.83C175.16,-48.79 137.46,-30.21 115.81,-19.53"/>
<polygon fill="#9a32cd" stroke="#9a32cd" points="202.39,-66.12 212.9,-67.4 205.48,-59.84 202.39,-66.12"/>
<text text-anchor="middle" x="188" y="-41" font-family="Helvetica,sans-Serif" font-size="10.00"> entry</text>
</g>
</g>
</svg>
