<?xml version="1.0" encoding="UTF-8" standalone="no"?>
<!DOCTYPE svg PUBLIC "-//W3C//DTD SVG 1.1//EN"
 "http://www.w3.org/Graphics/SVG/1.1/DTD/svg11.dtd">
<!-- Generated by graphviz version 2.43.0 (0)
 -->
<!-- Title: rfs_directory_entry_t Pages: 1 -->
<svg width="488pt" height="206pt"
 viewBox="0.00 0.00 488.50 206.00" xmlns="http://www.w3.org/2000/svg" xmlns:xlink="http://www.w3.org/1999/xlink">
<g id="graph0" class="graph" transform="scale(1 1) rotate(0) translate(4 202)">
<title>rfs_directory_entry_t</title>
<!-- Node1 -->
<g id="node1" class="node">
<title>Node1</title>
<g id="a_node1"><a xlink:title="Unified representation of either a directory start or file entry.">
<polygon fill="#bfbfbf" stroke="black" points="38.5,-0.5 38.5,-19.5 156.5,-19.5 156.5,-0.5 38.5,-0.5"/>
<text text-anchor="middle" x="97.5" y="-7.5" font-family="Helvetica,sans-Serif" font-size="10.00">rfs_directory_entry_t</text>
</a>
</g>
</g>
<!-- Node2 -->
<g id="node2" class="node">
<title>Node2</title>
<g id="a_node2"><a xlink:title=" ">
<polygon fill="none" stroke="#bfbfbf" points="9.5,-178.5 9.5,-197.5 47.5,-197.5 47.5,-178.5 9.5,-178.5"/>
<text text-anchor="middle" x="28.5" y="-185.5" font-family="Helvetica,sans-Serif" font-size="10.00">char</text>
</a>
</g>
</g>
<!-- Node2&#45;&gt;Node1 -->
<g id="edge1" class="edge">
<title>Node2&#45;&gt;Node1</title>
<path fill="none" stroke="#9a32cd" stroke-dasharray="5,2" d="M18.75,-169.02C6.86,-144.44 -9.55,-99.68 8.5,-67 21.74,-43.03 50.02,-27.92 71.17,-19.52"/>
<polygon fill="#9a32cd" stroke="#9a32cd" points="15.78,-170.91 23.45,-178.22 22.02,-167.72 15.78,-170.91"/>
<text text-anchor="middle" x="19.5" y="-80" font-family="Helvetica,sans-Serif" font-size="10.00"> raw</text>
</g>
<!-- Node3 -->
<g id="node3" class="node">
<title>Node3</title>
<g id="a_node3"><a xlink:href="structrfs__directory__start__t.html" target="_top" xlink:title="On&#45;disk directory start entry.">
<polygon fill="none" stroke="black" points="40,-73 40,-92 155,-92 155,-73 40,-73"/>
<text text-anchor="middle" x="97.5" y="-80" font-family="Helvetica,sans-Serif" font-size="10.00">rfs_directory_start_t</text>
</a>
</g>
</g>
<!-- Node2&#45;&gt;Node3 -->
<g id="edge4" class="edge">
<title>Node2&#45;&gt;Node3</title>
<path fill="none" stroke="#9a32cd" stroke-dasharray="5,2" d="M23.72,-168.47C20.89,-153.18 19.55,-131.54 29.5,-116 36.91,-104.43 49.68,-96.88 62.17,-92.01"/>
<polygon fill="#9a32cd" stroke="#9a32cd" points="20.32,-169.31 25.91,-178.31 27.16,-167.79 20.32,-169.31"/>
<text text-anchor="middle" x="52.5" y="-141" font-family="Helvetica,sans-Serif" font-size="10.00"> reserved</text>
<text text-anchor="middle" x="52.5" y="-130" font-family="Helvetica,sans-Serif" font-size="10.00">title</text>
</g>
<!-- Node6 -->
<g id="node6" class="node">
<title>Node6</title>
<g id="a_node6"><a xlink:href="structrfs__directory__entry__inner__t.html" target="_top" xlink:title="On&#45;disk file entry structure for non&#45;directory entries.">
<polygon fill="none" stroke="black" points="199,-67.5 199,-97.5 308,-97.5 308,-67.5 199,-67.5"/>
<text text-anchor="start" x="207" y="-85.5" font-family="Helvetica,sans-Serif" font-size="10.00">rfs_directory_entry</text>
<text text-anchor="middle" x="253.5" y="-74.5" font-family="Helvetica,sans-Serif" font-size="10.00">_inner_t</text>
</a>
</g>
</g>
<!-- Node2&#45;&gt;Node6 -->
<g id="edge8" class="edge">
<title>Node2&#45;&gt;Node6</title>
<path fill="none" stroke="#9a32cd" stroke-dasharray="5,2" d="M57.62,-184.29C92.06,-180.56 146.71,-172.8 162.5,-160 179.05,-146.59 166.56,-131.18 181.5,-116 189.1,-108.28 198.86,-102.22 208.73,-97.55"/>
<polygon fill="#9a32cd" stroke="#9a32cd" points="57.24,-180.81 47.65,-185.32 57.96,-187.77 57.24,-180.81"/>
<text text-anchor="middle" x="204.5" y="-141" font-family="Helvetica,sans-Serif" font-size="10.00"> filename</text>
<text text-anchor="middle" x="204.5" y="-130" font-family="Helvetica,sans-Serif" font-size="10.00">reserved</text>
</g>
<!-- Node3&#45;&gt;Node1 -->
<g id="edge2" class="edge">
<title>Node3&#45;&gt;Node1</title>
<path fill="none" stroke="#9a32cd" stroke-dasharray="5,2" d="M97.5,-62.44C97.5,-48.53 97.5,-30.32 97.5,-19.72"/>
<polygon fill="#9a32cd" stroke="#9a32cd" points="94,-62.86 97.5,-72.86 101,-62.86 94,-62.86"/>
<text text-anchor="middle" x="110.5" y="-41" font-family="Helvetica,sans-Serif" font-size="10.00"> start</text>
</g>
<!-- Node4 -->
<g id="node4" class="node">
<title>Node4</title>
<g id="a_node4"><a xlink:title=" ">
<polygon fill="none" stroke="#bfbfbf" points="147.5,-178.5 147.5,-197.5 203.5,-197.5 203.5,-178.5 147.5,-178.5"/>
<text text-anchor="middle" x="175.5" y="-185.5" font-family="Helvetica,sans-Serif" font-size="10.00">uint64_t</text>
</a>
</g>
</g>
<!-- Node4&#45;&gt;Node3 -->
<g id="edge3" class="edge">
<title>Node4&#45;&gt;Node3</title>
<path fill="none" stroke="#9a32cd" stroke-dasharray="5,2" d="M137.35,-182.91C122.77,-179.28 107.5,-172.52 98.5,-160 83.77,-139.51 90.35,-107.29 94.73,-92.05"/>
<polygon fill="#9a32cd" stroke="#9a32cd" points="136.75,-186.35 147.25,-184.95 138.17,-179.5 136.75,-186.35"/>
<text text-anchor="middle" x="130.5" y="-146.5" font-family="Helvetica,sans-Serif" font-size="10.00"> continuation</text>
<text text-anchor="middle" x="130.5" y="-135.5" font-family="Helvetica,sans-Serif" font-size="10.00">parent</text>
<text text-anchor="middle" x="130.5" y="-124.5" font-family="Helvetica,sans-Serif" font-size="10.00">sectors</text>
</g>
<!-- Node4&#45;&gt;Node6 -->
<g id="edge7" class="edge">
<title>Node4&#45;&gt;Node6</title>
<path fill="none" stroke="#9a32cd" stroke-dasharray="5,2" d="M213.08,-174.33C219.96,-170.61 226.52,-165.9 231.5,-160 246.65,-142.04 251.38,-114.2 252.85,-97.52"/>
<polygon fill="#9a32cd" stroke="#9a32cd" points="211.16,-171.37 203.63,-178.82 214.16,-177.69 211.16,-171.37"/>
<text text-anchor="middle" x="284" y="-152" font-family="Helvetica,sans-Serif" font-size="10.00"> length</text>
<text text-anchor="middle" x="284" y="-141" font-family="Helvetica,sans-Serif" font-size="10.00">sector_length</text>
<text text-anchor="middle" x="284" y="-130" font-family="Helvetica,sans-Serif" font-size="10.00">sector_start</text>
<text text-anchor="middle" x="284" y="-119" font-family="Helvetica,sans-Serif" font-size="10.00">sequence</text>
</g>
<!-- Node5 -->
<g id="node5" class="node">
<title>Node5</title>
<g id="a_node5"><a xlink:title=" ">
<polygon fill="none" stroke="#bfbfbf" points="329.5,-178.5 329.5,-197.5 385.5,-197.5 385.5,-178.5 329.5,-178.5"/>
<text text-anchor="middle" x="357.5" y="-185.5" font-family="Helvetica,sans-Serif" font-size="10.00">uint32_t</text>
</a>
</g>
</g>
<!-- Node5&#45;&gt;Node3 -->
<g id="edge5" class="edge">
<title>Node5&#45;&gt;Node3</title>
<path fill="none" stroke="#9a32cd" stroke-dasharray="5,2" d="M345.94,-169.51C344.04,-166.39 342.15,-163.14 340.5,-160 330.57,-141.15 338.46,-128.88 321.5,-116 297.92,-98.1 218.79,-102.3 189.5,-98 176.86,-96.14 163.26,-94.05 150.5,-92.05"/>
<polygon fill="#9a32cd" stroke="#9a32cd" points="343.15,-171.65 351.48,-178.2 349.06,-167.89 343.15,-171.65"/>
<text text-anchor="middle" x="354" y="-135.5" font-family="Helvetica,sans-Serif" font-size="10.00"> flags</text>
</g>
<!-- Node5&#45;&gt;Node6 -->
<g id="edge10" class="edge">
<title>Node5&#45;&gt;Node6</title>
<path fill="none" stroke="#9a32cd" stroke-dasharray="5,2" d="M368.19,-169.07C375.91,-153.54 383.11,-131.25 371.5,-116 363.45,-105.44 335.13,-97.44 308.25,-92.02"/>
<polygon fill="#9a32cd" stroke="#9a32cd" points="364.96,-167.69 363.24,-178.15 371.1,-171.04 364.96,-167.69"/>
<text text-anchor="middle" x="392" y="-135.5" font-family="Helvetica,sans-Serif" font-size="10.00"> flags</text>
</g>
<!-- Node6&#45;&gt;Node1 -->
<g id="edge6" class="edge">
<title>Node6&#45;&gt;Node1</title>
<path fill="none" stroke="#9a32cd" stroke-dasharray="5,2" d="M213,-63.2C181.85,-49.12 140.21,-30.3 116.38,-19.53"/>
<polygon fill="#9a32cd" stroke="#9a32cd" points="211.75,-66.47 222.3,-67.4 214.63,-60.1 211.75,-66.47"/>
<text text-anchor="middle" x="195" y="-41" font-family="Helvetica,sans-Serif" font-size="10.00"> entry</text>
</g>
<!-- Node7 -->
<g id="node7" class="node">
<title>Node7</title>
<g id="a_node7"><a xlink:title=" ">
<polygon fill="none" stroke="#bfbfbf" points="418.5,-178.5 418.5,-197.5 468.5,-197.5 468.5,-178.5 418.5,-178.5"/>
<text text-anchor="middle" x="443.5" y="-185.5" font-family="Helvetica,sans-Serif" font-size="10.00">int64_t</text>
</a>
</g>
</g>
<!-- Node7&#45;&gt;Node6 -->
<g id="edge9" class="edge">
<title>Node7&#45;&gt;Node6</title>
<path fill="none" stroke="#9a32cd" stroke-dasharray="5,2" d="M439.53,-168.47C435.05,-152.15 426.1,-129.02 409.5,-116 393.88,-103.75 346.75,-95.03 308.35,-89.72"/>
<polygon fill="#9a32cd" stroke="#9a32cd" points="436.2,-169.58 441.96,-178.47 443,-167.93 436.2,-169.58"/>
<text text-anchor="middle" x="459" y="-141" font-family="Helvetica,sans-Serif" font-size="10.00"> created</text>
<text text-anchor="middle" x="459" y="-130" font-family="Helvetica,sans-Serif" font-size="10.00">modified</text>
</g>
</g>
</svg>
