<?xml version="1.0" encoding="UTF-8" standalone="no"?>
<!DOCTYPE svg PUBLIC "-//W3C//DTD SVG 1.1//EN"
 "http://www.w3.org/Graphics/SVG/1.1/DTD/svg11.dtd">
<!-- Generated by graphviz version 2.43.0 (0)
 -->
<!-- Title: tcp_segment_flags_t Pages: 1 -->
<svg width="174pt" height="205pt"
 viewBox="0.00 0.00 174.00 205.00" xmlns="http://www.w3.org/2000/svg" xmlns:xlink="http://www.w3.org/1999/xlink">
<g id="graph0" class="graph" transform="scale(1 1) rotate(0) translate(4 201)">
<title>tcp_segment_flags_t</title>
<!-- Node1 -->
<g id="node1" class="node">
<title>Node1</title>
<g id="a_node1"><a xlink:title=" ">
<polygon fill="#bfbfbf" stroke="black" points="12.5,-0.5 12.5,-19.5 129.5,-19.5 129.5,-0.5 12.5,-0.5"/>
<text text-anchor="middle" x="71" y="-7.5" font-family="Helvetica,sans-Serif" font-size="10.00">tcp_segment_flags_t</text>
</a>
</g>
</g>
<!-- Node2 -->
<g id="node2" class="node">
<title>Node2</title>
<g id="a_node2"><a xlink:title=" ">
<polygon fill="none" stroke="#bfbfbf" points="0,-177.5 0,-196.5 50,-196.5 50,-177.5 0,-177.5"/>
<text text-anchor="middle" x="25" y="-184.5" font-family="Helvetica,sans-Serif" font-size="10.00">uint8_t</text>
</a>
</g>
</g>
<!-- Node2&#45;&gt;Node1 -->
<g id="edge1" class="edge">
<title>Node2&#45;&gt;Node1</title>
<path fill="none" stroke="#9a32cd" stroke-dasharray="5,2" d="M25.86,-167.01C27.74,-138.11 33.63,-81.83 52,-38 54.75,-31.44 59.29,-24.91 63.25,-19.9"/>
<polygon fill="#9a32cd" stroke="#9a32cd" points="22.35,-167.11 25.29,-177.29 29.34,-167.5 22.35,-167.11"/>
<text text-anchor="middle" x="73.5" y="-151" font-family="Helvetica,sans-Serif" font-size="10.00"> ack</text>
<text text-anchor="middle" x="73.5" y="-140" font-family="Helvetica,sans-Serif" font-size="10.00">bits1</text>
<text text-anchor="middle" x="73.5" y="-129" font-family="Helvetica,sans-Serif" font-size="10.00">bits2</text>
<text text-anchor="middle" x="73.5" y="-118" font-family="Helvetica,sans-Serif" font-size="10.00">cwr</text>
<text text-anchor="middle" x="73.5" y="-107" font-family="Helvetica,sans-Serif" font-size="10.00">ece</text>
<text text-anchor="middle" x="73.5" y="-96" font-family="Helvetica,sans-Serif" font-size="10.00">fin</text>
<text text-anchor="middle" x="73.5" y="-85" font-family="Helvetica,sans-Serif" font-size="10.00">off</text>
<text text-anchor="middle" x="73.5" y="-74" font-family="Helvetica,sans-Serif" font-size="10.00">psh</text>
<text text-anchor="middle" x="73.5" y="-63" font-family="Helvetica,sans-Serif" font-size="10.00">reserved</text>
<text text-anchor="middle" x="73.5" y="-52" font-family="Helvetica,sans-Serif" font-size="10.00">rst</text>
<text text-anchor="middle" x="73.5" y="-41" font-family="Helvetica,sans-Serif" font-size="10.00">...</text>
</g>
<!-- Node3 -->
<g id="node3" class="node">
<title>Node3</title>
<g id="a_node3"><a xlink:title=" ">
<polygon fill="none" stroke="#bfbfbf" points="68,-177.5 68,-196.5 166,-196.5 166,-177.5 68,-177.5"/>
<text text-anchor="middle" x="117" y="-184.5" font-family="Helvetica,sans-Serif" font-size="10.00">anonymous:@14</text>
</a>
</g>
</g>
<!-- Node3&#45;&gt;Node1 -->
<g id="edge2" class="edge">
<title>Node3&#45;&gt;Node1</title>
<path fill="none" stroke="#9a32cd" stroke-dasharray="5,2" d="M117.56,-167.14C117.71,-138.03 115.1,-81.01 95,-38 91.71,-30.95 85.97,-24.4 80.94,-19.51"/>
<polygon fill="#9a32cd" stroke="#9a32cd" points="114.06,-167.11 117.39,-177.16 121.06,-167.22 114.06,-167.11"/>
<text text-anchor="middle" x="129.5" y="-96" font-family="Helvetica,sans-Serif" font-size="10.00"> @14</text>
</g>
</g>
</svg>
