<?xml version="1.0" encoding="UTF-8" standalone="no"?>
<!DOCTYPE svg PUBLIC "-//W3C//DTD SVG 1.1//EN"
 "http://www.w3.org/Graphics/SVG/1.1/DTD/svg11.dtd">
<!-- Generated by graphviz version 2.43.0 (0)
 -->
<!-- Title: tcp_segment_flags_t Pages: 1 -->
<svg width="191pt" height="205pt"
 viewBox="0.00 0.00 191.00 205.00" xmlns="http://www.w3.org/2000/svg" xmlns:xlink="http://www.w3.org/1999/xlink">
<g id="graph0" class="graph" transform="scale(1 1) rotate(0) translate(4 201)">
<title>tcp_segment_flags_t</title>
<!-- Node1 -->
<g id="node1" class="node">
<title>Node1</title>
<g id="a_node1"><a xlink:title=" ">
<polygon fill="#bfbfbf" stroke="black" points="36.5,-0.5 36.5,-19.5 153.5,-19.5 153.5,-0.5 36.5,-0.5"/>
<text text-anchor="middle" x="95" y="-7.5" font-family="Helvetica,sans-Serif" font-size="10.00">tcp_segment_flags_t</text>
</a>
</g>
</g>
<!-- Node2 -->
<g id="node2" class="node">
<title>Node2</title>
<g id="a_node2"><a xlink:title=" ">
<polygon fill="none" stroke="#bfbfbf" points="0,-177.5 0,-196.5 98,-196.5 98,-177.5 0,-177.5"/>
<text text-anchor="middle" x="49" y="-184.5" font-family="Helvetica,sans-Serif" font-size="10.00">anonymous:@11</text>
</a>
</g>
</g>
<!-- Node2&#45;&gt;Node1 -->
<g id="edge1" class="edge">
<title>Node2&#45;&gt;Node1</title>
<path fill="none" stroke="#9a32cd" stroke-dasharray="5,2" d="M54.01,-166.95C63.9,-129.3 85.63,-46.65 92.71,-19.69"/>
<polygon fill="#9a32cd" stroke="#9a32cd" points="50.5,-166.52 51.34,-177.08 57.27,-168.3 50.5,-166.52"/>
<text text-anchor="middle" x="100.5" y="-96" font-family="Helvetica,sans-Serif" font-size="10.00"> @11</text>
</g>
<!-- Node3 -->
<g id="node3" class="node">
<title>Node3</title>
<g id="a_node3"><a xlink:title=" ">
<polygon fill="none" stroke="#bfbfbf" points="116,-177.5 116,-196.5 166,-196.5 166,-177.5 116,-177.5"/>
<text text-anchor="middle" x="141" y="-184.5" font-family="Helvetica,sans-Serif" font-size="10.00">uint8_t</text>
</a>
</g>
</g>
<!-- Node3&#45;&gt;Node1 -->
<g id="edge2" class="edge">
<title>Node3&#45;&gt;Node1</title>
<path fill="none" stroke="#9a32cd" stroke-dasharray="5,2" d="M141.01,-166.85C140.35,-137.75 136.41,-81.2 117,-38 113.93,-31.16 108.67,-24.61 104.06,-19.68"/>
<polygon fill="#9a32cd" stroke="#9a32cd" points="137.51,-167.25 141.13,-177.21 144.51,-167.17 137.51,-167.25"/>
<text text-anchor="middle" x="161.5" y="-151" font-family="Helvetica,sans-Serif" font-size="10.00"> ack</text>
<text text-anchor="middle" x="161.5" y="-140" font-family="Helvetica,sans-Serif" font-size="10.00">bits1</text>
<text text-anchor="middle" x="161.5" y="-129" font-family="Helvetica,sans-Serif" font-size="10.00">bits2</text>
<text text-anchor="middle" x="161.5" y="-118" font-family="Helvetica,sans-Serif" font-size="10.00">cwr</text>
<text text-anchor="middle" x="161.5" y="-107" font-family="Helvetica,sans-Serif" font-size="10.00">ece</text>
<text text-anchor="middle" x="161.5" y="-96" font-family="Helvetica,sans-Serif" font-size="10.00">fin</text>
<text text-anchor="middle" x="161.5" y="-85" font-family="Helvetica,sans-Serif" font-size="10.00">off</text>
<text text-anchor="middle" x="161.5" y="-74" font-family="Helvetica,sans-Serif" font-size="10.00">psh</text>
<text text-anchor="middle" x="161.5" y="-63" font-family="Helvetica,sans-Serif" font-size="10.00">reserved</text>
<text text-anchor="middle" x="161.5" y="-52" font-family="Helvetica,sans-Serif" font-size="10.00">rst</text>
<text text-anchor="middle" x="161.5" y="-41" font-family="Helvetica,sans-Serif" font-size="10.00">...</text>
</g>
</g>
</svg>
