<?xml version="1.0" encoding="UTF-8" standalone="no"?>
<!DOCTYPE svg PUBLIC "-//W3C//DTD SVG 1.1//EN"
 "http://www.w3.org/Graphics/SVG/1.1/DTD/svg11.dtd">
<!-- Generated by graphviz version 2.43.0 (0)
 -->
<!-- Title: rfs_description_block_padded_t Pages: 1 -->
<svg width="209pt" height="239pt"
 viewBox="0.00 0.00 208.50 239.00" xmlns="http://www.w3.org/2000/svg" xmlns:xlink="http://www.w3.org/1999/xlink">
<g id="graph0" class="graph" transform="scale(1 1) rotate(0) translate(4 235)">
<title>rfs_description_block_padded_t</title>
<!-- Node1 -->
<g id="node1" class="node">
<title>Node1</title>
<g id="a_node1"><a xlink:title=" ">
<polygon fill="#bfbfbf" stroke="black" points="55.5,-0.5 55.5,-30.5 175.5,-30.5 175.5,-0.5 55.5,-0.5"/>
<text text-anchor="start" x="63.5" y="-18.5" font-family="Helvetica,sans-Serif" font-size="10.00">rfs_description_block</text>
<text text-anchor="middle" x="115.5" y="-7.5" font-family="Helvetica,sans-Serif" font-size="10.00">_padded_t</text>
</a>
</g>
</g>
<!-- Node2 -->
<g id="node2" class="node">
<title>Node2</title>
<g id="a_node2"><a xlink:href="structrfs__description__block__t.html" target="_top" xlink:title=" ">
<polygon fill="none" stroke="black" points="0,-78.5 0,-97.5 129,-97.5 129,-78.5 0,-78.5"/>
<text text-anchor="middle" x="64.5" y="-85.5" font-family="Helvetica,sans-Serif" font-size="10.00">rfs_description_block_t</text>
</a>
</g>
</g>
<!-- Node2&#45;&gt;Node1 -->
<g id="edge1" class="edge">
<title>Node2&#45;&gt;Node1</title>
<path fill="none" stroke="#9a32cd" stroke-dasharray="5,2" d="M76.77,-70.04C85.5,-57.97 97.1,-41.94 105.32,-30.58"/>
<polygon fill="#9a32cd" stroke="#9a32cd" points="73.78,-68.2 70.75,-78.36 79.45,-72.3 73.78,-68.2"/>
<text text-anchor="middle" x="105.5" y="-52" font-family="Helvetica,sans-Serif" font-size="10.00"> desc</text>
</g>
<!-- Node3 -->
<g id="node3" class="node">
<title>Node3</title>
<g id="a_node3"><a xlink:title=" ">
<polygon fill="none" stroke="#bfbfbf" points="36.5,-211.5 36.5,-230.5 92.5,-230.5 92.5,-211.5 36.5,-211.5"/>
<text text-anchor="middle" x="64.5" y="-218.5" font-family="Helvetica,sans-Serif" font-size="10.00">uint64_t</text>
</a>
</g>
</g>
<!-- Node3&#45;&gt;Node2 -->
<g id="edge2" class="edge">
<title>Node3&#45;&gt;Node2</title>
<path fill="none" stroke="#9a32cd" stroke-dasharray="5,2" d="M64.5,-201.09C64.5,-172.36 64.5,-118.82 64.5,-97.8"/>
<polygon fill="#9a32cd" stroke="#9a32cd" points="61,-201.4 64.5,-211.4 68,-201.4 61,-201.4"/>
<text text-anchor="middle" x="132.5" y="-185" font-family="Helvetica,sans-Serif" font-size="10.00"> creation_time</text>
<text text-anchor="middle" x="132.5" y="-174" font-family="Helvetica,sans-Serif" font-size="10.00">free_space_map_checksum</text>
<text text-anchor="middle" x="132.5" y="-163" font-family="Helvetica,sans-Serif" font-size="10.00">free_space_map_length</text>
<text text-anchor="middle" x="132.5" y="-152" font-family="Helvetica,sans-Serif" font-size="10.00">free_space_map_start</text>
<text text-anchor="middle" x="132.5" y="-141" font-family="Helvetica,sans-Serif" font-size="10.00">identifier</text>
<text text-anchor="middle" x="132.5" y="-130" font-family="Helvetica,sans-Serif" font-size="10.00">root_directory</text>
<text text-anchor="middle" x="132.5" y="-119" font-family="Helvetica,sans-Serif" font-size="10.00">sequence</text>
</g>
<!-- Node4 -->
<g id="node4" class="node">
<title>Node4</title>
<g id="a_node4"><a xlink:title=" ">
<polygon fill="none" stroke="#bfbfbf" points="147.5,-78.5 147.5,-97.5 185.5,-97.5 185.5,-78.5 147.5,-78.5"/>
<text text-anchor="middle" x="166.5" y="-85.5" font-family="Helvetica,sans-Serif" font-size="10.00">char</text>
</a>
</g>
</g>
<!-- Node4&#45;&gt;Node1 -->
<g id="edge3" class="edge">
<title>Node4&#45;&gt;Node1</title>
<path fill="none" stroke="#9a32cd" stroke-dasharray="5,2" d="M154.23,-70.04C145.5,-57.97 133.9,-41.94 125.68,-30.58"/>
<polygon fill="#9a32cd" stroke="#9a32cd" points="151.55,-72.3 160.25,-78.36 157.22,-68.2 151.55,-72.3"/>
<text text-anchor="middle" x="156.5" y="-52" font-family="Helvetica,sans-Serif" font-size="10.00"> raw</text>
</g>
</g>
</svg>
