<?xml version="1.0" encoding="UTF-8" standalone="no"?>
<!DOCTYPE svg PUBLIC "-//W3C//DTD SVG 1.1//EN"
 "http://www.w3.org/Graphics/SVG/1.1/DTD/svg11.dtd">
<!-- Generated by graphviz version 2.43.0 (0)
 -->
<!-- Title: tos_flags Pages: 1 -->
<svg width="168pt" height="117pt"
 viewBox="0.00 0.00 168.00 117.00" xmlns="http://www.w3.org/2000/svg" xmlns:xlink="http://www.w3.org/1999/xlink">
<g id="graph0" class="graph" transform="scale(1 1) rotate(0) translate(4 113)">
<title>tos_flags</title>
<!-- Node1 -->
<g id="node1" class="node">
<title>Node1</title>
<g id="a_node1"><a xlink:title=" ">
<polygon fill="#bfbfbf" stroke="black" points="39,-0.5 39,-19.5 99,-19.5 99,-0.5 39,-0.5"/>
<text text-anchor="middle" x="69" y="-7.5" font-family="Helvetica,sans-Serif" font-size="10.00">tos_flags</text>
</a>
</g>
</g>
<!-- Node2 -->
<g id="node2" class="node">
<title>Node2</title>
<g id="a_node2"><a xlink:title=" ">
<polygon fill="none" stroke="black" points="0,-89.5 0,-108.5 50,-108.5 50,-89.5 0,-89.5"/>
<text text-anchor="middle" x="25" y="-96.5" font-family="Helvetica,sans-Serif" font-size="10.00">uint8_t</text>
</a>
</g>
</g>
<!-- Node2&#45;&gt;Node1 -->
<g id="edge1" class="edge">
<title>Node2&#45;&gt;Node1</title>
<path fill="none" stroke="#9a32cd" stroke-dasharray="5,2" d="M33.99,-80.23C43.32,-61.77 57.53,-33.67 64.64,-19.62"/>
<polygon fill="#9a32cd" stroke="#9a32cd" points="30.77,-78.84 29.38,-89.34 37.02,-82 30.77,-78.84"/>
<text text-anchor="middle" x="66.5" y="-63" font-family="Helvetica,sans-Serif" font-size="10.00"> bits</text>
<text text-anchor="middle" x="66.5" y="-52" font-family="Helvetica,sans-Serif" font-size="10.00">dscp</text>
<text text-anchor="middle" x="66.5" y="-41" font-family="Helvetica,sans-Serif" font-size="10.00">ecn</text>
</g>
<!-- Node3 -->
<g id="node3" class="node">
<title>Node3</title>
<g id="a_node3"><a xlink:title=" ">
<polygon fill="none" stroke="black" points="68,-89.5 68,-108.5 160,-108.5 160,-89.5 68,-89.5"/>
<text text-anchor="middle" x="114" y="-96.5" font-family="Helvetica,sans-Serif" font-size="10.00">anonymous:@5</text>
</a>
</g>
</g>
<!-- Node3&#45;&gt;Node1 -->
<g id="edge2" class="edge">
<title>Node3&#45;&gt;Node1</title>
<path fill="none" stroke="#9a32cd" stroke-dasharray="5,2" d="M104.81,-80.23C95.26,-61.77 80.73,-33.67 73.46,-19.62"/>
<polygon fill="#9a32cd" stroke="#9a32cd" points="101.82,-82.07 109.52,-89.34 108.04,-78.85 101.82,-82.07"/>
<text text-anchor="middle" x="108.5" y="-52" font-family="Helvetica,sans-Serif" font-size="10.00"> @5</text>
</g>
</g>
</svg>
