<?xml version="1.0" encoding="UTF-8" standalone="no"?>
<!DOCTYPE svg PUBLIC "-//W3C//DTD SVG 1.1//EN"
 "http://www.w3.org/Graphics/SVG/1.1/DTD/svg11.dtd">
<!-- Generated by graphviz version 2.43.0 (0)
 -->
<!-- Title: ip_frag Pages: 1 -->
<svg width="293pt" height="139pt"
 viewBox="0.00 0.00 293.00 139.00" xmlns="http://www.w3.org/2000/svg" xmlns:xlink="http://www.w3.org/1999/xlink">
<g id="graph0" class="graph" transform="scale(1 1) rotate(0) translate(4 135)">
<title>ip_frag</title>
<!-- Node1 -->
<g id="node1" class="node">
<title>Node1</title>
<g id="a_node1"><a xlink:title="Structure and bitfields for representing IP fragmentation. Used within an ip_packet_t.">
<polygon fill="#bfbfbf" stroke="black" points="74,-0.5 74,-19.5 124,-19.5 124,-0.5 74,-0.5"/>
<text text-anchor="middle" x="99" y="-7.5" font-family="Helvetica,sans-Serif" font-size="10.00">ip_frag</text>
</a>
</g>
</g>
<!-- Node2 -->
<g id="node2" class="node">
<title>Node2</title>
<g id="a_node2"><a xlink:title=" ">
<polygon fill="none" stroke="#bfbfbf" points="0,-111.5 0,-130.5 56,-130.5 56,-111.5 0,-111.5"/>
<text text-anchor="middle" x="28" y="-118.5" font-family="Helvetica,sans-Serif" font-size="10.00">uint16_t</text>
</a>
</g>
</g>
<!-- Node2&#45;&gt;Node1 -->
<g id="edge1" class="edge">
<title>Node2&#45;&gt;Node1</title>
<path fill="none" stroke="#9a32cd" stroke-dasharray="5,2" d="M36.15,-102.02C44.33,-84.84 57.86,-58.58 73,-38 77.86,-31.4 84.23,-24.75 89.45,-19.71"/>
<polygon fill="#9a32cd" stroke="#9a32cd" points="32.83,-100.87 31.79,-111.42 39.18,-103.82 32.83,-100.87"/>
<text text-anchor="middle" x="84" y="-63" font-family="Helvetica,sans-Serif" font-size="10.00"> bits</text>
</g>
<!-- Node3 -->
<g id="node3" class="node">
<title>Node3</title>
<g id="a_node3"><a xlink:title=" ">
<polygon fill="none" stroke="#bfbfbf" points="74,-111.5 74,-130.5 124,-130.5 124,-111.5 74,-111.5"/>
<text text-anchor="middle" x="99" y="-118.5" font-family="Helvetica,sans-Serif" font-size="10.00">uint8_t</text>
</a>
</g>
</g>
<!-- Node3&#45;&gt;Node1 -->
<g id="edge2" class="edge">
<title>Node3&#45;&gt;Node1</title>
<path fill="none" stroke="#9a32cd" stroke-dasharray="5,2" d="M99,-101.19C99,-77.28 99,-36.99 99,-19.51"/>
<polygon fill="#9a32cd" stroke="#9a32cd" points="95.5,-101.45 99,-111.45 102.5,-101.45 95.5,-101.45"/>
<text text-anchor="middle" x="157.5" y="-85" font-family="Helvetica,sans-Serif" font-size="10.00"> dont_fragment</text>
<text text-anchor="middle" x="157.5" y="-74" font-family="Helvetica,sans-Serif" font-size="10.00">fragment_offset_high</text>
<text text-anchor="middle" x="157.5" y="-63" font-family="Helvetica,sans-Serif" font-size="10.00">fragment_offset_low</text>
<text text-anchor="middle" x="157.5" y="-52" font-family="Helvetica,sans-Serif" font-size="10.00">more_fragments_follow</text>
<text text-anchor="middle" x="157.5" y="-41" font-family="Helvetica,sans-Serif" font-size="10.00">reserved_zero</text>
</g>
<!-- Node4 -->
<g id="node4" class="node">
<title>Node4</title>
<g id="a_node4"><a xlink:title=" ">
<polygon fill="none" stroke="#bfbfbf" points="193,-111.5 193,-130.5 285,-130.5 285,-111.5 193,-111.5"/>
<text text-anchor="middle" x="239" y="-118.5" font-family="Helvetica,sans-Serif" font-size="10.00">anonymous:@2</text>
</a>
</g>
</g>
<!-- Node4&#45;&gt;Node1 -->
<g id="edge3" class="edge">
<title>Node4&#45;&gt;Node1</title>
<path fill="none" stroke="#9a32cd" stroke-dasharray="5,2" d="M239.21,-101.19C238.37,-82.53 234.05,-54.43 217,-38 203.91,-25.39 154.62,-17.49 124.04,-13.7"/>
<polygon fill="#9a32cd" stroke="#9a32cd" points="235.72,-101.45 239.38,-111.39 242.72,-101.34 235.72,-101.45"/>
<text text-anchor="middle" x="247.5" y="-63" font-family="Helvetica,sans-Serif" font-size="10.00"> @2</text>
</g>
</g>
</svg>
